<?xml version="1.0" encoding="utf-8" standalone="no"?>
<!DOCTYPE svg PUBLIC "-//W3C//DTD SVG 1.1//EN"
  "http://www.w3.org/Graphics/SVG/1.1/DTD/svg11.dtd">
<svg xmlns:xlink="http://www.w3.org/1999/xlink" width="673.538pt" height="376.416pt" viewBox="0 0 673.538 376.416" xmlns="http://www.w3.org/2000/svg" version="1.1">
 <metadata>
  <rdf:RDF xmlns:dc="http://purl.org/dc/elements/1.1/" xmlns:cc="http://creativecommons.org/ns#" xmlns:rdf="http://www.w3.org/1999/02/22-rdf-syntax-ns#">
   <cc:Work>
    <dc:type rdf:resource="http://purl.org/dc/dcmitype/StillImage"/>
    <dc:date>2026-07-19T05:35:48.853863</dc:date>
    <dc:format>image/svg+xml</dc:format>
    <dc:creator>
     <cc:Agent>
      <dc:title>Matplotlib v3.11.1, https://matplotlib.org/</dc:title>
     </cc:Agent>
    </dc:creator>
   </cc:Work>
  </rdf:RDF>
 </metadata>
 <defs>
  <style type="text/css">*{stroke-linejoin: round; stroke-linecap: butt}</style>
 </defs>
 <g id="figure_1">
  <g id="patch_1">
   <path d="M 0 376.416 
L 673.538 376.416 
L 673.538 0 
L 0 0 
z
" style="fill: #ffffff"/>
  </g>
  <g id="axes_1">
   <g id="patch_2">
    <path d="M 26.3232 354.528 
L 571.8528 354.528 
Q 576.288 354.528 576.288 350.0928 
L 576.288 26.3232 
Q 576.288 21.888 571.8528 21.888 
L 26.3232 21.888 
Q 21.888 21.888 21.888 26.3232 
L 21.888 350.0928 
Q 21.888 354.528 26.3232 354.528 
z
" clip-path="url(#p6e3712d165)" style="fill: #ffffff; stroke: #d1d5db; stroke-width: 1.4; stroke-linejoin: miter"/>
   </g>
   <g id="patch_3">
    <path d="M 21.888 354.528 
L 576.288 354.528 
L 576.288 52.38 
L 21.888 52.38 
z
" clip-path="url(#p6e3712d165)" style="fill: #ffffff"/>
   </g>
   <g id="patch_4">
    <path d="M 21.888 52.38 
L 576.288 52.38 
L 576.288 21.888 
L 21.888 21.888 
z
" clip-path="url(#p6e3712d165)" style="fill: #eef0f3"/>
   </g>
   <g id="patch_5">
    <path d="M 37.4112 41.0148 
C 38.4404 41.0148 39.427586 40.605894 40.15534 39.87814 
C 40.883094 39.150386 41.292 38.1632 41.292 37.134 
C 41.292 36.1048 40.883094 35.117614 40.15534 34.38986 
C 39.427586 33.662106 38.4404 33.2532 37.4112 33.2532 
C 36.382 33.2532 35.394814 33.662106 34.66706 34.38986 
C 33.939306 35.117614 33.5304 36.1048 33.5304 37.134 
C 33.5304 38.1632 33.939306 39.150386 34.66706 39.87814 
C 35.394814 40.605894 36.382 41.0148 37.4112 41.0148 
z
" clip-path="url(#p6e3712d165)" style="fill: #b91c1c"/>
   </g>
   <g id="patch_6">
    <path d="M 51.8256 41.0148 
C 52.8548 41.0148 53.841986 40.605894 54.56974 39.87814 
C 55.297494 39.150386 55.7064 38.1632 55.7064 37.134 
C 55.7064 36.1048 55.297494 35.117614 54.56974 34.38986 
C 53.841986 33.662106 52.8548 33.2532 51.8256 33.2532 
C 50.7964 33.2532 49.809214 33.662106 49.08146 34.38986 
C 48.353706 35.117614 47.9448 36.1048 47.9448 37.134 
C 47.9448 38.1632 48.353706 39.150386 49.08146 39.87814 
C 49.809214 40.605894 50.7964 41.0148 51.8256 41.0148 
z
" clip-path="url(#p6e3712d165)" style="fill: #e3a008"/>
   </g>
   <g id="patch_7">
    <path d="M 66.24 41.0148 
C 67.2692 41.0148 68.256386 40.605894 68.98414 39.87814 
C 69.711894 39.150386 70.1208 38.1632 70.1208 37.134 
C 70.1208 36.1048 69.711894 35.117614 68.98414 34.38986 
C 68.256386 33.662106 67.2692 33.2532 66.24 33.2532 
C 65.2108 33.2532 64.223614 33.662106 63.49586 34.38986 
C 62.768106 35.117614 62.3592 36.1048 62.3592 37.134 
C 62.3592 38.1632 62.768106 39.150386 63.49586 39.87814 
C 64.223614 40.605894 65.2108 41.0148 66.24 41.0148 
z
" clip-path="url(#p6e3712d165)" style="fill: #1f8a56"/>
   </g>
   <g id="patch_8">
    <path d="M 93.4056 45.7272 
L 549.1224 45.7272 
Q 556.884 45.7272 556.884 37.9656 
L 556.884 36.3024 
Q 556.884 28.5408 549.1224 28.5408 
L 93.4056 28.5408 
Q 85.644 28.5408 85.644 36.3024 
L 85.644 37.9656 
Q 85.644 45.7272 93.4056 45.7272 
z
" clip-path="url(#p6e3712d165)" style="fill: #ffffff; stroke: #d1d5db; stroke-linejoin: miter"/>
   </g>
   <g id="patch_9">
    <path d="M 41.8464 251.964 
L 268.0416 251.964 
Q 271.368 251.964 271.368 248.6376 
L 271.368 83.4264 
Q 271.368 80.1 268.0416 80.1 
L 41.8464 80.1 
Q 38.52 80.1 38.52 83.4264 
L 38.52 248.6376 
Q 38.52 251.964 41.8464 251.964 
z
" clip-path="url(#p6e3712d165)" style="fill: #f3f4f6; stroke: #e5e7eb; stroke-width: 1.2; stroke-linejoin: miter"/>
   </g>
   <g id="patch_10">
    <path d="M 41.292 276.912 
L 89.802 276.912 
Q 92.574 276.912 92.574 274.14 
L 92.574 260.28 
Q 92.574 257.508 89.802 257.508 
L 41.292 257.508 
Q 38.52 257.508 38.52 260.28 
L 38.52 274.14 
Q 38.52 276.912 41.292 276.912 
z
" clip-path="url(#p6e3712d165)" style="fill: #e5e7eb; stroke: #e5e7eb; stroke-width: 1.2; stroke-linejoin: miter"/>
   </g>
   <g id="patch_11">
    <path d="M 100.89 276.912 
L 149.4 276.912 
Q 152.172 276.912 152.172 274.14 
L 152.172 260.28 
Q 152.172 257.508 149.4 257.508 
L 100.89 257.508 
Q 98.118 257.508 98.118 260.28 
L 98.118 274.14 
Q 98.118 276.912 100.89 276.912 
z
" clip-path="url(#p6e3712d165)" style="fill: #e5e7eb; stroke: #e5e7eb; stroke-width: 1.2; stroke-linejoin: miter"/>
   </g>
   <g id="patch_12">
    <path d="M 160.488 276.912 
L 208.998 276.912 
Q 211.77 276.912 211.77 274.14 
L 211.77 260.28 
Q 211.77 257.508 208.998 257.508 
L 160.488 257.508 
Q 157.716 257.508 157.716 260.28 
L 157.716 274.14 
Q 157.716 276.912 160.488 276.912 
z
" clip-path="url(#p6e3712d165)" style="fill: #e5e7eb; stroke: #e5e7eb; stroke-width: 1.2; stroke-linejoin: miter"/>
   </g>
   <g id="patch_13">
    <path d="M 220.086 276.912 
L 268.596 276.912 
Q 271.368 276.912 271.368 274.14 
L 271.368 260.28 
Q 271.368 257.508 268.596 257.508 
L 220.086 257.508 
Q 217.314 257.508 217.314 260.28 
L 217.314 274.14 
Q 217.314 276.912 220.086 276.912 
z
" clip-path="url(#p6e3712d165)" style="fill: #e5e7eb; stroke: #e5e7eb; stroke-width: 1.2; stroke-linejoin: miter"/>
   </g>
   <g id="patch_14">
    <path d="M 574.30224 196.754233 
Q 461.529026 209.829388 350.532762 222.69852 
" style="fill: none; stroke: #b91c1c; stroke-width: 1.6; stroke-linecap: round"/>
    <path d="M 354.946672 224.30083 
L 350.532762 222.69852 
L 354.462956 220.128778 
z
" style="fill: #b91c1c; stroke: #b91c1c; stroke-width: 1.6; stroke-linecap: round"/>
   </g>
   <g id="text_1">
    <text style="font-weight: 700; font-size: 9.5px; font-family: 'Noto Naskh Arabic', 'DejaVu Sans'; text-anchor: start; fill: #b91c1c" x="576.288" y="198.59025" transform="rotate(-0 576.288 198.59025)">вҖӢпәўпәҝпәҚп»ӯп»ӯ пәҜпәӯпәҺпә‘ пәҖпәҚпә®пә· пәӯпәҜ</text>
   </g>
   <g id="patch_15">
    <path d="M 574.302816 85.868134 
Q 490.357495 95.345831 408.189736 104.622836 
" style="fill: none; stroke: #b91c1c; stroke-width: 1.6; stroke-linecap: round"/>
    <path d="M 412.59882 106.238379 
L 408.189736 104.622836 
L 412.12762 102.064894 
z
" style="fill: #b91c1c; stroke: #b91c1c; stroke-width: 1.6; stroke-linecap: round"/>
   </g>
   <g id="text_2">
    <text style="font-weight: 700; font-size: 9.5px; font-family: 'Noto Naskh Arabic', 'DejaVu Sans'; text-anchor: start; fill: #b91c1c" x="576.288" y="87.71025" transform="rotate(-0 576.288 87.71025)">вҖӢ(пә•пәҺп»Өп»ҙп»ҙп»ҳпә—) п»Іп»ӢпәҺп»ӨпәҳпәҹпәҚ п»һп»ҙп»ҹпә©</text>
   </g>
   <g id="text_3">
    <text style="font-size: 9px; font-family: 'Noto Naskh Arabic', 'DejaVu Sans'; text-anchor: start; fill: #8a8f98" x="99.504" y="39.0915" transform="rotate(-0 99.504 39.0915)">mystore.com/product/watch-01</text>
   </g>
   <g id="text_4">
    <text style="font-size: 10px; font-family: 'Noto Naskh Arabic', 'DejaVu Sans'; text-anchor: middle; fill: #8a8f98" x="154.944" y="166.032" transform="rotate(-0 154.944 166.032)">вҖӢпәһпәҳп»Ёп»Өп»ҹпәҚ пә“пәӯп»®пә»</text>
   </g>
   <g id="text_5">
    <text style="font-weight: 700; font-size: 13px; font-family: 'Noto Naskh Arabic', 'DejaVu Sans'; text-anchor: start; fill: #1f2937" x="293.544" y="80.1" transform="rotate(-0 293.544 80.1)">вҖӢ2026 пәҜпәҚпә®п»ғ вҖ” пә”п»ҙп»ңп»ҙпәіп»јп»ӣ пәӘп»і пә”п»ӢпәҺпәі</text>
   </g>
   <g id="text_6">
    <text style="font-size: 9.5px; font-family: 'Noto Naskh Arabic', 'DejaVu Sans'; text-anchor: start; fill: #b7791f" x="293.544" y="105.048" transform="rotate(-0 293.544 105.048)">вҖӢ(п»ўп»ҙп»ҙп»ҳпә— 312)  вҳ…вҳ…вҳ…вҳ…вҳ…</text>
   </g>
   <g id="text_7">
    <text style="font-weight: 700; font-size: 16px; font-family: 'Noto Naskh Arabic', 'DejaVu Sans'; text-anchor: start; fill: #1f8a56" x="293.544" y="135.54" transform="rotate(-0 293.544 135.54)">вҖӢпәұ.пәӯ 349</text>
   </g>
   <g id="text_8">
    <text style="font-size: 9.5px; font-family: 'Noto Naskh Arabic', 'DejaVu Sans'; text-anchor: start; fill: #4b5563" x="293.544" y="163.26" transform="rotate(-0 293.544 163.26)">вҖӢп»қпәҚпәӘпә’пәҳпәіпәҚ п»ҘпәҺп»Өп»Җпә‘ ШҢпәҺп»Ңп»Ј пә•пәҺпә’пәіпәҺп»Ёп»Өп»ҹпәҚп»ӯ пә”п»ҙп»Јп»®п»ҙп»ҹпәҚ пә”п»ҹп»јп»ғп»№пәҚ пәҗпәіпәҺп»Ёп»і п»–п»ҙп»§пәғ п»ўп»ҙп»Өпәјпә—</text>
   </g>
   <g id="text_9">
    <text style="font-size: 9.5px; font-family: 'Noto Naskh Arabic', 'DejaVu Sans'; text-anchor: start; fill: #4b5563" x="293.544" y="179.892" transform="rotate(-0 293.544 179.892)">вҖӢ.пәӘп»ҙп»ҳп»Ңпә— п»ұпәғ п»Ҙп»ӯпә© пәҺп»Јп»®п»і 30 п»қп»јпә§ п»һп»ЈпәҺп»ӣ</text>
   </g>
   <g id="patch_16">
    <path d="M 299.088 238.104 
L 514.1952 238.104 
Q 519.7392 238.104 519.7392 232.56 
L 519.7392 213.156 
Q 519.7392 207.612 514.1952 207.612 
L 299.088 207.612 
Q 293.544 207.612 293.544 213.156 
L 293.544 232.56 
Q 293.544 238.104 299.088 238.104 
z
" clip-path="url(#p6e3712d165)" style="fill: #b7791f"/>
   </g>
   <g id="text_10">
    <text style="font-size: 8.5px; font-family: 'Noto Naskh Arabic', 'DejaVu Sans'; text-anchor: start; fill: #8a8f98" x="293.544" y="260.28" transform="rotate(-0 293.544 260.28)">вҖӢп»Іп»§пәҺпә п»Ј п»үпәҺпәҹпәӯпәҮ  вҖў  п»ЎпәҺп»іпәғ 3 п»қп»јпә§ п»ҰпәӨпә·  вҖў  п»Ұп»ЈпәҒ п»Ҡп»“пә©</text>
   </g>
   <g id="text_11">
    <text style="font-weight: 700; font-size: 10px; font-family: 'Noto Naskh Arabic', 'DejaVu Sans'; text-anchor: middle; fill: #ffffff" x="406.6416" y="225.033" transform="rotate(-0 406.6416 225.033)">вҖӢпә”п» пәҙп»ҹпәҚ п»°п»ҹпәҮ п»’пәҝпәғ</text>
   </g>
  </g>
 </g>
 <defs>
  <clipPath id="p6e3712d165">
   <rect x="10.8" y="10.8" width="576.576" height="354.816"/>
  </clipPath>
 </defs>
</svg>
