<?xml version="1.0" encoding="utf-8" standalone="no"?>
<!DOCTYPE svg PUBLIC "-//W3C//DTD SVG 1.1//EN"
  "http://www.w3.org/Graphics/SVG/1.1/DTD/svg11.dtd">
<svg xmlns:xlink="http://www.w3.org/1999/xlink" width="598.176pt" height="365.328pt" viewBox="0 0 598.176 365.328" xmlns="http://www.w3.org/2000/svg" version="1.1">
 <metadata>
  <rdf:RDF xmlns:dc="http://purl.org/dc/elements/1.1/" xmlns:cc="http://creativecommons.org/ns#" xmlns:rdf="http://www.w3.org/1999/02/22-rdf-syntax-ns#">
   <cc:Work>
    <dc:type rdf:resource="http://purl.org/dc/dcmitype/StillImage"/>
    <dc:date>2026-07-19T05:35:48.644408</dc:date>
    <dc:format>image/svg+xml</dc:format>
    <dc:creator>
     <cc:Agent>
      <dc:title>Matplotlib v3.11.1, https://matplotlib.org/</dc:title>
     </cc:Agent>
    </dc:creator>
   </cc:Work>
  </rdf:RDF>
 </metadata>
 <defs>
  <style type="text/css">*{stroke-linejoin: round; stroke-linecap: butt}</style>
 </defs>
 <g id="figure_1">
  <g id="patch_1">
   <path d="M 0 365.328 
L 598.176 365.328 
L 598.176 0 
L 0 0 
z
" style="fill: #ffffff"/>
  </g>
  <g id="axes_1">
   <g id="patch_2">
    <path d="M 26.3232 343.44 
L 571.8528 343.44 
Q 576.288 343.44 576.288 339.0048 
L 576.288 26.3232 
Q 576.288 21.888 571.8528 21.888 
L 26.3232 21.888 
Q 21.888 21.888 21.888 26.3232 
L 21.888 339.0048 
Q 21.888 343.44 26.3232 343.44 
z
" clip-path="url(#p9776acfa7e)" style="fill: #ffffff; stroke: #d1d5db; stroke-width: 1.4; stroke-linejoin: miter"/>
   </g>
   <g id="patch_3">
    <path d="M 21.888 343.44 
L 576.288 343.44 
L 576.288 52.38 
L 21.888 52.38 
z
" clip-path="url(#p9776acfa7e)" style="fill: #ffffff"/>
   </g>
   <g id="patch_4">
    <path d="M 21.888 52.38 
L 576.288 52.38 
L 576.288 21.888 
L 21.888 21.888 
z
" clip-path="url(#p9776acfa7e)" style="fill: #eef0f3"/>
   </g>
   <g id="patch_5">
    <path d="M 21.888 343.44 
L 132.768 343.44 
L 132.768 52.38 
L 21.888 52.38 
z
" clip-path="url(#p9776acfa7e)" style="fill: #141b26"/>
   </g>
   <g id="patch_6">
    <path d="M 37.4112 41.0148 
C 38.4404 41.0148 39.427586 40.605894 40.15534 39.87814 
C 40.883094 39.150386 41.292 38.1632 41.292 37.134 
C 41.292 36.1048 40.883094 35.117614 40.15534 34.38986 
C 39.427586 33.662106 38.4404 33.2532 37.4112 33.2532 
C 36.382 33.2532 35.394814 33.662106 34.66706 34.38986 
C 33.939306 35.117614 33.5304 36.1048 33.5304 37.134 
C 33.5304 38.1632 33.939306 39.150386 34.66706 39.87814 
C 35.394814 40.605894 36.382 41.0148 37.4112 41.0148 
z
" clip-path="url(#p9776acfa7e)" style="fill: #b91c1c"/>
   </g>
   <g id="patch_7">
    <path d="M 51.8256 41.0148 
C 52.8548 41.0148 53.841986 40.605894 54.56974 39.87814 
C 55.297494 39.150386 55.7064 38.1632 55.7064 37.134 
C 55.7064 36.1048 55.297494 35.117614 54.56974 34.38986 
C 53.841986 33.662106 52.8548 33.2532 51.8256 33.2532 
C 50.7964 33.2532 49.809214 33.662106 49.08146 34.38986 
C 48.353706 35.117614 47.9448 36.1048 47.9448 37.134 
C 47.9448 38.1632 48.353706 39.150386 49.08146 39.87814 
C 49.809214 40.605894 50.7964 41.0148 51.8256 41.0148 
z
" clip-path="url(#p9776acfa7e)" style="fill: #e3a008"/>
   </g>
   <g id="patch_8">
    <path d="M 66.24 41.0148 
C 67.2692 41.0148 68.256386 40.605894 68.98414 39.87814 
C 69.711894 39.150386 70.1208 38.1632 70.1208 37.134 
C 70.1208 36.1048 69.711894 35.117614 68.98414 34.38986 
C 68.256386 33.662106 67.2692 33.2532 66.24 33.2532 
C 65.2108 33.2532 64.223614 33.662106 63.49586 34.38986 
C 62.768106 35.117614 62.3592 36.1048 62.3592 37.134 
C 62.3592 38.1632 62.768106 39.150386 63.49586 39.87814 
C 64.223614 40.605894 65.2108 41.0148 66.24 41.0148 
z
" clip-path="url(#p9776acfa7e)" style="fill: #1f8a56"/>
   </g>
   <g id="patch_9">
    <path d="M 93.4056 45.7272 
L 549.1224 45.7272 
Q 556.884 45.7272 556.884 37.9656 
L 556.884 36.3024 
Q 556.884 28.5408 549.1224 28.5408 
L 93.4056 28.5408 
Q 85.644 28.5408 85.644 36.3024 
L 85.644 37.9656 
Q 85.644 45.7272 93.4056 45.7272 
z
" clip-path="url(#p9776acfa7e)" style="fill: #ffffff; stroke: #d1d5db; stroke-linejoin: miter"/>
   </g>
   <g id="patch_10">
    <path d="M 21.888 135.54 
L 132.768 135.54 
L 132.768 102.276 
L 21.888 102.276 
z
" clip-path="url(#p9776acfa7e)" style="fill: #2d3b4e"/>
   </g>
   <g id="patch_11">
    <path d="M 148.2912 124.452 
L 276.1728 124.452 
Q 280.608 124.452 280.608 120.0168 
L 280.608 67.9032 
Q 280.608 63.468 276.1728 63.468 
L 148.2912 63.468 
Q 143.856 63.468 143.856 67.9032 
L 143.856 120.0168 
Q 143.856 124.452 148.2912 124.452 
z
" clip-path="url(#p9776acfa7e)" style="fill: #f9fafb; stroke: #e5e7eb; stroke-width: 1.2; stroke-linejoin: miter"/>
   </g>
   <g id="patch_12">
    <path d="M 296.1312 124.452 
L 424.0128 124.452 
Q 428.448 124.452 428.448 120.0168 
L 428.448 67.9032 
Q 428.448 63.468 424.0128 63.468 
L 296.1312 63.468 
Q 291.696 63.468 291.696 67.9032 
L 291.696 120.0168 
Q 291.696 124.452 296.1312 124.452 
z
" clip-path="url(#p9776acfa7e)" style="fill: #f9fafb; stroke: #e5e7eb; stroke-width: 1.2; stroke-linejoin: miter"/>
   </g>
   <g id="patch_13">
    <path d="M 443.9712 124.452 
L 571.8528 124.452 
Q 576.288 124.452 576.288 120.0168 
L 576.288 67.9032 
Q 576.288 63.468 571.8528 63.468 
L 443.9712 63.468 
Q 439.536 63.468 439.536 67.9032 
L 439.536 120.0168 
Q 439.536 124.452 443.9712 124.452 
z
" clip-path="url(#p9776acfa7e)" style="fill: #f9fafb; stroke: #e5e7eb; stroke-width: 1.2; stroke-linejoin: miter"/>
   </g>
   <g id="patch_14">
    <path d="M 147.1824 326.808 
L 550.7856 326.808 
Q 554.112 326.808 554.112 323.4816 
L 554.112 138.8664 
Q 554.112 135.54 550.7856 135.54 
L 147.1824 135.54 
Q 143.856 135.54 143.856 138.8664 
L 143.856 323.4816 
Q 143.856 326.808 147.1824 326.808 
z
" clip-path="url(#p9776acfa7e)" style="fill: #f9fafb; stroke: #e5e7eb; stroke-width: 1.2; stroke-linejoin: miter"/>
   </g>
   <g id="text_1">
    <text style="font-size: 9px; font-family: 'Noto Naskh Arabic', 'DejaVu Sans'; text-anchor: start; fill: #8a8f98" x="99.504" y="39.0915" transform="rotate(-0 99.504 39.0915)">admin.mystore.com/dashboard</text>
   </g>
   <g id="text_2">
    <text style="font-weight: 700; font-size: 9.5px; font-family: 'Noto Naskh Arabic', 'DejaVu Sans'; text-anchor: middle; fill: #ffffff" x="77.328" y="120.97425" transform="rotate(-0 77.328 120.97425)">​ﺔﻴﺴﻴﺋﺮﻟﺍ</text>
   </g>
   <g id="text_3">
    <text style="font-size: 9.5px; font-family: 'Noto Naskh Arabic', 'DejaVu Sans'; text-anchor: middle; fill: #9ca3af" x="77.328" y="162.55425" transform="rotate(-0 77.328 162.55425)">​ﺕﺎﺒﻠﻄﻟﺍ</text>
   </g>
   <g id="text_4">
    <text style="font-size: 9.5px; font-family: 'Noto Naskh Arabic', 'DejaVu Sans'; text-anchor: middle; fill: #9ca3af" x="77.328" y="204.13425" transform="rotate(-0 77.328 204.13425)">​ﺕﺎﺠﺘﻨﻤﻟﺍ</text>
   </g>
   <g id="text_5">
    <text style="font-size: 9.5px; font-family: 'Noto Naskh Arabic', 'DejaVu Sans'; text-anchor: middle; fill: #9ca3af" x="77.328" y="245.71425" transform="rotate(-0 77.328 245.71425)">​ﺀﻼﻤﻌﻟﺍ</text>
   </g>
   <g id="text_6">
    <text style="font-size: 9.5px; font-family: 'Noto Naskh Arabic', 'DejaVu Sans'; text-anchor: middle; fill: #9ca3af" x="77.328" y="287.29425" transform="rotate(-0 77.328 287.29425)">​ﺕﻼﻴﻠﺤﺘﻟﺍ</text>
   </g>
   <g id="text_7">
    <text style="font-size: 9.5px; font-family: 'Noto Naskh Arabic', 'DejaVu Sans'; text-anchor: middle; fill: #9ca3af" x="77.328" y="328.87425" transform="rotate(-0 77.328 328.87425)">​ﺕﺍﺩﺍﺪﻋﻹﺍ</text>
   </g>
   <g id="text_8">
    <text style="font-size: 9px; font-family: 'Noto Naskh Arabic', 'DejaVu Sans'; text-anchor: start; fill: #8a8f98" x="154.944" y="80.1" transform="rotate(-0 154.944 80.1)">​ﺕﺎﻌﻴﺒﻤﻟﺍ ﻲﻟﺎﻤﺟﺇ</text>
   </g>
   <g id="text_9">
    <text style="font-weight: 700; font-size: 15px; font-family: 'Noto Naskh Arabic', 'DejaVu Sans'; text-anchor: start; fill: #1f8a56" x="154.944" y="105.048" transform="rotate(-0 154.944 105.048)">​ﺱ.ﺭ 48,250</text>
   </g>
   <g id="text_10">
    <text style="font-size: 9px; font-family: 'Noto Naskh Arabic', 'DejaVu Sans'; text-anchor: start; fill: #8a8f98" x="302.784" y="80.1" transform="rotate(-0 302.784 80.1)">​ﺓﺪﻳﺪﺠﻟﺍ ﺕﺎﺒﻠﻄﻟﺍ</text>
   </g>
   <g id="text_11">
    <text style="font-weight: 700; font-size: 15px; font-family: 'Noto Naskh Arabic', 'DejaVu Sans'; text-anchor: start; fill: #b7791f" x="302.784" y="105.048" transform="rotate(-0 302.784 105.048)">132</text>
   </g>
   <g id="text_12">
    <text style="font-size: 9px; font-family: 'Noto Naskh Arabic', 'DejaVu Sans'; text-anchor: start; fill: #8a8f98" x="450.624" y="80.1" transform="rotate(-0 450.624 80.1)">​ﻡﻮﻴﻟﺍ ﺭﺍﻭﺯ</text>
   </g>
   <g id="text_13">
    <text style="font-weight: 700; font-size: 15px; font-family: 'Noto Naskh Arabic', 'DejaVu Sans'; text-anchor: start; fill: #2563eb" x="450.624" y="105.048" transform="rotate(-0 450.624 105.048)">2,840</text>
   </g>
   <g id="text_14">
    <text style="font-weight: 700; font-size: 11px; font-family: 'Noto Naskh Arabic', 'DejaVu Sans'; text-anchor: start; fill: #1f2937" x="154.944" y="152.172" transform="rotate(-0 154.944 152.172)">​ﺕﺎﺒﻠﻄﻟﺍ ﺙﺪﺣﺃ</text>
   </g>
   <g id="text_15">
    <text style="font-size: 9.5px; font-family: 'Noto Naskh Arabic', 'DejaVu Sans'; text-anchor: start; fill: #1f2937" x="154.944" y="174.348" transform="rotate(-0 154.944 174.348)">#1042</text>
   </g>
   <g id="text_16">
    <text style="font-size: 9.5px; font-family: 'Noto Naskh Arabic', 'DejaVu Sans'; text-anchor: start; fill: #1f2937" x="232.56" y="174.348" transform="rotate(-0 232.56 174.348)">​ﻢﻟﺎﺳ ﺪﻤﺣﺃ</text>
   </g>
   <g id="text_17">
    <text style="font-weight: 700; font-size: 9.5px; font-family: 'Noto Naskh Arabic', 'DejaVu Sans'; text-anchor: end; fill: #b7791f" x="537.48" y="174.348" transform="rotate(-0 537.48 174.348)">​ﻦﺤﺸﻟﺍ ﺪﻴﻗ</text>
   </g>
   <g id="text_18">
    <text style="font-size: 9.5px; font-family: 'Noto Naskh Arabic', 'DejaVu Sans'; text-anchor: start; fill: #1f2937" x="154.944" y="227.016" transform="rotate(-0 154.944 227.016)">#1041</text>
   </g>
   <g id="text_19">
    <text style="font-size: 9.5px; font-family: 'Noto Naskh Arabic', 'DejaVu Sans'; text-anchor: start; fill: #1f2937" x="232.56" y="227.016" transform="rotate(-0 232.56 227.016)">​ﺪﻟﺎﺧ ﻰﻨﻣ</text>
   </g>
   <g id="text_20">
    <text style="font-weight: 700; font-size: 9.5px; font-family: 'Noto Naskh Arabic', 'DejaVu Sans'; text-anchor: end; fill: #1f8a56" x="537.48" y="227.016" transform="rotate(-0 537.48 227.016)">​ﻢﻴﻠﺴﺘﻟﺍ ﻢﺗ</text>
   </g>
   <g id="text_21">
    <text style="font-size: 9.5px; font-family: 'Noto Naskh Arabic', 'DejaVu Sans'; text-anchor: start; fill: #1f2937" x="154.944" y="279.684" transform="rotate(-0 154.944 279.684)">#1040</text>
   </g>
   <g id="text_22">
    <text style="font-size: 9.5px; font-family: 'Noto Naskh Arabic', 'DejaVu Sans'; text-anchor: start; fill: #1f2937" x="232.56" y="279.684" transform="rotate(-0 232.56 279.684)">​ﺪﻬﻓ ﺪﻴﻌﺳ</text>
   </g>
   <g id="text_23">
    <text style="font-weight: 700; font-size: 9.5px; font-family: 'Noto Naskh Arabic', 'DejaVu Sans'; text-anchor: end; fill: #2563eb" x="537.48" y="279.684" transform="rotate(-0 537.48 279.684)">​ﺔﺠﻟﺎﻌﻤﻟﺍ ﺪﻴﻗ</text>
   </g>
  </g>
 </g>
 <defs>
  <clipPath id="p9776acfa7e">
   <rect x="10.8" y="10.8" width="576.576" height="343.728"/>
  </clipPath>
 </defs>
</svg>
