<?xml version="1.0" encoding="utf-8" standalone="no"?>
<!DOCTYPE svg PUBLIC "-//W3C//DTD SVG 1.1//EN"
  "http://www.w3.org/Graphics/SVG/1.1/DTD/svg11.dtd">
<svg xmlns:xlink="http://www.w3.org/1999/xlink" width="464.257068pt" height="461.936352pt" viewBox="0 0 464.257068 461.936352" xmlns="http://www.w3.org/2000/svg" version="1.1">
 <metadata>
  <rdf:RDF xmlns:dc="http://purl.org/dc/elements/1.1/" xmlns:cc="http://creativecommons.org/ns#" xmlns:rdf="http://www.w3.org/1999/02/22-rdf-syntax-ns#">
   <cc:Work>
    <dc:type rdf:resource="http://purl.org/dc/dcmitype/StillImage"/>
    <dc:date>2026-07-18T23:02:04.444406</dc:date>
    <dc:format>image/svg+xml</dc:format>
    <dc:creator>
     <cc:Agent>
      <dc:title>Matplotlib v3.11.1, https://matplotlib.org/</dc:title>
     </cc:Agent>
    </dc:creator>
   </cc:Work>
  </rdf:RDF>
 </metadata>
 <defs>
  <style type="text/css">*{stroke-linejoin: round; stroke-linecap: butt}</style>
 </defs>
 <g id="figure_1">
  <g id="patch_1">
   <path d="M 0 461.936352 
L 464.257068 461.936352 
L 464.257068 -0 
L 0 -0 
z
" style="fill: #ffffff"/>
  </g>
  <g id="axes_1">
   <g id="patch_2">
    <path d="M 233.288892 51.953635 
C 205.989708 51.953635 179.048803 58.198202 154.533383 70.208182 
C 130.017963 82.218162 108.571518 99.678314 91.839655 121.248901 
C 75.107793 142.819488 63.529698 167.934318 57.99377 194.666301 
C 52.457842 221.398285 53.109391 249.045752 59.898422 275.487282 
C 66.687453 301.928812 79.435765 326.470358 97.165167 347.22882 
C 114.894569 367.987282 137.139692 384.417785 162.193644 395.259599 
C 187.247597 406.101412 214.452753 411.069956 241.721631 409.783988 
C 268.99051 408.49802 295.607347 400.991296 319.529804 387.839814 
L 233.288892 230.968176 
z
" style="fill: #1f2937; stroke: #ffffff; stroke-width: 1.5; stroke-linejoin: miter"/>
   </g>
   <g id="patch_3">
    <path d="M 319.529804 387.839814 
C 352.652694 369.630351 379.172364 341.389771 395.266091 307.18886 
C 411.359818 272.987949 416.215285 234.552969 409.132593 197.424196 
L 233.288892 230.968176 
z
" style="fill: #b7791f; stroke: #ffffff; stroke-width: 1.5; stroke-linejoin: miter"/>
   </g>
   <g id="patch_4">
    <path d="M 409.132593 197.424196 
C 403.125717 165.935053 388.769328 136.630017 367.56968 112.583736 
C 346.370032 88.537455 319.095408 70.621376 288.607427 60.71523 
L 233.288892 230.968176 
z
" style="fill: #e0a94a; stroke: #ffffff; stroke-width: 1.5; stroke-linejoin: miter"/>
   </g>
   <g id="patch_5">
    <path d="M 288.607427 60.71523 
C 279.688424 57.817271 270.555472 55.624643 261.292936 54.157601 
C 252.030399 52.69056 242.666887 51.953635 233.288892 51.953635 
L 233.288892 230.968176 
z
" style="fill: #8a8f98; stroke: #ffffff; stroke-width: 1.5; stroke-linejoin: miter"/>
   </g>
   <g id="matplotlib.axis_1"/>
   <g id="matplotlib.axis_2"/>
   <g id="text_1">
    <!-- ﻙﻼﻬﺘﺳﻻﺍ -->
    <g style="fill: #1f2937" transform="translate(7.2 282.114192) scale(0.1 -0.1)">
     <defs>
      <path id="NotoNaskhArabic-Bold-3" d="M 774 58 
Q 742 717 710 1216 
Q 678 1715 646 2134 
Q 614 2554 576 2950 
Q 538 3347 493 3808 
Q 474 3968 566 4089 
Q 659 4211 822 4281 
Q 986 4352 1178 4352 
Q 1229 4154 1296 3955 
Q 1363 3757 1440 3565 
L 1216 3398 
Q 1229 2867 1222 2035 
Q 1216 1203 1184 109 
L 774 58 
z
" transform="scale(0.015625)"/>
      <path id="NotoNaskhArabic-Bold-2de" d="M 896 0 
Q 883 0 883 51 
Q 883 141 899 294 
Q 915 448 937 576 
Q 960 704 979 704 
L 1242 704 
Q 1542 947 1753 1164 
Q 1965 1382 2086 1581 
Q 1581 2086 832 2541 
L 595 2528 
Q 218 2714 218 3098 
Q 218 3437 570 3642 
Q 794 3494 1091 3235 
Q 1389 2976 1690 2675 
Q 1856 2515 2009 2355 
Q 2163 2195 2298 2042 
Q 2355 2246 2355 2477 
Q 2355 2637 2221 3411 
Q 2189 3610 2169 3728 
Q 2150 3846 2150 3891 
Q 2150 4154 2342 4307 
Q 2534 4461 2829 4461 
Q 2880 4256 2944 4057 
Q 3008 3859 3085 3674 
L 2874 3514 
L 2880 3398 
L 2899 2790 
Q 2899 2214 2598 1664 
Q 2624 1638 2713 1516 
Q 2803 1395 2908 1238 
Q 3014 1082 3094 947 
Q 3174 813 3174 762 
Q 3174 704 3142 601 
Q 3110 499 3065 387 
Q 3021 275 2979 195 
Q 2938 115 2918 109 
Q 2605 58 2102 29 
Q 1600 0 896 0 
z
M 1779 730 
Q 2067 742 2294 768 
Q 2522 794 2752 832 
Q 2650 947 2554 1062 
Q 2458 1178 2355 1299 
Q 2093 973 1779 730 
z
" transform="scale(0.015625)"/>
      <path id="NotoNaskhArabic-Bold-fa" d="M 1472 0 
Q 1165 0 736 205 
Q 608 141 406 99 
Q 205 58 0 58 
Q -51 58 -51 109 
L -51 762 
Q -51 813 0 813 
Q 294 813 441 851 
Q 589 890 678 979 
Q 749 1050 806 1142 
Q 864 1235 998 1466 
Q 1037 1536 1110 1581 
Q 1184 1626 1267 1626 
Q 1357 1626 1466 1555 
Q 1363 1286 1286 1091 
Q 1210 896 1158 781 
Q 1331 762 1504 762 
Q 1632 762 1734 778 
Q 1837 794 1965 832 
Q 2010 902 2093 1104 
Q 2176 1306 2317 1696 
Q 2349 1779 2432 1833 
Q 2515 1888 2630 1888 
Q 2765 1888 2854 1818 
Q 2778 1626 2710 1414 
Q 2643 1203 2586 992 
Q 2829 870 3133 806 
Q 3437 742 3782 704 
Q 3584 1094 3443 1376 
Q 3302 1658 3302 1798 
Q 3302 1952 3475 2141 
Q 3648 2330 3885 2451 
Q 3994 1907 4051 1603 
Q 4109 1299 4131 1145 
Q 4154 992 4154 909 
Q 4154 806 4112 633 
Q 4070 461 4006 288 
Q 3942 115 3885 0 
Q 3501 0 3097 89 
Q 2694 179 2355 326 
Q 2317 243 2278 173 
Q 2234 102 1994 51 
Q 1754 0 1472 0 
z
" transform="scale(0.015625)"/>
      <path id="NotoNaskhArabic-Bold-37" d="M 0 58 
Q -51 58 -51 109 
L -51 762 
Q -51 813 0 813 
Q 307 813 566 829 
Q 826 845 992 928 
Q 1120 992 1187 1104 
Q 1254 1216 1357 1421 
Q 1459 1632 1536 1680 
Q 1613 1728 1715 1728 
Q 1869 1728 1971 1638 
Q 1888 1427 1814 1264 
Q 1741 1101 1690 979 
Q 2003 813 2362 813 
Q 2413 813 2413 762 
L 2413 109 
Q 2413 58 2362 58 
Q 1875 58 1434 499 
L 1382 416 
Q 1203 179 883 118 
Q 563 58 0 58 
z
M 1664 2252 
Q 1529 2361 1420 2457 
Q 1312 2553 1222 2649 
Q 1459 2867 1651 3097 
Q 1708 3033 1810 2937 
Q 1913 2841 2054 2700 
Q 1881 2464 1664 2252 
z
M 806 2156 
Q 531 2380 364 2560 
Q 473 2668 582 2780 
Q 691 2892 800 3001 
Q 915 2867 1196 2604 
Q 1036 2374 806 2156 
z
" transform="scale(0.015625)"/>
      <path id="NotoNaskhArabic-Bold-1ff" d="M 1690 -1248 
Q 1184 -1248 851 -950 
Q 518 -653 429 -128 
L 237 -218 
L 166 70 
L 0 58 
Q -51 58 -51 109 
L -51 762 
Q -51 813 0 813 
Q 250 813 461 832 
Q 710 1958 1670 2874 
L 1952 2810 
Q 1971 2554 2067 1997 
Q 2112 1760 2131 1593 
Q 2150 1427 2150 1331 
Q 2150 1011 1850 730 
Q 2157 794 2304 803 
Q 2451 813 2586 813 
Q 2656 813 2656 755 
L 2656 128 
Q 2656 58 2586 58 
Q 2362 58 2131 19 
Q 2272 -45 2368 -176 
Q 2464 -307 2464 -442 
Q 2464 -499 2422 -630 
Q 2381 -762 2329 -886 
Q 2278 -1011 2246 -1050 
Q 2182 -1126 2038 -1187 
Q 1894 -1248 1690 -1248 
z
M 934 755 
Q 1453 832 1760 1075 
L 1677 1325 
Q 1600 1542 1549 1708 
Q 1498 1875 1478 1997 
Q 1203 1606 1081 1312 
Q 960 1018 934 755 
z
M 1741 -640 
Q 1850 -640 1930 -614 
Q 2010 -589 2112 -525 
Q 1920 -243 1651 -92 
Q 1382 58 1094 58 
Q 1075 58 1036 51 
Q 998 45 947 32 
Q 1075 -640 1741 -640 
z
" transform="scale(0.015625)"/>
      <path id="NotoNaskhArabic-Bold-2df" d="M 410 19 
L 378 307 
Q 704 397 937 470 
Q 1171 544 1344 621 
Q 1510 691 1635 768 
Q 1760 845 1875 947 
Q 1658 1402 1379 1776 
Q 1101 2150 742 2490 
L 506 2490 
Q 339 2662 278 2793 
Q 218 2925 218 3072 
Q 218 3264 314 3376 
Q 410 3488 634 3558 
Q 1274 3149 1901 1786 
Q 1933 1715 1987 1574 
Q 2042 1434 2118 1222 
Q 2304 1498 2416 1821 
Q 2528 2144 2592 2573 
Q 2637 2854 2656 3190 
Q 2675 3526 2675 3923 
Q 2733 3955 2816 4009 
Q 2899 4064 3008 4134 
Q 3194 4256 3354 4352 
Q 3347 3501 3360 2665 
Q 3373 1830 3386 992 
Q 3546 896 3699 854 
Q 3853 813 4090 813 
Q 4147 813 4147 762 
L 4147 109 
Q 4147 58 4090 58 
Q 3219 58 3117 634 
Q 3059 992 3021 1651 
Q 3002 1901 2986 2109 
Q 2970 2317 2957 2477 
L 2938 2310 
Q 2906 1920 2864 1645 
Q 2822 1370 2784 1222 
Q 2624 678 2413 419 
Q 2202 160 1875 122 
Q 1498 77 1133 54 
Q 768 32 410 19 
z
" transform="scale(0.015625)"/>
      <path id="NotoNaskhArabic-Bold-173" d="M 1690 6 
Q 1274 6 742 45 
Q 218 77 218 128 
Q 218 314 269 538 
Q 320 762 384 896 
Q 550 858 800 829 
Q 1050 800 1315 781 
Q 1581 762 1811 762 
Q 2182 762 2540 794 
Q 2899 826 3251 890 
Q 3098 1504 3011 1859 
Q 2925 2214 2893 2342 
Q 2854 2483 2809 2681 
Q 2765 2880 2723 3085 
Q 2682 3290 2656 3456 
Q 2630 3622 2630 3693 
Q 2630 3968 2832 4160 
Q 3034 4352 3322 4352 
Q 3379 4134 3443 3939 
Q 3507 3744 3578 3565 
L 3373 3411 
Q 3475 2394 3526 1750 
Q 3578 1107 3578 832 
Q 3578 672 3507 461 
Q 3437 250 3328 109 
Q 2957 58 2550 32 
Q 2144 6 1690 6 
z
M 1370 1440 
Q 1293 1440 1257 1478 
Q 1222 1517 1222 1568 
Q 1389 1581 1545 1641 
Q 1702 1702 1811 1773 
Q 1914 1850 1952 1914 
Q 1651 1920 1484 1977 
Q 1318 2035 1318 2227 
Q 1318 2330 1395 2445 
Q 1472 2560 1590 2640 
Q 1709 2720 1824 2720 
Q 1997 2720 2035 2541 
L 1933 2496 
Q 1901 2528 1862 2528 
Q 1786 2528 1670 2425 
Q 1555 2323 1530 2214 
Q 1638 2170 1804 2154 
Q 1971 2138 2054 2074 
Q 2118 2035 2118 1958 
Q 2118 1869 1996 1747 
Q 1875 1626 1699 1533 
Q 1523 1440 1370 1440 
z
" transform="scale(0.015625)"/>
     </defs>
     <use xlink:href="#NotoNaskhArabic-Bold-3"/>
     <use xlink:href="#NotoNaskhArabic-Bold-2de" transform="translate(28.40625 0)"/>
     <use xlink:href="#NotoNaskhArabic-Bold-fa" transform="translate(83 0)"/>
     <use xlink:href="#NotoNaskhArabic-Bold-37" transform="translate(153 0)"/>
     <use xlink:href="#NotoNaskhArabic-Bold-1ff" transform="translate(189 0)"/>
     <use xlink:href="#NotoNaskhArabic-Bold-2df" transform="translate(228.703125 0)"/>
     <use xlink:href="#NotoNaskhArabic-Bold-173" transform="translate(291.796875 0)"/>
    </g>
   </g>
   <g id="text_2">
    <!-- ﺭﺎﻤﺜﺘﺳﻻﺍ -->
    <g style="fill: #1f2937" transform="translate(411.463811 316.985929) scale(0.1 -0.1)">
     <defs>
      <path id="NotoNaskhArabic-Bold-43" d="M 0 58 
Q -51 58 -51 109 
L -51 762 
Q -51 813 0 813 
Q 307 813 566 829 
Q 826 845 992 928 
Q 1120 992 1187 1104 
Q 1254 1216 1357 1421 
Q 1459 1632 1536 1680 
Q 1613 1728 1715 1728 
Q 1869 1728 1971 1638 
Q 1888 1427 1814 1264 
Q 1741 1101 1690 979 
Q 2003 813 2362 813 
Q 2413 813 2413 762 
L 2413 109 
Q 2413 58 2362 58 
Q 1875 58 1434 499 
L 1382 416 
Q 1203 179 883 118 
Q 563 58 0 58 
z
M 1242 2778 
Q 1107 2887 1011 2979 
Q 915 3072 851 3143 
Q 986 3264 1078 3350 
Q 1171 3437 1222 3501 
Q 1293 3418 1385 3328 
Q 1478 3239 1594 3143 
Q 1459 2995 1369 2902 
Q 1280 2810 1242 2778 
z
M 1702 2227 
Q 1568 2336 1459 2435 
Q 1350 2535 1261 2631 
Q 1357 2720 1465 2829 
Q 1574 2938 1690 3072 
Q 1728 3027 1830 2931 
Q 1933 2835 2093 2682 
Q 2010 2560 1910 2448 
Q 1811 2336 1702 2227 
z
M 813 2138 
Q 525 2355 378 2541 
Q 486 2650 595 2762 
Q 704 2874 813 2983 
Q 864 2919 963 2816 
Q 1062 2714 1203 2586 
Q 1107 2458 1011 2342 
Q 915 2227 813 2138 
z
" transform="scale(0.015625)"/>
      <path id="NotoNaskhArabic-Bold-1e4" d="M 2016 0 
Q 1606 0 1257 73 
Q 909 147 685 269 
Q 506 147 346 102 
Q 186 58 0 58 
Q -51 58 -51 109 
L -51 762 
Q -51 813 0 813 
Q 160 813 333 858 
Q 333 870 336 886 
Q 339 902 339 922 
Q 384 1261 573 1597 
Q 762 1933 1018 2131 
Q 1286 2342 1568 2342 
Q 1696 2342 1811 2176 
Q 1862 2093 1929 1942 
Q 1997 1792 2074 1581 
Q 2227 1133 2394 960 
Q 2528 813 2682 813 
Q 2752 813 2752 755 
L 2752 128 
Q 2752 58 2682 58 
Q 2362 58 2106 301 
L 2016 0 
z
M 1818 710 
Q 1606 1133 1549 1664 
Q 979 1440 698 1082 
Q 877 941 1155 851 
Q 1434 762 1818 710 
z
" transform="scale(0.015625)"/>
      <path id="NotoNaskhArabic-Bold-4" d="M 1901 58 
Q 1517 58 1283 186 
Q 1050 314 938 528 
Q 826 742 794 1018 
Q 781 1139 749 1424 
Q 717 1709 681 2073 
Q 646 2438 608 2809 
Q 570 3181 538 3481 
Q 506 3782 486 3930 
Q 845 4166 1248 4352 
Q 1274 3635 1296 2918 
Q 1318 2202 1338 1478 
L 1363 979 
Q 1478 883 1606 848 
Q 1734 813 1914 813 
Q 1952 813 1952 762 
L 1952 109 
Q 1952 58 1901 58 
z
" transform="scale(0.015625)"/>
      <path id="NotoNaskhArabic-Bold-d3" d="M 653 -1248 
Q 544 -1248 304 -1107 
Q 64 -966 -218 -730 
L -115 -461 
Q 243 -550 531 -550 
Q 1005 -550 1331 -313 
Q 1658 -77 1805 371 
Q 1760 467 1705 566 
Q 1651 666 1587 762 
Q 1402 1050 1254 1312 
Q 1107 1574 1107 1779 
Q 1107 1965 1254 2147 
Q 1402 2330 1638 2451 
Q 1677 2317 1731 2137 
Q 1786 1958 1846 1782 
Q 1907 1606 1952 1472 
Q 2035 1235 2089 1004 
Q 2144 774 2144 570 
Q 2144 70 1952 -349 
Q 1760 -768 1421 -1011 
Q 1082 -1248 653 -1248 
z
" transform="scale(0.015625)"/>
     </defs>
     <use xlink:href="#NotoNaskhArabic-Bold-3"/>
     <use xlink:href="#NotoNaskhArabic-Bold-2de" transform="translate(28.40625 0)"/>
     <use xlink:href="#NotoNaskhArabic-Bold-fa" transform="translate(83 0)"/>
     <use xlink:href="#NotoNaskhArabic-Bold-37" transform="translate(153 0)"/>
     <use xlink:href="#NotoNaskhArabic-Bold-43" transform="translate(189 0)"/>
     <use xlink:href="#NotoNaskhArabic-Bold-1e4" transform="translate(225 0)"/>
     <use xlink:href="#NotoNaskhArabic-Bold-4" transform="translate(266.296875 0)"/>
     <use xlink:href="#NotoNaskhArabic-Bold-d3" transform="translate(295.09375 0)"/>
    </g>
   </g>
   <g id="text_3">
    <!-- ﻕﺎﻔﻧﻹﺍ -->
    <g style="fill: #1f2937" transform="translate(380.997759 94.405292) scale(0.1 -0.1)">
     <defs>
      <path id="NotoNaskhArabic-Bold-2ea" d="M 896 0 
Q 883 0 883 51 
Q 883 141 899 294 
Q 915 448 937 576 
Q 960 704 979 704 
L 1242 704 
Q 1542 947 1753 1164 
Q 1965 1382 2086 1581 
Q 1581 2086 832 2541 
L 595 2528 
Q 218 2714 218 3098 
Q 218 3437 570 3642 
Q 794 3494 1091 3235 
Q 1389 2976 1690 2675 
Q 1856 2515 2009 2355 
Q 2163 2195 2298 2042 
Q 2355 2246 2355 2477 
Q 2355 2637 2221 3411 
Q 2189 3610 2169 3728 
Q 2150 3846 2150 3891 
Q 2150 4154 2342 4307 
Q 2534 4461 2829 4461 
Q 2880 4256 2944 4057 
Q 3008 3859 3085 3674 
L 2874 3514 
L 2880 3398 
L 2899 2790 
Q 2899 2214 2598 1664 
Q 2624 1638 2713 1516 
Q 2803 1395 2908 1238 
Q 3014 1082 3094 947 
Q 3174 813 3174 762 
Q 3174 704 3142 601 
Q 3110 499 3065 387 
Q 3021 275 2979 195 
Q 2938 115 2918 109 
Q 2605 58 2102 29 
Q 1600 0 896 0 
z
M 1779 730 
Q 2067 742 2294 768 
Q 2522 794 2752 832 
Q 2650 947 2554 1062 
Q 2458 1178 2355 1299 
Q 2093 973 1779 730 
z
M 678 -1555 
L 665 -1292 
L 896 -1152 
Q 691 -1081 691 -908 
Q 691 -793 761 -674 
Q 832 -556 937 -479 
Q 1043 -403 1139 -403 
Q 1376 -403 1376 -684 
Q 1376 -761 1344 -838 
L 1222 -812 
L 1222 -800 
Q 1222 -742 1145 -742 
Q 1005 -742 921 -902 
Q 1037 -1017 1235 -1017 
Q 1293 -1017 1357 -1007 
Q 1421 -998 1485 -985 
L 1459 -1273 
Q 1229 -1324 1072 -1378 
Q 915 -1433 678 -1555 
z
" transform="scale(0.015625)"/>
      <path id="NotoNaskhArabic-Bold-1ea" d="M 0 58 
Q -51 58 -51 109 
L -51 762 
Q -51 813 0 813 
Q 320 813 640 867 
Q 960 922 1139 998 
Q 1075 1146 976 1328 
Q 877 1510 819 1613 
Q 755 1734 710 1833 
Q 666 1933 666 2016 
Q 666 2176 838 2361 
Q 1011 2547 1248 2669 
Q 1293 2470 1347 2217 
Q 1402 1965 1446 1702 
Q 1485 1504 1501 1376 
Q 1517 1248 1517 1184 
Q 1517 1037 1443 822 
Q 1370 608 1267 410 
Q 685 58 0 58 
z
M 902 3052 
Q 576 3321 410 3513 
Q 557 3660 675 3785 
Q 794 3910 890 4025 
Q 960 3948 1075 3833 
Q 1190 3718 1350 3564 
Q 1274 3456 1162 3328 
Q 1050 3200 902 3052 
z
" transform="scale(0.015625)"/>
      <path id="NotoNaskhArabic-Bold-145" d="M 6 58 
Q -51 58 -51 115 
L -51 755 
Q -51 813 6 813 
Q 115 813 227 816 
Q 339 819 454 819 
Q 358 973 358 1114 
Q 358 1197 374 1337 
Q 390 1478 419 1606 
Q 448 1734 474 1786 
Q 595 2003 771 2179 
Q 947 2355 1152 2457 
Q 1357 2560 1549 2560 
Q 1722 2560 1898 2368 
Q 2074 2176 2182 1875 
Q 2291 1568 2291 1306 
Q 2291 1056 2150 819 
Q 2285 819 2422 816 
Q 2560 813 2694 813 
Q 2746 813 2746 762 
L 2746 109 
Q 2746 58 2694 58 
Q 1882 58 1325 269 
Q 1030 147 716 102 
Q 403 58 6 58 
z
M 1299 794 
Q 1690 902 1933 1107 
Q 1888 1280 1795 1446 
Q 1702 1613 1613 1696 
Q 1549 1773 1478 1773 
Q 1146 1773 704 1178 
Q 819 1043 979 944 
Q 1139 845 1299 794 
z
M 1459 3084 
Q 1133 3353 967 3545 
Q 1114 3692 1232 3817 
Q 1351 3942 1447 4057 
Q 1517 3980 1632 3865 
Q 1747 3750 1907 3596 
Q 1831 3488 1719 3360 
Q 1607 3232 1459 3084 
z
" transform="scale(0.015625)"/>
      <path id="NotoNaskhArabic-Bold-167" d="M 1606 -1613 
Q 1037 -1613 736 -1277 
Q 435 -941 435 -301 
Q 435 32 595 627 
L 877 557 
Q 787 256 787 45 
Q 787 -858 1683 -858 
Q 2317 -858 2976 -493 
Q 3085 -429 3200 -355 
Q 3315 -282 3424 -198 
Q 3411 -51 3388 99 
Q 3366 250 3334 390 
Q 2938 0 2522 0 
Q 2125 0 1907 230 
Q 1690 461 1690 883 
Q 1690 1242 1824 1584 
Q 1958 1926 2176 2131 
Q 2400 2342 2630 2342 
Q 2950 2342 3238 2080 
Q 3526 1818 3686 1350 
Q 3846 890 3846 320 
Q 3846 -90 3676 -432 
Q 3507 -774 3194 -1037 
Q 2989 -1210 2717 -1338 
Q 2445 -1466 2160 -1539 
Q 1875 -1613 1606 -1613 
z
M 2650 704 
Q 2925 704 3219 800 
Q 3027 1331 2765 1498 
Q 2643 1574 2515 1574 
Q 2374 1574 2259 1500 
Q 2144 1427 2086 1318 
Q 2035 1203 2035 1094 
Q 2035 902 2195 803 
Q 2355 704 2650 704 
z
M 3060 2860 
Q 2925 2969 2816 3065 
Q 2708 3161 2618 3257 
Q 2855 3475 3047 3705 
Q 3104 3641 3206 3545 
Q 3309 3449 3450 3308 
Q 3277 3072 3060 2860 
z
M 2202 2764 
Q 1927 2988 1760 3168 
Q 1869 3276 1978 3388 
Q 2087 3500 2196 3609 
Q 2311 3475 2592 3212 
Q 2432 2982 2202 2764 
z
" transform="scale(0.015625)"/>
     </defs>
     <use xlink:href="#NotoNaskhArabic-Bold-3"/>
     <use xlink:href="#NotoNaskhArabic-Bold-2ea" transform="translate(28.40625 0)"/>
     <use xlink:href="#NotoNaskhArabic-Bold-1ea" transform="translate(83 0)"/>
     <use xlink:href="#NotoNaskhArabic-Bold-145" transform="translate(110.5 0)"/>
     <use xlink:href="#NotoNaskhArabic-Bold-4" transform="translate(151.703125 0)"/>
     <use xlink:href="#NotoNaskhArabic-Bold-167" transform="translate(180.5 0)"/>
    </g>
    <!-- ﻲﻣﻮﻜﺤﻟﺍ -->
    <g style="fill: #1f2937" transform="translate(380.997759 111.435292) scale(0.1 -0.1)">
     <defs>
      <path id="NotoNaskhArabic-Bold-1c1" d="M 0 58 
Q -51 58 -51 109 
L -51 762 
Q -51 813 0 813 
Q 282 813 672 960 
Q 646 1146 624 1334 
Q 602 1523 570 1709 
Q 544 1894 441 2448 
Q 339 3002 173 3930 
Q 339 4045 534 4147 
Q 730 4250 934 4352 
Q 947 3827 960 3356 
Q 973 2886 986 2477 
Q 998 2067 1004 1718 
Q 1011 1370 1011 1069 
Q 1011 634 762 256 
Q 698 166 490 112 
Q 282 58 0 58 
z
" transform="scale(0.015625)"/>
      <path id="NotoNaskhArabic-Bold-8b" d="M 0 58 
Q -51 58 -51 109 
L -51 762 
Q -51 813 0 813 
Q 467 813 793 829 
Q 1120 845 1427 934 
Q 1702 1018 1897 1069 
Q 2093 1120 2202 1146 
Q 2118 1197 2032 1251 
Q 1946 1306 1856 1363 
Q 1651 1498 1513 1555 
Q 1376 1613 1235 1613 
Q 1043 1613 870 1558 
Q 698 1504 480 1363 
Q 422 1421 377 1533 
Q 333 1645 333 1747 
Q 333 2029 582 2205 
Q 832 2381 1210 2381 
Q 1414 2381 1603 2310 
Q 1792 2240 2029 2080 
Q 2317 1882 2560 1763 
Q 2803 1645 3136 1555 
Q 3302 1517 3500 1494 
Q 3699 1472 3936 1472 
L 3654 934 
Q 3578 941 3501 941 
Q 3424 941 3347 947 
Q 3411 890 3488 867 
Q 3565 845 3661 832 
Q 3808 826 3965 822 
Q 4122 819 4262 813 
Q 4314 813 4314 762 
L 4314 109 
Q 4314 58 4262 58 
Q 4032 58 3782 80 
Q 3533 102 3325 150 
Q 3117 198 3021 262 
Q 2893 358 2838 537 
Q 2784 717 2746 877 
Q 2624 851 2525 803 
Q 2426 755 2304 675 
Q 2182 595 1990 467 
Q 1683 262 1395 176 
Q 1107 90 774 74 
Q 442 58 0 58 
z
" transform="scale(0.015625)"/>
      <path id="NotoNaskhArabic-Bold-175" d="M 0 58 
Q -51 58 -51 109 
L -51 762 
Q -51 813 0 813 
Q 832 813 1293 870 
Q 1741 922 1952 1030 
Q 1882 1178 1728 1347 
Q 1574 1517 1363 1683 
Q 1242 1773 1085 1875 
Q 928 1978 723 2099 
Q 64 2470 64 2778 
Q 64 2906 121 3030 
Q 179 3155 269 3238 
Q 314 3277 515 3376 
Q 717 3475 1008 3606 
Q 1299 3738 1622 3878 
Q 1946 4019 2243 4144 
Q 2541 4269 2746 4352 
Q 2880 4230 2880 4032 
Q 2880 3872 2781 3728 
Q 2682 3584 2534 3514 
Q 2291 3392 2038 3283 
Q 1786 3174 1440 3049 
Q 1094 2925 563 2739 
Q 1011 2630 1401 2371 
Q 1792 2112 2029 1773 
Q 2278 1421 2278 1107 
Q 2278 1050 2272 1037 
Q 2630 813 3046 813 
Q 3104 813 3104 762 
L 3104 109 
Q 3104 58 3046 58 
Q 2470 58 2016 531 
Q 1901 429 1702 326 
Q 1126 58 0 58 
z
" transform="scale(0.015625)"/>
      <path id="NotoNaskhArabic-Bold-219" d="M 1248 -1248 
Q 1171 -1248 1011 -1174 
Q 851 -1101 668 -982 
Q 486 -864 326 -730 
L 429 -461 
Q 602 -506 778 -528 
Q 954 -550 1133 -550 
Q 1536 -550 1862 -380 
Q 2189 -211 2368 64 
Q 2093 83 1894 102 
Q 1696 122 1574 147 
Q 838 307 838 1018 
Q 838 1370 972 1712 
Q 1107 2054 1325 2266 
Q 1549 2477 1766 2477 
Q 2029 2477 2262 2240 
Q 2496 2003 2650 1626 
Q 2720 1446 2768 1241 
Q 2816 1037 2835 813 
L 3181 813 
Q 3232 813 3232 762 
L 3232 109 
Q 3232 58 3181 58 
L 2784 58 
Q 2669 -365 2419 -669 
Q 2170 -973 1843 -1120 
Q 1555 -1248 1248 -1248 
z
M 2419 819 
Q 2285 1254 2077 1484 
Q 1869 1715 1626 1715 
Q 1504 1715 1401 1651 
Q 1299 1587 1235 1498 
Q 1178 1402 1178 1293 
Q 1178 941 1805 858 
Q 1952 838 2419 819 
z
" transform="scale(0.015625)"/>
      <path id="NotoNaskhArabic-Bold-1e5" d="M 2349 0 
Q 1920 0 1488 99 
Q 1056 198 755 358 
Q 602 198 429 128 
Q 256 58 0 58 
Q -51 58 -51 109 
L -51 762 
Q -51 813 0 813 
Q 525 813 774 1286 
Q 890 1517 982 1680 
Q 1075 1843 1146 1939 
Q 1306 2157 1446 2249 
Q 1587 2342 1773 2342 
Q 2003 2342 2224 2102 
Q 2445 1862 2586 1466 
Q 2726 1082 2726 723 
Q 2726 557 2611 339 
Q 2496 122 2349 0 
z
M 2138 704 
Q 2112 941 2035 1142 
Q 1958 1344 1862 1466 
Q 1760 1587 1677 1587 
Q 1536 1587 1427 1472 
Q 1325 1363 1120 960 
Q 1325 870 1577 803 
Q 1830 736 2138 704 
z
" transform="scale(0.015625)"/>
      <path id="NotoNaskhArabic-Bold-23f" d="M 1830 -1613 
Q 1152 -1613 793 -1277 
Q 435 -941 435 -301 
Q 435 32 595 627 
L 877 557 
Q 787 256 787 45 
Q 787 -397 1059 -627 
Q 1331 -858 1901 -858 
Q 2240 -858 2598 -816 
Q 2957 -774 3283 -710 
Q 3450 -672 3610 -627 
Q 3770 -582 3898 -531 
Q 3757 -474 3561 -374 
Q 3366 -275 3187 -163 
Q 3008 -51 2893 32 
Q 2726 160 2726 218 
Q 2726 282 2771 397 
Q 2816 512 2877 633 
Q 2938 755 2992 838 
Q 3046 922 3066 922 
Q 3354 870 3699 841 
Q 4045 813 4454 813 
Q 4525 813 4525 749 
L 4525 122 
Q 4525 58 4454 58 
Q 4320 58 4137 70 
Q 3955 83 3779 108 
Q 3603 134 3475 166 
Q 3738 45 3875 -25 
Q 4013 -96 4070 -131 
Q 4128 -166 4147 -198 
Q 4192 -243 4208 -336 
Q 4224 -429 4224 -518 
Q 4224 -678 4057 -848 
Q 3891 -1018 3600 -1171 
Q 3309 -1325 2925 -1440 
Q 2349 -1613 1830 -1613 
z
M 2355 -2630 
Q 2080 -2406 1913 -2227 
Q 2118 -2048 2342 -1779 
Q 2361 -1798 2460 -1897 
Q 2560 -1997 2739 -2182 
Q 2675 -2278 2579 -2390 
Q 2483 -2502 2355 -2630 
z
M 1497 -2726 
Q 1337 -2598 1231 -2495 
Q 1126 -2393 1056 -2317 
Q 1164 -2208 1273 -2096 
Q 1382 -1984 1491 -1875 
Q 1568 -1971 1888 -2272 
Q 1734 -2502 1497 -2726 
z
" transform="scale(0.015625)"/>
     </defs>
     <use xlink:href="#NotoNaskhArabic-Bold-3"/>
     <use xlink:href="#NotoNaskhArabic-Bold-1c1" transform="translate(28.40625 0)"/>
     <use xlink:href="#NotoNaskhArabic-Bold-8b" transform="translate(50.109375 0)"/>
     <use xlink:href="#NotoNaskhArabic-Bold-175" transform="translate(115.8125 0)"/>
     <use xlink:href="#NotoNaskhArabic-Bold-219" transform="translate(162.515625 0)"/>
     <use xlink:href="#NotoNaskhArabic-Bold-1e5" transform="translate(211.3125 0)"/>
     <use xlink:href="#NotoNaskhArabic-Bold-23f" transform="translate(258.609375 0)"/>
    </g>
   </g>
   <g id="text_4">
    <!-- ﺕﺍﺭﺩﺎﺼﻟﺍ ﻲﻓﺎﺻ -->
    <g style="fill: #1f2937" transform="translate(264.09334 38.651544) scale(0.1 -0.1)">
     <defs>
      <path id="NotoNaskhArabic-Bold-112" d="M 2592 0 
Q 2163 0 1699 80 
Q 1235 160 851 339 
Q 826 314 797 285 
Q 768 256 730 230 
Q 595 147 400 102 
Q 205 58 0 58 
Q -51 58 -51 109 
L -51 762 
Q -51 813 0 813 
Q 243 813 380 841 
Q 518 870 614 969 
Q 710 1069 826 1274 
Q 851 1318 880 1363 
Q 909 1408 934 1466 
Q 1030 1638 1222 1638 
Q 1318 1638 1427 1574 
Q 1363 1414 1302 1260 
Q 1242 1107 1178 954 
Q 1248 928 1312 909 
Q 1376 890 1440 864 
Q 2099 1741 2605 2150 
Q 3091 2560 3469 2560 
Q 3629 2560 3824 2464 
Q 4019 2368 4211 2214 
Q 4403 2061 4544 1882 
Q 4762 1619 4762 1446 
Q 4762 582 3699 192 
Q 3174 0 2592 0 
z
M 2656 704 
Q 3117 704 3520 813 
Q 3923 922 4390 1146 
Q 3814 1805 3309 1805 
Q 3027 1805 2652 1536 
Q 2278 1267 1862 774 
Q 2067 742 2265 723 
Q 2464 704 2656 704 
z
" transform="scale(0.015625)"/>
      <path id="NotoNaskhArabic-Bold-146" d="M 6 58 
Q -51 58 -51 115 
L -51 762 
Q -51 813 6 813 
Q 710 813 1196 857 
Q 1683 902 2061 1075 
Q 2048 1120 2029 1177 
Q 2010 1235 1978 1312 
Q 1824 1178 1638 1107 
Q 1453 1037 1229 1037 
Q 864 1037 685 1229 
Q 506 1421 506 1709 
Q 506 2029 624 2297 
Q 742 2566 941 2720 
Q 1043 2803 1158 2851 
Q 1274 2899 1395 2899 
Q 1658 2899 1904 2608 
Q 2150 2317 2285 1869 
Q 2349 1677 2377 1469 
Q 2406 1261 2406 1043 
Q 2406 832 2189 397 
Q 1875 275 1577 201 
Q 1280 128 912 93 
Q 544 58 6 58 
z
M 1318 1504 
Q 1568 1504 1856 1594 
Q 1734 1875 1593 2003 
Q 1453 2131 1254 2131 
Q 1056 2131 944 2032 
Q 832 1933 832 1811 
Q 832 1658 947 1581 
Q 1062 1504 1318 1504 
z
M 1388 3328 
Q 1062 3597 896 3789 
Q 1043 3936 1161 4061 
Q 1280 4186 1376 4301 
Q 1446 4224 1561 4109 
Q 1676 3994 1836 3840 
Q 1760 3732 1648 3604 
Q 1536 3476 1388 3328 
z
" transform="scale(0.015625)"/>
      <path id="NotoNaskhArabic-Bold-554" transform="scale(0.015625)"/>
      <path id="NotoNaskhArabic-Bold-111" d="M 2592 0 
Q 2163 0 1699 80 
Q 1235 160 851 339 
Q 813 282 742 243 
Q 608 154 406 106 
Q 205 58 0 58 
Q -51 58 -51 109 
L -51 762 
Q -51 813 0 813 
Q 256 813 397 848 
Q 538 883 634 985 
Q 730 1088 838 1286 
Q 864 1331 886 1376 
Q 909 1421 934 1466 
Q 1030 1638 1222 1638 
Q 1318 1638 1427 1574 
Q 1363 1414 1302 1260 
Q 1242 1107 1178 954 
Q 1248 928 1312 909 
Q 1376 890 1440 864 
Q 2099 1741 2605 2150 
Q 3091 2560 3469 2560 
Q 3629 2560 3824 2464 
Q 4019 2368 4211 2214 
Q 4403 2061 4544 1882 
Q 4762 1619 4762 1446 
Q 4762 1229 4691 1050 
Q 4922 915 5082 864 
Q 5242 813 5466 813 
Q 5523 813 5523 762 
L 5523 109 
Q 5523 58 5466 58 
Q 5171 58 4880 186 
Q 4589 314 4358 563 
Q 4205 416 3904 278 
Q 3603 141 3258 70 
Q 3085 38 2921 19 
Q 2758 0 2592 0 
z
M 2656 704 
Q 3117 704 3520 813 
Q 3923 922 4390 1146 
Q 3814 1805 3309 1805 
Q 3027 1805 2652 1536 
Q 2278 1267 1862 774 
Q 2067 742 2265 723 
Q 2464 704 2656 704 
z
" transform="scale(0.015625)"/>
      <path id="NotoNaskhArabic-Bold-b5" d="M 1075 0 
Q 218 0 218 499 
Q 218 634 272 784 
Q 326 934 410 1018 
Q 570 890 774 826 
Q 979 762 1280 762 
Q 1696 762 2118 896 
Q 2016 1082 1929 1222 
Q 1843 1363 1773 1466 
Q 1594 1728 1478 1923 
Q 1363 2118 1363 2240 
Q 1363 2445 1526 2630 
Q 1690 2816 1901 2880 
Q 1952 2714 2022 2515 
Q 2093 2317 2166 2125 
Q 2240 1933 2291 1792 
Q 2381 1549 2445 1337 
Q 2509 1126 2509 954 
Q 2509 896 2473 765 
Q 2438 634 2387 493 
Q 2336 352 2285 250 
Q 2054 134 1734 67 
Q 1414 0 1075 0 
z
" transform="scale(0.015625)"/>
      <path id="NotoNaskhArabic-Bold-35" d="M 2010 0 
Q 1235 0 841 352 
Q 448 704 448 1363 
Q 448 1638 570 2067 
L 858 2067 
Q 851 2042 844 1926 
Q 838 1811 838 1747 
Q 838 1376 982 1174 
Q 1126 973 1434 864 
Q 1587 819 1792 790 
Q 1997 762 2246 762 
Q 2803 762 3340 864 
Q 3878 966 4320 1165 
Q 4256 1312 4157 1494 
Q 4058 1677 4000 1779 
Q 3936 1907 3891 2006 
Q 3846 2106 3846 2189 
Q 3846 2342 4019 2528 
Q 4192 2714 4429 2835 
Q 4531 2355 4585 2054 
Q 4640 1754 4665 1590 
Q 4691 1427 4691 1350 
Q 4691 1203 4617 982 
Q 4544 762 4442 576 
Q 4160 403 3766 275 
Q 3373 147 2921 73 
Q 2470 0 2010 0 
z
M 2752 2278 
Q 2617 2387 2508 2483 
Q 2400 2579 2310 2675 
Q 2547 2893 2739 3123 
Q 2796 3059 2898 2963 
Q 3001 2867 3142 2726 
Q 2969 2490 2752 2278 
z
M 1894 2182 
Q 1619 2406 1452 2586 
Q 1561 2694 1670 2806 
Q 1779 2918 1888 3027 
Q 2003 2893 2284 2630 
Q 2124 2400 1894 2182 
z
" transform="scale(0.015625)"/>
     </defs>
     <use xlink:href="#NotoNaskhArabic-Bold-112"/>
     <use xlink:href="#NotoNaskhArabic-Bold-4" transform="translate(79.5 0)"/>
     <use xlink:href="#NotoNaskhArabic-Bold-146" transform="translate(108.296875 0)"/>
     <use xlink:href="#NotoNaskhArabic-Bold-23f" transform="translate(151 0)"/>
     <use xlink:href="#NotoNaskhArabic-Bold-554" transform="translate(220 0)"/>
     <use xlink:href="#NotoNaskhArabic-Bold-3" transform="translate(242.09375 0)"/>
     <use xlink:href="#NotoNaskhArabic-Bold-1c1" transform="translate(270.5 0)"/>
     <use xlink:href="#NotoNaskhArabic-Bold-111" transform="translate(292.203125 0)"/>
     <use xlink:href="#NotoNaskhArabic-Bold-4" transform="translate(376.796875 0)"/>
     <use xlink:href="#NotoNaskhArabic-Bold-b5" transform="translate(405.59375 0)"/>
     <use xlink:href="#NotoNaskhArabic-Bold-d3" transform="translate(449.09375 0)"/>
     <use xlink:href="#NotoNaskhArabic-Bold-3" transform="translate(486.796875 0)"/>
     <use xlink:href="#NotoNaskhArabic-Bold-35" transform="translate(515.203125 0)"/>
    </g>
   </g>
   <g id="text_5">
    <!-- 58% -->
    <g style="fill: #ffffff" transform="translate(118.524141 259.854639) scale(0.1 -0.1)">
     <defs>
      <path id="NotoNaskhArabic-Bold-4d1" d="M 1542 -64 
Q 787 -64 314 186 
L 314 1018 
Q 557 890 886 806 
Q 1216 723 1510 723 
Q 2394 723 2394 1446 
Q 2394 2138 1478 2138 
Q 1312 2138 1113 2106 
Q 915 2074 787 2035 
L 403 2240 
L 576 4570 
L 3053 4570 
L 3053 3750 
L 1421 3750 
L 1338 2854 
Q 1504 2886 1635 2902 
Q 1766 2918 1920 2918 
Q 2586 2918 2976 2547 
Q 3366 2176 3366 1530 
Q 3366 762 2892 349 
Q 2419 -64 1542 -64 
z
" transform="scale(0.015625)"/>
      <path id="NotoNaskhArabic-Bold-4d4" d="M 1830 -64 
Q 1082 -64 653 256 
Q 224 576 224 1158 
Q 224 1555 432 1856 
Q 640 2157 1101 2387 
Q 710 2630 537 2915 
Q 365 3200 365 3533 
Q 365 3859 550 4105 
Q 736 4352 1065 4489 
Q 1395 4627 1830 4627 
Q 2490 4627 2890 4329 
Q 3290 4032 3290 3526 
Q 3290 3174 3098 2902 
Q 2906 2630 2470 2413 
Q 2982 2138 3206 1840 
Q 3430 1542 3430 1184 
Q 3430 813 3228 531 
Q 3027 250 2668 93 
Q 2310 -64 1830 -64 
z
M 1830 2816 
Q 2138 2963 2259 3110 
Q 2381 3258 2381 3456 
Q 2381 3674 2224 3798 
Q 2067 3923 1824 3923 
Q 1581 3923 1427 3795 
Q 1274 3667 1274 3456 
Q 1274 3245 1434 3078 
Q 1555 2950 1830 2816 
z
M 1818 646 
Q 2176 646 2355 800 
Q 2534 954 2534 1210 
Q 2534 1421 2358 1603 
Q 2182 1786 1786 1990 
Q 1120 1683 1120 1216 
Q 1120 947 1305 796 
Q 1491 646 1818 646 
z
" transform="scale(0.015625)"/>
      <path id="DejaVuSans-Bold-8" d="M 4959 1925 
Q 4738 1925 4616 1733 
Q 4494 1541 4494 1184 
Q 4494 825 4614 633 
Q 4734 441 4959 441 
Q 5184 441 5303 633 
Q 5422 825 5422 1184 
Q 5422 1541 5301 1733 
Q 5181 1925 4959 1925 
z
M 4959 2450 
Q 5541 2450 5875 2112 
Q 6209 1775 6209 1184 
Q 6209 594 5875 251 
Q 5541 -91 4959 -91 
Q 4378 -91 4042 251 
Q 3706 594 3706 1184 
Q 3706 1772 4042 2111 
Q 4378 2450 4959 2450 
z
M 2094 -91 
L 1403 -91 
L 4319 4750 
L 5013 4750 
L 2094 -91 
z
M 1453 4750 
Q 2034 4750 2367 4411 
Q 2700 4072 2700 3481 
Q 2700 2891 2367 2550 
Q 2034 2209 1453 2209 
Q 872 2209 539 2550 
Q 206 2891 206 3481 
Q 206 4072 539 4411 
Q 872 4750 1453 4750 
z
M 1453 4225 
Q 1228 4225 1106 4031 
Q 984 3838 984 3481 
Q 984 3122 1106 2926 
Q 1228 2731 1453 2731 
Q 1678 2731 1798 2926 
Q 1919 3122 1919 3481 
Q 1919 3838 1797 4031 
Q 1675 4225 1453 4225 
z
" transform="scale(0.015625)"/>
     </defs>
     <use xlink:href="#NotoNaskhArabic-Bold-4d1"/>
     <use xlink:href="#NotoNaskhArabic-Bold-4d4" transform="translate(57.203125 0)"/>
     <use xlink:href="#DejaVuSans-Bold-8" transform="translate(114.40625 0)"/>
    </g>
   </g>
   <g id="text_6">
    <!-- 20% -->
    <g style="fill: #ffffff" transform="translate(319.744742 278.875586) scale(0.1 -0.1)">
     <defs>
      <path id="NotoNaskhArabic-Bold-4ce" d="M 256 0 
L 256 672 
L 1402 1830 
Q 1914 2355 2067 2554 
Q 2234 2765 2298 2925 
Q 2362 3085 2362 3283 
Q 2362 3558 2211 3692 
Q 2061 3827 1805 3827 
Q 1542 3827 1292 3705 
Q 1043 3584 768 3360 
L 243 3981 
Q 518 4218 761 4358 
Q 1005 4499 1267 4566 
Q 1530 4634 1875 4634 
Q 2304 4634 2633 4477 
Q 2963 4320 3142 4038 
Q 3322 3763 3322 3398 
Q 3322 3085 3213 2809 
Q 3104 2534 2867 2240 
Q 2752 2093 2547 1885 
Q 2342 1677 2048 1408 
L 1459 858 
L 1459 813 
L 3450 813 
L 3450 0 
L 256 0 
z
" transform="scale(0.015625)"/>
      <path id="NotoNaskhArabic-Bold-4cc" d="M 1824 -64 
Q 1030 -64 630 531 
Q 230 1126 230 2285 
Q 230 3494 620 4067 
Q 1011 4640 1824 4640 
Q 2618 4640 3021 4041 
Q 3424 3443 3424 2285 
Q 3424 1088 3033 512 
Q 2643 -64 1824 -64 
z
M 1824 717 
Q 2170 717 2310 1082 
Q 2464 1459 2464 2285 
Q 2464 3123 2310 3494 
Q 2157 3859 1824 3859 
Q 1485 3859 1338 3494 
Q 1190 3110 1190 2285 
Q 1190 1453 1338 1082 
Q 1485 717 1824 717 
z
" transform="scale(0.015625)"/>
     </defs>
     <use xlink:href="#NotoNaskhArabic-Bold-4ce"/>
     <use xlink:href="#NotoNaskhArabic-Bold-4cc" transform="translate(57.203125 0)"/>
     <use xlink:href="#DejaVuSans-Bold-8" transform="translate(114.40625 0)"/>
    </g>
   </g>
   <g id="text_7">
    <!-- 17% -->
    <g style="fill: #ffffff" transform="translate(303.126896 162.112512) scale(0.1 -0.1)">
     <defs>
      <path id="NotoNaskhArabic-Bold-4cd" d="M 1677 0 
L 1677 2643 
Q 1677 2822 1686 3020 
Q 1696 3219 1702 3552 
Q 1466 3315 1370 3238 
Q 1242 3136 1107 3030 
Q 973 2925 845 2816 
L 378 3398 
L 1850 4570 
L 2643 4570 
L 2643 0 
L 1677 0 
z
" transform="scale(0.015625)"/>
      <path id="NotoNaskhArabic-Bold-4d3" d="M 710 0 
L 2426 3757 
L 173 3757 
L 173 4570 
L 3450 4570 
L 3450 3962 
L 1722 0 
L 710 0 
z
" transform="scale(0.015625)"/>
     </defs>
     <use xlink:href="#NotoNaskhArabic-Bold-4cd"/>
     <use xlink:href="#NotoNaskhArabic-Bold-4d3" transform="translate(57.203125 0)"/>
     <use xlink:href="#DejaVuSans-Bold-8" transform="translate(114.40625 0)"/>
    </g>
   </g>
   <g id="text_8">
    <!-- 5% -->
    <g style="fill: #ffffff" transform="translate(242.221006 127.056831) scale(0.1 -0.1)">
     <use xlink:href="#NotoNaskhArabic-Bold-4d1"/>
     <use xlink:href="#DejaVuSans-Bold-8" transform="translate(57.203125 0)"/>
    </g>
   </g>
  </g>
 </g>
</svg>
