<?xml version="1.0" encoding="utf-8" standalone="no"?>
<!DOCTYPE svg PUBLIC "-//W3C//DTD SVG 1.1//EN"
  "http://www.w3.org/Graphics/SVG/1.1/DTD/svg11.dtd">
<svg xmlns:xlink="http://www.w3.org/1999/xlink" width="628.35pt" height="340.35pt" viewBox="0 0 628.35 340.35" xmlns="http://www.w3.org/2000/svg" version="1.1">
 <metadata>
  <rdf:RDF xmlns:dc="http://purl.org/dc/elements/1.1/" xmlns:cc="http://creativecommons.org/ns#" xmlns:rdf="http://www.w3.org/1999/02/22-rdf-syntax-ns#">
   <cc:Work>
    <dc:type rdf:resource="http://purl.org/dc/dcmitype/StillImage"/>
    <dc:date>2026-07-19T01:15:35.528780</dc:date>
    <dc:format>image/svg+xml</dc:format>
    <dc:creator>
     <cc:Agent>
      <dc:title>Matplotlib v3.11.1, https://matplotlib.org/</dc:title>
     </cc:Agent>
    </dc:creator>
   </cc:Work>
  </rdf:RDF>
 </metadata>
 <defs>
  <style type="text/css">*{stroke-linejoin: round; stroke-linecap: butt}</style>
 </defs>
 <g id="figure_1">
  <g id="patch_1">
   <path d="M 0 340.35 
L 628.35 340.35 
L 628.35 0 
L 0 0 
z
" style="fill: #ffffff"/>
  </g>
  <g id="axes_1">
   <g id="patch_2">
    <path d="M 7.2 308.12 
L 569.101016 308.12 
L 569.101016 7.2 
L 7.2 7.2 
z
" style="fill: #ffffff"/>
   </g>
   <g id="matplotlib.axis_1">
    <g id="text_1">
     <!-- ​ﻦﻣﺰﻟﺍ -->
     <g style="fill: #1f2937" transform="translate(278.675508 326.81) scale(0.1 -0.1)">
      <defs>
       <path id="NotoNaskhArabic-Regular-3" d="M 666 0 
Q 646 1126 604 2057 
Q 563 2989 493 3725 
Q 467 3987 566 4118 
Q 666 4250 915 4294 
Q 941 4173 1001 3965 
Q 1062 3757 1139 3533 
L 966 3386 
Q 992 2912 1001 2413 
Q 1011 1914 1001 1338 
Q 992 762 960 51 
L 666 0 
z
" transform="scale(0.015625)"/>
       <path id="NotoNaskhArabic-Regular-1c1" d="M -6 0 
Q -64 0 -64 51 
L -64 435 
Q -64 486 -6 486 
Q 378 486 704 659 
Q 685 902 665 1139 
Q 646 1376 627 1606 
Q 570 2208 512 2790 
Q 454 3373 384 3936 
Q 474 4032 579 4121 
Q 685 4211 806 4294 
Q 826 3949 851 3497 
Q 877 3046 915 2483 
Q 947 2016 960 1609 
Q 973 1203 979 864 
Q 979 755 915 572 
Q 851 390 755 224 
Q 640 0 -6 0 
z
" transform="scale(0.015625)"/>
       <path id="NotoNaskhArabic-Regular-d6" d="M 710 -1306 
Q 608 -1306 451 -1248 
Q 294 -1190 134 -1107 
Q -26 -1024 -128 -947 
L -45 -736 
Q 134 -768 284 -787 
Q 435 -806 563 -806 
Q 1043 -806 1385 -518 
Q 1728 -230 1907 314 
Q 1862 416 1814 515 
Q 1766 614 1709 717 
Q 1491 1107 1388 1340 
Q 1286 1574 1286 1734 
Q 1286 1901 1382 2000 
Q 1478 2099 1658 2182 
Q 1683 2099 1712 2000 
Q 1741 1901 1786 1792 
Q 1888 1530 1955 1334 
Q 2022 1139 2054 1018 
Q 2093 896 2115 797 
Q 2138 698 2144 614 
Q 2362 486 2643 486 
Q 2694 486 2694 435 
L 2694 51 
Q 2694 0 2643 0 
Q 2342 0 2118 154 
Q 2048 -288 1849 -617 
Q 1651 -947 1356 -1126 
Q 1062 -1306 710 -1306 
z
M 1299 2560 
Q 1018 2771 839 2976 
Q 1165 3303 1287 3443 
Q 1389 3335 1494 3229 
Q 1600 3123 1709 3027 
Q 1562 2816 1299 2560 
z
" transform="scale(0.015625)"/>
       <path id="NotoNaskhArabic-Regular-1e5" d="M 2291 0 
Q 2035 0 1753 48 
Q 1472 96 1209 182 
Q 947 269 749 384 
Q 602 179 422 89 
Q 243 0 0 0 
Q -51 0 -51 51 
L -51 435 
Q -51 486 0 486 
Q 243 486 409 604 
Q 576 723 698 960 
Q 813 1171 880 1308 
Q 947 1446 1004 1555 
Q 1062 1664 1152 1779 
Q 1312 1990 1478 2083 
Q 1645 2176 1830 2176 
Q 2016 2176 2201 1945 
Q 2387 1715 2502 1357 
Q 2618 1005 2618 666 
Q 2618 467 2547 307 
Q 2477 147 2291 0 
z
M 2150 486 
Q 2144 781 2061 1065 
Q 1978 1350 1875 1498 
Q 1805 1606 1728 1606 
Q 1491 1606 1286 1318 
Q 1235 1242 1161 1117 
Q 1088 992 998 806 
Q 1459 563 2150 486 
z
" transform="scale(0.015625)"/>
       <path id="NotoNaskhArabic-Regular-1e8" d="M 1594 -1677 
Q 1050 -1677 742 -1363 
Q 435 -1050 435 -474 
Q 435 -346 444 -237 
Q 454 -128 480 9 
Q 506 147 557 358 
L 794 301 
Q 723 6 723 -154 
Q 723 -621 956 -883 
Q 1190 -1146 1606 -1146 
Q 1926 -1146 2249 -1040 
Q 2573 -934 2829 -752 
Q 3085 -570 3187 -346 
Q 2976 109 2873 416 
Q 2771 723 2771 877 
Q 2771 1043 2864 1174 
Q 2957 1306 3187 1446 
Q 3200 1344 3235 1133 
Q 3270 922 3334 595 
Q 3565 486 3802 486 
Q 3859 486 3859 435 
L 3859 51 
Q 3859 0 3802 0 
Q 3590 0 3418 77 
L 3424 -109 
Q 3424 -499 3174 -860 
Q 2925 -1222 2490 -1446 
Q 2061 -1677 1594 -1677 
z
M 1766 1504 
Q 1485 1715 1306 1920 
Q 1632 2247 1754 2387 
Q 1856 2279 1961 2173 
Q 2067 2067 2176 1971 
Q 2029 1760 1766 1504 
z
" transform="scale(0.015625)"/>
       <path id="NotoNaskhArabic-Regular-554" transform="scale(0.015625)"/>
      </defs>
      <use xlink:href="#NotoNaskhArabic-Regular-3"/>
      <use xlink:href="#NotoNaskhArabic-Regular-1c1" transform="translate(23.796875 0)"/>
      <use xlink:href="#NotoNaskhArabic-Regular-d6" transform="translate(45 0)"/>
      <use xlink:href="#NotoNaskhArabic-Regular-1e5" transform="translate(85.40625 0)"/>
      <use xlink:href="#NotoNaskhArabic-Regular-1e8" transform="translate(131 0)"/>
      <use xlink:href="#NotoNaskhArabic-Regular-554" transform="translate(189.5 0)"/>
     </g>
    </g>
   </g>
   <g id="matplotlib.axis_2">
    <g id="ytick_1">
     <g id="line2d_1">
      <path d="M 7.2 268.142595 
L 569.101016 268.142595 
" clip-path="url(#pda365985c9)" style="fill: none; stroke: #e6e1d6; stroke-width: 0.8; stroke-linecap: square"/>
     </g>
     <g id="line2d_2">
      <defs>
       <path id="m885a5b3285" d="M 0 0 
L 3.5 0 
" style="stroke: #555555; stroke-width: 0.8"/>
      </defs>
      <g>
       <use xlink:href="#m885a5b3285" x="569.101016" y="268.142595" style="fill: #555555; stroke: #555555; stroke-width: 0.8"/>
      </g>
     </g>
     <g id="text_2">
      <!-- 100 -->
      <g style="fill: #555555" transform="translate(576.101016 273.754845) scale(0.105 -0.105)">
       <defs>
        <path id="NotoNaskhArabic-Regular-4cd" d="M 1722 0 
L 1722 3194 
Q 1722 3405 1728 3603 
Q 1734 3802 1747 3981 
Q 1702 3936 1657 3891 
Q 1613 3846 1562 3808 
Q 1402 3674 1226 3530 
Q 1050 3386 864 3232 
L 570 3610 
L 1805 4570 
L 2272 4570 
L 2272 0 
L 1722 0 
z
" transform="scale(0.015625)"/>
        <path id="NotoNaskhArabic-Regular-4cc" d="M 1824 -64 
Q 1082 -64 698 534 
Q 314 1133 314 2291 
Q 314 3488 682 4064 
Q 1050 4640 1824 4640 
Q 2566 4640 2956 4038 
Q 3347 3437 3347 2291 
Q 3347 1101 2969 518 
Q 2592 -64 1824 -64 
z
M 1824 416 
Q 2208 416 2426 678 
Q 2778 1094 2778 2291 
Q 2778 3571 2368 3962 
Q 2163 4160 1824 4160 
Q 1427 4160 1203 3878 
Q 877 3469 877 2291 
Q 877 1075 1229 666 
Q 1440 416 1824 416 
z
" transform="scale(0.015625)"/>
       </defs>
       <use xlink:href="#NotoNaskhArabic-Regular-4cd"/>
       <use xlink:href="#NotoNaskhArabic-Regular-4cc" transform="translate(57.203125 0)"/>
       <use xlink:href="#NotoNaskhArabic-Regular-4cc" transform="translate(114.40625 0)"/>
      </g>
     </g>
    </g>
    <g id="ytick_2">
     <g id="line2d_3">
      <path d="M 7.2 207.239466 
L 569.101016 207.239466 
" clip-path="url(#pda365985c9)" style="fill: none; stroke: #e6e1d6; stroke-width: 0.8; stroke-linecap: square"/>
     </g>
     <g id="line2d_4">
      <g>
       <use xlink:href="#m885a5b3285" x="569.101016" y="207.239466" style="fill: #555555; stroke: #555555; stroke-width: 0.8"/>
      </g>
     </g>
     <g id="text_3">
      <!-- 105 -->
      <g style="fill: #555555" transform="translate(576.101016 212.851716) scale(0.105 -0.105)">
       <defs>
        <path id="NotoNaskhArabic-Regular-4d1" d="M 1587 -64 
Q 826 -64 403 186 
L 403 717 
Q 634 576 960 496 
Q 1286 416 1594 416 
Q 2131 416 2425 672 
Q 2720 928 2720 1402 
Q 2720 2330 1574 2330 
Q 1210 2330 794 2234 
L 512 2413 
L 685 4570 
L 2976 4570 
L 2976 4058 
L 1165 4058 
L 1056 2733 
Q 1235 2765 1411 2784 
Q 1587 2803 1760 2803 
Q 2477 2803 2886 2444 
Q 3296 2086 3296 1459 
Q 3296 749 2841 342 
Q 2387 -64 1587 -64 
z
" transform="scale(0.015625)"/>
       </defs>
       <use xlink:href="#NotoNaskhArabic-Regular-4cd"/>
       <use xlink:href="#NotoNaskhArabic-Regular-4cc" transform="translate(57.203125 0)"/>
       <use xlink:href="#NotoNaskhArabic-Regular-4d1" transform="translate(114.40625 0)"/>
      </g>
     </g>
    </g>
    <g id="ytick_3">
     <g id="line2d_5">
      <path d="M 7.2 146.336337 
L 569.101016 146.336337 
" clip-path="url(#pda365985c9)" style="fill: none; stroke: #e6e1d6; stroke-width: 0.8; stroke-linecap: square"/>
     </g>
     <g id="line2d_6">
      <g>
       <use xlink:href="#m885a5b3285" x="569.101016" y="146.336337" style="fill: #555555; stroke: #555555; stroke-width: 0.8"/>
      </g>
     </g>
     <g id="text_4">
      <!-- 110 -->
      <g style="fill: #555555" transform="translate(576.101016 151.948587) scale(0.105 -0.105)">
       <use xlink:href="#NotoNaskhArabic-Regular-4cd"/>
       <use xlink:href="#NotoNaskhArabic-Regular-4cd" transform="translate(57.203125 0)"/>
       <use xlink:href="#NotoNaskhArabic-Regular-4cc" transform="translate(114.40625 0)"/>
      </g>
     </g>
    </g>
    <g id="ytick_4">
     <g id="line2d_7">
      <path d="M 7.2 85.433207 
L 569.101016 85.433207 
" clip-path="url(#pda365985c9)" style="fill: none; stroke: #e6e1d6; stroke-width: 0.8; stroke-linecap: square"/>
     </g>
     <g id="line2d_8">
      <g>
       <use xlink:href="#m885a5b3285" x="569.101016" y="85.433207" style="fill: #555555; stroke: #555555; stroke-width: 0.8"/>
      </g>
     </g>
     <g id="text_5">
      <!-- 115 -->
      <g style="fill: #555555" transform="translate(576.101016 91.045457) scale(0.105 -0.105)">
       <use xlink:href="#NotoNaskhArabic-Regular-4cd"/>
       <use xlink:href="#NotoNaskhArabic-Regular-4cd" transform="translate(57.203125 0)"/>
       <use xlink:href="#NotoNaskhArabic-Regular-4d1" transform="translate(114.40625 0)"/>
      </g>
     </g>
    </g>
    <g id="ytick_5">
     <g id="line2d_9">
      <path d="M 7.2 24.530078 
L 569.101016 24.530078 
" clip-path="url(#pda365985c9)" style="fill: none; stroke: #e6e1d6; stroke-width: 0.8; stroke-linecap: square"/>
     </g>
     <g id="line2d_10">
      <g>
       <use xlink:href="#m885a5b3285" x="569.101016" y="24.530078" style="fill: #555555; stroke: #555555; stroke-width: 0.8"/>
      </g>
     </g>
     <g id="text_6">
      <!-- 120 -->
      <g style="fill: #555555" transform="translate(576.101016 30.142328) scale(0.105 -0.105)">
       <defs>
        <path id="NotoNaskhArabic-Regular-4ce" d="M 307 0 
L 307 467 
L 1504 1677 
Q 1773 1952 1952 2147 
Q 2131 2342 2221 2458 
Q 2413 2720 2489 2925 
Q 2566 3130 2566 3386 
Q 2566 3744 2352 3949 
Q 2138 4154 1760 4154 
Q 1478 4154 1228 4058 
Q 979 3962 659 3718 
L 358 4096 
Q 1005 4634 1760 4634 
Q 2240 4634 2576 4448 
Q 2912 4262 3053 3923 
Q 3142 3686 3142 3418 
Q 3142 3123 3033 2841 
Q 2925 2560 2707 2272 
Q 2598 2131 2416 1929 
Q 2234 1728 1971 1478 
L 1018 538 
L 1018 512 
L 3328 512 
L 3328 0 
L 307 0 
z
" transform="scale(0.015625)"/>
       </defs>
       <use xlink:href="#NotoNaskhArabic-Regular-4cd"/>
       <use xlink:href="#NotoNaskhArabic-Regular-4ce" transform="translate(57.203125 0)"/>
       <use xlink:href="#NotoNaskhArabic-Regular-4cc" transform="translate(114.40625 0)"/>
      </g>
     </g>
    </g>
    <g id="text_7">
     <!-- ​ﺮﻌﺴﻟﺍ -->
     <g style="fill: #1f2937" transform="translate(610.46 148.004531) rotate(-270) scale(0.1 -0.1)">
      <defs>
       <path id="NotoNaskhArabic-Regular-f9" d="M 1446 0 
Q 1267 0 1030 57 
Q 794 115 666 198 
Q 576 109 397 54 
Q 218 0 0 0 
Q -51 0 -51 51 
L -51 435 
Q -51 486 0 486 
Q 326 486 518 634 
Q 627 723 681 809 
Q 736 896 858 1094 
Q 915 1197 1056 1197 
Q 1146 1197 1210 1152 
Q 1114 909 1046 765 
Q 979 621 947 570 
Q 998 544 1155 515 
Q 1312 486 1517 486 
Q 1664 486 1789 505 
Q 1914 525 2016 550 
Q 2061 621 2115 793 
Q 2170 966 2227 1145 
Q 2285 1325 2323 1408 
Q 2381 1536 2432 1574 
Q 2483 1613 2579 1613 
Q 2669 1613 2733 1568 
Q 2688 1466 2608 1235 
Q 2528 1005 2400 582 
Q 2496 538 2566 522 
Q 2637 506 2739 506 
Q 2906 506 3091 570 
Q 3123 608 3168 723 
Q 3213 838 3277 1030 
Q 3328 1190 3385 1331 
Q 3443 1472 3501 1568 
Q 3552 1664 3699 1664 
Q 3789 1664 3853 1619 
Q 3808 1517 3728 1289 
Q 3648 1062 3533 710 
Q 3757 589 3917 537 
Q 4077 486 4294 486 
Q 4352 486 4352 435 
L 4352 51 
Q 4352 0 4294 0 
Q 4045 0 3798 96 
Q 3552 192 3386 346 
Q 3366 301 3347 259 
Q 3328 218 3296 173 
Q 3251 96 3078 48 
Q 2906 0 2733 0 
Q 2438 0 2221 160 
Q 2176 102 2041 67 
Q 1907 32 1744 19 
Q 1581 6 1446 0 
z
" transform="scale(0.015625)"/>
       <path id="NotoNaskhArabic-Regular-135" d="M 6 0 
Q -51 0 -51 58 
L -51 429 
Q -51 486 6 486 
Q 672 486 1101 640 
L 986 787 
Q 864 973 771 1094 
Q 678 1216 621 1280 
Q 506 1427 410 1491 
L 307 1427 
Q 192 1555 192 1709 
Q 192 1862 297 1974 
Q 403 2086 566 2172 
Q 730 2259 902 2310 
Q 1158 2394 1446 2394 
Q 1722 2394 1936 2288 
Q 2150 2182 2272 2003 
Q 2400 1824 2400 1594 
Q 2400 1293 2243 1049 
Q 2086 806 1830 602 
Q 2099 486 2694 486 
Q 2758 486 2758 429 
L 2758 58 
Q 2758 0 2694 0 
Q 2259 0 1955 83 
Q 1651 166 1402 346 
Q 1050 166 723 83 
Q 397 0 6 0 
z
M 1478 845 
Q 1696 992 1821 1152 
Q 1946 1312 1946 1459 
Q 1946 1638 1811 1753 
Q 1677 1869 1466 1869 
Q 1075 1869 710 1677 
Q 947 1491 1325 1018 
Q 1395 934 1478 845 
z
" transform="scale(0.015625)"/>
       <path id="NotoNaskhArabic-Regular-d4" d="M 710 -1306 
Q 608 -1306 451 -1248 
Q 294 -1190 134 -1107 
Q -26 -1024 -128 -947 
L -45 -736 
Q 134 -768 284 -787 
Q 435 -806 563 -806 
Q 1043 -806 1385 -518 
Q 1728 -230 1907 314 
Q 1862 416 1814 515 
Q 1766 614 1709 717 
Q 1491 1107 1388 1340 
Q 1286 1574 1286 1734 
Q 1286 1901 1382 2000 
Q 1478 2099 1658 2182 
Q 1683 2099 1712 2000 
Q 1741 1901 1786 1792 
Q 1888 1530 1955 1334 
Q 2022 1139 2054 1018 
Q 2093 896 2115 797 
Q 2138 698 2144 614 
Q 2362 486 2643 486 
Q 2694 486 2694 435 
L 2694 51 
Q 2694 0 2643 0 
Q 2342 0 2118 154 
Q 2048 -288 1849 -617 
Q 1651 -947 1356 -1126 
Q 1062 -1306 710 -1306 
z
" transform="scale(0.015625)"/>
      </defs>
      <use xlink:href="#NotoNaskhArabic-Regular-3"/>
      <use xlink:href="#NotoNaskhArabic-Regular-1c1" transform="translate(23.796875 0)"/>
      <use xlink:href="#NotoNaskhArabic-Regular-f9" transform="translate(45 0)"/>
      <use xlink:href="#NotoNaskhArabic-Regular-135" transform="translate(111.296875 0)"/>
      <use xlink:href="#NotoNaskhArabic-Regular-d4" transform="translate(152.703125 0)"/>
      <use xlink:href="#NotoNaskhArabic-Regular-554" transform="translate(193.109375 0)"/>
     </g>
    </g>
   </g>
   <g id="patch_3">
    <path d="M 150.94212 308.12 
L 229.346913 308.12 
L 229.346913 7.2 
L 150.94212 7.2 
z
" clip-path="url(#pda365985c9)" style="fill: #b91c1c; opacity: 0.08; stroke: #b91c1c; stroke-linejoin: miter"/>
   </g>
   <g id="line2d_11">
    <path d="M 20.267465 262.20204 
L 556.03355 110.162569 
" clip-path="url(#pda365985c9)" style="fill: none; stroke: #1f2937; stroke-width: 2; stroke-linecap: square"/>
   </g>
   <g id="patch_4">
    <path d="M 569.101016 308.12 
L 569.101016 7.2 
" style="fill: none; stroke: #1f2937; stroke-width: 0.8; stroke-linejoin: miter; stroke-linecap: square"/>
   </g>
   <g id="patch_5">
    <path d="M 7.2 308.12 
L 569.101016 308.12 
" style="fill: none; stroke: #1f2937; stroke-width: 0.8; stroke-linejoin: miter; stroke-linecap: square"/>
   </g>
   <g id="line2d_12">
    <path d="M 20.267465 268.292353 
L 20.267465 262.82139 
" clip-path="url(#pda365985c9)" style="fill: none; stroke: #1f8a56; stroke-width: 1.1; stroke-linecap: round"/>
   </g>
   <g id="line2d_13">
    <path d="M 33.334931 265.659357 
L 33.334931 237.114321 
" clip-path="url(#pda365985c9)" style="fill: none; stroke: #1f8a56; stroke-width: 1.1; stroke-linecap: round"/>
   </g>
   <g id="line2d_14">
    <path d="M 46.402396 241.268464 
L 46.402396 230.419202 
" clip-path="url(#pda365985c9)" style="fill: none; stroke: #1f8a56; stroke-width: 1.1; stroke-linecap: round"/>
   </g>
   <g id="line2d_15">
    <path d="M 59.469862 230.93559 
L 59.469862 219.787167 
" clip-path="url(#pda365985c9)" style="fill: none; stroke: #1f8a56; stroke-width: 1.1; stroke-linecap: round"/>
   </g>
   <g id="line2d_16">
    <path d="M 72.537327 223.449928 
L 72.537327 216.040838 
" clip-path="url(#pda365985c9)" style="fill: none; stroke: #1f8a56; stroke-width: 1.1; stroke-linecap: round"/>
   </g>
   <g id="line2d_17">
    <path d="M 85.604793 215.630774 
L 85.604793 209.643154 
" clip-path="url(#pda365985c9)" style="fill: none; stroke: #b91c1c; stroke-width: 1.1; stroke-linecap: round"/>
   </g>
   <g id="line2d_18">
    <path d="M 98.672258 216.933413 
L 98.672258 207.364761 
" clip-path="url(#pda365985c9)" style="fill: none; stroke: #1f8a56; stroke-width: 1.1; stroke-linecap: round"/>
   </g>
   <g id="line2d_19">
    <path d="M 111.739724 208.017577 
L 111.739724 200.688658 
" clip-path="url(#pda365985c9)" style="fill: none; stroke: #1f8a56; stroke-width: 1.1; stroke-linecap: round"/>
   </g>
   <g id="line2d_20">
    <path d="M 124.807189 205.416215 
L 124.807189 196.932266 
" clip-path="url(#pda365985c9)" style="fill: none; stroke: #1f8a56; stroke-width: 1.1; stroke-linecap: round"/>
   </g>
   <g id="line2d_21">
    <path d="M 137.874655 201.962224 
L 137.874655 197.19251 
" clip-path="url(#pda365985c9)" style="fill: none; stroke: #1f8a56; stroke-width: 1.1; stroke-linecap: round"/>
   </g>
   <g id="line2d_22">
    <path d="M 150.94212 199.471585 
L 150.94212 197.16996 
" clip-path="url(#pda365985c9)" style="fill: none; stroke: #1f8a56; stroke-width: 1.1; stroke-linecap: round"/>
   </g>
   <g id="line2d_23">
    <path d="M 164.009586 199.064911 
L 164.009586 195.993981 
" clip-path="url(#pda365985c9)" style="fill: none; stroke: #b91c1c; stroke-width: 1.1; stroke-linecap: round"/>
   </g>
   <g id="line2d_24">
    <path d="M 177.077051 211.741497 
L 177.077051 197.60754 
" clip-path="url(#pda365985c9)" style="fill: none; stroke: #b91c1c; stroke-width: 1.1; stroke-linecap: round"/>
   </g>
   <g id="line2d_25">
    <path d="M 190.144517 213.883715 
L 190.144517 208.583635 
" clip-path="url(#pda365985c9)" style="fill: none; stroke: #b91c1c; stroke-width: 1.1; stroke-linecap: round"/>
   </g>
   <g id="line2d_26">
    <path d="M 203.211982 232.146871 
L 203.211982 213.142312 
" clip-path="url(#pda365985c9)" style="fill: none; stroke: #b91c1c; stroke-width: 1.1; stroke-linecap: round"/>
   </g>
   <g id="line2d_27">
    <path d="M 216.279448 234.773329 
L 216.279448 227.747832 
" clip-path="url(#pda365985c9)" style="fill: none; stroke: #b91c1c; stroke-width: 1.1; stroke-linecap: round"/>
   </g>
   <g id="line2d_28">
    <path d="M 229.346913 233.238914 
L 229.346913 216.533488 
" clip-path="url(#pda365985c9)" style="fill: none; stroke: #1f8a56; stroke-width: 1.1; stroke-linecap: round"/>
   </g>
   <g id="line2d_29">
    <path d="M 242.414379 216.959616 
L 242.414379 198.427428 
" clip-path="url(#pda365985c9)" style="fill: none; stroke: #1f8a56; stroke-width: 1.1; stroke-linecap: round"/>
   </g>
   <g id="line2d_30">
    <path d="M 255.481844 201.49414 
L 255.481844 184.1772 
" clip-path="url(#pda365985c9)" style="fill: none; stroke: #1f8a56; stroke-width: 1.1; stroke-linecap: round"/>
   </g>
   <g id="line2d_31">
    <path d="M 268.54931 184.825634 
L 268.54931 168.553748 
" clip-path="url(#pda365985c9)" style="fill: none; stroke: #1f8a56; stroke-width: 1.1; stroke-linecap: round"/>
   </g>
   <g id="line2d_32">
    <path d="M 281.616775 170.969813 
L 281.616775 161.312006 
" clip-path="url(#pda365985c9)" style="fill: none; stroke: #1f8a56; stroke-width: 1.1; stroke-linecap: round"/>
   </g>
   <g id="line2d_33">
    <path d="M 294.684241 162.506662 
L 294.684241 149.780348 
" clip-path="url(#pda365985c9)" style="fill: none; stroke: #1f8a56; stroke-width: 1.1; stroke-linecap: round"/>
   </g>
   <g id="line2d_34">
    <path d="M 307.751706 151.292483 
L 307.751706 144.443674 
" clip-path="url(#pda365985c9)" style="fill: none; stroke: #1f8a56; stroke-width: 1.1; stroke-linecap: round"/>
   </g>
   <g id="line2d_35">
    <path d="M 320.819172 145.226435 
L 320.819172 137.047615 
" clip-path="url(#pda365985c9)" style="fill: none; stroke: #1f8a56; stroke-width: 1.1; stroke-linecap: round"/>
   </g>
   <g id="line2d_36">
    <path d="M 333.886637 143.718101 
L 333.886637 138.571454 
" clip-path="url(#pda365985c9)" style="fill: none; stroke: #b91c1c; stroke-width: 1.1; stroke-linecap: round"/>
   </g>
   <g id="line2d_37">
    <path d="M 346.954102 143.313589 
L 346.954102 139.395763 
" clip-path="url(#pda365985c9)" style="fill: none; stroke: #b91c1c; stroke-width: 1.1; stroke-linecap: round"/>
   </g>
   <g id="line2d_38">
    <path d="M 360.021568 146.704447 
L 360.021568 139.561492 
" clip-path="url(#pda365985c9)" style="fill: none; stroke: #b91c1c; stroke-width: 1.1; stroke-linecap: round"/>
   </g>
   <g id="line2d_39">
    <path d="M 373.089033 145.42034 
L 373.089033 141.250927 
" clip-path="url(#pda365985c9)" style="fill: none; stroke: #1f8a56; stroke-width: 1.1; stroke-linecap: round"/>
   </g>
   <g id="line2d_40">
    <path d="M 386.156499 145.077002 
L 386.156499 140.940618 
" clip-path="url(#pda365985c9)" style="fill: none; stroke: #b91c1c; stroke-width: 1.1; stroke-linecap: round"/>
   </g>
   <g id="line2d_41">
    <path d="M 399.223964 145.670246 
L 399.223964 140.976778 
" clip-path="url(#pda365985c9)" style="fill: none; stroke: #b91c1c; stroke-width: 1.1; stroke-linecap: round"/>
   </g>
   <g id="line2d_42">
    <path d="M 412.29143 149.558699 
L 412.29143 139.251794 
" clip-path="url(#pda365985c9)" style="fill: none; stroke: #b91c1c; stroke-width: 1.1; stroke-linecap: round"/>
   </g>
   <g id="line2d_43">
    <path d="M 425.358895 152.899877 
L 425.358895 150.330341 
" clip-path="url(#pda365985c9)" style="fill: none; stroke: #b91c1c; stroke-width: 1.1; stroke-linecap: round"/>
   </g>
   <g id="line2d_44">
    <path d="M 438.426361 148.042577 
L 438.426361 125.225592 
" clip-path="url(#pda365985c9)" style="fill: none; stroke: #1f8a56; stroke-width: 1.1; stroke-linecap: round"/>
   </g>
   <g id="line2d_45">
    <path d="M 451.493826 126.232035 
L 451.493826 109.520649 
" clip-path="url(#pda365985c9)" style="fill: none; stroke: #1f8a56; stroke-width: 1.1; stroke-linecap: round"/>
   </g>
   <g id="line2d_46">
    <path d="M 464.561292 116.339829 
L 464.561292 92.771189 
" clip-path="url(#pda365985c9)" style="fill: none; stroke: #1f8a56; stroke-width: 1.1; stroke-linecap: round"/>
   </g>
   <g id="line2d_47">
    <path d="M 477.628757 95.022334 
L 477.628757 84.023998 
" clip-path="url(#pda365985c9)" style="fill: none; stroke: #1f8a56; stroke-width: 1.1; stroke-linecap: round"/>
   </g>
   <g id="line2d_48">
    <path d="M 490.696223 87.27278 
L 490.696223 82.007024 
" clip-path="url(#pda365985c9)" style="fill: none; stroke: #b91c1c; stroke-width: 1.1; stroke-linecap: round"/>
   </g>
   <g id="line2d_49">
    <path d="M 503.763688 90.193311 
L 503.763688 87.466841 
" clip-path="url(#pda365985c9)" style="fill: none; stroke: #b91c1c; stroke-width: 1.1; stroke-linecap: round"/>
   </g>
   <g id="line2d_50">
    <path d="M 516.831154 89.71079 
L 516.831154 83.118653 
" clip-path="url(#pda365985c9)" style="fill: none; stroke: #1f8a56; stroke-width: 1.1; stroke-linecap: round"/>
   </g>
   <g id="line2d_51">
    <path d="M 529.898619 85.583979 
L 529.898619 76.751022 
" clip-path="url(#pda365985c9)" style="fill: none; stroke: #1f8a56; stroke-width: 1.1; stroke-linecap: round"/>
   </g>
   <g id="line2d_52">
    <path d="M 542.966085 78.200017 
L 542.966085 76.854639 
" clip-path="url(#pda365985c9)" style="fill: none; stroke: #1f8a56; stroke-width: 1.1; stroke-linecap: round"/>
   </g>
   <g id="line2d_53">
    <path d="M 556.03355 76.199695 
L 556.03355 65.298586 
" clip-path="url(#pda365985c9)" style="fill: none; stroke: #1f8a56; stroke-width: 1.1; stroke-linecap: round"/>
   </g>
   <g id="text_8">
    <!-- ​ﻲﺴﻴﺋﺮﻟﺍ ﻩﺎﺠﺗﻻﺍ -->
    <g style="fill: #1f2937" transform="translate(562.567283 112.120069) scale(0.09 -0.09)">
     <defs>
      <path id="NotoNaskhArabic-Bold-3" d="M 774 58 
Q 742 717 710 1216 
Q 678 1715 646 2134 
Q 614 2554 576 2950 
Q 538 3347 493 3808 
Q 474 3968 566 4089 
Q 659 4211 822 4281 
Q 986 4352 1178 4352 
Q 1229 4154 1296 3955 
Q 1363 3757 1440 3565 
L 1216 3398 
Q 1229 2867 1222 2035 
Q 1216 1203 1184 109 
L 774 58 
z
" transform="scale(0.015625)"/>
      <path id="NotoNaskhArabic-Bold-2de" d="M 896 0 
Q 883 0 883 51 
Q 883 141 899 294 
Q 915 448 937 576 
Q 960 704 979 704 
L 1242 704 
Q 1542 947 1753 1164 
Q 1965 1382 2086 1581 
Q 1581 2086 832 2541 
L 595 2528 
Q 218 2714 218 3098 
Q 218 3437 570 3642 
Q 794 3494 1091 3235 
Q 1389 2976 1690 2675 
Q 1856 2515 2009 2355 
Q 2163 2195 2298 2042 
Q 2355 2246 2355 2477 
Q 2355 2637 2221 3411 
Q 2189 3610 2169 3728 
Q 2150 3846 2150 3891 
Q 2150 4154 2342 4307 
Q 2534 4461 2829 4461 
Q 2880 4256 2944 4057 
Q 3008 3859 3085 3674 
L 2874 3514 
L 2880 3398 
L 2899 2790 
Q 2899 2214 2598 1664 
Q 2624 1638 2713 1516 
Q 2803 1395 2908 1238 
Q 3014 1082 3094 947 
Q 3174 813 3174 762 
Q 3174 704 3142 601 
Q 3110 499 3065 387 
Q 3021 275 2979 195 
Q 2938 115 2918 109 
Q 2605 58 2102 29 
Q 1600 0 896 0 
z
M 1779 730 
Q 2067 742 2294 768 
Q 2522 794 2752 832 
Q 2650 947 2554 1062 
Q 2458 1178 2355 1299 
Q 2093 973 1779 730 
z
" transform="scale(0.015625)"/>
      <path id="NotoNaskhArabic-Bold-38" d="M 0 58 
Q -51 58 -51 109 
L -51 762 
Q -51 813 0 813 
Q 320 813 640 867 
Q 960 922 1139 998 
Q 1075 1146 976 1328 
Q 877 1510 819 1613 
Q 755 1734 710 1833 
Q 666 1933 666 2016 
Q 666 2176 838 2361 
Q 1011 2547 1248 2669 
Q 1293 2470 1347 2217 
Q 1402 1965 1446 1702 
Q 1485 1504 1501 1376 
Q 1517 1248 1517 1184 
Q 1517 1037 1443 822 
Q 1370 608 1267 410 
Q 685 58 0 58 
z
M 1332 3020 
Q 1197 3129 1088 3225 
Q 980 3321 890 3417 
Q 1127 3635 1319 3865 
Q 1376 3801 1478 3705 
Q 1581 3609 1722 3468 
Q 1549 3232 1332 3020 
z
M 474 2924 
Q 199 3148 32 3328 
Q 141 3436 250 3548 
Q 359 3660 468 3769 
Q 583 3635 864 3372 
Q 704 3142 474 2924 
z
" transform="scale(0.015625)"/>
      <path id="NotoNaskhArabic-Bold-73" d="M 0 58 
Q -51 58 -51 109 
L -51 762 
Q -51 813 0 813 
Q 467 813 793 829 
Q 1120 845 1427 934 
Q 1702 1018 1897 1069 
Q 2093 1120 2202 1146 
Q 2118 1197 2032 1251 
Q 1946 1306 1856 1363 
Q 1651 1498 1513 1555 
Q 1376 1613 1235 1613 
Q 1043 1613 870 1558 
Q 698 1504 480 1363 
Q 422 1421 377 1533 
Q 333 1645 333 1747 
Q 333 2029 582 2205 
Q 832 2381 1210 2381 
Q 1414 2381 1603 2310 
Q 1792 2240 2029 2080 
Q 2317 1882 2560 1763 
Q 2803 1645 3136 1555 
Q 3302 1517 3500 1494 
Q 3699 1472 3936 1472 
L 3654 934 
Q 3578 941 3501 941 
Q 3424 941 3347 947 
Q 3411 890 3488 867 
Q 3565 845 3661 832 
Q 3808 826 3965 822 
Q 4122 819 4262 813 
Q 4314 813 4314 762 
L 4314 109 
Q 4314 58 4262 58 
Q 4032 58 3782 80 
Q 3533 102 3325 150 
Q 3117 198 3021 262 
Q 2893 358 2838 537 
Q 2784 717 2746 877 
Q 2624 851 2525 803 
Q 2426 755 2304 675 
Q 2182 595 1990 467 
Q 1683 262 1395 176 
Q 1107 90 774 74 
Q 442 58 0 58 
z
M 2208 -1107 
Q 2035 -966 1913 -851 
Q 1792 -736 1708 -646 
Q 1836 -518 1958 -393 
Q 2080 -269 2195 -134 
Q 2361 -326 2656 -595 
Q 2585 -697 2470 -828 
Q 2355 -960 2208 -1107 
z
" transform="scale(0.015625)"/>
      <path id="NotoNaskhArabic-Bold-4" d="M 1901 58 
Q 1517 58 1283 186 
Q 1050 314 938 528 
Q 826 742 794 1018 
Q 781 1139 749 1424 
Q 717 1709 681 2073 
Q 646 2438 608 2809 
Q 570 3181 538 3481 
Q 506 3782 486 3930 
Q 845 4166 1248 4352 
Q 1274 3635 1296 2918 
Q 1318 2202 1338 1478 
L 1363 979 
Q 1478 883 1606 848 
Q 1734 813 1914 813 
Q 1952 813 1952 762 
L 1952 109 
Q 1952 58 1901 58 
z
" transform="scale(0.015625)"/>
      <path id="NotoNaskhArabic-Bold-1fd" d="M 1274 0 
Q 909 0 672 246 
Q 435 493 435 864 
Q 435 1126 572 1401 
Q 710 1677 1018 1984 
Q 915 2048 880 2141 
Q 845 2234 845 2330 
Q 845 2464 899 2585 
Q 954 2707 1043 2752 
Q 1408 2637 1721 2381 
Q 2035 2125 2214 1798 
Q 2394 1466 2394 1184 
Q 2394 1094 2349 944 
Q 2304 794 2233 634 
Q 2163 474 2086 349 
Q 2010 224 1939 179 
Q 1818 96 1642 48 
Q 1466 0 1274 0 
z
M 1344 672 
Q 1690 672 1978 851 
Q 1882 1133 1715 1360 
Q 1549 1587 1286 1786 
Q 915 1421 915 1075 
Q 915 896 1040 784 
Q 1165 672 1344 672 
z
" transform="scale(0.015625)"/>
      <path id="NotoNaskhArabic-Bold-554" transform="scale(0.015625)"/>
      <path id="NotoNaskhArabic-Bold-1c1" d="M 0 58 
Q -51 58 -51 109 
L -51 762 
Q -51 813 0 813 
Q 282 813 672 960 
Q 646 1146 624 1334 
Q 602 1523 570 1709 
Q 544 1894 441 2448 
Q 339 3002 173 3930 
Q 339 4045 534 4147 
Q 730 4250 934 4352 
Q 947 3827 960 3356 
Q 973 2886 986 2477 
Q 998 2067 1004 1718 
Q 1011 1370 1011 1069 
Q 1011 634 762 256 
Q 698 166 490 112 
Q 282 58 0 58 
z
" transform="scale(0.015625)"/>
      <path id="NotoNaskhArabic-Bold-d4" d="M 653 -1248 
Q 544 -1248 304 -1107 
Q 64 -966 -218 -730 
L -115 -461 
Q 243 -550 531 -550 
Q 1005 -550 1331 -313 
Q 1658 -77 1805 371 
Q 1760 467 1705 566 
Q 1651 666 1587 762 
Q 1299 1203 1203 1414 
Q 1107 1626 1107 1779 
Q 1107 1965 1254 2147 
Q 1402 2330 1638 2451 
Q 1670 2330 1705 2208 
Q 1741 2086 1786 1958 
Q 1926 1555 2006 1299 
Q 2086 1043 2106 934 
Q 2323 813 2586 813 
Q 2637 813 2637 762 
L 2637 109 
Q 2637 58 2586 58 
Q 2349 58 2112 179 
Q 2042 -243 1837 -566 
Q 1632 -890 1328 -1069 
Q 1024 -1248 653 -1248 
z
" transform="scale(0.015625)"/>
      <path id="NotoNaskhArabic-Bold-245" d="M 0 58 
Q -51 58 -51 109 
L -51 762 
Q -51 813 0 813 
Q 320 813 640 867 
Q 960 922 1139 998 
Q 1075 1146 976 1328 
Q 877 1510 819 1613 
Q 755 1734 710 1833 
Q 666 1933 666 2016 
Q 666 2176 838 2361 
Q 1011 2547 1248 2669 
Q 1293 2470 1347 2217 
Q 1402 1965 1446 1702 
Q 1485 1504 1501 1376 
Q 1517 1248 1517 1184 
Q 1517 1037 1443 822 
Q 1370 608 1267 410 
Q 685 58 0 58 
z
M 401 2912 
L 378 3235 
L 654 3396 
Q 409 3488 409 3696 
Q 409 3834 493 3972 
Q 577 4110 704 4206 
Q 831 4302 947 4302 
Q 1230 4302 1230 3956 
Q 1230 3841 1200 3780 
L 1046 3802 
L 1046 3826 
Q 1046 3895 954 3895 
Q 785 3895 685 3703 
Q 823 3565 1069 3565 
Q 1130 3565 1207 3572 
Q 1284 3580 1369 3596 
L 1338 3258 
Q 1062 3196 873 3131 
Q 685 3066 401 2912 
z
" transform="scale(0.015625)"/>
      <path id="NotoNaskhArabic-Bold-240" d="M 0 58 
Q -51 58 -51 109 
L -51 762 
Q -51 813 0 813 
Q 307 813 566 829 
Q 826 845 992 928 
Q 1120 992 1187 1104 
Q 1254 1216 1357 1421 
Q 1459 1632 1536 1680 
Q 1613 1728 1715 1728 
Q 1869 1728 1971 1638 
Q 1888 1427 1814 1264 
Q 1741 1101 1690 979 
Q 2003 813 2362 813 
Q 2413 813 2413 762 
L 2413 109 
Q 2413 58 2362 58 
Q 1875 58 1434 499 
L 1382 416 
Q 1203 179 883 118 
Q 563 58 0 58 
z
M 1651 -1235 
Q 1376 -1011 1209 -832 
Q 1414 -653 1638 -384 
Q 1657 -403 1756 -502 
Q 1856 -602 2035 -787 
Q 1971 -883 1875 -995 
Q 1779 -1107 1651 -1235 
z
M 793 -1331 
Q 633 -1203 527 -1100 
Q 422 -998 352 -922 
Q 460 -813 569 -701 
Q 678 -589 787 -480 
Q 864 -576 1184 -877 
Q 1030 -1107 793 -1331 
z
" transform="scale(0.015625)"/>
      <path id="NotoNaskhArabic-Bold-f9" d="M 1472 0 
Q 1165 0 736 205 
Q 608 141 406 99 
Q 205 58 0 58 
Q -51 58 -51 109 
L -51 762 
Q -51 813 0 813 
Q 294 813 441 851 
Q 589 890 678 979 
Q 749 1050 813 1149 
Q 877 1248 998 1466 
Q 1037 1536 1110 1581 
Q 1184 1626 1267 1626 
Q 1357 1626 1466 1555 
Q 1382 1363 1308 1171 
Q 1235 979 1158 781 
Q 1331 762 1504 762 
Q 1632 762 1709 771 
Q 1786 781 1965 832 
Q 2016 909 2096 1107 
Q 2176 1306 2317 1696 
Q 2349 1779 2432 1833 
Q 2515 1888 2630 1888 
Q 2765 1888 2854 1818 
Q 2816 1722 2736 1472 
Q 2656 1222 2509 742 
Q 2554 742 2595 742 
Q 2637 742 2682 736 
Q 2912 736 3142 806 
Q 3162 838 3194 915 
Q 3226 992 3283 1146 
Q 3322 1254 3379 1401 
Q 3437 1549 3507 1747 
Q 3546 1837 3632 1891 
Q 3718 1946 3827 1946 
Q 3942 1946 4045 1875 
Q 4006 1773 3942 1581 
Q 3878 1389 3750 986 
Q 4038 813 4518 813 
Q 4570 813 4570 762 
L 4570 109 
Q 4570 58 4518 58 
Q 4262 58 3993 170 
Q 3725 282 3578 442 
Q 3526 301 3468 201 
Q 3411 102 3226 51 
Q 3034 0 2758 0 
Q 2566 0 2240 141 
Q 2150 77 1923 38 
Q 1696 0 1472 0 
z
" transform="scale(0.015625)"/>
      <path id="NotoNaskhArabic-Bold-23f" d="M 1830 -1613 
Q 1152 -1613 793 -1277 
Q 435 -941 435 -301 
Q 435 32 595 627 
L 877 557 
Q 787 256 787 45 
Q 787 -397 1059 -627 
Q 1331 -858 1901 -858 
Q 2240 -858 2598 -816 
Q 2957 -774 3283 -710 
Q 3450 -672 3610 -627 
Q 3770 -582 3898 -531 
Q 3757 -474 3561 -374 
Q 3366 -275 3187 -163 
Q 3008 -51 2893 32 
Q 2726 160 2726 218 
Q 2726 282 2771 397 
Q 2816 512 2877 633 
Q 2938 755 2992 838 
Q 3046 922 3066 922 
Q 3354 870 3699 841 
Q 4045 813 4454 813 
Q 4525 813 4525 749 
L 4525 122 
Q 4525 58 4454 58 
Q 4320 58 4137 70 
Q 3955 83 3779 108 
Q 3603 134 3475 166 
Q 3738 45 3875 -25 
Q 4013 -96 4070 -131 
Q 4128 -166 4147 -198 
Q 4192 -243 4208 -336 
Q 4224 -429 4224 -518 
Q 4224 -678 4057 -848 
Q 3891 -1018 3600 -1171 
Q 3309 -1325 2925 -1440 
Q 2349 -1613 1830 -1613 
z
M 2355 -2630 
Q 2080 -2406 1913 -2227 
Q 2118 -2048 2342 -1779 
Q 2361 -1798 2460 -1897 
Q 2560 -1997 2739 -2182 
Q 2675 -2278 2579 -2390 
Q 2483 -2502 2355 -2630 
z
M 1497 -2726 
Q 1337 -2598 1231 -2495 
Q 1126 -2393 1056 -2317 
Q 1164 -2208 1273 -2096 
Q 1382 -1984 1491 -1875 
Q 1568 -1971 1888 -2272 
Q 1734 -2502 1497 -2726 
z
" transform="scale(0.015625)"/>
     </defs>
     <use xlink:href="#NotoNaskhArabic-Bold-3"/>
     <use xlink:href="#NotoNaskhArabic-Bold-2de" transform="translate(28.40625 0)"/>
     <use xlink:href="#NotoNaskhArabic-Bold-38" transform="translate(83 0)"/>
     <use xlink:href="#NotoNaskhArabic-Bold-73" transform="translate(110.5 0)"/>
     <use xlink:href="#NotoNaskhArabic-Bold-4" transform="translate(176.203125 0)"/>
     <use xlink:href="#NotoNaskhArabic-Bold-1fd" transform="translate(205 0)"/>
     <use xlink:href="#NotoNaskhArabic-Bold-554" transform="translate(247.5 0)"/>
     <use xlink:href="#NotoNaskhArabic-Bold-3" transform="translate(269.59375 0)"/>
     <use xlink:href="#NotoNaskhArabic-Bold-1c1" transform="translate(298 0)"/>
     <use xlink:href="#NotoNaskhArabic-Bold-d4" transform="translate(319.703125 0)"/>
     <use xlink:href="#NotoNaskhArabic-Bold-245" transform="translate(359.203125 0)"/>
     <use xlink:href="#NotoNaskhArabic-Bold-240" transform="translate(388 0)"/>
     <use xlink:href="#NotoNaskhArabic-Bold-f9" transform="translate(424 0)"/>
     <use xlink:href="#NotoNaskhArabic-Bold-23f" transform="translate(493.703125 0)"/>
     <use xlink:href="#NotoNaskhArabic-Bold-554" transform="translate(562.703125 0)"/>
    </g>
   </g>
   <g id="text_9">
    <!-- ​ﺢﻴﺤﺼﺗ -->
    <g style="fill: #b91c1c" transform="translate(177.980884 44.732773) scale(0.085 -0.085)">
     <defs>
      <path id="NotoNaskhArabic-Bold-111" d="M 2592 0 
Q 2163 0 1699 80 
Q 1235 160 851 339 
Q 813 282 742 243 
Q 608 154 406 106 
Q 205 58 0 58 
Q -51 58 -51 109 
L -51 762 
Q -51 813 0 813 
Q 256 813 397 848 
Q 538 883 634 985 
Q 730 1088 838 1286 
Q 864 1331 886 1376 
Q 909 1421 934 1466 
Q 1030 1638 1222 1638 
Q 1318 1638 1427 1574 
Q 1363 1414 1302 1260 
Q 1242 1107 1178 954 
Q 1248 928 1312 909 
Q 1376 890 1440 864 
Q 2099 1741 2605 2150 
Q 3091 2560 3469 2560 
Q 3629 2560 3824 2464 
Q 4019 2368 4211 2214 
Q 4403 2061 4544 1882 
Q 4762 1619 4762 1446 
Q 4762 1229 4691 1050 
Q 4922 915 5082 864 
Q 5242 813 5466 813 
Q 5523 813 5523 762 
L 5523 109 
Q 5523 58 5466 58 
Q 5171 58 4880 186 
Q 4589 314 4358 563 
Q 4205 416 3904 278 
Q 3603 141 3258 70 
Q 3085 38 2921 19 
Q 2758 0 2592 0 
z
M 2656 704 
Q 3117 704 3520 813 
Q 3923 922 4390 1146 
Q 3814 1805 3309 1805 
Q 3027 1805 2652 1536 
Q 2278 1267 1862 774 
Q 2067 742 2265 723 
Q 2464 704 2656 704 
z
" transform="scale(0.015625)"/>
      <path id="NotoNaskhArabic-Bold-8b" d="M 0 58 
Q -51 58 -51 109 
L -51 762 
Q -51 813 0 813 
Q 467 813 793 829 
Q 1120 845 1427 934 
Q 1702 1018 1897 1069 
Q 2093 1120 2202 1146 
Q 2118 1197 2032 1251 
Q 1946 1306 1856 1363 
Q 1651 1498 1513 1555 
Q 1376 1613 1235 1613 
Q 1043 1613 870 1558 
Q 698 1504 480 1363 
Q 422 1421 377 1533 
Q 333 1645 333 1747 
Q 333 2029 582 2205 
Q 832 2381 1210 2381 
Q 1414 2381 1603 2310 
Q 1792 2240 2029 2080 
Q 2317 1882 2560 1763 
Q 2803 1645 3136 1555 
Q 3302 1517 3500 1494 
Q 3699 1472 3936 1472 
L 3654 934 
Q 3578 941 3501 941 
Q 3424 941 3347 947 
Q 3411 890 3488 867 
Q 3565 845 3661 832 
Q 3808 826 3965 822 
Q 4122 819 4262 813 
Q 4314 813 4314 762 
L 4314 109 
Q 4314 58 4262 58 
Q 4032 58 3782 80 
Q 3533 102 3325 150 
Q 3117 198 3021 262 
Q 2893 358 2838 537 
Q 2784 717 2746 877 
Q 2624 851 2525 803 
Q 2426 755 2304 675 
Q 2182 595 1990 467 
Q 1683 262 1395 176 
Q 1107 90 774 74 
Q 442 58 0 58 
z
" transform="scale(0.015625)"/>
      <path id="NotoNaskhArabic-Bold-8a" d="M 2368 -1862 
Q 1523 -1862 1097 -1465 
Q 672 -1069 672 -314 
Q 672 77 848 409 
Q 1024 742 1338 1005 
Q 1498 1133 1670 1238 
Q 1843 1344 2035 1421 
Q 1946 1453 1856 1485 
Q 1766 1517 1677 1549 
Q 1491 1613 1312 1613 
Q 1139 1613 992 1571 
Q 845 1530 582 1363 
Q 525 1421 480 1533 
Q 435 1645 435 1747 
Q 435 2035 662 2208 
Q 890 2381 1286 2381 
Q 1498 2381 1728 2326 
Q 1958 2272 2310 2144 
Q 2656 2016 2918 1961 
Q 3181 1907 3424 1907 
L 4006 1914 
L 3744 1197 
Q 3667 1190 3571 1184 
Q 3475 1178 3424 1178 
L 3232 1178 
Q 3341 998 3446 931 
Q 3552 864 3789 838 
Q 3891 826 4115 819 
Q 4339 813 4685 813 
Q 4742 813 4742 762 
L 4742 109 
Q 4742 58 4685 58 
Q 4070 58 3750 150 
Q 3430 243 3238 467 
Q 3046 698 2886 1197 
Q 2381 1101 1933 883 
Q 1485 666 1242 371 
Q 998 70 998 -250 
Q 998 -685 1360 -905 
Q 1722 -1126 2400 -1126 
Q 2861 -1126 3629 -954 
L 3718 -1229 
Q 3309 -1466 3053 -1603 
Q 2797 -1741 2640 -1801 
Q 2483 -1862 2368 -1862 
z
" transform="scale(0.015625)"/>
     </defs>
     <use xlink:href="#NotoNaskhArabic-Bold-38"/>
     <use xlink:href="#NotoNaskhArabic-Bold-111" transform="translate(27.5 0)"/>
     <use xlink:href="#NotoNaskhArabic-Bold-8b" transform="translate(112.09375 0)"/>
     <use xlink:href="#NotoNaskhArabic-Bold-240" transform="translate(177.796875 0)"/>
     <use xlink:href="#NotoNaskhArabic-Bold-8a" transform="translate(213.796875 0)"/>
     <use xlink:href="#NotoNaskhArabic-Bold-554" transform="translate(286.203125 0)"/>
    </g>
    <!-- ﻱﻮﻧﺎﺛ -->
    <g style="fill: #b91c1c" transform="translate(181.806548 59.208273) scale(0.085 -0.085)">
     <defs>
      <path id="NotoNaskhArabic-Bold-44" d="M 0 58 
Q -51 58 -51 109 
L -51 762 
Q -51 813 0 813 
Q 320 813 640 867 
Q 960 922 1139 998 
Q 1075 1146 976 1328 
Q 877 1510 819 1613 
Q 755 1734 710 1833 
Q 666 1933 666 2016 
Q 666 2176 838 2361 
Q 1011 2547 1248 2669 
Q 1293 2470 1347 2217 
Q 1402 1965 1446 1702 
Q 1485 1504 1501 1376 
Q 1517 1248 1517 1184 
Q 1517 1037 1443 822 
Q 1370 608 1267 410 
Q 685 58 0 58 
z
M 909 3546 
Q 774 3655 678 3747 
Q 582 3840 518 3911 
Q 653 4032 745 4118 
Q 838 4205 889 4269 
Q 960 4186 1052 4096 
Q 1145 4007 1261 3911 
Q 1126 3763 1036 3670 
Q 947 3578 909 3546 
z
M 1369 2995 
Q 1235 3104 1126 3203 
Q 1017 3303 928 3399 
Q 1024 3488 1132 3597 
Q 1241 3706 1357 3840 
Q 1395 3795 1497 3699 
Q 1600 3603 1760 3450 
Q 1677 3328 1577 3216 
Q 1478 3104 1369 2995 
z
M 480 2906 
Q 192 3123 45 3309 
Q 153 3418 262 3530 
Q 371 3642 480 3751 
Q 531 3687 630 3584 
Q 729 3482 870 3354 
Q 774 3226 678 3110 
Q 582 2995 480 2906 
z
" transform="scale(0.015625)"/>
      <path id="NotoNaskhArabic-Bold-1ea" d="M 0 58 
Q -51 58 -51 109 
L -51 762 
Q -51 813 0 813 
Q 320 813 640 867 
Q 960 922 1139 998 
Q 1075 1146 976 1328 
Q 877 1510 819 1613 
Q 755 1734 710 1833 
Q 666 1933 666 2016 
Q 666 2176 838 2361 
Q 1011 2547 1248 2669 
Q 1293 2470 1347 2217 
Q 1402 1965 1446 1702 
Q 1485 1504 1501 1376 
Q 1517 1248 1517 1184 
Q 1517 1037 1443 822 
Q 1370 608 1267 410 
Q 685 58 0 58 
z
M 902 3052 
Q 576 3321 410 3513 
Q 557 3660 675 3785 
Q 794 3910 890 4025 
Q 960 3948 1075 3833 
Q 1190 3718 1350 3564 
Q 1274 3456 1162 3328 
Q 1050 3200 902 3052 
z
" transform="scale(0.015625)"/>
      <path id="NotoNaskhArabic-Bold-219" d="M 1248 -1248 
Q 1171 -1248 1011 -1174 
Q 851 -1101 668 -982 
Q 486 -864 326 -730 
L 429 -461 
Q 602 -506 778 -528 
Q 954 -550 1133 -550 
Q 1536 -550 1862 -380 
Q 2189 -211 2368 64 
Q 2093 83 1894 102 
Q 1696 122 1574 147 
Q 838 307 838 1018 
Q 838 1370 972 1712 
Q 1107 2054 1325 2266 
Q 1549 2477 1766 2477 
Q 2029 2477 2262 2240 
Q 2496 2003 2650 1626 
Q 2720 1446 2768 1241 
Q 2816 1037 2835 813 
L 3181 813 
Q 3232 813 3232 762 
L 3232 109 
Q 3232 58 3181 58 
L 2784 58 
Q 2669 -365 2419 -669 
Q 2170 -973 1843 -1120 
Q 1555 -1248 1248 -1248 
z
M 2419 819 
Q 2285 1254 2077 1484 
Q 1869 1715 1626 1715 
Q 1504 1715 1401 1651 
Q 1299 1587 1235 1498 
Q 1178 1402 1178 1293 
Q 1178 941 1805 858 
Q 1952 838 2419 819 
z
" transform="scale(0.015625)"/>
      <path id="NotoNaskhArabic-Bold-23e" d="M 1606 -1613 
Q 1037 -1613 736 -1277 
Q 435 -941 435 -301 
Q 435 32 595 627 
L 877 557 
Q 787 256 787 45 
Q 787 -858 1683 -858 
Q 1965 -858 2291 -771 
Q 2618 -685 2931 -531 
Q 3078 -454 3222 -368 
Q 3366 -282 3494 -179 
Q 3418 -179 3344 -179 
Q 3270 -179 3200 -173 
Q 2362 -128 2093 230 
Q 1939 442 1939 762 
Q 1939 1005 2038 1267 
Q 2138 1530 2307 1776 
Q 2477 2022 2688 2202 
Q 3008 2464 3290 2464 
Q 3725 2464 3853 1638 
L 3571 1581 
Q 3475 1702 3366 1702 
Q 3194 1702 2976 1577 
Q 2758 1453 2560 1229 
Q 2374 1024 2266 755 
Q 2394 704 2582 665 
Q 2771 627 3021 595 
Q 3245 570 3376 525 
Q 3507 480 3603 403 
Q 3699 333 3760 179 
Q 3821 26 3821 -122 
Q 3821 -314 3667 -547 
Q 3514 -781 3242 -998 
Q 2970 -1216 2624 -1376 
Q 2125 -1613 1606 -1613 
z
M 2227 -2630 
Q 1952 -2406 1785 -2227 
Q 1990 -2048 2214 -1779 
Q 2233 -1798 2332 -1897 
Q 2432 -1997 2611 -2182 
Q 2547 -2278 2451 -2390 
Q 2355 -2502 2227 -2630 
z
M 1369 -2726 
Q 1209 -2598 1103 -2495 
Q 998 -2393 928 -2317 
Q 1036 -2208 1145 -2096 
Q 1254 -1984 1363 -1875 
Q 1440 -1971 1760 -2272 
Q 1606 -2502 1369 -2726 
z
" transform="scale(0.015625)"/>
     </defs>
     <use xlink:href="#NotoNaskhArabic-Bold-44"/>
     <use xlink:href="#NotoNaskhArabic-Bold-4" transform="translate(27.5 0)"/>
     <use xlink:href="#NotoNaskhArabic-Bold-1ea" transform="translate(56.296875 0)"/>
     <use xlink:href="#NotoNaskhArabic-Bold-219" transform="translate(83.796875 0)"/>
     <use xlink:href="#NotoNaskhArabic-Bold-23e" transform="translate(132.59375 0)"/>
    </g>
   </g>
   <g id="patch_6">
    <path d="M 16.347226 268.125737 
L 24.187705 268.125737 
L 24.187705 262.035924 
L 16.347226 262.035924 
z
" clip-path="url(#pda365985c9)" style="fill: #1f8a56; stroke: #1f8a56; stroke-linejoin: miter"/>
   </g>
   <g id="patch_7">
    <path d="M 29.414691 264.390691 
L 37.255171 264.390691 
L 37.255171 238.839287 
L 29.414691 238.839287 
z
" clip-path="url(#pda365985c9)" style="fill: #1f8a56; stroke: #1f8a56; stroke-linejoin: miter"/>
   </g>
   <g id="patch_8">
    <path d="M 42.482157 238.746148 
L 50.322636 238.746148 
L 50.322636 231.253427 
L 42.482157 231.253427 
z
" clip-path="url(#pda365985c9)" style="fill: #1f8a56; stroke: #1f8a56; stroke-linejoin: miter"/>
   </g>
   <g id="patch_9">
    <path d="M 55.549622 230.868166 
L 63.390102 230.868166 
L 63.390102 221.010731 
L 55.549622 221.010731 
z
" clip-path="url(#pda365985c9)" style="fill: #1f8a56; stroke: #1f8a56; stroke-linejoin: miter"/>
   </g>
   <g id="patch_10">
    <path d="M 68.617088 221.723313 
L 76.457567 221.723313 
L 76.457567 215.6335 
L 68.617088 215.6335 
z
" clip-path="url(#pda365985c9)" style="fill: #1f8a56; stroke: #1f8a56; stroke-linejoin: miter"/>
   </g>
   <g id="patch_11">
    <path d="M 81.684553 214.931733 
L 89.525033 214.931733 
L 89.525033 208.841919 
L 81.684553 208.841919 
z
" clip-path="url(#pda365985c9)" style="fill: #b91c1c; stroke: #b91c1c; stroke-linejoin: miter"/>
   </g>
   <g id="patch_12">
    <path d="M 94.752019 216.550979 
L 102.592498 216.550979 
L 102.592498 208.64259 
L 94.752019 208.64259 
z
" clip-path="url(#pda365985c9)" style="fill: #1f8a56; stroke: #1f8a56; stroke-linejoin: miter"/>
   </g>
   <g id="patch_13">
    <path d="M 107.819484 207.548755 
L 115.659963 207.548755 
L 115.659963 201.458942 
L 107.819484 201.458942 
z
" clip-path="url(#pda365985c9)" style="fill: #1f8a56; stroke: #1f8a56; stroke-linejoin: miter"/>
   </g>
   <g id="patch_14">
    <path d="M 120.88695 202.898738 
L 128.727429 202.898738 
L 128.727429 196.808924 
L 120.88695 196.808924 
z
" clip-path="url(#pda365985c9)" style="fill: #1f8a56; stroke: #1f8a56; stroke-linejoin: miter"/>
   </g>
   <g id="patch_15">
    <path d="M 133.954415 201.449046 
L 141.794894 201.449046 
L 141.794894 195.359233 
L 133.954415 195.359233 
z
" clip-path="url(#pda365985c9)" style="fill: #1f8a56; stroke: #1f8a56; stroke-linejoin: miter"/>
   </g>
   <g id="patch_16">
    <path d="M 147.021881 198.521072 
L 154.86236 198.521072 
L 154.86236 192.431258 
L 147.021881 192.431258 
z
" clip-path="url(#pda365985c9)" style="fill: #1f8a56; stroke: #1f8a56; stroke-linejoin: miter"/>
   </g>
   <g id="patch_17">
    <path d="M 160.089346 198.644645 
L 167.929825 198.644645 
L 167.929825 192.554831 
L 160.089346 192.554831 
z
" clip-path="url(#pda365985c9)" style="fill: #b91c1c; stroke: #b91c1c; stroke-linejoin: miter"/>
   </g>
   <g id="patch_18">
    <path d="M 173.156812 207.883971 
L 180.997291 207.883971 
L 180.997291 199.616768 
L 173.156812 199.616768 
z
" clip-path="url(#pda365985c9)" style="fill: #b91c1c; stroke: #b91c1c; stroke-linejoin: miter"/>
   </g>
   <g id="patch_19">
    <path d="M 186.224277 213.598209 
L 194.064756 213.598209 
L 194.064756 207.508395 
L 186.224277 207.508395 
z
" clip-path="url(#pda365985c9)" style="fill: #b91c1c; stroke: #b91c1c; stroke-linejoin: miter"/>
   </g>
   <g id="patch_20">
    <path d="M 199.291743 229.928366 
L 207.132222 229.928366 
L 207.132222 214.421913 
L 199.291743 214.421913 
z
" clip-path="url(#pda365985c9)" style="fill: #b91c1c; stroke: #b91c1c; stroke-linejoin: miter"/>
   </g>
   <g id="patch_21">
    <path d="M 212.359208 232.454827 
L 220.199687 232.454827 
L 220.199687 226.365013 
L 212.359208 226.365013 
z
" clip-path="url(#pda365985c9)" style="fill: #b91c1c; stroke: #b91c1c; stroke-linejoin: miter"/>
   </g>
   <g id="patch_22">
    <path d="M 225.426674 232.829065 
L 233.267153 232.829065 
L 233.267153 216.534853 
L 225.426674 216.534853 
z
" clip-path="url(#pda365985c9)" style="fill: #1f8a56; stroke: #1f8a56; stroke-linejoin: miter"/>
   </g>
   <g id="patch_23">
    <path d="M 238.494139 216.818685 
L 246.334618 216.818685 
L 246.334618 201.321403 
L 238.494139 201.321403 
z
" clip-path="url(#pda365985c9)" style="fill: #1f8a56; stroke: #1f8a56; stroke-linejoin: miter"/>
   </g>
   <g id="patch_24">
    <path d="M 251.561604 201.044738 
L 259.402084 201.044738 
L 259.402084 185.289623 
L 251.561604 185.289623 
z
" clip-path="url(#pda365985c9)" style="fill: #1f8a56; stroke: #1f8a56; stroke-linejoin: miter"/>
   </g>
   <g id="patch_25">
    <path d="M 264.62907 184.660397 
L 272.469549 184.660397 
L 272.469549 169.49704 
L 264.62907 169.49704 
z
" clip-path="url(#pda365985c9)" style="fill: #1f8a56; stroke: #1f8a56; stroke-linejoin: miter"/>
   </g>
   <g id="patch_26">
    <path d="M 277.696535 169.580359 
L 285.537015 169.580359 
L 285.537015 163.490545 
L 277.696535 163.490545 
z
" clip-path="url(#pda365985c9)" style="fill: #1f8a56; stroke: #1f8a56; stroke-linejoin: miter"/>
   </g>
   <g id="patch_27">
    <path d="M 290.764001 162.085748 
L 298.60448 162.085748 
L 298.60448 150.980498 
L 290.764001 150.980498 
z
" clip-path="url(#pda365985c9)" style="fill: #1f8a56; stroke: #1f8a56; stroke-linejoin: miter"/>
   </g>
   <g id="patch_28">
    <path d="M 303.831466 148.663339 
L 311.671946 148.663339 
L 311.671946 142.573526 
L 303.831466 142.573526 
z
" clip-path="url(#pda365985c9)" style="fill: #1f8a56; stroke: #1f8a56; stroke-linejoin: miter"/>
   </g>
   <g id="patch_29">
    <path d="M 316.898932 144.991346 
L 324.739411 144.991346 
L 324.739411 137.648142 
L 316.898932 137.648142 
z
" clip-path="url(#pda365985c9)" style="fill: #1f8a56; stroke: #1f8a56; stroke-linejoin: miter"/>
   </g>
   <g id="patch_30">
    <path d="M 329.966397 142.726887 
L 337.806877 142.726887 
L 337.806877 136.637074 
L 329.966397 136.637074 
z
" clip-path="url(#pda365985c9)" style="fill: #b91c1c; stroke: #b91c1c; stroke-linejoin: miter"/>
   </g>
   <g id="patch_31">
    <path d="M 343.033863 143.305219 
L 350.874342 143.305219 
L 350.874342 137.215406 
L 343.033863 137.215406 
z
" clip-path="url(#pda365985c9)" style="fill: #b91c1c; stroke: #b91c1c; stroke-linejoin: miter"/>
   </g>
   <g id="patch_32">
    <path d="M 356.101328 143.898998 
L 363.941808 143.898998 
L 363.941808 137.809185 
L 356.101328 137.809185 
z
" clip-path="url(#pda365985c9)" style="fill: #b91c1c; stroke: #b91c1c; stroke-linejoin: miter"/>
   </g>
   <g id="patch_33">
    <path d="M 369.168794 144.568463 
L 377.009273 144.568463 
L 377.009273 138.47865 
L 369.168794 138.47865 
z
" clip-path="url(#pda365985c9)" style="fill: #1f8a56; stroke: #1f8a56; stroke-linejoin: miter"/>
   </g>
   <g id="patch_34">
    <path d="M 382.236259 144.375172 
L 390.076739 144.375172 
L 390.076739 138.285359 
L 382.236259 138.285359 
z
" clip-path="url(#pda365985c9)" style="fill: #b91c1c; stroke: #b91c1c; stroke-linejoin: miter"/>
   </g>
   <g id="patch_35">
    <path d="M 395.303725 144.483528 
L 403.144204 144.483528 
L 403.144204 138.393715 
L 395.303725 138.393715 
z
" clip-path="url(#pda365985c9)" style="fill: #b91c1c; stroke: #b91c1c; stroke-linejoin: miter"/>
   </g>
   <g id="patch_36">
    <path d="M 408.37119 148.246704 
L 416.21167 148.246704 
L 416.21167 140.309776 
L 408.37119 140.309776 
z
" clip-path="url(#pda365985c9)" style="fill: #b91c1c; stroke: #b91c1c; stroke-linejoin: miter"/>
   </g>
   <g id="patch_37">
    <path d="M 421.438656 151.115033 
L 429.279135 151.115033 
L 429.279135 145.02522 
L 421.438656 145.02522 
z
" clip-path="url(#pda365985c9)" style="fill: #b91c1c; stroke: #b91c1c; stroke-linejoin: miter"/>
   </g>
   <g id="patch_38">
    <path d="M 434.506121 146.495129 
L 442.3466 146.495129 
L 442.3466 126.153624 
L 434.506121 126.153624 
z
" clip-path="url(#pda365985c9)" style="fill: #1f8a56; stroke: #1f8a56; stroke-linejoin: miter"/>
   </g>
   <g id="patch_39">
    <path d="M 447.573587 124.449121 
L 455.414066 124.449121 
L 455.414066 111.53076 
L 447.573587 111.53076 
z
" clip-path="url(#pda365985c9)" style="fill: #1f8a56; stroke: #1f8a56; stroke-linejoin: miter"/>
   </g>
   <g id="patch_40">
    <path d="M 460.641052 114.656191 
L 468.481531 114.656191 
L 468.481531 93.502141 
L 460.641052 93.502141 
z
" clip-path="url(#pda365985c9)" style="fill: #1f8a56; stroke: #1f8a56; stroke-linejoin: miter"/>
   </g>
   <g id="patch_41">
    <path d="M 473.708518 93.811694 
L 481.548997 93.811694 
L 481.548997 84.65057 
L 473.708518 84.65057 
z
" clip-path="url(#pda365985c9)" style="fill: #1f8a56; stroke: #1f8a56; stroke-linejoin: miter"/>
   </g>
   <g id="patch_42">
    <path d="M 486.775983 86.727153 
L 494.616462 86.727153 
L 494.616462 80.63734 
L 486.775983 80.63734 
z
" clip-path="url(#pda365985c9)" style="fill: #b91c1c; stroke: #b91c1c; stroke-linejoin: miter"/>
   </g>
   <g id="patch_43">
    <path d="M 499.843449 89.339775 
L 507.683928 89.339775 
L 507.683928 83.249961 
L 499.843449 83.249961 
z
" clip-path="url(#pda365985c9)" style="fill: #b91c1c; stroke: #b91c1c; stroke-linejoin: miter"/>
   </g>
   <g id="patch_44">
    <path d="M 512.910914 88.908918 
L 520.751393 88.908918 
L 520.751393 82.819104 
L 512.910914 82.819104 
z
" clip-path="url(#pda365985c9)" style="fill: #1f8a56; stroke: #1f8a56; stroke-linejoin: miter"/>
   </g>
   <g id="patch_45">
    <path d="M 525.97838 84.66943 
L 533.818859 84.66943 
L 533.818859 77.069462 
L 525.97838 77.069462 
z
" clip-path="url(#pda365985c9)" style="fill: #1f8a56; stroke: #1f8a56; stroke-linejoin: miter"/>
   </g>
   <g id="patch_46">
    <path d="M 539.045845 77.823106 
L 546.886324 77.823106 
L 546.886324 71.733292 
L 539.045845 71.733292 
z
" clip-path="url(#pda365985c9)" style="fill: #1f8a56; stroke: #1f8a56; stroke-linejoin: miter"/>
   </g>
   <g id="patch_47">
    <path d="M 552.113311 74.23071 
L 559.95379 74.23071 
L 559.95379 65.503009 
L 552.113311 65.503009 
z
" clip-path="url(#pda365985c9)" style="fill: #1f8a56; stroke: #1f8a56; stroke-linejoin: miter"/>
   </g>
  </g>
 </g>
 <defs>
  <clipPath id="pda365985c9">
   <rect x="7.2" y="7.2" width="561.901016" height="300.92"/>
  </clipPath>
 </defs>
</svg>
