<?xml version="1.0" encoding="utf-8" standalone="no"?>
<!DOCTYPE svg PUBLIC "-//W3C//DTD SVG 1.1//EN"
  "http://www.w3.org/Graphics/SVG/1.1/DTD/svg11.dtd">
<svg xmlns:xlink="http://www.w3.org/1999/xlink" width="729.15pt" height="469.95pt" viewBox="0 0 729.15 469.95" xmlns="http://www.w3.org/2000/svg" version="1.1">
 <metadata>
  <rdf:RDF xmlns:dc="http://purl.org/dc/elements/1.1/" xmlns:cc="http://creativecommons.org/ns#" xmlns:rdf="http://www.w3.org/1999/02/22-rdf-syntax-ns#">
   <cc:Work>
    <dc:type rdf:resource="http://purl.org/dc/dcmitype/StillImage"/>
    <dc:date>2026-07-19T04:29:48.208167</dc:date>
    <dc:format>image/svg+xml</dc:format>
    <dc:creator>
     <cc:Agent>
      <dc:title>Matplotlib v3.11.1, https://matplotlib.org/</dc:title>
     </cc:Agent>
    </dc:creator>
   </cc:Work>
  </rdf:RDF>
 </metadata>
 <defs>
  <style type="text/css">*{stroke-linejoin: round; stroke-linecap: butt}</style>
 </defs>
 <g id="figure_1">
  <g id="patch_1">
   <path d="M 0 469.95 
L 729.15 469.95 
L 729.15 0 
L 0 0 
z
" style="fill: #ffffff"/>
  </g>
  <g id="axes_1">
   <g id="patch_2">
    <path d="M 7.2 233.6625 
L 243.7 233.6625 
L 243.7 25.0815 
L 7.2 25.0815 
z
" style="fill: #ffffff"/>
   </g>
   <g id="patch_3">
    <path d="M 51.54375 130.976469 
L 81.10625 130.976469 
L 81.10625 121.349654 
L 51.54375 121.349654 
z
" clip-path="url(#pd1b42786c4)" style="fill: #1f8a56; stroke: #1f8a56; stroke-linejoin: miter"/>
   </g>
   <g id="matplotlib.axis_1"/>
   <g id="matplotlib.axis_2"/>
   <g id="line2d_1">
    <path d="M 66.325 185.528423 
L 66.325 118.140715 
" clip-path="url(#pd1b42786c4)" style="fill: none; stroke: #1f8a56; stroke-width: 2; stroke-linecap: round"/>
   </g>
   <g id="text_1">
    <text style="font-weight: 700; font-size: 10.5px; font-family: 'Noto Naskh Arabic', 'DejaVu Sans'; text-anchor: middle; fill: #1f2937" x="125.45" y="18.4245" transform="rotate(-0 125.45 18.4245)">​(Hammer) ﺔﻗﺮﻄﻤﻟﺍ</text>
   </g>
  </g>
  <g id="axes_2">
   <g id="patch_4">
    <path d="M 246.325 233.6625 
L 482.825 233.6625 
L 482.825 25.0815 
L 246.325 25.0815 
z
" style="fill: #ffffff"/>
   </g>
   <g id="patch_5">
    <path d="M 290.66875 130.976469 
L 320.23125 130.976469 
L 320.23125 121.349654 
L 290.66875 121.349654 
z
" clip-path="url(#pc105f6ca08)" style="fill: #b91c1c; stroke: #b91c1c; stroke-linejoin: miter"/>
   </g>
   <g id="matplotlib.axis_3"/>
   <g id="matplotlib.axis_4"/>
   <g id="line2d_2">
    <path d="M 305.45 185.528423 
L 305.45 118.140715 
" clip-path="url(#pc105f6ca08)" style="fill: none; stroke: #b91c1c; stroke-width: 2; stroke-linecap: round"/>
   </g>
   <g id="text_2">
    <text style="font-weight: 700; font-size: 10.5px; font-family: 'Noto Naskh Arabic', 'DejaVu Sans'; text-anchor: middle; fill: #1f2937" x="364.575" y="18.4245" transform="rotate(-0 364.575 18.4245)">​(Hanging Man) ﻕﻮﻨﺸﻤﻟﺍ ﻞﺟﺮﻟﺍ</text>
   </g>
  </g>
  <g id="axes_3">
   <g id="patch_6">
    <path d="M 485.45 233.6625 
L 721.95 233.6625 
L 721.95 25.0815 
L 485.45 25.0815 
z
" style="fill: #ffffff"/>
   </g>
   <g id="patch_7">
    <path d="M 529.79375 143.812223 
L 559.35625 143.812223 
L 559.35625 134.185408 
L 529.79375 134.185408 
z
" clip-path="url(#pce5d34fc2b)" style="fill: #1f8a56; stroke: #1f8a56; stroke-linejoin: miter"/>
   </g>
   <g id="matplotlib.axis_5"/>
   <g id="matplotlib.axis_6"/>
   <g id="line2d_3">
    <path d="M 544.575 147.021162 
L 544.575 73.215577 
" clip-path="url(#pce5d34fc2b)" style="fill: none; stroke: #1f8a56; stroke-width: 2; stroke-linecap: round"/>
   </g>
   <g id="text_3">
    <text style="font-weight: 700; font-size: 10.5px; font-family: 'Noto Naskh Arabic', 'DejaVu Sans'; text-anchor: middle; fill: #1f2937" x="603.7" y="18.4245" transform="rotate(-0 603.7 18.4245)">​(Shooting Star) ﺔﻄﻗﺎﺴﻟﺍ ﺔﻤﺠﻨﻟﺍ</text>
   </g>
  </g>
  <g id="axes_4">
   <g id="patch_8">
    <path d="M 7.2 462.75 
L 243.7 462.75 
L 243.7 254.169 
L 7.2 254.169 
z
" style="fill: #ffffff"/>
   </g>
   <g id="patch_9">
    <path d="M 51.54375 369.690785 
L 81.10625 369.690785 
L 81.10625 360.063969 
L 51.54375 360.063969 
z
" clip-path="url(#p04306c2c38)" style="fill: #1f8a56; stroke: #1f8a56; stroke-linejoin: miter"/>
   </g>
   <g id="matplotlib.axis_7"/>
   <g id="matplotlib.axis_8"/>
   <g id="line2d_4">
    <path d="M 66.325 414.615923 
L 66.325 318.347769 
" clip-path="url(#p04306c2c38)" style="fill: none; stroke: #1f8a56; stroke-width: 2; stroke-linecap: round"/>
   </g>
   <g id="text_4">
    <text style="font-weight: 700; font-size: 10.5px; font-family: 'Noto Naskh Arabic', 'DejaVu Sans'; text-anchor: middle; fill: #1f2937" x="125.45" y="247.512" transform="rotate(-0 125.45 247.512)">​(Spinning Top) ﻝﺰﻐﻤﻟﺍ</text>
   </g>
  </g>
  <g id="axes_5">
   <g id="patch_10">
    <path d="M 246.325 462.75 
L 482.825 462.75 
L 482.825 254.169 
L 246.325 254.169 
z
" style="fill: #ffffff"/>
   </g>
   <g id="patch_11">
    <path d="M 290.66875 366.481846 
L 320.23125 366.481846 
L 320.23125 364.877377 
L 290.66875 364.877377 
z
" clip-path="url(#pe9ffe8ff8d)" style="fill: #1f8a56; stroke: #1f8a56; stroke-linejoin: miter"/>
   </g>
   <g id="matplotlib.axis_9"/>
   <g id="matplotlib.axis_10"/>
   <g id="line2d_5">
    <path d="M 305.45 414.615923 
L 305.45 318.347769 
" clip-path="url(#pe9ffe8ff8d)" style="fill: none; stroke: #1f8a56; stroke-width: 2; stroke-linecap: round"/>
   </g>
   <g id="text_5">
    <text style="font-weight: 700; font-size: 10.5px; font-family: 'Noto Naskh Arabic', 'DejaVu Sans'; text-anchor: middle; fill: #1f2937" x="364.575" y="247.512" transform="rotate(-0 364.575 247.512)">​(Doji) ﻲﺟﻭﺪﻟﺍ</text>
   </g>
  </g>
  <g id="axes_6">
   <g id="patch_12">
    <path d="M 485.45 462.75 
L 721.95 462.75 
L 721.95 254.169 
L 485.45 254.169 
z
" style="fill: #ffffff"/>
   </g>
   <g id="patch_13">
    <path d="M 529.79375 414.615923 
L 559.35625 414.615923 
L 559.35625 318.347769 
L 529.79375 318.347769 
z
" clip-path="url(#p36b58ef431)" style="fill: #1f8a56; stroke: #1f8a56; stroke-linejoin: miter"/>
   </g>
   <g id="matplotlib.axis_11"/>
   <g id="matplotlib.axis_12"/>
   <g id="line2d_6">
    <path d="M 544.575 414.615923 
L 544.575 318.347769 
" clip-path="url(#p36b58ef431)" style="fill: none; stroke: #1f8a56; stroke-width: 2; stroke-linecap: round"/>
   </g>
   <g id="text_6">
    <text style="font-weight: 700; font-size: 10.5px; font-family: 'Noto Naskh Arabic', 'DejaVu Sans'; text-anchor: middle; fill: #1f2937" x="603.7" y="247.512" transform="rotate(-0 603.7 247.512)">​(Marubozu) ﻭﺯﻮﺑﻭﺭﺎﻣ</text>
   </g>
  </g>
 </g>
 <defs>
  <clipPath id="pd1b42786c4">
   <rect x="7.2" y="25.0815" width="236.5" height="208.581"/>
  </clipPath>
  <clipPath id="pc105f6ca08">
   <rect x="246.325" y="25.0815" width="236.5" height="208.581"/>
  </clipPath>
  <clipPath id="pce5d34fc2b">
   <rect x="485.45" y="25.0815" width="236.5" height="208.581"/>
  </clipPath>
  <clipPath id="p04306c2c38">
   <rect x="7.2" y="254.169" width="236.5" height="208.581"/>
  </clipPath>
  <clipPath id="pe9ffe8ff8d">
   <rect x="246.325" y="254.169" width="236.5" height="208.581"/>
  </clipPath>
  <clipPath id="p36b58ef431">
   <rect x="485.45" y="254.169" width="236.5" height="208.581"/>
  </clipPath>
 </defs>
</svg>
