<?xml version="1.0" encoding="utf-8" standalone="no"?>
<!DOCTYPE svg PUBLIC "-//W3C//DTD SVG 1.1//EN"
  "http://www.w3.org/Graphics/SVG/1.1/DTD/svg11.dtd">
<svg xmlns:xlink="http://www.w3.org/1999/xlink" width="627.03788pt" height="340.35pt" viewBox="0 0 627.03788 340.35" xmlns="http://www.w3.org/2000/svg" version="1.1">
 <metadata>
  <rdf:RDF xmlns:dc="http://purl.org/dc/elements/1.1/" xmlns:cc="http://creativecommons.org/ns#" xmlns:rdf="http://www.w3.org/1999/02/22-rdf-syntax-ns#">
   <cc:Work>
    <dc:type rdf:resource="http://purl.org/dc/dcmitype/StillImage"/>
    <dc:date>2026-07-19T04:29:39.250632</dc:date>
    <dc:format>image/svg+xml</dc:format>
    <dc:creator>
     <cc:Agent>
      <dc:title>Matplotlib v3.11.1, https://matplotlib.org/</dc:title>
     </cc:Agent>
    </dc:creator>
   </cc:Work>
  </rdf:RDF>
 </metadata>
 <defs>
  <style type="text/css">*{stroke-linejoin: round; stroke-linecap: butt}</style>
 </defs>
 <g id="figure_1">
  <g id="patch_1">
   <path d="M 0 340.35 
L 627.03788 340.35 
L 627.03788 0 
L 0 0 
z
" style="fill: #ffffff"/>
  </g>
  <g id="axes_1">
   <g id="patch_2">
    <path d="M 63.105119 333.15 
L 619.83788 333.15 
L 619.83788 25.933 
L 63.105119 25.933 
z
" style="fill: #ffffff"/>
   </g>
   <g id="matplotlib.axis_1"/>
   <g id="matplotlib.axis_2"/>
   <g id="line2d_1">
    <path d="M 76.683967 106.618964 
L 606.259032 106.618964 
" clip-path="url(#p193c0bfee2)" style="fill: none; stroke-dasharray: 7.4,3.2; stroke-dashoffset: 0; stroke: #b91c1c; stroke-width: 2"/>
   </g>
   <g id="patch_3">
    <path d="M 185.314749 106.618964 
L 511.207097 106.618964 
L 511.207097 65.305554 
L 185.314749 65.305554 
z
" clip-path="url(#p193c0bfee2)" style="fill: #f4a6a6; opacity: 0.3; stroke: #f4a6a6; stroke-width: 1.4; stroke-linejoin: miter"/>
   </g>
   <g id="patch_4">
    <path d="M 63.105119 333.15 
L 63.105119 25.933 
" style="fill: none; stroke: #1f2937; stroke-width: 0.8; stroke-linejoin: miter; stroke-linecap: square"/>
   </g>
   <g id="patch_5">
    <path d="M 63.105119 333.15 
L 619.83788 333.15 
" style="fill: none; stroke: #1f2937; stroke-width: 0.8; stroke-linejoin: miter; stroke-linecap: square"/>
   </g>
   <g id="line2d_2">
    <path d="M 76.683967 283.474519 
L 76.683967 252.491994 
" clip-path="url(#p193c0bfee2)" style="fill: none; stroke: #b91c1c; stroke-width: 1.1; stroke-linecap: round"/>
   </g>
   <g id="line2d_3">
    <path d="M 90.262815 299.953203 
L 90.262815 270.467597 
" clip-path="url(#p193c0bfee2)" style="fill: none; stroke: #1f8a56; stroke-width: 1.1; stroke-linecap: round"/>
   </g>
   <g id="line2d_4">
    <path d="M 103.841662 307.548583 
L 103.841662 276.089096 
" clip-path="url(#p193c0bfee2)" style="fill: none; stroke: #1f8a56; stroke-width: 1.1; stroke-linecap: round"/>
   </g>
   <g id="line2d_5">
    <path d="M 117.42051 285.465871 
L 117.42051 270.5541 
" clip-path="url(#p193c0bfee2)" style="fill: none; stroke: #b91c1c; stroke-width: 1.1; stroke-linecap: round"/>
   </g>
   <g id="line2d_6">
    <path d="M 130.999358 283.494537 
L 130.999358 270.207744 
" clip-path="url(#p193c0bfee2)" style="fill: none; stroke: #1f8a56; stroke-width: 1.1; stroke-linecap: round"/>
   </g>
   <g id="line2d_7">
    <path d="M 144.578206 277.461051 
L 144.578206 259.56794 
" clip-path="url(#p193c0bfee2)" style="fill: none; stroke: #1f8a56; stroke-width: 1.1; stroke-linecap: round"/>
   </g>
   <g id="line2d_8">
    <path d="M 158.157054 262.389163 
L 158.157054 256.800893 
" clip-path="url(#p193c0bfee2)" style="fill: none; stroke: #1f8a56; stroke-width: 1.1; stroke-linecap: round"/>
   </g>
   <g id="line2d_9">
    <path d="M 171.735902 253.348328 
L 171.735902 235.011825 
" clip-path="url(#p193c0bfee2)" style="fill: none; stroke: #1f8a56; stroke-width: 1.1; stroke-linecap: round"/>
   </g>
   <g id="line2d_10">
    <path d="M 185.314749 243.913624 
L 185.314749 208.882549 
" clip-path="url(#p193c0bfee2)" style="fill: none; stroke: #1f8a56; stroke-width: 1.1; stroke-linecap: round"/>
   </g>
   <g id="line2d_11">
    <path d="M 198.893597 221.150073 
L 198.893597 182.734109 
" clip-path="url(#p193c0bfee2)" style="fill: none; stroke: #1f8a56; stroke-width: 1.1; stroke-linecap: round"/>
   </g>
   <g id="line2d_12">
    <path d="M 212.472445 178.845514 
L 212.472445 149.119146 
" clip-path="url(#p193c0bfee2)" style="fill: none; stroke: #1f8a56; stroke-width: 1.1; stroke-linecap: round"/>
   </g>
   <g id="line2d_13">
    <path d="M 226.051293 163.673543 
L 226.051293 129.477787 
" clip-path="url(#p193c0bfee2)" style="fill: none; stroke: #1f8a56; stroke-width: 1.1; stroke-linecap: round"/>
   </g>
   <g id="line2d_14">
    <path d="M 239.630141 145.373692 
L 239.630141 127.72017 
" clip-path="url(#p193c0bfee2)" style="fill: none; stroke: #b91c1c; stroke-width: 1.1; stroke-linecap: round"/>
   </g>
   <g id="line2d_15">
    <path d="M 253.208989 151.289598 
L 253.208989 121.845361 
" clip-path="url(#p193c0bfee2)" style="fill: none; stroke: #b91c1c; stroke-width: 1.1; stroke-linecap: round"/>
   </g>
   <g id="line2d_16">
    <path d="M 266.787836 167.162319 
L 266.787836 137.704644 
" clip-path="url(#p193c0bfee2)" style="fill: none; stroke: #b91c1c; stroke-width: 1.1; stroke-linecap: round"/>
   </g>
   <g id="line2d_17">
    <path d="M 280.366684 192.586469 
L 280.366684 160.576196 
" clip-path="url(#p193c0bfee2)" style="fill: none; stroke: #b91c1c; stroke-width: 1.1; stroke-linecap: round"/>
   </g>
   <g id="line2d_18">
    <path d="M 293.945532 219.542315 
L 293.945532 181.025949 
" clip-path="url(#p193c0bfee2)" style="fill: none; stroke: #b91c1c; stroke-width: 1.1; stroke-linecap: round"/>
   </g>
   <g id="line2d_19">
    <path d="M 307.52438 249.048927 
L 307.52438 212.111908 
" clip-path="url(#p193c0bfee2)" style="fill: none; stroke: #b91c1c; stroke-width: 1.1; stroke-linecap: round"/>
   </g>
   <g id="line2d_20">
    <path d="M 321.103228 257.920298 
L 321.103228 241.224704 
" clip-path="url(#p193c0bfee2)" style="fill: none; stroke: #b91c1c; stroke-width: 1.1; stroke-linecap: round"/>
   </g>
   <g id="line2d_21">
    <path d="M 334.682075 277.593918 
L 334.682075 253.956385 
" clip-path="url(#p193c0bfee2)" style="fill: none; stroke: #b91c1c; stroke-width: 1.1; stroke-linecap: round"/>
   </g>
   <g id="line2d_22">
    <path d="M 348.260923 275.725226 
L 348.260923 261.341417 
" clip-path="url(#p193c0bfee2)" style="fill: none; stroke: #1f8a56; stroke-width: 1.1; stroke-linecap: round"/>
   </g>
   <g id="line2d_23">
    <path d="M 361.839771 275.833182 
L 361.839771 258.003674 
" clip-path="url(#p193c0bfee2)" style="fill: none; stroke: #1f8a56; stroke-width: 1.1; stroke-linecap: round"/>
   </g>
   <g id="line2d_24">
    <path d="M 375.418619 266.717308 
L 375.418619 250.445217 
" clip-path="url(#p193c0bfee2)" style="fill: none; stroke: #1f8a56; stroke-width: 1.1; stroke-linecap: round"/>
   </g>
   <g id="line2d_25">
    <path d="M 388.997467 259.239003 
L 388.997467 230.949407 
" clip-path="url(#p193c0bfee2)" style="fill: none; stroke: #1f8a56; stroke-width: 1.1; stroke-linecap: round"/>
   </g>
   <g id="line2d_26">
    <path d="M 402.576315 236.745698 
L 402.576315 207.495178 
" clip-path="url(#p193c0bfee2)" style="fill: none; stroke: #1f8a56; stroke-width: 1.1; stroke-linecap: round"/>
   </g>
   <g id="line2d_27">
    <path d="M 416.155162 212.331045 
L 416.155162 177.938421 
" clip-path="url(#p193c0bfee2)" style="fill: none; stroke: #1f8a56; stroke-width: 1.1; stroke-linecap: round"/>
   </g>
   <g id="line2d_28">
    <path d="M 429.73401 186.013606 
L 429.73401 152.935055 
" clip-path="url(#p193c0bfee2)" style="fill: none; stroke: #1f8a56; stroke-width: 1.1; stroke-linecap: round"/>
   </g>
   <g id="line2d_29">
    <path d="M 443.312858 169.476803 
L 443.312858 137.261207 
" clip-path="url(#p193c0bfee2)" style="fill: none; stroke: #1f8a56; stroke-width: 1.1; stroke-linecap: round"/>
   </g>
   <g id="line2d_30">
    <path d="M 456.891706 133.042854 
L 456.891706 111.209343 
" clip-path="url(#p193c0bfee2)" style="fill: none; stroke: #b91c1c; stroke-width: 1.1; stroke-linecap: round"/>
   </g>
   <g id="line2d_31">
    <path d="M 470.470554 139.853288 
L 470.470554 136.938117 
" clip-path="url(#p193c0bfee2)" style="fill: none; stroke: #1f8a56; stroke-width: 1.1; stroke-linecap: round"/>
   </g>
   <g id="line2d_32">
    <path d="M 484.049401 158.115281 
L 484.049401 135.4004 
" clip-path="url(#p193c0bfee2)" style="fill: none; stroke: #b91c1c; stroke-width: 1.1; stroke-linecap: round"/>
   </g>
   <g id="line2d_33">
    <path d="M 497.628249 193.181531 
L 497.628249 152.430726 
" clip-path="url(#p193c0bfee2)" style="fill: none; stroke: #b91c1c; stroke-width: 1.1; stroke-linecap: round"/>
   </g>
   <g id="line2d_34">
    <path d="M 511.207097 214.319271 
L 511.207097 182.192074 
" clip-path="url(#p193c0bfee2)" style="fill: none; stroke: #b91c1c; stroke-width: 1.1; stroke-linecap: round"/>
   </g>
   <g id="line2d_35">
    <path d="M 524.785945 238.230147 
L 524.785945 208.743525 
" clip-path="url(#p193c0bfee2)" style="fill: none; stroke: #b91c1c; stroke-width: 1.1; stroke-linecap: round"/>
   </g>
   <g id="line2d_36">
    <path d="M 538.364793 263.743352 
L 538.364793 227.408077 
" clip-path="url(#p193c0bfee2)" style="fill: none; stroke: #b91c1c; stroke-width: 1.1; stroke-linecap: round"/>
   </g>
   <g id="line2d_37">
    <path d="M 551.943641 273.724566 
L 551.943641 261.15031 
" clip-path="url(#p193c0bfee2)" style="fill: none; stroke: #b91c1c; stroke-width: 1.1; stroke-linecap: round"/>
   </g>
   <g id="line2d_38">
    <path d="M 565.522488 280.242604 
L 565.522488 270.696097 
" clip-path="url(#p193c0bfee2)" style="fill: none; stroke: #b91c1c; stroke-width: 1.1; stroke-linecap: round"/>
   </g>
   <g id="line2d_39">
    <path d="M 579.101336 284.302479 
L 579.101336 253.084892 
" clip-path="url(#p193c0bfee2)" style="fill: none; stroke: #b91c1c; stroke-width: 1.1; stroke-linecap: round"/>
   </g>
   <g id="line2d_40">
    <path d="M 592.680184 281.404189 
L 592.680184 277.920356 
" clip-path="url(#p193c0bfee2)" style="fill: none; stroke: #b91c1c; stroke-width: 1.1; stroke-linecap: round"/>
   </g>
   <g id="line2d_41">
    <path d="M 606.259032 282.11413 
L 606.259032 268.712951 
" clip-path="url(#p193c0bfee2)" style="fill: none; stroke: #b91c1c; stroke-width: 1.1; stroke-linecap: round"/>
   </g>
   <g id="text_1">
    <text style="font-weight: 700; font-size: 9px; font-family: 'Noto Naskh Arabic', 'DejaVu Sans'; text-anchor: end; fill: #b91c1c" x="72.610313" y="108.576464" transform="rotate(-0 72.610313 108.576464)">​ﺎﻳﺮﻫﺎﻇ ﺔﺟﻭﺩﺰﻣ ﺔﻤﻗ</text>
   </g>
   <g id="text_2">
    <text style="font-weight: 700; font-size: 9px; font-family: 'Noto Naskh Arabic', 'DejaVu Sans'; text-anchor: middle; fill: #b91c1c" x="348.260923" y="85.962259" transform="rotate(-0 348.260923 85.962259)">​ﻱﺪﻴﻠﻘﺗ ﺱﺎﻜﻌﻧﺍ ﺝﺫﻮﻤﻨﻛ ﺎﻬﺗﺀﺍﺮﻗ ﻞﺒﻗ ﺔﻟﻮﻴﺳ ﺓﺪﻴﺼﻤﻛ ﻻﻭﺃ ﺃﺮﻘﺗ</text>
   </g>
   <g id="text_3">
    <text style="font-weight: 700; font-size: 11px; font-family: 'Noto Naskh Arabic', 'DejaVu Sans'; text-anchor: middle; fill: #1f2937" x="341.471499" y="18.959" transform="rotate(-0 341.471499 18.959)">​(Geometric Liquidity) ﺔﻴﺳﺪﻨﻬﻟﺍ ﺔﻟﻮﻴﺴﻟﺍ</text>
   </g>
   <g id="patch_6">
    <path d="M 72.610313 281.329499 
L 80.757621 281.329499 
L 80.757621 263.539292 
L 72.610313 263.539292 
z
" clip-path="url(#p193c0bfee2)" style="fill: #b91c1c; stroke: #b91c1c; stroke-linejoin: miter"/>
   </g>
   <g id="patch_7">
    <path d="M 86.18916 291.980178 
L 94.336469 291.980178 
L 94.336469 281.092815 
L 86.18916 281.092815 
z
" clip-path="url(#p193c0bfee2)" style="fill: #1f8a56; stroke: #1f8a56; stroke-linejoin: miter"/>
   </g>
   <g id="patch_8">
    <path d="M 99.768008 299.457508 
L 107.915317 299.457508 
L 107.915317 280.449415 
L 99.768008 280.449415 
z
" clip-path="url(#p193c0bfee2)" style="fill: #1f8a56; stroke: #1f8a56; stroke-linejoin: miter"/>
   </g>
   <g id="patch_9">
    <path d="M 113.346856 278.879957 
L 121.494165 278.879957 
L 121.494165 272.479614 
L 113.346856 272.479614 
z
" clip-path="url(#p193c0bfee2)" style="fill: #b91c1c; stroke: #b91c1c; stroke-linejoin: miter"/>
   </g>
   <g id="patch_10">
    <path d="M 126.925704 280.418658 
L 135.073012 280.418658 
L 135.073012 274.528479 
L 126.925704 274.528479 
z
" clip-path="url(#p193c0bfee2)" style="fill: #1f8a56; stroke: #1f8a56; stroke-linejoin: miter"/>
   </g>
   <g id="patch_11">
    <path d="M 140.504552 270.310164 
L 148.65186 270.310164 
L 148.65186 264.419985 
L 140.504552 264.419985 
z
" clip-path="url(#p193c0bfee2)" style="fill: #1f8a56; stroke: #1f8a56; stroke-linejoin: miter"/>
   </g>
   <g id="patch_12">
    <path d="M 154.083399 259.167541 
L 162.230708 259.167541 
L 162.230708 253.277362 
L 154.083399 253.277362 
z
" clip-path="url(#p193c0bfee2)" style="fill: #1f8a56; stroke: #1f8a56; stroke-linejoin: miter"/>
   </g>
   <g id="patch_13">
    <path d="M 167.662247 251.895755 
L 175.809556 251.895755 
L 175.809556 239.353868 
L 167.662247 239.353868 
z
" clip-path="url(#p193c0bfee2)" style="fill: #1f8a56; stroke: #1f8a56; stroke-linejoin: miter"/>
   </g>
   <g id="patch_14">
    <path d="M 181.241095 240.491909 
L 189.388404 240.491909 
L 189.388404 215.436279 
L 181.241095 215.436279 
z
" clip-path="url(#p193c0bfee2)" style="fill: #1f8a56; stroke: #1f8a56; stroke-linejoin: miter"/>
   </g>
   <g id="patch_15">
    <path d="M 194.819943 216.938436 
L 202.967252 216.938436 
L 202.967252 187.776609 
L 194.819943 187.776609 
z
" clip-path="url(#p193c0bfee2)" style="fill: #1f8a56; stroke: #1f8a56; stroke-linejoin: miter"/>
   </g>
   <g id="patch_16">
    <path d="M 208.398791 177.155063 
L 216.546099 177.155063 
L 216.546099 161.174051 
L 208.398791 161.174051 
z
" clip-path="url(#p193c0bfee2)" style="fill: #1f8a56; stroke: #1f8a56; stroke-linejoin: miter"/>
   </g>
   <g id="patch_17">
    <path d="M 221.977639 156.762098 
L 230.124947 156.762098 
L 230.124947 141.710973 
L 221.977639 141.710973 
z
" clip-path="url(#p193c0bfee2)" style="fill: #1f8a56; stroke: #1f8a56; stroke-linejoin: miter"/>
   </g>
   <g id="patch_18">
    <path d="M 235.556486 134.546621 
L 243.703795 134.546621 
L 243.703795 128.656443 
L 235.556486 128.656443 
z
" clip-path="url(#p193c0bfee2)" style="fill: #b91c1c; stroke: #b91c1c; stroke-linejoin: miter"/>
   </g>
   <g id="patch_19">
    <path d="M 249.135334 141.709083 
L 257.282643 141.709083 
L 257.282643 128.783486 
L 249.135334 128.783486 
z
" clip-path="url(#p193c0bfee2)" style="fill: #b91c1c; stroke: #b91c1c; stroke-linejoin: miter"/>
   </g>
   <g id="patch_20">
    <path d="M 262.714182 161.165665 
L 270.861491 161.165665 
L 270.861491 143.822437 
L 262.714182 143.822437 
z
" clip-path="url(#p193c0bfee2)" style="fill: #b91c1c; stroke: #b91c1c; stroke-linejoin: miter"/>
   </g>
   <g id="patch_21">
    <path d="M 276.29303 187.744209 
L 284.440339 187.744209 
L 284.440339 163.11764 
L 276.29303 163.11764 
z
" clip-path="url(#p193c0bfee2)" style="fill: #b91c1c; stroke: #b91c1c; stroke-linejoin: miter"/>
   </g>
   <g id="patch_22">
    <path d="M 289.871878 215.323185 
L 298.019186 215.323185 
L 298.019186 188.151796 
L 289.871878 188.151796 
z
" clip-path="url(#p193c0bfee2)" style="fill: #b91c1c; stroke: #b91c1c; stroke-linejoin: miter"/>
   </g>
   <g id="patch_23">
    <path d="M 303.450725 238.996693 
L 311.598034 238.996693 
L 311.598034 212.525798 
L 303.450725 212.525798 
z
" clip-path="url(#p193c0bfee2)" style="fill: #b91c1c; stroke: #b91c1c; stroke-linejoin: miter"/>
   </g>
   <g id="patch_24">
    <path d="M 317.029573 256.13738 
L 325.176882 256.13738 
L 325.176882 241.540643 
L 317.029573 241.540643 
z
" clip-path="url(#p193c0bfee2)" style="fill: #b91c1c; stroke: #b91c1c; stroke-linejoin: miter"/>
   </g>
   <g id="patch_25">
    <path d="M 330.608421 266.124133 
L 338.75573 266.124133 
L 338.75573 257.982557 
L 330.608421 257.982557 
z
" clip-path="url(#p193c0bfee2)" style="fill: #b91c1c; stroke: #b91c1c; stroke-linejoin: miter"/>
   </g>
   <g id="patch_26">
    <path d="M 344.187269 269.902388 
L 352.334578 269.902388 
L 352.334578 264.01221 
L 344.187269 264.01221 
z
" clip-path="url(#p193c0bfee2)" style="fill: #1f8a56; stroke: #1f8a56; stroke-linejoin: miter"/>
   </g>
   <g id="patch_27">
    <path d="M 357.766117 272.08269 
L 365.913425 272.08269 
L 365.913425 265.807988 
L 357.766117 265.807988 
z
" clip-path="url(#p193c0bfee2)" style="fill: #1f8a56; stroke: #1f8a56; stroke-linejoin: miter"/>
   </g>
   <g id="patch_28">
    <path d="M 371.344965 266.651969 
L 379.492273 266.651969 
L 379.492273 255.409525 
L 371.344965 255.409525 
z
" clip-path="url(#p193c0bfee2)" style="fill: #1f8a56; stroke: #1f8a56; stroke-linejoin: miter"/>
   </g>
   <g id="patch_29">
    <path d="M 384.923812 252.383033 
L 393.071121 252.383033 
L 393.071121 237.692351 
L 384.923812 237.692351 
z
" clip-path="url(#p193c0bfee2)" style="fill: #1f8a56; stroke: #1f8a56; stroke-linejoin: miter"/>
   </g>
   <g id="patch_30">
    <path d="M 398.50266 229.943564 
L 406.649969 229.943564 
L 406.649969 213.264022 
L 398.50266 213.264022 
z
" clip-path="url(#p193c0bfee2)" style="fill: #1f8a56; stroke: #1f8a56; stroke-linejoin: miter"/>
   </g>
   <g id="patch_31">
    <path d="M 412.081508 210.780966 
L 420.228817 210.780966 
L 420.228817 184.818236 
L 412.081508 184.818236 
z
" clip-path="url(#p193c0bfee2)" style="fill: #1f8a56; stroke: #1f8a56; stroke-linejoin: miter"/>
   </g>
   <g id="patch_32">
    <path d="M 425.660356 182.332993 
L 433.807665 182.332993 
L 433.807665 157.407635 
L 425.660356 157.407635 
z
" clip-path="url(#p193c0bfee2)" style="fill: #1f8a56; stroke: #1f8a56; stroke-linejoin: miter"/>
   </g>
   <g id="patch_33">
    <path d="M 439.239204 158.623696 
L 447.386512 158.623696 
L 447.386512 137.342639 
L 439.239204 137.342639 
z
" clip-path="url(#p193c0bfee2)" style="fill: #1f8a56; stroke: #1f8a56; stroke-linejoin: miter"/>
   </g>
   <g id="patch_34">
    <path d="M 452.818051 129.956255 
L 460.96536 129.956255 
L 460.96536 117.375906 
L 452.818051 117.375906 
z
" clip-path="url(#p193c0bfee2)" style="fill: #b91c1c; stroke: #b91c1c; stroke-linejoin: miter"/>
   </g>
   <g id="patch_35">
    <path d="M 466.396899 139.082976 
L 474.544208 139.082976 
L 474.544208 133.192798 
L 466.396899 133.192798 
z
" clip-path="url(#p193c0bfee2)" style="fill: #1f8a56; stroke: #1f8a56; stroke-linejoin: miter"/>
   </g>
   <g id="patch_36">
    <path d="M 479.975747 157.415767 
L 488.123056 157.415767 
L 488.123056 138.376841 
L 479.975747 138.376841 
z
" clip-path="url(#p193c0bfee2)" style="fill: #b91c1c; stroke: #b91c1c; stroke-linejoin: miter"/>
   </g>
   <g id="patch_37">
    <path d="M 493.554595 184.849654 
L 501.701904 184.849654 
L 501.701904 156.574318 
L 493.554595 156.574318 
z
" clip-path="url(#p193c0bfee2)" style="fill: #b91c1c; stroke: #b91c1c; stroke-linejoin: miter"/>
   </g>
   <g id="patch_38">
    <path d="M 507.133443 213.373689 
L 515.280751 213.373689 
L 515.280751 189.428452 
L 507.133443 189.428452 
z
" clip-path="url(#p193c0bfee2)" style="fill: #b91c1c; stroke: #b91c1c; stroke-linejoin: miter"/>
   </g>
   <g id="patch_39">
    <path d="M 520.712291 238.038702 
L 528.859599 238.038702 
L 528.859599 212.847644 
L 520.712291 212.847644 
z
" clip-path="url(#p193c0bfee2)" style="fill: #b91c1c; stroke: #b91c1c; stroke-linejoin: miter"/>
   </g>
   <g id="patch_40">
    <path d="M 534.291138 256.399277 
L 542.438447 256.399277 
L 542.438447 238.114202 
L 534.291138 238.114202 
z
" clip-path="url(#p193c0bfee2)" style="fill: #b91c1c; stroke: #b91c1c; stroke-linejoin: miter"/>
   </g>
   <g id="patch_41">
    <path d="M 547.869986 268.367198 
L 556.017295 268.367198 
L 556.017295 262.477019 
L 547.869986 262.477019 
z
" clip-path="url(#p193c0bfee2)" style="fill: #b91c1c; stroke: #b91c1c; stroke-linejoin: miter"/>
   </g>
   <g id="patch_42">
    <path d="M 561.448834 275.264406 
L 569.596143 275.264406 
L 569.596143 269.374227 
L 561.448834 269.374227 
z
" clip-path="url(#p193c0bfee2)" style="fill: #b91c1c; stroke: #b91c1c; stroke-linejoin: miter"/>
   </g>
   <g id="patch_43">
    <path d="M 575.027682 278.799982 
L 583.174991 278.799982 
L 583.174991 269.52987 
L 575.027682 269.52987 
z
" clip-path="url(#p193c0bfee2)" style="fill: #b91c1c; stroke: #b91c1c; stroke-linejoin: miter"/>
   </g>
   <g id="patch_44">
    <path d="M 588.60653 280.418485 
L 596.753838 280.418485 
L 596.753838 274.528307 
L 588.60653 274.528307 
z
" clip-path="url(#p193c0bfee2)" style="fill: #b91c1c; stroke: #b91c1c; stroke-linejoin: miter"/>
   </g>
   <g id="patch_45">
    <path d="M 602.185378 281.081992 
L 610.332686 281.081992 
L 610.332686 274.088244 
L 602.185378 274.088244 
z
" clip-path="url(#p193c0bfee2)" style="fill: #b91c1c; stroke: #b91c1c; stroke-linejoin: miter"/>
   </g>
  </g>
 </g>
 <defs>
  <clipPath id="p193c0bfee2">
   <rect x="63.105119" y="25.933" width="556.732761" height="307.217"/>
  </clipPath>
 </defs>
</svg>
