<?xml version="1.0" encoding="utf-8" standalone="no"?>
<!DOCTYPE svg PUBLIC "-//W3C//DTD SVG 1.1//EN"
  "http://www.w3.org/Graphics/SVG/1.1/DTD/svg11.dtd">
<svg xmlns:xlink="http://www.w3.org/1999/xlink" width="628.35pt" height="340.35pt" viewBox="0 0 628.35 340.35" xmlns="http://www.w3.org/2000/svg" version="1.1">
 <metadata>
  <rdf:RDF xmlns:dc="http://purl.org/dc/elements/1.1/" xmlns:cc="http://creativecommons.org/ns#" xmlns:rdf="http://www.w3.org/1999/02/22-rdf-syntax-ns#">
   <cc:Work>
    <dc:type rdf:resource="http://purl.org/dc/dcmitype/StillImage"/>
    <dc:date>2026-07-18T23:17:52.206532</dc:date>
    <dc:format>image/svg+xml</dc:format>
    <dc:creator>
     <cc:Agent>
      <dc:title>Matplotlib v3.11.1, https://matplotlib.org/</dc:title>
     </cc:Agent>
    </dc:creator>
   </cc:Work>
  </rdf:RDF>
 </metadata>
 <defs>
  <style type="text/css">*{stroke-linejoin: round; stroke-linecap: butt}</style>
 </defs>
 <g id="figure_1">
  <g id="patch_1">
   <path d="M 0 340.35 
L 628.35 340.35 
L 628.35 0 
L 0 0 
z
" style="fill: #ffffff"/>
  </g>
  <g id="axes_1">
   <g id="patch_2">
    <path d="M 50.2565 311.2685 
L 572.087172 311.2685 
L 572.087172 7.2 
L 50.2565 7.2 
z
" style="fill: #ffffff"/>
   </g>
   <g id="matplotlib.axis_1">
    <g id="text_1">
     <!-- ’╗”’╗Ż’║░’╗¤’║Ź -->
     <g style="fill: #1f2937" transform="translate(301.223086 326.493) scale(0.105 -0.105)">
      <defs>
       <path id="NotoNaskhArabic-Regular-3" d="M 666 0 
Q 646 1126 604 2057 
Q 563 2989 493 3725 
Q 467 3987 566 4118 
Q 666 4250 915 4294 
Q 941 4173 1001 3965 
Q 1062 3757 1139 3533 
L 966 3386 
Q 992 2912 1001 2413 
Q 1011 1914 1001 1338 
Q 992 762 960 51 
L 666 0 
z
" transform="scale(0.015625)"/>
       <path id="NotoNaskhArabic-Regular-1c1" d="M -6 0 
Q -64 0 -64 51 
L -64 435 
Q -64 486 -6 486 
Q 378 486 704 659 
Q 685 902 665 1139 
Q 646 1376 627 1606 
Q 570 2208 512 2790 
Q 454 3373 384 3936 
Q 474 4032 579 4121 
Q 685 4211 806 4294 
Q 826 3949 851 3497 
Q 877 3046 915 2483 
Q 947 2016 960 1609 
Q 973 1203 979 864 
Q 979 755 915 572 
Q 851 390 755 224 
Q 640 0 -6 0 
z
" transform="scale(0.015625)"/>
       <path id="NotoNaskhArabic-Regular-d6" d="M 710 -1306 
Q 608 -1306 451 -1248 
Q 294 -1190 134 -1107 
Q -26 -1024 -128 -947 
L -45 -736 
Q 134 -768 284 -787 
Q 435 -806 563 -806 
Q 1043 -806 1385 -518 
Q 1728 -230 1907 314 
Q 1862 416 1814 515 
Q 1766 614 1709 717 
Q 1491 1107 1388 1340 
Q 1286 1574 1286 1734 
Q 1286 1901 1382 2000 
Q 1478 2099 1658 2182 
Q 1683 2099 1712 2000 
Q 1741 1901 1786 1792 
Q 1888 1530 1955 1334 
Q 2022 1139 2054 1018 
Q 2093 896 2115 797 
Q 2138 698 2144 614 
Q 2362 486 2643 486 
Q 2694 486 2694 435 
L 2694 51 
Q 2694 0 2643 0 
Q 2342 0 2118 154 
Q 2048 -288 1849 -617 
Q 1651 -947 1356 -1126 
Q 1062 -1306 710 -1306 
z
M 1299 2560 
Q 1018 2771 839 2976 
Q 1165 3303 1287 3443 
Q 1389 3335 1494 3229 
Q 1600 3123 1709 3027 
Q 1562 2816 1299 2560 
z
" transform="scale(0.015625)"/>
       <path id="NotoNaskhArabic-Regular-1e5" d="M 2291 0 
Q 2035 0 1753 48 
Q 1472 96 1209 182 
Q 947 269 749 384 
Q 602 179 422 89 
Q 243 0 0 0 
Q -51 0 -51 51 
L -51 435 
Q -51 486 0 486 
Q 243 486 409 604 
Q 576 723 698 960 
Q 813 1171 880 1308 
Q 947 1446 1004 1555 
Q 1062 1664 1152 1779 
Q 1312 1990 1478 2083 
Q 1645 2176 1830 2176 
Q 2016 2176 2201 1945 
Q 2387 1715 2502 1357 
Q 2618 1005 2618 666 
Q 2618 467 2547 307 
Q 2477 147 2291 0 
z
M 2150 486 
Q 2144 781 2061 1065 
Q 1978 1350 1875 1498 
Q 1805 1606 1728 1606 
Q 1491 1606 1286 1318 
Q 1235 1242 1161 1117 
Q 1088 992 998 806 
Q 1459 563 2150 486 
z
" transform="scale(0.015625)"/>
       <path id="NotoNaskhArabic-Regular-1e8" d="M 1594 -1677 
Q 1050 -1677 742 -1363 
Q 435 -1050 435 -474 
Q 435 -346 444 -237 
Q 454 -128 480 9 
Q 506 147 557 358 
L 794 301 
Q 723 6 723 -154 
Q 723 -621 956 -883 
Q 1190 -1146 1606 -1146 
Q 1926 -1146 2249 -1040 
Q 2573 -934 2829 -752 
Q 3085 -570 3187 -346 
Q 2976 109 2873 416 
Q 2771 723 2771 877 
Q 2771 1043 2864 1174 
Q 2957 1306 3187 1446 
Q 3200 1344 3235 1133 
Q 3270 922 3334 595 
Q 3565 486 3802 486 
Q 3859 486 3859 435 
L 3859 51 
Q 3859 0 3802 0 
Q 3590 0 3418 77 
L 3424 -109 
Q 3424 -499 3174 -860 
Q 2925 -1222 2490 -1446 
Q 2061 -1677 1594 -1677 
z
M 1766 1504 
Q 1485 1715 1306 1920 
Q 1632 2247 1754 2387 
Q 1856 2279 1961 2173 
Q 2067 2067 2176 1971 
Q 2029 1760 1766 1504 
z
" transform="scale(0.015625)"/>
      </defs>
      <use xlink:href="#NotoNaskhArabic-Regular-3"/>
      <use xlink:href="#NotoNaskhArabic-Regular-1c1" transform="translate(23.796875 0)"/>
      <use xlink:href="#NotoNaskhArabic-Regular-d6" transform="translate(45 0)"/>
      <use xlink:href="#NotoNaskhArabic-Regular-1e5" transform="translate(85.40625 0)"/>
      <use xlink:href="#NotoNaskhArabic-Regular-1e8" transform="translate(131 0)"/>
     </g>
    </g>
   </g>
   <g id="matplotlib.axis_2">
    <g id="ytick_1">
     <g id="line2d_1">
      <path d="M 50.2565 285.969658 
L 572.087172 285.969658 
" clip-path="url(#p2ccc776299)" style="fill: none; stroke: #e6e1d6; stroke-width: 0.8; stroke-linecap: square"/>
     </g>
     <g id="line2d_2">
      <defs>
       <path id="m11c33fb80d" d="M 0 0 
L -3.5 0 
" style="stroke: #555555; stroke-width: 0.8"/>
      </defs>
      <g>
       <use xlink:href="#m11c33fb80d" x="50.2565" y="285.969658" style="fill: #555555; stroke: #555555; stroke-width: 0.8"/>
      </g>
     </g>
     <g id="text_2">
      <!-- 0.5 -->
      <g style="fill: #b7791f" transform="translate(29.0815 291.581908) scale(0.105 -0.105)">
       <defs>
        <path id="NotoNaskhArabic-Regular-4cc" d="M 1824 -64 
Q 1082 -64 698 534 
Q 314 1133 314 2291 
Q 314 3488 682 4064 
Q 1050 4640 1824 4640 
Q 2566 4640 2956 4038 
Q 3347 3437 3347 2291 
Q 3347 1101 2969 518 
Q 2592 -64 1824 -64 
z
M 1824 416 
Q 2208 416 2426 678 
Q 2778 1094 2778 2291 
Q 2778 3571 2368 3962 
Q 2163 4160 1824 4160 
Q 1427 4160 1203 3878 
Q 877 3469 877 2291 
Q 877 1075 1229 666 
Q 1440 416 1824 416 
z
" transform="scale(0.015625)"/>
        <path id="NotoNaskhArabic-Regular-514" d="M 800 -422 
Q 646 -314 518 -230 
Q 390 -147 294 -90 
Q 326 -19 364 41 
Q 403 102 429 166 
Q 493 282 576 410 
Q 1069 122 1069 32 
Q 1069 -38 800 -422 
z
" transform="scale(0.015625)"/>
        <path id="NotoNaskhArabic-Regular-4d1" d="M 1587 -64 
Q 826 -64 403 186 
L 403 717 
Q 634 576 960 496 
Q 1286 416 1594 416 
Q 2131 416 2425 672 
Q 2720 928 2720 1402 
Q 2720 2330 1574 2330 
Q 1210 2330 794 2234 
L 512 2413 
L 685 4570 
L 2976 4570 
L 2976 4058 
L 1165 4058 
L 1056 2733 
Q 1235 2765 1411 2784 
Q 1587 2803 1760 2803 
Q 2477 2803 2886 2444 
Q 3296 2086 3296 1459 
Q 3296 749 2841 342 
Q 2387 -64 1587 -64 
z
" transform="scale(0.015625)"/>
       </defs>
       <use xlink:href="#NotoNaskhArabic-Regular-4cc"/>
       <use xlink:href="#NotoNaskhArabic-Regular-514" transform="translate(57.203125 0)"/>
       <use xlink:href="#NotoNaskhArabic-Regular-4d1" transform="translate(77.796875 0)"/>
      </g>
     </g>
    </g>
    <g id="ytick_2">
     <g id="line2d_3">
      <path d="M 50.2565 228.136109 
L 572.087172 228.136109 
" clip-path="url(#p2ccc776299)" style="fill: none; stroke: #e6e1d6; stroke-width: 0.8; stroke-linecap: square"/>
     </g>
     <g id="line2d_4">
      <g>
       <use xlink:href="#m11c33fb80d" x="50.2565" y="228.136109" style="fill: #555555; stroke: #555555; stroke-width: 0.8"/>
      </g>
     </g>
     <g id="text_3">
      <!-- 1.0 -->
      <g style="fill: #b7791f" transform="translate(29.0815 233.748359) scale(0.105 -0.105)">
       <defs>
        <path id="NotoNaskhArabic-Regular-4cd" d="M 1722 0 
L 1722 3194 
Q 1722 3405 1728 3603 
Q 1734 3802 1747 3981 
Q 1702 3936 1657 3891 
Q 1613 3846 1562 3808 
Q 1402 3674 1226 3530 
Q 1050 3386 864 3232 
L 570 3610 
L 1805 4570 
L 2272 4570 
L 2272 0 
L 1722 0 
z
" transform="scale(0.015625)"/>
       </defs>
       <use xlink:href="#NotoNaskhArabic-Regular-4cd"/>
       <use xlink:href="#NotoNaskhArabic-Regular-514" transform="translate(57.203125 0)"/>
       <use xlink:href="#NotoNaskhArabic-Regular-4cc" transform="translate(77.796875 0)"/>
      </g>
     </g>
    </g>
    <g id="ytick_3">
     <g id="line2d_5">
      <path d="M 50.2565 170.30256 
L 572.087172 170.30256 
" clip-path="url(#p2ccc776299)" style="fill: none; stroke: #e6e1d6; stroke-width: 0.8; stroke-linecap: square"/>
     </g>
     <g id="line2d_6">
      <g>
       <use xlink:href="#m11c33fb80d" x="50.2565" y="170.30256" style="fill: #555555; stroke: #555555; stroke-width: 0.8"/>
      </g>
     </g>
     <g id="text_4">
      <!-- 1.5 -->
      <g style="fill: #b7791f" transform="translate(29.0815 175.91481) scale(0.105 -0.105)">
       <use xlink:href="#NotoNaskhArabic-Regular-4cd"/>
       <use xlink:href="#NotoNaskhArabic-Regular-514" transform="translate(57.203125 0)"/>
       <use xlink:href="#NotoNaskhArabic-Regular-4d1" transform="translate(77.796875 0)"/>
      </g>
     </g>
    </g>
    <g id="ytick_4">
     <g id="line2d_7">
      <path d="M 50.2565 112.469011 
L 572.087172 112.469011 
" clip-path="url(#p2ccc776299)" style="fill: none; stroke: #e6e1d6; stroke-width: 0.8; stroke-linecap: square"/>
     </g>
     <g id="line2d_8">
      <g>
       <use xlink:href="#m11c33fb80d" x="50.2565" y="112.469011" style="fill: #555555; stroke: #555555; stroke-width: 0.8"/>
      </g>
     </g>
     <g id="text_5">
      <!-- 2.0 -->
      <g style="fill: #b7791f" transform="translate(29.0815 118.081261) scale(0.105 -0.105)">
       <defs>
        <path id="NotoNaskhArabic-Regular-4ce" d="M 307 0 
L 307 467 
L 1504 1677 
Q 1773 1952 1952 2147 
Q 2131 2342 2221 2458 
Q 2413 2720 2489 2925 
Q 2566 3130 2566 3386 
Q 2566 3744 2352 3949 
Q 2138 4154 1760 4154 
Q 1478 4154 1228 4058 
Q 979 3962 659 3718 
L 358 4096 
Q 1005 4634 1760 4634 
Q 2240 4634 2576 4448 
Q 2912 4262 3053 3923 
Q 3142 3686 3142 3418 
Q 3142 3123 3033 2841 
Q 2925 2560 2707 2272 
Q 2598 2131 2416 1929 
Q 2234 1728 1971 1478 
L 1018 538 
L 1018 512 
L 3328 512 
L 3328 0 
L 307 0 
z
" transform="scale(0.015625)"/>
       </defs>
       <use xlink:href="#NotoNaskhArabic-Regular-4ce"/>
       <use xlink:href="#NotoNaskhArabic-Regular-514" transform="translate(57.203125 0)"/>
       <use xlink:href="#NotoNaskhArabic-Regular-4cc" transform="translate(77.796875 0)"/>
      </g>
     </g>
    </g>
    <g id="ytick_5">
     <g id="line2d_9">
      <path d="M 50.2565 54.635463 
L 572.087172 54.635463 
" clip-path="url(#p2ccc776299)" style="fill: none; stroke: #e6e1d6; stroke-width: 0.8; stroke-linecap: square"/>
     </g>
     <g id="line2d_10">
      <g>
       <use xlink:href="#m11c33fb80d" x="50.2565" y="54.635463" style="fill: #555555; stroke: #555555; stroke-width: 0.8"/>
      </g>
     </g>
     <g id="text_6">
      <!-- 2.5 -->
      <g style="fill: #b7791f" transform="translate(29.0815 60.247713) scale(0.105 -0.105)">
       <use xlink:href="#NotoNaskhArabic-Regular-4ce"/>
       <use xlink:href="#NotoNaskhArabic-Regular-514" transform="translate(57.203125 0)"/>
       <use xlink:href="#NotoNaskhArabic-Regular-4d1" transform="translate(77.796875 0)"/>
      </g>
     </g>
    </g>
    <g id="text_7">
     <!-- (’║ö’╗│’╗«’║ī’╗Ż ’║ö’╗ä’╗ś’╗¦) ’║ō’║¬’║ŗ’║Ä’╗ö’╗¤’║Ź ’╗Ģ’║Ł’║Ä’╗ō -->
     <g style="fill: #b7791f" transform="translate(18.4245 207.43007) rotate(-90) scale(0.105 -0.105)">
      <defs>
       <path id="NotoNaskhArabic-Regular-146" d="M 6 0 
Q -51 0 -51 58 
L -51 429 
Q -51 486 6 486 
Q 698 486 1174 569 
Q 1651 653 2054 832 
Q 2042 960 2019 1085 
Q 1997 1210 1971 1331 
Q 1773 1171 1536 1075 
Q 1299 979 1062 979 
Q 781 979 601 1193 
Q 422 1408 422 1728 
Q 422 2054 534 2342 
Q 646 2630 819 2797 
Q 1011 2970 1216 2970 
Q 1549 2970 1805 2730 
Q 2061 2490 2214 2054 
Q 2362 1613 2362 1114 
Q 2362 896 2138 461 
Q 1882 301 1587 198 
Q 1293 96 912 48 
Q 531 0 6 0 
z
M 1210 1466 
Q 1530 1466 1888 1626 
Q 1766 2016 1568 2221 
Q 1370 2426 1120 2426 
Q 928 2426 797 2250 
Q 666 2074 666 1856 
Q 666 1658 797 1562 
Q 928 1466 1210 1466 
z
M 1196 3347 
Q 915 3558 736 3763 
Q 1062 4090 1184 4230 
Q 1286 4122 1391 4016 
Q 1497 3910 1606 3814 
Q 1459 3603 1196 3347 
z
" transform="scale(0.015625)"/>
       <path id="NotoNaskhArabic-Regular-4" d="M 1677 0 
Q 1299 0 1049 150 
Q 800 301 768 557 
Q 742 787 713 1072 
Q 685 1357 653 1747 
Q 621 2138 579 2672 
Q 538 3206 486 3936 
Q 576 4026 685 4118 
Q 794 4211 922 4294 
Q 941 3795 953 3308 
Q 966 2822 976 2281 
Q 986 1741 992 1082 
L 1011 653 
Q 1312 486 1677 486 
Q 1728 486 1728 435 
L 1728 51 
Q 1728 0 1677 0 
z
" transform="scale(0.015625)"/>
       <path id="NotoNaskhArabic-Regular-d3" d="M 710 -1306 
Q 608 -1306 451 -1248 
Q 294 -1190 134 -1107 
Q -26 -1024 -128 -947 
L -45 -736 
Q 134 -768 284 -787 
Q 435 -806 563 -806 
Q 1043 -806 1385 -518 
Q 1728 -230 1907 314 
Q 1862 416 1814 515 
Q 1766 614 1709 717 
Q 1491 1107 1388 1340 
Q 1286 1574 1286 1734 
Q 1286 1901 1382 2000 
Q 1478 2099 1658 2182 
Q 1696 2029 1789 1785 
Q 1882 1542 1946 1357 
Q 2029 1133 2086 915 
Q 2144 698 2144 518 
Q 2144 19 1955 -406 
Q 1766 -832 1440 -1069 
Q 1107 -1306 710 -1306 
z
" transform="scale(0.015625)"/>
       <path id="NotoNaskhArabic-Regular-167" d="M 1702 -1677 
Q 1101 -1677 768 -1360 
Q 435 -1043 435 -474 
Q 435 -346 444 -237 
Q 454 -128 480 9 
Q 506 147 557 358 
L 794 301 
Q 723 6 723 -154 
Q 723 -640 979 -893 
Q 1235 -1146 1722 -1146 
Q 2054 -1146 2409 -1043 
Q 2765 -941 3046 -755 
Q 3328 -576 3488 -326 
Q 3482 -122 3466 54 
Q 3450 230 3418 384 
Q 3213 192 2998 96 
Q 2784 0 2541 0 
Q 2176 0 1958 227 
Q 1741 454 1741 826 
Q 1741 1152 1872 1469 
Q 2003 1786 2214 1984 
Q 2426 2176 2643 2176 
Q 2944 2176 3222 1904 
Q 3501 1632 3661 1190 
Q 3814 762 3814 262 
Q 3814 -550 3194 -1094 
Q 2893 -1357 2486 -1517 
Q 2080 -1677 1702 -1677 
z
M 2694 525 
Q 2861 525 3024 560 
Q 3187 595 3347 672 
Q 3264 954 3129 1181 
Q 2995 1408 2842 1517 
Q 2682 1632 2541 1632 
Q 2413 1632 2285 1529 
Q 2157 1427 2067 1280 
Q 1990 1139 1990 1005 
Q 1990 774 2176 649 
Q 2362 525 2694 525 
z
M 3066 2528 
Q 2925 2637 2819 2736 
Q 2714 2835 2644 2925 
Q 2676 2957 2778 3066 
Q 2880 3175 3053 3354 
Q 3092 3315 3191 3219 
Q 3290 3123 3450 2970 
Q 3328 2778 3066 2528 
z
M 2106 2439 
Q 1965 2554 1856 2653 
Q 1748 2752 1677 2829 
Q 1844 2989 2093 3264 
Q 2132 3219 2228 3123 
Q 2324 3027 2484 2880 
Q 2426 2784 2330 2675 
Q 2234 2567 2106 2439 
z
" transform="scale(0.015625)"/>
       <path id="NotoNaskhArabic-Regular-554" transform="scale(0.015625)"/>
       <path id="NotoNaskhArabic-Regular-145" d="M 6 0 
Q -51 0 -51 58 
L -51 429 
Q -51 486 6 486 
Q 186 486 320 492 
Q 454 499 557 512 
Q 320 774 320 1062 
Q 320 1171 339 1308 
Q 358 1446 384 1564 
Q 410 1683 435 1728 
Q 602 2029 870 2211 
Q 1139 2394 1446 2394 
Q 1613 2394 1766 2234 
Q 1920 2074 2016 1798 
Q 2118 1530 2118 1248 
Q 2118 845 1843 518 
Q 1946 506 2118 496 
Q 2291 486 2528 486 
Q 2586 486 2586 435 
L 2586 51 
Q 2586 0 2528 0 
Q 1734 0 1216 205 
Q 998 96 707 48 
Q 416 0 6 0 
z
M 1216 659 
Q 1581 794 1869 1050 
Q 1850 1210 1763 1402 
Q 1677 1594 1568 1722 
Q 1453 1850 1389 1850 
Q 1267 1850 1113 1750 
Q 960 1651 809 1484 
Q 659 1318 557 1120 
Q 826 813 1216 659 
z
M 1292 2771 
Q 1011 2982 832 3187 
Q 1158 3514 1280 3654 
Q 1382 3546 1487 3440 
Q 1593 3334 1702 3238 
Q 1555 3027 1292 2771 
z
" transform="scale(0.015625)"/>
       <path id="NotoNaskhArabic-Regular-245" d="M 0 0 
Q -51 0 -51 51 
L -51 435 
Q -51 486 0 486 
Q 294 486 598 553 
Q 902 621 1133 723 
Q 1088 870 1030 1046 
Q 973 1222 902 1427 
Q 781 1747 781 1856 
Q 781 1997 893 2144 
Q 1005 2291 1197 2394 
Q 1210 2304 1248 2121 
Q 1286 1939 1344 1658 
Q 1440 1235 1440 1005 
Q 1440 909 1379 733 
Q 1318 557 1210 352 
Q 627 0 0 0 
z
M 393 2593 
L 373 2867 
L 654 3022 
Q 393 3065 393 3304 
Q 393 3438 470 3564 
Q 548 3691 671 3775 
Q 795 3860 915 3860 
Q 1190 3860 1190 3600 
Q 1190 3501 1140 3409 
L 1006 3445 
L 1014 3473 
Q 1014 3508 985 3536 
Q 957 3565 921 3565 
Q 809 3565 721 3484 
Q 633 3403 591 3297 
Q 710 3156 929 3156 
Q 1056 3156 1273 3198 
L 1260 2931 
Q 971 2861 784 2783 
Q 598 2705 393 2593 
z
" transform="scale(0.015625)"/>
       <path id="NotoNaskhArabic-Regular-b6" d="M 998 0 
Q 218 0 218 403 
Q 218 621 333 742 
Q 493 614 697 550 
Q 902 486 1203 486 
Q 1606 486 2086 621 
Q 1926 909 1795 1209 
Q 1664 1510 1587 1760 
Q 1510 2010 1510 2125 
Q 1510 2445 1850 2547 
Q 1997 2003 2144 1564 
Q 2291 1126 2509 819 
Q 2637 634 2771 560 
Q 2906 486 3085 486 
Q 3142 486 3142 435 
L 3142 51 
Q 3142 0 3085 0 
Q 2829 0 2633 86 
Q 2438 173 2291 333 
Q 1709 0 998 0 
z
" transform="scale(0.015625)"/>
       <path id="NotoNaskhArabic-Regular-214" d="M 1216 0 
Q 864 0 649 211 
Q 435 422 435 806 
Q 435 1107 585 1408 
Q 736 1709 1069 2022 
Q 966 2080 937 2157 
Q 909 2234 909 2304 
Q 909 2406 957 2496 
Q 1005 2586 1075 2611 
Q 1363 2509 1638 2272 
Q 1914 2035 2099 1709 
Q 2285 1389 2285 1126 
Q 2285 1030 2243 889 
Q 2202 749 2134 601 
Q 2067 454 1993 339 
Q 1920 224 1850 179 
Q 1587 0 1216 0 
z
M 1286 512 
Q 1459 512 1664 605 
Q 1869 698 1971 794 
Q 1837 1427 1248 1882 
Q 1011 1664 870 1421 
Q 730 1178 730 992 
Q 730 768 877 640 
Q 1024 512 1286 512 
z
M 1683 2995 
Q 1542 3104 1436 3203 
Q 1331 3302 1261 3392 
Q 1293 3424 1395 3533 
Q 1497 3642 1670 3821 
Q 1709 3782 1808 3686 
Q 1907 3590 2067 3437 
Q 1945 3245 1683 2995 
z
M 723 2906 
Q 582 3021 473 3120 
Q 365 3219 294 3296 
Q 461 3456 710 3731 
Q 749 3686 845 3590 
Q 941 3494 1101 3347 
Q 1043 3251 947 3142 
Q 851 3034 723 2906 
z
" transform="scale(0.015625)"/>
       <path id="DejaVuSans-b" d="M 1984 4856 
Q 1566 4138 1362 3434 
Q 1159 2731 1159 2009 
Q 1159 1288 1364 580 
Q 1569 -128 1984 -844 
L 1484 -844 
Q 1016 -109 783 600 
Q 550 1309 550 2009 
Q 550 2706 781 3412 
Q 1013 4119 1484 4856 
L 1984 4856 
z
" transform="scale(0.015625)"/>
       <path id="NotoNaskhArabic-Regular-1ea" d="M 0 0 
Q -51 0 -51 51 
L -51 435 
Q -51 486 0 486 
Q 294 486 598 553 
Q 902 621 1133 723 
Q 1088 870 1030 1046 
Q 973 1222 902 1427 
Q 781 1747 781 1856 
Q 781 1997 893 2144 
Q 1005 2291 1197 2394 
Q 1210 2304 1248 2121 
Q 1286 1939 1344 1658 
Q 1440 1235 1440 1005 
Q 1440 909 1379 733 
Q 1318 557 1210 352 
Q 627 0 0 0 
z
M 876 2829 
Q 595 3040 416 3245 
Q 742 3572 864 3712 
Q 966 3604 1071 3498 
Q 1177 3392 1286 3296 
Q 1139 3085 876 2829 
z
" transform="scale(0.015625)"/>
       <path id="NotoNaskhArabic-Regular-169" d="M 6 0 
Q -51 0 -51 58 
L -51 429 
Q -51 486 6 486 
Q 186 486 320 492 
Q 454 499 557 512 
Q 320 774 320 1062 
Q 320 1171 339 1308 
Q 358 1446 384 1564 
Q 410 1683 435 1728 
Q 602 2029 870 2211 
Q 1139 2394 1446 2394 
Q 1613 2394 1766 2234 
Q 1920 2074 2016 1798 
Q 2118 1530 2118 1248 
Q 2118 845 1843 518 
Q 1946 506 2118 496 
Q 2291 486 2528 486 
Q 2586 486 2586 435 
L 2586 51 
Q 2586 0 2528 0 
Q 1734 0 1216 205 
Q 998 96 707 48 
Q 416 0 6 0 
z
M 1216 659 
Q 1581 794 1869 1050 
Q 1850 1210 1763 1402 
Q 1677 1594 1568 1722 
Q 1453 1850 1389 1850 
Q 1267 1850 1113 1750 
Q 960 1651 809 1484 
Q 659 1318 557 1120 
Q 826 813 1216 659 
z
M 1760 2745 
Q 1619 2854 1513 2953 
Q 1408 3052 1338 3142 
Q 1370 3174 1472 3283 
Q 1574 3392 1747 3571 
Q 1786 3532 1885 3436 
Q 1984 3340 2144 3187 
Q 2022 2995 1760 2745 
z
M 800 2656 
Q 659 2771 550 2870 
Q 442 2969 371 3046 
Q 538 3206 787 3481 
Q 826 3436 922 3340 
Q 1018 3244 1178 3097 
Q 1120 3001 1024 2892 
Q 928 2784 800 2656 
z
" transform="scale(0.015625)"/>
       <path id="NotoNaskhArabic-Regular-125" d="M 0 0 
Q -51 0 -51 51 
L -51 435 
Q -51 486 0 486 
Q 141 493 275 493 
Q 410 493 550 493 
Q 653 634 755 768 
Q 858 902 960 1030 
Q 755 2176 652 2851 
Q 550 3526 544 3789 
Q 544 4000 643 4121 
Q 742 4243 966 4294 
Q 998 4173 1046 4013 
Q 1094 3853 1197 3533 
L 1030 3392 
Q 1037 3283 1056 3097 
Q 1075 2912 1097 2710 
Q 1120 2509 1136 2349 
Q 1152 2189 1158 2131 
Q 1190 1811 1203 1606 
Q 1216 1402 1222 1331 
Q 1677 1830 2077 2096 
Q 2477 2362 2771 2362 
Q 2950 2362 3216 2214 
Q 3482 2067 3693 1837 
Q 3898 1600 3898 1427 
Q 3898 947 3450 634 
Q 3731 486 4083 486 
Q 4134 486 4134 435 
L 4134 51 
Q 4134 0 4083 0 
Q 3795 0 3510 121 
Q 3226 243 3078 422 
Q 2643 224 1868 112 
Q 1094 0 0 0 
z
M 909 499 
Q 1542 525 2003 585 
Q 2464 646 2758 755 
Q 2906 806 3117 905 
Q 3328 1005 3603 1146 
Q 3418 1466 3155 1648 
Q 2893 1830 2611 1830 
Q 2323 1830 1875 1478 
Q 1427 1126 909 499 
z
" transform="scale(0.015625)"/>
       <path id="NotoNaskhArabic-Regular-215" d="M 3040 0 
Q 2656 0 2416 147 
Q 2176 294 2138 557 
L 2112 691 
L 1882 250 
Q 1651 275 1520 291 
Q 1389 307 1305 332 
Q 1222 358 1126 397 
Q 1011 442 873 515 
Q 736 589 633 675 
Q 531 762 531 838 
Q 531 896 572 1014 
Q 614 1133 668 1251 
Q 723 1370 762 1434 
Q 813 1523 922 1632 
Q 1088 1792 1344 1955 
Q 1600 2118 1875 2227 
L 1850 2400 
Q 2074 2598 2317 2733 
Q 2330 2214 2349 1696 
Q 2368 1178 2374 659 
Q 2675 486 3040 486 
Q 3098 486 3098 435 
L 3098 51 
Q 3098 0 3040 0 
z
M 2099 768 
Q 2061 1018 2019 1283 
Q 1978 1549 1933 1811 
Q 1171 1555 845 1139 
Q 1018 986 1219 909 
Q 1421 832 1645 800 
Q 1754 787 1869 780 
Q 1984 774 2099 768 
z
M 2067 2995 
Q 1926 3104 1820 3203 
Q 1715 3302 1645 3392 
Q 1677 3424 1779 3533 
Q 1881 3642 2054 3821 
Q 2093 3782 2192 3686 
Q 2291 3590 2451 3437 
Q 2329 3245 2067 2995 
z
M 1107 2906 
Q 966 3021 857 3120 
Q 749 3219 678 3296 
Q 845 3456 1094 3731 
Q 1133 3686 1229 3590 
Q 1325 3494 1485 3347 
Q 1427 3251 1331 3142 
Q 1235 3034 1107 2906 
z
" transform="scale(0.015625)"/>
       <path id="NotoNaskhArabic-Regular-244" d="M 0 0 
Q -51 0 -51 51 
L -51 435 
Q -51 486 0 486 
Q 467 486 666 666 
Q 723 717 812 870 
Q 902 1024 1075 1350 
Q 1133 1459 1274 1459 
Q 1350 1459 1434 1408 
Q 1363 1242 1286 1069 
Q 1210 896 1120 730 
Q 1344 595 1526 540 
Q 1709 486 1926 486 
Q 1978 486 1978 435 
L 1978 51 
Q 1978 0 1926 0 
Q 1331 0 915 378 
Q 890 339 864 304 
Q 838 269 806 237 
Q 742 154 502 77 
Q 262 0 0 0 
z
M 521 1825 
L 501 2099 
L 782 2254 
Q 521 2297 521 2536 
Q 521 2670 598 2796 
Q 676 2923 799 3007 
Q 923 3092 1043 3092 
Q 1318 3092 1318 2832 
Q 1318 2733 1268 2641 
L 1134 2677 
L 1142 2705 
Q 1142 2740 1113 2768 
Q 1085 2797 1049 2797 
Q 937 2797 849 2716 
Q 761 2635 719 2529 
Q 838 2388 1057 2388 
Q 1184 2388 1401 2430 
L 1388 2163 
Q 1099 2093 912 2015 
Q 726 1937 521 1825 
z
" transform="scale(0.015625)"/>
       <path id="NotoNaskhArabic-Regular-219" d="M 1235 -1299 
Q 1101 -1299 905 -1238 
Q 710 -1178 521 -1082 
Q 333 -986 218 -890 
L 307 -678 
Q 646 -800 1088 -800 
Q 1485 -800 1792 -605 
Q 2099 -410 2310 6 
Q 1997 19 1763 44 
Q 1530 70 1376 115 
Q 1037 205 902 374 
Q 768 544 768 877 
Q 768 1203 899 1523 
Q 1030 1843 1242 2035 
Q 1453 2227 1670 2227 
Q 1933 2227 2163 1990 
Q 2394 1754 2534 1338 
Q 2605 1126 2637 918 
Q 2669 710 2669 486 
L 3053 486 
Q 3104 486 3104 435 
L 3104 51 
Q 3104 0 3053 0 
L 2605 0 
Q 2509 -365 2304 -669 
Q 2099 -973 1818 -1139 
Q 1542 -1299 1235 -1299 
z
M 2413 493 
Q 2362 826 2234 1094 
Q 2106 1363 1933 1523 
Q 1760 1683 1574 1683 
Q 1440 1683 1309 1580 
Q 1178 1478 1094 1331 
Q 1011 1184 1011 1062 
Q 1011 838 1177 720 
Q 1344 602 1632 550 
Q 1779 525 1968 515 
Q 2157 506 2413 493 
z
" transform="scale(0.015625)"/>
       <path id="NotoNaskhArabic-Regular-241" d="M 0 0 
Q -51 0 -51 51 
L -51 435 
Q -51 486 0 486 
Q 314 486 618 515 
Q 922 544 1171 598 
Q 1421 653 1568 723 
Q 1536 851 1478 1027 
Q 1421 1203 1331 1427 
Q 1274 1594 1242 1699 
Q 1210 1805 1210 1856 
Q 1210 1997 1325 2144 
Q 1440 2291 1632 2394 
Q 1715 2022 1766 1782 
Q 1818 1542 1843 1369 
Q 1869 1197 1869 1005 
Q 1869 781 1651 352 
Q 1478 250 1206 170 
Q 934 90 620 45 
Q 307 0 0 0 
z
M 1581 -1165 
Q 1312 -953 1165 -774 
Q 1306 -640 1574 -345 
Q 1606 -371 1702 -467 
Q 1798 -563 1971 -729 
Q 1907 -819 1811 -928 
Q 1715 -1037 1581 -1165 
z
M 627 -1261 
Q 339 -1030 198 -870 
Q 288 -793 390 -684 
Q 493 -576 614 -435 
Q 640 -467 739 -563 
Q 838 -659 1005 -819 
Q 947 -915 851 -1024 
Q 755 -1133 627 -1261 
z
" transform="scale(0.015625)"/>
       <path id="DejaVuSans-c" d="M 513 4856 
L 1013 4856 
Q 1481 4119 1714 3412 
Q 1947 2706 1947 2009 
Q 1947 1309 1714 600 
Q 1481 -109 1013 -844 
L 513 -844 
Q 928 -128 1133 580 
Q 1338 1288 1338 2009 
Q 1338 2731 1133 3434 
Q 928 4138 513 4856 
z
" transform="scale(0.015625)"/>
      </defs>
      <use xlink:href="#NotoNaskhArabic-Regular-146"/>
      <use xlink:href="#NotoNaskhArabic-Regular-4" transform="translate(42 0)"/>
      <use xlink:href="#NotoNaskhArabic-Regular-d3" transform="translate(67.296875 0)"/>
      <use xlink:href="#NotoNaskhArabic-Regular-167" transform="translate(105.890625 0)"/>
      <use xlink:href="#NotoNaskhArabic-Regular-554" transform="translate(170.59375 0)"/>
      <use xlink:href="#NotoNaskhArabic-Regular-3" transform="translate(192.6875 0)"/>
      <use xlink:href="#NotoNaskhArabic-Regular-1c1" transform="translate(216.484375 0)"/>
      <use xlink:href="#NotoNaskhArabic-Regular-145" transform="translate(237.6875 0)"/>
      <use xlink:href="#NotoNaskhArabic-Regular-4" transform="translate(276.390625 0)"/>
      <use xlink:href="#NotoNaskhArabic-Regular-245" transform="translate(301.6875 0)"/>
      <use xlink:href="#NotoNaskhArabic-Regular-b6" transform="translate(329.1875 0)"/>
      <use xlink:href="#NotoNaskhArabic-Regular-214" transform="translate(376.59375 0)"/>
      <use xlink:href="#NotoNaskhArabic-Regular-554" transform="translate(417.390625 0)"/>
      <use xlink:href="#DejaVuSans-b" transform="translate(439.484375 0)"/>
      <use xlink:href="#NotoNaskhArabic-Regular-1ea" transform="translate(478.5 0)"/>
      <use xlink:href="#NotoNaskhArabic-Regular-169" transform="translate(506 0)"/>
      <use xlink:href="#NotoNaskhArabic-Regular-125" transform="translate(544.703125 0)"/>
      <use xlink:href="#NotoNaskhArabic-Regular-215" transform="translate(607.609375 0)"/>
      <use xlink:href="#NotoNaskhArabic-Regular-554" transform="translate(654.3125 0)"/>
      <use xlink:href="#NotoNaskhArabic-Regular-1e5" transform="translate(676.40625 0)"/>
      <use xlink:href="#NotoNaskhArabic-Regular-244" transform="translate(722 0)"/>
      <use xlink:href="#NotoNaskhArabic-Regular-219" transform="translate(751.203125 0)"/>
      <use xlink:href="#NotoNaskhArabic-Regular-241" transform="translate(798 0)"/>
      <use xlink:href="#NotoNaskhArabic-Regular-215" transform="translate(832.296875 0)"/>
      <use xlink:href="#DejaVuSans-c" transform="translate(879 0)"/>
     </g>
    </g>
   </g>
   <g id="line2d_11">
    <path d="M 73.976076 297.447205 
L 90.334404 283.353457 
L 106.692733 274.159858 
L 123.051061 251.10885 
L 139.409389 258.845153 
L 155.767717 234.27118 
L 172.126046 230.167297 
L 188.484374 222.917958 
L 204.842702 209.898523 
L 221.20103 213.145044 
L 237.559359 193.424528 
L 253.917687 178.899812 
L 270.276015 169.120546 
L 286.634344 169.671655 
L 302.992672 153.624815 
L 319.351 143.772638 
L 335.709328 141.649332 
L 352.067657 128.106251 
L 368.425985 118.220562 
L 384.784313 102.105671 
L 401.142641 96.415219 
L 417.50097 97.88547 
L 433.859298 85.748206 
L 450.217626 69.342603 
L 466.575955 62.950563 
L 482.934283 54.863363 
L 499.292611 45.602573 
L 515.650939 42.340823 
L 532.009268 35.493318 
L 548.367596 21.021295 
" clip-path="url(#p2ccc776299)" style="fill: none; stroke: #b7791f; stroke-width: 2.2; stroke-linecap: square"/>
   </g>
   <g id="patch_3">
    <path d="M 50.2565 311.2685 
L 50.2565 7.2 
" style="fill: none; stroke: #1f2937; stroke-width: 0.8; stroke-linejoin: miter; stroke-linecap: square"/>
   </g>
   <g id="patch_4">
    <path d="M 572.087172 311.2685 
L 572.087172 7.2 
" style="fill: none; stroke: #1f2937; stroke-width: 0.8; stroke-linejoin: miter; stroke-linecap: square"/>
   </g>
   <g id="patch_5">
    <path d="M 50.2565 311.2685 
L 572.087172 311.2685 
" style="fill: none; stroke: #1f2937; stroke-width: 0.8; stroke-linejoin: miter; stroke-linecap: square"/>
   </g>
  </g>
  <g id="axes_2">
   <g id="matplotlib.axis_3">
    <g id="ytick_6">
     <g id="line2d_12">
      <defs>
       <path id="m60c2a1eccc" d="M 0 0 
L 3.5 0 
" style="stroke: #555555; stroke-width: 0.8"/>
      </defs>
      <g>
       <use xlink:href="#m60c2a1eccc" x="572.087172" y="292.458424" style="fill: #555555; stroke: #555555; stroke-width: 0.8"/>
      </g>
     </g>
     <g id="text_8">
      <!-- 1.10 -->
      <g style="fill: #1f2937" transform="translate(579.087172 298.070674) scale(0.105 -0.105)">
       <use xlink:href="#NotoNaskhArabic-Regular-4cd"/>
       <use xlink:href="#NotoNaskhArabic-Regular-514" transform="translate(57.203125 0)"/>
       <use xlink:href="#NotoNaskhArabic-Regular-4cd" transform="translate(77.796875 0)"/>
       <use xlink:href="#NotoNaskhArabic-Regular-4cc" transform="translate(135 0)"/>
      </g>
     </g>
    </g>
    <g id="ytick_7">
     <g id="line2d_13">
      <g>
       <use xlink:href="#m60c2a1eccc" x="572.087172" y="237.262036" style="fill: #555555; stroke: #555555; stroke-width: 0.8"/>
      </g>
     </g>
     <g id="text_9">
      <!-- 1.12 -->
      <g style="fill: #1f2937" transform="translate(579.087172 242.874286) scale(0.105 -0.105)">
       <use xlink:href="#NotoNaskhArabic-Regular-4cd"/>
       <use xlink:href="#NotoNaskhArabic-Regular-514" transform="translate(57.203125 0)"/>
       <use xlink:href="#NotoNaskhArabic-Regular-4cd" transform="translate(77.796875 0)"/>
       <use xlink:href="#NotoNaskhArabic-Regular-4ce" transform="translate(135 0)"/>
      </g>
     </g>
    </g>
    <g id="ytick_8">
     <g id="line2d_14">
      <g>
       <use xlink:href="#m60c2a1eccc" x="572.087172" y="182.065648" style="fill: #555555; stroke: #555555; stroke-width: 0.8"/>
      </g>
     </g>
     <g id="text_10">
      <!-- 1.14 -->
      <g style="fill: #1f2937" transform="translate(579.087172 187.677898) scale(0.105 -0.105)">
       <defs>
        <path id="NotoNaskhArabic-Regular-4d0" d="M 2323 0 
L 2323 1037 
L 134 1037 
L 134 1517 
L 2285 4595 
L 2867 4595 
L 2867 1542 
L 3533 1542 
L 3533 1037 
L 2867 1037 
L 2867 0 
L 2323 0 
z
M 685 1542 
L 2323 1542 
L 2323 2982 
Q 2323 3194 2332 3446 
Q 2342 3699 2355 3994 
L 2330 3994 
Q 2298 3910 2211 3747 
Q 2125 3584 2054 3494 
L 685 1542 
z
" transform="scale(0.015625)"/>
       </defs>
       <use xlink:href="#NotoNaskhArabic-Regular-4cd"/>
       <use xlink:href="#NotoNaskhArabic-Regular-514" transform="translate(57.203125 0)"/>
       <use xlink:href="#NotoNaskhArabic-Regular-4cd" transform="translate(77.796875 0)"/>
       <use xlink:href="#NotoNaskhArabic-Regular-4d0" transform="translate(135 0)"/>
      </g>
     </g>
    </g>
    <g id="ytick_9">
     <g id="line2d_15">
      <g>
       <use xlink:href="#m60c2a1eccc" x="572.087172" y="126.86926" style="fill: #555555; stroke: #555555; stroke-width: 0.8"/>
      </g>
     </g>
     <g id="text_11">
      <!-- 1.16 -->
      <g style="fill: #1f2937" transform="translate(579.087172 132.48151) scale(0.105 -0.105)">
       <defs>
        <path id="NotoNaskhArabic-Regular-4d2" d="M 1907 -64 
Q 1440 -64 1088 176 
Q 736 416 544 870 
Q 352 1331 352 1952 
Q 352 4634 2445 4634 
Q 2810 4634 3008 4576 
L 3008 4096 
Q 2771 4173 2458 4173 
Q 1984 4173 1654 3987 
Q 1325 3802 1139 3405 
Q 941 2976 915 2323 
L 954 2323 
Q 1299 2861 2035 2861 
Q 2656 2861 3008 2486 
Q 3360 2112 3360 1472 
Q 3360 762 2969 349 
Q 2579 -64 1907 -64 
z
M 1901 410 
Q 2336 410 2569 688 
Q 2803 966 2803 1472 
Q 2803 1926 2576 2172 
Q 2349 2419 1920 2419 
Q 1645 2419 1421 2307 
Q 1197 2195 1056 1997 
Q 922 1798 922 1581 
Q 922 1267 1050 995 
Q 1178 723 1395 563 
Q 1619 410 1901 410 
z
" transform="scale(0.015625)"/>
       </defs>
       <use xlink:href="#NotoNaskhArabic-Regular-4cd"/>
       <use xlink:href="#NotoNaskhArabic-Regular-514" transform="translate(57.203125 0)"/>
       <use xlink:href="#NotoNaskhArabic-Regular-4cd" transform="translate(77.796875 0)"/>
       <use xlink:href="#NotoNaskhArabic-Regular-4d2" transform="translate(135 0)"/>
      </g>
     </g>
    </g>
    <g id="ytick_10">
     <g id="line2d_16">
      <g>
       <use xlink:href="#m60c2a1eccc" x="572.087172" y="71.672873" style="fill: #555555; stroke: #555555; stroke-width: 0.8"/>
      </g>
     </g>
     <g id="text_12">
      <!-- 1.18 -->
      <g style="fill: #1f2937" transform="translate(579.087172 77.285123) scale(0.105 -0.105)">
       <defs>
        <path id="NotoNaskhArabic-Regular-4d4" d="M 1843 -64 
Q 1114 -64 714 256 
Q 314 576 314 1165 
Q 314 1946 1261 2387 
Q 832 2630 646 2912 
Q 461 3194 461 3546 
Q 461 4045 832 4339 
Q 1203 4634 1824 4634 
Q 2451 4634 2822 4342 
Q 3194 4051 3194 3539 
Q 3194 3200 2986 2928 
Q 2778 2656 2323 2419 
Q 2874 2150 3107 1856 
Q 3341 1562 3341 1184 
Q 3341 621 2937 278 
Q 2534 -64 1843 -64 
z
M 1850 2637 
Q 2278 2816 2457 3030 
Q 2637 3245 2637 3520 
Q 2637 3834 2416 4006 
Q 2195 4179 1818 4179 
Q 1446 4179 1228 4003 
Q 1011 3827 1011 3520 
Q 1011 3322 1094 3171 
Q 1178 3021 1338 2906 
Q 1498 2784 1850 2637 
z
M 1830 384 
Q 2278 384 2534 595 
Q 2790 806 2790 1178 
Q 2790 1478 2547 1712 
Q 2304 1946 1728 2157 
Q 1280 1965 1072 1728 
Q 864 1491 864 1158 
Q 864 800 1123 592 
Q 1382 384 1830 384 
z
" transform="scale(0.015625)"/>
       </defs>
       <use xlink:href="#NotoNaskhArabic-Regular-4cd"/>
       <use xlink:href="#NotoNaskhArabic-Regular-514" transform="translate(57.203125 0)"/>
       <use xlink:href="#NotoNaskhArabic-Regular-4cd" transform="translate(77.796875 0)"/>
       <use xlink:href="#NotoNaskhArabic-Regular-4d4" transform="translate(135 0)"/>
      </g>
     </g>
    </g>
    <g id="ytick_11">
     <g id="line2d_17">
      <g>
       <use xlink:href="#m60c2a1eccc" x="572.087172" y="16.476485" style="fill: #555555; stroke: #555555; stroke-width: 0.8"/>
      </g>
     </g>
     <g id="text_13">
      <!-- 1.20 -->
      <g style="fill: #1f2937" transform="translate(579.087172 22.088735) scale(0.105 -0.105)">
       <use xlink:href="#NotoNaskhArabic-Regular-4cd"/>
       <use xlink:href="#NotoNaskhArabic-Regular-514" transform="translate(57.203125 0)"/>
       <use xlink:href="#NotoNaskhArabic-Regular-4ce" transform="translate(77.796875 0)"/>
       <use xlink:href="#NotoNaskhArabic-Regular-4cc" transform="translate(135 0)"/>
      </g>
     </g>
    </g>
    <g id="text_14">
     <!-- ’║Ģ’╗╝’╗ż’╗ī’╗¤’║Ź ’║Ø’╗Ł’║» -->
     <g style="fill: #1f2937" transform="translate(614.493 182.17593) rotate(-90) scale(0.105 -0.105)">
      <defs>
       <path id="NotoNaskhArabic-Regular-d5" d="M 710 -1306 
Q 608 -1306 451 -1248 
Q 294 -1190 134 -1107 
Q -26 -1024 -128 -947 
L -45 -736 
Q 134 -768 284 -787 
Q 435 -806 563 -806 
Q 1043 -806 1385 -518 
Q 1728 -230 1907 314 
Q 1862 416 1814 515 
Q 1766 614 1709 717 
Q 1491 1107 1388 1340 
Q 1286 1574 1286 1734 
Q 1286 1901 1382 2000 
Q 1478 2099 1658 2182 
Q 1696 2029 1789 1785 
Q 1882 1542 1946 1357 
Q 2029 1133 2086 915 
Q 2144 698 2144 518 
Q 2144 19 1955 -406 
Q 1766 -832 1440 -1069 
Q 1107 -1306 710 -1306 
z
M 1299 2560 
Q 1018 2771 839 2976 
Q 1165 3303 1287 3443 
Q 1389 3335 1494 3229 
Q 1600 3123 1709 3027 
Q 1562 2816 1299 2560 
z
" transform="scale(0.015625)"/>
       <path id="NotoNaskhArabic-Regular-218" d="M 1235 -1299 
Q 1101 -1299 905 -1238 
Q 710 -1178 521 -1082 
Q 333 -986 218 -890 
L 307 -678 
Q 646 -800 1088 -800 
Q 1568 -800 1910 -515 
Q 2253 -230 2432 314 
L 2426 365 
Q 2042 0 1568 0 
Q 1197 0 982 227 
Q 768 454 768 826 
Q 768 1152 899 1469 
Q 1030 1786 1242 1984 
Q 1453 2176 1670 2176 
Q 1920 2176 2147 1955 
Q 2374 1734 2522 1325 
Q 2598 1120 2633 918 
Q 2669 717 2669 518 
Q 2669 218 2576 -83 
Q 2483 -384 2320 -637 
Q 2157 -890 1939 -1056 
Q 1606 -1299 1235 -1299 
z
M 1722 525 
Q 1882 525 2013 550 
Q 2144 576 2368 666 
Q 2291 966 2150 1196 
Q 2010 1427 1843 1536 
Q 1709 1632 1574 1632 
Q 1440 1632 1312 1533 
Q 1184 1434 1094 1280 
Q 1011 1126 1011 1005 
Q 1011 774 1196 649 
Q 1382 525 1722 525 
z
" transform="scale(0.015625)"/>
       <path id="NotoNaskhArabic-Regular-71" d="M 2304 -1837 
Q 1510 -1837 1078 -1433 
Q 646 -1030 646 -269 
Q 646 128 841 521 
Q 1037 915 1382 1216 
Q 1734 1517 2131 1670 
Q 2054 1702 1891 1756 
Q 1728 1811 1549 1856 
Q 1370 1901 1229 1901 
Q 1037 1901 899 1853 
Q 762 1805 531 1658 
Q 493 1690 464 1757 
Q 435 1824 435 1901 
Q 435 2144 649 2291 
Q 864 2438 1210 2438 
Q 1485 2438 1750 2368 
Q 2016 2298 2285 2214 
Q 2554 2131 2829 2060 
Q 3104 1990 3398 1990 
L 3821 2003 
L 3635 1510 
Q 3546 1498 3456 1491 
Q 3366 1485 3277 1485 
Q 3014 1466 2713 1386 
Q 2413 1306 2128 1178 
Q 1843 1050 1606 883 
Q 1254 640 1062 345 
Q 870 51 870 -269 
Q 870 -774 1228 -1043 
Q 1587 -1312 2323 -1312 
Q 2720 -1312 3110 -1264 
Q 3501 -1216 3885 -1133 
L 3962 -1344 
Q 3494 -1600 3088 -1718 
Q 2682 -1837 2304 -1837 
z
M 2407 -480 
Q 2266 -371 2150 -265 
Q 2035 -160 1946 -57 
Q 2234 218 2394 410 
Q 2618 173 2816 -12 
Q 2663 -224 2407 -480 
z
" transform="scale(0.015625)"/>
       <path id="NotoNaskhArabic-Regular-135" d="M 6 0 
Q -51 0 -51 58 
L -51 429 
Q -51 486 6 486 
Q 672 486 1101 640 
L 986 787 
Q 864 973 771 1094 
Q 678 1216 621 1280 
Q 506 1427 410 1491 
L 307 1427 
Q 192 1555 192 1709 
Q 192 1862 297 1974 
Q 403 2086 566 2172 
Q 730 2259 902 2310 
Q 1158 2394 1446 2394 
Q 1722 2394 1936 2288 
Q 2150 2182 2272 2003 
Q 2400 1824 2400 1594 
Q 2400 1293 2243 1049 
Q 2086 806 1830 602 
Q 2099 486 2694 486 
Q 2758 486 2758 429 
L 2758 58 
Q 2758 0 2694 0 
Q 2259 0 1955 83 
Q 1651 166 1402 346 
Q 1050 166 723 83 
Q 397 0 6 0 
z
M 1478 845 
Q 1696 992 1821 1152 
Q 1946 1312 1946 1459 
Q 1946 1638 1811 1753 
Q 1677 1869 1466 1869 
Q 1075 1869 710 1677 
Q 947 1491 1325 1018 
Q 1395 934 1478 845 
z
" transform="scale(0.015625)"/>
       <path id="NotoNaskhArabic-Regular-1e4" d="M 2016 0 
Q 1414 0 902 192 
Q 595 77 400 38 
Q 205 0 0 0 
Q -51 0 -51 51 
L -51 435 
Q -51 486 0 486 
Q 109 486 211 505 
Q 314 525 416 550 
Q 371 640 371 749 
Q 371 928 460 1152 
Q 550 1376 700 1590 
Q 851 1805 1037 1952 
Q 1318 2176 1568 2176 
Q 1677 2176 1760 2051 
Q 1843 1926 1926 1734 
Q 1971 1645 2009 1542 
Q 2048 1440 2086 1331 
Q 2163 1114 2252 928 
Q 2342 742 2445 614 
Q 2554 486 2682 486 
Q 2752 486 2752 422 
L 2752 70 
Q 2752 0 2682 0 
Q 2362 0 2099 282 
L 2016 0 
z
M 1978 442 
Q 1837 646 1728 979 
Q 1619 1312 1581 1683 
Q 1421 1613 1241 1475 
Q 1062 1338 918 1178 
Q 774 1018 704 877 
Q 1133 525 1978 442 
z
" transform="scale(0.015625)"/>
       <path id="NotoNaskhArabic-Regular-2df" d="M 358 0 
L 339 224 
Q 1075 403 1382 525 
Q 1683 646 1894 800 
Q 1658 1331 1366 1760 
Q 1075 2189 736 2515 
L 499 2515 
Q 371 2650 294 2778 
Q 218 2906 218 3066 
Q 218 3302 461 3418 
Q 717 3258 973 2966 
Q 1229 2675 1453 2323 
Q 1677 1971 1818 1613 
Q 1856 1510 1917 1344 
Q 1978 1178 2061 947 
Q 2304 1197 2438 1574 
Q 2573 1952 2656 2483 
Q 2739 3008 2771 3936 
Q 2803 3974 2841 4009 
Q 2880 4045 2925 4083 
Q 2989 4134 3056 4188 
Q 3123 4243 3200 4294 
Q 3232 3462 3254 2563 
Q 3277 1664 3296 659 
Q 3584 486 3962 486 
Q 4013 486 4013 435 
L 4013 51 
Q 4013 0 3962 0 
Q 3584 0 3334 150 
Q 3085 301 3053 557 
Q 3027 742 3008 928 
Q 2989 1114 2970 1299 
Q 2957 1485 2934 1808 
Q 2912 2131 2880 2592 
L 2861 2419 
Q 2816 1997 2761 1689 
Q 2707 1382 2656 1197 
Q 2362 166 1658 77 
Q 1062 6 358 0 
z
" transform="scale(0.015625)"/>
       <path id="NotoNaskhArabic-Regular-35" d="M 2010 0 
Q 1254 0 851 272 
Q 448 544 448 1088 
Q 448 1498 531 1792 
L 762 1792 
Q 755 1766 748 1660 
Q 742 1555 742 1478 
Q 742 1107 883 905 
Q 1024 704 1331 595 
Q 1645 486 2144 486 
Q 2739 486 3308 608 
Q 3878 730 4320 941 
Q 4288 1075 4230 1251 
Q 4173 1427 4090 1645 
Q 3968 1965 3968 2074 
Q 3968 2208 4077 2352 
Q 4186 2496 4390 2611 
Q 4493 2138 4560 1795 
Q 4627 1453 4627 1222 
Q 4627 1005 4403 570 
Q 3981 301 3376 150 
Q 2771 0 2010 0 
z
M 2790 2099 
Q 2649 2208 2543 2307 
Q 2438 2406 2368 2496 
Q 2400 2528 2502 2637 
Q 2604 2746 2777 2925 
Q 2816 2886 2915 2790 
Q 3014 2694 3174 2541 
Q 3052 2349 2790 2099 
z
M 1830 2010 
Q 1689 2125 1580 2224 
Q 1472 2323 1401 2400 
Q 1568 2560 1817 2835 
Q 1856 2790 1952 2694 
Q 2048 2598 2208 2451 
Q 2150 2355 2054 2246 
Q 1958 2138 1830 2010 
z
" transform="scale(0.015625)"/>
      </defs>
      <use xlink:href="#NotoNaskhArabic-Regular-d5"/>
      <use xlink:href="#NotoNaskhArabic-Regular-218" transform="translate(38.59375 0)"/>
      <use xlink:href="#NotoNaskhArabic-Regular-71" transform="translate(85.390625 0)"/>
      <use xlink:href="#NotoNaskhArabic-Regular-554" transform="translate(148.984375 0)"/>
      <use xlink:href="#NotoNaskhArabic-Regular-3" transform="translate(171.078125 0)"/>
      <use xlink:href="#NotoNaskhArabic-Regular-1c1" transform="translate(194.875 0)"/>
      <use xlink:href="#NotoNaskhArabic-Regular-135" transform="translate(216.078125 0)"/>
      <use xlink:href="#NotoNaskhArabic-Regular-1e4" transform="translate(257.484375 0)"/>
      <use xlink:href="#NotoNaskhArabic-Regular-2df" transform="translate(298.78125 0)"/>
      <use xlink:href="#NotoNaskhArabic-Regular-35" transform="translate(359.78125 0)"/>
     </g>
    </g>
   </g>
   <g id="line2d_18">
    <path d="M 73.976076 297.447205 
L 90.334404 287.20342 
L 106.692733 289.136111 
L 123.051061 275.726137 
L 139.409389 275.109063 
L 155.767717 257.202655 
L 172.126046 250.435806 
L 188.484374 284.599178 
L 204.842702 269.168057 
L 221.20103 249.666652 
L 237.559359 233.011925 
L 253.917687 219.364902 
L 270.276015 202.574341 
L 286.634344 171.487066 
L 302.992672 168.140069 
L 319.351 170.765441 
L 335.709328 171.5896 
L 352.067657 166.991346 
L 368.425985 167.678048 
L 384.784313 144.677571 
L 401.142641 154.610903 
L 417.50097 134.666098 
L 433.859298 132.545248 
L 450.217626 111.245291 
L 466.575955 98.452759 
L 482.934283 81.521159 
L 499.292611 48.990276 
L 515.650939 32.937834 
L 532.009268 21.021295 
L 548.367596 22.633203 
" clip-path="url(#p2ccc776299)" style="fill: none; stroke: #1f2937; stroke-width: 2.2; stroke-linecap: square"/>
   </g>
   <g id="patch_6">
    <path d="M 50.2565 311.2685 
L 50.2565 7.2 
" style="fill: none; stroke: #1f2937; stroke-width: 0.8; stroke-linejoin: miter; stroke-linecap: square"/>
   </g>
   <g id="patch_7">
    <path d="M 572.087172 311.2685 
L 572.087172 7.2 
" style="fill: none; stroke: #1f2937; stroke-width: 0.8; stroke-linejoin: miter; stroke-linecap: square"/>
   </g>
   <g id="patch_8">
    <path d="M 50.2565 311.2685 
L 572.087172 311.2685 
" style="fill: none; stroke: #1f2937; stroke-width: 0.8; stroke-linejoin: miter; stroke-linecap: square"/>
   </g>
  </g>
 </g>
 <defs>
  <clipPath id="p2ccc776299">
   <rect x="50.2565" y="7.2" width="521.830672" height="304.0685"/>
  </clipPath>
 </defs>
</svg>
