<?xml version="1.0" encoding="utf-8" standalone="no"?>
<!DOCTYPE svg PUBLIC "-//W3C//DTD SVG 1.1//EN"
  "http://www.w3.org/Graphics/SVG/1.1/DTD/svg11.dtd">
<svg xmlns:xlink="http://www.w3.org/1999/xlink" width="628.35pt" height="441.15pt" viewBox="0 0 628.35 441.15" xmlns="http://www.w3.org/2000/svg" version="1.1">
 <metadata>
  <rdf:RDF xmlns:dc="http://purl.org/dc/elements/1.1/" xmlns:cc="http://creativecommons.org/ns#" xmlns:rdf="http://www.w3.org/1999/02/22-rdf-syntax-ns#">
   <cc:Work>
    <dc:type rdf:resource="http://purl.org/dc/dcmitype/StillImage"/>
    <dc:date>2026-07-19T00:33:12.347931</dc:date>
    <dc:format>image/svg+xml</dc:format>
    <dc:creator>
     <cc:Agent>
      <dc:title>Matplotlib v3.11.1, https://matplotlib.org/</dc:title>
     </cc:Agent>
    </dc:creator>
   </cc:Work>
  </rdf:RDF>
 </metadata>
 <defs>
  <style type="text/css">*{stroke-linejoin: round; stroke-linecap: butt}</style>
 </defs>
 <g id="figure_1">
  <g id="patch_1">
   <path d="M 0 441.15 
L 628.35 441.15 
L 628.35 0 
L 0 0 
z
" style="fill: #ffffff"/>
  </g>
  <g id="axes_1">
   <g id="patch_2">
    <path d="M 50.2565 251.21165 
L 621.15 251.21165 
L 621.15 7.2 
L 50.2565 7.2 
z
" style="fill: #ffffff"/>
   </g>
   <g id="matplotlib.axis_1"/>
   <g id="matplotlib.axis_2">
    <g id="ytick_1">
     <g id="line2d_1">
      <path d="M 50.2565 242.605458 
L 621.15 242.605458 
" clip-path="url(#pee36c38a79)" style="fill: none; stroke: #e6e1d6; stroke-width: 0.8; stroke-linecap: square"/>
     </g>
     <g id="line2d_2">
      <defs>
       <path id="m50526c0b63" d="M 0 0 
L -3.5 0 
" style="stroke: #555555; stroke-width: 0.8"/>
      </defs>
      <g>
       <use xlink:href="#m50526c0b63" x="50.2565" y="242.605458" style="fill: #555555; stroke: #555555; stroke-width: 0.8"/>
      </g>
     </g>
     <g id="text_1">
      <!-- 92 -->
      <g style="fill: #555555" transform="translate(31.243844 248.217708) scale(0.105 -0.105)">
       <defs>
        <path id="NotoNaskhArabic-Regular-4d5" d="M 1229 -64 
Q 851 -64 653 0 
L 653 480 
Q 883 397 1216 397 
Q 1728 397 2057 601 
Q 2387 806 2560 1197 
Q 2650 1395 2701 1654 
Q 2752 1914 2758 2240 
L 2720 2240 
Q 2362 1709 1632 1709 
Q 1030 1709 675 2077 
Q 320 2445 320 3091 
Q 320 3565 499 3910 
Q 678 4256 1008 4445 
Q 1338 4634 1779 4634 
Q 2246 4634 2598 4394 
Q 2950 4154 3136 3699 
Q 3328 3238 3328 2618 
Q 3328 -64 1229 -64 
z
M 1754 2157 
Q 2035 2157 2265 2269 
Q 2496 2381 2630 2579 
Q 2758 2778 2758 2989 
Q 2758 3302 2636 3571 
Q 2515 3840 2291 4000 
Q 2074 4160 1779 4160 
Q 1350 4160 1113 3881 
Q 877 3603 877 3098 
Q 877 2643 1101 2400 
Q 1325 2157 1754 2157 
z
" transform="scale(0.015625)"/>
        <path id="NotoNaskhArabic-Regular-4ce" d="M 307 0 
L 307 467 
L 1504 1677 
Q 1773 1952 1952 2147 
Q 2131 2342 2221 2458 
Q 2413 2720 2489 2925 
Q 2566 3130 2566 3386 
Q 2566 3744 2352 3949 
Q 2138 4154 1760 4154 
Q 1478 4154 1228 4058 
Q 979 3962 659 3718 
L 358 4096 
Q 1005 4634 1760 4634 
Q 2240 4634 2576 4448 
Q 2912 4262 3053 3923 
Q 3142 3686 3142 3418 
Q 3142 3123 3033 2841 
Q 2925 2560 2707 2272 
Q 2598 2131 2416 1929 
Q 2234 1728 1971 1478 
L 1018 538 
L 1018 512 
L 3328 512 
L 3328 0 
L 307 0 
z
" transform="scale(0.015625)"/>
       </defs>
       <use xlink:href="#NotoNaskhArabic-Regular-4d5"/>
       <use xlink:href="#NotoNaskhArabic-Regular-4ce" transform="translate(57.203125 0)"/>
      </g>
     </g>
    </g>
    <g id="ytick_2">
     <g id="line2d_3">
      <path d="M 50.2565 191.552152 
L 621.15 191.552152 
" clip-path="url(#pee36c38a79)" style="fill: none; stroke: #e6e1d6; stroke-width: 0.8; stroke-linecap: square"/>
     </g>
     <g id="line2d_4">
      <g>
       <use xlink:href="#m50526c0b63" x="50.2565" y="191.552152" style="fill: #555555; stroke: #555555; stroke-width: 0.8"/>
      </g>
     </g>
     <g id="text_2">
      <!-- 94 -->
      <g style="fill: #555555" transform="translate(31.243844 197.164402) scale(0.105 -0.105)">
       <defs>
        <path id="NotoNaskhArabic-Regular-4d0" d="M 2323 0 
L 2323 1037 
L 134 1037 
L 134 1517 
L 2285 4595 
L 2867 4595 
L 2867 1542 
L 3533 1542 
L 3533 1037 
L 2867 1037 
L 2867 0 
L 2323 0 
z
M 685 1542 
L 2323 1542 
L 2323 2982 
Q 2323 3194 2332 3446 
Q 2342 3699 2355 3994 
L 2330 3994 
Q 2298 3910 2211 3747 
Q 2125 3584 2054 3494 
L 685 1542 
z
" transform="scale(0.015625)"/>
       </defs>
       <use xlink:href="#NotoNaskhArabic-Regular-4d5"/>
       <use xlink:href="#NotoNaskhArabic-Regular-4d0" transform="translate(57.203125 0)"/>
      </g>
     </g>
    </g>
    <g id="ytick_3">
     <g id="line2d_5">
      <path d="M 50.2565 140.498846 
L 621.15 140.498846 
" clip-path="url(#pee36c38a79)" style="fill: none; stroke: #e6e1d6; stroke-width: 0.8; stroke-linecap: square"/>
     </g>
     <g id="line2d_6">
      <g>
       <use xlink:href="#m50526c0b63" x="50.2565" y="140.498846" style="fill: #555555; stroke: #555555; stroke-width: 0.8"/>
      </g>
     </g>
     <g id="text_3">
      <!-- 96 -->
      <g style="fill: #555555" transform="translate(31.243844 146.111096) scale(0.105 -0.105)">
       <defs>
        <path id="NotoNaskhArabic-Regular-4d2" d="M 1907 -64 
Q 1440 -64 1088 176 
Q 736 416 544 870 
Q 352 1331 352 1952 
Q 352 4634 2445 4634 
Q 2810 4634 3008 4576 
L 3008 4096 
Q 2771 4173 2458 4173 
Q 1984 4173 1654 3987 
Q 1325 3802 1139 3405 
Q 941 2976 915 2323 
L 954 2323 
Q 1299 2861 2035 2861 
Q 2656 2861 3008 2486 
Q 3360 2112 3360 1472 
Q 3360 762 2969 349 
Q 2579 -64 1907 -64 
z
M 1901 410 
Q 2336 410 2569 688 
Q 2803 966 2803 1472 
Q 2803 1926 2576 2172 
Q 2349 2419 1920 2419 
Q 1645 2419 1421 2307 
Q 1197 2195 1056 1997 
Q 922 1798 922 1581 
Q 922 1267 1050 995 
Q 1178 723 1395 563 
Q 1619 410 1901 410 
z
" transform="scale(0.015625)"/>
       </defs>
       <use xlink:href="#NotoNaskhArabic-Regular-4d5"/>
       <use xlink:href="#NotoNaskhArabic-Regular-4d2" transform="translate(57.203125 0)"/>
      </g>
     </g>
    </g>
    <g id="ytick_4">
     <g id="line2d_7">
      <path d="M 50.2565 89.44554 
L 621.15 89.44554 
" clip-path="url(#pee36c38a79)" style="fill: none; stroke: #e6e1d6; stroke-width: 0.8; stroke-linecap: square"/>
     </g>
     <g id="line2d_8">
      <g>
       <use xlink:href="#m50526c0b63" x="50.2565" y="89.44554" style="fill: #555555; stroke: #555555; stroke-width: 0.8"/>
      </g>
     </g>
     <g id="text_4">
      <!-- 98 -->
      <g style="fill: #555555" transform="translate(31.243844 95.05779) scale(0.105 -0.105)">
       <defs>
        <path id="NotoNaskhArabic-Regular-4d4" d="M 1843 -64 
Q 1114 -64 714 256 
Q 314 576 314 1165 
Q 314 1946 1261 2387 
Q 832 2630 646 2912 
Q 461 3194 461 3546 
Q 461 4045 832 4339 
Q 1203 4634 1824 4634 
Q 2451 4634 2822 4342 
Q 3194 4051 3194 3539 
Q 3194 3200 2986 2928 
Q 2778 2656 2323 2419 
Q 2874 2150 3107 1856 
Q 3341 1562 3341 1184 
Q 3341 621 2937 278 
Q 2534 -64 1843 -64 
z
M 1850 2637 
Q 2278 2816 2457 3030 
Q 2637 3245 2637 3520 
Q 2637 3834 2416 4006 
Q 2195 4179 1818 4179 
Q 1446 4179 1228 4003 
Q 1011 3827 1011 3520 
Q 1011 3322 1094 3171 
Q 1178 3021 1338 2906 
Q 1498 2784 1850 2637 
z
M 1830 384 
Q 2278 384 2534 595 
Q 2790 806 2790 1178 
Q 2790 1478 2547 1712 
Q 2304 1946 1728 2157 
Q 1280 1965 1072 1728 
Q 864 1491 864 1158 
Q 864 800 1123 592 
Q 1382 384 1830 384 
z
" transform="scale(0.015625)"/>
       </defs>
       <use xlink:href="#NotoNaskhArabic-Regular-4d5"/>
       <use xlink:href="#NotoNaskhArabic-Regular-4d4" transform="translate(57.203125 0)"/>
      </g>
     </g>
    </g>
    <g id="ytick_5">
     <g id="line2d_9">
      <path d="M 50.2565 38.392234 
L 621.15 38.392234 
" clip-path="url(#pee36c38a79)" style="fill: none; stroke: #e6e1d6; stroke-width: 0.8; stroke-linecap: square"/>
     </g>
     <g id="line2d_10">
      <g>
       <use xlink:href="#m50526c0b63" x="50.2565" y="38.392234" style="fill: #555555; stroke: #555555; stroke-width: 0.8"/>
      </g>
     </g>
     <g id="text_5">
      <!-- 100 -->
      <g style="fill: #555555" transform="translate(25.237516 44.004484) scale(0.105 -0.105)">
       <defs>
        <path id="NotoNaskhArabic-Regular-4cd" d="M 1722 0 
L 1722 3194 
Q 1722 3405 1728 3603 
Q 1734 3802 1747 3981 
Q 1702 3936 1657 3891 
Q 1613 3846 1562 3808 
Q 1402 3674 1226 3530 
Q 1050 3386 864 3232 
L 570 3610 
L 1805 4570 
L 2272 4570 
L 2272 0 
L 1722 0 
z
" transform="scale(0.015625)"/>
        <path id="NotoNaskhArabic-Regular-4cc" d="M 1824 -64 
Q 1082 -64 698 534 
Q 314 1133 314 2291 
Q 314 3488 682 4064 
Q 1050 4640 1824 4640 
Q 2566 4640 2956 4038 
Q 3347 3437 3347 2291 
Q 3347 1101 2969 518 
Q 2592 -64 1824 -64 
z
M 1824 416 
Q 2208 416 2426 678 
Q 2778 1094 2778 2291 
Q 2778 3571 2368 3962 
Q 2163 4160 1824 4160 
Q 1427 4160 1203 3878 
Q 877 3469 877 2291 
Q 877 1075 1229 666 
Q 1440 416 1824 416 
z
" transform="scale(0.015625)"/>
       </defs>
       <use xlink:href="#NotoNaskhArabic-Regular-4cd"/>
       <use xlink:href="#NotoNaskhArabic-Regular-4cc" transform="translate(57.203125 0)"/>
       <use xlink:href="#NotoNaskhArabic-Regular-4cc" transform="translate(114.40625 0)"/>
      </g>
     </g>
    </g>
   </g>
   <g id="line2d_11">
    <path d="M 69.286283 26.341133 
L 602.120217 26.341133 
" clip-path="url(#pee36c38a79)" style="fill: none; stroke-dasharray: 5.18,2.24; stroke-dashoffset: 0; stroke: #b7791f; stroke-width: 1.4"/>
   </g>
   <g id="patch_3">
    <path d="M 50.2565 251.21165 
L 50.2565 7.2 
" style="fill: none; stroke: #1f2937; stroke-width: 0.8; stroke-linejoin: miter; stroke-linecap: square"/>
   </g>
   <g id="patch_4">
    <path d="M 50.2565 251.21165 
L 621.15 251.21165 
" style="fill: none; stroke: #1f2937; stroke-width: 0.8; stroke-linejoin: miter; stroke-linecap: square"/>
   </g>
   <g id="line2d_12">
    <path d="M 69.286283 37.289967 
L 69.286283 28.828904 
" clip-path="url(#pee36c38a79)" style="fill: none; stroke: #b91c1c; stroke-width: 1.1; stroke-linecap: round"/>
   </g>
   <g id="line2d_13">
    <path d="M 88.316067 45.905722 
L 88.316067 39.221079 
" clip-path="url(#pee36c38a79)" style="fill: none; stroke: #b91c1c; stroke-width: 1.1; stroke-linecap: round"/>
   </g>
   <g id="line2d_14">
    <path d="M 107.34585 58.270158 
L 107.34585 43.181127 
" clip-path="url(#pee36c38a79)" style="fill: none; stroke: #b91c1c; stroke-width: 1.1; stroke-linecap: round"/>
   </g>
   <g id="line2d_15">
    <path d="M 126.375633 60.254798 
L 126.375633 53.787719 
" clip-path="url(#pee36c38a79)" style="fill: none; stroke: #1f8a56; stroke-width: 1.1; stroke-linecap: round"/>
   </g>
   <g id="line2d_16">
    <path d="M 145.405417 59.973626 
L 145.405417 55.861016 
" clip-path="url(#pee36c38a79)" style="fill: none; stroke: #1f8a56; stroke-width: 1.1; stroke-linecap: round"/>
   </g>
   <g id="line2d_17">
    <path d="M 164.4352 71.913134 
L 164.4352 61.006346 
" clip-path="url(#pee36c38a79)" style="fill: none; stroke: #b91c1c; stroke-width: 1.1; stroke-linecap: round"/>
   </g>
   <g id="line2d_18">
    <path d="M 183.464983 63.955244 
L 183.464983 54.361204 
" clip-path="url(#pee36c38a79)" style="fill: none; stroke: #b91c1c; stroke-width: 1.1; stroke-linecap: round"/>
   </g>
   <g id="line2d_19">
    <path d="M 202.494767 65.866022 
L 202.494767 64.430671 
" clip-path="url(#pee36c38a79)" style="fill: none; stroke: #b91c1c; stroke-width: 1.1; stroke-linecap: round"/>
   </g>
   <g id="line2d_20">
    <path d="M 221.52455 68.925292 
L 221.52455 63.09319 
" clip-path="url(#pee36c38a79)" style="fill: none; stroke: #b91c1c; stroke-width: 1.1; stroke-linecap: round"/>
   </g>
   <g id="line2d_21">
    <path d="M 240.554333 73.290013 
L 240.554333 49.234991 
" clip-path="url(#pee36c38a79)" style="fill: none; stroke: #b91c1c; stroke-width: 1.1; stroke-linecap: round"/>
   </g>
   <g id="line2d_22">
    <path d="M 259.584117 77.274537 
L 259.584117 70.844572 
" clip-path="url(#pee36c38a79)" style="fill: none; stroke: #1f8a56; stroke-width: 1.1; stroke-linecap: round"/>
   </g>
   <g id="line2d_23">
    <path d="M 278.6139 77.910154 
L 278.6139 72.002521 
" clip-path="url(#pee36c38a79)" style="fill: none; stroke: #1f8a56; stroke-width: 1.1; stroke-linecap: round"/>
   </g>
   <g id="line2d_24">
    <path d="M 297.643683 90.234434 
L 297.643683 69.273286 
" clip-path="url(#pee36c38a79)" style="fill: none; stroke: #b91c1c; stroke-width: 1.1; stroke-linecap: round"/>
   </g>
   <g id="line2d_25">
    <path d="M 316.673467 93.578683 
L 316.673467 83.710995 
" clip-path="url(#pee36c38a79)" style="fill: none; stroke: #1f8a56; stroke-width: 1.1; stroke-linecap: round"/>
   </g>
   <g id="line2d_26">
    <path d="M 335.70325 84.740703 
L 335.70325 54.55591 
" clip-path="url(#pee36c38a79)" style="fill: none; stroke: #1f8a56; stroke-width: 1.1; stroke-linecap: round"/>
   </g>
   <g id="line2d_27">
    <path d="M 354.733033 57.3917 
L 354.733033 31.356212 
" clip-path="url(#pee36c38a79)" style="fill: none; stroke: #1f8a56; stroke-width: 1.1; stroke-linecap: round"/>
   </g>
   <g id="line2d_28">
    <path d="M 373.762817 38.42625 
L 373.762817 18.291439 
" clip-path="url(#pee36c38a79)" style="fill: none; stroke: #1f8a56; stroke-width: 1.1; stroke-linecap: round"/>
   </g>
   <g id="line2d_29">
    <path d="M 392.7926 45.417005 
L 392.7926 18.563223 
" clip-path="url(#pee36c38a79)" style="fill: none; stroke: #b91c1c; stroke-width: 1.1; stroke-linecap: round"/>
   </g>
   <g id="line2d_30">
    <path d="M 411.822383 64.295941 
L 411.822383 39.031881 
" clip-path="url(#pee36c38a79)" style="fill: none; stroke: #b91c1c; stroke-width: 1.1; stroke-linecap: round"/>
   </g>
   <g id="line2d_31">
    <path d="M 430.852167 89.322079 
L 430.852167 67.099493 
" clip-path="url(#pee36c38a79)" style="fill: none; stroke: #b91c1c; stroke-width: 1.1; stroke-linecap: round"/>
   </g>
   <g id="line2d_32">
    <path d="M 449.88195 98.967193 
L 449.88195 80.072353 
" clip-path="url(#pee36c38a79)" style="fill: none; stroke: #b91c1c; stroke-width: 1.1; stroke-linecap: round"/>
   </g>
   <g id="line2d_33">
    <path d="M 468.911733 123.007307 
L 468.911733 95.391364 
" clip-path="url(#pee36c38a79)" style="fill: none; stroke: #b91c1c; stroke-width: 1.1; stroke-linecap: round"/>
   </g>
   <g id="line2d_34">
    <path d="M 487.941517 125.202426 
L 487.941517 110.937247 
" clip-path="url(#pee36c38a79)" style="fill: none; stroke: #b91c1c; stroke-width: 1.1; stroke-linecap: round"/>
   </g>
   <g id="line2d_35">
    <path d="M 506.9713 147.033893 
L 506.9713 116.442019 
" clip-path="url(#pee36c38a79)" style="fill: none; stroke: #b91c1c; stroke-width: 1.1; stroke-linecap: round"/>
   </g>
   <g id="line2d_36">
    <path d="M 526.001083 172.063809 
L 526.001083 137.218467 
" clip-path="url(#pee36c38a79)" style="fill: none; stroke: #b91c1c; stroke-width: 1.1; stroke-linecap: round"/>
   </g>
   <g id="line2d_37">
    <path d="M 545.030867 197.61392 
L 545.030867 168.493855 
" clip-path="url(#pee36c38a79)" style="fill: none; stroke: #b91c1c; stroke-width: 1.1; stroke-linecap: round"/>
   </g>
   <g id="line2d_38">
    <path d="M 564.06065 208.085187 
L 564.06065 192.296437 
" clip-path="url(#pee36c38a79)" style="fill: none; stroke: #b91c1c; stroke-width: 1.1; stroke-linecap: round"/>
   </g>
   <g id="line2d_39">
    <path d="M 583.090433 238.707945 
L 583.090433 200.953201 
" clip-path="url(#pee36c38a79)" style="fill: none; stroke: #b91c1c; stroke-width: 1.1; stroke-linecap: round"/>
   </g>
   <g id="line2d_40">
    <path d="M 602.120217 240.120212 
L 602.120217 225.469612 
" clip-path="url(#pee36c38a79)" style="fill: none; stroke: #b91c1c; stroke-width: 1.1; stroke-linecap: round"/>
   </g>
   <g id="text_6">
    <!-- ​ﺔﻣﻭﺎﻘﻣ -->
    <g style="fill: #b7791f" transform="translate(39.727348 28.298633) scale(0.09 -0.09)">
     <defs>
      <path id="NotoNaskhArabic-Bold-1e5" d="M 2349 0 
Q 1920 0 1488 99 
Q 1056 198 755 358 
Q 602 198 429 128 
Q 256 58 0 58 
Q -51 58 -51 109 
L -51 762 
Q -51 813 0 813 
Q 525 813 774 1286 
Q 890 1517 982 1680 
Q 1075 1843 1146 1939 
Q 1306 2157 1446 2249 
Q 1587 2342 1773 2342 
Q 2003 2342 2224 2102 
Q 2445 1862 2586 1466 
Q 2726 1082 2726 723 
Q 2726 557 2611 339 
Q 2496 122 2349 0 
z
M 2138 704 
Q 2112 941 2035 1142 
Q 1958 1344 1862 1466 
Q 1760 1587 1677 1587 
Q 1536 1587 1427 1472 
Q 1325 1363 1120 960 
Q 1325 870 1577 803 
Q 1830 736 2138 704 
z
" transform="scale(0.015625)"/>
      <path id="NotoNaskhArabic-Bold-169" d="M 6 58 
Q -51 58 -51 115 
L -51 755 
Q -51 813 6 813 
Q 115 813 227 816 
Q 339 819 454 819 
Q 358 973 358 1114 
Q 358 1197 374 1337 
Q 390 1478 419 1606 
Q 448 1734 474 1786 
Q 595 2003 771 2179 
Q 947 2355 1152 2457 
Q 1357 2560 1549 2560 
Q 1722 2560 1898 2368 
Q 2074 2176 2182 1875 
Q 2291 1568 2291 1306 
Q 2291 1056 2150 819 
Q 2285 819 2422 816 
Q 2560 813 2694 813 
Q 2746 813 2746 762 
L 2746 109 
Q 2746 58 2694 58 
Q 1882 58 1325 269 
Q 1030 147 716 102 
Q 403 58 6 58 
z
M 1299 794 
Q 1690 902 1933 1107 
Q 1888 1280 1795 1446 
Q 1702 1613 1613 1696 
Q 1549 1773 1478 1773 
Q 1146 1773 704 1178 
Q 819 1043 979 944 
Q 1139 845 1299 794 
z
M 1888 3052 
Q 1753 3161 1644 3257 
Q 1536 3353 1446 3449 
Q 1683 3667 1875 3897 
Q 1932 3833 2034 3737 
Q 2137 3641 2278 3500 
Q 2105 3264 1888 3052 
z
M 1030 2956 
Q 755 3180 588 3360 
Q 697 3468 806 3580 
Q 915 3692 1024 3801 
Q 1139 3667 1420 3404 
Q 1260 3174 1030 2956 
z
" transform="scale(0.015625)"/>
      <path id="NotoNaskhArabic-Bold-4" d="M 1901 58 
Q 1517 58 1283 186 
Q 1050 314 938 528 
Q 826 742 794 1018 
Q 781 1139 749 1424 
Q 717 1709 681 2073 
Q 646 2438 608 2809 
Q 570 3181 538 3481 
Q 506 3782 486 3930 
Q 845 4166 1248 4352 
Q 1274 3635 1296 2918 
Q 1318 2202 1338 1478 
L 1363 979 
Q 1478 883 1606 848 
Q 1734 813 1914 813 
Q 1952 813 1952 762 
L 1952 109 
Q 1952 58 1901 58 
z
" transform="scale(0.015625)"/>
      <path id="NotoNaskhArabic-Bold-218" d="M 1248 -1248 
Q 1171 -1248 1011 -1174 
Q 851 -1101 668 -982 
Q 486 -864 326 -730 
L 429 -461 
Q 602 -506 778 -528 
Q 954 -550 1133 -550 
Q 1632 -550 2003 -304 
Q 2374 -58 2515 371 
L 2509 416 
Q 2323 224 2105 112 
Q 1888 0 1664 0 
Q 1267 0 1049 230 
Q 832 461 832 883 
Q 832 1242 966 1584 
Q 1101 1926 1318 2131 
Q 1530 2342 1766 2342 
Q 2042 2342 2288 2089 
Q 2534 1837 2694 1402 
Q 2848 973 2848 570 
Q 2848 83 2637 -339 
Q 2426 -762 2054 -1005 
Q 1690 -1248 1248 -1248 
z
M 1792 704 
Q 2074 704 2400 813 
Q 2342 992 2220 1181 
Q 2099 1370 1952 1472 
Q 1798 1574 1658 1574 
Q 1498 1574 1376 1488 
Q 1254 1402 1203 1267 
Q 1178 1190 1178 1094 
Q 1178 902 1338 803 
Q 1498 704 1792 704 
z
" transform="scale(0.015625)"/>
      <path id="NotoNaskhArabic-Bold-215" d="M 3302 58 
Q 2912 58 2675 182 
Q 2438 307 2393 531 
L 2336 768 
L 2080 243 
Q 1881 262 1711 288 
Q 1542 314 1395 365 
Q 1235 422 1075 518 
Q 915 614 806 716 
Q 697 819 697 890 
Q 697 941 738 1078 
Q 780 1216 838 1369 
Q 896 1523 940 1600 
Q 998 1728 1184 1882 
Q 1363 2042 1593 2192 
Q 1824 2342 1984 2413 
L 1952 2669 
Q 2118 2797 2223 2873 
Q 2329 2950 2418 3011 
Q 2508 3072 2617 3136 
L 2617 986 
Q 2924 813 3302 813 
Q 3353 813 3353 762 
L 3353 109 
Q 3353 58 3302 58 
z
M 2272 1005 
Q 2233 1158 2188 1366 
Q 2144 1574 2086 1837 
Q 1491 1638 1152 1318 
Q 1356 1178 1542 1123 
Q 1728 1069 1894 1043 
Q 2067 1011 2272 1005 
z
M 2138 3257 
Q 2003 3366 1894 3462 
Q 1786 3558 1696 3654 
Q 1933 3872 2125 4102 
Q 2182 4038 2284 3942 
Q 2387 3846 2528 3705 
Q 2355 3469 2138 3257 
z
M 1280 3161 
Q 1005 3385 838 3565 
Q 947 3673 1056 3785 
Q 1165 3897 1274 4006 
Q 1389 3872 1670 3609 
Q 1510 3379 1280 3161 
z
" transform="scale(0.015625)"/>
      <path id="NotoNaskhArabic-Bold-554" transform="scale(0.015625)"/>
     </defs>
     <use xlink:href="#NotoNaskhArabic-Bold-1e5"/>
     <use xlink:href="#NotoNaskhArabic-Bold-169" transform="translate(47.296875 0)"/>
     <use xlink:href="#NotoNaskhArabic-Bold-4" transform="translate(88.5 0)"/>
     <use xlink:href="#NotoNaskhArabic-Bold-218" transform="translate(117.296875 0)"/>
     <use xlink:href="#NotoNaskhArabic-Bold-1e5" transform="translate(167 0)"/>
     <use xlink:href="#NotoNaskhArabic-Bold-215" transform="translate(214.296875 0)"/>
     <use xlink:href="#NotoNaskhArabic-Bold-554" transform="translate(265 0)"/>
    </g>
   </g>
   <g id="patch_5">
    <path d="M 63.577348 36.551794 
L 74.995218 36.551794 
L 74.995218 29.89693 
L 63.577348 29.89693 
z
" clip-path="url(#pee36c38a79)" style="fill: #b91c1c; stroke: #b91c1c; stroke-linejoin: miter"/>
   </g>
   <g id="patch_6">
    <path d="M 82.607132 43.969816 
L 94.025002 43.969816 
L 94.025002 37.314952 
L 82.607132 37.314952 
z
" clip-path="url(#pee36c38a79)" style="fill: #b91c1c; stroke: #b91c1c; stroke-linejoin: miter"/>
   </g>
   <g id="patch_7">
    <path d="M 101.636915 52.410142 
L 113.054785 52.410142 
L 113.054785 43.272986 
L 101.636915 43.272986 
z
" clip-path="url(#pee36c38a79)" style="fill: #b91c1c; stroke: #b91c1c; stroke-linejoin: miter"/>
   </g>
   <g id="patch_8">
    <path d="M 120.666698 58.170812 
L 132.084568 58.170812 
L 132.084568 51.515948 
L 120.666698 51.515948 
z
" clip-path="url(#pee36c38a79)" style="fill: #1f8a56; stroke: #1f8a56; stroke-linejoin: miter"/>
   </g>
   <g id="patch_9">
    <path d="M 139.696482 58.033072 
L 151.114352 58.033072 
L 151.114352 51.378208 
L 139.696482 51.378208 
z
" clip-path="url(#pee36c38a79)" style="fill: #1f8a56; stroke: #1f8a56; stroke-linejoin: miter"/>
   </g>
   <g id="patch_10">
    <path d="M 158.726265 65.601926 
L 170.144135 65.601926 
L 170.144135 58.947062 
L 158.726265 58.947062 
z
" clip-path="url(#pee36c38a79)" style="fill: #b91c1c; stroke: #b91c1c; stroke-linejoin: miter"/>
   </g>
   <g id="patch_11">
    <path d="M 177.756048 63.210371 
L 189.173918 63.210371 
L 189.173918 56.473196 
L 177.756048 56.473196 
z
" clip-path="url(#pee36c38a79)" style="fill: #b91c1c; stroke: #b91c1c; stroke-linejoin: miter"/>
   </g>
   <g id="patch_12">
    <path d="M 196.785832 65.408366 
L 208.203702 65.408366 
L 208.203702 58.753502 
L 196.785832 58.753502 
z
" clip-path="url(#pee36c38a79)" style="fill: #b91c1c; stroke: #b91c1c; stroke-linejoin: miter"/>
   </g>
   <g id="patch_13">
    <path d="M 215.815615 65.718282 
L 227.233485 65.718282 
L 227.233485 59.063418 
L 215.815615 59.063418 
z
" clip-path="url(#pee36c38a79)" style="fill: #b91c1c; stroke: #b91c1c; stroke-linejoin: miter"/>
   </g>
   <g id="patch_14">
    <path d="M 234.845398 69.287651 
L 246.263268 69.287651 
L 246.263268 57.760208 
L 234.845398 57.760208 
z
" clip-path="url(#pee36c38a79)" style="fill: #b91c1c; stroke: #b91c1c; stroke-linejoin: miter"/>
   </g>
   <g id="patch_15">
    <path d="M 253.875182 71.934592 
L 265.293052 71.934592 
L 265.293052 65.279728 
L 253.875182 65.279728 
z
" clip-path="url(#pee36c38a79)" style="fill: #1f8a56; stroke: #1f8a56; stroke-linejoin: miter"/>
   </g>
   <g id="patch_16">
    <path d="M 272.904965 77.738034 
L 284.322835 77.738034 
L 284.322835 71.083171 
L 272.904965 71.083171 
z
" clip-path="url(#pee36c38a79)" style="fill: #1f8a56; stroke: #1f8a56; stroke-linejoin: miter"/>
   </g>
   <g id="patch_17">
    <path d="M 291.934748 88.472736 
L 303.352618 88.472736 
L 303.352618 74.525084 
L 291.934748 74.525084 
z
" clip-path="url(#pee36c38a79)" style="fill: #b91c1c; stroke: #b91c1c; stroke-linejoin: miter"/>
   </g>
   <g id="patch_18">
    <path d="M 310.964532 89.048616 
L 322.382402 89.048616 
L 322.382402 82.393752 
L 310.964532 82.393752 
z
" clip-path="url(#pee36c38a79)" style="fill: #1f8a56; stroke: #1f8a56; stroke-linejoin: miter"/>
   </g>
   <g id="patch_19">
    <path d="M 329.994315 81.834301 
L 341.412185 81.834301 
L 341.412185 56.863906 
L 329.994315 56.863906 
z
" clip-path="url(#pee36c38a79)" style="fill: #1f8a56; stroke: #1f8a56; stroke-linejoin: miter"/>
   </g>
   <g id="patch_20">
    <path d="M 349.024098 56.414406 
L 360.441968 56.414406 
L 360.441968 32.964257 
L 349.024098 32.964257 
z
" clip-path="url(#pee36c38a79)" style="fill: #1f8a56; stroke: #1f8a56; stroke-linejoin: miter"/>
   </g>
   <g id="patch_21">
    <path d="M 368.053882 34.252826 
L 379.471752 34.252826 
L 379.471752 20.156782 
L 368.053882 20.156782 
z
" clip-path="url(#pee36c38a79)" style="fill: #1f8a56; stroke: #1f8a56; stroke-linejoin: miter"/>
   </g>
   <g id="patch_22">
    <path d="M 387.083665 42.335091 
L 398.501535 42.335091 
L 398.501535 20.820462 
L 387.083665 20.820462 
z
" clip-path="url(#pee36c38a79)" style="fill: #b91c1c; stroke: #b91c1c; stroke-linejoin: miter"/>
   </g>
   <g id="patch_23">
    <path d="M 406.113448 61.638968 
L 417.531318 61.638968 
L 417.531318 47.381745 
L 406.113448 47.381745 
z
" clip-path="url(#pee36c38a79)" style="fill: #b91c1c; stroke: #b91c1c; stroke-linejoin: miter"/>
   </g>
   <g id="patch_24">
    <path d="M 425.143232 84.767637 
L 436.561102 84.767637 
L 436.561102 67.236561 
L 425.143232 67.236561 
z
" clip-path="url(#pee36c38a79)" style="fill: #b91c1c; stroke: #b91c1c; stroke-linejoin: miter"/>
   </g>
   <g id="patch_25">
    <path d="M 444.173015 97.977039 
L 455.590885 97.977039 
L 455.590885 81.603273 
L 444.173015 81.603273 
z
" clip-path="url(#pee36c38a79)" style="fill: #b91c1c; stroke: #b91c1c; stroke-linejoin: miter"/>
   </g>
   <g id="patch_26">
    <path d="M 463.202798 119.343002 
L 474.620668 119.343002 
L 474.620668 97.745593 
L 463.202798 97.745593 
z
" clip-path="url(#pee36c38a79)" style="fill: #b91c1c; stroke: #b91c1c; stroke-linejoin: miter"/>
   </g>
   <g id="patch_27">
    <path d="M 482.232582 120.147303 
L 493.650452 120.147303 
L 493.650452 113.016199 
L 482.232582 113.016199 
z
" clip-path="url(#pee36c38a79)" style="fill: #b91c1c; stroke: #b91c1c; stroke-linejoin: miter"/>
   </g>
   <g id="patch_28">
    <path d="M 501.262365 144.830957 
L 512.680235 144.830957 
L 512.680235 119.576605 
L 501.262365 119.576605 
z
" clip-path="url(#pee36c38a79)" style="fill: #b91c1c; stroke: #b91c1c; stroke-linejoin: miter"/>
   </g>
   <g id="patch_29">
    <path d="M 520.292148 169.170149 
L 531.710018 169.170149 
L 531.710018 140.713044 
L 520.292148 140.713044 
z
" clip-path="url(#pee36c38a79)" style="fill: #b91c1c; stroke: #b91c1c; stroke-linejoin: miter"/>
   </g>
   <g id="patch_30">
    <path d="M 539.321932 196.255426 
L 550.739802 196.255426 
L 550.739802 171.378073 
L 539.321932 171.378073 
z
" clip-path="url(#pee36c38a79)" style="fill: #b91c1c; stroke: #b91c1c; stroke-linejoin: miter"/>
   </g>
   <g id="patch_31">
    <path d="M 558.351715 207.98236 
L 569.769585 207.98236 
L 569.769585 192.559651 
L 558.351715 192.559651 
z
" clip-path="url(#pee36c38a79)" style="fill: #b91c1c; stroke: #b91c1c; stroke-linejoin: miter"/>
   </g>
   <g id="patch_32">
    <path d="M 577.381498 233.702107 
L 588.799368 233.702107 
L 588.799368 202.785085 
L 577.381498 202.785085 
z
" clip-path="url(#pee36c38a79)" style="fill: #b91c1c; stroke: #b91c1c; stroke-linejoin: miter"/>
   </g>
   <g id="patch_33">
    <path d="M 596.411282 239.485358 
L 607.829152 239.485358 
L 607.829152 229.229746 
L 596.411282 229.229746 
z
" clip-path="url(#pee36c38a79)" style="fill: #b91c1c; stroke: #b91c1c; stroke-linejoin: miter"/>
   </g>
  </g>
  <g id="axes_2">
   <g id="patch_34">
    <path d="M 50.2565 387.187 
L 621.15 387.187 
L 621.15 276.272614 
L 50.2565 276.272614 
z
" style="fill: #ffffff"/>
   </g>
   <g id="patch_35">
    <path d="M 76.206205 387.187 
L 87.094192 387.187 
L 87.094192 300.294108 
L 76.206205 300.294108 
z
" clip-path="url(#p43e0e7e0a8)" style="fill: #1f2937"/>
   </g>
   <g id="patch_36">
    <path d="M 94.352851 387.187 
L 105.240839 387.187 
L 105.240839 281.554251 
L 94.352851 281.554251 
z
" clip-path="url(#p43e0e7e0a8)" style="fill: #1f2937"/>
   </g>
   <g id="patch_37">
    <path d="M 112.499498 387.187 
L 123.387486 387.187 
L 123.387486 310.241307 
L 112.499498 310.241307 
z
" clip-path="url(#p43e0e7e0a8)" style="fill: #1f2937"/>
   </g>
   <g id="patch_38">
    <path d="M 130.646144 387.187 
L 141.534132 387.187 
L 141.534132 296.70627 
L 130.646144 296.70627 
z
" clip-path="url(#p43e0e7e0a8)" style="fill: #1f2937"/>
   </g>
   <g id="patch_39">
    <path d="M 148.792791 387.187 
L 159.680779 387.187 
L 159.680779 319.773673 
L 148.792791 319.773673 
z
" clip-path="url(#p43e0e7e0a8)" style="fill: #1f2937"/>
   </g>
   <g id="patch_40">
    <path d="M 166.939437 387.187 
L 177.827425 387.187 
L 177.827425 287.560068 
L 166.939437 287.560068 
z
" clip-path="url(#p43e0e7e0a8)" style="fill: #1f2937"/>
   </g>
   <g id="patch_41">
    <path d="M 185.086084 387.187 
L 195.974072 387.187 
L 195.974072 322.856974 
L 185.086084 322.856974 
z
" clip-path="url(#p43e0e7e0a8)" style="fill: #1f2937"/>
   </g>
   <g id="patch_42">
    <path d="M 203.23273 387.187 
L 214.120718 387.187 
L 214.120718 331.187088 
L 203.23273 331.187088 
z
" clip-path="url(#p43e0e7e0a8)" style="fill: #1f2937"/>
   </g>
   <g id="patch_43">
    <path d="M 221.379377 387.187 
L 232.267365 387.187 
L 232.267365 312.656649 
L 221.379377 312.656649 
z
" clip-path="url(#p43e0e7e0a8)" style="fill: #1f2937"/>
   </g>
   <g id="patch_44">
    <path d="M 239.526023 387.187 
L 250.414011 387.187 
L 250.414011 329.516748 
L 239.526023 329.516748 
z
" clip-path="url(#p43e0e7e0a8)" style="fill: #1f2937"/>
   </g>
   <g id="patch_45">
    <path d="M 257.67267 387.187 
L 268.560658 387.187 
L 268.560658 316.688254 
L 257.67267 316.688254 
z
" clip-path="url(#p43e0e7e0a8)" style="fill: #1f2937"/>
   </g>
   <g id="patch_46">
    <path d="M 275.819316 387.187 
L 286.707304 387.187 
L 286.707304 331.193108 
L 275.819316 331.193108 
z
" clip-path="url(#p43e0e7e0a8)" style="fill: #1f2937"/>
   </g>
   <g id="patch_47">
    <path d="M 293.965963 387.187 
L 304.853951 387.187 
L 304.853951 312.432684 
L 293.965963 312.432684 
z
" clip-path="url(#p43e0e7e0a8)" style="fill: #1f2937"/>
   </g>
   <g id="patch_48">
    <path d="M 312.11261 387.187 
L 323.000597 387.187 
L 323.000597 328.538222 
L 312.11261 328.538222 
z
" clip-path="url(#p43e0e7e0a8)" style="fill: #1f2937"/>
   </g>
   <g id="patch_49">
    <path d="M 330.259256 387.187 
L 341.147244 387.187 
L 341.147244 347.435849 
L 330.259256 347.435849 
z
" clip-path="url(#p43e0e7e0a8)" style="fill: #b91c1c"/>
   </g>
   <g id="patch_50">
    <path d="M 348.405903 387.187 
L 359.29389 387.187 
L 359.29389 347.827771 
L 348.405903 347.827771 
z
" clip-path="url(#p43e0e7e0a8)" style="fill: #b91c1c"/>
   </g>
   <g id="patch_51">
    <path d="M 366.552549 387.187 
L 377.440537 387.187 
L 377.440537 351.942414 
L 366.552549 351.942414 
z
" clip-path="url(#p43e0e7e0a8)" style="fill: #b91c1c"/>
   </g>
   <g id="patch_52">
    <path d="M 384.699196 387.187 
L 395.587184 387.187 
L 395.587184 294.019545 
L 384.699196 294.019545 
z
" clip-path="url(#p43e0e7e0a8)" style="fill: #1f2937"/>
   </g>
   <g id="patch_53">
    <path d="M 402.845842 387.187 
L 413.73383 387.187 
L 413.73383 318.193532 
L 402.845842 318.193532 
z
" clip-path="url(#p43e0e7e0a8)" style="fill: #1f2937"/>
   </g>
   <g id="patch_54">
    <path d="M 420.992489 387.187 
L 431.880477 387.187 
L 431.880477 293.922484 
L 420.992489 293.922484 
z
" clip-path="url(#p43e0e7e0a8)" style="fill: #1f2937"/>
   </g>
   <g id="patch_55">
    <path d="M 439.139135 387.187 
L 450.027123 387.187 
L 450.027123 324.664417 
L 439.139135 324.664417 
z
" clip-path="url(#p43e0e7e0a8)" style="fill: #1f2937"/>
   </g>
   <g id="patch_56">
    <path d="M 457.285782 387.187 
L 468.17377 387.187 
L 468.17377 330.927466 
L 457.285782 330.927466 
z
" clip-path="url(#p43e0e7e0a8)" style="fill: #1f2937"/>
   </g>
   <g id="patch_57">
    <path d="M 475.432428 387.187 
L 486.320416 387.187 
L 486.320416 284.351171 
L 475.432428 284.351171 
z
" clip-path="url(#p43e0e7e0a8)" style="fill: #1f2937"/>
   </g>
   <g id="patch_58">
    <path d="M 493.579075 387.187 
L 504.467063 387.187 
L 504.467063 294.037866 
L 493.579075 294.037866 
z
" clip-path="url(#p43e0e7e0a8)" style="fill: #1f2937"/>
   </g>
   <g id="patch_59">
    <path d="M 511.725721 387.187 
L 522.613709 387.187 
L 522.613709 306.124336 
L 511.725721 306.124336 
z
" clip-path="url(#p43e0e7e0a8)" style="fill: #1f2937"/>
   </g>
   <g id="patch_60">
    <path d="M 529.872368 387.187 
L 540.760356 387.187 
L 540.760356 302.985935 
L 529.872368 302.985935 
z
" clip-path="url(#p43e0e7e0a8)" style="fill: #1f2937"/>
   </g>
   <g id="patch_61">
    <path d="M 548.019014 387.187 
L 558.907002 387.187 
L 558.907002 321.419196 
L 548.019014 321.419196 
z
" clip-path="url(#p43e0e7e0a8)" style="fill: #1f2937"/>
   </g>
   <g id="patch_62">
    <path d="M 566.165661 387.187 
L 577.053649 387.187 
L 577.053649 312.566462 
L 566.165661 312.566462 
z
" clip-path="url(#p43e0e7e0a8)" style="fill: #1f2937"/>
   </g>
   <g id="patch_63">
    <path d="M 584.312308 387.187 
L 595.200295 387.187 
L 595.200295 305.514174 
L 584.312308 305.514174 
z
" clip-path="url(#p43e0e7e0a8)" style="fill: #1f2937"/>
   </g>
   <g id="matplotlib.axis_3">
    <g id="xtick_1">
     <g id="line2d_41">
      <defs>
       <path id="ma005f7b123" d="M 0 0 
L 0 3.5 
" style="stroke: #555555; stroke-width: 0.8"/>
      </defs>
      <g>
       <use xlink:href="#ma005f7b123" x="81.650199" y="387.187" style="fill: #555555; stroke: #555555; stroke-width: 0.8"/>
      </g>
     </g>
     <g id="text_7">
      <!-- 0 -->
      <g style="fill: #555555" transform="translate(78.647034 405.4115) scale(0.105 -0.105)">
       <use xlink:href="#NotoNaskhArabic-Regular-4cc"/>
      </g>
     </g>
    </g>
    <g id="xtick_2">
     <g id="line2d_42">
      <g>
       <use xlink:href="#ma005f7b123" x="172.383431" y="387.187" style="fill: #555555; stroke: #555555; stroke-width: 0.8"/>
      </g>
     </g>
     <g id="text_8">
      <!-- 5 -->
      <g style="fill: #555555" transform="translate(169.380267 405.4115) scale(0.105 -0.105)">
       <defs>
        <path id="NotoNaskhArabic-Regular-4d1" d="M 1587 -64 
Q 826 -64 403 186 
L 403 717 
Q 634 576 960 496 
Q 1286 416 1594 416 
Q 2131 416 2425 672 
Q 2720 928 2720 1402 
Q 2720 2330 1574 2330 
Q 1210 2330 794 2234 
L 512 2413 
L 685 4570 
L 2976 4570 
L 2976 4058 
L 1165 4058 
L 1056 2733 
Q 1235 2765 1411 2784 
Q 1587 2803 1760 2803 
Q 2477 2803 2886 2444 
Q 3296 2086 3296 1459 
Q 3296 749 2841 342 
Q 2387 -64 1587 -64 
z
" transform="scale(0.015625)"/>
       </defs>
       <use xlink:href="#NotoNaskhArabic-Regular-4d1"/>
      </g>
     </g>
    </g>
    <g id="xtick_3">
     <g id="line2d_43">
      <g>
       <use xlink:href="#ma005f7b123" x="263.116664" y="387.187" style="fill: #555555; stroke: #555555; stroke-width: 0.8"/>
      </g>
     </g>
     <g id="text_9">
      <!-- 10 -->
      <g style="fill: #555555" transform="translate(257.110336 405.4115) scale(0.105 -0.105)">
       <use xlink:href="#NotoNaskhArabic-Regular-4cd"/>
       <use xlink:href="#NotoNaskhArabic-Regular-4cc" transform="translate(57.203125 0)"/>
      </g>
     </g>
    </g>
    <g id="xtick_4">
     <g id="line2d_44">
      <g>
       <use xlink:href="#ma005f7b123" x="353.849897" y="387.187" style="fill: #555555; stroke: #555555; stroke-width: 0.8"/>
      </g>
     </g>
     <g id="text_10">
      <!-- 15 -->
      <g style="fill: #555555" transform="translate(347.843568 405.4115) scale(0.105 -0.105)">
       <use xlink:href="#NotoNaskhArabic-Regular-4cd"/>
       <use xlink:href="#NotoNaskhArabic-Regular-4d1" transform="translate(57.203125 0)"/>
      </g>
     </g>
    </g>
    <g id="xtick_5">
     <g id="line2d_45">
      <g>
       <use xlink:href="#ma005f7b123" x="444.583129" y="387.187" style="fill: #555555; stroke: #555555; stroke-width: 0.8"/>
      </g>
     </g>
     <g id="text_11">
      <!-- 20 -->
      <g style="fill: #555555" transform="translate(438.576801 405.4115) scale(0.105 -0.105)">
       <use xlink:href="#NotoNaskhArabic-Regular-4ce"/>
       <use xlink:href="#NotoNaskhArabic-Regular-4cc" transform="translate(57.203125 0)"/>
      </g>
     </g>
    </g>
    <g id="xtick_6">
     <g id="line2d_46">
      <g>
       <use xlink:href="#ma005f7b123" x="535.316362" y="387.187" style="fill: #555555; stroke: #555555; stroke-width: 0.8"/>
      </g>
     </g>
     <g id="text_12">
      <!-- 25 -->
      <g style="fill: #555555" transform="translate(529.310034 405.4115) scale(0.105 -0.105)">
       <use xlink:href="#NotoNaskhArabic-Regular-4ce"/>
       <use xlink:href="#NotoNaskhArabic-Regular-4d1" transform="translate(57.203125 0)"/>
      </g>
     </g>
    </g>
    <g id="text_13">
     <!-- ​ﻦﻣﺰﻟﺍ -->
     <g style="fill: #1f2937" transform="translate(325.7545 427.293) scale(0.105 -0.105)">
      <defs>
       <path id="NotoNaskhArabic-Regular-3" d="M 666 0 
Q 646 1126 604 2057 
Q 563 2989 493 3725 
Q 467 3987 566 4118 
Q 666 4250 915 4294 
Q 941 4173 1001 3965 
Q 1062 3757 1139 3533 
L 966 3386 
Q 992 2912 1001 2413 
Q 1011 1914 1001 1338 
Q 992 762 960 51 
L 666 0 
z
" transform="scale(0.015625)"/>
       <path id="NotoNaskhArabic-Regular-1c1" d="M -6 0 
Q -64 0 -64 51 
L -64 435 
Q -64 486 -6 486 
Q 378 486 704 659 
Q 685 902 665 1139 
Q 646 1376 627 1606 
Q 570 2208 512 2790 
Q 454 3373 384 3936 
Q 474 4032 579 4121 
Q 685 4211 806 4294 
Q 826 3949 851 3497 
Q 877 3046 915 2483 
Q 947 2016 960 1609 
Q 973 1203 979 864 
Q 979 755 915 572 
Q 851 390 755 224 
Q 640 0 -6 0 
z
" transform="scale(0.015625)"/>
       <path id="NotoNaskhArabic-Regular-d6" d="M 710 -1306 
Q 608 -1306 451 -1248 
Q 294 -1190 134 -1107 
Q -26 -1024 -128 -947 
L -45 -736 
Q 134 -768 284 -787 
Q 435 -806 563 -806 
Q 1043 -806 1385 -518 
Q 1728 -230 1907 314 
Q 1862 416 1814 515 
Q 1766 614 1709 717 
Q 1491 1107 1388 1340 
Q 1286 1574 1286 1734 
Q 1286 1901 1382 2000 
Q 1478 2099 1658 2182 
Q 1683 2099 1712 2000 
Q 1741 1901 1786 1792 
Q 1888 1530 1955 1334 
Q 2022 1139 2054 1018 
Q 2093 896 2115 797 
Q 2138 698 2144 614 
Q 2362 486 2643 486 
Q 2694 486 2694 435 
L 2694 51 
Q 2694 0 2643 0 
Q 2342 0 2118 154 
Q 2048 -288 1849 -617 
Q 1651 -947 1356 -1126 
Q 1062 -1306 710 -1306 
z
M 1299 2560 
Q 1018 2771 839 2976 
Q 1165 3303 1287 3443 
Q 1389 3335 1494 3229 
Q 1600 3123 1709 3027 
Q 1562 2816 1299 2560 
z
" transform="scale(0.015625)"/>
       <path id="NotoNaskhArabic-Regular-1e5" d="M 2291 0 
Q 2035 0 1753 48 
Q 1472 96 1209 182 
Q 947 269 749 384 
Q 602 179 422 89 
Q 243 0 0 0 
Q -51 0 -51 51 
L -51 435 
Q -51 486 0 486 
Q 243 486 409 604 
Q 576 723 698 960 
Q 813 1171 880 1308 
Q 947 1446 1004 1555 
Q 1062 1664 1152 1779 
Q 1312 1990 1478 2083 
Q 1645 2176 1830 2176 
Q 2016 2176 2201 1945 
Q 2387 1715 2502 1357 
Q 2618 1005 2618 666 
Q 2618 467 2547 307 
Q 2477 147 2291 0 
z
M 2150 486 
Q 2144 781 2061 1065 
Q 1978 1350 1875 1498 
Q 1805 1606 1728 1606 
Q 1491 1606 1286 1318 
Q 1235 1242 1161 1117 
Q 1088 992 998 806 
Q 1459 563 2150 486 
z
" transform="scale(0.015625)"/>
       <path id="NotoNaskhArabic-Regular-1e8" d="M 1594 -1677 
Q 1050 -1677 742 -1363 
Q 435 -1050 435 -474 
Q 435 -346 444 -237 
Q 454 -128 480 9 
Q 506 147 557 358 
L 794 301 
Q 723 6 723 -154 
Q 723 -621 956 -883 
Q 1190 -1146 1606 -1146 
Q 1926 -1146 2249 -1040 
Q 2573 -934 2829 -752 
Q 3085 -570 3187 -346 
Q 2976 109 2873 416 
Q 2771 723 2771 877 
Q 2771 1043 2864 1174 
Q 2957 1306 3187 1446 
Q 3200 1344 3235 1133 
Q 3270 922 3334 595 
Q 3565 486 3802 486 
Q 3859 486 3859 435 
L 3859 51 
Q 3859 0 3802 0 
Q 3590 0 3418 77 
L 3424 -109 
Q 3424 -499 3174 -860 
Q 2925 -1222 2490 -1446 
Q 2061 -1677 1594 -1677 
z
M 1766 1504 
Q 1485 1715 1306 1920 
Q 1632 2247 1754 2387 
Q 1856 2279 1961 2173 
Q 2067 2067 2176 1971 
Q 2029 1760 1766 1504 
z
" transform="scale(0.015625)"/>
       <path id="NotoNaskhArabic-Regular-554" transform="scale(0.015625)"/>
      </defs>
      <use xlink:href="#NotoNaskhArabic-Regular-3"/>
      <use xlink:href="#NotoNaskhArabic-Regular-1c1" transform="translate(23.796875 0)"/>
      <use xlink:href="#NotoNaskhArabic-Regular-d6" transform="translate(45 0)"/>
      <use xlink:href="#NotoNaskhArabic-Regular-1e5" transform="translate(85.40625 0)"/>
      <use xlink:href="#NotoNaskhArabic-Regular-1e8" transform="translate(131 0)"/>
      <use xlink:href="#NotoNaskhArabic-Regular-554" transform="translate(189.5 0)"/>
     </g>
    </g>
   </g>
   <g id="matplotlib.axis_4">
    <g id="ytick_6">
     <g id="line2d_47">
      <g>
       <use xlink:href="#m50526c0b63" x="50.2565" y="387.187" style="fill: #555555; stroke: #555555; stroke-width: 0.8"/>
      </g>
     </g>
     <g id="text_14">
      <!-- 0.0 -->
      <g style="fill: #555555" transform="translate(29.0815 392.79925) scale(0.105 -0.105)">
       <defs>
        <path id="NotoNaskhArabic-Regular-514" d="M 800 -422 
Q 646 -314 518 -230 
Q 390 -147 294 -90 
Q 326 -19 364 41 
Q 403 102 429 166 
Q 493 282 576 410 
Q 1069 122 1069 32 
Q 1069 -38 800 -422 
z
" transform="scale(0.015625)"/>
       </defs>
       <use xlink:href="#NotoNaskhArabic-Regular-4cc"/>
       <use xlink:href="#NotoNaskhArabic-Regular-514" transform="translate(57.203125 0)"/>
       <use xlink:href="#NotoNaskhArabic-Regular-4cc" transform="translate(77.796875 0)"/>
      </g>
     </g>
    </g>
    <g id="ytick_7">
     <g id="line2d_48">
      <g>
       <use xlink:href="#m50526c0b63" x="50.2565" y="364.935151" style="fill: #555555; stroke: #555555; stroke-width: 0.8"/>
      </g>
     </g>
     <g id="text_15">
      <!-- 0.2 -->
      <g style="fill: #555555" transform="translate(29.0815 370.547401) scale(0.105 -0.105)">
       <use xlink:href="#NotoNaskhArabic-Regular-4cc"/>
       <use xlink:href="#NotoNaskhArabic-Regular-514" transform="translate(57.203125 0)"/>
       <use xlink:href="#NotoNaskhArabic-Regular-4ce" transform="translate(77.796875 0)"/>
      </g>
     </g>
    </g>
    <g id="ytick_8">
     <g id="line2d_49">
      <g>
       <use xlink:href="#m50526c0b63" x="50.2565" y="342.683301" style="fill: #555555; stroke: #555555; stroke-width: 0.8"/>
      </g>
     </g>
     <g id="text_16">
      <!-- 0.4 -->
      <g style="fill: #555555" transform="translate(29.0815 348.295551) scale(0.105 -0.105)">
       <use xlink:href="#NotoNaskhArabic-Regular-4cc"/>
       <use xlink:href="#NotoNaskhArabic-Regular-514" transform="translate(57.203125 0)"/>
       <use xlink:href="#NotoNaskhArabic-Regular-4d0" transform="translate(77.796875 0)"/>
      </g>
     </g>
    </g>
    <g id="ytick_9">
     <g id="line2d_50">
      <g>
       <use xlink:href="#m50526c0b63" x="50.2565" y="320.431452" style="fill: #555555; stroke: #555555; stroke-width: 0.8"/>
      </g>
     </g>
     <g id="text_17">
      <!-- 0.6 -->
      <g style="fill: #555555" transform="translate(29.0815 326.043702) scale(0.105 -0.105)">
       <use xlink:href="#NotoNaskhArabic-Regular-4cc"/>
       <use xlink:href="#NotoNaskhArabic-Regular-514" transform="translate(57.203125 0)"/>
       <use xlink:href="#NotoNaskhArabic-Regular-4d2" transform="translate(77.796875 0)"/>
      </g>
     </g>
    </g>
    <g id="ytick_10">
     <g id="line2d_51">
      <g>
       <use xlink:href="#m50526c0b63" x="50.2565" y="298.179603" style="fill: #555555; stroke: #555555; stroke-width: 0.8"/>
      </g>
     </g>
     <g id="text_18">
      <!-- 0.8 -->
      <g style="fill: #555555" transform="translate(29.0815 303.791853) scale(0.105 -0.105)">
       <use xlink:href="#NotoNaskhArabic-Regular-4cc"/>
       <use xlink:href="#NotoNaskhArabic-Regular-514" transform="translate(57.203125 0)"/>
       <use xlink:href="#NotoNaskhArabic-Regular-4d4" transform="translate(77.796875 0)"/>
      </g>
     </g>
    </g>
    <g id="text_19">
     <!-- ​ﻢﺠﺤﻟﺍ -->
     <g style="fill: #1f2937" transform="translate(18.4245 343.856486) rotate(-90) scale(0.105 -0.105)">
      <defs>
       <path id="NotoNaskhArabic-Regular-8b" d="M 0 0 
Q -51 0 -51 51 
L -51 435 
Q -51 486 0 486 
Q 602 486 1043 553 
Q 1485 621 1837 781 
Q 2253 966 2477 1011 
Q 2355 1069 2230 1142 
Q 2106 1216 1984 1306 
Q 1734 1491 1568 1564 
Q 1402 1638 1235 1638 
Q 1037 1638 902 1587 
Q 768 1536 531 1389 
Q 442 1491 442 1638 
Q 442 1882 653 2029 
Q 864 2176 1210 2176 
Q 1414 2176 1622 2096 
Q 1830 2016 2106 1824 
Q 2438 1600 2672 1481 
Q 2906 1363 3142 1312 
Q 3386 1254 3853 1254 
L 3603 781 
Q 3552 787 3440 793 
Q 3328 800 3213 813 
Q 3098 826 3021 832 
Q 3091 717 3171 646 
Q 3251 576 3379 544 
Q 3610 486 4314 486 
Q 4371 486 4371 435 
L 4371 51 
Q 4371 0 4314 0 
Q 3840 6 3549 73 
Q 3258 141 3072 288 
Q 2982 365 2896 483 
Q 2810 602 2733 762 
Q 2560 698 2387 598 
Q 2214 499 2042 410 
Q 1805 288 1603 208 
Q 1402 128 1181 83 
Q 960 38 678 19 
Q 397 0 0 0 
z
" transform="scale(0.015625)"/>
       <path id="NotoNaskhArabic-Regular-73" d="M 0 0 
Q -51 0 -51 51 
L -51 435 
Q -51 486 0 486 
Q 602 486 1043 553 
Q 1485 621 1837 781 
Q 2253 966 2477 1011 
Q 2355 1069 2230 1142 
Q 2106 1216 1984 1306 
Q 1734 1491 1568 1564 
Q 1402 1638 1235 1638 
Q 1037 1638 902 1587 
Q 768 1536 531 1389 
Q 442 1491 442 1638 
Q 442 1882 653 2029 
Q 864 2176 1210 2176 
Q 1414 2176 1622 2096 
Q 1830 2016 2106 1824 
Q 2438 1600 2672 1481 
Q 2906 1363 3142 1312 
Q 3386 1254 3853 1254 
L 3603 781 
Q 3552 787 3440 793 
Q 3328 800 3213 813 
Q 3098 826 3021 832 
Q 3091 717 3171 646 
Q 3251 576 3379 544 
Q 3610 486 4314 486 
Q 4371 486 4371 435 
L 4371 51 
Q 4371 0 4314 0 
Q 3840 6 3549 73 
Q 3258 141 3072 288 
Q 2982 365 2896 483 
Q 2810 602 2733 762 
Q 2560 698 2387 598 
Q 2214 499 2042 410 
Q 1805 288 1603 208 
Q 1402 128 1181 83 
Q 960 38 678 19 
Q 397 0 0 0 
z
M 2272 -1178 
Q 2131 -1069 2015 -963 
Q 1900 -858 1811 -755 
Q 2099 -480 2259 -288 
Q 2483 -525 2681 -710 
Q 2528 -922 2272 -1178 
z
" transform="scale(0.015625)"/>
       <path id="NotoNaskhArabic-Regular-1e3" d="M 634 -1952 
Q 608 -1587 579 -1212 
Q 550 -838 506 -448 
Q 474 -141 454 121 
Q 435 384 435 595 
Q 435 634 444 682 
Q 454 730 467 787 
Q 506 902 659 1229 
Q 672 1261 761 1334 
Q 851 1408 979 1497 
Q 1107 1587 1238 1676 
Q 1370 1766 1472 1830 
Q 1754 1997 1968 2086 
Q 2182 2176 2317 2176 
Q 2438 2176 2554 1978 
Q 2618 1875 2688 1715 
Q 2758 1555 2842 1331 
Q 2918 1114 2995 954 
Q 3072 794 3136 691 
Q 3283 486 3430 486 
Q 3501 486 3501 422 
L 3501 70 
Q 3501 0 3430 0 
Q 3117 0 2848 275 
L 2771 0 
Q 2330 0 1955 96 
Q 1581 192 1350 361 
Q 1120 531 1120 749 
Q 1120 954 1242 1190 
Q 947 992 704 806 
Q 749 275 915 -717 
Q 947 -966 985 -1216 
Q 1024 -1466 1062 -1715 
Q 966 -1779 860 -1840 
Q 755 -1901 634 -1952 
z
M 2726 442 
Q 2586 666 2474 1005 
Q 2362 1344 2330 1690 
Q 2150 1600 1974 1462 
Q 1798 1325 1660 1171 
Q 1523 1018 1459 883 
Q 1875 531 2726 442 
z
" transform="scale(0.015625)"/>
      </defs>
      <use xlink:href="#NotoNaskhArabic-Regular-3"/>
      <use xlink:href="#NotoNaskhArabic-Regular-1c1" transform="translate(23.796875 0)"/>
      <use xlink:href="#NotoNaskhArabic-Regular-8b" transform="translate(45 0)"/>
      <use xlink:href="#NotoNaskhArabic-Regular-73" transform="translate(111.59375 0)"/>
      <use xlink:href="#NotoNaskhArabic-Regular-1e3" transform="translate(178.1875 0)"/>
      <use xlink:href="#NotoNaskhArabic-Regular-554" transform="translate(230.984375 0)"/>
     </g>
    </g>
   </g>
   <g id="patch_64">
    <path d="M 50.2565 387.187 
L 50.2565 276.272614 
" style="fill: none; stroke: #1f2937; stroke-width: 0.8; stroke-linejoin: miter; stroke-linecap: square"/>
   </g>
   <g id="patch_65">
    <path d="M 50.2565 387.187 
L 621.15 387.187 
" style="fill: none; stroke: #1f2937; stroke-width: 0.8; stroke-linejoin: miter; stroke-linecap: square"/>
   </g>
   <g id="text_20">
    <!-- Weak volume -->
    <g style="fill: #b91c1c" transform="translate(322.313568 267.078751) scale(0.085 -0.085)">
     <defs>
      <path id="DejaVuSans-Bold-3a" d="M 191 4666 
L 1344 4666 
L 2150 1275 
L 2950 4666 
L 4109 4666 
L 4909 1275 
L 5716 4666 
L 6859 4666 
L 5759 0 
L 4372 0 
L 3525 3547 
L 2688 0 
L 1300 0 
L 191 4666 
z
" transform="scale(0.015625)"/>
      <path id="DejaVuSans-Bold-48" d="M 4031 1759 
L 4031 1441 
L 1416 1441 
Q 1456 1047 1700 850 
Q 1944 653 2381 653 
Q 2734 653 3104 758 
Q 3475 863 3866 1075 
L 3866 213 
Q 3469 63 3072 -14 
Q 2675 -91 2278 -91 
Q 1328 -91 801 392 
Q 275 875 275 1747 
Q 275 2603 792 3093 
Q 1309 3584 2216 3584 
Q 3041 3584 3536 3087 
Q 4031 2591 4031 1759 
z
M 2881 2131 
Q 2881 2450 2695 2645 
Q 2509 2841 2209 2841 
Q 1884 2841 1681 2658 
Q 1478 2475 1428 2131 
L 2881 2131 
z
" transform="scale(0.015625)"/>
      <path id="DejaVuSans-Bold-44" d="M 2106 1575 
Q 1756 1575 1579 1456 
Q 1403 1338 1403 1106 
Q 1403 894 1545 773 
Q 1688 653 1941 653 
Q 2256 653 2472 879 
Q 2688 1106 2688 1447 
L 2688 1575 
L 2106 1575 
z
M 3816 1997 
L 3816 0 
L 2688 0 
L 2688 519 
Q 2463 200 2181 54 
Q 1900 -91 1497 -91 
Q 953 -91 614 226 
Q 275 544 275 1050 
Q 275 1666 698 1953 
Q 1122 2241 2028 2241 
L 2688 2241 
L 2688 2328 
Q 2688 2594 2478 2717 
Q 2269 2841 1825 2841 
Q 1466 2841 1156 2769 
Q 847 2697 581 2553 
L 581 3406 
Q 941 3494 1303 3539 
Q 1666 3584 2028 3584 
Q 2975 3584 3395 3211 
Q 3816 2838 3816 1997 
z
" transform="scale(0.015625)"/>
      <path id="DejaVuSans-Bold-4e" d="M 538 4863 
L 1656 4863 
L 1656 2216 
L 2944 3500 
L 4244 3500 
L 2534 1894 
L 4378 0 
L 3022 0 
L 1656 1459 
L 1656 0 
L 538 0 
L 538 4863 
z
" transform="scale(0.015625)"/>
      <path id="DejaVuSans-Bold-59" d="M 97 3500 
L 1216 3500 
L 2088 1081 
L 2956 3500 
L 4078 3500 
L 2700 0 
L 1472 0 
L 97 3500 
z
" transform="scale(0.015625)"/>
      <path id="DejaVuSans-Bold-52" d="M 2203 2784 
Q 1831 2784 1636 2517 
Q 1441 2250 1441 1747 
Q 1441 1244 1636 976 
Q 1831 709 2203 709 
Q 2569 709 2762 976 
Q 2956 1244 2956 1747 
Q 2956 2250 2762 2517 
Q 2569 2784 2203 2784 
z
M 2203 3584 
Q 3106 3584 3614 3096 
Q 4122 2609 4122 1747 
Q 4122 884 3614 396 
Q 3106 -91 2203 -91 
Q 1297 -91 786 396 
Q 275 884 275 1747 
Q 275 2609 786 3096 
Q 1297 3584 2203 3584 
z
" transform="scale(0.015625)"/>
      <path id="DejaVuSans-Bold-4f" d="M 538 4863 
L 1656 4863 
L 1656 0 
L 538 0 
L 538 4863 
z
" transform="scale(0.015625)"/>
      <path id="DejaVuSans-Bold-58" d="M 500 1363 
L 500 3500 
L 1625 3500 
L 1625 3150 
Q 1625 2866 1622 2436 
Q 1619 2006 1619 1863 
Q 1619 1441 1641 1255 
Q 1663 1069 1716 984 
Q 1784 875 1895 815 
Q 2006 756 2150 756 
Q 2500 756 2700 1025 
Q 2900 1294 2900 1772 
L 2900 3500 
L 4019 3500 
L 4019 0 
L 2900 0 
L 2900 506 
Q 2647 200 2364 54 
Q 2081 -91 1741 -91 
Q 1134 -91 817 281 
Q 500 653 500 1363 
z
" transform="scale(0.015625)"/>
      <path id="DejaVuSans-Bold-50" d="M 3781 2919 
Q 3994 3244 4286 3414 
Q 4578 3584 4928 3584 
Q 5531 3584 5847 3212 
Q 6163 2841 6163 2131 
L 6163 0 
L 5038 0 
L 5038 1825 
Q 5041 1866 5042 1909 
Q 5044 1953 5044 2034 
Q 5044 2406 4934 2573 
Q 4825 2741 4581 2741 
Q 4263 2741 4089 2478 
Q 3916 2216 3909 1719 
L 3909 0 
L 2784 0 
L 2784 1825 
Q 2784 2406 2684 2573 
Q 2584 2741 2328 2741 
Q 2006 2741 1831 2477 
Q 1656 2213 1656 1722 
L 1656 0 
L 531 0 
L 531 3500 
L 1656 3500 
L 1656 2988 
Q 1863 3284 2130 3434 
Q 2397 3584 2719 3584 
Q 3081 3584 3359 3409 
Q 3638 3234 3781 2919 
z
" transform="scale(0.015625)"/>
     </defs>
     <use xlink:href="#DejaVuSans-Bold-3a"/>
     <use xlink:href="#DejaVuSans-Bold-48" transform="translate(106.734375 0)"/>
     <use xlink:href="#DejaVuSans-Bold-44" transform="translate(174.5625 0)"/>
     <use xlink:href="#DejaVuSans-Bold-4e" transform="translate(242.046875 0)"/>
     <use xlink:href="#NotoNaskhArabic-Bold-554" transform="translate(308.546875 0)"/>
     <use xlink:href="#DejaVuSans-Bold-59" transform="translate(330.640625 0)"/>
     <use xlink:href="#DejaVuSans-Bold-52" transform="translate(395.828125 0)"/>
     <use xlink:href="#DejaVuSans-Bold-4f" transform="translate(464.53125 0)"/>
     <use xlink:href="#DejaVuSans-Bold-58" transform="translate(498.8125 0)"/>
     <use xlink:href="#DejaVuSans-Bold-50" transform="translate(570 0)"/>
     <use xlink:href="#DejaVuSans-Bold-48" transform="translate(674.203125 0)"/>
    </g>
    <!-- on breakout -->
    <g style="fill: #b91c1c" transform="translate(325.388178 281.554251) scale(0.085 -0.085)">
     <defs>
      <path id="DejaVuSans-Bold-51" d="M 4056 2131 
L 4056 0 
L 2931 0 
L 2931 347 
L 2931 1631 
Q 2931 2084 2911 2256 
Q 2891 2428 2841 2509 
Q 2775 2619 2662 2680 
Q 2550 2741 2406 2741 
Q 2056 2741 1856 2470 
Q 1656 2200 1656 1722 
L 1656 0 
L 538 0 
L 538 3500 
L 1656 3500 
L 1656 2988 
Q 1909 3294 2193 3439 
Q 2478 3584 2822 3584 
Q 3428 3584 3742 3212 
Q 4056 2841 4056 2131 
z
" transform="scale(0.015625)"/>
      <path id="DejaVuSans-Bold-45" d="M 2400 722 
Q 2759 722 2948 984 
Q 3138 1247 3138 1747 
Q 3138 2247 2948 2509 
Q 2759 2772 2400 2772 
Q 2041 2772 1848 2508 
Q 1656 2244 1656 1747 
Q 1656 1250 1848 986 
Q 2041 722 2400 722 
z
M 1656 2988 
Q 1888 3294 2169 3439 
Q 2450 3584 2816 3584 
Q 3463 3584 3878 3070 
Q 4294 2556 4294 1747 
Q 4294 938 3878 423 
Q 3463 -91 2816 -91 
Q 2450 -91 2169 54 
Q 1888 200 1656 506 
L 1656 0 
L 538 0 
L 538 4863 
L 1656 4863 
L 1656 2988 
z
" transform="scale(0.015625)"/>
      <path id="DejaVuSans-Bold-55" d="M 3138 2547 
Q 2991 2616 2845 2648 
Q 2700 2681 2553 2681 
Q 2122 2681 1889 2404 
Q 1656 2128 1656 1613 
L 1656 0 
L 538 0 
L 538 3500 
L 1656 3500 
L 1656 2925 
Q 1872 3269 2151 3426 
Q 2431 3584 2822 3584 
Q 2878 3584 2943 3579 
Q 3009 3575 3134 3559 
L 3138 2547 
z
" transform="scale(0.015625)"/>
      <path id="DejaVuSans-Bold-57" d="M 1759 4494 
L 1759 3500 
L 2913 3500 
L 2913 2700 
L 1759 2700 
L 1759 1216 
Q 1759 972 1856 886 
Q 1953 800 2241 800 
L 2816 800 
L 2816 0 
L 1856 0 
Q 1194 0 917 276 
Q 641 553 641 1216 
L 641 2700 
L 84 2700 
L 84 3500 
L 641 3500 
L 641 4494 
L 1759 4494 
z
" transform="scale(0.015625)"/>
     </defs>
     <use xlink:href="#DejaVuSans-Bold-52"/>
     <use xlink:href="#DejaVuSans-Bold-51" transform="translate(68.703125 0)"/>
     <use xlink:href="#NotoNaskhArabic-Bold-554" transform="translate(139.890625 0)"/>
     <use xlink:href="#DejaVuSans-Bold-45" transform="translate(161.984375 0)"/>
     <use xlink:href="#DejaVuSans-Bold-55" transform="translate(233.5625 0)"/>
     <use xlink:href="#DejaVuSans-Bold-48" transform="translate(282.875 0)"/>
     <use xlink:href="#DejaVuSans-Bold-44" transform="translate(350.703125 0)"/>
     <use xlink:href="#DejaVuSans-Bold-4e" transform="translate(418.1875 0)"/>
     <use xlink:href="#DejaVuSans-Bold-52" transform="translate(482 0)"/>
     <use xlink:href="#DejaVuSans-Bold-58" transform="translate(550.703125 0)"/>
     <use xlink:href="#DejaVuSans-Bold-57" transform="translate(621.890625 0)"/>
    </g>
   </g>
  </g>
 </g>
 <defs>
  <clipPath id="pee36c38a79">
   <rect x="50.2565" y="7.2" width="570.8935" height="244.01165"/>
  </clipPath>
  <clipPath id="p43e0e7e0a8">
   <rect x="50.2565" y="276.272614" width="570.8935" height="110.914386"/>
  </clipPath>
 </defs>
</svg>
