<?xml version="1.0" encoding="utf-8" standalone="no"?>
<!DOCTYPE svg PUBLIC "-//W3C//DTD SVG 1.1//EN"
  "http://www.w3.org/Graphics/SVG/1.1/DTD/svg11.dtd">
<svg xmlns:xlink="http://www.w3.org/1999/xlink" width="642.75pt" height="340.35pt" viewBox="0 0 642.75 340.35" xmlns="http://www.w3.org/2000/svg" version="1.1">
 <metadata>
  <rdf:RDF xmlns:dc="http://purl.org/dc/elements/1.1/" xmlns:cc="http://creativecommons.org/ns#" xmlns:rdf="http://www.w3.org/1999/02/22-rdf-syntax-ns#">
   <cc:Work>
    <dc:type rdf:resource="http://purl.org/dc/dcmitype/StillImage"/>
    <dc:date>2026-07-19T01:11:17.338203</dc:date>
    <dc:format>image/svg+xml</dc:format>
    <dc:creator>
     <cc:Agent>
      <dc:title>Matplotlib v3.11.1, https://matplotlib.org/</dc:title>
     </cc:Agent>
    </dc:creator>
   </cc:Work>
  </rdf:RDF>
 </metadata>
 <defs>
  <style type="text/css">*{stroke-linejoin: round; stroke-linecap: butt}</style>
 </defs>
 <g id="figure_1">
  <g id="patch_1">
   <path d="M 0 340.35 
L 642.75 340.35 
L 642.75 0 
L 0 0 
z
" style="fill: #ffffff"/>
  </g>
  <g id="axes_1">
   <g id="patch_2">
    <path d="M 54.100484 290.387 
L 635.55 290.387 
L 635.55 7.2 
L 54.100484 7.2 
z
" style="fill: #ffffff"/>
   </g>
   <g id="matplotlib.axis_1">
    <g id="xtick_1">
     <g id="line2d_1">
      <defs>
       <path id="m7fc07d4d51" d="M 0 0 
L 0 3.5 
" style="stroke: #555555; stroke-width: 0.8"/>
      </defs>
      <g>
       <use xlink:href="#m7fc07d4d51" x="109.896145" y="290.387" style="fill: #555555; stroke: #555555; stroke-width: 0.8"/>
      </g>
     </g>
     <g id="text_1">
      <!-- ​ﺕﺍﺩﺍﺮﻳﻹﺍ -->
      <g style="fill: #555555" transform="translate(93.279895 308.6115) scale(0.105 -0.105)">
       <defs>
        <path id="NotoNaskhArabic-Regular-3" d="M 666 0 
Q 646 1126 604 2057 
Q 563 2989 493 3725 
Q 467 3987 566 4118 
Q 666 4250 915 4294 
Q 941 4173 1001 3965 
Q 1062 3757 1139 3533 
L 966 3386 
Q 992 2912 1001 2413 
Q 1011 1914 1001 1338 
Q 992 762 960 51 
L 666 0 
z
" transform="scale(0.015625)"/>
        <path id="NotoNaskhArabic-Regular-2ea" d="M 877 0 
Q 858 0 858 70 
Q 858 128 874 227 
Q 890 326 915 406 
Q 941 486 954 486 
L 1088 486 
Q 1376 710 1555 864 
Q 1734 1018 1862 1155 
Q 1990 1293 2118 1459 
Q 1830 1792 1472 2089 
Q 1114 2387 768 2586 
L 531 2573 
Q 224 2861 224 3123 
Q 224 3219 262 3312 
Q 301 3405 442 3475 
Q 621 3354 835 3181 
Q 1050 3008 1274 2813 
Q 1498 2618 1690 2426 
Q 1837 2285 1990 2118 
Q 2144 1952 2304 1766 
Q 2426 2048 2426 2317 
Q 2426 2451 2390 2745 
Q 2355 3040 2285 3501 
Q 2253 3718 2233 3846 
Q 2214 3974 2214 4000 
Q 2214 4326 2643 4403 
Q 2688 4205 2749 4016 
Q 2810 3827 2874 3642 
L 2701 3494 
L 2707 3360 
L 2746 2445 
Q 2746 1958 2502 1491 
Q 2566 1389 2646 1248 
Q 2726 1107 2803 963 
Q 2880 819 2931 704 
Q 2982 589 2982 538 
Q 2982 474 2947 374 
Q 2912 275 2867 195 
Q 2822 115 2790 109 
Q 2490 58 2013 29 
Q 1536 0 877 0 
z
M 1594 499 
Q 2157 518 2733 614 
Q 2662 742 2560 892 
Q 2458 1043 2323 1210 
Q 2189 1024 2003 845 
Q 1818 666 1594 499 
z
M 723 -1575 
L 710 -1325 
L 960 -1184 
Q 729 -1133 729 -928 
Q 729 -800 803 -688 
Q 877 -576 985 -502 
Q 1094 -429 1203 -429 
Q 1453 -429 1453 -659 
Q 1453 -749 1408 -839 
L 1286 -800 
L 1293 -775 
Q 1293 -698 1216 -698 
Q 1113 -698 1030 -768 
Q 947 -839 915 -935 
Q 1011 -1063 1203 -1063 
Q 1357 -1063 1529 -1018 
L 1517 -1267 
Q 1331 -1312 1209 -1353 
Q 1088 -1395 979 -1446 
Q 870 -1498 723 -1575 
z
" transform="scale(0.015625)"/>
        <path id="NotoNaskhArabic-Regular-241" d="M 0 0 
Q -51 0 -51 51 
L -51 435 
Q -51 486 0 486 
Q 314 486 618 515 
Q 922 544 1171 598 
Q 1421 653 1568 723 
Q 1536 851 1478 1027 
Q 1421 1203 1331 1427 
Q 1274 1594 1242 1699 
Q 1210 1805 1210 1856 
Q 1210 1997 1325 2144 
Q 1440 2291 1632 2394 
Q 1715 2022 1766 1782 
Q 1818 1542 1843 1369 
Q 1869 1197 1869 1005 
Q 1869 781 1651 352 
Q 1478 250 1206 170 
Q 934 90 620 45 
Q 307 0 0 0 
z
M 1581 -1165 
Q 1312 -953 1165 -774 
Q 1306 -640 1574 -345 
Q 1606 -371 1702 -467 
Q 1798 -563 1971 -729 
Q 1907 -819 1811 -928 
Q 1715 -1037 1581 -1165 
z
M 627 -1261 
Q 339 -1030 198 -870 
Q 288 -793 390 -684 
Q 493 -576 614 -435 
Q 640 -467 739 -563 
Q 838 -659 1005 -819 
Q 947 -915 851 -1024 
Q 755 -1133 627 -1261 
z
" transform="scale(0.015625)"/>
        <path id="NotoNaskhArabic-Regular-d4" d="M 710 -1306 
Q 608 -1306 451 -1248 
Q 294 -1190 134 -1107 
Q -26 -1024 -128 -947 
L -45 -736 
Q 134 -768 284 -787 
Q 435 -806 563 -806 
Q 1043 -806 1385 -518 
Q 1728 -230 1907 314 
Q 1862 416 1814 515 
Q 1766 614 1709 717 
Q 1491 1107 1388 1340 
Q 1286 1574 1286 1734 
Q 1286 1901 1382 2000 
Q 1478 2099 1658 2182 
Q 1683 2099 1712 2000 
Q 1741 1901 1786 1792 
Q 1888 1530 1955 1334 
Q 2022 1139 2054 1018 
Q 2093 896 2115 797 
Q 2138 698 2144 614 
Q 2362 486 2643 486 
Q 2694 486 2694 435 
L 2694 51 
Q 2694 0 2643 0 
Q 2342 0 2118 154 
Q 2048 -288 1849 -617 
Q 1651 -947 1356 -1126 
Q 1062 -1306 710 -1306 
z
" transform="scale(0.015625)"/>
        <path id="NotoNaskhArabic-Regular-b5" d="M 998 0 
Q 218 0 218 403 
Q 218 621 333 742 
Q 493 614 697 550 
Q 902 486 1203 486 
Q 1632 486 2074 621 
Q 2022 762 1955 909 
Q 1888 1056 1805 1203 
Q 1632 1510 1549 1670 
Q 1466 1830 1440 1926 
Q 1414 2022 1414 2125 
Q 1414 2445 1747 2547 
Q 1805 2406 1878 2233 
Q 1952 2061 2029 1894 
Q 2106 1728 2157 1606 
Q 2253 1402 2317 1226 
Q 2381 1050 2381 902 
Q 2381 806 2320 630 
Q 2259 454 2150 250 
Q 1690 0 998 0 
z
" transform="scale(0.015625)"/>
        <path id="NotoNaskhArabic-Regular-35" d="M 2010 0 
Q 1254 0 851 272 
Q 448 544 448 1088 
Q 448 1498 531 1792 
L 762 1792 
Q 755 1766 748 1660 
Q 742 1555 742 1478 
Q 742 1107 883 905 
Q 1024 704 1331 595 
Q 1645 486 2144 486 
Q 2739 486 3308 608 
Q 3878 730 4320 941 
Q 4288 1075 4230 1251 
Q 4173 1427 4090 1645 
Q 3968 1965 3968 2074 
Q 3968 2208 4077 2352 
Q 4186 2496 4390 2611 
Q 4493 2138 4560 1795 
Q 4627 1453 4627 1222 
Q 4627 1005 4403 570 
Q 3981 301 3376 150 
Q 2771 0 2010 0 
z
M 2790 2099 
Q 2649 2208 2543 2307 
Q 2438 2406 2368 2496 
Q 2400 2528 2502 2637 
Q 2604 2746 2777 2925 
Q 2816 2886 2915 2790 
Q 3014 2694 3174 2541 
Q 3052 2349 2790 2099 
z
M 1830 2010 
Q 1689 2125 1580 2224 
Q 1472 2323 1401 2400 
Q 1568 2560 1817 2835 
Q 1856 2790 1952 2694 
Q 2048 2598 2208 2451 
Q 2150 2355 2054 2246 
Q 1958 2138 1830 2010 
z
" transform="scale(0.015625)"/>
        <path id="NotoNaskhArabic-Regular-554" transform="scale(0.015625)"/>
       </defs>
       <use xlink:href="#NotoNaskhArabic-Regular-3"/>
       <use xlink:href="#NotoNaskhArabic-Regular-2ea" transform="translate(23.796875 0)"/>
       <use xlink:href="#NotoNaskhArabic-Regular-241" transform="translate(75.59375 0)"/>
       <use xlink:href="#NotoNaskhArabic-Regular-d4" transform="translate(109.890625 0)"/>
       <use xlink:href="#NotoNaskhArabic-Regular-3" transform="translate(150.296875 0)"/>
       <use xlink:href="#NotoNaskhArabic-Regular-b5" transform="translate(174.09375 0)"/>
       <use xlink:href="#NotoNaskhArabic-Regular-3" transform="translate(215.5 0)"/>
       <use xlink:href="#NotoNaskhArabic-Regular-35" transform="translate(239.296875 0)"/>
       <use xlink:href="#NotoNaskhArabic-Regular-554" transform="translate(316.5 0)"/>
      </g>
     </g>
    </g>
    <g id="xtick_2">
     <g id="line2d_2">
      <g>
       <use xlink:href="#m7fc07d4d51" x="227.360694" y="290.387" style="fill: #555555; stroke: #555555; stroke-width: 0.8"/>
      </g>
     </g>
     <g id="text_2">
      <!-- ​ﺔﻋﺎﻀﺒﻟﺍ ﺔﻔﻠﻜﺗ -->
      <g style="fill: #555555" transform="translate(202.165615 308.6115) scale(0.105 -0.105)">
       <defs>
        <path id="NotoNaskhArabic-Regular-38" d="M 0 0 
Q -51 0 -51 51 
L -51 435 
Q -51 486 0 486 
Q 294 486 598 553 
Q 902 621 1133 723 
Q 1088 870 1030 1046 
Q 973 1222 902 1427 
Q 781 1747 781 1856 
Q 781 1997 893 2144 
Q 1005 2291 1197 2394 
Q 1210 2304 1248 2121 
Q 1286 1939 1344 1658 
Q 1440 1235 1440 1005 
Q 1440 909 1379 733 
Q 1318 557 1210 352 
Q 627 0 0 0 
z
M 1344 2803 
Q 1203 2912 1097 3011 
Q 992 3110 922 3200 
Q 954 3232 1056 3341 
Q 1158 3450 1331 3629 
Q 1370 3590 1469 3494 
Q 1568 3398 1728 3245 
Q 1606 3053 1344 2803 
z
M 384 2714 
Q 243 2829 134 2928 
Q 26 3027 -45 3104 
Q 122 3264 371 3539 
Q 410 3494 506 3398 
Q 602 3302 762 3155 
Q 704 3059 608 2950 
Q 512 2842 384 2714 
z
" transform="scale(0.015625)"/>
        <path id="NotoNaskhArabic-Regular-175" d="M 0 0 
Q -51 0 -51 51 
L -51 435 
Q -51 486 0 486 
Q 787 486 1363 653 
Q 1606 717 1888 864 
Q 1754 1274 1344 1619 
Q 1024 1894 550 2118 
Q 275 2253 140 2371 
Q 6 2490 6 2656 
Q 6 2886 134 3014 
Q 275 3155 867 3427 
Q 1459 3699 2656 4186 
Q 2752 4090 2752 3942 
Q 2752 3795 2688 3712 
Q 2624 3629 2483 3571 
Q 1939 3347 1398 3120 
Q 858 2893 307 2669 
Q 774 2547 1200 2284 
Q 1626 2022 1875 1690 
Q 2144 1344 2144 1050 
Q 2144 909 2106 794 
Q 2490 486 2989 486 
Q 3046 486 3046 435 
L 3046 51 
Q 3046 0 2989 0 
Q 2682 0 2403 112 
Q 2125 224 1901 467 
Q 1856 422 1798 380 
Q 1741 339 1677 301 
Q 1146 0 0 0 
z
" transform="scale(0.015625)"/>
        <path id="NotoNaskhArabic-Regular-1bf" d="M 0 0 
Q -51 0 -51 51 
L -51 435 
Q -51 486 0 486 
Q 352 486 698 653 
Q 659 992 608 1600 
Q 557 2208 499 3085 
Q 480 3296 464 3510 
Q 448 3725 435 3936 
Q 531 4038 636 4124 
Q 742 4211 864 4294 
Q 883 3853 902 3165 
Q 922 2477 934 1536 
Q 934 1318 940 1097 
Q 947 877 954 659 
Q 1242 486 1619 486 
Q 1677 486 1677 435 
L 1677 51 
Q 1677 0 1619 0 
Q 1152 0 883 230 
Q 646 96 460 48 
Q 275 0 0 0 
z
" transform="scale(0.015625)"/>
        <path id="NotoNaskhArabic-Regular-145" d="M 6 0 
Q -51 0 -51 58 
L -51 429 
Q -51 486 6 486 
Q 186 486 320 492 
Q 454 499 557 512 
Q 320 774 320 1062 
Q 320 1171 339 1308 
Q 358 1446 384 1564 
Q 410 1683 435 1728 
Q 602 2029 870 2211 
Q 1139 2394 1446 2394 
Q 1613 2394 1766 2234 
Q 1920 2074 2016 1798 
Q 2118 1530 2118 1248 
Q 2118 845 1843 518 
Q 1946 506 2118 496 
Q 2291 486 2528 486 
Q 2586 486 2586 435 
L 2586 51 
Q 2586 0 2528 0 
Q 1734 0 1216 205 
Q 998 96 707 48 
Q 416 0 6 0 
z
M 1216 659 
Q 1581 794 1869 1050 
Q 1850 1210 1763 1402 
Q 1677 1594 1568 1722 
Q 1453 1850 1389 1850 
Q 1267 1850 1113 1750 
Q 960 1651 809 1484 
Q 659 1318 557 1120 
Q 826 813 1216 659 
z
M 1292 2771 
Q 1011 2982 832 3187 
Q 1158 3514 1280 3654 
Q 1382 3546 1487 3440 
Q 1593 3334 1702 3238 
Q 1555 3027 1292 2771 
z
" transform="scale(0.015625)"/>
        <path id="NotoNaskhArabic-Regular-215" d="M 3040 0 
Q 2656 0 2416 147 
Q 2176 294 2138 557 
L 2112 691 
L 1882 250 
Q 1651 275 1520 291 
Q 1389 307 1305 332 
Q 1222 358 1126 397 
Q 1011 442 873 515 
Q 736 589 633 675 
Q 531 762 531 838 
Q 531 896 572 1014 
Q 614 1133 668 1251 
Q 723 1370 762 1434 
Q 813 1523 922 1632 
Q 1088 1792 1344 1955 
Q 1600 2118 1875 2227 
L 1850 2400 
Q 2074 2598 2317 2733 
Q 2330 2214 2349 1696 
Q 2368 1178 2374 659 
Q 2675 486 3040 486 
Q 3098 486 3098 435 
L 3098 51 
Q 3098 0 3040 0 
z
M 2099 768 
Q 2061 1018 2019 1283 
Q 1978 1549 1933 1811 
Q 1171 1555 845 1139 
Q 1018 986 1219 909 
Q 1421 832 1645 800 
Q 1754 787 1869 780 
Q 1984 774 2099 768 
z
M 2067 2995 
Q 1926 3104 1820 3203 
Q 1715 3302 1645 3392 
Q 1677 3424 1779 3533 
Q 1881 3642 2054 3821 
Q 2093 3782 2192 3686 
Q 2291 3590 2451 3437 
Q 2329 3245 2067 2995 
z
M 1107 2906 
Q 966 3021 857 3120 
Q 749 3219 678 3296 
Q 845 3456 1094 3731 
Q 1133 3686 1229 3590 
Q 1325 3494 1485 3347 
Q 1427 3251 1331 3142 
Q 1235 3034 1107 2906 
z
" transform="scale(0.015625)"/>
        <path id="NotoNaskhArabic-Regular-1c1" d="M -6 0 
Q -64 0 -64 51 
L -64 435 
Q -64 486 -6 486 
Q 378 486 704 659 
Q 685 902 665 1139 
Q 646 1376 627 1606 
Q 570 2208 512 2790 
Q 454 3373 384 3936 
Q 474 4032 579 4121 
Q 685 4211 806 4294 
Q 826 3949 851 3497 
Q 877 3046 915 2483 
Q 947 2016 960 1609 
Q 973 1203 979 864 
Q 979 755 915 572 
Q 851 390 755 224 
Q 640 0 -6 0 
z
" transform="scale(0.015625)"/>
        <path id="NotoNaskhArabic-Regular-25" d="M 0 0 
Q -51 0 -51 51 
L -51 435 
Q -51 486 0 486 
Q 467 486 666 666 
Q 723 717 812 870 
Q 902 1024 1075 1350 
Q 1133 1459 1274 1459 
Q 1350 1459 1434 1408 
Q 1363 1242 1286 1069 
Q 1210 896 1120 730 
Q 1344 595 1526 540 
Q 1709 486 1926 486 
Q 1978 486 1978 435 
L 1978 51 
Q 1978 0 1926 0 
Q 1331 0 915 378 
Q 890 339 864 304 
Q 838 269 806 237 
Q 742 154 502 77 
Q 262 0 0 0 
z
M 1037 -1325 
Q 896 -1216 780 -1110 
Q 665 -1005 576 -902 
Q 864 -627 1024 -435 
Q 1248 -672 1446 -857 
Q 1293 -1069 1037 -1325 
z
" transform="scale(0.015625)"/>
        <path id="NotoNaskhArabic-Regular-11d" d="M 2534 0 
Q 2227 0 1900 45 
Q 1574 90 1286 173 
Q 998 256 806 358 
Q 781 333 755 301 
Q 730 269 698 237 
Q 486 0 0 0 
Q -51 0 -51 51 
L -51 435 
Q -51 486 0 486 
Q 288 486 457 592 
Q 627 698 800 998 
Q 826 1043 848 1088 
Q 870 1133 896 1178 
Q 966 1286 1101 1286 
Q 1190 1286 1248 1229 
Q 1184 1069 1136 957 
Q 1088 845 1062 787 
Q 1139 749 1216 717 
Q 1293 685 1376 659 
Q 2003 1478 2528 1888 
Q 3040 2285 3469 2285 
Q 3648 2285 3913 2137 
Q 4179 1990 4390 1760 
Q 4595 1523 4595 1350 
Q 4595 966 4352 666 
Q 4634 486 5030 486 
Q 5088 486 5088 435 
L 5088 51 
Q 5088 0 5030 0 
Q 4755 0 4489 109 
Q 4224 218 4051 397 
Q 3872 282 3638 195 
Q 3405 109 3142 58 
Q 2848 0 2534 0 
z
M 2598 486 
Q 3430 486 4307 1037 
Q 4115 1376 3843 1561 
Q 3571 1747 3309 1747 
Q 3002 1747 2586 1452 
Q 2170 1158 1677 582 
Q 2176 486 2598 486 
z
M 2515 2880 
Q 2234 3091 2055 3296 
Q 2381 3623 2503 3763 
Q 2605 3655 2710 3549 
Q 2816 3443 2925 3347 
Q 2778 3136 2515 2880 
z
" transform="scale(0.015625)"/>
        <path id="NotoNaskhArabic-Regular-4" d="M 1677 0 
Q 1299 0 1049 150 
Q 800 301 768 557 
Q 742 787 713 1072 
Q 685 1357 653 1747 
Q 621 2138 579 2672 
Q 538 3206 486 3936 
Q 576 4026 685 4118 
Q 794 4211 922 4294 
Q 941 3795 953 3308 
Q 966 2822 976 2281 
Q 986 1741 992 1082 
L 1011 653 
Q 1312 486 1677 486 
Q 1728 486 1728 435 
L 1728 51 
Q 1728 0 1677 0 
z
" transform="scale(0.015625)"/>
        <path id="NotoNaskhArabic-Regular-136" d="M 0 0 
Q -51 0 -51 51 
L -51 435 
Q -51 486 0 486 
Q 410 486 800 506 
Q 646 608 531 781 
Q 416 954 416 1152 
Q 416 1427 563 1728 
Q 710 2029 947 2208 
Q 1184 2394 1440 2394 
Q 1664 2394 1865 2285 
Q 2067 2176 2336 1939 
L 2221 1734 
Q 1965 1830 1853 1856 
Q 1741 1882 1600 1882 
Q 1197 1882 781 1645 
Q 781 1370 912 1146 
Q 1043 922 1299 781 
Q 1549 646 1894 627 
Q 2061 659 2205 697 
Q 2349 736 2531 803 
Q 2714 870 2982 973 
Q 3066 896 3066 742 
Q 3066 531 2925 448 
Q 2899 435 2764 400 
Q 2630 365 2470 326 
Q 1811 160 1235 80 
Q 659 0 0 0 
z
" transform="scale(0.015625)"/>
       </defs>
       <use xlink:href="#NotoNaskhArabic-Regular-38"/>
       <use xlink:href="#NotoNaskhArabic-Regular-175" transform="translate(27.5 0)"/>
       <use xlink:href="#NotoNaskhArabic-Regular-1bf" transform="translate(73.40625 0)"/>
       <use xlink:href="#NotoNaskhArabic-Regular-145" transform="translate(97.90625 0)"/>
       <use xlink:href="#NotoNaskhArabic-Regular-215" transform="translate(136.609375 0)"/>
       <use xlink:href="#NotoNaskhArabic-Regular-554" transform="translate(183.3125 0)"/>
       <use xlink:href="#NotoNaskhArabic-Regular-3" transform="translate(205.40625 0)"/>
       <use xlink:href="#NotoNaskhArabic-Regular-1c1" transform="translate(229.203125 0)"/>
       <use xlink:href="#NotoNaskhArabic-Regular-25" transform="translate(250.40625 0)"/>
       <use xlink:href="#NotoNaskhArabic-Regular-11d" transform="translate(279.609375 0)"/>
       <use xlink:href="#NotoNaskhArabic-Regular-4" transform="translate(357.40625 0)"/>
       <use xlink:href="#NotoNaskhArabic-Regular-136" transform="translate(382.703125 0)"/>
       <use xlink:href="#NotoNaskhArabic-Regular-215" transform="translate(433.203125 0)"/>
       <use xlink:href="#NotoNaskhArabic-Regular-554" transform="translate(479.90625 0)"/>
      </g>
      <!-- ﺔﻋﺎﺒﻤﻟﺍ -->
      <g style="fill: #555555" transform="translate(214.865694 326.493) scale(0.105 -0.105)">
       <defs>
        <path id="NotoNaskhArabic-Regular-1e4" d="M 2016 0 
Q 1414 0 902 192 
Q 595 77 400 38 
Q 205 0 0 0 
Q -51 0 -51 51 
L -51 435 
Q -51 486 0 486 
Q 109 486 211 505 
Q 314 525 416 550 
Q 371 640 371 749 
Q 371 928 460 1152 
Q 550 1376 700 1590 
Q 851 1805 1037 1952 
Q 1318 2176 1568 2176 
Q 1677 2176 1760 2051 
Q 1843 1926 1926 1734 
Q 1971 1645 2009 1542 
Q 2048 1440 2086 1331 
Q 2163 1114 2252 928 
Q 2342 742 2445 614 
Q 2554 486 2682 486 
Q 2752 486 2752 422 
L 2752 70 
Q 2752 0 2682 0 
Q 2362 0 2099 282 
L 2016 0 
z
M 1978 442 
Q 1837 646 1728 979 
Q 1619 1312 1581 1683 
Q 1421 1613 1241 1475 
Q 1062 1338 918 1178 
Q 774 1018 704 877 
Q 1133 525 1978 442 
z
" transform="scale(0.015625)"/>
       </defs>
       <use xlink:href="#NotoNaskhArabic-Regular-3"/>
       <use xlink:href="#NotoNaskhArabic-Regular-1c1" transform="translate(23.796875 0)"/>
       <use xlink:href="#NotoNaskhArabic-Regular-1e4" transform="translate(45 0)"/>
       <use xlink:href="#NotoNaskhArabic-Regular-25" transform="translate(86.296875 0)"/>
       <use xlink:href="#NotoNaskhArabic-Regular-4" transform="translate(115.5 0)"/>
       <use xlink:href="#NotoNaskhArabic-Regular-136" transform="translate(140.796875 0)"/>
       <use xlink:href="#NotoNaskhArabic-Regular-215" transform="translate(191.296875 0)"/>
      </g>
     </g>
    </g>
    <g id="xtick_3">
     <g id="line2d_3">
      <g>
       <use xlink:href="#m7fc07d4d51" x="344.825242" y="290.387" style="fill: #555555; stroke: #555555; stroke-width: 0.8"/>
      </g>
     </g>
     <g id="text_3">
      <!-- ​ﺢﺑﺮﻟﺍ -->
      <g style="fill: #555555" transform="translate(335.401492 308.6115) scale(0.105 -0.105)">
       <defs>
        <path id="NotoNaskhArabic-Regular-26" d="M 0 0 
Q -51 0 -51 51 
L -51 435 
Q -51 486 0 486 
Q 294 486 598 553 
Q 902 621 1133 723 
Q 1088 870 1030 1046 
Q 973 1222 902 1427 
Q 781 1747 781 1856 
Q 781 1997 893 2144 
Q 1005 2291 1197 2394 
Q 1210 2304 1248 2121 
Q 1286 1939 1344 1658 
Q 1440 1235 1440 1005 
Q 1440 909 1379 733 
Q 1318 557 1210 352 
Q 627 0 0 0 
z
M 909 -1325 
Q 768 -1216 652 -1110 
Q 537 -1005 448 -902 
Q 736 -627 896 -435 
Q 1120 -672 1318 -857 
Q 1165 -1069 909 -1325 
z
" transform="scale(0.015625)"/>
        <path id="NotoNaskhArabic-Regular-8a" d="M 2054 -1830 
Q 1626 -1830 1309 -1657 
Q 992 -1485 816 -1174 
Q 640 -864 640 -454 
Q 640 -96 803 233 
Q 966 563 1261 832 
Q 1459 1011 1712 1158 
Q 1965 1306 2259 1408 
Q 1990 1530 1827 1597 
Q 1664 1664 1555 1702 
Q 1382 1766 1229 1766 
Q 1030 1766 896 1715 
Q 762 1664 531 1517 
Q 435 1613 435 1766 
Q 435 2010 649 2154 
Q 864 2298 1210 2298 
Q 1395 2298 1612 2230 
Q 1830 2163 2208 1997 
Q 2874 1690 3398 1690 
L 3821 1702 
L 3635 1210 
Q 3546 1203 3450 1196 
Q 3354 1190 3258 1184 
Q 3174 1184 3094 1177 
Q 3014 1171 2925 1158 
Q 3027 934 3097 812 
Q 3168 691 3267 633 
Q 3366 576 3533 538 
Q 3674 512 3866 499 
Q 4058 486 4320 486 
Q 4371 486 4371 435 
L 4371 51 
Q 4371 0 4320 0 
Q 3750 0 3456 105 
Q 3162 211 2976 448 
Q 2784 685 2669 1114 
Q 2086 979 1667 736 
Q 1248 493 1043 173 
Q 960 45 915 -96 
Q 870 -237 870 -384 
Q 870 -832 1222 -1075 
Q 1574 -1318 2214 -1318 
Q 2765 -1318 3571 -1088 
L 3661 -1299 
Q 2803 -1830 2054 -1830 
z
" transform="scale(0.015625)"/>
       </defs>
       <use xlink:href="#NotoNaskhArabic-Regular-3"/>
       <use xlink:href="#NotoNaskhArabic-Regular-1c1" transform="translate(23.796875 0)"/>
       <use xlink:href="#NotoNaskhArabic-Regular-d4" transform="translate(45 0)"/>
       <use xlink:href="#NotoNaskhArabic-Regular-26" transform="translate(85.40625 0)"/>
       <use xlink:href="#NotoNaskhArabic-Regular-8a" transform="translate(112.90625 0)"/>
       <use xlink:href="#NotoNaskhArabic-Regular-554" transform="translate(179.5 0)"/>
      </g>
      <!-- ﻲﻟﺎﻤﺟﻹﺍ -->
      <g style="fill: #555555" transform="translate(329.023563 326.493) scale(0.105 -0.105)">
       <defs>
        <path id="NotoNaskhArabic-Regular-74" d="M 0 0 
Q -51 0 -51 51 
L -51 435 
Q -51 486 0 486 
Q 474 486 842 528 
Q 1210 570 1478 653 
Q 1907 800 2115 867 
Q 2323 934 2477 960 
Q 2227 1082 1984 1280 
Q 1728 1485 1565 1561 
Q 1402 1638 1235 1638 
Q 1037 1638 902 1587 
Q 768 1536 531 1389 
Q 442 1491 442 1638 
Q 442 1882 653 2029 
Q 864 2176 1210 2176 
Q 1414 2176 1622 2089 
Q 1830 2003 2106 1798 
Q 2445 1555 2678 1430 
Q 2912 1306 3149 1254 
Q 3392 1197 3853 1197 
L 3603 730 
Q 3501 742 3369 752 
Q 3238 762 3091 762 
Q 2944 762 2813 736 
Q 2682 710 2506 633 
Q 2330 557 2042 410 
Q 1805 288 1603 208 
Q 1402 128 1181 83 
Q 960 38 678 19 
Q 397 0 0 0 
z
M 2272 -1178 
Q 2131 -1069 2015 -963 
Q 1900 -858 1811 -755 
Q 2099 -480 2259 -288 
Q 2483 -525 2681 -710 
Q 2528 -922 2272 -1178 
z
" transform="scale(0.015625)"/>
        <path id="NotoNaskhArabic-Regular-6" d="M 877 0 
Q 858 19 858 70 
Q 858 134 874 230 
Q 890 326 915 406 
Q 941 486 954 486 
Q 1139 486 1350 492 
Q 1562 499 1792 512 
Q 2022 525 2262 550 
Q 2502 576 2733 614 
Q 2605 858 2397 1130 
Q 2189 1402 1926 1664 
Q 1670 1933 1369 2173 
Q 1069 2413 768 2586 
L 531 2573 
Q 416 2682 317 2822 
Q 218 2963 218 3104 
Q 218 3213 259 3309 
Q 301 3405 442 3475 
Q 723 3283 1133 2931 
Q 1421 2688 1718 2403 
Q 2016 2118 2234 1856 
Q 2323 1754 2448 1565 
Q 2573 1376 2694 1165 
Q 2816 954 2899 781 
Q 2982 608 2982 538 
Q 2982 493 2950 390 
Q 2918 288 2873 201 
Q 2829 115 2790 109 
Q 2694 96 2496 73 
Q 2298 51 2086 35 
Q 1875 19 1728 13 
Q 1670 13 1552 9 
Q 1434 6 1293 3 
Q 1152 0 1040 0 
Q 928 0 877 0 
z
" transform="scale(0.015625)"/>
        <path id="NotoNaskhArabic-Regular-1c2" d="M 1478 422 
L 1050 454 
Q 1331 672 1580 886 
Q 1830 1101 2016 1325 
Q 2202 1549 2314 1795 
Q 2426 2042 2426 2317 
Q 2426 2413 2406 2592 
Q 2387 2771 2355 2988 
Q 2323 3206 2291 3411 
Q 2259 3616 2240 3776 
Q 2221 3936 2221 4000 
Q 2221 4173 2333 4269 
Q 2445 4365 2643 4403 
Q 2694 4205 2742 4035 
Q 2790 3866 2874 3642 
L 2701 3494 
Q 2701 3462 2710 3308 
Q 2720 3155 2726 2966 
Q 2733 2778 2739 2627 
Q 2746 2477 2746 2445 
Q 2746 2106 2637 1805 
Q 2528 1504 2349 1248 
Q 2170 992 1942 784 
Q 1715 576 1478 422 
z
" transform="scale(0.015625)"/>
        <path id="NotoNaskhArabic-Regular-23f" d="M 1811 -1670 
Q 1152 -1670 793 -1356 
Q 435 -1043 435 -467 
Q 435 -339 444 -230 
Q 454 -122 480 16 
Q 506 154 557 365 
L 794 307 
Q 723 13 723 -147 
Q 723 -614 1020 -876 
Q 1318 -1139 1830 -1139 
Q 2413 -1139 2777 -1075 
Q 3142 -1011 3430 -890 
Q 3571 -832 3699 -755 
Q 3827 -678 3942 -576 
Q 3546 -365 3312 -227 
Q 3078 -90 2950 0 
Q 2803 115 2803 160 
Q 2803 218 2844 323 
Q 2886 429 2940 512 
Q 2995 595 3034 595 
Q 3258 550 3642 518 
Q 4026 486 4435 486 
Q 4506 486 4506 416 
L 4506 64 
Q 4506 0 4435 0 
Q 4218 0 3939 32 
Q 3661 64 3450 115 
Q 3590 32 3734 -45 
Q 3878 -122 4019 -198 
Q 4115 -256 4140 -352 
Q 4166 -448 4166 -576 
Q 4166 -736 4006 -909 
Q 3846 -1082 3561 -1235 
Q 3277 -1389 2899 -1504 
Q 2330 -1670 1811 -1670 
z
M 2394 -2682 
Q 2125 -2470 1978 -2291 
Q 2119 -2157 2387 -1862 
Q 2419 -1888 2515 -1984 
Q 2611 -2080 2784 -2246 
Q 2720 -2336 2624 -2445 
Q 2528 -2554 2394 -2682 
z
M 1440 -2778 
Q 1152 -2547 1011 -2387 
Q 1101 -2310 1203 -2201 
Q 1306 -2093 1427 -1952 
Q 1453 -1984 1552 -2080 
Q 1651 -2176 1818 -2336 
Q 1760 -2432 1664 -2541 
Q 1568 -2650 1440 -2778 
z
" transform="scale(0.015625)"/>
       </defs>
       <use xlink:href="#NotoNaskhArabic-Regular-3"/>
       <use xlink:href="#NotoNaskhArabic-Regular-2ea" transform="translate(23.796875 0)"/>
       <use xlink:href="#NotoNaskhArabic-Regular-74" transform="translate(75.59375 0)"/>
       <use xlink:href="#NotoNaskhArabic-Regular-1e4" transform="translate(139.1875 0)"/>
       <use xlink:href="#NotoNaskhArabic-Regular-6" transform="translate(180.484375 0)"/>
       <use xlink:href="#NotoNaskhArabic-Regular-1c2" transform="translate(180.484375 0)"/>
       <use xlink:href="#NotoNaskhArabic-Regular-23f" transform="translate(232.28125 0)"/>
      </g>
     </g>
    </g>
    <g id="xtick_4">
     <g id="line2d_4">
      <g>
       <use xlink:href="#m7fc07d4d51" x="462.289791" y="290.387" style="fill: #555555; stroke: #555555; stroke-width: 0.8"/>
      </g>
     </g>
     <g id="text_4">
      <!-- ​ﻒﻳﺭﺎﺼﻤﻟﺍ -->
      <g style="fill: #555555" transform="translate(444.230611 308.6115) scale(0.105 -0.105)">
       <defs>
        <path id="NotoNaskhArabic-Regular-111" d="M 2534 0 
Q 2227 0 1900 45 
Q 1574 90 1286 173 
Q 998 256 806 358 
Q 781 333 755 301 
Q 730 269 698 237 
Q 486 0 0 0 
Q -51 0 -51 51 
L -51 435 
Q -51 486 0 486 
Q 288 486 457 592 
Q 627 698 800 998 
Q 826 1043 848 1088 
Q 870 1133 896 1178 
Q 966 1286 1101 1286 
Q 1190 1286 1248 1229 
Q 1184 1069 1136 957 
Q 1088 845 1062 787 
Q 1139 749 1216 717 
Q 1293 685 1376 659 
Q 2003 1478 2528 1888 
Q 3040 2285 3469 2285 
Q 3648 2285 3913 2137 
Q 4179 1990 4390 1760 
Q 4595 1523 4595 1350 
Q 4595 966 4352 666 
Q 4634 486 5030 486 
Q 5088 486 5088 435 
L 5088 51 
Q 5088 0 5030 0 
Q 4755 0 4489 109 
Q 4224 218 4051 397 
Q 3872 282 3638 195 
Q 3405 109 3142 58 
Q 2848 0 2534 0 
z
M 2598 486 
Q 3430 486 4307 1037 
Q 4115 1376 3843 1561 
Q 3571 1747 3309 1747 
Q 3002 1747 2586 1452 
Q 2170 1158 1677 582 
Q 2176 486 2598 486 
z
" transform="scale(0.015625)"/>
        <path id="NotoNaskhArabic-Regular-d3" d="M 710 -1306 
Q 608 -1306 451 -1248 
Q 294 -1190 134 -1107 
Q -26 -1024 -128 -947 
L -45 -736 
Q 134 -768 284 -787 
Q 435 -806 563 -806 
Q 1043 -806 1385 -518 
Q 1728 -230 1907 314 
Q 1862 416 1814 515 
Q 1766 614 1709 717 
Q 1491 1107 1388 1340 
Q 1286 1574 1286 1734 
Q 1286 1901 1382 2000 
Q 1478 2099 1658 2182 
Q 1696 2029 1789 1785 
Q 1882 1542 1946 1357 
Q 2029 1133 2086 915 
Q 2144 698 2144 518 
Q 2144 19 1955 -406 
Q 1766 -832 1440 -1069 
Q 1107 -1306 710 -1306 
z
" transform="scale(0.015625)"/>
        <path id="NotoNaskhArabic-Regular-144" d="M 2048 0 
Q 435 0 435 1088 
Q 435 1293 457 1465 
Q 480 1638 525 1792 
L 755 1792 
Q 742 1715 736 1635 
Q 730 1555 730 1478 
Q 730 1088 874 893 
Q 1018 698 1338 589 
Q 1504 544 1715 515 
Q 1926 486 2189 486 
Q 2496 486 2781 515 
Q 3066 544 3334 595 
Q 3078 864 3078 1171 
Q 3078 1267 3097 1404 
Q 3117 1542 3142 1667 
Q 3168 1792 3194 1837 
Q 3360 2144 3625 2323 
Q 3891 2502 4205 2502 
Q 4371 2502 4528 2336 
Q 4685 2170 4781 1901 
Q 4877 1626 4877 1350 
Q 4877 883 4506 557 
Q 4691 525 4889 505 
Q 5088 486 5286 486 
Q 5338 486 5338 435 
L 5338 51 
Q 5338 0 5286 0 
Q 4486 0 3974 256 
Q 3661 141 3158 70 
Q 2656 0 2048 0 
z
M 3910 762 
Q 4371 934 4627 1158 
Q 4608 1318 4528 1500 
Q 4448 1683 4333 1818 
Q 4218 1958 4147 1958 
Q 4026 1958 3872 1856 
Q 3718 1754 3571 1590 
Q 3424 1427 3322 1229 
Q 3450 1082 3597 963 
Q 3744 845 3910 762 
z
M 4051 2829 
Q 3770 3040 3591 3245 
Q 3917 3572 4039 3712 
Q 4141 3604 4246 3498 
Q 4352 3392 4461 3296 
Q 4314 3085 4051 2829 
z
" transform="scale(0.015625)"/>
       </defs>
       <use xlink:href="#NotoNaskhArabic-Regular-3"/>
       <use xlink:href="#NotoNaskhArabic-Regular-1c1" transform="translate(23.796875 0)"/>
       <use xlink:href="#NotoNaskhArabic-Regular-1e4" transform="translate(45 0)"/>
       <use xlink:href="#NotoNaskhArabic-Regular-111" transform="translate(86.296875 0)"/>
       <use xlink:href="#NotoNaskhArabic-Regular-4" transform="translate(164.09375 0)"/>
       <use xlink:href="#NotoNaskhArabic-Regular-d3" transform="translate(189.390625 0)"/>
       <use xlink:href="#NotoNaskhArabic-Regular-241" transform="translate(227.984375 0)"/>
       <use xlink:href="#NotoNaskhArabic-Regular-144" transform="translate(262.28125 0)"/>
       <use xlink:href="#NotoNaskhArabic-Regular-554" transform="translate(343.984375 0)"/>
      </g>
      <!-- ﺔﻴﻠﻴﻐﺸﺘﻟﺍ -->
      <g style="fill: #555555" transform="translate(444.864713 326.493) scale(0.105 -0.105)">
       <defs>
        <path id="NotoNaskhArabic-Regular-37" d="M 0 0 
Q -51 0 -51 51 
L -51 435 
Q -51 486 0 486 
Q 397 486 672 521 
Q 947 557 1062 640 
Q 1133 685 1229 841 
Q 1325 998 1510 1350 
Q 1568 1459 1709 1459 
Q 1786 1459 1869 1408 
Q 1830 1312 1763 1161 
Q 1696 1011 1638 883 
Q 1581 755 1555 730 
Q 1773 595 1958 540 
Q 2144 486 2362 486 
Q 2413 486 2413 435 
L 2413 51 
Q 2413 0 2362 0 
Q 1766 0 1350 371 
L 1248 237 
Q 1203 192 1001 134 
Q 800 77 528 38 
Q 256 0 0 0 
z
M 1728 2035 
Q 1587 2144 1481 2243 
Q 1376 2342 1306 2432 
Q 1338 2464 1440 2573 
Q 1542 2682 1715 2861 
Q 1754 2822 1853 2726 
Q 1952 2630 2112 2477 
Q 1990 2285 1728 2035 
z
M 768 1946 
Q 627 2061 518 2160 
Q 410 2259 339 2336 
Q 506 2496 755 2771 
Q 794 2726 890 2630 
Q 986 2534 1146 2387 
Q 1088 2291 992 2182 
Q 896 2074 768 1946 
z
" transform="scale(0.015625)"/>
        <path id="NotoNaskhArabic-Regular-105" d="M 1446 0 
Q 1267 0 1030 57 
Q 794 115 666 198 
Q 576 109 397 54 
Q 218 0 0 0 
Q -51 0 -51 51 
L -51 435 
Q -51 486 0 486 
Q 326 486 518 634 
Q 627 723 681 809 
Q 736 896 858 1094 
Q 915 1197 1056 1197 
Q 1146 1197 1210 1152 
Q 1114 909 1046 765 
Q 979 621 947 570 
Q 998 544 1155 515 
Q 1312 486 1517 486 
Q 1664 486 1789 505 
Q 1914 525 2016 550 
Q 2061 621 2115 793 
Q 2170 966 2227 1145 
Q 2285 1325 2323 1408 
Q 2381 1536 2432 1574 
Q 2483 1613 2579 1613 
Q 2669 1613 2733 1568 
Q 2688 1466 2608 1235 
Q 2528 1005 2400 582 
Q 2496 538 2566 522 
Q 2637 506 2739 506 
Q 2906 506 3091 570 
Q 3123 608 3168 723 
Q 3213 838 3277 1030 
Q 3328 1190 3385 1331 
Q 3443 1472 3501 1568 
Q 3552 1664 3699 1664 
Q 3789 1664 3853 1619 
Q 3808 1517 3728 1289 
Q 3648 1062 3533 710 
Q 3757 589 3917 537 
Q 4077 486 4294 486 
Q 4352 486 4352 435 
L 4352 51 
Q 4352 0 4294 0 
Q 4045 0 3798 96 
Q 3552 192 3386 346 
Q 3366 301 3347 259 
Q 3328 218 3296 173 
Q 3251 96 3078 48 
Q 2906 0 2733 0 
Q 2438 0 2221 160 
Q 2176 102 2041 67 
Q 1907 32 1744 19 
Q 1581 6 1446 0 
z
M 2317 2605 
Q 2150 2707 1958 2918 
Q 2054 3014 2140 3103 
Q 2227 3193 2298 3277 
Q 2413 3123 2650 2918 
Q 2464 2701 2317 2605 
z
M 2771 2080 
Q 2560 2246 2394 2432 
Q 2451 2483 2547 2582 
Q 2643 2681 2765 2822 
Q 2854 2733 2940 2643 
Q 3027 2553 3117 2470 
Q 3053 2381 2969 2281 
Q 2886 2182 2771 2080 
z
M 1862 1997 
Q 1741 2093 1645 2182 
Q 1549 2272 1478 2349 
Q 1632 2489 1850 2739 
Q 1914 2662 2202 2387 
Q 2144 2304 2061 2204 
Q 1978 2105 1862 1997 
z
" transform="scale(0.015625)"/>
        <path id="NotoNaskhArabic-Regular-13d" d="M 6 0 
Q -51 0 -51 58 
L -51 429 
Q -51 486 6 486 
Q 672 486 1101 640 
L 986 787 
Q 864 973 771 1094 
Q 678 1216 621 1280 
Q 506 1427 410 1491 
L 307 1427 
Q 192 1555 192 1709 
Q 192 1862 297 1974 
Q 403 2086 566 2172 
Q 730 2259 902 2310 
Q 1158 2394 1446 2394 
Q 1722 2394 1936 2288 
Q 2150 2182 2272 2003 
Q 2400 1824 2400 1594 
Q 2400 1293 2243 1049 
Q 2086 806 1830 602 
Q 2099 486 2694 486 
Q 2758 486 2758 429 
L 2758 58 
Q 2758 0 2694 0 
Q 2259 0 1955 83 
Q 1651 166 1402 346 
Q 1050 166 723 83 
Q 397 0 6 0 
z
M 1478 845 
Q 1696 992 1821 1152 
Q 1946 1312 1946 1459 
Q 1946 1638 1811 1753 
Q 1677 1869 1466 1869 
Q 1075 1869 710 1677 
Q 947 1491 1325 1018 
Q 1395 934 1478 845 
z
M 1363 2822 
Q 1082 3033 903 3238 
Q 1229 3565 1351 3705 
Q 1453 3597 1558 3491 
Q 1664 3385 1773 3289 
Q 1626 3078 1363 2822 
z
" transform="scale(0.015625)"/>
        <path id="NotoNaskhArabic-Regular-240" d="M 0 0 
Q -51 0 -51 51 
L -51 435 
Q -51 486 0 486 
Q 397 486 672 521 
Q 947 557 1062 640 
Q 1133 685 1229 841 
Q 1325 998 1510 1350 
Q 1568 1459 1709 1459 
Q 1786 1459 1869 1408 
Q 1830 1312 1763 1161 
Q 1696 1011 1638 883 
Q 1581 755 1555 730 
Q 1773 595 1958 540 
Q 2144 486 2362 486 
Q 2413 486 2413 435 
L 2413 51 
Q 2413 0 2362 0 
Q 1766 0 1350 371 
L 1248 237 
Q 1203 192 1001 134 
Q 800 77 528 38 
Q 256 0 0 0 
z
M 1728 -1165 
Q 1459 -953 1312 -774 
Q 1453 -640 1721 -345 
Q 1753 -371 1849 -467 
Q 1945 -563 2118 -729 
Q 2054 -819 1958 -928 
Q 1862 -1037 1728 -1165 
z
M 774 -1261 
Q 486 -1030 345 -870 
Q 435 -793 537 -684 
Q 640 -576 761 -435 
Q 787 -467 886 -563 
Q 985 -659 1152 -819 
Q 1094 -915 998 -1024 
Q 902 -1133 774 -1261 
z
" transform="scale(0.015625)"/>
       </defs>
       <use xlink:href="#NotoNaskhArabic-Regular-3"/>
       <use xlink:href="#NotoNaskhArabic-Regular-1c1" transform="translate(23.796875 0)"/>
       <use xlink:href="#NotoNaskhArabic-Regular-37" transform="translate(45 0)"/>
       <use xlink:href="#NotoNaskhArabic-Regular-105" transform="translate(81 0)"/>
       <use xlink:href="#NotoNaskhArabic-Regular-13d" transform="translate(147.296875 0)"/>
       <use xlink:href="#NotoNaskhArabic-Regular-240" transform="translate(188.703125 0)"/>
       <use xlink:href="#NotoNaskhArabic-Regular-1bf" transform="translate(224.703125 0)"/>
       <use xlink:href="#NotoNaskhArabic-Regular-240" transform="translate(249.203125 0)"/>
       <use xlink:href="#NotoNaskhArabic-Regular-215" transform="translate(285.203125 0)"/>
      </g>
     </g>
    </g>
    <g id="xtick_5">
     <g id="line2d_5">
      <g>
       <use xlink:href="#m7fc07d4d51" x="579.754339" y="290.387" style="fill: #555555; stroke: #555555; stroke-width: 0.8"/>
      </g>
     </g>
     <g id="text_5">
      <!-- ​ﻲﻓﺎﺻ -->
      <g style="fill: #555555" transform="translate(568.488168 308.6115) scale(0.105 -0.105)">
       <defs>
        <path id="NotoNaskhArabic-Regular-112" d="M 2534 0 
Q 2227 0 1900 45 
Q 1574 90 1286 173 
Q 998 256 806 358 
Q 781 333 755 301 
Q 730 269 698 237 
Q 486 0 0 0 
Q -51 0 -51 51 
L -51 435 
Q -51 486 0 486 
Q 288 486 457 592 
Q 627 698 800 998 
Q 826 1043 848 1088 
Q 870 1133 896 1178 
Q 966 1286 1101 1286 
Q 1190 1286 1248 1229 
Q 1184 1069 1136 957 
Q 1088 845 1062 787 
Q 1139 749 1216 717 
Q 1293 685 1376 659 
Q 1978 1459 2502 1869 
Q 3034 2285 3469 2285 
Q 3648 2285 3913 2137 
Q 4179 1990 4390 1760 
Q 4595 1523 4595 1350 
Q 4595 960 4345 659 
Q 4096 358 3590 179 
Q 3098 0 2534 0 
z
M 2598 486 
Q 3430 486 4307 1037 
Q 4115 1376 3843 1561 
Q 3571 1747 3309 1747 
Q 3002 1747 2586 1452 
Q 2170 1158 1677 582 
Q 2176 486 2598 486 
z
" transform="scale(0.015625)"/>
        <path id="NotoNaskhArabic-Regular-146" d="M 6 0 
Q -51 0 -51 58 
L -51 429 
Q -51 486 6 486 
Q 698 486 1174 569 
Q 1651 653 2054 832 
Q 2042 960 2019 1085 
Q 1997 1210 1971 1331 
Q 1773 1171 1536 1075 
Q 1299 979 1062 979 
Q 781 979 601 1193 
Q 422 1408 422 1728 
Q 422 2054 534 2342 
Q 646 2630 819 2797 
Q 1011 2970 1216 2970 
Q 1549 2970 1805 2730 
Q 2061 2490 2214 2054 
Q 2362 1613 2362 1114 
Q 2362 896 2138 461 
Q 1882 301 1587 198 
Q 1293 96 912 48 
Q 531 0 6 0 
z
M 1210 1466 
Q 1530 1466 1888 1626 
Q 1766 2016 1568 2221 
Q 1370 2426 1120 2426 
Q 928 2426 797 2250 
Q 666 2074 666 1856 
Q 666 1658 797 1562 
Q 928 1466 1210 1466 
z
M 1196 3347 
Q 915 3558 736 3763 
Q 1062 4090 1184 4230 
Q 1286 4122 1391 4016 
Q 1497 3910 1606 3814 
Q 1459 3603 1196 3347 
z
" transform="scale(0.015625)"/>
       </defs>
       <use xlink:href="#NotoNaskhArabic-Regular-112"/>
       <use xlink:href="#NotoNaskhArabic-Regular-4" transform="translate(78.59375 0)"/>
       <use xlink:href="#NotoNaskhArabic-Regular-146" transform="translate(103.890625 0)"/>
       <use xlink:href="#NotoNaskhArabic-Regular-23f" transform="translate(145.890625 0)"/>
       <use xlink:href="#NotoNaskhArabic-Regular-554" transform="translate(214.59375 0)"/>
      </g>
      <!-- ﺢﺑﺮﻟﺍ -->
      <g style="fill: #555555" transform="translate(570.330589 326.493) scale(0.105 -0.105)">
       <use xlink:href="#NotoNaskhArabic-Regular-3"/>
       <use xlink:href="#NotoNaskhArabic-Regular-1c1" transform="translate(23.796875 0)"/>
       <use xlink:href="#NotoNaskhArabic-Regular-d4" transform="translate(45 0)"/>
       <use xlink:href="#NotoNaskhArabic-Regular-26" transform="translate(85.40625 0)"/>
       <use xlink:href="#NotoNaskhArabic-Regular-8a" transform="translate(112.90625 0)"/>
      </g>
     </g>
    </g>
   </g>
   <g id="matplotlib.axis_2">
    <g id="ytick_1">
     <g id="line2d_6">
      <path d="M 54.100484 290.387 
L 635.55 290.387 
" clip-path="url(#pb1d7fdd679)" style="fill: none; stroke: #e6e1d6; stroke-width: 0.8; stroke-linecap: square"/>
     </g>
     <g id="line2d_7">
      <defs>
       <path id="m32e16573fa" d="M 0 0 
L -3.5 0 
" style="stroke: #555555; stroke-width: 0.8"/>
      </defs>
      <g>
       <use xlink:href="#m32e16573fa" x="54.100484" y="290.387" style="fill: #555555; stroke: #555555; stroke-width: 0.8"/>
      </g>
     </g>
     <g id="text_6">
      <!-- 0 -->
      <g style="fill: #555555" transform="translate(41.094156 295.99925) scale(0.105 -0.105)">
       <defs>
        <path id="NotoNaskhArabic-Regular-4cc" d="M 1824 -64 
Q 1082 -64 698 534 
Q 314 1133 314 2291 
Q 314 3488 682 4064 
Q 1050 4640 1824 4640 
Q 2566 4640 2956 4038 
Q 3347 3437 3347 2291 
Q 3347 1101 2969 518 
Q 2592 -64 1824 -64 
z
M 1824 416 
Q 2208 416 2426 678 
Q 2778 1094 2778 2291 
Q 2778 3571 2368 3962 
Q 2163 4160 1824 4160 
Q 1427 4160 1203 3878 
Q 877 3469 877 2291 
Q 877 1075 1229 666 
Q 1440 416 1824 416 
z
" transform="scale(0.015625)"/>
       </defs>
       <use xlink:href="#NotoNaskhArabic-Regular-4cc"/>
      </g>
     </g>
    </g>
    <g id="ytick_2">
     <g id="line2d_8">
      <path d="M 54.100484 239.817893 
L 635.55 239.817893 
" clip-path="url(#pb1d7fdd679)" style="fill: none; stroke: #e6e1d6; stroke-width: 0.8; stroke-linecap: square"/>
     </g>
     <g id="line2d_9">
      <g>
       <use xlink:href="#m32e16573fa" x="54.100484" y="239.817893" style="fill: #555555; stroke: #555555; stroke-width: 0.8"/>
      </g>
     </g>
     <g id="text_7">
      <!-- 20 -->
      <g style="fill: #555555" transform="translate(35.087828 245.430143) scale(0.105 -0.105)">
       <defs>
        <path id="NotoNaskhArabic-Regular-4ce" d="M 307 0 
L 307 467 
L 1504 1677 
Q 1773 1952 1952 2147 
Q 2131 2342 2221 2458 
Q 2413 2720 2489 2925 
Q 2566 3130 2566 3386 
Q 2566 3744 2352 3949 
Q 2138 4154 1760 4154 
Q 1478 4154 1228 4058 
Q 979 3962 659 3718 
L 358 4096 
Q 1005 4634 1760 4634 
Q 2240 4634 2576 4448 
Q 2912 4262 3053 3923 
Q 3142 3686 3142 3418 
Q 3142 3123 3033 2841 
Q 2925 2560 2707 2272 
Q 2598 2131 2416 1929 
Q 2234 1728 1971 1478 
L 1018 538 
L 1018 512 
L 3328 512 
L 3328 0 
L 307 0 
z
" transform="scale(0.015625)"/>
       </defs>
       <use xlink:href="#NotoNaskhArabic-Regular-4ce"/>
       <use xlink:href="#NotoNaskhArabic-Regular-4cc" transform="translate(57.203125 0)"/>
      </g>
     </g>
    </g>
    <g id="ytick_3">
     <g id="line2d_10">
      <path d="M 54.100484 189.248786 
L 635.55 189.248786 
" clip-path="url(#pb1d7fdd679)" style="fill: none; stroke: #e6e1d6; stroke-width: 0.8; stroke-linecap: square"/>
     </g>
     <g id="line2d_11">
      <g>
       <use xlink:href="#m32e16573fa" x="54.100484" y="189.248786" style="fill: #555555; stroke: #555555; stroke-width: 0.8"/>
      </g>
     </g>
     <g id="text_8">
      <!-- 40 -->
      <g style="fill: #555555" transform="translate(35.087828 194.861036) scale(0.105 -0.105)">
       <defs>
        <path id="NotoNaskhArabic-Regular-4d0" d="M 2323 0 
L 2323 1037 
L 134 1037 
L 134 1517 
L 2285 4595 
L 2867 4595 
L 2867 1542 
L 3533 1542 
L 3533 1037 
L 2867 1037 
L 2867 0 
L 2323 0 
z
M 685 1542 
L 2323 1542 
L 2323 2982 
Q 2323 3194 2332 3446 
Q 2342 3699 2355 3994 
L 2330 3994 
Q 2298 3910 2211 3747 
Q 2125 3584 2054 3494 
L 685 1542 
z
" transform="scale(0.015625)"/>
       </defs>
       <use xlink:href="#NotoNaskhArabic-Regular-4d0"/>
       <use xlink:href="#NotoNaskhArabic-Regular-4cc" transform="translate(57.203125 0)"/>
      </g>
     </g>
    </g>
    <g id="ytick_4">
     <g id="line2d_12">
      <path d="M 54.100484 138.679679 
L 635.55 138.679679 
" clip-path="url(#pb1d7fdd679)" style="fill: none; stroke: #e6e1d6; stroke-width: 0.8; stroke-linecap: square"/>
     </g>
     <g id="line2d_13">
      <g>
       <use xlink:href="#m32e16573fa" x="54.100484" y="138.679679" style="fill: #555555; stroke: #555555; stroke-width: 0.8"/>
      </g>
     </g>
     <g id="text_9">
      <!-- 60 -->
      <g style="fill: #555555" transform="translate(35.087828 144.291929) scale(0.105 -0.105)">
       <defs>
        <path id="NotoNaskhArabic-Regular-4d2" d="M 1907 -64 
Q 1440 -64 1088 176 
Q 736 416 544 870 
Q 352 1331 352 1952 
Q 352 4634 2445 4634 
Q 2810 4634 3008 4576 
L 3008 4096 
Q 2771 4173 2458 4173 
Q 1984 4173 1654 3987 
Q 1325 3802 1139 3405 
Q 941 2976 915 2323 
L 954 2323 
Q 1299 2861 2035 2861 
Q 2656 2861 3008 2486 
Q 3360 2112 3360 1472 
Q 3360 762 2969 349 
Q 2579 -64 1907 -64 
z
M 1901 410 
Q 2336 410 2569 688 
Q 2803 966 2803 1472 
Q 2803 1926 2576 2172 
Q 2349 2419 1920 2419 
Q 1645 2419 1421 2307 
Q 1197 2195 1056 1997 
Q 922 1798 922 1581 
Q 922 1267 1050 995 
Q 1178 723 1395 563 
Q 1619 410 1901 410 
z
" transform="scale(0.015625)"/>
       </defs>
       <use xlink:href="#NotoNaskhArabic-Regular-4d2"/>
       <use xlink:href="#NotoNaskhArabic-Regular-4cc" transform="translate(57.203125 0)"/>
      </g>
     </g>
    </g>
    <g id="ytick_5">
     <g id="line2d_14">
      <path d="M 54.100484 88.110571 
L 635.55 88.110571 
" clip-path="url(#pb1d7fdd679)" style="fill: none; stroke: #e6e1d6; stroke-width: 0.8; stroke-linecap: square"/>
     </g>
     <g id="line2d_15">
      <g>
       <use xlink:href="#m32e16573fa" x="54.100484" y="88.110571" style="fill: #555555; stroke: #555555; stroke-width: 0.8"/>
      </g>
     </g>
     <g id="text_10">
      <!-- 80 -->
      <g style="fill: #555555" transform="translate(35.087828 93.722821) scale(0.105 -0.105)">
       <defs>
        <path id="NotoNaskhArabic-Regular-4d4" d="M 1843 -64 
Q 1114 -64 714 256 
Q 314 576 314 1165 
Q 314 1946 1261 2387 
Q 832 2630 646 2912 
Q 461 3194 461 3546 
Q 461 4045 832 4339 
Q 1203 4634 1824 4634 
Q 2451 4634 2822 4342 
Q 3194 4051 3194 3539 
Q 3194 3200 2986 2928 
Q 2778 2656 2323 2419 
Q 2874 2150 3107 1856 
Q 3341 1562 3341 1184 
Q 3341 621 2937 278 
Q 2534 -64 1843 -64 
z
M 1850 2637 
Q 2278 2816 2457 3030 
Q 2637 3245 2637 3520 
Q 2637 3834 2416 4006 
Q 2195 4179 1818 4179 
Q 1446 4179 1228 4003 
Q 1011 3827 1011 3520 
Q 1011 3322 1094 3171 
Q 1178 3021 1338 2906 
Q 1498 2784 1850 2637 
z
M 1830 384 
Q 2278 384 2534 595 
Q 2790 806 2790 1178 
Q 2790 1478 2547 1712 
Q 2304 1946 1728 2157 
Q 1280 1965 1072 1728 
Q 864 1491 864 1158 
Q 864 800 1123 592 
Q 1382 384 1830 384 
z
" transform="scale(0.015625)"/>
       </defs>
       <use xlink:href="#NotoNaskhArabic-Regular-4d4"/>
       <use xlink:href="#NotoNaskhArabic-Regular-4cc" transform="translate(57.203125 0)"/>
      </g>
     </g>
    </g>
    <g id="ytick_6">
     <g id="line2d_16">
      <path d="M 54.100484 37.541464 
L 635.55 37.541464 
" clip-path="url(#pb1d7fdd679)" style="fill: none; stroke: #e6e1d6; stroke-width: 0.8; stroke-linecap: square"/>
     </g>
     <g id="line2d_17">
      <g>
       <use xlink:href="#m32e16573fa" x="54.100484" y="37.541464" style="fill: #555555; stroke: #555555; stroke-width: 0.8"/>
      </g>
     </g>
     <g id="text_11">
      <!-- 100 -->
      <g style="fill: #555555" transform="translate(29.0815 43.153714) scale(0.105 -0.105)">
       <defs>
        <path id="NotoNaskhArabic-Regular-4cd" d="M 1722 0 
L 1722 3194 
Q 1722 3405 1728 3603 
Q 1734 3802 1747 3981 
Q 1702 3936 1657 3891 
Q 1613 3846 1562 3808 
Q 1402 3674 1226 3530 
Q 1050 3386 864 3232 
L 570 3610 
L 1805 4570 
L 2272 4570 
L 2272 0 
L 1722 0 
z
" transform="scale(0.015625)"/>
       </defs>
       <use xlink:href="#NotoNaskhArabic-Regular-4cd"/>
       <use xlink:href="#NotoNaskhArabic-Regular-4cc" transform="translate(57.203125 0)"/>
       <use xlink:href="#NotoNaskhArabic-Regular-4cc" transform="translate(114.40625 0)"/>
      </g>
     </g>
    </g>
    <g id="text_12">
     <!-- ​ﺕﺍﺩﺍﺮﻳﻹﺍ ﻦﻣ % -->
     <g style="fill: #1f2937" transform="translate(18.4245 178.182836) rotate(-90) scale(0.105 -0.105)">
      <defs>
       <path id="DejaVuSans-8" d="M 4653 2053 
Q 4381 2053 4226 1822 
Q 4072 1591 4072 1178 
Q 4072 772 4226 539 
Q 4381 306 4653 306 
Q 4919 306 5073 539 
Q 5228 772 5228 1178 
Q 5228 1588 5073 1820 
Q 4919 2053 4653 2053 
z
M 4653 2450 
Q 5147 2450 5437 2106 
Q 5728 1763 5728 1178 
Q 5728 594 5436 251 
Q 5144 -91 4653 -91 
Q 4153 -91 3862 251 
Q 3572 594 3572 1178 
Q 3572 1766 3864 2108 
Q 4156 2450 4653 2450 
z
M 1428 4353 
Q 1159 4353 1004 4120 
Q 850 3888 850 3481 
Q 850 3069 1003 2837 
Q 1156 2606 1428 2606 
Q 1700 2606 1854 2837 
Q 2009 3069 2009 3481 
Q 2009 3884 1853 4118 
Q 1697 4353 1428 4353 
z
M 4250 4750 
L 4750 4750 
L 1831 -91 
L 1331 -91 
L 4250 4750 
z
M 1428 4750 
Q 1922 4750 2215 4408 
Q 2509 4066 2509 3481 
Q 2509 2891 2217 2550 
Q 1925 2209 1428 2209 
Q 931 2209 642 2551 
Q 353 2894 353 3481 
Q 353 4063 643 4406 
Q 934 4750 1428 4750 
z
" transform="scale(0.015625)"/>
       <path id="NotoNaskhArabic-Regular-1e5" d="M 2291 0 
Q 2035 0 1753 48 
Q 1472 96 1209 182 
Q 947 269 749 384 
Q 602 179 422 89 
Q 243 0 0 0 
Q -51 0 -51 51 
L -51 435 
Q -51 486 0 486 
Q 243 486 409 604 
Q 576 723 698 960 
Q 813 1171 880 1308 
Q 947 1446 1004 1555 
Q 1062 1664 1152 1779 
Q 1312 1990 1478 2083 
Q 1645 2176 1830 2176 
Q 2016 2176 2201 1945 
Q 2387 1715 2502 1357 
Q 2618 1005 2618 666 
Q 2618 467 2547 307 
Q 2477 147 2291 0 
z
M 2150 486 
Q 2144 781 2061 1065 
Q 1978 1350 1875 1498 
Q 1805 1606 1728 1606 
Q 1491 1606 1286 1318 
Q 1235 1242 1161 1117 
Q 1088 992 998 806 
Q 1459 563 2150 486 
z
" transform="scale(0.015625)"/>
       <path id="NotoNaskhArabic-Regular-1e8" d="M 1594 -1677 
Q 1050 -1677 742 -1363 
Q 435 -1050 435 -474 
Q 435 -346 444 -237 
Q 454 -128 480 9 
Q 506 147 557 358 
L 794 301 
Q 723 6 723 -154 
Q 723 -621 956 -883 
Q 1190 -1146 1606 -1146 
Q 1926 -1146 2249 -1040 
Q 2573 -934 2829 -752 
Q 3085 -570 3187 -346 
Q 2976 109 2873 416 
Q 2771 723 2771 877 
Q 2771 1043 2864 1174 
Q 2957 1306 3187 1446 
Q 3200 1344 3235 1133 
Q 3270 922 3334 595 
Q 3565 486 3802 486 
Q 3859 486 3859 435 
L 3859 51 
Q 3859 0 3802 0 
Q 3590 0 3418 77 
L 3424 -109 
Q 3424 -499 3174 -860 
Q 2925 -1222 2490 -1446 
Q 2061 -1677 1594 -1677 
z
M 1766 1504 
Q 1485 1715 1306 1920 
Q 1632 2247 1754 2387 
Q 1856 2279 1961 2173 
Q 2067 2067 2176 1971 
Q 2029 1760 1766 1504 
z
" transform="scale(0.015625)"/>
      </defs>
      <use xlink:href="#DejaVuSans-8"/>
      <use xlink:href="#NotoNaskhArabic-Regular-554" transform="translate(95.015625 0)"/>
      <use xlink:href="#NotoNaskhArabic-Regular-1e5" transform="translate(117.109375 0)"/>
      <use xlink:href="#NotoNaskhArabic-Regular-1e8" transform="translate(162.703125 0)"/>
      <use xlink:href="#NotoNaskhArabic-Regular-554" transform="translate(221.203125 0)"/>
      <use xlink:href="#NotoNaskhArabic-Regular-3" transform="translate(243.296875 0)"/>
      <use xlink:href="#NotoNaskhArabic-Regular-2ea" transform="translate(267.09375 0)"/>
      <use xlink:href="#NotoNaskhArabic-Regular-241" transform="translate(318.890625 0)"/>
      <use xlink:href="#NotoNaskhArabic-Regular-d4" transform="translate(353.1875 0)"/>
      <use xlink:href="#NotoNaskhArabic-Regular-3" transform="translate(393.59375 0)"/>
      <use xlink:href="#NotoNaskhArabic-Regular-b5" transform="translate(417.390625 0)"/>
      <use xlink:href="#NotoNaskhArabic-Regular-3" transform="translate(458.796875 0)"/>
      <use xlink:href="#NotoNaskhArabic-Regular-35" transform="translate(482.59375 0)"/>
      <use xlink:href="#NotoNaskhArabic-Regular-554" transform="translate(559.796875 0)"/>
     </g>
    </g>
   </g>
   <g id="patch_3">
    <path d="M 54.100484 290.387 
L 54.100484 7.2 
" style="fill: none; stroke: #1f2937; stroke-width: 0.8; stroke-linejoin: miter; stroke-linecap: square"/>
   </g>
   <g id="patch_4">
    <path d="M 54.100484 290.387 
L 635.55 290.387 
" style="fill: none; stroke: #1f2937; stroke-width: 0.8; stroke-linejoin: miter; stroke-linecap: square"/>
   </g>
   <g id="patch_5">
    <path d="M 80.530008 290.387 
L 139.262282 290.387 
L 139.262282 37.541464 
L 80.530008 37.541464 
z
" clip-path="url(#pb1d7fdd679)" style="fill: #1f2937"/>
   </g>
   <g id="patch_6">
    <path d="M 197.994556 184.191875 
L 256.726831 184.191875 
L 256.726831 37.541464 
L 197.994556 37.541464 
z
" clip-path="url(#pb1d7fdd679)" style="fill: #b91c1c"/>
   </g>
   <g id="patch_7">
    <path d="M 315.459105 290.387 
L 374.191379 290.387 
L 374.191379 184.191875 
L 315.459105 184.191875 
z
" clip-path="url(#pb1d7fdd679)" style="fill: #b7791f"/>
   </g>
   <g id="patch_8">
    <path d="M 432.923654 239.817893 
L 491.655928 239.817893 
L 491.655928 184.191875 
L 432.923654 184.191875 
z
" clip-path="url(#pb1d7fdd679)" style="fill: #b91c1c"/>
   </g>
   <g id="patch_9">
    <path d="M 550.388202 290.387 
L 609.120477 290.387 
L 609.120477 239.817893 
L 550.388202 239.817893 
z
" clip-path="url(#pb1d7fdd679)" style="fill: #1f8a56"/>
   </g>
   <g id="text_13">
    <!-- 100 -->
    <g style="fill: #ffffff" transform="translate(101.7447 166.030482) scale(0.095 -0.095)">
     <defs>
      <path id="NotoNaskhArabic-Bold-4cd" d="M 1677 0 
L 1677 2643 
Q 1677 2822 1686 3020 
Q 1696 3219 1702 3552 
Q 1466 3315 1370 3238 
Q 1242 3136 1107 3030 
Q 973 2925 845 2816 
L 378 3398 
L 1850 4570 
L 2643 4570 
L 2643 0 
L 1677 0 
z
" transform="scale(0.015625)"/>
      <path id="NotoNaskhArabic-Bold-4cc" d="M 1824 -64 
Q 1030 -64 630 531 
Q 230 1126 230 2285 
Q 230 3494 620 4067 
Q 1011 4640 1824 4640 
Q 2618 4640 3021 4041 
Q 3424 3443 3424 2285 
Q 3424 1088 3033 512 
Q 2643 -64 1824 -64 
z
M 1824 717 
Q 2170 717 2310 1082 
Q 2464 1459 2464 2285 
Q 2464 3123 2310 3494 
Q 2157 3859 1824 3859 
Q 1485 3859 1338 3494 
Q 1190 3110 1190 2285 
Q 1190 1453 1338 1082 
Q 1485 717 1824 717 
z
" transform="scale(0.015625)"/>
     </defs>
     <use xlink:href="#NotoNaskhArabic-Bold-4cd"/>
     <use xlink:href="#NotoNaskhArabic-Bold-4cc" transform="translate(57.203125 0)"/>
     <use xlink:href="#NotoNaskhArabic-Bold-4cc" transform="translate(114.40625 0)"/>
    </g>
   </g>
   <g id="text_14">
    <!-- -58 -->
    <g style="fill: #ffffff" transform="translate(219.955147 112.93292) scale(0.095 -0.095)">
     <defs>
      <path id="DejaVuSans-Bold-10" d="M 347 2297 
L 2309 2297 
L 2309 1388 
L 347 1388 
L 347 2297 
z
" transform="scale(0.015625)"/>
      <path id="NotoNaskhArabic-Bold-4d1" d="M 1542 -64 
Q 787 -64 314 186 
L 314 1018 
Q 557 890 886 806 
Q 1216 723 1510 723 
Q 2394 723 2394 1446 
Q 2394 2138 1478 2138 
Q 1312 2138 1113 2106 
Q 915 2074 787 2035 
L 403 2240 
L 576 4570 
L 3053 4570 
L 3053 3750 
L 1421 3750 
L 1338 2854 
Q 1504 2886 1635 2902 
Q 1766 2918 1920 2918 
Q 2586 2918 2976 2547 
Q 3366 2176 3366 1530 
Q 3366 762 2892 349 
Q 2419 -64 1542 -64 
z
" transform="scale(0.015625)"/>
      <path id="NotoNaskhArabic-Bold-4d4" d="M 1830 -64 
Q 1082 -64 653 256 
Q 224 576 224 1158 
Q 224 1555 432 1856 
Q 640 2157 1101 2387 
Q 710 2630 537 2915 
Q 365 3200 365 3533 
Q 365 3859 550 4105 
Q 736 4352 1065 4489 
Q 1395 4627 1830 4627 
Q 2490 4627 2890 4329 
Q 3290 4032 3290 3526 
Q 3290 3174 3098 2902 
Q 2906 2630 2470 2413 
Q 2982 2138 3206 1840 
Q 3430 1542 3430 1184 
Q 3430 813 3228 531 
Q 3027 250 2668 93 
Q 2310 -64 1830 -64 
z
M 1830 2816 
Q 2138 2963 2259 3110 
Q 2381 3258 2381 3456 
Q 2381 3674 2224 3798 
Q 2067 3923 1824 3923 
Q 1581 3923 1427 3795 
Q 1274 3667 1274 3456 
Q 1274 3245 1434 3078 
Q 1555 2950 1830 2816 
z
M 1818 646 
Q 2176 646 2355 800 
Q 2534 954 2534 1210 
Q 2534 1421 2358 1603 
Q 2182 1786 1786 1990 
Q 1120 1683 1120 1216 
Q 1120 947 1305 796 
Q 1491 646 1818 646 
z
" transform="scale(0.015625)"/>
     </defs>
     <use xlink:href="#DejaVuSans-Bold-10"/>
     <use xlink:href="#NotoNaskhArabic-Bold-4d1" transform="translate(41.5 0)"/>
     <use xlink:href="#NotoNaskhArabic-Bold-4d4" transform="translate(98.703125 0)"/>
    </g>
   </g>
   <g id="text_15">
    <!-- 42 -->
    <g style="fill: #ffffff" transform="translate(339.390945 239.355687) scale(0.095 -0.095)">
     <defs>
      <path id="NotoNaskhArabic-Bold-4d0" d="M 2061 0 
L 2061 947 
L 109 947 
L 109 1619 
L 2112 4570 
L 3002 4570 
L 3002 1696 
L 3552 1696 
L 3552 947 
L 3002 947 
L 3002 0 
L 2061 0 
z
M 960 1696 
L 2061 1696 
L 2061 2470 
Q 2061 2566 2064 2720 
Q 2067 2874 2073 3034 
Q 2080 3194 2086 3315 
Q 2093 3437 2099 3462 
L 2074 3462 
Q 2016 3334 1949 3209 
Q 1882 3085 1798 2963 
L 960 1696 
z
" transform="scale(0.015625)"/>
      <path id="NotoNaskhArabic-Bold-4ce" d="M 256 0 
L 256 672 
L 1402 1830 
Q 1914 2355 2067 2554 
Q 2234 2765 2298 2925 
Q 2362 3085 2362 3283 
Q 2362 3558 2211 3692 
Q 2061 3827 1805 3827 
Q 1542 3827 1292 3705 
Q 1043 3584 768 3360 
L 243 3981 
Q 518 4218 761 4358 
Q 1005 4499 1267 4566 
Q 1530 4634 1875 4634 
Q 2304 4634 2633 4477 
Q 2963 4320 3142 4038 
Q 3322 3763 3322 3398 
Q 3322 3085 3213 2809 
Q 3104 2534 2867 2240 
Q 2752 2093 2547 1885 
Q 2342 1677 2048 1408 
L 1459 858 
L 1459 813 
L 3450 813 
L 3450 0 
L 256 0 
z
" transform="scale(0.015625)"/>
     </defs>
     <use xlink:href="#NotoNaskhArabic-Bold-4d0"/>
     <use xlink:href="#NotoNaskhArabic-Bold-4ce" transform="translate(57.203125 0)"/>
    </g>
   </g>
   <g id="text_16">
    <!-- -22 -->
    <g style="fill: #ffffff" transform="translate(454.884244 214.071134) scale(0.095 -0.095)">
     <use xlink:href="#DejaVuSans-Bold-10"/>
     <use xlink:href="#NotoNaskhArabic-Bold-4ce" transform="translate(41.5 0)"/>
     <use xlink:href="#NotoNaskhArabic-Bold-4ce" transform="translate(98.703125 0)"/>
    </g>
   </g>
   <g id="text_17">
    <!-- 20 -->
    <g style="fill: #ffffff" transform="translate(574.320043 267.168696) scale(0.095 -0.095)">
     <use xlink:href="#NotoNaskhArabic-Bold-4ce"/>
     <use xlink:href="#NotoNaskhArabic-Bold-4cc" transform="translate(57.203125 0)"/>
    </g>
   </g>
  </g>
 </g>
 <defs>
  <clipPath id="pb1d7fdd679">
   <rect x="54.100484" y="7.2" width="581.449516" height="283.187"/>
  </clipPath>
 </defs>
</svg>
