<?xml version="1.0" encoding="utf-8" standalone="no"?>
<!DOCTYPE svg PUBLIC "-//W3C//DTD SVG 1.1//EN"
  "http://www.w3.org/Graphics/SVG/1.1/DTD/svg11.dtd">
<svg xmlns:xlink="http://www.w3.org/1999/xlink" width="538.92pt" height="373.749pt" viewBox="0 0 538.92 373.749" xmlns="http://www.w3.org/2000/svg" version="1.1">
 <metadata>
  <rdf:RDF xmlns:dc="http://purl.org/dc/elements/1.1/" xmlns:cc="http://creativecommons.org/ns#" xmlns:rdf="http://www.w3.org/1999/02/22-rdf-syntax-ns#">
   <cc:Work>
    <dc:type rdf:resource="http://purl.org/dc/dcmitype/StillImage"/>
    <dc:date>2026-07-18T23:49:05.931098</dc:date>
    <dc:format>image/svg+xml</dc:format>
    <dc:creator>
     <cc:Agent>
      <dc:title>Matplotlib v3.11.1, https://matplotlib.org/</dc:title>
     </cc:Agent>
    </dc:creator>
   </cc:Work>
  </rdf:RDF>
 </metadata>
 <defs>
  <style type="text/css">*{stroke-linejoin: round; stroke-linecap: butt}</style>
 </defs>
 <g id="figure_1">
  <g id="patch_1">
   <path d="M 0 373.749 
L 538.92 373.749 
L 538.92 0 
L 0 0 
z
" style="fill: #ffffff"/>
  </g>
  <g id="axes_1">
   <g id="patch_2">
    <path d="M 7.2 130.960146 
L 245.618182 130.960146 
L 245.618182 22.821 
L 7.2 22.821 
z
" style="fill: #ffffff"/>
   </g>
   <g id="matplotlib.axis_1"/>
   <g id="matplotlib.axis_2"/>
   <g id="line2d_1">
    <path d="M 18.553247 125.954022 
L 18.553247 121.244563 
" clip-path="url(#paad6f2f1dd)" style="fill: none; stroke: #1f8a56; stroke-width: 1.1; stroke-linecap: round"/>
   </g>
   <g id="line2d_2">
    <path d="M 29.906494 126.04473 
L 29.906494 117.035824 
" clip-path="url(#paad6f2f1dd)" style="fill: none; stroke: #1f8a56; stroke-width: 1.1; stroke-linecap: round"/>
   </g>
   <g id="line2d_3">
    <path d="M 41.25974 119.101876 
L 41.25974 111.662019 
" clip-path="url(#paad6f2f1dd)" style="fill: none; stroke: #1f8a56; stroke-width: 1.1; stroke-linecap: round"/>
   </g>
   <g id="line2d_4">
    <path d="M 52.612987 111.594088 
L 52.612987 106.463534 
" clip-path="url(#paad6f2f1dd)" style="fill: none; stroke: #1f8a56; stroke-width: 1.1; stroke-linecap: round"/>
   </g>
   <g id="line2d_5">
    <path d="M 63.966234 108.608327 
L 63.966234 102.045118 
" clip-path="url(#paad6f2f1dd)" style="fill: none; stroke: #1f8a56; stroke-width: 1.1; stroke-linecap: round"/>
   </g>
   <g id="line2d_6">
    <path d="M 75.319481 102.001311 
L 75.319481 96.899264 
" clip-path="url(#paad6f2f1dd)" style="fill: none; stroke: #1f8a56; stroke-width: 1.1; stroke-linecap: round"/>
   </g>
   <g id="line2d_7">
    <path d="M 86.672727 99.961172 
L 86.672727 92.591724 
" clip-path="url(#paad6f2f1dd)" style="fill: none; stroke: #1f8a56; stroke-width: 1.1; stroke-linecap: round"/>
   </g>
   <g id="line2d_8">
    <path d="M 98.025974 94.571075 
L 98.025974 87.351207 
" clip-path="url(#paad6f2f1dd)" style="fill: none; stroke: #1f8a56; stroke-width: 1.1; stroke-linecap: round"/>
   </g>
   <g id="line2d_9">
    <path d="M 109.379221 90.092446 
L 109.379221 82.52613 
" clip-path="url(#paad6f2f1dd)" style="fill: none; stroke: #1f8a56; stroke-width: 1.1; stroke-linecap: round"/>
   </g>
   <g id="line2d_10">
    <path d="M 120.732468 83.294551 
L 120.732468 77.573268 
" clip-path="url(#paad6f2f1dd)" style="fill: none; stroke: #1f8a56; stroke-width: 1.1; stroke-linecap: round"/>
   </g>
   <g id="line2d_11">
    <path d="M 132.085714 79.840269 
L 132.085714 72.519301 
" clip-path="url(#paad6f2f1dd)" style="fill: none; stroke: #1f8a56; stroke-width: 1.1; stroke-linecap: round"/>
   </g>
   <g id="line2d_12">
    <path d="M 143.438961 75.359989 
L 143.438961 67.174154 
" clip-path="url(#paad6f2f1dd)" style="fill: none; stroke: #1f8a56; stroke-width: 1.1; stroke-linecap: round"/>
   </g>
   <g id="line2d_13">
    <path d="M 154.792208 68.425985 
L 154.792208 62.673597 
" clip-path="url(#paad6f2f1dd)" style="fill: none; stroke: #1f8a56; stroke-width: 1.1; stroke-linecap: round"/>
   </g>
   <g id="line2d_14">
    <path d="M 166.145455 64.969869 
L 166.145455 57.663971 
" clip-path="url(#paad6f2f1dd)" style="fill: none; stroke: #1f8a56; stroke-width: 1.1; stroke-linecap: round"/>
   </g>
   <g id="line2d_15">
    <path d="M 177.498701 59.95323 
L 177.498701 52.764221 
" clip-path="url(#paad6f2f1dd)" style="fill: none; stroke: #1f8a56; stroke-width: 1.1; stroke-linecap: round"/>
   </g>
   <g id="line2d_16">
    <path d="M 188.851948 54.476621 
L 188.851948 47.369819 
" clip-path="url(#paad6f2f1dd)" style="fill: none; stroke: #1f8a56; stroke-width: 1.1; stroke-linecap: round"/>
   </g>
   <g id="line2d_17">
    <path d="M 200.205195 50.227557 
L 200.205195 43.228775 
" clip-path="url(#paad6f2f1dd)" style="fill: none; stroke: #1f8a56; stroke-width: 1.1; stroke-linecap: round"/>
   </g>
   <g id="line2d_18">
    <path d="M 211.558442 43.408744 
L 211.558442 38.165509 
" clip-path="url(#paad6f2f1dd)" style="fill: none; stroke: #1f8a56; stroke-width: 1.1; stroke-linecap: round"/>
   </g>
   <g id="line2d_19">
    <path d="M 222.911688 37.841604 
L 222.911688 33.343086 
" clip-path="url(#paad6f2f1dd)" style="fill: none; stroke: #1f8a56; stroke-width: 1.1; stroke-linecap: round"/>
   </g>
   <g id="line2d_20">
    <path d="M 234.264935 34.933106 
L 234.264935 27.736416 
" clip-path="url(#paad6f2f1dd)" style="fill: none; stroke: #1f8a56; stroke-width: 1.1; stroke-linecap: round"/>
   </g>
   <g id="text_1">
    <!-- ﻕﻮﺛﻮﻣﻭ ﻱﻮﻗ ﻩﺎﺠﺗﺍ :ﺪﻋﺎﺻ ﻢﺠﺣ + ﺪﻋﺎﺻ ﺮﻌﺳ -->
    <g style="fill: #1f8a56" transform="translate(51.773778 16.821) scale(0.09 -0.09)">
     <defs>
      <path id="NotoNaskhArabic-Bold-fa" d="M 1472 0 
Q 1165 0 736 205 
Q 608 141 406 99 
Q 205 58 0 58 
Q -51 58 -51 109 
L -51 762 
Q -51 813 0 813 
Q 294 813 441 851 
Q 589 890 678 979 
Q 749 1050 806 1142 
Q 864 1235 998 1466 
Q 1037 1536 1110 1581 
Q 1184 1626 1267 1626 
Q 1357 1626 1466 1555 
Q 1363 1286 1286 1091 
Q 1210 896 1158 781 
Q 1331 762 1504 762 
Q 1632 762 1734 778 
Q 1837 794 1965 832 
Q 2010 902 2093 1104 
Q 2176 1306 2317 1696 
Q 2349 1779 2432 1833 
Q 2515 1888 2630 1888 
Q 2765 1888 2854 1818 
Q 2778 1626 2710 1414 
Q 2643 1203 2586 992 
Q 2829 870 3133 806 
Q 3437 742 3782 704 
Q 3584 1094 3443 1376 
Q 3302 1658 3302 1798 
Q 3302 1952 3475 2141 
Q 3648 2330 3885 2451 
Q 3994 1907 4051 1603 
Q 4109 1299 4131 1145 
Q 4154 992 4154 909 
Q 4154 806 4112 633 
Q 4070 461 4006 288 
Q 3942 115 3885 0 
Q 3501 0 3097 89 
Q 2694 179 2355 326 
Q 2317 243 2278 173 
Q 2234 102 1994 51 
Q 1754 0 1472 0 
z
" transform="scale(0.015625)"/>
      <path id="NotoNaskhArabic-Bold-135" d="M 6 58 
Q -51 58 -51 115 
L -51 755 
Q -51 813 6 813 
Q 346 813 627 822 
Q 909 832 1126 870 
L 998 1030 
Q 909 1152 835 1235 
Q 762 1318 691 1382 
Q 640 1434 589 1478 
Q 538 1523 486 1568 
L 371 1485 
Q 198 1670 198 1894 
Q 198 2112 390 2272 
Q 582 2432 915 2554 
Q 1242 2669 1549 2669 
Q 1830 2669 2080 2547 
Q 2330 2426 2470 2208 
Q 2618 1990 2618 1760 
Q 2618 1530 2490 1306 
Q 2362 1082 2118 858 
Q 2291 832 2486 822 
Q 2682 813 2912 813 
Q 2976 813 2976 755 
L 2976 115 
Q 2976 58 2912 58 
Q 2464 58 2105 160 
Q 1747 262 1530 448 
Q 845 58 6 58 
z
M 1626 1062 
Q 1978 1293 1978 1613 
Q 1978 1773 1862 1865 
Q 1747 1958 1574 1958 
Q 1408 1958 1257 1926 
Q 1107 1894 902 1805 
Q 973 1741 1117 1603 
Q 1261 1466 1459 1248 
Q 1498 1203 1539 1158 
Q 1581 1114 1626 1062 
z
" transform="scale(0.015625)"/>
      <path id="NotoNaskhArabic-Bold-d4" d="M 653 -1248 
Q 544 -1248 304 -1107 
Q 64 -966 -218 -730 
L -115 -461 
Q 243 -550 531 -550 
Q 1005 -550 1331 -313 
Q 1658 -77 1805 371 
Q 1760 467 1705 566 
Q 1651 666 1587 762 
Q 1299 1203 1203 1414 
Q 1107 1626 1107 1779 
Q 1107 1965 1254 2147 
Q 1402 2330 1638 2451 
Q 1670 2330 1705 2208 
Q 1741 2086 1786 1958 
Q 1926 1555 2006 1299 
Q 2086 1043 2106 934 
Q 2323 813 2586 813 
Q 2637 813 2637 762 
L 2637 109 
Q 2637 58 2586 58 
Q 2349 58 2112 179 
Q 2042 -243 1837 -566 
Q 1632 -890 1328 -1069 
Q 1024 -1248 653 -1248 
z
" transform="scale(0.015625)"/>
      <path id="NotoNaskhArabic-Bold-554" transform="scale(0.015625)"/>
      <path id="NotoNaskhArabic-Bold-112" d="M 2592 0 
Q 2163 0 1699 80 
Q 1235 160 851 339 
Q 826 314 797 285 
Q 768 256 730 230 
Q 595 147 400 102 
Q 205 58 0 58 
Q -51 58 -51 109 
L -51 762 
Q -51 813 0 813 
Q 243 813 380 841 
Q 518 870 614 969 
Q 710 1069 826 1274 
Q 851 1318 880 1363 
Q 909 1408 934 1466 
Q 1030 1638 1222 1638 
Q 1318 1638 1427 1574 
Q 1363 1414 1302 1260 
Q 1242 1107 1178 954 
Q 1248 928 1312 909 
Q 1376 890 1440 864 
Q 2099 1741 2605 2150 
Q 3091 2560 3469 2560 
Q 3629 2560 3824 2464 
Q 4019 2368 4211 2214 
Q 4403 2061 4544 1882 
Q 4762 1619 4762 1446 
Q 4762 582 3699 192 
Q 3174 0 2592 0 
z
M 2656 704 
Q 3117 704 3520 813 
Q 3923 922 4390 1146 
Q 3814 1805 3309 1805 
Q 3027 1805 2652 1536 
Q 2278 1267 1862 774 
Q 2067 742 2265 723 
Q 2464 704 2656 704 
z
" transform="scale(0.015625)"/>
      <path id="NotoNaskhArabic-Bold-4" d="M 1901 58 
Q 1517 58 1283 186 
Q 1050 314 938 528 
Q 826 742 794 1018 
Q 781 1139 749 1424 
Q 717 1709 681 2073 
Q 646 2438 608 2809 
Q 570 3181 538 3481 
Q 506 3782 486 3930 
Q 845 4166 1248 4352 
Q 1274 3635 1296 2918 
Q 1318 2202 1338 1478 
L 1363 979 
Q 1478 883 1606 848 
Q 1734 813 1914 813 
Q 1952 813 1952 762 
L 1952 109 
Q 1952 58 1901 58 
z
" transform="scale(0.015625)"/>
      <path id="NotoNaskhArabic-Bold-136" d="M 0 58 
Q -51 58 -51 109 
L -51 762 
Q -51 813 0 813 
L 499 813 
Q 365 1005 365 1210 
Q 365 1408 441 1632 
Q 518 1856 652 2057 
Q 787 2259 947 2387 
Q 1190 2579 1440 2579 
Q 1875 2579 2406 1990 
L 2272 1728 
Q 2074 1805 1907 1840 
Q 1741 1875 1600 1875 
Q 1376 1875 1197 1827 
Q 1018 1779 819 1670 
Q 832 1434 921 1245 
Q 1011 1056 1190 928 
Q 1267 877 1338 838 
Q 1843 870 2240 953 
Q 2637 1037 3040 1197 
Q 3091 1152 3116 1056 
Q 3142 960 3142 883 
Q 3142 730 3072 602 
Q 3002 474 2874 410 
Q 2746 346 2259 250 
Q 1766 147 1235 102 
Q 704 58 0 58 
z
" transform="scale(0.015625)"/>
      <path id="NotoNaskhArabic-Bold-b6" d="M 1075 0 
Q 218 0 218 499 
Q 218 634 272 784 
Q 326 934 410 1018 
Q 570 890 774 826 
Q 979 762 1280 762 
Q 1466 762 1658 784 
Q 1850 806 2048 851 
Q 1798 1286 1648 1673 
Q 1498 2061 1498 2246 
Q 1498 2477 1613 2646 
Q 1728 2816 1946 2880 
Q 2074 2362 2208 1955 
Q 2342 1549 2490 1248 
Q 2611 1005 2758 909 
Q 2906 813 3162 813 
Q 3213 813 3213 762 
L 3213 109 
Q 3213 58 3162 58 
Q 2707 58 2413 352 
Q 1709 0 1075 0 
z
" transform="scale(0.015625)"/>
      <path id="DejaVuSans-Bold-e" d="M 3053 4013 
L 3053 2375 
L 4684 2375 
L 4684 1638 
L 3053 1638 
L 3053 0 
L 2309 0 
L 2309 1638 
L 678 1638 
L 678 2375 
L 2309 2375 
L 2309 4013 
L 3053 4013 
z
" transform="scale(0.015625)"/>
      <path id="NotoNaskhArabic-Bold-8c" d="M 0 58 
Q -51 58 -51 109 
L -51 762 
Q -51 813 0 813 
Q 467 813 793 829 
Q 1120 845 1427 934 
Q 1702 1018 1897 1069 
Q 2093 1120 2202 1146 
Q 2112 1197 2025 1251 
Q 1939 1306 1856 1363 
Q 1651 1504 1513 1558 
Q 1376 1613 1235 1613 
Q 1043 1613 870 1558 
Q 698 1504 480 1363 
Q 422 1421 377 1533 
Q 333 1645 333 1747 
Q 333 2029 582 2205 
Q 832 2381 1210 2381 
Q 1414 2381 1603 2310 
Q 1792 2240 2029 2080 
Q 2317 1882 2560 1763 
Q 2803 1645 3136 1555 
Q 3302 1517 3500 1494 
Q 3699 1472 3936 1472 
L 3603 794 
Q 3405 813 3273 825 
Q 3142 838 2963 826 
Q 2739 806 2483 704 
Q 2227 602 1990 467 
Q 1741 320 1533 237 
Q 1325 154 1107 115 
Q 890 77 624 67 
Q 358 58 0 58 
z
" transform="scale(0.015625)"/>
      <path id="NotoNaskhArabic-Bold-73" d="M 0 58 
Q -51 58 -51 109 
L -51 762 
Q -51 813 0 813 
Q 467 813 793 829 
Q 1120 845 1427 934 
Q 1702 1018 1897 1069 
Q 2093 1120 2202 1146 
Q 2118 1197 2032 1251 
Q 1946 1306 1856 1363 
Q 1651 1498 1513 1555 
Q 1376 1613 1235 1613 
Q 1043 1613 870 1558 
Q 698 1504 480 1363 
Q 422 1421 377 1533 
Q 333 1645 333 1747 
Q 333 2029 582 2205 
Q 832 2381 1210 2381 
Q 1414 2381 1603 2310 
Q 1792 2240 2029 2080 
Q 2317 1882 2560 1763 
Q 2803 1645 3136 1555 
Q 3302 1517 3500 1494 
Q 3699 1472 3936 1472 
L 3654 934 
Q 3578 941 3501 941 
Q 3424 941 3347 947 
Q 3411 890 3488 867 
Q 3565 845 3661 832 
Q 3808 826 3965 822 
Q 4122 819 4262 813 
Q 4314 813 4314 762 
L 4314 109 
Q 4314 58 4262 58 
Q 4032 58 3782 80 
Q 3533 102 3325 150 
Q 3117 198 3021 262 
Q 2893 358 2838 537 
Q 2784 717 2746 877 
Q 2624 851 2525 803 
Q 2426 755 2304 675 
Q 2182 595 1990 467 
Q 1683 262 1395 176 
Q 1107 90 774 74 
Q 442 58 0 58 
z
M 2208 -1107 
Q 2035 -966 1913 -851 
Q 1792 -736 1708 -646 
Q 1836 -518 1958 -393 
Q 2080 -269 2195 -134 
Q 2361 -326 2656 -595 
Q 2585 -697 2470 -828 
Q 2355 -960 2208 -1107 
z
" transform="scale(0.015625)"/>
      <path id="NotoNaskhArabic-Bold-1e3" d="M 570 -1965 
Q 570 -1664 554 -1296 
Q 538 -928 506 -486 
Q 467 -45 451 240 
Q 435 525 435 653 
Q 435 723 493 896 
Q 525 979 576 1107 
Q 627 1235 704 1402 
Q 723 1434 857 1539 
Q 992 1645 1181 1776 
Q 1370 1907 1542 2010 
Q 1811 2157 2054 2249 
Q 2298 2342 2477 2342 
Q 2592 2342 2678 2227 
Q 2765 2112 2842 1946 
Q 2874 1862 2912 1769 
Q 2950 1677 2982 1581 
Q 3053 1382 3139 1209 
Q 3226 1037 3328 928 
Q 3437 813 3590 813 
Q 3661 813 3661 755 
L 3661 128 
Q 3661 58 3590 58 
Q 3277 58 3014 301 
L 2931 0 
Q 2445 0 2064 93 
Q 1683 186 1462 362 
Q 1242 538 1242 774 
Q 1242 998 1318 1216 
Q 1242 1171 1117 1081 
Q 992 992 819 864 
Q 870 531 928 182 
Q 986 -166 1069 -672 
Q 1120 -979 1158 -1212 
Q 1197 -1446 1216 -1600 
Q 877 -1856 570 -1965 
z
M 2726 710 
Q 2515 1133 2458 1664 
Q 1920 1453 1606 1082 
Q 1939 806 2726 710 
z
" transform="scale(0.015625)"/>
      <path id="NotoNaskhArabic-Bold-516" d="M 1037 1792 
Q 877 1920 710 2029 
Q 544 2138 378 2234 
Q 429 2317 473 2397 
Q 518 2477 557 2560 
Q 602 2643 650 2723 
Q 698 2803 755 2886 
Q 870 2816 1017 2720 
Q 1165 2624 1273 2534 
Q 1382 2445 1382 2381 
Q 1382 2291 1037 1792 
z
M 1037 -365 
Q 691 -96 378 77 
Q 429 166 473 246 
Q 518 326 557 410 
Q 602 486 650 566 
Q 698 646 755 730 
Q 1382 365 1382 224 
Q 1382 134 1037 -365 
z
" transform="scale(0.015625)"/>
      <path id="NotoNaskhArabic-Bold-3" d="M 774 58 
Q 742 717 710 1216 
Q 678 1715 646 2134 
Q 614 2554 576 2950 
Q 538 3347 493 3808 
Q 474 3968 566 4089 
Q 659 4211 822 4281 
Q 986 4352 1178 4352 
Q 1229 4154 1296 3955 
Q 1363 3757 1440 3565 
L 1216 3398 
Q 1229 2867 1222 2035 
Q 1216 1203 1184 109 
L 774 58 
z
" transform="scale(0.015625)"/>
      <path id="NotoNaskhArabic-Bold-38" d="M 0 58 
Q -51 58 -51 109 
L -51 762 
Q -51 813 0 813 
Q 320 813 640 867 
Q 960 922 1139 998 
Q 1075 1146 976 1328 
Q 877 1510 819 1613 
Q 755 1734 710 1833 
Q 666 1933 666 2016 
Q 666 2176 838 2361 
Q 1011 2547 1248 2669 
Q 1293 2470 1347 2217 
Q 1402 1965 1446 1702 
Q 1485 1504 1501 1376 
Q 1517 1248 1517 1184 
Q 1517 1037 1443 822 
Q 1370 608 1267 410 
Q 685 58 0 58 
z
M 1332 3020 
Q 1197 3129 1088 3225 
Q 980 3321 890 3417 
Q 1127 3635 1319 3865 
Q 1376 3801 1478 3705 
Q 1581 3609 1722 3468 
Q 1549 3232 1332 3020 
z
M 474 2924 
Q 199 3148 32 3328 
Q 141 3436 250 3548 
Q 359 3660 468 3769 
Q 583 3635 864 3372 
Q 704 3142 474 2924 
z
" transform="scale(0.015625)"/>
      <path id="NotoNaskhArabic-Bold-1fd" d="M 1274 0 
Q 909 0 672 246 
Q 435 493 435 864 
Q 435 1126 572 1401 
Q 710 1677 1018 1984 
Q 915 2048 880 2141 
Q 845 2234 845 2330 
Q 845 2464 899 2585 
Q 954 2707 1043 2752 
Q 1408 2637 1721 2381 
Q 2035 2125 2214 1798 
Q 2394 1466 2394 1184 
Q 2394 1094 2349 944 
Q 2304 794 2233 634 
Q 2163 474 2086 349 
Q 2010 224 1939 179 
Q 1818 96 1642 48 
Q 1466 0 1274 0 
z
M 1344 672 
Q 1690 672 1978 851 
Q 1882 1133 1715 1360 
Q 1549 1587 1286 1786 
Q 915 1421 915 1075 
Q 915 896 1040 784 
Q 1165 672 1344 672 
z
" transform="scale(0.015625)"/>
      <path id="NotoNaskhArabic-Bold-16a" d="M 6 58 
Q -51 58 -51 115 
L -51 762 
Q -51 813 6 813 
Q 710 813 1196 857 
Q 1683 902 2061 1075 
Q 2048 1120 2029 1177 
Q 2010 1235 1978 1312 
Q 1824 1178 1638 1107 
Q 1453 1037 1229 1037 
Q 864 1037 685 1229 
Q 506 1421 506 1709 
Q 506 2029 624 2297 
Q 742 2566 941 2720 
Q 1043 2803 1158 2851 
Q 1274 2899 1395 2899 
Q 1658 2899 1904 2608 
Q 2150 2317 2285 1869 
Q 2349 1677 2377 1469 
Q 2406 1261 2406 1043 
Q 2406 832 2189 397 
Q 1875 275 1577 201 
Q 1280 128 912 93 
Q 544 58 6 58 
z
M 1318 1504 
Q 1568 1504 1856 1594 
Q 1734 1875 1593 2003 
Q 1453 2131 1254 2131 
Q 1056 2131 944 2032 
Q 832 1933 832 1811 
Q 832 1658 947 1581 
Q 1062 1504 1318 1504 
z
M 1818 3296 
Q 1683 3405 1574 3501 
Q 1466 3597 1376 3693 
Q 1613 3911 1805 4141 
Q 1862 4077 1964 3981 
Q 2067 3885 2208 3744 
Q 2035 3508 1818 3296 
z
M 960 3200 
Q 685 3424 518 3604 
Q 627 3712 736 3824 
Q 845 3936 954 4045 
Q 1069 3911 1350 3648 
Q 1190 3418 960 3200 
z
" transform="scale(0.015625)"/>
      <path id="NotoNaskhArabic-Bold-219" d="M 1248 -1248 
Q 1171 -1248 1011 -1174 
Q 851 -1101 668 -982 
Q 486 -864 326 -730 
L 429 -461 
Q 602 -506 778 -528 
Q 954 -550 1133 -550 
Q 1536 -550 1862 -380 
Q 2189 -211 2368 64 
Q 2093 83 1894 102 
Q 1696 122 1574 147 
Q 838 307 838 1018 
Q 838 1370 972 1712 
Q 1107 2054 1325 2266 
Q 1549 2477 1766 2477 
Q 2029 2477 2262 2240 
Q 2496 2003 2650 1626 
Q 2720 1446 2768 1241 
Q 2816 1037 2835 813 
L 3181 813 
Q 3232 813 3232 762 
L 3232 109 
Q 3232 58 3181 58 
L 2784 58 
Q 2669 -365 2419 -669 
Q 2170 -973 1843 -1120 
Q 1555 -1248 1248 -1248 
z
M 2419 819 
Q 2285 1254 2077 1484 
Q 1869 1715 1626 1715 
Q 1504 1715 1401 1651 
Q 1299 1587 1235 1498 
Q 1178 1402 1178 1293 
Q 1178 941 1805 858 
Q 1952 838 2419 819 
z
" transform="scale(0.015625)"/>
      <path id="NotoNaskhArabic-Bold-23e" d="M 1606 -1613 
Q 1037 -1613 736 -1277 
Q 435 -941 435 -301 
Q 435 32 595 627 
L 877 557 
Q 787 256 787 45 
Q 787 -858 1683 -858 
Q 1965 -858 2291 -771 
Q 2618 -685 2931 -531 
Q 3078 -454 3222 -368 
Q 3366 -282 3494 -179 
Q 3418 -179 3344 -179 
Q 3270 -179 3200 -173 
Q 2362 -128 2093 230 
Q 1939 442 1939 762 
Q 1939 1005 2038 1267 
Q 2138 1530 2307 1776 
Q 2477 2022 2688 2202 
Q 3008 2464 3290 2464 
Q 3725 2464 3853 1638 
L 3571 1581 
Q 3475 1702 3366 1702 
Q 3194 1702 2976 1577 
Q 2758 1453 2560 1229 
Q 2374 1024 2266 755 
Q 2394 704 2582 665 
Q 2771 627 3021 595 
Q 3245 570 3376 525 
Q 3507 480 3603 403 
Q 3699 333 3760 179 
Q 3821 26 3821 -122 
Q 3821 -314 3667 -547 
Q 3514 -781 3242 -998 
Q 2970 -1216 2624 -1376 
Q 2125 -1613 1606 -1613 
z
M 2227 -2630 
Q 1952 -2406 1785 -2227 
Q 1990 -2048 2214 -1779 
Q 2233 -1798 2332 -1897 
Q 2432 -1997 2611 -2182 
Q 2547 -2278 2451 -2390 
Q 2355 -2502 2227 -2630 
z
M 1369 -2726 
Q 1209 -2598 1103 -2495 
Q 998 -2393 928 -2317 
Q 1036 -2208 1145 -2096 
Q 1254 -1984 1363 -1875 
Q 1440 -1971 1760 -2272 
Q 1606 -2502 1369 -2726 
z
" transform="scale(0.015625)"/>
      <path id="NotoNaskhArabic-Bold-218" d="M 1248 -1248 
Q 1171 -1248 1011 -1174 
Q 851 -1101 668 -982 
Q 486 -864 326 -730 
L 429 -461 
Q 602 -506 778 -528 
Q 954 -550 1133 -550 
Q 1632 -550 2003 -304 
Q 2374 -58 2515 371 
L 2509 416 
Q 2323 224 2105 112 
Q 1888 0 1664 0 
Q 1267 0 1049 230 
Q 832 461 832 883 
Q 832 1242 966 1584 
Q 1101 1926 1318 2131 
Q 1530 2342 1766 2342 
Q 2042 2342 2288 2089 
Q 2534 1837 2694 1402 
Q 2848 973 2848 570 
Q 2848 83 2637 -339 
Q 2426 -762 2054 -1005 
Q 1690 -1248 1248 -1248 
z
M 1792 704 
Q 2074 704 2400 813 
Q 2342 992 2220 1181 
Q 2099 1370 1952 1472 
Q 1798 1574 1658 1574 
Q 1498 1574 1376 1488 
Q 1254 1402 1203 1267 
Q 1178 1190 1178 1094 
Q 1178 902 1338 803 
Q 1498 704 1792 704 
z
" transform="scale(0.015625)"/>
      <path id="NotoNaskhArabic-Bold-1e5" d="M 2349 0 
Q 1920 0 1488 99 
Q 1056 198 755 358 
Q 602 198 429 128 
Q 256 58 0 58 
Q -51 58 -51 109 
L -51 762 
Q -51 813 0 813 
Q 525 813 774 1286 
Q 890 1517 982 1680 
Q 1075 1843 1146 1939 
Q 1306 2157 1446 2249 
Q 1587 2342 1773 2342 
Q 2003 2342 2224 2102 
Q 2445 1862 2586 1466 
Q 2726 1082 2726 723 
Q 2726 557 2611 339 
Q 2496 122 2349 0 
z
M 2138 704 
Q 2112 941 2035 1142 
Q 1958 1344 1862 1466 
Q 1760 1587 1677 1587 
Q 1536 1587 1427 1472 
Q 1325 1363 1120 960 
Q 1325 870 1577 803 
Q 1830 736 2138 704 
z
" transform="scale(0.015625)"/>
      <path id="NotoNaskhArabic-Bold-44" d="M 0 58 
Q -51 58 -51 109 
L -51 762 
Q -51 813 0 813 
Q 320 813 640 867 
Q 960 922 1139 998 
Q 1075 1146 976 1328 
Q 877 1510 819 1613 
Q 755 1734 710 1833 
Q 666 1933 666 2016 
Q 666 2176 838 2361 
Q 1011 2547 1248 2669 
Q 1293 2470 1347 2217 
Q 1402 1965 1446 1702 
Q 1485 1504 1501 1376 
Q 1517 1248 1517 1184 
Q 1517 1037 1443 822 
Q 1370 608 1267 410 
Q 685 58 0 58 
z
M 909 3546 
Q 774 3655 678 3747 
Q 582 3840 518 3911 
Q 653 4032 745 4118 
Q 838 4205 889 4269 
Q 960 4186 1052 4096 
Q 1145 4007 1261 3911 
Q 1126 3763 1036 3670 
Q 947 3578 909 3546 
z
M 1369 2995 
Q 1235 3104 1126 3203 
Q 1017 3303 928 3399 
Q 1024 3488 1132 3597 
Q 1241 3706 1357 3840 
Q 1395 3795 1497 3699 
Q 1600 3603 1760 3450 
Q 1677 3328 1577 3216 
Q 1478 3104 1369 2995 
z
M 480 2906 
Q 192 3123 45 3309 
Q 153 3418 262 3530 
Q 371 3642 480 3751 
Q 531 3687 630 3584 
Q 729 3482 870 3354 
Q 774 3226 678 3110 
Q 582 2995 480 2906 
z
" transform="scale(0.015625)"/>
      <path id="NotoNaskhArabic-Bold-167" d="M 1606 -1613 
Q 1037 -1613 736 -1277 
Q 435 -941 435 -301 
Q 435 32 595 627 
L 877 557 
Q 787 256 787 45 
Q 787 -858 1683 -858 
Q 2317 -858 2976 -493 
Q 3085 -429 3200 -355 
Q 3315 -282 3424 -198 
Q 3411 -51 3388 99 
Q 3366 250 3334 390 
Q 2938 0 2522 0 
Q 2125 0 1907 230 
Q 1690 461 1690 883 
Q 1690 1242 1824 1584 
Q 1958 1926 2176 2131 
Q 2400 2342 2630 2342 
Q 2950 2342 3238 2080 
Q 3526 1818 3686 1350 
Q 3846 890 3846 320 
Q 3846 -90 3676 -432 
Q 3507 -774 3194 -1037 
Q 2989 -1210 2717 -1338 
Q 2445 -1466 2160 -1539 
Q 1875 -1613 1606 -1613 
z
M 2650 704 
Q 2925 704 3219 800 
Q 3027 1331 2765 1498 
Q 2643 1574 2515 1574 
Q 2374 1574 2259 1500 
Q 2144 1427 2086 1318 
Q 2035 1203 2035 1094 
Q 2035 902 2195 803 
Q 2355 704 2650 704 
z
M 3060 2860 
Q 2925 2969 2816 3065 
Q 2708 3161 2618 3257 
Q 2855 3475 3047 3705 
Q 3104 3641 3206 3545 
Q 3309 3449 3450 3308 
Q 3277 3072 3060 2860 
z
M 2202 2764 
Q 1927 2988 1760 3168 
Q 1869 3276 1978 3388 
Q 2087 3500 2196 3609 
Q 2311 3475 2592 3212 
Q 2432 2982 2202 2764 
z
" transform="scale(0.015625)"/>
     </defs>
     <use xlink:href="#NotoNaskhArabic-Bold-fa"/>
     <use xlink:href="#NotoNaskhArabic-Bold-135" transform="translate(70 0)"/>
     <use xlink:href="#NotoNaskhArabic-Bold-d4" transform="translate(114.796875 0)"/>
     <use xlink:href="#NotoNaskhArabic-Bold-554" transform="translate(154.296875 0)"/>
     <use xlink:href="#NotoNaskhArabic-Bold-112" transform="translate(176.390625 0)"/>
     <use xlink:href="#NotoNaskhArabic-Bold-4" transform="translate(255.890625 0)"/>
     <use xlink:href="#NotoNaskhArabic-Bold-136" transform="translate(284.6875 0)"/>
     <use xlink:href="#NotoNaskhArabic-Bold-b6" transform="translate(336.390625 0)"/>
     <use xlink:href="#NotoNaskhArabic-Bold-554" transform="translate(384.890625 0)"/>
     <use xlink:href="#DejaVuSans-Bold-e" transform="translate(406.984375 0)"/>
     <use xlink:href="#NotoNaskhArabic-Bold-554" transform="translate(490.78125 0)"/>
     <use xlink:href="#NotoNaskhArabic-Bold-8c" transform="translate(512.875 0)"/>
     <use xlink:href="#NotoNaskhArabic-Bold-73" transform="translate(577.78125 0)"/>
     <use xlink:href="#NotoNaskhArabic-Bold-1e3" transform="translate(643.484375 0)"/>
     <use xlink:href="#NotoNaskhArabic-Bold-554" transform="translate(698.984375 0)"/>
     <use xlink:href="#NotoNaskhArabic-Bold-112" transform="translate(721.078125 0)"/>
     <use xlink:href="#NotoNaskhArabic-Bold-4" transform="translate(800.578125 0)"/>
     <use xlink:href="#NotoNaskhArabic-Bold-136" transform="translate(829.375 0)"/>
     <use xlink:href="#NotoNaskhArabic-Bold-b6" transform="translate(881.078125 0)"/>
     <use xlink:href="#NotoNaskhArabic-Bold-516" transform="translate(929.578125 0)"/>
     <use xlink:href="#NotoNaskhArabic-Bold-554" transform="translate(956.984375 0)"/>
     <use xlink:href="#NotoNaskhArabic-Bold-3" transform="translate(979.078125 0)"/>
     <use xlink:href="#NotoNaskhArabic-Bold-38" transform="translate(1007.484375 0)"/>
     <use xlink:href="#NotoNaskhArabic-Bold-73" transform="translate(1034.984375 0)"/>
     <use xlink:href="#NotoNaskhArabic-Bold-4" transform="translate(1100.6875 0)"/>
     <use xlink:href="#NotoNaskhArabic-Bold-1fd" transform="translate(1129.484375 0)"/>
     <use xlink:href="#NotoNaskhArabic-Bold-554" transform="translate(1171.984375 0)"/>
     <use xlink:href="#NotoNaskhArabic-Bold-16a" transform="translate(1194.078125 0)"/>
     <use xlink:href="#NotoNaskhArabic-Bold-219" transform="translate(1236.78125 0)"/>
     <use xlink:href="#NotoNaskhArabic-Bold-23e" transform="translate(1285.578125 0)"/>
     <use xlink:href="#NotoNaskhArabic-Bold-554" transform="translate(1349.171875 0)"/>
     <use xlink:href="#NotoNaskhArabic-Bold-218" transform="translate(1371.265625 0)"/>
     <use xlink:href="#NotoNaskhArabic-Bold-1e5" transform="translate(1420.96875 0)"/>
     <use xlink:href="#NotoNaskhArabic-Bold-219" transform="translate(1468.265625 0)"/>
     <use xlink:href="#NotoNaskhArabic-Bold-44" transform="translate(1517.0625 0)"/>
     <use xlink:href="#NotoNaskhArabic-Bold-219" transform="translate(1544.5625 0)"/>
     <use xlink:href="#NotoNaskhArabic-Bold-167" transform="translate(1593.359375 0)"/>
    </g>
   </g>
   <g id="patch_3">
    <path d="M 15.431104 125.895299 
L 21.67539 125.895299 
L 21.67539 122.434514 
L 15.431104 122.434514 
z
" clip-path="url(#paad6f2f1dd)" style="fill: #1f8a56; stroke: #1f8a56; stroke-linejoin: miter"/>
   </g>
   <g id="patch_4">
    <path d="M 26.784351 126.007097 
L 33.028636 126.007097 
L 33.028636 117.489175 
L 26.784351 117.489175 
z
" clip-path="url(#paad6f2f1dd)" style="fill: #1f8a56; stroke: #1f8a56; stroke-linejoin: miter"/>
   </g>
   <g id="patch_5">
    <path d="M 38.137597 118.429467 
L 44.381883 118.429467 
L 44.381883 112.543836 
L 38.137597 112.543836 
z
" clip-path="url(#paad6f2f1dd)" style="fill: #1f8a56; stroke: #1f8a56; stroke-linejoin: miter"/>
   </g>
   <g id="patch_6">
    <path d="M 49.490844 111.533152 
L 55.73513 111.533152 
L 55.73513 107.598497 
L 49.490844 107.598497 
z
" clip-path="url(#paad6f2f1dd)" style="fill: #1f8a56; stroke: #1f8a56; stroke-linejoin: miter"/>
   </g>
   <g id="patch_7">
    <path d="M 60.844091 107.55357 
L 67.088377 107.55357 
L 67.088377 102.653157 
L 60.844091 102.653157 
z
" clip-path="url(#paad6f2f1dd)" style="fill: #1f8a56; stroke: #1f8a56; stroke-linejoin: miter"/>
   </g>
   <g id="patch_8">
    <path d="M 72.197338 101.856747 
L 78.441623 101.856747 
L 78.441623 97.707818 
L 72.197338 97.707818 
z
" clip-path="url(#paad6f2f1dd)" style="fill: #1f8a56; stroke: #1f8a56; stroke-linejoin: miter"/>
   </g>
   <g id="patch_9">
    <path d="M 83.550584 99.370732 
L 89.79487 99.370732 
L 89.79487 92.762479 
L 83.550584 92.762479 
z
" clip-path="url(#paad6f2f1dd)" style="fill: #1f8a56; stroke: #1f8a56; stroke-linejoin: miter"/>
   </g>
   <g id="patch_10">
    <path d="M 94.903831 94.490384 
L 101.148117 94.490384 
L 101.148117 87.81714 
L 94.903831 87.81714 
z
" clip-path="url(#paad6f2f1dd)" style="fill: #1f8a56; stroke: #1f8a56; stroke-linejoin: miter"/>
   </g>
   <g id="patch_11">
    <path d="M 106.257078 89.428454 
L 112.501364 89.428454 
L 112.501364 82.871801 
L 106.257078 82.871801 
z
" clip-path="url(#paad6f2f1dd)" style="fill: #1f8a56; stroke: #1f8a56; stroke-linejoin: miter"/>
   </g>
   <g id="patch_12">
    <path d="M 117.610325 82.468654 
L 123.85461 82.468654 
L 123.85461 77.926461 
L 117.610325 77.926461 
z
" clip-path="url(#paad6f2f1dd)" style="fill: #1f8a56; stroke: #1f8a56; stroke-linejoin: miter"/>
   </g>
   <g id="patch_13">
    <path d="M 128.963571 79.125196 
L 135.207857 79.125196 
L 135.207857 72.981122 
L 128.963571 72.981122 
z
" clip-path="url(#paad6f2f1dd)" style="fill: #1f8a56; stroke: #1f8a56; stroke-linejoin: miter"/>
   </g>
   <g id="patch_14">
    <path d="M 140.316818 74.54999 
L 146.561104 74.54999 
L 146.561104 68.035783 
L 140.316818 68.035783 
z
" clip-path="url(#paad6f2f1dd)" style="fill: #1f8a56; stroke: #1f8a56; stroke-linejoin: miter"/>
   </g>
   <g id="patch_15">
    <path d="M 151.670065 67.657341 
L 157.914351 67.657341 
L 157.914351 63.090444 
L 151.670065 63.090444 
z
" clip-path="url(#paad6f2f1dd)" style="fill: #1f8a56; stroke: #1f8a56; stroke-linejoin: miter"/>
   </g>
   <g id="patch_16">
    <path d="M 163.023312 64.883322 
L 169.267597 64.883322 
L 169.267597 58.145104 
L 163.023312 58.145104 
z
" clip-path="url(#paad6f2f1dd)" style="fill: #1f8a56; stroke: #1f8a56; stroke-linejoin: miter"/>
   </g>
   <g id="patch_17">
    <path d="M 174.376558 59.628829 
L 180.620844 59.628829 
L 180.620844 53.199765 
L 174.376558 53.199765 
z
" clip-path="url(#paad6f2f1dd)" style="fill: #1f8a56; stroke: #1f8a56; stroke-linejoin: miter"/>
   </g>
   <g id="patch_18">
    <path d="M 185.729805 53.912994 
L 191.974091 53.912994 
L 191.974091 48.254426 
L 185.729805 48.254426 
z
" clip-path="url(#paad6f2f1dd)" style="fill: #1f8a56; stroke: #1f8a56; stroke-linejoin: miter"/>
   </g>
   <g id="patch_19">
    <path d="M 197.083052 49.682142 
L 203.327338 49.682142 
L 203.327338 43.309087 
L 197.083052 43.309087 
z
" clip-path="url(#paad6f2f1dd)" style="fill: #1f8a56; stroke: #1f8a56; stroke-linejoin: miter"/>
   </g>
   <g id="patch_20">
    <path d="M 208.436299 42.983328 
L 214.680584 42.983328 
L 214.680584 38.363747 
L 208.436299 38.363747 
z
" clip-path="url(#paad6f2f1dd)" style="fill: #1f8a56; stroke: #1f8a56; stroke-linejoin: miter"/>
   </g>
   <g id="patch_21">
    <path d="M 219.789545 37.351618 
L 226.033831 37.351618 
L 226.033831 33.418408 
L 219.789545 33.418408 
z
" clip-path="url(#paad6f2f1dd)" style="fill: #1f8a56; stroke: #1f8a56; stroke-linejoin: miter"/>
   </g>
   <g id="patch_22">
    <path d="M 231.142792 34.420171 
L 237.387078 34.420171 
L 237.387078 28.473069 
L 231.142792 28.473069 
z
" clip-path="url(#paad6f2f1dd)" style="fill: #1f8a56; stroke: #1f8a56; stroke-linejoin: miter"/>
   </g>
  </g>
  <g id="axes_2">
   <g id="patch_23">
    <path d="M 7.2 188.891831 
L 245.618182 188.891831 
L 245.618182 142.546483 
L 7.2 142.546483 
z
" style="fill: #ffffff"/>
   </g>
   <g id="patch_24">
    <path d="M 18.03719 188.891831 
L 25.738746 188.891831 
L 25.738746 174.179022 
L 18.03719 174.179022 
z
" clip-path="url(#p17d11d2bc8)" style="fill: #1f8a56"/>
   </g>
   <g id="patch_25">
    <path d="M 29.039414 188.891831 
L 36.74097 188.891831 
L 36.74097 172.630306 
L 29.039414 172.630306 
z
" clip-path="url(#p17d11d2bc8)" style="fill: #1f8a56"/>
   </g>
   <g id="patch_26">
    <path d="M 40.041637 188.891831 
L 47.743193 188.891831 
L 47.743193 171.081589 
L 40.041637 171.081589 
z
" clip-path="url(#p17d11d2bc8)" style="fill: #1f8a56"/>
   </g>
   <g id="patch_27">
    <path d="M 51.04386 188.891831 
L 58.745417 188.891831 
L 58.745417 169.532872 
L 51.04386 169.532872 
z
" clip-path="url(#p17d11d2bc8)" style="fill: #1f8a56"/>
   </g>
   <g id="patch_28">
    <path d="M 62.046084 188.891831 
L 69.74764 188.891831 
L 69.74764 167.984156 
L 62.046084 167.984156 
z
" clip-path="url(#p17d11d2bc8)" style="fill: #1f8a56"/>
   </g>
   <g id="patch_29">
    <path d="M 73.048307 188.891831 
L 80.749864 188.891831 
L 80.749864 166.435439 
L 73.048307 166.435439 
z
" clip-path="url(#p17d11d2bc8)" style="fill: #1f8a56"/>
   </g>
   <g id="patch_30">
    <path d="M 84.050531 188.891831 
L 91.752087 188.891831 
L 91.752087 164.886722 
L 84.050531 164.886722 
z
" clip-path="url(#p17d11d2bc8)" style="fill: #1f8a56"/>
   </g>
   <g id="patch_31">
    <path d="M 95.052754 188.891831 
L 102.754311 188.891831 
L 102.754311 163.338005 
L 95.052754 163.338005 
z
" clip-path="url(#p17d11d2bc8)" style="fill: #1f8a56"/>
   </g>
   <g id="patch_32">
    <path d="M 106.054978 188.891831 
L 113.756534 188.891831 
L 113.756534 161.789289 
L 106.054978 161.789289 
z
" clip-path="url(#p17d11d2bc8)" style="fill: #1f8a56"/>
   </g>
   <g id="patch_33">
    <path d="M 117.057201 188.891831 
L 124.758757 188.891831 
L 124.758757 160.240572 
L 117.057201 160.240572 
z
" clip-path="url(#p17d11d2bc8)" style="fill: #1f8a56"/>
   </g>
   <g id="patch_34">
    <path d="M 128.059424 188.891831 
L 135.760981 188.891831 
L 135.760981 158.691855 
L 128.059424 158.691855 
z
" clip-path="url(#p17d11d2bc8)" style="fill: #1f8a56"/>
   </g>
   <g id="patch_35">
    <path d="M 139.061648 188.891831 
L 146.763204 188.891831 
L 146.763204 157.143138 
L 139.061648 157.143138 
z
" clip-path="url(#p17d11d2bc8)" style="fill: #1f8a56"/>
   </g>
   <g id="patch_36">
    <path d="M 150.063871 188.891831 
L 157.765428 188.891831 
L 157.765428 155.594422 
L 150.063871 155.594422 
z
" clip-path="url(#p17d11d2bc8)" style="fill: #1f8a56"/>
   </g>
   <g id="patch_37">
    <path d="M 161.066095 188.891831 
L 168.767651 188.891831 
L 168.767651 154.045705 
L 161.066095 154.045705 
z
" clip-path="url(#p17d11d2bc8)" style="fill: #1f8a56"/>
   </g>
   <g id="patch_38">
    <path d="M 172.068318 188.891831 
L 179.769875 188.891831 
L 179.769875 152.496988 
L 172.068318 152.496988 
z
" clip-path="url(#p17d11d2bc8)" style="fill: #1f8a56"/>
   </g>
   <g id="patch_39">
    <path d="M 183.070542 188.891831 
L 190.772098 188.891831 
L 190.772098 150.948271 
L 183.070542 150.948271 
z
" clip-path="url(#p17d11d2bc8)" style="fill: #1f8a56"/>
   </g>
   <g id="patch_40">
    <path d="M 194.072765 188.891831 
L 201.774321 188.891831 
L 201.774321 149.399555 
L 194.072765 149.399555 
z
" clip-path="url(#p17d11d2bc8)" style="fill: #1f8a56"/>
   </g>
   <g id="patch_41">
    <path d="M 205.074988 188.891831 
L 212.776545 188.891831 
L 212.776545 147.850838 
L 205.074988 147.850838 
z
" clip-path="url(#p17d11d2bc8)" style="fill: #1f8a56"/>
   </g>
   <g id="patch_42">
    <path d="M 216.077212 188.891831 
L 223.778768 188.891831 
L 223.778768 146.302121 
L 216.077212 146.302121 
z
" clip-path="url(#p17d11d2bc8)" style="fill: #1f8a56"/>
   </g>
   <g id="patch_43">
    <path d="M 227.079435 188.891831 
L 234.780992 188.891831 
L 234.780992 144.753404 
L 227.079435 144.753404 
z
" clip-path="url(#p17d11d2bc8)" style="fill: #1f8a56"/>
   </g>
   <g id="matplotlib.axis_3"/>
   <g id="matplotlib.axis_4"/>
  </g>
  <g id="axes_3">
   <g id="patch_44">
    <path d="M 293.301818 130.960146 
L 531.72 130.960146 
L 531.72 22.821 
L 293.301818 22.821 
z
" style="fill: #ffffff"/>
   </g>
   <g id="matplotlib.axis_5"/>
   <g id="matplotlib.axis_6"/>
   <g id="line2d_21">
    <path d="M 304.655065 125.216803 
L 304.655065 124.3906 
" clip-path="url(#p8ca6a4c57c)" style="fill: none; stroke: #1f8a56; stroke-width: 1.1; stroke-linecap: round"/>
   </g>
   <g id="line2d_22">
    <path d="M 316.008312 126.04473 
L 316.008312 118.664073 
" clip-path="url(#p8ca6a4c57c)" style="fill: none; stroke: #1f8a56; stroke-width: 1.1; stroke-linecap: round"/>
   </g>
   <g id="line2d_23">
    <path d="M 327.361558 117.370678 
L 327.361558 114.065669 
" clip-path="url(#p8ca6a4c57c)" style="fill: none; stroke: #1f8a56; stroke-width: 1.1; stroke-linecap: round"/>
   </g>
   <g id="line2d_24">
    <path d="M 338.714805 112.957713 
L 338.714805 108.809294 
" clip-path="url(#p8ca6a4c57c)" style="fill: none; stroke: #1f8a56; stroke-width: 1.1; stroke-linecap: round"/>
   </g>
   <g id="line2d_25">
    <path d="M 350.068052 110.855775 
L 350.068052 103.49696 
" clip-path="url(#p8ca6a4c57c)" style="fill: none; stroke: #1f8a56; stroke-width: 1.1; stroke-linecap: round"/>
   </g>
   <g id="line2d_26">
    <path d="M 361.421299 103.715439 
L 361.421299 98.744773 
" clip-path="url(#p8ca6a4c57c)" style="fill: none; stroke: #1f8a56; stroke-width: 1.1; stroke-linecap: round"/>
   </g>
   <g id="line2d_27">
    <path d="M 372.774545 98.001016 
L 372.774545 93.048265 
" clip-path="url(#p8ca6a4c57c)" style="fill: none; stroke: #1f8a56; stroke-width: 1.1; stroke-linecap: round"/>
   </g>
   <g id="line2d_28">
    <path d="M 384.127792 96.901024 
L 384.127792 88.451548 
" clip-path="url(#p8ca6a4c57c)" style="fill: none; stroke: #1f8a56; stroke-width: 1.1; stroke-linecap: round"/>
   </g>
   <g id="line2d_29">
    <path d="M 395.481039 94.239241 
L 395.481039 83.534206 
" clip-path="url(#p8ca6a4c57c)" style="fill: none; stroke: #1f8a56; stroke-width: 1.1; stroke-linecap: round"/>
   </g>
   <g id="line2d_30">
    <path d="M 406.834286 84.764327 
L 406.834286 77.757431 
" clip-path="url(#p8ca6a4c57c)" style="fill: none; stroke: #1f8a56; stroke-width: 1.1; stroke-linecap: round"/>
   </g>
   <g id="line2d_31">
    <path d="M 418.187532 80.202505 
L 418.187532 73.330461 
" clip-path="url(#p8ca6a4c57c)" style="fill: none; stroke: #1f8a56; stroke-width: 1.1; stroke-linecap: round"/>
   </g>
   <g id="line2d_32">
    <path d="M 429.540779 74.629426 
L 429.540779 67.606143 
" clip-path="url(#p8ca6a4c57c)" style="fill: none; stroke: #1f8a56; stroke-width: 1.1; stroke-linecap: round"/>
   </g>
   <g id="line2d_33">
    <path d="M 440.894026 68.548937 
L 440.894026 63.187911 
" clip-path="url(#p8ca6a4c57c)" style="fill: none; stroke: #1f8a56; stroke-width: 1.1; stroke-linecap: round"/>
   </g>
   <g id="line2d_34">
    <path d="M 452.247273 61.422885 
L 452.247273 57.938529 
" clip-path="url(#p8ca6a4c57c)" style="fill: none; stroke: #1f8a56; stroke-width: 1.1; stroke-linecap: round"/>
   </g>
   <g id="line2d_35">
    <path d="M 463.600519 59.922767 
L 463.600519 52.330964 
" clip-path="url(#p8ca6a4c57c)" style="fill: none; stroke: #1f8a56; stroke-width: 1.1; stroke-linecap: round"/>
   </g>
   <g id="line2d_36">
    <path d="M 474.953766 55.648944 
L 474.953766 47.928555 
" clip-path="url(#p8ca6a4c57c)" style="fill: none; stroke: #1f8a56; stroke-width: 1.1; stroke-linecap: round"/>
   </g>
   <g id="line2d_37">
    <path d="M 486.307013 50.90502 
L 486.307013 42.359015 
" clip-path="url(#p8ca6a4c57c)" style="fill: none; stroke: #1f8a56; stroke-width: 1.1; stroke-linecap: round"/>
   </g>
   <g id="line2d_38">
    <path d="M 497.66026 43.868571 
L 497.66026 37.955011 
" clip-path="url(#p8ca6a4c57c)" style="fill: none; stroke: #1f8a56; stroke-width: 1.1; stroke-linecap: round"/>
   </g>
   <g id="line2d_39">
    <path d="M 509.013506 39.852189 
L 509.013506 32.343609 
" clip-path="url(#p8ca6a4c57c)" style="fill: none; stroke: #1f8a56; stroke-width: 1.1; stroke-linecap: round"/>
   </g>
   <g id="line2d_40">
    <path d="M 520.366753 31.922393 
L 520.366753 27.736416 
" clip-path="url(#p8ca6a4c57c)" style="fill: none; stroke: #1f8a56; stroke-width: 1.1; stroke-linecap: round"/>
   </g>
   <g id="text_2">
    <!-- ﻒﻴﻌﺿ ﻩﺎﺠﺗﺍ :ﻂﺑﺎﻫ ﻢﺠﺣ + ﺪﻋﺎﺻ ﺮﻌﺳ -->
    <g style="fill: #b7791f" transform="translate(348.563097 16.821) scale(0.09 -0.09)">
     <defs>
      <path id="NotoNaskhArabic-Bold-200" d="M 2650 -58 
Q 2221 -45 1821 51 
Q 1421 147 1120 307 
Q 659 58 0 58 
Q -51 58 -51 109 
L -51 774 
Q -51 813 0 813 
Q 122 819 240 819 
Q 358 819 480 826 
Q 282 1088 282 1382 
Q 282 1555 352 1753 
Q 422 1952 544 2128 
Q 666 2304 806 2400 
L 992 3066 
Q 1517 2938 1974 2589 
Q 2432 2240 2701 1754 
Q 2976 1280 2976 800 
Q 2976 653 2886 419 
Q 2797 186 2650 -58 
z
M 1171 979 
Q 1299 1043 1382 1196 
Q 1466 1350 1466 1536 
Q 1466 1690 1363 1808 
Q 1261 1926 1146 1926 
Q 915 1926 742 1658 
Q 710 1606 675 1536 
Q 640 1466 608 1389 
Q 730 1261 870 1158 
Q 1011 1056 1171 979 
z
M 2618 640 
Q 2509 928 2393 1152 
Q 2278 1376 2144 1549 
Q 2074 1651 1990 1734 
Q 1907 1818 1818 1888 
Q 1882 1722 1882 1517 
Q 1882 1101 1683 800 
Q 1850 755 2086 716 
Q 2323 678 2618 640 
z
" transform="scale(0.015625)"/>
      <path id="NotoNaskhArabic-Bold-26" d="M 0 58 
Q -51 58 -51 109 
L -51 762 
Q -51 813 0 813 
Q 320 813 640 867 
Q 960 922 1139 998 
Q 1075 1146 976 1328 
Q 877 1510 819 1613 
Q 755 1734 710 1833 
Q 666 1933 666 2016 
Q 666 2176 838 2361 
Q 1011 2547 1248 2669 
Q 1293 2470 1347 2217 
Q 1402 1965 1446 1702 
Q 1485 1504 1501 1376 
Q 1517 1248 1517 1184 
Q 1517 1037 1443 822 
Q 1370 608 1267 410 
Q 685 58 0 58 
z
M 916 -1427 
Q 743 -1286 621 -1171 
Q 500 -1056 416 -966 
Q 544 -838 666 -713 
Q 788 -589 903 -454 
Q 1069 -646 1364 -915 
Q 1293 -1017 1178 -1148 
Q 1063 -1280 916 -1427 
z
" transform="scale(0.015625)"/>
      <path id="NotoNaskhArabic-Bold-124" d="M 2573 0 
Q 2336 0 2038 13 
Q 1741 26 1488 48 
Q 1235 70 1120 102 
Q 1037 128 883 221 
Q 730 314 554 448 
Q 378 582 218 723 
L 314 998 
Q 922 851 1357 787 
Q 1421 870 1485 950 
Q 1549 1030 1613 1114 
Q 1549 1395 1494 1664 
Q 1440 1933 1389 2189 
Q 1312 2566 1245 2915 
Q 1178 3264 1114 3578 
Q 1107 3616 1104 3654 
Q 1101 3693 1101 3725 
Q 1101 3987 1289 4169 
Q 1478 4352 1754 4352 
Q 1811 4134 1875 3939 
Q 1939 3744 2010 3565 
L 1805 3411 
Q 1830 3123 1852 2835 
Q 1875 2547 1894 2253 
Q 1907 2074 1923 1891 
Q 1939 1709 1946 1523 
Q 2867 2560 3450 2560 
Q 3610 2560 3798 2470 
Q 3987 2381 4176 2233 
Q 4365 2086 4518 1901 
Q 4742 1632 4742 1446 
Q 4742 1210 4678 1037 
Q 5018 813 5434 813 
Q 5491 813 5491 762 
L 5491 109 
Q 5491 58 5434 58 
Q 5139 58 4848 189 
Q 4557 320 4333 557 
Q 4134 384 3846 259 
Q 3558 134 3228 67 
Q 2899 0 2573 0 
z
M 2637 704 
Q 3091 704 3494 809 
Q 3898 915 4378 1146 
Q 3802 1805 3290 1805 
Q 2733 1805 1811 736 
Q 2022 723 2230 713 
Q 2438 704 2637 704 
z
" transform="scale(0.015625)"/>
      <path id="NotoNaskhArabic-Bold-11e" d="M 2592 0 
Q 2163 0 1699 80 
Q 1235 160 851 339 
Q 826 314 797 285 
Q 768 256 730 230 
Q 595 147 400 102 
Q 205 58 0 58 
Q -51 58 -51 109 
L -51 762 
Q -51 813 0 813 
Q 243 813 380 841 
Q 518 870 614 969 
Q 710 1069 826 1274 
Q 851 1318 880 1363 
Q 909 1408 934 1466 
Q 1030 1638 1222 1638 
Q 1318 1638 1427 1574 
Q 1363 1414 1302 1260 
Q 1242 1107 1178 954 
Q 1248 928 1312 909 
Q 1376 890 1440 864 
Q 2099 1741 2605 2150 
Q 3091 2560 3469 2560 
Q 3629 2560 3824 2464 
Q 4019 2368 4211 2214 
Q 4403 2061 4544 1882 
Q 4762 1619 4762 1446 
Q 4762 582 3699 192 
Q 3174 0 2592 0 
z
M 2656 704 
Q 3117 704 3520 813 
Q 3923 922 4390 1146 
Q 3814 1805 3309 1805 
Q 3027 1805 2652 1536 
Q 2278 1267 1862 774 
Q 2067 742 2265 723 
Q 2464 704 2656 704 
z
M 2604 3001 
Q 2278 3270 2112 3462 
Q 2259 3609 2377 3734 
Q 2496 3859 2592 3974 
Q 2662 3897 2777 3782 
Q 2892 3667 3052 3513 
Q 2976 3405 2864 3277 
Q 2752 3149 2604 3001 
z
" transform="scale(0.015625)"/>
      <path id="NotoNaskhArabic-Bold-240" d="M 0 58 
Q -51 58 -51 109 
L -51 762 
Q -51 813 0 813 
Q 307 813 566 829 
Q 826 845 992 928 
Q 1120 992 1187 1104 
Q 1254 1216 1357 1421 
Q 1459 1632 1536 1680 
Q 1613 1728 1715 1728 
Q 1869 1728 1971 1638 
Q 1888 1427 1814 1264 
Q 1741 1101 1690 979 
Q 2003 813 2362 813 
Q 2413 813 2413 762 
L 2413 109 
Q 2413 58 2362 58 
Q 1875 58 1434 499 
L 1382 416 
Q 1203 179 883 118 
Q 563 58 0 58 
z
M 1651 -1235 
Q 1376 -1011 1209 -832 
Q 1414 -653 1638 -384 
Q 1657 -403 1756 -502 
Q 1856 -602 2035 -787 
Q 1971 -883 1875 -995 
Q 1779 -1107 1651 -1235 
z
M 793 -1331 
Q 633 -1203 527 -1100 
Q 422 -998 352 -922 
Q 460 -813 569 -701 
Q 678 -589 787 -480 
Q 864 -576 1184 -877 
Q 1030 -1107 793 -1331 
z
" transform="scale(0.015625)"/>
      <path id="NotoNaskhArabic-Bold-144" d="M 1965 0 
Q 1190 0 796 352 
Q 403 704 403 1363 
Q 403 1498 435 1674 
Q 467 1850 531 2067 
L 813 2067 
Q 794 1894 794 1747 
Q 794 1376 941 1171 
Q 1088 966 1389 864 
Q 1702 755 2195 755 
Q 2310 755 2416 758 
Q 2522 762 2685 771 
Q 2848 781 3123 800 
Q 3008 966 3008 1114 
Q 3008 1229 3024 1363 
Q 3040 1498 3069 1616 
Q 3098 1734 3123 1786 
Q 3238 2003 3414 2179 
Q 3590 2355 3795 2457 
Q 4000 2560 4192 2560 
Q 4371 2560 4544 2371 
Q 4717 2182 4826 1882 
Q 4941 1587 4941 1306 
Q 4941 1082 4749 819 
Q 4896 819 5046 819 
Q 5197 819 5338 813 
Q 5395 813 5395 762 
L 5395 109 
Q 5395 58 5338 58 
Q 4480 58 3936 282 
Q 3712 198 3389 137 
Q 3066 77 2701 38 
Q 2336 0 1965 0 
z
M 3949 794 
Q 4352 902 4576 1107 
Q 4531 1274 4454 1424 
Q 4378 1574 4294 1664 
Q 4205 1773 4128 1773 
Q 3789 1773 3354 1178 
Q 3475 1043 3635 944 
Q 3795 845 3949 794 
z
M 4038 3084 
Q 3712 3353 3546 3545 
Q 3693 3692 3811 3817 
Q 3930 3942 4026 4057 
Q 4096 3980 4211 3865 
Q 4326 3750 4486 3596 
Q 4410 3488 4298 3360 
Q 4186 3232 4038 3084 
z
" transform="scale(0.015625)"/>
     </defs>
     <use xlink:href="#NotoNaskhArabic-Bold-fa"/>
     <use xlink:href="#NotoNaskhArabic-Bold-135" transform="translate(70 0)"/>
     <use xlink:href="#NotoNaskhArabic-Bold-d4" transform="translate(114.796875 0)"/>
     <use xlink:href="#NotoNaskhArabic-Bold-554" transform="translate(154.296875 0)"/>
     <use xlink:href="#NotoNaskhArabic-Bold-112" transform="translate(176.390625 0)"/>
     <use xlink:href="#NotoNaskhArabic-Bold-4" transform="translate(255.890625 0)"/>
     <use xlink:href="#NotoNaskhArabic-Bold-136" transform="translate(284.6875 0)"/>
     <use xlink:href="#NotoNaskhArabic-Bold-b6" transform="translate(336.390625 0)"/>
     <use xlink:href="#NotoNaskhArabic-Bold-554" transform="translate(384.890625 0)"/>
     <use xlink:href="#DejaVuSans-Bold-e" transform="translate(406.984375 0)"/>
     <use xlink:href="#NotoNaskhArabic-Bold-554" transform="translate(490.78125 0)"/>
     <use xlink:href="#NotoNaskhArabic-Bold-8c" transform="translate(512.875 0)"/>
     <use xlink:href="#NotoNaskhArabic-Bold-73" transform="translate(577.78125 0)"/>
     <use xlink:href="#NotoNaskhArabic-Bold-1e3" transform="translate(643.484375 0)"/>
     <use xlink:href="#NotoNaskhArabic-Bold-554" transform="translate(698.984375 0)"/>
     <use xlink:href="#NotoNaskhArabic-Bold-200" transform="translate(721.078125 0)"/>
     <use xlink:href="#NotoNaskhArabic-Bold-4" transform="translate(772.671875 0)"/>
     <use xlink:href="#NotoNaskhArabic-Bold-26" transform="translate(801.46875 0)"/>
     <use xlink:href="#NotoNaskhArabic-Bold-124" transform="translate(828.96875 0)"/>
     <use xlink:href="#NotoNaskhArabic-Bold-516" transform="translate(913.0625 0)"/>
     <use xlink:href="#NotoNaskhArabic-Bold-554" transform="translate(940.46875 0)"/>
     <use xlink:href="#NotoNaskhArabic-Bold-3" transform="translate(962.5625 0)"/>
     <use xlink:href="#NotoNaskhArabic-Bold-38" transform="translate(990.96875 0)"/>
     <use xlink:href="#NotoNaskhArabic-Bold-73" transform="translate(1018.46875 0)"/>
     <use xlink:href="#NotoNaskhArabic-Bold-4" transform="translate(1084.171875 0)"/>
     <use xlink:href="#NotoNaskhArabic-Bold-1fd" transform="translate(1112.96875 0)"/>
     <use xlink:href="#NotoNaskhArabic-Bold-554" transform="translate(1155.46875 0)"/>
     <use xlink:href="#NotoNaskhArabic-Bold-11e" transform="translate(1177.5625 0)"/>
     <use xlink:href="#NotoNaskhArabic-Bold-135" transform="translate(1257.0625 0)"/>
     <use xlink:href="#NotoNaskhArabic-Bold-240" transform="translate(1301.859375 0)"/>
     <use xlink:href="#NotoNaskhArabic-Bold-144" transform="translate(1337.859375 0)"/>
    </g>
   </g>
   <g id="patch_45">
    <path d="M 301.532922 124.902319 
L 307.777208 124.902319 
L 307.777208 121.953069 
L 301.532922 121.953069 
z
" clip-path="url(#p8ca6a4c57c)" style="fill: #1f8a56; stroke: #1f8a56; stroke-linejoin: miter"/>
   </g>
   <g id="patch_46">
    <path d="M 312.886169 125.997249 
L 319.130455 125.997249 
L 319.130455 119.491688 
L 312.886169 119.491688 
z
" clip-path="url(#p8ca6a4c57c)" style="fill: #1f8a56; stroke: #1f8a56; stroke-linejoin: miter"/>
   </g>
   <g id="patch_47">
    <path d="M 324.239416 117.130361 
L 330.483701 117.130361 
L 330.483701 114.181111 
L 324.239416 114.181111 
z
" clip-path="url(#p8ca6a4c57c)" style="fill: #1f8a56; stroke: #1f8a56; stroke-linejoin: miter"/>
   </g>
   <g id="patch_48">
    <path d="M 335.592662 112.944069 
L 341.836948 112.944069 
L 341.836948 109.329788 
L 335.592662 109.329788 
z
" clip-path="url(#p8ca6a4c57c)" style="fill: #1f8a56; stroke: #1f8a56; stroke-linejoin: miter"/>
   </g>
   <g id="patch_49">
    <path d="M 346.945909 109.821871 
L 353.190195 109.821871 
L 353.190195 104.248839 
L 346.945909 104.248839 
z
" clip-path="url(#p8ca6a4c57c)" style="fill: #1f8a56; stroke: #1f8a56; stroke-linejoin: miter"/>
   </g>
   <g id="patch_50">
    <path d="M 358.299156 103.607765 
L 364.543442 103.607765 
L 364.543442 99.167889 
L 358.299156 99.167889 
z
" clip-path="url(#p8ca6a4c57c)" style="fill: #1f8a56; stroke: #1f8a56; stroke-linejoin: miter"/>
   </g>
   <g id="patch_51">
    <path d="M 369.652403 97.222085 
L 375.896688 97.222085 
L 375.896688 94.086939 
L 369.652403 94.086939 
z
" clip-path="url(#p8ca6a4c57c)" style="fill: #1f8a56; stroke: #1f8a56; stroke-linejoin: miter"/>
   </g>
   <g id="patch_52">
    <path d="M 381.005649 95.68326 
L 387.249935 95.68326 
L 387.249935 89.00599 
L 381.005649 89.00599 
z
" clip-path="url(#p8ca6a4c57c)" style="fill: #1f8a56; stroke: #1f8a56; stroke-linejoin: miter"/>
   </g>
   <g id="patch_53">
    <path d="M 392.358896 93.794592 
L 398.603182 93.794592 
L 398.603182 83.92504 
L 392.358896 83.92504 
z
" clip-path="url(#p8ca6a4c57c)" style="fill: #1f8a56; stroke: #1f8a56; stroke-linejoin: miter"/>
   </g>
   <g id="patch_54">
    <path d="M 403.712143 83.886299 
L 409.956429 83.886299 
L 409.956429 78.84409 
L 403.712143 78.84409 
z
" clip-path="url(#p8ca6a4c57c)" style="fill: #1f8a56; stroke: #1f8a56; stroke-linejoin: miter"/>
   </g>
   <g id="patch_55">
    <path d="M 415.06539 79.707931 
L 421.309675 79.707931 
L 421.309675 73.76314 
L 415.06539 73.76314 
z
" clip-path="url(#p8ca6a4c57c)" style="fill: #1f8a56; stroke: #1f8a56; stroke-linejoin: miter"/>
   </g>
   <g id="patch_56">
    <path d="M 426.418636 74.306061 
L 432.662922 74.306061 
L 432.662922 68.682191 
L 426.418636 68.682191 
z
" clip-path="url(#p8ca6a4c57c)" style="fill: #1f8a56; stroke: #1f8a56; stroke-linejoin: miter"/>
   </g>
   <g id="patch_57">
    <path d="M 437.771883 67.686798 
L 444.016169 67.686798 
L 444.016169 63.601241 
L 437.771883 63.601241 
z
" clip-path="url(#p8ca6a4c57c)" style="fill: #1f8a56; stroke: #1f8a56; stroke-linejoin: miter"/>
   </g>
   <g id="patch_58">
    <path d="M 449.12513 61.249512 
L 455.369416 61.249512 
L 455.369416 58.300262 
L 449.12513 58.300262 
z
" clip-path="url(#p8ca6a4c57c)" style="fill: #1f8a56; stroke: #1f8a56; stroke-linejoin: miter"/>
   </g>
   <g id="patch_59">
    <path d="M 460.478377 59.655201 
L 466.722662 59.655201 
L 466.722662 53.439342 
L 460.478377 53.439342 
z
" clip-path="url(#p8ca6a4c57c)" style="fill: #1f8a56; stroke: #1f8a56; stroke-linejoin: miter"/>
   </g>
   <g id="patch_60">
    <path d="M 471.831623 55.090443 
L 478.075909 55.090443 
L 478.075909 48.358392 
L 471.831623 48.358392 
z
" clip-path="url(#p8ca6a4c57c)" style="fill: #1f8a56; stroke: #1f8a56; stroke-linejoin: miter"/>
   </g>
   <g id="patch_61">
    <path d="M 483.18487 50.697599 
L 489.429156 50.697599 
L 489.429156 43.277442 
L 483.18487 43.277442 
z
" clip-path="url(#p8ca6a4c57c)" style="fill: #1f8a56; stroke: #1f8a56; stroke-linejoin: miter"/>
   </g>
   <g id="patch_62">
    <path d="M 494.538117 43.197399 
L 500.782403 43.197399 
L 500.782403 38.196492 
L 494.538117 38.196492 
z
" clip-path="url(#p8ca6a4c57c)" style="fill: #1f8a56; stroke: #1f8a56; stroke-linejoin: miter"/>
   </g>
   <g id="patch_63">
    <path d="M 505.891364 39.01251 
L 512.135649 39.01251 
L 512.135649 33.115543 
L 505.891364 33.115543 
z
" clip-path="url(#p8ca6a4c57c)" style="fill: #1f8a56; stroke: #1f8a56; stroke-linejoin: miter"/>
   </g>
   <g id="patch_64">
    <path d="M 517.24461 31.558594 
L 523.488896 31.558594 
L 523.488896 28.034593 
L 517.24461 28.034593 
z
" clip-path="url(#p8ca6a4c57c)" style="fill: #1f8a56; stroke: #1f8a56; stroke-linejoin: miter"/>
   </g>
  </g>
  <g id="axes_4">
   <g id="patch_65">
    <path d="M 293.301818 188.891831 
L 531.72 188.891831 
L 531.72 142.546483 
L 293.301818 142.546483 
z
" style="fill: #ffffff"/>
   </g>
   <g id="patch_66">
    <path d="M 304.139008 188.891831 
L 311.840565 188.891831 
L 311.840565 144.753404 
L 304.139008 144.753404 
z
" clip-path="url(#p778d921c1c)" style="fill: #b7791f"/>
   </g>
   <g id="patch_67">
    <path d="M 315.141232 188.891831 
L 322.842788 188.891831 
L 322.842788 146.302121 
L 315.141232 146.302121 
z
" clip-path="url(#p778d921c1c)" style="fill: #b7791f"/>
   </g>
   <g id="patch_68">
    <path d="M 326.143455 188.891831 
L 333.845012 188.891831 
L 333.845012 147.850838 
L 326.143455 147.850838 
z
" clip-path="url(#p778d921c1c)" style="fill: #b7791f"/>
   </g>
   <g id="patch_69">
    <path d="M 337.145679 188.891831 
L 344.847235 188.891831 
L 344.847235 149.399555 
L 337.145679 149.399555 
z
" clip-path="url(#p778d921c1c)" style="fill: #b7791f"/>
   </g>
   <g id="patch_70">
    <path d="M 348.147902 188.891831 
L 355.849458 188.891831 
L 355.849458 150.948271 
L 348.147902 150.948271 
z
" clip-path="url(#p778d921c1c)" style="fill: #b7791f"/>
   </g>
   <g id="patch_71">
    <path d="M 359.150125 188.891831 
L 366.851682 188.891831 
L 366.851682 152.496988 
L 359.150125 152.496988 
z
" clip-path="url(#p778d921c1c)" style="fill: #b7791f"/>
   </g>
   <g id="patch_72">
    <path d="M 370.152349 188.891831 
L 377.853905 188.891831 
L 377.853905 154.045705 
L 370.152349 154.045705 
z
" clip-path="url(#p778d921c1c)" style="fill: #b7791f"/>
   </g>
   <g id="patch_73">
    <path d="M 381.154572 188.891831 
L 388.856129 188.891831 
L 388.856129 155.594422 
L 381.154572 155.594422 
z
" clip-path="url(#p778d921c1c)" style="fill: #b7791f"/>
   </g>
   <g id="patch_74">
    <path d="M 392.156796 188.891831 
L 399.858352 188.891831 
L 399.858352 157.143138 
L 392.156796 157.143138 
z
" clip-path="url(#p778d921c1c)" style="fill: #b7791f"/>
   </g>
   <g id="patch_75">
    <path d="M 403.159019 188.891831 
L 410.860576 188.891831 
L 410.860576 158.691855 
L 403.159019 158.691855 
z
" clip-path="url(#p778d921c1c)" style="fill: #b7791f"/>
   </g>
   <g id="patch_76">
    <path d="M 414.161243 188.891831 
L 421.862799 188.891831 
L 421.862799 160.240572 
L 414.161243 160.240572 
z
" clip-path="url(#p778d921c1c)" style="fill: #b7791f"/>
   </g>
   <g id="patch_77">
    <path d="M 425.163466 188.891831 
L 432.865022 188.891831 
L 432.865022 161.789289 
L 425.163466 161.789289 
z
" clip-path="url(#p778d921c1c)" style="fill: #b7791f"/>
   </g>
   <g id="patch_78">
    <path d="M 436.165689 188.891831 
L 443.867246 188.891831 
L 443.867246 163.338005 
L 436.165689 163.338005 
z
" clip-path="url(#p778d921c1c)" style="fill: #b7791f"/>
   </g>
   <g id="patch_79">
    <path d="M 447.167913 188.891831 
L 454.869469 188.891831 
L 454.869469 164.886722 
L 447.167913 164.886722 
z
" clip-path="url(#p778d921c1c)" style="fill: #b7791f"/>
   </g>
   <g id="patch_80">
    <path d="M 458.170136 188.891831 
L 465.871693 188.891831 
L 465.871693 166.435439 
L 458.170136 166.435439 
z
" clip-path="url(#p778d921c1c)" style="fill: #b7791f"/>
   </g>
   <g id="patch_81">
    <path d="M 469.17236 188.891831 
L 476.873916 188.891831 
L 476.873916 167.984156 
L 469.17236 167.984156 
z
" clip-path="url(#p778d921c1c)" style="fill: #b7791f"/>
   </g>
   <g id="patch_82">
    <path d="M 480.174583 188.891831 
L 487.87614 188.891831 
L 487.87614 169.532872 
L 480.174583 169.532872 
z
" clip-path="url(#p778d921c1c)" style="fill: #b7791f"/>
   </g>
   <g id="patch_83">
    <path d="M 491.176807 188.891831 
L 498.878363 188.891831 
L 498.878363 171.081589 
L 491.176807 171.081589 
z
" clip-path="url(#p778d921c1c)" style="fill: #b7791f"/>
   </g>
   <g id="patch_84">
    <path d="M 502.17903 188.891831 
L 509.880586 188.891831 
L 509.880586 172.630306 
L 502.17903 172.630306 
z
" clip-path="url(#p778d921c1c)" style="fill: #b7791f"/>
   </g>
   <g id="patch_85">
    <path d="M 513.181254 188.891831 
L 520.88281 188.891831 
L 520.88281 174.179022 
L 513.181254 174.179022 
z
" clip-path="url(#p778d921c1c)" style="fill: #b7791f"/>
   </g>
   <g id="matplotlib.axis_7"/>
   <g id="matplotlib.axis_8"/>
  </g>
  <g id="axes_5">
   <g id="patch_86">
    <path d="M 7.2 308.617315 
L 245.618182 308.617315 
L 245.618182 200.478169 
L 7.2 200.478169 
z
" style="fill: #ffffff"/>
   </g>
   <g id="matplotlib.axis_9"/>
   <g id="matplotlib.axis_10"/>
   <g id="line2d_41">
    <path d="M 18.553247 209.2974 
L 18.553247 207.663976 
" clip-path="url(#p99f45b672c)" style="fill: none; stroke: #b91c1c; stroke-width: 1.1; stroke-linecap: round"/>
   </g>
   <g id="line2d_42">
    <path d="M 29.906494 214.081441 
L 29.906494 205.393584 
" clip-path="url(#p99f45b672c)" style="fill: none; stroke: #b91c1c; stroke-width: 1.1; stroke-linecap: round"/>
   </g>
   <g id="line2d_43">
    <path d="M 41.25974 220.426724 
L 41.25974 214.45739 
" clip-path="url(#p99f45b672c)" style="fill: none; stroke: #b91c1c; stroke-width: 1.1; stroke-linecap: round"/>
   </g>
   <g id="line2d_44">
    <path d="M 52.612987 224.790506 
L 52.612987 221.677634 
" clip-path="url(#p99f45b672c)" style="fill: none; stroke: #b91c1c; stroke-width: 1.1; stroke-linecap: round"/>
   </g>
   <g id="line2d_45">
    <path d="M 63.966234 229.333848 
L 63.966234 221.575265 
" clip-path="url(#p99f45b672c)" style="fill: none; stroke: #b91c1c; stroke-width: 1.1; stroke-linecap: round"/>
   </g>
   <g id="line2d_46">
    <path d="M 75.319481 233.962472 
L 75.319481 229.421406 
" clip-path="url(#p99f45b672c)" style="fill: none; stroke: #b91c1c; stroke-width: 1.1; stroke-linecap: round"/>
   </g>
   <g id="line2d_47">
    <path d="M 86.672727 238.887181 
L 86.672727 234.959845 
" clip-path="url(#p99f45b672c)" style="fill: none; stroke: #b91c1c; stroke-width: 1.1; stroke-linecap: round"/>
   </g>
   <g id="line2d_48">
    <path d="M 98.025974 244.872571 
L 98.025974 237.805145 
" clip-path="url(#p99f45b672c)" style="fill: none; stroke: #b91c1c; stroke-width: 1.1; stroke-linecap: round"/>
   </g>
   <g id="line2d_49">
    <path d="M 109.379221 249.228893 
L 109.379221 243.705649 
" clip-path="url(#p99f45b672c)" style="fill: none; stroke: #b91c1c; stroke-width: 1.1; stroke-linecap: round"/>
   </g>
   <g id="line2d_50">
    <path d="M 120.732468 253.903412 
L 120.732468 249.839844 
" clip-path="url(#p99f45b672c)" style="fill: none; stroke: #b91c1c; stroke-width: 1.1; stroke-linecap: round"/>
   </g>
   <g id="line2d_51">
    <path d="M 132.085714 259.328688 
L 132.085714 253.737633 
" clip-path="url(#p99f45b672c)" style="fill: none; stroke: #b91c1c; stroke-width: 1.1; stroke-linecap: round"/>
   </g>
   <g id="line2d_52">
    <path d="M 143.438961 264.712321 
L 143.438961 257.17741 
" clip-path="url(#p99f45b672c)" style="fill: none; stroke: #b91c1c; stroke-width: 1.1; stroke-linecap: round"/>
   </g>
   <g id="line2d_53">
    <path d="M 154.792208 268.834784 
L 154.792208 263.798657 
" clip-path="url(#p99f45b672c)" style="fill: none; stroke: #b91c1c; stroke-width: 1.1; stroke-linecap: round"/>
   </g>
   <g id="line2d_54">
    <path d="M 166.145455 273.534551 
L 166.145455 269.659208 
" clip-path="url(#p99f45b672c)" style="fill: none; stroke: #b91c1c; stroke-width: 1.1; stroke-linecap: round"/>
   </g>
   <g id="line2d_55">
    <path d="M 177.498701 278.837066 
L 177.498701 271.847346 
" clip-path="url(#p99f45b672c)" style="fill: none; stroke: #b91c1c; stroke-width: 1.1; stroke-linecap: round"/>
   </g>
   <g id="line2d_56">
    <path d="M 188.851948 283.513066 
L 188.851948 276.844364 
" clip-path="url(#p99f45b672c)" style="fill: none; stroke: #b91c1c; stroke-width: 1.1; stroke-linecap: round"/>
   </g>
   <g id="line2d_57">
    <path d="M 200.205195 289.050225 
L 200.205195 283.0315 
" clip-path="url(#p99f45b672c)" style="fill: none; stroke: #b91c1c; stroke-width: 1.1; stroke-linecap: round"/>
   </g>
   <g id="line2d_58">
    <path d="M 211.558442 293.283536 
L 211.558442 291.788319 
" clip-path="url(#p99f45b672c)" style="fill: none; stroke: #b91c1c; stroke-width: 1.1; stroke-linecap: round"/>
   </g>
   <g id="line2d_59">
    <path d="M 222.911688 298.305943 
L 222.911688 292.753127 
" clip-path="url(#p99f45b672c)" style="fill: none; stroke: #b91c1c; stroke-width: 1.1; stroke-linecap: round"/>
   </g>
   <g id="line2d_60">
    <path d="M 234.264935 303.701899 
L 234.264935 298.229281 
" clip-path="url(#p99f45b672c)" style="fill: none; stroke: #b91c1c; stroke-width: 1.1; stroke-linecap: round"/>
   </g>
   <g id="text_3">
    <!-- ﻱﻮﻗ ﻂﺑﺎﻫ ﻩﺎﺠﺗﺍ :ﺪﻋﺎﺻ ﻢﺠﺣ + ﻂﺑﺎﻫ ﺮﻌﺳ -->
    <g style="fill: #b91c1c" transform="translate(56.806044 194.478169) scale(0.09 -0.09)">
     <use xlink:href="#NotoNaskhArabic-Bold-fa"/>
     <use xlink:href="#NotoNaskhArabic-Bold-135" transform="translate(70 0)"/>
     <use xlink:href="#NotoNaskhArabic-Bold-d4" transform="translate(114.796875 0)"/>
     <use xlink:href="#NotoNaskhArabic-Bold-554" transform="translate(154.296875 0)"/>
     <use xlink:href="#NotoNaskhArabic-Bold-200" transform="translate(176.390625 0)"/>
     <use xlink:href="#NotoNaskhArabic-Bold-4" transform="translate(227.984375 0)"/>
     <use xlink:href="#NotoNaskhArabic-Bold-26" transform="translate(256.78125 0)"/>
     <use xlink:href="#NotoNaskhArabic-Bold-124" transform="translate(284.28125 0)"/>
     <use xlink:href="#NotoNaskhArabic-Bold-554" transform="translate(368.375 0)"/>
     <use xlink:href="#DejaVuSans-Bold-e" transform="translate(390.46875 0)"/>
     <use xlink:href="#NotoNaskhArabic-Bold-554" transform="translate(474.265625 0)"/>
     <use xlink:href="#NotoNaskhArabic-Bold-8c" transform="translate(496.359375 0)"/>
     <use xlink:href="#NotoNaskhArabic-Bold-73" transform="translate(561.265625 0)"/>
     <use xlink:href="#NotoNaskhArabic-Bold-1e3" transform="translate(626.96875 0)"/>
     <use xlink:href="#NotoNaskhArabic-Bold-554" transform="translate(682.46875 0)"/>
     <use xlink:href="#NotoNaskhArabic-Bold-112" transform="translate(704.5625 0)"/>
     <use xlink:href="#NotoNaskhArabic-Bold-4" transform="translate(784.0625 0)"/>
     <use xlink:href="#NotoNaskhArabic-Bold-136" transform="translate(812.859375 0)"/>
     <use xlink:href="#NotoNaskhArabic-Bold-b6" transform="translate(864.5625 0)"/>
     <use xlink:href="#NotoNaskhArabic-Bold-516" transform="translate(913.0625 0)"/>
     <use xlink:href="#NotoNaskhArabic-Bold-554" transform="translate(940.46875 0)"/>
     <use xlink:href="#NotoNaskhArabic-Bold-3" transform="translate(962.5625 0)"/>
     <use xlink:href="#NotoNaskhArabic-Bold-38" transform="translate(990.96875 0)"/>
     <use xlink:href="#NotoNaskhArabic-Bold-73" transform="translate(1018.46875 0)"/>
     <use xlink:href="#NotoNaskhArabic-Bold-4" transform="translate(1084.171875 0)"/>
     <use xlink:href="#NotoNaskhArabic-Bold-1fd" transform="translate(1112.96875 0)"/>
     <use xlink:href="#NotoNaskhArabic-Bold-554" transform="translate(1155.46875 0)"/>
     <use xlink:href="#NotoNaskhArabic-Bold-200" transform="translate(1177.5625 0)"/>
     <use xlink:href="#NotoNaskhArabic-Bold-4" transform="translate(1229.15625 0)"/>
     <use xlink:href="#NotoNaskhArabic-Bold-26" transform="translate(1257.953125 0)"/>
     <use xlink:href="#NotoNaskhArabic-Bold-124" transform="translate(1285.453125 0)"/>
     <use xlink:href="#NotoNaskhArabic-Bold-554" transform="translate(1369.546875 0)"/>
     <use xlink:href="#NotoNaskhArabic-Bold-16a" transform="translate(1391.640625 0)"/>
     <use xlink:href="#NotoNaskhArabic-Bold-219" transform="translate(1434.34375 0)"/>
     <use xlink:href="#NotoNaskhArabic-Bold-23e" transform="translate(1483.140625 0)"/>
    </g>
   </g>
   <g id="patch_87">
    <path d="M 15.431104 209.118727 
L 21.67539 209.118727 
L 21.67539 206.169478 
L 15.431104 206.169478 
z
" clip-path="url(#p99f45b672c)" style="fill: #b91c1c; stroke: #b91c1c; stroke-linejoin: miter"/>
   </g>
   <g id="patch_88">
    <path d="M 26.784351 214.063161 
L 33.028636 214.063161 
L 33.028636 205.89979 
L 26.784351 205.89979 
z
" clip-path="url(#p99f45b672c)" style="fill: #b91c1c; stroke: #b91c1c; stroke-linejoin: miter"/>
   </g>
   <g id="patch_89">
    <path d="M 38.137597 219.007595 
L 44.381883 219.007595 
L 44.381883 214.963355 
L 38.137597 214.963355 
z
" clip-path="url(#p99f45b672c)" style="fill: #b91c1c; stroke: #b91c1c; stroke-linejoin: miter"/>
   </g>
   <g id="patch_90">
    <path d="M 49.490844 223.952029 
L 55.73513 223.952029 
L 55.73513 221.002779 
L 49.490844 221.002779 
z
" clip-path="url(#p99f45b672c)" style="fill: #b91c1c; stroke: #b91c1c; stroke-linejoin: miter"/>
   </g>
   <g id="patch_91">
    <path d="M 60.844091 228.896462 
L 67.088377 228.896462 
L 67.088377 222.356835 
L 60.844091 222.356835 
z
" clip-path="url(#p99f45b672c)" style="fill: #b91c1c; stroke: #b91c1c; stroke-linejoin: miter"/>
   </g>
   <g id="patch_92">
    <path d="M 72.197338 233.840896 
L 78.441623 233.840896 
L 78.441623 229.533315 
L 72.197338 229.533315 
z
" clip-path="url(#p99f45b672c)" style="fill: #b91c1c; stroke: #b91c1c; stroke-linejoin: miter"/>
   </g>
   <g id="patch_93">
    <path d="M 83.550584 238.78533 
L 89.79487 238.78533 
L 89.79487 235.724755 
L 83.550584 235.724755 
z
" clip-path="url(#p99f45b672c)" style="fill: #b91c1c; stroke: #b91c1c; stroke-linejoin: miter"/>
   </g>
   <g id="patch_94">
    <path d="M 94.903831 243.729763 
L 101.148117 243.729763 
L 101.148117 238.166851 
L 94.903831 238.166851 
z
" clip-path="url(#p99f45b672c)" style="fill: #b91c1c; stroke: #b91c1c; stroke-linejoin: miter"/>
   </g>
   <g id="patch_95">
    <path d="M 106.257078 248.674197 
L 112.501364 248.674197 
L 112.501364 243.867974 
L 106.257078 243.867974 
z
" clip-path="url(#p99f45b672c)" style="fill: #b91c1c; stroke: #b91c1c; stroke-linejoin: miter"/>
   </g>
   <g id="patch_96">
    <path d="M 117.610325 253.618631 
L 123.85461 253.618631 
L 123.85461 250.337202 
L 117.610325 250.337202 
z
" clip-path="url(#p99f45b672c)" style="fill: #b91c1c; stroke: #b91c1c; stroke-linejoin: miter"/>
   </g>
   <g id="patch_97">
    <path d="M 128.963571 258.563065 
L 135.207857 258.563065 
L 135.207857 254.267337 
L 128.963571 254.267337 
z
" clip-path="url(#p99f45b672c)" style="fill: #b91c1c; stroke: #b91c1c; stroke-linejoin: miter"/>
   </g>
   <g id="patch_98">
    <path d="M 140.316818 263.507498 
L 146.561104 263.507498 
L 146.561104 257.846066 
L 140.316818 257.846066 
z
" clip-path="url(#p99f45b672c)" style="fill: #b91c1c; stroke: #b91c1c; stroke-linejoin: miter"/>
   </g>
   <g id="patch_99">
    <path d="M 151.670065 268.451932 
L 157.914351 268.451932 
L 157.914351 263.964265 
L 151.670065 263.964265 
z
" clip-path="url(#p99f45b672c)" style="fill: #b91c1c; stroke: #b91c1c; stroke-linejoin: miter"/>
   </g>
   <g id="patch_100">
    <path d="M 163.023312 273.396366 
L 169.267597 273.396366 
L 169.267597 270.080978 
L 163.023312 270.080978 
z
" clip-path="url(#p99f45b672c)" style="fill: #b91c1c; stroke: #b91c1c; stroke-linejoin: miter"/>
   </g>
   <g id="patch_101">
    <path d="M 174.376558 278.340799 
L 180.620844 278.340799 
L 180.620844 272.432013 
L 174.376558 272.432013 
z
" clip-path="url(#p99f45b672c)" style="fill: #b91c1c; stroke: #b91c1c; stroke-linejoin: miter"/>
   </g>
   <g id="patch_102">
    <path d="M 185.729805 283.285233 
L 191.974091 283.285233 
L 191.974091 277.382373 
L 185.729805 277.382373 
z
" clip-path="url(#p99f45b672c)" style="fill: #b91c1c; stroke: #b91c1c; stroke-linejoin: miter"/>
   </g>
   <g id="patch_103">
    <path d="M 197.083052 288.229667 
L 203.327338 288.229667 
L 203.327338 283.18225 
L 197.083052 283.18225 
z
" clip-path="url(#p99f45b672c)" style="fill: #b91c1c; stroke: #b91c1c; stroke-linejoin: miter"/>
   </g>
   <g id="patch_104">
    <path d="M 208.436299 293.174101 
L 214.680584 293.174101 
L 214.680584 290.224851 
L 208.436299 290.224851 
z
" clip-path="url(#p99f45b672c)" style="fill: #b91c1c; stroke: #b91c1c; stroke-linejoin: miter"/>
   </g>
   <g id="patch_105">
    <path d="M 219.789545 298.118534 
L 226.033831 298.118534 
L 226.033831 292.807889 
L 219.789545 292.807889 
z
" clip-path="url(#p99f45b672c)" style="fill: #b91c1c; stroke: #b91c1c; stroke-linejoin: miter"/>
   </g>
   <g id="patch_106">
    <path d="M 231.142792 303.062968 
L 237.387078 303.062968 
L 237.387078 298.451469 
L 231.142792 298.451469 
z
" clip-path="url(#p99f45b672c)" style="fill: #b91c1c; stroke: #b91c1c; stroke-linejoin: miter"/>
   </g>
  </g>
  <g id="axes_6">
   <g id="patch_107">
    <path d="M 7.2 366.549 
L 245.618182 366.549 
L 245.618182 320.203652 
L 7.2 320.203652 
z
" style="fill: #ffffff"/>
   </g>
   <g id="patch_108">
    <path d="M 18.03719 366.549 
L 25.738746 366.549 
L 25.738746 351.836191 
L 18.03719 351.836191 
z
" clip-path="url(#pa4f692a08e)" style="fill: #b91c1c"/>
   </g>
   <g id="patch_109">
    <path d="M 29.039414 366.549 
L 36.74097 366.549 
L 36.74097 350.287474 
L 29.039414 350.287474 
z
" clip-path="url(#pa4f692a08e)" style="fill: #b91c1c"/>
   </g>
   <g id="patch_110">
    <path d="M 40.041637 366.549 
L 47.743193 366.549 
L 47.743193 348.738758 
L 40.041637 348.738758 
z
" clip-path="url(#pa4f692a08e)" style="fill: #b91c1c"/>
   </g>
   <g id="patch_111">
    <path d="M 51.04386 366.549 
L 58.745417 366.549 
L 58.745417 347.190041 
L 51.04386 347.190041 
z
" clip-path="url(#pa4f692a08e)" style="fill: #b91c1c"/>
   </g>
   <g id="patch_112">
    <path d="M 62.046084 366.549 
L 69.74764 366.549 
L 69.74764 345.641324 
L 62.046084 345.641324 
z
" clip-path="url(#pa4f692a08e)" style="fill: #b91c1c"/>
   </g>
   <g id="patch_113">
    <path d="M 73.048307 366.549 
L 80.749864 366.549 
L 80.749864 344.092607 
L 73.048307 344.092607 
z
" clip-path="url(#pa4f692a08e)" style="fill: #b91c1c"/>
   </g>
   <g id="patch_114">
    <path d="M 84.050531 366.549 
L 91.752087 366.549 
L 91.752087 342.543891 
L 84.050531 342.543891 
z
" clip-path="url(#pa4f692a08e)" style="fill: #b91c1c"/>
   </g>
   <g id="patch_115">
    <path d="M 95.052754 366.549 
L 102.754311 366.549 
L 102.754311 340.995174 
L 95.052754 340.995174 
z
" clip-path="url(#pa4f692a08e)" style="fill: #b91c1c"/>
   </g>
   <g id="patch_116">
    <path d="M 106.054978 366.549 
L 113.756534 366.549 
L 113.756534 339.446457 
L 106.054978 339.446457 
z
" clip-path="url(#pa4f692a08e)" style="fill: #b91c1c"/>
   </g>
   <g id="patch_117">
    <path d="M 117.057201 366.549 
L 124.758757 366.549 
L 124.758757 337.89774 
L 117.057201 337.89774 
z
" clip-path="url(#pa4f692a08e)" style="fill: #b91c1c"/>
   </g>
   <g id="patch_118">
    <path d="M 128.059424 366.549 
L 135.760981 366.549 
L 135.760981 336.349024 
L 128.059424 336.349024 
z
" clip-path="url(#pa4f692a08e)" style="fill: #b91c1c"/>
   </g>
   <g id="patch_119">
    <path d="M 139.061648 366.549 
L 146.763204 366.549 
L 146.763204 334.800307 
L 139.061648 334.800307 
z
" clip-path="url(#pa4f692a08e)" style="fill: #b91c1c"/>
   </g>
   <g id="patch_120">
    <path d="M 150.063871 366.549 
L 157.765428 366.549 
L 157.765428 333.25159 
L 150.063871 333.25159 
z
" clip-path="url(#pa4f692a08e)" style="fill: #b91c1c"/>
   </g>
   <g id="patch_121">
    <path d="M 161.066095 366.549 
L 168.767651 366.549 
L 168.767651 331.702873 
L 161.066095 331.702873 
z
" clip-path="url(#pa4f692a08e)" style="fill: #b91c1c"/>
   </g>
   <g id="patch_122">
    <path d="M 172.068318 366.549 
L 179.769875 366.549 
L 179.769875 330.154157 
L 172.068318 330.154157 
z
" clip-path="url(#pa4f692a08e)" style="fill: #b91c1c"/>
   </g>
   <g id="patch_123">
    <path d="M 183.070542 366.549 
L 190.772098 366.549 
L 190.772098 328.60544 
L 183.070542 328.60544 
z
" clip-path="url(#pa4f692a08e)" style="fill: #b91c1c"/>
   </g>
   <g id="patch_124">
    <path d="M 194.072765 366.549 
L 201.774321 366.549 
L 201.774321 327.056723 
L 194.072765 327.056723 
z
" clip-path="url(#pa4f692a08e)" style="fill: #b91c1c"/>
   </g>
   <g id="patch_125">
    <path d="M 205.074988 366.549 
L 212.776545 366.549 
L 212.776545 325.508007 
L 205.074988 325.508007 
z
" clip-path="url(#pa4f692a08e)" style="fill: #b91c1c"/>
   </g>
   <g id="patch_126">
    <path d="M 216.077212 366.549 
L 223.778768 366.549 
L 223.778768 323.95929 
L 216.077212 323.95929 
z
" clip-path="url(#pa4f692a08e)" style="fill: #b91c1c"/>
   </g>
   <g id="patch_127">
    <path d="M 227.079435 366.549 
L 234.780992 366.549 
L 234.780992 322.410573 
L 227.079435 322.410573 
z
" clip-path="url(#pa4f692a08e)" style="fill: #b91c1c"/>
   </g>
   <g id="matplotlib.axis_11"/>
   <g id="matplotlib.axis_12"/>
  </g>
  <g id="axes_7">
   <g id="patch_128">
    <path d="M 293.301818 308.617315 
L 531.72 308.617315 
L 531.72 200.478169 
L 293.301818 200.478169 
z
" style="fill: #ffffff"/>
   </g>
   <g id="matplotlib.axis_13"/>
   <g id="matplotlib.axis_14"/>
   <g id="line2d_61">
    <path d="M 304.655065 208.87481 
L 304.655065 207.441572 
" clip-path="url(#pa32fed17de)" style="fill: none; stroke: #b91c1c; stroke-width: 1.1; stroke-linecap: round"/>
   </g>
   <g id="line2d_62">
    <path d="M 316.008312 213.805733 
L 316.008312 208.094334 
" clip-path="url(#pa32fed17de)" style="fill: none; stroke: #b91c1c; stroke-width: 1.1; stroke-linecap: round"/>
   </g>
   <g id="line2d_63">
    <path d="M 327.361558 218.664939 
L 327.361558 210.256639 
" clip-path="url(#pa32fed17de)" style="fill: none; stroke: #b91c1c; stroke-width: 1.1; stroke-linecap: round"/>
   </g>
   <g id="line2d_64">
    <path d="M 338.714805 223.382393 
L 338.714805 221.271823 
" clip-path="url(#pa32fed17de)" style="fill: none; stroke: #b91c1c; stroke-width: 1.1; stroke-linecap: round"/>
   </g>
   <g id="line2d_65">
    <path d="M 350.068052 228.626767 
L 350.068052 223.008826 
" clip-path="url(#pa32fed17de)" style="fill: none; stroke: #b91c1c; stroke-width: 1.1; stroke-linecap: round"/>
   </g>
   <g id="line2d_66">
    <path d="M 361.421299 234.371421 
L 361.421299 225.999231 
" clip-path="url(#pa32fed17de)" style="fill: none; stroke: #b91c1c; stroke-width: 1.1; stroke-linecap: round"/>
   </g>
   <g id="line2d_67">
    <path d="M 372.774545 238.648001 
L 372.774545 233.331719 
" clip-path="url(#pa32fed17de)" style="fill: none; stroke: #b91c1c; stroke-width: 1.1; stroke-linecap: round"/>
   </g>
   <g id="line2d_68">
    <path d="M 384.127792 243.417301 
L 384.127792 237.269093 
" clip-path="url(#pa32fed17de)" style="fill: none; stroke: #b91c1c; stroke-width: 1.1; stroke-linecap: round"/>
   </g>
   <g id="line2d_69">
    <path d="M 395.481039 248.564335 
L 395.481039 243.734558 
" clip-path="url(#pa32fed17de)" style="fill: none; stroke: #b91c1c; stroke-width: 1.1; stroke-linecap: round"/>
   </g>
   <g id="line2d_70">
    <path d="M 406.834286 253.434739 
L 406.834286 247.968514 
" clip-path="url(#pa32fed17de)" style="fill: none; stroke: #b91c1c; stroke-width: 1.1; stroke-linecap: round"/>
   </g>
   <g id="line2d_71">
    <path d="M 418.187532 258.905807 
L 418.187532 249.753241 
" clip-path="url(#pa32fed17de)" style="fill: none; stroke: #b91c1c; stroke-width: 1.1; stroke-linecap: round"/>
   </g>
   <g id="line2d_72">
    <path d="M 429.540779 263.989776 
L 429.540779 257.45267 
" clip-path="url(#pa32fed17de)" style="fill: none; stroke: #b91c1c; stroke-width: 1.1; stroke-linecap: round"/>
   </g>
   <g id="line2d_73">
    <path d="M 440.894026 268.841945 
L 440.894026 265.263264 
" clip-path="url(#pa32fed17de)" style="fill: none; stroke: #b91c1c; stroke-width: 1.1; stroke-linecap: round"/>
   </g>
   <g id="line2d_74">
    <path d="M 452.247273 274.716062 
L 452.247273 270.879035 
" clip-path="url(#pa32fed17de)" style="fill: none; stroke: #b91c1c; stroke-width: 1.1; stroke-linecap: round"/>
   </g>
   <g id="line2d_75">
    <path d="M 463.600519 278.905148 
L 463.600519 270.9029 
" clip-path="url(#pa32fed17de)" style="fill: none; stroke: #b91c1c; stroke-width: 1.1; stroke-linecap: round"/>
   </g>
   <g id="line2d_76">
    <path d="M 474.953766 283.921128 
L 474.953766 278.103399 
" clip-path="url(#pa32fed17de)" style="fill: none; stroke: #b91c1c; stroke-width: 1.1; stroke-linecap: round"/>
   </g>
   <g id="line2d_77">
    <path d="M 486.307013 288.624835 
L 486.307013 283.574465 
" clip-path="url(#pa32fed17de)" style="fill: none; stroke: #b91c1c; stroke-width: 1.1; stroke-linecap: round"/>
   </g>
   <g id="line2d_78">
    <path d="M 497.66026 293.778432 
L 497.66026 289.241077 
" clip-path="url(#pa32fed17de)" style="fill: none; stroke: #b91c1c; stroke-width: 1.1; stroke-linecap: round"/>
   </g>
   <g id="line2d_79">
    <path d="M 509.013506 299.172862 
L 509.013506 293.029229 
" clip-path="url(#pa32fed17de)" style="fill: none; stroke: #b91c1c; stroke-width: 1.1; stroke-linecap: round"/>
   </g>
   <g id="line2d_80">
    <path d="M 520.366753 303.701899 
L 520.366753 297.195158 
" clip-path="url(#pa32fed17de)" style="fill: none; stroke: #b91c1c; stroke-width: 1.1; stroke-linecap: round"/>
   </g>
   <g id="text_4">
    <!-- ﻒﻴﻌﺿ ﻂﺑﺎﻫ ﻩﺎﺠﺗﺍ :ﻂﺑﺎﻫ ﻢﺠﺣ + ﻂﺑﺎﻫ ﺮﻌﺳ -->
    <g style="fill: #b7791f" transform="translate(339.672784 194.478169) scale(0.09 -0.09)">
     <use xlink:href="#NotoNaskhArabic-Bold-fa"/>
     <use xlink:href="#NotoNaskhArabic-Bold-135" transform="translate(70 0)"/>
     <use xlink:href="#NotoNaskhArabic-Bold-d4" transform="translate(114.796875 0)"/>
     <use xlink:href="#NotoNaskhArabic-Bold-554" transform="translate(154.296875 0)"/>
     <use xlink:href="#NotoNaskhArabic-Bold-200" transform="translate(176.390625 0)"/>
     <use xlink:href="#NotoNaskhArabic-Bold-4" transform="translate(227.984375 0)"/>
     <use xlink:href="#NotoNaskhArabic-Bold-26" transform="translate(256.78125 0)"/>
     <use xlink:href="#NotoNaskhArabic-Bold-124" transform="translate(284.28125 0)"/>
     <use xlink:href="#NotoNaskhArabic-Bold-554" transform="translate(368.375 0)"/>
     <use xlink:href="#DejaVuSans-Bold-e" transform="translate(390.46875 0)"/>
     <use xlink:href="#NotoNaskhArabic-Bold-554" transform="translate(474.265625 0)"/>
     <use xlink:href="#NotoNaskhArabic-Bold-8c" transform="translate(496.359375 0)"/>
     <use xlink:href="#NotoNaskhArabic-Bold-73" transform="translate(561.265625 0)"/>
     <use xlink:href="#NotoNaskhArabic-Bold-1e3" transform="translate(626.96875 0)"/>
     <use xlink:href="#NotoNaskhArabic-Bold-554" transform="translate(682.46875 0)"/>
     <use xlink:href="#NotoNaskhArabic-Bold-200" transform="translate(704.5625 0)"/>
     <use xlink:href="#NotoNaskhArabic-Bold-4" transform="translate(756.15625 0)"/>
     <use xlink:href="#NotoNaskhArabic-Bold-26" transform="translate(784.953125 0)"/>
     <use xlink:href="#NotoNaskhArabic-Bold-124" transform="translate(812.453125 0)"/>
     <use xlink:href="#NotoNaskhArabic-Bold-516" transform="translate(896.546875 0)"/>
     <use xlink:href="#NotoNaskhArabic-Bold-554" transform="translate(923.953125 0)"/>
     <use xlink:href="#NotoNaskhArabic-Bold-3" transform="translate(946.046875 0)"/>
     <use xlink:href="#NotoNaskhArabic-Bold-38" transform="translate(974.453125 0)"/>
     <use xlink:href="#NotoNaskhArabic-Bold-73" transform="translate(1001.953125 0)"/>
     <use xlink:href="#NotoNaskhArabic-Bold-4" transform="translate(1067.65625 0)"/>
     <use xlink:href="#NotoNaskhArabic-Bold-1fd" transform="translate(1096.453125 0)"/>
     <use xlink:href="#NotoNaskhArabic-Bold-554" transform="translate(1138.953125 0)"/>
     <use xlink:href="#NotoNaskhArabic-Bold-200" transform="translate(1161.046875 0)"/>
     <use xlink:href="#NotoNaskhArabic-Bold-4" transform="translate(1212.640625 0)"/>
     <use xlink:href="#NotoNaskhArabic-Bold-26" transform="translate(1241.4375 0)"/>
     <use xlink:href="#NotoNaskhArabic-Bold-124" transform="translate(1268.9375 0)"/>
     <use xlink:href="#NotoNaskhArabic-Bold-554" transform="translate(1353.03125 0)"/>
     <use xlink:href="#NotoNaskhArabic-Bold-11e" transform="translate(1375.125 0)"/>
     <use xlink:href="#NotoNaskhArabic-Bold-135" transform="translate(1454.625 0)"/>
     <use xlink:href="#NotoNaskhArabic-Bold-240" transform="translate(1499.421875 0)"/>
     <use xlink:href="#NotoNaskhArabic-Bold-144" transform="translate(1535.421875 0)"/>
    </g>
   </g>
   <g id="patch_129">
    <path d="M 301.532922 208.281394 
L 307.777208 208.281394 
L 307.777208 205.393584 
L 301.532922 205.393584 
z
" clip-path="url(#pa32fed17de)" style="fill: #b91c1c; stroke: #b91c1c; stroke-linejoin: miter"/>
   </g>
   <g id="patch_130">
    <path d="M 312.886169 213.298091 
L 319.130455 213.298091 
L 319.130455 208.121254 
L 312.886169 208.121254 
z
" clip-path="url(#pa32fed17de)" style="fill: #b91c1c; stroke: #b91c1c; stroke-linejoin: miter"/>
   </g>
   <g id="patch_131">
    <path d="M 324.239416 218.314787 
L 330.483701 218.314787 
L 330.483701 210.382297 
L 324.239416 210.382297 
z
" clip-path="url(#pa32fed17de)" style="fill: #b91c1c; stroke: #b91c1c; stroke-linejoin: miter"/>
   </g>
   <g id="patch_132">
    <path d="M 335.592662 223.331483 
L 341.836948 223.331483 
L 341.836948 220.443673 
L 335.592662 220.443673 
z
" clip-path="url(#pa32fed17de)" style="fill: #b91c1c; stroke: #b91c1c; stroke-linejoin: miter"/>
   </g>
   <g id="patch_133">
    <path d="M 346.945909 228.348179 
L 353.190195 228.348179 
L 353.190195 223.015372 
L 346.945909 223.015372 
z
" clip-path="url(#pa32fed17de)" style="fill: #b91c1c; stroke: #b91c1c; stroke-linejoin: miter"/>
   </g>
   <g id="patch_134">
    <path d="M 358.299156 233.364875 
L 364.543442 233.364875 
L 364.543442 227.166205 
L 358.299156 227.166205 
z
" clip-path="url(#pa32fed17de)" style="fill: #b91c1c; stroke: #b91c1c; stroke-linejoin: miter"/>
   </g>
   <g id="patch_135">
    <path d="M 369.652403 238.381572 
L 375.896688 238.381572 
L 375.896688 234.618321 
L 369.652403 234.618321 
z
" clip-path="url(#pa32fed17de)" style="fill: #b91c1c; stroke: #b91c1c; stroke-linejoin: miter"/>
   </g>
   <g id="patch_136">
    <path d="M 381.005649 243.398268 
L 387.249935 243.398268 
L 387.249935 238.369535 
L 381.005649 238.369535 
z
" clip-path="url(#pa32fed17de)" style="fill: #b91c1c; stroke: #b91c1c; stroke-linejoin: miter"/>
   </g>
   <g id="patch_137">
    <path d="M 392.358896 248.414964 
L 398.603182 248.414964 
L 398.603182 243.877745 
L 392.358896 243.877745 
z
" clip-path="url(#pa32fed17de)" style="fill: #b91c1c; stroke: #b91c1c; stroke-linejoin: miter"/>
   </g>
   <g id="patch_138">
    <path d="M 403.712143 253.43166 
L 409.956429 253.43166 
L 409.956429 248.210733 
L 403.712143 248.210733 
z
" clip-path="url(#pa32fed17de)" style="fill: #b91c1c; stroke: #b91c1c; stroke-linejoin: miter"/>
   </g>
   <g id="patch_139">
    <path d="M 415.06539 258.448356 
L 421.309675 258.448356 
L 421.309675 249.804217 
L 415.06539 249.804217 
z
" clip-path="url(#pa32fed17de)" style="fill: #b91c1c; stroke: #b91c1c; stroke-linejoin: miter"/>
   </g>
   <g id="patch_140">
    <path d="M 426.418636 263.465052 
L 432.662922 263.465052 
L 432.662922 257.794077 
L 426.418636 257.794077 
z
" clip-path="url(#pa32fed17de)" style="fill: #b91c1c; stroke: #b91c1c; stroke-linejoin: miter"/>
   </g>
   <g id="patch_141">
    <path d="M 437.771883 268.481749 
L 444.016169 268.481749 
L 444.016169 265.593939 
L 437.771883 265.593939 
z
" clip-path="url(#pa32fed17de)" style="fill: #b91c1c; stroke: #b91c1c; stroke-linejoin: miter"/>
   </g>
   <g id="patch_142">
    <path d="M 449.12513 273.498445 
L 455.369416 273.498445 
L 455.369416 270.610635 
L 449.12513 270.610635 
z
" clip-path="url(#pa32fed17de)" style="fill: #b91c1c; stroke: #b91c1c; stroke-linejoin: miter"/>
   </g>
   <g id="patch_143">
    <path d="M 460.478377 278.515141 
L 466.722662 278.515141 
L 466.722662 271.706981 
L 460.478377 271.706981 
z
" clip-path="url(#pa32fed17de)" style="fill: #b91c1c; stroke: #b91c1c; stroke-linejoin: miter"/>
   </g>
   <g id="patch_144">
    <path d="M 471.831623 283.531837 
L 478.075909 283.531837 
L 478.075909 278.810769 
L 471.831623 278.810769 
z
" clip-path="url(#pa32fed17de)" style="fill: #b91c1c; stroke: #b91c1c; stroke-linejoin: miter"/>
   </g>
   <g id="patch_145">
    <path d="M 483.18487 288.548533 
L 489.429156 288.548533 
L 489.429156 283.759315 
L 483.18487 283.759315 
z
" clip-path="url(#pa32fed17de)" style="fill: #b91c1c; stroke: #b91c1c; stroke-linejoin: miter"/>
   </g>
   <g id="patch_146">
    <path d="M 494.538117 293.56523 
L 500.782403 293.56523 
L 500.782403 289.36117 
L 494.538117 289.36117 
z
" clip-path="url(#pa32fed17de)" style="fill: #b91c1c; stroke: #b91c1c; stroke-linejoin: miter"/>
   </g>
   <g id="patch_147">
    <path d="M 505.891364 298.581926 
L 512.135649 298.581926 
L 512.135649 293.881934 
L 505.891364 293.881934 
z
" clip-path="url(#pa32fed17de)" style="fill: #b91c1c; stroke: #b91c1c; stroke-linejoin: miter"/>
   </g>
   <g id="patch_148">
    <path d="M 517.24461 303.598622 
L 523.488896 303.598622 
L 523.488896 298.294183 
L 517.24461 298.294183 
z
" clip-path="url(#pa32fed17de)" style="fill: #b91c1c; stroke: #b91c1c; stroke-linejoin: miter"/>
   </g>
  </g>
  <g id="axes_8">
   <g id="patch_149">
    <path d="M 293.301818 366.549 
L 531.72 366.549 
L 531.72 320.203652 
L 293.301818 320.203652 
z
" style="fill: #ffffff"/>
   </g>
   <g id="patch_150">
    <path d="M 304.139008 366.549 
L 311.840565 366.549 
L 311.840565 322.410573 
L 304.139008 322.410573 
z
" clip-path="url(#pe5411c95ac)" style="fill: #b7791f"/>
   </g>
   <g id="patch_151">
    <path d="M 315.141232 366.549 
L 322.842788 366.549 
L 322.842788 323.95929 
L 315.141232 323.95929 
z
" clip-path="url(#pe5411c95ac)" style="fill: #b7791f"/>
   </g>
   <g id="patch_152">
    <path d="M 326.143455 366.549 
L 333.845012 366.549 
L 333.845012 325.508007 
L 326.143455 325.508007 
z
" clip-path="url(#pe5411c95ac)" style="fill: #b7791f"/>
   </g>
   <g id="patch_153">
    <path d="M 337.145679 366.549 
L 344.847235 366.549 
L 344.847235 327.056723 
L 337.145679 327.056723 
z
" clip-path="url(#pe5411c95ac)" style="fill: #b7791f"/>
   </g>
   <g id="patch_154">
    <path d="M 348.147902 366.549 
L 355.849458 366.549 
L 355.849458 328.60544 
L 348.147902 328.60544 
z
" clip-path="url(#pe5411c95ac)" style="fill: #b7791f"/>
   </g>
   <g id="patch_155">
    <path d="M 359.150125 366.549 
L 366.851682 366.549 
L 366.851682 330.154157 
L 359.150125 330.154157 
z
" clip-path="url(#pe5411c95ac)" style="fill: #b7791f"/>
   </g>
   <g id="patch_156">
    <path d="M 370.152349 366.549 
L 377.853905 366.549 
L 377.853905 331.702873 
L 370.152349 331.702873 
z
" clip-path="url(#pe5411c95ac)" style="fill: #b7791f"/>
   </g>
   <g id="patch_157">
    <path d="M 381.154572 366.549 
L 388.856129 366.549 
L 388.856129 333.25159 
L 381.154572 333.25159 
z
" clip-path="url(#pe5411c95ac)" style="fill: #b7791f"/>
   </g>
   <g id="patch_158">
    <path d="M 392.156796 366.549 
L 399.858352 366.549 
L 399.858352 334.800307 
L 392.156796 334.800307 
z
" clip-path="url(#pe5411c95ac)" style="fill: #b7791f"/>
   </g>
   <g id="patch_159">
    <path d="M 403.159019 366.549 
L 410.860576 366.549 
L 410.860576 336.349024 
L 403.159019 336.349024 
z
" clip-path="url(#pe5411c95ac)" style="fill: #b7791f"/>
   </g>
   <g id="patch_160">
    <path d="M 414.161243 366.549 
L 421.862799 366.549 
L 421.862799 337.89774 
L 414.161243 337.89774 
z
" clip-path="url(#pe5411c95ac)" style="fill: #b7791f"/>
   </g>
   <g id="patch_161">
    <path d="M 425.163466 366.549 
L 432.865022 366.549 
L 432.865022 339.446457 
L 425.163466 339.446457 
z
" clip-path="url(#pe5411c95ac)" style="fill: #b7791f"/>
   </g>
   <g id="patch_162">
    <path d="M 436.165689 366.549 
L 443.867246 366.549 
L 443.867246 340.995174 
L 436.165689 340.995174 
z
" clip-path="url(#pe5411c95ac)" style="fill: #b7791f"/>
   </g>
   <g id="patch_163">
    <path d="M 447.167913 366.549 
L 454.869469 366.549 
L 454.869469 342.543891 
L 447.167913 342.543891 
z
" clip-path="url(#pe5411c95ac)" style="fill: #b7791f"/>
   </g>
   <g id="patch_164">
    <path d="M 458.170136 366.549 
L 465.871693 366.549 
L 465.871693 344.092607 
L 458.170136 344.092607 
z
" clip-path="url(#pe5411c95ac)" style="fill: #b7791f"/>
   </g>
   <g id="patch_165">
    <path d="M 469.17236 366.549 
L 476.873916 366.549 
L 476.873916 345.641324 
L 469.17236 345.641324 
z
" clip-path="url(#pe5411c95ac)" style="fill: #b7791f"/>
   </g>
   <g id="patch_166">
    <path d="M 480.174583 366.549 
L 487.87614 366.549 
L 487.87614 347.190041 
L 480.174583 347.190041 
z
" clip-path="url(#pe5411c95ac)" style="fill: #b7791f"/>
   </g>
   <g id="patch_167">
    <path d="M 491.176807 366.549 
L 498.878363 366.549 
L 498.878363 348.738758 
L 491.176807 348.738758 
z
" clip-path="url(#pe5411c95ac)" style="fill: #b7791f"/>
   </g>
   <g id="patch_168">
    <path d="M 502.17903 366.549 
L 509.880586 366.549 
L 509.880586 350.287474 
L 502.17903 350.287474 
z
" clip-path="url(#pe5411c95ac)" style="fill: #b7791f"/>
   </g>
   <g id="patch_169">
    <path d="M 513.181254 366.549 
L 520.88281 366.549 
L 520.88281 351.836191 
L 513.181254 351.836191 
z
" clip-path="url(#pe5411c95ac)" style="fill: #b7791f"/>
   </g>
   <g id="matplotlib.axis_15"/>
   <g id="matplotlib.axis_16"/>
  </g>
 </g>
 <defs>
  <clipPath id="paad6f2f1dd">
   <rect x="7.2" y="22.821" width="238.418182" height="108.139146"/>
  </clipPath>
  <clipPath id="p17d11d2bc8">
   <rect x="7.2" y="142.546483" width="238.418182" height="46.345348"/>
  </clipPath>
  <clipPath id="p8ca6a4c57c">
   <rect x="293.301818" y="22.821" width="238.418182" height="108.139146"/>
  </clipPath>
  <clipPath id="p778d921c1c">
   <rect x="293.301818" y="142.546483" width="238.418182" height="46.345348"/>
  </clipPath>
  <clipPath id="p99f45b672c">
   <rect x="7.2" y="200.478169" width="238.418182" height="108.139146"/>
  </clipPath>
  <clipPath id="pa4f692a08e">
   <rect x="7.2" y="320.203652" width="238.418182" height="46.345348"/>
  </clipPath>
  <clipPath id="pa32fed17de">
   <rect x="293.301818" y="200.478169" width="238.418182" height="108.139146"/>
  </clipPath>
  <clipPath id="pe5411c95ac">
   <rect x="293.301818" y="320.203652" width="238.418182" height="46.345348"/>
  </clipPath>
 </defs>
</svg>
