<?xml version="1.0" encoding="utf-8" standalone="no"?>
<!DOCTYPE svg PUBLIC "-//W3C//DTD SVG 1.1//EN"
  "http://www.w3.org/Graphics/SVG/1.1/DTD/svg11.dtd">
<svg xmlns:xlink="http://www.w3.org/1999/xlink" width="628.35pt" height="340.35pt" viewBox="0 0 628.35 340.35" xmlns="http://www.w3.org/2000/svg" version="1.1">
 <metadata>
  <rdf:RDF xmlns:dc="http://purl.org/dc/elements/1.1/" xmlns:cc="http://creativecommons.org/ns#" xmlns:rdf="http://www.w3.org/1999/02/22-rdf-syntax-ns#">
   <cc:Work>
    <dc:type rdf:resource="http://purl.org/dc/dcmitype/StillImage"/>
    <dc:date>2026-07-19T04:29:51.911240</dc:date>
    <dc:format>image/svg+xml</dc:format>
    <dc:creator>
     <cc:Agent>
      <dc:title>Matplotlib v3.11.1, https://matplotlib.org/</dc:title>
     </cc:Agent>
    </dc:creator>
   </cc:Work>
  </rdf:RDF>
 </metadata>
 <defs>
  <style type="text/css">*{stroke-linejoin: round; stroke-linecap: butt}</style>
 </defs>
 <g id="figure_1">
  <g id="patch_1">
   <path d="M 0 340.35 
L 628.35 340.35 
L 628.35 0 
L 0 0 
z
" style="fill: #ffffff"/>
  </g>
  <g id="axes_1">
   <g id="patch_2">
    <path d="M 7.2 333.15 
L 621.15 333.15 
L 621.15 25.933 
L 7.2 25.933 
z
" style="fill: #ffffff"/>
   </g>
   <g id="matplotlib.axis_1"/>
   <g id="matplotlib.axis_2"/>
   <g id="patch_3">
    <path d="M 7.2 333.15 
L 7.2 25.933 
" style="fill: none; stroke: #1f2937; stroke-width: 0.8; stroke-linejoin: miter; stroke-linecap: square"/>
   </g>
   <g id="patch_4">
    <path d="M 7.2 333.15 
L 621.15 333.15 
" style="fill: none; stroke: #1f2937; stroke-width: 0.8; stroke-linejoin: miter; stroke-linecap: square"/>
   </g>
   <g id="line2d_1">
    <path d="M 20.262766 295.864295 
L 20.262766 282.483221 
" clip-path="url(#pb41c9e1f4a)" style="fill: none; stroke: #b91c1c; stroke-width: 1.1; stroke-linecap: round"/>
   </g>
   <g id="line2d_2">
    <path d="M 33.325532 275.514908 
L 33.325532 255.651449 
" clip-path="url(#pb41c9e1f4a)" style="fill: none; stroke: #1f8a56; stroke-width: 1.1; stroke-linecap: round"/>
   </g>
   <g id="line2d_3">
    <path d="M 46.388298 260.258466 
L 46.388298 207.089609 
" clip-path="url(#pb41c9e1f4a)" style="fill: none; stroke: #1f8a56; stroke-width: 1.1; stroke-linecap: round"/>
   </g>
   <g id="line2d_4">
    <path d="M 59.451064 221.688295 
L 59.451064 207.840767 
" clip-path="url(#pb41c9e1f4a)" style="fill: none; stroke: #1f8a56; stroke-width: 1.1; stroke-linecap: round"/>
   </g>
   <g id="line2d_5">
    <path d="M 72.51383 226.313262 
L 72.51383 187.613483 
" clip-path="url(#pb41c9e1f4a)" style="fill: none; stroke: #1f8a56; stroke-width: 1.1; stroke-linecap: round"/>
   </g>
   <g id="line2d_6">
    <path d="M 85.576596 202.28188 
L 85.576596 166.872265 
" clip-path="url(#pb41c9e1f4a)" style="fill: none; stroke: #1f8a56; stroke-width: 1.1; stroke-linecap: round"/>
   </g>
   <g id="line2d_7">
    <path d="M 98.639362 192.50158 
L 98.639362 169.106436 
" clip-path="url(#pb41c9e1f4a)" style="fill: none; stroke: #b91c1c; stroke-width: 1.1; stroke-linecap: round"/>
   </g>
   <g id="line2d_8">
    <path d="M 111.702128 216.240487 
L 111.702128 181.684558 
" clip-path="url(#pb41c9e1f4a)" style="fill: none; stroke: #b91c1c; stroke-width: 1.1; stroke-linecap: round"/>
   </g>
   <g id="line2d_9">
    <path d="M 124.764894 222.799495 
L 124.764894 212.634731 
" clip-path="url(#pb41c9e1f4a)" style="fill: none; stroke: #b91c1c; stroke-width: 1.1; stroke-linecap: round"/>
   </g>
   <g id="line2d_10">
    <path d="M 137.82766 241.552569 
L 137.82766 218.017612 
" clip-path="url(#pb41c9e1f4a)" style="fill: none; stroke: #b91c1c; stroke-width: 1.1; stroke-linecap: round"/>
   </g>
   <g id="line2d_11">
    <path d="M 150.890426 253.299039 
L 150.890426 212.201131 
" clip-path="url(#pb41c9e1f4a)" style="fill: none; stroke: #b91c1c; stroke-width: 1.1; stroke-linecap: round"/>
   </g>
   <g id="line2d_12">
    <path d="M 163.953191 264.288731 
L 163.953191 243.631334 
" clip-path="url(#pb41c9e1f4a)" style="fill: none; stroke: #b91c1c; stroke-width: 1.1; stroke-linecap: round"/>
   </g>
   <g id="line2d_13">
    <path d="M 177.015957 258.015336 
L 177.015957 220.823504 
" clip-path="url(#pb41c9e1f4a)" style="fill: none; stroke: #1f8a56; stroke-width: 1.1; stroke-linecap: round"/>
   </g>
   <g id="line2d_14">
    <path d="M 190.078723 233.427387 
L 190.078723 198.230411 
" clip-path="url(#pb41c9e1f4a)" style="fill: none; stroke: #1f8a56; stroke-width: 1.1; stroke-linecap: round"/>
   </g>
   <g id="line2d_15">
    <path d="M 203.141489 208.531402 
L 203.141489 181.421726 
" clip-path="url(#pb41c9e1f4a)" style="fill: none; stroke: #1f8a56; stroke-width: 1.1; stroke-linecap: round"/>
   </g>
   <g id="line2d_16">
    <path d="M 216.204255 191.153105 
L 216.204255 155.712898 
" clip-path="url(#pb41c9e1f4a)" style="fill: none; stroke: #1f8a56; stroke-width: 1.1; stroke-linecap: round"/>
   </g>
   <g id="line2d_17">
    <path d="M 229.267021 164.867628 
L 229.267021 153.640882 
" clip-path="url(#pb41c9e1f4a)" style="fill: none; stroke: #b91c1c; stroke-width: 1.1; stroke-linecap: round"/>
   </g>
   <g id="line2d_18">
    <path d="M 242.329787 175.796133 
L 242.329787 133.710011 
" clip-path="url(#pb41c9e1f4a)" style="fill: none; stroke: #1f8a56; stroke-width: 1.1; stroke-linecap: round"/>
   </g>
   <g id="line2d_19">
    <path d="M 255.392553 169.736428 
L 255.392553 125.31991 
" clip-path="url(#pb41c9e1f4a)" style="fill: none; stroke: #b91c1c; stroke-width: 1.1; stroke-linecap: round"/>
   </g>
   <g id="line2d_20">
    <path d="M 268.455319 187.656698 
L 268.455319 180.618084 
" clip-path="url(#pb41c9e1f4a)" style="fill: none; stroke: #b91c1c; stroke-width: 1.1; stroke-linecap: round"/>
   </g>
   <g id="line2d_21">
    <path d="M 281.518085 206.250605 
L 281.518085 187.533628 
" clip-path="url(#pb41c9e1f4a)" style="fill: none; stroke: #b91c1c; stroke-width: 1.1; stroke-linecap: round"/>
   </g>
   <g id="line2d_22">
    <path d="M 294.580851 232.735839 
L 294.580851 189.245425 
" clip-path="url(#pb41c9e1f4a)" style="fill: none; stroke: #b91c1c; stroke-width: 1.1; stroke-linecap: round"/>
   </g>
   <g id="line2d_23">
    <path d="M 307.643617 253.984283 
L 307.643617 214.649478 
" clip-path="url(#pb41c9e1f4a)" style="fill: none; stroke: #b91c1c; stroke-width: 1.1; stroke-linecap: round"/>
   </g>
   <g id="line2d_24">
    <path d="M 320.706383 254.242353 
L 320.706383 246.229027 
" clip-path="url(#pb41c9e1f4a)" style="fill: none; stroke: #b91c1c; stroke-width: 1.1; stroke-linecap: round"/>
   </g>
   <g id="line2d_25">
    <path d="M 333.769149 254.808287 
L 333.769149 235.432613 
" clip-path="url(#pb41c9e1f4a)" style="fill: none; stroke: #b91c1c; stroke-width: 1.1; stroke-linecap: round"/>
   </g>
   <g id="line2d_26">
    <path d="M 346.831915 249.313481 
L 346.831915 231.302208 
" clip-path="url(#pb41c9e1f4a)" style="fill: none; stroke: #b91c1c; stroke-width: 1.1; stroke-linecap: round"/>
   </g>
   <g id="line2d_27">
    <path d="M 359.894681 238.884196 
L 359.894681 226.47786 
" clip-path="url(#pb41c9e1f4a)" style="fill: none; stroke: #1f8a56; stroke-width: 1.1; stroke-linecap: round"/>
   </g>
   <g id="line2d_28">
    <path d="M 372.957447 235.957595 
L 372.957447 209.927067 
" clip-path="url(#pb41c9e1f4a)" style="fill: none; stroke: #1f8a56; stroke-width: 1.1; stroke-linecap: round"/>
   </g>
   <g id="line2d_29">
    <path d="M 386.020213 211.27895 
L 386.020213 192.010824 
" clip-path="url(#pb41c9e1f4a)" style="fill: none; stroke: #1f8a56; stroke-width: 1.1; stroke-linecap: round"/>
   </g>
   <g id="line2d_30">
    <path d="M 399.082979 209.221605 
L 399.082979 182.717586 
" clip-path="url(#pb41c9e1f4a)" style="fill: none; stroke: #1f8a56; stroke-width: 1.1; stroke-linecap: round"/>
   </g>
   <g id="line2d_31">
    <path d="M 412.145745 204.46993 
L 412.145745 178.008874 
" clip-path="url(#pb41c9e1f4a)" style="fill: none; stroke: #b91c1c; stroke-width: 1.1; stroke-linecap: round"/>
   </g>
   <g id="line2d_32">
    <path d="M 425.208511 218.132865 
L 425.208511 192.626455 
" clip-path="url(#pb41c9e1f4a)" style="fill: none; stroke: #b91c1c; stroke-width: 1.1; stroke-linecap: round"/>
   </g>
   <g id="line2d_33">
    <path d="M 438.271277 234.137269 
L 438.271277 221.515212 
" clip-path="url(#pb41c9e1f4a)" style="fill: none; stroke: #b91c1c; stroke-width: 1.1; stroke-linecap: round"/>
   </g>
   <g id="line2d_34">
    <path d="M 451.334043 252.640742 
L 451.334043 223.676906 
" clip-path="url(#pb41c9e1f4a)" style="fill: none; stroke: #b91c1c; stroke-width: 1.1; stroke-linecap: round"/>
   </g>
   <g id="line2d_35">
    <path d="M 464.396809 264.280994 
L 464.396809 256.549819 
" clip-path="url(#pb41c9e1f4a)" style="fill: none; stroke: #b91c1c; stroke-width: 1.1; stroke-linecap: round"/>
   </g>
   <g id="line2d_36">
    <path d="M 477.459574 307.407911 
L 477.459574 263.711342 
" clip-path="url(#pb41c9e1f4a)" style="fill: none; stroke: #b91c1c; stroke-width: 1.1; stroke-linecap: round"/>
   </g>
   <g id="line2d_37">
    <path d="M 490.52234 307.548583 
L 490.52234 289.542463 
" clip-path="url(#pb41c9e1f4a)" style="fill: none; stroke: #1f8a56; stroke-width: 1.1; stroke-linecap: round"/>
   </g>
   <g id="line2d_38">
    <path d="M 503.585106 293.492197 
L 503.585106 275.612839 
" clip-path="url(#pb41c9e1f4a)" style="fill: none; stroke: #1f8a56; stroke-width: 1.1; stroke-linecap: round"/>
   </g>
   <g id="line2d_39">
    <path d="M 516.647872 277.497244 
L 516.647872 256.75374 
" clip-path="url(#pb41c9e1f4a)" style="fill: none; stroke: #1f8a56; stroke-width: 1.1; stroke-linecap: round"/>
   </g>
   <g id="line2d_40">
    <path d="M 529.710638 268.150787 
L 529.710638 222.351007 
" clip-path="url(#pb41c9e1f4a)" style="fill: none; stroke: #1f8a56; stroke-width: 1.1; stroke-linecap: round"/>
   </g>
   <g id="line2d_41">
    <path d="M 542.773404 224.406009 
L 542.773404 211.662229 
" clip-path="url(#pb41c9e1f4a)" style="fill: none; stroke: #b91c1c; stroke-width: 1.1; stroke-linecap: round"/>
   </g>
   <g id="line2d_42">
    <path d="M 555.83617 222.17079 
L 555.83617 204.476728 
" clip-path="url(#pb41c9e1f4a)" style="fill: none; stroke: #b91c1c; stroke-width: 1.1; stroke-linecap: round"/>
   </g>
   <g id="line2d_43">
    <path d="M 568.898936 233.237839 
L 568.898936 222.010975 
" clip-path="url(#pb41c9e1f4a)" style="fill: none; stroke: #b91c1c; stroke-width: 1.1; stroke-linecap: round"/>
   </g>
   <g id="line2d_44">
    <path d="M 581.961702 243.834228 
L 581.961702 224.770889 
" clip-path="url(#pb41c9e1f4a)" style="fill: none; stroke: #b91c1c; stroke-width: 1.1; stroke-linecap: round"/>
   </g>
   <g id="line2d_45">
    <path d="M 595.024468 248.212452 
L 595.024468 237.418664 
" clip-path="url(#pb41c9e1f4a)" style="fill: none; stroke: #b91c1c; stroke-width: 1.1; stroke-linecap: round"/>
   </g>
   <g id="line2d_46">
    <path d="M 608.087234 259.565005 
L 608.087234 247.2116 
" clip-path="url(#pb41c9e1f4a)" style="fill: none; stroke: #b91c1c; stroke-width: 1.1; stroke-linecap: round"/>
   </g>
   <g id="text_1">
    <text style="font-weight: 700; font-size: 9.5px; font-family: 'Noto Naskh Arabic', 'DejaVu Sans'; text-anchor: middle; fill: #b91c1c" x="320.706383" y="68.561838" transform="rotate(-0 320.706383 68.561838)">​ﻰﻠﻋﻸﻟ ﻂﻤﻨﻟﺍ ﻞﻴﻣ ﻢﻏﺭ ﻲﻃﻮﺒﻫ ﺱﺎﻜﻌﻧﺍ ﻝﺎﻤﺘﺣﺍ</text>
   </g>
   <g id="text_2">
    <text style="font-weight: 700; font-size: 11px; font-family: 'Noto Naskh Arabic', 'DejaVu Sans'; text-anchor: middle; fill: #1f2937" x="314.175" y="18.959" transform="rotate(-0 314.175 18.959)">​ﻂﺑﺎﻫ ﻲﺳﺎﻜﻌﻧﺍ ﻂﻤﻧ — (Rising Wedge) ﺪﻋﺎﺼﻟﺍ ﺪﺗﻮﻟﺍ</text>
   </g>
   <g id="patch_5">
    <path d="M 16.670505 294.722362 
L 23.855027 294.722362 
L 23.855027 288.466994 
L 16.670505 288.466994 
z
" clip-path="url(#pb41c9e1f4a)" style="fill: #b91c1c; stroke: #b91c1c; stroke-linejoin: miter"/>
   </g>
   <g id="patch_6">
    <path d="M 29.733271 272.08869 
L 36.917793 272.08869 
L 36.917793 259.243916 
L 29.733271 259.243916 
z
" clip-path="url(#pb41c9e1f4a)" style="fill: #1f8a56; stroke: #1f8a56; stroke-linejoin: miter"/>
   </g>
   <g id="patch_7">
    <path d="M 42.796037 255.511469 
L 49.980559 255.511469 
L 49.980559 219.984713 
L 42.796037 219.984713 
z
" clip-path="url(#pb41c9e1f4a)" style="fill: #1f8a56; stroke: #1f8a56; stroke-linejoin: miter"/>
   </g>
   <g id="patch_8">
    <path d="M 55.858803 220.378778 
L 63.043324 220.378778 
L 63.043324 210.4918 
L 55.858803 210.4918 
z
" clip-path="url(#pb41c9e1f4a)" style="fill: #1f8a56; stroke: #1f8a56; stroke-linejoin: miter"/>
   </g>
   <g id="patch_9">
    <path d="M 68.921569 216.110923 
L 76.10609 216.110923 
L 76.10609 195.697886 
L 68.921569 195.697886 
z
" clip-path="url(#pb41c9e1f4a)" style="fill: #1f8a56; stroke: #1f8a56; stroke-linejoin: miter"/>
   </g>
   <g id="patch_10">
    <path d="M 81.984335 200.531588 
L 89.168856 200.531588 
L 89.168856 172.244903 
L 81.984335 172.244903 
z
" clip-path="url(#pb41c9e1f4a)" style="fill: #1f8a56; stroke: #1f8a56; stroke-linejoin: miter"/>
   </g>
   <g id="patch_11">
    <path d="M 95.047101 182.003641 
L 102.231622 182.003641 
L 102.231622 176.53678 
L 95.047101 176.53678 
z
" clip-path="url(#pb41c9e1f4a)" style="fill: #b91c1c; stroke: #b91c1c; stroke-linejoin: miter"/>
   </g>
   <g id="patch_12">
    <path d="M 108.109867 212.687922 
L 115.294388 212.687922 
L 115.294388 184.757096 
L 108.109867 184.757096 
z
" clip-path="url(#pb41c9e1f4a)" style="fill: #b91c1c; stroke: #b91c1c; stroke-linejoin: miter"/>
   </g>
   <g id="patch_13">
    <path d="M 121.172633 220.878143 
L 128.357154 220.878143 
L 128.357154 215.411281 
L 121.172633 215.411281 
z
" clip-path="url(#pb41c9e1f4a)" style="fill: #b91c1c; stroke: #b91c1c; stroke-linejoin: miter"/>
   </g>
   <g id="patch_14">
    <path d="M 134.235399 229.562187 
L 141.41992 229.562187 
L 141.41992 220.514278 
L 134.235399 220.514278 
z
" clip-path="url(#pb41c9e1f4a)" style="fill: #b91c1c; stroke: #b91c1c; stroke-linejoin: miter"/>
   </g>
   <g id="patch_15">
    <path d="M 147.298165 249.196878 
L 154.482686 249.196878 
L 154.482686 216.853138 
L 147.298165 216.853138 
z
" clip-path="url(#pb41c9e1f4a)" style="fill: #b91c1c; stroke: #b91c1c; stroke-linejoin: miter"/>
   </g>
   <g id="patch_16">
    <path d="M 160.360931 260.843102 
L 167.545452 260.843102 
L 167.545452 249.138175 
L 160.360931 249.138175 
z
" clip-path="url(#pb41c9e1f4a)" style="fill: #b91c1c; stroke: #b91c1c; stroke-linejoin: miter"/>
   </g>
   <g id="patch_17">
    <path d="M 173.423697 252.346466 
L 180.608218 252.346466 
L 180.608218 227.200195 
L 173.423697 227.200195 
z
" clip-path="url(#pb41c9e1f4a)" style="fill: #1f8a56; stroke: #1f8a56; stroke-linejoin: miter"/>
   </g>
   <g id="patch_18">
    <path d="M 186.486463 228.099984 
L 193.670984 228.099984 
L 193.670984 199.773454 
L 186.486463 199.773454 
z
" clip-path="url(#pb41c9e1f4a)" style="fill: #1f8a56; stroke: #1f8a56; stroke-linejoin: miter"/>
   </g>
   <g id="patch_19">
    <path d="M 199.549229 207.749244 
L 206.73375 207.749244 
L 206.73375 187.209703 
L 199.549229 187.209703 
z
" clip-path="url(#pb41c9e1f4a)" style="fill: #1f8a56; stroke: #1f8a56; stroke-linejoin: miter"/>
   </g>
   <g id="patch_20">
    <path d="M 212.611995 186.727738 
L 219.796516 186.727738 
L 219.796516 163.736207 
L 212.611995 163.736207 
z
" clip-path="url(#pb41c9e1f4a)" style="fill: #1f8a56; stroke: #1f8a56; stroke-linejoin: miter"/>
   </g>
   <g id="patch_21">
    <path d="M 225.674761 161.584943 
L 232.859282 161.584943 
L 232.859282 156.118081 
L 225.674761 156.118081 
z
" clip-path="url(#pb41c9e1f4a)" style="fill: #b91c1c; stroke: #b91c1c; stroke-linejoin: miter"/>
   </g>
   <g id="patch_22">
    <path d="M 238.737527 171.620611 
L 245.922048 171.620611 
L 245.922048 138.092458 
L 238.737527 138.092458 
z
" clip-path="url(#pb41c9e1f4a)" style="fill: #1f8a56; stroke: #1f8a56; stroke-linejoin: miter"/>
   </g>
   <g id="patch_23">
    <path d="M 251.800293 165.369871 
L 258.984814 165.369871 
L 258.984814 129.462763 
L 251.800293 129.462763 
z
" clip-path="url(#pb41c9e1f4a)" style="fill: #b91c1c; stroke: #b91c1c; stroke-linejoin: miter"/>
   </g>
   <g id="patch_24">
    <path d="M 264.863059 182.342969 
L 272.04758 182.342969 
L 272.04758 176.876107 
L 264.863059 176.876107 
z
" clip-path="url(#pb41c9e1f4a)" style="fill: #b91c1c; stroke: #b91c1c; stroke-linejoin: miter"/>
   </g>
   <g id="patch_25">
    <path d="M 277.925824 198.786541 
L 285.110346 198.786541 
L 285.110346 188.345377 
L 277.925824 188.345377 
z
" clip-path="url(#pb41c9e1f4a)" style="fill: #b91c1c; stroke: #b91c1c; stroke-linejoin: miter"/>
   </g>
   <g id="patch_26">
    <path d="M 290.98859 225.660632 
L 298.173112 225.660632 
L 298.173112 194.7476 
L 290.98859 194.7476 
z
" clip-path="url(#pb41c9e1f4a)" style="fill: #b91c1c; stroke: #b91c1c; stroke-linejoin: miter"/>
   </g>
   <g id="patch_27">
    <path d="M 304.051356 244.055051 
L 311.235878 244.055051 
L 311.235878 217.935109 
L 304.051356 217.935109 
z
" clip-path="url(#pb41c9e1f4a)" style="fill: #b91c1c; stroke: #b91c1c; stroke-linejoin: miter"/>
   </g>
   <g id="patch_28">
    <path d="M 317.114122 253.430252 
L 324.298644 253.430252 
L 324.298644 246.48231 
L 317.114122 246.48231 
z
" clip-path="url(#pb41c9e1f4a)" style="fill: #b91c1c; stroke: #b91c1c; stroke-linejoin: miter"/>
   </g>
   <g id="patch_29">
    <path d="M 330.176888 247.559094 
L 337.36141 247.559094 
L 337.36141 238.92841 
L 330.176888 238.92841 
z
" clip-path="url(#pb41c9e1f4a)" style="fill: #b91c1c; stroke: #b91c1c; stroke-linejoin: miter"/>
   </g>
   <g id="patch_30">
    <path d="M 343.239654 246.798275 
L 350.424176 246.798275 
L 350.424176 238.798968 
L 343.239654 238.798968 
z
" clip-path="url(#pb41c9e1f4a)" style="fill: #b91c1c; stroke: #b91c1c; stroke-linejoin: miter"/>
   </g>
   <g id="patch_31">
    <path d="M 356.30242 238.582861 
L 363.486941 238.582861 
L 363.486941 227.966279 
L 356.30242 227.966279 
z
" clip-path="url(#pb41c9e1f4a)" style="fill: #1f8a56; stroke: #1f8a56; stroke-linejoin: miter"/>
   </g>
   <g id="patch_32">
    <path d="M 369.365186 230.621648 
L 376.549707 230.621648 
L 376.549707 212.727904 
L 369.365186 212.727904 
z
" clip-path="url(#pb41c9e1f4a)" style="fill: #1f8a56; stroke: #1f8a56; stroke-linejoin: miter"/>
   </g>
   <g id="patch_33">
    <path d="M 382.427952 209.197039 
L 389.612473 209.197039 
L 389.612473 199.222933 
L 382.427952 199.222933 
z
" clip-path="url(#pb41c9e1f4a)" style="fill: #1f8a56; stroke: #1f8a56; stroke-linejoin: miter"/>
   </g>
   <g id="patch_34">
    <path d="M 395.490718 204.461959 
L 402.675239 204.461959 
L 402.675239 185.675725 
L 395.490718 185.675725 
z
" clip-path="url(#pb41c9e1f4a)" style="fill: #1f8a56; stroke: #1f8a56; stroke-linejoin: miter"/>
   </g>
   <g id="patch_35">
    <path d="M 408.553484 195.825722 
L 415.738005 195.825722 
L 415.738005 182.203899 
L 408.553484 182.203899 
z
" clip-path="url(#pb41c9e1f4a)" style="fill: #b91c1c; stroke: #b91c1c; stroke-linejoin: miter"/>
   </g>
   <g id="patch_36">
    <path d="M 421.61625 214.518015 
L 428.800771 214.518015 
L 428.800771 195.170214 
L 421.61625 195.170214 
z
" clip-path="url(#pb41c9e1f4a)" style="fill: #b91c1c; stroke: #b91c1c; stroke-linejoin: miter"/>
   </g>
   <g id="patch_37">
    <path d="M 434.679016 232.776664 
L 441.863537 232.776664 
L 441.863537 227.279102 
L 434.679016 227.279102 
z
" clip-path="url(#pb41c9e1f4a)" style="fill: #b91c1c; stroke: #b91c1c; stroke-linejoin: miter"/>
   </g>
   <g id="patch_38">
    <path d="M 447.741782 244.602376 
L 454.926303 244.602376 
L 454.926303 234.559209 
L 447.741782 234.559209 
z
" clip-path="url(#pb41c9e1f4a)" style="fill: #b91c1c; stroke: #b91c1c; stroke-linejoin: miter"/>
   </g>
   <g id="patch_39">
    <path d="M 460.804548 262.548815 
L 467.989069 262.548815 
L 467.989069 257.081953 
L 460.804548 257.081953 
z
" clip-path="url(#pb41c9e1f4a)" style="fill: #b91c1c; stroke: #b91c1c; stroke-linejoin: miter"/>
   </g>
   <g id="patch_40">
    <path d="M 473.867314 301.871909 
L 481.051835 301.871909 
L 481.051835 268.051079 
L 473.867314 268.051079 
z
" clip-path="url(#pb41c9e1f4a)" style="fill: #b91c1c; stroke: #b91c1c; stroke-linejoin: miter"/>
   </g>
   <g id="patch_41">
    <path d="M 486.93008 303.352948 
L 494.114601 303.352948 
L 494.114601 293.521711 
L 486.93008 293.521711 
z
" clip-path="url(#pb41c9e1f4a)" style="fill: #1f8a56; stroke: #1f8a56; stroke-linejoin: miter"/>
   </g>
   <g id="patch_42">
    <path d="M 499.992846 291.231636 
L 507.177367 291.231636 
L 507.177367 275.799718 
L 499.992846 275.799718 
z
" clip-path="url(#pb41c9e1f4a)" style="fill: #1f8a56; stroke: #1f8a56; stroke-linejoin: miter"/>
   </g>
   <g id="patch_43">
    <path d="M 513.055612 277.274888 
L 520.240133 277.274888 
L 520.240133 258.404055 
L 513.055612 258.404055 
z
" clip-path="url(#pb41c9e1f4a)" style="fill: #1f8a56; stroke: #1f8a56; stroke-linejoin: miter"/>
   </g>
   <g id="patch_44">
    <path d="M 526.118378 263.47834 
L 533.302899 263.47834 
L 533.302899 231.621107 
L 526.118378 231.621107 
z
" clip-path="url(#pb41c9e1f4a)" style="fill: #1f8a56; stroke: #1f8a56; stroke-linejoin: miter"/>
   </g>
   <g id="patch_45">
    <path d="M 539.181144 223.707931 
L 546.365665 223.707931 
L 546.365665 218.241069 
L 539.181144 218.241069 
z
" clip-path="url(#pb41c9e1f4a)" style="fill: #b91c1c; stroke: #b91c1c; stroke-linejoin: miter"/>
   </g>
   <g id="patch_46">
    <path d="M 552.24391 218.75374 
L 559.428431 218.75374 
L 559.428431 206.992028 
L 552.24391 206.992028 
z
" clip-path="url(#pb41c9e1f4a)" style="fill: #b91c1c; stroke: #b91c1c; stroke-linejoin: miter"/>
   </g>
   <g id="patch_47">
    <path d="M 565.306676 225.340798 
L 572.491197 225.340798 
L 572.491197 219.873936 
L 565.306676 219.873936 
z
" clip-path="url(#pb41c9e1f4a)" style="fill: #b91c1c; stroke: #b91c1c; stroke-linejoin: miter"/>
   </g>
   <g id="patch_48">
    <path d="M 578.369441 241.346645 
L 585.553963 241.346645 
L 585.553963 225.646809 
L 578.369441 225.646809 
z
" clip-path="url(#pb41c9e1f4a)" style="fill: #b91c1c; stroke: #b91c1c; stroke-linejoin: miter"/>
   </g>
   <g id="patch_49">
    <path d="M 591.432207 247.207038 
L 598.616729 247.207038 
L 598.616729 241.740176 
L 591.432207 241.740176 
z
" clip-path="url(#pb41c9e1f4a)" style="fill: #b91c1c; stroke: #b91c1c; stroke-linejoin: miter"/>
   </g>
   <g id="patch_50">
    <path d="M 604.494973 254.827361 
L 611.679495 254.827361 
L 611.679495 249.360499 
L 604.494973 249.360499 
z
" clip-path="url(#pb41c9e1f4a)" style="fill: #b91c1c; stroke: #b91c1c; stroke-linejoin: miter"/>
   </g>
   <g id="line2d_47">
    <path d="M 46.388298 163.73856 
L 595.024468 207.610433 
" clip-path="url(#pb41c9e1f4a)" style="fill: none; stroke: #1f2937; stroke-width: 2; stroke-linecap: square"/>
   </g>
   <g id="line2d_48">
    <path d="M 46.388298 265.539129 
L 595.024468 259.703938 
" clip-path="url(#pb41c9e1f4a)" style="fill: none; stroke: #1f2937; stroke-width: 2; stroke-linecap: square"/>
   </g>
   <g id="patch_51">
    <path d="M 85.576596 172.548072 
C 86.789096 172.548072 87.952098 170.454936 88.809465 166.729653 
C 89.666832 163.00437 90.148564 157.951093 90.148564 152.682747 
C 90.148564 147.414401 89.666832 142.361124 88.809465 138.635841 
C 87.952098 134.910558 86.789096 132.817422 85.576596 132.817422 
C 84.364096 132.817422 83.201093 134.910558 82.343726 138.635841 
C 81.486359 142.361124 81.004628 147.414401 81.004628 152.682747 
C 81.004628 157.951093 81.486359 163.00437 82.343726 166.729653 
C 83.201093 170.454936 84.364096 172.548072 85.576596 172.548072 
L 85.576596 172.548072 
z
" clip-path="url(#pb41c9e1f4a)" style="fill: none; stroke: #1f2937; stroke-width: 1.6; stroke-linejoin: miter"/>
   </g>
   <g id="patch_52">
    <path d="M 242.329787 139.385818 
C 243.542287 139.385818 244.70529 137.292682 245.562657 133.567399 
C 246.420024 129.842116 246.901755 124.788839 246.901755 119.520493 
C 246.901755 114.252147 246.420024 109.19887 245.562657 105.473587 
C 244.70529 101.748304 243.542287 99.655168 242.329787 99.655168 
C 241.117287 99.655168 239.954285 101.748304 239.096918 105.473587 
C 238.239551 109.19887 237.757819 114.252147 237.757819 119.520493 
C 237.757819 124.788839 238.239551 129.842116 239.096918 133.567399 
C 239.954285 137.292682 241.117287 139.385818 242.329787 139.385818 
L 242.329787 139.385818 
z
" clip-path="url(#pb41c9e1f4a)" style="fill: none; stroke: #1f2937; stroke-width: 1.6; stroke-linejoin: miter"/>
   </g>
   <g id="patch_53">
    <path d="M 399.082979 188.393394 
C 400.295479 188.393394 401.458481 186.300258 402.315848 182.574975 
C 403.173215 178.849692 403.654947 173.796414 403.654947 168.528068 
C 403.654947 163.259723 403.173215 158.206445 402.315848 154.481162 
C 401.458481 150.755879 400.295479 148.662743 399.082979 148.662743 
C 397.870479 148.662743 396.707476 150.755879 395.850109 154.481162 
C 394.992742 158.206445 394.511011 163.259723 394.511011 168.528068 
C 394.511011 173.796414 394.992742 178.849692 395.850109 182.574975 
C 396.707476 186.300258 397.870479 188.393394 399.082979 188.393394 
L 399.082979 188.393394 
z
" clip-path="url(#pb41c9e1f4a)" style="fill: none; stroke: #1f2937; stroke-width: 1.6; stroke-linejoin: miter"/>
   </g>
   <g id="patch_54">
    <path d="M 555.83617 210.152535 
C 557.04867 210.152535 558.211673 208.059399 559.06904 204.334116 
C 559.926407 200.608833 560.408138 195.555556 560.408138 190.28721 
C 560.408138 185.018864 559.926407 179.965587 559.06904 176.240304 
C 558.211673 172.515021 557.04867 170.421885 555.83617 170.421885 
C 554.62367 170.421885 553.460668 172.515021 552.603301 176.240304 
C 551.745934 179.965587 551.264202 185.018864 551.264202 190.28721 
C 551.264202 195.555556 551.745934 200.608833 552.603301 204.334116 
C 553.460668 208.059399 554.62367 210.152535 555.83617 210.152535 
L 555.83617 210.152535 
z
" clip-path="url(#pb41c9e1f4a)" style="fill: none; stroke: #1f2937; stroke-width: 1.6; stroke-linejoin: miter"/>
   </g>
   <g id="text_3">
    <text style="font-weight: 700; font-size: 9.5px; font-family: 'Noto Naskh Arabic', 'DejaVu Sans'; text-anchor: middle; fill: #1f2937" x="85.576596" y="126.794422" transform="rotate(-0 85.576596 126.794422)">A</text>
   </g>
   <g id="text_4">
    <text style="font-weight: 700; font-size: 9.5px; font-family: 'Noto Naskh Arabic', 'DejaVu Sans'; text-anchor: middle; fill: #1f2937" x="242.329787" y="93.632168" transform="rotate(-0 242.329787 93.632168)">B</text>
   </g>
   <g id="text_5">
    <text style="font-weight: 700; font-size: 9.5px; font-family: 'Noto Naskh Arabic', 'DejaVu Sans'; text-anchor: middle; fill: #1f2937" x="399.082979" y="142.639743" transform="rotate(-0 399.082979 142.639743)">C</text>
   </g>
   <g id="text_6">
    <text style="font-weight: 700; font-size: 9.5px; font-family: 'Noto Naskh Arabic', 'DejaVu Sans'; text-anchor: middle; fill: #1f2937" x="555.83617" y="164.398885" transform="rotate(-0 555.83617 164.398885)">D</text>
   </g>
  </g>
 </g>
 <defs>
  <clipPath id="pb41c9e1f4a">
   <rect x="7.2" y="25.933" width="613.95" height="307.217"/>
  </clipPath>
 </defs>
</svg>
