<?xml version="1.0" encoding="utf-8" standalone="no"?>
<!DOCTYPE svg PUBLIC "-//W3C//DTD SVG 1.1//EN"
  "http://www.w3.org/Graphics/SVG/1.1/DTD/svg11.dtd">
<svg xmlns:xlink="http://www.w3.org/1999/xlink" width="628.35pt" height="340.35pt" viewBox="0 0 628.35 340.35" xmlns="http://www.w3.org/2000/svg" version="1.1">
 <metadata>
  <rdf:RDF xmlns:dc="http://purl.org/dc/elements/1.1/" xmlns:cc="http://creativecommons.org/ns#" xmlns:rdf="http://www.w3.org/1999/02/22-rdf-syntax-ns#">
   <cc:Work>
    <dc:type rdf:resource="http://purl.org/dc/dcmitype/StillImage"/>
    <dc:date>2026-07-19T00:33:10.198703</dc:date>
    <dc:format>image/svg+xml</dc:format>
    <dc:creator>
     <cc:Agent>
      <dc:title>Matplotlib v3.11.1, https://matplotlib.org/</dc:title>
     </cc:Agent>
    </dc:creator>
   </cc:Work>
  </rdf:RDF>
 </metadata>
 <defs>
  <style type="text/css">*{stroke-linejoin: round; stroke-linecap: butt}</style>
 </defs>
 <g id="figure_1">
  <g id="patch_1">
   <path d="M 0 340.35 
L 628.35 340.35 
L 628.35 0 
L 0 0 
z
" style="fill: #ffffff"/>
  </g>
  <g id="axes_1">
   <g id="patch_2">
    <path d="M 7.2 333.15 
L 621.15 333.15 
L 621.15 25.933 
L 7.2 25.933 
z
" style="fill: #ffffff"/>
   </g>
   <g id="matplotlib.axis_1"/>
   <g id="matplotlib.axis_2"/>
   <g id="patch_3">
    <path d="M 7.2 333.15 
L 7.2 25.933 
" style="fill: none; stroke: #1f2937; stroke-width: 0.8; stroke-linejoin: miter; stroke-linecap: square"/>
   </g>
   <g id="patch_4">
    <path d="M 7.2 333.15 
L 621.15 333.15 
" style="fill: none; stroke: #1f2937; stroke-width: 0.8; stroke-linejoin: miter; stroke-linecap: square"/>
   </g>
   <g id="line2d_1">
    <path d="M 20.262766 295.864295 
L 20.262766 282.483221 
" clip-path="url(#p110254ca82)" style="fill: none; stroke: #b91c1c; stroke-width: 1.1; stroke-linecap: round"/>
   </g>
   <g id="line2d_2">
    <path d="M 33.325532 275.514908 
L 33.325532 255.651449 
" clip-path="url(#p110254ca82)" style="fill: none; stroke: #1f8a56; stroke-width: 1.1; stroke-linecap: round"/>
   </g>
   <g id="line2d_3">
    <path d="M 46.388298 260.258466 
L 46.388298 207.089609 
" clip-path="url(#p110254ca82)" style="fill: none; stroke: #1f8a56; stroke-width: 1.1; stroke-linecap: round"/>
   </g>
   <g id="line2d_4">
    <path d="M 59.451064 221.688295 
L 59.451064 207.840767 
" clip-path="url(#p110254ca82)" style="fill: none; stroke: #1f8a56; stroke-width: 1.1; stroke-linecap: round"/>
   </g>
   <g id="line2d_5">
    <path d="M 72.51383 226.313262 
L 72.51383 187.613483 
" clip-path="url(#p110254ca82)" style="fill: none; stroke: #1f8a56; stroke-width: 1.1; stroke-linecap: round"/>
   </g>
   <g id="line2d_6">
    <path d="M 85.576596 202.28188 
L 85.576596 166.872265 
" clip-path="url(#p110254ca82)" style="fill: none; stroke: #1f8a56; stroke-width: 1.1; stroke-linecap: round"/>
   </g>
   <g id="line2d_7">
    <path d="M 98.639362 192.50158 
L 98.639362 169.106436 
" clip-path="url(#p110254ca82)" style="fill: none; stroke: #b91c1c; stroke-width: 1.1; stroke-linecap: round"/>
   </g>
   <g id="line2d_8">
    <path d="M 111.702128 216.240487 
L 111.702128 181.684558 
" clip-path="url(#p110254ca82)" style="fill: none; stroke: #b91c1c; stroke-width: 1.1; stroke-linecap: round"/>
   </g>
   <g id="line2d_9">
    <path d="M 124.764894 222.799495 
L 124.764894 212.634731 
" clip-path="url(#p110254ca82)" style="fill: none; stroke: #b91c1c; stroke-width: 1.1; stroke-linecap: round"/>
   </g>
   <g id="line2d_10">
    <path d="M 137.82766 241.552569 
L 137.82766 218.017612 
" clip-path="url(#p110254ca82)" style="fill: none; stroke: #b91c1c; stroke-width: 1.1; stroke-linecap: round"/>
   </g>
   <g id="line2d_11">
    <path d="M 150.890426 253.299039 
L 150.890426 212.201131 
" clip-path="url(#p110254ca82)" style="fill: none; stroke: #b91c1c; stroke-width: 1.1; stroke-linecap: round"/>
   </g>
   <g id="line2d_12">
    <path d="M 163.953191 264.288731 
L 163.953191 243.631334 
" clip-path="url(#p110254ca82)" style="fill: none; stroke: #b91c1c; stroke-width: 1.1; stroke-linecap: round"/>
   </g>
   <g id="line2d_13">
    <path d="M 177.015957 258.015336 
L 177.015957 220.823504 
" clip-path="url(#p110254ca82)" style="fill: none; stroke: #1f8a56; stroke-width: 1.1; stroke-linecap: round"/>
   </g>
   <g id="line2d_14">
    <path d="M 190.078723 233.427387 
L 190.078723 198.230411 
" clip-path="url(#p110254ca82)" style="fill: none; stroke: #1f8a56; stroke-width: 1.1; stroke-linecap: round"/>
   </g>
   <g id="line2d_15">
    <path d="M 203.141489 208.531402 
L 203.141489 181.421726 
" clip-path="url(#p110254ca82)" style="fill: none; stroke: #1f8a56; stroke-width: 1.1; stroke-linecap: round"/>
   </g>
   <g id="line2d_16">
    <path d="M 216.204255 191.153105 
L 216.204255 155.712898 
" clip-path="url(#p110254ca82)" style="fill: none; stroke: #1f8a56; stroke-width: 1.1; stroke-linecap: round"/>
   </g>
   <g id="line2d_17">
    <path d="M 229.267021 164.867628 
L 229.267021 153.640882 
" clip-path="url(#p110254ca82)" style="fill: none; stroke: #b91c1c; stroke-width: 1.1; stroke-linecap: round"/>
   </g>
   <g id="line2d_18">
    <path d="M 242.329787 175.796133 
L 242.329787 133.710011 
" clip-path="url(#p110254ca82)" style="fill: none; stroke: #1f8a56; stroke-width: 1.1; stroke-linecap: round"/>
   </g>
   <g id="line2d_19">
    <path d="M 255.392553 169.736428 
L 255.392553 125.31991 
" clip-path="url(#p110254ca82)" style="fill: none; stroke: #b91c1c; stroke-width: 1.1; stroke-linecap: round"/>
   </g>
   <g id="line2d_20">
    <path d="M 268.455319 187.656698 
L 268.455319 180.618084 
" clip-path="url(#p110254ca82)" style="fill: none; stroke: #b91c1c; stroke-width: 1.1; stroke-linecap: round"/>
   </g>
   <g id="line2d_21">
    <path d="M 281.518085 206.250605 
L 281.518085 187.533628 
" clip-path="url(#p110254ca82)" style="fill: none; stroke: #b91c1c; stroke-width: 1.1; stroke-linecap: round"/>
   </g>
   <g id="line2d_22">
    <path d="M 294.580851 232.735839 
L 294.580851 189.245425 
" clip-path="url(#p110254ca82)" style="fill: none; stroke: #b91c1c; stroke-width: 1.1; stroke-linecap: round"/>
   </g>
   <g id="line2d_23">
    <path d="M 307.643617 253.984283 
L 307.643617 214.649478 
" clip-path="url(#p110254ca82)" style="fill: none; stroke: #b91c1c; stroke-width: 1.1; stroke-linecap: round"/>
   </g>
   <g id="line2d_24">
    <path d="M 320.706383 254.242353 
L 320.706383 246.229027 
" clip-path="url(#p110254ca82)" style="fill: none; stroke: #b91c1c; stroke-width: 1.1; stroke-linecap: round"/>
   </g>
   <g id="line2d_25">
    <path d="M 333.769149 254.808287 
L 333.769149 235.432613 
" clip-path="url(#p110254ca82)" style="fill: none; stroke: #b91c1c; stroke-width: 1.1; stroke-linecap: round"/>
   </g>
   <g id="line2d_26">
    <path d="M 346.831915 249.313481 
L 346.831915 231.302208 
" clip-path="url(#p110254ca82)" style="fill: none; stroke: #b91c1c; stroke-width: 1.1; stroke-linecap: round"/>
   </g>
   <g id="line2d_27">
    <path d="M 359.894681 238.884196 
L 359.894681 226.47786 
" clip-path="url(#p110254ca82)" style="fill: none; stroke: #1f8a56; stroke-width: 1.1; stroke-linecap: round"/>
   </g>
   <g id="line2d_28">
    <path d="M 372.957447 235.957595 
L 372.957447 209.927067 
" clip-path="url(#p110254ca82)" style="fill: none; stroke: #1f8a56; stroke-width: 1.1; stroke-linecap: round"/>
   </g>
   <g id="line2d_29">
    <path d="M 386.020213 211.27895 
L 386.020213 192.010824 
" clip-path="url(#p110254ca82)" style="fill: none; stroke: #1f8a56; stroke-width: 1.1; stroke-linecap: round"/>
   </g>
   <g id="line2d_30">
    <path d="M 399.082979 209.221605 
L 399.082979 182.717586 
" clip-path="url(#p110254ca82)" style="fill: none; stroke: #1f8a56; stroke-width: 1.1; stroke-linecap: round"/>
   </g>
   <g id="line2d_31">
    <path d="M 412.145745 204.46993 
L 412.145745 178.008874 
" clip-path="url(#p110254ca82)" style="fill: none; stroke: #b91c1c; stroke-width: 1.1; stroke-linecap: round"/>
   </g>
   <g id="line2d_32">
    <path d="M 425.208511 218.132865 
L 425.208511 192.626455 
" clip-path="url(#p110254ca82)" style="fill: none; stroke: #b91c1c; stroke-width: 1.1; stroke-linecap: round"/>
   </g>
   <g id="line2d_33">
    <path d="M 438.271277 234.137269 
L 438.271277 221.515212 
" clip-path="url(#p110254ca82)" style="fill: none; stroke: #b91c1c; stroke-width: 1.1; stroke-linecap: round"/>
   </g>
   <g id="line2d_34">
    <path d="M 451.334043 252.640742 
L 451.334043 223.676906 
" clip-path="url(#p110254ca82)" style="fill: none; stroke: #b91c1c; stroke-width: 1.1; stroke-linecap: round"/>
   </g>
   <g id="line2d_35">
    <path d="M 464.396809 264.280994 
L 464.396809 256.549819 
" clip-path="url(#p110254ca82)" style="fill: none; stroke: #b91c1c; stroke-width: 1.1; stroke-linecap: round"/>
   </g>
   <g id="line2d_36">
    <path d="M 477.459574 307.407911 
L 477.459574 263.711342 
" clip-path="url(#p110254ca82)" style="fill: none; stroke: #b91c1c; stroke-width: 1.1; stroke-linecap: round"/>
   </g>
   <g id="line2d_37">
    <path d="M 490.52234 307.548583 
L 490.52234 289.542463 
" clip-path="url(#p110254ca82)" style="fill: none; stroke: #1f8a56; stroke-width: 1.1; stroke-linecap: round"/>
   </g>
   <g id="line2d_38">
    <path d="M 503.585106 293.492197 
L 503.585106 275.612839 
" clip-path="url(#p110254ca82)" style="fill: none; stroke: #1f8a56; stroke-width: 1.1; stroke-linecap: round"/>
   </g>
   <g id="line2d_39">
    <path d="M 516.647872 277.497244 
L 516.647872 256.75374 
" clip-path="url(#p110254ca82)" style="fill: none; stroke: #1f8a56; stroke-width: 1.1; stroke-linecap: round"/>
   </g>
   <g id="line2d_40">
    <path d="M 529.710638 268.150787 
L 529.710638 222.351007 
" clip-path="url(#p110254ca82)" style="fill: none; stroke: #1f8a56; stroke-width: 1.1; stroke-linecap: round"/>
   </g>
   <g id="line2d_41">
    <path d="M 542.773404 224.406009 
L 542.773404 211.662229 
" clip-path="url(#p110254ca82)" style="fill: none; stroke: #b91c1c; stroke-width: 1.1; stroke-linecap: round"/>
   </g>
   <g id="line2d_42">
    <path d="M 555.83617 222.17079 
L 555.83617 204.476728 
" clip-path="url(#p110254ca82)" style="fill: none; stroke: #b91c1c; stroke-width: 1.1; stroke-linecap: round"/>
   </g>
   <g id="line2d_43">
    <path d="M 568.898936 233.237839 
L 568.898936 222.010975 
" clip-path="url(#p110254ca82)" style="fill: none; stroke: #b91c1c; stroke-width: 1.1; stroke-linecap: round"/>
   </g>
   <g id="line2d_44">
    <path d="M 581.961702 243.834228 
L 581.961702 224.770889 
" clip-path="url(#p110254ca82)" style="fill: none; stroke: #b91c1c; stroke-width: 1.1; stroke-linecap: round"/>
   </g>
   <g id="line2d_45">
    <path d="M 595.024468 248.212452 
L 595.024468 237.418664 
" clip-path="url(#p110254ca82)" style="fill: none; stroke: #b91c1c; stroke-width: 1.1; stroke-linecap: round"/>
   </g>
   <g id="line2d_46">
    <path d="M 608.087234 259.565005 
L 608.087234 247.2116 
" clip-path="url(#p110254ca82)" style="fill: none; stroke: #b91c1c; stroke-width: 1.1; stroke-linecap: round"/>
   </g>
   <g id="text_1">
    <!-- ​ﻰﻠﻋﻸﻟ ﻂﻤﻨﻟﺍ ﻞﻴﻣ ﻢﻏﺭ ﻲﻃﻮﺒﻫ ﺱﺎﻜﻌﻧﺍ ﻝﺎﻤﺘﺣﺍ -->
    <g style="fill: #b91c1c" transform="translate(241.477867 68.561838) scale(0.095 -0.095)">
     <defs>
      <path id="NotoNaskhArabic-Bold-3" d="M 774 58 
Q 742 717 710 1216 
Q 678 1715 646 2134 
Q 614 2554 576 2950 
Q 538 3347 493 3808 
Q 474 3968 566 4089 
Q 659 4211 822 4281 
Q 986 4352 1178 4352 
Q 1229 4154 1296 3955 
Q 1363 3757 1440 3565 
L 1216 3398 
Q 1229 2867 1222 2035 
Q 1216 1203 1184 109 
L 774 58 
z
" transform="scale(0.015625)"/>
      <path id="NotoNaskhArabic-Bold-8c" d="M 0 58 
Q -51 58 -51 109 
L -51 762 
Q -51 813 0 813 
Q 467 813 793 829 
Q 1120 845 1427 934 
Q 1702 1018 1897 1069 
Q 2093 1120 2202 1146 
Q 2112 1197 2025 1251 
Q 1939 1306 1856 1363 
Q 1651 1504 1513 1558 
Q 1376 1613 1235 1613 
Q 1043 1613 870 1558 
Q 698 1504 480 1363 
Q 422 1421 377 1533 
Q 333 1645 333 1747 
Q 333 2029 582 2205 
Q 832 2381 1210 2381 
Q 1414 2381 1603 2310 
Q 1792 2240 2029 2080 
Q 2317 1882 2560 1763 
Q 2803 1645 3136 1555 
Q 3302 1517 3500 1494 
Q 3699 1472 3936 1472 
L 3603 794 
Q 3405 813 3273 825 
Q 3142 838 2963 826 
Q 2739 806 2483 704 
Q 2227 602 1990 467 
Q 1741 320 1533 237 
Q 1325 154 1107 115 
Q 890 77 624 67 
Q 358 58 0 58 
z
" transform="scale(0.015625)"/>
      <path id="NotoNaskhArabic-Bold-37" d="M 0 58 
Q -51 58 -51 109 
L -51 762 
Q -51 813 0 813 
Q 307 813 566 829 
Q 826 845 992 928 
Q 1120 992 1187 1104 
Q 1254 1216 1357 1421 
Q 1459 1632 1536 1680 
Q 1613 1728 1715 1728 
Q 1869 1728 1971 1638 
Q 1888 1427 1814 1264 
Q 1741 1101 1690 979 
Q 2003 813 2362 813 
Q 2413 813 2413 762 
L 2413 109 
Q 2413 58 2362 58 
Q 1875 58 1434 499 
L 1382 416 
Q 1203 179 883 118 
Q 563 58 0 58 
z
M 1664 2252 
Q 1529 2361 1420 2457 
Q 1312 2553 1222 2649 
Q 1459 2867 1651 3097 
Q 1708 3033 1810 2937 
Q 1913 2841 2054 2700 
Q 1881 2464 1664 2252 
z
M 806 2156 
Q 531 2380 364 2560 
Q 473 2668 582 2780 
Q 691 2892 800 3001 
Q 915 2867 1196 2604 
Q 1036 2374 806 2156 
z
" transform="scale(0.015625)"/>
      <path id="NotoNaskhArabic-Bold-1e4" d="M 2016 0 
Q 1606 0 1257 73 
Q 909 147 685 269 
Q 506 147 346 102 
Q 186 58 0 58 
Q -51 58 -51 109 
L -51 762 
Q -51 813 0 813 
Q 160 813 333 858 
Q 333 870 336 886 
Q 339 902 339 922 
Q 384 1261 573 1597 
Q 762 1933 1018 2131 
Q 1286 2342 1568 2342 
Q 1696 2342 1811 2176 
Q 1862 2093 1929 1942 
Q 1997 1792 2074 1581 
Q 2227 1133 2394 960 
Q 2528 813 2682 813 
Q 2752 813 2752 755 
L 2752 128 
Q 2752 58 2682 58 
Q 2362 58 2106 301 
L 2016 0 
z
M 1818 710 
Q 1606 1133 1549 1664 
Q 979 1440 698 1082 
Q 877 941 1155 851 
Q 1434 762 1818 710 
z
" transform="scale(0.015625)"/>
      <path id="NotoNaskhArabic-Bold-4" d="M 1901 58 
Q 1517 58 1283 186 
Q 1050 314 938 528 
Q 826 742 794 1018 
Q 781 1139 749 1424 
Q 717 1709 681 2073 
Q 646 2438 608 2809 
Q 570 3181 538 3481 
Q 506 3782 486 3930 
Q 845 4166 1248 4352 
Q 1274 3635 1296 2918 
Q 1318 2202 1338 1478 
L 1363 979 
Q 1478 883 1606 848 
Q 1734 813 1914 813 
Q 1952 813 1952 762 
L 1952 109 
Q 1952 58 1901 58 
z
" transform="scale(0.015625)"/>
      <path id="NotoNaskhArabic-Bold-1bd" d="M 1606 -1613 
Q 1030 -1613 729 -1277 
Q 429 -941 429 -301 
Q 429 -134 470 96 
Q 512 326 589 627 
L 870 557 
Q 787 282 787 45 
Q 787 -858 1619 -858 
Q 1971 -858 2243 -797 
Q 2515 -736 2752 -595 
Q 2854 -538 2953 -458 
Q 3053 -378 3155 -288 
L 3014 461 
Q 2957 742 2886 1136 
Q 2816 1530 2742 1955 
Q 2669 2381 2608 2758 
Q 2547 3136 2508 3392 
Q 2470 3648 2470 3699 
Q 2470 3968 2675 4160 
Q 2880 4352 3162 4352 
Q 3219 4134 3283 3939 
Q 3347 3744 3418 3565 
L 3213 3411 
L 3405 1414 
Q 3437 1101 3462 861 
Q 3488 621 3501 406 
Q 3514 192 3514 -45 
Q 3514 -474 3258 -838 
Q 3002 -1203 2566 -1408 
Q 2349 -1510 2109 -1561 
Q 1869 -1613 1606 -1613 
z
" transform="scale(0.015625)"/>
      <path id="NotoNaskhArabic-Bold-554" transform="scale(0.015625)"/>
      <path id="NotoNaskhArabic-Bold-1ea" d="M 0 58 
Q -51 58 -51 109 
L -51 762 
Q -51 813 0 813 
Q 320 813 640 867 
Q 960 922 1139 998 
Q 1075 1146 976 1328 
Q 877 1510 819 1613 
Q 755 1734 710 1833 
Q 666 1933 666 2016 
Q 666 2176 838 2361 
Q 1011 2547 1248 2669 
Q 1293 2470 1347 2217 
Q 1402 1965 1446 1702 
Q 1485 1504 1501 1376 
Q 1517 1248 1517 1184 
Q 1517 1037 1443 822 
Q 1370 608 1267 410 
Q 685 58 0 58 
z
M 902 3052 
Q 576 3321 410 3513 
Q 557 3660 675 3785 
Q 794 3910 890 4025 
Q 960 3948 1075 3833 
Q 1190 3718 1350 3564 
Q 1274 3456 1162 3328 
Q 1050 3200 902 3052 
z
" transform="scale(0.015625)"/>
      <path id="NotoNaskhArabic-Bold-135" d="M 6 58 
Q -51 58 -51 115 
L -51 755 
Q -51 813 6 813 
Q 346 813 627 822 
Q 909 832 1126 870 
L 998 1030 
Q 909 1152 835 1235 
Q 762 1318 691 1382 
Q 640 1434 589 1478 
Q 538 1523 486 1568 
L 371 1485 
Q 198 1670 198 1894 
Q 198 2112 390 2272 
Q 582 2432 915 2554 
Q 1242 2669 1549 2669 
Q 1830 2669 2080 2547 
Q 2330 2426 2470 2208 
Q 2618 1990 2618 1760 
Q 2618 1530 2490 1306 
Q 2362 1082 2118 858 
Q 2291 832 2486 822 
Q 2682 813 2912 813 
Q 2976 813 2976 755 
L 2976 115 
Q 2976 58 2912 58 
Q 2464 58 2105 160 
Q 1747 262 1530 448 
Q 845 58 6 58 
z
M 1626 1062 
Q 1978 1293 1978 1613 
Q 1978 1773 1862 1865 
Q 1747 1958 1574 1958 
Q 1408 1958 1257 1926 
Q 1107 1894 902 1805 
Q 973 1741 1117 1603 
Q 1261 1466 1459 1248 
Q 1498 1203 1539 1158 
Q 1581 1114 1626 1062 
z
" transform="scale(0.015625)"/>
      <path id="NotoNaskhArabic-Bold-175" d="M 0 58 
Q -51 58 -51 109 
L -51 762 
Q -51 813 0 813 
Q 832 813 1293 870 
Q 1741 922 1952 1030 
Q 1882 1178 1728 1347 
Q 1574 1517 1363 1683 
Q 1242 1773 1085 1875 
Q 928 1978 723 2099 
Q 64 2470 64 2778 
Q 64 2906 121 3030 
Q 179 3155 269 3238 
Q 314 3277 515 3376 
Q 717 3475 1008 3606 
Q 1299 3738 1622 3878 
Q 1946 4019 2243 4144 
Q 2541 4269 2746 4352 
Q 2880 4230 2880 4032 
Q 2880 3872 2781 3728 
Q 2682 3584 2534 3514 
Q 2291 3392 2038 3283 
Q 1786 3174 1440 3049 
Q 1094 2925 563 2739 
Q 1011 2630 1401 2371 
Q 1792 2112 2029 1773 
Q 2278 1421 2278 1107 
Q 2278 1050 2272 1037 
Q 2630 813 3046 813 
Q 3104 813 3104 762 
L 3104 109 
Q 3104 58 3046 58 
Q 2470 58 2016 531 
Q 1901 429 1702 326 
Q 1126 58 0 58 
z
" transform="scale(0.015625)"/>
      <path id="NotoNaskhArabic-Bold-f7" d="M 1606 -1613 
Q 1037 -1613 736 -1277 
Q 435 -941 435 -301 
Q 435 32 595 627 
L 877 557 
Q 787 256 787 45 
Q 787 -858 1626 -858 
Q 2131 -858 2486 -726 
Q 2842 -595 3181 -288 
Q 2963 134 2800 444 
Q 2637 755 2637 883 
Q 2637 1408 3283 1728 
Q 3296 1606 3334 1372 
Q 3373 1139 3437 794 
Q 3546 781 3642 771 
Q 3738 762 3821 762 
Q 3949 762 4025 771 
Q 4102 781 4275 832 
Q 4326 922 4448 1229 
Q 4499 1350 4544 1465 
Q 4589 1581 4634 1696 
Q 4698 1875 4928 1875 
Q 5062 1875 5171 1811 
Q 5126 1709 5056 1491 
Q 4986 1274 4896 992 
Q 5139 870 5427 806 
Q 5715 742 6093 704 
Q 6029 845 5955 982 
Q 5882 1120 5811 1261 
Q 5734 1408 5673 1539 
Q 5613 1670 5613 1798 
Q 5613 1952 5785 2141 
Q 5958 2330 6195 2451 
Q 6240 2234 6281 2016 
Q 6323 1798 6368 1587 
Q 6464 1082 6464 909 
Q 6464 806 6422 640 
Q 6381 474 6320 298 
Q 6259 122 6195 0 
Q 5805 0 5395 93 
Q 4986 186 4666 326 
L 4595 186 
Q 4550 102 4314 51 
Q 4192 26 4051 13 
Q 3910 0 3744 0 
Q 3693 0 3638 3 
Q 3584 6 3533 13 
L 3533 -45 
Q 3533 -474 3277 -838 
Q 3021 -1203 2579 -1408 
Q 2362 -1510 2115 -1561 
Q 1869 -1613 1606 -1613 
z
" transform="scale(0.015625)"/>
      <path id="NotoNaskhArabic-Bold-200" d="M 2650 -58 
Q 2221 -45 1821 51 
Q 1421 147 1120 307 
Q 659 58 0 58 
Q -51 58 -51 109 
L -51 774 
Q -51 813 0 813 
Q 122 819 240 819 
Q 358 819 480 826 
Q 282 1088 282 1382 
Q 282 1555 352 1753 
Q 422 1952 544 2128 
Q 666 2304 806 2400 
L 992 3066 
Q 1517 2938 1974 2589 
Q 2432 2240 2701 1754 
Q 2976 1280 2976 800 
Q 2976 653 2886 419 
Q 2797 186 2650 -58 
z
M 1171 979 
Q 1299 1043 1382 1196 
Q 1466 1350 1466 1536 
Q 1466 1690 1363 1808 
Q 1261 1926 1146 1926 
Q 915 1926 742 1658 
Q 710 1606 675 1536 
Q 640 1466 608 1389 
Q 730 1261 870 1158 
Q 1011 1056 1171 979 
z
M 2618 640 
Q 2509 928 2393 1152 
Q 2278 1376 2144 1549 
Q 2074 1651 1990 1734 
Q 1907 1818 1818 1888 
Q 1882 1722 1882 1517 
Q 1882 1101 1683 800 
Q 1850 755 2086 716 
Q 2323 678 2618 640 
z
" transform="scale(0.015625)"/>
      <path id="NotoNaskhArabic-Bold-25" d="M 0 58 
Q -51 58 -51 109 
L -51 762 
Q -51 813 0 813 
Q 416 813 627 966 
Q 710 1024 774 1145 
Q 838 1267 922 1427 
Q 1024 1632 1101 1680 
Q 1178 1728 1280 1728 
Q 1427 1728 1536 1638 
Q 1466 1478 1392 1312 
Q 1318 1146 1248 979 
Q 1562 813 1926 813 
Q 1978 813 1978 762 
L 1978 109 
Q 1978 58 1926 58 
Q 1440 58 998 499 
Q 960 435 925 384 
Q 890 333 858 288 
Q 774 192 550 125 
Q 326 58 0 58 
z
M 1088 -1427 
Q 915 -1286 793 -1171 
Q 672 -1056 588 -966 
Q 716 -838 838 -713 
Q 960 -589 1075 -454 
Q 1241 -646 1536 -915 
Q 1465 -1017 1350 -1148 
Q 1235 -1280 1088 -1427 
z
" transform="scale(0.015625)"/>
      <path id="NotoNaskhArabic-Bold-219" d="M 1248 -1248 
Q 1171 -1248 1011 -1174 
Q 851 -1101 668 -982 
Q 486 -864 326 -730 
L 429 -461 
Q 602 -506 778 -528 
Q 954 -550 1133 -550 
Q 1536 -550 1862 -380 
Q 2189 -211 2368 64 
Q 2093 83 1894 102 
Q 1696 122 1574 147 
Q 838 307 838 1018 
Q 838 1370 972 1712 
Q 1107 2054 1325 2266 
Q 1549 2477 1766 2477 
Q 2029 2477 2262 2240 
Q 2496 2003 2650 1626 
Q 2720 1446 2768 1241 
Q 2816 1037 2835 813 
L 3181 813 
Q 3232 813 3232 762 
L 3232 109 
Q 3232 58 3181 58 
L 2784 58 
Q 2669 -365 2419 -669 
Q 2170 -973 1843 -1120 
Q 1555 -1248 1248 -1248 
z
M 2419 819 
Q 2285 1254 2077 1484 
Q 1869 1715 1626 1715 
Q 1504 1715 1401 1651 
Q 1299 1587 1235 1498 
Q 1178 1402 1178 1293 
Q 1178 941 1805 858 
Q 1952 838 2419 819 
z
" transform="scale(0.015625)"/>
      <path id="NotoNaskhArabic-Bold-126" d="M 0 58 
Q -51 58 -51 109 
L -51 762 
Q -51 813 0 813 
L 531 819 
L 659 819 
Q 730 915 794 1008 
Q 858 1101 922 1184 
Q 762 1946 662 2422 
Q 563 2899 508 3164 
Q 454 3430 435 3552 
Q 416 3674 416 3725 
Q 416 3987 605 4169 
Q 794 4352 1069 4352 
Q 1133 4134 1197 3939 
Q 1261 3744 1331 3565 
L 1126 3411 
Q 1152 3110 1171 2809 
Q 1190 2509 1216 2208 
Q 1229 2054 1241 1907 
Q 1254 1760 1261 1606 
Q 2170 2669 2803 2669 
Q 3066 2669 3354 2512 
Q 3642 2355 3872 2074 
Q 4109 1786 4109 1626 
Q 4109 1126 3683 777 
Q 3258 429 2362 243 
Q 1914 154 1325 106 
Q 736 58 0 58 
z
M 1158 832 
Q 1190 832 1321 838 
Q 1453 845 1632 854 
Q 1811 864 1990 880 
Q 2170 896 2291 915 
Q 2458 947 2624 979 
Q 2790 1011 3040 1075 
Q 3290 1139 3693 1254 
Q 3475 1498 3305 1635 
Q 3136 1773 2985 1830 
Q 2835 1888 2650 1888 
Q 2061 1888 1158 832 
z
" transform="scale(0.015625)"/>
      <path id="NotoNaskhArabic-Bold-23f" d="M 1830 -1613 
Q 1152 -1613 793 -1277 
Q 435 -941 435 -301 
Q 435 32 595 627 
L 877 557 
Q 787 256 787 45 
Q 787 -397 1059 -627 
Q 1331 -858 1901 -858 
Q 2240 -858 2598 -816 
Q 2957 -774 3283 -710 
Q 3450 -672 3610 -627 
Q 3770 -582 3898 -531 
Q 3757 -474 3561 -374 
Q 3366 -275 3187 -163 
Q 3008 -51 2893 32 
Q 2726 160 2726 218 
Q 2726 282 2771 397 
Q 2816 512 2877 633 
Q 2938 755 2992 838 
Q 3046 922 3066 922 
Q 3354 870 3699 841 
Q 4045 813 4454 813 
Q 4525 813 4525 749 
L 4525 122 
Q 4525 58 4454 58 
Q 4320 58 4137 70 
Q 3955 83 3779 108 
Q 3603 134 3475 166 
Q 3738 45 3875 -25 
Q 4013 -96 4070 -131 
Q 4128 -166 4147 -198 
Q 4192 -243 4208 -336 
Q 4224 -429 4224 -518 
Q 4224 -678 4057 -848 
Q 3891 -1018 3600 -1171 
Q 3309 -1325 2925 -1440 
Q 2349 -1613 1830 -1613 
z
M 2355 -2630 
Q 2080 -2406 1913 -2227 
Q 2118 -2048 2342 -1779 
Q 2361 -1798 2460 -1897 
Q 2560 -1997 2739 -2182 
Q 2675 -2278 2579 -2390 
Q 2483 -2502 2355 -2630 
z
M 1497 -2726 
Q 1337 -2598 1231 -2495 
Q 1126 -2393 1056 -2317 
Q 1164 -2208 1273 -2096 
Q 1382 -1984 1491 -1875 
Q 1568 -1971 1888 -2272 
Q 1734 -2502 1497 -2726 
z
" transform="scale(0.015625)"/>
      <path id="NotoNaskhArabic-Bold-d3" d="M 653 -1248 
Q 544 -1248 304 -1107 
Q 64 -966 -218 -730 
L -115 -461 
Q 243 -550 531 -550 
Q 1005 -550 1331 -313 
Q 1658 -77 1805 371 
Q 1760 467 1705 566 
Q 1651 666 1587 762 
Q 1402 1050 1254 1312 
Q 1107 1574 1107 1779 
Q 1107 1965 1254 2147 
Q 1402 2330 1638 2451 
Q 1677 2317 1731 2137 
Q 1786 1958 1846 1782 
Q 1907 1606 1952 1472 
Q 2035 1235 2089 1004 
Q 2144 774 2144 570 
Q 2144 70 1952 -349 
Q 1760 -768 1421 -1011 
Q 1082 -1248 653 -1248 
z
" transform="scale(0.015625)"/>
      <path id="NotoNaskhArabic-Bold-13e" d="M 0 58 
Q -51 58 -51 109 
L -51 762 
Q -51 813 0 813 
L 499 813 
Q 365 1005 365 1210 
Q 365 1408 441 1632 
Q 518 1856 652 2057 
Q 787 2259 947 2387 
Q 1190 2579 1440 2579 
Q 1875 2579 2406 1990 
L 2272 1728 
Q 2074 1805 1907 1840 
Q 1741 1875 1600 1875 
Q 1376 1875 1197 1827 
Q 1018 1779 819 1670 
Q 832 1434 921 1245 
Q 1011 1056 1190 928 
Q 1267 877 1338 838 
Q 1843 870 2240 953 
Q 2637 1037 3040 1197 
Q 3091 1152 3116 1056 
Q 3142 960 3142 883 
Q 3142 730 3072 602 
Q 3002 474 2874 410 
Q 2746 346 2259 250 
Q 1766 147 1235 102 
Q 704 58 0 58 
z
M 1401 3065 
Q 1075 3334 909 3526 
Q 1056 3673 1174 3798 
Q 1293 3923 1389 4038 
Q 1459 3961 1574 3846 
Q 1689 3731 1849 3577 
Q 1773 3469 1661 3341 
Q 1549 3213 1401 3065 
z
" transform="scale(0.015625)"/>
      <path id="NotoNaskhArabic-Bold-1e3" d="M 570 -1965 
Q 570 -1664 554 -1296 
Q 538 -928 506 -486 
Q 467 -45 451 240 
Q 435 525 435 653 
Q 435 723 493 896 
Q 525 979 576 1107 
Q 627 1235 704 1402 
Q 723 1434 857 1539 
Q 992 1645 1181 1776 
Q 1370 1907 1542 2010 
Q 1811 2157 2054 2249 
Q 2298 2342 2477 2342 
Q 2592 2342 2678 2227 
Q 2765 2112 2842 1946 
Q 2874 1862 2912 1769 
Q 2950 1677 2982 1581 
Q 3053 1382 3139 1209 
Q 3226 1037 3328 928 
Q 3437 813 3590 813 
Q 3661 813 3661 755 
L 3661 128 
Q 3661 58 3590 58 
Q 3277 58 3014 301 
L 2931 0 
Q 2445 0 2064 93 
Q 1683 186 1462 362 
Q 1242 538 1242 774 
Q 1242 998 1318 1216 
Q 1242 1171 1117 1081 
Q 992 992 819 864 
Q 870 531 928 182 
Q 986 -166 1069 -672 
Q 1120 -979 1158 -1212 
Q 1197 -1446 1216 -1600 
Q 877 -1856 570 -1965 
z
M 2726 710 
Q 2515 1133 2458 1664 
Q 1920 1453 1606 1082 
Q 1939 806 2726 710 
z
" transform="scale(0.015625)"/>
      <path id="NotoNaskhArabic-Bold-1e5" d="M 2349 0 
Q 1920 0 1488 99 
Q 1056 198 755 358 
Q 602 198 429 128 
Q 256 58 0 58 
Q -51 58 -51 109 
L -51 762 
Q -51 813 0 813 
Q 525 813 774 1286 
Q 890 1517 982 1680 
Q 1075 1843 1146 1939 
Q 1306 2157 1446 2249 
Q 1587 2342 1773 2342 
Q 2003 2342 2224 2102 
Q 2445 1862 2586 1466 
Q 2726 1082 2726 723 
Q 2726 557 2611 339 
Q 2496 122 2349 0 
z
M 2138 704 
Q 2112 941 2035 1142 
Q 1958 1344 1862 1466 
Q 1760 1587 1677 1587 
Q 1536 1587 1427 1472 
Q 1325 1363 1120 960 
Q 1325 870 1577 803 
Q 1830 736 2138 704 
z
" transform="scale(0.015625)"/>
      <path id="NotoNaskhArabic-Bold-240" d="M 0 58 
Q -51 58 -51 109 
L -51 762 
Q -51 813 0 813 
Q 307 813 566 829 
Q 826 845 992 928 
Q 1120 992 1187 1104 
Q 1254 1216 1357 1421 
Q 1459 1632 1536 1680 
Q 1613 1728 1715 1728 
Q 1869 1728 1971 1638 
Q 1888 1427 1814 1264 
Q 1741 1101 1690 979 
Q 2003 813 2362 813 
Q 2413 813 2413 762 
L 2413 109 
Q 2413 58 2362 58 
Q 1875 58 1434 499 
L 1382 416 
Q 1203 179 883 118 
Q 563 58 0 58 
z
M 1651 -1235 
Q 1376 -1011 1209 -832 
Q 1414 -653 1638 -384 
Q 1657 -403 1756 -502 
Q 1856 -602 2035 -787 
Q 1971 -883 1875 -995 
Q 1779 -1107 1651 -1235 
z
M 793 -1331 
Q 633 -1203 527 -1100 
Q 422 -998 352 -922 
Q 460 -813 569 -701 
Q 678 -589 787 -480 
Q 864 -576 1184 -877 
Q 1030 -1107 793 -1331 
z
" transform="scale(0.015625)"/>
      <path id="NotoNaskhArabic-Bold-1be" d="M 1606 -1613 
Q 1030 -1613 729 -1277 
Q 429 -941 429 -301 
Q 429 -134 470 96 
Q 512 326 589 627 
L 870 557 
Q 787 282 787 45 
Q 787 -858 1619 -858 
Q 1984 -858 2262 -794 
Q 2541 -730 2784 -576 
Q 2970 -467 3155 -288 
L 3014 461 
Q 2989 608 2915 1014 
Q 2842 1421 2726 2086 
Q 2694 2291 2652 2537 
Q 2611 2784 2569 3024 
Q 2528 3264 2499 3446 
Q 2470 3629 2470 3699 
Q 2470 3968 2675 4160 
Q 2880 4352 3162 4352 
Q 3219 4134 3283 3939 
Q 3347 3744 3418 3565 
L 3213 3411 
Q 3270 2810 3331 2198 
Q 3392 1587 3450 973 
Q 3718 813 4000 813 
Q 4058 813 4058 762 
L 4058 109 
Q 4058 58 4000 58 
Q 3878 58 3760 86 
Q 3642 115 3507 192 
L 3514 -45 
Q 3514 -474 3258 -838 
Q 3002 -1203 2566 -1408 
Q 2349 -1510 2109 -1561 
Q 1869 -1613 1606 -1613 
z
" transform="scale(0.015625)"/>
      <path id="NotoNaskhArabic-Bold-1c1" d="M 0 58 
Q -51 58 -51 109 
L -51 762 
Q -51 813 0 813 
Q 282 813 672 960 
Q 646 1146 624 1334 
Q 602 1523 570 1709 
Q 544 1894 441 2448 
Q 339 3002 173 3930 
Q 339 4045 534 4147 
Q 730 4250 934 4352 
Q 947 3827 960 3356 
Q 973 2886 986 2477 
Q 998 2067 1004 1718 
Q 1011 1370 1011 1069 
Q 1011 634 762 256 
Q 698 166 490 112 
Q 282 58 0 58 
z
" transform="scale(0.015625)"/>
      <path id="NotoNaskhArabic-Bold-1e9" d="M 0 58 
Q -51 58 -51 109 
L -51 762 
Q -51 813 0 813 
Q 416 813 627 966 
Q 710 1024 774 1145 
Q 838 1267 922 1427 
Q 1024 1632 1101 1680 
Q 1178 1728 1280 1728 
Q 1427 1728 1536 1638 
Q 1466 1478 1392 1312 
Q 1318 1146 1248 979 
Q 1562 813 1926 813 
Q 1978 813 1978 762 
L 1978 109 
Q 1978 58 1926 58 
Q 1440 58 998 499 
Q 960 435 925 384 
Q 890 333 858 288 
Q 774 192 550 125 
Q 326 58 0 58 
z
M 966 2284 
Q 640 2553 474 2745 
Q 621 2892 739 3017 
Q 858 3142 954 3257 
Q 1024 3180 1139 3065 
Q 1254 2950 1414 2796 
Q 1338 2688 1226 2560 
Q 1114 2432 966 2284 
z
" transform="scale(0.015625)"/>
      <path id="NotoNaskhArabic-Bold-124" d="M 2573 0 
Q 2336 0 2038 13 
Q 1741 26 1488 48 
Q 1235 70 1120 102 
Q 1037 128 883 221 
Q 730 314 554 448 
Q 378 582 218 723 
L 314 998 
Q 922 851 1357 787 
Q 1421 870 1485 950 
Q 1549 1030 1613 1114 
Q 1549 1395 1494 1664 
Q 1440 1933 1389 2189 
Q 1312 2566 1245 2915 
Q 1178 3264 1114 3578 
Q 1107 3616 1104 3654 
Q 1101 3693 1101 3725 
Q 1101 3987 1289 4169 
Q 1478 4352 1754 4352 
Q 1811 4134 1875 3939 
Q 1939 3744 2010 3565 
L 1805 3411 
Q 1830 3123 1852 2835 
Q 1875 2547 1894 2253 
Q 1907 2074 1923 1891 
Q 1939 1709 1946 1523 
Q 2867 2560 3450 2560 
Q 3610 2560 3798 2470 
Q 3987 2381 4176 2233 
Q 4365 2086 4518 1901 
Q 4742 1632 4742 1446 
Q 4742 1210 4678 1037 
Q 5018 813 5434 813 
Q 5491 813 5491 762 
L 5491 109 
Q 5491 58 5434 58 
Q 5139 58 4848 189 
Q 4557 320 4333 557 
Q 4134 384 3846 259 
Q 3558 134 3228 67 
Q 2899 0 2573 0 
z
M 2637 704 
Q 3091 704 3494 809 
Q 3898 915 4378 1146 
Q 3802 1805 3290 1805 
Q 2733 1805 1811 736 
Q 2022 723 2230 713 
Q 2438 704 2637 704 
z
" transform="scale(0.015625)"/>
      <path id="NotoNaskhArabic-Bold-2e9" d="M 410 19 
L 378 307 
Q 704 397 937 470 
Q 1171 544 1344 621 
Q 1510 691 1635 768 
Q 1760 845 1875 947 
Q 1658 1402 1379 1776 
Q 1101 2150 742 2490 
L 506 2490 
Q 339 2662 278 2793 
Q 218 2925 218 3072 
Q 218 3264 314 3376 
Q 410 3488 634 3558 
Q 1274 3149 1901 1786 
Q 1933 1715 1987 1574 
Q 2042 1434 2118 1222 
Q 2304 1498 2416 1821 
Q 2528 2144 2592 2573 
Q 2637 2854 2656 3190 
Q 2675 3526 2675 3923 
Q 2733 3955 2816 4009 
Q 2899 4064 3008 4134 
Q 3194 4256 3354 4352 
Q 3347 3501 3360 2665 
Q 3373 1830 3386 992 
Q 3546 896 3699 854 
Q 3853 813 4090 813 
Q 4147 813 4147 762 
L 4147 109 
Q 4147 58 4090 58 
Q 3219 58 3117 634 
Q 3059 992 3021 1651 
Q 3002 1901 2986 2109 
Q 2970 2317 2957 2477 
L 2938 2310 
Q 2906 1920 2864 1645 
Q 2822 1370 2784 1222 
Q 2624 678 2413 419 
Q 2202 160 1875 122 
Q 1498 77 1133 54 
Q 768 32 410 19 
z
M 121 3616 
L 102 3885 
L 332 4019 
Q 128 4096 128 4269 
Q 128 4384 198 4499 
Q 268 4614 374 4694 
Q 480 4774 576 4774 
Q 812 4774 812 4486 
Q 812 4390 787 4339 
L 659 4358 
L 659 4378 
Q 659 4435 582 4435 
Q 441 4435 358 4275 
Q 473 4160 678 4160 
Q 729 4160 793 4166 
Q 857 4173 928 4186 
L 902 3904 
Q 672 3853 515 3798 
Q 358 3744 121 3616 
z
" transform="scale(0.015625)"/>
      <path id="NotoNaskhArabic-Bold-136" d="M 0 58 
Q -51 58 -51 109 
L -51 762 
Q -51 813 0 813 
L 499 813 
Q 365 1005 365 1210 
Q 365 1408 441 1632 
Q 518 1856 652 2057 
Q 787 2259 947 2387 
Q 1190 2579 1440 2579 
Q 1875 2579 2406 1990 
L 2272 1728 
Q 2074 1805 1907 1840 
Q 1741 1875 1600 1875 
Q 1376 1875 1197 1827 
Q 1018 1779 819 1670 
Q 832 1434 921 1245 
Q 1011 1056 1190 928 
Q 1267 877 1338 838 
Q 1843 870 2240 953 
Q 2637 1037 3040 1197 
Q 3091 1152 3116 1056 
Q 3142 960 3142 883 
Q 3142 730 3072 602 
Q 3002 474 2874 410 
Q 2746 346 2259 250 
Q 1766 147 1235 102 
Q 704 58 0 58 
z
" transform="scale(0.015625)"/>
      <path id="NotoNaskhArabic-Bold-1bf" d="M 0 58 
Q -51 58 -51 109 
L -51 762 
Q -51 813 0 813 
Q 154 813 304 845 
Q 454 877 595 934 
Q 454 1830 307 3059 
Q 282 3264 259 3481 
Q 237 3699 211 3930 
Q 384 4058 576 4160 
Q 768 4262 973 4352 
Q 966 4115 956 3696 
Q 947 3277 937 2768 
Q 928 2259 922 1734 
L 922 992 
Q 1190 813 1619 813 
Q 1677 813 1677 762 
L 1677 109 
Q 1677 58 1619 58 
Q 1088 58 832 282 
Q 691 192 470 125 
Q 250 58 0 58 
z
" transform="scale(0.015625)"/>
      <path id="NotoNaskhArabic-Bold-235" d="M 1830 -1613 
Q 1152 -1613 793 -1277 
Q 435 -941 435 -301 
Q 435 32 595 627 
L 877 557 
Q 787 256 787 45 
Q 787 -397 1059 -627 
Q 1331 -858 1901 -858 
Q 2240 -858 2598 -816 
Q 2957 -774 3283 -710 
Q 3450 -672 3610 -627 
Q 3770 -582 3898 -531 
Q 3757 -474 3561 -374 
Q 3366 -275 3187 -163 
Q 3008 -51 2893 32 
Q 2726 160 2726 218 
Q 2726 282 2771 397 
Q 2816 512 2877 633 
Q 2938 755 2992 838 
Q 3046 922 3066 922 
Q 3354 870 3699 841 
Q 4045 813 4454 813 
Q 4525 813 4525 749 
L 4525 122 
Q 4525 58 4454 58 
Q 4320 58 4137 70 
Q 3955 83 3779 108 
Q 3603 134 3475 166 
Q 3738 45 3875 -25 
Q 4013 -96 4070 -131 
Q 4128 -166 4147 -198 
Q 4192 -243 4208 -336 
Q 4224 -429 4224 -518 
Q 4224 -678 4057 -848 
Q 3891 -1018 3600 -1171 
Q 3309 -1325 2925 -1440 
Q 2349 -1613 1830 -1613 
z
" transform="scale(0.015625)"/>
     </defs>
     <use xlink:href="#NotoNaskhArabic-Bold-3"/>
     <use xlink:href="#NotoNaskhArabic-Bold-8c" transform="translate(28.40625 0)"/>
     <use xlink:href="#NotoNaskhArabic-Bold-37" transform="translate(93.3125 0)"/>
     <use xlink:href="#NotoNaskhArabic-Bold-1e4" transform="translate(129.3125 0)"/>
     <use xlink:href="#NotoNaskhArabic-Bold-4" transform="translate(170.609375 0)"/>
     <use xlink:href="#NotoNaskhArabic-Bold-1bd" transform="translate(199.40625 0)"/>
     <use xlink:href="#NotoNaskhArabic-Bold-554" transform="translate(260.609375 0)"/>
     <use xlink:href="#NotoNaskhArabic-Bold-3" transform="translate(282.703125 0)"/>
     <use xlink:href="#NotoNaskhArabic-Bold-1ea" transform="translate(311.109375 0)"/>
     <use xlink:href="#NotoNaskhArabic-Bold-135" transform="translate(338.609375 0)"/>
     <use xlink:href="#NotoNaskhArabic-Bold-175" transform="translate(383.40625 0)"/>
     <use xlink:href="#NotoNaskhArabic-Bold-4" transform="translate(430.109375 0)"/>
     <use xlink:href="#NotoNaskhArabic-Bold-f7" transform="translate(458.90625 0)"/>
     <use xlink:href="#NotoNaskhArabic-Bold-554" transform="translate(565 0)"/>
     <use xlink:href="#NotoNaskhArabic-Bold-200" transform="translate(587.09375 0)"/>
     <use xlink:href="#NotoNaskhArabic-Bold-25" transform="translate(638.6875 0)"/>
     <use xlink:href="#NotoNaskhArabic-Bold-219" transform="translate(667.890625 0)"/>
     <use xlink:href="#NotoNaskhArabic-Bold-126" transform="translate(716.6875 0)"/>
     <use xlink:href="#NotoNaskhArabic-Bold-23f" transform="translate(785.984375 0)"/>
     <use xlink:href="#NotoNaskhArabic-Bold-554" transform="translate(854.984375 0)"/>
     <use xlink:href="#NotoNaskhArabic-Bold-d3" transform="translate(877.078125 0)"/>
     <use xlink:href="#NotoNaskhArabic-Bold-13e" transform="translate(914.78125 0)"/>
     <use xlink:href="#NotoNaskhArabic-Bold-1e3" transform="translate(966.484375 0)"/>
     <use xlink:href="#NotoNaskhArabic-Bold-554" transform="translate(1021.984375 0)"/>
     <use xlink:href="#NotoNaskhArabic-Bold-1e5" transform="translate(1044.078125 0)"/>
     <use xlink:href="#NotoNaskhArabic-Bold-240" transform="translate(1091.375 0)"/>
     <use xlink:href="#NotoNaskhArabic-Bold-1be" transform="translate(1127.375 0)"/>
     <use xlink:href="#NotoNaskhArabic-Bold-554" transform="translate(1189.078125 0)"/>
     <use xlink:href="#NotoNaskhArabic-Bold-3" transform="translate(1211.171875 0)"/>
     <use xlink:href="#NotoNaskhArabic-Bold-1c1" transform="translate(1239.578125 0)"/>
     <use xlink:href="#NotoNaskhArabic-Bold-1e9" transform="translate(1261.28125 0)"/>
     <use xlink:href="#NotoNaskhArabic-Bold-1e4" transform="translate(1290.484375 0)"/>
     <use xlink:href="#NotoNaskhArabic-Bold-124" transform="translate(1331.78125 0)"/>
     <use xlink:href="#NotoNaskhArabic-Bold-554" transform="translate(1415.875 0)"/>
     <use xlink:href="#NotoNaskhArabic-Bold-1c1" transform="translate(1437.96875 0)"/>
     <use xlink:href="#NotoNaskhArabic-Bold-2e9" transform="translate(1459.671875 0)"/>
     <use xlink:href="#NotoNaskhArabic-Bold-136" transform="translate(1522.765625 0)"/>
     <use xlink:href="#NotoNaskhArabic-Bold-1bf" transform="translate(1574.46875 0)"/>
     <use xlink:href="#NotoNaskhArabic-Bold-235" transform="translate(1598.96875 0)"/>
     <use xlink:href="#NotoNaskhArabic-Bold-554" transform="translate(1667.96875 0)"/>
    </g>
   </g>
   <g id="text_2">
    <!-- ​ﻂﺑﺎﻫ ﻲﺳﺎﻜﻌﻧﺍ ﻂﻤﻧ — (Rising Wedge) ﺪﻋﺎﺼﻟﺍ ﺪﺗﻮﻟﺍ -->
    <g style="fill: #1f2937" transform="translate(194.377266 18.959) scale(0.11 -0.11)">
     <defs>
      <path id="NotoNaskhArabic-Bold-38" d="M 0 58 
Q -51 58 -51 109 
L -51 762 
Q -51 813 0 813 
Q 320 813 640 867 
Q 960 922 1139 998 
Q 1075 1146 976 1328 
Q 877 1510 819 1613 
Q 755 1734 710 1833 
Q 666 1933 666 2016 
Q 666 2176 838 2361 
Q 1011 2547 1248 2669 
Q 1293 2470 1347 2217 
Q 1402 1965 1446 1702 
Q 1485 1504 1501 1376 
Q 1517 1248 1517 1184 
Q 1517 1037 1443 822 
Q 1370 608 1267 410 
Q 685 58 0 58 
z
M 1332 3020 
Q 1197 3129 1088 3225 
Q 980 3321 890 3417 
Q 1127 3635 1319 3865 
Q 1376 3801 1478 3705 
Q 1581 3609 1722 3468 
Q 1549 3232 1332 3020 
z
M 474 2924 
Q 199 3148 32 3328 
Q 141 3436 250 3548 
Q 359 3660 468 3769 
Q 583 3635 864 3372 
Q 704 3142 474 2924 
z
" transform="scale(0.015625)"/>
      <path id="NotoNaskhArabic-Bold-b6" d="M 1075 0 
Q 218 0 218 499 
Q 218 634 272 784 
Q 326 934 410 1018 
Q 570 890 774 826 
Q 979 762 1280 762 
Q 1466 762 1658 784 
Q 1850 806 2048 851 
Q 1798 1286 1648 1673 
Q 1498 2061 1498 2246 
Q 1498 2477 1613 2646 
Q 1728 2816 1946 2880 
Q 2074 2362 2208 1955 
Q 2342 1549 2490 1248 
Q 2611 1005 2758 909 
Q 2906 813 3162 813 
Q 3213 813 3213 762 
L 3213 109 
Q 3213 58 3162 58 
Q 2707 58 2413 352 
Q 1709 0 1075 0 
z
" transform="scale(0.015625)"/>
      <path id="NotoNaskhArabic-Bold-111" d="M 2592 0 
Q 2163 0 1699 80 
Q 1235 160 851 339 
Q 813 282 742 243 
Q 608 154 406 106 
Q 205 58 0 58 
Q -51 58 -51 109 
L -51 762 
Q -51 813 0 813 
Q 256 813 397 848 
Q 538 883 634 985 
Q 730 1088 838 1286 
Q 864 1331 886 1376 
Q 909 1421 934 1466 
Q 1030 1638 1222 1638 
Q 1318 1638 1427 1574 
Q 1363 1414 1302 1260 
Q 1242 1107 1178 954 
Q 1248 928 1312 909 
Q 1376 890 1440 864 
Q 2099 1741 2605 2150 
Q 3091 2560 3469 2560 
Q 3629 2560 3824 2464 
Q 4019 2368 4211 2214 
Q 4403 2061 4544 1882 
Q 4762 1619 4762 1446 
Q 4762 1229 4691 1050 
Q 4922 915 5082 864 
Q 5242 813 5466 813 
Q 5523 813 5523 762 
L 5523 109 
Q 5523 58 5466 58 
Q 5171 58 4880 186 
Q 4589 314 4358 563 
Q 4205 416 3904 278 
Q 3603 141 3258 70 
Q 3085 38 2921 19 
Q 2758 0 2592 0 
z
M 2656 704 
Q 3117 704 3520 813 
Q 3923 922 4390 1146 
Q 3814 1805 3309 1805 
Q 3027 1805 2652 1536 
Q 2278 1267 1862 774 
Q 2067 742 2265 723 
Q 2464 704 2656 704 
z
" transform="scale(0.015625)"/>
      <path id="DejaVuSans-Bold-b" d="M 2413 -844 
L 1484 -844 
Q 1006 -72 778 623 
Q 550 1319 550 2003 
Q 550 2688 779 3389 
Q 1009 4091 1484 4856 
L 2413 4856 
Q 2013 4116 1813 3408 
Q 1613 2700 1613 2009 
Q 1613 1319 1811 609 
Q 2009 -100 2413 -844 
z
" transform="scale(0.015625)"/>
      <path id="DejaVuSans-Bold-35" d="M 2297 2597 
Q 2675 2597 2839 2737 
Q 3003 2878 3003 3200 
Q 3003 3519 2839 3656 
Q 2675 3794 2297 3794 
L 1791 3794 
L 1791 2597 
L 2297 2597 
z
M 1791 1766 
L 1791 0 
L 588 0 
L 588 4666 
L 2425 4666 
Q 3347 4666 3776 4356 
Q 4206 4047 4206 3378 
Q 4206 2916 3982 2619 
Q 3759 2322 3309 2181 
Q 3556 2125 3751 1926 
Q 3947 1728 4147 1325 
L 4800 0 
L 3519 0 
L 2950 1159 
Q 2778 1509 2601 1637 
Q 2425 1766 2131 1766 
L 1791 1766 
z
" transform="scale(0.015625)"/>
      <path id="DejaVuSans-Bold-4c" d="M 538 3500 
L 1656 3500 
L 1656 0 
L 538 0 
L 538 3500 
z
M 538 4863 
L 1656 4863 
L 1656 3950 
L 538 3950 
L 538 4863 
z
" transform="scale(0.015625)"/>
      <path id="DejaVuSans-Bold-56" d="M 3272 3391 
L 3272 2541 
Q 2913 2691 2578 2766 
Q 2244 2841 1947 2841 
Q 1628 2841 1473 2761 
Q 1319 2681 1319 2516 
Q 1319 2381 1436 2309 
Q 1553 2238 1856 2203 
L 2053 2175 
Q 2913 2066 3209 1816 
Q 3506 1566 3506 1031 
Q 3506 472 3093 190 
Q 2681 -91 1863 -91 
Q 1516 -91 1145 -36 
Q 775 19 384 128 
L 384 978 
Q 719 816 1070 734 
Q 1422 653 1784 653 
Q 2113 653 2278 743 
Q 2444 834 2444 1013 
Q 2444 1163 2330 1236 
Q 2216 1309 1875 1350 
L 1678 1375 
Q 931 1469 631 1722 
Q 331 1975 331 2491 
Q 331 3047 712 3315 
Q 1094 3584 1881 3584 
Q 2191 3584 2531 3537 
Q 2872 3491 3272 3391 
z
" transform="scale(0.015625)"/>
      <path id="DejaVuSans-Bold-51" d="M 4056 2131 
L 4056 0 
L 2931 0 
L 2931 347 
L 2931 1631 
Q 2931 2084 2911 2256 
Q 2891 2428 2841 2509 
Q 2775 2619 2662 2680 
Q 2550 2741 2406 2741 
Q 2056 2741 1856 2470 
Q 1656 2200 1656 1722 
L 1656 0 
L 538 0 
L 538 3500 
L 1656 3500 
L 1656 2988 
Q 1909 3294 2193 3439 
Q 2478 3584 2822 3584 
Q 3428 3584 3742 3212 
Q 4056 2841 4056 2131 
z
" transform="scale(0.015625)"/>
      <path id="DejaVuSans-Bold-4a" d="M 2919 594 
Q 2688 288 2409 144 
Q 2131 0 1766 0 
Q 1125 0 706 504 
Q 288 1009 288 1791 
Q 288 2575 706 3076 
Q 1125 3578 1766 3578 
Q 2131 3578 2409 3434 
Q 2688 3291 2919 2981 
L 2919 3500 
L 4044 3500 
L 4044 353 
Q 4044 -491 3511 -936 
Q 2978 -1381 1966 -1381 
Q 1638 -1381 1331 -1331 
Q 1025 -1281 716 -1178 
L 716 -306 
Q 1009 -475 1290 -558 
Q 1572 -641 1856 -641 
Q 2406 -641 2662 -400 
Q 2919 -159 2919 353 
L 2919 594 
z
M 2181 2772 
Q 1834 2772 1640 2515 
Q 1447 2259 1447 1791 
Q 1447 1309 1634 1061 
Q 1822 813 2181 813 
Q 2531 813 2725 1069 
Q 2919 1325 2919 1791 
Q 2919 2259 2725 2515 
Q 2531 2772 2181 2772 
z
" transform="scale(0.015625)"/>
      <path id="DejaVuSans-Bold-3a" d="M 191 4666 
L 1344 4666 
L 2150 1275 
L 2950 4666 
L 4109 4666 
L 4909 1275 
L 5716 4666 
L 6859 4666 
L 5759 0 
L 4372 0 
L 3525 3547 
L 2688 0 
L 1300 0 
L 191 4666 
z
" transform="scale(0.015625)"/>
      <path id="DejaVuSans-Bold-48" d="M 4031 1759 
L 4031 1441 
L 1416 1441 
Q 1456 1047 1700 850 
Q 1944 653 2381 653 
Q 2734 653 3104 758 
Q 3475 863 3866 1075 
L 3866 213 
Q 3469 63 3072 -14 
Q 2675 -91 2278 -91 
Q 1328 -91 801 392 
Q 275 875 275 1747 
Q 275 2603 792 3093 
Q 1309 3584 2216 3584 
Q 3041 3584 3536 3087 
Q 4031 2591 4031 1759 
z
M 2881 2131 
Q 2881 2450 2695 2645 
Q 2509 2841 2209 2841 
Q 1884 2841 1681 2658 
Q 1478 2475 1428 2131 
L 2881 2131 
z
" transform="scale(0.015625)"/>
      <path id="DejaVuSans-Bold-47" d="M 2919 2988 
L 2919 4863 
L 4044 4863 
L 4044 0 
L 2919 0 
L 2919 506 
Q 2688 197 2409 53 
Q 2131 -91 1766 -91 
Q 1119 -91 703 423 
Q 288 938 288 1747 
Q 288 2556 703 3070 
Q 1119 3584 1766 3584 
Q 2128 3584 2408 3439 
Q 2688 3294 2919 2988 
z
M 2181 722 
Q 2541 722 2730 984 
Q 2919 1247 2919 1747 
Q 2919 2247 2730 2509 
Q 2541 2772 2181 2772 
Q 1825 2772 1636 2509 
Q 1447 2247 1447 1747 
Q 1447 1247 1636 984 
Q 1825 722 2181 722 
z
" transform="scale(0.015625)"/>
      <path id="DejaVuSans-Bold-c" d="M 513 -844 
Q 913 -100 1113 609 
Q 1313 1319 1313 2009 
Q 1313 2700 1113 3408 
Q 913 4116 513 4856 
L 1441 4856 
Q 1916 4091 2145 3389 
Q 2375 2688 2375 2003 
Q 2375 1319 2147 623 
Q 1919 -72 1441 -844 
L 513 -844 
z
" transform="scale(0.015625)"/>
      <path id="DejaVuSans-Bold-af6" d="M 344 2156 
L 6056 2156 
L 6056 1350 
L 344 1350 
L 344 2156 
z
" transform="scale(0.015625)"/>
      <path id="NotoNaskhArabic-Bold-fa" d="M 1472 0 
Q 1165 0 736 205 
Q 608 141 406 99 
Q 205 58 0 58 
Q -51 58 -51 109 
L -51 762 
Q -51 813 0 813 
Q 294 813 441 851 
Q 589 890 678 979 
Q 749 1050 806 1142 
Q 864 1235 998 1466 
Q 1037 1536 1110 1581 
Q 1184 1626 1267 1626 
Q 1357 1626 1466 1555 
Q 1363 1286 1286 1091 
Q 1210 896 1158 781 
Q 1331 762 1504 762 
Q 1632 762 1734 778 
Q 1837 794 1965 832 
Q 2010 902 2093 1104 
Q 2176 1306 2317 1696 
Q 2349 1779 2432 1833 
Q 2515 1888 2630 1888 
Q 2765 1888 2854 1818 
Q 2778 1626 2710 1414 
Q 2643 1203 2586 992 
Q 2829 870 3133 806 
Q 3437 742 3782 704 
Q 3584 1094 3443 1376 
Q 3302 1658 3302 1798 
Q 3302 1952 3475 2141 
Q 3648 2330 3885 2451 
Q 3994 1907 4051 1603 
Q 4109 1299 4131 1145 
Q 4154 992 4154 909 
Q 4154 806 4112 633 
Q 4070 461 4006 288 
Q 3942 115 3885 0 
Q 3501 0 3097 89 
Q 2694 179 2355 326 
Q 2317 243 2278 173 
Q 2234 102 1994 51 
Q 1754 0 1472 0 
z
" transform="scale(0.015625)"/>
      <path id="NotoNaskhArabic-Bold-26" d="M 0 58 
Q -51 58 -51 109 
L -51 762 
Q -51 813 0 813 
Q 320 813 640 867 
Q 960 922 1139 998 
Q 1075 1146 976 1328 
Q 877 1510 819 1613 
Q 755 1734 710 1833 
Q 666 1933 666 2016 
Q 666 2176 838 2361 
Q 1011 2547 1248 2669 
Q 1293 2470 1347 2217 
Q 1402 1965 1446 1702 
Q 1485 1504 1501 1376 
Q 1517 1248 1517 1184 
Q 1517 1037 1443 822 
Q 1370 608 1267 410 
Q 685 58 0 58 
z
M 916 -1427 
Q 743 -1286 621 -1171 
Q 500 -1056 416 -966 
Q 544 -838 666 -713 
Q 788 -589 903 -454 
Q 1069 -646 1364 -915 
Q 1293 -1017 1178 -1148 
Q 1063 -1280 916 -1427 
z
" transform="scale(0.015625)"/>
     </defs>
     <use xlink:href="#NotoNaskhArabic-Bold-3"/>
     <use xlink:href="#NotoNaskhArabic-Bold-1c1" transform="translate(28.40625 0)"/>
     <use xlink:href="#NotoNaskhArabic-Bold-219" transform="translate(50.109375 0)"/>
     <use xlink:href="#NotoNaskhArabic-Bold-38" transform="translate(98.90625 0)"/>
     <use xlink:href="#NotoNaskhArabic-Bold-b6" transform="translate(126.40625 0)"/>
     <use xlink:href="#NotoNaskhArabic-Bold-554" transform="translate(174.90625 0)"/>
     <use xlink:href="#NotoNaskhArabic-Bold-3" transform="translate(197 0)"/>
     <use xlink:href="#NotoNaskhArabic-Bold-1c1" transform="translate(225.40625 0)"/>
     <use xlink:href="#NotoNaskhArabic-Bold-111" transform="translate(247.109375 0)"/>
     <use xlink:href="#NotoNaskhArabic-Bold-4" transform="translate(331.703125 0)"/>
     <use xlink:href="#NotoNaskhArabic-Bold-136" transform="translate(360.5 0)"/>
     <use xlink:href="#NotoNaskhArabic-Bold-b6" transform="translate(412.203125 0)"/>
     <use xlink:href="#NotoNaskhArabic-Bold-554" transform="translate(460.703125 0)"/>
     <use xlink:href="#DejaVuSans-Bold-b" transform="translate(482.796875 0)"/>
     <use xlink:href="#DejaVuSans-Bold-35" transform="translate(528.5 0)"/>
     <use xlink:href="#DejaVuSans-Bold-4c" transform="translate(605.5 0)"/>
     <use xlink:href="#DejaVuSans-Bold-56" transform="translate(639.78125 0)"/>
     <use xlink:href="#DejaVuSans-Bold-4c" transform="translate(699.296875 0)"/>
     <use xlink:href="#DejaVuSans-Bold-51" transform="translate(733.578125 0)"/>
     <use xlink:href="#DejaVuSans-Bold-4a" transform="translate(804.765625 0)"/>
     <use xlink:href="#NotoNaskhArabic-Bold-554" transform="translate(876.34375 0)"/>
     <use xlink:href="#DejaVuSans-Bold-3a" transform="translate(898.4375 0)"/>
     <use xlink:href="#DejaVuSans-Bold-48" transform="translate(1005.171875 0)"/>
     <use xlink:href="#DejaVuSans-Bold-47" transform="translate(1073 0)"/>
     <use xlink:href="#DejaVuSans-Bold-4a" transform="translate(1144.578125 0)"/>
     <use xlink:href="#DejaVuSans-Bold-48" transform="translate(1216.15625 0)"/>
     <use xlink:href="#DejaVuSans-Bold-c" transform="translate(1283.984375 0)"/>
     <use xlink:href="#NotoNaskhArabic-Bold-554" transform="translate(1329.6875 0)"/>
     <use xlink:href="#DejaVuSans-Bold-af6" transform="translate(1351.78125 0)"/>
     <use xlink:href="#NotoNaskhArabic-Bold-554" transform="translate(1451.78125 0)"/>
     <use xlink:href="#NotoNaskhArabic-Bold-1ea" transform="translate(1473.875 0)"/>
     <use xlink:href="#NotoNaskhArabic-Bold-1e4" transform="translate(1501.375 0)"/>
     <use xlink:href="#NotoNaskhArabic-Bold-124" transform="translate(1542.671875 0)"/>
     <use xlink:href="#NotoNaskhArabic-Bold-554" transform="translate(1626.765625 0)"/>
     <use xlink:href="#NotoNaskhArabic-Bold-3" transform="translate(1648.859375 0)"/>
     <use xlink:href="#NotoNaskhArabic-Bold-1ea" transform="translate(1677.265625 0)"/>
     <use xlink:href="#NotoNaskhArabic-Bold-135" transform="translate(1704.765625 0)"/>
     <use xlink:href="#NotoNaskhArabic-Bold-175" transform="translate(1749.5625 0)"/>
     <use xlink:href="#NotoNaskhArabic-Bold-4" transform="translate(1796.265625 0)"/>
     <use xlink:href="#NotoNaskhArabic-Bold-fa" transform="translate(1825.0625 0)"/>
     <use xlink:href="#NotoNaskhArabic-Bold-23f" transform="translate(1895.0625 0)"/>
     <use xlink:href="#NotoNaskhArabic-Bold-554" transform="translate(1964.0625 0)"/>
     <use xlink:href="#NotoNaskhArabic-Bold-200" transform="translate(1986.15625 0)"/>
     <use xlink:href="#NotoNaskhArabic-Bold-4" transform="translate(2037.75 0)"/>
     <use xlink:href="#NotoNaskhArabic-Bold-26" transform="translate(2066.546875 0)"/>
     <use xlink:href="#NotoNaskhArabic-Bold-124" transform="translate(2094.046875 0)"/>
     <use xlink:href="#NotoNaskhArabic-Bold-554" transform="translate(2178.140625 0)"/>
    </g>
   </g>
   <g id="patch_5">
    <path d="M 16.670505 294.722362 
L 23.855027 294.722362 
L 23.855027 288.466994 
L 16.670505 288.466994 
z
" clip-path="url(#p110254ca82)" style="fill: #b91c1c; stroke: #b91c1c; stroke-linejoin: miter"/>
   </g>
   <g id="patch_6">
    <path d="M 29.733271 272.08869 
L 36.917793 272.08869 
L 36.917793 259.243916 
L 29.733271 259.243916 
z
" clip-path="url(#p110254ca82)" style="fill: #1f8a56; stroke: #1f8a56; stroke-linejoin: miter"/>
   </g>
   <g id="patch_7">
    <path d="M 42.796037 255.511469 
L 49.980559 255.511469 
L 49.980559 219.984713 
L 42.796037 219.984713 
z
" clip-path="url(#p110254ca82)" style="fill: #1f8a56; stroke: #1f8a56; stroke-linejoin: miter"/>
   </g>
   <g id="patch_8">
    <path d="M 55.858803 220.378778 
L 63.043324 220.378778 
L 63.043324 210.4918 
L 55.858803 210.4918 
z
" clip-path="url(#p110254ca82)" style="fill: #1f8a56; stroke: #1f8a56; stroke-linejoin: miter"/>
   </g>
   <g id="patch_9">
    <path d="M 68.921569 216.110923 
L 76.10609 216.110923 
L 76.10609 195.697886 
L 68.921569 195.697886 
z
" clip-path="url(#p110254ca82)" style="fill: #1f8a56; stroke: #1f8a56; stroke-linejoin: miter"/>
   </g>
   <g id="patch_10">
    <path d="M 81.984335 200.531588 
L 89.168856 200.531588 
L 89.168856 172.244903 
L 81.984335 172.244903 
z
" clip-path="url(#p110254ca82)" style="fill: #1f8a56; stroke: #1f8a56; stroke-linejoin: miter"/>
   </g>
   <g id="patch_11">
    <path d="M 95.047101 182.003641 
L 102.231622 182.003641 
L 102.231622 176.53678 
L 95.047101 176.53678 
z
" clip-path="url(#p110254ca82)" style="fill: #b91c1c; stroke: #b91c1c; stroke-linejoin: miter"/>
   </g>
   <g id="patch_12">
    <path d="M 108.109867 212.687922 
L 115.294388 212.687922 
L 115.294388 184.757096 
L 108.109867 184.757096 
z
" clip-path="url(#p110254ca82)" style="fill: #b91c1c; stroke: #b91c1c; stroke-linejoin: miter"/>
   </g>
   <g id="patch_13">
    <path d="M 121.172633 220.878143 
L 128.357154 220.878143 
L 128.357154 215.411281 
L 121.172633 215.411281 
z
" clip-path="url(#p110254ca82)" style="fill: #b91c1c; stroke: #b91c1c; stroke-linejoin: miter"/>
   </g>
   <g id="patch_14">
    <path d="M 134.235399 229.562187 
L 141.41992 229.562187 
L 141.41992 220.514278 
L 134.235399 220.514278 
z
" clip-path="url(#p110254ca82)" style="fill: #b91c1c; stroke: #b91c1c; stroke-linejoin: miter"/>
   </g>
   <g id="patch_15">
    <path d="M 147.298165 249.196878 
L 154.482686 249.196878 
L 154.482686 216.853138 
L 147.298165 216.853138 
z
" clip-path="url(#p110254ca82)" style="fill: #b91c1c; stroke: #b91c1c; stroke-linejoin: miter"/>
   </g>
   <g id="patch_16">
    <path d="M 160.360931 260.843102 
L 167.545452 260.843102 
L 167.545452 249.138175 
L 160.360931 249.138175 
z
" clip-path="url(#p110254ca82)" style="fill: #b91c1c; stroke: #b91c1c; stroke-linejoin: miter"/>
   </g>
   <g id="patch_17">
    <path d="M 173.423697 252.346466 
L 180.608218 252.346466 
L 180.608218 227.200195 
L 173.423697 227.200195 
z
" clip-path="url(#p110254ca82)" style="fill: #1f8a56; stroke: #1f8a56; stroke-linejoin: miter"/>
   </g>
   <g id="patch_18">
    <path d="M 186.486463 228.099984 
L 193.670984 228.099984 
L 193.670984 199.773454 
L 186.486463 199.773454 
z
" clip-path="url(#p110254ca82)" style="fill: #1f8a56; stroke: #1f8a56; stroke-linejoin: miter"/>
   </g>
   <g id="patch_19">
    <path d="M 199.549229 207.749244 
L 206.73375 207.749244 
L 206.73375 187.209703 
L 199.549229 187.209703 
z
" clip-path="url(#p110254ca82)" style="fill: #1f8a56; stroke: #1f8a56; stroke-linejoin: miter"/>
   </g>
   <g id="patch_20">
    <path d="M 212.611995 186.727738 
L 219.796516 186.727738 
L 219.796516 163.736207 
L 212.611995 163.736207 
z
" clip-path="url(#p110254ca82)" style="fill: #1f8a56; stroke: #1f8a56; stroke-linejoin: miter"/>
   </g>
   <g id="patch_21">
    <path d="M 225.674761 161.584943 
L 232.859282 161.584943 
L 232.859282 156.118081 
L 225.674761 156.118081 
z
" clip-path="url(#p110254ca82)" style="fill: #b91c1c; stroke: #b91c1c; stroke-linejoin: miter"/>
   </g>
   <g id="patch_22">
    <path d="M 238.737527 171.620611 
L 245.922048 171.620611 
L 245.922048 138.092458 
L 238.737527 138.092458 
z
" clip-path="url(#p110254ca82)" style="fill: #1f8a56; stroke: #1f8a56; stroke-linejoin: miter"/>
   </g>
   <g id="patch_23">
    <path d="M 251.800293 165.369871 
L 258.984814 165.369871 
L 258.984814 129.462763 
L 251.800293 129.462763 
z
" clip-path="url(#p110254ca82)" style="fill: #b91c1c; stroke: #b91c1c; stroke-linejoin: miter"/>
   </g>
   <g id="patch_24">
    <path d="M 264.863059 182.342969 
L 272.04758 182.342969 
L 272.04758 176.876107 
L 264.863059 176.876107 
z
" clip-path="url(#p110254ca82)" style="fill: #b91c1c; stroke: #b91c1c; stroke-linejoin: miter"/>
   </g>
   <g id="patch_25">
    <path d="M 277.925824 198.786541 
L 285.110346 198.786541 
L 285.110346 188.345377 
L 277.925824 188.345377 
z
" clip-path="url(#p110254ca82)" style="fill: #b91c1c; stroke: #b91c1c; stroke-linejoin: miter"/>
   </g>
   <g id="patch_26">
    <path d="M 290.98859 225.660632 
L 298.173112 225.660632 
L 298.173112 194.7476 
L 290.98859 194.7476 
z
" clip-path="url(#p110254ca82)" style="fill: #b91c1c; stroke: #b91c1c; stroke-linejoin: miter"/>
   </g>
   <g id="patch_27">
    <path d="M 304.051356 244.055051 
L 311.235878 244.055051 
L 311.235878 217.935109 
L 304.051356 217.935109 
z
" clip-path="url(#p110254ca82)" style="fill: #b91c1c; stroke: #b91c1c; stroke-linejoin: miter"/>
   </g>
   <g id="patch_28">
    <path d="M 317.114122 253.430252 
L 324.298644 253.430252 
L 324.298644 246.48231 
L 317.114122 246.48231 
z
" clip-path="url(#p110254ca82)" style="fill: #b91c1c; stroke: #b91c1c; stroke-linejoin: miter"/>
   </g>
   <g id="patch_29">
    <path d="M 330.176888 247.559094 
L 337.36141 247.559094 
L 337.36141 238.92841 
L 330.176888 238.92841 
z
" clip-path="url(#p110254ca82)" style="fill: #b91c1c; stroke: #b91c1c; stroke-linejoin: miter"/>
   </g>
   <g id="patch_30">
    <path d="M 343.239654 246.798275 
L 350.424176 246.798275 
L 350.424176 238.798968 
L 343.239654 238.798968 
z
" clip-path="url(#p110254ca82)" style="fill: #b91c1c; stroke: #b91c1c; stroke-linejoin: miter"/>
   </g>
   <g id="patch_31">
    <path d="M 356.30242 238.582861 
L 363.486941 238.582861 
L 363.486941 227.966279 
L 356.30242 227.966279 
z
" clip-path="url(#p110254ca82)" style="fill: #1f8a56; stroke: #1f8a56; stroke-linejoin: miter"/>
   </g>
   <g id="patch_32">
    <path d="M 369.365186 230.621648 
L 376.549707 230.621648 
L 376.549707 212.727904 
L 369.365186 212.727904 
z
" clip-path="url(#p110254ca82)" style="fill: #1f8a56; stroke: #1f8a56; stroke-linejoin: miter"/>
   </g>
   <g id="patch_33">
    <path d="M 382.427952 209.197039 
L 389.612473 209.197039 
L 389.612473 199.222933 
L 382.427952 199.222933 
z
" clip-path="url(#p110254ca82)" style="fill: #1f8a56; stroke: #1f8a56; stroke-linejoin: miter"/>
   </g>
   <g id="patch_34">
    <path d="M 395.490718 204.461959 
L 402.675239 204.461959 
L 402.675239 185.675725 
L 395.490718 185.675725 
z
" clip-path="url(#p110254ca82)" style="fill: #1f8a56; stroke: #1f8a56; stroke-linejoin: miter"/>
   </g>
   <g id="patch_35">
    <path d="M 408.553484 195.825722 
L 415.738005 195.825722 
L 415.738005 182.203899 
L 408.553484 182.203899 
z
" clip-path="url(#p110254ca82)" style="fill: #b91c1c; stroke: #b91c1c; stroke-linejoin: miter"/>
   </g>
   <g id="patch_36">
    <path d="M 421.61625 214.518015 
L 428.800771 214.518015 
L 428.800771 195.170214 
L 421.61625 195.170214 
z
" clip-path="url(#p110254ca82)" style="fill: #b91c1c; stroke: #b91c1c; stroke-linejoin: miter"/>
   </g>
   <g id="patch_37">
    <path d="M 434.679016 232.776664 
L 441.863537 232.776664 
L 441.863537 227.279102 
L 434.679016 227.279102 
z
" clip-path="url(#p110254ca82)" style="fill: #b91c1c; stroke: #b91c1c; stroke-linejoin: miter"/>
   </g>
   <g id="patch_38">
    <path d="M 447.741782 244.602376 
L 454.926303 244.602376 
L 454.926303 234.559209 
L 447.741782 234.559209 
z
" clip-path="url(#p110254ca82)" style="fill: #b91c1c; stroke: #b91c1c; stroke-linejoin: miter"/>
   </g>
   <g id="patch_39">
    <path d="M 460.804548 262.548815 
L 467.989069 262.548815 
L 467.989069 257.081953 
L 460.804548 257.081953 
z
" clip-path="url(#p110254ca82)" style="fill: #b91c1c; stroke: #b91c1c; stroke-linejoin: miter"/>
   </g>
   <g id="patch_40">
    <path d="M 473.867314 301.871909 
L 481.051835 301.871909 
L 481.051835 268.051079 
L 473.867314 268.051079 
z
" clip-path="url(#p110254ca82)" style="fill: #b91c1c; stroke: #b91c1c; stroke-linejoin: miter"/>
   </g>
   <g id="patch_41">
    <path d="M 486.93008 303.352948 
L 494.114601 303.352948 
L 494.114601 293.521711 
L 486.93008 293.521711 
z
" clip-path="url(#p110254ca82)" style="fill: #1f8a56; stroke: #1f8a56; stroke-linejoin: miter"/>
   </g>
   <g id="patch_42">
    <path d="M 499.992846 291.231636 
L 507.177367 291.231636 
L 507.177367 275.799718 
L 499.992846 275.799718 
z
" clip-path="url(#p110254ca82)" style="fill: #1f8a56; stroke: #1f8a56; stroke-linejoin: miter"/>
   </g>
   <g id="patch_43">
    <path d="M 513.055612 277.274888 
L 520.240133 277.274888 
L 520.240133 258.404055 
L 513.055612 258.404055 
z
" clip-path="url(#p110254ca82)" style="fill: #1f8a56; stroke: #1f8a56; stroke-linejoin: miter"/>
   </g>
   <g id="patch_44">
    <path d="M 526.118378 263.47834 
L 533.302899 263.47834 
L 533.302899 231.621107 
L 526.118378 231.621107 
z
" clip-path="url(#p110254ca82)" style="fill: #1f8a56; stroke: #1f8a56; stroke-linejoin: miter"/>
   </g>
   <g id="patch_45">
    <path d="M 539.181144 223.707931 
L 546.365665 223.707931 
L 546.365665 218.241069 
L 539.181144 218.241069 
z
" clip-path="url(#p110254ca82)" style="fill: #b91c1c; stroke: #b91c1c; stroke-linejoin: miter"/>
   </g>
   <g id="patch_46">
    <path d="M 552.24391 218.75374 
L 559.428431 218.75374 
L 559.428431 206.992028 
L 552.24391 206.992028 
z
" clip-path="url(#p110254ca82)" style="fill: #b91c1c; stroke: #b91c1c; stroke-linejoin: miter"/>
   </g>
   <g id="patch_47">
    <path d="M 565.306676 225.340798 
L 572.491197 225.340798 
L 572.491197 219.873936 
L 565.306676 219.873936 
z
" clip-path="url(#p110254ca82)" style="fill: #b91c1c; stroke: #b91c1c; stroke-linejoin: miter"/>
   </g>
   <g id="patch_48">
    <path d="M 578.369441 241.346645 
L 585.553963 241.346645 
L 585.553963 225.646809 
L 578.369441 225.646809 
z
" clip-path="url(#p110254ca82)" style="fill: #b91c1c; stroke: #b91c1c; stroke-linejoin: miter"/>
   </g>
   <g id="patch_49">
    <path d="M 591.432207 247.207038 
L 598.616729 247.207038 
L 598.616729 241.740176 
L 591.432207 241.740176 
z
" clip-path="url(#p110254ca82)" style="fill: #b91c1c; stroke: #b91c1c; stroke-linejoin: miter"/>
   </g>
   <g id="patch_50">
    <path d="M 604.494973 254.827361 
L 611.679495 254.827361 
L 611.679495 249.360499 
L 604.494973 249.360499 
z
" clip-path="url(#p110254ca82)" style="fill: #b91c1c; stroke: #b91c1c; stroke-linejoin: miter"/>
   </g>
   <g id="line2d_47">
    <path d="M 46.388298 163.73856 
L 595.024468 207.610433 
" clip-path="url(#p110254ca82)" style="fill: none; stroke: #1f2937; stroke-width: 2; stroke-linecap: square"/>
   </g>
   <g id="line2d_48">
    <path d="M 46.388298 265.539129 
L 595.024468 259.703938 
" clip-path="url(#p110254ca82)" style="fill: none; stroke: #1f2937; stroke-width: 2; stroke-linecap: square"/>
   </g>
   <g id="patch_51">
    <path d="M 85.576596 172.548072 
C 86.789096 172.548072 87.952098 170.454936 88.809465 166.729653 
C 89.666832 163.00437 90.148564 157.951093 90.148564 152.682747 
C 90.148564 147.414401 89.666832 142.361124 88.809465 138.635841 
C 87.952098 134.910558 86.789096 132.817422 85.576596 132.817422 
C 84.364096 132.817422 83.201093 134.910558 82.343726 138.635841 
C 81.486359 142.361124 81.004628 147.414401 81.004628 152.682747 
C 81.004628 157.951093 81.486359 163.00437 82.343726 166.729653 
C 83.201093 170.454936 84.364096 172.548072 85.576596 172.548072 
L 85.576596 172.548072 
z
" clip-path="url(#p110254ca82)" style="fill: none; stroke: #1f2937; stroke-width: 1.6; stroke-linejoin: miter"/>
   </g>
   <g id="patch_52">
    <path d="M 242.329787 139.385818 
C 243.542287 139.385818 244.70529 137.292682 245.562657 133.567399 
C 246.420024 129.842116 246.901755 124.788839 246.901755 119.520493 
C 246.901755 114.252147 246.420024 109.19887 245.562657 105.473587 
C 244.70529 101.748304 243.542287 99.655168 242.329787 99.655168 
C 241.117287 99.655168 239.954285 101.748304 239.096918 105.473587 
C 238.239551 109.19887 237.757819 114.252147 237.757819 119.520493 
C 237.757819 124.788839 238.239551 129.842116 239.096918 133.567399 
C 239.954285 137.292682 241.117287 139.385818 242.329787 139.385818 
L 242.329787 139.385818 
z
" clip-path="url(#p110254ca82)" style="fill: none; stroke: #1f2937; stroke-width: 1.6; stroke-linejoin: miter"/>
   </g>
   <g id="patch_53">
    <path d="M 399.082979 188.393394 
C 400.295479 188.393394 401.458481 186.300258 402.315848 182.574975 
C 403.173215 178.849692 403.654947 173.796414 403.654947 168.528068 
C 403.654947 163.259723 403.173215 158.206445 402.315848 154.481162 
C 401.458481 150.755879 400.295479 148.662743 399.082979 148.662743 
C 397.870479 148.662743 396.707476 150.755879 395.850109 154.481162 
C 394.992742 158.206445 394.511011 163.259723 394.511011 168.528068 
C 394.511011 173.796414 394.992742 178.849692 395.850109 182.574975 
C 396.707476 186.300258 397.870479 188.393394 399.082979 188.393394 
L 399.082979 188.393394 
z
" clip-path="url(#p110254ca82)" style="fill: none; stroke: #1f2937; stroke-width: 1.6; stroke-linejoin: miter"/>
   </g>
   <g id="patch_54">
    <path d="M 555.83617 210.152535 
C 557.04867 210.152535 558.211673 208.059399 559.06904 204.334116 
C 559.926407 200.608833 560.408138 195.555556 560.408138 190.28721 
C 560.408138 185.018864 559.926407 179.965587 559.06904 176.240304 
C 558.211673 172.515021 557.04867 170.421885 555.83617 170.421885 
C 554.62367 170.421885 553.460668 172.515021 552.603301 176.240304 
C 551.745934 179.965587 551.264202 185.018864 551.264202 190.28721 
C 551.264202 195.555556 551.745934 200.608833 552.603301 204.334116 
C 553.460668 208.059399 554.62367 210.152535 555.83617 210.152535 
L 555.83617 210.152535 
z
" clip-path="url(#p110254ca82)" style="fill: none; stroke: #1f2937; stroke-width: 1.6; stroke-linejoin: miter"/>
   </g>
   <g id="text_3">
    <!-- A -->
    <g style="fill: #1f2937" transform="translate(81.900541 126.794422) scale(0.095 -0.095)">
     <defs>
      <path id="DejaVuSans-Bold-24" d="M 3419 850 
L 1538 850 
L 1241 0 
L 31 0 
L 1759 4666 
L 3194 4666 
L 4922 0 
L 3713 0 
L 3419 850 
z
M 1838 1716 
L 3116 1716 
L 2478 3572 
L 1838 1716 
z
" transform="scale(0.015625)"/>
     </defs>
     <use xlink:href="#DejaVuSans-Bold-24"/>
    </g>
   </g>
   <g id="text_4">
    <!-- B -->
    <g style="fill: #1f2937" transform="translate(238.709397 93.632168) scale(0.095 -0.095)">
     <defs>
      <path id="DejaVuSans-Bold-25" d="M 2456 2859 
Q 2741 2859 2887 2984 
Q 3034 3109 3034 3353 
Q 3034 3594 2887 3720 
Q 2741 3847 2456 3847 
L 1791 3847 
L 1791 2859 
L 2456 2859 
z
M 2497 819 
Q 2859 819 3042 972 
Q 3225 1125 3225 1434 
Q 3225 1738 3044 1889 
Q 2863 2041 2497 2041 
L 1791 2041 
L 1791 819 
L 2497 819 
z
M 3616 2497 
Q 4003 2384 4215 2081 
Q 4428 1778 4428 1338 
Q 4428 663 3972 331 
Q 3516 0 2584 0 
L 588 0 
L 588 4666 
L 2394 4666 
Q 3366 4666 3802 4372 
Q 4238 4078 4238 3431 
Q 4238 3091 4078 2852 
Q 3919 2613 3616 2497 
z
" transform="scale(0.015625)"/>
     </defs>
     <use xlink:href="#DejaVuSans-Bold-25"/>
    </g>
   </g>
   <g id="text_5">
    <!-- C -->
    <g style="fill: #1f2937" transform="translate(395.596924 142.639743) scale(0.095 -0.095)">
     <defs>
      <path id="DejaVuSans-Bold-26" d="M 4288 256 
Q 3956 84 3597 -3 
Q 3238 -91 2847 -91 
Q 1681 -91 1000 561 
Q 319 1213 319 2328 
Q 319 3447 1000 4098 
Q 1681 4750 2847 4750 
Q 3238 4750 3597 4662 
Q 3956 4575 4288 4403 
L 4288 3438 
Q 3953 3666 3628 3772 
Q 3303 3878 2944 3878 
Q 2300 3878 1931 3465 
Q 1563 3053 1563 2328 
Q 1563 1606 1931 1193 
Q 2300 781 2944 781 
Q 3303 781 3628 887 
Q 3953 994 4288 1222 
L 4288 256 
z
" transform="scale(0.015625)"/>
     </defs>
     <use xlink:href="#DejaVuSans-Bold-26"/>
    </g>
   </g>
   <g id="text_6">
    <!-- D -->
    <g style="fill: #1f2937" transform="translate(551.892928 164.398885) scale(0.095 -0.095)">
     <defs>
      <path id="DejaVuSans-Bold-27" d="M 1791 3756 
L 1791 909 
L 2222 909 
Q 2959 909 3348 1275 
Q 3738 1641 3738 2338 
Q 3738 3031 3350 3393 
Q 2963 3756 2222 3756 
L 1791 3756 
z
M 588 4666 
L 1856 4666 
Q 2919 4666 3439 4514 
Q 3959 4363 4331 4000 
Q 4659 3684 4818 3271 
Q 4978 2859 4978 2338 
Q 4978 1809 4818 1395 
Q 4659 981 4331 666 
Q 3956 303 3431 151 
Q 2906 0 1856 0 
L 588 0 
L 588 4666 
z
" transform="scale(0.015625)"/>
     </defs>
     <use xlink:href="#DejaVuSans-Bold-27"/>
    </g>
   </g>
  </g>
 </g>
 <defs>
  <clipPath id="p110254ca82">
   <rect x="7.2" y="25.933" width="613.95" height="307.217"/>
  </clipPath>
 </defs>
</svg>
