<?xml version="1.0" encoding="utf-8" standalone="no"?>
<!DOCTYPE svg PUBLIC "-//W3C//DTD SVG 1.1//EN"
  "http://www.w3.org/Graphics/SVG/1.1/DTD/svg11.dtd">
<svg xmlns:xlink="http://www.w3.org/1999/xlink" width="628.35pt" height="328.491016pt" viewBox="0 0 628.35 328.491016" xmlns="http://www.w3.org/2000/svg" version="1.1">
 <metadata>
  <rdf:RDF xmlns:dc="http://purl.org/dc/elements/1.1/" xmlns:cc="http://creativecommons.org/ns#" xmlns:rdf="http://www.w3.org/1999/02/22-rdf-syntax-ns#">
   <cc:Work>
    <dc:type rdf:resource="http://purl.org/dc/dcmitype/StillImage"/>
    <dc:date>2026-07-18T20:17:17.367024</dc:date>
    <dc:format>image/svg+xml</dc:format>
    <dc:creator>
     <cc:Agent>
      <dc:title>Matplotlib v3.11.1, https://matplotlib.org/</dc:title>
     </cc:Agent>
    </dc:creator>
   </cc:Work>
  </rdf:RDF>
 </metadata>
 <defs>
  <style type="text/css">*{stroke-linejoin: round; stroke-linecap: butt}</style>
 </defs>
 <g id="figure_1">
  <g id="patch_1">
   <path d="M 0 328.491016 
L 628.35 328.491016 
L 628.35 0 
L 0 0 
z
" style="fill: #ffffff"/>
  </g>
  <g id="axes_1">
   <g id="patch_2">
    <path d="M 7.2 296.433457 
L 621.15 296.433457 
L 621.15 21.558281 
L 7.2 21.558281 
z
" style="fill: #ffffff"/>
   </g>
   <g id="matplotlib.axis_1"/>
   <g id="matplotlib.axis_2"/>
   <g id="line2d_1">
    <path d="M 35.106818 34.053536 
L 40.744559 34.055112 
L 46.3823 34.059083 
L 52.020041 34.068669 
L 57.657782 34.090846 
L 63.295523 34.139994 
L 68.933264 34.244321 
L 74.571006 34.456374 
L 80.208747 34.868964 
L 85.846488 35.637151 
L 91.484229 37.005198 
L 97.12197 39.334354 
L 102.759711 43.123025 
L 108.397452 49.006438 
L 114.035193 57.720146 
L 119.672934 70.013395 
L 125.310675 86.506873 
L 130.948416 107.505333 
L 136.586157 132.796564 
L 142.223898 161.487581 
L 147.861639 191.938106 
L 153.49938 221.842129 
L 159.137121 248.47788 
L 164.774862 269.100353 
L 170.412603 281.402492 
L 176.050344 283.939131 
L 181.688085 276.406201 
L 187.325826 259.700662 
L 192.963567 235.744865 
L 198.601309 207.122834 
L 204.23905 176.623543 
L 209.876791 146.802241 
L 215.514532 119.652808 
L 221.152273 96.441881 
L 226.790014 77.706258 
L 232.427755 63.375493 
L 238.065496 52.961598 
L 243.703237 45.758525 
L 249.340978 41.009544 
L 254.978719 38.021837 
L 260.61646 36.226663 
L 266.254201 35.19579 
L 271.891942 34.62973 
L 277.529683 34.332439 
L 283.167424 34.183236 
L 288.805165 34.112173 
L 294.442906 34.081382 
L 300.080647 34.072658 
L 305.718388 34.080511 
L 311.356129 34.109892 
L 316.993871 34.178246 
L 322.631612 34.322212 
L 328.269353 34.609745 
L 333.907094 35.158449 
L 339.544835 36.159942 
L 345.182576 37.907882 
L 350.820317 40.823617 
L 356.458058 45.468951 
L 362.095799 52.531509 
L 367.73354 62.767073 
L 373.371281 76.887811 
L 379.009022 95.397218 
L 384.646763 118.391423 
L 390.284504 145.367707 
L 395.922245 175.09711 
L 401.559986 205.619605 
L 407.197727 234.401451 
L 412.835468 258.655545 
L 418.473209 275.77647 
L 424.11095 283.798942 
L 429.748691 281.768702 
L 435.386433 269.929191 
L 441.024174 249.673547 
L 446.661915 223.275006 
L 452.299656 193.467781 
L 457.937397 162.985068 
L 463.575138 134.160977 
L 469.212879 108.672394 
L 474.85062 87.449148 
L 480.488361 70.734162 
L 486.126102 58.243832 
L 491.763843 49.36854 
L 497.401584 43.361639 
L 503.039325 39.484373 
L 508.677066 37.095264 
L 514.314807 35.688821 
L 519.952548 34.897307 
L 525.590289 34.471246 
L 531.22803 34.251789 
L 536.865771 34.143584 
L 542.503512 34.092498 
L 548.141253 34.069398 
L 553.778994 34.05939 
L 559.416736 34.055237 
L 565.054477 34.053584 
L 570.692218 34.052954 
L 576.329959 34.052724 
L 581.9677 34.052643 
L 587.605441 34.052616 
L 593.243182 34.052607 
" clip-path="url(#p5a3c7c89f6)" style="fill: none; stroke: #1f2937; stroke-width: 2.2; stroke-linecap: square"/>
   </g>
   <g id="line2d_2">
    <path d="M 7.2 75.753509 
L 621.15 75.753509 
" clip-path="url(#p5a3c7c89f6)" style="fill: none; stroke-dasharray: 5.18,2.24; stroke-dashoffset: 0; stroke: #b7791f; stroke-width: 1.4"/>
   </g>
   <g id="text_1">
    <!-- Neckline (Resistance) -->
    <g style="fill: #b7791f" transform="translate(251.694013 61.853207) scale(0.09 -0.09)">
     <defs>
      <path id="DejaVuSans-31" d="M 628 4666 
L 1478 4666 
L 3547 763 
L 3547 4666 
L 4159 4666 
L 4159 0 
L 3309 0 
L 1241 3903 
L 1241 0 
L 628 0 
L 628 4666 
z
" transform="scale(0.015625)"/>
      <path id="DejaVuSans-48" d="M 3597 1894 
L 3597 1613 
L 953 1613 
Q 991 1019 1311 708 
Q 1631 397 2203 397 
Q 2534 397 2845 478 
Q 3156 559 3463 722 
L 3463 178 
Q 3153 47 2828 -22 
Q 2503 -91 2169 -91 
Q 1331 -91 842 396 
Q 353 884 353 1716 
Q 353 2575 817 3079 
Q 1281 3584 2069 3584 
Q 2775 3584 3186 3129 
Q 3597 2675 3597 1894 
z
M 3022 2063 
Q 3016 2534 2758 2815 
Q 2500 3097 2075 3097 
Q 1594 3097 1305 2825 
Q 1016 2553 972 2059 
L 3022 2063 
z
" transform="scale(0.015625)"/>
      <path id="DejaVuSans-46" d="M 3122 3366 
L 3122 2828 
Q 2878 2963 2633 3030 
Q 2388 3097 2138 3097 
Q 1578 3097 1268 2742 
Q 959 2388 959 1747 
Q 959 1106 1268 751 
Q 1578 397 2138 397 
Q 2388 397 2633 464 
Q 2878 531 3122 666 
L 3122 134 
Q 2881 22 2623 -34 
Q 2366 -91 2075 -91 
Q 1284 -91 818 406 
Q 353 903 353 1747 
Q 353 2603 823 3093 
Q 1294 3584 2113 3584 
Q 2378 3584 2631 3529 
Q 2884 3475 3122 3366 
z
" transform="scale(0.015625)"/>
      <path id="DejaVuSans-4e" d="M 581 4863 
L 1159 4863 
L 1159 1991 
L 2875 3500 
L 3609 3500 
L 1753 1863 
L 3688 0 
L 2938 0 
L 1159 1709 
L 1159 0 
L 581 0 
L 581 4863 
z
" transform="scale(0.015625)"/>
      <path id="DejaVuSans-4f" d="M 603 4863 
L 1178 4863 
L 1178 0 
L 603 0 
L 603 4863 
z
" transform="scale(0.015625)"/>
      <path id="DejaVuSans-4c" d="M 603 3500 
L 1178 3500 
L 1178 0 
L 603 0 
L 603 3500 
z
M 603 4863 
L 1178 4863 
L 1178 4134 
L 603 4134 
L 603 4863 
z
" transform="scale(0.015625)"/>
      <path id="DejaVuSans-51" d="M 3513 2113 
L 3513 0 
L 2938 0 
L 2938 2094 
Q 2938 2591 2744 2837 
Q 2550 3084 2163 3084 
Q 1697 3084 1428 2787 
Q 1159 2491 1159 1978 
L 1159 0 
L 581 0 
L 581 3500 
L 1159 3500 
L 1159 2956 
Q 1366 3272 1645 3428 
Q 1925 3584 2291 3584 
Q 2894 3584 3203 3211 
Q 3513 2838 3513 2113 
z
" transform="scale(0.015625)"/>
      <path id="DejaVuSans-3" transform="scale(0.015625)"/>
      <path id="DejaVuSans-b" d="M 1984 4856 
Q 1566 4138 1362 3434 
Q 1159 2731 1159 2009 
Q 1159 1288 1364 580 
Q 1569 -128 1984 -844 
L 1484 -844 
Q 1016 -109 783 600 
Q 550 1309 550 2009 
Q 550 2706 781 3412 
Q 1013 4119 1484 4856 
L 1984 4856 
z
" transform="scale(0.015625)"/>
      <path id="DejaVuSans-35" d="M 2841 2188 
Q 3044 2119 3236 1894 
Q 3428 1669 3622 1275 
L 4263 0 
L 3584 0 
L 2988 1197 
Q 2756 1666 2539 1819 
Q 2322 1972 1947 1972 
L 1259 1972 
L 1259 0 
L 628 0 
L 628 4666 
L 2053 4666 
Q 2853 4666 3247 4331 
Q 3641 3997 3641 3322 
Q 3641 2881 3436 2590 
Q 3231 2300 2841 2188 
z
M 1259 4147 
L 1259 2491 
L 2053 2491 
Q 2509 2491 2742 2702 
Q 2975 2913 2975 3322 
Q 2975 3731 2742 3939 
Q 2509 4147 2053 4147 
L 1259 4147 
z
" transform="scale(0.015625)"/>
      <path id="DejaVuSans-56" d="M 2834 3397 
L 2834 2853 
Q 2591 2978 2328 3040 
Q 2066 3103 1784 3103 
Q 1356 3103 1142 2972 
Q 928 2841 928 2578 
Q 928 2378 1081 2264 
Q 1234 2150 1697 2047 
L 1894 2003 
Q 2506 1872 2764 1633 
Q 3022 1394 3022 966 
Q 3022 478 2636 193 
Q 2250 -91 1575 -91 
Q 1294 -91 989 -36 
Q 684 19 347 128 
L 347 722 
Q 666 556 975 473 
Q 1284 391 1588 391 
Q 1994 391 2212 530 
Q 2431 669 2431 922 
Q 2431 1156 2273 1281 
Q 2116 1406 1581 1522 
L 1381 1569 
Q 847 1681 609 1914 
Q 372 2147 372 2553 
Q 372 3047 722 3315 
Q 1072 3584 1716 3584 
Q 2034 3584 2315 3537 
Q 2597 3491 2834 3397 
z
" transform="scale(0.015625)"/>
      <path id="DejaVuSans-57" d="M 1172 4494 
L 1172 3500 
L 2356 3500 
L 2356 3053 
L 1172 3053 
L 1172 1153 
Q 1172 725 1289 603 
Q 1406 481 1766 481 
L 2356 481 
L 2356 0 
L 1766 0 
Q 1100 0 847 248 
Q 594 497 594 1153 
L 594 3053 
L 172 3053 
L 172 3500 
L 594 3500 
L 594 4494 
L 1172 4494 
z
" transform="scale(0.015625)"/>
      <path id="DejaVuSans-44" d="M 2194 1759 
Q 1497 1759 1228 1600 
Q 959 1441 959 1056 
Q 959 750 1161 570 
Q 1363 391 1709 391 
Q 2188 391 2477 730 
Q 2766 1069 2766 1631 
L 2766 1759 
L 2194 1759 
z
M 3341 1997 
L 3341 0 
L 2766 0 
L 2766 531 
Q 2569 213 2275 61 
Q 1981 -91 1556 -91 
Q 1019 -91 701 211 
Q 384 513 384 1019 
Q 384 1609 779 1909 
Q 1175 2209 1959 2209 
L 2766 2209 
L 2766 2266 
Q 2766 2663 2505 2880 
Q 2244 3097 1772 3097 
Q 1472 3097 1187 3025 
Q 903 2953 641 2809 
L 641 3341 
Q 956 3463 1253 3523 
Q 1550 3584 1831 3584 
Q 2591 3584 2966 3190 
Q 3341 2797 3341 1997 
z
" transform="scale(0.015625)"/>
      <path id="DejaVuSans-c" d="M 513 4856 
L 1013 4856 
Q 1481 4119 1714 3412 
Q 1947 2706 1947 2009 
Q 1947 1309 1714 600 
Q 1481 -109 1013 -844 
L 513 -844 
Q 928 -128 1133 580 
Q 1338 1288 1338 2009 
Q 1338 2731 1133 3434 
Q 928 4138 513 4856 
z
" transform="scale(0.015625)"/>
     </defs>
     <use xlink:href="#DejaVuSans-31"/>
     <use xlink:href="#DejaVuSans-48" transform="translate(74.8125 0)"/>
     <use xlink:href="#DejaVuSans-46" transform="translate(136.34375 0)"/>
     <use xlink:href="#DejaVuSans-4e" transform="translate(191.328125 0)"/>
     <use xlink:href="#DejaVuSans-4f" transform="translate(249.234375 0)"/>
     <use xlink:href="#DejaVuSans-4c" transform="translate(277.015625 0)"/>
     <use xlink:href="#DejaVuSans-51" transform="translate(304.796875 0)"/>
     <use xlink:href="#DejaVuSans-48" transform="translate(368.171875 0)"/>
     <use xlink:href="#DejaVuSans-3" transform="translate(429.703125 0)"/>
     <use xlink:href="#DejaVuSans-b" transform="translate(461.484375 0)"/>
     <use xlink:href="#DejaVuSans-35" transform="translate(500.5 0)"/>
     <use xlink:href="#DejaVuSans-48" transform="translate(565.5 0)"/>
     <use xlink:href="#DejaVuSans-56" transform="translate(627.03125 0)"/>
     <use xlink:href="#DejaVuSans-4c" transform="translate(679.125 0)"/>
     <use xlink:href="#DejaVuSans-56" transform="translate(706.90625 0)"/>
     <use xlink:href="#DejaVuSans-57" transform="translate(759 0)"/>
     <use xlink:href="#DejaVuSans-44" transform="translate(798.203125 0)"/>
     <use xlink:href="#DejaVuSans-51" transform="translate(859.484375 0)"/>
     <use xlink:href="#DejaVuSans-46" transform="translate(922.859375 0)"/>
     <use xlink:href="#DejaVuSans-48" transform="translate(977.84375 0)"/>
     <use xlink:href="#DejaVuSans-c" transform="translate(1039.375 0)"/>
    </g>
   </g>
   <g id="text_2">
    <!-- Bottom 1 -->
    <g style="fill: #b91c1c" transform="translate(150.044815 319.008789) scale(0.095 -0.095)">
     <defs>
      <path id="DejaVuSans-Bold-25" d="M 2456 2859 
Q 2741 2859 2887 2984 
Q 3034 3109 3034 3353 
Q 3034 3594 2887 3720 
Q 2741 3847 2456 3847 
L 1791 3847 
L 1791 2859 
L 2456 2859 
z
M 2497 819 
Q 2859 819 3042 972 
Q 3225 1125 3225 1434 
Q 3225 1738 3044 1889 
Q 2863 2041 2497 2041 
L 1791 2041 
L 1791 819 
L 2497 819 
z
M 3616 2497 
Q 4003 2384 4215 2081 
Q 4428 1778 4428 1338 
Q 4428 663 3972 331 
Q 3516 0 2584 0 
L 588 0 
L 588 4666 
L 2394 4666 
Q 3366 4666 3802 4372 
Q 4238 4078 4238 3431 
Q 4238 3091 4078 2852 
Q 3919 2613 3616 2497 
z
" transform="scale(0.015625)"/>
      <path id="DejaVuSans-Bold-52" d="M 2203 2784 
Q 1831 2784 1636 2517 
Q 1441 2250 1441 1747 
Q 1441 1244 1636 976 
Q 1831 709 2203 709 
Q 2569 709 2762 976 
Q 2956 1244 2956 1747 
Q 2956 2250 2762 2517 
Q 2569 2784 2203 2784 
z
M 2203 3584 
Q 3106 3584 3614 3096 
Q 4122 2609 4122 1747 
Q 4122 884 3614 396 
Q 3106 -91 2203 -91 
Q 1297 -91 786 396 
Q 275 884 275 1747 
Q 275 2609 786 3096 
Q 1297 3584 2203 3584 
z
" transform="scale(0.015625)"/>
      <path id="DejaVuSans-Bold-57" d="M 1759 4494 
L 1759 3500 
L 2913 3500 
L 2913 2700 
L 1759 2700 
L 1759 1216 
Q 1759 972 1856 886 
Q 1953 800 2241 800 
L 2816 800 
L 2816 0 
L 1856 0 
Q 1194 0 917 276 
Q 641 553 641 1216 
L 641 2700 
L 84 2700 
L 84 3500 
L 641 3500 
L 641 4494 
L 1759 4494 
z
" transform="scale(0.015625)"/>
      <path id="DejaVuSans-Bold-50" d="M 3781 2919 
Q 3994 3244 4286 3414 
Q 4578 3584 4928 3584 
Q 5531 3584 5847 3212 
Q 6163 2841 6163 2131 
L 6163 0 
L 5038 0 
L 5038 1825 
Q 5041 1866 5042 1909 
Q 5044 1953 5044 2034 
Q 5044 2406 4934 2573 
Q 4825 2741 4581 2741 
Q 4263 2741 4089 2478 
Q 3916 2216 3909 1719 
L 3909 0 
L 2784 0 
L 2784 1825 
Q 2784 2406 2684 2573 
Q 2584 2741 2328 2741 
Q 2006 2741 1831 2477 
Q 1656 2213 1656 1722 
L 1656 0 
L 531 0 
L 531 3500 
L 1656 3500 
L 1656 2988 
Q 1863 3284 2130 3434 
Q 2397 3584 2719 3584 
Q 3081 3584 3359 3409 
Q 3638 3234 3781 2919 
z
" transform="scale(0.015625)"/>
      <path id="DejaVuSans-Bold-3" transform="scale(0.015625)"/>
      <path id="DejaVuSans-Bold-14" d="M 750 831 
L 1813 831 
L 1813 3847 
L 722 3622 
L 722 4441 
L 1806 4666 
L 2950 4666 
L 2950 831 
L 4013 831 
L 4013 0 
L 750 0 
L 750 831 
z
" transform="scale(0.015625)"/>
     </defs>
     <use xlink:href="#DejaVuSans-Bold-25"/>
     <use xlink:href="#DejaVuSans-Bold-52" transform="translate(76.21875 0)"/>
     <use xlink:href="#DejaVuSans-Bold-57" transform="translate(144.921875 0)"/>
     <use xlink:href="#DejaVuSans-Bold-57" transform="translate(192.71875 0)"/>
     <use xlink:href="#DejaVuSans-Bold-52" transform="translate(240.515625 0)"/>
     <use xlink:href="#DejaVuSans-Bold-50" transform="translate(309.21875 0)"/>
     <use xlink:href="#DejaVuSans-Bold-3" transform="translate(413.421875 0)"/>
     <use xlink:href="#DejaVuSans-Bold-14" transform="translate(448.234375 0)"/>
    </g>
   </g>
   <g id="text_3">
    <!-- Bottom 2 -->
    <g style="fill: #b91c1c" transform="translate(401.206179 319.008789) scale(0.095 -0.095)">
     <defs>
      <path id="DejaVuSans-Bold-15" d="M 1844 884 
L 3897 884 
L 3897 0 
L 506 0 
L 506 884 
L 2209 2388 
Q 2438 2594 2547 2791 
Q 2656 2988 2656 3200 
Q 2656 3528 2436 3728 
Q 2216 3928 1850 3928 
Q 1569 3928 1234 3808 
Q 900 3688 519 3450 
L 519 4475 
Q 925 4609 1322 4679 
Q 1719 4750 2100 4750 
Q 2938 4750 3402 4381 
Q 3866 4013 3866 3353 
Q 3866 2972 3669 2642 
Q 3472 2313 2841 1759 
L 1844 884 
z
" transform="scale(0.015625)"/>
     </defs>
     <use xlink:href="#DejaVuSans-Bold-25"/>
     <use xlink:href="#DejaVuSans-Bold-52" transform="translate(76.21875 0)"/>
     <use xlink:href="#DejaVuSans-Bold-57" transform="translate(144.921875 0)"/>
     <use xlink:href="#DejaVuSans-Bold-57" transform="translate(192.71875 0)"/>
     <use xlink:href="#DejaVuSans-Bold-52" transform="translate(240.515625 0)"/>
     <use xlink:href="#DejaVuSans-Bold-50" transform="translate(309.21875 0)"/>
     <use xlink:href="#DejaVuSans-Bold-3" transform="translate(413.421875 0)"/>
     <use xlink:href="#DejaVuSans-Bold-15" transform="translate(448.234375 0)"/>
    </g>
   </g>
   <g id="text_4">
    <!-- Double Bottom -->
    <g style="fill: #1f2937" transform="translate(267.709453 15.558281) scale(0.11 -0.11)">
     <defs>
      <path id="DejaVuSans-Bold-27" d="M 1791 3756 
L 1791 909 
L 2222 909 
Q 2959 909 3348 1275 
Q 3738 1641 3738 2338 
Q 3738 3031 3350 3393 
Q 2963 3756 2222 3756 
L 1791 3756 
z
M 588 4666 
L 1856 4666 
Q 2919 4666 3439 4514 
Q 3959 4363 4331 4000 
Q 4659 3684 4818 3271 
Q 4978 2859 4978 2338 
Q 4978 1809 4818 1395 
Q 4659 981 4331 666 
Q 3956 303 3431 151 
Q 2906 0 1856 0 
L 588 0 
L 588 4666 
z
" transform="scale(0.015625)"/>
      <path id="DejaVuSans-Bold-58" d="M 500 1363 
L 500 3500 
L 1625 3500 
L 1625 3150 
Q 1625 2866 1622 2436 
Q 1619 2006 1619 1863 
Q 1619 1441 1641 1255 
Q 1663 1069 1716 984 
Q 1784 875 1895 815 
Q 2006 756 2150 756 
Q 2500 756 2700 1025 
Q 2900 1294 2900 1772 
L 2900 3500 
L 4019 3500 
L 4019 0 
L 2900 0 
L 2900 506 
Q 2647 200 2364 54 
Q 2081 -91 1741 -91 
Q 1134 -91 817 281 
Q 500 653 500 1363 
z
" transform="scale(0.015625)"/>
      <path id="DejaVuSans-Bold-45" d="M 2400 722 
Q 2759 722 2948 984 
Q 3138 1247 3138 1747 
Q 3138 2247 2948 2509 
Q 2759 2772 2400 2772 
Q 2041 2772 1848 2508 
Q 1656 2244 1656 1747 
Q 1656 1250 1848 986 
Q 2041 722 2400 722 
z
M 1656 2988 
Q 1888 3294 2169 3439 
Q 2450 3584 2816 3584 
Q 3463 3584 3878 3070 
Q 4294 2556 4294 1747 
Q 4294 938 3878 423 
Q 3463 -91 2816 -91 
Q 2450 -91 2169 54 
Q 1888 200 1656 506 
L 1656 0 
L 538 0 
L 538 4863 
L 1656 4863 
L 1656 2988 
z
" transform="scale(0.015625)"/>
      <path id="DejaVuSans-Bold-4f" d="M 538 4863 
L 1656 4863 
L 1656 0 
L 538 0 
L 538 4863 
z
" transform="scale(0.015625)"/>
      <path id="DejaVuSans-Bold-48" d="M 4031 1759 
L 4031 1441 
L 1416 1441 
Q 1456 1047 1700 850 
Q 1944 653 2381 653 
Q 2734 653 3104 758 
Q 3475 863 3866 1075 
L 3866 213 
Q 3469 63 3072 -14 
Q 2675 -91 2278 -91 
Q 1328 -91 801 392 
Q 275 875 275 1747 
Q 275 2603 792 3093 
Q 1309 3584 2216 3584 
Q 3041 3584 3536 3087 
Q 4031 2591 4031 1759 
z
M 2881 2131 
Q 2881 2450 2695 2645 
Q 2509 2841 2209 2841 
Q 1884 2841 1681 2658 
Q 1478 2475 1428 2131 
L 2881 2131 
z
" transform="scale(0.015625)"/>
     </defs>
     <use xlink:href="#DejaVuSans-Bold-27"/>
     <use xlink:href="#DejaVuSans-Bold-52" transform="translate(83.015625 0)"/>
     <use xlink:href="#DejaVuSans-Bold-58" transform="translate(151.71875 0)"/>
     <use xlink:href="#DejaVuSans-Bold-45" transform="translate(222.90625 0)"/>
     <use xlink:href="#DejaVuSans-Bold-4f" transform="translate(294.484375 0)"/>
     <use xlink:href="#DejaVuSans-Bold-48" transform="translate(328.765625 0)"/>
     <use xlink:href="#DejaVuSans-Bold-3" transform="translate(396.59375 0)"/>
     <use xlink:href="#DejaVuSans-Bold-25" transform="translate(431.40625 0)"/>
     <use xlink:href="#DejaVuSans-Bold-52" transform="translate(507.625 0)"/>
     <use xlink:href="#DejaVuSans-Bold-57" transform="translate(576.328125 0)"/>
     <use xlink:href="#DejaVuSans-Bold-57" transform="translate(624.125 0)"/>
     <use xlink:href="#DejaVuSans-Bold-52" transform="translate(671.921875 0)"/>
     <use xlink:href="#DejaVuSans-Bold-50" transform="translate(740.625 0)"/>
    </g>
   </g>
  </g>
 </g>
 <defs>
  <clipPath id="p5a3c7c89f6">
   <rect x="7.2" y="21.558281" width="613.95" height="274.875176"/>
  </clipPath>
 </defs>
</svg>
