<?xml version="1.0" encoding="utf-8" standalone="no"?>
<!DOCTYPE svg PUBLIC "-//W3C//DTD SVG 1.1//EN"
  "http://www.w3.org/Graphics/SVG/1.1/DTD/svg11.dtd">
<svg xmlns:xlink="http://www.w3.org/1999/xlink" width="628.35pt" height="340.35pt" viewBox="0 0 628.35 340.35" xmlns="http://www.w3.org/2000/svg" version="1.1">
 <metadata>
  <rdf:RDF xmlns:dc="http://purl.org/dc/elements/1.1/" xmlns:cc="http://creativecommons.org/ns#" xmlns:rdf="http://www.w3.org/1999/02/22-rdf-syntax-ns#">
   <cc:Work>
    <dc:type rdf:resource="http://purl.org/dc/dcmitype/StillImage"/>
    <dc:date>2026-07-19T00:38:59.210261</dc:date>
    <dc:format>image/svg+xml</dc:format>
    <dc:creator>
     <cc:Agent>
      <dc:title>Matplotlib v3.11.1, https://matplotlib.org/</dc:title>
     </cc:Agent>
    </dc:creator>
   </cc:Work>
  </rdf:RDF>
 </metadata>
 <defs>
  <style type="text/css">*{stroke-linejoin: round; stroke-linecap: butt}</style>
 </defs>
 <g id="figure_1">
  <g id="patch_1">
   <path d="M 0 340.35 
L 628.35 340.35 
L 628.35 0 
L 0 0 
z
" style="fill: #ffffff"/>
  </g>
  <g id="axes_1">
   <g id="patch_2">
    <path d="M 7.2 308.12 
L 560.932344 308.12 
L 560.932344 7.2 
L 7.2 7.2 
z
" style="fill: #ffffff"/>
   </g>
   <g id="matplotlib.axis_1">
    <g id="text_1">
     <!-- ​ﻦﻣﺰﻟﺍ -->
     <g style="fill: #1f2937" transform="translate(274.591172 326.81) scale(0.1 -0.1)">
      <defs>
       <path id="NotoNaskhArabic-Regular-3" d="M 666 0 
Q 646 1126 604 2057 
Q 563 2989 493 3725 
Q 467 3987 566 4118 
Q 666 4250 915 4294 
Q 941 4173 1001 3965 
Q 1062 3757 1139 3533 
L 966 3386 
Q 992 2912 1001 2413 
Q 1011 1914 1001 1338 
Q 992 762 960 51 
L 666 0 
z
" transform="scale(0.015625)"/>
       <path id="NotoNaskhArabic-Regular-1c1" d="M -6 0 
Q -64 0 -64 51 
L -64 435 
Q -64 486 -6 486 
Q 378 486 704 659 
Q 685 902 665 1139 
Q 646 1376 627 1606 
Q 570 2208 512 2790 
Q 454 3373 384 3936 
Q 474 4032 579 4121 
Q 685 4211 806 4294 
Q 826 3949 851 3497 
Q 877 3046 915 2483 
Q 947 2016 960 1609 
Q 973 1203 979 864 
Q 979 755 915 572 
Q 851 390 755 224 
Q 640 0 -6 0 
z
" transform="scale(0.015625)"/>
       <path id="NotoNaskhArabic-Regular-d6" d="M 710 -1306 
Q 608 -1306 451 -1248 
Q 294 -1190 134 -1107 
Q -26 -1024 -128 -947 
L -45 -736 
Q 134 -768 284 -787 
Q 435 -806 563 -806 
Q 1043 -806 1385 -518 
Q 1728 -230 1907 314 
Q 1862 416 1814 515 
Q 1766 614 1709 717 
Q 1491 1107 1388 1340 
Q 1286 1574 1286 1734 
Q 1286 1901 1382 2000 
Q 1478 2099 1658 2182 
Q 1683 2099 1712 2000 
Q 1741 1901 1786 1792 
Q 1888 1530 1955 1334 
Q 2022 1139 2054 1018 
Q 2093 896 2115 797 
Q 2138 698 2144 614 
Q 2362 486 2643 486 
Q 2694 486 2694 435 
L 2694 51 
Q 2694 0 2643 0 
Q 2342 0 2118 154 
Q 2048 -288 1849 -617 
Q 1651 -947 1356 -1126 
Q 1062 -1306 710 -1306 
z
M 1299 2560 
Q 1018 2771 839 2976 
Q 1165 3303 1287 3443 
Q 1389 3335 1494 3229 
Q 1600 3123 1709 3027 
Q 1562 2816 1299 2560 
z
" transform="scale(0.015625)"/>
       <path id="NotoNaskhArabic-Regular-1e5" d="M 2291 0 
Q 2035 0 1753 48 
Q 1472 96 1209 182 
Q 947 269 749 384 
Q 602 179 422 89 
Q 243 0 0 0 
Q -51 0 -51 51 
L -51 435 
Q -51 486 0 486 
Q 243 486 409 604 
Q 576 723 698 960 
Q 813 1171 880 1308 
Q 947 1446 1004 1555 
Q 1062 1664 1152 1779 
Q 1312 1990 1478 2083 
Q 1645 2176 1830 2176 
Q 2016 2176 2201 1945 
Q 2387 1715 2502 1357 
Q 2618 1005 2618 666 
Q 2618 467 2547 307 
Q 2477 147 2291 0 
z
M 2150 486 
Q 2144 781 2061 1065 
Q 1978 1350 1875 1498 
Q 1805 1606 1728 1606 
Q 1491 1606 1286 1318 
Q 1235 1242 1161 1117 
Q 1088 992 998 806 
Q 1459 563 2150 486 
z
" transform="scale(0.015625)"/>
       <path id="NotoNaskhArabic-Regular-1e8" d="M 1594 -1677 
Q 1050 -1677 742 -1363 
Q 435 -1050 435 -474 
Q 435 -346 444 -237 
Q 454 -128 480 9 
Q 506 147 557 358 
L 794 301 
Q 723 6 723 -154 
Q 723 -621 956 -883 
Q 1190 -1146 1606 -1146 
Q 1926 -1146 2249 -1040 
Q 2573 -934 2829 -752 
Q 3085 -570 3187 -346 
Q 2976 109 2873 416 
Q 2771 723 2771 877 
Q 2771 1043 2864 1174 
Q 2957 1306 3187 1446 
Q 3200 1344 3235 1133 
Q 3270 922 3334 595 
Q 3565 486 3802 486 
Q 3859 486 3859 435 
L 3859 51 
Q 3859 0 3802 0 
Q 3590 0 3418 77 
L 3424 -109 
Q 3424 -499 3174 -860 
Q 2925 -1222 2490 -1446 
Q 2061 -1677 1594 -1677 
z
M 1766 1504 
Q 1485 1715 1306 1920 
Q 1632 2247 1754 2387 
Q 1856 2279 1961 2173 
Q 2067 2067 2176 1971 
Q 2029 1760 1766 1504 
z
" transform="scale(0.015625)"/>
       <path id="NotoNaskhArabic-Regular-554" transform="scale(0.015625)"/>
      </defs>
      <use xlink:href="#NotoNaskhArabic-Regular-3"/>
      <use xlink:href="#NotoNaskhArabic-Regular-1c1" transform="translate(23.796875 0)"/>
      <use xlink:href="#NotoNaskhArabic-Regular-d6" transform="translate(45 0)"/>
      <use xlink:href="#NotoNaskhArabic-Regular-1e5" transform="translate(85.40625 0)"/>
      <use xlink:href="#NotoNaskhArabic-Regular-1e8" transform="translate(131 0)"/>
      <use xlink:href="#NotoNaskhArabic-Regular-554" transform="translate(189.5 0)"/>
     </g>
    </g>
   </g>
   <g id="matplotlib.axis_2">
    <g id="ytick_1">
     <g id="line2d_1">
      <path d="M 7.2 284.505948 
L 560.932344 284.505948 
" clip-path="url(#pe076185740)" style="fill: none; stroke: #e6e1d6; stroke-width: 0.8; stroke-linecap: square"/>
     </g>
     <g id="line2d_2">
      <defs>
       <path id="m93a1199266" d="M 0 0 
L 3.5 0 
" style="stroke: #555555; stroke-width: 0.8"/>
      </defs>
      <g>
       <use xlink:href="#m93a1199266" x="560.932344" y="284.505948" style="fill: #555555; stroke: #555555; stroke-width: 0.8"/>
      </g>
     </g>
     <g id="text_2">
      <!-- 100.0 -->
      <g style="fill: #555555" transform="translate(567.932344 290.118198) scale(0.105 -0.105)">
       <defs>
        <path id="NotoNaskhArabic-Regular-4cd" d="M 1722 0 
L 1722 3194 
Q 1722 3405 1728 3603 
Q 1734 3802 1747 3981 
Q 1702 3936 1657 3891 
Q 1613 3846 1562 3808 
Q 1402 3674 1226 3530 
Q 1050 3386 864 3232 
L 570 3610 
L 1805 4570 
L 2272 4570 
L 2272 0 
L 1722 0 
z
" transform="scale(0.015625)"/>
        <path id="NotoNaskhArabic-Regular-4cc" d="M 1824 -64 
Q 1082 -64 698 534 
Q 314 1133 314 2291 
Q 314 3488 682 4064 
Q 1050 4640 1824 4640 
Q 2566 4640 2956 4038 
Q 3347 3437 3347 2291 
Q 3347 1101 2969 518 
Q 2592 -64 1824 -64 
z
M 1824 416 
Q 2208 416 2426 678 
Q 2778 1094 2778 2291 
Q 2778 3571 2368 3962 
Q 2163 4160 1824 4160 
Q 1427 4160 1203 3878 
Q 877 3469 877 2291 
Q 877 1075 1229 666 
Q 1440 416 1824 416 
z
" transform="scale(0.015625)"/>
        <path id="NotoNaskhArabic-Regular-514" d="M 800 -422 
Q 646 -314 518 -230 
Q 390 -147 294 -90 
Q 326 -19 364 41 
Q 403 102 429 166 
Q 493 282 576 410 
Q 1069 122 1069 32 
Q 1069 -38 800 -422 
z
" transform="scale(0.015625)"/>
       </defs>
       <use xlink:href="#NotoNaskhArabic-Regular-4cd"/>
       <use xlink:href="#NotoNaskhArabic-Regular-4cc" transform="translate(57.203125 0)"/>
       <use xlink:href="#NotoNaskhArabic-Regular-4cc" transform="translate(114.40625 0)"/>
       <use xlink:href="#NotoNaskhArabic-Regular-514" transform="translate(171.609375 0)"/>
       <use xlink:href="#NotoNaskhArabic-Regular-4cc" transform="translate(192.203125 0)"/>
      </g>
     </g>
    </g>
    <g id="ytick_2">
     <g id="line2d_3">
      <path d="M 7.2 250.795632 
L 560.932344 250.795632 
" clip-path="url(#pe076185740)" style="fill: none; stroke: #e6e1d6; stroke-width: 0.8; stroke-linecap: square"/>
     </g>
     <g id="line2d_4">
      <g>
       <use xlink:href="#m93a1199266" x="560.932344" y="250.795632" style="fill: #555555; stroke: #555555; stroke-width: 0.8"/>
      </g>
     </g>
     <g id="text_3">
      <!-- 102.5 -->
      <g style="fill: #555555" transform="translate(567.932344 256.407882) scale(0.105 -0.105)">
       <defs>
        <path id="NotoNaskhArabic-Regular-4ce" d="M 307 0 
L 307 467 
L 1504 1677 
Q 1773 1952 1952 2147 
Q 2131 2342 2221 2458 
Q 2413 2720 2489 2925 
Q 2566 3130 2566 3386 
Q 2566 3744 2352 3949 
Q 2138 4154 1760 4154 
Q 1478 4154 1228 4058 
Q 979 3962 659 3718 
L 358 4096 
Q 1005 4634 1760 4634 
Q 2240 4634 2576 4448 
Q 2912 4262 3053 3923 
Q 3142 3686 3142 3418 
Q 3142 3123 3033 2841 
Q 2925 2560 2707 2272 
Q 2598 2131 2416 1929 
Q 2234 1728 1971 1478 
L 1018 538 
L 1018 512 
L 3328 512 
L 3328 0 
L 307 0 
z
" transform="scale(0.015625)"/>
        <path id="NotoNaskhArabic-Regular-4d1" d="M 1587 -64 
Q 826 -64 403 186 
L 403 717 
Q 634 576 960 496 
Q 1286 416 1594 416 
Q 2131 416 2425 672 
Q 2720 928 2720 1402 
Q 2720 2330 1574 2330 
Q 1210 2330 794 2234 
L 512 2413 
L 685 4570 
L 2976 4570 
L 2976 4058 
L 1165 4058 
L 1056 2733 
Q 1235 2765 1411 2784 
Q 1587 2803 1760 2803 
Q 2477 2803 2886 2444 
Q 3296 2086 3296 1459 
Q 3296 749 2841 342 
Q 2387 -64 1587 -64 
z
" transform="scale(0.015625)"/>
       </defs>
       <use xlink:href="#NotoNaskhArabic-Regular-4cd"/>
       <use xlink:href="#NotoNaskhArabic-Regular-4cc" transform="translate(57.203125 0)"/>
       <use xlink:href="#NotoNaskhArabic-Regular-4ce" transform="translate(114.40625 0)"/>
       <use xlink:href="#NotoNaskhArabic-Regular-514" transform="translate(171.609375 0)"/>
       <use xlink:href="#NotoNaskhArabic-Regular-4d1" transform="translate(192.203125 0)"/>
      </g>
     </g>
    </g>
    <g id="ytick_3">
     <g id="line2d_5">
      <path d="M 7.2 217.085316 
L 560.932344 217.085316 
" clip-path="url(#pe076185740)" style="fill: none; stroke: #e6e1d6; stroke-width: 0.8; stroke-linecap: square"/>
     </g>
     <g id="line2d_6">
      <g>
       <use xlink:href="#m93a1199266" x="560.932344" y="217.085316" style="fill: #555555; stroke: #555555; stroke-width: 0.8"/>
      </g>
     </g>
     <g id="text_4">
      <!-- 105.0 -->
      <g style="fill: #555555" transform="translate(567.932344 222.697566) scale(0.105 -0.105)">
       <use xlink:href="#NotoNaskhArabic-Regular-4cd"/>
       <use xlink:href="#NotoNaskhArabic-Regular-4cc" transform="translate(57.203125 0)"/>
       <use xlink:href="#NotoNaskhArabic-Regular-4d1" transform="translate(114.40625 0)"/>
       <use xlink:href="#NotoNaskhArabic-Regular-514" transform="translate(171.609375 0)"/>
       <use xlink:href="#NotoNaskhArabic-Regular-4cc" transform="translate(192.203125 0)"/>
      </g>
     </g>
    </g>
    <g id="ytick_4">
     <g id="line2d_7">
      <path d="M 7.2 183.375001 
L 560.932344 183.375001 
" clip-path="url(#pe076185740)" style="fill: none; stroke: #e6e1d6; stroke-width: 0.8; stroke-linecap: square"/>
     </g>
     <g id="line2d_8">
      <g>
       <use xlink:href="#m93a1199266" x="560.932344" y="183.375001" style="fill: #555555; stroke: #555555; stroke-width: 0.8"/>
      </g>
     </g>
     <g id="text_5">
      <!-- 107.5 -->
      <g style="fill: #555555" transform="translate(567.932344 188.987251) scale(0.105 -0.105)">
       <defs>
        <path id="NotoNaskhArabic-Regular-4d3" d="M 870 0 
L 2746 4058 
L 282 4058 
L 282 4570 
L 3347 4570 
L 3347 4134 
L 1491 0 
L 870 0 
z
" transform="scale(0.015625)"/>
       </defs>
       <use xlink:href="#NotoNaskhArabic-Regular-4cd"/>
       <use xlink:href="#NotoNaskhArabic-Regular-4cc" transform="translate(57.203125 0)"/>
       <use xlink:href="#NotoNaskhArabic-Regular-4d3" transform="translate(114.40625 0)"/>
       <use xlink:href="#NotoNaskhArabic-Regular-514" transform="translate(171.609375 0)"/>
       <use xlink:href="#NotoNaskhArabic-Regular-4d1" transform="translate(192.203125 0)"/>
      </g>
     </g>
    </g>
    <g id="ytick_5">
     <g id="line2d_9">
      <path d="M 7.2 149.664685 
L 560.932344 149.664685 
" clip-path="url(#pe076185740)" style="fill: none; stroke: #e6e1d6; stroke-width: 0.8; stroke-linecap: square"/>
     </g>
     <g id="line2d_10">
      <g>
       <use xlink:href="#m93a1199266" x="560.932344" y="149.664685" style="fill: #555555; stroke: #555555; stroke-width: 0.8"/>
      </g>
     </g>
     <g id="text_6">
      <!-- 110.0 -->
      <g style="fill: #555555" transform="translate(567.932344 155.276935) scale(0.105 -0.105)">
       <use xlink:href="#NotoNaskhArabic-Regular-4cd"/>
       <use xlink:href="#NotoNaskhArabic-Regular-4cd" transform="translate(57.203125 0)"/>
       <use xlink:href="#NotoNaskhArabic-Regular-4cc" transform="translate(114.40625 0)"/>
       <use xlink:href="#NotoNaskhArabic-Regular-514" transform="translate(171.609375 0)"/>
       <use xlink:href="#NotoNaskhArabic-Regular-4cc" transform="translate(192.203125 0)"/>
      </g>
     </g>
    </g>
    <g id="ytick_6">
     <g id="line2d_11">
      <path d="M 7.2 115.954369 
L 560.932344 115.954369 
" clip-path="url(#pe076185740)" style="fill: none; stroke: #e6e1d6; stroke-width: 0.8; stroke-linecap: square"/>
     </g>
     <g id="line2d_12">
      <g>
       <use xlink:href="#m93a1199266" x="560.932344" y="115.954369" style="fill: #555555; stroke: #555555; stroke-width: 0.8"/>
      </g>
     </g>
     <g id="text_7">
      <!-- 112.5 -->
      <g style="fill: #555555" transform="translate(567.932344 121.566619) scale(0.105 -0.105)">
       <use xlink:href="#NotoNaskhArabic-Regular-4cd"/>
       <use xlink:href="#NotoNaskhArabic-Regular-4cd" transform="translate(57.203125 0)"/>
       <use xlink:href="#NotoNaskhArabic-Regular-4ce" transform="translate(114.40625 0)"/>
       <use xlink:href="#NotoNaskhArabic-Regular-514" transform="translate(171.609375 0)"/>
       <use xlink:href="#NotoNaskhArabic-Regular-4d1" transform="translate(192.203125 0)"/>
      </g>
     </g>
    </g>
    <g id="ytick_7">
     <g id="line2d_13">
      <path d="M 7.2 82.244053 
L 560.932344 82.244053 
" clip-path="url(#pe076185740)" style="fill: none; stroke: #e6e1d6; stroke-width: 0.8; stroke-linecap: square"/>
     </g>
     <g id="line2d_14">
      <g>
       <use xlink:href="#m93a1199266" x="560.932344" y="82.244053" style="fill: #555555; stroke: #555555; stroke-width: 0.8"/>
      </g>
     </g>
     <g id="text_8">
      <!-- 115.0 -->
      <g style="fill: #555555" transform="translate(567.932344 87.856303) scale(0.105 -0.105)">
       <use xlink:href="#NotoNaskhArabic-Regular-4cd"/>
       <use xlink:href="#NotoNaskhArabic-Regular-4cd" transform="translate(57.203125 0)"/>
       <use xlink:href="#NotoNaskhArabic-Regular-4d1" transform="translate(114.40625 0)"/>
       <use xlink:href="#NotoNaskhArabic-Regular-514" transform="translate(171.609375 0)"/>
       <use xlink:href="#NotoNaskhArabic-Regular-4cc" transform="translate(192.203125 0)"/>
      </g>
     </g>
    </g>
    <g id="ytick_8">
     <g id="line2d_15">
      <path d="M 7.2 48.533738 
L 560.932344 48.533738 
" clip-path="url(#pe076185740)" style="fill: none; stroke: #e6e1d6; stroke-width: 0.8; stroke-linecap: square"/>
     </g>
     <g id="line2d_16">
      <g>
       <use xlink:href="#m93a1199266" x="560.932344" y="48.533738" style="fill: #555555; stroke: #555555; stroke-width: 0.8"/>
      </g>
     </g>
     <g id="text_9">
      <!-- 117.5 -->
      <g style="fill: #555555" transform="translate(567.932344 54.145988) scale(0.105 -0.105)">
       <use xlink:href="#NotoNaskhArabic-Regular-4cd"/>
       <use xlink:href="#NotoNaskhArabic-Regular-4cd" transform="translate(57.203125 0)"/>
       <use xlink:href="#NotoNaskhArabic-Regular-4d3" transform="translate(114.40625 0)"/>
       <use xlink:href="#NotoNaskhArabic-Regular-514" transform="translate(171.609375 0)"/>
       <use xlink:href="#NotoNaskhArabic-Regular-4d1" transform="translate(192.203125 0)"/>
      </g>
     </g>
    </g>
    <g id="ytick_9">
     <g id="line2d_17">
      <path d="M 7.2 14.823422 
L 560.932344 14.823422 
" clip-path="url(#pe076185740)" style="fill: none; stroke: #e6e1d6; stroke-width: 0.8; stroke-linecap: square"/>
     </g>
     <g id="line2d_18">
      <g>
       <use xlink:href="#m93a1199266" x="560.932344" y="14.823422" style="fill: #555555; stroke: #555555; stroke-width: 0.8"/>
      </g>
     </g>
     <g id="text_10">
      <!-- 120.0 -->
      <g style="fill: #555555" transform="translate(567.932344 20.435672) scale(0.105 -0.105)">
       <use xlink:href="#NotoNaskhArabic-Regular-4cd"/>
       <use xlink:href="#NotoNaskhArabic-Regular-4ce" transform="translate(57.203125 0)"/>
       <use xlink:href="#NotoNaskhArabic-Regular-4cc" transform="translate(114.40625 0)"/>
       <use xlink:href="#NotoNaskhArabic-Regular-514" transform="translate(171.609375 0)"/>
       <use xlink:href="#NotoNaskhArabic-Regular-4cc" transform="translate(192.203125 0)"/>
      </g>
     </g>
    </g>
    <g id="text_11">
     <!-- ​ﺮﻌﺴﻟﺍ -->
     <g style="fill: #1f2937" transform="translate(610.46 148.004531) rotate(-270) scale(0.1 -0.1)">
      <defs>
       <path id="NotoNaskhArabic-Regular-f9" d="M 1446 0 
Q 1267 0 1030 57 
Q 794 115 666 198 
Q 576 109 397 54 
Q 218 0 0 0 
Q -51 0 -51 51 
L -51 435 
Q -51 486 0 486 
Q 326 486 518 634 
Q 627 723 681 809 
Q 736 896 858 1094 
Q 915 1197 1056 1197 
Q 1146 1197 1210 1152 
Q 1114 909 1046 765 
Q 979 621 947 570 
Q 998 544 1155 515 
Q 1312 486 1517 486 
Q 1664 486 1789 505 
Q 1914 525 2016 550 
Q 2061 621 2115 793 
Q 2170 966 2227 1145 
Q 2285 1325 2323 1408 
Q 2381 1536 2432 1574 
Q 2483 1613 2579 1613 
Q 2669 1613 2733 1568 
Q 2688 1466 2608 1235 
Q 2528 1005 2400 582 
Q 2496 538 2566 522 
Q 2637 506 2739 506 
Q 2906 506 3091 570 
Q 3123 608 3168 723 
Q 3213 838 3277 1030 
Q 3328 1190 3385 1331 
Q 3443 1472 3501 1568 
Q 3552 1664 3699 1664 
Q 3789 1664 3853 1619 
Q 3808 1517 3728 1289 
Q 3648 1062 3533 710 
Q 3757 589 3917 537 
Q 4077 486 4294 486 
Q 4352 486 4352 435 
L 4352 51 
Q 4352 0 4294 0 
Q 4045 0 3798 96 
Q 3552 192 3386 346 
Q 3366 301 3347 259 
Q 3328 218 3296 173 
Q 3251 96 3078 48 
Q 2906 0 2733 0 
Q 2438 0 2221 160 
Q 2176 102 2041 67 
Q 1907 32 1744 19 
Q 1581 6 1446 0 
z
" transform="scale(0.015625)"/>
       <path id="NotoNaskhArabic-Regular-135" d="M 6 0 
Q -51 0 -51 58 
L -51 429 
Q -51 486 6 486 
Q 672 486 1101 640 
L 986 787 
Q 864 973 771 1094 
Q 678 1216 621 1280 
Q 506 1427 410 1491 
L 307 1427 
Q 192 1555 192 1709 
Q 192 1862 297 1974 
Q 403 2086 566 2172 
Q 730 2259 902 2310 
Q 1158 2394 1446 2394 
Q 1722 2394 1936 2288 
Q 2150 2182 2272 2003 
Q 2400 1824 2400 1594 
Q 2400 1293 2243 1049 
Q 2086 806 1830 602 
Q 2099 486 2694 486 
Q 2758 486 2758 429 
L 2758 58 
Q 2758 0 2694 0 
Q 2259 0 1955 83 
Q 1651 166 1402 346 
Q 1050 166 723 83 
Q 397 0 6 0 
z
M 1478 845 
Q 1696 992 1821 1152 
Q 1946 1312 1946 1459 
Q 1946 1638 1811 1753 
Q 1677 1869 1466 1869 
Q 1075 1869 710 1677 
Q 947 1491 1325 1018 
Q 1395 934 1478 845 
z
" transform="scale(0.015625)"/>
       <path id="NotoNaskhArabic-Regular-d4" d="M 710 -1306 
Q 608 -1306 451 -1248 
Q 294 -1190 134 -1107 
Q -26 -1024 -128 -947 
L -45 -736 
Q 134 -768 284 -787 
Q 435 -806 563 -806 
Q 1043 -806 1385 -518 
Q 1728 -230 1907 314 
Q 1862 416 1814 515 
Q 1766 614 1709 717 
Q 1491 1107 1388 1340 
Q 1286 1574 1286 1734 
Q 1286 1901 1382 2000 
Q 1478 2099 1658 2182 
Q 1683 2099 1712 2000 
Q 1741 1901 1786 1792 
Q 1888 1530 1955 1334 
Q 2022 1139 2054 1018 
Q 2093 896 2115 797 
Q 2138 698 2144 614 
Q 2362 486 2643 486 
Q 2694 486 2694 435 
L 2694 51 
Q 2694 0 2643 0 
Q 2342 0 2118 154 
Q 2048 -288 1849 -617 
Q 1651 -947 1356 -1126 
Q 1062 -1306 710 -1306 
z
" transform="scale(0.015625)"/>
      </defs>
      <use xlink:href="#NotoNaskhArabic-Regular-3"/>
      <use xlink:href="#NotoNaskhArabic-Regular-1c1" transform="translate(23.796875 0)"/>
      <use xlink:href="#NotoNaskhArabic-Regular-f9" transform="translate(45 0)"/>
      <use xlink:href="#NotoNaskhArabic-Regular-135" transform="translate(111.296875 0)"/>
      <use xlink:href="#NotoNaskhArabic-Regular-d4" transform="translate(152.703125 0)"/>
      <use xlink:href="#NotoNaskhArabic-Regular-554" transform="translate(193.109375 0)"/>
     </g>
    </g>
   </g>
   <g id="patch_3">
    <path d="M 560.932344 308.12 
L 560.932344 7.2 
" style="fill: none; stroke: #1f2937; stroke-width: 0.8; stroke-linejoin: miter; stroke-linecap: square"/>
   </g>
   <g id="patch_4">
    <path d="M 7.2 308.12 
L 560.932344 308.12 
" style="fill: none; stroke: #1f2937; stroke-width: 0.8; stroke-linejoin: miter; stroke-linecap: square"/>
   </g>
   <g id="line2d_19">
    <path d="M 20.384103 278.99871 
L 20.384103 272.730294 
" clip-path="url(#pe076185740)" style="fill: none; stroke: #1f8a56; stroke-width: 1.1; stroke-linecap: round"/>
   </g>
   <g id="line2d_20">
    <path d="M 33.568207 275.159541 
L 33.568207 269.643162 
" clip-path="url(#pe076185740)" style="fill: none; stroke: #1f8a56; stroke-width: 1.1; stroke-linecap: round"/>
   </g>
   <g id="line2d_21">
    <path d="M 46.75231 273.873888 
L 46.75231 260.267822 
" clip-path="url(#pe076185740)" style="fill: none; stroke: #1f8a56; stroke-width: 1.1; stroke-linecap: round"/>
   </g>
   <g id="line2d_22">
    <path d="M 59.936414 262.106191 
L 59.936414 247.755017 
" clip-path="url(#pe076185740)" style="fill: none; stroke: #1f8a56; stroke-width: 1.1; stroke-linecap: round"/>
   </g>
   <g id="line2d_23">
    <path d="M 73.120517 249.097951 
L 73.120517 239.564143 
" clip-path="url(#pe076185740)" style="fill: none; stroke: #1f8a56; stroke-width: 1.1; stroke-linecap: round"/>
   </g>
   <g id="line2d_24">
    <path d="M 86.304621 240.004648 
L 86.304621 231.984256 
" clip-path="url(#pe076185740)" style="fill: none; stroke: #1f8a56; stroke-width: 1.1; stroke-linecap: round"/>
   </g>
   <g id="line2d_25">
    <path d="M 99.488724 235.535045 
L 99.488724 223.129162 
" clip-path="url(#pe076185740)" style="fill: none; stroke: #1f8a56; stroke-width: 1.1; stroke-linecap: round"/>
   </g>
   <g id="line2d_26">
    <path d="M 112.672827 229.455478 
L 112.672827 209.07771 
" clip-path="url(#pe076185740)" style="fill: none; stroke: #1f8a56; stroke-width: 1.1; stroke-linecap: round"/>
   </g>
   <g id="line2d_27">
    <path d="M 125.856931 211.659361 
L 125.856931 207.171206 
" clip-path="url(#pe076185740)" style="fill: none; stroke: #b91c1c; stroke-width: 1.1; stroke-linecap: round"/>
   </g>
   <g id="line2d_28">
    <path d="M 139.041034 209.857779 
L 139.041034 208.259698 
" clip-path="url(#pe076185740)" style="fill: none; stroke: #1f8a56; stroke-width: 1.1; stroke-linecap: round"/>
   </g>
   <g id="line2d_29">
    <path d="M 152.225138 213.752609 
L 152.225138 206.55757 
" clip-path="url(#pe076185740)" style="fill: none; stroke: #b91c1c; stroke-width: 1.1; stroke-linecap: round"/>
   </g>
   <g id="line2d_30">
    <path d="M 165.409241 210.746903 
L 165.409241 198.442137 
" clip-path="url(#pe076185740)" style="fill: none; stroke: #1f8a56; stroke-width: 1.1; stroke-linecap: round"/>
   </g>
   <g id="line2d_31">
    <path d="M 178.593344 204.638027 
L 178.593344 197.508735 
" clip-path="url(#pe076185740)" style="fill: none; stroke: #1f8a56; stroke-width: 1.1; stroke-linecap: round"/>
   </g>
   <g id="line2d_32">
    <path d="M 191.777448 198.254437 
L 191.777448 182.432365 
" clip-path="url(#pe076185740)" style="fill: none; stroke: #1f8a56; stroke-width: 1.1; stroke-linecap: round"/>
   </g>
   <g id="line2d_33">
    <path d="M 204.961551 188.632992 
L 204.961551 182.616034 
" clip-path="url(#pe076185740)" style="fill: none; stroke: #1f8a56; stroke-width: 1.1; stroke-linecap: round"/>
   </g>
   <g id="line2d_34">
    <path d="M 218.145655 179.617804 
L 218.145655 166.376189 
" clip-path="url(#pe076185740)" style="fill: none; stroke: #1f8a56; stroke-width: 1.1; stroke-linecap: round"/>
   </g>
   <g id="line2d_35">
    <path d="M 231.329758 172.832903 
L 231.329758 162.768115 
" clip-path="url(#pe076185740)" style="fill: none; stroke: #1f8a56; stroke-width: 1.1; stroke-linecap: round"/>
   </g>
   <g id="line2d_36">
    <path d="M 244.513862 162.787815 
L 244.513862 158.323349 
" clip-path="url(#pe076185740)" style="fill: none; stroke: #1f8a56; stroke-width: 1.1; stroke-linecap: round"/>
   </g>
   <g id="line2d_37">
    <path d="M 257.697965 158.331045 
L 257.697965 153.393905 
" clip-path="url(#pe076185740)" style="fill: none; stroke: #1f8a56; stroke-width: 1.1; stroke-linecap: round"/>
   </g>
   <g id="line2d_38">
    <path d="M 270.882068 156.595103 
L 270.882068 153.900813 
" clip-path="url(#pe076185740)" style="fill: none; stroke: #b91c1c; stroke-width: 1.1; stroke-linecap: round"/>
   </g>
   <g id="line2d_39">
    <path d="M 284.066172 161.860807 
L 284.066172 157.135011 
" clip-path="url(#pe076185740)" style="fill: none; stroke: #b91c1c; stroke-width: 1.1; stroke-linecap: round"/>
   </g>
   <g id="line2d_40">
    <path d="M 297.250275 167.479726 
L 297.250275 157.94449 
" clip-path="url(#pe076185740)" style="fill: none; stroke: #b91c1c; stroke-width: 1.1; stroke-linecap: round"/>
   </g>
   <g id="line2d_41">
    <path d="M 310.434379 163.10426 
L 310.434379 161.391809 
" clip-path="url(#pe076185740)" style="fill: none; stroke: #b91c1c; stroke-width: 1.1; stroke-linecap: round"/>
   </g>
   <g id="line2d_42">
    <path d="M 323.618482 164.415144 
L 323.618482 150.734363 
" clip-path="url(#pe076185740)" style="fill: none; stroke: #1f8a56; stroke-width: 1.1; stroke-linecap: round"/>
   </g>
   <g id="line2d_43">
    <path d="M 336.802586 153.024782 
L 336.802586 143.487533 
" clip-path="url(#pe076185740)" style="fill: none; stroke: #1f8a56; stroke-width: 1.1; stroke-linecap: round"/>
   </g>
   <g id="line2d_44">
    <path d="M 349.986689 144.24711 
L 349.986689 135.382131 
" clip-path="url(#pe076185740)" style="fill: none; stroke: #1f8a56; stroke-width: 1.1; stroke-linecap: round"/>
   </g>
   <g id="line2d_45">
    <path d="M 363.170792 135.883556 
L 363.170792 130.556457 
" clip-path="url(#pe076185740)" style="fill: none; stroke: #1f8a56; stroke-width: 1.1; stroke-linecap: round"/>
   </g>
   <g id="line2d_46">
    <path d="M 376.354896 132.375659 
L 376.354896 122.763354 
" clip-path="url(#pe076185740)" style="fill: none; stroke: #1f8a56; stroke-width: 1.1; stroke-linecap: round"/>
   </g>
   <g id="line2d_47">
    <path d="M 389.538999 128.017327 
L 389.538999 112.20961 
" clip-path="url(#pe076185740)" style="fill: none; stroke: #1f8a56; stroke-width: 1.1; stroke-linecap: round"/>
   </g>
   <g id="line2d_48">
    <path d="M 402.723103 115.985107 
L 402.723103 102.832126 
" clip-path="url(#pe076185740)" style="fill: none; stroke: #1f8a56; stroke-width: 1.1; stroke-linecap: round"/>
   </g>
   <g id="line2d_49">
    <path d="M 415.907206 106.721329 
L 415.907206 103.603807 
" clip-path="url(#pe076185740)" style="fill: none; stroke: #b91c1c; stroke-width: 1.1; stroke-linecap: round"/>
   </g>
   <g id="line2d_50">
    <path d="M 429.09131 109.774944 
L 429.09131 104.504879 
" clip-path="url(#pe076185740)" style="fill: none; stroke: #1f8a56; stroke-width: 1.1; stroke-linecap: round"/>
   </g>
   <g id="line2d_51">
    <path d="M 442.275413 108.282117 
L 442.275413 102.073906 
" clip-path="url(#pe076185740)" style="fill: none; stroke: #b91c1c; stroke-width: 1.1; stroke-linecap: round"/>
   </g>
   <g id="line2d_52">
    <path d="M 455.459516 110.025033 
L 455.459516 95.969702 
" clip-path="url(#pe076185740)" style="fill: none; stroke: #1f8a56; stroke-width: 1.1; stroke-linecap: round"/>
   </g>
   <g id="line2d_53">
    <path d="M 468.64362 97.21568 
L 468.64362 90.010983 
" clip-path="url(#pe076185740)" style="fill: none; stroke: #1f8a56; stroke-width: 1.1; stroke-linecap: round"/>
   </g>
   <g id="line2d_54">
    <path d="M 481.827723 93.141698 
L 481.827723 79.185123 
" clip-path="url(#pe076185740)" style="fill: none; stroke: #1f8a56; stroke-width: 1.1; stroke-linecap: round"/>
   </g>
   <g id="line2d_55">
    <path d="M 495.011827 86.203018 
L 495.011827 76.430286 
" clip-path="url(#pe076185740)" style="fill: none; stroke: #1f8a56; stroke-width: 1.1; stroke-linecap: round"/>
   </g>
   <g id="line2d_56">
    <path d="M 508.19593 77.481365 
L 508.19593 65.837258 
" clip-path="url(#pe076185740)" style="fill: none; stroke: #1f8a56; stroke-width: 1.1; stroke-linecap: round"/>
   </g>
   <g id="line2d_57">
    <path d="M 521.380033 66.779809 
L 521.380033 57.038278 
" clip-path="url(#pe076185740)" style="fill: none; stroke: #1f8a56; stroke-width: 1.1; stroke-linecap: round"/>
   </g>
   <g id="line2d_58">
    <path d="M 534.564137 58.351776 
L 534.564137 52.815058 
" clip-path="url(#pe076185740)" style="fill: none; stroke: #1f8a56; stroke-width: 1.1; stroke-linecap: round"/>
   </g>
   <g id="line2d_59">
    <path d="M 547.74824 57.443524 
L 547.74824 49.805417 
" clip-path="url(#pe076185740)" style="fill: none; stroke: #1f8a56; stroke-width: 1.1; stroke-linecap: round"/>
   </g>
   <g id="text_12">
    <!-- ​ﻩﺎﺠﺗﺍ ﺔﻟﻮﻴﺳ -->
    <g style="fill: #b7791f" transform="translate(133.431505 232.952204) scale(0.085 -0.085)">
     <defs>
      <path id="NotoNaskhArabic-Bold-fa" d="M 1472 0 
Q 1165 0 736 205 
Q 608 141 406 99 
Q 205 58 0 58 
Q -51 58 -51 109 
L -51 762 
Q -51 813 0 813 
Q 294 813 441 851 
Q 589 890 678 979 
Q 749 1050 806 1142 
Q 864 1235 998 1466 
Q 1037 1536 1110 1581 
Q 1184 1626 1267 1626 
Q 1357 1626 1466 1555 
Q 1363 1286 1286 1091 
Q 1210 896 1158 781 
Q 1331 762 1504 762 
Q 1632 762 1734 778 
Q 1837 794 1965 832 
Q 2010 902 2093 1104 
Q 2176 1306 2317 1696 
Q 2349 1779 2432 1833 
Q 2515 1888 2630 1888 
Q 2765 1888 2854 1818 
Q 2778 1626 2710 1414 
Q 2643 1203 2586 992 
Q 2829 870 3133 806 
Q 3437 742 3782 704 
Q 3584 1094 3443 1376 
Q 3302 1658 3302 1798 
Q 3302 1952 3475 2141 
Q 3648 2330 3885 2451 
Q 3994 1907 4051 1603 
Q 4109 1299 4131 1145 
Q 4154 992 4154 909 
Q 4154 806 4112 633 
Q 4070 461 4006 288 
Q 3942 115 3885 0 
Q 3501 0 3097 89 
Q 2694 179 2355 326 
Q 2317 243 2278 173 
Q 2234 102 1994 51 
Q 1754 0 1472 0 
z
" transform="scale(0.015625)"/>
      <path id="NotoNaskhArabic-Bold-240" d="M 0 58 
Q -51 58 -51 109 
L -51 762 
Q -51 813 0 813 
Q 307 813 566 829 
Q 826 845 992 928 
Q 1120 992 1187 1104 
Q 1254 1216 1357 1421 
Q 1459 1632 1536 1680 
Q 1613 1728 1715 1728 
Q 1869 1728 1971 1638 
Q 1888 1427 1814 1264 
Q 1741 1101 1690 979 
Q 2003 813 2362 813 
Q 2413 813 2413 762 
L 2413 109 
Q 2413 58 2362 58 
Q 1875 58 1434 499 
L 1382 416 
Q 1203 179 883 118 
Q 563 58 0 58 
z
M 1651 -1235 
Q 1376 -1011 1209 -832 
Q 1414 -653 1638 -384 
Q 1657 -403 1756 -502 
Q 1856 -602 2035 -787 
Q 1971 -883 1875 -995 
Q 1779 -1107 1651 -1235 
z
M 793 -1331 
Q 633 -1203 527 -1100 
Q 422 -998 352 -922 
Q 460 -813 569 -701 
Q 678 -589 787 -480 
Q 864 -576 1184 -877 
Q 1030 -1107 793 -1331 
z
" transform="scale(0.015625)"/>
      <path id="NotoNaskhArabic-Bold-219" d="M 1248 -1248 
Q 1171 -1248 1011 -1174 
Q 851 -1101 668 -982 
Q 486 -864 326 -730 
L 429 -461 
Q 602 -506 778 -528 
Q 954 -550 1133 -550 
Q 1536 -550 1862 -380 
Q 2189 -211 2368 64 
Q 2093 83 1894 102 
Q 1696 122 1574 147 
Q 838 307 838 1018 
Q 838 1370 972 1712 
Q 1107 2054 1325 2266 
Q 1549 2477 1766 2477 
Q 2029 2477 2262 2240 
Q 2496 2003 2650 1626 
Q 2720 1446 2768 1241 
Q 2816 1037 2835 813 
L 3181 813 
Q 3232 813 3232 762 
L 3232 109 
Q 3232 58 3181 58 
L 2784 58 
Q 2669 -365 2419 -669 
Q 2170 -973 1843 -1120 
Q 1555 -1248 1248 -1248 
z
M 2419 819 
Q 2285 1254 2077 1484 
Q 1869 1715 1626 1715 
Q 1504 1715 1401 1651 
Q 1299 1587 1235 1498 
Q 1178 1402 1178 1293 
Q 1178 941 1805 858 
Q 1952 838 2419 819 
z
" transform="scale(0.015625)"/>
      <path id="NotoNaskhArabic-Bold-1c1" d="M 0 58 
Q -51 58 -51 109 
L -51 762 
Q -51 813 0 813 
Q 282 813 672 960 
Q 646 1146 624 1334 
Q 602 1523 570 1709 
Q 544 1894 441 2448 
Q 339 3002 173 3930 
Q 339 4045 534 4147 
Q 730 4250 934 4352 
Q 947 3827 960 3356 
Q 973 2886 986 2477 
Q 998 2067 1004 1718 
Q 1011 1370 1011 1069 
Q 1011 634 762 256 
Q 698 166 490 112 
Q 282 58 0 58 
z
" transform="scale(0.015625)"/>
      <path id="NotoNaskhArabic-Bold-215" d="M 3302 58 
Q 2912 58 2675 182 
Q 2438 307 2393 531 
L 2336 768 
L 2080 243 
Q 1881 262 1711 288 
Q 1542 314 1395 365 
Q 1235 422 1075 518 
Q 915 614 806 716 
Q 697 819 697 890 
Q 697 941 738 1078 
Q 780 1216 838 1369 
Q 896 1523 940 1600 
Q 998 1728 1184 1882 
Q 1363 2042 1593 2192 
Q 1824 2342 1984 2413 
L 1952 2669 
Q 2118 2797 2223 2873 
Q 2329 2950 2418 3011 
Q 2508 3072 2617 3136 
L 2617 986 
Q 2924 813 3302 813 
Q 3353 813 3353 762 
L 3353 109 
Q 3353 58 3302 58 
z
M 2272 1005 
Q 2233 1158 2188 1366 
Q 2144 1574 2086 1837 
Q 1491 1638 1152 1318 
Q 1356 1178 1542 1123 
Q 1728 1069 1894 1043 
Q 2067 1011 2272 1005 
z
M 2138 3257 
Q 2003 3366 1894 3462 
Q 1786 3558 1696 3654 
Q 1933 3872 2125 4102 
Q 2182 4038 2284 3942 
Q 2387 3846 2528 3705 
Q 2355 3469 2138 3257 
z
M 1280 3161 
Q 1005 3385 838 3565 
Q 947 3673 1056 3785 
Q 1165 3897 1274 4006 
Q 1389 3872 1670 3609 
Q 1510 3379 1280 3161 
z
" transform="scale(0.015625)"/>
      <path id="NotoNaskhArabic-Bold-554" transform="scale(0.015625)"/>
      <path id="NotoNaskhArabic-Bold-3" d="M 774 58 
Q 742 717 710 1216 
Q 678 1715 646 2134 
Q 614 2554 576 2950 
Q 538 3347 493 3808 
Q 474 3968 566 4089 
Q 659 4211 822 4281 
Q 986 4352 1178 4352 
Q 1229 4154 1296 3955 
Q 1363 3757 1440 3565 
L 1216 3398 
Q 1229 2867 1222 2035 
Q 1216 1203 1184 109 
L 774 58 
z
" transform="scale(0.015625)"/>
      <path id="NotoNaskhArabic-Bold-38" d="M 0 58 
Q -51 58 -51 109 
L -51 762 
Q -51 813 0 813 
Q 320 813 640 867 
Q 960 922 1139 998 
Q 1075 1146 976 1328 
Q 877 1510 819 1613 
Q 755 1734 710 1833 
Q 666 1933 666 2016 
Q 666 2176 838 2361 
Q 1011 2547 1248 2669 
Q 1293 2470 1347 2217 
Q 1402 1965 1446 1702 
Q 1485 1504 1501 1376 
Q 1517 1248 1517 1184 
Q 1517 1037 1443 822 
Q 1370 608 1267 410 
Q 685 58 0 58 
z
M 1332 3020 
Q 1197 3129 1088 3225 
Q 980 3321 890 3417 
Q 1127 3635 1319 3865 
Q 1376 3801 1478 3705 
Q 1581 3609 1722 3468 
Q 1549 3232 1332 3020 
z
M 474 2924 
Q 199 3148 32 3328 
Q 141 3436 250 3548 
Q 359 3660 468 3769 
Q 583 3635 864 3372 
Q 704 3142 474 2924 
z
" transform="scale(0.015625)"/>
      <path id="NotoNaskhArabic-Bold-73" d="M 0 58 
Q -51 58 -51 109 
L -51 762 
Q -51 813 0 813 
Q 467 813 793 829 
Q 1120 845 1427 934 
Q 1702 1018 1897 1069 
Q 2093 1120 2202 1146 
Q 2118 1197 2032 1251 
Q 1946 1306 1856 1363 
Q 1651 1498 1513 1555 
Q 1376 1613 1235 1613 
Q 1043 1613 870 1558 
Q 698 1504 480 1363 
Q 422 1421 377 1533 
Q 333 1645 333 1747 
Q 333 2029 582 2205 
Q 832 2381 1210 2381 
Q 1414 2381 1603 2310 
Q 1792 2240 2029 2080 
Q 2317 1882 2560 1763 
Q 2803 1645 3136 1555 
Q 3302 1517 3500 1494 
Q 3699 1472 3936 1472 
L 3654 934 
Q 3578 941 3501 941 
Q 3424 941 3347 947 
Q 3411 890 3488 867 
Q 3565 845 3661 832 
Q 3808 826 3965 822 
Q 4122 819 4262 813 
Q 4314 813 4314 762 
L 4314 109 
Q 4314 58 4262 58 
Q 4032 58 3782 80 
Q 3533 102 3325 150 
Q 3117 198 3021 262 
Q 2893 358 2838 537 
Q 2784 717 2746 877 
Q 2624 851 2525 803 
Q 2426 755 2304 675 
Q 2182 595 1990 467 
Q 1683 262 1395 176 
Q 1107 90 774 74 
Q 442 58 0 58 
z
M 2208 -1107 
Q 2035 -966 1913 -851 
Q 1792 -736 1708 -646 
Q 1836 -518 1958 -393 
Q 2080 -269 2195 -134 
Q 2361 -326 2656 -595 
Q 2585 -697 2470 -828 
Q 2355 -960 2208 -1107 
z
" transform="scale(0.015625)"/>
      <path id="NotoNaskhArabic-Bold-4" d="M 1901 58 
Q 1517 58 1283 186 
Q 1050 314 938 528 
Q 826 742 794 1018 
Q 781 1139 749 1424 
Q 717 1709 681 2073 
Q 646 2438 608 2809 
Q 570 3181 538 3481 
Q 506 3782 486 3930 
Q 845 4166 1248 4352 
Q 1274 3635 1296 2918 
Q 1318 2202 1338 1478 
L 1363 979 
Q 1478 883 1606 848 
Q 1734 813 1914 813 
Q 1952 813 1952 762 
L 1952 109 
Q 1952 58 1901 58 
z
" transform="scale(0.015625)"/>
      <path id="NotoNaskhArabic-Bold-1fd" d="M 1274 0 
Q 909 0 672 246 
Q 435 493 435 864 
Q 435 1126 572 1401 
Q 710 1677 1018 1984 
Q 915 2048 880 2141 
Q 845 2234 845 2330 
Q 845 2464 899 2585 
Q 954 2707 1043 2752 
Q 1408 2637 1721 2381 
Q 2035 2125 2214 1798 
Q 2394 1466 2394 1184 
Q 2394 1094 2349 944 
Q 2304 794 2233 634 
Q 2163 474 2086 349 
Q 2010 224 1939 179 
Q 1818 96 1642 48 
Q 1466 0 1274 0 
z
M 1344 672 
Q 1690 672 1978 851 
Q 1882 1133 1715 1360 
Q 1549 1587 1286 1786 
Q 915 1421 915 1075 
Q 915 896 1040 784 
Q 1165 672 1344 672 
z
" transform="scale(0.015625)"/>
     </defs>
     <use xlink:href="#NotoNaskhArabic-Bold-fa"/>
     <use xlink:href="#NotoNaskhArabic-Bold-240" transform="translate(70 0)"/>
     <use xlink:href="#NotoNaskhArabic-Bold-219" transform="translate(106 0)"/>
     <use xlink:href="#NotoNaskhArabic-Bold-1c1" transform="translate(154.796875 0)"/>
     <use xlink:href="#NotoNaskhArabic-Bold-215" transform="translate(176.5 0)"/>
     <use xlink:href="#NotoNaskhArabic-Bold-554" transform="translate(227.203125 0)"/>
     <use xlink:href="#NotoNaskhArabic-Bold-3" transform="translate(249.296875 0)"/>
     <use xlink:href="#NotoNaskhArabic-Bold-38" transform="translate(277.703125 0)"/>
     <use xlink:href="#NotoNaskhArabic-Bold-73" transform="translate(305.203125 0)"/>
     <use xlink:href="#NotoNaskhArabic-Bold-4" transform="translate(370.90625 0)"/>
     <use xlink:href="#NotoNaskhArabic-Bold-1fd" transform="translate(399.703125 0)"/>
     <use xlink:href="#NotoNaskhArabic-Bold-554" transform="translate(442.203125 0)"/>
    </g>
   </g>
   <g id="text_13">
    <!-- ​ﻩﺎﺠﺗﺍ ﺔﻟﻮﻴﺳ -->
    <g style="fill: #b7791f" transform="translate(278.456642 186.67932) scale(0.085 -0.085)">
     <use xlink:href="#NotoNaskhArabic-Bold-fa"/>
     <use xlink:href="#NotoNaskhArabic-Bold-240" transform="translate(70 0)"/>
     <use xlink:href="#NotoNaskhArabic-Bold-219" transform="translate(106 0)"/>
     <use xlink:href="#NotoNaskhArabic-Bold-1c1" transform="translate(154.796875 0)"/>
     <use xlink:href="#NotoNaskhArabic-Bold-215" transform="translate(176.5 0)"/>
     <use xlink:href="#NotoNaskhArabic-Bold-554" transform="translate(227.203125 0)"/>
     <use xlink:href="#NotoNaskhArabic-Bold-3" transform="translate(249.296875 0)"/>
     <use xlink:href="#NotoNaskhArabic-Bold-38" transform="translate(277.703125 0)"/>
     <use xlink:href="#NotoNaskhArabic-Bold-73" transform="translate(305.203125 0)"/>
     <use xlink:href="#NotoNaskhArabic-Bold-4" transform="translate(370.90625 0)"/>
     <use xlink:href="#NotoNaskhArabic-Bold-1fd" transform="translate(399.703125 0)"/>
     <use xlink:href="#NotoNaskhArabic-Bold-554" transform="translate(442.203125 0)"/>
    </g>
   </g>
   <g id="text_14">
    <!-- ​ﻩﺎﺠﺗﺍ ﺔﻟﻮﻴﺳ -->
    <g style="fill: #b7791f" transform="translate(423.48178 127.481712) scale(0.085 -0.085)">
     <use xlink:href="#NotoNaskhArabic-Bold-fa"/>
     <use xlink:href="#NotoNaskhArabic-Bold-240" transform="translate(70 0)"/>
     <use xlink:href="#NotoNaskhArabic-Bold-219" transform="translate(106 0)"/>
     <use xlink:href="#NotoNaskhArabic-Bold-1c1" transform="translate(154.796875 0)"/>
     <use xlink:href="#NotoNaskhArabic-Bold-215" transform="translate(176.5 0)"/>
     <use xlink:href="#NotoNaskhArabic-Bold-554" transform="translate(227.203125 0)"/>
     <use xlink:href="#NotoNaskhArabic-Bold-3" transform="translate(249.296875 0)"/>
     <use xlink:href="#NotoNaskhArabic-Bold-38" transform="translate(277.703125 0)"/>
     <use xlink:href="#NotoNaskhArabic-Bold-73" transform="translate(305.203125 0)"/>
     <use xlink:href="#NotoNaskhArabic-Bold-4" transform="translate(370.90625 0)"/>
     <use xlink:href="#NotoNaskhArabic-Bold-1fd" transform="translate(399.703125 0)"/>
     <use xlink:href="#NotoNaskhArabic-Bold-554" transform="translate(442.203125 0)"/>
    </g>
   </g>
   <g id="text_15">
    <!-- ​ﻂﻴﺴﺑ ﺢﻴﺤﺼﺗ ﻞﻛ ﺪﻨﻋ ﺎﻴﺠﻳﺭﺪﺗ ﻊﻤﺠﺘﺗ :ﻩﺎﺠﺗﻻﺍ ﺔﻟﻮﻴﺳ -->
    <g style="fill: #b7791f" transform="translate(200.770411 41.714941) scale(0.095 -0.095)">
     <defs>
      <path id="NotoNaskhArabic-Bold-2de" d="M 896 0 
Q 883 0 883 51 
Q 883 141 899 294 
Q 915 448 937 576 
Q 960 704 979 704 
L 1242 704 
Q 1542 947 1753 1164 
Q 1965 1382 2086 1581 
Q 1581 2086 832 2541 
L 595 2528 
Q 218 2714 218 3098 
Q 218 3437 570 3642 
Q 794 3494 1091 3235 
Q 1389 2976 1690 2675 
Q 1856 2515 2009 2355 
Q 2163 2195 2298 2042 
Q 2355 2246 2355 2477 
Q 2355 2637 2221 3411 
Q 2189 3610 2169 3728 
Q 2150 3846 2150 3891 
Q 2150 4154 2342 4307 
Q 2534 4461 2829 4461 
Q 2880 4256 2944 4057 
Q 3008 3859 3085 3674 
L 2874 3514 
L 2880 3398 
L 2899 2790 
Q 2899 2214 2598 1664 
Q 2624 1638 2713 1516 
Q 2803 1395 2908 1238 
Q 3014 1082 3094 947 
Q 3174 813 3174 762 
Q 3174 704 3142 601 
Q 3110 499 3065 387 
Q 3021 275 2979 195 
Q 2938 115 2918 109 
Q 2605 58 2102 29 
Q 1600 0 896 0 
z
M 1779 730 
Q 2067 742 2294 768 
Q 2522 794 2752 832 
Q 2650 947 2554 1062 
Q 2458 1178 2355 1299 
Q 2093 973 1779 730 
z
" transform="scale(0.015625)"/>
      <path id="NotoNaskhArabic-Bold-516" d="M 1037 1792 
Q 877 1920 710 2029 
Q 544 2138 378 2234 
Q 429 2317 473 2397 
Q 518 2477 557 2560 
Q 602 2643 650 2723 
Q 698 2803 755 2886 
Q 870 2816 1017 2720 
Q 1165 2624 1273 2534 
Q 1382 2445 1382 2381 
Q 1382 2291 1037 1792 
z
M 1037 -365 
Q 691 -96 378 77 
Q 429 166 473 246 
Q 518 326 557 410 
Q 602 486 650 566 
Q 698 646 755 730 
Q 1382 365 1382 224 
Q 1382 134 1037 -365 
z
" transform="scale(0.015625)"/>
      <path id="NotoNaskhArabic-Bold-37" d="M 0 58 
Q -51 58 -51 109 
L -51 762 
Q -51 813 0 813 
Q 307 813 566 829 
Q 826 845 992 928 
Q 1120 992 1187 1104 
Q 1254 1216 1357 1421 
Q 1459 1632 1536 1680 
Q 1613 1728 1715 1728 
Q 1869 1728 1971 1638 
Q 1888 1427 1814 1264 
Q 1741 1101 1690 979 
Q 2003 813 2362 813 
Q 2413 813 2413 762 
L 2413 109 
Q 2413 58 2362 58 
Q 1875 58 1434 499 
L 1382 416 
Q 1203 179 883 118 
Q 563 58 0 58 
z
M 1664 2252 
Q 1529 2361 1420 2457 
Q 1312 2553 1222 2649 
Q 1459 2867 1651 3097 
Q 1708 3033 1810 2937 
Q 1913 2841 2054 2700 
Q 1881 2464 1664 2252 
z
M 806 2156 
Q 531 2380 364 2560 
Q 473 2668 582 2780 
Q 691 2892 800 3001 
Q 915 2867 1196 2604 
Q 1036 2374 806 2156 
z
" transform="scale(0.015625)"/>
      <path id="NotoNaskhArabic-Bold-1e4" d="M 2016 0 
Q 1606 0 1257 73 
Q 909 147 685 269 
Q 506 147 346 102 
Q 186 58 0 58 
Q -51 58 -51 109 
L -51 762 
Q -51 813 0 813 
Q 160 813 333 858 
Q 333 870 336 886 
Q 339 902 339 922 
Q 384 1261 573 1597 
Q 762 1933 1018 2131 
Q 1286 2342 1568 2342 
Q 1696 2342 1811 2176 
Q 1862 2093 1929 1942 
Q 1997 1792 2074 1581 
Q 2227 1133 2394 960 
Q 2528 813 2682 813 
Q 2752 813 2752 755 
L 2752 128 
Q 2752 58 2682 58 
Q 2362 58 2106 301 
L 2016 0 
z
M 1818 710 
Q 1606 1133 1549 1664 
Q 979 1440 698 1082 
Q 877 941 1155 851 
Q 1434 762 1818 710 
z
" transform="scale(0.015625)"/>
      <path id="NotoNaskhArabic-Bold-134" d="M 2349 -1926 
Q 1856 -1926 1478 -1760 
Q 1101 -1594 896 -1293 
Q 691 -979 691 -589 
Q 691 -198 867 134 
Q 1043 467 1434 781 
Q 1427 794 1395 835 
Q 1363 877 1331 922 
Q 1261 1011 1158 1136 
Q 1056 1261 947 1370 
Q 890 1421 835 1472 
Q 781 1523 730 1568 
L 608 1485 
Q 442 1670 442 1894 
Q 442 2112 630 2272 
Q 819 2432 1152 2547 
Q 1478 2669 1792 2669 
Q 2080 2669 2320 2544 
Q 2560 2419 2707 2214 
Q 2854 2010 2854 1760 
Q 2854 1293 2323 858 
Q 2598 813 3091 813 
Q 3162 813 3162 755 
L 3162 115 
Q 3162 58 3091 58 
Q 2662 58 2329 154 
Q 1997 250 1728 474 
Q 1024 26 1024 -461 
Q 1024 -813 1357 -1001 
Q 1690 -1190 2323 -1190 
Q 2822 -1190 3590 -1018 
L 3674 -1293 
Q 3283 -1523 3030 -1664 
Q 2778 -1805 2618 -1865 
Q 2458 -1926 2349 -1926 
z
M 1850 1082 
Q 2067 1242 2150 1382 
Q 2214 1491 2214 1613 
Q 2214 1779 2096 1868 
Q 1978 1958 1811 1958 
Q 1651 1958 1497 1926 
Q 1344 1894 1139 1805 
Q 1184 1766 1229 1728 
Q 1274 1690 1325 1638 
Q 1408 1562 1497 1462 
Q 1587 1363 1690 1248 
L 1850 1082 
z
" transform="scale(0.015625)"/>
      <path id="NotoNaskhArabic-Bold-b6" d="M 1075 0 
Q 218 0 218 499 
Q 218 634 272 784 
Q 326 934 410 1018 
Q 570 890 774 826 
Q 979 762 1280 762 
Q 1466 762 1658 784 
Q 1850 806 2048 851 
Q 1798 1286 1648 1673 
Q 1498 2061 1498 2246 
Q 1498 2477 1613 2646 
Q 1728 2816 1946 2880 
Q 2074 2362 2208 1955 
Q 2342 1549 2490 1248 
Q 2611 1005 2758 909 
Q 2906 813 3162 813 
Q 3213 813 3213 762 
L 3213 109 
Q 3213 58 3162 58 
Q 2707 58 2413 352 
Q 1709 0 1075 0 
z
" transform="scale(0.015625)"/>
      <path id="NotoNaskhArabic-Bold-d3" d="M 653 -1248 
Q 544 -1248 304 -1107 
Q 64 -966 -218 -730 
L -115 -461 
Q 243 -550 531 -550 
Q 1005 -550 1331 -313 
Q 1658 -77 1805 371 
Q 1760 467 1705 566 
Q 1651 666 1587 762 
Q 1402 1050 1254 1312 
Q 1107 1574 1107 1779 
Q 1107 1965 1254 2147 
Q 1402 2330 1638 2451 
Q 1677 2317 1731 2137 
Q 1786 1958 1846 1782 
Q 1907 1606 1952 1472 
Q 2035 1235 2089 1004 
Q 2144 774 2144 570 
Q 2144 70 1952 -349 
Q 1760 -768 1421 -1011 
Q 1082 -1248 653 -1248 
z
" transform="scale(0.015625)"/>
      <path id="NotoNaskhArabic-Bold-241" d="M 0 58 
Q -51 58 -51 109 
L -51 762 
Q -51 813 0 813 
Q 339 813 652 835 
Q 966 858 1212 902 
Q 1459 947 1581 998 
Q 1517 1146 1414 1328 
Q 1312 1510 1261 1613 
Q 1197 1734 1152 1833 
Q 1107 1933 1107 2016 
Q 1107 2170 1280 2358 
Q 1453 2547 1690 2669 
Q 1786 2189 1843 1897 
Q 1901 1606 1926 1443 
Q 1952 1280 1952 1184 
Q 1952 1037 1881 825 
Q 1811 614 1702 410 
Q 1530 307 1251 227 
Q 973 147 646 102 
Q 320 58 0 58 
z
M 1479 -1235 
Q 1204 -1011 1037 -832 
Q 1242 -653 1466 -384 
Q 1485 -403 1584 -502 
Q 1684 -602 1863 -787 
Q 1799 -883 1703 -995 
Q 1607 -1107 1479 -1235 
z
M 621 -1331 
Q 461 -1203 355 -1100 
Q 250 -998 180 -922 
Q 288 -813 397 -701 
Q 506 -589 615 -480 
Q 692 -576 1012 -877 
Q 858 -1107 621 -1331 
z
" transform="scale(0.015625)"/>
      <path id="NotoNaskhArabic-Bold-136" d="M 0 58 
Q -51 58 -51 109 
L -51 762 
Q -51 813 0 813 
L 499 813 
Q 365 1005 365 1210 
Q 365 1408 441 1632 
Q 518 1856 652 2057 
Q 787 2259 947 2387 
Q 1190 2579 1440 2579 
Q 1875 2579 2406 1990 
L 2272 1728 
Q 2074 1805 1907 1840 
Q 1741 1875 1600 1875 
Q 1376 1875 1197 1827 
Q 1018 1779 819 1670 
Q 832 1434 921 1245 
Q 1011 1056 1190 928 
Q 1267 877 1338 838 
Q 1843 870 2240 953 
Q 2637 1037 3040 1197 
Q 3091 1152 3116 1056 
Q 3142 960 3142 883 
Q 3142 730 3072 602 
Q 3002 474 2874 410 
Q 2746 346 2259 250 
Q 1766 147 1235 102 
Q 704 58 0 58 
z
" transform="scale(0.015625)"/>
      <path id="NotoNaskhArabic-Bold-1e9" d="M 0 58 
Q -51 58 -51 109 
L -51 762 
Q -51 813 0 813 
Q 416 813 627 966 
Q 710 1024 774 1145 
Q 838 1267 922 1427 
Q 1024 1632 1101 1680 
Q 1178 1728 1280 1728 
Q 1427 1728 1536 1638 
Q 1466 1478 1392 1312 
Q 1318 1146 1248 979 
Q 1562 813 1926 813 
Q 1978 813 1978 762 
L 1978 109 
Q 1978 58 1926 58 
Q 1440 58 998 499 
Q 960 435 925 384 
Q 890 333 858 288 
Q 774 192 550 125 
Q 326 58 0 58 
z
M 966 2284 
Q 640 2553 474 2745 
Q 621 2892 739 3017 
Q 858 3142 954 3257 
Q 1024 3180 1139 3065 
Q 1254 2950 1414 2796 
Q 1338 2688 1226 2560 
Q 1114 2432 966 2284 
z
" transform="scale(0.015625)"/>
      <path id="NotoNaskhArabic-Bold-176" d="M 0 58 
Q -51 58 -51 109 
L -51 762 
Q -51 813 0 813 
Q 845 813 1293 870 
Q 1517 896 1680 937 
Q 1843 979 1952 1030 
Q 1882 1178 1731 1347 
Q 1581 1517 1363 1677 
Q 1254 1766 1094 1872 
Q 934 1978 723 2099 
Q 653 2074 557 2074 
Q 378 2074 246 2195 
Q 115 2317 115 2490 
Q 115 2560 134 2688 
Q 154 2816 182 2950 
Q 211 3085 236 3184 
Q 262 3283 282 3290 
Q 685 3494 982 3638 
Q 1280 3782 1526 3894 
Q 1773 4006 2025 4115 
Q 2278 4224 2592 4352 
Q 2720 4224 2720 4026 
Q 2720 3802 2637 3693 
Q 2554 3584 2374 3494 
Q 2074 3347 1795 3228 
Q 1517 3110 1203 3004 
Q 890 2899 474 2784 
Q 947 2662 1363 2390 
Q 1779 2118 2029 1773 
Q 2278 1427 2278 1107 
Q 2278 595 1702 326 
Q 1120 58 0 58 
z
" transform="scale(0.015625)"/>
      <path id="NotoNaskhArabic-Bold-1be" d="M 1606 -1613 
Q 1030 -1613 729 -1277 
Q 429 -941 429 -301 
Q 429 -134 470 96 
Q 512 326 589 627 
L 870 557 
Q 787 282 787 45 
Q 787 -858 1619 -858 
Q 1984 -858 2262 -794 
Q 2541 -730 2784 -576 
Q 2970 -467 3155 -288 
L 3014 461 
Q 2989 608 2915 1014 
Q 2842 1421 2726 2086 
Q 2694 2291 2652 2537 
Q 2611 2784 2569 3024 
Q 2528 3264 2499 3446 
Q 2470 3629 2470 3699 
Q 2470 3968 2675 4160 
Q 2880 4352 3162 4352 
Q 3219 4134 3283 3939 
Q 3347 3744 3418 3565 
L 3213 3411 
Q 3270 2810 3331 2198 
Q 3392 1587 3450 973 
Q 3718 813 4000 813 
Q 4058 813 4058 762 
L 4058 109 
Q 4058 58 4000 58 
Q 3878 58 3760 86 
Q 3642 115 3507 192 
L 3514 -45 
Q 3514 -474 3258 -838 
Q 3002 -1203 2566 -1408 
Q 2349 -1510 2109 -1561 
Q 1869 -1613 1606 -1613 
z
" transform="scale(0.015625)"/>
      <path id="NotoNaskhArabic-Bold-111" d="M 2592 0 
Q 2163 0 1699 80 
Q 1235 160 851 339 
Q 813 282 742 243 
Q 608 154 406 106 
Q 205 58 0 58 
Q -51 58 -51 109 
L -51 762 
Q -51 813 0 813 
Q 256 813 397 848 
Q 538 883 634 985 
Q 730 1088 838 1286 
Q 864 1331 886 1376 
Q 909 1421 934 1466 
Q 1030 1638 1222 1638 
Q 1318 1638 1427 1574 
Q 1363 1414 1302 1260 
Q 1242 1107 1178 954 
Q 1248 928 1312 909 
Q 1376 890 1440 864 
Q 2099 1741 2605 2150 
Q 3091 2560 3469 2560 
Q 3629 2560 3824 2464 
Q 4019 2368 4211 2214 
Q 4403 2061 4544 1882 
Q 4762 1619 4762 1446 
Q 4762 1229 4691 1050 
Q 4922 915 5082 864 
Q 5242 813 5466 813 
Q 5523 813 5523 762 
L 5523 109 
Q 5523 58 5466 58 
Q 5171 58 4880 186 
Q 4589 314 4358 563 
Q 4205 416 3904 278 
Q 3603 141 3258 70 
Q 3085 38 2921 19 
Q 2758 0 2592 0 
z
M 2656 704 
Q 3117 704 3520 813 
Q 3923 922 4390 1146 
Q 3814 1805 3309 1805 
Q 3027 1805 2652 1536 
Q 2278 1267 1862 774 
Q 2067 742 2265 723 
Q 2464 704 2656 704 
z
" transform="scale(0.015625)"/>
      <path id="NotoNaskhArabic-Bold-8b" d="M 0 58 
Q -51 58 -51 109 
L -51 762 
Q -51 813 0 813 
Q 467 813 793 829 
Q 1120 845 1427 934 
Q 1702 1018 1897 1069 
Q 2093 1120 2202 1146 
Q 2118 1197 2032 1251 
Q 1946 1306 1856 1363 
Q 1651 1498 1513 1555 
Q 1376 1613 1235 1613 
Q 1043 1613 870 1558 
Q 698 1504 480 1363 
Q 422 1421 377 1533 
Q 333 1645 333 1747 
Q 333 2029 582 2205 
Q 832 2381 1210 2381 
Q 1414 2381 1603 2310 
Q 1792 2240 2029 2080 
Q 2317 1882 2560 1763 
Q 2803 1645 3136 1555 
Q 3302 1517 3500 1494 
Q 3699 1472 3936 1472 
L 3654 934 
Q 3578 941 3501 941 
Q 3424 941 3347 947 
Q 3411 890 3488 867 
Q 3565 845 3661 832 
Q 3808 826 3965 822 
Q 4122 819 4262 813 
Q 4314 813 4314 762 
L 4314 109 
Q 4314 58 4262 58 
Q 4032 58 3782 80 
Q 3533 102 3325 150 
Q 3117 198 3021 262 
Q 2893 358 2838 537 
Q 2784 717 2746 877 
Q 2624 851 2525 803 
Q 2426 755 2304 675 
Q 2182 595 1990 467 
Q 1683 262 1395 176 
Q 1107 90 774 74 
Q 442 58 0 58 
z
" transform="scale(0.015625)"/>
      <path id="NotoNaskhArabic-Bold-8a" d="M 2368 -1862 
Q 1523 -1862 1097 -1465 
Q 672 -1069 672 -314 
Q 672 77 848 409 
Q 1024 742 1338 1005 
Q 1498 1133 1670 1238 
Q 1843 1344 2035 1421 
Q 1946 1453 1856 1485 
Q 1766 1517 1677 1549 
Q 1491 1613 1312 1613 
Q 1139 1613 992 1571 
Q 845 1530 582 1363 
Q 525 1421 480 1533 
Q 435 1645 435 1747 
Q 435 2035 662 2208 
Q 890 2381 1286 2381 
Q 1498 2381 1728 2326 
Q 1958 2272 2310 2144 
Q 2656 2016 2918 1961 
Q 3181 1907 3424 1907 
L 4006 1914 
L 3744 1197 
Q 3667 1190 3571 1184 
Q 3475 1178 3424 1178 
L 3232 1178 
Q 3341 998 3446 931 
Q 3552 864 3789 838 
Q 3891 826 4115 819 
Q 4339 813 4685 813 
Q 4742 813 4742 762 
L 4742 109 
Q 4742 58 4685 58 
Q 4070 58 3750 150 
Q 3430 243 3238 467 
Q 3046 698 2886 1197 
Q 2381 1101 1933 883 
Q 1485 666 1242 371 
Q 998 70 998 -250 
Q 998 -685 1360 -905 
Q 1722 -1126 2400 -1126 
Q 2861 -1126 3629 -954 
L 3718 -1229 
Q 3309 -1466 3053 -1603 
Q 2797 -1741 2640 -1801 
Q 2483 -1862 2368 -1862 
z
" transform="scale(0.015625)"/>
      <path id="NotoNaskhArabic-Bold-26" d="M 0 58 
Q -51 58 -51 109 
L -51 762 
Q -51 813 0 813 
Q 320 813 640 867 
Q 960 922 1139 998 
Q 1075 1146 976 1328 
Q 877 1510 819 1613 
Q 755 1734 710 1833 
Q 666 1933 666 2016 
Q 666 2176 838 2361 
Q 1011 2547 1248 2669 
Q 1293 2470 1347 2217 
Q 1402 1965 1446 1702 
Q 1485 1504 1501 1376 
Q 1517 1248 1517 1184 
Q 1517 1037 1443 822 
Q 1370 608 1267 410 
Q 685 58 0 58 
z
M 916 -1427 
Q 743 -1286 621 -1171 
Q 500 -1056 416 -966 
Q 544 -838 666 -713 
Q 788 -589 903 -454 
Q 1069 -646 1364 -915 
Q 1293 -1017 1178 -1148 
Q 1063 -1280 916 -1427 
z
" transform="scale(0.015625)"/>
      <path id="NotoNaskhArabic-Bold-f9" d="M 1472 0 
Q 1165 0 736 205 
Q 608 141 406 99 
Q 205 58 0 58 
Q -51 58 -51 109 
L -51 762 
Q -51 813 0 813 
Q 294 813 441 851 
Q 589 890 678 979 
Q 749 1050 813 1149 
Q 877 1248 998 1466 
Q 1037 1536 1110 1581 
Q 1184 1626 1267 1626 
Q 1357 1626 1466 1555 
Q 1382 1363 1308 1171 
Q 1235 979 1158 781 
Q 1331 762 1504 762 
Q 1632 762 1709 771 
Q 1786 781 1965 832 
Q 2016 909 2096 1107 
Q 2176 1306 2317 1696 
Q 2349 1779 2432 1833 
Q 2515 1888 2630 1888 
Q 2765 1888 2854 1818 
Q 2816 1722 2736 1472 
Q 2656 1222 2509 742 
Q 2554 742 2595 742 
Q 2637 742 2682 736 
Q 2912 736 3142 806 
Q 3162 838 3194 915 
Q 3226 992 3283 1146 
Q 3322 1254 3379 1401 
Q 3437 1549 3507 1747 
Q 3546 1837 3632 1891 
Q 3718 1946 3827 1946 
Q 3942 1946 4045 1875 
Q 4006 1773 3942 1581 
Q 3878 1389 3750 986 
Q 4038 813 4518 813 
Q 4570 813 4570 762 
L 4570 109 
Q 4570 58 4518 58 
Q 4262 58 3993 170 
Q 3725 282 3578 442 
Q 3526 301 3468 201 
Q 3411 102 3226 51 
Q 3034 0 2758 0 
Q 2566 0 2240 141 
Q 2150 77 1923 38 
Q 1696 0 1472 0 
z
" transform="scale(0.015625)"/>
      <path id="NotoNaskhArabic-Bold-124" d="M 2573 0 
Q 2336 0 2038 13 
Q 1741 26 1488 48 
Q 1235 70 1120 102 
Q 1037 128 883 221 
Q 730 314 554 448 
Q 378 582 218 723 
L 314 998 
Q 922 851 1357 787 
Q 1421 870 1485 950 
Q 1549 1030 1613 1114 
Q 1549 1395 1494 1664 
Q 1440 1933 1389 2189 
Q 1312 2566 1245 2915 
Q 1178 3264 1114 3578 
Q 1107 3616 1104 3654 
Q 1101 3693 1101 3725 
Q 1101 3987 1289 4169 
Q 1478 4352 1754 4352 
Q 1811 4134 1875 3939 
Q 1939 3744 2010 3565 
L 1805 3411 
Q 1830 3123 1852 2835 
Q 1875 2547 1894 2253 
Q 1907 2074 1923 1891 
Q 1939 1709 1946 1523 
Q 2867 2560 3450 2560 
Q 3610 2560 3798 2470 
Q 3987 2381 4176 2233 
Q 4365 2086 4518 1901 
Q 4742 1632 4742 1446 
Q 4742 1210 4678 1037 
Q 5018 813 5434 813 
Q 5491 813 5491 762 
L 5491 109 
Q 5491 58 5434 58 
Q 5139 58 4848 189 
Q 4557 320 4333 557 
Q 4134 384 3846 259 
Q 3558 134 3228 67 
Q 2899 0 2573 0 
z
M 2637 704 
Q 3091 704 3494 809 
Q 3898 915 4378 1146 
Q 3802 1805 3290 1805 
Q 2733 1805 1811 736 
Q 2022 723 2230 713 
Q 2438 704 2637 704 
z
" transform="scale(0.015625)"/>
     </defs>
     <use xlink:href="#NotoNaskhArabic-Bold-fa"/>
     <use xlink:href="#NotoNaskhArabic-Bold-240" transform="translate(70 0)"/>
     <use xlink:href="#NotoNaskhArabic-Bold-219" transform="translate(106 0)"/>
     <use xlink:href="#NotoNaskhArabic-Bold-1c1" transform="translate(154.796875 0)"/>
     <use xlink:href="#NotoNaskhArabic-Bold-215" transform="translate(176.5 0)"/>
     <use xlink:href="#NotoNaskhArabic-Bold-554" transform="translate(227.203125 0)"/>
     <use xlink:href="#NotoNaskhArabic-Bold-3" transform="translate(249.296875 0)"/>
     <use xlink:href="#NotoNaskhArabic-Bold-2de" transform="translate(277.703125 0)"/>
     <use xlink:href="#NotoNaskhArabic-Bold-38" transform="translate(332.296875 0)"/>
     <use xlink:href="#NotoNaskhArabic-Bold-73" transform="translate(359.796875 0)"/>
     <use xlink:href="#NotoNaskhArabic-Bold-4" transform="translate(425.5 0)"/>
     <use xlink:href="#NotoNaskhArabic-Bold-1fd" transform="translate(454.296875 0)"/>
     <use xlink:href="#NotoNaskhArabic-Bold-516" transform="translate(496.796875 0)"/>
     <use xlink:href="#NotoNaskhArabic-Bold-554" transform="translate(524.203125 0)"/>
     <use xlink:href="#NotoNaskhArabic-Bold-38" transform="translate(546.296875 0)"/>
     <use xlink:href="#NotoNaskhArabic-Bold-37" transform="translate(573.796875 0)"/>
     <use xlink:href="#NotoNaskhArabic-Bold-73" transform="translate(609.796875 0)"/>
     <use xlink:href="#NotoNaskhArabic-Bold-1e4" transform="translate(675.5 0)"/>
     <use xlink:href="#NotoNaskhArabic-Bold-134" transform="translate(716.796875 0)"/>
     <use xlink:href="#NotoNaskhArabic-Bold-554" transform="translate(764.5 0)"/>
     <use xlink:href="#NotoNaskhArabic-Bold-38" transform="translate(786.59375 0)"/>
     <use xlink:href="#NotoNaskhArabic-Bold-b6" transform="translate(814.09375 0)"/>
     <use xlink:href="#NotoNaskhArabic-Bold-d3" transform="translate(862.59375 0)"/>
     <use xlink:href="#NotoNaskhArabic-Bold-241" transform="translate(900.296875 0)"/>
     <use xlink:href="#NotoNaskhArabic-Bold-73" transform="translate(934.59375 0)"/>
     <use xlink:href="#NotoNaskhArabic-Bold-240" transform="translate(1000.296875 0)"/>
     <use xlink:href="#NotoNaskhArabic-Bold-4" transform="translate(1036.296875 0)"/>
     <use xlink:href="#NotoNaskhArabic-Bold-554" transform="translate(1065.09375 0)"/>
     <use xlink:href="#NotoNaskhArabic-Bold-136" transform="translate(1087.1875 0)"/>
     <use xlink:href="#NotoNaskhArabic-Bold-1e9" transform="translate(1138.890625 0)"/>
     <use xlink:href="#NotoNaskhArabic-Bold-b6" transform="translate(1168.09375 0)"/>
     <use xlink:href="#NotoNaskhArabic-Bold-554" transform="translate(1216.59375 0)"/>
     <use xlink:href="#NotoNaskhArabic-Bold-176" transform="translate(1238.6875 0)"/>
     <use xlink:href="#NotoNaskhArabic-Bold-1be" transform="translate(1282.984375 0)"/>
     <use xlink:href="#NotoNaskhArabic-Bold-554" transform="translate(1344.6875 0)"/>
     <use xlink:href="#NotoNaskhArabic-Bold-38" transform="translate(1366.78125 0)"/>
     <use xlink:href="#NotoNaskhArabic-Bold-111" transform="translate(1394.28125 0)"/>
     <use xlink:href="#NotoNaskhArabic-Bold-8b" transform="translate(1478.875 0)"/>
     <use xlink:href="#NotoNaskhArabic-Bold-240" transform="translate(1544.578125 0)"/>
     <use xlink:href="#NotoNaskhArabic-Bold-8a" transform="translate(1580.578125 0)"/>
     <use xlink:href="#NotoNaskhArabic-Bold-554" transform="translate(1652.984375 0)"/>
     <use xlink:href="#NotoNaskhArabic-Bold-26" transform="translate(1675.078125 0)"/>
     <use xlink:href="#NotoNaskhArabic-Bold-f9" transform="translate(1702.578125 0)"/>
     <use xlink:href="#NotoNaskhArabic-Bold-240" transform="translate(1772.28125 0)"/>
     <use xlink:href="#NotoNaskhArabic-Bold-124" transform="translate(1808.28125 0)"/>
     <use xlink:href="#NotoNaskhArabic-Bold-554" transform="translate(1892.375 0)"/>
    </g>
   </g>
   <g id="patch_5">
    <path d="M 16.758475 275.564676 
L 24.009732 275.564676 
L 24.009732 268.688877 
L 16.758475 268.688877 
z
" clip-path="url(#pe076185740)" style="fill: #1f8a56; stroke: #1f8a56; stroke-linejoin: miter"/>
   </g>
   <g id="patch_6">
    <path d="M 29.942578 274.814816 
L 37.193835 274.814816 
L 37.193835 267.939017 
L 29.942578 267.939017 
z
" clip-path="url(#pe076185740)" style="fill: #1f8a56; stroke: #1f8a56; stroke-linejoin: miter"/>
   </g>
   <g id="patch_7">
    <path d="M 43.126682 272.749006 
L 50.377939 272.749006 
L 50.377939 261.137935 
L 43.126682 261.137935 
z
" clip-path="url(#pe076185740)" style="fill: #1f8a56; stroke: #1f8a56; stroke-linejoin: miter"/>
   </g>
   <g id="patch_8">
    <path d="M 56.310785 259.432967 
L 63.562042 259.432967 
L 63.562042 249.507414 
L 56.310785 249.507414 
z
" clip-path="url(#pe076185740)" style="fill: #1f8a56; stroke: #1f8a56; stroke-linejoin: miter"/>
   </g>
   <g id="patch_9">
    <path d="M 69.494889 247.830396 
L 76.746146 247.830396 
L 76.746146 240.677979 
L 69.494889 240.677979 
z
" clip-path="url(#pe076185740)" style="fill: #1f8a56; stroke: #1f8a56; stroke-linejoin: miter"/>
   </g>
   <g id="patch_10">
    <path d="M 82.678992 239.20858 
L 89.930249 239.20858 
L 89.930249 232.332781 
L 82.678992 232.332781 
z
" clip-path="url(#pe076185740)" style="fill: #1f8a56; stroke: #1f8a56; stroke-linejoin: miter"/>
   </g>
   <g id="patch_11">
    <path d="M 95.863096 235.377607 
L 103.114352 235.377607 
L 103.114352 224.563796 
L 95.863096 224.563796 
z
" clip-path="url(#pe076185740)" style="fill: #1f8a56; stroke: #1f8a56; stroke-linejoin: miter"/>
   </g>
   <g id="patch_12">
    <path d="M 109.047199 226.83557 
L 116.298456 226.83557 
L 116.298456 210.708004 
L 109.047199 210.708004 
z
" clip-path="url(#pe076185740)" style="fill: #1f8a56; stroke: #1f8a56; stroke-linejoin: miter"/>
   </g>
   <g id="patch_13">
    <path d="M 122.231302 209.983904 
L 129.482559 209.983904 
L 129.482559 203.108105 
L 122.231302 203.108105 
z
" clip-path="url(#pe076185740)" style="fill: #b91c1c; stroke: #b91c1c; stroke-linejoin: miter"/>
   </g>
   <g id="patch_14">
    <path d="M 135.415406 209.008585 
L 142.666663 209.008585 
L 142.666663 202.132786 
L 135.415406 202.132786 
z
" clip-path="url(#pe076185740)" style="fill: #1f8a56; stroke: #1f8a56; stroke-linejoin: miter"/>
   </g>
   <g id="patch_15">
    <path d="M 148.599509 211.71272 
L 155.850766 211.71272 
L 155.850766 204.836921 
L 148.599509 204.836921 
z
" clip-path="url(#pe076185740)" style="fill: #b91c1c; stroke: #b91c1c; stroke-linejoin: miter"/>
   </g>
   <g id="patch_16">
    <path d="M 161.783613 210.202844 
L 169.03487 210.202844 
L 169.03487 199.505138 
L 161.783613 199.505138 
z
" clip-path="url(#pe076185740)" style="fill: #1f8a56; stroke: #1f8a56; stroke-linejoin: miter"/>
   </g>
   <g id="patch_17">
    <path d="M 174.967716 203.161607 
L 182.218973 203.161607 
L 182.218973 196.285808 
L 174.967716 196.285808 
z
" clip-path="url(#pe076185740)" style="fill: #1f8a56; stroke: #1f8a56; stroke-linejoin: miter"/>
   </g>
   <g id="patch_18">
    <path d="M 188.151819 196.582145 
L 195.403076 196.582145 
L 195.403076 185.901089 
L 188.151819 185.901089 
z
" clip-path="url(#pe076185740)" style="fill: #1f8a56; stroke: #1f8a56; stroke-linejoin: miter"/>
   </g>
   <g id="patch_19">
    <path d="M 201.335923 186.105673 
L 208.58718 186.105673 
L 208.58718 179.229874 
L 201.335923 179.229874 
z
" clip-path="url(#pe076185740)" style="fill: #1f8a56; stroke: #1f8a56; stroke-linejoin: miter"/>
   </g>
   <g id="patch_20">
    <path d="M 214.520026 177.334121 
L 221.771283 177.334121 
L 221.771283 168.970188 
L 214.520026 168.970188 
z
" clip-path="url(#pe076185740)" style="fill: #1f8a56; stroke: #1f8a56; stroke-linejoin: miter"/>
   </g>
   <g id="patch_21">
    <path d="M 227.70413 171.891756 
L 234.955387 171.891756 
L 234.955387 162.92599 
L 227.70413 162.92599 
z
" clip-path="url(#pe076185740)" style="fill: #1f8a56; stroke: #1f8a56; stroke-linejoin: miter"/>
   </g>
   <g id="patch_22">
    <path d="M 240.888233 161.317429 
L 248.13949 161.317429 
L 248.13949 154.441629 
L 240.888233 154.441629 
z
" clip-path="url(#pe076185740)" style="fill: #1f8a56; stroke: #1f8a56; stroke-linejoin: miter"/>
   </g>
   <g id="patch_23">
    <path d="M 254.072337 158.274425 
L 261.323593 158.274425 
L 261.323593 151.398625 
L 254.072337 151.398625 
z
" clip-path="url(#pe076185740)" style="fill: #1f8a56; stroke: #1f8a56; stroke-linejoin: miter"/>
   </g>
   <g id="patch_24">
    <path d="M 267.25644 156.376483 
L 274.507697 156.376483 
L 274.507697 149.500684 
L 267.25644 149.500684 
z
" clip-path="url(#pe076185740)" style="fill: #b91c1c; stroke: #b91c1c; stroke-linejoin: miter"/>
   </g>
   <g id="patch_25">
    <path d="M 280.440543 161.829941 
L 287.6918 161.829941 
L 287.6918 154.954142 
L 280.440543 154.954142 
z
" clip-path="url(#pe076185740)" style="fill: #b91c1c; stroke: #b91c1c; stroke-linejoin: miter"/>
   </g>
   <g id="patch_26">
    <path d="M 293.624647 165.968157 
L 300.875904 165.968157 
L 300.875904 159.092357 
L 293.624647 159.092357 
z
" clip-path="url(#pe076185740)" style="fill: #b91c1c; stroke: #b91c1c; stroke-linejoin: miter"/>
   </g>
   <g id="patch_27">
    <path d="M 306.80875 162.314403 
L 314.060007 162.314403 
L 314.060007 155.438604 
L 306.80875 155.438604 
z
" clip-path="url(#pe076185740)" style="fill: #b91c1c; stroke: #b91c1c; stroke-linejoin: miter"/>
   </g>
   <g id="patch_28">
    <path d="M 319.992854 163.042034 
L 327.244111 163.042034 
L 327.244111 151.420531 
L 319.992854 151.420531 
z
" clip-path="url(#pe076185740)" style="fill: #1f8a56; stroke: #1f8a56; stroke-linejoin: miter"/>
   </g>
   <g id="patch_29">
    <path d="M 333.176957 151.041414 
L 340.428214 151.041414 
L 340.428214 144.165615 
L 333.176957 144.165615 
z
" clip-path="url(#pe076185740)" style="fill: #1f8a56; stroke: #1f8a56; stroke-linejoin: miter"/>
   </g>
   <g id="patch_30">
    <path d="M 346.361061 143.251565 
L 353.612317 143.251565 
L 353.612317 136.375766 
L 346.361061 136.375766 
z
" clip-path="url(#pe076185740)" style="fill: #1f8a56; stroke: #1f8a56; stroke-linejoin: miter"/>
   </g>
   <g id="patch_31">
    <path d="M 359.545164 134.506747 
L 366.796421 134.506747 
L 366.796421 127.630947 
L 359.545164 127.630947 
z
" clip-path="url(#pe076185740)" style="fill: #1f8a56; stroke: #1f8a56; stroke-linejoin: miter"/>
   </g>
   <g id="patch_32">
    <path d="M 372.729267 131.25661 
L 379.980524 131.25661 
L 379.980524 124.38081 
L 372.729267 124.38081 
z
" clip-path="url(#pe076185740)" style="fill: #1f8a56; stroke: #1f8a56; stroke-linejoin: miter"/>
   </g>
   <g id="patch_33">
    <path d="M 385.913371 127.311213 
L 393.164628 127.311213 
L 393.164628 114.145159 
L 385.913371 114.145159 
z
" clip-path="url(#pe076185740)" style="fill: #1f8a56; stroke: #1f8a56; stroke-linejoin: miter"/>
   </g>
   <g id="patch_34">
    <path d="M 399.097474 115.472498 
L 406.348731 115.472498 
L 406.348731 103.998444 
L 399.097474 103.998444 
z
" clip-path="url(#pe076185740)" style="fill: #1f8a56; stroke: #1f8a56; stroke-linejoin: miter"/>
   </g>
   <g id="patch_35">
    <path d="M 412.281578 106.262127 
L 419.532835 106.262127 
L 419.532835 99.386327 
L 412.281578 99.386327 
z
" clip-path="url(#pe076185740)" style="fill: #b91c1c; stroke: #b91c1c; stroke-linejoin: miter"/>
   </g>
   <g id="patch_36">
    <path d="M 425.465681 106.613852 
L 432.716938 106.613852 
L 432.716938 99.738053 
L 425.465681 99.738053 
z
" clip-path="url(#pe076185740)" style="fill: #1f8a56; stroke: #1f8a56; stroke-linejoin: miter"/>
   </g>
   <g id="patch_37">
    <path d="M 438.649785 106.462832 
L 445.901041 106.462832 
L 445.901041 99.587033 
L 438.649785 99.587033 
z
" clip-path="url(#pe076185740)" style="fill: #b91c1c; stroke: #b91c1c; stroke-linejoin: miter"/>
   </g>
   <g id="patch_38">
    <path d="M 451.833888 108.236927 
L 459.085145 108.236927 
L 459.085145 97.857348 
L 451.833888 97.857348 
z
" clip-path="url(#pe076185740)" style="fill: #1f8a56; stroke: #1f8a56; stroke-linejoin: miter"/>
   </g>
   <g id="patch_39">
    <path d="M 465.017991 96.384245 
L 472.269248 96.384245 
L 472.269248 89.508446 
L 465.017991 89.508446 
z
" clip-path="url(#pe076185740)" style="fill: #1f8a56; stroke: #1f8a56; stroke-linejoin: miter"/>
   </g>
   <g id="patch_40">
    <path d="M 478.202095 91.71813 
L 485.453352 91.71813 
L 485.453352 81.177504 
L 478.202095 81.177504 
z
" clip-path="url(#pe076185740)" style="fill: #1f8a56; stroke: #1f8a56; stroke-linejoin: miter"/>
   </g>
   <g id="patch_41">
    <path d="M 491.386198 84.696403 
L 498.637455 84.696403 
L 498.637455 76.707127 
L 491.386198 76.707127 
z
" clip-path="url(#pe076185740)" style="fill: #1f8a56; stroke: #1f8a56; stroke-linejoin: miter"/>
   </g>
   <g id="patch_42">
    <path d="M 504.570302 77.019946 
L 511.821559 77.019946 
L 511.821559 66.446998 
L 504.570302 66.446998 
z
" clip-path="url(#pe076185740)" style="fill: #1f8a56; stroke: #1f8a56; stroke-linejoin: miter"/>
   </g>
   <g id="patch_43">
    <path d="M 517.754405 65.663094 
L 525.005662 65.663094 
L 525.005662 57.778172 
L 517.754405 57.778172 
z
" clip-path="url(#pe076185740)" style="fill: #1f8a56; stroke: #1f8a56; stroke-linejoin: miter"/>
   </g>
   <g id="patch_44">
    <path d="M 530.938508 56.120984 
L 538.189765 56.120984 
L 538.189765 49.245184 
L 530.938508 49.245184 
z
" clip-path="url(#pe076185740)" style="fill: #1f8a56; stroke: #1f8a56; stroke-linejoin: miter"/>
   </g>
   <g id="patch_45">
    <path d="M 544.122612 55.829554 
L 551.373869 55.829554 
L 551.373869 48.953755 
L 544.122612 48.953755 
z
" clip-path="url(#pe076185740)" style="fill: #1f8a56; stroke: #1f8a56; stroke-linejoin: miter"/>
   </g>
   <g id="line2d_60">
    <path d="M 152.225138 215.775228 
" clip-path="url(#pe076185740)" style="fill: none; stroke: #b7791f; stroke-width: 1.5; stroke-linecap: square"/>
    <defs>
     <path id="madf12517d6" d="M 0 -3.5 
L -3.5 3.5 
L 3.5 3.5 
z
" style="stroke: #b7791f; stroke-linejoin: miter"/>
    </defs>
    <g clip-path="url(#pe076185740)">
     <use xlink:href="#madf12517d6" x="152.225138" y="215.775228" style="fill: #b7791f; stroke: #b7791f; stroke-linejoin: miter"/>
    </g>
   </g>
   <g id="line2d_61">
    <path d="M 297.250275 169.502345 
" clip-path="url(#pe076185740)" style="fill: none; stroke: #b7791f; stroke-width: 1.5; stroke-linecap: square"/>
    <g clip-path="url(#pe076185740)">
     <use xlink:href="#madf12517d6" x="297.250275" y="169.502345" style="fill: #b7791f; stroke: #b7791f; stroke-linejoin: miter"/>
    </g>
   </g>
   <g id="line2d_62">
    <path d="M 442.275413 110.304736 
" clip-path="url(#pe076185740)" style="fill: none; stroke: #b7791f; stroke-width: 1.5; stroke-linecap: square"/>
    <g clip-path="url(#pe076185740)">
     <use xlink:href="#madf12517d6" x="442.275413" y="110.304736" style="fill: #b7791f; stroke: #b7791f; stroke-linejoin: miter"/>
    </g>
   </g>
  </g>
 </g>
 <defs>
  <clipPath id="pe076185740">
   <rect x="7.2" y="7.2" width="553.732344" height="300.92"/>
  </clipPath>
 </defs>
</svg>
