<?xml version="1.0" encoding="utf-8" standalone="no"?>
<!DOCTYPE svg PUBLIC "-//W3C//DTD SVG 1.1//EN"
  "http://www.w3.org/Graphics/SVG/1.1/DTD/svg11.dtd">
<svg xmlns:xlink="http://www.w3.org/1999/xlink" width="729.15pt" height="318.75pt" viewBox="0 0 729.15 318.75" xmlns="http://www.w3.org/2000/svg" version="1.1">
 <metadata>
  <rdf:RDF xmlns:dc="http://purl.org/dc/elements/1.1/" xmlns:cc="http://creativecommons.org/ns#" xmlns:rdf="http://www.w3.org/1999/02/22-rdf-syntax-ns#">
   <cc:Work>
    <dc:type rdf:resource="http://purl.org/dc/dcmitype/StillImage"/>
    <dc:date>2026-07-18T20:17:15.002633</dc:date>
    <dc:format>image/svg+xml</dc:format>
    <dc:creator>
     <cc:Agent>
      <dc:title>Matplotlib v3.11.1, https://matplotlib.org/</dc:title>
     </cc:Agent>
    </dc:creator>
   </cc:Work>
  </rdf:RDF>
 </metadata>
 <defs>
  <style type="text/css">*{stroke-linejoin: round; stroke-linecap: butt}</style>
 </defs>
 <g id="figure_1">
  <g id="patch_1">
   <path d="M 0 318.75 
L 729.15 318.75 
L 729.15 0 
L 0 0 
z
" style="fill: #ffffff"/>
  </g>
  <g id="axes_1">
   <g id="patch_2">
    <path d="M 7.2 311.55 
L 363.2625 311.55 
L 363.2625 21.178359 
L 7.2 21.178359 
z
" style="fill: #ffffff"/>
   </g>
   <g id="matplotlib.axis_1"/>
   <g id="matplotlib.axis_2"/>
   <g id="patch_3">
    <path d="M 7.2 311.55 
L 7.2 21.178359 
" style="fill: none; stroke: #1f2937; stroke-width: 0.8; stroke-linejoin: miter; stroke-linecap: square"/>
   </g>
   <g id="patch_4">
    <path d="M 7.2 311.55 
L 363.2625 311.55 
" style="fill: none; stroke: #1f2937; stroke-width: 0.8; stroke-linejoin: miter; stroke-linecap: square"/>
   </g>
   <g id="line2d_1">
    <path d="M 21.4425 296.127503 
L 21.4425 285.842825 
" clip-path="url(#p99172d8bbb)" style="fill: none; stroke: #b91c1c; stroke-width: 1.1; stroke-linecap: round"/>
   </g>
   <g id="line2d_2">
    <path d="M 35.685 298.351289 
L 35.685 249.467969 
" clip-path="url(#p99172d8bbb)" style="fill: none; stroke: #1f8a56; stroke-width: 1.1; stroke-linecap: round"/>
   </g>
   <g id="line2d_3">
    <path d="M 49.9275 257.995197 
L 49.9275 213.534097 
" clip-path="url(#p99172d8bbb)" style="fill: none; stroke: #1f8a56; stroke-width: 1.1; stroke-linecap: round"/>
   </g>
   <g id="line2d_4">
    <path d="M 64.17 224.067571 
L 64.17 196.921374 
" clip-path="url(#p99172d8bbb)" style="fill: none; stroke: #1f8a56; stroke-width: 1.1; stroke-linecap: round"/>
   </g>
   <g id="line2d_5">
    <path d="M 78.4125 205.175944 
L 78.4125 194.303817 
" clip-path="url(#p99172d8bbb)" style="fill: none; stroke: #1f8a56; stroke-width: 1.1; stroke-linecap: round"/>
   </g>
   <g id="line2d_6">
    <path d="M 92.655 207.702885 
L 92.655 189.070244 
" clip-path="url(#p99172d8bbb)" style="fill: none; stroke: #1f8a56; stroke-width: 1.1; stroke-linecap: round"/>
   </g>
   <g id="line2d_7">
    <path d="M 106.8975 198.741743 
L 106.8975 160.406494 
" clip-path="url(#p99172d8bbb)" style="fill: none; stroke: #1f8a56; stroke-width: 1.1; stroke-linecap: round"/>
   </g>
   <g id="line2d_8">
    <path d="M 121.14 196.510322 
L 121.14 161.264818 
" clip-path="url(#p99172d8bbb)" style="fill: none; stroke: #b91c1c; stroke-width: 1.1; stroke-linecap: round"/>
   </g>
   <g id="line2d_9">
    <path d="M 135.3825 203.231323 
L 135.3825 191.371744 
" clip-path="url(#p99172d8bbb)" style="fill: none; stroke: #b91c1c; stroke-width: 1.1; stroke-linecap: round"/>
   </g>
   <g id="line2d_10">
    <path d="M 149.625 202.860078 
L 149.625 190.440248 
" clip-path="url(#p99172d8bbb)" style="fill: none; stroke: #1f8a56; stroke-width: 1.1; stroke-linecap: round"/>
   </g>
   <g id="line2d_11">
    <path d="M 163.8675 192.792952 
L 163.8675 180.128176 
" clip-path="url(#p99172d8bbb)" style="fill: none; stroke: #1f8a56; stroke-width: 1.1; stroke-linecap: round"/>
   </g>
   <g id="line2d_12">
    <path d="M 178.11 189.754573 
L 178.11 143.547003 
" clip-path="url(#p99172d8bbb)" style="fill: none; stroke: #1f8a56; stroke-width: 1.1; stroke-linecap: round"/>
   </g>
   <g id="line2d_13">
    <path d="M 192.3525 152.096721 
L 192.3525 133.697534 
" clip-path="url(#p99172d8bbb)" style="fill: none; stroke: #b91c1c; stroke-width: 1.1; stroke-linecap: round"/>
   </g>
   <g id="line2d_14">
    <path d="M 206.595 150.251429 
L 206.595 132.489985 
" clip-path="url(#p99172d8bbb)" style="fill: none; stroke: #1f8a56; stroke-width: 1.1; stroke-linecap: round"/>
   </g>
   <g id="line2d_15">
    <path d="M 220.8375 146.615612 
L 220.8375 130.639506 
" clip-path="url(#p99172d8bbb)" style="fill: none; stroke: #b91c1c; stroke-width: 1.1; stroke-linecap: round"/>
   </g>
   <g id="line2d_16">
    <path d="M 235.08 139.588055 
L 235.08 130.281346 
" clip-path="url(#p99172d8bbb)" style="fill: none; stroke: #b91c1c; stroke-width: 1.1; stroke-linecap: round"/>
   </g>
   <g id="line2d_17">
    <path d="M 249.3225 157.944867 
L 249.3225 128.568093 
" clip-path="url(#p99172d8bbb)" style="fill: none; stroke: #b91c1c; stroke-width: 1.1; stroke-linecap: round"/>
   </g>
   <g id="line2d_18">
    <path d="M 263.565 159.531918 
L 263.565 118.643378 
" clip-path="url(#p99172d8bbb)" style="fill: none; stroke: #1f8a56; stroke-width: 1.1; stroke-linecap: round"/>
   </g>
   <g id="line2d_19">
    <path d="M 277.8075 125.599276 
L 277.8075 104.833267 
" clip-path="url(#p99172d8bbb)" style="fill: none; stroke: #1f8a56; stroke-width: 1.1; stroke-linecap: round"/>
   </g>
   <g id="line2d_20">
    <path d="M 292.05 117.775485 
L 292.05 55.860792 
" clip-path="url(#p99172d8bbb)" style="fill: none; stroke: #1f8a56; stroke-width: 1.1; stroke-linecap: round"/>
   </g>
   <g id="line2d_21">
    <path d="M 306.2925 83.067461 
L 306.2925 62.062316 
" clip-path="url(#p99172d8bbb)" style="fill: none; stroke: #b91c1c; stroke-width: 1.1; stroke-linecap: round"/>
   </g>
   <g id="line2d_22">
    <path d="M 320.535 85.663996 
L 320.535 54.584983 
" clip-path="url(#p99172d8bbb)" style="fill: none; stroke: #1f8a56; stroke-width: 1.1; stroke-linecap: round"/>
   </g>
   <g id="line2d_23">
    <path d="M 334.7775 56.24471 
L 334.7775 49.770021 
" clip-path="url(#p99172d8bbb)" style="fill: none; stroke: #b91c1c; stroke-width: 1.1; stroke-linecap: round"/>
   </g>
   <g id="line2d_24">
    <path d="M 349.02 59.339208 
L 349.02 34.37707 
" clip-path="url(#p99172d8bbb)" style="fill: none; stroke: #1f8a56; stroke-width: 1.1; stroke-linecap: round"/>
   </g>
   <g id="text_1">
    <!-- Candlestick -->
    <g style="fill: #1f2937" transform="translate(150.942187 15.178359) scale(0.105 -0.105)">
     <defs>
      <path id="DejaVuSans-Bold-26" d="M 4288 256 
Q 3956 84 3597 -3 
Q 3238 -91 2847 -91 
Q 1681 -91 1000 561 
Q 319 1213 319 2328 
Q 319 3447 1000 4098 
Q 1681 4750 2847 4750 
Q 3238 4750 3597 4662 
Q 3956 4575 4288 4403 
L 4288 3438 
Q 3953 3666 3628 3772 
Q 3303 3878 2944 3878 
Q 2300 3878 1931 3465 
Q 1563 3053 1563 2328 
Q 1563 1606 1931 1193 
Q 2300 781 2944 781 
Q 3303 781 3628 887 
Q 3953 994 4288 1222 
L 4288 256 
z
" transform="scale(0.015625)"/>
      <path id="DejaVuSans-Bold-44" d="M 2106 1575 
Q 1756 1575 1579 1456 
Q 1403 1338 1403 1106 
Q 1403 894 1545 773 
Q 1688 653 1941 653 
Q 2256 653 2472 879 
Q 2688 1106 2688 1447 
L 2688 1575 
L 2106 1575 
z
M 3816 1997 
L 3816 0 
L 2688 0 
L 2688 519 
Q 2463 200 2181 54 
Q 1900 -91 1497 -91 
Q 953 -91 614 226 
Q 275 544 275 1050 
Q 275 1666 698 1953 
Q 1122 2241 2028 2241 
L 2688 2241 
L 2688 2328 
Q 2688 2594 2478 2717 
Q 2269 2841 1825 2841 
Q 1466 2841 1156 2769 
Q 847 2697 581 2553 
L 581 3406 
Q 941 3494 1303 3539 
Q 1666 3584 2028 3584 
Q 2975 3584 3395 3211 
Q 3816 2838 3816 1997 
z
" transform="scale(0.015625)"/>
      <path id="DejaVuSans-Bold-51" d="M 4056 2131 
L 4056 0 
L 2931 0 
L 2931 347 
L 2931 1631 
Q 2931 2084 2911 2256 
Q 2891 2428 2841 2509 
Q 2775 2619 2662 2680 
Q 2550 2741 2406 2741 
Q 2056 2741 1856 2470 
Q 1656 2200 1656 1722 
L 1656 0 
L 538 0 
L 538 3500 
L 1656 3500 
L 1656 2988 
Q 1909 3294 2193 3439 
Q 2478 3584 2822 3584 
Q 3428 3584 3742 3212 
Q 4056 2841 4056 2131 
z
" transform="scale(0.015625)"/>
      <path id="DejaVuSans-Bold-47" d="M 2919 2988 
L 2919 4863 
L 4044 4863 
L 4044 0 
L 2919 0 
L 2919 506 
Q 2688 197 2409 53 
Q 2131 -91 1766 -91 
Q 1119 -91 703 423 
Q 288 938 288 1747 
Q 288 2556 703 3070 
Q 1119 3584 1766 3584 
Q 2128 3584 2408 3439 
Q 2688 3294 2919 2988 
z
M 2181 722 
Q 2541 722 2730 984 
Q 2919 1247 2919 1747 
Q 2919 2247 2730 2509 
Q 2541 2772 2181 2772 
Q 1825 2772 1636 2509 
Q 1447 2247 1447 1747 
Q 1447 1247 1636 984 
Q 1825 722 2181 722 
z
" transform="scale(0.015625)"/>
      <path id="DejaVuSans-Bold-4f" d="M 538 4863 
L 1656 4863 
L 1656 0 
L 538 0 
L 538 4863 
z
" transform="scale(0.015625)"/>
      <path id="DejaVuSans-Bold-48" d="M 4031 1759 
L 4031 1441 
L 1416 1441 
Q 1456 1047 1700 850 
Q 1944 653 2381 653 
Q 2734 653 3104 758 
Q 3475 863 3866 1075 
L 3866 213 
Q 3469 63 3072 -14 
Q 2675 -91 2278 -91 
Q 1328 -91 801 392 
Q 275 875 275 1747 
Q 275 2603 792 3093 
Q 1309 3584 2216 3584 
Q 3041 3584 3536 3087 
Q 4031 2591 4031 1759 
z
M 2881 2131 
Q 2881 2450 2695 2645 
Q 2509 2841 2209 2841 
Q 1884 2841 1681 2658 
Q 1478 2475 1428 2131 
L 2881 2131 
z
" transform="scale(0.015625)"/>
      <path id="DejaVuSans-Bold-56" d="M 3272 3391 
L 3272 2541 
Q 2913 2691 2578 2766 
Q 2244 2841 1947 2841 
Q 1628 2841 1473 2761 
Q 1319 2681 1319 2516 
Q 1319 2381 1436 2309 
Q 1553 2238 1856 2203 
L 2053 2175 
Q 2913 2066 3209 1816 
Q 3506 1566 3506 1031 
Q 3506 472 3093 190 
Q 2681 -91 1863 -91 
Q 1516 -91 1145 -36 
Q 775 19 384 128 
L 384 978 
Q 719 816 1070 734 
Q 1422 653 1784 653 
Q 2113 653 2278 743 
Q 2444 834 2444 1013 
Q 2444 1163 2330 1236 
Q 2216 1309 1875 1350 
L 1678 1375 
Q 931 1469 631 1722 
Q 331 1975 331 2491 
Q 331 3047 712 3315 
Q 1094 3584 1881 3584 
Q 2191 3584 2531 3537 
Q 2872 3491 3272 3391 
z
" transform="scale(0.015625)"/>
      <path id="DejaVuSans-Bold-57" d="M 1759 4494 
L 1759 3500 
L 2913 3500 
L 2913 2700 
L 1759 2700 
L 1759 1216 
Q 1759 972 1856 886 
Q 1953 800 2241 800 
L 2816 800 
L 2816 0 
L 1856 0 
Q 1194 0 917 276 
Q 641 553 641 1216 
L 641 2700 
L 84 2700 
L 84 3500 
L 641 3500 
L 641 4494 
L 1759 4494 
z
" transform="scale(0.015625)"/>
      <path id="DejaVuSans-Bold-4c" d="M 538 3500 
L 1656 3500 
L 1656 0 
L 538 0 
L 538 3500 
z
M 538 4863 
L 1656 4863 
L 1656 3950 
L 538 3950 
L 538 4863 
z
" transform="scale(0.015625)"/>
      <path id="DejaVuSans-Bold-46" d="M 3366 3391 
L 3366 2478 
Q 3138 2634 2908 2709 
Q 2678 2784 2431 2784 
Q 1963 2784 1702 2511 
Q 1441 2238 1441 1747 
Q 1441 1256 1702 982 
Q 1963 709 2431 709 
Q 2694 709 2930 787 
Q 3166 866 3366 1019 
L 3366 103 
Q 3103 6 2833 -42 
Q 2563 -91 2291 -91 
Q 1344 -91 809 395 
Q 275 881 275 1747 
Q 275 2613 809 3098 
Q 1344 3584 2291 3584 
Q 2566 3584 2833 3536 
Q 3100 3488 3366 3391 
z
" transform="scale(0.015625)"/>
      <path id="DejaVuSans-Bold-4e" d="M 538 4863 
L 1656 4863 
L 1656 2216 
L 2944 3500 
L 4244 3500 
L 2534 1894 
L 4378 0 
L 3022 0 
L 1656 1459 
L 1656 0 
L 538 0 
L 538 4863 
z
" transform="scale(0.015625)"/>
     </defs>
     <use xlink:href="#DejaVuSans-Bold-26"/>
     <use xlink:href="#DejaVuSans-Bold-44" transform="translate(73.390625 0)"/>
     <use xlink:href="#DejaVuSans-Bold-51" transform="translate(140.875 0)"/>
     <use xlink:href="#DejaVuSans-Bold-47" transform="translate(212.0625 0)"/>
     <use xlink:href="#DejaVuSans-Bold-4f" transform="translate(283.640625 0)"/>
     <use xlink:href="#DejaVuSans-Bold-48" transform="translate(317.921875 0)"/>
     <use xlink:href="#DejaVuSans-Bold-56" transform="translate(385.75 0)"/>
     <use xlink:href="#DejaVuSans-Bold-57" transform="translate(445.265625 0)"/>
     <use xlink:href="#DejaVuSans-Bold-4c" transform="translate(493.0625 0)"/>
     <use xlink:href="#DejaVuSans-Bold-46" transform="translate(527.34375 0)"/>
     <use xlink:href="#DejaVuSans-Bold-4e" transform="translate(586.625 0)"/>
    </g>
   </g>
   <g id="patch_5">
    <path d="M 17.16975 292.428878 
L 25.71525 292.428878 
L 25.71525 284.509651 
L 17.16975 284.509651 
z
" clip-path="url(#p99172d8bbb)" style="fill: #b91c1c; stroke: #b91c1c; stroke-linejoin: miter"/>
   </g>
   <g id="patch_6">
    <path d="M 31.41225 296.364888 
L 39.95775 296.364888 
L 39.95775 252.202488 
L 31.41225 252.202488 
z
" clip-path="url(#p99172d8bbb)" style="fill: #1f8a56; stroke: #1f8a56; stroke-linejoin: miter"/>
   </g>
   <g id="patch_7">
    <path d="M 45.65475 251.397385 
L 54.20025 251.397385 
L 54.20025 218.590115 
L 45.65475 218.590115 
z
" clip-path="url(#p99172d8bbb)" style="fill: #1f8a56; stroke: #1f8a56; stroke-linejoin: miter"/>
   </g>
   <g id="patch_8">
    <path d="M 59.89725 223.769442 
L 68.44275 223.769442 
L 68.44275 197.904351 
L 59.89725 197.904351 
z
" clip-path="url(#p99172d8bbb)" style="fill: #1f8a56; stroke: #1f8a56; stroke-linejoin: miter"/>
   </g>
   <g id="patch_9">
    <path d="M 74.13975 203.988075 
L 82.68525 203.988075 
L 82.68525 196.068847 
L 74.13975 196.068847 
z
" clip-path="url(#p99172d8bbb)" style="fill: #1f8a56; stroke: #1f8a56; stroke-linejoin: miter"/>
   </g>
   <g id="patch_10">
    <path d="M 88.38225 200.433869 
L 96.92775 200.433869 
L 96.92775 192.514641 
L 88.38225 192.514641 
z
" clip-path="url(#p99172d8bbb)" style="fill: #1f8a56; stroke: #1f8a56; stroke-linejoin: miter"/>
   </g>
   <g id="patch_11">
    <path d="M 102.62475 196.50043 
L 111.17025 196.50043 
L 111.17025 160.792939 
L 102.62475 160.792939 
z
" clip-path="url(#p99172d8bbb)" style="fill: #1f8a56; stroke: #1f8a56; stroke-linejoin: miter"/>
   </g>
   <g id="patch_12">
    <path d="M 116.86725 192.868775 
L 125.41275 192.868775 
L 125.41275 161.264932 
L 116.86725 161.264932 
z
" clip-path="url(#p99172d8bbb)" style="fill: #b91c1c; stroke: #b91c1c; stroke-linejoin: miter"/>
   </g>
   <g id="patch_13">
    <path d="M 131.10975 199.681864 
L 139.65525 199.681864 
L 139.65525 191.762636 
L 131.10975 191.762636 
z
" clip-path="url(#p99172d8bbb)" style="fill: #b91c1c; stroke: #b91c1c; stroke-linejoin: miter"/>
   </g>
   <g id="patch_14">
    <path d="M 145.35225 201.419535 
L 153.89775 201.419535 
L 153.89775 190.795976 
L 145.35225 190.795976 
z
" clip-path="url(#p99172d8bbb)" style="fill: #1f8a56; stroke: #1f8a56; stroke-linejoin: miter"/>
   </g>
   <g id="patch_15">
    <path d="M 159.59475 189.762261 
L 168.14025 189.762261 
L 168.14025 181.843033 
L 159.59475 181.843033 
z
" clip-path="url(#p99172d8bbb)" style="fill: #1f8a56; stroke: #1f8a56; stroke-linejoin: miter"/>
   </g>
   <g id="patch_16">
    <path d="M 173.83725 186.611356 
L 182.38275 186.611356 
L 182.38275 145.321583 
L 173.83725 145.321583 
z
" clip-path="url(#p99172d8bbb)" style="fill: #1f8a56; stroke: #1f8a56; stroke-linejoin: miter"/>
   </g>
   <g id="patch_17">
    <path d="M 188.07975 149.830489 
L 196.62525 149.830489 
L 196.62525 136.634918 
L 188.07975 136.634918 
z
" clip-path="url(#p99172d8bbb)" style="fill: #b91c1c; stroke: #b91c1c; stroke-linejoin: miter"/>
   </g>
   <g id="patch_18">
    <path d="M 202.32225 148.998595 
L 210.86775 148.998595 
L 210.86775 138.190108 
L 202.32225 138.190108 
z
" clip-path="url(#p99172d8bbb)" style="fill: #1f8a56; stroke: #1f8a56; stroke-linejoin: miter"/>
   </g>
   <g id="patch_19">
    <path d="M 216.56475 138.473562 
L 225.11025 138.473562 
L 225.11025 130.554335 
L 216.56475 130.554335 
z
" clip-path="url(#p99172d8bbb)" style="fill: #b91c1c; stroke: #b91c1c; stroke-linejoin: miter"/>
   </g>
   <g id="patch_20">
    <path d="M 230.80725 138.954288 
L 239.35275 138.954288 
L 239.35275 131.035061 
L 230.80725 131.035061 
z
" clip-path="url(#p99172d8bbb)" style="fill: #b91c1c; stroke: #b91c1c; stroke-linejoin: miter"/>
   </g>
   <g id="patch_21">
    <path d="M 245.04975 153.796811 
L 253.59525 153.796811 
L 253.59525 137.438563 
L 245.04975 137.438563 
z
" clip-path="url(#p99172d8bbb)" style="fill: #b91c1c; stroke: #b91c1c; stroke-linejoin: miter"/>
   </g>
   <g id="patch_22">
    <path d="M 259.29225 155.671738 
L 267.83775 155.671738 
L 267.83775 125.176644 
L 259.29225 125.176644 
z
" clip-path="url(#p99172d8bbb)" style="fill: #1f8a56; stroke: #1f8a56; stroke-linejoin: miter"/>
   </g>
   <g id="patch_23">
    <path d="M 273.53475 123.773377 
L 282.08025 123.773377 
L 282.08025 111.481905 
L 273.53475 111.481905 
z
" clip-path="url(#p99172d8bbb)" style="fill: #1f8a56; stroke: #1f8a56; stroke-linejoin: miter"/>
   </g>
   <g id="patch_24">
    <path d="M 287.77725 112.232191 
L 296.32275 112.232191 
L 296.32275 62.655189 
L 287.77725 62.655189 
z
" clip-path="url(#p99172d8bbb)" style="fill: #1f8a56; stroke: #1f8a56; stroke-linejoin: miter"/>
   </g>
   <g id="patch_25">
    <path d="M 302.01975 80.248031 
L 310.56525 80.248031 
L 310.56525 64.127858 
L 302.01975 64.127858 
z
" clip-path="url(#p99172d8bbb)" style="fill: #b91c1c; stroke: #b91c1c; stroke-linejoin: miter"/>
   </g>
   <g id="patch_26">
    <path d="M 316.26225 85.37341 
L 324.80775 85.37341 
L 324.80775 56.657239 
L 316.26225 56.657239 
z
" clip-path="url(#p99172d8bbb)" style="fill: #1f8a56; stroke: #1f8a56; stroke-linejoin: miter"/>
   </g>
   <g id="patch_27">
    <path d="M 330.50475 54.167116 
L 339.05025 54.167116 
L 339.05025 46.247889 
L 330.50475 46.247889 
z
" clip-path="url(#p99172d8bbb)" style="fill: #b91c1c; stroke: #b91c1c; stroke-linejoin: miter"/>
   </g>
   <g id="patch_28">
    <path d="M 344.74725 57.620892 
L 353.29275 57.620892 
L 353.29275 39.555655 
L 344.74725 39.555655 
z
" clip-path="url(#p99172d8bbb)" style="fill: #1f8a56; stroke: #1f8a56; stroke-linejoin: miter"/>
   </g>
  </g>
  <g id="axes_2">
   <g id="patch_29">
    <path d="M 365.8875 311.55 
L 721.95 311.55 
L 721.95 21.178359 
L 365.8875 21.178359 
z
" style="fill: #ffffff"/>
   </g>
   <g id="matplotlib.axis_3"/>
   <g id="matplotlib.axis_4"/>
   <g id="patch_30">
    <path d="M 365.8875 311.55 
L 365.8875 21.178359 
" style="fill: none; stroke: #1f2937; stroke-width: 0.8; stroke-linejoin: miter; stroke-linecap: square"/>
   </g>
   <g id="patch_31">
    <path d="M 365.8875 311.55 
L 721.95 311.55 
" style="fill: none; stroke: #1f2937; stroke-width: 0.8; stroke-linejoin: miter; stroke-linecap: square"/>
   </g>
   <g id="line2d_25">
    <path d="M 380.13 296.127503 
L 380.13 285.842825 
" clip-path="url(#pe6ba0d7768)" style="fill: none; stroke: #b91c1c; stroke-width: 1.1; stroke-linecap: round"/>
   </g>
   <g id="line2d_26">
    <path d="M 394.3725 298.351289 
L 394.3725 249.467969 
" clip-path="url(#pe6ba0d7768)" style="fill: none; stroke: #1f8a56; stroke-width: 1.1; stroke-linecap: round"/>
   </g>
   <g id="line2d_27">
    <path d="M 408.615 282.274264 
L 408.615 213.534097 
" clip-path="url(#pe6ba0d7768)" style="fill: none; stroke: #1f8a56; stroke-width: 1.1; stroke-linecap: round"/>
   </g>
   <g id="line2d_28">
    <path d="M 422.8575 258.826731 
L 422.8575 196.921374 
" clip-path="url(#pe6ba0d7768)" style="fill: none; stroke: #1f8a56; stroke-width: 1.1; stroke-linecap: round"/>
   </g>
   <g id="line2d_29">
    <path d="M 437.1 234.746208 
L 437.1 194.303817 
" clip-path="url(#pe6ba0d7768)" style="fill: none; stroke: #1f8a56; stroke-width: 1.1; stroke-linecap: round"/>
   </g>
   <g id="line2d_30">
    <path d="M 451.3425 217.372235 
L 451.3425 189.070244 
" clip-path="url(#pe6ba0d7768)" style="fill: none; stroke: #1f8a56; stroke-width: 1.1; stroke-linecap: round"/>
   </g>
   <g id="line2d_31">
    <path d="M 465.585 207.422388 
L 465.585 160.406494 
" clip-path="url(#pe6ba0d7768)" style="fill: none; stroke: #1f8a56; stroke-width: 1.1; stroke-linecap: round"/>
   </g>
   <g id="line2d_32">
    <path d="M 479.8275 196.510322 
L 479.8275 161.264818 
" clip-path="url(#pe6ba0d7768)" style="fill: none; stroke: #1f8a56; stroke-width: 1.1; stroke-linecap: round"/>
   </g>
   <g id="line2d_33">
    <path d="M 494.07 203.231323 
L 494.07 185.621803 
" clip-path="url(#pe6ba0d7768)" style="fill: none; stroke: #b91c1c; stroke-width: 1.1; stroke-linecap: round"/>
   </g>
   <g id="line2d_34">
    <path d="M 508.3125 202.860078 
L 508.3125 190.440248 
" clip-path="url(#pe6ba0d7768)" style="fill: none; stroke: #b91c1c; stroke-width: 1.1; stroke-linecap: round"/>
   </g>
   <g id="line2d_35">
    <path d="M 522.555 193.758021 
L 522.555 180.128176 
" clip-path="url(#pe6ba0d7768)" style="fill: none; stroke: #1f8a56; stroke-width: 1.1; stroke-linecap: round"/>
   </g>
   <g id="line2d_36">
    <path d="M 536.7975 190.022212 
L 536.7975 143.547003 
" clip-path="url(#pe6ba0d7768)" style="fill: none; stroke: #1f8a56; stroke-width: 1.1; stroke-linecap: round"/>
   </g>
   <g id="line2d_37">
    <path d="M 551.04 178.16542 
L 551.04 133.697534 
" clip-path="url(#pe6ba0d7768)" style="fill: none; stroke: #1f8a56; stroke-width: 1.1; stroke-linecap: round"/>
   </g>
   <g id="line2d_38">
    <path d="M 565.2825 160.615168 
L 565.2825 132.489985 
" clip-path="url(#pe6ba0d7768)" style="fill: none; stroke: #1f8a56; stroke-width: 1.1; stroke-linecap: round"/>
   </g>
   <g id="line2d_39">
    <path d="M 579.525 151.548849 
L 579.525 130.639506 
" clip-path="url(#pe6ba0d7768)" style="fill: none; stroke: #1f8a56; stroke-width: 1.1; stroke-linecap: round"/>
   </g>
   <g id="line2d_40">
    <path d="M 593.7675 144.695709 
L 593.7675 130.281346 
" clip-path="url(#pe6ba0d7768)" style="fill: none; stroke: #1f8a56; stroke-width: 1.1; stroke-linecap: round"/>
   </g>
   <g id="line2d_41">
    <path d="M 608.01 157.944867 
L 608.01 128.568093 
" clip-path="url(#pe6ba0d7768)" style="fill: none; stroke: #b91c1c; stroke-width: 1.1; stroke-linecap: round"/>
   </g>
   <g id="line2d_42">
    <path d="M 622.2525 159.531918 
L 622.2525 118.643378 
" clip-path="url(#pe6ba0d7768)" style="fill: none; stroke: #1f8a56; stroke-width: 1.1; stroke-linecap: round"/>
   </g>
   <g id="line2d_43">
    <path d="M 636.495 140.970015 
L 636.495 104.833267 
" clip-path="url(#pe6ba0d7768)" style="fill: none; stroke: #1f8a56; stroke-width: 1.1; stroke-linecap: round"/>
   </g>
   <g id="line2d_44">
    <path d="M 650.7375 128.695986 
L 650.7375 55.860792 
" clip-path="url(#pe6ba0d7768)" style="fill: none; stroke: #1f8a56; stroke-width: 1.1; stroke-linecap: round"/>
   </g>
   <g id="line2d_45">
    <path d="M 664.98 107.91345 
L 664.98 62.062316 
" clip-path="url(#pe6ba0d7768)" style="fill: none; stroke: #1f8a56; stroke-width: 1.1; stroke-linecap: round"/>
   </g>
   <g id="line2d_46">
    <path d="M 679.2225 90.144933 
L 679.2225 54.584983 
" clip-path="url(#pe6ba0d7768)" style="fill: none; stroke: #1f8a56; stroke-width: 1.1; stroke-linecap: round"/>
   </g>
   <g id="line2d_47">
    <path d="M 693.465 80.35742 
L 693.465 49.770021 
" clip-path="url(#pe6ba0d7768)" style="fill: none; stroke: #1f8a56; stroke-width: 1.1; stroke-linecap: round"/>
   </g>
   <g id="line2d_48">
    <path d="M 707.7075 66.759265 
L 707.7075 34.37707 
" clip-path="url(#pe6ba0d7768)" style="fill: none; stroke: #1f8a56; stroke-width: 1.1; stroke-linecap: round"/>
   </g>
   <g id="text_2">
    <!-- Heikin Ashi (smoothed) -->
    <g style="fill: #1f2937" transform="translate(474.582656 15.178359) scale(0.105 -0.105)">
     <defs>
      <path id="DejaVuSans-Bold-2b" d="M 588 4666 
L 1791 4666 
L 1791 2888 
L 3566 2888 
L 3566 4666 
L 4769 4666 
L 4769 0 
L 3566 0 
L 3566 1978 
L 1791 1978 
L 1791 0 
L 588 0 
L 588 4666 
z
" transform="scale(0.015625)"/>
      <path id="DejaVuSans-Bold-3" transform="scale(0.015625)"/>
      <path id="DejaVuSans-Bold-24" d="M 3419 850 
L 1538 850 
L 1241 0 
L 31 0 
L 1759 4666 
L 3194 4666 
L 4922 0 
L 3713 0 
L 3419 850 
z
M 1838 1716 
L 3116 1716 
L 2478 3572 
L 1838 1716 
z
" transform="scale(0.015625)"/>
      <path id="DejaVuSans-Bold-4b" d="M 4056 2131 
L 4056 0 
L 2931 0 
L 2931 347 
L 2931 1625 
Q 2931 2084 2911 2256 
Q 2891 2428 2841 2509 
Q 2775 2619 2662 2680 
Q 2550 2741 2406 2741 
Q 2056 2741 1856 2470 
Q 1656 2200 1656 1722 
L 1656 0 
L 538 0 
L 538 4863 
L 1656 4863 
L 1656 2988 
Q 1909 3294 2193 3439 
Q 2478 3584 2822 3584 
Q 3428 3584 3742 3212 
Q 4056 2841 4056 2131 
z
" transform="scale(0.015625)"/>
      <path id="DejaVuSans-Bold-b" d="M 2413 -844 
L 1484 -844 
Q 1006 -72 778 623 
Q 550 1319 550 2003 
Q 550 2688 779 3389 
Q 1009 4091 1484 4856 
L 2413 4856 
Q 2013 4116 1813 3408 
Q 1613 2700 1613 2009 
Q 1613 1319 1811 609 
Q 2009 -100 2413 -844 
z
" transform="scale(0.015625)"/>
      <path id="DejaVuSans-Bold-50" d="M 3781 2919 
Q 3994 3244 4286 3414 
Q 4578 3584 4928 3584 
Q 5531 3584 5847 3212 
Q 6163 2841 6163 2131 
L 6163 0 
L 5038 0 
L 5038 1825 
Q 5041 1866 5042 1909 
Q 5044 1953 5044 2034 
Q 5044 2406 4934 2573 
Q 4825 2741 4581 2741 
Q 4263 2741 4089 2478 
Q 3916 2216 3909 1719 
L 3909 0 
L 2784 0 
L 2784 1825 
Q 2784 2406 2684 2573 
Q 2584 2741 2328 2741 
Q 2006 2741 1831 2477 
Q 1656 2213 1656 1722 
L 1656 0 
L 531 0 
L 531 3500 
L 1656 3500 
L 1656 2988 
Q 1863 3284 2130 3434 
Q 2397 3584 2719 3584 
Q 3081 3584 3359 3409 
Q 3638 3234 3781 2919 
z
" transform="scale(0.015625)"/>
      <path id="DejaVuSans-Bold-52" d="M 2203 2784 
Q 1831 2784 1636 2517 
Q 1441 2250 1441 1747 
Q 1441 1244 1636 976 
Q 1831 709 2203 709 
Q 2569 709 2762 976 
Q 2956 1244 2956 1747 
Q 2956 2250 2762 2517 
Q 2569 2784 2203 2784 
z
M 2203 3584 
Q 3106 3584 3614 3096 
Q 4122 2609 4122 1747 
Q 4122 884 3614 396 
Q 3106 -91 2203 -91 
Q 1297 -91 786 396 
Q 275 884 275 1747 
Q 275 2609 786 3096 
Q 1297 3584 2203 3584 
z
" transform="scale(0.015625)"/>
      <path id="DejaVuSans-Bold-c" d="M 513 -844 
Q 913 -100 1113 609 
Q 1313 1319 1313 2009 
Q 1313 2700 1113 3408 
Q 913 4116 513 4856 
L 1441 4856 
Q 1916 4091 2145 3389 
Q 2375 2688 2375 2003 
Q 2375 1319 2147 623 
Q 1919 -72 1441 -844 
L 513 -844 
z
" transform="scale(0.015625)"/>
     </defs>
     <use xlink:href="#DejaVuSans-Bold-2b"/>
     <use xlink:href="#DejaVuSans-Bold-48" transform="translate(83.6875 0)"/>
     <use xlink:href="#DejaVuSans-Bold-4c" transform="translate(151.515625 0)"/>
     <use xlink:href="#DejaVuSans-Bold-4e" transform="translate(185.796875 0)"/>
     <use xlink:href="#DejaVuSans-Bold-4c" transform="translate(252.296875 0)"/>
     <use xlink:href="#DejaVuSans-Bold-51" transform="translate(286.578125 0)"/>
     <use xlink:href="#DejaVuSans-Bold-3" transform="translate(357.765625 0)"/>
     <use xlink:href="#DejaVuSans-Bold-24" transform="translate(392.578125 0)"/>
     <use xlink:href="#DejaVuSans-Bold-56" transform="translate(469.96875 0)"/>
     <use xlink:href="#DejaVuSans-Bold-4b" transform="translate(529.484375 0)"/>
     <use xlink:href="#DejaVuSans-Bold-4c" transform="translate(600.671875 0)"/>
     <use xlink:href="#DejaVuSans-Bold-3" transform="translate(634.953125 0)"/>
     <use xlink:href="#DejaVuSans-Bold-b" transform="translate(669.765625 0)"/>
     <use xlink:href="#DejaVuSans-Bold-56" transform="translate(715.46875 0)"/>
     <use xlink:href="#DejaVuSans-Bold-50" transform="translate(774.984375 0)"/>
     <use xlink:href="#DejaVuSans-Bold-52" transform="translate(879.1875 0)"/>
     <use xlink:href="#DejaVuSans-Bold-52" transform="translate(947.890625 0)"/>
     <use xlink:href="#DejaVuSans-Bold-57" transform="translate(1016.59375 0)"/>
     <use xlink:href="#DejaVuSans-Bold-4b" transform="translate(1064.390625 0)"/>
     <use xlink:href="#DejaVuSans-Bold-48" transform="translate(1135.578125 0)"/>
     <use xlink:href="#DejaVuSans-Bold-47" transform="translate(1203.40625 0)"/>
     <use xlink:href="#DejaVuSans-Bold-c" transform="translate(1274.984375 0)"/>
    </g>
   </g>
   <g id="patch_32">
    <path d="M 375.85725 290.629634 
L 384.40275 290.629634 
L 384.40275 282.710406 
L 375.85725 282.710406 
z
" clip-path="url(#pe6ba0d7768)" style="fill: #b91c1c; stroke: #b91c1c; stroke-linejoin: miter"/>
   </g>
   <g id="patch_33">
    <path d="M 390.09975 290.451869 
L 398.64525 290.451869 
L 398.64525 274.096659 
L 390.09975 274.096659 
z
" clip-path="url(#pe6ba0d7768)" style="fill: #1f8a56; stroke: #1f8a56; stroke-linejoin: miter"/>
   </g>
   <g id="patch_34">
    <path d="M 404.34225 282.274264 
L 412.88775 282.274264 
L 412.88775 235.379199 
L 404.34225 235.379199 
z
" clip-path="url(#pe6ba0d7768)" style="fill: #1f8a56; stroke: #1f8a56; stroke-linejoin: miter"/>
   </g>
   <g id="patch_35">
    <path d="M 418.58475 258.826731 
L 427.13025 258.826731 
L 427.13025 210.665684 
L 418.58475 210.665684 
z
" clip-path="url(#pe6ba0d7768)" style="fill: #1f8a56; stroke: #1f8a56; stroke-linejoin: miter"/>
   </g>
   <g id="patch_36">
    <path d="M 432.82725 234.746208 
L 441.37275 234.746208 
L 441.37275 199.998262 
L 432.82725 199.998262 
z
" clip-path="url(#pe6ba0d7768)" style="fill: #1f8a56; stroke: #1f8a56; stroke-linejoin: miter"/>
   </g>
   <g id="patch_37">
    <path d="M 447.06975 217.372235 
L 455.61525 217.372235 
L 455.61525 197.472542 
L 447.06975 197.472542 
z
" clip-path="url(#pe6ba0d7768)" style="fill: #1f8a56; stroke: #1f8a56; stroke-linejoin: miter"/>
   </g>
   <g id="patch_38">
    <path d="M 461.31225 207.422388 
L 469.85775 207.422388 
L 469.85775 179.110401 
L 461.31225 179.110401 
z
" clip-path="url(#pe6ba0d7768)" style="fill: #1f8a56; stroke: #1f8a56; stroke-linejoin: miter"/>
   </g>
   <g id="patch_39">
    <path d="M 475.55475 193.266395 
L 484.10025 193.266395 
L 484.10025 177.977212 
L 475.55475 177.977212 
z
" clip-path="url(#pe6ba0d7768)" style="fill: #1f8a56; stroke: #1f8a56; stroke-linejoin: miter"/>
   </g>
   <g id="patch_40">
    <path d="M 489.79725 196.652361 
L 498.34275 196.652361 
L 498.34275 185.621803 
L 489.79725 185.621803 
z
" clip-path="url(#pe6ba0d7768)" style="fill: #b91c1c; stroke: #b91c1c; stroke-linejoin: miter"/>
   </g>
   <g id="patch_41">
    <path d="M 504.03975 196.378959 
L 512.58525 196.378959 
L 512.58525 188.459732 
L 504.03975 188.459732 
z
" clip-path="url(#pe6ba0d7768)" style="fill: #b91c1c; stroke: #b91c1c; stroke-linejoin: miter"/>
   </g>
   <g id="patch_42">
    <path d="M 518.28225 193.758021 
L 526.82775 193.758021 
L 526.82775 185.838793 
L 518.28225 185.838793 
z
" clip-path="url(#pe6ba0d7768)" style="fill: #1f8a56; stroke: #1f8a56; stroke-linejoin: miter"/>
   </g>
   <g id="patch_43">
    <path d="M 532.52475 190.022212 
L 541.07025 190.022212 
L 541.07025 166.308628 
L 532.52475 166.308628 
z
" clip-path="url(#pe6ba0d7768)" style="fill: #1f8a56; stroke: #1f8a56; stroke-linejoin: miter"/>
   </g>
   <g id="patch_44">
    <path d="M 546.76725 178.16542 
L 555.31275 178.16542 
L 555.31275 143.064916 
L 546.76725 143.064916 
z
" clip-path="url(#pe6ba0d7768)" style="fill: #1f8a56; stroke: #1f8a56; stroke-linejoin: miter"/>
   </g>
   <g id="patch_45">
    <path d="M 561.00975 160.615168 
L 569.55525 160.615168 
L 569.55525 142.482529 
L 561.00975 142.482529 
z
" clip-path="url(#pe6ba0d7768)" style="fill: #1f8a56; stroke: #1f8a56; stroke-linejoin: miter"/>
   </g>
   <g id="patch_46">
    <path d="M 575.25225 151.548849 
L 583.79775 151.548849 
L 583.79775 137.842569 
L 575.25225 137.842569 
z
" clip-path="url(#pe6ba0d7768)" style="fill: #1f8a56; stroke: #1f8a56; stroke-linejoin: miter"/>
   </g>
   <g id="patch_47">
    <path d="M 589.49475 144.695709 
L 598.04025 144.695709 
L 598.04025 135.166566 
L 589.49475 135.166566 
z
" clip-path="url(#pe6ba0d7768)" style="fill: #1f8a56; stroke: #1f8a56; stroke-linejoin: miter"/>
   </g>
   <g id="patch_48">
    <path d="M 603.73725 144.437083 
L 612.28275 144.437083 
L 612.28275 136.517856 
L 603.73725 136.517856 
z
" clip-path="url(#pe6ba0d7768)" style="fill: #b91c1c; stroke: #b91c1c; stroke-linejoin: miter"/>
   </g>
   <g id="patch_49">
    <path d="M 617.97975 142.18411 
L 626.52525 142.18411 
L 626.52525 134.264883 
L 617.97975 134.264883 
z
" clip-path="url(#pe6ba0d7768)" style="fill: #1f8a56; stroke: #1f8a56; stroke-linejoin: miter"/>
   </g>
   <g id="patch_50">
    <path d="M 632.22225 140.970015 
L 640.76775 140.970015 
L 640.76775 116.421956 
L 632.22225 116.421956 
z
" clip-path="url(#pe6ba0d7768)" style="fill: #1f8a56; stroke: #1f8a56; stroke-linejoin: miter"/>
   </g>
   <g id="patch_51">
    <path d="M 646.46475 128.695986 
L 655.01025 128.695986 
L 655.01025 87.130914 
L 646.46475 87.130914 
z
" clip-path="url(#pe6ba0d7768)" style="fill: #1f8a56; stroke: #1f8a56; stroke-linejoin: miter"/>
   </g>
   <g id="patch_52">
    <path d="M 660.70725 107.91345 
L 669.25275 107.91345 
L 669.25275 72.376416 
L 660.70725 72.376416 
z
" clip-path="url(#pe6ba0d7768)" style="fill: #1f8a56; stroke: #1f8a56; stroke-linejoin: miter"/>
   </g>
   <g id="patch_53">
    <path d="M 674.94975 90.144933 
L 683.49525 90.144933 
L 683.49525 70.569907 
L 674.94975 70.569907 
z
" clip-path="url(#pe6ba0d7768)" style="fill: #1f8a56; stroke: #1f8a56; stroke-linejoin: miter"/>
   </g>
   <g id="patch_54">
    <path d="M 689.19225 80.35742 
L 697.73775 80.35742 
L 697.73775 53.161111 
L 689.19225 53.161111 
z
" clip-path="url(#pe6ba0d7768)" style="fill: #1f8a56; stroke: #1f8a56; stroke-linejoin: miter"/>
   </g>
   <g id="patch_55">
    <path d="M 703.43475 66.759265 
L 711.98025 66.759265 
L 711.98025 47.723206 
L 703.43475 47.723206 
z
" clip-path="url(#pe6ba0d7768)" style="fill: #1f8a56; stroke: #1f8a56; stroke-linejoin: miter"/>
   </g>
  </g>
 </g>
 <defs>
  <clipPath id="p99172d8bbb">
   <rect x="7.2" y="21.178359" width="356.0625" height="290.371641"/>
  </clipPath>
  <clipPath id="pe6ba0d7768">
   <rect x="365.8875" y="21.178359" width="356.0625" height="290.371641"/>
  </clipPath>
 </defs>
</svg>
