<?xml version="1.0" encoding="utf-8" standalone="no"?>
<!DOCTYPE svg PUBLIC "-//W3C//DTD SVG 1.1//EN"
  "http://www.w3.org/Graphics/SVG/1.1/DTD/svg11.dtd">
<svg xmlns:xlink="http://www.w3.org/1999/xlink" width="628.35pt" height="397.95pt" viewBox="0 0 628.35 397.95" xmlns="http://www.w3.org/2000/svg" version="1.1">
 <metadata>
  <rdf:RDF xmlns:dc="http://purl.org/dc/elements/1.1/" xmlns:cc="http://creativecommons.org/ns#" xmlns:rdf="http://www.w3.org/1999/02/22-rdf-syntax-ns#">
   <cc:Work>
    <dc:type rdf:resource="http://purl.org/dc/dcmitype/StillImage"/>
    <dc:date>2026-07-19T01:19:59.555647</dc:date>
    <dc:format>image/svg+xml</dc:format>
    <dc:creator>
     <cc:Agent>
      <dc:title>Matplotlib v3.11.1, https://matplotlib.org/</dc:title>
     </cc:Agent>
    </dc:creator>
   </cc:Work>
  </rdf:RDF>
 </metadata>
 <defs>
  <style type="text/css">*{stroke-linejoin: round; stroke-linecap: butt}</style>
 </defs>
 <g id="figure_1">
  <g id="patch_1">
   <path d="M 0 397.95 
L 628.35 397.95 
L 628.35 0 
L 0 0 
z
" style="fill: #ffffff"/>
  </g>
  <g id="axes_1">
   <g id="patch_2">
    <path d="M 54.100484 257.931197 
L 621.15 257.931197 
L 621.15 7.2 
L 54.100484 7.2 
z
" style="fill: #ffffff"/>
   </g>
   <g id="matplotlib.axis_1"/>
   <g id="matplotlib.axis_2">
    <g id="ytick_1">
     <g id="line2d_1">
      <path d="M 54.100484 250.226067 
L 621.15 250.226067 
" clip-path="url(#p20fd53eca5)" style="fill: none; stroke: #e6e1d6; stroke-width: 0.8; stroke-linecap: square"/>
     </g>
     <g id="line2d_2">
      <defs>
       <path id="m8b4664448d" d="M 0 0 
L -3.5 0 
" style="stroke: #555555; stroke-width: 0.8"/>
      </defs>
      <g>
       <use xlink:href="#m8b4664448d" x="54.100484" y="250.226067" style="fill: #555555; stroke: #555555; stroke-width: 0.8"/>
      </g>
     </g>
     <g id="text_1">
      <!-- 100 -->
      <g style="fill: #555555" transform="translate(29.0815 255.838317) scale(0.105 -0.105)">
       <defs>
        <path id="NotoNaskhArabic-Regular-4cd" d="M 1722 0 
L 1722 3194 
Q 1722 3405 1728 3603 
Q 1734 3802 1747 3981 
Q 1702 3936 1657 3891 
Q 1613 3846 1562 3808 
Q 1402 3674 1226 3530 
Q 1050 3386 864 3232 
L 570 3610 
L 1805 4570 
L 2272 4570 
L 2272 0 
L 1722 0 
z
" transform="scale(0.015625)"/>
        <path id="NotoNaskhArabic-Regular-4cc" d="M 1824 -64 
Q 1082 -64 698 534 
Q 314 1133 314 2291 
Q 314 3488 682 4064 
Q 1050 4640 1824 4640 
Q 2566 4640 2956 4038 
Q 3347 3437 3347 2291 
Q 3347 1101 2969 518 
Q 2592 -64 1824 -64 
z
M 1824 416 
Q 2208 416 2426 678 
Q 2778 1094 2778 2291 
Q 2778 3571 2368 3962 
Q 2163 4160 1824 4160 
Q 1427 4160 1203 3878 
Q 877 3469 877 2291 
Q 877 1075 1229 666 
Q 1440 416 1824 416 
z
" transform="scale(0.015625)"/>
       </defs>
       <use xlink:href="#NotoNaskhArabic-Regular-4cd"/>
       <use xlink:href="#NotoNaskhArabic-Regular-4cc" transform="translate(57.203125 0)"/>
       <use xlink:href="#NotoNaskhArabic-Regular-4cc" transform="translate(114.40625 0)"/>
      </g>
     </g>
    </g>
    <g id="ytick_2">
     <g id="line2d_3">
      <path d="M 54.100484 218.941378 
L 621.15 218.941378 
" clip-path="url(#p20fd53eca5)" style="fill: none; stroke: #e6e1d6; stroke-width: 0.8; stroke-linecap: square"/>
     </g>
     <g id="line2d_4">
      <g>
       <use xlink:href="#m8b4664448d" x="54.100484" y="218.941378" style="fill: #555555; stroke: #555555; stroke-width: 0.8"/>
      </g>
     </g>
     <g id="text_2">
      <!-- 102 -->
      <g style="fill: #555555" transform="translate(29.0815 224.553628) scale(0.105 -0.105)">
       <defs>
        <path id="NotoNaskhArabic-Regular-4ce" d="M 307 0 
L 307 467 
L 1504 1677 
Q 1773 1952 1952 2147 
Q 2131 2342 2221 2458 
Q 2413 2720 2489 2925 
Q 2566 3130 2566 3386 
Q 2566 3744 2352 3949 
Q 2138 4154 1760 4154 
Q 1478 4154 1228 4058 
Q 979 3962 659 3718 
L 358 4096 
Q 1005 4634 1760 4634 
Q 2240 4634 2576 4448 
Q 2912 4262 3053 3923 
Q 3142 3686 3142 3418 
Q 3142 3123 3033 2841 
Q 2925 2560 2707 2272 
Q 2598 2131 2416 1929 
Q 2234 1728 1971 1478 
L 1018 538 
L 1018 512 
L 3328 512 
L 3328 0 
L 307 0 
z
" transform="scale(0.015625)"/>
       </defs>
       <use xlink:href="#NotoNaskhArabic-Regular-4cd"/>
       <use xlink:href="#NotoNaskhArabic-Regular-4cc" transform="translate(57.203125 0)"/>
       <use xlink:href="#NotoNaskhArabic-Regular-4ce" transform="translate(114.40625 0)"/>
      </g>
     </g>
    </g>
    <g id="ytick_3">
     <g id="line2d_5">
      <path d="M 54.100484 187.65669 
L 621.15 187.65669 
" clip-path="url(#p20fd53eca5)" style="fill: none; stroke: #e6e1d6; stroke-width: 0.8; stroke-linecap: square"/>
     </g>
     <g id="line2d_6">
      <g>
       <use xlink:href="#m8b4664448d" x="54.100484" y="187.65669" style="fill: #555555; stroke: #555555; stroke-width: 0.8"/>
      </g>
     </g>
     <g id="text_3">
      <!-- 104 -->
      <g style="fill: #555555" transform="translate(29.0815 193.26894) scale(0.105 -0.105)">
       <defs>
        <path id="NotoNaskhArabic-Regular-4d0" d="M 2323 0 
L 2323 1037 
L 134 1037 
L 134 1517 
L 2285 4595 
L 2867 4595 
L 2867 1542 
L 3533 1542 
L 3533 1037 
L 2867 1037 
L 2867 0 
L 2323 0 
z
M 685 1542 
L 2323 1542 
L 2323 2982 
Q 2323 3194 2332 3446 
Q 2342 3699 2355 3994 
L 2330 3994 
Q 2298 3910 2211 3747 
Q 2125 3584 2054 3494 
L 685 1542 
z
" transform="scale(0.015625)"/>
       </defs>
       <use xlink:href="#NotoNaskhArabic-Regular-4cd"/>
       <use xlink:href="#NotoNaskhArabic-Regular-4cc" transform="translate(57.203125 0)"/>
       <use xlink:href="#NotoNaskhArabic-Regular-4d0" transform="translate(114.40625 0)"/>
      </g>
     </g>
    </g>
    <g id="ytick_4">
     <g id="line2d_7">
      <path d="M 54.100484 156.372001 
L 621.15 156.372001 
" clip-path="url(#p20fd53eca5)" style="fill: none; stroke: #e6e1d6; stroke-width: 0.8; stroke-linecap: square"/>
     </g>
     <g id="line2d_8">
      <g>
       <use xlink:href="#m8b4664448d" x="54.100484" y="156.372001" style="fill: #555555; stroke: #555555; stroke-width: 0.8"/>
      </g>
     </g>
     <g id="text_4">
      <!-- 106 -->
      <g style="fill: #555555" transform="translate(29.0815 161.984251) scale(0.105 -0.105)">
       <defs>
        <path id="NotoNaskhArabic-Regular-4d2" d="M 1907 -64 
Q 1440 -64 1088 176 
Q 736 416 544 870 
Q 352 1331 352 1952 
Q 352 4634 2445 4634 
Q 2810 4634 3008 4576 
L 3008 4096 
Q 2771 4173 2458 4173 
Q 1984 4173 1654 3987 
Q 1325 3802 1139 3405 
Q 941 2976 915 2323 
L 954 2323 
Q 1299 2861 2035 2861 
Q 2656 2861 3008 2486 
Q 3360 2112 3360 1472 
Q 3360 762 2969 349 
Q 2579 -64 1907 -64 
z
M 1901 410 
Q 2336 410 2569 688 
Q 2803 966 2803 1472 
Q 2803 1926 2576 2172 
Q 2349 2419 1920 2419 
Q 1645 2419 1421 2307 
Q 1197 2195 1056 1997 
Q 922 1798 922 1581 
Q 922 1267 1050 995 
Q 1178 723 1395 563 
Q 1619 410 1901 410 
z
" transform="scale(0.015625)"/>
       </defs>
       <use xlink:href="#NotoNaskhArabic-Regular-4cd"/>
       <use xlink:href="#NotoNaskhArabic-Regular-4cc" transform="translate(57.203125 0)"/>
       <use xlink:href="#NotoNaskhArabic-Regular-4d2" transform="translate(114.40625 0)"/>
      </g>
     </g>
    </g>
    <g id="ytick_5">
     <g id="line2d_9">
      <path d="M 54.100484 125.087312 
L 621.15 125.087312 
" clip-path="url(#p20fd53eca5)" style="fill: none; stroke: #e6e1d6; stroke-width: 0.8; stroke-linecap: square"/>
     </g>
     <g id="line2d_10">
      <g>
       <use xlink:href="#m8b4664448d" x="54.100484" y="125.087312" style="fill: #555555; stroke: #555555; stroke-width: 0.8"/>
      </g>
     </g>
     <g id="text_5">
      <!-- 108 -->
      <g style="fill: #555555" transform="translate(29.0815 130.699562) scale(0.105 -0.105)">
       <defs>
        <path id="NotoNaskhArabic-Regular-4d4" d="M 1843 -64 
Q 1114 -64 714 256 
Q 314 576 314 1165 
Q 314 1946 1261 2387 
Q 832 2630 646 2912 
Q 461 3194 461 3546 
Q 461 4045 832 4339 
Q 1203 4634 1824 4634 
Q 2451 4634 2822 4342 
Q 3194 4051 3194 3539 
Q 3194 3200 2986 2928 
Q 2778 2656 2323 2419 
Q 2874 2150 3107 1856 
Q 3341 1562 3341 1184 
Q 3341 621 2937 278 
Q 2534 -64 1843 -64 
z
M 1850 2637 
Q 2278 2816 2457 3030 
Q 2637 3245 2637 3520 
Q 2637 3834 2416 4006 
Q 2195 4179 1818 4179 
Q 1446 4179 1228 4003 
Q 1011 3827 1011 3520 
Q 1011 3322 1094 3171 
Q 1178 3021 1338 2906 
Q 1498 2784 1850 2637 
z
M 1830 384 
Q 2278 384 2534 595 
Q 2790 806 2790 1178 
Q 2790 1478 2547 1712 
Q 2304 1946 1728 2157 
Q 1280 1965 1072 1728 
Q 864 1491 864 1158 
Q 864 800 1123 592 
Q 1382 384 1830 384 
z
" transform="scale(0.015625)"/>
       </defs>
       <use xlink:href="#NotoNaskhArabic-Regular-4cd"/>
       <use xlink:href="#NotoNaskhArabic-Regular-4cc" transform="translate(57.203125 0)"/>
       <use xlink:href="#NotoNaskhArabic-Regular-4d4" transform="translate(114.40625 0)"/>
      </g>
     </g>
    </g>
    <g id="ytick_6">
     <g id="line2d_11">
      <path d="M 54.100484 93.802623 
L 621.15 93.802623 
" clip-path="url(#p20fd53eca5)" style="fill: none; stroke: #e6e1d6; stroke-width: 0.8; stroke-linecap: square"/>
     </g>
     <g id="line2d_12">
      <g>
       <use xlink:href="#m8b4664448d" x="54.100484" y="93.802623" style="fill: #555555; stroke: #555555; stroke-width: 0.8"/>
      </g>
     </g>
     <g id="text_6">
      <!-- 110 -->
      <g style="fill: #555555" transform="translate(29.0815 99.414873) scale(0.105 -0.105)">
       <use xlink:href="#NotoNaskhArabic-Regular-4cd"/>
       <use xlink:href="#NotoNaskhArabic-Regular-4cd" transform="translate(57.203125 0)"/>
       <use xlink:href="#NotoNaskhArabic-Regular-4cc" transform="translate(114.40625 0)"/>
      </g>
     </g>
    </g>
    <g id="ytick_7">
     <g id="line2d_13">
      <path d="M 54.100484 62.517935 
L 621.15 62.517935 
" clip-path="url(#p20fd53eca5)" style="fill: none; stroke: #e6e1d6; stroke-width: 0.8; stroke-linecap: square"/>
     </g>
     <g id="line2d_14">
      <g>
       <use xlink:href="#m8b4664448d" x="54.100484" y="62.517935" style="fill: #555555; stroke: #555555; stroke-width: 0.8"/>
      </g>
     </g>
     <g id="text_7">
      <!-- 112 -->
      <g style="fill: #555555" transform="translate(29.0815 68.130185) scale(0.105 -0.105)">
       <use xlink:href="#NotoNaskhArabic-Regular-4cd"/>
       <use xlink:href="#NotoNaskhArabic-Regular-4cd" transform="translate(57.203125 0)"/>
       <use xlink:href="#NotoNaskhArabic-Regular-4ce" transform="translate(114.40625 0)"/>
      </g>
     </g>
    </g>
    <g id="ytick_8">
     <g id="line2d_15">
      <path d="M 54.100484 31.233246 
L 621.15 31.233246 
" clip-path="url(#p20fd53eca5)" style="fill: none; stroke: #e6e1d6; stroke-width: 0.8; stroke-linecap: square"/>
     </g>
     <g id="line2d_16">
      <g>
       <use xlink:href="#m8b4664448d" x="54.100484" y="31.233246" style="fill: #555555; stroke: #555555; stroke-width: 0.8"/>
      </g>
     </g>
     <g id="text_8">
      <!-- 114 -->
      <g style="fill: #555555" transform="translate(29.0815 36.845496) scale(0.105 -0.105)">
       <use xlink:href="#NotoNaskhArabic-Regular-4cd"/>
       <use xlink:href="#NotoNaskhArabic-Regular-4cd" transform="translate(57.203125 0)"/>
       <use xlink:href="#NotoNaskhArabic-Regular-4d0" transform="translate(114.40625 0)"/>
      </g>
     </g>
    </g>
    <g id="text_9">
     <!-- ​ﺮﻌﺴﻟﺍ -->
     <g style="fill: #1f2937" transform="translate(18.4245 142.703841) rotate(-90) scale(0.105 -0.105)">
      <defs>
       <path id="NotoNaskhArabic-Regular-3" d="M 666 0 
Q 646 1126 604 2057 
Q 563 2989 493 3725 
Q 467 3987 566 4118 
Q 666 4250 915 4294 
Q 941 4173 1001 3965 
Q 1062 3757 1139 3533 
L 966 3386 
Q 992 2912 1001 2413 
Q 1011 1914 1001 1338 
Q 992 762 960 51 
L 666 0 
z
" transform="scale(0.015625)"/>
       <path id="NotoNaskhArabic-Regular-1c1" d="M -6 0 
Q -64 0 -64 51 
L -64 435 
Q -64 486 -6 486 
Q 378 486 704 659 
Q 685 902 665 1139 
Q 646 1376 627 1606 
Q 570 2208 512 2790 
Q 454 3373 384 3936 
Q 474 4032 579 4121 
Q 685 4211 806 4294 
Q 826 3949 851 3497 
Q 877 3046 915 2483 
Q 947 2016 960 1609 
Q 973 1203 979 864 
Q 979 755 915 572 
Q 851 390 755 224 
Q 640 0 -6 0 
z
" transform="scale(0.015625)"/>
       <path id="NotoNaskhArabic-Regular-f9" d="M 1446 0 
Q 1267 0 1030 57 
Q 794 115 666 198 
Q 576 109 397 54 
Q 218 0 0 0 
Q -51 0 -51 51 
L -51 435 
Q -51 486 0 486 
Q 326 486 518 634 
Q 627 723 681 809 
Q 736 896 858 1094 
Q 915 1197 1056 1197 
Q 1146 1197 1210 1152 
Q 1114 909 1046 765 
Q 979 621 947 570 
Q 998 544 1155 515 
Q 1312 486 1517 486 
Q 1664 486 1789 505 
Q 1914 525 2016 550 
Q 2061 621 2115 793 
Q 2170 966 2227 1145 
Q 2285 1325 2323 1408 
Q 2381 1536 2432 1574 
Q 2483 1613 2579 1613 
Q 2669 1613 2733 1568 
Q 2688 1466 2608 1235 
Q 2528 1005 2400 582 
Q 2496 538 2566 522 
Q 2637 506 2739 506 
Q 2906 506 3091 570 
Q 3123 608 3168 723 
Q 3213 838 3277 1030 
Q 3328 1190 3385 1331 
Q 3443 1472 3501 1568 
Q 3552 1664 3699 1664 
Q 3789 1664 3853 1619 
Q 3808 1517 3728 1289 
Q 3648 1062 3533 710 
Q 3757 589 3917 537 
Q 4077 486 4294 486 
Q 4352 486 4352 435 
L 4352 51 
Q 4352 0 4294 0 
Q 4045 0 3798 96 
Q 3552 192 3386 346 
Q 3366 301 3347 259 
Q 3328 218 3296 173 
Q 3251 96 3078 48 
Q 2906 0 2733 0 
Q 2438 0 2221 160 
Q 2176 102 2041 67 
Q 1907 32 1744 19 
Q 1581 6 1446 0 
z
" transform="scale(0.015625)"/>
       <path id="NotoNaskhArabic-Regular-135" d="M 6 0 
Q -51 0 -51 58 
L -51 429 
Q -51 486 6 486 
Q 672 486 1101 640 
L 986 787 
Q 864 973 771 1094 
Q 678 1216 621 1280 
Q 506 1427 410 1491 
L 307 1427 
Q 192 1555 192 1709 
Q 192 1862 297 1974 
Q 403 2086 566 2172 
Q 730 2259 902 2310 
Q 1158 2394 1446 2394 
Q 1722 2394 1936 2288 
Q 2150 2182 2272 2003 
Q 2400 1824 2400 1594 
Q 2400 1293 2243 1049 
Q 2086 806 1830 602 
Q 2099 486 2694 486 
Q 2758 486 2758 429 
L 2758 58 
Q 2758 0 2694 0 
Q 2259 0 1955 83 
Q 1651 166 1402 346 
Q 1050 166 723 83 
Q 397 0 6 0 
z
M 1478 845 
Q 1696 992 1821 1152 
Q 1946 1312 1946 1459 
Q 1946 1638 1811 1753 
Q 1677 1869 1466 1869 
Q 1075 1869 710 1677 
Q 947 1491 1325 1018 
Q 1395 934 1478 845 
z
" transform="scale(0.015625)"/>
       <path id="NotoNaskhArabic-Regular-d4" d="M 710 -1306 
Q 608 -1306 451 -1248 
Q 294 -1190 134 -1107 
Q -26 -1024 -128 -947 
L -45 -736 
Q 134 -768 284 -787 
Q 435 -806 563 -806 
Q 1043 -806 1385 -518 
Q 1728 -230 1907 314 
Q 1862 416 1814 515 
Q 1766 614 1709 717 
Q 1491 1107 1388 1340 
Q 1286 1574 1286 1734 
Q 1286 1901 1382 2000 
Q 1478 2099 1658 2182 
Q 1683 2099 1712 2000 
Q 1741 1901 1786 1792 
Q 1888 1530 1955 1334 
Q 2022 1139 2054 1018 
Q 2093 896 2115 797 
Q 2138 698 2144 614 
Q 2362 486 2643 486 
Q 2694 486 2694 435 
L 2694 51 
Q 2694 0 2643 0 
Q 2342 0 2118 154 
Q 2048 -288 1849 -617 
Q 1651 -947 1356 -1126 
Q 1062 -1306 710 -1306 
z
" transform="scale(0.015625)"/>
       <path id="NotoNaskhArabic-Regular-554" transform="scale(0.015625)"/>
      </defs>
      <use xlink:href="#NotoNaskhArabic-Regular-3"/>
      <use xlink:href="#NotoNaskhArabic-Regular-1c1" transform="translate(23.796875 0)"/>
      <use xlink:href="#NotoNaskhArabic-Regular-f9" transform="translate(45 0)"/>
      <use xlink:href="#NotoNaskhArabic-Regular-135" transform="translate(111.296875 0)"/>
      <use xlink:href="#NotoNaskhArabic-Regular-d4" transform="translate(152.703125 0)"/>
      <use xlink:href="#NotoNaskhArabic-Regular-554" transform="translate(193.109375 0)"/>
     </g>
    </g>
   </g>
   <g id="line2d_17">
    <path d="M 54.100484 180.349172 
L 621.15 180.349172 
" clip-path="url(#p20fd53eca5)" style="fill: none; stroke-dasharray: 1.3,2.145; stroke-dashoffset: 0; stroke: #b91c1c; stroke-width: 1.3"/>
   </g>
   <g id="line2d_18">
    <path d="M 54.100484 190.119113 
L 621.15 190.119113 
" clip-path="url(#p20fd53eca5)" style="fill: none; stroke-dasharray: 5.92,2.56; stroke-dashoffset: 0; stroke: #1f8a56; stroke-width: 1.6"/>
   </g>
   <g id="patch_3">
    <path d="M 54.100484 257.931197 
L 54.100484 7.2 
" style="fill: none; stroke: #1f2937; stroke-width: 0.8; stroke-linejoin: miter; stroke-linecap: square"/>
   </g>
   <g id="patch_4">
    <path d="M 54.100484 257.931197 
L 621.15 257.931197 
" style="fill: none; stroke: #1f2937; stroke-width: 0.8; stroke-linejoin: miter; stroke-linecap: square"/>
   </g>
   <g id="line2d_19">
    <path d="M 67.93096 246.534325 
L 67.93096 241.108038 
" clip-path="url(#p20fd53eca5)" style="fill: none; stroke: #1f8a56; stroke-width: 1.1; stroke-linecap: round"/>
   </g>
   <g id="line2d_20">
    <path d="M 81.761436 242.592104 
L 81.761436 237.669695 
" clip-path="url(#p20fd53eca5)" style="fill: none; stroke: #1f8a56; stroke-width: 1.1; stroke-linecap: round"/>
   </g>
   <g id="line2d_21">
    <path d="M 95.591912 240.115357 
L 95.591912 227.48501 
" clip-path="url(#p20fd53eca5)" style="fill: none; stroke: #1f8a56; stroke-width: 1.1; stroke-linecap: round"/>
   </g>
   <g id="line2d_22">
    <path d="M 109.422388 232.182782 
L 109.422388 227.969646 
" clip-path="url(#p20fd53eca5)" style="fill: none; stroke: #1f8a56; stroke-width: 1.1; stroke-linecap: round"/>
   </g>
   <g id="line2d_23">
    <path d="M 123.252864 229.769052 
L 123.252864 218.093013 
" clip-path="url(#p20fd53eca5)" style="fill: none; stroke: #1f8a56; stroke-width: 1.1; stroke-linecap: round"/>
   </g>
   <g id="line2d_24">
    <path d="M 137.08334 220.933812 
L 137.08334 211.557795 
" clip-path="url(#p20fd53eca5)" style="fill: none; stroke: #1f8a56; stroke-width: 1.1; stroke-linecap: round"/>
   </g>
   <g id="line2d_25">
    <path d="M 150.913816 211.359027 
L 150.913816 201.569424 
" clip-path="url(#p20fd53eca5)" style="fill: none; stroke: #1f8a56; stroke-width: 1.1; stroke-linecap: round"/>
   </g>
   <g id="line2d_26">
    <path d="M 164.744292 208.769006 
L 164.744292 202.485587 
" clip-path="url(#p20fd53eca5)" style="fill: none; stroke: #1f8a56; stroke-width: 1.1; stroke-linecap: round"/>
   </g>
   <g id="line2d_27">
    <path d="M 178.574768 206.771657 
L 178.574768 200.199904 
" clip-path="url(#p20fd53eca5)" style="fill: none; stroke: #1f8a56; stroke-width: 1.1; stroke-linecap: round"/>
   </g>
   <g id="line2d_28">
    <path d="M 192.405244 204.207682 
L 192.405244 196.017141 
" clip-path="url(#p20fd53eca5)" style="fill: none; stroke: #1f8a56; stroke-width: 1.1; stroke-linecap: round"/>
   </g>
   <g id="line2d_29">
    <path d="M 206.23572 201.810768 
L 206.23572 199.536937 
" clip-path="url(#p20fd53eca5)" style="fill: none; stroke: #b91c1c; stroke-width: 1.1; stroke-linecap: round"/>
   </g>
   <g id="line2d_30">
    <path d="M 220.066196 200.96374 
L 220.066196 195.271879 
" clip-path="url(#p20fd53eca5)" style="fill: none; stroke: #1f8a56; stroke-width: 1.1; stroke-linecap: round"/>
   </g>
   <g id="line2d_31">
    <path d="M 233.896672 197.747747 
L 233.896672 189.063224 
" clip-path="url(#p20fd53eca5)" style="fill: none; stroke: #1f8a56; stroke-width: 1.1; stroke-linecap: round"/>
   </g>
   <g id="line2d_32">
    <path d="M 247.727148 196.483162 
L 247.727148 180.092775 
" clip-path="url(#p20fd53eca5)" style="fill: none; stroke: #1f8a56; stroke-width: 1.1; stroke-linecap: round"/>
   </g>
   <g id="line2d_33">
    <path d="M 261.557624 179.136033 
L 261.557624 170.390437 
" clip-path="url(#p20fd53eca5)" style="fill: none; stroke: #1f8a56; stroke-width: 1.1; stroke-linecap: round"/>
   </g>
   <g id="line2d_34">
    <path d="M 275.3881 181.590242 
L 275.3881 167.13444 
" clip-path="url(#p20fd53eca5)" style="fill: none; stroke: #b91c1c; stroke-width: 1.1; stroke-linecap: round"/>
   </g>
   <g id="line2d_35">
    <path d="M 289.218576 179.193982 
L 289.218576 173.331584 
" clip-path="url(#p20fd53eca5)" style="fill: none; stroke: #b91c1c; stroke-width: 1.1; stroke-linecap: round"/>
   </g>
   <g id="line2d_36">
    <path d="M 303.049052 180.656535 
L 303.049052 173.184736 
" clip-path="url(#p20fd53eca5)" style="fill: none; stroke: #b91c1c; stroke-width: 1.1; stroke-linecap: round"/>
   </g>
   <g id="line2d_37">
    <path d="M 316.879528 182.301093 
L 316.879528 167.36369 
" clip-path="url(#p20fd53eca5)" style="fill: none; stroke: #1f8a56; stroke-width: 1.1; stroke-linecap: round"/>
   </g>
   <g id="line2d_38">
    <path d="M 330.710004 169.376862 
L 330.710004 165.81934 
" clip-path="url(#p20fd53eca5)" style="fill: none; stroke: #b91c1c; stroke-width: 1.1; stroke-linecap: round"/>
   </g>
   <g id="line2d_39">
    <path d="M 344.54048 170.342097 
L 344.54048 168.068711 
" clip-path="url(#p20fd53eca5)" style="fill: none; stroke: #b91c1c; stroke-width: 1.1; stroke-linecap: round"/>
   </g>
   <g id="line2d_40">
    <path d="M 358.370956 170.205726 
L 358.370956 167.443363 
" clip-path="url(#p20fd53eca5)" style="fill: none; stroke: #1f8a56; stroke-width: 1.1; stroke-linecap: round"/>
   </g>
   <g id="line2d_41">
    <path d="M 372.201432 174.623082 
L 372.201432 161.317011 
" clip-path="url(#p20fd53eca5)" style="fill: none; stroke: #b91c1c; stroke-width: 1.1; stroke-linecap: round"/>
   </g>
   <g id="line2d_42">
    <path d="M 386.031908 175.60332 
L 386.031908 159.751517 
" clip-path="url(#p20fd53eca5)" style="fill: none; stroke: #1f8a56; stroke-width: 1.1; stroke-linecap: round"/>
   </g>
   <g id="line2d_43">
    <path d="M 399.862384 166.49098 
L 399.862384 145.082569 
" clip-path="url(#p20fd53eca5)" style="fill: none; stroke: #1f8a56; stroke-width: 1.1; stroke-linecap: round"/>
   </g>
   <g id="line2d_44">
    <path d="M 413.69286 148.528205 
L 413.69286 126.392635 
" clip-path="url(#p20fd53eca5)" style="fill: none; stroke: #1f8a56; stroke-width: 1.1; stroke-linecap: round"/>
   </g>
   <g id="line2d_45">
    <path d="M 427.523336 141.167341 
L 427.523336 124.971395 
" clip-path="url(#p20fd53eca5)" style="fill: none; stroke: #b91c1c; stroke-width: 1.1; stroke-linecap: round"/>
   </g>
   <g id="line2d_46">
    <path d="M 441.353812 145.188424 
L 441.353812 116.919193 
" clip-path="url(#p20fd53eca5)" style="fill: none; stroke: #1f8a56; stroke-width: 1.1; stroke-linecap: round"/>
   </g>
   <g id="line2d_47">
    <path d="M 455.184288 144.124554 
L 455.184288 118.756113 
" clip-path="url(#p20fd53eca5)" style="fill: none; stroke: #b91c1c; stroke-width: 1.1; stroke-linecap: round"/>
   </g>
   <g id="line2d_48">
    <path d="M 469.014764 154.249573 
L 469.014764 144.091782 
" clip-path="url(#p20fd53eca5)" style="fill: none; stroke: #b91c1c; stroke-width: 1.1; stroke-linecap: round"/>
   </g>
   <g id="line2d_49">
    <path d="M 482.84524 169.720812 
L 482.84524 150.643107 
" clip-path="url(#p20fd53eca5)" style="fill: none; stroke: #b91c1c; stroke-width: 1.1; stroke-linecap: round"/>
   </g>
   <g id="line2d_50">
    <path d="M 496.675716 171.097215 
L 496.675716 157.077635 
" clip-path="url(#p20fd53eca5)" style="fill: none; stroke: #1f8a56; stroke-width: 1.1; stroke-linecap: round"/>
   </g>
   <g id="line2d_51">
    <path d="M 510.506192 183.483568 
L 510.506192 159.06128 
" clip-path="url(#p20fd53eca5)" style="fill: none; stroke: #b91c1c; stroke-width: 1.1; stroke-linecap: round"/>
   </g>
   <g id="line2d_52">
    <path d="M 524.336668 185.554425 
L 524.336668 131.565047 
" clip-path="url(#p20fd53eca5)" style="fill: none; stroke: #1f8a56; stroke-width: 1.1; stroke-linecap: round"/>
   </g>
   <g id="line2d_53">
    <path d="M 538.167144 135.435617 
L 538.167144 110.775426 
" clip-path="url(#p20fd53eca5)" style="fill: none; stroke: #1f8a56; stroke-width: 1.1; stroke-linecap: round"/>
   </g>
   <g id="line2d_54">
    <path d="M 551.99762 114.415111 
L 551.99762 51.384729 
" clip-path="url(#p20fd53eca5)" style="fill: none; stroke: #1f8a56; stroke-width: 1.1; stroke-linecap: round"/>
   </g>
   <g id="line2d_55">
    <path d="M 565.828096 53.619496 
L 565.828096 48.44972 
" clip-path="url(#p20fd53eca5)" style="fill: none; stroke: #b91c1c; stroke-width: 1.1; stroke-linecap: round"/>
   </g>
   <g id="line2d_56">
    <path d="M 579.658572 55.835101 
L 579.658572 18.766552 
" clip-path="url(#p20fd53eca5)" style="fill: none; stroke: #1f8a56; stroke-width: 1.1; stroke-linecap: round"/>
   </g>
   <g id="line2d_57">
    <path d="M 593.489048 44.652605 
L 593.489048 18.596873 
" clip-path="url(#p20fd53eca5)" style="fill: none; stroke: #b91c1c; stroke-width: 1.1; stroke-linecap: round"/>
   </g>
   <g id="line2d_58">
    <path d="M 607.319524 59.290685 
L 607.319524 37.851621 
" clip-path="url(#p20fd53eca5)" style="fill: none; stroke: #b91c1c; stroke-width: 1.1; stroke-linecap: round"/>
   </g>
   <g id="text_10">
    <!-- ​(ﺎﻨﻫ ﺍﺪﺟ ﻖﻴﺿ) ﺖﺑﺎﺛ ﻒﻗﻭ -->
    <g style="fill: #b91c1c" transform="translate(533.895774 175.277172) scale(0.08 -0.08)">
     <defs>
      <path id="NotoNaskhArabic-Regular-218" d="M 1235 -1299 
Q 1101 -1299 905 -1238 
Q 710 -1178 521 -1082 
Q 333 -986 218 -890 
L 307 -678 
Q 646 -800 1088 -800 
Q 1568 -800 1910 -515 
Q 2253 -230 2432 314 
L 2426 365 
Q 2042 0 1568 0 
Q 1197 0 982 227 
Q 768 454 768 826 
Q 768 1152 899 1469 
Q 1030 1786 1242 1984 
Q 1453 2176 1670 2176 
Q 1920 2176 2147 1955 
Q 2374 1734 2522 1325 
Q 2598 1120 2633 918 
Q 2669 717 2669 518 
Q 2669 218 2576 -83 
Q 2483 -384 2320 -637 
Q 2157 -890 1939 -1056 
Q 1606 -1299 1235 -1299 
z
M 1722 525 
Q 1882 525 2013 550 
Q 2144 576 2368 666 
Q 2291 966 2150 1196 
Q 2010 1427 1843 1536 
Q 1709 1632 1574 1632 
Q 1440 1632 1312 1533 
Q 1184 1434 1094 1280 
Q 1011 1126 1011 1005 
Q 1011 774 1196 649 
Q 1382 525 1722 525 
z
" transform="scale(0.015625)"/>
      <path id="NotoNaskhArabic-Regular-16a" d="M 6 0 
Q -51 0 -51 58 
L -51 429 
Q -51 486 6 486 
Q 698 486 1174 569 
Q 1651 653 2054 832 
Q 2042 960 2019 1085 
Q 1997 1210 1971 1331 
Q 1773 1171 1536 1075 
Q 1299 979 1062 979 
Q 781 979 601 1193 
Q 422 1408 422 1728 
Q 422 2054 534 2342 
Q 646 2630 819 2797 
Q 1011 2970 1216 2970 
Q 1549 2970 1805 2730 
Q 2061 2490 2214 2054 
Q 2362 1613 2362 1114 
Q 2362 896 2138 461 
Q 1882 301 1587 198 
Q 1293 96 912 48 
Q 531 0 6 0 
z
M 1210 1466 
Q 1530 1466 1888 1626 
Q 1766 2016 1568 2221 
Q 1370 2426 1120 2426 
Q 928 2426 797 2250 
Q 666 2074 666 1856 
Q 666 1658 797 1562 
Q 928 1466 1210 1466 
z
M 1664 3321 
Q 1523 3430 1417 3529 
Q 1312 3628 1242 3718 
Q 1274 3750 1376 3859 
Q 1478 3968 1651 4147 
Q 1690 4108 1789 4012 
Q 1888 3916 2048 3763 
Q 1926 3571 1664 3321 
z
M 704 3232 
Q 563 3347 454 3446 
Q 346 3545 275 3622 
Q 442 3782 691 4057 
Q 730 4012 826 3916 
Q 922 3820 1082 3673 
Q 1024 3577 928 3468 
Q 832 3360 704 3232 
z
" transform="scale(0.015625)"/>
      <path id="NotoNaskhArabic-Regular-144" d="M 2048 0 
Q 435 0 435 1088 
Q 435 1293 457 1465 
Q 480 1638 525 1792 
L 755 1792 
Q 742 1715 736 1635 
Q 730 1555 730 1478 
Q 730 1088 874 893 
Q 1018 698 1338 589 
Q 1504 544 1715 515 
Q 1926 486 2189 486 
Q 2496 486 2781 515 
Q 3066 544 3334 595 
Q 3078 864 3078 1171 
Q 3078 1267 3097 1404 
Q 3117 1542 3142 1667 
Q 3168 1792 3194 1837 
Q 3360 2144 3625 2323 
Q 3891 2502 4205 2502 
Q 4371 2502 4528 2336 
Q 4685 2170 4781 1901 
Q 4877 1626 4877 1350 
Q 4877 883 4506 557 
Q 4691 525 4889 505 
Q 5088 486 5286 486 
Q 5338 486 5338 435 
L 5338 51 
Q 5338 0 5286 0 
Q 4486 0 3974 256 
Q 3661 141 3158 70 
Q 2656 0 2048 0 
z
M 3910 762 
Q 4371 934 4627 1158 
Q 4608 1318 4528 1500 
Q 4448 1683 4333 1818 
Q 4218 1958 4147 1958 
Q 4026 1958 3872 1856 
Q 3718 1754 3571 1590 
Q 3424 1427 3322 1229 
Q 3450 1082 3597 963 
Q 3744 845 3910 762 
z
M 4051 2829 
Q 3770 3040 3591 3245 
Q 3917 3572 4039 3712 
Q 4141 3604 4246 3498 
Q 4352 3392 4461 3296 
Q 4314 3085 4051 2829 
z
" transform="scale(0.015625)"/>
      <path id="NotoNaskhArabic-Regular-44" d="M 0 0 
Q -51 0 -51 51 
L -51 435 
Q -51 486 0 486 
Q 294 486 598 553 
Q 902 621 1133 723 
Q 1088 870 1030 1046 
Q 973 1222 902 1427 
Q 781 1747 781 1856 
Q 781 1997 893 2144 
Q 1005 2291 1197 2394 
Q 1210 2304 1248 2121 
Q 1286 1939 1344 1658 
Q 1440 1235 1440 1005 
Q 1440 909 1379 733 
Q 1318 557 1210 352 
Q 627 0 0 0 
z
M 909 3322 
Q 742 3424 550 3635 
Q 646 3731 732 3820 
Q 819 3910 890 3994 
Q 1005 3840 1242 3635 
Q 1056 3418 909 3322 
z
M 1363 2797 
Q 1152 2963 986 3149 
Q 1043 3200 1139 3299 
Q 1235 3398 1357 3539 
Q 1446 3450 1532 3360 
Q 1619 3270 1709 3187 
Q 1645 3098 1561 2998 
Q 1478 2899 1363 2797 
z
M 454 2714 
Q 333 2810 237 2899 
Q 141 2989 70 3066 
Q 224 3206 442 3456 
Q 506 3379 794 3104 
Q 736 3021 653 2921 
Q 570 2822 454 2714 
z
" transform="scale(0.015625)"/>
      <path id="NotoNaskhArabic-Regular-4" d="M 1677 0 
Q 1299 0 1049 150 
Q 800 301 768 557 
Q 742 787 713 1072 
Q 685 1357 653 1747 
Q 621 2138 579 2672 
Q 538 3206 486 3936 
Q 576 4026 685 4118 
Q 794 4211 922 4294 
Q 941 3795 953 3308 
Q 966 2822 976 2281 
Q 986 1741 992 1082 
L 1011 653 
Q 1312 486 1677 486 
Q 1728 486 1728 435 
L 1728 51 
Q 1728 0 1677 0 
z
" transform="scale(0.015625)"/>
      <path id="NotoNaskhArabic-Regular-26" d="M 0 0 
Q -51 0 -51 51 
L -51 435 
Q -51 486 0 486 
Q 294 486 598 553 
Q 902 621 1133 723 
Q 1088 870 1030 1046 
Q 973 1222 902 1427 
Q 781 1747 781 1856 
Q 781 1997 893 2144 
Q 1005 2291 1197 2394 
Q 1210 2304 1248 2121 
Q 1286 1939 1344 1658 
Q 1440 1235 1440 1005 
Q 1440 909 1379 733 
Q 1318 557 1210 352 
Q 627 0 0 0 
z
M 909 -1325 
Q 768 -1216 652 -1110 
Q 537 -1005 448 -902 
Q 736 -627 896 -435 
Q 1120 -672 1318 -857 
Q 1165 -1069 909 -1325 
z
" transform="scale(0.015625)"/>
      <path id="NotoNaskhArabic-Regular-36" d="M 2010 0 
Q 1254 0 851 272 
Q 448 544 448 1088 
Q 448 1498 531 1792 
L 762 1792 
Q 755 1766 748 1660 
Q 742 1555 742 1478 
Q 742 1107 883 905 
Q 1024 704 1331 595 
Q 1645 486 2144 486 
Q 2413 486 2710 518 
Q 3008 550 3283 604 
Q 3558 659 3763 720 
Q 3968 781 4051 838 
Q 4160 922 4214 1014 
Q 4269 1107 4371 1286 
Q 4429 1382 4570 1382 
Q 4672 1382 4723 1338 
Q 4640 1126 4573 979 
Q 4506 832 4454 755 
Q 4672 614 4864 550 
Q 5056 486 5293 486 
Q 5344 486 5344 435 
L 5344 51 
Q 5344 0 5293 0 
Q 4653 0 4198 454 
Q 3808 243 3241 121 
Q 2675 0 2010 0 
z
M 2854 2099 
Q 2713 2208 2607 2307 
Q 2502 2406 2432 2496 
Q 2464 2528 2566 2637 
Q 2668 2746 2841 2925 
Q 2880 2886 2979 2790 
Q 3078 2694 3238 2541 
Q 3116 2349 2854 2099 
z
M 1894 2010 
Q 1753 2125 1644 2224 
Q 1536 2323 1465 2400 
Q 1632 2560 1881 2835 
Q 1920 2790 2016 2694 
Q 2112 2598 2272 2451 
Q 2214 2355 2118 2246 
Q 2022 2138 1894 2010 
z
" transform="scale(0.015625)"/>
      <path id="DejaVuSans-b" d="M 1984 4856 
Q 1566 4138 1362 3434 
Q 1159 2731 1159 2009 
Q 1159 1288 1364 580 
Q 1569 -128 1984 -844 
L 1484 -844 
Q 1016 -109 783 600 
Q 550 1309 550 2009 
Q 550 2706 781 3412 
Q 1013 4119 1484 4856 
L 1984 4856 
z
" transform="scale(0.015625)"/>
      <path id="NotoNaskhArabic-Regular-11e" d="M 2534 0 
Q 2227 0 1900 45 
Q 1574 90 1286 173 
Q 998 256 806 358 
Q 781 333 755 301 
Q 730 269 698 237 
Q 486 0 0 0 
Q -51 0 -51 51 
L -51 435 
Q -51 486 0 486 
Q 288 486 457 592 
Q 627 698 800 998 
Q 826 1043 848 1088 
Q 870 1133 896 1178 
Q 966 1286 1101 1286 
Q 1190 1286 1248 1229 
Q 1184 1069 1136 957 
Q 1088 845 1062 787 
Q 1139 749 1216 717 
Q 1293 685 1376 659 
Q 1978 1459 2502 1869 
Q 3034 2285 3469 2285 
Q 3648 2285 3913 2137 
Q 4179 1990 4390 1760 
Q 4595 1523 4595 1350 
Q 4595 960 4345 659 
Q 4096 358 3590 179 
Q 3098 0 2534 0 
z
M 2598 486 
Q 3430 486 4307 1037 
Q 4115 1376 3843 1561 
Q 3571 1747 3309 1747 
Q 3002 1747 2586 1452 
Q 2170 1158 1677 582 
Q 2176 486 2598 486 
z
M 2515 2880 
Q 2234 3091 2055 3296 
Q 2381 3623 2503 3763 
Q 2605 3655 2710 3549 
Q 2816 3443 2925 3347 
Q 2778 3136 2515 2880 
z
" transform="scale(0.015625)"/>
      <path id="NotoNaskhArabic-Regular-240" d="M 0 0 
Q -51 0 -51 51 
L -51 435 
Q -51 486 0 486 
Q 397 486 672 521 
Q 947 557 1062 640 
Q 1133 685 1229 841 
Q 1325 998 1510 1350 
Q 1568 1459 1709 1459 
Q 1786 1459 1869 1408 
Q 1830 1312 1763 1161 
Q 1696 1011 1638 883 
Q 1581 755 1555 730 
Q 1773 595 1958 540 
Q 2144 486 2362 486 
Q 2413 486 2413 435 
L 2413 51 
Q 2413 0 2362 0 
Q 1766 0 1350 371 
L 1248 237 
Q 1203 192 1001 134 
Q 800 77 528 38 
Q 256 0 0 0 
z
M 1728 -1165 
Q 1459 -953 1312 -774 
Q 1453 -640 1721 -345 
Q 1753 -371 1849 -467 
Q 1945 -563 2118 -729 
Q 2054 -819 1958 -928 
Q 1862 -1037 1728 -1165 
z
M 774 -1261 
Q 486 -1030 345 -870 
Q 435 -793 537 -684 
Q 640 -576 761 -435 
Q 787 -467 886 -563 
Q 985 -659 1152 -819 
Q 1094 -915 998 -1024 
Q 902 -1133 774 -1261 
z
" transform="scale(0.015625)"/>
      <path id="NotoNaskhArabic-Regular-168" d="M 1702 -1677 
Q 1101 -1677 768 -1360 
Q 435 -1043 435 -474 
Q 435 -346 444 -237 
Q 454 -128 480 9 
Q 506 147 557 358 
L 794 301 
Q 723 6 723 -154 
Q 723 -640 979 -893 
Q 1235 -1146 1722 -1146 
Q 2285 -1146 2758 -925 
Q 3232 -704 3488 -326 
L 3469 6 
Q 3245 6 2989 25 
Q 2733 45 2505 86 
Q 2278 128 2138 192 
Q 1741 384 1741 877 
Q 1741 1203 1872 1523 
Q 2003 1843 2214 2035 
Q 2426 2227 2643 2227 
Q 2918 2227 3174 1984 
Q 3430 1741 3597 1331 
Q 3770 928 3808 486 
L 4160 486 
Q 4218 486 4218 435 
L 4218 51 
Q 4218 0 4160 0 
L 3802 0 
Q 3738 -474 3434 -851 
Q 3130 -1229 2650 -1453 
Q 2163 -1677 1702 -1677 
z
M 3386 499 
Q 3245 1088 3017 1385 
Q 2790 1683 2541 1683 
Q 2413 1683 2281 1580 
Q 2150 1478 2067 1331 
Q 1990 1190 1990 1062 
Q 1990 928 2051 832 
Q 2112 736 2253 666 
Q 2406 595 2618 557 
Q 2829 512 3386 499 
z
M 3066 2592 
Q 2925 2701 2819 2800 
Q 2714 2899 2644 2989 
Q 2676 3021 2778 3130 
Q 2880 3239 3053 3418 
Q 3092 3379 3191 3283 
Q 3290 3187 3450 3034 
Q 3328 2842 3066 2592 
z
M 2106 2503 
Q 1965 2618 1856 2717 
Q 1748 2816 1677 2893 
Q 1844 3053 2093 3328 
Q 2132 3283 2228 3187 
Q 2324 3091 2484 2944 
Q 2426 2848 2330 2739 
Q 2234 2631 2106 2503 
z
" transform="scale(0.015625)"/>
      <path id="NotoNaskhArabic-Regular-74" d="M 0 0 
Q -51 0 -51 51 
L -51 435 
Q -51 486 0 486 
Q 474 486 842 528 
Q 1210 570 1478 653 
Q 1907 800 2115 867 
Q 2323 934 2477 960 
Q 2227 1082 1984 1280 
Q 1728 1485 1565 1561 
Q 1402 1638 1235 1638 
Q 1037 1638 902 1587 
Q 768 1536 531 1389 
Q 442 1491 442 1638 
Q 442 1882 653 2029 
Q 864 2176 1210 2176 
Q 1414 2176 1622 2089 
Q 1830 2003 2106 1798 
Q 2445 1555 2678 1430 
Q 2912 1306 3149 1254 
Q 3392 1197 3853 1197 
L 3603 730 
Q 3501 742 3369 752 
Q 3238 762 3091 762 
Q 2944 762 2813 736 
Q 2682 710 2506 633 
Q 2330 557 2042 410 
Q 1805 288 1603 208 
Q 1402 128 1181 83 
Q 960 38 678 19 
Q 397 0 0 0 
z
M 2272 -1178 
Q 2131 -1069 2015 -963 
Q 1900 -858 1811 -755 
Q 2099 -480 2259 -288 
Q 2483 -525 2681 -710 
Q 2528 -922 2272 -1178 
z
" transform="scale(0.015625)"/>
      <path id="NotoNaskhArabic-Regular-b6" d="M 998 0 
Q 218 0 218 403 
Q 218 621 333 742 
Q 493 614 697 550 
Q 902 486 1203 486 
Q 1606 486 2086 621 
Q 1926 909 1795 1209 
Q 1664 1510 1587 1760 
Q 1510 2010 1510 2125 
Q 1510 2445 1850 2547 
Q 1997 2003 2144 1564 
Q 2291 1126 2509 819 
Q 2637 634 2771 560 
Q 2906 486 3085 486 
Q 3142 486 3142 435 
L 3142 51 
Q 3142 0 3085 0 
Q 2829 0 2633 86 
Q 2438 173 2291 333 
Q 1709 0 998 0 
z
" transform="scale(0.015625)"/>
      <path id="NotoNaskhArabic-Regular-200" d="M 2592 -115 
Q 1760 -19 1178 282 
Q 922 134 640 67 
Q 358 0 0 0 
Q -51 0 -51 51 
L -51 442 
Q -51 486 0 486 
Q 224 486 409 505 
Q 595 525 736 570 
Q 339 915 339 1325 
Q 339 1523 412 1731 
Q 486 1939 614 2108 
Q 742 2278 902 2355 
L 1050 2771 
Q 1594 2618 2019 2307 
Q 2445 1997 2682 1587 
Q 2925 1171 2925 742 
Q 2925 602 2832 365 
Q 2739 128 2592 -115 
z
M 1210 800 
Q 1536 1050 1536 1478 
Q 1536 1664 1417 1821 
Q 1299 1978 1158 1978 
Q 1056 1978 937 1894 
Q 819 1811 717 1664 
Q 666 1594 630 1507 
Q 595 1421 563 1331 
Q 864 1011 1210 800 
z
M 2579 352 
Q 2579 634 2470 944 
Q 2362 1254 2170 1530 
Q 1984 1792 1766 1978 
Q 1907 1722 1907 1459 
Q 1907 986 1587 614 
Q 1805 518 2054 454 
Q 2304 390 2579 352 
z
" transform="scale(0.015625)"/>
      <path id="NotoNaskhArabic-Regular-1e9" d="M 0 0 
Q -51 0 -51 51 
L -51 435 
Q -51 486 0 486 
Q 467 486 666 666 
Q 723 717 812 870 
Q 902 1024 1075 1350 
Q 1133 1459 1274 1459 
Q 1350 1459 1434 1408 
Q 1363 1242 1286 1069 
Q 1210 896 1120 730 
Q 1344 595 1526 540 
Q 1709 486 1926 486 
Q 1978 486 1978 435 
L 1978 51 
Q 1978 0 1926 0 
Q 1331 0 915 378 
Q 890 339 864 304 
Q 838 269 806 237 
Q 742 154 502 77 
Q 262 0 0 0 
z
M 1004 2061 
Q 723 2272 544 2477 
Q 870 2804 992 2944 
Q 1094 2836 1199 2730 
Q 1305 2624 1414 2528 
Q 1267 2317 1004 2061 
z
" transform="scale(0.015625)"/>
      <path id="DejaVuSans-c" d="M 513 4856 
L 1013 4856 
Q 1481 4119 1714 3412 
Q 1947 2706 1947 2009 
Q 1947 1309 1714 600 
Q 1481 -109 1013 -844 
L 513 -844 
Q 928 -128 1133 580 
Q 1338 1288 1338 2009 
Q 1338 2731 1133 3434 
Q 928 4138 513 4856 
z
" transform="scale(0.015625)"/>
     </defs>
     <use xlink:href="#NotoNaskhArabic-Regular-218"/>
     <use xlink:href="#NotoNaskhArabic-Regular-16a" transform="translate(46.796875 0)"/>
     <use xlink:href="#NotoNaskhArabic-Regular-144" transform="translate(88.796875 0)"/>
     <use xlink:href="#NotoNaskhArabic-Regular-554" transform="translate(170.5 0)"/>
     <use xlink:href="#NotoNaskhArabic-Regular-44" transform="translate(192.59375 0)"/>
     <use xlink:href="#NotoNaskhArabic-Regular-4" transform="translate(220.09375 0)"/>
     <use xlink:href="#NotoNaskhArabic-Regular-26" transform="translate(245.390625 0)"/>
     <use xlink:href="#NotoNaskhArabic-Regular-36" transform="translate(272.890625 0)"/>
     <use xlink:href="#NotoNaskhArabic-Regular-554" transform="translate(354.59375 0)"/>
     <use xlink:href="#DejaVuSans-b" transform="translate(376.6875 0)"/>
     <use xlink:href="#NotoNaskhArabic-Regular-11e" transform="translate(415.703125 0)"/>
     <use xlink:href="#NotoNaskhArabic-Regular-240" transform="translate(494.296875 0)"/>
     <use xlink:href="#NotoNaskhArabic-Regular-168" transform="translate(530.296875 0)"/>
     <use xlink:href="#NotoNaskhArabic-Regular-554" transform="translate(594.5 0)"/>
     <use xlink:href="#NotoNaskhArabic-Regular-74" transform="translate(616.59375 0)"/>
     <use xlink:href="#NotoNaskhArabic-Regular-b6" transform="translate(680.1875 0)"/>
     <use xlink:href="#NotoNaskhArabic-Regular-3" transform="translate(727.59375 0)"/>
     <use xlink:href="#NotoNaskhArabic-Regular-554" transform="translate(751.390625 0)"/>
     <use xlink:href="#NotoNaskhArabic-Regular-200" transform="translate(773.484375 0)"/>
     <use xlink:href="#NotoNaskhArabic-Regular-1e9" transform="translate(824.28125 0)"/>
     <use xlink:href="#NotoNaskhArabic-Regular-4" transform="translate(853.484375 0)"/>
     <use xlink:href="#DejaVuSans-c" transform="translate(878.78125 0)"/>
     <use xlink:href="#NotoNaskhArabic-Regular-554" transform="translate(917.796875 0)"/>
    </g>
   </g>
   <g id="text_11">
    <!-- ​ﻲﻟﺎﺤﻟﺍ ATR ﻰﻠﻋ ﻲﻨﺒﻣ ﻒﻗﻭ -->
    <g style="fill: #1f8a56" transform="translate(527.433274 198.671113) scale(0.08 -0.08)">
     <defs>
      <path id="NotoNaskhArabic-Regular-1e5" d="M 2291 0 
Q 2035 0 1753 48 
Q 1472 96 1209 182 
Q 947 269 749 384 
Q 602 179 422 89 
Q 243 0 0 0 
Q -51 0 -51 51 
L -51 435 
Q -51 486 0 486 
Q 243 486 409 604 
Q 576 723 698 960 
Q 813 1171 880 1308 
Q 947 1446 1004 1555 
Q 1062 1664 1152 1779 
Q 1312 1990 1478 2083 
Q 1645 2176 1830 2176 
Q 2016 2176 2201 1945 
Q 2387 1715 2502 1357 
Q 2618 1005 2618 666 
Q 2618 467 2547 307 
Q 2477 147 2291 0 
z
M 2150 486 
Q 2144 781 2061 1065 
Q 1978 1350 1875 1498 
Q 1805 1606 1728 1606 
Q 1491 1606 1286 1318 
Q 1235 1242 1161 1117 
Q 1088 992 998 806 
Q 1459 563 2150 486 
z
" transform="scale(0.015625)"/>
      <path id="NotoNaskhArabic-Regular-25" d="M 0 0 
Q -51 0 -51 51 
L -51 435 
Q -51 486 0 486 
Q 467 486 666 666 
Q 723 717 812 870 
Q 902 1024 1075 1350 
Q 1133 1459 1274 1459 
Q 1350 1459 1434 1408 
Q 1363 1242 1286 1069 
Q 1210 896 1120 730 
Q 1344 595 1526 540 
Q 1709 486 1926 486 
Q 1978 486 1978 435 
L 1978 51 
Q 1978 0 1926 0 
Q 1331 0 915 378 
Q 890 339 864 304 
Q 838 269 806 237 
Q 742 154 502 77 
Q 262 0 0 0 
z
M 1037 -1325 
Q 896 -1216 780 -1110 
Q 665 -1005 576 -902 
Q 864 -627 1024 -435 
Q 1248 -672 1446 -857 
Q 1293 -1069 1037 -1325 
z
" transform="scale(0.015625)"/>
      <path id="NotoNaskhArabic-Regular-23f" d="M 1811 -1670 
Q 1152 -1670 793 -1356 
Q 435 -1043 435 -467 
Q 435 -339 444 -230 
Q 454 -122 480 16 
Q 506 154 557 365 
L 794 307 
Q 723 13 723 -147 
Q 723 -614 1020 -876 
Q 1318 -1139 1830 -1139 
Q 2413 -1139 2777 -1075 
Q 3142 -1011 3430 -890 
Q 3571 -832 3699 -755 
Q 3827 -678 3942 -576 
Q 3546 -365 3312 -227 
Q 3078 -90 2950 0 
Q 2803 115 2803 160 
Q 2803 218 2844 323 
Q 2886 429 2940 512 
Q 2995 595 3034 595 
Q 3258 550 3642 518 
Q 4026 486 4435 486 
Q 4506 486 4506 416 
L 4506 64 
Q 4506 0 4435 0 
Q 4218 0 3939 32 
Q 3661 64 3450 115 
Q 3590 32 3734 -45 
Q 3878 -122 4019 -198 
Q 4115 -256 4140 -352 
Q 4166 -448 4166 -576 
Q 4166 -736 4006 -909 
Q 3846 -1082 3561 -1235 
Q 3277 -1389 2899 -1504 
Q 2330 -1670 1811 -1670 
z
M 2394 -2682 
Q 2125 -2470 1978 -2291 
Q 2119 -2157 2387 -1862 
Q 2419 -1888 2515 -1984 
Q 2611 -2080 2784 -2246 
Q 2720 -2336 2624 -2445 
Q 2528 -2554 2394 -2682 
z
M 1440 -2778 
Q 1152 -2547 1011 -2387 
Q 1101 -2310 1203 -2201 
Q 1306 -2093 1427 -1952 
Q 1453 -1984 1552 -2080 
Q 1651 -2176 1818 -2336 
Q 1760 -2432 1664 -2541 
Q 1568 -2650 1440 -2778 
z
" transform="scale(0.015625)"/>
      <path id="NotoNaskhArabic-Regular-136" d="M 0 0 
Q -51 0 -51 51 
L -51 435 
Q -51 486 0 486 
Q 410 486 800 506 
Q 646 608 531 781 
Q 416 954 416 1152 
Q 416 1427 563 1728 
Q 710 2029 947 2208 
Q 1184 2394 1440 2394 
Q 1664 2394 1865 2285 
Q 2067 2176 2336 1939 
L 2221 1734 
Q 1965 1830 1853 1856 
Q 1741 1882 1600 1882 
Q 1197 1882 781 1645 
Q 781 1370 912 1146 
Q 1043 922 1299 781 
Q 1549 646 1894 627 
Q 2061 659 2205 697 
Q 2349 736 2531 803 
Q 2714 870 2982 973 
Q 3066 896 3066 742 
Q 3066 531 2925 448 
Q 2899 435 2764 400 
Q 2630 365 2470 326 
Q 1811 160 1235 80 
Q 659 0 0 0 
z
" transform="scale(0.015625)"/>
      <path id="NotoNaskhArabic-Regular-1bf" d="M 0 0 
Q -51 0 -51 51 
L -51 435 
Q -51 486 0 486 
Q 352 486 698 653 
Q 659 992 608 1600 
Q 557 2208 499 3085 
Q 480 3296 464 3510 
Q 448 3725 435 3936 
Q 531 4038 636 4124 
Q 742 4211 864 4294 
Q 883 3853 902 3165 
Q 922 2477 934 1536 
Q 934 1318 940 1097 
Q 947 877 954 659 
Q 1242 486 1619 486 
Q 1677 486 1677 435 
L 1677 51 
Q 1677 0 1619 0 
Q 1152 0 883 230 
Q 646 96 460 48 
Q 275 0 0 0 
z
" transform="scale(0.015625)"/>
      <path id="NotoNaskhArabic-Regular-235" d="M 1811 -1670 
Q 1152 -1670 793 -1356 
Q 435 -1043 435 -467 
Q 435 -339 444 -230 
Q 454 -122 480 16 
Q 506 154 557 365 
L 794 307 
Q 723 13 723 -147 
Q 723 -614 1020 -876 
Q 1318 -1139 1830 -1139 
Q 2413 -1139 2777 -1075 
Q 3142 -1011 3430 -890 
Q 3571 -832 3699 -755 
Q 3827 -678 3942 -576 
Q 3546 -365 3312 -227 
Q 3078 -90 2950 0 
Q 2803 115 2803 160 
Q 2803 218 2844 323 
Q 2886 429 2940 512 
Q 2995 595 3034 595 
Q 3258 550 3642 518 
Q 4026 486 4435 486 
Q 4506 486 4506 416 
L 4506 64 
Q 4506 0 4435 0 
Q 4218 0 3939 32 
Q 3661 64 3450 115 
Q 3590 32 3734 -45 
Q 3878 -122 4019 -198 
Q 4115 -256 4140 -352 
Q 4166 -448 4166 -576 
Q 4166 -736 4006 -909 
Q 3846 -1082 3561 -1235 
Q 3277 -1389 2899 -1504 
Q 2330 -1670 1811 -1670 
z
" transform="scale(0.015625)"/>
      <path id="DejaVuSans-24" d="M 2188 4044 
L 1331 1722 
L 3047 1722 
L 2188 4044 
z
M 1831 4666 
L 2547 4666 
L 4325 0 
L 3669 0 
L 3244 1197 
L 1141 1197 
L 716 0 
L 50 0 
L 1831 4666 
z
" transform="scale(0.015625)"/>
      <path id="DejaVuSans-37" d="M -19 4666 
L 3928 4666 
L 3928 4134 
L 2272 4134 
L 2272 0 
L 1638 0 
L 1638 4134 
L -19 4134 
L -19 4666 
z
" transform="scale(0.015625)"/>
      <path id="DejaVuSans-35" d="M 2841 2188 
Q 3044 2119 3236 1894 
Q 3428 1669 3622 1275 
L 4263 0 
L 3584 0 
L 2988 1197 
Q 2756 1666 2539 1819 
Q 2322 1972 1947 1972 
L 1259 1972 
L 1259 0 
L 628 0 
L 628 4666 
L 2053 4666 
Q 2853 4666 3247 4331 
Q 3641 3997 3641 3322 
Q 3641 2881 3436 2590 
Q 3231 2300 2841 2188 
z
M 1259 4147 
L 1259 2491 
L 2053 2491 
Q 2509 2491 2742 2702 
Q 2975 2913 2975 3322 
Q 2975 3731 2742 3939 
Q 2509 4147 2053 4147 
L 1259 4147 
z
" transform="scale(0.015625)"/>
      <path id="NotoNaskhArabic-Regular-8b" d="M 0 0 
Q -51 0 -51 51 
L -51 435 
Q -51 486 0 486 
Q 602 486 1043 553 
Q 1485 621 1837 781 
Q 2253 966 2477 1011 
Q 2355 1069 2230 1142 
Q 2106 1216 1984 1306 
Q 1734 1491 1568 1564 
Q 1402 1638 1235 1638 
Q 1037 1638 902 1587 
Q 768 1536 531 1389 
Q 442 1491 442 1638 
Q 442 1882 653 2029 
Q 864 2176 1210 2176 
Q 1414 2176 1622 2096 
Q 1830 2016 2106 1824 
Q 2438 1600 2672 1481 
Q 2906 1363 3142 1312 
Q 3386 1254 3853 1254 
L 3603 781 
Q 3552 787 3440 793 
Q 3328 800 3213 813 
Q 3098 826 3021 832 
Q 3091 717 3171 646 
Q 3251 576 3379 544 
Q 3610 486 4314 486 
Q 4371 486 4371 435 
L 4371 51 
Q 4371 0 4314 0 
Q 3840 6 3549 73 
Q 3258 141 3072 288 
Q 2982 365 2896 483 
Q 2810 602 2733 762 
Q 2560 698 2387 598 
Q 2214 499 2042 410 
Q 1805 288 1603 208 
Q 1402 128 1181 83 
Q 960 38 678 19 
Q 397 0 0 0 
z
" transform="scale(0.015625)"/>
      <path id="NotoNaskhArabic-Regular-6" d="M 877 0 
Q 858 19 858 70 
Q 858 134 874 230 
Q 890 326 915 406 
Q 941 486 954 486 
Q 1139 486 1350 492 
Q 1562 499 1792 512 
Q 2022 525 2262 550 
Q 2502 576 2733 614 
Q 2605 858 2397 1130 
Q 2189 1402 1926 1664 
Q 1670 1933 1369 2173 
Q 1069 2413 768 2586 
L 531 2573 
Q 416 2682 317 2822 
Q 218 2963 218 3104 
Q 218 3213 259 3309 
Q 301 3405 442 3475 
Q 723 3283 1133 2931 
Q 1421 2688 1718 2403 
Q 2016 2118 2234 1856 
Q 2323 1754 2448 1565 
Q 2573 1376 2694 1165 
Q 2816 954 2899 781 
Q 2982 608 2982 538 
Q 2982 493 2950 390 
Q 2918 288 2873 201 
Q 2829 115 2790 109 
Q 2694 96 2496 73 
Q 2298 51 2086 35 
Q 1875 19 1728 13 
Q 1670 13 1552 9 
Q 1434 6 1293 3 
Q 1152 0 1040 0 
Q 928 0 877 0 
z
" transform="scale(0.015625)"/>
      <path id="NotoNaskhArabic-Regular-1c2" d="M 1478 422 
L 1050 454 
Q 1331 672 1580 886 
Q 1830 1101 2016 1325 
Q 2202 1549 2314 1795 
Q 2426 2042 2426 2317 
Q 2426 2413 2406 2592 
Q 2387 2771 2355 2988 
Q 2323 3206 2291 3411 
Q 2259 3616 2240 3776 
Q 2221 3936 2221 4000 
Q 2221 4173 2333 4269 
Q 2445 4365 2643 4403 
Q 2694 4205 2742 4035 
Q 2790 3866 2874 3642 
L 2701 3494 
Q 2701 3462 2710 3308 
Q 2720 3155 2726 2966 
Q 2733 2778 2739 2627 
Q 2746 2477 2746 2445 
Q 2746 2106 2637 1805 
Q 2528 1504 2349 1248 
Q 2170 992 1942 784 
Q 1715 576 1478 422 
z
" transform="scale(0.015625)"/>
     </defs>
     <use xlink:href="#NotoNaskhArabic-Regular-218"/>
     <use xlink:href="#NotoNaskhArabic-Regular-16a" transform="translate(46.796875 0)"/>
     <use xlink:href="#NotoNaskhArabic-Regular-144" transform="translate(88.796875 0)"/>
     <use xlink:href="#NotoNaskhArabic-Regular-554" transform="translate(170.5 0)"/>
     <use xlink:href="#NotoNaskhArabic-Regular-1e5" transform="translate(192.59375 0)"/>
     <use xlink:href="#NotoNaskhArabic-Regular-25" transform="translate(238.1875 0)"/>
     <use xlink:href="#NotoNaskhArabic-Regular-1e9" transform="translate(267.390625 0)"/>
     <use xlink:href="#NotoNaskhArabic-Regular-23f" transform="translate(296.59375 0)"/>
     <use xlink:href="#NotoNaskhArabic-Regular-554" transform="translate(365.296875 0)"/>
     <use xlink:href="#NotoNaskhArabic-Regular-136" transform="translate(387.390625 0)"/>
     <use xlink:href="#NotoNaskhArabic-Regular-1bf" transform="translate(437.890625 0)"/>
     <use xlink:href="#NotoNaskhArabic-Regular-235" transform="translate(462.390625 0)"/>
     <use xlink:href="#NotoNaskhArabic-Regular-554" transform="translate(531.09375 0)"/>
     <use xlink:href="#DejaVuSans-24" transform="translate(553.1875 0)"/>
     <use xlink:href="#DejaVuSans-37" transform="translate(613.828125 0)"/>
     <use xlink:href="#DejaVuSans-35" transform="translate(674.90625 0)"/>
     <use xlink:href="#NotoNaskhArabic-Regular-554" transform="translate(744.390625 0)"/>
     <use xlink:href="#NotoNaskhArabic-Regular-3" transform="translate(766.484375 0)"/>
     <use xlink:href="#NotoNaskhArabic-Regular-1c1" transform="translate(790.28125 0)"/>
     <use xlink:href="#NotoNaskhArabic-Regular-8b" transform="translate(811.484375 0)"/>
     <use xlink:href="#NotoNaskhArabic-Regular-6" transform="translate(878.078125 0)"/>
     <use xlink:href="#NotoNaskhArabic-Regular-1c2" transform="translate(878.078125 0)"/>
     <use xlink:href="#NotoNaskhArabic-Regular-23f" transform="translate(929.875 0)"/>
     <use xlink:href="#NotoNaskhArabic-Regular-554" transform="translate(998.578125 0)"/>
    </g>
   </g>
   <g id="patch_5">
    <path d="M 64.127579 244.81739 
L 71.734341 244.81739 
L 71.734341 237.979266 
L 64.127579 237.979266 
z
" clip-path="url(#p20fd53eca5)" style="fill: #1f8a56; stroke: #1f8a56; stroke-linejoin: miter"/>
   </g>
   <g id="patch_6">
    <path d="M 77.958055 242.385776 
L 85.564817 242.385776 
L 85.564817 235.547652 
L 77.958055 235.547652 
z
" clip-path="url(#p20fd53eca5)" style="fill: #1f8a56; stroke: #1f8a56; stroke-linejoin: miter"/>
   </g>
   <g id="patch_7">
    <path d="M 91.788531 238.463161 
L 99.395293 238.463161 
L 99.395293 229.02876 
L 91.788531 229.02876 
z
" clip-path="url(#p20fd53eca5)" style="fill: #1f8a56; stroke: #1f8a56; stroke-linejoin: miter"/>
   </g>
   <g id="patch_8">
    <path d="M 105.619007 230.876054 
L 113.225769 230.876054 
L 113.225769 224.03793 
L 105.619007 224.03793 
z
" clip-path="url(#p20fd53eca5)" style="fill: #1f8a56; stroke: #1f8a56; stroke-linejoin: miter"/>
   </g>
   <g id="patch_9">
    <path d="M 119.449483 227.487908 
L 127.056245 227.487908 
L 127.056245 220.649784 
L 119.449483 220.649784 
z
" clip-path="url(#p20fd53eca5)" style="fill: #1f8a56; stroke: #1f8a56; stroke-linejoin: miter"/>
   </g>
   <g id="patch_10">
    <path d="M 133.279959 218.183187 
L 140.886721 218.183187 
L 140.886721 211.345063 
L 133.279959 211.345063 
z
" clip-path="url(#p20fd53eca5)" style="fill: #1f8a56; stroke: #1f8a56; stroke-linejoin: miter"/>
   </g>
   <g id="patch_11">
    <path d="M 147.110435 211.115253 
L 154.717197 211.115253 
L 154.717197 203.763791 
L 147.110435 203.763791 
z
" clip-path="url(#p20fd53eca5)" style="fill: #1f8a56; stroke: #1f8a56; stroke-linejoin: miter"/>
   </g>
   <g id="patch_12">
    <path d="M 160.940911 206.651769 
L 168.547673 206.651769 
L 168.547673 199.813645 
L 160.940911 199.813645 
z
" clip-path="url(#p20fd53eca5)" style="fill: #1f8a56; stroke: #1f8a56; stroke-linejoin: miter"/>
   </g>
   <g id="patch_13">
    <path d="M 174.771387 205.316588 
L 182.378149 205.316588 
L 182.378149 198.478464 
L 174.771387 198.478464 
z
" clip-path="url(#p20fd53eca5)" style="fill: #1f8a56; stroke: #1f8a56; stroke-linejoin: miter"/>
   </g>
   <g id="patch_14">
    <path d="M 188.601863 201.737483 
L 196.208625 201.737483 
L 196.208625 194.899358 
L 188.601863 194.899358 
z
" clip-path="url(#p20fd53eca5)" style="fill: #1f8a56; stroke: #1f8a56; stroke-linejoin: miter"/>
   </g>
   <g id="patch_15">
    <path d="M 202.432339 201.656533 
L 210.039101 201.656533 
L 210.039101 194.818409 
L 202.432339 194.818409 
z
" clip-path="url(#p20fd53eca5)" style="fill: #b91c1c; stroke: #b91c1c; stroke-linejoin: miter"/>
   </g>
   <g id="patch_16">
    <path d="M 216.262815 199.825262 
L 223.869577 199.825262 
L 223.869577 192.987138 
L 216.262815 192.987138 
z
" clip-path="url(#p20fd53eca5)" style="fill: #1f8a56; stroke: #1f8a56; stroke-linejoin: miter"/>
   </g>
   <g id="patch_17">
    <path d="M 230.093291 194.224385 
L 237.700053 194.224385 
L 237.700053 187.386261 
L 230.093291 187.386261 
z
" clip-path="url(#p20fd53eca5)" style="fill: #1f8a56; stroke: #1f8a56; stroke-linejoin: miter"/>
   </g>
   <g id="patch_18">
    <path d="M 243.923767 196.322363 
L 251.530529 196.322363 
L 251.530529 182.61178 
L 243.923767 182.61178 
z
" clip-path="url(#p20fd53eca5)" style="fill: #1f8a56; stroke: #1f8a56; stroke-linejoin: miter"/>
   </g>
   <g id="patch_19">
    <path d="M 257.754243 178.288472 
L 265.361005 178.288472 
L 265.361005 171.450348 
L 257.754243 171.450348 
z
" clip-path="url(#p20fd53eca5)" style="fill: #1f8a56; stroke: #1f8a56; stroke-linejoin: miter"/>
   </g>
   <g id="patch_20">
    <path d="M 271.584719 178.965448 
L 279.191481 178.965448 
L 279.191481 170.567463 
L 271.584719 170.567463 
z
" clip-path="url(#p20fd53eca5)" style="fill: #b91c1c; stroke: #b91c1c; stroke-linejoin: miter"/>
   </g>
   <g id="patch_21">
    <path d="M 285.415195 175.356926 
L 293.021957 175.356926 
L 293.021957 168.518802 
L 285.415195 168.518802 
z
" clip-path="url(#p20fd53eca5)" style="fill: #b91c1c; stroke: #b91c1c; stroke-linejoin: miter"/>
   </g>
   <g id="patch_22">
    <path d="M 299.245671 179.130057 
L 306.852433 179.130057 
L 306.852433 172.291933 
L 299.245671 172.291933 
z
" clip-path="url(#p20fd53eca5)" style="fill: #b91c1c; stroke: #b91c1c; stroke-linejoin: miter"/>
   </g>
   <g id="patch_23">
    <path d="M 313.076147 179.813214 
L 320.682909 179.813214 
L 320.682909 169.359281 
L 313.076147 169.359281 
z
" clip-path="url(#p20fd53eca5)" style="fill: #1f8a56; stroke: #1f8a56; stroke-linejoin: miter"/>
   </g>
   <g id="patch_24">
    <path d="M 326.906623 167.467646 
L 334.513385 167.467646 
L 334.513385 160.629522 
L 326.906623 160.629522 
z
" clip-path="url(#p20fd53eca5)" style="fill: #b91c1c; stroke: #b91c1c; stroke-linejoin: miter"/>
   </g>
   <g id="patch_25">
    <path d="M 340.737099 169.154583 
L 348.343861 169.154583 
L 348.343861 162.316459 
L 340.737099 162.316459 
z
" clip-path="url(#p20fd53eca5)" style="fill: #b91c1c; stroke: #b91c1c; stroke-linejoin: miter"/>
   </g>
   <g id="patch_26">
    <path d="M 354.567575 168.988039 
L 362.174337 168.988039 
L 362.174337 162.149914 
L 354.567575 162.149914 
z
" clip-path="url(#p20fd53eca5)" style="fill: #1f8a56; stroke: #1f8a56; stroke-linejoin: miter"/>
   </g>
   <g id="patch_27">
    <path d="M 368.398051 171.238032 
L 376.004813 171.238032 
L 376.004813 162.775287 
L 368.398051 162.775287 
z
" clip-path="url(#p20fd53eca5)" style="fill: #b91c1c; stroke: #b91c1c; stroke-linejoin: miter"/>
   </g>
   <g id="patch_28">
    <path d="M 382.228527 174.537153 
L 389.835289 174.537153 
L 389.835289 160.691069 
L 382.228527 160.691069 
z
" clip-path="url(#p20fd53eca5)" style="fill: #1f8a56; stroke: #1f8a56; stroke-linejoin: miter"/>
   </g>
   <g id="patch_29">
    <path d="M 396.059003 162.960366 
L 403.665765 162.960366 
L 403.665765 147.156818 
L 396.059003 147.156818 
z
" clip-path="url(#p20fd53eca5)" style="fill: #1f8a56; stroke: #1f8a56; stroke-linejoin: miter"/>
   </g>
   <g id="patch_30">
    <path d="M 409.889479 146.593524 
L 417.496241 146.593524 
L 417.496241 126.772182 
L 409.889479 126.772182 
z
" clip-path="url(#p20fd53eca5)" style="fill: #1f8a56; stroke: #1f8a56; stroke-linejoin: miter"/>
   </g>
   <g id="patch_31">
    <path d="M 423.719955 140.225552 
L 431.326717 140.225552 
L 431.326717 126.114245 
L 423.719955 126.114245 
z
" clip-path="url(#p20fd53eca5)" style="fill: #b91c1c; stroke: #b91c1c; stroke-linejoin: miter"/>
   </g>
   <g id="patch_32">
    <path d="M 437.550431 143.685566 
L 445.157193 143.685566 
L 445.157193 118.894793 
L 437.550431 118.894793 
z
" clip-path="url(#p20fd53eca5)" style="fill: #1f8a56; stroke: #1f8a56; stroke-linejoin: miter"/>
   </g>
   <g id="patch_33">
    <path d="M 451.380907 143.3269 
L 458.987669 143.3269 
L 458.987669 120.851984 
L 451.380907 120.851984 
z
" clip-path="url(#p20fd53eca5)" style="fill: #b91c1c; stroke: #b91c1c; stroke-linejoin: miter"/>
   </g>
   <g id="patch_34">
    <path d="M 465.211383 151.773154 
L 472.818145 151.773154 
L 472.818145 144.93503 
L 465.211383 144.93503 
z
" clip-path="url(#p20fd53eca5)" style="fill: #b91c1c; stroke: #b91c1c; stroke-linejoin: miter"/>
   </g>
   <g id="patch_35">
    <path d="M 479.041859 169.255529 
L 486.648621 169.255529 
L 486.648621 153.782806 
L 479.041859 153.782806 
z
" clip-path="url(#p20fd53eca5)" style="fill: #b91c1c; stroke: #b91c1c; stroke-linejoin: miter"/>
   </g>
   <g id="patch_36">
    <path d="M 492.872335 170.663585 
L 500.479097 170.663585 
L 500.479097 161.348898 
L 492.872335 161.348898 
z
" clip-path="url(#p20fd53eca5)" style="fill: #1f8a56; stroke: #1f8a56; stroke-linejoin: miter"/>
   </g>
   <g id="patch_37">
    <path d="M 506.702811 182.445966 
L 514.309573 182.445966 
L 514.309573 162.079176 
L 506.702811 162.079176 
z
" clip-path="url(#p20fd53eca5)" style="fill: #b91c1c; stroke: #b91c1c; stroke-linejoin: miter"/>
   </g>
   <g id="patch_38">
    <path d="M 520.533287 185.517073 
L 528.140049 185.517073 
L 528.140049 131.849467 
L 520.533287 131.849467 
z
" clip-path="url(#p20fd53eca5)" style="fill: #1f8a56; stroke: #1f8a56; stroke-linejoin: miter"/>
   </g>
   <g id="patch_39">
    <path d="M 534.363763 131.69631 
L 541.970525 131.69631 
L 541.970525 112.985465 
L 534.363763 112.985465 
z
" clip-path="url(#p20fd53eca5)" style="fill: #1f8a56; stroke: #1f8a56; stroke-linejoin: miter"/>
   </g>
   <g id="patch_40">
    <path d="M 548.194239 114.343979 
L 555.801001 114.343979 
L 555.801001 54.110461 
L 548.194239 54.110461 
z
" clip-path="url(#p20fd53eca5)" style="fill: #1f8a56; stroke: #1f8a56; stroke-linejoin: miter"/>
   </g>
   <g id="patch_41">
    <path d="M 562.024715 53.203224 
L 569.631477 53.203224 
L 569.631477 46.3651 
L 562.024715 46.3651 
z
" clip-path="url(#p20fd53eca5)" style="fill: #b91c1c; stroke: #b91c1c; stroke-linejoin: miter"/>
   </g>
   <g id="patch_42">
    <path d="M 575.855191 54.033903 
L 583.461953 54.033903 
L 583.461953 21.673931 
L 575.855191 21.673931 
z
" clip-path="url(#p20fd53eca5)" style="fill: #1f8a56; stroke: #1f8a56; stroke-linejoin: miter"/>
   </g>
   <g id="patch_43">
    <path d="M 589.685667 43.99273 
L 597.292429 43.99273 
L 597.292429 21.058131 
L 589.685667 21.058131 
z
" clip-path="url(#p20fd53eca5)" style="fill: #b91c1c; stroke: #b91c1c; stroke-linejoin: miter"/>
   </g>
   <g id="patch_44">
    <path d="M 603.516143 57.532877 
L 611.122905 57.532877 
L 611.122905 40.100302 
L 603.516143 40.100302 
z
" clip-path="url(#p20fd53eca5)" style="fill: #b91c1c; stroke: #b91c1c; stroke-linejoin: miter"/>
   </g>
  </g>
  <g id="axes_2">
   <g id="patch_45">
    <path d="M 54.100484 390.75 
L 621.15 390.75 
L 621.15 265.384401 
L 54.100484 265.384401 
z
" style="fill: #ffffff"/>
   </g>
   <g id="matplotlib.axis_3"/>
   <g id="matplotlib.axis_4">
    <g id="ytick_9">
     <g id="line2d_59">
      <g>
       <use xlink:href="#m8b4664448d" x="54.100484" y="370.61574" style="fill: #555555; stroke: #555555; stroke-width: 0.8"/>
      </g>
     </g>
     <g id="text_12">
      <!-- 0.5 -->
      <g style="fill: #555555" transform="translate(32.925484 376.22799) scale(0.105 -0.105)">
       <defs>
        <path id="NotoNaskhArabic-Regular-514" d="M 800 -422 
Q 646 -314 518 -230 
Q 390 -147 294 -90 
Q 326 -19 364 41 
Q 403 102 429 166 
Q 493 282 576 410 
Q 1069 122 1069 32 
Q 1069 -38 800 -422 
z
" transform="scale(0.015625)"/>
        <path id="NotoNaskhArabic-Regular-4d1" d="M 1587 -64 
Q 826 -64 403 186 
L 403 717 
Q 634 576 960 496 
Q 1286 416 1594 416 
Q 2131 416 2425 672 
Q 2720 928 2720 1402 
Q 2720 2330 1574 2330 
Q 1210 2330 794 2234 
L 512 2413 
L 685 4570 
L 2976 4570 
L 2976 4058 
L 1165 4058 
L 1056 2733 
Q 1235 2765 1411 2784 
Q 1587 2803 1760 2803 
Q 2477 2803 2886 2444 
Q 3296 2086 3296 1459 
Q 3296 749 2841 342 
Q 2387 -64 1587 -64 
z
" transform="scale(0.015625)"/>
       </defs>
       <use xlink:href="#NotoNaskhArabic-Regular-4cc"/>
       <use xlink:href="#NotoNaskhArabic-Regular-514" transform="translate(57.203125 0)"/>
       <use xlink:href="#NotoNaskhArabic-Regular-4d1" transform="translate(77.796875 0)"/>
      </g>
     </g>
    </g>
    <g id="ytick_10">
     <g id="line2d_60">
      <g>
       <use xlink:href="#m8b4664448d" x="54.100484" y="327.95894" style="fill: #555555; stroke: #555555; stroke-width: 0.8"/>
      </g>
     </g>
     <g id="text_13">
      <!-- 1.0 -->
      <g style="fill: #555555" transform="translate(32.925484 333.57119) scale(0.105 -0.105)">
       <use xlink:href="#NotoNaskhArabic-Regular-4cd"/>
       <use xlink:href="#NotoNaskhArabic-Regular-514" transform="translate(57.203125 0)"/>
       <use xlink:href="#NotoNaskhArabic-Regular-4cc" transform="translate(77.796875 0)"/>
      </g>
     </g>
    </g>
    <g id="ytick_11">
     <g id="line2d_61">
      <g>
       <use xlink:href="#m8b4664448d" x="54.100484" y="285.302139" style="fill: #555555; stroke: #555555; stroke-width: 0.8"/>
      </g>
     </g>
     <g id="text_14">
      <!-- 1.5 -->
      <g style="fill: #555555" transform="translate(32.925484 290.914389) scale(0.105 -0.105)">
       <use xlink:href="#NotoNaskhArabic-Regular-4cd"/>
       <use xlink:href="#NotoNaskhArabic-Regular-514" transform="translate(57.203125 0)"/>
       <use xlink:href="#NotoNaskhArabic-Regular-4d1" transform="translate(77.796875 0)"/>
      </g>
     </g>
    </g>
    <g id="text_15">
     <!-- ATR -->
     <g style="fill: #1f2937" transform="translate(22.268484 338.105365) rotate(-90) scale(0.105 -0.105)">
      <use xlink:href="#DejaVuSans-24"/>
      <use xlink:href="#DejaVuSans-37" transform="translate(60.640625 0)"/>
      <use xlink:href="#DejaVuSans-35" transform="translate(121.71875 0)"/>
     </g>
    </g>
   </g>
   <g id="line2d_62">
    <path d="M 79.875462 383.677483 
L 93.0934 385.051564 
L 106.311337 371.496516 
L 119.529275 376.195893 
L 132.747212 370.874962 
L 145.965149 369.4184 
L 159.183087 368.055755 
L 172.401024 369.42412 
L 185.618962 370.313672 
L 198.836899 370.142424 
L 212.054837 372.935934 
L 225.272774 373.710359 
L 238.490711 373.110102 
L 251.708649 369.593602 
L 264.926586 369.325623 
L 278.144524 366.042481 
L 291.362461 365.7007 
L 304.580399 367.576354 
L 317.798336 363.676999 
L 331.016273 366.6289 
L 344.234211 369.211425 
L 357.452148 371.766537 
L 370.670086 369.213093 
L 383.888023 365.838857 
L 397.105961 361.032825 
L 410.323898 353.811075 
L 423.541835 349.991778 
L 436.759773 342.870757 
L 449.97771 339.606327 
L 463.195648 339.092852 
L 476.413585 337.412323 
L 489.631523 334.446363 
L 502.84946 328.283147 
L 516.067397 314.083806 
L 529.285335 306.410853 
L 542.503272 284.319543 
L 555.72121 283.444205 
L 568.939147 274.804143 
L 582.157085 271.093983 
L 595.375022 271.082838 
" clip-path="url(#p2282870a51)" style="fill: none; stroke: #1f2937; stroke-width: 2; stroke-linecap: square"/>
   </g>
   <g id="patch_46">
    <path d="M 54.100484 390.75 
L 54.100484 265.384401 
" style="fill: none; stroke: #1f2937; stroke-width: 0.8; stroke-linejoin: miter; stroke-linecap: square"/>
   </g>
   <g id="patch_47">
    <path d="M 54.100484 390.75 
L 621.15 390.75 
" style="fill: none; stroke: #1f2937; stroke-width: 0.8; stroke-linejoin: miter; stroke-linecap: square"/>
   </g>
  </g>
 </g>
 <defs>
  <clipPath id="p20fd53eca5">
   <rect x="54.100484" y="7.2" width="567.049516" height="250.731197"/>
  </clipPath>
  <clipPath id="p2282870a51">
   <rect x="54.100484" y="265.384401" width="567.049516" height="125.365599"/>
  </clipPath>
 </defs>
</svg>
