<?xml version="1.0" encoding="utf-8" standalone="no"?>
<!DOCTYPE svg PUBLIC "-//W3C//DTD SVG 1.1//EN"
  "http://www.w3.org/Graphics/SVG/1.1/DTD/svg11.dtd">
<svg xmlns:xlink="http://www.w3.org/1999/xlink" width="628.35pt" height="322.405224pt" viewBox="0 0 628.35 322.405224" xmlns="http://www.w3.org/2000/svg" version="1.1">
 <metadata>
  <rdf:RDF xmlns:dc="http://purl.org/dc/elements/1.1/" xmlns:cc="http://creativecommons.org/ns#" xmlns:rdf="http://www.w3.org/1999/02/22-rdf-syntax-ns#">
   <cc:Work>
    <dc:type rdf:resource="http://purl.org/dc/dcmitype/StillImage"/>
    <dc:date>2026-07-18T23:48:57.400714</dc:date>
    <dc:format>image/svg+xml</dc:format>
    <dc:creator>
     <cc:Agent>
      <dc:title>Matplotlib v3.11.1, https://matplotlib.org/</dc:title>
     </cc:Agent>
    </dc:creator>
   </cc:Work>
  </rdf:RDF>
 </metadata>
 <defs>
  <style type="text/css">*{stroke-linejoin: round; stroke-linecap: butt}</style>
 </defs>
 <g id="figure_1">
  <g id="patch_1">
   <path d="M 0 322.405224 
L 628.35 322.405224 
L 628.35 0 
L 0 0 
z
" style="fill: #ffffff"/>
  </g>
  <g id="axes_1">
   <g id="patch_2">
    <path d="M 56.262828 268.442224 
L 572.087172 268.442224 
L 572.087172 55.298705 
L 56.262828 55.298705 
z
" style="fill: #ffffff"/>
   </g>
   <g id="matplotlib.axis_1">
    <g id="xtick_1">
     <g id="line2d_1">
      <defs>
       <path id="m09b0a9b636" d="M 0 0 
L 0 3.5 
" style="stroke: #555555; stroke-width: 0.8"/>
      </defs>
      <g>
       <use xlink:href="#m09b0a9b636" x="79.709389" y="268.442224" style="fill: #555555; stroke: #555555; stroke-width: 0.8"/>
      </g>
     </g>
     <g id="text_1">
      <!-- 0 -->
      <g style="fill: #555555" transform="translate(76.706225 286.666724) scale(0.105 -0.105)">
       <defs>
        <path id="NotoNaskhArabic-Regular-4cc" d="M 1824 -64 
Q 1082 -64 698 534 
Q 314 1133 314 2291 
Q 314 3488 682 4064 
Q 1050 4640 1824 4640 
Q 2566 4640 2956 4038 
Q 3347 3437 3347 2291 
Q 3347 1101 2969 518 
Q 2592 -64 1824 -64 
z
M 1824 416 
Q 2208 416 2426 678 
Q 2778 1094 2778 2291 
Q 2778 3571 2368 3962 
Q 2163 4160 1824 4160 
Q 1427 4160 1203 3878 
Q 877 3469 877 2291 
Q 877 1075 1229 666 
Q 1440 416 1824 416 
z
" transform="scale(0.015625)"/>
       </defs>
       <use xlink:href="#NotoNaskhArabic-Regular-4cc"/>
      </g>
     </g>
    </g>
    <g id="xtick_2">
     <g id="line2d_2">
      <g>
       <use xlink:href="#m09b0a9b636" x="164.969611" y="268.442224" style="fill: #555555; stroke: #555555; stroke-width: 0.8"/>
      </g>
     </g>
     <g id="text_2">
      <!-- 2 -->
      <g style="fill: #555555" transform="translate(161.966447 286.666724) scale(0.105 -0.105)">
       <defs>
        <path id="NotoNaskhArabic-Regular-4ce" d="M 307 0 
L 307 467 
L 1504 1677 
Q 1773 1952 1952 2147 
Q 2131 2342 2221 2458 
Q 2413 2720 2489 2925 
Q 2566 3130 2566 3386 
Q 2566 3744 2352 3949 
Q 2138 4154 1760 4154 
Q 1478 4154 1228 4058 
Q 979 3962 659 3718 
L 358 4096 
Q 1005 4634 1760 4634 
Q 2240 4634 2576 4448 
Q 2912 4262 3053 3923 
Q 3142 3686 3142 3418 
Q 3142 3123 3033 2841 
Q 2925 2560 2707 2272 
Q 2598 2131 2416 1929 
Q 2234 1728 1971 1478 
L 1018 538 
L 1018 512 
L 3328 512 
L 3328 0 
L 307 0 
z
" transform="scale(0.015625)"/>
       </defs>
       <use xlink:href="#NotoNaskhArabic-Regular-4ce"/>
      </g>
     </g>
    </g>
    <g id="xtick_3">
     <g id="line2d_3">
      <g>
       <use xlink:href="#m09b0a9b636" x="250.229833" y="268.442224" style="fill: #555555; stroke: #555555; stroke-width: 0.8"/>
      </g>
     </g>
     <g id="text_3">
      <!-- 4 -->
      <g style="fill: #555555" transform="translate(247.226669 286.666724) scale(0.105 -0.105)">
       <defs>
        <path id="NotoNaskhArabic-Regular-4d0" d="M 2323 0 
L 2323 1037 
L 134 1037 
L 134 1517 
L 2285 4595 
L 2867 4595 
L 2867 1542 
L 3533 1542 
L 3533 1037 
L 2867 1037 
L 2867 0 
L 2323 0 
z
M 685 1542 
L 2323 1542 
L 2323 2982 
Q 2323 3194 2332 3446 
Q 2342 3699 2355 3994 
L 2330 3994 
Q 2298 3910 2211 3747 
Q 2125 3584 2054 3494 
L 685 1542 
z
" transform="scale(0.015625)"/>
       </defs>
       <use xlink:href="#NotoNaskhArabic-Regular-4d0"/>
      </g>
     </g>
    </g>
    <g id="xtick_4">
     <g id="line2d_4">
      <g>
       <use xlink:href="#m09b0a9b636" x="335.490056" y="268.442224" style="fill: #555555; stroke: #555555; stroke-width: 0.8"/>
      </g>
     </g>
     <g id="text_4">
      <!-- 6 -->
      <g style="fill: #555555" transform="translate(332.486891 286.666724) scale(0.105 -0.105)">
       <defs>
        <path id="NotoNaskhArabic-Regular-4d2" d="M 1907 -64 
Q 1440 -64 1088 176 
Q 736 416 544 870 
Q 352 1331 352 1952 
Q 352 4634 2445 4634 
Q 2810 4634 3008 4576 
L 3008 4096 
Q 2771 4173 2458 4173 
Q 1984 4173 1654 3987 
Q 1325 3802 1139 3405 
Q 941 2976 915 2323 
L 954 2323 
Q 1299 2861 2035 2861 
Q 2656 2861 3008 2486 
Q 3360 2112 3360 1472 
Q 3360 762 2969 349 
Q 2579 -64 1907 -64 
z
M 1901 410 
Q 2336 410 2569 688 
Q 2803 966 2803 1472 
Q 2803 1926 2576 2172 
Q 2349 2419 1920 2419 
Q 1645 2419 1421 2307 
Q 1197 2195 1056 1997 
Q 922 1798 922 1581 
Q 922 1267 1050 995 
Q 1178 723 1395 563 
Q 1619 410 1901 410 
z
" transform="scale(0.015625)"/>
       </defs>
       <use xlink:href="#NotoNaskhArabic-Regular-4d2"/>
      </g>
     </g>
    </g>
    <g id="xtick_5">
     <g id="line2d_5">
      <g>
       <use xlink:href="#m09b0a9b636" x="420.750278" y="268.442224" style="fill: #555555; stroke: #555555; stroke-width: 0.8"/>
      </g>
     </g>
     <g id="text_5">
      <!-- 8 -->
      <g style="fill: #555555" transform="translate(417.747114 286.666724) scale(0.105 -0.105)">
       <defs>
        <path id="NotoNaskhArabic-Regular-4d4" d="M 1843 -64 
Q 1114 -64 714 256 
Q 314 576 314 1165 
Q 314 1946 1261 2387 
Q 832 2630 646 2912 
Q 461 3194 461 3546 
Q 461 4045 832 4339 
Q 1203 4634 1824 4634 
Q 2451 4634 2822 4342 
Q 3194 4051 3194 3539 
Q 3194 3200 2986 2928 
Q 2778 2656 2323 2419 
Q 2874 2150 3107 1856 
Q 3341 1562 3341 1184 
Q 3341 621 2937 278 
Q 2534 -64 1843 -64 
z
M 1850 2637 
Q 2278 2816 2457 3030 
Q 2637 3245 2637 3520 
Q 2637 3834 2416 4006 
Q 2195 4179 1818 4179 
Q 1446 4179 1228 4003 
Q 1011 3827 1011 3520 
Q 1011 3322 1094 3171 
Q 1178 3021 1338 2906 
Q 1498 2784 1850 2637 
z
M 1830 384 
Q 2278 384 2534 595 
Q 2790 806 2790 1178 
Q 2790 1478 2547 1712 
Q 2304 1946 1728 2157 
Q 1280 1965 1072 1728 
Q 864 1491 864 1158 
Q 864 800 1123 592 
Q 1382 384 1830 384 
z
" transform="scale(0.015625)"/>
       </defs>
       <use xlink:href="#NotoNaskhArabic-Regular-4d4"/>
      </g>
     </g>
    </g>
    <g id="xtick_6">
     <g id="line2d_6">
      <g>
       <use xlink:href="#m09b0a9b636" x="506.0105" y="268.442224" style="fill: #555555; stroke: #555555; stroke-width: 0.8"/>
      </g>
     </g>
     <g id="text_6">
      <!-- 10 -->
      <g style="fill: #555555" transform="translate(500.004172 286.666724) scale(0.105 -0.105)">
       <defs>
        <path id="NotoNaskhArabic-Regular-4cd" d="M 1722 0 
L 1722 3194 
Q 1722 3405 1728 3603 
Q 1734 3802 1747 3981 
Q 1702 3936 1657 3891 
Q 1613 3846 1562 3808 
Q 1402 3674 1226 3530 
Q 1050 3386 864 3232 
L 570 3610 
L 1805 4570 
L 2272 4570 
L 2272 0 
L 1722 0 
z
" transform="scale(0.015625)"/>
       </defs>
       <use xlink:href="#NotoNaskhArabic-Regular-4cd"/>
       <use xlink:href="#NotoNaskhArabic-Regular-4cc" transform="translate(57.203125 0)"/>
      </g>
     </g>
    </g>
    <g id="text_7">
     <!-- ﺮﻬﺸﻟﺍ -->
     <g style="fill: #1f2937" transform="translate(304.210664 308.548224) scale(0.105 -0.105)">
      <defs>
       <path id="NotoNaskhArabic-Regular-3" d="M 666 0 
Q 646 1126 604 2057 
Q 563 2989 493 3725 
Q 467 3987 566 4118 
Q 666 4250 915 4294 
Q 941 4173 1001 3965 
Q 1062 3757 1139 3533 
L 966 3386 
Q 992 2912 1001 2413 
Q 1011 1914 1001 1338 
Q 992 762 960 51 
L 666 0 
z
" transform="scale(0.015625)"/>
       <path id="NotoNaskhArabic-Regular-1c1" d="M -6 0 
Q -64 0 -64 51 
L -64 435 
Q -64 486 -6 486 
Q 378 486 704 659 
Q 685 902 665 1139 
Q 646 1376 627 1606 
Q 570 2208 512 2790 
Q 454 3373 384 3936 
Q 474 4032 579 4121 
Q 685 4211 806 4294 
Q 826 3949 851 3497 
Q 877 3046 915 2483 
Q 947 2016 960 1609 
Q 973 1203 979 864 
Q 979 755 915 572 
Q 851 390 755 224 
Q 640 0 -6 0 
z
" transform="scale(0.015625)"/>
       <path id="NotoNaskhArabic-Regular-105" d="M 1446 0 
Q 1267 0 1030 57 
Q 794 115 666 198 
Q 576 109 397 54 
Q 218 0 0 0 
Q -51 0 -51 51 
L -51 435 
Q -51 486 0 486 
Q 326 486 518 634 
Q 627 723 681 809 
Q 736 896 858 1094 
Q 915 1197 1056 1197 
Q 1146 1197 1210 1152 
Q 1114 909 1046 765 
Q 979 621 947 570 
Q 998 544 1155 515 
Q 1312 486 1517 486 
Q 1664 486 1789 505 
Q 1914 525 2016 550 
Q 2061 621 2115 793 
Q 2170 966 2227 1145 
Q 2285 1325 2323 1408 
Q 2381 1536 2432 1574 
Q 2483 1613 2579 1613 
Q 2669 1613 2733 1568 
Q 2688 1466 2608 1235 
Q 2528 1005 2400 582 
Q 2496 538 2566 522 
Q 2637 506 2739 506 
Q 2906 506 3091 570 
Q 3123 608 3168 723 
Q 3213 838 3277 1030 
Q 3328 1190 3385 1331 
Q 3443 1472 3501 1568 
Q 3552 1664 3699 1664 
Q 3789 1664 3853 1619 
Q 3808 1517 3728 1289 
Q 3648 1062 3533 710 
Q 3757 589 3917 537 
Q 4077 486 4294 486 
Q 4352 486 4352 435 
L 4352 51 
Q 4352 0 4294 0 
Q 4045 0 3798 96 
Q 3552 192 3386 346 
Q 3366 301 3347 259 
Q 3328 218 3296 173 
Q 3251 96 3078 48 
Q 2906 0 2733 0 
Q 2438 0 2221 160 
Q 2176 102 2041 67 
Q 1907 32 1744 19 
Q 1581 6 1446 0 
z
M 2317 2605 
Q 2150 2707 1958 2918 
Q 2054 3014 2140 3103 
Q 2227 3193 2298 3277 
Q 2413 3123 2650 2918 
Q 2464 2701 2317 2605 
z
M 2771 2080 
Q 2560 2246 2394 2432 
Q 2451 2483 2547 2582 
Q 2643 2681 2765 2822 
Q 2854 2733 2940 2643 
Q 3027 2553 3117 2470 
Q 3053 2381 2969 2281 
Q 2886 2182 2771 2080 
z
M 1862 1997 
Q 1741 2093 1645 2182 
Q 1549 2272 1478 2349 
Q 1632 2489 1850 2739 
Q 1914 2662 2202 2387 
Q 2144 2304 2061 2204 
Q 1978 2105 1862 1997 
z
" transform="scale(0.015625)"/>
       <path id="NotoNaskhArabic-Regular-1ff" d="M 1632 -1306 
Q 1139 -1306 825 -1011 
Q 512 -717 422 -173 
L 179 -275 
L 115 6 
L 0 0 
Q -51 0 -51 51 
L -51 435 
Q -51 486 0 486 
Q 109 493 211 496 
Q 314 499 416 506 
Q 550 1696 1619 2707 
L 1850 2643 
Q 1862 2502 1888 2313 
Q 1914 2125 1958 1888 
Q 2003 1670 2022 1520 
Q 2042 1370 2042 1280 
Q 2042 998 1882 780 
Q 1722 563 1517 442 
Q 1779 467 2000 476 
Q 2221 486 2477 486 
Q 2547 486 2547 422 
L 2547 70 
Q 2547 0 2477 0 
Q 2214 0 2029 -45 
Q 2182 -109 2288 -240 
Q 2394 -371 2394 -499 
Q 2394 -557 2349 -688 
Q 2304 -819 2253 -944 
Q 2202 -1069 2170 -1107 
Q 2086 -1190 1939 -1248 
Q 1792 -1306 1632 -1306 
z
M 806 480 
Q 1037 506 1264 605 
Q 1491 704 1670 858 
L 1619 1184 
Q 1555 1485 1520 1705 
Q 1485 1926 1472 2067 
Q 1120 1568 976 1203 
Q 832 838 806 480 
z
M 1690 -858 
Q 1798 -858 1920 -813 
Q 2042 -768 2112 -685 
Q 2061 -499 1904 -342 
Q 1747 -186 1536 -93 
Q 1325 0 1094 0 
Q 1037 0 845 -38 
Q 947 -448 1164 -653 
Q 1382 -858 1690 -858 
z
" transform="scale(0.015625)"/>
       <path id="NotoNaskhArabic-Regular-d4" d="M 710 -1306 
Q 608 -1306 451 -1248 
Q 294 -1190 134 -1107 
Q -26 -1024 -128 -947 
L -45 -736 
Q 134 -768 284 -787 
Q 435 -806 563 -806 
Q 1043 -806 1385 -518 
Q 1728 -230 1907 314 
Q 1862 416 1814 515 
Q 1766 614 1709 717 
Q 1491 1107 1388 1340 
Q 1286 1574 1286 1734 
Q 1286 1901 1382 2000 
Q 1478 2099 1658 2182 
Q 1683 2099 1712 2000 
Q 1741 1901 1786 1792 
Q 1888 1530 1955 1334 
Q 2022 1139 2054 1018 
Q 2093 896 2115 797 
Q 2138 698 2144 614 
Q 2362 486 2643 486 
Q 2694 486 2694 435 
L 2694 51 
Q 2694 0 2643 0 
Q 2342 0 2118 154 
Q 2048 -288 1849 -617 
Q 1651 -947 1356 -1126 
Q 1062 -1306 710 -1306 
z
" transform="scale(0.015625)"/>
      </defs>
      <use xlink:href="#NotoNaskhArabic-Regular-3"/>
      <use xlink:href="#NotoNaskhArabic-Regular-1c1" transform="translate(23.796875 0)"/>
      <use xlink:href="#NotoNaskhArabic-Regular-105" transform="translate(45 0)"/>
      <use xlink:href="#NotoNaskhArabic-Regular-1ff" transform="translate(111.296875 0)"/>
      <use xlink:href="#NotoNaskhArabic-Regular-d4" transform="translate(149.390625 0)"/>
     </g>
    </g>
   </g>
   <g id="matplotlib.axis_2">
    <g id="ytick_1">
     <g id="line2d_7">
      <path d="M 56.262828 260.596139 
L 572.087172 260.596139 
" clip-path="url(#pbbeab41465)" style="fill: none; stroke: #e6e1d6; stroke-width: 0.8; stroke-linecap: square"/>
     </g>
     <g id="line2d_8">
      <defs>
       <path id="m7a968ebb51" d="M 0 0 
L -3.5 0 
" style="stroke: #555555; stroke-width: 0.8"/>
      </defs>
      <g>
       <use xlink:href="#m7a968ebb51" x="56.262828" y="260.596139" style="fill: #555555; stroke: #555555; stroke-width: 0.8"/>
      </g>
     </g>
     <g id="text_8">
      <!-- 3.75 -->
      <g style="fill: #b91c1c" transform="translate(29.0815 266.208389) scale(0.105 -0.105)">
       <defs>
        <path id="NotoNaskhArabic-Regular-4cf" d="M 1542 -64 
Q 1184 -64 877 -9 
Q 570 45 288 186 
L 288 710 
Q 576 570 909 490 
Q 1242 410 1549 410 
Q 2707 410 2707 1312 
Q 2707 2118 1427 2118 
L 986 2118 
L 986 2598 
L 1434 2598 
Q 1971 2598 2275 2825 
Q 2579 3053 2579 3462 
Q 2579 3789 2358 3974 
Q 2138 4160 1747 4160 
Q 1446 4160 1187 4077 
Q 928 3994 595 3776 
L 314 4160 
Q 595 4384 963 4509 
Q 1331 4634 1741 4634 
Q 2406 4634 2780 4330 
Q 3155 4026 3155 3501 
Q 3155 3066 2908 2784 
Q 2662 2502 2208 2406 
L 2208 2381 
Q 2758 2317 3027 2035 
Q 3296 1754 3296 1299 
Q 3296 646 2845 291 
Q 2394 -64 1542 -64 
z
" transform="scale(0.015625)"/>
        <path id="NotoNaskhArabic-Regular-514" d="M 800 -422 
Q 646 -314 518 -230 
Q 390 -147 294 -90 
Q 326 -19 364 41 
Q 403 102 429 166 
Q 493 282 576 410 
Q 1069 122 1069 32 
Q 1069 -38 800 -422 
z
" transform="scale(0.015625)"/>
        <path id="NotoNaskhArabic-Regular-4d3" d="M 870 0 
L 2746 4058 
L 282 4058 
L 282 4570 
L 3347 4570 
L 3347 4134 
L 1491 0 
L 870 0 
z
" transform="scale(0.015625)"/>
        <path id="NotoNaskhArabic-Regular-4d1" d="M 1587 -64 
Q 826 -64 403 186 
L 403 717 
Q 634 576 960 496 
Q 1286 416 1594 416 
Q 2131 416 2425 672 
Q 2720 928 2720 1402 
Q 2720 2330 1574 2330 
Q 1210 2330 794 2234 
L 512 2413 
L 685 4570 
L 2976 4570 
L 2976 4058 
L 1165 4058 
L 1056 2733 
Q 1235 2765 1411 2784 
Q 1587 2803 1760 2803 
Q 2477 2803 2886 2444 
Q 3296 2086 3296 1459 
Q 3296 749 2841 342 
Q 2387 -64 1587 -64 
z
" transform="scale(0.015625)"/>
       </defs>
       <use xlink:href="#NotoNaskhArabic-Regular-4cf"/>
       <use xlink:href="#NotoNaskhArabic-Regular-514" transform="translate(57.203125 0)"/>
       <use xlink:href="#NotoNaskhArabic-Regular-4d3" transform="translate(77.796875 0)"/>
       <use xlink:href="#NotoNaskhArabic-Regular-4d1" transform="translate(135 0)"/>
      </g>
     </g>
    </g>
    <g id="ytick_2">
     <g id="line2d_9">
      <path d="M 56.262828 232.075267 
L 572.087172 232.075267 
" clip-path="url(#pbbeab41465)" style="fill: none; stroke: #e6e1d6; stroke-width: 0.8; stroke-linecap: square"/>
     </g>
     <g id="line2d_10">
      <g>
       <use xlink:href="#m7a968ebb51" x="56.262828" y="232.075267" style="fill: #555555; stroke: #555555; stroke-width: 0.8"/>
      </g>
     </g>
     <g id="text_9">
      <!-- 4.00 -->
      <g style="fill: #b91c1c" transform="translate(29.0815 237.687517) scale(0.105 -0.105)">
       <use xlink:href="#NotoNaskhArabic-Regular-4d0"/>
       <use xlink:href="#NotoNaskhArabic-Regular-514" transform="translate(57.203125 0)"/>
       <use xlink:href="#NotoNaskhArabic-Regular-4cc" transform="translate(77.796875 0)"/>
       <use xlink:href="#NotoNaskhArabic-Regular-4cc" transform="translate(135 0)"/>
      </g>
     </g>
    </g>
    <g id="ytick_3">
     <g id="line2d_11">
      <path d="M 56.262828 203.554394 
L 572.087172 203.554394 
" clip-path="url(#pbbeab41465)" style="fill: none; stroke: #e6e1d6; stroke-width: 0.8; stroke-linecap: square"/>
     </g>
     <g id="line2d_12">
      <g>
       <use xlink:href="#m7a968ebb51" x="56.262828" y="203.554394" style="fill: #555555; stroke: #555555; stroke-width: 0.8"/>
      </g>
     </g>
     <g id="text_10">
      <!-- 4.25 -->
      <g style="fill: #b91c1c" transform="translate(29.0815 209.166644) scale(0.105 -0.105)">
       <use xlink:href="#NotoNaskhArabic-Regular-4d0"/>
       <use xlink:href="#NotoNaskhArabic-Regular-514" transform="translate(57.203125 0)"/>
       <use xlink:href="#NotoNaskhArabic-Regular-4ce" transform="translate(77.796875 0)"/>
       <use xlink:href="#NotoNaskhArabic-Regular-4d1" transform="translate(135 0)"/>
      </g>
     </g>
    </g>
    <g id="ytick_4">
     <g id="line2d_13">
      <path d="M 56.262828 175.033522 
L 572.087172 175.033522 
" clip-path="url(#pbbeab41465)" style="fill: none; stroke: #e6e1d6; stroke-width: 0.8; stroke-linecap: square"/>
     </g>
     <g id="line2d_14">
      <g>
       <use xlink:href="#m7a968ebb51" x="56.262828" y="175.033522" style="fill: #555555; stroke: #555555; stroke-width: 0.8"/>
      </g>
     </g>
     <g id="text_11">
      <!-- 4.50 -->
      <g style="fill: #b91c1c" transform="translate(29.0815 180.645772) scale(0.105 -0.105)">
       <use xlink:href="#NotoNaskhArabic-Regular-4d0"/>
       <use xlink:href="#NotoNaskhArabic-Regular-514" transform="translate(57.203125 0)"/>
       <use xlink:href="#NotoNaskhArabic-Regular-4d1" transform="translate(77.796875 0)"/>
       <use xlink:href="#NotoNaskhArabic-Regular-4cc" transform="translate(135 0)"/>
      </g>
     </g>
    </g>
    <g id="ytick_5">
     <g id="line2d_15">
      <path d="M 56.262828 146.51265 
L 572.087172 146.51265 
" clip-path="url(#pbbeab41465)" style="fill: none; stroke: #e6e1d6; stroke-width: 0.8; stroke-linecap: square"/>
     </g>
     <g id="line2d_16">
      <g>
       <use xlink:href="#m7a968ebb51" x="56.262828" y="146.51265" style="fill: #555555; stroke: #555555; stroke-width: 0.8"/>
      </g>
     </g>
     <g id="text_12">
      <!-- 4.75 -->
      <g style="fill: #b91c1c" transform="translate(29.0815 152.1249) scale(0.105 -0.105)">
       <use xlink:href="#NotoNaskhArabic-Regular-4d0"/>
       <use xlink:href="#NotoNaskhArabic-Regular-514" transform="translate(57.203125 0)"/>
       <use xlink:href="#NotoNaskhArabic-Regular-4d3" transform="translate(77.796875 0)"/>
       <use xlink:href="#NotoNaskhArabic-Regular-4d1" transform="translate(135 0)"/>
      </g>
     </g>
    </g>
    <g id="ytick_6">
     <g id="line2d_17">
      <path d="M 56.262828 117.991777 
L 572.087172 117.991777 
" clip-path="url(#pbbeab41465)" style="fill: none; stroke: #e6e1d6; stroke-width: 0.8; stroke-linecap: square"/>
     </g>
     <g id="line2d_18">
      <g>
       <use xlink:href="#m7a968ebb51" x="56.262828" y="117.991777" style="fill: #555555; stroke: #555555; stroke-width: 0.8"/>
      </g>
     </g>
     <g id="text_13">
      <!-- 5.00 -->
      <g style="fill: #b91c1c" transform="translate(29.0815 123.604027) scale(0.105 -0.105)">
       <use xlink:href="#NotoNaskhArabic-Regular-4d1"/>
       <use xlink:href="#NotoNaskhArabic-Regular-514" transform="translate(57.203125 0)"/>
       <use xlink:href="#NotoNaskhArabic-Regular-4cc" transform="translate(77.796875 0)"/>
       <use xlink:href="#NotoNaskhArabic-Regular-4cc" transform="translate(135 0)"/>
      </g>
     </g>
    </g>
    <g id="ytick_7">
     <g id="line2d_19">
      <path d="M 56.262828 89.470905 
L 572.087172 89.470905 
" clip-path="url(#pbbeab41465)" style="fill: none; stroke: #e6e1d6; stroke-width: 0.8; stroke-linecap: square"/>
     </g>
     <g id="line2d_20">
      <g>
       <use xlink:href="#m7a968ebb51" x="56.262828" y="89.470905" style="fill: #555555; stroke: #555555; stroke-width: 0.8"/>
      </g>
     </g>
     <g id="text_14">
      <!-- 5.25 -->
      <g style="fill: #b91c1c" transform="translate(29.0815 95.083155) scale(0.105 -0.105)">
       <use xlink:href="#NotoNaskhArabic-Regular-4d1"/>
       <use xlink:href="#NotoNaskhArabic-Regular-514" transform="translate(57.203125 0)"/>
       <use xlink:href="#NotoNaskhArabic-Regular-4ce" transform="translate(77.796875 0)"/>
       <use xlink:href="#NotoNaskhArabic-Regular-4d1" transform="translate(135 0)"/>
      </g>
     </g>
    </g>
    <g id="ytick_8">
     <g id="line2d_21">
      <path d="M 56.262828 60.950033 
L 572.087172 60.950033 
" clip-path="url(#pbbeab41465)" style="fill: none; stroke: #e6e1d6; stroke-width: 0.8; stroke-linecap: square"/>
     </g>
     <g id="line2d_22">
      <g>
       <use xlink:href="#m7a968ebb51" x="56.262828" y="60.950033" style="fill: #555555; stroke: #555555; stroke-width: 0.8"/>
      </g>
     </g>
     <g id="text_15">
      <!-- 5.50 -->
      <g style="fill: #b91c1c" transform="translate(29.0815 66.562283) scale(0.105 -0.105)">
       <use xlink:href="#NotoNaskhArabic-Regular-4d1"/>
       <use xlink:href="#NotoNaskhArabic-Regular-514" transform="translate(57.203125 0)"/>
       <use xlink:href="#NotoNaskhArabic-Regular-4d1" transform="translate(77.796875 0)"/>
       <use xlink:href="#NotoNaskhArabic-Regular-4cc" transform="translate(135 0)"/>
      </g>
     </g>
    </g>
    <g id="text_16">
     <!-- (%) ﺔﻟﺎﻄﺒﻟﺍ ﻝﺪﻌﻣ -->
     <g style="fill: #b91c1c" transform="translate(18.4245 195.82484) rotate(-90) scale(0.105 -0.105)">
      <defs>
       <path id="NotoNaskhArabic-Regular-1e5" d="M 2291 0 
Q 2035 0 1753 48 
Q 1472 96 1209 182 
Q 947 269 749 384 
Q 602 179 422 89 
Q 243 0 0 0 
Q -51 0 -51 51 
L -51 435 
Q -51 486 0 486 
Q 243 486 409 604 
Q 576 723 698 960 
Q 813 1171 880 1308 
Q 947 1446 1004 1555 
Q 1062 1664 1152 1779 
Q 1312 1990 1478 2083 
Q 1645 2176 1830 2176 
Q 2016 2176 2201 1945 
Q 2387 1715 2502 1357 
Q 2618 1005 2618 666 
Q 2618 467 2547 307 
Q 2477 147 2291 0 
z
M 2150 486 
Q 2144 781 2061 1065 
Q 1978 1350 1875 1498 
Q 1805 1606 1728 1606 
Q 1491 1606 1286 1318 
Q 1235 1242 1161 1117 
Q 1088 992 998 806 
Q 1459 563 2150 486 
z
" transform="scale(0.015625)"/>
       <path id="NotoNaskhArabic-Regular-135" d="M 6 0 
Q -51 0 -51 58 
L -51 429 
Q -51 486 6 486 
Q 672 486 1101 640 
L 986 787 
Q 864 973 771 1094 
Q 678 1216 621 1280 
Q 506 1427 410 1491 
L 307 1427 
Q 192 1555 192 1709 
Q 192 1862 297 1974 
Q 403 2086 566 2172 
Q 730 2259 902 2310 
Q 1158 2394 1446 2394 
Q 1722 2394 1936 2288 
Q 2150 2182 2272 2003 
Q 2400 1824 2400 1594 
Q 2400 1293 2243 1049 
Q 2086 806 1830 602 
Q 2099 486 2694 486 
Q 2758 486 2758 429 
L 2758 58 
Q 2758 0 2694 0 
Q 2259 0 1955 83 
Q 1651 166 1402 346 
Q 1050 166 723 83 
Q 397 0 6 0 
z
M 1478 845 
Q 1696 992 1821 1152 
Q 1946 1312 1946 1459 
Q 1946 1638 1811 1753 
Q 1677 1869 1466 1869 
Q 1075 1869 710 1677 
Q 947 1491 1325 1018 
Q 1395 934 1478 845 
z
" transform="scale(0.015625)"/>
       <path id="NotoNaskhArabic-Regular-b6" d="M 998 0 
Q 218 0 218 403 
Q 218 621 333 742 
Q 493 614 697 550 
Q 902 486 1203 486 
Q 1606 486 2086 621 
Q 1926 909 1795 1209 
Q 1664 1510 1587 1760 
Q 1510 2010 1510 2125 
Q 1510 2445 1850 2547 
Q 1997 2003 2144 1564 
Q 2291 1126 2509 819 
Q 2637 634 2771 560 
Q 2906 486 3085 486 
Q 3142 486 3142 435 
L 3142 51 
Q 3142 0 3085 0 
Q 2829 0 2633 86 
Q 2438 173 2291 333 
Q 1709 0 998 0 
z
" transform="scale(0.015625)"/>
       <path id="NotoNaskhArabic-Regular-1bd" d="M 1594 -1677 
Q 1050 -1677 742 -1363 
Q 435 -1050 435 -474 
Q 435 -346 444 -237 
Q 454 -128 480 9 
Q 506 147 557 358 
L 794 301 
Q 723 6 723 -154 
Q 723 -621 956 -883 
Q 1190 -1146 1606 -1146 
Q 1914 -1146 2240 -1040 
Q 2566 -934 2816 -749 
Q 3072 -563 3174 -346 
L 3008 685 
Q 2944 1094 2867 1568 
Q 2790 2042 2720 2493 
Q 2650 2944 2608 3289 
Q 2566 3635 2566 3795 
Q 2566 4013 2665 4131 
Q 2765 4250 2982 4294 
Q 3027 4154 3091 3936 
Q 3155 3718 3213 3533 
L 3066 3405 
L 3283 1408 
Q 3347 928 3379 550 
Q 3411 173 3411 -109 
Q 3411 -499 3164 -860 
Q 2918 -1222 2483 -1446 
Q 2054 -1677 1594 -1677 
z
" transform="scale(0.015625)"/>
       <path id="NotoNaskhArabic-Regular-554" transform="scale(0.015625)"/>
       <path id="NotoNaskhArabic-Regular-25" d="M 0 0 
Q -51 0 -51 51 
L -51 435 
Q -51 486 0 486 
Q 467 486 666 666 
Q 723 717 812 870 
Q 902 1024 1075 1350 
Q 1133 1459 1274 1459 
Q 1350 1459 1434 1408 
Q 1363 1242 1286 1069 
Q 1210 896 1120 730 
Q 1344 595 1526 540 
Q 1709 486 1926 486 
Q 1978 486 1978 435 
L 1978 51 
Q 1978 0 1926 0 
Q 1331 0 915 378 
Q 890 339 864 304 
Q 838 269 806 237 
Q 742 154 502 77 
Q 262 0 0 0 
z
M 1037 -1325 
Q 896 -1216 780 -1110 
Q 665 -1005 576 -902 
Q 864 -627 1024 -435 
Q 1248 -672 1446 -857 
Q 1293 -1069 1037 -1325 
z
" transform="scale(0.015625)"/>
       <path id="NotoNaskhArabic-Regular-125" d="M 0 0 
Q -51 0 -51 51 
L -51 435 
Q -51 486 0 486 
Q 141 493 275 493 
Q 410 493 550 493 
Q 653 634 755 768 
Q 858 902 960 1030 
Q 755 2176 652 2851 
Q 550 3526 544 3789 
Q 544 4000 643 4121 
Q 742 4243 966 4294 
Q 998 4173 1046 4013 
Q 1094 3853 1197 3533 
L 1030 3392 
Q 1037 3283 1056 3097 
Q 1075 2912 1097 2710 
Q 1120 2509 1136 2349 
Q 1152 2189 1158 2131 
Q 1190 1811 1203 1606 
Q 1216 1402 1222 1331 
Q 1677 1830 2077 2096 
Q 2477 2362 2771 2362 
Q 2950 2362 3216 2214 
Q 3482 2067 3693 1837 
Q 3898 1600 3898 1427 
Q 3898 947 3450 634 
Q 3731 486 4083 486 
Q 4134 486 4134 435 
L 4134 51 
Q 4134 0 4083 0 
Q 3795 0 3510 121 
Q 3226 243 3078 422 
Q 2643 224 1868 112 
Q 1094 0 0 0 
z
M 909 499 
Q 1542 525 2003 585 
Q 2464 646 2758 755 
Q 2906 806 3117 905 
Q 3328 1005 3603 1146 
Q 3418 1466 3155 1648 
Q 2893 1830 2611 1830 
Q 2323 1830 1875 1478 
Q 1427 1126 909 499 
z
" transform="scale(0.015625)"/>
       <path id="NotoNaskhArabic-Regular-6" d="M 877 0 
Q 858 19 858 70 
Q 858 134 874 230 
Q 890 326 915 406 
Q 941 486 954 486 
Q 1139 486 1350 492 
Q 1562 499 1792 512 
Q 2022 525 2262 550 
Q 2502 576 2733 614 
Q 2605 858 2397 1130 
Q 2189 1402 1926 1664 
Q 1670 1933 1369 2173 
Q 1069 2413 768 2586 
L 531 2573 
Q 416 2682 317 2822 
Q 218 2963 218 3104 
Q 218 3213 259 3309 
Q 301 3405 442 3475 
Q 723 3283 1133 2931 
Q 1421 2688 1718 2403 
Q 2016 2118 2234 1856 
Q 2323 1754 2448 1565 
Q 2573 1376 2694 1165 
Q 2816 954 2899 781 
Q 2982 608 2982 538 
Q 2982 493 2950 390 
Q 2918 288 2873 201 
Q 2829 115 2790 109 
Q 2694 96 2496 73 
Q 2298 51 2086 35 
Q 1875 19 1728 13 
Q 1670 13 1552 9 
Q 1434 6 1293 3 
Q 1152 0 1040 0 
Q 928 0 877 0 
z
" transform="scale(0.015625)"/>
       <path id="NotoNaskhArabic-Regular-1c2" d="M 1478 422 
L 1050 454 
Q 1331 672 1580 886 
Q 1830 1101 2016 1325 
Q 2202 1549 2314 1795 
Q 2426 2042 2426 2317 
Q 2426 2413 2406 2592 
Q 2387 2771 2355 2988 
Q 2323 3206 2291 3411 
Q 2259 3616 2240 3776 
Q 2221 3936 2221 4000 
Q 2221 4173 2333 4269 
Q 2445 4365 2643 4403 
Q 2694 4205 2742 4035 
Q 2790 3866 2874 3642 
L 2701 3494 
Q 2701 3462 2710 3308 
Q 2720 3155 2726 2966 
Q 2733 2778 2739 2627 
Q 2746 2477 2746 2445 
Q 2746 2106 2637 1805 
Q 2528 1504 2349 1248 
Q 2170 992 1942 784 
Q 1715 576 1478 422 
z
" transform="scale(0.015625)"/>
       <path id="NotoNaskhArabic-Regular-215" d="M 3040 0 
Q 2656 0 2416 147 
Q 2176 294 2138 557 
L 2112 691 
L 1882 250 
Q 1651 275 1520 291 
Q 1389 307 1305 332 
Q 1222 358 1126 397 
Q 1011 442 873 515 
Q 736 589 633 675 
Q 531 762 531 838 
Q 531 896 572 1014 
Q 614 1133 668 1251 
Q 723 1370 762 1434 
Q 813 1523 922 1632 
Q 1088 1792 1344 1955 
Q 1600 2118 1875 2227 
L 1850 2400 
Q 2074 2598 2317 2733 
Q 2330 2214 2349 1696 
Q 2368 1178 2374 659 
Q 2675 486 3040 486 
Q 3098 486 3098 435 
L 3098 51 
Q 3098 0 3040 0 
z
M 2099 768 
Q 2061 1018 2019 1283 
Q 1978 1549 1933 1811 
Q 1171 1555 845 1139 
Q 1018 986 1219 909 
Q 1421 832 1645 800 
Q 1754 787 1869 780 
Q 1984 774 2099 768 
z
M 2067 2995 
Q 1926 3104 1820 3203 
Q 1715 3302 1645 3392 
Q 1677 3424 1779 3533 
Q 1881 3642 2054 3821 
Q 2093 3782 2192 3686 
Q 2291 3590 2451 3437 
Q 2329 3245 2067 2995 
z
M 1107 2906 
Q 966 3021 857 3120 
Q 749 3219 678 3296 
Q 845 3456 1094 3731 
Q 1133 3686 1229 3590 
Q 1325 3494 1485 3347 
Q 1427 3251 1331 3142 
Q 1235 3034 1107 2906 
z
" transform="scale(0.015625)"/>
       <path id="DejaVuSans-b" d="M 1984 4856 
Q 1566 4138 1362 3434 
Q 1159 2731 1159 2009 
Q 1159 1288 1364 580 
Q 1569 -128 1984 -844 
L 1484 -844 
Q 1016 -109 783 600 
Q 550 1309 550 2009 
Q 550 2706 781 3412 
Q 1013 4119 1484 4856 
L 1984 4856 
z
" transform="scale(0.015625)"/>
       <path id="DejaVuSans-8" d="M 4653 2053 
Q 4381 2053 4226 1822 
Q 4072 1591 4072 1178 
Q 4072 772 4226 539 
Q 4381 306 4653 306 
Q 4919 306 5073 539 
Q 5228 772 5228 1178 
Q 5228 1588 5073 1820 
Q 4919 2053 4653 2053 
z
M 4653 2450 
Q 5147 2450 5437 2106 
Q 5728 1763 5728 1178 
Q 5728 594 5436 251 
Q 5144 -91 4653 -91 
Q 4153 -91 3862 251 
Q 3572 594 3572 1178 
Q 3572 1766 3864 2108 
Q 4156 2450 4653 2450 
z
M 1428 4353 
Q 1159 4353 1004 4120 
Q 850 3888 850 3481 
Q 850 3069 1003 2837 
Q 1156 2606 1428 2606 
Q 1700 2606 1854 2837 
Q 2009 3069 2009 3481 
Q 2009 3884 1853 4118 
Q 1697 4353 1428 4353 
z
M 4250 4750 
L 4750 4750 
L 1831 -91 
L 1331 -91 
L 4250 4750 
z
M 1428 4750 
Q 1922 4750 2215 4408 
Q 2509 4066 2509 3481 
Q 2509 2891 2217 2550 
Q 1925 2209 1428 2209 
Q 931 2209 642 2551 
Q 353 2894 353 3481 
Q 353 4063 643 4406 
Q 934 4750 1428 4750 
z
" transform="scale(0.015625)"/>
       <path id="DejaVuSans-c" d="M 513 4856 
L 1013 4856 
Q 1481 4119 1714 3412 
Q 1947 2706 1947 2009 
Q 1947 1309 1714 600 
Q 1481 -109 1013 -844 
L 513 -844 
Q 928 -128 1133 580 
Q 1338 1288 1338 2009 
Q 1338 2731 1133 3434 
Q 928 4138 513 4856 
z
" transform="scale(0.015625)"/>
      </defs>
      <use xlink:href="#NotoNaskhArabic-Regular-1e5"/>
      <use xlink:href="#NotoNaskhArabic-Regular-135" transform="translate(45.59375 0)"/>
      <use xlink:href="#NotoNaskhArabic-Regular-b6" transform="translate(87 0)"/>
      <use xlink:href="#NotoNaskhArabic-Regular-1bd" transform="translate(134.40625 0)"/>
      <use xlink:href="#NotoNaskhArabic-Regular-554" transform="translate(193.90625 0)"/>
      <use xlink:href="#NotoNaskhArabic-Regular-3" transform="translate(216 0)"/>
      <use xlink:href="#NotoNaskhArabic-Regular-1c1" transform="translate(239.796875 0)"/>
      <use xlink:href="#NotoNaskhArabic-Regular-25" transform="translate(261 0)"/>
      <use xlink:href="#NotoNaskhArabic-Regular-125" transform="translate(290.203125 0)"/>
      <use xlink:href="#NotoNaskhArabic-Regular-6" transform="translate(353.109375 0)"/>
      <use xlink:href="#NotoNaskhArabic-Regular-1c2" transform="translate(353.109375 0)"/>
      <use xlink:href="#NotoNaskhArabic-Regular-215" transform="translate(404.90625 0)"/>
      <use xlink:href="#NotoNaskhArabic-Regular-554" transform="translate(451.609375 0)"/>
      <use xlink:href="#DejaVuSans-b" transform="translate(473.703125 0)"/>
      <use xlink:href="#DejaVuSans-8" transform="translate(512.71875 0)"/>
      <use xlink:href="#DejaVuSans-c" transform="translate(607.734375 0)"/>
     </g>
    </g>
   </g>
   <g id="line2d_23">
    <path d="M 79.709389 64.987047 
L 122.3395 74.988049 
L 164.969611 91.037576 
L 207.599722 118.407305 
L 250.229833 125.582882 
L 292.859944 151.585394 
L 335.490056 163.413505 
L 378.120167 185.975657 
L 420.750278 186.419082 
L 463.380389 214.604326 
L 506.0105 245.025566 
L 548.640611 258.753882 
" clip-path="url(#pbbeab41465)" style="fill: none; stroke: #b91c1c; stroke-width: 2.2; stroke-linecap: square"/>
    <defs>
     <path id="m1e7e4dda89" d="M 0 2 
C 0.530406 2 1.03916 1.789267 1.414214 1.414214 
C 1.789267 1.03916 2 0.530406 2 0 
C 2 -0.530406 1.789267 -1.03916 1.414214 -1.414214 
C 1.03916 -1.789267 0.530406 -2 0 -2 
C -0.530406 -2 -1.03916 -1.789267 -1.414214 -1.414214 
C -1.789267 -1.03916 -2 -0.530406 -2 0 
C -2 0.530406 -1.789267 1.03916 -1.414214 1.414214 
C -1.03916 1.789267 -0.530406 2 0 2 
z
" style="stroke: #b91c1c"/>
    </defs>
    <g clip-path="url(#pbbeab41465)">
     <use xlink:href="#m1e7e4dda89" x="79.709389" y="64.987047" style="fill: #b91c1c; stroke: #b91c1c"/>
     <use xlink:href="#m1e7e4dda89" x="122.3395" y="74.988049" style="fill: #b91c1c; stroke: #b91c1c"/>
     <use xlink:href="#m1e7e4dda89" x="164.969611" y="91.037576" style="fill: #b91c1c; stroke: #b91c1c"/>
     <use xlink:href="#m1e7e4dda89" x="207.599722" y="118.407305" style="fill: #b91c1c; stroke: #b91c1c"/>
     <use xlink:href="#m1e7e4dda89" x="250.229833" y="125.582882" style="fill: #b91c1c; stroke: #b91c1c"/>
     <use xlink:href="#m1e7e4dda89" x="292.859944" y="151.585394" style="fill: #b91c1c; stroke: #b91c1c"/>
     <use xlink:href="#m1e7e4dda89" x="335.490056" y="163.413505" style="fill: #b91c1c; stroke: #b91c1c"/>
     <use xlink:href="#m1e7e4dda89" x="378.120167" y="185.975657" style="fill: #b91c1c; stroke: #b91c1c"/>
     <use xlink:href="#m1e7e4dda89" x="420.750278" y="186.419082" style="fill: #b91c1c; stroke: #b91c1c"/>
     <use xlink:href="#m1e7e4dda89" x="463.380389" y="214.604326" style="fill: #b91c1c; stroke: #b91c1c"/>
     <use xlink:href="#m1e7e4dda89" x="506.0105" y="245.025566" style="fill: #b91c1c; stroke: #b91c1c"/>
     <use xlink:href="#m1e7e4dda89" x="548.640611" y="258.753882" style="fill: #b91c1c; stroke: #b91c1c"/>
    </g>
   </g>
   <g id="patch_3">
    <path d="M 56.262828 268.442224 
L 56.262828 55.298705 
" style="fill: none; stroke: #1f2937; stroke-width: 0.8; stroke-linejoin: miter; stroke-linecap: square"/>
   </g>
   <g id="patch_4">
    <path d="M 572.087172 268.442224 
L 572.087172 55.298705 
" style="fill: none; stroke: #1f2937; stroke-width: 0.8; stroke-linejoin: miter; stroke-linecap: square"/>
   </g>
   <g id="patch_5">
    <path d="M 56.262828 268.442224 
L 572.087172 268.442224 
" style="fill: none; stroke: #1f2937; stroke-width: 0.8; stroke-linejoin: miter; stroke-linecap: square"/>
   </g>
   <g id="text_17">
    <!-- :ﺎﻌﻣ ﺔﻛﺭﺎﺸﻤﻟﺍ ﻊﺟﺍﺮﺗ ﻊﻣ ﺔﻟﺎﻄﺒﻟﺍ ﺽﺎﻔﺨﻧﺍ -->
    <g style="fill: #1f2937" transform="translate(274.107438 16.2865) scale(0.085 -0.085)">
     <defs>
      <path id="NotoNaskhArabic-Bold-3" d="M 774 58 
Q 742 717 710 1216 
Q 678 1715 646 2134 
Q 614 2554 576 2950 
Q 538 3347 493 3808 
Q 474 3968 566 4089 
Q 659 4211 822 4281 
Q 986 4352 1178 4352 
Q 1229 4154 1296 3955 
Q 1363 3757 1440 3565 
L 1216 3398 
Q 1229 2867 1222 2035 
Q 1216 1203 1184 109 
L 774 58 
z
" transform="scale(0.015625)"/>
      <path id="NotoNaskhArabic-Bold-1ea" d="M 0 58 
Q -51 58 -51 109 
L -51 762 
Q -51 813 0 813 
Q 320 813 640 867 
Q 960 922 1139 998 
Q 1075 1146 976 1328 
Q 877 1510 819 1613 
Q 755 1734 710 1833 
Q 666 1933 666 2016 
Q 666 2176 838 2361 
Q 1011 2547 1248 2669 
Q 1293 2470 1347 2217 
Q 1402 1965 1446 1702 
Q 1485 1504 1501 1376 
Q 1517 1248 1517 1184 
Q 1517 1037 1443 822 
Q 1370 608 1267 410 
Q 685 58 0 58 
z
M 902 3052 
Q 576 3321 410 3513 
Q 557 3660 675 3785 
Q 794 3910 890 4025 
Q 960 3948 1075 3833 
Q 1190 3718 1350 3564 
Q 1274 3456 1162 3328 
Q 1050 3200 902 3052 
z
" transform="scale(0.015625)"/>
      <path id="NotoNaskhArabic-Bold-a3" d="M 0 58 
Q -51 58 -51 109 
L -51 762 
Q -51 813 0 813 
Q 467 813 793 829 
Q 1120 845 1427 934 
Q 1702 1018 1897 1069 
Q 2093 1120 2202 1146 
Q 2118 1197 2032 1251 
Q 1946 1306 1856 1363 
Q 1651 1498 1513 1555 
Q 1376 1613 1235 1613 
Q 1043 1613 870 1558 
Q 698 1504 480 1363 
Q 422 1421 377 1533 
Q 333 1645 333 1747 
Q 333 2029 582 2205 
Q 832 2381 1210 2381 
Q 1414 2381 1603 2310 
Q 1792 2240 2029 2080 
Q 2317 1882 2560 1763 
Q 2803 1645 3136 1555 
Q 3302 1517 3500 1494 
Q 3699 1472 3936 1472 
L 3654 934 
Q 3578 941 3501 941 
Q 3424 941 3347 947 
Q 3411 890 3488 867 
Q 3565 845 3661 832 
Q 3808 826 3965 822 
Q 4122 819 4262 813 
Q 4314 813 4314 762 
L 4314 109 
Q 4314 58 4262 58 
Q 4032 58 3782 80 
Q 3533 102 3325 150 
Q 3117 198 3021 262 
Q 2893 358 2838 537 
Q 2784 717 2746 877 
Q 2624 851 2525 803 
Q 2426 755 2304 675 
Q 2182 595 1990 467 
Q 1683 262 1395 176 
Q 1107 90 774 74 
Q 442 58 0 58 
z
M 1894 2873 
Q 1568 3142 1402 3334 
Q 1549 3481 1667 3606 
Q 1786 3731 1882 3846 
Q 1952 3769 2067 3654 
Q 2182 3539 2342 3385 
Q 2266 3277 2154 3149 
Q 2042 3021 1894 2873 
z
" transform="scale(0.015625)"/>
      <path id="NotoNaskhArabic-Bold-145" d="M 6 58 
Q -51 58 -51 115 
L -51 755 
Q -51 813 6 813 
Q 115 813 227 816 
Q 339 819 454 819 
Q 358 973 358 1114 
Q 358 1197 374 1337 
Q 390 1478 419 1606 
Q 448 1734 474 1786 
Q 595 2003 771 2179 
Q 947 2355 1152 2457 
Q 1357 2560 1549 2560 
Q 1722 2560 1898 2368 
Q 2074 2176 2182 1875 
Q 2291 1568 2291 1306 
Q 2291 1056 2150 819 
Q 2285 819 2422 816 
Q 2560 813 2694 813 
Q 2746 813 2746 762 
L 2746 109 
Q 2746 58 2694 58 
Q 1882 58 1325 269 
Q 1030 147 716 102 
Q 403 58 6 58 
z
M 1299 794 
Q 1690 902 1933 1107 
Q 1888 1280 1795 1446 
Q 1702 1613 1613 1696 
Q 1549 1773 1478 1773 
Q 1146 1773 704 1178 
Q 819 1043 979 944 
Q 1139 845 1299 794 
z
M 1459 3084 
Q 1133 3353 967 3545 
Q 1114 3692 1232 3817 
Q 1351 3942 1447 4057 
Q 1517 3980 1632 3865 
Q 1747 3750 1907 3596 
Q 1831 3488 1719 3360 
Q 1607 3232 1459 3084 
z
" transform="scale(0.015625)"/>
      <path id="NotoNaskhArabic-Bold-4" d="M 1901 58 
Q 1517 58 1283 186 
Q 1050 314 938 528 
Q 826 742 794 1018 
Q 781 1139 749 1424 
Q 717 1709 681 2073 
Q 646 2438 608 2809 
Q 570 3181 538 3481 
Q 506 3782 486 3930 
Q 845 4166 1248 4352 
Q 1274 3635 1296 2918 
Q 1318 2202 1338 1478 
L 1363 979 
Q 1478 883 1606 848 
Q 1734 813 1914 813 
Q 1952 813 1952 762 
L 1952 109 
Q 1952 58 1901 58 
z
" transform="scale(0.015625)"/>
      <path id="NotoNaskhArabic-Bold-11b" d="M 1606 -1613 
Q 1037 -1613 736 -1277 
Q 435 -941 435 -301 
Q 435 32 595 627 
L 877 557 
Q 787 256 787 45 
Q 787 -858 1626 -858 
Q 2131 -858 2486 -726 
Q 2842 -595 3181 -288 
Q 2957 134 2797 438 
Q 2637 742 2637 922 
Q 2637 1408 3283 1728 
Q 3283 1722 3318 1498 
Q 3354 1274 3418 922 
L 3590 864 
Q 4864 2560 5619 2560 
Q 5779 2560 5968 2470 
Q 6157 2381 6345 2233 
Q 6534 2086 6688 1901 
Q 6918 1632 6918 1446 
Q 6918 1030 6649 704 
Q 6381 378 5850 192 
Q 5312 0 4742 0 
Q 4448 0 4147 38 
Q 3846 77 3526 147 
Q 3526 102 3529 54 
Q 3533 6 3533 -45 
Q 3533 -474 3277 -838 
Q 3021 -1203 2579 -1408 
Q 2362 -1510 2115 -1561 
Q 1869 -1613 1606 -1613 
z
M 4806 704 
Q 5267 704 5670 813 
Q 6074 922 6541 1146 
Q 5978 1805 5466 1805 
Q 5242 1805 4982 1648 
Q 4723 1491 4473 1254 
Q 4224 1018 4006 768 
Q 4243 742 4444 723 
Q 4646 704 4806 704 
z
M 4780 3001 
Q 4454 3270 4288 3462 
Q 4435 3609 4553 3734 
Q 4672 3859 4768 3974 
Q 4838 3897 4953 3782 
Q 5068 3667 5228 3513 
Q 5152 3405 5040 3277 
Q 4928 3149 4780 3001 
z
" transform="scale(0.015625)"/>
      <path id="NotoNaskhArabic-Bold-554" transform="scale(0.015625)"/>
      <path id="NotoNaskhArabic-Bold-1c1" d="M 0 58 
Q -51 58 -51 109 
L -51 762 
Q -51 813 0 813 
Q 282 813 672 960 
Q 646 1146 624 1334 
Q 602 1523 570 1709 
Q 544 1894 441 2448 
Q 339 3002 173 3930 
Q 339 4045 534 4147 
Q 730 4250 934 4352 
Q 947 3827 960 3356 
Q 973 2886 986 2477 
Q 998 2067 1004 1718 
Q 1011 1370 1011 1069 
Q 1011 634 762 256 
Q 698 166 490 112 
Q 282 58 0 58 
z
" transform="scale(0.015625)"/>
      <path id="NotoNaskhArabic-Bold-25" d="M 0 58 
Q -51 58 -51 109 
L -51 762 
Q -51 813 0 813 
Q 416 813 627 966 
Q 710 1024 774 1145 
Q 838 1267 922 1427 
Q 1024 1632 1101 1680 
Q 1178 1728 1280 1728 
Q 1427 1728 1536 1638 
Q 1466 1478 1392 1312 
Q 1318 1146 1248 979 
Q 1562 813 1926 813 
Q 1978 813 1978 762 
L 1978 109 
Q 1978 58 1926 58 
Q 1440 58 998 499 
Q 960 435 925 384 
Q 890 333 858 288 
Q 774 192 550 125 
Q 326 58 0 58 
z
M 1088 -1427 
Q 915 -1286 793 -1171 
Q 672 -1056 588 -966 
Q 716 -838 838 -713 
Q 960 -589 1075 -454 
Q 1241 -646 1536 -915 
Q 1465 -1017 1350 -1148 
Q 1235 -1280 1088 -1427 
z
" transform="scale(0.015625)"/>
      <path id="NotoNaskhArabic-Bold-125" d="M 0 58 
Q -51 58 -51 109 
L -51 762 
Q -51 813 0 813 
Q 166 819 332 819 
Q 499 819 659 819 
Q 730 915 794 1008 
Q 858 1101 922 1184 
Q 768 1933 669 2406 
Q 570 2880 515 3149 
Q 461 3418 438 3546 
Q 416 3674 416 3725 
Q 416 3987 605 4169 
Q 794 4352 1069 4352 
Q 1133 4134 1197 3939 
Q 1261 3744 1331 3565 
L 1126 3411 
Q 1146 3130 1168 2842 
Q 1190 2554 1210 2272 
Q 1222 2106 1238 1939 
Q 1254 1773 1261 1606 
Q 2170 2669 2803 2669 
Q 3066 2669 3354 2512 
Q 3642 2355 3872 2074 
Q 4109 1786 4109 1626 
Q 4109 1286 3885 986 
Q 4205 813 4570 813 
Q 4627 813 4627 762 
L 4627 109 
Q 4627 58 4570 58 
Q 4256 58 3952 202 
Q 3648 346 3424 602 
Q 2944 346 2128 202 
Q 1312 58 0 58 
z
M 1158 832 
Q 1190 832 1321 838 
Q 1453 845 1632 854 
Q 1811 864 1990 880 
Q 2170 896 2291 915 
Q 2458 947 2624 979 
Q 2790 1011 3040 1075 
Q 3290 1139 3693 1254 
Q 3475 1498 3305 1635 
Q 3136 1773 2985 1830 
Q 2835 1888 2650 1888 
Q 2061 1888 1158 832 
z
" transform="scale(0.015625)"/>
      <path id="NotoNaskhArabic-Bold-6" d="M 896 0 
Q 877 0 877 77 
Q 877 166 893 316 
Q 909 467 934 585 
Q 960 704 979 704 
Q 1158 704 1372 710 
Q 1587 717 1818 730 
Q 2048 742 2288 768 
Q 2528 794 2752 832 
Q 2522 1114 2320 1338 
Q 2118 1562 1894 1760 
Q 1677 1958 1424 2147 
Q 1171 2336 832 2541 
L 595 2528 
Q 429 2611 323 2752 
Q 218 2893 218 3098 
Q 218 3277 314 3414 
Q 410 3552 570 3642 
Q 717 3546 880 3411 
Q 1043 3277 1222 3110 
Q 1440 2918 1677 2684 
Q 1914 2451 2134 2217 
Q 2355 1984 2502 1792 
Q 2598 1670 2713 1513 
Q 2829 1357 2934 1203 
Q 3040 1050 3107 931 
Q 3174 813 3174 762 
Q 3174 717 3142 614 
Q 3110 512 3065 397 
Q 3021 282 2979 198 
Q 2938 115 2918 109 
Q 2797 90 2601 70 
Q 2406 51 2195 38 
Q 1984 26 1805 19 
Q 1747 19 1622 16 
Q 1498 13 1354 9 
Q 1210 6 1085 3 
Q 960 0 896 0 
z
" transform="scale(0.015625)"/>
      <path id="NotoNaskhArabic-Bold-1c2" d="M 1478 506 
L 1133 621 
Q 1414 838 1638 1052 
Q 1862 1267 2022 1485 
Q 2182 1709 2268 1955 
Q 2355 2202 2355 2477 
Q 2355 2573 2326 2768 
Q 2298 2963 2256 3187 
Q 2214 3411 2185 3606 
Q 2157 3802 2157 3891 
Q 2157 4154 2345 4307 
Q 2534 4461 2829 4461 
Q 2893 4224 2947 4051 
Q 3002 3878 3085 3674 
L 2874 3514 
Q 2880 3430 2886 3267 
Q 2893 3104 2896 2963 
Q 2899 2822 2899 2790 
Q 2899 2381 2755 2003 
Q 2611 1626 2362 1306 
Q 2176 1069 1958 877 
Q 1741 685 1478 506 
z
" transform="scale(0.015625)"/>
      <path id="NotoNaskhArabic-Bold-215" d="M 3302 58 
Q 2912 58 2675 182 
Q 2438 307 2393 531 
L 2336 768 
L 2080 243 
Q 1881 262 1711 288 
Q 1542 314 1395 365 
Q 1235 422 1075 518 
Q 915 614 806 716 
Q 697 819 697 890 
Q 697 941 738 1078 
Q 780 1216 838 1369 
Q 896 1523 940 1600 
Q 998 1728 1184 1882 
Q 1363 2042 1593 2192 
Q 1824 2342 1984 2413 
L 1952 2669 
Q 2118 2797 2223 2873 
Q 2329 2950 2418 3011 
Q 2508 3072 2617 3136 
L 2617 986 
Q 2924 813 3302 813 
Q 3353 813 3353 762 
L 3353 109 
Q 3353 58 3302 58 
z
M 2272 1005 
Q 2233 1158 2188 1366 
Q 2144 1574 2086 1837 
Q 1491 1638 1152 1318 
Q 1356 1178 1542 1123 
Q 1728 1069 1894 1043 
Q 2067 1011 2272 1005 
z
M 2138 3257 
Q 2003 3366 1894 3462 
Q 1786 3558 1696 3654 
Q 1933 3872 2125 4102 
Q 2182 4038 2284 3942 
Q 2387 3846 2528 3705 
Q 2355 3469 2138 3257 
z
M 1280 3161 
Q 1005 3385 838 3565 
Q 947 3673 1056 3785 
Q 1165 3897 1274 4006 
Q 1389 3872 1670 3609 
Q 1510 3379 1280 3161 
z
" transform="scale(0.015625)"/>
      <path id="NotoNaskhArabic-Bold-1e5" d="M 2349 0 
Q 1920 0 1488 99 
Q 1056 198 755 358 
Q 602 198 429 128 
Q 256 58 0 58 
Q -51 58 -51 109 
L -51 762 
Q -51 813 0 813 
Q 525 813 774 1286 
Q 890 1517 982 1680 
Q 1075 1843 1146 1939 
Q 1306 2157 1446 2249 
Q 1587 2342 1773 2342 
Q 2003 2342 2224 2102 
Q 2445 1862 2586 1466 
Q 2726 1082 2726 723 
Q 2726 557 2611 339 
Q 2496 122 2349 0 
z
M 2138 704 
Q 2112 941 2035 1142 
Q 1958 1344 1862 1466 
Q 1760 1587 1677 1587 
Q 1536 1587 1427 1472 
Q 1325 1363 1120 960 
Q 1325 870 1577 803 
Q 1830 736 2138 704 
z
" transform="scale(0.015625)"/>
      <path id="NotoNaskhArabic-Bold-134" d="M 2349 -1926 
Q 1856 -1926 1478 -1760 
Q 1101 -1594 896 -1293 
Q 691 -979 691 -589 
Q 691 -198 867 134 
Q 1043 467 1434 781 
Q 1427 794 1395 835 
Q 1363 877 1331 922 
Q 1261 1011 1158 1136 
Q 1056 1261 947 1370 
Q 890 1421 835 1472 
Q 781 1523 730 1568 
L 608 1485 
Q 442 1670 442 1894 
Q 442 2112 630 2272 
Q 819 2432 1152 2547 
Q 1478 2669 1792 2669 
Q 2080 2669 2320 2544 
Q 2560 2419 2707 2214 
Q 2854 2010 2854 1760 
Q 2854 1293 2323 858 
Q 2598 813 3091 813 
Q 3162 813 3162 755 
L 3162 115 
Q 3162 58 3091 58 
Q 2662 58 2329 154 
Q 1997 250 1728 474 
Q 1024 26 1024 -461 
Q 1024 -813 1357 -1001 
Q 1690 -1190 2323 -1190 
Q 2822 -1190 3590 -1018 
L 3674 -1293 
Q 3283 -1523 3030 -1664 
Q 2778 -1805 2618 -1865 
Q 2458 -1926 2349 -1926 
z
M 1850 1082 
Q 2067 1242 2150 1382 
Q 2214 1491 2214 1613 
Q 2214 1779 2096 1868 
Q 1978 1958 1811 1958 
Q 1651 1958 1497 1926 
Q 1344 1894 1139 1805 
Q 1184 1766 1229 1728 
Q 1274 1690 1325 1638 
Q 1408 1562 1497 1462 
Q 1587 1363 1690 1248 
L 1850 1082 
z
" transform="scale(0.015625)"/>
      <path id="NotoNaskhArabic-Bold-38" d="M 0 58 
Q -51 58 -51 109 
L -51 762 
Q -51 813 0 813 
Q 320 813 640 867 
Q 960 922 1139 998 
Q 1075 1146 976 1328 
Q 877 1510 819 1613 
Q 755 1734 710 1833 
Q 666 1933 666 2016 
Q 666 2176 838 2361 
Q 1011 2547 1248 2669 
Q 1293 2470 1347 2217 
Q 1402 1965 1446 1702 
Q 1485 1504 1501 1376 
Q 1517 1248 1517 1184 
Q 1517 1037 1443 822 
Q 1370 608 1267 410 
Q 685 58 0 58 
z
M 1332 3020 
Q 1197 3129 1088 3225 
Q 980 3321 890 3417 
Q 1127 3635 1319 3865 
Q 1376 3801 1478 3705 
Q 1581 3609 1722 3468 
Q 1549 3232 1332 3020 
z
M 474 2924 
Q 199 3148 32 3328 
Q 141 3436 250 3548 
Q 359 3660 468 3769 
Q 583 3635 864 3372 
Q 704 3142 474 2924 
z
" transform="scale(0.015625)"/>
      <path id="NotoNaskhArabic-Bold-d4" d="M 653 -1248 
Q 544 -1248 304 -1107 
Q 64 -966 -218 -730 
L -115 -461 
Q 243 -550 531 -550 
Q 1005 -550 1331 -313 
Q 1658 -77 1805 371 
Q 1760 467 1705 566 
Q 1651 666 1587 762 
Q 1299 1203 1203 1414 
Q 1107 1626 1107 1779 
Q 1107 1965 1254 2147 
Q 1402 2330 1638 2451 
Q 1670 2330 1705 2208 
Q 1741 2086 1786 1958 
Q 1926 1555 2006 1299 
Q 2086 1043 2106 934 
Q 2323 813 2586 813 
Q 2637 813 2637 762 
L 2637 109 
Q 2637 58 2586 58 
Q 2349 58 2112 179 
Q 2042 -243 1837 -566 
Q 1632 -890 1328 -1069 
Q 1024 -1248 653 -1248 
z
" transform="scale(0.015625)"/>
      <path id="NotoNaskhArabic-Bold-74" d="M 0 58 
Q -51 58 -51 109 
L -51 762 
Q -51 813 0 813 
Q 467 813 793 829 
Q 1120 845 1427 934 
Q 1702 1018 1897 1069 
Q 2093 1120 2202 1146 
Q 2112 1197 2025 1251 
Q 1939 1306 1856 1363 
Q 1651 1504 1513 1558 
Q 1376 1613 1235 1613 
Q 1043 1613 870 1558 
Q 698 1504 480 1363 
Q 422 1421 377 1533 
Q 333 1645 333 1747 
Q 333 2029 582 2205 
Q 832 2381 1210 2381 
Q 1414 2381 1603 2310 
Q 1792 2240 2029 2080 
Q 2317 1882 2560 1763 
Q 2803 1645 3136 1555 
Q 3302 1517 3500 1494 
Q 3699 1472 3936 1472 
L 3603 794 
Q 3405 813 3273 825 
Q 3142 838 2963 826 
Q 2739 806 2483 704 
Q 2227 602 1990 467 
Q 1741 320 1533 237 
Q 1325 154 1107 115 
Q 890 77 624 67 
Q 358 58 0 58 
z
M 2272 -1107 
Q 2099 -966 1977 -851 
Q 1856 -736 1772 -646 
Q 1900 -518 2022 -393 
Q 2144 -269 2259 -134 
Q 2425 -326 2720 -595 
Q 2649 -697 2534 -828 
Q 2419 -960 2272 -1107 
z
" transform="scale(0.015625)"/>
      <path id="NotoNaskhArabic-Bold-1e4" d="M 2016 0 
Q 1606 0 1257 73 
Q 909 147 685 269 
Q 506 147 346 102 
Q 186 58 0 58 
Q -51 58 -51 109 
L -51 762 
Q -51 813 0 813 
Q 160 813 333 858 
Q 333 870 336 886 
Q 339 902 339 922 
Q 384 1261 573 1597 
Q 762 1933 1018 2131 
Q 1286 2342 1568 2342 
Q 1696 2342 1811 2176 
Q 1862 2093 1929 1942 
Q 1997 1792 2074 1581 
Q 2227 1133 2394 960 
Q 2528 813 2682 813 
Q 2752 813 2752 755 
L 2752 128 
Q 2752 58 2682 58 
Q 2362 58 2106 301 
L 2016 0 
z
M 1818 710 
Q 1606 1133 1549 1664 
Q 979 1440 698 1082 
Q 877 941 1155 851 
Q 1434 762 1818 710 
z
" transform="scale(0.015625)"/>
      <path id="NotoNaskhArabic-Bold-105" d="M 1472 0 
Q 1165 0 736 205 
Q 608 141 406 99 
Q 205 58 0 58 
Q -51 58 -51 109 
L -51 762 
Q -51 813 0 813 
Q 294 813 441 851 
Q 589 890 678 979 
Q 749 1050 813 1149 
Q 877 1248 998 1466 
Q 1037 1536 1110 1581 
Q 1184 1626 1267 1626 
Q 1357 1626 1466 1555 
Q 1382 1363 1308 1171 
Q 1235 979 1158 781 
Q 1331 762 1504 762 
Q 1632 762 1709 771 
Q 1786 781 1965 832 
Q 2016 909 2096 1107 
Q 2176 1306 2317 1696 
Q 2349 1779 2432 1833 
Q 2515 1888 2630 1888 
Q 2765 1888 2854 1818 
Q 2816 1722 2736 1472 
Q 2656 1222 2509 742 
Q 2554 742 2595 742 
Q 2637 742 2682 736 
Q 2912 736 3142 806 
Q 3162 838 3194 915 
Q 3226 992 3283 1146 
Q 3322 1254 3379 1401 
Q 3437 1549 3507 1747 
Q 3546 1837 3632 1891 
Q 3718 1946 3827 1946 
Q 3942 1946 4045 1875 
Q 4006 1773 3942 1581 
Q 3878 1389 3750 986 
Q 4038 813 4518 813 
Q 4570 813 4570 762 
L 4570 109 
Q 4570 58 4518 58 
Q 4262 58 3993 170 
Q 3725 282 3578 442 
Q 3526 301 3468 201 
Q 3411 102 3226 51 
Q 3034 0 2758 0 
Q 2566 0 2240 141 
Q 2150 77 1923 38 
Q 1696 0 1472 0 
z
M 2324 2995 
Q 2189 3104 2093 3196 
Q 1997 3289 1933 3360 
Q 2068 3481 2160 3567 
Q 2253 3654 2304 3718 
Q 2375 3635 2467 3545 
Q 2560 3456 2676 3360 
Q 2541 3212 2451 3119 
Q 2362 3027 2324 2995 
z
M 2784 2444 
Q 2650 2553 2541 2652 
Q 2432 2752 2343 2848 
Q 2439 2937 2547 3046 
Q 2656 3155 2772 3289 
Q 2810 3244 2912 3148 
Q 3015 3052 3175 2899 
Q 3092 2777 2992 2665 
Q 2893 2553 2784 2444 
z
M 1895 2355 
Q 1607 2572 1460 2758 
Q 1568 2867 1677 2979 
Q 1786 3091 1895 3200 
Q 1946 3136 2045 3033 
Q 2144 2931 2285 2803 
Q 2189 2675 2093 2559 
Q 1997 2444 1895 2355 
z
" transform="scale(0.015625)"/>
      <path id="NotoNaskhArabic-Bold-d3" d="M 653 -1248 
Q 544 -1248 304 -1107 
Q 64 -966 -218 -730 
L -115 -461 
Q 243 -550 531 -550 
Q 1005 -550 1331 -313 
Q 1658 -77 1805 371 
Q 1760 467 1705 566 
Q 1651 666 1587 762 
Q 1402 1050 1254 1312 
Q 1107 1574 1107 1779 
Q 1107 1965 1254 2147 
Q 1402 2330 1638 2451 
Q 1677 2317 1731 2137 
Q 1786 1958 1846 1782 
Q 1907 1606 1952 1472 
Q 2035 1235 2089 1004 
Q 2144 774 2144 570 
Q 2144 70 1952 -349 
Q 1760 -768 1421 -1011 
Q 1082 -1248 653 -1248 
z
" transform="scale(0.015625)"/>
      <path id="NotoNaskhArabic-Bold-176" d="M 0 58 
Q -51 58 -51 109 
L -51 762 
Q -51 813 0 813 
Q 845 813 1293 870 
Q 1517 896 1680 937 
Q 1843 979 1952 1030 
Q 1882 1178 1731 1347 
Q 1581 1517 1363 1677 
Q 1254 1766 1094 1872 
Q 934 1978 723 2099 
Q 653 2074 557 2074 
Q 378 2074 246 2195 
Q 115 2317 115 2490 
Q 115 2560 134 2688 
Q 154 2816 182 2950 
Q 211 3085 236 3184 
Q 262 3283 282 3290 
Q 685 3494 982 3638 
Q 1280 3782 1526 3894 
Q 1773 4006 2025 4115 
Q 2278 4224 2592 4352 
Q 2720 4224 2720 4026 
Q 2720 3802 2637 3693 
Q 2554 3584 2374 3494 
Q 2074 3347 1795 3228 
Q 1517 3110 1203 3004 
Q 890 2899 474 2784 
Q 947 2662 1363 2390 
Q 1779 2118 2029 1773 
Q 2278 1427 2278 1107 
Q 2278 595 1702 326 
Q 1120 58 0 58 
z
" transform="scale(0.015625)"/>
      <path id="NotoNaskhArabic-Bold-135" d="M 6 58 
Q -51 58 -51 115 
L -51 755 
Q -51 813 6 813 
Q 346 813 627 822 
Q 909 832 1126 870 
L 998 1030 
Q 909 1152 835 1235 
Q 762 1318 691 1382 
Q 640 1434 589 1478 
Q 538 1523 486 1568 
L 371 1485 
Q 198 1670 198 1894 
Q 198 2112 390 2272 
Q 582 2432 915 2554 
Q 1242 2669 1549 2669 
Q 1830 2669 2080 2547 
Q 2330 2426 2470 2208 
Q 2618 1990 2618 1760 
Q 2618 1530 2490 1306 
Q 2362 1082 2118 858 
Q 2291 832 2486 822 
Q 2682 813 2912 813 
Q 2976 813 2976 755 
L 2976 115 
Q 2976 58 2912 58 
Q 2464 58 2105 160 
Q 1747 262 1530 448 
Q 845 58 6 58 
z
M 1626 1062 
Q 1978 1293 1978 1613 
Q 1978 1773 1862 1865 
Q 1747 1958 1574 1958 
Q 1408 1958 1257 1926 
Q 1107 1894 902 1805 
Q 973 1741 1117 1603 
Q 1261 1466 1459 1248 
Q 1498 1203 1539 1158 
Q 1581 1114 1626 1062 
z
" transform="scale(0.015625)"/>
      <path id="NotoNaskhArabic-Bold-516" d="M 1037 1792 
Q 877 1920 710 2029 
Q 544 2138 378 2234 
Q 429 2317 473 2397 
Q 518 2477 557 2560 
Q 602 2643 650 2723 
Q 698 2803 755 2886 
Q 870 2816 1017 2720 
Q 1165 2624 1273 2534 
Q 1382 2445 1382 2381 
Q 1382 2291 1037 1792 
z
M 1037 -365 
Q 691 -96 378 77 
Q 429 166 473 246 
Q 518 326 557 410 
Q 602 486 650 566 
Q 698 646 755 730 
Q 1382 365 1382 224 
Q 1382 134 1037 -365 
z
" transform="scale(0.015625)"/>
     </defs>
     <use xlink:href="#NotoNaskhArabic-Bold-3"/>
     <use xlink:href="#NotoNaskhArabic-Bold-1ea" transform="translate(28.40625 0)"/>
     <use xlink:href="#NotoNaskhArabic-Bold-a3" transform="translate(55.90625 0)"/>
     <use xlink:href="#NotoNaskhArabic-Bold-145" transform="translate(121.609375 0)"/>
     <use xlink:href="#NotoNaskhArabic-Bold-4" transform="translate(162.8125 0)"/>
     <use xlink:href="#NotoNaskhArabic-Bold-11b" transform="translate(191.609375 0)"/>
     <use xlink:href="#NotoNaskhArabic-Bold-554" transform="translate(304.703125 0)"/>
     <use xlink:href="#NotoNaskhArabic-Bold-3" transform="translate(326.796875 0)"/>
     <use xlink:href="#NotoNaskhArabic-Bold-1c1" transform="translate(355.203125 0)"/>
     <use xlink:href="#NotoNaskhArabic-Bold-25" transform="translate(376.90625 0)"/>
     <use xlink:href="#NotoNaskhArabic-Bold-125" transform="translate(406.109375 0)"/>
     <use xlink:href="#NotoNaskhArabic-Bold-6" transform="translate(476.703125 0)"/>
     <use xlink:href="#NotoNaskhArabic-Bold-1c2" transform="translate(476.703125 0)"/>
     <use xlink:href="#NotoNaskhArabic-Bold-215" transform="translate(531.296875 0)"/>
     <use xlink:href="#NotoNaskhArabic-Bold-554" transform="translate(582 0)"/>
     <use xlink:href="#NotoNaskhArabic-Bold-1e5" transform="translate(604.09375 0)"/>
     <use xlink:href="#NotoNaskhArabic-Bold-134" transform="translate(651.390625 0)"/>
     <use xlink:href="#NotoNaskhArabic-Bold-554" transform="translate(699.09375 0)"/>
     <use xlink:href="#NotoNaskhArabic-Bold-38" transform="translate(721.1875 0)"/>
     <use xlink:href="#NotoNaskhArabic-Bold-d4" transform="translate(748.6875 0)"/>
     <use xlink:href="#NotoNaskhArabic-Bold-3" transform="translate(788.1875 0)"/>
     <use xlink:href="#NotoNaskhArabic-Bold-74" transform="translate(816.59375 0)"/>
     <use xlink:href="#NotoNaskhArabic-Bold-134" transform="translate(881.5 0)"/>
     <use xlink:href="#NotoNaskhArabic-Bold-554" transform="translate(929.203125 0)"/>
     <use xlink:href="#NotoNaskhArabic-Bold-3" transform="translate(951.296875 0)"/>
     <use xlink:href="#NotoNaskhArabic-Bold-1c1" transform="translate(979.703125 0)"/>
     <use xlink:href="#NotoNaskhArabic-Bold-1e4" transform="translate(1001.40625 0)"/>
     <use xlink:href="#NotoNaskhArabic-Bold-105" transform="translate(1042.703125 0)"/>
     <use xlink:href="#NotoNaskhArabic-Bold-4" transform="translate(1112.40625 0)"/>
     <use xlink:href="#NotoNaskhArabic-Bold-d3" transform="translate(1141.203125 0)"/>
     <use xlink:href="#NotoNaskhArabic-Bold-176" transform="translate(1178.90625 0)"/>
     <use xlink:href="#NotoNaskhArabic-Bold-215" transform="translate(1223.203125 0)"/>
     <use xlink:href="#NotoNaskhArabic-Bold-554" transform="translate(1273.90625 0)"/>
     <use xlink:href="#NotoNaskhArabic-Bold-1e5" transform="translate(1296 0)"/>
     <use xlink:href="#NotoNaskhArabic-Bold-135" transform="translate(1343.296875 0)"/>
     <use xlink:href="#NotoNaskhArabic-Bold-4" transform="translate(1388.09375 0)"/>
     <use xlink:href="#NotoNaskhArabic-Bold-516" transform="translate(1416.890625 0)"/>
    </g>
    <!-- ﺓﺭﻭﺮﻀﻟﺎﺑ ﻲﻘﻴﻘﺣ ﻦﺴﺤﺗ ﻻ ،ﻞﻤﻌﻟﺍ ﻕﻮﺳ ﻦﻣ ﺏﺎﺤﺴﻧﺍ -->
    <g style="fill: #1f2937" transform="translate(257.444118 30.762) scale(0.085 -0.085)">
     <defs>
      <path id="NotoNaskhArabic-Bold-f9" d="M 1472 0 
Q 1165 0 736 205 
Q 608 141 406 99 
Q 205 58 0 58 
Q -51 58 -51 109 
L -51 762 
Q -51 813 0 813 
Q 294 813 441 851 
Q 589 890 678 979 
Q 749 1050 813 1149 
Q 877 1248 998 1466 
Q 1037 1536 1110 1581 
Q 1184 1626 1267 1626 
Q 1357 1626 1466 1555 
Q 1382 1363 1308 1171 
Q 1235 979 1158 781 
Q 1331 762 1504 762 
Q 1632 762 1709 771 
Q 1786 781 1965 832 
Q 2016 909 2096 1107 
Q 2176 1306 2317 1696 
Q 2349 1779 2432 1833 
Q 2515 1888 2630 1888 
Q 2765 1888 2854 1818 
Q 2816 1722 2736 1472 
Q 2656 1222 2509 742 
Q 2554 742 2595 742 
Q 2637 742 2682 736 
Q 2912 736 3142 806 
Q 3162 838 3194 915 
Q 3226 992 3283 1146 
Q 3322 1254 3379 1401 
Q 3437 1549 3507 1747 
Q 3546 1837 3632 1891 
Q 3718 1946 3827 1946 
Q 3942 1946 4045 1875 
Q 4006 1773 3942 1581 
Q 3878 1389 3750 986 
Q 4038 813 4518 813 
Q 4570 813 4570 762 
L 4570 109 
Q 4570 58 4518 58 
Q 4262 58 3993 170 
Q 3725 282 3578 442 
Q 3526 301 3468 201 
Q 3411 102 3226 51 
Q 3034 0 2758 0 
Q 2566 0 2240 141 
Q 2150 77 1923 38 
Q 1696 0 1472 0 
z
" transform="scale(0.015625)"/>
      <path id="NotoNaskhArabic-Bold-8b" d="M 0 58 
Q -51 58 -51 109 
L -51 762 
Q -51 813 0 813 
Q 467 813 793 829 
Q 1120 845 1427 934 
Q 1702 1018 1897 1069 
Q 2093 1120 2202 1146 
Q 2118 1197 2032 1251 
Q 1946 1306 1856 1363 
Q 1651 1498 1513 1555 
Q 1376 1613 1235 1613 
Q 1043 1613 870 1558 
Q 698 1504 480 1363 
Q 422 1421 377 1533 
Q 333 1645 333 1747 
Q 333 2029 582 2205 
Q 832 2381 1210 2381 
Q 1414 2381 1603 2310 
Q 1792 2240 2029 2080 
Q 2317 1882 2560 1763 
Q 2803 1645 3136 1555 
Q 3302 1517 3500 1494 
Q 3699 1472 3936 1472 
L 3654 934 
Q 3578 941 3501 941 
Q 3424 941 3347 947 
Q 3411 890 3488 867 
Q 3565 845 3661 832 
Q 3808 826 3965 822 
Q 4122 819 4262 813 
Q 4314 813 4314 762 
L 4314 109 
Q 4314 58 4262 58 
Q 4032 58 3782 80 
Q 3533 102 3325 150 
Q 3117 198 3021 262 
Q 2893 358 2838 537 
Q 2784 717 2746 877 
Q 2624 851 2525 803 
Q 2426 755 2304 675 
Q 2182 595 1990 467 
Q 1683 262 1395 176 
Q 1107 90 774 74 
Q 442 58 0 58 
z
" transform="scale(0.015625)"/>
      <path id="NotoNaskhArabic-Bold-23" d="M 2010 0 
Q 1235 0 841 352 
Q 448 704 448 1363 
Q 448 1638 570 2067 
L 858 2067 
Q 851 2042 844 1926 
Q 838 1811 838 1747 
Q 838 1376 982 1174 
Q 1126 973 1434 864 
Q 1587 819 1792 790 
Q 1997 762 2246 762 
Q 2803 762 3340 864 
Q 3878 966 4320 1165 
Q 4256 1312 4157 1494 
Q 4058 1677 4000 1779 
Q 3936 1907 3891 2006 
Q 3846 2106 3846 2189 
Q 3846 2342 4019 2528 
Q 4192 2714 4429 2835 
Q 4531 2355 4585 2054 
Q 4640 1754 4665 1590 
Q 4691 1427 4691 1350 
Q 4691 1203 4617 982 
Q 4544 762 4442 576 
Q 4160 403 3766 275 
Q 3373 147 2921 73 
Q 2470 0 2010 0 
z
M 2432 -1427 
Q 2259 -1286 2137 -1171 
Q 2016 -1056 1932 -966 
Q 2060 -838 2182 -713 
Q 2304 -589 2419 -454 
Q 2585 -646 2880 -915 
Q 2809 -1017 2694 -1148 
Q 2579 -1280 2432 -1427 
z
" transform="scale(0.015625)"/>
      <path id="NotoNaskhArabic-Bold-1e8" d="M 1606 -1613 
Q 1037 -1613 736 -1277 
Q 435 -941 435 -301 
Q 435 32 595 627 
L 877 557 
Q 787 256 787 45 
Q 787 -858 1626 -858 
Q 2131 -858 2486 -726 
Q 2842 -595 3181 -288 
Q 2963 115 2800 419 
Q 2637 723 2637 883 
Q 2637 1408 3283 1728 
Q 3296 1626 3328 1427 
Q 3360 1229 3411 928 
Q 3622 813 3885 813 
Q 3942 813 3942 762 
L 3942 109 
Q 3942 58 3885 58 
Q 3795 58 3705 74 
Q 3616 90 3526 128 
L 3533 -45 
Q 3533 -474 3277 -838 
Q 3021 -1203 2579 -1408 
Q 2362 -1510 2115 -1561 
Q 1869 -1613 1606 -1613 
z
M 1811 1580 
Q 1485 1849 1319 2041 
Q 1466 2188 1584 2313 
Q 1703 2438 1799 2553 
Q 1869 2476 1984 2361 
Q 2099 2246 2259 2092 
Q 2183 1984 2071 1856 
Q 1959 1728 1811 1580 
z
" transform="scale(0.015625)"/>
      <path id="NotoNaskhArabic-Bold-fa" d="M 1472 0 
Q 1165 0 736 205 
Q 608 141 406 99 
Q 205 58 0 58 
Q -51 58 -51 109 
L -51 762 
Q -51 813 0 813 
Q 294 813 441 851 
Q 589 890 678 979 
Q 749 1050 806 1142 
Q 864 1235 998 1466 
Q 1037 1536 1110 1581 
Q 1184 1626 1267 1626 
Q 1357 1626 1466 1555 
Q 1363 1286 1286 1091 
Q 1210 896 1158 781 
Q 1331 762 1504 762 
Q 1632 762 1734 778 
Q 1837 794 1965 832 
Q 2010 902 2093 1104 
Q 2176 1306 2317 1696 
Q 2349 1779 2432 1833 
Q 2515 1888 2630 1888 
Q 2765 1888 2854 1818 
Q 2778 1626 2710 1414 
Q 2643 1203 2586 992 
Q 2829 870 3133 806 
Q 3437 742 3782 704 
Q 3584 1094 3443 1376 
Q 3302 1658 3302 1798 
Q 3302 1952 3475 2141 
Q 3648 2330 3885 2451 
Q 3994 1907 4051 1603 
Q 4109 1299 4131 1145 
Q 4154 992 4154 909 
Q 4154 806 4112 633 
Q 4070 461 4006 288 
Q 3942 115 3885 0 
Q 3501 0 3097 89 
Q 2694 179 2355 326 
Q 2317 243 2278 173 
Q 2234 102 1994 51 
Q 1754 0 1472 0 
z
" transform="scale(0.015625)"/>
      <path id="NotoNaskhArabic-Bold-219" d="M 1248 -1248 
Q 1171 -1248 1011 -1174 
Q 851 -1101 668 -982 
Q 486 -864 326 -730 
L 429 -461 
Q 602 -506 778 -528 
Q 954 -550 1133 -550 
Q 1536 -550 1862 -380 
Q 2189 -211 2368 64 
Q 2093 83 1894 102 
Q 1696 122 1574 147 
Q 838 307 838 1018 
Q 838 1370 972 1712 
Q 1107 2054 1325 2266 
Q 1549 2477 1766 2477 
Q 2029 2477 2262 2240 
Q 2496 2003 2650 1626 
Q 2720 1446 2768 1241 
Q 2816 1037 2835 813 
L 3181 813 
Q 3232 813 3232 762 
L 3232 109 
Q 3232 58 3181 58 
L 2784 58 
Q 2669 -365 2419 -669 
Q 2170 -973 1843 -1120 
Q 1555 -1248 1248 -1248 
z
M 2419 819 
Q 2285 1254 2077 1484 
Q 1869 1715 1626 1715 
Q 1504 1715 1401 1651 
Q 1299 1587 1235 1498 
Q 1178 1402 1178 1293 
Q 1178 941 1805 858 
Q 1952 838 2419 819 
z
" transform="scale(0.015625)"/>
      <path id="NotoNaskhArabic-Bold-167" d="M 1606 -1613 
Q 1037 -1613 736 -1277 
Q 435 -941 435 -301 
Q 435 32 595 627 
L 877 557 
Q 787 256 787 45 
Q 787 -858 1683 -858 
Q 2317 -858 2976 -493 
Q 3085 -429 3200 -355 
Q 3315 -282 3424 -198 
Q 3411 -51 3388 99 
Q 3366 250 3334 390 
Q 2938 0 2522 0 
Q 2125 0 1907 230 
Q 1690 461 1690 883 
Q 1690 1242 1824 1584 
Q 1958 1926 2176 2131 
Q 2400 2342 2630 2342 
Q 2950 2342 3238 2080 
Q 3526 1818 3686 1350 
Q 3846 890 3846 320 
Q 3846 -90 3676 -432 
Q 3507 -774 3194 -1037 
Q 2989 -1210 2717 -1338 
Q 2445 -1466 2160 -1539 
Q 1875 -1613 1606 -1613 
z
M 2650 704 
Q 2925 704 3219 800 
Q 3027 1331 2765 1498 
Q 2643 1574 2515 1574 
Q 2374 1574 2259 1500 
Q 2144 1427 2086 1318 
Q 2035 1203 2035 1094 
Q 2035 902 2195 803 
Q 2355 704 2650 704 
z
M 3060 2860 
Q 2925 2969 2816 3065 
Q 2708 3161 2618 3257 
Q 2855 3475 3047 3705 
Q 3104 3641 3206 3545 
Q 3309 3449 3450 3308 
Q 3277 3072 3060 2860 
z
M 2202 2764 
Q 1927 2988 1760 3168 
Q 1869 3276 1978 3388 
Q 2087 3500 2196 3609 
Q 2311 3475 2592 3212 
Q 2432 2982 2202 2764 
z
" transform="scale(0.015625)"/>
      <path id="NotoNaskhArabic-Bold-1be" d="M 1606 -1613 
Q 1030 -1613 729 -1277 
Q 429 -941 429 -301 
Q 429 -134 470 96 
Q 512 326 589 627 
L 870 557 
Q 787 282 787 45 
Q 787 -858 1619 -858 
Q 1984 -858 2262 -794 
Q 2541 -730 2784 -576 
Q 2970 -467 3155 -288 
L 3014 461 
Q 2989 608 2915 1014 
Q 2842 1421 2726 2086 
Q 2694 2291 2652 2537 
Q 2611 2784 2569 3024 
Q 2528 3264 2499 3446 
Q 2470 3629 2470 3699 
Q 2470 3968 2675 4160 
Q 2880 4352 3162 4352 
Q 3219 4134 3283 3939 
Q 3347 3744 3418 3565 
L 3213 3411 
Q 3270 2810 3331 2198 
Q 3392 1587 3450 973 
Q 3718 813 4000 813 
Q 4058 813 4058 762 
L 4058 109 
Q 4058 58 4000 58 
Q 3878 58 3760 86 
Q 3642 115 3507 192 
L 3514 -45 
Q 3514 -474 3258 -838 
Q 3002 -1203 2566 -1408 
Q 2349 -1510 2109 -1561 
Q 1869 -1613 1606 -1613 
z
" transform="scale(0.015625)"/>
      <path id="NotoNaskhArabic-Bold-53a" d="M 890 -326 
Q 666 -326 522 -166 
Q 378 -6 378 243 
Q 378 442 445 627 
Q 512 813 681 1030 
Q 851 1248 1158 1530 
L 1478 1274 
Q 1274 1043 1171 841 
Q 1069 640 1069 525 
Q 1069 429 1171 368 
Q 1274 307 1453 250 
Q 1408 -6 1254 -166 
Q 1101 -326 890 -326 
z
" transform="scale(0.015625)"/>
      <path id="NotoNaskhArabic-Bold-2de" d="M 896 0 
Q 883 0 883 51 
Q 883 141 899 294 
Q 915 448 937 576 
Q 960 704 979 704 
L 1242 704 
Q 1542 947 1753 1164 
Q 1965 1382 2086 1581 
Q 1581 2086 832 2541 
L 595 2528 
Q 218 2714 218 3098 
Q 218 3437 570 3642 
Q 794 3494 1091 3235 
Q 1389 2976 1690 2675 
Q 1856 2515 2009 2355 
Q 2163 2195 2298 2042 
Q 2355 2246 2355 2477 
Q 2355 2637 2221 3411 
Q 2189 3610 2169 3728 
Q 2150 3846 2150 3891 
Q 2150 4154 2342 4307 
Q 2534 4461 2829 4461 
Q 2880 4256 2944 4057 
Q 3008 3859 3085 3674 
L 2874 3514 
L 2880 3398 
L 2899 2790 
Q 2899 2214 2598 1664 
Q 2624 1638 2713 1516 
Q 2803 1395 2908 1238 
Q 3014 1082 3094 947 
Q 3174 813 3174 762 
Q 3174 704 3142 601 
Q 3110 499 3065 387 
Q 3021 275 2979 195 
Q 2938 115 2918 109 
Q 2605 58 2102 29 
Q 1600 0 896 0 
z
M 1779 730 
Q 2067 742 2294 768 
Q 2522 794 2752 832 
Q 2650 947 2554 1062 
Q 2458 1178 2355 1299 
Q 2093 973 1779 730 
z
" transform="scale(0.015625)"/>
      <path id="NotoNaskhArabic-Bold-8c" d="M 0 58 
Q -51 58 -51 109 
L -51 762 
Q -51 813 0 813 
Q 467 813 793 829 
Q 1120 845 1427 934 
Q 1702 1018 1897 1069 
Q 2093 1120 2202 1146 
Q 2112 1197 2025 1251 
Q 1939 1306 1856 1363 
Q 1651 1504 1513 1558 
Q 1376 1613 1235 1613 
Q 1043 1613 870 1558 
Q 698 1504 480 1363 
Q 422 1421 377 1533 
Q 333 1645 333 1747 
Q 333 2029 582 2205 
Q 832 2381 1210 2381 
Q 1414 2381 1603 2310 
Q 1792 2240 2029 2080 
Q 2317 1882 2560 1763 
Q 2803 1645 3136 1555 
Q 3302 1517 3500 1494 
Q 3699 1472 3936 1472 
L 3603 794 
Q 3405 813 3273 825 
Q 3142 838 2963 826 
Q 2739 806 2483 704 
Q 2227 602 1990 467 
Q 1741 320 1533 237 
Q 1325 154 1107 115 
Q 890 77 624 67 
Q 358 58 0 58 
z
" transform="scale(0.015625)"/>
      <path id="NotoNaskhArabic-Bold-169" d="M 6 58 
Q -51 58 -51 115 
L -51 755 
Q -51 813 6 813 
Q 115 813 227 816 
Q 339 819 454 819 
Q 358 973 358 1114 
Q 358 1197 374 1337 
Q 390 1478 419 1606 
Q 448 1734 474 1786 
Q 595 2003 771 2179 
Q 947 2355 1152 2457 
Q 1357 2560 1549 2560 
Q 1722 2560 1898 2368 
Q 2074 2176 2182 1875 
Q 2291 1568 2291 1306 
Q 2291 1056 2150 819 
Q 2285 819 2422 816 
Q 2560 813 2694 813 
Q 2746 813 2746 762 
L 2746 109 
Q 2746 58 2694 58 
Q 1882 58 1325 269 
Q 1030 147 716 102 
Q 403 58 6 58 
z
M 1299 794 
Q 1690 902 1933 1107 
Q 1888 1280 1795 1446 
Q 1702 1613 1613 1696 
Q 1549 1773 1478 1773 
Q 1146 1773 704 1178 
Q 819 1043 979 944 
Q 1139 845 1299 794 
z
M 1888 3052 
Q 1753 3161 1644 3257 
Q 1536 3353 1446 3449 
Q 1683 3667 1875 3897 
Q 1932 3833 2034 3737 
Q 2137 3641 2278 3500 
Q 2105 3264 1888 3052 
z
M 1030 2956 
Q 755 3180 588 3360 
Q 697 3468 806 3580 
Q 915 3692 1024 3801 
Q 1139 3667 1420 3404 
Q 1260 3174 1030 2956 
z
" transform="scale(0.015625)"/>
      <path id="NotoNaskhArabic-Bold-240" d="M 0 58 
Q -51 58 -51 109 
L -51 762 
Q -51 813 0 813 
Q 307 813 566 829 
Q 826 845 992 928 
Q 1120 992 1187 1104 
Q 1254 1216 1357 1421 
Q 1459 1632 1536 1680 
Q 1613 1728 1715 1728 
Q 1869 1728 1971 1638 
Q 1888 1427 1814 1264 
Q 1741 1101 1690 979 
Q 2003 813 2362 813 
Q 2413 813 2413 762 
L 2413 109 
Q 2413 58 2362 58 
Q 1875 58 1434 499 
L 1382 416 
Q 1203 179 883 118 
Q 563 58 0 58 
z
M 1651 -1235 
Q 1376 -1011 1209 -832 
Q 1414 -653 1638 -384 
Q 1657 -403 1756 -502 
Q 1856 -602 2035 -787 
Q 1971 -883 1875 -995 
Q 1779 -1107 1651 -1235 
z
M 793 -1331 
Q 633 -1203 527 -1100 
Q 422 -998 352 -922 
Q 460 -813 569 -701 
Q 678 -589 787 -480 
Q 864 -576 1184 -877 
Q 1030 -1107 793 -1331 
z
" transform="scale(0.015625)"/>
      <path id="NotoNaskhArabic-Bold-23f" d="M 1830 -1613 
Q 1152 -1613 793 -1277 
Q 435 -941 435 -301 
Q 435 32 595 627 
L 877 557 
Q 787 256 787 45 
Q 787 -397 1059 -627 
Q 1331 -858 1901 -858 
Q 2240 -858 2598 -816 
Q 2957 -774 3283 -710 
Q 3450 -672 3610 -627 
Q 3770 -582 3898 -531 
Q 3757 -474 3561 -374 
Q 3366 -275 3187 -163 
Q 3008 -51 2893 32 
Q 2726 160 2726 218 
Q 2726 282 2771 397 
Q 2816 512 2877 633 
Q 2938 755 2992 838 
Q 3046 922 3066 922 
Q 3354 870 3699 841 
Q 4045 813 4454 813 
Q 4525 813 4525 749 
L 4525 122 
Q 4525 58 4454 58 
Q 4320 58 4137 70 
Q 3955 83 3779 108 
Q 3603 134 3475 166 
Q 3738 45 3875 -25 
Q 4013 -96 4070 -131 
Q 4128 -166 4147 -198 
Q 4192 -243 4208 -336 
Q 4224 -429 4224 -518 
Q 4224 -678 4057 -848 
Q 3891 -1018 3600 -1171 
Q 3309 -1325 2925 -1440 
Q 2349 -1613 1830 -1613 
z
M 2355 -2630 
Q 2080 -2406 1913 -2227 
Q 2118 -2048 2342 -1779 
Q 2361 -1798 2460 -1897 
Q 2560 -1997 2739 -2182 
Q 2675 -2278 2579 -2390 
Q 2483 -2502 2355 -2630 
z
M 1497 -2726 
Q 1337 -2598 1231 -2495 
Q 1126 -2393 1056 -2317 
Q 1164 -2208 1273 -2096 
Q 1382 -1984 1491 -1875 
Q 1568 -1971 1888 -2272 
Q 1734 -2502 1497 -2726 
z
" transform="scale(0.015625)"/>
      <path id="NotoNaskhArabic-Bold-26" d="M 0 58 
Q -51 58 -51 109 
L -51 762 
Q -51 813 0 813 
Q 320 813 640 867 
Q 960 922 1139 998 
Q 1075 1146 976 1328 
Q 877 1510 819 1613 
Q 755 1734 710 1833 
Q 666 1933 666 2016 
Q 666 2176 838 2361 
Q 1011 2547 1248 2669 
Q 1293 2470 1347 2217 
Q 1402 1965 1446 1702 
Q 1485 1504 1501 1376 
Q 1517 1248 1517 1184 
Q 1517 1037 1443 822 
Q 1370 608 1267 410 
Q 685 58 0 58 
z
M 916 -1427 
Q 743 -1286 621 -1171 
Q 500 -1056 416 -966 
Q 544 -838 666 -713 
Q 788 -589 903 -454 
Q 1069 -646 1364 -915 
Q 1293 -1017 1178 -1148 
Q 1063 -1280 916 -1427 
z
" transform="scale(0.015625)"/>
      <path id="NotoNaskhArabic-Bold-11d" d="M 2592 0 
Q 2163 0 1699 80 
Q 1235 160 851 339 
Q 813 282 742 243 
Q 608 154 406 106 
Q 205 58 0 58 
Q -51 58 -51 109 
L -51 762 
Q -51 813 0 813 
Q 256 813 397 848 
Q 538 883 634 985 
Q 730 1088 838 1286 
Q 864 1331 886 1376 
Q 909 1421 934 1466 
Q 1030 1638 1222 1638 
Q 1318 1638 1427 1574 
Q 1363 1414 1302 1260 
Q 1242 1107 1178 954 
Q 1248 928 1312 909 
Q 1376 890 1440 864 
Q 2099 1741 2605 2150 
Q 3091 2560 3469 2560 
Q 3629 2560 3824 2464 
Q 4019 2368 4211 2214 
Q 4403 2061 4544 1882 
Q 4762 1619 4762 1446 
Q 4762 1229 4691 1050 
Q 4922 915 5082 864 
Q 5242 813 5466 813 
Q 5523 813 5523 762 
L 5523 109 
Q 5523 58 5466 58 
Q 5171 58 4880 186 
Q 4589 314 4358 563 
Q 4205 416 3904 278 
Q 3603 141 3258 70 
Q 3085 38 2921 19 
Q 2758 0 2592 0 
z
M 2656 704 
Q 3117 704 3520 813 
Q 3923 922 4390 1146 
Q 3814 1805 3309 1805 
Q 3027 1805 2652 1536 
Q 2278 1267 1862 774 
Q 2067 742 2265 723 
Q 2464 704 2656 704 
z
M 2604 3001 
Q 2278 3270 2112 3462 
Q 2259 3609 2377 3734 
Q 2496 3859 2592 3974 
Q 2662 3897 2777 3782 
Q 2892 3667 3052 3513 
Q 2976 3405 2864 3277 
Q 2752 3149 2604 3001 
z
" transform="scale(0.015625)"/>
      <path id="NotoNaskhArabic-Bold-218" d="M 1248 -1248 
Q 1171 -1248 1011 -1174 
Q 851 -1101 668 -982 
Q 486 -864 326 -730 
L 429 -461 
Q 602 -506 778 -528 
Q 954 -550 1133 -550 
Q 1632 -550 2003 -304 
Q 2374 -58 2515 371 
L 2509 416 
Q 2323 224 2105 112 
Q 1888 0 1664 0 
Q 1267 0 1049 230 
Q 832 461 832 883 
Q 832 1242 966 1584 
Q 1101 1926 1318 2131 
Q 1530 2342 1766 2342 
Q 2042 2342 2288 2089 
Q 2534 1837 2694 1402 
Q 2848 973 2848 570 
Q 2848 83 2637 -339 
Q 2426 -762 2054 -1005 
Q 1690 -1248 1248 -1248 
z
M 1792 704 
Q 2074 704 2400 813 
Q 2342 992 2220 1181 
Q 2099 1370 1952 1472 
Q 1798 1574 1658 1574 
Q 1498 1574 1376 1488 
Q 1254 1402 1203 1267 
Q 1178 1190 1178 1094 
Q 1178 902 1338 803 
Q 1498 704 1792 704 
z
" transform="scale(0.015625)"/>
      <path id="NotoNaskhArabic-Bold-214" d="M 1274 0 
Q 909 0 672 246 
Q 435 493 435 864 
Q 435 1126 572 1401 
Q 710 1677 1018 1984 
Q 915 2048 880 2141 
Q 845 2234 845 2330 
Q 845 2464 899 2585 
Q 954 2707 1043 2752 
Q 1408 2637 1721 2381 
Q 2035 2125 2214 1798 
Q 2394 1466 2394 1184 
Q 2394 1094 2349 944 
Q 2304 794 2233 634 
Q 2163 474 2086 349 
Q 2010 224 1939 179 
Q 1818 96 1642 48 
Q 1466 0 1274 0 
z
M 1344 672 
Q 1690 672 1978 851 
Q 1882 1133 1715 1360 
Q 1549 1587 1286 1786 
Q 915 1421 915 1075 
Q 915 896 1040 784 
Q 1165 672 1344 672 
z
M 1684 3251 
Q 1549 3360 1440 3456 
Q 1332 3552 1242 3648 
Q 1479 3866 1671 4096 
Q 1728 4032 1830 3936 
Q 1933 3840 2074 3699 
Q 1901 3463 1684 3251 
z
M 826 3155 
Q 551 3379 384 3559 
Q 493 3667 602 3779 
Q 711 3891 820 4000 
Q 935 3866 1216 3603 
Q 1056 3373 826 3155 
z
" transform="scale(0.015625)"/>
     </defs>
     <use xlink:href="#NotoNaskhArabic-Bold-3"/>
     <use xlink:href="#NotoNaskhArabic-Bold-1ea" transform="translate(28.40625 0)"/>
     <use xlink:href="#NotoNaskhArabic-Bold-f9" transform="translate(55.90625 0)"/>
     <use xlink:href="#NotoNaskhArabic-Bold-8b" transform="translate(125.609375 0)"/>
     <use xlink:href="#NotoNaskhArabic-Bold-4" transform="translate(191.3125 0)"/>
     <use xlink:href="#NotoNaskhArabic-Bold-23" transform="translate(220.109375 0)"/>
     <use xlink:href="#NotoNaskhArabic-Bold-554" transform="translate(300.703125 0)"/>
     <use xlink:href="#NotoNaskhArabic-Bold-1e5" transform="translate(322.796875 0)"/>
     <use xlink:href="#NotoNaskhArabic-Bold-1e8" transform="translate(370.09375 0)"/>
     <use xlink:href="#NotoNaskhArabic-Bold-554" transform="translate(430 0)"/>
     <use xlink:href="#NotoNaskhArabic-Bold-fa" transform="translate(452.09375 0)"/>
     <use xlink:href="#NotoNaskhArabic-Bold-219" transform="translate(522.09375 0)"/>
     <use xlink:href="#NotoNaskhArabic-Bold-167" transform="translate(570.890625 0)"/>
     <use xlink:href="#NotoNaskhArabic-Bold-554" transform="translate(636.09375 0)"/>
     <use xlink:href="#NotoNaskhArabic-Bold-3" transform="translate(658.1875 0)"/>
     <use xlink:href="#NotoNaskhArabic-Bold-1c1" transform="translate(686.59375 0)"/>
     <use xlink:href="#NotoNaskhArabic-Bold-135" transform="translate(708.296875 0)"/>
     <use xlink:href="#NotoNaskhArabic-Bold-1e4" transform="translate(753.09375 0)"/>
     <use xlink:href="#NotoNaskhArabic-Bold-1be" transform="translate(794.390625 0)"/>
     <use xlink:href="#NotoNaskhArabic-Bold-53a" transform="translate(856.09375 0)"/>
     <use xlink:href="#NotoNaskhArabic-Bold-554" transform="translate(882.1875 0)"/>
     <use xlink:href="#NotoNaskhArabic-Bold-2de" transform="translate(904.28125 0)"/>
     <use xlink:href="#NotoNaskhArabic-Bold-554" transform="translate(958.875 0)"/>
     <use xlink:href="#NotoNaskhArabic-Bold-38" transform="translate(980.96875 0)"/>
     <use xlink:href="#NotoNaskhArabic-Bold-8b" transform="translate(1008.46875 0)"/>
     <use xlink:href="#NotoNaskhArabic-Bold-f9" transform="translate(1074.171875 0)"/>
     <use xlink:href="#NotoNaskhArabic-Bold-1e8" transform="translate(1143.875 0)"/>
     <use xlink:href="#NotoNaskhArabic-Bold-554" transform="translate(1203.78125 0)"/>
     <use xlink:href="#NotoNaskhArabic-Bold-8c" transform="translate(1225.875 0)"/>
     <use xlink:href="#NotoNaskhArabic-Bold-169" transform="translate(1290.78125 0)"/>
     <use xlink:href="#NotoNaskhArabic-Bold-240" transform="translate(1331.984375 0)"/>
     <use xlink:href="#NotoNaskhArabic-Bold-169" transform="translate(1367.984375 0)"/>
     <use xlink:href="#NotoNaskhArabic-Bold-23f" transform="translate(1409.1875 0)"/>
     <use xlink:href="#NotoNaskhArabic-Bold-554" transform="translate(1478.1875 0)"/>
     <use xlink:href="#NotoNaskhArabic-Bold-26" transform="translate(1500.28125 0)"/>
     <use xlink:href="#NotoNaskhArabic-Bold-6" transform="translate(1527.78125 0)"/>
     <use xlink:href="#NotoNaskhArabic-Bold-1c2" transform="translate(1527.78125 0)"/>
     <use xlink:href="#NotoNaskhArabic-Bold-11d" transform="translate(1582.375 0)"/>
     <use xlink:href="#NotoNaskhArabic-Bold-d4" transform="translate(1666.96875 0)"/>
     <use xlink:href="#NotoNaskhArabic-Bold-218" transform="translate(1706.46875 0)"/>
     <use xlink:href="#NotoNaskhArabic-Bold-d3" transform="translate(1756.171875 0)"/>
     <use xlink:href="#NotoNaskhArabic-Bold-214" transform="translate(1793.875 0)"/>
    </g>
   </g>
  </g>
  <g id="axes_2">
   <g id="matplotlib.axis_3">
    <g id="ytick_9">
     <g id="line2d_24">
      <defs>
       <path id="mf0ebc2b599" d="M 0 0 
L 3.5 0 
" style="stroke: #555555; stroke-width: 0.8"/>
      </defs>
      <g>
       <use xlink:href="#mf0ebc2b599" x="572.087172" y="242.641192" style="fill: #555555; stroke: #555555; stroke-width: 0.8"/>
      </g>
     </g>
     <g id="text_18">
      <!-- 61.8 -->
      <g style="fill: #1f2937" transform="translate(579.087172 248.253442) scale(0.105 -0.105)">
       <use xlink:href="#NotoNaskhArabic-Regular-4d2"/>
       <use xlink:href="#NotoNaskhArabic-Regular-4cd" transform="translate(57.203125 0)"/>
       <use xlink:href="#NotoNaskhArabic-Regular-514" transform="translate(114.40625 0)"/>
       <use xlink:href="#NotoNaskhArabic-Regular-4d4" transform="translate(135 0)"/>
      </g>
     </g>
    </g>
    <g id="ytick_10">
     <g id="line2d_25">
      <g>
       <use xlink:href="#mf0ebc2b599" x="572.087172" y="212.522534" style="fill: #555555; stroke: #555555; stroke-width: 0.8"/>
      </g>
     </g>
     <g id="text_19">
      <!-- 62.0 -->
      <g style="fill: #1f2937" transform="translate(579.087172 218.134784) scale(0.105 -0.105)">
       <use xlink:href="#NotoNaskhArabic-Regular-4d2"/>
       <use xlink:href="#NotoNaskhArabic-Regular-4ce" transform="translate(57.203125 0)"/>
       <use xlink:href="#NotoNaskhArabic-Regular-514" transform="translate(114.40625 0)"/>
       <use xlink:href="#NotoNaskhArabic-Regular-4cc" transform="translate(135 0)"/>
      </g>
     </g>
    </g>
    <g id="ytick_11">
     <g id="line2d_26">
      <g>
       <use xlink:href="#mf0ebc2b599" x="572.087172" y="182.403875" style="fill: #555555; stroke: #555555; stroke-width: 0.8"/>
      </g>
     </g>
     <g id="text_20">
      <!-- 62.2 -->
      <g style="fill: #1f2937" transform="translate(579.087172 188.016125) scale(0.105 -0.105)">
       <use xlink:href="#NotoNaskhArabic-Regular-4d2"/>
       <use xlink:href="#NotoNaskhArabic-Regular-4ce" transform="translate(57.203125 0)"/>
       <use xlink:href="#NotoNaskhArabic-Regular-514" transform="translate(114.40625 0)"/>
       <use xlink:href="#NotoNaskhArabic-Regular-4ce" transform="translate(135 0)"/>
      </g>
     </g>
    </g>
    <g id="ytick_12">
     <g id="line2d_27">
      <g>
       <use xlink:href="#mf0ebc2b599" x="572.087172" y="152.285216" style="fill: #555555; stroke: #555555; stroke-width: 0.8"/>
      </g>
     </g>
     <g id="text_21">
      <!-- 62.4 -->
      <g style="fill: #1f2937" transform="translate(579.087172 157.897466) scale(0.105 -0.105)">
       <use xlink:href="#NotoNaskhArabic-Regular-4d2"/>
       <use xlink:href="#NotoNaskhArabic-Regular-4ce" transform="translate(57.203125 0)"/>
       <use xlink:href="#NotoNaskhArabic-Regular-514" transform="translate(114.40625 0)"/>
       <use xlink:href="#NotoNaskhArabic-Regular-4d0" transform="translate(135 0)"/>
      </g>
     </g>
    </g>
    <g id="ytick_13">
     <g id="line2d_28">
      <g>
       <use xlink:href="#mf0ebc2b599" x="572.087172" y="122.166558" style="fill: #555555; stroke: #555555; stroke-width: 0.8"/>
      </g>
     </g>
     <g id="text_22">
      <!-- 62.6 -->
      <g style="fill: #1f2937" transform="translate(579.087172 127.778808) scale(0.105 -0.105)">
       <use xlink:href="#NotoNaskhArabic-Regular-4d2"/>
       <use xlink:href="#NotoNaskhArabic-Regular-4ce" transform="translate(57.203125 0)"/>
       <use xlink:href="#NotoNaskhArabic-Regular-514" transform="translate(114.40625 0)"/>
       <use xlink:href="#NotoNaskhArabic-Regular-4d2" transform="translate(135 0)"/>
      </g>
     </g>
    </g>
    <g id="ytick_14">
     <g id="line2d_29">
      <g>
       <use xlink:href="#mf0ebc2b599" x="572.087172" y="92.047899" style="fill: #555555; stroke: #555555; stroke-width: 0.8"/>
      </g>
     </g>
     <g id="text_23">
      <!-- 62.8 -->
      <g style="fill: #1f2937" transform="translate(579.087172 97.660149) scale(0.105 -0.105)">
       <use xlink:href="#NotoNaskhArabic-Regular-4d2"/>
       <use xlink:href="#NotoNaskhArabic-Regular-4ce" transform="translate(57.203125 0)"/>
       <use xlink:href="#NotoNaskhArabic-Regular-514" transform="translate(114.40625 0)"/>
       <use xlink:href="#NotoNaskhArabic-Regular-4d4" transform="translate(135 0)"/>
      </g>
     </g>
    </g>
    <g id="ytick_15">
     <g id="line2d_30">
      <g>
       <use xlink:href="#mf0ebc2b599" x="572.087172" y="61.92924" style="fill: #555555; stroke: #555555; stroke-width: 0.8"/>
      </g>
     </g>
     <g id="text_24">
      <!-- 63.0 -->
      <g style="fill: #1f2937" transform="translate(579.087172 67.54149) scale(0.105 -0.105)">
       <use xlink:href="#NotoNaskhArabic-Regular-4d2"/>
       <use xlink:href="#NotoNaskhArabic-Regular-4cf" transform="translate(57.203125 0)"/>
       <use xlink:href="#NotoNaskhArabic-Regular-514" transform="translate(114.40625 0)"/>
       <use xlink:href="#NotoNaskhArabic-Regular-4cc" transform="translate(135 0)"/>
      </g>
     </g>
    </g>
    <g id="text_25">
     <!-- (%) ﺔﻛﺭﺎﺸﻤﻟﺍ ﻝﺪﻌﻣ -->
     <g style="fill: #1f2937" transform="translate(614.493 199.451441) rotate(-90) scale(0.105 -0.105)">
      <defs>
       <path id="NotoNaskhArabic-Regular-1e4" d="M 2016 0 
Q 1414 0 902 192 
Q 595 77 400 38 
Q 205 0 0 0 
Q -51 0 -51 51 
L -51 435 
Q -51 486 0 486 
Q 109 486 211 505 
Q 314 525 416 550 
Q 371 640 371 749 
Q 371 928 460 1152 
Q 550 1376 700 1590 
Q 851 1805 1037 1952 
Q 1318 2176 1568 2176 
Q 1677 2176 1760 2051 
Q 1843 1926 1926 1734 
Q 1971 1645 2009 1542 
Q 2048 1440 2086 1331 
Q 2163 1114 2252 928 
Q 2342 742 2445 614 
Q 2554 486 2682 486 
Q 2752 486 2752 422 
L 2752 70 
Q 2752 0 2682 0 
Q 2362 0 2099 282 
L 2016 0 
z
M 1978 442 
Q 1837 646 1728 979 
Q 1619 1312 1581 1683 
Q 1421 1613 1241 1475 
Q 1062 1338 918 1178 
Q 774 1018 704 877 
Q 1133 525 1978 442 
z
" transform="scale(0.015625)"/>
       <path id="NotoNaskhArabic-Regular-4" d="M 1677 0 
Q 1299 0 1049 150 
Q 800 301 768 557 
Q 742 787 713 1072 
Q 685 1357 653 1747 
Q 621 2138 579 2672 
Q 538 3206 486 3936 
Q 576 4026 685 4118 
Q 794 4211 922 4294 
Q 941 3795 953 3308 
Q 966 2822 976 2281 
Q 986 1741 992 1082 
L 1011 653 
Q 1312 486 1677 486 
Q 1728 486 1728 435 
L 1728 51 
Q 1728 0 1677 0 
z
" transform="scale(0.015625)"/>
       <path id="NotoNaskhArabic-Regular-d3" d="M 710 -1306 
Q 608 -1306 451 -1248 
Q 294 -1190 134 -1107 
Q -26 -1024 -128 -947 
L -45 -736 
Q 134 -768 284 -787 
Q 435 -806 563 -806 
Q 1043 -806 1385 -518 
Q 1728 -230 1907 314 
Q 1862 416 1814 515 
Q 1766 614 1709 717 
Q 1491 1107 1388 1340 
Q 1286 1574 1286 1734 
Q 1286 1901 1382 2000 
Q 1478 2099 1658 2182 
Q 1696 2029 1789 1785 
Q 1882 1542 1946 1357 
Q 2029 1133 2086 915 
Q 2144 698 2144 518 
Q 2144 19 1955 -406 
Q 1766 -832 1440 -1069 
Q 1107 -1306 710 -1306 
z
" transform="scale(0.015625)"/>
       <path id="NotoNaskhArabic-Regular-176" d="M 0 0 
Q -51 0 -51 51 
L -51 435 
Q -51 486 0 486 
Q 442 486 774 534 
Q 1107 582 1363 653 
Q 1626 723 1888 864 
Q 1773 1222 1446 1530 
Q 1280 1683 1059 1830 
Q 838 1978 550 2118 
Q 474 2099 390 2099 
Q 224 2099 112 2217 
Q 0 2336 0 2515 
Q 0 2611 32 2748 
Q 64 2886 105 2998 
Q 147 3110 166 3123 
Q 595 3347 908 3500 
Q 1222 3654 1475 3769 
Q 1728 3885 1958 3984 
Q 2189 4083 2445 4186 
Q 2541 4109 2541 3942 
Q 2541 3795 2477 3712 
Q 2413 3629 2266 3571 
Q 1613 3296 1104 3075 
Q 595 2854 237 2688 
Q 723 2566 1168 2294 
Q 1613 2022 1875 1683 
Q 2144 1350 2144 1050 
Q 2144 525 1587 256 
Q 1318 134 924 67 
Q 531 0 0 0 
z
" transform="scale(0.015625)"/>
      </defs>
      <use xlink:href="#NotoNaskhArabic-Regular-1e5"/>
      <use xlink:href="#NotoNaskhArabic-Regular-135" transform="translate(45.59375 0)"/>
      <use xlink:href="#NotoNaskhArabic-Regular-b6" transform="translate(87 0)"/>
      <use xlink:href="#NotoNaskhArabic-Regular-1bd" transform="translate(134.40625 0)"/>
      <use xlink:href="#NotoNaskhArabic-Regular-554" transform="translate(193.90625 0)"/>
      <use xlink:href="#NotoNaskhArabic-Regular-3" transform="translate(216 0)"/>
      <use xlink:href="#NotoNaskhArabic-Regular-1c1" transform="translate(239.796875 0)"/>
      <use xlink:href="#NotoNaskhArabic-Regular-1e4" transform="translate(261 0)"/>
      <use xlink:href="#NotoNaskhArabic-Regular-105" transform="translate(302.296875 0)"/>
      <use xlink:href="#NotoNaskhArabic-Regular-4" transform="translate(368.59375 0)"/>
      <use xlink:href="#NotoNaskhArabic-Regular-d3" transform="translate(393.890625 0)"/>
      <use xlink:href="#NotoNaskhArabic-Regular-176" transform="translate(432.484375 0)"/>
      <use xlink:href="#NotoNaskhArabic-Regular-215" transform="translate(473.984375 0)"/>
      <use xlink:href="#NotoNaskhArabic-Regular-554" transform="translate(520.6875 0)"/>
      <use xlink:href="#DejaVuSans-b" transform="translate(542.78125 0)"/>
      <use xlink:href="#DejaVuSans-8" transform="translate(581.796875 0)"/>
      <use xlink:href="#DejaVuSans-c" transform="translate(676.8125 0)"/>
     </g>
    </g>
   </g>
   <g id="line2d_31">
    <path d="M 79.709389 64.987047 
L 122.3395 80.476936 
L 164.969611 87.013458 
L 207.599722 121.120014 
L 250.229833 133.759752 
L 292.859944 154.732864 
L 335.490056 169.177763 
L 378.120167 186.709132 
L 420.750278 209.737855 
L 463.380389 226.277347 
L 506.0105 244.197299 
L 548.640611 258.753882 
" clip-path="url(#pbbeab41465)" style="fill: none; stroke-dasharray: 8.14,3.52; stroke-dashoffset: 0; stroke: #1f2937; stroke-width: 2.2"/>
    <defs>
     <path id="m7cb003833c" d="M -2 2 
L 2 2 
L 2 -2 
L -2 -2 
z
" style="stroke: #1f2937; stroke-linejoin: miter"/>
    </defs>
    <g clip-path="url(#pbbeab41465)">
     <use xlink:href="#m7cb003833c" x="79.709389" y="64.987047" style="fill: #1f2937; stroke: #1f2937; stroke-linejoin: miter"/>
     <use xlink:href="#m7cb003833c" x="122.3395" y="80.476936" style="fill: #1f2937; stroke: #1f2937; stroke-linejoin: miter"/>
     <use xlink:href="#m7cb003833c" x="164.969611" y="87.013458" style="fill: #1f2937; stroke: #1f2937; stroke-linejoin: miter"/>
     <use xlink:href="#m7cb003833c" x="207.599722" y="121.120014" style="fill: #1f2937; stroke: #1f2937; stroke-linejoin: miter"/>
     <use xlink:href="#m7cb003833c" x="250.229833" y="133.759752" style="fill: #1f2937; stroke: #1f2937; stroke-linejoin: miter"/>
     <use xlink:href="#m7cb003833c" x="292.859944" y="154.732864" style="fill: #1f2937; stroke: #1f2937; stroke-linejoin: miter"/>
     <use xlink:href="#m7cb003833c" x="335.490056" y="169.177763" style="fill: #1f2937; stroke: #1f2937; stroke-linejoin: miter"/>
     <use xlink:href="#m7cb003833c" x="378.120167" y="186.709132" style="fill: #1f2937; stroke: #1f2937; stroke-linejoin: miter"/>
     <use xlink:href="#m7cb003833c" x="420.750278" y="209.737855" style="fill: #1f2937; stroke: #1f2937; stroke-linejoin: miter"/>
     <use xlink:href="#m7cb003833c" x="463.380389" y="226.277347" style="fill: #1f2937; stroke: #1f2937; stroke-linejoin: miter"/>
     <use xlink:href="#m7cb003833c" x="506.0105" y="244.197299" style="fill: #1f2937; stroke: #1f2937; stroke-linejoin: miter"/>
     <use xlink:href="#m7cb003833c" x="548.640611" y="258.753882" style="fill: #1f2937; stroke: #1f2937; stroke-linejoin: miter"/>
    </g>
   </g>
   <g id="patch_6">
    <path d="M 56.262828 268.442224 
L 56.262828 55.298705 
" style="fill: none; stroke: #1f2937; stroke-width: 0.8; stroke-linejoin: miter; stroke-linecap: square"/>
   </g>
   <g id="patch_7">
    <path d="M 572.087172 268.442224 
L 572.087172 55.298705 
" style="fill: none; stroke: #1f2937; stroke-width: 0.8; stroke-linejoin: miter; stroke-linecap: square"/>
   </g>
   <g id="patch_8">
    <path d="M 56.262828 268.442224 
L 572.087172 268.442224 
" style="fill: none; stroke: #1f2937; stroke-width: 0.8; stroke-linejoin: miter; stroke-linecap: square"/>
   </g>
  </g>
 </g>
 <defs>
  <clipPath id="pbbeab41465">
   <rect x="56.262828" y="55.298705" width="515.824344" height="213.143519"/>
  </clipPath>
 </defs>
</svg>
