<?xml version="1.0" encoding="utf-8" standalone="no"?>
<!DOCTYPE svg PUBLIC "-//W3C//DTD SVG 1.1//EN"
  "http://www.w3.org/Graphics/SVG/1.1/DTD/svg11.dtd">
<svg xmlns:xlink="http://www.w3.org/1999/xlink" width="585.15pt" height="203.55pt" viewBox="0 0 585.15 203.55" xmlns="http://www.w3.org/2000/svg" version="1.1">
 <metadata>
  <rdf:RDF xmlns:dc="http://purl.org/dc/elements/1.1/" xmlns:cc="http://creativecommons.org/ns#" xmlns:rdf="http://www.w3.org/1999/02/22-rdf-syntax-ns#">
   <cc:Work>
    <dc:type rdf:resource="http://purl.org/dc/dcmitype/StillImage"/>
    <dc:date>2026-07-19T01:11:19.694095</dc:date>
    <dc:format>image/svg+xml</dc:format>
    <dc:creator>
     <cc:Agent>
      <dc:title>Matplotlib v3.11.1, https://matplotlib.org/</dc:title>
     </cc:Agent>
    </dc:creator>
   </cc:Work>
  </rdf:RDF>
 </metadata>
 <defs>
  <style type="text/css">*{stroke-linejoin: round; stroke-linecap: butt}</style>
 </defs>
 <g id="figure_1">
  <g id="patch_1">
   <path d="M 0 203.55 
L 585.15 203.55 
L 585.15 0 
L 0 0 
z
" style="fill: #ffffff"/>
  </g>
  <g id="axes_1">
   <g id="patch_2">
    <path d="M 7.2 196.35 
L 577.95 196.35 
L 577.95 25.933 
L 7.2 25.933 
z
" style="fill: #ffffff"/>
   </g>
   <g id="patch_3">
    <path d="M 110.648437 162.2666 
L 189.126562 162.2666 
L 189.126562 128.1832 
L 110.648437 128.1832 
z
" clip-path="url(#pea6c4d8dfb)" style="fill: #1f8a56; stroke: #1f8a56; stroke-linejoin: miter"/>
   </g>
   <g id="patch_4">
    <path d="M 253.335938 141.81656 
L 331.814062 141.81656 
L 331.814062 100.91648 
L 253.335938 100.91648 
z
" clip-path="url(#pea6c4d8dfb)" style="fill: #1f8a56; stroke: #1f8a56; stroke-linejoin: miter"/>
   </g>
   <g id="patch_5">
    <path d="M 396.023438 117.95818 
L 474.501563 117.95818 
L 474.501563 73.64976 
L 396.023438 73.64976 
z
" clip-path="url(#pea6c4d8dfb)" style="fill: #1f8a56; stroke: #1f8a56; stroke-linejoin: miter"/>
   </g>
   <g id="matplotlib.axis_1"/>
   <g id="matplotlib.axis_2"/>
   <g id="line2d_1">
    <path d="M 149.8875 165.67494 
L 149.8875 124.77486 
" clip-path="url(#pea6c4d8dfb)" style="fill: none; stroke: #1f8a56; stroke-width: 2; stroke-linecap: round"/>
   </g>
   <g id="line2d_2">
    <path d="M 292.575 145.2249 
L 292.575 97.50814 
" clip-path="url(#pea6c4d8dfb)" style="fill: none; stroke: #1f8a56; stroke-width: 2; stroke-linecap: round"/>
   </g>
   <g id="line2d_3">
    <path d="M 435.2625 121.36652 
L 435.2625 70.24142 
" clip-path="url(#pea6c4d8dfb)" style="fill: none; stroke: #1f8a56; stroke-width: 2; stroke-linecap: round"/>
   </g>
   <g id="text_1">
    <!-- ​ﻱﻮﻗ ﻱﺩﻮﻌﺻ ﺭﺍﺮﻤﺘﺳﺍ — (Three White Soldiers) ﺾﻴﺑ ﺩﻮﻨﺟ ﺔﺛﻼﺛ -->
    <g style="fill: #1f2937" transform="translate(140.910781 18.959) scale(0.11 -0.11)">
     <defs>
      <path id="NotoNaskhArabic-Bold-44" d="M 0 58 
Q -51 58 -51 109 
L -51 762 
Q -51 813 0 813 
Q 320 813 640 867 
Q 960 922 1139 998 
Q 1075 1146 976 1328 
Q 877 1510 819 1613 
Q 755 1734 710 1833 
Q 666 1933 666 2016 
Q 666 2176 838 2361 
Q 1011 2547 1248 2669 
Q 1293 2470 1347 2217 
Q 1402 1965 1446 1702 
Q 1485 1504 1501 1376 
Q 1517 1248 1517 1184 
Q 1517 1037 1443 822 
Q 1370 608 1267 410 
Q 685 58 0 58 
z
M 909 3546 
Q 774 3655 678 3747 
Q 582 3840 518 3911 
Q 653 4032 745 4118 
Q 838 4205 889 4269 
Q 960 4186 1052 4096 
Q 1145 4007 1261 3911 
Q 1126 3763 1036 3670 
Q 947 3578 909 3546 
z
M 1369 2995 
Q 1235 3104 1126 3203 
Q 1017 3303 928 3399 
Q 1024 3488 1132 3597 
Q 1241 3706 1357 3840 
Q 1395 3795 1497 3699 
Q 1600 3603 1760 3450 
Q 1677 3328 1577 3216 
Q 1478 3104 1369 2995 
z
M 480 2906 
Q 192 3123 45 3309 
Q 153 3418 262 3530 
Q 371 3642 480 3751 
Q 531 3687 630 3584 
Q 729 3482 870 3354 
Q 774 3226 678 3110 
Q 582 2995 480 2906 
z
" transform="scale(0.015625)"/>
      <path id="NotoNaskhArabic-Bold-2df" d="M 410 19 
L 378 307 
Q 704 397 937 470 
Q 1171 544 1344 621 
Q 1510 691 1635 768 
Q 1760 845 1875 947 
Q 1658 1402 1379 1776 
Q 1101 2150 742 2490 
L 506 2490 
Q 339 2662 278 2793 
Q 218 2925 218 3072 
Q 218 3264 314 3376 
Q 410 3488 634 3558 
Q 1274 3149 1901 1786 
Q 1933 1715 1987 1574 
Q 2042 1434 2118 1222 
Q 2304 1498 2416 1821 
Q 2528 2144 2592 2573 
Q 2637 2854 2656 3190 
Q 2675 3526 2675 3923 
Q 2733 3955 2816 4009 
Q 2899 4064 3008 4134 
Q 3194 4256 3354 4352 
Q 3347 3501 3360 2665 
Q 3373 1830 3386 992 
Q 3546 896 3699 854 
Q 3853 813 4090 813 
Q 4147 813 4147 762 
L 4147 109 
Q 4147 58 4090 58 
Q 3219 58 3117 634 
Q 3059 992 3021 1651 
Q 3002 1901 2986 2109 
Q 2970 2317 2957 2477 
L 2938 2310 
Q 2906 1920 2864 1645 
Q 2822 1370 2784 1222 
Q 2624 678 2413 419 
Q 2202 160 1875 122 
Q 1498 77 1133 54 
Q 768 32 410 19 
z
" transform="scale(0.015625)"/>
      <path id="NotoNaskhArabic-Bold-215" d="M 3302 58 
Q 2912 58 2675 182 
Q 2438 307 2393 531 
L 2336 768 
L 2080 243 
Q 1881 262 1711 288 
Q 1542 314 1395 365 
Q 1235 422 1075 518 
Q 915 614 806 716 
Q 697 819 697 890 
Q 697 941 738 1078 
Q 780 1216 838 1369 
Q 896 1523 940 1600 
Q 998 1728 1184 1882 
Q 1363 2042 1593 2192 
Q 1824 2342 1984 2413 
L 1952 2669 
Q 2118 2797 2223 2873 
Q 2329 2950 2418 3011 
Q 2508 3072 2617 3136 
L 2617 986 
Q 2924 813 3302 813 
Q 3353 813 3353 762 
L 3353 109 
Q 3353 58 3302 58 
z
M 2272 1005 
Q 2233 1158 2188 1366 
Q 2144 1574 2086 1837 
Q 1491 1638 1152 1318 
Q 1356 1178 1542 1123 
Q 1728 1069 1894 1043 
Q 2067 1011 2272 1005 
z
M 2138 3257 
Q 2003 3366 1894 3462 
Q 1786 3558 1696 3654 
Q 1933 3872 2125 4102 
Q 2182 4038 2284 3942 
Q 2387 3846 2528 3705 
Q 2355 3469 2138 3257 
z
M 1280 3161 
Q 1005 3385 838 3565 
Q 947 3673 1056 3785 
Q 1165 3897 1274 4006 
Q 1389 3872 1670 3609 
Q 1510 3379 1280 3161 
z
" transform="scale(0.015625)"/>
      <path id="NotoNaskhArabic-Bold-554" transform="scale(0.015625)"/>
      <path id="NotoNaskhArabic-Bold-74" d="M 0 58 
Q -51 58 -51 109 
L -51 762 
Q -51 813 0 813 
Q 467 813 793 829 
Q 1120 845 1427 934 
Q 1702 1018 1897 1069 
Q 2093 1120 2202 1146 
Q 2112 1197 2025 1251 
Q 1939 1306 1856 1363 
Q 1651 1504 1513 1558 
Q 1376 1613 1235 1613 
Q 1043 1613 870 1558 
Q 698 1504 480 1363 
Q 422 1421 377 1533 
Q 333 1645 333 1747 
Q 333 2029 582 2205 
Q 832 2381 1210 2381 
Q 1414 2381 1603 2310 
Q 1792 2240 2029 2080 
Q 2317 1882 2560 1763 
Q 2803 1645 3136 1555 
Q 3302 1517 3500 1494 
Q 3699 1472 3936 1472 
L 3603 794 
Q 3405 813 3273 825 
Q 3142 838 2963 826 
Q 2739 806 2483 704 
Q 2227 602 1990 467 
Q 1741 320 1533 237 
Q 1325 154 1107 115 
Q 890 77 624 67 
Q 358 58 0 58 
z
M 2272 -1107 
Q 2099 -966 1977 -851 
Q 1856 -736 1772 -646 
Q 1900 -518 2022 -393 
Q 2144 -269 2259 -134 
Q 2425 -326 2720 -595 
Q 2649 -697 2534 -828 
Q 2419 -960 2272 -1107 
z
" transform="scale(0.015625)"/>
      <path id="NotoNaskhArabic-Bold-1e9" d="M 0 58 
Q -51 58 -51 109 
L -51 762 
Q -51 813 0 813 
Q 416 813 627 966 
Q 710 1024 774 1145 
Q 838 1267 922 1427 
Q 1024 1632 1101 1680 
Q 1178 1728 1280 1728 
Q 1427 1728 1536 1638 
Q 1466 1478 1392 1312 
Q 1318 1146 1248 979 
Q 1562 813 1926 813 
Q 1978 813 1978 762 
L 1978 109 
Q 1978 58 1926 58 
Q 1440 58 998 499 
Q 960 435 925 384 
Q 890 333 858 288 
Q 774 192 550 125 
Q 326 58 0 58 
z
M 966 2284 
Q 640 2553 474 2745 
Q 621 2892 739 3017 
Q 858 3142 954 3257 
Q 1024 3180 1139 3065 
Q 1254 2950 1414 2796 
Q 1338 2688 1226 2560 
Q 1114 2432 966 2284 
z
" transform="scale(0.015625)"/>
      <path id="NotoNaskhArabic-Bold-219" d="M 1248 -1248 
Q 1171 -1248 1011 -1174 
Q 851 -1101 668 -982 
Q 486 -864 326 -730 
L 429 -461 
Q 602 -506 778 -528 
Q 954 -550 1133 -550 
Q 1536 -550 1862 -380 
Q 2189 -211 2368 64 
Q 2093 83 1894 102 
Q 1696 122 1574 147 
Q 838 307 838 1018 
Q 838 1370 972 1712 
Q 1107 2054 1325 2266 
Q 1549 2477 1766 2477 
Q 2029 2477 2262 2240 
Q 2496 2003 2650 1626 
Q 2720 1446 2768 1241 
Q 2816 1037 2835 813 
L 3181 813 
Q 3232 813 3232 762 
L 3232 109 
Q 3232 58 3181 58 
L 2784 58 
Q 2669 -365 2419 -669 
Q 2170 -973 1843 -1120 
Q 1555 -1248 1248 -1248 
z
M 2419 819 
Q 2285 1254 2077 1484 
Q 1869 1715 1626 1715 
Q 1504 1715 1401 1651 
Q 1299 1587 1235 1498 
Q 1178 1402 1178 1293 
Q 1178 941 1805 858 
Q 1952 838 2419 819 
z
" transform="scale(0.015625)"/>
      <path id="NotoNaskhArabic-Bold-b5" d="M 1075 0 
Q 218 0 218 499 
Q 218 634 272 784 
Q 326 934 410 1018 
Q 570 890 774 826 
Q 979 762 1280 762 
Q 1696 762 2118 896 
Q 2016 1082 1929 1222 
Q 1843 1363 1773 1466 
Q 1594 1728 1478 1923 
Q 1363 2118 1363 2240 
Q 1363 2445 1526 2630 
Q 1690 2816 1901 2880 
Q 1952 2714 2022 2515 
Q 2093 2317 2166 2125 
Q 2240 1933 2291 1792 
Q 2381 1549 2445 1337 
Q 2509 1126 2509 954 
Q 2509 896 2473 765 
Q 2438 634 2387 493 
Q 2336 352 2285 250 
Q 2054 134 1734 67 
Q 1414 0 1075 0 
z
" transform="scale(0.015625)"/>
      <path id="NotoNaskhArabic-Bold-26" d="M 0 58 
Q -51 58 -51 109 
L -51 762 
Q -51 813 0 813 
Q 320 813 640 867 
Q 960 922 1139 998 
Q 1075 1146 976 1328 
Q 877 1510 819 1613 
Q 755 1734 710 1833 
Q 666 1933 666 2016 
Q 666 2176 838 2361 
Q 1011 2547 1248 2669 
Q 1293 2470 1347 2217 
Q 1402 1965 1446 1702 
Q 1485 1504 1501 1376 
Q 1517 1248 1517 1184 
Q 1517 1037 1443 822 
Q 1370 608 1267 410 
Q 685 58 0 58 
z
M 916 -1427 
Q 743 -1286 621 -1171 
Q 500 -1056 416 -966 
Q 544 -838 666 -713 
Q 788 -589 903 -454 
Q 1069 -646 1364 -915 
Q 1293 -1017 1178 -1148 
Q 1063 -1280 916 -1427 
z
" transform="scale(0.015625)"/>
      <path id="NotoNaskhArabic-Bold-240" d="M 0 58 
Q -51 58 -51 109 
L -51 762 
Q -51 813 0 813 
Q 307 813 566 829 
Q 826 845 992 928 
Q 1120 992 1187 1104 
Q 1254 1216 1357 1421 
Q 1459 1632 1536 1680 
Q 1613 1728 1715 1728 
Q 1869 1728 1971 1638 
Q 1888 1427 1814 1264 
Q 1741 1101 1690 979 
Q 2003 813 2362 813 
Q 2413 813 2413 762 
L 2413 109 
Q 2413 58 2362 58 
Q 1875 58 1434 499 
L 1382 416 
Q 1203 179 883 118 
Q 563 58 0 58 
z
M 1651 -1235 
Q 1376 -1011 1209 -832 
Q 1414 -653 1638 -384 
Q 1657 -403 1756 -502 
Q 1856 -602 2035 -787 
Q 1971 -883 1875 -995 
Q 1779 -1107 1651 -1235 
z
M 793 -1331 
Q 633 -1203 527 -1100 
Q 422 -998 352 -922 
Q 460 -813 569 -701 
Q 678 -589 787 -480 
Q 864 -576 1184 -877 
Q 1030 -1107 793 -1331 
z
" transform="scale(0.015625)"/>
      <path id="NotoNaskhArabic-Bold-11c" d="M 1606 -1613 
Q 1037 -1613 736 -1277 
Q 435 -941 435 -301 
Q 435 32 595 627 
L 877 557 
Q 787 256 787 45 
Q 787 -858 1626 -858 
Q 2131 -858 2486 -726 
Q 2842 -595 3181 -288 
Q 2989 77 2880 291 
Q 2771 506 2716 618 
Q 2662 730 2649 784 
Q 2637 838 2637 883 
Q 2637 1408 3283 1728 
Q 3315 1530 3350 1328 
Q 3386 1126 3418 922 
L 3590 864 
Q 4864 2560 5619 2560 
Q 5779 2560 5968 2470 
Q 6157 2381 6345 2233 
Q 6534 2086 6688 1901 
Q 6918 1632 6918 1446 
Q 6918 1344 6902 1248 
Q 6886 1152 6854 1062 
Q 7098 922 7254 867 
Q 7411 813 7648 813 
Q 7706 813 7706 762 
L 7706 109 
Q 7706 58 7648 58 
Q 7347 58 7049 195 
Q 6752 333 6528 576 
Q 6214 307 5734 153 
Q 5254 0 4742 0 
Q 4448 0 4147 38 
Q 3846 77 3526 147 
Q 3526 102 3529 54 
Q 3533 6 3533 -45 
Q 3533 -474 3277 -838 
Q 3021 -1203 2579 -1408 
Q 2362 -1510 2115 -1561 
Q 1869 -1613 1606 -1613 
z
M 4806 704 
Q 5267 704 5670 813 
Q 6074 922 6541 1146 
Q 5978 1805 5466 1805 
Q 5088 1805 4544 1318 
Q 4410 1197 4275 1059 
Q 4141 922 4006 768 
Q 4243 742 4444 723 
Q 4646 704 4806 704 
z
M 4780 3001 
Q 4454 3270 4288 3462 
Q 4435 3609 4553 3734 
Q 4672 3859 4768 3974 
Q 4838 3897 4953 3782 
Q 5068 3667 5228 3513 
Q 5152 3405 5040 3277 
Q 4928 3149 4780 3001 
z
" transform="scale(0.015625)"/>
      <path id="DejaVuSans-Bold-b" d="M 2413 -844 
L 1484 -844 
Q 1006 -72 778 623 
Q 550 1319 550 2003 
Q 550 2688 779 3389 
Q 1009 4091 1484 4856 
L 2413 4856 
Q 2013 4116 1813 3408 
Q 1613 2700 1613 2009 
Q 1613 1319 1811 609 
Q 2009 -100 2413 -844 
z
" transform="scale(0.015625)"/>
      <path id="DejaVuSans-Bold-37" d="M 31 4666 
L 4331 4666 
L 4331 3756 
L 2784 3756 
L 2784 0 
L 1581 0 
L 1581 3756 
L 31 3756 
L 31 4666 
z
" transform="scale(0.015625)"/>
      <path id="DejaVuSans-Bold-4b" d="M 4056 2131 
L 4056 0 
L 2931 0 
L 2931 347 
L 2931 1625 
Q 2931 2084 2911 2256 
Q 2891 2428 2841 2509 
Q 2775 2619 2662 2680 
Q 2550 2741 2406 2741 
Q 2056 2741 1856 2470 
Q 1656 2200 1656 1722 
L 1656 0 
L 538 0 
L 538 4863 
L 1656 4863 
L 1656 2988 
Q 1909 3294 2193 3439 
Q 2478 3584 2822 3584 
Q 3428 3584 3742 3212 
Q 4056 2841 4056 2131 
z
" transform="scale(0.015625)"/>
      <path id="DejaVuSans-Bold-55" d="M 3138 2547 
Q 2991 2616 2845 2648 
Q 2700 2681 2553 2681 
Q 2122 2681 1889 2404 
Q 1656 2128 1656 1613 
L 1656 0 
L 538 0 
L 538 3500 
L 1656 3500 
L 1656 2925 
Q 1872 3269 2151 3426 
Q 2431 3584 2822 3584 
Q 2878 3584 2943 3579 
Q 3009 3575 3134 3559 
L 3138 2547 
z
" transform="scale(0.015625)"/>
      <path id="DejaVuSans-Bold-48" d="M 4031 1759 
L 4031 1441 
L 1416 1441 
Q 1456 1047 1700 850 
Q 1944 653 2381 653 
Q 2734 653 3104 758 
Q 3475 863 3866 1075 
L 3866 213 
Q 3469 63 3072 -14 
Q 2675 -91 2278 -91 
Q 1328 -91 801 392 
Q 275 875 275 1747 
Q 275 2603 792 3093 
Q 1309 3584 2216 3584 
Q 3041 3584 3536 3087 
Q 4031 2591 4031 1759 
z
M 2881 2131 
Q 2881 2450 2695 2645 
Q 2509 2841 2209 2841 
Q 1884 2841 1681 2658 
Q 1478 2475 1428 2131 
L 2881 2131 
z
" transform="scale(0.015625)"/>
      <path id="DejaVuSans-Bold-3a" d="M 191 4666 
L 1344 4666 
L 2150 1275 
L 2950 4666 
L 4109 4666 
L 4909 1275 
L 5716 4666 
L 6859 4666 
L 5759 0 
L 4372 0 
L 3525 3547 
L 2688 0 
L 1300 0 
L 191 4666 
z
" transform="scale(0.015625)"/>
      <path id="DejaVuSans-Bold-4c" d="M 538 3500 
L 1656 3500 
L 1656 0 
L 538 0 
L 538 3500 
z
M 538 4863 
L 1656 4863 
L 1656 3950 
L 538 3950 
L 538 4863 
z
" transform="scale(0.015625)"/>
      <path id="DejaVuSans-Bold-57" d="M 1759 4494 
L 1759 3500 
L 2913 3500 
L 2913 2700 
L 1759 2700 
L 1759 1216 
Q 1759 972 1856 886 
Q 1953 800 2241 800 
L 2816 800 
L 2816 0 
L 1856 0 
Q 1194 0 917 276 
Q 641 553 641 1216 
L 641 2700 
L 84 2700 
L 84 3500 
L 641 3500 
L 641 4494 
L 1759 4494 
z
" transform="scale(0.015625)"/>
      <path id="DejaVuSans-Bold-36" d="M 3834 4519 
L 3834 3531 
Q 3450 3703 3084 3790 
Q 2719 3878 2394 3878 
Q 1963 3878 1756 3759 
Q 1550 3641 1550 3391 
Q 1550 3203 1689 3098 
Q 1828 2994 2194 2919 
L 2706 2816 
Q 3484 2659 3812 2340 
Q 4141 2022 4141 1434 
Q 4141 663 3683 286 
Q 3225 -91 2284 -91 
Q 1841 -91 1394 -6 
Q 947 78 500 244 
L 500 1259 
Q 947 1022 1364 901 
Q 1781 781 2169 781 
Q 2563 781 2772 912 
Q 2981 1044 2981 1288 
Q 2981 1506 2839 1625 
Q 2697 1744 2272 1838 
L 1806 1941 
Q 1106 2091 782 2419 
Q 459 2747 459 3303 
Q 459 4000 909 4375 
Q 1359 4750 2203 4750 
Q 2588 4750 2994 4692 
Q 3400 4634 3834 4519 
z
" transform="scale(0.015625)"/>
      <path id="DejaVuSans-Bold-52" d="M 2203 2784 
Q 1831 2784 1636 2517 
Q 1441 2250 1441 1747 
Q 1441 1244 1636 976 
Q 1831 709 2203 709 
Q 2569 709 2762 976 
Q 2956 1244 2956 1747 
Q 2956 2250 2762 2517 
Q 2569 2784 2203 2784 
z
M 2203 3584 
Q 3106 3584 3614 3096 
Q 4122 2609 4122 1747 
Q 4122 884 3614 396 
Q 3106 -91 2203 -91 
Q 1297 -91 786 396 
Q 275 884 275 1747 
Q 275 2609 786 3096 
Q 1297 3584 2203 3584 
z
" transform="scale(0.015625)"/>
      <path id="DejaVuSans-Bold-4f" d="M 538 4863 
L 1656 4863 
L 1656 0 
L 538 0 
L 538 4863 
z
" transform="scale(0.015625)"/>
      <path id="DejaVuSans-Bold-47" d="M 2919 2988 
L 2919 4863 
L 4044 4863 
L 4044 0 
L 2919 0 
L 2919 506 
Q 2688 197 2409 53 
Q 2131 -91 1766 -91 
Q 1119 -91 703 423 
Q 288 938 288 1747 
Q 288 2556 703 3070 
Q 1119 3584 1766 3584 
Q 2128 3584 2408 3439 
Q 2688 3294 2919 2988 
z
M 2181 722 
Q 2541 722 2730 984 
Q 2919 1247 2919 1747 
Q 2919 2247 2730 2509 
Q 2541 2772 2181 2772 
Q 1825 2772 1636 2509 
Q 1447 2247 1447 1747 
Q 1447 1247 1636 984 
Q 1825 722 2181 722 
z
" transform="scale(0.015625)"/>
      <path id="DejaVuSans-Bold-56" d="M 3272 3391 
L 3272 2541 
Q 2913 2691 2578 2766 
Q 2244 2841 1947 2841 
Q 1628 2841 1473 2761 
Q 1319 2681 1319 2516 
Q 1319 2381 1436 2309 
Q 1553 2238 1856 2203 
L 2053 2175 
Q 2913 2066 3209 1816 
Q 3506 1566 3506 1031 
Q 3506 472 3093 190 
Q 2681 -91 1863 -91 
Q 1516 -91 1145 -36 
Q 775 19 384 128 
L 384 978 
Q 719 816 1070 734 
Q 1422 653 1784 653 
Q 2113 653 2278 743 
Q 2444 834 2444 1013 
Q 2444 1163 2330 1236 
Q 2216 1309 1875 1350 
L 1678 1375 
Q 931 1469 631 1722 
Q 331 1975 331 2491 
Q 331 3047 712 3315 
Q 1094 3584 1881 3584 
Q 2191 3584 2531 3537 
Q 2872 3491 3272 3391 
z
" transform="scale(0.015625)"/>
      <path id="DejaVuSans-Bold-c" d="M 513 -844 
Q 913 -100 1113 609 
Q 1313 1319 1313 2009 
Q 1313 2700 1113 3408 
Q 913 4116 513 4856 
L 1441 4856 
Q 1916 4091 2145 3389 
Q 2375 2688 2375 2003 
Q 2375 1319 2147 623 
Q 1919 -72 1441 -844 
L 513 -844 
z
" transform="scale(0.015625)"/>
      <path id="DejaVuSans-Bold-af6" d="M 344 2156 
L 6056 2156 
L 6056 1350 
L 344 1350 
L 344 2156 
z
" transform="scale(0.015625)"/>
      <path id="NotoNaskhArabic-Bold-3" d="M 774 58 
Q 742 717 710 1216 
Q 678 1715 646 2134 
Q 614 2554 576 2950 
Q 538 3347 493 3808 
Q 474 3968 566 4089 
Q 659 4211 822 4281 
Q 986 4352 1178 4352 
Q 1229 4154 1296 3955 
Q 1363 3757 1440 3565 
L 1216 3398 
Q 1229 2867 1222 2035 
Q 1216 1203 1184 109 
L 774 58 
z
" transform="scale(0.015625)"/>
      <path id="NotoNaskhArabic-Bold-fa" d="M 1472 0 
Q 1165 0 736 205 
Q 608 141 406 99 
Q 205 58 0 58 
Q -51 58 -51 109 
L -51 762 
Q -51 813 0 813 
Q 294 813 441 851 
Q 589 890 678 979 
Q 749 1050 806 1142 
Q 864 1235 998 1466 
Q 1037 1536 1110 1581 
Q 1184 1626 1267 1626 
Q 1357 1626 1466 1555 
Q 1363 1286 1286 1091 
Q 1210 896 1158 781 
Q 1331 762 1504 762 
Q 1632 762 1734 778 
Q 1837 794 1965 832 
Q 2010 902 2093 1104 
Q 2176 1306 2317 1696 
Q 2349 1779 2432 1833 
Q 2515 1888 2630 1888 
Q 2765 1888 2854 1818 
Q 2778 1626 2710 1414 
Q 2643 1203 2586 992 
Q 2829 870 3133 806 
Q 3437 742 3782 704 
Q 3584 1094 3443 1376 
Q 3302 1658 3302 1798 
Q 3302 1952 3475 2141 
Q 3648 2330 3885 2451 
Q 3994 1907 4051 1603 
Q 4109 1299 4131 1145 
Q 4154 992 4154 909 
Q 4154 806 4112 633 
Q 4070 461 4006 288 
Q 3942 115 3885 0 
Q 3501 0 3097 89 
Q 2694 179 2355 326 
Q 2317 243 2278 173 
Q 2234 102 1994 51 
Q 1754 0 1472 0 
z
" transform="scale(0.015625)"/>
      <path id="NotoNaskhArabic-Bold-37" d="M 0 58 
Q -51 58 -51 109 
L -51 762 
Q -51 813 0 813 
Q 307 813 566 829 
Q 826 845 992 928 
Q 1120 992 1187 1104 
Q 1254 1216 1357 1421 
Q 1459 1632 1536 1680 
Q 1613 1728 1715 1728 
Q 1869 1728 1971 1638 
Q 1888 1427 1814 1264 
Q 1741 1101 1690 979 
Q 2003 813 2362 813 
Q 2413 813 2413 762 
L 2413 109 
Q 2413 58 2362 58 
Q 1875 58 1434 499 
L 1382 416 
Q 1203 179 883 118 
Q 563 58 0 58 
z
M 1664 2252 
Q 1529 2361 1420 2457 
Q 1312 2553 1222 2649 
Q 1459 2867 1651 3097 
Q 1708 3033 1810 2937 
Q 1913 2841 2054 2700 
Q 1881 2464 1664 2252 
z
M 806 2156 
Q 531 2380 364 2560 
Q 473 2668 582 2780 
Q 691 2892 800 3001 
Q 915 2867 1196 2604 
Q 1036 2374 806 2156 
z
" transform="scale(0.015625)"/>
      <path id="NotoNaskhArabic-Bold-1e4" d="M 2016 0 
Q 1606 0 1257 73 
Q 909 147 685 269 
Q 506 147 346 102 
Q 186 58 0 58 
Q -51 58 -51 109 
L -51 762 
Q -51 813 0 813 
Q 160 813 333 858 
Q 333 870 336 886 
Q 339 902 339 922 
Q 384 1261 573 1597 
Q 762 1933 1018 2131 
Q 1286 2342 1568 2342 
Q 1696 2342 1811 2176 
Q 1862 2093 1929 1942 
Q 1997 1792 2074 1581 
Q 2227 1133 2394 960 
Q 2528 813 2682 813 
Q 2752 813 2752 755 
L 2752 128 
Q 2752 58 2682 58 
Q 2362 58 2106 301 
L 2016 0 
z
M 1818 710 
Q 1606 1133 1549 1664 
Q 979 1440 698 1082 
Q 877 941 1155 851 
Q 1434 762 1818 710 
z
" transform="scale(0.015625)"/>
      <path id="NotoNaskhArabic-Bold-d4" d="M 653 -1248 
Q 544 -1248 304 -1107 
Q 64 -966 -218 -730 
L -115 -461 
Q 243 -550 531 -550 
Q 1005 -550 1331 -313 
Q 1658 -77 1805 371 
Q 1760 467 1705 566 
Q 1651 666 1587 762 
Q 1299 1203 1203 1414 
Q 1107 1626 1107 1779 
Q 1107 1965 1254 2147 
Q 1402 2330 1638 2451 
Q 1670 2330 1705 2208 
Q 1741 2086 1786 1958 
Q 1926 1555 2006 1299 
Q 2086 1043 2106 934 
Q 2323 813 2586 813 
Q 2637 813 2637 762 
L 2637 109 
Q 2637 58 2586 58 
Q 2349 58 2112 179 
Q 2042 -243 1837 -566 
Q 1632 -890 1328 -1069 
Q 1024 -1248 653 -1248 
z
" transform="scale(0.015625)"/>
      <path id="NotoNaskhArabic-Bold-d3" d="M 653 -1248 
Q 544 -1248 304 -1107 
Q 64 -966 -218 -730 
L -115 -461 
Q 243 -550 531 -550 
Q 1005 -550 1331 -313 
Q 1658 -77 1805 371 
Q 1760 467 1705 566 
Q 1651 666 1587 762 
Q 1402 1050 1254 1312 
Q 1107 1574 1107 1779 
Q 1107 1965 1254 2147 
Q 1402 2330 1638 2451 
Q 1677 2317 1731 2137 
Q 1786 1958 1846 1782 
Q 1907 1606 1952 1472 
Q 2035 1235 2089 1004 
Q 2144 774 2144 570 
Q 2144 70 1952 -349 
Q 1760 -768 1421 -1011 
Q 1082 -1248 653 -1248 
z
" transform="scale(0.015625)"/>
      <path id="NotoNaskhArabic-Bold-112" d="M 2592 0 
Q 2163 0 1699 80 
Q 1235 160 851 339 
Q 826 314 797 285 
Q 768 256 730 230 
Q 595 147 400 102 
Q 205 58 0 58 
Q -51 58 -51 109 
L -51 762 
Q -51 813 0 813 
Q 243 813 380 841 
Q 518 870 614 969 
Q 710 1069 826 1274 
Q 851 1318 880 1363 
Q 909 1408 934 1466 
Q 1030 1638 1222 1638 
Q 1318 1638 1427 1574 
Q 1363 1414 1302 1260 
Q 1242 1107 1178 954 
Q 1248 928 1312 909 
Q 1376 890 1440 864 
Q 2099 1741 2605 2150 
Q 3091 2560 3469 2560 
Q 3629 2560 3824 2464 
Q 4019 2368 4211 2214 
Q 4403 2061 4544 1882 
Q 4762 1619 4762 1446 
Q 4762 582 3699 192 
Q 3174 0 2592 0 
z
M 2656 704 
Q 3117 704 3520 813 
Q 3923 922 4390 1146 
Q 3814 1805 3309 1805 
Q 3027 1805 2652 1536 
Q 2278 1267 1862 774 
Q 2067 742 2265 723 
Q 2464 704 2656 704 
z
" transform="scale(0.015625)"/>
      <path id="NotoNaskhArabic-Bold-135" d="M 6 58 
Q -51 58 -51 115 
L -51 755 
Q -51 813 6 813 
Q 346 813 627 822 
Q 909 832 1126 870 
L 998 1030 
Q 909 1152 835 1235 
Q 762 1318 691 1382 
Q 640 1434 589 1478 
Q 538 1523 486 1568 
L 371 1485 
Q 198 1670 198 1894 
Q 198 2112 390 2272 
Q 582 2432 915 2554 
Q 1242 2669 1549 2669 
Q 1830 2669 2080 2547 
Q 2330 2426 2470 2208 
Q 2618 1990 2618 1760 
Q 2618 1530 2490 1306 
Q 2362 1082 2118 858 
Q 2291 832 2486 822 
Q 2682 813 2912 813 
Q 2976 813 2976 755 
L 2976 115 
Q 2976 58 2912 58 
Q 2464 58 2105 160 
Q 1747 262 1530 448 
Q 845 58 6 58 
z
M 1626 1062 
Q 1978 1293 1978 1613 
Q 1978 1773 1862 1865 
Q 1747 1958 1574 1958 
Q 1408 1958 1257 1926 
Q 1107 1894 902 1805 
Q 973 1741 1117 1603 
Q 1261 1466 1459 1248 
Q 1498 1203 1539 1158 
Q 1581 1114 1626 1062 
z
" transform="scale(0.015625)"/>
      <path id="NotoNaskhArabic-Bold-23e" d="M 1606 -1613 
Q 1037 -1613 736 -1277 
Q 435 -941 435 -301 
Q 435 32 595 627 
L 877 557 
Q 787 256 787 45 
Q 787 -858 1683 -858 
Q 1965 -858 2291 -771 
Q 2618 -685 2931 -531 
Q 3078 -454 3222 -368 
Q 3366 -282 3494 -179 
Q 3418 -179 3344 -179 
Q 3270 -179 3200 -173 
Q 2362 -128 2093 230 
Q 1939 442 1939 762 
Q 1939 1005 2038 1267 
Q 2138 1530 2307 1776 
Q 2477 2022 2688 2202 
Q 3008 2464 3290 2464 
Q 3725 2464 3853 1638 
L 3571 1581 
Q 3475 1702 3366 1702 
Q 3194 1702 2976 1577 
Q 2758 1453 2560 1229 
Q 2374 1024 2266 755 
Q 2394 704 2582 665 
Q 2771 627 3021 595 
Q 3245 570 3376 525 
Q 3507 480 3603 403 
Q 3699 333 3760 179 
Q 3821 26 3821 -122 
Q 3821 -314 3667 -547 
Q 3514 -781 3242 -998 
Q 2970 -1216 2624 -1376 
Q 2125 -1613 1606 -1613 
z
M 2227 -2630 
Q 1952 -2406 1785 -2227 
Q 1990 -2048 2214 -1779 
Q 2233 -1798 2332 -1897 
Q 2432 -1997 2611 -2182 
Q 2547 -2278 2451 -2390 
Q 2355 -2502 2227 -2630 
z
M 1369 -2726 
Q 1209 -2598 1103 -2495 
Q 998 -2393 928 -2317 
Q 1036 -2208 1145 -2096 
Q 1254 -1984 1363 -1875 
Q 1440 -1971 1760 -2272 
Q 1606 -2502 1369 -2726 
z
" transform="scale(0.015625)"/>
      <path id="NotoNaskhArabic-Bold-16a" d="M 6 58 
Q -51 58 -51 115 
L -51 762 
Q -51 813 6 813 
Q 710 813 1196 857 
Q 1683 902 2061 1075 
Q 2048 1120 2029 1177 
Q 2010 1235 1978 1312 
Q 1824 1178 1638 1107 
Q 1453 1037 1229 1037 
Q 864 1037 685 1229 
Q 506 1421 506 1709 
Q 506 2029 624 2297 
Q 742 2566 941 2720 
Q 1043 2803 1158 2851 
Q 1274 2899 1395 2899 
Q 1658 2899 1904 2608 
Q 2150 2317 2285 1869 
Q 2349 1677 2377 1469 
Q 2406 1261 2406 1043 
Q 2406 832 2189 397 
Q 1875 275 1577 201 
Q 1280 128 912 93 
Q 544 58 6 58 
z
M 1318 1504 
Q 1568 1504 1856 1594 
Q 1734 1875 1593 2003 
Q 1453 2131 1254 2131 
Q 1056 2131 944 2032 
Q 832 1933 832 1811 
Q 832 1658 947 1581 
Q 1062 1504 1318 1504 
z
M 1818 3296 
Q 1683 3405 1574 3501 
Q 1466 3597 1376 3693 
Q 1613 3911 1805 4141 
Q 1862 4077 1964 3981 
Q 2067 3885 2208 3744 
Q 2035 3508 1818 3296 
z
M 960 3200 
Q 685 3424 518 3604 
Q 627 3712 736 3824 
Q 845 3936 954 4045 
Q 1069 3911 1350 3648 
Q 1190 3418 960 3200 
z
" transform="scale(0.015625)"/>
     </defs>
     <use xlink:href="#NotoNaskhArabic-Bold-44"/>
     <use xlink:href="#NotoNaskhArabic-Bold-2df" transform="translate(27.5 0)"/>
     <use xlink:href="#NotoNaskhArabic-Bold-44" transform="translate(90.59375 0)"/>
     <use xlink:href="#NotoNaskhArabic-Bold-215" transform="translate(118.09375 0)"/>
     <use xlink:href="#NotoNaskhArabic-Bold-554" transform="translate(168.796875 0)"/>
     <use xlink:href="#NotoNaskhArabic-Bold-74" transform="translate(190.890625 0)"/>
     <use xlink:href="#NotoNaskhArabic-Bold-1e9" transform="translate(255.796875 0)"/>
     <use xlink:href="#NotoNaskhArabic-Bold-219" transform="translate(285 0)"/>
     <use xlink:href="#NotoNaskhArabic-Bold-b5" transform="translate(333.796875 0)"/>
     <use xlink:href="#NotoNaskhArabic-Bold-554" transform="translate(377.296875 0)"/>
     <use xlink:href="#NotoNaskhArabic-Bold-26" transform="translate(399.390625 0)"/>
     <use xlink:href="#NotoNaskhArabic-Bold-240" transform="translate(426.890625 0)"/>
     <use xlink:href="#NotoNaskhArabic-Bold-11c" transform="translate(462.890625 0)"/>
     <use xlink:href="#NotoNaskhArabic-Bold-554" transform="translate(581.59375 0)"/>
     <use xlink:href="#DejaVuSans-Bold-b" transform="translate(603.6875 0)"/>
     <use xlink:href="#DejaVuSans-Bold-37" transform="translate(649.390625 0)"/>
     <use xlink:href="#DejaVuSans-Bold-4b" transform="translate(717.609375 0)"/>
     <use xlink:href="#DejaVuSans-Bold-55" transform="translate(788.796875 0)"/>
     <use xlink:href="#DejaVuSans-Bold-48" transform="translate(838.109375 0)"/>
     <use xlink:href="#DejaVuSans-Bold-48" transform="translate(905.9375 0)"/>
     <use xlink:href="#NotoNaskhArabic-Bold-554" transform="translate(973.765625 0)"/>
     <use xlink:href="#DejaVuSans-Bold-3a" transform="translate(995.859375 0)"/>
     <use xlink:href="#DejaVuSans-Bold-4b" transform="translate(1106.15625 0)"/>
     <use xlink:href="#DejaVuSans-Bold-4c" transform="translate(1177.34375 0)"/>
     <use xlink:href="#DejaVuSans-Bold-57" transform="translate(1211.625 0)"/>
     <use xlink:href="#DejaVuSans-Bold-48" transform="translate(1259.421875 0)"/>
     <use xlink:href="#NotoNaskhArabic-Bold-554" transform="translate(1327.25 0)"/>
     <use xlink:href="#DejaVuSans-Bold-36" transform="translate(1349.34375 0)"/>
     <use xlink:href="#DejaVuSans-Bold-52" transform="translate(1421.359375 0)"/>
     <use xlink:href="#DejaVuSans-Bold-4f" transform="translate(1490.0625 0)"/>
     <use xlink:href="#DejaVuSans-Bold-47" transform="translate(1524.34375 0)"/>
     <use xlink:href="#DejaVuSans-Bold-4c" transform="translate(1595.921875 0)"/>
     <use xlink:href="#DejaVuSans-Bold-48" transform="translate(1630.203125 0)"/>
     <use xlink:href="#DejaVuSans-Bold-55" transform="translate(1698.03125 0)"/>
     <use xlink:href="#DejaVuSans-Bold-56" transform="translate(1747.34375 0)"/>
     <use xlink:href="#DejaVuSans-Bold-c" transform="translate(1806.859375 0)"/>
     <use xlink:href="#NotoNaskhArabic-Bold-554" transform="translate(1852.5625 0)"/>
     <use xlink:href="#DejaVuSans-Bold-af6" transform="translate(1874.65625 0)"/>
     <use xlink:href="#NotoNaskhArabic-Bold-554" transform="translate(1974.65625 0)"/>
     <use xlink:href="#NotoNaskhArabic-Bold-3" transform="translate(1996.75 0)"/>
     <use xlink:href="#NotoNaskhArabic-Bold-fa" transform="translate(2025.15625 0)"/>
     <use xlink:href="#NotoNaskhArabic-Bold-37" transform="translate(2095.15625 0)"/>
     <use xlink:href="#NotoNaskhArabic-Bold-1e4" transform="translate(2131.15625 0)"/>
     <use xlink:href="#NotoNaskhArabic-Bold-d4" transform="translate(2172.453125 0)"/>
     <use xlink:href="#NotoNaskhArabic-Bold-3" transform="translate(2211.953125 0)"/>
     <use xlink:href="#NotoNaskhArabic-Bold-d3" transform="translate(2240.359375 0)"/>
     <use xlink:href="#NotoNaskhArabic-Bold-554" transform="translate(2278.0625 0)"/>
     <use xlink:href="#NotoNaskhArabic-Bold-112" transform="translate(2300.15625 0)"/>
     <use xlink:href="#NotoNaskhArabic-Bold-135" transform="translate(2379.65625 0)"/>
     <use xlink:href="#NotoNaskhArabic-Bold-219" transform="translate(2424.453125 0)"/>
     <use xlink:href="#NotoNaskhArabic-Bold-b5" transform="translate(2473.25 0)"/>
     <use xlink:href="#NotoNaskhArabic-Bold-23e" transform="translate(2516.75 0)"/>
     <use xlink:href="#NotoNaskhArabic-Bold-554" transform="translate(2580.34375 0)"/>
     <use xlink:href="#NotoNaskhArabic-Bold-16a" transform="translate(2602.4375 0)"/>
     <use xlink:href="#NotoNaskhArabic-Bold-219" transform="translate(2645.140625 0)"/>
     <use xlink:href="#NotoNaskhArabic-Bold-23e" transform="translate(2693.9375 0)"/>
     <use xlink:href="#NotoNaskhArabic-Bold-554" transform="translate(2757.53125 0)"/>
    </g>
   </g>
  </g>
 </g>
 <defs>
  <clipPath id="pea6c4d8dfb">
   <rect x="7.2" y="25.933" width="570.75" height="170.417"/>
  </clipPath>
 </defs>
</svg>
