<?xml version="1.0" encoding="utf-8" standalone="no"?>
<!DOCTYPE svg PUBLIC "-//W3C//DTD SVG 1.1//EN"
  "http://www.w3.org/Graphics/SVG/1.1/DTD/svg11.dtd">
<svg xmlns:xlink="http://www.w3.org/1999/xlink" width="729.15pt" height="325.854418pt" viewBox="0 0 729.15 325.854418" xmlns="http://www.w3.org/2000/svg" version="1.1">
 <metadata>
  <rdf:RDF xmlns:dc="http://purl.org/dc/elements/1.1/" xmlns:cc="http://creativecommons.org/ns#" xmlns:rdf="http://www.w3.org/1999/02/22-rdf-syntax-ns#">
   <cc:Work>
    <dc:type rdf:resource="http://purl.org/dc/dcmitype/StillImage"/>
    <dc:date>2026-07-18T23:22:45.298704</dc:date>
    <dc:format>image/svg+xml</dc:format>
    <dc:creator>
     <cc:Agent>
      <dc:title>Matplotlib v3.11.1, https://matplotlib.org/</dc:title>
     </cc:Agent>
    </dc:creator>
   </cc:Work>
  </rdf:RDF>
 </metadata>
 <defs>
  <style type="text/css">*{stroke-linejoin: round; stroke-linecap: butt}</style>
 </defs>
 <g id="figure_1">
  <g id="patch_1">
   <path d="M 0 325.854418 
L 729.15 325.854418 
L 729.15 -0 
L 0 -0 
z
" style="fill: #ffffff"/>
  </g>
  <g id="axes_1">
   <g id="patch_2">
    <path d="M 40.387656 308.692648 
L 363.2625 308.692648 
L 363.2625 24.23 
L 40.387656 24.23 
z
" style="fill: #ffffff"/>
   </g>
   <g id="matplotlib.axis_1"/>
   <g id="matplotlib.axis_2">
    <g id="ytick_1">
     <g id="line2d_1">
      <defs>
       <path id="m0973680934" d="M 0 0 
L -3.5 0 
" style="stroke: #555555; stroke-width: 0.8"/>
      </defs>
      <g>
       <use xlink:href="#m0973680934" x="40.387656" y="306.385168" style="fill: #555555; stroke: #555555; stroke-width: 0.8"/>
      </g>
     </g>
     <g id="text_1">
      <!-- 100.0 -->
      <g style="fill: #555555" transform="translate(7.2 311.997418) scale(0.105 -0.105)">
       <defs>
        <path id="NotoNaskhArabic-Regular-4cd" d="M 1722 0 
L 1722 3194 
Q 1722 3405 1728 3603 
Q 1734 3802 1747 3981 
Q 1702 3936 1657 3891 
Q 1613 3846 1562 3808 
Q 1402 3674 1226 3530 
Q 1050 3386 864 3232 
L 570 3610 
L 1805 4570 
L 2272 4570 
L 2272 0 
L 1722 0 
z
" transform="scale(0.015625)"/>
        <path id="NotoNaskhArabic-Regular-4cc" d="M 1824 -64 
Q 1082 -64 698 534 
Q 314 1133 314 2291 
Q 314 3488 682 4064 
Q 1050 4640 1824 4640 
Q 2566 4640 2956 4038 
Q 3347 3437 3347 2291 
Q 3347 1101 2969 518 
Q 2592 -64 1824 -64 
z
M 1824 416 
Q 2208 416 2426 678 
Q 2778 1094 2778 2291 
Q 2778 3571 2368 3962 
Q 2163 4160 1824 4160 
Q 1427 4160 1203 3878 
Q 877 3469 877 2291 
Q 877 1075 1229 666 
Q 1440 416 1824 416 
z
" transform="scale(0.015625)"/>
        <path id="NotoNaskhArabic-Regular-514" d="M 800 -422 
Q 646 -314 518 -230 
Q 390 -147 294 -90 
Q 326 -19 364 41 
Q 403 102 429 166 
Q 493 282 576 410 
Q 1069 122 1069 32 
Q 1069 -38 800 -422 
z
" transform="scale(0.015625)"/>
       </defs>
       <use xlink:href="#NotoNaskhArabic-Regular-4cd"/>
       <use xlink:href="#NotoNaskhArabic-Regular-4cc" transform="translate(57.203125 0)"/>
       <use xlink:href="#NotoNaskhArabic-Regular-4cc" transform="translate(114.40625 0)"/>
       <use xlink:href="#NotoNaskhArabic-Regular-514" transform="translate(171.609375 0)"/>
       <use xlink:href="#NotoNaskhArabic-Regular-4cc" transform="translate(192.203125 0)"/>
      </g>
     </g>
    </g>
    <g id="ytick_2">
     <g id="line2d_2">
      <g>
       <use xlink:href="#m0973680934" x="40.387656" y="268.907854" style="fill: #555555; stroke: #555555; stroke-width: 0.8"/>
      </g>
     </g>
     <g id="text_2">
      <!-- 102.5 -->
      <g style="fill: #555555" transform="translate(7.2 274.520104) scale(0.105 -0.105)">
       <defs>
        <path id="NotoNaskhArabic-Regular-4ce" d="M 307 0 
L 307 467 
L 1504 1677 
Q 1773 1952 1952 2147 
Q 2131 2342 2221 2458 
Q 2413 2720 2489 2925 
Q 2566 3130 2566 3386 
Q 2566 3744 2352 3949 
Q 2138 4154 1760 4154 
Q 1478 4154 1228 4058 
Q 979 3962 659 3718 
L 358 4096 
Q 1005 4634 1760 4634 
Q 2240 4634 2576 4448 
Q 2912 4262 3053 3923 
Q 3142 3686 3142 3418 
Q 3142 3123 3033 2841 
Q 2925 2560 2707 2272 
Q 2598 2131 2416 1929 
Q 2234 1728 1971 1478 
L 1018 538 
L 1018 512 
L 3328 512 
L 3328 0 
L 307 0 
z
" transform="scale(0.015625)"/>
        <path id="NotoNaskhArabic-Regular-4d1" d="M 1587 -64 
Q 826 -64 403 186 
L 403 717 
Q 634 576 960 496 
Q 1286 416 1594 416 
Q 2131 416 2425 672 
Q 2720 928 2720 1402 
Q 2720 2330 1574 2330 
Q 1210 2330 794 2234 
L 512 2413 
L 685 4570 
L 2976 4570 
L 2976 4058 
L 1165 4058 
L 1056 2733 
Q 1235 2765 1411 2784 
Q 1587 2803 1760 2803 
Q 2477 2803 2886 2444 
Q 3296 2086 3296 1459 
Q 3296 749 2841 342 
Q 2387 -64 1587 -64 
z
" transform="scale(0.015625)"/>
       </defs>
       <use xlink:href="#NotoNaskhArabic-Regular-4cd"/>
       <use xlink:href="#NotoNaskhArabic-Regular-4cc" transform="translate(57.203125 0)"/>
       <use xlink:href="#NotoNaskhArabic-Regular-4ce" transform="translate(114.40625 0)"/>
       <use xlink:href="#NotoNaskhArabic-Regular-514" transform="translate(171.609375 0)"/>
       <use xlink:href="#NotoNaskhArabic-Regular-4d1" transform="translate(192.203125 0)"/>
      </g>
     </g>
    </g>
    <g id="ytick_3">
     <g id="line2d_3">
      <g>
       <use xlink:href="#m0973680934" x="40.387656" y="231.430539" style="fill: #555555; stroke: #555555; stroke-width: 0.8"/>
      </g>
     </g>
     <g id="text_3">
      <!-- 105.0 -->
      <g style="fill: #555555" transform="translate(7.2 237.042789) scale(0.105 -0.105)">
       <use xlink:href="#NotoNaskhArabic-Regular-4cd"/>
       <use xlink:href="#NotoNaskhArabic-Regular-4cc" transform="translate(57.203125 0)"/>
       <use xlink:href="#NotoNaskhArabic-Regular-4d1" transform="translate(114.40625 0)"/>
       <use xlink:href="#NotoNaskhArabic-Regular-514" transform="translate(171.609375 0)"/>
       <use xlink:href="#NotoNaskhArabic-Regular-4cc" transform="translate(192.203125 0)"/>
      </g>
     </g>
    </g>
    <g id="ytick_4">
     <g id="line2d_4">
      <g>
       <use xlink:href="#m0973680934" x="40.387656" y="193.953224" style="fill: #555555; stroke: #555555; stroke-width: 0.8"/>
      </g>
     </g>
     <g id="text_4">
      <!-- 107.5 -->
      <g style="fill: #555555" transform="translate(7.2 199.565474) scale(0.105 -0.105)">
       <defs>
        <path id="NotoNaskhArabic-Regular-4d3" d="M 870 0 
L 2746 4058 
L 282 4058 
L 282 4570 
L 3347 4570 
L 3347 4134 
L 1491 0 
L 870 0 
z
" transform="scale(0.015625)"/>
       </defs>
       <use xlink:href="#NotoNaskhArabic-Regular-4cd"/>
       <use xlink:href="#NotoNaskhArabic-Regular-4cc" transform="translate(57.203125 0)"/>
       <use xlink:href="#NotoNaskhArabic-Regular-4d3" transform="translate(114.40625 0)"/>
       <use xlink:href="#NotoNaskhArabic-Regular-514" transform="translate(171.609375 0)"/>
       <use xlink:href="#NotoNaskhArabic-Regular-4d1" transform="translate(192.203125 0)"/>
      </g>
     </g>
    </g>
    <g id="ytick_5">
     <g id="line2d_5">
      <g>
       <use xlink:href="#m0973680934" x="40.387656" y="156.47591" style="fill: #555555; stroke: #555555; stroke-width: 0.8"/>
      </g>
     </g>
     <g id="text_5">
      <!-- 110.0 -->
      <g style="fill: #555555" transform="translate(7.2 162.08816) scale(0.105 -0.105)">
       <use xlink:href="#NotoNaskhArabic-Regular-4cd"/>
       <use xlink:href="#NotoNaskhArabic-Regular-4cd" transform="translate(57.203125 0)"/>
       <use xlink:href="#NotoNaskhArabic-Regular-4cc" transform="translate(114.40625 0)"/>
       <use xlink:href="#NotoNaskhArabic-Regular-514" transform="translate(171.609375 0)"/>
       <use xlink:href="#NotoNaskhArabic-Regular-4cc" transform="translate(192.203125 0)"/>
      </g>
     </g>
    </g>
    <g id="ytick_6">
     <g id="line2d_6">
      <g>
       <use xlink:href="#m0973680934" x="40.387656" y="118.998595" style="fill: #555555; stroke: #555555; stroke-width: 0.8"/>
      </g>
     </g>
     <g id="text_6">
      <!-- 112.5 -->
      <g style="fill: #555555" transform="translate(7.2 124.610845) scale(0.105 -0.105)">
       <use xlink:href="#NotoNaskhArabic-Regular-4cd"/>
       <use xlink:href="#NotoNaskhArabic-Regular-4cd" transform="translate(57.203125 0)"/>
       <use xlink:href="#NotoNaskhArabic-Regular-4ce" transform="translate(114.40625 0)"/>
       <use xlink:href="#NotoNaskhArabic-Regular-514" transform="translate(171.609375 0)"/>
       <use xlink:href="#NotoNaskhArabic-Regular-4d1" transform="translate(192.203125 0)"/>
      </g>
     </g>
    </g>
    <g id="ytick_7">
     <g id="line2d_7">
      <g>
       <use xlink:href="#m0973680934" x="40.387656" y="81.52128" style="fill: #555555; stroke: #555555; stroke-width: 0.8"/>
      </g>
     </g>
     <g id="text_7">
      <!-- 115.0 -->
      <g style="fill: #555555" transform="translate(7.2 87.13353) scale(0.105 -0.105)">
       <use xlink:href="#NotoNaskhArabic-Regular-4cd"/>
       <use xlink:href="#NotoNaskhArabic-Regular-4cd" transform="translate(57.203125 0)"/>
       <use xlink:href="#NotoNaskhArabic-Regular-4d1" transform="translate(114.40625 0)"/>
       <use xlink:href="#NotoNaskhArabic-Regular-514" transform="translate(171.609375 0)"/>
       <use xlink:href="#NotoNaskhArabic-Regular-4cc" transform="translate(192.203125 0)"/>
      </g>
     </g>
    </g>
    <g id="ytick_8">
     <g id="line2d_8">
      <g>
       <use xlink:href="#m0973680934" x="40.387656" y="44.043966" style="fill: #555555; stroke: #555555; stroke-width: 0.8"/>
      </g>
     </g>
     <g id="text_8">
      <!-- 117.5 -->
      <g style="fill: #555555" transform="translate(7.2 49.656216) scale(0.105 -0.105)">
       <use xlink:href="#NotoNaskhArabic-Regular-4cd"/>
       <use xlink:href="#NotoNaskhArabic-Regular-4cd" transform="translate(57.203125 0)"/>
       <use xlink:href="#NotoNaskhArabic-Regular-4d3" transform="translate(114.40625 0)"/>
       <use xlink:href="#NotoNaskhArabic-Regular-514" transform="translate(171.609375 0)"/>
       <use xlink:href="#NotoNaskhArabic-Regular-4d1" transform="translate(192.203125 0)"/>
      </g>
     </g>
    </g>
   </g>
   <g id="patch_3">
    <path d="M 156.291446 217.214263 
L 247.35871 217.214263 
L 247.35871 166.636433 
L 156.291446 166.636433 
z
" clip-path="url(#p28e0a4f147)" style="fill: #dde7ee; opacity: 0.3; stroke: #1f2937; stroke-width: 1.4; stroke-linejoin: miter"/>
   </g>
   <g id="patch_4">
    <path d="M 40.387656 308.692648 
L 40.387656 24.23 
" style="fill: none; stroke: #1f2937; stroke-width: 0.8; stroke-linejoin: miter; stroke-linecap: square"/>
   </g>
   <g id="patch_5">
    <path d="M 40.387656 308.692648 
L 363.2625 308.692648 
" style="fill: none; stroke: #1f2937; stroke-width: 0.8; stroke-linejoin: miter; stroke-linecap: square"/>
   </g>
   <g id="line2d_9">
    <path d="M 48.666498 295.762527 
L 48.666498 291.209082 
" clip-path="url(#p28e0a4f147)" style="fill: none; stroke: #b91c1c; stroke-width: 1.1; stroke-linecap: round"/>
   </g>
   <g id="line2d_10">
    <path d="M 56.945341 294.912243 
L 56.945341 285.332249 
" clip-path="url(#p28e0a4f147)" style="fill: none; stroke: #1f8a56; stroke-width: 1.1; stroke-linecap: round"/>
   </g>
   <g id="line2d_11">
    <path d="M 65.224183 285.021954 
L 65.224183 276.552277 
" clip-path="url(#p28e0a4f147)" style="fill: none; stroke: #1f8a56; stroke-width: 1.1; stroke-linecap: round"/>
   </g>
   <g id="line2d_12">
    <path d="M 73.503025 280.97297 
L 73.503025 264.668403 
" clip-path="url(#p28e0a4f147)" style="fill: none; stroke: #1f8a56; stroke-width: 1.1; stroke-linecap: round"/>
   </g>
   <g id="line2d_13">
    <path d="M 81.781867 265.009097 
L 81.781867 257.901649 
" clip-path="url(#p28e0a4f147)" style="fill: none; stroke: #1f8a56; stroke-width: 1.1; stroke-linecap: round"/>
   </g>
   <g id="line2d_14">
    <path d="M 90.060709 261.031841 
L 90.060709 250.34857 
" clip-path="url(#p28e0a4f147)" style="fill: none; stroke: #1f8a56; stroke-width: 1.1; stroke-linecap: round"/>
   </g>
   <g id="line2d_15">
    <path d="M 98.339551 251.774727 
L 98.339551 233.776524 
" clip-path="url(#p28e0a4f147)" style="fill: none; stroke: #1f8a56; stroke-width: 1.1; stroke-linecap: round"/>
   </g>
   <g id="line2d_16">
    <path d="M 106.618393 239.753023 
L 106.618393 233.74788 
" clip-path="url(#p28e0a4f147)" style="fill: none; stroke: #1f8a56; stroke-width: 1.1; stroke-linecap: round"/>
   </g>
   <g id="line2d_17">
    <path d="M 114.897236 232.066056 
L 114.897236 219.540774 
" clip-path="url(#p28e0a4f147)" style="fill: none; stroke: #1f8a56; stroke-width: 1.1; stroke-linecap: round"/>
   </g>
   <g id="line2d_18">
    <path d="M 123.176078 221.251141 
L 123.176078 215.430759 
" clip-path="url(#p28e0a4f147)" style="fill: none; stroke: #1f8a56; stroke-width: 1.1; stroke-linecap: round"/>
   </g>
   <g id="line2d_19">
    <path d="M 131.45492 224.195574 
L 131.45492 212.04299 
" clip-path="url(#p28e0a4f147)" style="fill: none; stroke: #1f8a56; stroke-width: 1.1; stroke-linecap: round"/>
   </g>
   <g id="line2d_20">
    <path d="M 139.733762 217.165404 
L 139.733762 199.580743 
" clip-path="url(#p28e0a4f147)" style="fill: none; stroke: #1f8a56; stroke-width: 1.1; stroke-linecap: round"/>
   </g>
   <g id="line2d_21">
    <path d="M 148.012604 201.238017 
L 148.012604 187.005506 
" clip-path="url(#p28e0a4f147)" style="fill: none; stroke: #1f8a56; stroke-width: 1.1; stroke-linecap: round"/>
   </g>
   <g id="line2d_22">
    <path d="M 156.291446 187.761963 
L 156.291446 174.441876 
" clip-path="url(#p28e0a4f147)" style="fill: none; stroke: #1f8a56; stroke-width: 1.1; stroke-linecap: round"/>
   </g>
   <g id="line2d_23">
    <path d="M 164.570288 181.025554 
L 164.570288 169.634618 
" clip-path="url(#p28e0a4f147)" style="fill: none; stroke: #b91c1c; stroke-width: 1.1; stroke-linecap: round"/>
   </g>
   <g id="line2d_24">
    <path d="M 172.849131 191.023139 
L 172.849131 182.292988 
" clip-path="url(#p28e0a4f147)" style="fill: none; stroke: #b91c1c; stroke-width: 1.1; stroke-linecap: round"/>
   </g>
   <g id="line2d_25">
    <path d="M 181.127973 192.282361 
L 181.127973 185.477213 
" clip-path="url(#p28e0a4f147)" style="fill: none; stroke: #b91c1c; stroke-width: 1.1; stroke-linecap: round"/>
   </g>
   <g id="line2d_26">
    <path d="M 189.406815 199.160209 
L 189.406815 191.226565 
" clip-path="url(#p28e0a4f147)" style="fill: none; stroke: #b91c1c; stroke-width: 1.1; stroke-linecap: round"/>
   </g>
   <g id="line2d_27">
    <path d="M 197.685657 203.302252 
L 197.685657 195.178991 
" clip-path="url(#p28e0a4f147)" style="fill: none; stroke: #b91c1c; stroke-width: 1.1; stroke-linecap: round"/>
   </g>
   <g id="line2d_28">
    <path d="M 205.964499 211.669415 
L 205.964499 201.394111 
" clip-path="url(#p28e0a4f147)" style="fill: none; stroke: #b91c1c; stroke-width: 1.1; stroke-linecap: round"/>
   </g>
   <g id="line2d_29">
    <path d="M 214.243341 210.983457 
L 214.243341 206.593845 
" clip-path="url(#p28e0a4f147)" style="fill: none; stroke: #1f8a56; stroke-width: 1.1; stroke-linecap: round"/>
   </g>
   <g id="line2d_30">
    <path d="M 222.522183 210.855969 
L 222.522183 206.368968 
" clip-path="url(#p28e0a4f147)" style="fill: none; stroke: #1f8a56; stroke-width: 1.1; stroke-linecap: round"/>
   </g>
   <g id="line2d_31">
    <path d="M 230.801026 209.341104 
L 230.801026 206.027974 
" clip-path="url(#p28e0a4f147)" style="fill: none; stroke: #b91c1c; stroke-width: 1.1; stroke-linecap: round"/>
   </g>
   <g id="line2d_32">
    <path d="M 239.079868 214.216078 
L 239.079868 206.784319 
" clip-path="url(#p28e0a4f147)" style="fill: none; stroke: #1f8a56; stroke-width: 1.1; stroke-linecap: round"/>
   </g>
   <g id="line2d_33">
    <path d="M 247.35871 207.960284 
L 247.35871 204.593288 
" clip-path="url(#p28e0a4f147)" style="fill: none; stroke: #1f8a56; stroke-width: 1.1; stroke-linecap: round"/>
   </g>
   <g id="line2d_34">
    <path d="M 255.637552 203.875999 
L 255.637552 196.45957 
" clip-path="url(#p28e0a4f147)" style="fill: none; stroke: #1f8a56; stroke-width: 1.1; stroke-linecap: round"/>
   </g>
   <g id="line2d_35">
    <path d="M 263.916394 197.919125 
L 263.916394 191.219714 
" clip-path="url(#p28e0a4f147)" style="fill: none; stroke: #1f8a56; stroke-width: 1.1; stroke-linecap: round"/>
   </g>
   <g id="line2d_36">
    <path d="M 272.195236 192.288491 
L 272.195236 180.575265 
" clip-path="url(#p28e0a4f147)" style="fill: none; stroke: #1f8a56; stroke-width: 1.1; stroke-linecap: round"/>
   </g>
   <g id="line2d_37">
    <path d="M 280.474079 182.052376 
L 280.474079 160.658897 
" clip-path="url(#p28e0a4f147)" style="fill: none; stroke: #1f8a56; stroke-width: 1.1; stroke-linecap: round"/>
   </g>
   <g id="line2d_38">
    <path d="M 288.752921 163.438178 
L 288.752921 153.510108 
" clip-path="url(#p28e0a4f147)" style="fill: none; stroke: #1f8a56; stroke-width: 1.1; stroke-linecap: round"/>
   </g>
   <g id="line2d_39">
    <path d="M 297.031763 153.974226 
L 297.031763 138.815495 
" clip-path="url(#p28e0a4f147)" style="fill: none; stroke: #1f8a56; stroke-width: 1.1; stroke-linecap: round"/>
   </g>
   <g id="line2d_40">
    <path d="M 305.310605 142.32085 
L 305.310605 114.230218 
" clip-path="url(#p28e0a4f147)" style="fill: none; stroke: #1f8a56; stroke-width: 1.1; stroke-linecap: round"/>
   </g>
   <g id="line2d_41">
    <path d="M 313.589447 118.347539 
L 313.589447 104.435421 
" clip-path="url(#p28e0a4f147)" style="fill: none; stroke: #1f8a56; stroke-width: 1.1; stroke-linecap: round"/>
   </g>
   <g id="line2d_42">
    <path d="M 321.868289 104.523186 
L 321.868289 91.886759 
" clip-path="url(#p28e0a4f147)" style="fill: none; stroke: #1f8a56; stroke-width: 1.1; stroke-linecap: round"/>
   </g>
   <g id="line2d_43">
    <path d="M 330.147131 96.665981 
L 330.147131 78.481102 
" clip-path="url(#p28e0a4f147)" style="fill: none; stroke: #1f8a56; stroke-width: 1.1; stroke-linecap: round"/>
   </g>
   <g id="line2d_44">
    <path d="M 338.425974 80.419001 
L 338.425974 64.934819 
" clip-path="url(#p28e0a4f147)" style="fill: none; stroke: #1f8a56; stroke-width: 1.1; stroke-linecap: round"/>
   </g>
   <g id="line2d_45">
    <path d="M 346.704816 71.38868 
L 346.704816 51.357643 
" clip-path="url(#p28e0a4f147)" style="fill: none; stroke: #1f8a56; stroke-width: 1.1; stroke-linecap: round"/>
   </g>
   <g id="line2d_46">
    <path d="M 354.983658 56.226558 
L 354.983658 37.16012 
" clip-path="url(#p28e0a4f147)" style="fill: none; stroke: #1f8a56; stroke-width: 1.1; stroke-linecap: round"/>
   </g>
   <g id="text_9">
    <!-- ﻡﺎﻋ ﻲﺤﻴﺤﺼﺗ ﻕﺎﻄﻧ :ﻰﻠﻋﻷﺍ ﺭﺎﻃﻹﺍ -->
    <g style="fill: #1f2937" transform="translate(140.121172 17.89) scale(0.1 -0.1)">
     <defs>
      <path id="NotoNaskhArabic-Bold-3" d="M 774 58 
Q 742 717 710 1216 
Q 678 1715 646 2134 
Q 614 2554 576 2950 
Q 538 3347 493 3808 
Q 474 3968 566 4089 
Q 659 4211 822 4281 
Q 986 4352 1178 4352 
Q 1229 4154 1296 3955 
Q 1363 3757 1440 3565 
L 1216 3398 
Q 1229 2867 1222 2035 
Q 1216 1203 1184 109 
L 774 58 
z
" transform="scale(0.015625)"/>
      <path id="NotoNaskhArabic-Bold-2ea" d="M 896 0 
Q 883 0 883 51 
Q 883 141 899 294 
Q 915 448 937 576 
Q 960 704 979 704 
L 1242 704 
Q 1542 947 1753 1164 
Q 1965 1382 2086 1581 
Q 1581 2086 832 2541 
L 595 2528 
Q 218 2714 218 3098 
Q 218 3437 570 3642 
Q 794 3494 1091 3235 
Q 1389 2976 1690 2675 
Q 1856 2515 2009 2355 
Q 2163 2195 2298 2042 
Q 2355 2246 2355 2477 
Q 2355 2637 2221 3411 
Q 2189 3610 2169 3728 
Q 2150 3846 2150 3891 
Q 2150 4154 2342 4307 
Q 2534 4461 2829 4461 
Q 2880 4256 2944 4057 
Q 3008 3859 3085 3674 
L 2874 3514 
L 2880 3398 
L 2899 2790 
Q 2899 2214 2598 1664 
Q 2624 1638 2713 1516 
Q 2803 1395 2908 1238 
Q 3014 1082 3094 947 
Q 3174 813 3174 762 
Q 3174 704 3142 601 
Q 3110 499 3065 387 
Q 3021 275 2979 195 
Q 2938 115 2918 109 
Q 2605 58 2102 29 
Q 1600 0 896 0 
z
M 1779 730 
Q 2067 742 2294 768 
Q 2522 794 2752 832 
Q 2650 947 2554 1062 
Q 2458 1178 2355 1299 
Q 2093 973 1779 730 
z
M 678 -1555 
L 665 -1292 
L 896 -1152 
Q 691 -1081 691 -908 
Q 691 -793 761 -674 
Q 832 -556 937 -479 
Q 1043 -403 1139 -403 
Q 1376 -403 1376 -684 
Q 1376 -761 1344 -838 
L 1222 -812 
L 1222 -800 
Q 1222 -742 1145 -742 
Q 1005 -742 921 -902 
Q 1037 -1017 1235 -1017 
Q 1293 -1017 1357 -1007 
Q 1421 -998 1485 -985 
L 1459 -1273 
Q 1229 -1324 1072 -1378 
Q 915 -1433 678 -1555 
z
" transform="scale(0.015625)"/>
      <path id="NotoNaskhArabic-Bold-126" d="M 0 58 
Q -51 58 -51 109 
L -51 762 
Q -51 813 0 813 
L 531 819 
L 659 819 
Q 730 915 794 1008 
Q 858 1101 922 1184 
Q 762 1946 662 2422 
Q 563 2899 508 3164 
Q 454 3430 435 3552 
Q 416 3674 416 3725 
Q 416 3987 605 4169 
Q 794 4352 1069 4352 
Q 1133 4134 1197 3939 
Q 1261 3744 1331 3565 
L 1126 3411 
Q 1152 3110 1171 2809 
Q 1190 2509 1216 2208 
Q 1229 2054 1241 1907 
Q 1254 1760 1261 1606 
Q 2170 2669 2803 2669 
Q 3066 2669 3354 2512 
Q 3642 2355 3872 2074 
Q 4109 1786 4109 1626 
Q 4109 1126 3683 777 
Q 3258 429 2362 243 
Q 1914 154 1325 106 
Q 736 58 0 58 
z
M 1158 832 
Q 1190 832 1321 838 
Q 1453 845 1632 854 
Q 1811 864 1990 880 
Q 2170 896 2291 915 
Q 2458 947 2624 979 
Q 2790 1011 3040 1075 
Q 3290 1139 3693 1254 
Q 3475 1498 3305 1635 
Q 3136 1773 2985 1830 
Q 2835 1888 2650 1888 
Q 2061 1888 1158 832 
z
" transform="scale(0.015625)"/>
      <path id="NotoNaskhArabic-Bold-4" d="M 1901 58 
Q 1517 58 1283 186 
Q 1050 314 938 528 
Q 826 742 794 1018 
Q 781 1139 749 1424 
Q 717 1709 681 2073 
Q 646 2438 608 2809 
Q 570 3181 538 3481 
Q 506 3782 486 3930 
Q 845 4166 1248 4352 
Q 1274 3635 1296 2918 
Q 1318 2202 1338 1478 
L 1363 979 
Q 1478 883 1606 848 
Q 1734 813 1914 813 
Q 1952 813 1952 762 
L 1952 109 
Q 1952 58 1901 58 
z
" transform="scale(0.015625)"/>
      <path id="NotoNaskhArabic-Bold-d3" d="M 653 -1248 
Q 544 -1248 304 -1107 
Q 64 -966 -218 -730 
L -115 -461 
Q 243 -550 531 -550 
Q 1005 -550 1331 -313 
Q 1658 -77 1805 371 
Q 1760 467 1705 566 
Q 1651 666 1587 762 
Q 1402 1050 1254 1312 
Q 1107 1574 1107 1779 
Q 1107 1965 1254 2147 
Q 1402 2330 1638 2451 
Q 1677 2317 1731 2137 
Q 1786 1958 1846 1782 
Q 1907 1606 1952 1472 
Q 2035 1235 2089 1004 
Q 2144 774 2144 570 
Q 2144 70 1952 -349 
Q 1760 -768 1421 -1011 
Q 1082 -1248 653 -1248 
z
" transform="scale(0.015625)"/>
      <path id="NotoNaskhArabic-Bold-554" transform="scale(0.015625)"/>
      <path id="NotoNaskhArabic-Bold-2e8" d="M 896 0 
Q 883 0 883 51 
Q 883 141 899 294 
Q 915 448 937 576 
Q 960 704 979 704 
L 1242 704 
Q 1542 947 1753 1164 
Q 1965 1382 2086 1581 
Q 1581 2086 832 2541 
L 595 2528 
Q 218 2714 218 3098 
Q 218 3437 570 3642 
Q 794 3494 1091 3235 
Q 1389 2976 1690 2675 
Q 1856 2515 2009 2355 
Q 2163 2195 2298 2042 
Q 2355 2246 2355 2477 
Q 2355 2637 2221 3411 
Q 2189 3610 2169 3728 
Q 2150 3846 2150 3891 
Q 2150 4154 2342 4307 
Q 2534 4461 2829 4461 
Q 2880 4256 2944 4057 
Q 3008 3859 3085 3674 
L 2874 3514 
L 2880 3398 
L 2899 2790 
Q 2899 2214 2598 1664 
Q 2624 1638 2713 1516 
Q 2803 1395 2908 1238 
Q 3014 1082 3094 947 
Q 3174 813 3174 762 
Q 3174 704 3142 601 
Q 3110 499 3065 387 
Q 3021 275 2979 195 
Q 2938 115 2918 109 
Q 2605 58 2102 29 
Q 1600 0 896 0 
z
M 1779 730 
Q 2067 742 2294 768 
Q 2522 794 2752 832 
Q 2650 947 2554 1062 
Q 2458 1178 2355 1299 
Q 2093 973 1779 730 
z
M -26 3629 
L -45 3898 
L 185 4032 
Q -19 4109 -19 4282 
Q -19 4397 51 4512 
Q 121 4627 227 4707 
Q 333 4787 429 4787 
Q 665 4787 665 4499 
Q 665 4403 640 4352 
L 512 4371 
L 512 4391 
Q 512 4448 435 4448 
Q 294 4448 211 4288 
Q 326 4173 531 4173 
Q 582 4173 646 4179 
Q 710 4186 781 4199 
L 755 3917 
Q 525 3866 368 3811 
Q 211 3757 -26 3629 
z
" transform="scale(0.015625)"/>
      <path id="NotoNaskhArabic-Bold-136" d="M 0 58 
Q -51 58 -51 109 
L -51 762 
Q -51 813 0 813 
L 499 813 
Q 365 1005 365 1210 
Q 365 1408 441 1632 
Q 518 1856 652 2057 
Q 787 2259 947 2387 
Q 1190 2579 1440 2579 
Q 1875 2579 2406 1990 
L 2272 1728 
Q 2074 1805 1907 1840 
Q 1741 1875 1600 1875 
Q 1376 1875 1197 1827 
Q 1018 1779 819 1670 
Q 832 1434 921 1245 
Q 1011 1056 1190 928 
Q 1267 877 1338 838 
Q 1843 870 2240 953 
Q 2637 1037 3040 1197 
Q 3091 1152 3116 1056 
Q 3142 960 3142 883 
Q 3142 730 3072 602 
Q 3002 474 2874 410 
Q 2746 346 2259 250 
Q 1766 147 1235 102 
Q 704 58 0 58 
z
" transform="scale(0.015625)"/>
      <path id="NotoNaskhArabic-Bold-1bf" d="M 0 58 
Q -51 58 -51 109 
L -51 762 
Q -51 813 0 813 
Q 154 813 304 845 
Q 454 877 595 934 
Q 454 1830 307 3059 
Q 282 3264 259 3481 
Q 237 3699 211 3930 
Q 384 4058 576 4160 
Q 768 4262 973 4352 
Q 966 4115 956 3696 
Q 947 3277 937 2768 
Q 928 2259 922 1734 
L 922 992 
Q 1190 813 1619 813 
Q 1677 813 1677 762 
L 1677 109 
Q 1677 58 1619 58 
Q 1088 58 832 282 
Q 691 192 470 125 
Q 250 58 0 58 
z
" transform="scale(0.015625)"/>
      <path id="NotoNaskhArabic-Bold-235" d="M 1830 -1613 
Q 1152 -1613 793 -1277 
Q 435 -941 435 -301 
Q 435 32 595 627 
L 877 557 
Q 787 256 787 45 
Q 787 -397 1059 -627 
Q 1331 -858 1901 -858 
Q 2240 -858 2598 -816 
Q 2957 -774 3283 -710 
Q 3450 -672 3610 -627 
Q 3770 -582 3898 -531 
Q 3757 -474 3561 -374 
Q 3366 -275 3187 -163 
Q 3008 -51 2893 32 
Q 2726 160 2726 218 
Q 2726 282 2771 397 
Q 2816 512 2877 633 
Q 2938 755 2992 838 
Q 3046 922 3066 922 
Q 3354 870 3699 841 
Q 4045 813 4454 813 
Q 4525 813 4525 749 
L 4525 122 
Q 4525 58 4454 58 
Q 4320 58 4137 70 
Q 3955 83 3779 108 
Q 3603 134 3475 166 
Q 3738 45 3875 -25 
Q 4013 -96 4070 -131 
Q 4128 -166 4147 -198 
Q 4192 -243 4208 -336 
Q 4224 -429 4224 -518 
Q 4224 -678 4057 -848 
Q 3891 -1018 3600 -1171 
Q 3309 -1325 2925 -1440 
Q 2349 -1613 1830 -1613 
z
" transform="scale(0.015625)"/>
      <path id="NotoNaskhArabic-Bold-516" d="M 1037 1792 
Q 877 1920 710 2029 
Q 544 2138 378 2234 
Q 429 2317 473 2397 
Q 518 2477 557 2560 
Q 602 2643 650 2723 
Q 698 2803 755 2886 
Q 870 2816 1017 2720 
Q 1165 2624 1273 2534 
Q 1382 2445 1382 2381 
Q 1382 2291 1037 1792 
z
M 1037 -365 
Q 691 -96 378 77 
Q 429 166 473 246 
Q 518 326 557 410 
Q 602 486 650 566 
Q 698 646 755 730 
Q 1382 365 1382 224 
Q 1382 134 1037 -365 
z
" transform="scale(0.015625)"/>
      <path id="NotoNaskhArabic-Bold-1ea" d="M 0 58 
Q -51 58 -51 109 
L -51 762 
Q -51 813 0 813 
Q 320 813 640 867 
Q 960 922 1139 998 
Q 1075 1146 976 1328 
Q 877 1510 819 1613 
Q 755 1734 710 1833 
Q 666 1933 666 2016 
Q 666 2176 838 2361 
Q 1011 2547 1248 2669 
Q 1293 2470 1347 2217 
Q 1402 1965 1446 1702 
Q 1485 1504 1501 1376 
Q 1517 1248 1517 1184 
Q 1517 1037 1443 822 
Q 1370 608 1267 410 
Q 685 58 0 58 
z
M 902 3052 
Q 576 3321 410 3513 
Q 557 3660 675 3785 
Q 794 3910 890 4025 
Q 960 3948 1075 3833 
Q 1190 3718 1350 3564 
Q 1274 3456 1162 3328 
Q 1050 3200 902 3052 
z
" transform="scale(0.015625)"/>
      <path id="NotoNaskhArabic-Bold-125" d="M 0 58 
Q -51 58 -51 109 
L -51 762 
Q -51 813 0 813 
Q 166 819 332 819 
Q 499 819 659 819 
Q 730 915 794 1008 
Q 858 1101 922 1184 
Q 768 1933 669 2406 
Q 570 2880 515 3149 
Q 461 3418 438 3546 
Q 416 3674 416 3725 
Q 416 3987 605 4169 
Q 794 4352 1069 4352 
Q 1133 4134 1197 3939 
Q 1261 3744 1331 3565 
L 1126 3411 
Q 1146 3130 1168 2842 
Q 1190 2554 1210 2272 
Q 1222 2106 1238 1939 
Q 1254 1773 1261 1606 
Q 2170 2669 2803 2669 
Q 3066 2669 3354 2512 
Q 3642 2355 3872 2074 
Q 4109 1786 4109 1626 
Q 4109 1286 3885 986 
Q 4205 813 4570 813 
Q 4627 813 4627 762 
L 4627 109 
Q 4627 58 4570 58 
Q 4256 58 3952 202 
Q 3648 346 3424 602 
Q 2944 346 2128 202 
Q 1312 58 0 58 
z
M 1158 832 
Q 1190 832 1321 838 
Q 1453 845 1632 854 
Q 1811 864 1990 880 
Q 2170 896 2291 915 
Q 2458 947 2624 979 
Q 2790 1011 3040 1075 
Q 3290 1139 3693 1254 
Q 3475 1498 3305 1635 
Q 3136 1773 2985 1830 
Q 2835 1888 2650 1888 
Q 2061 1888 1158 832 
z
" transform="scale(0.015625)"/>
      <path id="NotoNaskhArabic-Bold-167" d="M 1606 -1613 
Q 1037 -1613 736 -1277 
Q 435 -941 435 -301 
Q 435 32 595 627 
L 877 557 
Q 787 256 787 45 
Q 787 -858 1683 -858 
Q 2317 -858 2976 -493 
Q 3085 -429 3200 -355 
Q 3315 -282 3424 -198 
Q 3411 -51 3388 99 
Q 3366 250 3334 390 
Q 2938 0 2522 0 
Q 2125 0 1907 230 
Q 1690 461 1690 883 
Q 1690 1242 1824 1584 
Q 1958 1926 2176 2131 
Q 2400 2342 2630 2342 
Q 2950 2342 3238 2080 
Q 3526 1818 3686 1350 
Q 3846 890 3846 320 
Q 3846 -90 3676 -432 
Q 3507 -774 3194 -1037 
Q 2989 -1210 2717 -1338 
Q 2445 -1466 2160 -1539 
Q 1875 -1613 1606 -1613 
z
M 2650 704 
Q 2925 704 3219 800 
Q 3027 1331 2765 1498 
Q 2643 1574 2515 1574 
Q 2374 1574 2259 1500 
Q 2144 1427 2086 1318 
Q 2035 1203 2035 1094 
Q 2035 902 2195 803 
Q 2355 704 2650 704 
z
M 3060 2860 
Q 2925 2969 2816 3065 
Q 2708 3161 2618 3257 
Q 2855 3475 3047 3705 
Q 3104 3641 3206 3545 
Q 3309 3449 3450 3308 
Q 3277 3072 3060 2860 
z
M 2202 2764 
Q 1927 2988 1760 3168 
Q 1869 3276 1978 3388 
Q 2087 3500 2196 3609 
Q 2311 3475 2592 3212 
Q 2432 2982 2202 2764 
z
" transform="scale(0.015625)"/>
      <path id="NotoNaskhArabic-Bold-38" d="M 0 58 
Q -51 58 -51 109 
L -51 762 
Q -51 813 0 813 
Q 320 813 640 867 
Q 960 922 1139 998 
Q 1075 1146 976 1328 
Q 877 1510 819 1613 
Q 755 1734 710 1833 
Q 666 1933 666 2016 
Q 666 2176 838 2361 
Q 1011 2547 1248 2669 
Q 1293 2470 1347 2217 
Q 1402 1965 1446 1702 
Q 1485 1504 1501 1376 
Q 1517 1248 1517 1184 
Q 1517 1037 1443 822 
Q 1370 608 1267 410 
Q 685 58 0 58 
z
M 1332 3020 
Q 1197 3129 1088 3225 
Q 980 3321 890 3417 
Q 1127 3635 1319 3865 
Q 1376 3801 1478 3705 
Q 1581 3609 1722 3468 
Q 1549 3232 1332 3020 
z
M 474 2924 
Q 199 3148 32 3328 
Q 141 3436 250 3548 
Q 359 3660 468 3769 
Q 583 3635 864 3372 
Q 704 3142 474 2924 
z
" transform="scale(0.015625)"/>
      <path id="NotoNaskhArabic-Bold-111" d="M 2592 0 
Q 2163 0 1699 80 
Q 1235 160 851 339 
Q 813 282 742 243 
Q 608 154 406 106 
Q 205 58 0 58 
Q -51 58 -51 109 
L -51 762 
Q -51 813 0 813 
Q 256 813 397 848 
Q 538 883 634 985 
Q 730 1088 838 1286 
Q 864 1331 886 1376 
Q 909 1421 934 1466 
Q 1030 1638 1222 1638 
Q 1318 1638 1427 1574 
Q 1363 1414 1302 1260 
Q 1242 1107 1178 954 
Q 1248 928 1312 909 
Q 1376 890 1440 864 
Q 2099 1741 2605 2150 
Q 3091 2560 3469 2560 
Q 3629 2560 3824 2464 
Q 4019 2368 4211 2214 
Q 4403 2061 4544 1882 
Q 4762 1619 4762 1446 
Q 4762 1229 4691 1050 
Q 4922 915 5082 864 
Q 5242 813 5466 813 
Q 5523 813 5523 762 
L 5523 109 
Q 5523 58 5466 58 
Q 5171 58 4880 186 
Q 4589 314 4358 563 
Q 4205 416 3904 278 
Q 3603 141 3258 70 
Q 3085 38 2921 19 
Q 2758 0 2592 0 
z
M 2656 704 
Q 3117 704 3520 813 
Q 3923 922 4390 1146 
Q 3814 1805 3309 1805 
Q 3027 1805 2652 1536 
Q 2278 1267 1862 774 
Q 2067 742 2265 723 
Q 2464 704 2656 704 
z
" transform="scale(0.015625)"/>
      <path id="NotoNaskhArabic-Bold-8b" d="M 0 58 
Q -51 58 -51 109 
L -51 762 
Q -51 813 0 813 
Q 467 813 793 829 
Q 1120 845 1427 934 
Q 1702 1018 1897 1069 
Q 2093 1120 2202 1146 
Q 2118 1197 2032 1251 
Q 1946 1306 1856 1363 
Q 1651 1498 1513 1555 
Q 1376 1613 1235 1613 
Q 1043 1613 870 1558 
Q 698 1504 480 1363 
Q 422 1421 377 1533 
Q 333 1645 333 1747 
Q 333 2029 582 2205 
Q 832 2381 1210 2381 
Q 1414 2381 1603 2310 
Q 1792 2240 2029 2080 
Q 2317 1882 2560 1763 
Q 2803 1645 3136 1555 
Q 3302 1517 3500 1494 
Q 3699 1472 3936 1472 
L 3654 934 
Q 3578 941 3501 941 
Q 3424 941 3347 947 
Q 3411 890 3488 867 
Q 3565 845 3661 832 
Q 3808 826 3965 822 
Q 4122 819 4262 813 
Q 4314 813 4314 762 
L 4314 109 
Q 4314 58 4262 58 
Q 4032 58 3782 80 
Q 3533 102 3325 150 
Q 3117 198 3021 262 
Q 2893 358 2838 537 
Q 2784 717 2746 877 
Q 2624 851 2525 803 
Q 2426 755 2304 675 
Q 2182 595 1990 467 
Q 1683 262 1395 176 
Q 1107 90 774 74 
Q 442 58 0 58 
z
" transform="scale(0.015625)"/>
      <path id="NotoNaskhArabic-Bold-240" d="M 0 58 
Q -51 58 -51 109 
L -51 762 
Q -51 813 0 813 
Q 307 813 566 829 
Q 826 845 992 928 
Q 1120 992 1187 1104 
Q 1254 1216 1357 1421 
Q 1459 1632 1536 1680 
Q 1613 1728 1715 1728 
Q 1869 1728 1971 1638 
Q 1888 1427 1814 1264 
Q 1741 1101 1690 979 
Q 2003 813 2362 813 
Q 2413 813 2413 762 
L 2413 109 
Q 2413 58 2362 58 
Q 1875 58 1434 499 
L 1382 416 
Q 1203 179 883 118 
Q 563 58 0 58 
z
M 1651 -1235 
Q 1376 -1011 1209 -832 
Q 1414 -653 1638 -384 
Q 1657 -403 1756 -502 
Q 1856 -602 2035 -787 
Q 1971 -883 1875 -995 
Q 1779 -1107 1651 -1235 
z
M 793 -1331 
Q 633 -1203 527 -1100 
Q 422 -998 352 -922 
Q 460 -813 569 -701 
Q 678 -589 787 -480 
Q 864 -576 1184 -877 
Q 1030 -1107 793 -1331 
z
" transform="scale(0.015625)"/>
      <path id="NotoNaskhArabic-Bold-23f" d="M 1830 -1613 
Q 1152 -1613 793 -1277 
Q 435 -941 435 -301 
Q 435 32 595 627 
L 877 557 
Q 787 256 787 45 
Q 787 -397 1059 -627 
Q 1331 -858 1901 -858 
Q 2240 -858 2598 -816 
Q 2957 -774 3283 -710 
Q 3450 -672 3610 -627 
Q 3770 -582 3898 -531 
Q 3757 -474 3561 -374 
Q 3366 -275 3187 -163 
Q 3008 -51 2893 32 
Q 2726 160 2726 218 
Q 2726 282 2771 397 
Q 2816 512 2877 633 
Q 2938 755 2992 838 
Q 3046 922 3066 922 
Q 3354 870 3699 841 
Q 4045 813 4454 813 
Q 4525 813 4525 749 
L 4525 122 
Q 4525 58 4454 58 
Q 4320 58 4137 70 
Q 3955 83 3779 108 
Q 3603 134 3475 166 
Q 3738 45 3875 -25 
Q 4013 -96 4070 -131 
Q 4128 -166 4147 -198 
Q 4192 -243 4208 -336 
Q 4224 -429 4224 -518 
Q 4224 -678 4057 -848 
Q 3891 -1018 3600 -1171 
Q 3309 -1325 2925 -1440 
Q 2349 -1613 1830 -1613 
z
M 2355 -2630 
Q 2080 -2406 1913 -2227 
Q 2118 -2048 2342 -1779 
Q 2361 -1798 2460 -1897 
Q 2560 -1997 2739 -2182 
Q 2675 -2278 2579 -2390 
Q 2483 -2502 2355 -2630 
z
M 1497 -2726 
Q 1337 -2598 1231 -2495 
Q 1126 -2393 1056 -2317 
Q 1164 -2208 1273 -2096 
Q 1382 -1984 1491 -1875 
Q 1568 -1971 1888 -2272 
Q 1734 -2502 1497 -2726 
z
" transform="scale(0.015625)"/>
      <path id="NotoNaskhArabic-Bold-1e2" d="M 474 -2099 
Q 474 -1523 397 -883 
Q 365 -557 345 -336 
Q 326 -115 326 0 
Q 326 179 595 755 
Q 614 787 748 825 
Q 883 864 1081 899 
Q 1280 934 1497 960 
Q 1715 986 1904 1002 
Q 2093 1018 2195 1018 
L 2074 1152 
Q 1894 1350 1763 1526 
Q 1632 1702 1478 1702 
Q 1331 1702 1190 1593 
Q 1050 1485 896 1267 
L 634 1402 
Q 819 1875 1078 2163 
Q 1338 2451 1600 2451 
Q 1754 2451 1894 2336 
Q 2035 2221 2227 1946 
Q 2432 1645 2614 1437 
Q 2797 1229 2995 1088 
L 2701 326 
Q 2438 326 2140 307 
Q 1843 288 1564 253 
Q 1286 218 1068 176 
Q 851 134 736 96 
Q 774 -83 812 -262 
Q 851 -442 890 -621 
Q 947 -896 1004 -1177 
Q 1062 -1459 1120 -1741 
Q 954 -1862 794 -1952 
Q 634 -2042 474 -2099 
z
" transform="scale(0.015625)"/>
     </defs>
     <use xlink:href="#NotoNaskhArabic-Bold-3"/>
     <use xlink:href="#NotoNaskhArabic-Bold-2ea" transform="translate(28.40625 0)"/>
     <use xlink:href="#NotoNaskhArabic-Bold-126" transform="translate(83 0)"/>
     <use xlink:href="#NotoNaskhArabic-Bold-4" transform="translate(152.296875 0)"/>
     <use xlink:href="#NotoNaskhArabic-Bold-d3" transform="translate(181.09375 0)"/>
     <use xlink:href="#NotoNaskhArabic-Bold-554" transform="translate(218.796875 0)"/>
     <use xlink:href="#NotoNaskhArabic-Bold-3" transform="translate(240.890625 0)"/>
     <use xlink:href="#NotoNaskhArabic-Bold-2e8" transform="translate(269.296875 0)"/>
     <use xlink:href="#NotoNaskhArabic-Bold-136" transform="translate(323.890625 0)"/>
     <use xlink:href="#NotoNaskhArabic-Bold-1bf" transform="translate(375.59375 0)"/>
     <use xlink:href="#NotoNaskhArabic-Bold-235" transform="translate(400.09375 0)"/>
     <use xlink:href="#NotoNaskhArabic-Bold-516" transform="translate(469.09375 0)"/>
     <use xlink:href="#NotoNaskhArabic-Bold-554" transform="translate(496.5 0)"/>
     <use xlink:href="#NotoNaskhArabic-Bold-1ea" transform="translate(518.59375 0)"/>
     <use xlink:href="#NotoNaskhArabic-Bold-125" transform="translate(546.09375 0)"/>
     <use xlink:href="#NotoNaskhArabic-Bold-4" transform="translate(616.6875 0)"/>
     <use xlink:href="#NotoNaskhArabic-Bold-167" transform="translate(645.484375 0)"/>
     <use xlink:href="#NotoNaskhArabic-Bold-554" transform="translate(710.6875 0)"/>
     <use xlink:href="#NotoNaskhArabic-Bold-38" transform="translate(732.78125 0)"/>
     <use xlink:href="#NotoNaskhArabic-Bold-111" transform="translate(760.28125 0)"/>
     <use xlink:href="#NotoNaskhArabic-Bold-8b" transform="translate(844.875 0)"/>
     <use xlink:href="#NotoNaskhArabic-Bold-240" transform="translate(910.578125 0)"/>
     <use xlink:href="#NotoNaskhArabic-Bold-8b" transform="translate(946.578125 0)"/>
     <use xlink:href="#NotoNaskhArabic-Bold-23f" transform="translate(1012.28125 0)"/>
     <use xlink:href="#NotoNaskhArabic-Bold-554" transform="translate(1081.28125 0)"/>
     <use xlink:href="#NotoNaskhArabic-Bold-136" transform="translate(1103.375 0)"/>
     <use xlink:href="#NotoNaskhArabic-Bold-4" transform="translate(1155.078125 0)"/>
     <use xlink:href="#NotoNaskhArabic-Bold-1e2" transform="translate(1183.875 0)"/>
    </g>
   </g>
   <g id="patch_6">
    <path d="M 46.389817 294.787613 
L 50.94318 294.787613 
L 50.94318 287.02954 
L 46.389817 287.02954 
z
" clip-path="url(#p28e0a4f147)" style="fill: #b91c1c; stroke: #b91c1c; stroke-linejoin: miter"/>
   </g>
   <g id="patch_7">
    <path d="M 54.668659 293.575613 
L 59.222022 293.575613 
L 59.222022 285.817541 
L 54.668659 285.817541 
z
" clip-path="url(#p28e0a4f147)" style="fill: #1f8a56; stroke: #1f8a56; stroke-linejoin: miter"/>
   </g>
   <g id="patch_8">
    <path d="M 62.947501 284.764044 
L 67.500864 284.764044 
L 67.500864 277.005971 
L 62.947501 277.005971 
z
" clip-path="url(#p28e0a4f147)" style="fill: #1f8a56; stroke: #1f8a56; stroke-linejoin: miter"/>
   </g>
   <g id="patch_9">
    <path d="M 71.226343 279.830432 
L 75.779706 279.830432 
L 75.779706 266.281025 
L 71.226343 266.281025 
z
" clip-path="url(#p28e0a4f147)" style="fill: #1f8a56; stroke: #1f8a56; stroke-linejoin: miter"/>
   </g>
   <g id="patch_10">
    <path d="M 79.505185 264.776232 
L 84.058549 264.776232 
L 84.058549 257.018159 
L 79.505185 257.018159 
z
" clip-path="url(#p28e0a4f147)" style="fill: #1f8a56; stroke: #1f8a56; stroke-linejoin: miter"/>
   </g>
   <g id="patch_11">
    <path d="M 87.784028 260.676299 
L 92.337391 260.676299 
L 92.337391 250.993051 
L 87.784028 250.993051 
z
" clip-path="url(#p28e0a4f147)" style="fill: #1f8a56; stroke: #1f8a56; stroke-linejoin: miter"/>
   </g>
   <g id="patch_12">
    <path d="M 96.06287 250.909609 
L 100.616233 250.909609 
L 100.616233 235.724052 
L 96.06287 235.724052 
z
" clip-path="url(#p28e0a4f147)" style="fill: #1f8a56; stroke: #1f8a56; stroke-linejoin: miter"/>
   </g>
   <g id="patch_13">
    <path d="M 104.341712 237.788905 
L 108.895075 237.788905 
L 108.895075 230.030833 
L 104.341712 230.030833 
z
" clip-path="url(#p28e0a4f147)" style="fill: #1f8a56; stroke: #1f8a56; stroke-linejoin: miter"/>
   </g>
   <g id="patch_14">
    <path d="M 112.620554 229.247774 
L 117.173917 229.247774 
L 117.173917 220.65938 
L 112.620554 220.65938 
z
" clip-path="url(#p28e0a4f147)" style="fill: #1f8a56; stroke: #1f8a56; stroke-linejoin: miter"/>
   </g>
   <g id="patch_15">
    <path d="M 120.899396 220.518088 
L 125.452759 220.518088 
L 125.452759 212.760015 
L 120.899396 212.760015 
z
" clip-path="url(#p28e0a4f147)" style="fill: #1f8a56; stroke: #1f8a56; stroke-linejoin: miter"/>
   </g>
   <g id="patch_16">
    <path d="M 129.178238 221.791148 
L 133.731601 221.791148 
L 133.731601 212.801142 
L 129.178238 212.801142 
z
" clip-path="url(#p28e0a4f147)" style="fill: #1f8a56; stroke: #1f8a56; stroke-linejoin: miter"/>
   </g>
   <g id="patch_17">
    <path d="M 137.45708 216.572185 
L 142.010444 216.572185 
L 142.010444 200.112617 
L 137.45708 200.112617 
z
" clip-path="url(#p28e0a4f147)" style="fill: #1f8a56; stroke: #1f8a56; stroke-linejoin: miter"/>
   </g>
   <g id="patch_18">
    <path d="M 145.735923 200.24102 
L 150.289286 200.24102 
L 150.289286 188.464682 
L 145.735923 188.464682 
z
" clip-path="url(#p28e0a4f147)" style="fill: #1f8a56; stroke: #1f8a56; stroke-linejoin: miter"/>
   </g>
   <g id="patch_19">
    <path d="M 154.014765 186.47746 
L 158.568128 186.47746 
L 158.568128 174.488404 
L 154.014765 174.488404 
z
" clip-path="url(#p28e0a4f147)" style="fill: #1f8a56; stroke: #1f8a56; stroke-linejoin: miter"/>
   </g>
   <g id="patch_20">
    <path d="M 162.293607 180.628967 
L 166.84697 180.628967 
L 166.84697 170.13362 
L 162.293607 170.13362 
z
" clip-path="url(#p28e0a4f147)" style="fill: #b91c1c; stroke: #b91c1c; stroke-linejoin: miter"/>
   </g>
   <g id="patch_21">
    <path d="M 170.572449 189.228809 
L 175.125812 189.228809 
L 175.125812 181.470736 
L 170.572449 181.470736 
z
" clip-path="url(#p28e0a4f147)" style="fill: #b91c1c; stroke: #b91c1c; stroke-linejoin: miter"/>
   </g>
   <g id="patch_22">
    <path d="M 178.851291 190.802214 
L 183.404654 190.802214 
L 183.404654 183.044141 
L 178.851291 183.044141 
z
" clip-path="url(#p28e0a4f147)" style="fill: #b91c1c; stroke: #b91c1c; stroke-linejoin: miter"/>
   </g>
   <g id="patch_23">
    <path d="M 187.130133 196.323412 
L 191.683496 196.323412 
L 191.683496 188.565339 
L 187.130133 188.565339 
z
" clip-path="url(#p28e0a4f147)" style="fill: #b91c1c; stroke: #b91c1c; stroke-linejoin: miter"/>
   </g>
   <g id="patch_24">
    <path d="M 195.408975 202.497678 
L 199.962339 202.497678 
L 199.962339 194.739605 
L 195.408975 194.739605 
z
" clip-path="url(#p28e0a4f147)" style="fill: #b91c1c; stroke: #b91c1c; stroke-linejoin: miter"/>
   </g>
   <g id="patch_25">
    <path d="M 203.687818 210.498638 
L 208.241181 210.498638 
L 208.241181 201.679236 
L 203.687818 201.679236 
z
" clip-path="url(#p28e0a4f147)" style="fill: #b91c1c; stroke: #b91c1c; stroke-linejoin: miter"/>
   </g>
   <g id="patch_26">
    <path d="M 211.96666 208.891032 
L 216.520023 208.891032 
L 216.520023 201.132959 
L 211.96666 201.132959 
z
" clip-path="url(#p28e0a4f147)" style="fill: #1f8a56; stroke: #1f8a56; stroke-linejoin: miter"/>
   </g>
   <g id="patch_27">
    <path d="M 220.245502 207.729441 
L 224.798865 207.729441 
L 224.798865 199.971368 
L 220.245502 199.971368 
z
" clip-path="url(#p28e0a4f147)" style="fill: #1f8a56; stroke: #1f8a56; stroke-linejoin: miter"/>
   </g>
   <g id="patch_28">
    <path d="M 228.524344 208.854024 
L 233.077707 208.854024 
L 233.077707 201.095952 
L 228.524344 201.095952 
z
" clip-path="url(#p28e0a4f147)" style="fill: #b91c1c; stroke: #b91c1c; stroke-linejoin: miter"/>
   </g>
   <g id="patch_29">
    <path d="M 236.803186 213.491046 
L 241.356549 213.491046 
L 241.356549 205.732973 
L 236.803186 205.732973 
z
" clip-path="url(#p28e0a4f147)" style="fill: #1f8a56; stroke: #1f8a56; stroke-linejoin: miter"/>
   </g>
   <g id="patch_30">
    <path d="M 245.082028 206.27412 
L 249.635392 206.27412 
L 249.635392 198.516048 
L 245.082028 198.516048 
z
" clip-path="url(#p28e0a4f147)" style="fill: #1f8a56; stroke: #1f8a56; stroke-linejoin: miter"/>
   </g>
   <g id="patch_31">
    <path d="M 253.36087 203.660438 
L 257.914234 203.660438 
L 257.914234 195.902365 
L 253.36087 195.902365 
z
" clip-path="url(#p28e0a4f147)" style="fill: #1f8a56; stroke: #1f8a56; stroke-linejoin: miter"/>
   </g>
   <g id="patch_32">
    <path d="M 261.639713 196.361686 
L 266.193076 196.361686 
L 266.193076 188.603613 
L 261.639713 188.603613 
z
" clip-path="url(#p28e0a4f147)" style="fill: #1f8a56; stroke: #1f8a56; stroke-linejoin: miter"/>
   </g>
   <g id="patch_33">
    <path d="M 269.918555 190.152889 
L 274.471918 190.152889 
L 274.471918 180.835063 
L 269.918555 180.835063 
z
" clip-path="url(#p28e0a4f147)" style="fill: #1f8a56; stroke: #1f8a56; stroke-linejoin: miter"/>
   </g>
   <g id="patch_34">
    <path d="M 278.197397 180.32164 
L 282.75076 180.32164 
L 282.75076 161.250359 
L 278.197397 161.250359 
z
" clip-path="url(#p28e0a4f147)" style="fill: #1f8a56; stroke: #1f8a56; stroke-linejoin: miter"/>
   </g>
   <g id="patch_35">
    <path d="M 286.476239 162.61003 
L 291.029602 162.61003 
L 291.029602 154.177833 
L 286.476239 154.177833 
z
" clip-path="url(#p28e0a4f147)" style="fill: #1f8a56; stroke: #1f8a56; stroke-linejoin: miter"/>
   </g>
   <g id="patch_36">
    <path d="M 294.755081 153.916674 
L 299.308444 153.916674 
L 299.308444 140.303985 
L 294.755081 140.303985 
z
" clip-path="url(#p28e0a4f147)" style="fill: #1f8a56; stroke: #1f8a56; stroke-linejoin: miter"/>
   </g>
   <g id="patch_37">
    <path d="M 303.033923 142.080925 
L 307.587287 142.080925 
L 307.587287 116.658048 
L 303.033923 116.658048 
z
" clip-path="url(#p28e0a4f147)" style="fill: #1f8a56; stroke: #1f8a56; stroke-linejoin: miter"/>
   </g>
   <g id="patch_38">
    <path d="M 311.312766 117.755821 
L 315.866129 117.755821 
L 315.866129 104.73719 
L 311.312766 104.73719 
z
" clip-path="url(#p28e0a4f147)" style="fill: #1f8a56; stroke: #1f8a56; stroke-linejoin: miter"/>
   </g>
   <g id="patch_39">
    <path d="M 319.591608 104.111258 
L 324.144971 104.111258 
L 324.144971 93.617641 
L 319.591608 93.617641 
z
" clip-path="url(#p28e0a4f147)" style="fill: #1f8a56; stroke: #1f8a56; stroke-linejoin: miter"/>
   </g>
   <g id="patch_40">
    <path d="M 327.87045 96.382314 
L 332.423813 96.382314 
L 332.423813 79.099574 
L 327.87045 79.099574 
z
" clip-path="url(#p28e0a4f147)" style="fill: #1f8a56; stroke: #1f8a56; stroke-linejoin: miter"/>
   </g>
   <g id="patch_41">
    <path d="M 336.149292 79.647288 
L 340.702655 79.647288 
L 340.702655 67.371165 
L 336.149292 67.371165 
z
" clip-path="url(#p28e0a4f147)" style="fill: #1f8a56; stroke: #1f8a56; stroke-linejoin: miter"/>
   </g>
   <g id="patch_42">
    <path d="M 344.428134 70.490638 
L 348.981497 70.490638 
L 348.981497 52.348328 
L 344.428134 52.348328 
z
" clip-path="url(#p28e0a4f147)" style="fill: #1f8a56; stroke: #1f8a56; stroke-linejoin: miter"/>
   </g>
   <g id="patch_43">
    <path d="M 352.706976 56.10941 
L 357.260339 56.10941 
L 357.260339 37.882381 
L 352.706976 37.882381 
z
" clip-path="url(#p28e0a4f147)" style="fill: #1f8a56; stroke: #1f8a56; stroke-linejoin: miter"/>
   </g>
  </g>
  <g id="axes_2">
   <g id="patch_44">
    <path d="M 399.075156 308.692648 
L 721.95 308.692648 
L 721.95 24.23 
L 399.075156 24.23 
z
" style="fill: #ffffff"/>
   </g>
   <g id="matplotlib.axis_3"/>
   <g id="matplotlib.axis_4">
    <g id="ytick_9">
     <g id="line2d_47">
      <g>
       <use xlink:href="#m0973680934" x="399.075156" y="268.654149" style="fill: #555555; stroke: #555555; stroke-width: 0.8"/>
      </g>
     </g>
     <g id="text_10">
      <!-- 98.0 -->
      <g style="fill: #555555" transform="translate(371.893828 274.266399) scale(0.105 -0.105)">
       <defs>
        <path id="NotoNaskhArabic-Regular-4d5" d="M 1229 -64 
Q 851 -64 653 0 
L 653 480 
Q 883 397 1216 397 
Q 1728 397 2057 601 
Q 2387 806 2560 1197 
Q 2650 1395 2701 1654 
Q 2752 1914 2758 2240 
L 2720 2240 
Q 2362 1709 1632 1709 
Q 1030 1709 675 2077 
Q 320 2445 320 3091 
Q 320 3565 499 3910 
Q 678 4256 1008 4445 
Q 1338 4634 1779 4634 
Q 2246 4634 2598 4394 
Q 2950 4154 3136 3699 
Q 3328 3238 3328 2618 
Q 3328 -64 1229 -64 
z
M 1754 2157 
Q 2035 2157 2265 2269 
Q 2496 2381 2630 2579 
Q 2758 2778 2758 2989 
Q 2758 3302 2636 3571 
Q 2515 3840 2291 4000 
Q 2074 4160 1779 4160 
Q 1350 4160 1113 3881 
Q 877 3603 877 3098 
Q 877 2643 1101 2400 
Q 1325 2157 1754 2157 
z
" transform="scale(0.015625)"/>
        <path id="NotoNaskhArabic-Regular-4d4" d="M 1843 -64 
Q 1114 -64 714 256 
Q 314 576 314 1165 
Q 314 1946 1261 2387 
Q 832 2630 646 2912 
Q 461 3194 461 3546 
Q 461 4045 832 4339 
Q 1203 4634 1824 4634 
Q 2451 4634 2822 4342 
Q 3194 4051 3194 3539 
Q 3194 3200 2986 2928 
Q 2778 2656 2323 2419 
Q 2874 2150 3107 1856 
Q 3341 1562 3341 1184 
Q 3341 621 2937 278 
Q 2534 -64 1843 -64 
z
M 1850 2637 
Q 2278 2816 2457 3030 
Q 2637 3245 2637 3520 
Q 2637 3834 2416 4006 
Q 2195 4179 1818 4179 
Q 1446 4179 1228 4003 
Q 1011 3827 1011 3520 
Q 1011 3322 1094 3171 
Q 1178 3021 1338 2906 
Q 1498 2784 1850 2637 
z
M 1830 384 
Q 2278 384 2534 595 
Q 2790 806 2790 1178 
Q 2790 1478 2547 1712 
Q 2304 1946 1728 2157 
Q 1280 1965 1072 1728 
Q 864 1491 864 1158 
Q 864 800 1123 592 
Q 1382 384 1830 384 
z
" transform="scale(0.015625)"/>
       </defs>
       <use xlink:href="#NotoNaskhArabic-Regular-4d5"/>
       <use xlink:href="#NotoNaskhArabic-Regular-4d4" transform="translate(57.203125 0)"/>
       <use xlink:href="#NotoNaskhArabic-Regular-514" transform="translate(114.40625 0)"/>
       <use xlink:href="#NotoNaskhArabic-Regular-4cc" transform="translate(135 0)"/>
      </g>
     </g>
    </g>
    <g id="ytick_10">
     <g id="line2d_48">
      <g>
       <use xlink:href="#m0973680934" x="399.075156" y="218.044792" style="fill: #555555; stroke: #555555; stroke-width: 0.8"/>
      </g>
     </g>
     <g id="text_11">
      <!-- 98.5 -->
      <g style="fill: #555555" transform="translate(371.893828 223.657042) scale(0.105 -0.105)">
       <use xlink:href="#NotoNaskhArabic-Regular-4d5"/>
       <use xlink:href="#NotoNaskhArabic-Regular-4d4" transform="translate(57.203125 0)"/>
       <use xlink:href="#NotoNaskhArabic-Regular-514" transform="translate(114.40625 0)"/>
       <use xlink:href="#NotoNaskhArabic-Regular-4d1" transform="translate(135 0)"/>
      </g>
     </g>
    </g>
    <g id="ytick_11">
     <g id="line2d_49">
      <g>
       <use xlink:href="#m0973680934" x="399.075156" y="167.435436" style="fill: #555555; stroke: #555555; stroke-width: 0.8"/>
      </g>
     </g>
     <g id="text_12">
      <!-- 99.0 -->
      <g style="fill: #555555" transform="translate(371.893828 173.047686) scale(0.105 -0.105)">
       <use xlink:href="#NotoNaskhArabic-Regular-4d5"/>
       <use xlink:href="#NotoNaskhArabic-Regular-4d5" transform="translate(57.203125 0)"/>
       <use xlink:href="#NotoNaskhArabic-Regular-514" transform="translate(114.40625 0)"/>
       <use xlink:href="#NotoNaskhArabic-Regular-4cc" transform="translate(135 0)"/>
      </g>
     </g>
    </g>
    <g id="ytick_12">
     <g id="line2d_50">
      <g>
       <use xlink:href="#m0973680934" x="399.075156" y="116.82608" style="fill: #555555; stroke: #555555; stroke-width: 0.8"/>
      </g>
     </g>
     <g id="text_13">
      <!-- 99.5 -->
      <g style="fill: #555555" transform="translate(371.893828 122.43833) scale(0.105 -0.105)">
       <use xlink:href="#NotoNaskhArabic-Regular-4d5"/>
       <use xlink:href="#NotoNaskhArabic-Regular-4d5" transform="translate(57.203125 0)"/>
       <use xlink:href="#NotoNaskhArabic-Regular-514" transform="translate(114.40625 0)"/>
       <use xlink:href="#NotoNaskhArabic-Regular-4d1" transform="translate(135 0)"/>
      </g>
     </g>
    </g>
    <g id="ytick_13">
     <g id="line2d_51">
      <g>
       <use xlink:href="#m0973680934" x="399.075156" y="66.216724" style="fill: #555555; stroke: #555555; stroke-width: 0.8"/>
      </g>
     </g>
     <g id="text_14">
      <!-- 100.0 -->
      <g style="fill: #555555" transform="translate(365.8875 71.828974) scale(0.105 -0.105)">
       <use xlink:href="#NotoNaskhArabic-Regular-4cd"/>
       <use xlink:href="#NotoNaskhArabic-Regular-4cc" transform="translate(57.203125 0)"/>
       <use xlink:href="#NotoNaskhArabic-Regular-4cc" transform="translate(114.40625 0)"/>
       <use xlink:href="#NotoNaskhArabic-Regular-514" transform="translate(171.609375 0)"/>
       <use xlink:href="#NotoNaskhArabic-Regular-4cc" transform="translate(192.203125 0)"/>
      </g>
     </g>
    </g>
   </g>
   <g id="patch_45">
    <path d="M 399.075156 308.692648 
L 399.075156 24.23 
" style="fill: none; stroke: #1f2937; stroke-width: 0.8; stroke-linejoin: miter; stroke-linecap: square"/>
   </g>
   <g id="patch_46">
    <path d="M 399.075156 308.692648 
L 721.95 308.692648 
" style="fill: none; stroke: #1f2937; stroke-width: 0.8; stroke-linejoin: miter; stroke-linecap: square"/>
   </g>
   <g id="line2d_52">
    <path d="M 409.490474 130.622475 
L 409.490474 67.215103 
" clip-path="url(#pd48d359a2f)" style="fill: none; stroke: #1f8a56; stroke-width: 1.1; stroke-linecap: round"/>
   </g>
   <g id="line2d_53">
    <path d="M 419.905791 153.919611 
L 419.905791 37.16012 
" clip-path="url(#pd48d359a2f)" style="fill: none; stroke: #b91c1c; stroke-width: 1.1; stroke-linecap: round"/>
   </g>
   <g id="line2d_54">
    <path d="M 430.321109 238.50643 
L 430.321109 123.547222 
" clip-path="url(#pd48d359a2f)" style="fill: none; stroke: #b91c1c; stroke-width: 1.1; stroke-linecap: round"/>
   </g>
   <g id="line2d_55">
    <path d="M 440.736426 258.214606 
L 440.736426 230.558928 
" clip-path="url(#pd48d359a2f)" style="fill: none; stroke: #b91c1c; stroke-width: 1.1; stroke-linecap: round"/>
   </g>
   <g id="line2d_56">
    <path d="M 451.151744 291.859882 
L 451.151744 264.193004 
" clip-path="url(#pd48d359a2f)" style="fill: none; stroke: #b91c1c; stroke-width: 1.1; stroke-linecap: round"/>
   </g>
   <g id="line2d_57">
    <path d="M 461.567061 295.762527 
L 461.567061 230.923922 
" clip-path="url(#pd48d359a2f)" style="fill: none; stroke: #1f8a56; stroke-width: 1.1; stroke-linecap: round"/>
   </g>
   <g id="line2d_58">
    <path d="M 471.982379 252.653393 
L 471.982379 238.741807 
" clip-path="url(#pd48d359a2f)" style="fill: none; stroke: #1f8a56; stroke-width: 1.1; stroke-linecap: round"/>
   </g>
   <g id="line2d_59">
    <path d="M 482.397697 214.52755 
L 482.397697 179.77805 
" clip-path="url(#pd48d359a2f)" style="fill: none; stroke: #1f8a56; stroke-width: 1.1; stroke-linecap: round"/>
   </g>
   <g id="line2d_60">
    <path d="M 492.813014 195.983021 
L 492.813014 143.519037 
" clip-path="url(#pd48d359a2f)" style="fill: none; stroke: #b91c1c; stroke-width: 1.1; stroke-linecap: round"/>
   </g>
   <g id="line2d_61">
    <path d="M 503.228332 225.4022 
L 503.228332 196.004364 
" clip-path="url(#pd48d359a2f)" style="fill: none; stroke: #b91c1c; stroke-width: 1.1; stroke-linecap: round"/>
   </g>
   <g id="line2d_62">
    <path d="M 513.643649 236.310505 
L 513.643649 213.214979 
" clip-path="url(#pd48d359a2f)" style="fill: none; stroke: #b91c1c; stroke-width: 1.1; stroke-linecap: round"/>
   </g>
   <g id="line2d_63">
    <path d="M 524.058967 202.733946 
L 524.058967 170.200017 
" clip-path="url(#pd48d359a2f)" style="fill: none; stroke: #1f8a56; stroke-width: 1.1; stroke-linecap: round"/>
   </g>
   <g id="line2d_64">
    <path d="M 534.474284 178.386707 
L 534.474284 153.028441 
" clip-path="url(#pd48d359a2f)" style="fill: none; stroke: #1f8a56; stroke-width: 1.1; stroke-linecap: round"/>
   </g>
   <g id="line2d_65">
    <path d="M 544.889602 164.798586 
L 544.889602 125.994871 
" clip-path="url(#pd48d359a2f)" style="fill: none; stroke: #1f8a56; stroke-width: 1.1; stroke-linecap: round"/>
   </g>
   <g id="line2d_66">
    <path d="M 555.304919 137.071367 
L 555.304919 84.735244 
" clip-path="url(#pd48d359a2f)" style="fill: none; stroke: #1f8a56; stroke-width: 1.1; stroke-linecap: round"/>
   </g>
   <g id="line2d_67">
    <path d="M 565.720237 103.72629 
L 565.720237 85.565594 
" clip-path="url(#pd48d359a2f)" style="fill: none; stroke: #1f8a56; stroke-width: 1.1; stroke-linecap: round"/>
   </g>
   <g id="line2d_68">
    <path d="M 576.135554 110.573424 
L 576.135554 51.236653 
" clip-path="url(#pd48d359a2f)" style="fill: none; stroke: #1f8a56; stroke-width: 1.1; stroke-linecap: round"/>
   </g>
   <g id="line2d_69">
    <path d="M 586.550872 65.21202 
L 586.550872 42.864936 
" clip-path="url(#pd48d359a2f)" style="fill: none; stroke: #1f8a56; stroke-width: 1.1; stroke-linecap: round"/>
   </g>
   <g id="line2d_70">
    <path d="M 596.96619 129.998458 
L 596.96619 53.635732 
" clip-path="url(#pd48d359a2f)" style="fill: none; stroke: #b91c1c; stroke-width: 1.1; stroke-linecap: round"/>
   </g>
   <g id="line2d_71">
    <path d="M 607.381507 149.925921 
L 607.381507 123.370342 
" clip-path="url(#pd48d359a2f)" style="fill: none; stroke: #b91c1c; stroke-width: 1.1; stroke-linecap: round"/>
   </g>
   <g id="line2d_72">
    <path d="M 617.796825 183.827272 
L 617.796825 127.97164 
" clip-path="url(#pd48d359a2f)" style="fill: none; stroke: #b91c1c; stroke-width: 1.1; stroke-linecap: round"/>
   </g>
   <g id="line2d_73">
    <path d="M 628.212142 200.911872 
L 628.212142 62.103874 
" clip-path="url(#pd48d359a2f)" style="fill: none; stroke: #1f8a56; stroke-width: 1.1; stroke-linecap: round"/>
   </g>
   <g id="line2d_74">
    <path d="M 638.62746 92.29378 
L 638.62746 48.535094 
" clip-path="url(#pd48d359a2f)" style="fill: none; stroke: #b91c1c; stroke-width: 1.1; stroke-linecap: round"/>
   </g>
   <g id="line2d_75">
    <path d="M 649.042777 124.519125 
L 649.042777 80.76925 
" clip-path="url(#pd48d359a2f)" style="fill: none; stroke: #b91c1c; stroke-width: 1.1; stroke-linecap: round"/>
   </g>
   <g id="line2d_76">
    <path d="M 659.458095 124.740016 
L 659.458095 102.968787 
" clip-path="url(#pd48d359a2f)" style="fill: none; stroke: #1f8a56; stroke-width: 1.1; stroke-linecap: round"/>
   </g>
   <g id="line2d_77">
    <path d="M 669.873412 137.204572 
L 669.873412 112.886616 
" clip-path="url(#pd48d359a2f)" style="fill: none; stroke: #b91c1c; stroke-width: 1.1; stroke-linecap: round"/>
   </g>
   <g id="line2d_78">
    <path d="M 680.28873 150.81954 
L 680.28873 119.008181 
" clip-path="url(#pd48d359a2f)" style="fill: none; stroke: #1f8a56; stroke-width: 1.1; stroke-linecap: round"/>
   </g>
   <g id="line2d_79">
    <path d="M 690.704047 158.811718 
L 690.704047 75.929472 
" clip-path="url(#pd48d359a2f)" style="fill: none; stroke: #1f8a56; stroke-width: 1.1; stroke-linecap: round"/>
   </g>
   <g id="line2d_80">
    <path d="M 701.119365 120.572168 
L 701.119365 64.885999 
" clip-path="url(#pd48d359a2f)" style="fill: none; stroke: #b91c1c; stroke-width: 1.1; stroke-linecap: round"/>
   </g>
   <g id="line2d_81">
    <path d="M 711.534682 146.419117 
L 711.534682 83.565949 
" clip-path="url(#pd48d359a2f)" style="fill: none; stroke: #b91c1c; stroke-width: 1.1; stroke-linecap: round"/>
   </g>
   <g id="text_15">
    <!-- ﻲﻠﺧﺍﺩ ﺦﻓ -->
    <g style="fill: #b91c1c" transform="translate(590.843304 235.460955) scale(0.09 -0.09)">
     <defs>
      <path id="NotoNaskhArabic-Bold-146" d="M 6 58 
Q -51 58 -51 115 
L -51 762 
Q -51 813 6 813 
Q 710 813 1196 857 
Q 1683 902 2061 1075 
Q 2048 1120 2029 1177 
Q 2010 1235 1978 1312 
Q 1824 1178 1638 1107 
Q 1453 1037 1229 1037 
Q 864 1037 685 1229 
Q 506 1421 506 1709 
Q 506 2029 624 2297 
Q 742 2566 941 2720 
Q 1043 2803 1158 2851 
Q 1274 2899 1395 2899 
Q 1658 2899 1904 2608 
Q 2150 2317 2285 1869 
Q 2349 1677 2377 1469 
Q 2406 1261 2406 1043 
Q 2406 832 2189 397 
Q 1875 275 1577 201 
Q 1280 128 912 93 
Q 544 58 6 58 
z
M 1318 1504 
Q 1568 1504 1856 1594 
Q 1734 1875 1593 2003 
Q 1453 2131 1254 2131 
Q 1056 2131 944 2032 
Q 832 1933 832 1811 
Q 832 1658 947 1581 
Q 1062 1504 1318 1504 
z
M 1388 3328 
Q 1062 3597 896 3789 
Q 1043 3936 1161 4061 
Q 1280 4186 1376 4301 
Q 1446 4224 1561 4109 
Q 1676 3994 1836 3840 
Q 1760 3732 1648 3604 
Q 1536 3476 1388 3328 
z
" transform="scale(0.015625)"/>
      <path id="NotoNaskhArabic-Bold-a2" d="M 2368 -1862 
Q 1523 -1862 1097 -1465 
Q 672 -1069 672 -314 
Q 672 77 848 409 
Q 1024 742 1338 1005 
Q 1498 1133 1670 1238 
Q 1843 1344 2035 1421 
Q 1946 1453 1856 1485 
Q 1766 1517 1677 1549 
Q 1491 1613 1312 1613 
Q 1139 1613 992 1571 
Q 845 1530 582 1363 
Q 525 1421 480 1533 
Q 435 1645 435 1747 
Q 435 2035 662 2208 
Q 890 2381 1286 2381 
Q 1498 2381 1728 2326 
Q 1958 2272 2310 2144 
Q 2656 2016 2918 1961 
Q 3181 1907 3424 1907 
L 4006 1914 
L 3744 1197 
Q 3667 1190 3571 1184 
Q 3475 1178 3424 1178 
L 3232 1178 
Q 3341 998 3446 931 
Q 3552 864 3789 838 
Q 3891 826 4115 819 
Q 4339 813 4685 813 
Q 4742 813 4742 762 
L 4742 109 
Q 4742 58 4685 58 
Q 4070 58 3750 150 
Q 3430 243 3238 467 
Q 3046 698 2886 1197 
Q 2381 1101 1933 883 
Q 1485 666 1242 371 
Q 998 70 998 -250 
Q 998 -685 1360 -905 
Q 1722 -1126 2400 -1126 
Q 2861 -1126 3629 -954 
L 3718 -1229 
Q 3309 -1466 3053 -1603 
Q 2797 -1741 2640 -1801 
Q 2483 -1862 2368 -1862 
z
M 2176 2732 
Q 1850 3001 1684 3193 
Q 1831 3340 1949 3465 
Q 2068 3590 2164 3705 
Q 2234 3628 2349 3513 
Q 2464 3398 2624 3244 
Q 2548 3136 2436 3008 
Q 2324 2880 2176 2732 
z
" transform="scale(0.015625)"/>
      <path id="NotoNaskhArabic-Bold-b5" d="M 1075 0 
Q 218 0 218 499 
Q 218 634 272 784 
Q 326 934 410 1018 
Q 570 890 774 826 
Q 979 762 1280 762 
Q 1696 762 2118 896 
Q 2016 1082 1929 1222 
Q 1843 1363 1773 1466 
Q 1594 1728 1478 1923 
Q 1363 2118 1363 2240 
Q 1363 2445 1526 2630 
Q 1690 2816 1901 2880 
Q 1952 2714 2022 2515 
Q 2093 2317 2166 2125 
Q 2240 1933 2291 1792 
Q 2381 1549 2445 1337 
Q 2509 1126 2509 954 
Q 2509 896 2473 765 
Q 2438 634 2387 493 
Q 2336 352 2285 250 
Q 2054 134 1734 67 
Q 1414 0 1075 0 
z
" transform="scale(0.015625)"/>
      <path id="NotoNaskhArabic-Bold-a4" d="M 0 58 
Q -51 58 -51 109 
L -51 762 
Q -51 813 0 813 
Q 467 813 793 829 
Q 1120 845 1427 934 
Q 1702 1018 1897 1069 
Q 2093 1120 2202 1146 
Q 2112 1197 2025 1251 
Q 1939 1306 1856 1363 
Q 1651 1504 1513 1558 
Q 1376 1613 1235 1613 
Q 1043 1613 870 1558 
Q 698 1504 480 1363 
Q 422 1421 377 1533 
Q 333 1645 333 1747 
Q 333 2029 582 2205 
Q 832 2381 1210 2381 
Q 1414 2381 1603 2310 
Q 1792 2240 2029 2080 
Q 2317 1882 2560 1763 
Q 2803 1645 3136 1555 
Q 3302 1517 3500 1494 
Q 3699 1472 3936 1472 
L 3603 794 
Q 3405 813 3273 825 
Q 3142 838 2963 826 
Q 2739 806 2483 704 
Q 2227 602 1990 467 
Q 1741 320 1533 237 
Q 1325 154 1107 115 
Q 890 77 624 67 
Q 358 58 0 58 
z
M 1894 2873 
Q 1568 3142 1402 3334 
Q 1549 3481 1667 3606 
Q 1786 3731 1882 3846 
Q 1952 3769 2067 3654 
Q 2182 3539 2342 3385 
Q 2266 3277 2154 3149 
Q 2042 3021 1894 2873 
z
" transform="scale(0.015625)"/>
     </defs>
     <use xlink:href="#NotoNaskhArabic-Bold-146"/>
     <use xlink:href="#NotoNaskhArabic-Bold-a2" transform="translate(42.703125 0)"/>
     <use xlink:href="#NotoNaskhArabic-Bold-554" transform="translate(115.109375 0)"/>
     <use xlink:href="#NotoNaskhArabic-Bold-b5" transform="translate(137.203125 0)"/>
     <use xlink:href="#NotoNaskhArabic-Bold-3" transform="translate(180.703125 0)"/>
     <use xlink:href="#NotoNaskhArabic-Bold-a4" transform="translate(209.109375 0)"/>
     <use xlink:href="#NotoNaskhArabic-Bold-1bf" transform="translate(274.015625 0)"/>
     <use xlink:href="#NotoNaskhArabic-Bold-23f" transform="translate(298.515625 0)"/>
    </g>
   </g>
   <g id="text_16">
    <!-- ﻂﻘﻓ ﺎﻨﻫ ﺮﻬﻈﻳ ﻲﻠﺧﺍﺪﻟﺍ ﺦﻔﻟﺍ :ﺮﻐﺻﻷﺍ ﺭﺎﻃﻹﺍ -->
    <g style="fill: #1f2937" transform="translate(483.693047 17.89) scale(0.1 -0.1)">
     <defs>
      <path id="NotoNaskhArabic-Bold-112" d="M 2592 0 
Q 2163 0 1699 80 
Q 1235 160 851 339 
Q 826 314 797 285 
Q 768 256 730 230 
Q 595 147 400 102 
Q 205 58 0 58 
Q -51 58 -51 109 
L -51 762 
Q -51 813 0 813 
Q 243 813 380 841 
Q 518 870 614 969 
Q 710 1069 826 1274 
Q 851 1318 880 1363 
Q 909 1408 934 1466 
Q 1030 1638 1222 1638 
Q 1318 1638 1427 1574 
Q 1363 1414 1302 1260 
Q 1242 1107 1178 954 
Q 1248 928 1312 909 
Q 1376 890 1440 864 
Q 2099 1741 2605 2150 
Q 3091 2560 3469 2560 
Q 3629 2560 3824 2464 
Q 4019 2368 4211 2214 
Q 4403 2061 4544 1882 
Q 4762 1619 4762 1446 
Q 4762 582 3699 192 
Q 3174 0 2592 0 
z
M 2656 704 
Q 3117 704 3520 813 
Q 3923 922 4390 1146 
Q 3814 1805 3309 1805 
Q 3027 1805 2652 1536 
Q 2278 1267 1862 774 
Q 2067 742 2265 723 
Q 2464 704 2656 704 
z
" transform="scale(0.015625)"/>
      <path id="NotoNaskhArabic-Bold-13d" d="M 6 58 
Q -51 58 -51 115 
L -51 755 
Q -51 813 6 813 
Q 346 813 627 822 
Q 909 832 1126 870 
L 998 1030 
Q 909 1152 835 1235 
Q 762 1318 691 1382 
Q 640 1434 589 1478 
Q 538 1523 486 1568 
L 371 1485 
Q 198 1670 198 1894 
Q 198 2112 390 2272 
Q 582 2432 915 2554 
Q 1242 2669 1549 2669 
Q 1830 2669 2080 2547 
Q 2330 2426 2470 2208 
Q 2618 1990 2618 1760 
Q 2618 1530 2490 1306 
Q 2362 1082 2118 858 
Q 2291 832 2486 822 
Q 2682 813 2912 813 
Q 2976 813 2976 755 
L 2976 115 
Q 2976 58 2912 58 
Q 2464 58 2105 160 
Q 1747 262 1530 448 
Q 845 58 6 58 
z
M 1626 1062 
Q 1978 1293 1978 1613 
Q 1978 1773 1862 1865 
Q 1747 1958 1574 1958 
Q 1408 1958 1257 1926 
Q 1107 1894 902 1805 
Q 973 1741 1117 1603 
Q 1261 1466 1459 1248 
Q 1498 1203 1539 1158 
Q 1581 1114 1626 1062 
z
M 1465 3065 
Q 1139 3334 973 3526 
Q 1120 3673 1238 3798 
Q 1357 3923 1453 4038 
Q 1523 3961 1638 3846 
Q 1753 3731 1913 3577 
Q 1837 3469 1725 3341 
Q 1613 3213 1465 3065 
z
" transform="scale(0.015625)"/>
      <path id="NotoNaskhArabic-Bold-d4" d="M 653 -1248 
Q 544 -1248 304 -1107 
Q 64 -966 -218 -730 
L -115 -461 
Q 243 -550 531 -550 
Q 1005 -550 1331 -313 
Q 1658 -77 1805 371 
Q 1760 467 1705 566 
Q 1651 666 1587 762 
Q 1299 1203 1203 1414 
Q 1107 1626 1107 1779 
Q 1107 1965 1254 2147 
Q 1402 2330 1638 2451 
Q 1670 2330 1705 2208 
Q 1741 2086 1786 1958 
Q 1926 1555 2006 1299 
Q 2086 1043 2106 934 
Q 2323 813 2586 813 
Q 2637 813 2637 762 
L 2637 109 
Q 2637 58 2586 58 
Q 2349 58 2112 179 
Q 2042 -243 1837 -566 
Q 1632 -890 1328 -1069 
Q 1024 -1248 653 -1248 
z
" transform="scale(0.015625)"/>
      <path id="NotoNaskhArabic-Bold-1c1" d="M 0 58 
Q -51 58 -51 109 
L -51 762 
Q -51 813 0 813 
Q 282 813 672 960 
Q 646 1146 624 1334 
Q 602 1523 570 1709 
Q 544 1894 441 2448 
Q 339 3002 173 3930 
Q 339 4045 534 4147 
Q 730 4250 934 4352 
Q 947 3827 960 3356 
Q 973 2886 986 2477 
Q 998 2067 1004 1718 
Q 1011 1370 1011 1069 
Q 1011 634 762 256 
Q 698 166 490 112 
Q 282 58 0 58 
z
" transform="scale(0.015625)"/>
      <path id="NotoNaskhArabic-Bold-145" d="M 6 58 
Q -51 58 -51 115 
L -51 755 
Q -51 813 6 813 
Q 115 813 227 816 
Q 339 819 454 819 
Q 358 973 358 1114 
Q 358 1197 374 1337 
Q 390 1478 419 1606 
Q 448 1734 474 1786 
Q 595 2003 771 2179 
Q 947 2355 1152 2457 
Q 1357 2560 1549 2560 
Q 1722 2560 1898 2368 
Q 2074 2176 2182 1875 
Q 2291 1568 2291 1306 
Q 2291 1056 2150 819 
Q 2285 819 2422 816 
Q 2560 813 2694 813 
Q 2746 813 2746 762 
L 2746 109 
Q 2746 58 2694 58 
Q 1882 58 1325 269 
Q 1030 147 716 102 
Q 403 58 6 58 
z
M 1299 794 
Q 1690 902 1933 1107 
Q 1888 1280 1795 1446 
Q 1702 1613 1613 1696 
Q 1549 1773 1478 1773 
Q 1146 1773 704 1178 
Q 819 1043 979 944 
Q 1139 845 1299 794 
z
M 1459 3084 
Q 1133 3353 967 3545 
Q 1114 3692 1232 3817 
Q 1351 3942 1447 4057 
Q 1517 3980 1632 3865 
Q 1747 3750 1907 3596 
Q 1831 3488 1719 3360 
Q 1607 3232 1459 3084 
z
" transform="scale(0.015625)"/>
      <path id="NotoNaskhArabic-Bold-b6" d="M 1075 0 
Q 218 0 218 499 
Q 218 634 272 784 
Q 326 934 410 1018 
Q 570 890 774 826 
Q 979 762 1280 762 
Q 1466 762 1658 784 
Q 1850 806 2048 851 
Q 1798 1286 1648 1673 
Q 1498 2061 1498 2246 
Q 1498 2477 1613 2646 
Q 1728 2816 1946 2880 
Q 2074 2362 2208 1955 
Q 2342 1549 2490 1248 
Q 2611 1005 2758 909 
Q 2906 813 3162 813 
Q 3213 813 3213 762 
L 3213 109 
Q 3213 58 3162 58 
Q 2707 58 2413 352 
Q 1709 0 1075 0 
z
" transform="scale(0.015625)"/>
      <path id="NotoNaskhArabic-Bold-241" d="M 0 58 
Q -51 58 -51 109 
L -51 762 
Q -51 813 0 813 
Q 339 813 652 835 
Q 966 858 1212 902 
Q 1459 947 1581 998 
Q 1517 1146 1414 1328 
Q 1312 1510 1261 1613 
Q 1197 1734 1152 1833 
Q 1107 1933 1107 2016 
Q 1107 2170 1280 2358 
Q 1453 2547 1690 2669 
Q 1786 2189 1843 1897 
Q 1901 1606 1926 1443 
Q 1952 1280 1952 1184 
Q 1952 1037 1881 825 
Q 1811 614 1702 410 
Q 1530 307 1251 227 
Q 973 147 646 102 
Q 320 58 0 58 
z
M 1479 -1235 
Q 1204 -1011 1037 -832 
Q 1242 -653 1466 -384 
Q 1485 -403 1584 -502 
Q 1684 -602 1863 -787 
Q 1799 -883 1703 -995 
Q 1607 -1107 1479 -1235 
z
M 621 -1331 
Q 461 -1203 355 -1100 
Q 250 -998 180 -922 
Q 288 -813 397 -701 
Q 506 -589 615 -480 
Q 692 -576 1012 -877 
Q 858 -1107 621 -1331 
z
" transform="scale(0.015625)"/>
      <path id="NotoNaskhArabic-Bold-12d" d="M 0 58 
Q -51 58 -51 109 
L -51 762 
Q -51 813 0 813 
Q 166 819 332 819 
Q 499 819 659 819 
Q 730 915 794 1008 
Q 858 1101 922 1184 
Q 768 1933 669 2406 
Q 570 2880 515 3149 
Q 461 3418 438 3546 
Q 416 3674 416 3725 
Q 416 3987 605 4169 
Q 794 4352 1069 4352 
Q 1133 4134 1197 3939 
Q 1261 3744 1331 3565 
L 1126 3411 
Q 1146 3130 1168 2842 
Q 1190 2554 1210 2272 
Q 1222 2106 1238 1939 
Q 1254 1773 1261 1606 
Q 2170 2669 2803 2669 
Q 3066 2669 3354 2512 
Q 3642 2355 3872 2074 
Q 4109 1786 4109 1626 
Q 4109 1286 3885 986 
Q 4205 813 4570 813 
Q 4627 813 4627 762 
L 4627 109 
Q 4627 58 4570 58 
Q 4256 58 3952 202 
Q 3648 346 3424 602 
Q 2944 346 2128 202 
Q 1312 58 0 58 
z
M 1158 832 
Q 1190 832 1321 838 
Q 1453 845 1632 854 
Q 1811 864 1990 880 
Q 2170 896 2291 915 
Q 2458 947 2624 979 
Q 2790 1011 3040 1075 
Q 3290 1139 3693 1254 
Q 3475 1498 3305 1635 
Q 3136 1773 2985 1830 
Q 2835 1888 2650 1888 
Q 2061 1888 1158 832 
z
M 2604 3129 
Q 2278 3398 2112 3590 
Q 2259 3737 2377 3862 
Q 2496 3987 2592 4102 
Q 2662 4025 2777 3910 
Q 2892 3795 3052 3641 
Q 2976 3533 2864 3405 
Q 2752 3277 2604 3129 
z
" transform="scale(0.015625)"/>
      <path id="NotoNaskhArabic-Bold-1ff" d="M 1690 -1248 
Q 1184 -1248 851 -950 
Q 518 -653 429 -128 
L 237 -218 
L 166 70 
L 0 58 
Q -51 58 -51 109 
L -51 762 
Q -51 813 0 813 
Q 250 813 461 832 
Q 710 1958 1670 2874 
L 1952 2810 
Q 1971 2554 2067 1997 
Q 2112 1760 2131 1593 
Q 2150 1427 2150 1331 
Q 2150 1011 1850 730 
Q 2157 794 2304 803 
Q 2451 813 2586 813 
Q 2656 813 2656 755 
L 2656 128 
Q 2656 58 2586 58 
Q 2362 58 2131 19 
Q 2272 -45 2368 -176 
Q 2464 -307 2464 -442 
Q 2464 -499 2422 -630 
Q 2381 -762 2329 -886 
Q 2278 -1011 2246 -1050 
Q 2182 -1126 2038 -1187 
Q 1894 -1248 1690 -1248 
z
M 934 755 
Q 1453 832 1760 1075 
L 1677 1325 
Q 1600 1542 1549 1708 
Q 1498 1875 1478 1997 
Q 1203 1606 1081 1312 
Q 960 1018 934 755 
z
M 1741 -640 
Q 1850 -640 1930 -614 
Q 2010 -589 2112 -525 
Q 1920 -243 1651 -92 
Q 1382 58 1094 58 
Q 1075 58 1036 51 
Q 998 45 947 32 
Q 1075 -640 1741 -640 
z
" transform="scale(0.015625)"/>
      <path id="NotoNaskhArabic-Bold-200" d="M 2650 -58 
Q 2221 -45 1821 51 
Q 1421 147 1120 307 
Q 659 58 0 58 
Q -51 58 -51 109 
L -51 774 
Q -51 813 0 813 
Q 122 819 240 819 
Q 358 819 480 826 
Q 282 1088 282 1382 
Q 282 1555 352 1753 
Q 422 1952 544 2128 
Q 666 2304 806 2400 
L 992 3066 
Q 1517 2938 1974 2589 
Q 2432 2240 2701 1754 
Q 2976 1280 2976 800 
Q 2976 653 2886 419 
Q 2797 186 2650 -58 
z
M 1171 979 
Q 1299 1043 1382 1196 
Q 1466 1350 1466 1536 
Q 1466 1690 1363 1808 
Q 1261 1926 1146 1926 
Q 915 1926 742 1658 
Q 710 1606 675 1536 
Q 640 1466 608 1389 
Q 730 1261 870 1158 
Q 1011 1056 1171 979 
z
M 2618 640 
Q 2509 928 2393 1152 
Q 2278 1376 2144 1549 
Q 2074 1651 1990 1734 
Q 1907 1818 1818 1888 
Q 1882 1722 1882 1517 
Q 1882 1101 1683 800 
Q 1850 755 2086 716 
Q 2323 678 2618 640 
z
" transform="scale(0.015625)"/>
      <path id="NotoNaskhArabic-Bold-1e9" d="M 0 58 
Q -51 58 -51 109 
L -51 762 
Q -51 813 0 813 
Q 416 813 627 966 
Q 710 1024 774 1145 
Q 838 1267 922 1427 
Q 1024 1632 1101 1680 
Q 1178 1728 1280 1728 
Q 1427 1728 1536 1638 
Q 1466 1478 1392 1312 
Q 1318 1146 1248 979 
Q 1562 813 1926 813 
Q 1978 813 1978 762 
L 1978 109 
Q 1978 58 1926 58 
Q 1440 58 998 499 
Q 960 435 925 384 
Q 890 333 858 288 
Q 774 192 550 125 
Q 326 58 0 58 
z
M 966 2284 
Q 640 2553 474 2745 
Q 621 2892 739 3017 
Q 858 3142 954 3257 
Q 1024 3180 1139 3065 
Q 1254 2950 1414 2796 
Q 1338 2688 1226 2560 
Q 1114 2432 966 2284 
z
" transform="scale(0.015625)"/>
      <path id="NotoNaskhArabic-Bold-169" d="M 6 58 
Q -51 58 -51 115 
L -51 755 
Q -51 813 6 813 
Q 115 813 227 816 
Q 339 819 454 819 
Q 358 973 358 1114 
Q 358 1197 374 1337 
Q 390 1478 419 1606 
Q 448 1734 474 1786 
Q 595 2003 771 2179 
Q 947 2355 1152 2457 
Q 1357 2560 1549 2560 
Q 1722 2560 1898 2368 
Q 2074 2176 2182 1875 
Q 2291 1568 2291 1306 
Q 2291 1056 2150 819 
Q 2285 819 2422 816 
Q 2560 813 2694 813 
Q 2746 813 2746 762 
L 2746 109 
Q 2746 58 2694 58 
Q 1882 58 1325 269 
Q 1030 147 716 102 
Q 403 58 6 58 
z
M 1299 794 
Q 1690 902 1933 1107 
Q 1888 1280 1795 1446 
Q 1702 1613 1613 1696 
Q 1549 1773 1478 1773 
Q 1146 1773 704 1178 
Q 819 1043 979 944 
Q 1139 845 1299 794 
z
M 1888 3052 
Q 1753 3161 1644 3257 
Q 1536 3353 1446 3449 
Q 1683 3667 1875 3897 
Q 1932 3833 2034 3737 
Q 2137 3641 2278 3500 
Q 2105 3264 1888 3052 
z
M 1030 2956 
Q 755 3180 588 3360 
Q 697 3468 806 3580 
Q 915 3692 1024 3801 
Q 1139 3667 1420 3404 
Q 1260 3174 1030 2956 
z
" transform="scale(0.015625)"/>
      <path id="NotoNaskhArabic-Bold-124" d="M 2573 0 
Q 2336 0 2038 13 
Q 1741 26 1488 48 
Q 1235 70 1120 102 
Q 1037 128 883 221 
Q 730 314 554 448 
Q 378 582 218 723 
L 314 998 
Q 922 851 1357 787 
Q 1421 870 1485 950 
Q 1549 1030 1613 1114 
Q 1549 1395 1494 1664 
Q 1440 1933 1389 2189 
Q 1312 2566 1245 2915 
Q 1178 3264 1114 3578 
Q 1107 3616 1104 3654 
Q 1101 3693 1101 3725 
Q 1101 3987 1289 4169 
Q 1478 4352 1754 4352 
Q 1811 4134 1875 3939 
Q 1939 3744 2010 3565 
L 1805 3411 
Q 1830 3123 1852 2835 
Q 1875 2547 1894 2253 
Q 1907 2074 1923 1891 
Q 1939 1709 1946 1523 
Q 2867 2560 3450 2560 
Q 3610 2560 3798 2470 
Q 3987 2381 4176 2233 
Q 4365 2086 4518 1901 
Q 4742 1632 4742 1446 
Q 4742 1210 4678 1037 
Q 5018 813 5434 813 
Q 5491 813 5491 762 
L 5491 109 
Q 5491 58 5434 58 
Q 5139 58 4848 189 
Q 4557 320 4333 557 
Q 4134 384 3846 259 
Q 3558 134 3228 67 
Q 2899 0 2573 0 
z
M 2637 704 
Q 3091 704 3494 809 
Q 3898 915 4378 1146 
Q 3802 1805 3290 1805 
Q 2733 1805 1811 736 
Q 2022 723 2230 713 
Q 2438 704 2637 704 
z
" transform="scale(0.015625)"/>
     </defs>
     <use xlink:href="#NotoNaskhArabic-Bold-3"/>
     <use xlink:href="#NotoNaskhArabic-Bold-2ea" transform="translate(28.40625 0)"/>
     <use xlink:href="#NotoNaskhArabic-Bold-126" transform="translate(83 0)"/>
     <use xlink:href="#NotoNaskhArabic-Bold-4" transform="translate(152.296875 0)"/>
     <use xlink:href="#NotoNaskhArabic-Bold-d3" transform="translate(181.09375 0)"/>
     <use xlink:href="#NotoNaskhArabic-Bold-554" transform="translate(218.796875 0)"/>
     <use xlink:href="#NotoNaskhArabic-Bold-3" transform="translate(240.890625 0)"/>
     <use xlink:href="#NotoNaskhArabic-Bold-2e8" transform="translate(269.296875 0)"/>
     <use xlink:href="#NotoNaskhArabic-Bold-112" transform="translate(323.890625 0)"/>
     <use xlink:href="#NotoNaskhArabic-Bold-13d" transform="translate(403.390625 0)"/>
     <use xlink:href="#NotoNaskhArabic-Bold-d4" transform="translate(448.1875 0)"/>
     <use xlink:href="#NotoNaskhArabic-Bold-516" transform="translate(487.6875 0)"/>
     <use xlink:href="#NotoNaskhArabic-Bold-554" transform="translate(515.09375 0)"/>
     <use xlink:href="#NotoNaskhArabic-Bold-3" transform="translate(537.1875 0)"/>
     <use xlink:href="#NotoNaskhArabic-Bold-1c1" transform="translate(565.59375 0)"/>
     <use xlink:href="#NotoNaskhArabic-Bold-145" transform="translate(587.296875 0)"/>
     <use xlink:href="#NotoNaskhArabic-Bold-a2" transform="translate(628.5 0)"/>
     <use xlink:href="#NotoNaskhArabic-Bold-554" transform="translate(700.90625 0)"/>
     <use xlink:href="#NotoNaskhArabic-Bold-3" transform="translate(723 0)"/>
     <use xlink:href="#NotoNaskhArabic-Bold-1c1" transform="translate(751.40625 0)"/>
     <use xlink:href="#NotoNaskhArabic-Bold-b6" transform="translate(773.109375 0)"/>
     <use xlink:href="#NotoNaskhArabic-Bold-3" transform="translate(821.609375 0)"/>
     <use xlink:href="#NotoNaskhArabic-Bold-a4" transform="translate(850.015625 0)"/>
     <use xlink:href="#NotoNaskhArabic-Bold-1bf" transform="translate(914.921875 0)"/>
     <use xlink:href="#NotoNaskhArabic-Bold-23f" transform="translate(939.421875 0)"/>
     <use xlink:href="#NotoNaskhArabic-Bold-554" transform="translate(1008.421875 0)"/>
     <use xlink:href="#NotoNaskhArabic-Bold-241" transform="translate(1030.515625 0)"/>
     <use xlink:href="#NotoNaskhArabic-Bold-12d" transform="translate(1064.8125 0)"/>
     <use xlink:href="#NotoNaskhArabic-Bold-1ff" transform="translate(1135.40625 0)"/>
     <use xlink:href="#NotoNaskhArabic-Bold-d4" transform="translate(1175.109375 0)"/>
     <use xlink:href="#NotoNaskhArabic-Bold-554" transform="translate(1214.609375 0)"/>
     <use xlink:href="#NotoNaskhArabic-Bold-200" transform="translate(1236.703125 0)"/>
     <use xlink:href="#NotoNaskhArabic-Bold-1e9" transform="translate(1288.296875 0)"/>
     <use xlink:href="#NotoNaskhArabic-Bold-4" transform="translate(1317.5 0)"/>
     <use xlink:href="#NotoNaskhArabic-Bold-554" transform="translate(1346.296875 0)"/>
     <use xlink:href="#NotoNaskhArabic-Bold-146" transform="translate(1368.390625 0)"/>
     <use xlink:href="#NotoNaskhArabic-Bold-169" transform="translate(1411.09375 0)"/>
     <use xlink:href="#NotoNaskhArabic-Bold-124" transform="translate(1452.296875 0)"/>
    </g>
   </g>
   <g id="patch_47">
    <path d="M 406.626261 120.041749 
L 412.354686 120.041749 
L 412.354686 85.087265 
L 406.626261 85.087265 
z
" clip-path="url(#pd48d359a2f)" style="fill: #1f8a56; stroke: #1f8a56; stroke-linejoin: miter"/>
   </g>
   <g id="patch_48">
    <path d="M 417.041579 142.57288 
L 422.770004 142.57288 
L 422.770004 49.821992 
L 417.041579 49.821992 
z
" clip-path="url(#pd48d359a2f)" style="fill: #b91c1c; stroke: #b91c1c; stroke-linejoin: miter"/>
   </g>
   <g id="patch_49">
    <path d="M 427.456897 226.609646 
L 433.185321 226.609646 
L 433.185321 124.661806 
L 427.456897 124.661806 
z
" clip-path="url(#pd48d359a2f)" style="fill: #b91c1c; stroke: #b91c1c; stroke-linejoin: miter"/>
   </g>
   <g id="patch_50">
    <path d="M 437.872214 256.220615 
L 443.600639 256.220615 
L 443.600639 234.952363 
L 437.872214 234.952363 
z
" clip-path="url(#pd48d359a2f)" style="fill: #b91c1c; stroke: #b91c1c; stroke-linejoin: miter"/>
   </g>
   <g id="patch_51">
    <path d="M 448.287532 291.263815 
L 454.015956 291.263815 
L 454.015956 274.789835 
L 448.287532 274.789835 
z
" clip-path="url(#pd48d359a2f)" style="fill: #b91c1c; stroke: #b91c1c; stroke-linejoin: miter"/>
   </g>
   <g id="patch_52">
    <path d="M 458.702849 282.301219 
L 464.431274 282.301219 
L 464.431274 235.929166 
L 458.702849 235.929166 
z
" clip-path="url(#pd48d359a2f)" style="fill: #1f8a56; stroke: #1f8a56; stroke-linejoin: miter"/>
   </g>
   <g id="patch_53">
    <path d="M 469.118167 250.586666 
L 474.846591 250.586666 
L 474.846591 240.680868 
L 469.118167 240.680868 
z
" clip-path="url(#pd48d359a2f)" style="fill: #1f8a56; stroke: #1f8a56; stroke-linejoin: miter"/>
   </g>
   <g id="patch_54">
    <path d="M 479.533484 214.33525 
L 485.261909 214.33525 
L 485.261909 190.866287 
L 479.533484 190.866287 
z
" clip-path="url(#pd48d359a2f)" style="fill: #1f8a56; stroke: #1f8a56; stroke-linejoin: miter"/>
   </g>
   <g id="patch_55">
    <path d="M 489.948802 193.284489 
L 495.677226 193.284489 
L 495.677226 160.162022 
L 489.948802 160.162022 
z
" clip-path="url(#pd48d359a2f)" style="fill: #b91c1c; stroke: #b91c1c; stroke-linejoin: miter"/>
   </g>
   <g id="patch_56">
    <path d="M 500.364119 223.163625 
L 506.092544 223.163625 
L 506.092544 197.869399 
L 500.364119 197.869399 
z
" clip-path="url(#pd48d359a2f)" style="fill: #b91c1c; stroke: #b91c1c; stroke-linejoin: miter"/>
   </g>
   <g id="patch_57">
    <path d="M 510.779437 220.862433 
L 516.507862 220.862433 
L 516.507862 213.104358 
L 510.779437 213.104358 
z
" clip-path="url(#pd48d359a2f)" style="fill: #b91c1c; stroke: #b91c1c; stroke-linejoin: miter"/>
   </g>
   <g id="patch_58">
    <path d="M 521.194754 200.501335 
L 526.923179 200.501335 
L 526.923179 173.04411 
L 521.194754 173.04411 
z
" clip-path="url(#pd48d359a2f)" style="fill: #1f8a56; stroke: #1f8a56; stroke-linejoin: miter"/>
   </g>
   <g id="patch_59">
    <path d="M 531.610072 167.033261 
L 537.338497 167.033261 
L 537.338497 156.970707 
L 531.610072 156.970707 
z
" clip-path="url(#pd48d359a2f)" style="fill: #1f8a56; stroke: #1f8a56; stroke-linejoin: miter"/>
   </g>
   <g id="patch_60">
    <path d="M 542.025389 155.442183 
L 547.753814 155.442183 
L 547.753814 134.017522 
L 542.025389 134.017522 
z
" clip-path="url(#pd48d359a2f)" style="fill: #1f8a56; stroke: #1f8a56; stroke-linejoin: miter"/>
   </g>
   <g id="patch_61">
    <path d="M 552.440707 133.210716 
L 558.169132 133.210716 
L 558.169132 89.681272 
L 552.440707 89.681272 
z
" clip-path="url(#pd48d359a2f)" style="fill: #1f8a56; stroke: #1f8a56; stroke-linejoin: miter"/>
   </g>
   <g id="patch_62">
    <path d="M 562.856025 101.506087 
L 568.584449 101.506087 
L 568.584449 93.748011 
L 562.856025 93.748011 
z
" clip-path="url(#pd48d359a2f)" style="fill: #1f8a56; stroke: #1f8a56; stroke-linejoin: miter"/>
   </g>
   <g id="patch_63">
    <path d="M 573.271342 95.869924 
L 578.999767 95.869924 
L 578.999767 57.501108 
L 573.271342 57.501108 
z
" clip-path="url(#pd48d359a2f)" style="fill: #1f8a56; stroke: #1f8a56; stroke-linejoin: miter"/>
   </g>
   <g id="patch_64">
    <path d="M 583.68666 60.711862 
L 589.415084 60.711862 
L 589.415084 50.189383 
L 583.68666 50.189383 
z
" clip-path="url(#pd48d359a2f)" style="fill: #1f8a56; stroke: #1f8a56; stroke-linejoin: miter"/>
   </g>
   <g id="patch_65">
    <path d="M 594.101977 125.91763 
L 599.830402 125.91763 
L 599.830402 65.76387 
L 594.101977 65.76387 
z
" clip-path="url(#pd48d359a2f)" style="fill: #b91c1c; stroke: #b91c1c; stroke-linejoin: miter"/>
   </g>
   <g id="patch_66">
    <path d="M 604.517295 148.817735 
L 610.245719 148.817735 
L 610.245719 128.6423 
L 604.517295 128.6423 
z
" clip-path="url(#pd48d359a2f)" style="fill: #b91c1c; stroke: #b91c1c; stroke-linejoin: miter"/>
   </g>
   <g id="patch_67">
    <path d="M 614.932612 178.14509 
L 620.661037 178.14509 
L 620.661037 134.466047 
L 614.932612 134.466047 
z
" clip-path="url(#pd48d359a2f)" style="fill: #b91c1c; stroke: #b91c1c; stroke-linejoin: miter"/>
   </g>
   <g id="patch_68">
    <path d="M 625.34793 192.625836 
L 631.076354 192.625836 
L 631.076354 69.559736 
L 625.34793 69.559736 
z
" clip-path="url(#pd48d359a2f)" style="fill: #1f8a56; stroke: #1f8a56; stroke-linejoin: miter"/>
   </g>
   <g id="patch_69">
    <path d="M 635.763247 88.778665 
L 641.491672 88.778665 
L 641.491672 53.020104 
L 635.763247 53.020104 
z
" clip-path="url(#pd48d359a2f)" style="fill: #b91c1c; stroke: #b91c1c; stroke-linejoin: miter"/>
   </g>
   <g id="patch_70">
    <path d="M 646.178565 121.140906 
L 651.90699 121.140906 
L 651.90699 82.723795 
L 646.178565 82.723795 
z
" clip-path="url(#pd48d359a2f)" style="fill: #b91c1c; stroke: #b91c1c; stroke-linejoin: miter"/>
   </g>
   <g id="patch_71">
    <path d="M 656.593882 123.532752 
L 662.322307 123.532752 
L 662.322307 115.774677 
L 656.593882 115.774677 
z
" clip-path="url(#pd48d359a2f)" style="fill: #1f8a56; stroke: #1f8a56; stroke-linejoin: miter"/>
   </g>
   <g id="patch_72">
    <path d="M 667.0092 136.009455 
L 672.737625 136.009455 
L 672.737625 121.348619 
L 667.0092 121.348619 
z
" clip-path="url(#pd48d359a2f)" style="fill: #b91c1c; stroke: #b91c1c; stroke-linejoin: miter"/>
   </g>
   <g id="patch_73">
    <path d="M 677.424518 142.425013 
L 683.152942 142.425013 
L 683.152942 130.192099 
L 677.424518 130.192099 
z
" clip-path="url(#pd48d359a2f)" style="fill: #1f8a56; stroke: #1f8a56; stroke-linejoin: miter"/>
   </g>
   <g id="patch_74">
    <path d="M 687.839835 141.901503 
L 693.56826 141.901503 
L 693.56826 83.078586 
L 687.839835 83.078586 
z
" clip-path="url(#pd48d359a2f)" style="fill: #1f8a56; stroke: #1f8a56; stroke-linejoin: miter"/>
   </g>
   <g id="patch_75">
    <path d="M 698.255153 113.953364 
L 703.983577 113.953364 
L 703.983577 69.463711 
L 698.255153 69.463711 
z
" clip-path="url(#pd48d359a2f)" style="fill: #b91c1c; stroke: #b91c1c; stroke-linejoin: miter"/>
   </g>
   <g id="patch_76">
    <path d="M 708.67047 143.13063 
L 714.398895 143.13063 
L 714.398895 84.98046 
L 708.67047 84.98046 
z
" clip-path="url(#pd48d359a2f)" style="fill: #b91c1c; stroke: #b91c1c; stroke-linejoin: miter"/>
   </g>
   <g id="line2d_82">
    <path d="M 607.381507 165.108727 
" clip-path="url(#pd48d359a2f)" style="fill: none; stroke: #b91c1c; stroke-width: 1.5; stroke-linecap: square"/>
    <defs>
     <path id="mf7566fb4ec" d="M 0 -3.5 
L -3.5 3.5 
L 3.5 3.5 
z
" style="stroke: #b91c1c; stroke-linejoin: miter"/>
    </defs>
    <g clip-path="url(#pd48d359a2f)">
     <use xlink:href="#mf7566fb4ec" x="607.381507" y="165.108727" style="fill: #b91c1c; stroke: #b91c1c; stroke-linejoin: miter"/>
    </g>
   </g>
  </g>
 </g>
 <defs>
  <clipPath id="p28e0a4f147">
   <rect x="40.387656" y="24.23" width="322.874844" height="284.462648"/>
  </clipPath>
  <clipPath id="pd48d359a2f">
   <rect x="399.075156" y="24.23" width="322.874844" height="284.462648"/>
  </clipPath>
 </defs>
</svg>
