<?xml version="1.0" encoding="utf-8" standalone="no"?>
<!DOCTYPE svg PUBLIC "-//W3C//DTD SVG 1.1//EN"
  "http://www.w3.org/Graphics/SVG/1.1/DTD/svg11.dtd">
<svg xmlns:xlink="http://www.w3.org/1999/xlink" width="628.35pt" height="340.35pt" viewBox="0 0 628.35 340.35" xmlns="http://www.w3.org/2000/svg" version="1.1">
 <metadata>
  <rdf:RDF xmlns:dc="http://purl.org/dc/elements/1.1/" xmlns:cc="http://creativecommons.org/ns#" xmlns:rdf="http://www.w3.org/1999/02/22-rdf-syntax-ns#">
   <cc:Work>
    <dc:type rdf:resource="http://purl.org/dc/dcmitype/StillImage"/>
    <dc:date>2026-07-19T01:19:48.783920</dc:date>
    <dc:format>image/svg+xml</dc:format>
    <dc:creator>
     <cc:Agent>
      <dc:title>Matplotlib v3.11.1, https://matplotlib.org/</dc:title>
     </cc:Agent>
    </dc:creator>
   </cc:Work>
  </rdf:RDF>
 </metadata>
 <defs>
  <style type="text/css">*{stroke-linejoin: round; stroke-linecap: butt}</style>
 </defs>
 <g id="figure_1">
  <g id="patch_1">
   <path d="M 0 340.35 
L 628.35 340.35 
L 628.35 0 
L 0 0 
z
" style="fill: #ffffff"/>
  </g>
  <g id="axes_1">
   <g id="patch_2">
    <path d="M 7.2 308.12 
L 560.932344 308.12 
L 560.932344 25.0815 
L 7.2 25.0815 
z
" style="fill: #ffffff"/>
   </g>
   <g id="matplotlib.axis_1">
    <g id="text_1">
     <!-- ​ﻦﻣﺰﻟﺍ -->
     <g style="fill: #1f2937" transform="translate(274.591172 326.81) scale(0.1 -0.1)">
      <defs>
       <path id="NotoNaskhArabic-Regular-3" d="M 666 0 
Q 646 1126 604 2057 
Q 563 2989 493 3725 
Q 467 3987 566 4118 
Q 666 4250 915 4294 
Q 941 4173 1001 3965 
Q 1062 3757 1139 3533 
L 966 3386 
Q 992 2912 1001 2413 
Q 1011 1914 1001 1338 
Q 992 762 960 51 
L 666 0 
z
" transform="scale(0.015625)"/>
       <path id="NotoNaskhArabic-Regular-1c1" d="M -6 0 
Q -64 0 -64 51 
L -64 435 
Q -64 486 -6 486 
Q 378 486 704 659 
Q 685 902 665 1139 
Q 646 1376 627 1606 
Q 570 2208 512 2790 
Q 454 3373 384 3936 
Q 474 4032 579 4121 
Q 685 4211 806 4294 
Q 826 3949 851 3497 
Q 877 3046 915 2483 
Q 947 2016 960 1609 
Q 973 1203 979 864 
Q 979 755 915 572 
Q 851 390 755 224 
Q 640 0 -6 0 
z
" transform="scale(0.015625)"/>
       <path id="NotoNaskhArabic-Regular-d6" d="M 710 -1306 
Q 608 -1306 451 -1248 
Q 294 -1190 134 -1107 
Q -26 -1024 -128 -947 
L -45 -736 
Q 134 -768 284 -787 
Q 435 -806 563 -806 
Q 1043 -806 1385 -518 
Q 1728 -230 1907 314 
Q 1862 416 1814 515 
Q 1766 614 1709 717 
Q 1491 1107 1388 1340 
Q 1286 1574 1286 1734 
Q 1286 1901 1382 2000 
Q 1478 2099 1658 2182 
Q 1683 2099 1712 2000 
Q 1741 1901 1786 1792 
Q 1888 1530 1955 1334 
Q 2022 1139 2054 1018 
Q 2093 896 2115 797 
Q 2138 698 2144 614 
Q 2362 486 2643 486 
Q 2694 486 2694 435 
L 2694 51 
Q 2694 0 2643 0 
Q 2342 0 2118 154 
Q 2048 -288 1849 -617 
Q 1651 -947 1356 -1126 
Q 1062 -1306 710 -1306 
z
M 1299 2560 
Q 1018 2771 839 2976 
Q 1165 3303 1287 3443 
Q 1389 3335 1494 3229 
Q 1600 3123 1709 3027 
Q 1562 2816 1299 2560 
z
" transform="scale(0.015625)"/>
       <path id="NotoNaskhArabic-Regular-1e5" d="M 2291 0 
Q 2035 0 1753 48 
Q 1472 96 1209 182 
Q 947 269 749 384 
Q 602 179 422 89 
Q 243 0 0 0 
Q -51 0 -51 51 
L -51 435 
Q -51 486 0 486 
Q 243 486 409 604 
Q 576 723 698 960 
Q 813 1171 880 1308 
Q 947 1446 1004 1555 
Q 1062 1664 1152 1779 
Q 1312 1990 1478 2083 
Q 1645 2176 1830 2176 
Q 2016 2176 2201 1945 
Q 2387 1715 2502 1357 
Q 2618 1005 2618 666 
Q 2618 467 2547 307 
Q 2477 147 2291 0 
z
M 2150 486 
Q 2144 781 2061 1065 
Q 1978 1350 1875 1498 
Q 1805 1606 1728 1606 
Q 1491 1606 1286 1318 
Q 1235 1242 1161 1117 
Q 1088 992 998 806 
Q 1459 563 2150 486 
z
" transform="scale(0.015625)"/>
       <path id="NotoNaskhArabic-Regular-1e8" d="M 1594 -1677 
Q 1050 -1677 742 -1363 
Q 435 -1050 435 -474 
Q 435 -346 444 -237 
Q 454 -128 480 9 
Q 506 147 557 358 
L 794 301 
Q 723 6 723 -154 
Q 723 -621 956 -883 
Q 1190 -1146 1606 -1146 
Q 1926 -1146 2249 -1040 
Q 2573 -934 2829 -752 
Q 3085 -570 3187 -346 
Q 2976 109 2873 416 
Q 2771 723 2771 877 
Q 2771 1043 2864 1174 
Q 2957 1306 3187 1446 
Q 3200 1344 3235 1133 
Q 3270 922 3334 595 
Q 3565 486 3802 486 
Q 3859 486 3859 435 
L 3859 51 
Q 3859 0 3802 0 
Q 3590 0 3418 77 
L 3424 -109 
Q 3424 -499 3174 -860 
Q 2925 -1222 2490 -1446 
Q 2061 -1677 1594 -1677 
z
M 1766 1504 
Q 1485 1715 1306 1920 
Q 1632 2247 1754 2387 
Q 1856 2279 1961 2173 
Q 2067 2067 2176 1971 
Q 2029 1760 1766 1504 
z
" transform="scale(0.015625)"/>
       <path id="NotoNaskhArabic-Regular-554" transform="scale(0.015625)"/>
      </defs>
      <use xlink:href="#NotoNaskhArabic-Regular-3"/>
      <use xlink:href="#NotoNaskhArabic-Regular-1c1" transform="translate(23.796875 0)"/>
      <use xlink:href="#NotoNaskhArabic-Regular-d6" transform="translate(45 0)"/>
      <use xlink:href="#NotoNaskhArabic-Regular-1e5" transform="translate(85.40625 0)"/>
      <use xlink:href="#NotoNaskhArabic-Regular-1e8" transform="translate(131 0)"/>
      <use xlink:href="#NotoNaskhArabic-Regular-554" transform="translate(189.5 0)"/>
     </g>
    </g>
   </g>
   <g id="matplotlib.axis_2">
    <g id="ytick_1">
     <g id="line2d_1">
      <path d="M 7.2 283.777616 
L 560.932344 283.777616 
" clip-path="url(#p18a55ac7db)" style="fill: none; stroke: #e6e1d6; stroke-width: 0.8; stroke-linecap: square"/>
     </g>
     <g id="line2d_2">
      <defs>
       <path id="mdbfaaf2c0b" d="M 0 0 
L 3.5 0 
" style="stroke: #555555; stroke-width: 0.8"/>
      </defs>
      <g>
       <use xlink:href="#mdbfaaf2c0b" x="560.932344" y="283.777616" style="fill: #555555; stroke: #555555; stroke-width: 0.8"/>
      </g>
     </g>
     <g id="text_2">
      <!-- 102.5 -->
      <g style="fill: #555555" transform="translate(567.932344 289.389866) scale(0.105 -0.105)">
       <defs>
        <path id="NotoNaskhArabic-Regular-4cd" d="M 1722 0 
L 1722 3194 
Q 1722 3405 1728 3603 
Q 1734 3802 1747 3981 
Q 1702 3936 1657 3891 
Q 1613 3846 1562 3808 
Q 1402 3674 1226 3530 
Q 1050 3386 864 3232 
L 570 3610 
L 1805 4570 
L 2272 4570 
L 2272 0 
L 1722 0 
z
" transform="scale(0.015625)"/>
        <path id="NotoNaskhArabic-Regular-4cc" d="M 1824 -64 
Q 1082 -64 698 534 
Q 314 1133 314 2291 
Q 314 3488 682 4064 
Q 1050 4640 1824 4640 
Q 2566 4640 2956 4038 
Q 3347 3437 3347 2291 
Q 3347 1101 2969 518 
Q 2592 -64 1824 -64 
z
M 1824 416 
Q 2208 416 2426 678 
Q 2778 1094 2778 2291 
Q 2778 3571 2368 3962 
Q 2163 4160 1824 4160 
Q 1427 4160 1203 3878 
Q 877 3469 877 2291 
Q 877 1075 1229 666 
Q 1440 416 1824 416 
z
" transform="scale(0.015625)"/>
        <path id="NotoNaskhArabic-Regular-4ce" d="M 307 0 
L 307 467 
L 1504 1677 
Q 1773 1952 1952 2147 
Q 2131 2342 2221 2458 
Q 2413 2720 2489 2925 
Q 2566 3130 2566 3386 
Q 2566 3744 2352 3949 
Q 2138 4154 1760 4154 
Q 1478 4154 1228 4058 
Q 979 3962 659 3718 
L 358 4096 
Q 1005 4634 1760 4634 
Q 2240 4634 2576 4448 
Q 2912 4262 3053 3923 
Q 3142 3686 3142 3418 
Q 3142 3123 3033 2841 
Q 2925 2560 2707 2272 
Q 2598 2131 2416 1929 
Q 2234 1728 1971 1478 
L 1018 538 
L 1018 512 
L 3328 512 
L 3328 0 
L 307 0 
z
" transform="scale(0.015625)"/>
        <path id="NotoNaskhArabic-Regular-514" d="M 800 -422 
Q 646 -314 518 -230 
Q 390 -147 294 -90 
Q 326 -19 364 41 
Q 403 102 429 166 
Q 493 282 576 410 
Q 1069 122 1069 32 
Q 1069 -38 800 -422 
z
" transform="scale(0.015625)"/>
        <path id="NotoNaskhArabic-Regular-4d1" d="M 1587 -64 
Q 826 -64 403 186 
L 403 717 
Q 634 576 960 496 
Q 1286 416 1594 416 
Q 2131 416 2425 672 
Q 2720 928 2720 1402 
Q 2720 2330 1574 2330 
Q 1210 2330 794 2234 
L 512 2413 
L 685 4570 
L 2976 4570 
L 2976 4058 
L 1165 4058 
L 1056 2733 
Q 1235 2765 1411 2784 
Q 1587 2803 1760 2803 
Q 2477 2803 2886 2444 
Q 3296 2086 3296 1459 
Q 3296 749 2841 342 
Q 2387 -64 1587 -64 
z
" transform="scale(0.015625)"/>
       </defs>
       <use xlink:href="#NotoNaskhArabic-Regular-4cd"/>
       <use xlink:href="#NotoNaskhArabic-Regular-4cc" transform="translate(57.203125 0)"/>
       <use xlink:href="#NotoNaskhArabic-Regular-4ce" transform="translate(114.40625 0)"/>
       <use xlink:href="#NotoNaskhArabic-Regular-514" transform="translate(171.609375 0)"/>
       <use xlink:href="#NotoNaskhArabic-Regular-4d1" transform="translate(192.203125 0)"/>
      </g>
     </g>
    </g>
    <g id="ytick_2">
     <g id="line2d_3">
      <path d="M 7.2 248.418987 
L 560.932344 248.418987 
" clip-path="url(#p18a55ac7db)" style="fill: none; stroke: #e6e1d6; stroke-width: 0.8; stroke-linecap: square"/>
     </g>
     <g id="line2d_4">
      <g>
       <use xlink:href="#mdbfaaf2c0b" x="560.932344" y="248.418987" style="fill: #555555; stroke: #555555; stroke-width: 0.8"/>
      </g>
     </g>
     <g id="text_3">
      <!-- 105.0 -->
      <g style="fill: #555555" transform="translate(567.932344 254.031237) scale(0.105 -0.105)">
       <use xlink:href="#NotoNaskhArabic-Regular-4cd"/>
       <use xlink:href="#NotoNaskhArabic-Regular-4cc" transform="translate(57.203125 0)"/>
       <use xlink:href="#NotoNaskhArabic-Regular-4d1" transform="translate(114.40625 0)"/>
       <use xlink:href="#NotoNaskhArabic-Regular-514" transform="translate(171.609375 0)"/>
       <use xlink:href="#NotoNaskhArabic-Regular-4cc" transform="translate(192.203125 0)"/>
      </g>
     </g>
    </g>
    <g id="ytick_3">
     <g id="line2d_5">
      <path d="M 7.2 213.060357 
L 560.932344 213.060357 
" clip-path="url(#p18a55ac7db)" style="fill: none; stroke: #e6e1d6; stroke-width: 0.8; stroke-linecap: square"/>
     </g>
     <g id="line2d_6">
      <g>
       <use xlink:href="#mdbfaaf2c0b" x="560.932344" y="213.060357" style="fill: #555555; stroke: #555555; stroke-width: 0.8"/>
      </g>
     </g>
     <g id="text_4">
      <!-- 107.5 -->
      <g style="fill: #555555" transform="translate(567.932344 218.672607) scale(0.105 -0.105)">
       <defs>
        <path id="NotoNaskhArabic-Regular-4d3" d="M 870 0 
L 2746 4058 
L 282 4058 
L 282 4570 
L 3347 4570 
L 3347 4134 
L 1491 0 
L 870 0 
z
" transform="scale(0.015625)"/>
       </defs>
       <use xlink:href="#NotoNaskhArabic-Regular-4cd"/>
       <use xlink:href="#NotoNaskhArabic-Regular-4cc" transform="translate(57.203125 0)"/>
       <use xlink:href="#NotoNaskhArabic-Regular-4d3" transform="translate(114.40625 0)"/>
       <use xlink:href="#NotoNaskhArabic-Regular-514" transform="translate(171.609375 0)"/>
       <use xlink:href="#NotoNaskhArabic-Regular-4d1" transform="translate(192.203125 0)"/>
      </g>
     </g>
    </g>
    <g id="ytick_4">
     <g id="line2d_7">
      <path d="M 7.2 177.701728 
L 560.932344 177.701728 
" clip-path="url(#p18a55ac7db)" style="fill: none; stroke: #e6e1d6; stroke-width: 0.8; stroke-linecap: square"/>
     </g>
     <g id="line2d_8">
      <g>
       <use xlink:href="#mdbfaaf2c0b" x="560.932344" y="177.701728" style="fill: #555555; stroke: #555555; stroke-width: 0.8"/>
      </g>
     </g>
     <g id="text_5">
      <!-- 110.0 -->
      <g style="fill: #555555" transform="translate(567.932344 183.313978) scale(0.105 -0.105)">
       <use xlink:href="#NotoNaskhArabic-Regular-4cd"/>
       <use xlink:href="#NotoNaskhArabic-Regular-4cd" transform="translate(57.203125 0)"/>
       <use xlink:href="#NotoNaskhArabic-Regular-4cc" transform="translate(114.40625 0)"/>
       <use xlink:href="#NotoNaskhArabic-Regular-514" transform="translate(171.609375 0)"/>
       <use xlink:href="#NotoNaskhArabic-Regular-4cc" transform="translate(192.203125 0)"/>
      </g>
     </g>
    </g>
    <g id="ytick_5">
     <g id="line2d_9">
      <path d="M 7.2 142.343098 
L 560.932344 142.343098 
" clip-path="url(#p18a55ac7db)" style="fill: none; stroke: #e6e1d6; stroke-width: 0.8; stroke-linecap: square"/>
     </g>
     <g id="line2d_10">
      <g>
       <use xlink:href="#mdbfaaf2c0b" x="560.932344" y="142.343098" style="fill: #555555; stroke: #555555; stroke-width: 0.8"/>
      </g>
     </g>
     <g id="text_6">
      <!-- 112.5 -->
      <g style="fill: #555555" transform="translate(567.932344 147.955348) scale(0.105 -0.105)">
       <use xlink:href="#NotoNaskhArabic-Regular-4cd"/>
       <use xlink:href="#NotoNaskhArabic-Regular-4cd" transform="translate(57.203125 0)"/>
       <use xlink:href="#NotoNaskhArabic-Regular-4ce" transform="translate(114.40625 0)"/>
       <use xlink:href="#NotoNaskhArabic-Regular-514" transform="translate(171.609375 0)"/>
       <use xlink:href="#NotoNaskhArabic-Regular-4d1" transform="translate(192.203125 0)"/>
      </g>
     </g>
    </g>
    <g id="ytick_6">
     <g id="line2d_11">
      <path d="M 7.2 106.984468 
L 560.932344 106.984468 
" clip-path="url(#p18a55ac7db)" style="fill: none; stroke: #e6e1d6; stroke-width: 0.8; stroke-linecap: square"/>
     </g>
     <g id="line2d_12">
      <g>
       <use xlink:href="#mdbfaaf2c0b" x="560.932344" y="106.984468" style="fill: #555555; stroke: #555555; stroke-width: 0.8"/>
      </g>
     </g>
     <g id="text_7">
      <!-- 115.0 -->
      <g style="fill: #555555" transform="translate(567.932344 112.596718) scale(0.105 -0.105)">
       <use xlink:href="#NotoNaskhArabic-Regular-4cd"/>
       <use xlink:href="#NotoNaskhArabic-Regular-4cd" transform="translate(57.203125 0)"/>
       <use xlink:href="#NotoNaskhArabic-Regular-4d1" transform="translate(114.40625 0)"/>
       <use xlink:href="#NotoNaskhArabic-Regular-514" transform="translate(171.609375 0)"/>
       <use xlink:href="#NotoNaskhArabic-Regular-4cc" transform="translate(192.203125 0)"/>
      </g>
     </g>
    </g>
    <g id="ytick_7">
     <g id="line2d_13">
      <path d="M 7.2 71.625839 
L 560.932344 71.625839 
" clip-path="url(#p18a55ac7db)" style="fill: none; stroke: #e6e1d6; stroke-width: 0.8; stroke-linecap: square"/>
     </g>
     <g id="line2d_14">
      <g>
       <use xlink:href="#mdbfaaf2c0b" x="560.932344" y="71.625839" style="fill: #555555; stroke: #555555; stroke-width: 0.8"/>
      </g>
     </g>
     <g id="text_8">
      <!-- 117.5 -->
      <g style="fill: #555555" transform="translate(567.932344 77.238089) scale(0.105 -0.105)">
       <use xlink:href="#NotoNaskhArabic-Regular-4cd"/>
       <use xlink:href="#NotoNaskhArabic-Regular-4cd" transform="translate(57.203125 0)"/>
       <use xlink:href="#NotoNaskhArabic-Regular-4d3" transform="translate(114.40625 0)"/>
       <use xlink:href="#NotoNaskhArabic-Regular-514" transform="translate(171.609375 0)"/>
       <use xlink:href="#NotoNaskhArabic-Regular-4d1" transform="translate(192.203125 0)"/>
      </g>
     </g>
    </g>
    <g id="ytick_8">
     <g id="line2d_15">
      <path d="M 7.2 36.267209 
L 560.932344 36.267209 
" clip-path="url(#p18a55ac7db)" style="fill: none; stroke: #e6e1d6; stroke-width: 0.8; stroke-linecap: square"/>
     </g>
     <g id="line2d_16">
      <g>
       <use xlink:href="#mdbfaaf2c0b" x="560.932344" y="36.267209" style="fill: #555555; stroke: #555555; stroke-width: 0.8"/>
      </g>
     </g>
     <g id="text_9">
      <!-- 120.0 -->
      <g style="fill: #555555" transform="translate(567.932344 41.879459) scale(0.105 -0.105)">
       <use xlink:href="#NotoNaskhArabic-Regular-4cd"/>
       <use xlink:href="#NotoNaskhArabic-Regular-4ce" transform="translate(57.203125 0)"/>
       <use xlink:href="#NotoNaskhArabic-Regular-4cc" transform="translate(114.40625 0)"/>
       <use xlink:href="#NotoNaskhArabic-Regular-514" transform="translate(171.609375 0)"/>
       <use xlink:href="#NotoNaskhArabic-Regular-4cc" transform="translate(192.203125 0)"/>
      </g>
     </g>
    </g>
    <g id="text_10">
     <!-- ​ﺮﻌﺴﻟﺍ -->
     <g style="fill: #1f2937" transform="translate(610.46 156.945281) rotate(-270) scale(0.1 -0.1)">
      <defs>
       <path id="NotoNaskhArabic-Regular-f9" d="M 1446 0 
Q 1267 0 1030 57 
Q 794 115 666 198 
Q 576 109 397 54 
Q 218 0 0 0 
Q -51 0 -51 51 
L -51 435 
Q -51 486 0 486 
Q 326 486 518 634 
Q 627 723 681 809 
Q 736 896 858 1094 
Q 915 1197 1056 1197 
Q 1146 1197 1210 1152 
Q 1114 909 1046 765 
Q 979 621 947 570 
Q 998 544 1155 515 
Q 1312 486 1517 486 
Q 1664 486 1789 505 
Q 1914 525 2016 550 
Q 2061 621 2115 793 
Q 2170 966 2227 1145 
Q 2285 1325 2323 1408 
Q 2381 1536 2432 1574 
Q 2483 1613 2579 1613 
Q 2669 1613 2733 1568 
Q 2688 1466 2608 1235 
Q 2528 1005 2400 582 
Q 2496 538 2566 522 
Q 2637 506 2739 506 
Q 2906 506 3091 570 
Q 3123 608 3168 723 
Q 3213 838 3277 1030 
Q 3328 1190 3385 1331 
Q 3443 1472 3501 1568 
Q 3552 1664 3699 1664 
Q 3789 1664 3853 1619 
Q 3808 1517 3728 1289 
Q 3648 1062 3533 710 
Q 3757 589 3917 537 
Q 4077 486 4294 486 
Q 4352 486 4352 435 
L 4352 51 
Q 4352 0 4294 0 
Q 4045 0 3798 96 
Q 3552 192 3386 346 
Q 3366 301 3347 259 
Q 3328 218 3296 173 
Q 3251 96 3078 48 
Q 2906 0 2733 0 
Q 2438 0 2221 160 
Q 2176 102 2041 67 
Q 1907 32 1744 19 
Q 1581 6 1446 0 
z
" transform="scale(0.015625)"/>
       <path id="NotoNaskhArabic-Regular-135" d="M 6 0 
Q -51 0 -51 58 
L -51 429 
Q -51 486 6 486 
Q 672 486 1101 640 
L 986 787 
Q 864 973 771 1094 
Q 678 1216 621 1280 
Q 506 1427 410 1491 
L 307 1427 
Q 192 1555 192 1709 
Q 192 1862 297 1974 
Q 403 2086 566 2172 
Q 730 2259 902 2310 
Q 1158 2394 1446 2394 
Q 1722 2394 1936 2288 
Q 2150 2182 2272 2003 
Q 2400 1824 2400 1594 
Q 2400 1293 2243 1049 
Q 2086 806 1830 602 
Q 2099 486 2694 486 
Q 2758 486 2758 429 
L 2758 58 
Q 2758 0 2694 0 
Q 2259 0 1955 83 
Q 1651 166 1402 346 
Q 1050 166 723 83 
Q 397 0 6 0 
z
M 1478 845 
Q 1696 992 1821 1152 
Q 1946 1312 1946 1459 
Q 1946 1638 1811 1753 
Q 1677 1869 1466 1869 
Q 1075 1869 710 1677 
Q 947 1491 1325 1018 
Q 1395 934 1478 845 
z
" transform="scale(0.015625)"/>
       <path id="NotoNaskhArabic-Regular-d4" d="M 710 -1306 
Q 608 -1306 451 -1248 
Q 294 -1190 134 -1107 
Q -26 -1024 -128 -947 
L -45 -736 
Q 134 -768 284 -787 
Q 435 -806 563 -806 
Q 1043 -806 1385 -518 
Q 1728 -230 1907 314 
Q 1862 416 1814 515 
Q 1766 614 1709 717 
Q 1491 1107 1388 1340 
Q 1286 1574 1286 1734 
Q 1286 1901 1382 2000 
Q 1478 2099 1658 2182 
Q 1683 2099 1712 2000 
Q 1741 1901 1786 1792 
Q 1888 1530 1955 1334 
Q 2022 1139 2054 1018 
Q 2093 896 2115 797 
Q 2138 698 2144 614 
Q 2362 486 2643 486 
Q 2694 486 2694 435 
L 2694 51 
Q 2694 0 2643 0 
Q 2342 0 2118 154 
Q 2048 -288 1849 -617 
Q 1651 -947 1356 -1126 
Q 1062 -1306 710 -1306 
z
" transform="scale(0.015625)"/>
      </defs>
      <use xlink:href="#NotoNaskhArabic-Regular-3"/>
      <use xlink:href="#NotoNaskhArabic-Regular-1c1" transform="translate(23.796875 0)"/>
      <use xlink:href="#NotoNaskhArabic-Regular-f9" transform="translate(45 0)"/>
      <use xlink:href="#NotoNaskhArabic-Regular-135" transform="translate(111.296875 0)"/>
      <use xlink:href="#NotoNaskhArabic-Regular-d4" transform="translate(152.703125 0)"/>
      <use xlink:href="#NotoNaskhArabic-Regular-554" transform="translate(193.109375 0)"/>
     </g>
    </g>
   </g>
   <g id="line2d_17">
    <path d="M 240.998101 215.337893 
L 548.627181 215.337893 
" clip-path="url(#p18a55ac7db)" style="fill: none; stroke-dasharray: 7.4,3.2; stroke-dashoffset: 0; stroke: #b7791f; stroke-width: 2"/>
   </g>
   <g id="patch_3">
    <path d="M 560.932344 308.12 
L 560.932344 25.0815 
" style="fill: none; stroke: #1f2937; stroke-width: 0.8; stroke-linejoin: miter; stroke-linecap: square"/>
   </g>
   <g id="patch_4">
    <path d="M 7.2 308.12 
L 560.932344 308.12 
" style="fill: none; stroke: #1f2937; stroke-width: 0.8; stroke-linejoin: miter; stroke-linecap: square"/>
   </g>
   <g id="line2d_18">
    <path d="M 19.505163 213.335825 
L 19.505163 208.592991 
" clip-path="url(#p18a55ac7db)" style="fill: none; stroke: #1f8a56; stroke-width: 1.1; stroke-linecap: round"/>
   </g>
   <g id="line2d_19">
    <path d="M 31.810326 215.960057 
L 31.810326 204.756409 
" clip-path="url(#p18a55ac7db)" style="fill: none; stroke: #b91c1c; stroke-width: 1.1; stroke-linecap: round"/>
   </g>
   <g id="line2d_20">
    <path d="M 44.11549 215.542264 
L 44.11549 210.877482 
" clip-path="url(#p18a55ac7db)" style="fill: none; stroke: #1f8a56; stroke-width: 1.1; stroke-linecap: round"/>
   </g>
   <g id="line2d_21">
    <path d="M 56.420653 226.00033 
L 56.420653 211.823708 
" clip-path="url(#p18a55ac7db)" style="fill: none; stroke: #b91c1c; stroke-width: 1.1; stroke-linecap: round"/>
   </g>
   <g id="line2d_22">
    <path d="M 68.725816 226.581261 
L 68.725816 221.737139 
" clip-path="url(#p18a55ac7db)" style="fill: none; stroke: #b91c1c; stroke-width: 1.1; stroke-linecap: round"/>
   </g>
   <g id="line2d_23">
    <path d="M 81.030979 237.199693 
L 81.030979 224.018401 
" clip-path="url(#p18a55ac7db)" style="fill: none; stroke: #b91c1c; stroke-width: 1.1; stroke-linecap: round"/>
   </g>
   <g id="line2d_24">
    <path d="M 93.336142 251.633208 
L 93.336142 234.019854 
" clip-path="url(#p18a55ac7db)" style="fill: none; stroke: #b91c1c; stroke-width: 1.1; stroke-linecap: round"/>
   </g>
   <g id="line2d_25">
    <path d="M 105.641306 250.105623 
L 105.641306 242.289366 
" clip-path="url(#p18a55ac7db)" style="fill: none; stroke: #1f8a56; stroke-width: 1.1; stroke-linecap: round"/>
   </g>
   <g id="line2d_26">
    <path d="M 117.946469 245.293742 
L 117.946469 242.405298 
" clip-path="url(#p18a55ac7db)" style="fill: none; stroke: #b91c1c; stroke-width: 1.1; stroke-linecap: round"/>
   </g>
   <g id="line2d_27">
    <path d="M 130.251632 255.820745 
L 130.251632 240.382382 
" clip-path="url(#p18a55ac7db)" style="fill: none; stroke: #b91c1c; stroke-width: 1.1; stroke-linecap: round"/>
   </g>
   <g id="line2d_28">
    <path d="M 142.556795 260.923221 
L 142.556795 250.325929 
" clip-path="url(#p18a55ac7db)" style="fill: none; stroke: #b91c1c; stroke-width: 1.1; stroke-linecap: round"/>
   </g>
   <g id="line2d_29">
    <path d="M 154.861958 264.429168 
L 154.861958 255.760608 
" clip-path="url(#p18a55ac7db)" style="fill: none; stroke: #b91c1c; stroke-width: 1.1; stroke-linecap: round"/>
   </g>
   <g id="line2d_30">
    <path d="M 167.167122 265.725848 
L 167.167122 255.302763 
" clip-path="url(#p18a55ac7db)" style="fill: none; stroke: #1f8a56; stroke-width: 1.1; stroke-linecap: round"/>
   </g>
   <g id="line2d_31">
    <path d="M 179.472285 270.659022 
L 179.472285 258.837351 
" clip-path="url(#p18a55ac7db)" style="fill: none; stroke: #b91c1c; stroke-width: 1.1; stroke-linecap: round"/>
   </g>
   <g id="line2d_32">
    <path d="M 191.777448 266.841326 
L 191.777448 254.026979 
" clip-path="url(#p18a55ac7db)" style="fill: none; stroke: #1f8a56; stroke-width: 1.1; stroke-linecap: round"/>
   </g>
   <g id="line2d_33">
    <path d="M 204.082611 262.28309 
L 204.082611 230.933976 
" clip-path="url(#p18a55ac7db)" style="fill: none; stroke: #1f8a56; stroke-width: 1.1; stroke-linecap: round"/>
   </g>
   <g id="line2d_34">
    <path d="M 216.387774 235.963347 
L 216.387774 226.259955 
" clip-path="url(#p18a55ac7db)" style="fill: none; stroke: #1f8a56; stroke-width: 1.1; stroke-linecap: round"/>
   </g>
   <g id="line2d_35">
    <path d="M 228.692937 228.530153 
L 228.692937 216.752238 
" clip-path="url(#p18a55ac7db)" style="fill: none; stroke: #1f8a56; stroke-width: 1.1; stroke-linecap: round"/>
   </g>
   <g id="line2d_36">
    <path d="M 240.998101 215.184122 
L 240.998101 202.871216 
" clip-path="url(#p18a55ac7db)" style="fill: none; stroke: #1f8a56; stroke-width: 1.1; stroke-linecap: round"/>
   </g>
   <g id="line2d_37">
    <path d="M 253.303264 212.036309 
L 253.303264 208.504686 
" clip-path="url(#p18a55ac7db)" style="fill: none; stroke: #b91c1c; stroke-width: 1.1; stroke-linecap: round"/>
   </g>
   <g id="line2d_38">
    <path d="M 265.608427 213.936397 
L 265.608427 197.375464 
" clip-path="url(#p18a55ac7db)" style="fill: none; stroke: #1f8a56; stroke-width: 1.1; stroke-linecap: round"/>
   </g>
   <g id="line2d_39">
    <path d="M 277.91359 198.837369 
L 277.91359 192.351865 
" clip-path="url(#p18a55ac7db)" style="fill: none; stroke: #1f8a56; stroke-width: 1.1; stroke-linecap: round"/>
   </g>
   <g id="line2d_40">
    <path d="M 290.218753 194.486383 
L 290.218753 184.377611 
" clip-path="url(#p18a55ac7db)" style="fill: none; stroke: #1f8a56; stroke-width: 1.1; stroke-linecap: round"/>
   </g>
   <g id="line2d_41">
    <path d="M 302.523917 186.366669 
L 302.523917 176.754123 
" clip-path="url(#p18a55ac7db)" style="fill: none; stroke: #1f8a56; stroke-width: 1.1; stroke-linecap: round"/>
   </g>
   <g id="line2d_42">
    <path d="M 314.82908 176.281279 
L 314.82908 169.505437 
" clip-path="url(#p18a55ac7db)" style="fill: none; stroke: #1f8a56; stroke-width: 1.1; stroke-linecap: round"/>
   </g>
   <g id="line2d_43">
    <path d="M 327.134243 175.580089 
L 327.134243 159.05697 
" clip-path="url(#p18a55ac7db)" style="fill: none; stroke: #1f8a56; stroke-width: 1.1; stroke-linecap: round"/>
   </g>
   <g id="line2d_44">
    <path d="M 339.439406 162.365427 
L 339.439406 157.91769 
" clip-path="url(#p18a55ac7db)" style="fill: none; stroke: #1f8a56; stroke-width: 1.1; stroke-linecap: round"/>
   </g>
   <g id="line2d_45">
    <path d="M 351.744569 164.510993 
L 351.744569 161.981936 
" clip-path="url(#p18a55ac7db)" style="fill: none; stroke: #b91c1c; stroke-width: 1.1; stroke-linecap: round"/>
   </g>
   <g id="line2d_46">
    <path d="M 364.049733 172.64092 
L 364.049733 157.976295 
" clip-path="url(#p18a55ac7db)" style="fill: none; stroke: #b91c1c; stroke-width: 1.1; stroke-linecap: round"/>
   </g>
   <g id="line2d_47">
    <path d="M 376.354896 173.844346 
L 376.354896 167.561057 
" clip-path="url(#p18a55ac7db)" style="fill: none; stroke: #1f8a56; stroke-width: 1.1; stroke-linecap: round"/>
   </g>
   <g id="line2d_48">
    <path d="M 388.660059 173.538881 
L 388.660059 169.240267 
" clip-path="url(#p18a55ac7db)" style="fill: none; stroke: #b91c1c; stroke-width: 1.1; stroke-linecap: round"/>
   </g>
   <g id="line2d_49">
    <path d="M 400.965222 176.774838 
L 400.965222 170.882253 
" clip-path="url(#p18a55ac7db)" style="fill: none; stroke: #1f8a56; stroke-width: 1.1; stroke-linecap: round"/>
   </g>
   <g id="line2d_50">
    <path d="M 413.270385 182.510344 
L 413.270385 170.047453 
" clip-path="url(#p18a55ac7db)" style="fill: none; stroke: #b91c1c; stroke-width: 1.1; stroke-linecap: round"/>
   </g>
   <g id="line2d_51">
    <path d="M 425.575549 189.10771 
L 425.575549 181.473123 
" clip-path="url(#p18a55ac7db)" style="fill: none; stroke: #b91c1c; stroke-width: 1.1; stroke-linecap: round"/>
   </g>
   <g id="line2d_52">
    <path d="M 437.880712 190.617318 
L 437.880712 168.580175 
" clip-path="url(#p18a55ac7db)" style="fill: none; stroke: #1f8a56; stroke-width: 1.1; stroke-linecap: round"/>
   </g>
   <g id="line2d_53">
    <path d="M 450.185875 170.328209 
L 450.185875 145.762676 
" clip-path="url(#p18a55ac7db)" style="fill: none; stroke: #1f8a56; stroke-width: 1.1; stroke-linecap: round"/>
   </g>
   <g id="line2d_54">
    <path d="M 462.491038 147.271473 
L 462.491038 134.192957 
" clip-path="url(#p18a55ac7db)" style="fill: none; stroke: #1f8a56; stroke-width: 1.1; stroke-linecap: round"/>
   </g>
   <g id="line2d_55">
    <path d="M 474.796201 139.872527 
L 474.796201 124.791887 
" clip-path="url(#p18a55ac7db)" style="fill: none; stroke: #1f8a56; stroke-width: 1.1; stroke-linecap: round"/>
   </g>
   <g id="line2d_56">
    <path d="M 487.101365 127.308644 
L 487.101365 105.685789 
" clip-path="url(#p18a55ac7db)" style="fill: none; stroke: #1f8a56; stroke-width: 1.1; stroke-linecap: round"/>
   </g>
   <g id="line2d_57">
    <path d="M 499.406528 108.960223 
L 499.406528 93.34136 
" clip-path="url(#p18a55ac7db)" style="fill: none; stroke: #1f8a56; stroke-width: 1.1; stroke-linecap: round"/>
   </g>
   <g id="line2d_58">
    <path d="M 511.711691 91.475859 
L 511.711691 84.814847 
" clip-path="url(#p18a55ac7db)" style="fill: none; stroke: #1f8a56; stroke-width: 1.1; stroke-linecap: round"/>
   </g>
   <g id="line2d_59">
    <path d="M 524.016854 85.69735 
L 524.016854 74.4602 
" clip-path="url(#p18a55ac7db)" style="fill: none; stroke: #1f8a56; stroke-width: 1.1; stroke-linecap: round"/>
   </g>
   <g id="line2d_60">
    <path d="M 536.322017 81.319422 
L 536.322017 69.809481 
" clip-path="url(#p18a55ac7db)" style="fill: none; stroke: #1f8a56; stroke-width: 1.1; stroke-linecap: round"/>
   </g>
   <g id="line2d_61">
    <path d="M 548.627181 74.119339 
L 548.627181 62.542478 
" clip-path="url(#p18a55ac7db)" style="fill: none; stroke: #1f8a56; stroke-width: 1.1; stroke-linecap: round"/>
   </g>
   <g id="text_11">
    <!-- 1: CHOCH -->
    <g style="fill: #1f2937" transform="translate(180.053549 234.512386) scale(0.095 -0.095)">
     <defs>
      <path id="NotoNaskhArabic-Bold-4cd" d="M 1677 0 
L 1677 2643 
Q 1677 2822 1686 3020 
Q 1696 3219 1702 3552 
Q 1466 3315 1370 3238 
Q 1242 3136 1107 3030 
Q 973 2925 845 2816 
L 378 3398 
L 1850 4570 
L 2643 4570 
L 2643 0 
L 1677 0 
z
" transform="scale(0.015625)"/>
      <path id="NotoNaskhArabic-Bold-516" d="M 1037 1792 
Q 877 1920 710 2029 
Q 544 2138 378 2234 
Q 429 2317 473 2397 
Q 518 2477 557 2560 
Q 602 2643 650 2723 
Q 698 2803 755 2886 
Q 870 2816 1017 2720 
Q 1165 2624 1273 2534 
Q 1382 2445 1382 2381 
Q 1382 2291 1037 1792 
z
M 1037 -365 
Q 691 -96 378 77 
Q 429 166 473 246 
Q 518 326 557 410 
Q 602 486 650 566 
Q 698 646 755 730 
Q 1382 365 1382 224 
Q 1382 134 1037 -365 
z
" transform="scale(0.015625)"/>
      <path id="NotoNaskhArabic-Bold-554" transform="scale(0.015625)"/>
      <path id="DejaVuSans-Bold-26" d="M 4288 256 
Q 3956 84 3597 -3 
Q 3238 -91 2847 -91 
Q 1681 -91 1000 561 
Q 319 1213 319 2328 
Q 319 3447 1000 4098 
Q 1681 4750 2847 4750 
Q 3238 4750 3597 4662 
Q 3956 4575 4288 4403 
L 4288 3438 
Q 3953 3666 3628 3772 
Q 3303 3878 2944 3878 
Q 2300 3878 1931 3465 
Q 1563 3053 1563 2328 
Q 1563 1606 1931 1193 
Q 2300 781 2944 781 
Q 3303 781 3628 887 
Q 3953 994 4288 1222 
L 4288 256 
z
" transform="scale(0.015625)"/>
      <path id="DejaVuSans-Bold-2b" d="M 588 4666 
L 1791 4666 
L 1791 2888 
L 3566 2888 
L 3566 4666 
L 4769 4666 
L 4769 0 
L 3566 0 
L 3566 1978 
L 1791 1978 
L 1791 0 
L 588 0 
L 588 4666 
z
" transform="scale(0.015625)"/>
      <path id="DejaVuSans-Bold-32" d="M 2719 3878 
Q 2169 3878 1866 3472 
Q 1563 3066 1563 2328 
Q 1563 1594 1866 1187 
Q 2169 781 2719 781 
Q 3272 781 3575 1187 
Q 3878 1594 3878 2328 
Q 3878 3066 3575 3472 
Q 3272 3878 2719 3878 
z
M 2719 4750 
Q 3844 4750 4481 4106 
Q 5119 3463 5119 2328 
Q 5119 1197 4481 553 
Q 3844 -91 2719 -91 
Q 1597 -91 958 553 
Q 319 1197 319 2328 
Q 319 3463 958 4106 
Q 1597 4750 2719 4750 
z
" transform="scale(0.015625)"/>
     </defs>
     <use xlink:href="#NotoNaskhArabic-Bold-4cd"/>
     <use xlink:href="#NotoNaskhArabic-Bold-516" transform="translate(57.203125 0)"/>
     <use xlink:href="#NotoNaskhArabic-Bold-554" transform="translate(84.609375 0)"/>
     <use xlink:href="#DejaVuSans-Bold-26" transform="translate(106.703125 0)"/>
     <use xlink:href="#DejaVuSans-Bold-2b" transform="translate(180.09375 0)"/>
     <use xlink:href="#DejaVuSans-Bold-32" transform="translate(263.78125 0)"/>
     <use xlink:href="#DejaVuSans-Bold-26" transform="translate(348.796875 0)"/>
     <use xlink:href="#DejaVuSans-Bold-2b" transform="translate(422.1875 0)"/>
    </g>
   </g>
   <g id="text_12">
    <!-- ​ﺐﻴﻠﻓ ﺔﻘﻄﻨﻣ :2 -->
    <g style="fill: #b7791f" transform="translate(187.56327 217.295393) scale(0.09 -0.09)">
     <defs>
      <path id="NotoNaskhArabic-Bold-4ce" d="M 256 0 
L 256 672 
L 1402 1830 
Q 1914 2355 2067 2554 
Q 2234 2765 2298 2925 
Q 2362 3085 2362 3283 
Q 2362 3558 2211 3692 
Q 2061 3827 1805 3827 
Q 1542 3827 1292 3705 
Q 1043 3584 768 3360 
L 243 3981 
Q 518 4218 761 4358 
Q 1005 4499 1267 4566 
Q 1530 4634 1875 4634 
Q 2304 4634 2633 4477 
Q 2963 4320 3142 4038 
Q 3322 3763 3322 3398 
Q 3322 3085 3213 2809 
Q 3104 2534 2867 2240 
Q 2752 2093 2547 1885 
Q 2342 1677 2048 1408 
L 1459 858 
L 1459 813 
L 3450 813 
L 3450 0 
L 256 0 
z
" transform="scale(0.015625)"/>
      <path id="NotoNaskhArabic-Bold-1e5" d="M 2349 0 
Q 1920 0 1488 99 
Q 1056 198 755 358 
Q 602 198 429 128 
Q 256 58 0 58 
Q -51 58 -51 109 
L -51 762 
Q -51 813 0 813 
Q 525 813 774 1286 
Q 890 1517 982 1680 
Q 1075 1843 1146 1939 
Q 1306 2157 1446 2249 
Q 1587 2342 1773 2342 
Q 2003 2342 2224 2102 
Q 2445 1862 2586 1466 
Q 2726 1082 2726 723 
Q 2726 557 2611 339 
Q 2496 122 2349 0 
z
M 2138 704 
Q 2112 941 2035 1142 
Q 1958 1344 1862 1466 
Q 1760 1587 1677 1587 
Q 1536 1587 1427 1472 
Q 1325 1363 1120 960 
Q 1325 870 1577 803 
Q 1830 736 2138 704 
z
" transform="scale(0.015625)"/>
      <path id="NotoNaskhArabic-Bold-1e9" d="M 0 58 
Q -51 58 -51 109 
L -51 762 
Q -51 813 0 813 
Q 416 813 627 966 
Q 710 1024 774 1145 
Q 838 1267 922 1427 
Q 1024 1632 1101 1680 
Q 1178 1728 1280 1728 
Q 1427 1728 1536 1638 
Q 1466 1478 1392 1312 
Q 1318 1146 1248 979 
Q 1562 813 1926 813 
Q 1978 813 1978 762 
L 1978 109 
Q 1978 58 1926 58 
Q 1440 58 998 499 
Q 960 435 925 384 
Q 890 333 858 288 
Q 774 192 550 125 
Q 326 58 0 58 
z
M 966 2284 
Q 640 2553 474 2745 
Q 621 2892 739 3017 
Q 858 3142 954 3257 
Q 1024 3180 1139 3065 
Q 1254 2950 1414 2796 
Q 1338 2688 1226 2560 
Q 1114 2432 966 2284 
z
" transform="scale(0.015625)"/>
      <path id="NotoNaskhArabic-Bold-125" d="M 0 58 
Q -51 58 -51 109 
L -51 762 
Q -51 813 0 813 
Q 166 819 332 819 
Q 499 819 659 819 
Q 730 915 794 1008 
Q 858 1101 922 1184 
Q 768 1933 669 2406 
Q 570 2880 515 3149 
Q 461 3418 438 3546 
Q 416 3674 416 3725 
Q 416 3987 605 4169 
Q 794 4352 1069 4352 
Q 1133 4134 1197 3939 
Q 1261 3744 1331 3565 
L 1126 3411 
Q 1146 3130 1168 2842 
Q 1190 2554 1210 2272 
Q 1222 2106 1238 1939 
Q 1254 1773 1261 1606 
Q 2170 2669 2803 2669 
Q 3066 2669 3354 2512 
Q 3642 2355 3872 2074 
Q 4109 1786 4109 1626 
Q 4109 1286 3885 986 
Q 4205 813 4570 813 
Q 4627 813 4627 762 
L 4627 109 
Q 4627 58 4570 58 
Q 4256 58 3952 202 
Q 3648 346 3424 602 
Q 2944 346 2128 202 
Q 1312 58 0 58 
z
M 1158 832 
Q 1190 832 1321 838 
Q 1453 845 1632 854 
Q 1811 864 1990 880 
Q 2170 896 2291 915 
Q 2458 947 2624 979 
Q 2790 1011 3040 1075 
Q 3290 1139 3693 1254 
Q 3475 1498 3305 1635 
Q 3136 1773 2985 1830 
Q 2835 1888 2650 1888 
Q 2061 1888 1158 832 
z
" transform="scale(0.015625)"/>
      <path id="NotoNaskhArabic-Bold-169" d="M 6 58 
Q -51 58 -51 115 
L -51 755 
Q -51 813 6 813 
Q 115 813 227 816 
Q 339 819 454 819 
Q 358 973 358 1114 
Q 358 1197 374 1337 
Q 390 1478 419 1606 
Q 448 1734 474 1786 
Q 595 2003 771 2179 
Q 947 2355 1152 2457 
Q 1357 2560 1549 2560 
Q 1722 2560 1898 2368 
Q 2074 2176 2182 1875 
Q 2291 1568 2291 1306 
Q 2291 1056 2150 819 
Q 2285 819 2422 816 
Q 2560 813 2694 813 
Q 2746 813 2746 762 
L 2746 109 
Q 2746 58 2694 58 
Q 1882 58 1325 269 
Q 1030 147 716 102 
Q 403 58 6 58 
z
M 1299 794 
Q 1690 902 1933 1107 
Q 1888 1280 1795 1446 
Q 1702 1613 1613 1696 
Q 1549 1773 1478 1773 
Q 1146 1773 704 1178 
Q 819 1043 979 944 
Q 1139 845 1299 794 
z
M 1888 3052 
Q 1753 3161 1644 3257 
Q 1536 3353 1446 3449 
Q 1683 3667 1875 3897 
Q 1932 3833 2034 3737 
Q 2137 3641 2278 3500 
Q 2105 3264 1888 3052 
z
M 1030 2956 
Q 755 3180 588 3360 
Q 697 3468 806 3580 
Q 915 3692 1024 3801 
Q 1139 3667 1420 3404 
Q 1260 3174 1030 2956 
z
" transform="scale(0.015625)"/>
      <path id="NotoNaskhArabic-Bold-215" d="M 3302 58 
Q 2912 58 2675 182 
Q 2438 307 2393 531 
L 2336 768 
L 2080 243 
Q 1881 262 1711 288 
Q 1542 314 1395 365 
Q 1235 422 1075 518 
Q 915 614 806 716 
Q 697 819 697 890 
Q 697 941 738 1078 
Q 780 1216 838 1369 
Q 896 1523 940 1600 
Q 998 1728 1184 1882 
Q 1363 2042 1593 2192 
Q 1824 2342 1984 2413 
L 1952 2669 
Q 2118 2797 2223 2873 
Q 2329 2950 2418 3011 
Q 2508 3072 2617 3136 
L 2617 986 
Q 2924 813 3302 813 
Q 3353 813 3353 762 
L 3353 109 
Q 3353 58 3302 58 
z
M 2272 1005 
Q 2233 1158 2188 1366 
Q 2144 1574 2086 1837 
Q 1491 1638 1152 1318 
Q 1356 1178 1542 1123 
Q 1728 1069 1894 1043 
Q 2067 1011 2272 1005 
z
M 2138 3257 
Q 2003 3366 1894 3462 
Q 1786 3558 1696 3654 
Q 1933 3872 2125 4102 
Q 2182 4038 2284 3942 
Q 2387 3846 2528 3705 
Q 2355 3469 2138 3257 
z
M 1280 3161 
Q 1005 3385 838 3565 
Q 947 3673 1056 3785 
Q 1165 3897 1274 4006 
Q 1389 3872 1670 3609 
Q 1510 3379 1280 3161 
z
" transform="scale(0.015625)"/>
      <path id="NotoNaskhArabic-Bold-146" d="M 6 58 
Q -51 58 -51 115 
L -51 762 
Q -51 813 6 813 
Q 710 813 1196 857 
Q 1683 902 2061 1075 
Q 2048 1120 2029 1177 
Q 2010 1235 1978 1312 
Q 1824 1178 1638 1107 
Q 1453 1037 1229 1037 
Q 864 1037 685 1229 
Q 506 1421 506 1709 
Q 506 2029 624 2297 
Q 742 2566 941 2720 
Q 1043 2803 1158 2851 
Q 1274 2899 1395 2899 
Q 1658 2899 1904 2608 
Q 2150 2317 2285 1869 
Q 2349 1677 2377 1469 
Q 2406 1261 2406 1043 
Q 2406 832 2189 397 
Q 1875 275 1577 201 
Q 1280 128 912 93 
Q 544 58 6 58 
z
M 1318 1504 
Q 1568 1504 1856 1594 
Q 1734 1875 1593 2003 
Q 1453 2131 1254 2131 
Q 1056 2131 944 2032 
Q 832 1933 832 1811 
Q 832 1658 947 1581 
Q 1062 1504 1318 1504 
z
M 1388 3328 
Q 1062 3597 896 3789 
Q 1043 3936 1161 4061 
Q 1280 4186 1376 4301 
Q 1446 4224 1561 4109 
Q 1676 3994 1836 3840 
Q 1760 3732 1648 3604 
Q 1536 3476 1388 3328 
z
" transform="scale(0.015625)"/>
      <path id="NotoNaskhArabic-Bold-1bf" d="M 0 58 
Q -51 58 -51 109 
L -51 762 
Q -51 813 0 813 
Q 154 813 304 845 
Q 454 877 595 934 
Q 454 1830 307 3059 
Q 282 3264 259 3481 
Q 237 3699 211 3930 
Q 384 4058 576 4160 
Q 768 4262 973 4352 
Q 966 4115 956 3696 
Q 947 3277 937 2768 
Q 928 2259 922 1734 
L 922 992 
Q 1190 813 1619 813 
Q 1677 813 1677 762 
L 1677 109 
Q 1677 58 1619 58 
Q 1088 58 832 282 
Q 691 192 470 125 
Q 250 58 0 58 
z
" transform="scale(0.015625)"/>
      <path id="NotoNaskhArabic-Bold-240" d="M 0 58 
Q -51 58 -51 109 
L -51 762 
Q -51 813 0 813 
Q 307 813 566 829 
Q 826 845 992 928 
Q 1120 992 1187 1104 
Q 1254 1216 1357 1421 
Q 1459 1632 1536 1680 
Q 1613 1728 1715 1728 
Q 1869 1728 1971 1638 
Q 1888 1427 1814 1264 
Q 1741 1101 1690 979 
Q 2003 813 2362 813 
Q 2413 813 2413 762 
L 2413 109 
Q 2413 58 2362 58 
Q 1875 58 1434 499 
L 1382 416 
Q 1203 179 883 118 
Q 563 58 0 58 
z
M 1651 -1235 
Q 1376 -1011 1209 -832 
Q 1414 -653 1638 -384 
Q 1657 -403 1756 -502 
Q 1856 -602 2035 -787 
Q 1971 -883 1875 -995 
Q 1779 -1107 1651 -1235 
z
M 793 -1331 
Q 633 -1203 527 -1100 
Q 422 -998 352 -922 
Q 460 -813 569 -701 
Q 678 -589 787 -480 
Q 864 -576 1184 -877 
Q 1030 -1107 793 -1331 
z
" transform="scale(0.015625)"/>
      <path id="NotoNaskhArabic-Bold-24" d="M 2010 0 
Q 448 0 448 1363 
Q 448 1638 570 2067 
L 858 2067 
Q 851 2042 844 1926 
Q 838 1811 838 1747 
Q 838 1376 982 1174 
Q 1126 973 1434 864 
Q 1587 819 1792 790 
Q 1997 762 2246 762 
Q 2918 762 3404 845 
Q 3891 928 4070 1069 
Q 4134 1126 4182 1200 
Q 4230 1274 4301 1434 
Q 4390 1626 4467 1677 
Q 4544 1728 4646 1728 
Q 4794 1728 4902 1638 
Q 4838 1466 4768 1302 
Q 4698 1139 4608 986 
Q 4774 902 4928 857 
Q 5082 813 5293 813 
Q 5344 813 5344 762 
L 5344 109 
Q 5344 58 5293 58 
Q 5050 58 4816 166 
Q 4582 275 4314 544 
Q 3994 288 3376 144 
Q 2758 0 2010 0 
z
M 2624 -1427 
Q 2451 -1286 2329 -1171 
Q 2208 -1056 2124 -966 
Q 2252 -838 2374 -713 
Q 2496 -589 2611 -454 
Q 2777 -646 3072 -915 
Q 3001 -1017 2886 -1148 
Q 2771 -1280 2624 -1427 
z
" transform="scale(0.015625)"/>
     </defs>
     <use xlink:href="#NotoNaskhArabic-Bold-4ce"/>
     <use xlink:href="#NotoNaskhArabic-Bold-516" transform="translate(57.203125 0)"/>
     <use xlink:href="#NotoNaskhArabic-Bold-554" transform="translate(84.609375 0)"/>
     <use xlink:href="#NotoNaskhArabic-Bold-1e5" transform="translate(106.703125 0)"/>
     <use xlink:href="#NotoNaskhArabic-Bold-1e9" transform="translate(154 0)"/>
     <use xlink:href="#NotoNaskhArabic-Bold-125" transform="translate(183.203125 0)"/>
     <use xlink:href="#NotoNaskhArabic-Bold-169" transform="translate(253.796875 0)"/>
     <use xlink:href="#NotoNaskhArabic-Bold-215" transform="translate(295 0)"/>
     <use xlink:href="#NotoNaskhArabic-Bold-554" transform="translate(345.703125 0)"/>
     <use xlink:href="#NotoNaskhArabic-Bold-146" transform="translate(367.796875 0)"/>
     <use xlink:href="#NotoNaskhArabic-Bold-1bf" transform="translate(410.5 0)"/>
     <use xlink:href="#NotoNaskhArabic-Bold-240" transform="translate(435 0)"/>
     <use xlink:href="#NotoNaskhArabic-Bold-24" transform="translate(471 0)"/>
     <use xlink:href="#NotoNaskhArabic-Bold-554" transform="translate(552.703125 0)"/>
    </g>
   </g>
   <g id="text_13">
    <!-- ​ﺔﺤﺟﺎﻧ ﺭﺎﺒﺘﺧﺍ ﺓﺩﺎﻋﺇ :3 -->
    <g style="fill: #1f8a56" transform="translate(354.302129 200.048477) scale(0.085 -0.085)">
     <defs>
      <path id="NotoNaskhArabic-Bold-4cf" d="M 1562 -64 
Q 819 -64 243 186 
L 243 1005 
Q 506 870 826 787 
Q 1146 704 1459 704 
Q 1939 704 2166 867 
Q 2394 1030 2394 1389 
Q 2394 1709 2131 1843 
Q 1869 1978 1293 1978 
L 947 1978 
L 947 2720 
L 1299 2720 
Q 1830 2720 2076 2861 
Q 2323 3002 2323 3334 
Q 2323 3853 1670 3853 
Q 1446 3853 1212 3779 
Q 979 3706 698 3520 
L 250 4186 
Q 870 4634 1741 4634 
Q 2451 4634 2860 4346 
Q 3270 4058 3270 3546 
Q 3270 3117 3014 2816 
Q 2758 2515 2285 2406 
L 2285 2387 
Q 3405 2253 3405 1331 
Q 3405 672 2928 304 
Q 2451 -64 1562 -64 
z
" transform="scale(0.015625)"/>
      <path id="NotoNaskhArabic-Bold-a" d="M 774 58 
Q 742 717 710 1216 
Q 678 1715 646 2134 
Q 614 2554 576 2950 
Q 538 3347 493 3808 
Q 474 3968 566 4089 
Q 659 4211 822 4281 
Q 986 4352 1178 4352 
Q 1229 4154 1296 3955 
Q 1363 3757 1440 3565 
L 1216 3398 
Q 1229 2867 1222 2035 
Q 1216 1203 1184 109 
L 774 58 
z
M 608 -1530 
L 595 -1267 
L 826 -1127 
Q 621 -1056 621 -883 
Q 621 -768 691 -649 
Q 762 -531 867 -454 
Q 973 -378 1069 -378 
Q 1306 -378 1306 -659 
Q 1306 -736 1274 -813 
L 1152 -787 
L 1152 -775 
Q 1152 -717 1075 -717 
Q 935 -717 851 -877 
Q 967 -992 1165 -992 
Q 1223 -992 1287 -982 
Q 1351 -973 1415 -960 
L 1389 -1248 
Q 1159 -1299 1002 -1353 
Q 845 -1408 608 -1530 
z
" transform="scale(0.015625)"/>
      <path id="NotoNaskhArabic-Bold-136" d="M 0 58 
Q -51 58 -51 109 
L -51 762 
Q -51 813 0 813 
L 499 813 
Q 365 1005 365 1210 
Q 365 1408 441 1632 
Q 518 1856 652 2057 
Q 787 2259 947 2387 
Q 1190 2579 1440 2579 
Q 1875 2579 2406 1990 
L 2272 1728 
Q 2074 1805 1907 1840 
Q 1741 1875 1600 1875 
Q 1376 1875 1197 1827 
Q 1018 1779 819 1670 
Q 832 1434 921 1245 
Q 1011 1056 1190 928 
Q 1267 877 1338 838 
Q 1843 870 2240 953 
Q 2637 1037 3040 1197 
Q 3091 1152 3116 1056 
Q 3142 960 3142 883 
Q 3142 730 3072 602 
Q 3002 474 2874 410 
Q 2746 346 2259 250 
Q 1766 147 1235 102 
Q 704 58 0 58 
z
" transform="scale(0.015625)"/>
      <path id="NotoNaskhArabic-Bold-4" d="M 1901 58 
Q 1517 58 1283 186 
Q 1050 314 938 528 
Q 826 742 794 1018 
Q 781 1139 749 1424 
Q 717 1709 681 2073 
Q 646 2438 608 2809 
Q 570 3181 538 3481 
Q 506 3782 486 3930 
Q 845 4166 1248 4352 
Q 1274 3635 1296 2918 
Q 1318 2202 1338 1478 
L 1363 979 
Q 1478 883 1606 848 
Q 1734 813 1914 813 
Q 1952 813 1952 762 
L 1952 109 
Q 1952 58 1901 58 
z
" transform="scale(0.015625)"/>
      <path id="NotoNaskhArabic-Bold-b5" d="M 1075 0 
Q 218 0 218 499 
Q 218 634 272 784 
Q 326 934 410 1018 
Q 570 890 774 826 
Q 979 762 1280 762 
Q 1696 762 2118 896 
Q 2016 1082 1929 1222 
Q 1843 1363 1773 1466 
Q 1594 1728 1478 1923 
Q 1363 2118 1363 2240 
Q 1363 2445 1526 2630 
Q 1690 2816 1901 2880 
Q 1952 2714 2022 2515 
Q 2093 2317 2166 2125 
Q 2240 1933 2291 1792 
Q 2381 1549 2445 1337 
Q 2509 1126 2509 954 
Q 2509 896 2473 765 
Q 2438 634 2387 493 
Q 2336 352 2285 250 
Q 2054 134 1734 67 
Q 1414 0 1075 0 
z
" transform="scale(0.015625)"/>
      <path id="NotoNaskhArabic-Bold-214" d="M 1274 0 
Q 909 0 672 246 
Q 435 493 435 864 
Q 435 1126 572 1401 
Q 710 1677 1018 1984 
Q 915 2048 880 2141 
Q 845 2234 845 2330 
Q 845 2464 899 2585 
Q 954 2707 1043 2752 
Q 1408 2637 1721 2381 
Q 2035 2125 2214 1798 
Q 2394 1466 2394 1184 
Q 2394 1094 2349 944 
Q 2304 794 2233 634 
Q 2163 474 2086 349 
Q 2010 224 1939 179 
Q 1818 96 1642 48 
Q 1466 0 1274 0 
z
M 1344 672 
Q 1690 672 1978 851 
Q 1882 1133 1715 1360 
Q 1549 1587 1286 1786 
Q 915 1421 915 1075 
Q 915 896 1040 784 
Q 1165 672 1344 672 
z
M 1684 3251 
Q 1549 3360 1440 3456 
Q 1332 3552 1242 3648 
Q 1479 3866 1671 4096 
Q 1728 4032 1830 3936 
Q 1933 3840 2074 3699 
Q 1901 3463 1684 3251 
z
M 826 3155 
Q 551 3379 384 3559 
Q 493 3667 602 3779 
Q 711 3891 820 4000 
Q 935 3866 1216 3603 
Q 1056 3373 826 3155 
z
" transform="scale(0.015625)"/>
      <path id="NotoNaskhArabic-Bold-3" d="M 774 58 
Q 742 717 710 1216 
Q 678 1715 646 2134 
Q 614 2554 576 2950 
Q 538 3347 493 3808 
Q 474 3968 566 4089 
Q 659 4211 822 4281 
Q 986 4352 1178 4352 
Q 1229 4154 1296 3955 
Q 1363 3757 1440 3565 
L 1216 3398 
Q 1229 2867 1222 2035 
Q 1216 1203 1184 109 
L 774 58 
z
" transform="scale(0.015625)"/>
      <path id="NotoNaskhArabic-Bold-a4" d="M 0 58 
Q -51 58 -51 109 
L -51 762 
Q -51 813 0 813 
Q 467 813 793 829 
Q 1120 845 1427 934 
Q 1702 1018 1897 1069 
Q 2093 1120 2202 1146 
Q 2112 1197 2025 1251 
Q 1939 1306 1856 1363 
Q 1651 1504 1513 1558 
Q 1376 1613 1235 1613 
Q 1043 1613 870 1558 
Q 698 1504 480 1363 
Q 422 1421 377 1533 
Q 333 1645 333 1747 
Q 333 2029 582 2205 
Q 832 2381 1210 2381 
Q 1414 2381 1603 2310 
Q 1792 2240 2029 2080 
Q 2317 1882 2560 1763 
Q 2803 1645 3136 1555 
Q 3302 1517 3500 1494 
Q 3699 1472 3936 1472 
L 3603 794 
Q 3405 813 3273 825 
Q 3142 838 2963 826 
Q 2739 806 2483 704 
Q 2227 602 1990 467 
Q 1741 320 1533 237 
Q 1325 154 1107 115 
Q 890 77 624 67 
Q 358 58 0 58 
z
M 1894 2873 
Q 1568 3142 1402 3334 
Q 1549 3481 1667 3606 
Q 1786 3731 1882 3846 
Q 1952 3769 2067 3654 
Q 2182 3539 2342 3385 
Q 2266 3277 2154 3149 
Q 2042 3021 1894 2873 
z
" transform="scale(0.015625)"/>
      <path id="NotoNaskhArabic-Bold-37" d="M 0 58 
Q -51 58 -51 109 
L -51 762 
Q -51 813 0 813 
Q 307 813 566 829 
Q 826 845 992 928 
Q 1120 992 1187 1104 
Q 1254 1216 1357 1421 
Q 1459 1632 1536 1680 
Q 1613 1728 1715 1728 
Q 1869 1728 1971 1638 
Q 1888 1427 1814 1264 
Q 1741 1101 1690 979 
Q 2003 813 2362 813 
Q 2413 813 2413 762 
L 2413 109 
Q 2413 58 2362 58 
Q 1875 58 1434 499 
L 1382 416 
Q 1203 179 883 118 
Q 563 58 0 58 
z
M 1664 2252 
Q 1529 2361 1420 2457 
Q 1312 2553 1222 2649 
Q 1459 2867 1651 3097 
Q 1708 3033 1810 2937 
Q 1913 2841 2054 2700 
Q 1881 2464 1664 2252 
z
M 806 2156 
Q 531 2380 364 2560 
Q 473 2668 582 2780 
Q 691 2892 800 3001 
Q 915 2867 1196 2604 
Q 1036 2374 806 2156 
z
" transform="scale(0.015625)"/>
      <path id="NotoNaskhArabic-Bold-25" d="M 0 58 
Q -51 58 -51 109 
L -51 762 
Q -51 813 0 813 
Q 416 813 627 966 
Q 710 1024 774 1145 
Q 838 1267 922 1427 
Q 1024 1632 1101 1680 
Q 1178 1728 1280 1728 
Q 1427 1728 1536 1638 
Q 1466 1478 1392 1312 
Q 1318 1146 1248 979 
Q 1562 813 1926 813 
Q 1978 813 1978 762 
L 1978 109 
Q 1978 58 1926 58 
Q 1440 58 998 499 
Q 960 435 925 384 
Q 890 333 858 288 
Q 774 192 550 125 
Q 326 58 0 58 
z
M 1088 -1427 
Q 915 -1286 793 -1171 
Q 672 -1056 588 -966 
Q 716 -838 838 -713 
Q 960 -589 1075 -454 
Q 1241 -646 1536 -915 
Q 1465 -1017 1350 -1148 
Q 1235 -1280 1088 -1427 
z
" transform="scale(0.015625)"/>
      <path id="NotoNaskhArabic-Bold-d3" d="M 653 -1248 
Q 544 -1248 304 -1107 
Q 64 -966 -218 -730 
L -115 -461 
Q 243 -550 531 -550 
Q 1005 -550 1331 -313 
Q 1658 -77 1805 371 
Q 1760 467 1705 566 
Q 1651 666 1587 762 
Q 1402 1050 1254 1312 
Q 1107 1574 1107 1779 
Q 1107 1965 1254 2147 
Q 1402 2330 1638 2451 
Q 1677 2317 1731 2137 
Q 1786 1958 1846 1782 
Q 1907 1606 1952 1472 
Q 2035 1235 2089 1004 
Q 2144 774 2144 570 
Q 2144 70 1952 -349 
Q 1760 -768 1421 -1011 
Q 1082 -1248 653 -1248 
z
" transform="scale(0.015625)"/>
      <path id="NotoNaskhArabic-Bold-1ea" d="M 0 58 
Q -51 58 -51 109 
L -51 762 
Q -51 813 0 813 
Q 320 813 640 867 
Q 960 922 1139 998 
Q 1075 1146 976 1328 
Q 877 1510 819 1613 
Q 755 1734 710 1833 
Q 666 1933 666 2016 
Q 666 2176 838 2361 
Q 1011 2547 1248 2669 
Q 1293 2470 1347 2217 
Q 1402 1965 1446 1702 
Q 1485 1504 1501 1376 
Q 1517 1248 1517 1184 
Q 1517 1037 1443 822 
Q 1370 608 1267 410 
Q 685 58 0 58 
z
M 902 3052 
Q 576 3321 410 3513 
Q 557 3660 675 3785 
Q 794 3910 890 4025 
Q 960 3948 1075 3833 
Q 1190 3718 1350 3564 
Q 1274 3456 1162 3328 
Q 1050 3200 902 3052 
z
" transform="scale(0.015625)"/>
      <path id="NotoNaskhArabic-Bold-74" d="M 0 58 
Q -51 58 -51 109 
L -51 762 
Q -51 813 0 813 
Q 467 813 793 829 
Q 1120 845 1427 934 
Q 1702 1018 1897 1069 
Q 2093 1120 2202 1146 
Q 2112 1197 2025 1251 
Q 1939 1306 1856 1363 
Q 1651 1504 1513 1558 
Q 1376 1613 1235 1613 
Q 1043 1613 870 1558 
Q 698 1504 480 1363 
Q 422 1421 377 1533 
Q 333 1645 333 1747 
Q 333 2029 582 2205 
Q 832 2381 1210 2381 
Q 1414 2381 1603 2310 
Q 1792 2240 2029 2080 
Q 2317 1882 2560 1763 
Q 2803 1645 3136 1555 
Q 3302 1517 3500 1494 
Q 3699 1472 3936 1472 
L 3603 794 
Q 3405 813 3273 825 
Q 3142 838 2963 826 
Q 2739 806 2483 704 
Q 2227 602 1990 467 
Q 1741 320 1533 237 
Q 1325 154 1107 115 
Q 890 77 624 67 
Q 358 58 0 58 
z
M 2272 -1107 
Q 2099 -966 1977 -851 
Q 1856 -736 1772 -646 
Q 1900 -518 2022 -393 
Q 2144 -269 2259 -134 
Q 2425 -326 2720 -595 
Q 2649 -697 2534 -828 
Q 2419 -960 2272 -1107 
z
" transform="scale(0.015625)"/>
      <path id="NotoNaskhArabic-Bold-8b" d="M 0 58 
Q -51 58 -51 109 
L -51 762 
Q -51 813 0 813 
Q 467 813 793 829 
Q 1120 845 1427 934 
Q 1702 1018 1897 1069 
Q 2093 1120 2202 1146 
Q 2118 1197 2032 1251 
Q 1946 1306 1856 1363 
Q 1651 1498 1513 1555 
Q 1376 1613 1235 1613 
Q 1043 1613 870 1558 
Q 698 1504 480 1363 
Q 422 1421 377 1533 
Q 333 1645 333 1747 
Q 333 2029 582 2205 
Q 832 2381 1210 2381 
Q 1414 2381 1603 2310 
Q 1792 2240 2029 2080 
Q 2317 1882 2560 1763 
Q 2803 1645 3136 1555 
Q 3302 1517 3500 1494 
Q 3699 1472 3936 1472 
L 3654 934 
Q 3578 941 3501 941 
Q 3424 941 3347 947 
Q 3411 890 3488 867 
Q 3565 845 3661 832 
Q 3808 826 3965 822 
Q 4122 819 4262 813 
Q 4314 813 4314 762 
L 4314 109 
Q 4314 58 4262 58 
Q 4032 58 3782 80 
Q 3533 102 3325 150 
Q 3117 198 3021 262 
Q 2893 358 2838 537 
Q 2784 717 2746 877 
Q 2624 851 2525 803 
Q 2426 755 2304 675 
Q 2182 595 1990 467 
Q 1683 262 1395 176 
Q 1107 90 774 74 
Q 442 58 0 58 
z
" transform="scale(0.015625)"/>
     </defs>
     <use xlink:href="#NotoNaskhArabic-Bold-4cf"/>
     <use xlink:href="#NotoNaskhArabic-Bold-516" transform="translate(57.203125 0)"/>
     <use xlink:href="#NotoNaskhArabic-Bold-554" transform="translate(84.609375 0)"/>
     <use xlink:href="#NotoNaskhArabic-Bold-a" transform="translate(106.703125 0)"/>
     <use xlink:href="#NotoNaskhArabic-Bold-136" transform="translate(135.109375 0)"/>
     <use xlink:href="#NotoNaskhArabic-Bold-4" transform="translate(186.8125 0)"/>
     <use xlink:href="#NotoNaskhArabic-Bold-b5" transform="translate(215.609375 0)"/>
     <use xlink:href="#NotoNaskhArabic-Bold-214" transform="translate(259.109375 0)"/>
     <use xlink:href="#NotoNaskhArabic-Bold-554" transform="translate(301.609375 0)"/>
     <use xlink:href="#NotoNaskhArabic-Bold-3" transform="translate(323.703125 0)"/>
     <use xlink:href="#NotoNaskhArabic-Bold-a4" transform="translate(352.109375 0)"/>
     <use xlink:href="#NotoNaskhArabic-Bold-37" transform="translate(417.015625 0)"/>
     <use xlink:href="#NotoNaskhArabic-Bold-25" transform="translate(453.015625 0)"/>
     <use xlink:href="#NotoNaskhArabic-Bold-4" transform="translate(482.21875 0)"/>
     <use xlink:href="#NotoNaskhArabic-Bold-d3" transform="translate(511.015625 0)"/>
     <use xlink:href="#NotoNaskhArabic-Bold-554" transform="translate(548.71875 0)"/>
     <use xlink:href="#NotoNaskhArabic-Bold-1ea" transform="translate(570.8125 0)"/>
     <use xlink:href="#NotoNaskhArabic-Bold-4" transform="translate(598.3125 0)"/>
     <use xlink:href="#NotoNaskhArabic-Bold-74" transform="translate(627.109375 0)"/>
     <use xlink:href="#NotoNaskhArabic-Bold-8b" transform="translate(692.015625 0)"/>
     <use xlink:href="#NotoNaskhArabic-Bold-215" transform="translate(757.71875 0)"/>
     <use xlink:href="#NotoNaskhArabic-Bold-554" transform="translate(808.421875 0)"/>
    </g>
   </g>
   <g id="text_14">
    <!-- ​ﺐﻴﻠﻔﻟﺍ ﺔﻘﻄﻨﻣ ﻦﻣ ﻝﻮﺧﺪﻟﺍ + CHOCH :3 ﻡﺎﻈﻨﻟﺍ -->
    <g style="fill: #1f2937" transform="translate(189.336484 18.4245) scale(0.105 -0.105)">
     <defs>
      <path id="NotoNaskhArabic-Bold-1c1" d="M 0 58 
Q -51 58 -51 109 
L -51 762 
Q -51 813 0 813 
Q 282 813 672 960 
Q 646 1146 624 1334 
Q 602 1523 570 1709 
Q 544 1894 441 2448 
Q 339 3002 173 3930 
Q 339 4045 534 4147 
Q 730 4250 934 4352 
Q 947 3827 960 3356 
Q 973 2886 986 2477 
Q 998 2067 1004 1718 
Q 1011 1370 1011 1069 
Q 1011 634 762 256 
Q 698 166 490 112 
Q 282 58 0 58 
z
" transform="scale(0.015625)"/>
      <path id="NotoNaskhArabic-Bold-12d" d="M 0 58 
Q -51 58 -51 109 
L -51 762 
Q -51 813 0 813 
Q 166 819 332 819 
Q 499 819 659 819 
Q 730 915 794 1008 
Q 858 1101 922 1184 
Q 768 1933 669 2406 
Q 570 2880 515 3149 
Q 461 3418 438 3546 
Q 416 3674 416 3725 
Q 416 3987 605 4169 
Q 794 4352 1069 4352 
Q 1133 4134 1197 3939 
Q 1261 3744 1331 3565 
L 1126 3411 
Q 1146 3130 1168 2842 
Q 1190 2554 1210 2272 
Q 1222 2106 1238 1939 
Q 1254 1773 1261 1606 
Q 2170 2669 2803 2669 
Q 3066 2669 3354 2512 
Q 3642 2355 3872 2074 
Q 4109 1786 4109 1626 
Q 4109 1286 3885 986 
Q 4205 813 4570 813 
Q 4627 813 4627 762 
L 4627 109 
Q 4627 58 4570 58 
Q 4256 58 3952 202 
Q 3648 346 3424 602 
Q 2944 346 2128 202 
Q 1312 58 0 58 
z
M 1158 832 
Q 1190 832 1321 838 
Q 1453 845 1632 854 
Q 1811 864 1990 880 
Q 2170 896 2291 915 
Q 2458 947 2624 979 
Q 2790 1011 3040 1075 
Q 3290 1139 3693 1254 
Q 3475 1498 3305 1635 
Q 3136 1773 2985 1830 
Q 2835 1888 2650 1888 
Q 2061 1888 1158 832 
z
M 2604 3129 
Q 2278 3398 2112 3590 
Q 2259 3737 2377 3862 
Q 2496 3987 2592 4102 
Q 2662 4025 2777 3910 
Q 2892 3795 3052 3641 
Q 2976 3533 2864 3405 
Q 2752 3277 2604 3129 
z
" transform="scale(0.015625)"/>
      <path id="NotoNaskhArabic-Bold-1e2" d="M 474 -2099 
Q 474 -1523 397 -883 
Q 365 -557 345 -336 
Q 326 -115 326 0 
Q 326 179 595 755 
Q 614 787 748 825 
Q 883 864 1081 899 
Q 1280 934 1497 960 
Q 1715 986 1904 1002 
Q 2093 1018 2195 1018 
L 2074 1152 
Q 1894 1350 1763 1526 
Q 1632 1702 1478 1702 
Q 1331 1702 1190 1593 
Q 1050 1485 896 1267 
L 634 1402 
Q 819 1875 1078 2163 
Q 1338 2451 1600 2451 
Q 1754 2451 1894 2336 
Q 2035 2221 2227 1946 
Q 2432 1645 2614 1437 
Q 2797 1229 2995 1088 
L 2701 326 
Q 2438 326 2140 307 
Q 1843 288 1564 253 
Q 1286 218 1068 176 
Q 851 134 736 96 
Q 774 -83 812 -262 
Q 851 -442 890 -621 
Q 947 -896 1004 -1177 
Q 1062 -1459 1120 -1741 
Q 954 -1862 794 -1952 
Q 634 -2042 474 -2099 
z
" transform="scale(0.015625)"/>
      <path id="DejaVuSans-Bold-e" d="M 3053 4013 
L 3053 2375 
L 4684 2375 
L 4684 1638 
L 3053 1638 
L 3053 0 
L 2309 0 
L 2309 1638 
L 678 1638 
L 678 2375 
L 2309 2375 
L 2309 4013 
L 3053 4013 
z
" transform="scale(0.015625)"/>
      <path id="NotoNaskhArabic-Bold-b6" d="M 1075 0 
Q 218 0 218 499 
Q 218 634 272 784 
Q 326 934 410 1018 
Q 570 890 774 826 
Q 979 762 1280 762 
Q 1466 762 1658 784 
Q 1850 806 2048 851 
Q 1798 1286 1648 1673 
Q 1498 2061 1498 2246 
Q 1498 2477 1613 2646 
Q 1728 2816 1946 2880 
Q 2074 2362 2208 1955 
Q 2342 1549 2490 1248 
Q 2611 1005 2758 909 
Q 2906 813 3162 813 
Q 3213 813 3213 762 
L 3213 109 
Q 3213 58 3162 58 
Q 2707 58 2413 352 
Q 1709 0 1075 0 
z
" transform="scale(0.015625)"/>
      <path id="NotoNaskhArabic-Bold-219" d="M 1248 -1248 
Q 1171 -1248 1011 -1174 
Q 851 -1101 668 -982 
Q 486 -864 326 -730 
L 429 -461 
Q 602 -506 778 -528 
Q 954 -550 1133 -550 
Q 1536 -550 1862 -380 
Q 2189 -211 2368 64 
Q 2093 83 1894 102 
Q 1696 122 1574 147 
Q 838 307 838 1018 
Q 838 1370 972 1712 
Q 1107 2054 1325 2266 
Q 1549 2477 1766 2477 
Q 2029 2477 2262 2240 
Q 2496 2003 2650 1626 
Q 2720 1446 2768 1241 
Q 2816 1037 2835 813 
L 3181 813 
Q 3232 813 3232 762 
L 3232 109 
Q 3232 58 3181 58 
L 2784 58 
Q 2669 -365 2419 -669 
Q 2170 -973 1843 -1120 
Q 1555 -1248 1248 -1248 
z
M 2419 819 
Q 2285 1254 2077 1484 
Q 1869 1715 1626 1715 
Q 1504 1715 1401 1651 
Q 1299 1587 1235 1498 
Q 1178 1402 1178 1293 
Q 1178 941 1805 858 
Q 1952 838 2419 819 
z
" transform="scale(0.015625)"/>
      <path id="NotoNaskhArabic-Bold-1bd" d="M 1606 -1613 
Q 1030 -1613 729 -1277 
Q 429 -941 429 -301 
Q 429 -134 470 96 
Q 512 326 589 627 
L 870 557 
Q 787 282 787 45 
Q 787 -858 1619 -858 
Q 1971 -858 2243 -797 
Q 2515 -736 2752 -595 
Q 2854 -538 2953 -458 
Q 3053 -378 3155 -288 
L 3014 461 
Q 2957 742 2886 1136 
Q 2816 1530 2742 1955 
Q 2669 2381 2608 2758 
Q 2547 3136 2508 3392 
Q 2470 3648 2470 3699 
Q 2470 3968 2675 4160 
Q 2880 4352 3162 4352 
Q 3219 4134 3283 3939 
Q 3347 3744 3418 3565 
L 3213 3411 
L 3405 1414 
Q 3437 1101 3462 861 
Q 3488 621 3501 406 
Q 3514 192 3514 -45 
Q 3514 -474 3258 -838 
Q 3002 -1203 2566 -1408 
Q 2349 -1510 2109 -1561 
Q 1869 -1613 1606 -1613 
z
" transform="scale(0.015625)"/>
      <path id="NotoNaskhArabic-Bold-1e8" d="M 1606 -1613 
Q 1037 -1613 736 -1277 
Q 435 -941 435 -301 
Q 435 32 595 627 
L 877 557 
Q 787 256 787 45 
Q 787 -858 1626 -858 
Q 2131 -858 2486 -726 
Q 2842 -595 3181 -288 
Q 2963 115 2800 419 
Q 2637 723 2637 883 
Q 2637 1408 3283 1728 
Q 3296 1626 3328 1427 
Q 3360 1229 3411 928 
Q 3622 813 3885 813 
Q 3942 813 3942 762 
L 3942 109 
Q 3942 58 3885 58 
Q 3795 58 3705 74 
Q 3616 90 3526 128 
L 3533 -45 
Q 3533 -474 3277 -838 
Q 3021 -1203 2579 -1408 
Q 2362 -1510 2115 -1561 
Q 1869 -1613 1606 -1613 
z
M 1811 1580 
Q 1485 1849 1319 2041 
Q 1466 2188 1584 2313 
Q 1703 2438 1799 2553 
Q 1869 2476 1984 2361 
Q 2099 2246 2259 2092 
Q 2183 1984 2071 1856 
Q 1959 1728 1811 1580 
z
" transform="scale(0.015625)"/>
      <path id="NotoNaskhArabic-Bold-145" d="M 6 58 
Q -51 58 -51 115 
L -51 755 
Q -51 813 6 813 
Q 115 813 227 816 
Q 339 819 454 819 
Q 358 973 358 1114 
Q 358 1197 374 1337 
Q 390 1478 419 1606 
Q 448 1734 474 1786 
Q 595 2003 771 2179 
Q 947 2355 1152 2457 
Q 1357 2560 1549 2560 
Q 1722 2560 1898 2368 
Q 2074 2176 2182 1875 
Q 2291 1568 2291 1306 
Q 2291 1056 2150 819 
Q 2285 819 2422 816 
Q 2560 813 2694 813 
Q 2746 813 2746 762 
L 2746 109 
Q 2746 58 2694 58 
Q 1882 58 1325 269 
Q 1030 147 716 102 
Q 403 58 6 58 
z
M 1299 794 
Q 1690 902 1933 1107 
Q 1888 1280 1795 1446 
Q 1702 1613 1613 1696 
Q 1549 1773 1478 1773 
Q 1146 1773 704 1178 
Q 819 1043 979 944 
Q 1139 845 1299 794 
z
M 1459 3084 
Q 1133 3353 967 3545 
Q 1114 3692 1232 3817 
Q 1351 3942 1447 4057 
Q 1517 3980 1632 3865 
Q 1747 3750 1907 3596 
Q 1831 3488 1719 3360 
Q 1607 3232 1459 3084 
z
" transform="scale(0.015625)"/>
     </defs>
     <use xlink:href="#NotoNaskhArabic-Bold-3"/>
     <use xlink:href="#NotoNaskhArabic-Bold-1c1" transform="translate(28.40625 0)"/>
     <use xlink:href="#NotoNaskhArabic-Bold-1e9" transform="translate(50.109375 0)"/>
     <use xlink:href="#NotoNaskhArabic-Bold-12d" transform="translate(79.3125 0)"/>
     <use xlink:href="#NotoNaskhArabic-Bold-4" transform="translate(149.90625 0)"/>
     <use xlink:href="#NotoNaskhArabic-Bold-1e2" transform="translate(178.703125 0)"/>
     <use xlink:href="#NotoNaskhArabic-Bold-554" transform="translate(228.90625 0)"/>
     <use xlink:href="#DejaVuSans-Bold-26" transform="translate(251 0)"/>
     <use xlink:href="#DejaVuSans-Bold-2b" transform="translate(324.390625 0)"/>
     <use xlink:href="#DejaVuSans-Bold-32" transform="translate(408.078125 0)"/>
     <use xlink:href="#DejaVuSans-Bold-26" transform="translate(493.09375 0)"/>
     <use xlink:href="#DejaVuSans-Bold-2b" transform="translate(566.484375 0)"/>
     <use xlink:href="#NotoNaskhArabic-Bold-554" transform="translate(650.171875 0)"/>
     <use xlink:href="#NotoNaskhArabic-Bold-516" transform="translate(672.265625 0)"/>
     <use xlink:href="#NotoNaskhArabic-Bold-4cf" transform="translate(699.671875 0)"/>
     <use xlink:href="#NotoNaskhArabic-Bold-554" transform="translate(756.875 0)"/>
     <use xlink:href="#DejaVuSans-Bold-e" transform="translate(778.96875 0)"/>
     <use xlink:href="#NotoNaskhArabic-Bold-554" transform="translate(862.765625 0)"/>
     <use xlink:href="#NotoNaskhArabic-Bold-3" transform="translate(884.859375 0)"/>
     <use xlink:href="#NotoNaskhArabic-Bold-1c1" transform="translate(913.265625 0)"/>
     <use xlink:href="#NotoNaskhArabic-Bold-b6" transform="translate(934.96875 0)"/>
     <use xlink:href="#NotoNaskhArabic-Bold-a4" transform="translate(983.46875 0)"/>
     <use xlink:href="#NotoNaskhArabic-Bold-219" transform="translate(1048.375 0)"/>
     <use xlink:href="#NotoNaskhArabic-Bold-1bd" transform="translate(1097.171875 0)"/>
     <use xlink:href="#NotoNaskhArabic-Bold-554" transform="translate(1158.375 0)"/>
     <use xlink:href="#NotoNaskhArabic-Bold-1e5" transform="translate(1180.46875 0)"/>
     <use xlink:href="#NotoNaskhArabic-Bold-1e8" transform="translate(1227.765625 0)"/>
     <use xlink:href="#NotoNaskhArabic-Bold-554" transform="translate(1287.671875 0)"/>
     <use xlink:href="#NotoNaskhArabic-Bold-1e5" transform="translate(1309.765625 0)"/>
     <use xlink:href="#NotoNaskhArabic-Bold-1e9" transform="translate(1357.0625 0)"/>
     <use xlink:href="#NotoNaskhArabic-Bold-125" transform="translate(1386.265625 0)"/>
     <use xlink:href="#NotoNaskhArabic-Bold-169" transform="translate(1456.859375 0)"/>
     <use xlink:href="#NotoNaskhArabic-Bold-215" transform="translate(1498.0625 0)"/>
     <use xlink:href="#NotoNaskhArabic-Bold-554" transform="translate(1548.765625 0)"/>
     <use xlink:href="#NotoNaskhArabic-Bold-3" transform="translate(1570.859375 0)"/>
     <use xlink:href="#NotoNaskhArabic-Bold-1c1" transform="translate(1599.265625 0)"/>
     <use xlink:href="#NotoNaskhArabic-Bold-145" transform="translate(1620.96875 0)"/>
     <use xlink:href="#NotoNaskhArabic-Bold-1bf" transform="translate(1662.171875 0)"/>
     <use xlink:href="#NotoNaskhArabic-Bold-240" transform="translate(1686.671875 0)"/>
     <use xlink:href="#NotoNaskhArabic-Bold-24" transform="translate(1722.671875 0)"/>
     <use xlink:href="#NotoNaskhArabic-Bold-554" transform="translate(1804.375 0)"/>
    </g>
   </g>
   <g id="patch_5">
    <path d="M 16.121243 212.309821 
L 22.889083 212.309821 
L 22.889083 206.066325 
L 16.121243 206.066325 
z
" clip-path="url(#p18a55ac7db)" style="fill: #1f8a56; stroke: #1f8a56; stroke-linejoin: miter"/>
   </g>
   <g id="patch_6">
    <path d="M 28.426407 215.178533 
L 35.194246 215.178533 
L 35.194246 207.154889 
L 28.426407 207.154889 
z
" clip-path="url(#p18a55ac7db)" style="fill: #b91c1c; stroke: #b91c1c; stroke-linejoin: miter"/>
   </g>
   <g id="patch_7">
    <path d="M 40.73157 215.473851 
L 47.499409 215.473851 
L 47.499409 209.230355 
L 40.73157 209.230355 
z
" clip-path="url(#p18a55ac7db)" style="fill: #1f8a56; stroke: #1f8a56; stroke-linejoin: miter"/>
   </g>
   <g id="patch_8">
    <path d="M 53.036733 222.394401 
L 59.804573 222.394401 
L 59.804573 214.197803 
L 53.036733 214.197803 
z
" clip-path="url(#p18a55ac7db)" style="fill: #b91c1c; stroke: #b91c1c; stroke-linejoin: miter"/>
   </g>
   <g id="patch_9">
    <path d="M 65.341896 225.484122 
L 72.109736 225.484122 
L 72.109736 219.240625 
L 65.341896 219.240625 
z
" clip-path="url(#p18a55ac7db)" style="fill: #b91c1c; stroke: #b91c1c; stroke-linejoin: miter"/>
   </g>
   <g id="patch_10">
    <path d="M 77.647059 234.340428 
L 84.414899 234.340428 
L 84.414899 225.115504 
L 77.647059 225.115504 
z
" clip-path="url(#p18a55ac7db)" style="fill: #b91c1c; stroke: #b91c1c; stroke-linejoin: miter"/>
   </g>
   <g id="patch_11">
    <path d="M 89.952222 250.461359 
L 96.720062 250.461359 
L 96.720062 235.482949 
L 89.952222 235.482949 
z
" clip-path="url(#p18a55ac7db)" style="fill: #b91c1c; stroke: #b91c1c; stroke-linejoin: miter"/>
   </g>
   <g id="patch_12">
    <path d="M 102.257386 249.228565 
L 109.025225 249.228565 
L 109.025225 242.985069 
L 102.257386 242.985069 
z
" clip-path="url(#p18a55ac7db)" style="fill: #1f8a56; stroke: #1f8a56; stroke-linejoin: miter"/>
   </g>
   <g id="patch_13">
    <path d="M 114.562549 244.343589 
L 121.330389 244.343589 
L 121.330389 238.100092 
L 114.562549 238.100092 
z
" clip-path="url(#p18a55ac7db)" style="fill: #b91c1c; stroke: #b91c1c; stroke-linejoin: miter"/>
   </g>
   <g id="patch_14">
    <path d="M 126.867712 254.445317 
L 133.635552 254.445317 
L 133.635552 240.88201 
L 126.867712 240.88201 
z
" clip-path="url(#p18a55ac7db)" style="fill: #b91c1c; stroke: #b91c1c; stroke-linejoin: miter"/>
   </g>
   <g id="patch_15">
    <path d="M 139.172875 258.082047 
L 145.940715 258.082047 
L 145.940715 251.83855 
L 139.172875 251.83855 
z
" clip-path="url(#p18a55ac7db)" style="fill: #b91c1c; stroke: #b91c1c; stroke-linejoin: miter"/>
   </g>
   <g id="patch_16">
    <path d="M 151.478038 261.349929 
L 158.245878 261.349929 
L 158.245878 255.106432 
L 151.478038 255.106432 
z
" clip-path="url(#p18a55ac7db)" style="fill: #b91c1c; stroke: #b91c1c; stroke-linejoin: miter"/>
   </g>
   <g id="patch_17">
    <path d="M 163.783202 264.024969 
L 170.551041 264.024969 
L 170.551041 257.781472 
L 163.783202 257.781472 
z
" clip-path="url(#p18a55ac7db)" style="fill: #1f8a56; stroke: #1f8a56; stroke-linejoin: miter"/>
   </g>
   <g id="patch_18">
    <path d="M 176.088365 268.876248 
L 182.856205 268.876248 
L 182.856205 259.829495 
L 176.088365 259.829495 
z
" clip-path="url(#p18a55ac7db)" style="fill: #b91c1c; stroke: #b91c1c; stroke-linejoin: miter"/>
   </g>
   <g id="patch_19">
    <path d="M 188.393528 265.879496 
L 195.161368 265.879496 
L 195.161368 257.353153 
L 188.393528 257.353153 
z
" clip-path="url(#p18a55ac7db)" style="fill: #1f8a56; stroke: #1f8a56; stroke-linejoin: miter"/>
   </g>
   <g id="patch_20">
    <path d="M 200.698691 259.155911 
L 207.466531 259.155911 
L 207.466531 232.779569 
L 200.698691 232.779569 
z
" clip-path="url(#p18a55ac7db)" style="fill: #1f8a56; stroke: #1f8a56; stroke-linejoin: miter"/>
   </g>
   <g id="patch_21">
    <path d="M 213.003854 233.185317 
L 219.771694 233.185317 
L 219.771694 226.665599 
L 213.003854 226.665599 
z
" clip-path="url(#p18a55ac7db)" style="fill: #1f8a56; stroke: #1f8a56; stroke-linejoin: miter"/>
   </g>
   <g id="patch_22">
    <path d="M 225.309018 228.332487 
L 232.076857 228.332487 
L 232.076857 217.703525 
L 225.309018 217.703525 
z
" clip-path="url(#p18a55ac7db)" style="fill: #1f8a56; stroke: #1f8a56; stroke-linejoin: miter"/>
   </g>
   <g id="patch_23">
    <path d="M 237.614181 214.0921 
L 244.382021 214.0921 
L 244.382021 205.096868 
L 237.614181 205.096868 
z
" clip-path="url(#p18a55ac7db)" style="fill: #1f8a56; stroke: #1f8a56; stroke-linejoin: miter"/>
   </g>
   <g id="patch_24">
    <path d="M 249.919344 211.305593 
L 256.687184 211.305593 
L 256.687184 205.062096 
L 249.919344 205.062096 
z
" clip-path="url(#p18a55ac7db)" style="fill: #b91c1c; stroke: #b91c1c; stroke-linejoin: miter"/>
   </g>
   <g id="patch_25">
    <path d="M 262.224507 210.148488 
L 268.992347 210.148488 
L 268.992347 198.873414 
L 262.224507 198.873414 
z
" clip-path="url(#p18a55ac7db)" style="fill: #1f8a56; stroke: #1f8a56; stroke-linejoin: miter"/>
   </g>
   <g id="patch_26">
    <path d="M 274.52967 197.473972 
L 281.29751 197.473972 
L 281.29751 191.230475 
L 274.52967 191.230475 
z
" clip-path="url(#p18a55ac7db)" style="fill: #1f8a56; stroke: #1f8a56; stroke-linejoin: miter"/>
   </g>
   <g id="patch_27">
    <path d="M 286.834834 193.141579 
L 293.602673 193.141579 
L 293.602673 184.392764 
L 286.834834 184.392764 
z
" clip-path="url(#p18a55ac7db)" style="fill: #1f8a56; stroke: #1f8a56; stroke-linejoin: miter"/>
   </g>
   <g id="patch_28">
    <path d="M 299.139997 185.479009 
L 305.907837 185.479009 
L 305.907837 177.161202 
L 299.139997 177.161202 
z
" clip-path="url(#p18a55ac7db)" style="fill: #1f8a56; stroke: #1f8a56; stroke-linejoin: miter"/>
   </g>
   <g id="patch_29">
    <path d="M 311.44516 175.872217 
L 318.213 175.872217 
L 318.213 169.62872 
L 311.44516 169.62872 
z
" clip-path="url(#p18a55ac7db)" style="fill: #1f8a56; stroke: #1f8a56; stroke-linejoin: miter"/>
   </g>
   <g id="patch_30">
    <path d="M 323.750323 173.993574 
L 330.518163 173.993574 
L 330.518163 160.800155 
L 323.750323 160.800155 
z
" clip-path="url(#p18a55ac7db)" style="fill: #1f8a56; stroke: #1f8a56; stroke-linejoin: miter"/>
   </g>
   <g id="patch_31">
    <path d="M 336.055486 160.434762 
L 342.823326 160.434762 
L 342.823326 154.191265 
L 336.055486 154.191265 
z
" clip-path="url(#p18a55ac7db)" style="fill: #1f8a56; stroke: #1f8a56; stroke-linejoin: miter"/>
   </g>
   <g id="patch_32">
    <path d="M 348.36065 162.862573 
L 355.128489 162.862573 
L 355.128489 156.619077 
L 348.36065 156.619077 
z
" clip-path="url(#p18a55ac7db)" style="fill: #b91c1c; stroke: #b91c1c; stroke-linejoin: miter"/>
   </g>
   <g id="patch_33">
    <path d="M 360.665813 169.235562 
L 367.433653 169.235562 
L 367.433653 160.295013 
L 360.665813 160.295013 
z
" clip-path="url(#p18a55ac7db)" style="fill: #b91c1c; stroke: #b91c1c; stroke-linejoin: miter"/>
   </g>
   <g id="patch_34">
    <path d="M 372.970976 170.232014 
L 379.738816 170.232014 
L 379.738816 163.988517 
L 372.970976 163.988517 
z
" clip-path="url(#p18a55ac7db)" style="fill: #1f8a56; stroke: #1f8a56; stroke-linejoin: miter"/>
   </g>
   <g id="patch_35">
    <path d="M 385.276139 173.052184 
L 392.043979 173.052184 
L 392.043979 166.808688 
L 385.276139 166.808688 
z
" clip-path="url(#p18a55ac7db)" style="fill: #b91c1c; stroke: #b91c1c; stroke-linejoin: miter"/>
   </g>
   <g id="patch_36">
    <path d="M 397.581302 175.21511 
L 404.349142 175.21511 
L 404.349142 168.971614 
L 397.581302 168.971614 
z
" clip-path="url(#p18a55ac7db)" style="fill: #1f8a56; stroke: #1f8a56; stroke-linejoin: miter"/>
   </g>
   <g id="patch_37">
    <path d="M 409.886466 180.922787 
L 416.654305 180.922787 
L 416.654305 171.869755 
L 409.886466 171.869755 
z
" clip-path="url(#p18a55ac7db)" style="fill: #b91c1c; stroke: #b91c1c; stroke-linejoin: miter"/>
   </g>
   <g id="patch_38">
    <path d="M 422.191629 188.797322 
L 428.959468 188.797322 
L 428.959468 182.553825 
L 422.191629 182.553825 
z
" clip-path="url(#p18a55ac7db)" style="fill: #b91c1c; stroke: #b91c1c; stroke-linejoin: miter"/>
   </g>
   <g id="patch_39">
    <path d="M 434.496792 189.260094 
L 441.264632 189.260094 
L 441.264632 169.989344 
L 434.496792 169.989344 
z
" clip-path="url(#p18a55ac7db)" style="fill: #1f8a56; stroke: #1f8a56; stroke-linejoin: miter"/>
   </g>
   <g id="patch_40">
    <path d="M 446.801955 168.006049 
L 453.569795 168.006049 
L 453.569795 147.157764 
L 446.801955 147.157764 
z
" clip-path="url(#p18a55ac7db)" style="fill: #1f8a56; stroke: #1f8a56; stroke-linejoin: miter"/>
   </g>
   <g id="patch_41">
    <path d="M 459.107118 146.914622 
L 465.874958 146.914622 
L 465.874958 138.122378 
L 459.107118 138.122378 
z
" clip-path="url(#p18a55ac7db)" style="fill: #1f8a56; stroke: #1f8a56; stroke-linejoin: miter"/>
   </g>
   <g id="patch_42">
    <path d="M 471.412282 137.06067 
L 478.180121 137.06067 
L 478.180121 126.946525 
L 471.412282 126.946525 
z
" clip-path="url(#p18a55ac7db)" style="fill: #1f8a56; stroke: #1f8a56; stroke-linejoin: miter"/>
   </g>
   <g id="patch_43">
    <path d="M 483.717445 125.887532 
L 490.485284 125.887532 
L 490.485284 107.6327 
L 483.717445 107.6327 
z
" clip-path="url(#p18a55ac7db)" style="fill: #1f8a56; stroke: #1f8a56; stroke-linejoin: miter"/>
   </g>
   <g id="patch_44">
    <path d="M 496.022608 107.452176 
L 502.790448 107.452176 
L 502.790448 95.307289 
L 496.022608 95.307289 
z
" clip-path="url(#p18a55ac7db)" style="fill: #1f8a56; stroke: #1f8a56; stroke-linejoin: miter"/>
   </g>
   <g id="patch_45">
    <path d="M 508.327771 90.743087 
L 515.095611 90.743087 
L 515.095611 84.499591 
L 508.327771 84.499591 
z
" clip-path="url(#p18a55ac7db)" style="fill: #1f8a56; stroke: #1f8a56; stroke-linejoin: miter"/>
   </g>
   <g id="patch_46">
    <path d="M 520.632934 85.145376 
L 527.400774 85.145376 
L 527.400774 77.085167 
L 520.632934 77.085167 
z
" clip-path="url(#p18a55ac7db)" style="fill: #1f8a56; stroke: #1f8a56; stroke-linejoin: miter"/>
   </g>
   <g id="patch_47">
    <path d="M 532.938097 80.569772 
L 539.705937 80.569772 
L 539.705937 70.473777 
L 532.938097 70.473777 
z
" clip-path="url(#p18a55ac7db)" style="fill: #1f8a56; stroke: #1f8a56; stroke-linejoin: miter"/>
   </g>
   <g id="patch_48">
    <path d="M 545.243261 73.911337 
L 552.0111 73.911337 
L 552.0111 64.004564 
L 545.243261 64.004564 
z
" clip-path="url(#p18a55ac7db)" style="fill: #1f8a56; stroke: #1f8a56; stroke-linejoin: miter"/>
   </g>
   <g id="patch_49">
    <path d="M 180.73104 269.099574 
Q 204.08407 240.16796 225.892187 213.150307 
" clip-path="url(#p18a55ac7db)" style="fill: none; stroke: #1f2937; stroke-width: 2.2; stroke-linecap: round"/>
    <path d="M 219.382338 216.12047 
L 225.892187 213.150307 
L 224.362408 220.140284 
z
" clip-path="url(#p18a55ac7db)" style="fill: #1f2937; stroke: #1f2937; stroke-width: 2.2; stroke-linecap: round"/>
   </g>
   <g id="line2d_62">
    <path d="M 388.660059 213.923548 
" clip-path="url(#p18a55ac7db)" style="fill: none; stroke: #1f8a56; stroke-width: 1.5; stroke-linecap: square"/>
    <defs>
     <path id="mb9aa4d8be7" d="M -0 3.5 
L 3.5 -3.5 
L -3.5 -3.5 
z
" style="stroke: #1f8a56; stroke-linejoin: miter"/>
    </defs>
    <g clip-path="url(#p18a55ac7db)">
     <use xlink:href="#mb9aa4d8be7" x="388.660059" y="213.923548" style="fill: #1f8a56; stroke: #1f8a56; stroke-linejoin: miter"/>
    </g>
   </g>
  </g>
 </g>
 <defs>
  <clipPath id="p18a55ac7db">
   <rect x="7.2" y="25.0815" width="553.732344" height="283.0385"/>
  </clipPath>
 </defs>
</svg>
