<?xml version="1.0" encoding="utf-8" standalone="no"?>
<!DOCTYPE svg PUBLIC "-//W3C//DTD SVG 1.1//EN"
  "http://www.w3.org/Graphics/SVG/1.1/DTD/svg11.dtd">
<svg xmlns:xlink="http://www.w3.org/1999/xlink" width="628.35pt" height="556.35pt" viewBox="0 0 628.35 556.35" xmlns="http://www.w3.org/2000/svg" version="1.1">
 <metadata>
  <rdf:RDF xmlns:dc="http://purl.org/dc/elements/1.1/" xmlns:cc="http://creativecommons.org/ns#" xmlns:rdf="http://www.w3.org/1999/02/22-rdf-syntax-ns#">
   <cc:Work>
    <dc:type rdf:resource="http://purl.org/dc/dcmitype/StillImage"/>
    <dc:date>2026-07-18T20:17:17.530955</dc:date>
    <dc:format>image/svg+xml</dc:format>
    <dc:creator>
     <cc:Agent>
      <dc:title>Matplotlib v3.11.1, https://matplotlib.org/</dc:title>
     </cc:Agent>
    </dc:creator>
   </cc:Work>
  </rdf:RDF>
 </metadata>
 <defs>
  <style type="text/css">*{stroke-linejoin: round; stroke-linecap: butt}</style>
 </defs>
 <g id="figure_1">
  <g id="patch_1">
   <path d="M 0 556.35 
L 628.35 556.35 
L 628.35 0 
L 0 0 
z
" style="fill: #ffffff"/>
  </g>
  <g id="axes_1">
   <g id="patch_2">
    <path d="M 48.742695 258.596851 
L 621.15 258.596851 
L 621.15 7.2 
L 48.742695 7.2 
z
" style="fill: #ffffff"/>
   </g>
   <g id="matplotlib.axis_1"/>
   <g id="matplotlib.axis_2">
    <g id="ytick_1">
     <g id="line2d_1">
      <path d="M 48.742695 221.860992 
L 621.15 221.860992 
" clip-path="url(#pb9608250c3)" style="fill: none; stroke: #e6e1d6; stroke-width: 0.8; stroke-linecap: square"/>
     </g>
     <g id="line2d_2">
      <defs>
       <path id="m1f6f2e62c7" d="M 0 0 
L -3.5 0 
" style="stroke: #555555; stroke-width: 0.8"/>
      </defs>
      <g>
       <use xlink:href="#m1f6f2e62c7" x="48.742695" y="221.860992" style="fill: #555555; stroke: #555555; stroke-width: 0.8"/>
      </g>
     </g>
     <g id="text_1">
      <!-- 100 -->
      <g style="fill: #555555" transform="translate(21.70082 225.849762) scale(0.105 -0.105)">
       <defs>
        <path id="DejaVuSans-14" d="M 794 531 
L 1825 531 
L 1825 4091 
L 703 3866 
L 703 4441 
L 1819 4666 
L 2450 4666 
L 2450 531 
L 3481 531 
L 3481 0 
L 794 0 
L 794 531 
z
" transform="scale(0.015625)"/>
        <path id="DejaVuSans-13" d="M 2034 4250 
Q 1547 4250 1301 3770 
Q 1056 3291 1056 2328 
Q 1056 1369 1301 889 
Q 1547 409 2034 409 
Q 2525 409 2770 889 
Q 3016 1369 3016 2328 
Q 3016 3291 2770 3770 
Q 2525 4250 2034 4250 
z
M 2034 4750 
Q 2819 4750 3233 4129 
Q 3647 3509 3647 2328 
Q 3647 1150 3233 529 
Q 2819 -91 2034 -91 
Q 1250 -91 836 529 
Q 422 1150 422 2328 
Q 422 3509 836 4129 
Q 1250 4750 2034 4750 
z
" transform="scale(0.015625)"/>
       </defs>
       <use xlink:href="#DejaVuSans-14"/>
       <use xlink:href="#DejaVuSans-13" transform="translate(63.625 0)"/>
       <use xlink:href="#DejaVuSans-13" transform="translate(127.25 0)"/>
      </g>
     </g>
    </g>
    <g id="ytick_2">
     <g id="line2d_3">
      <path d="M 48.742695 169.25633 
L 621.15 169.25633 
" clip-path="url(#pb9608250c3)" style="fill: none; stroke: #e6e1d6; stroke-width: 0.8; stroke-linecap: square"/>
     </g>
     <g id="line2d_4">
      <g>
       <use xlink:href="#m1f6f2e62c7" x="48.742695" y="169.25633" style="fill: #555555; stroke: #555555; stroke-width: 0.8"/>
      </g>
     </g>
     <g id="text_2">
      <!-- 102 -->
      <g style="fill: #555555" transform="translate(21.70082 173.245099) scale(0.105 -0.105)">
       <defs>
        <path id="DejaVuSans-15" d="M 1228 531 
L 3431 531 
L 3431 0 
L 469 0 
L 469 531 
Q 828 903 1448 1529 
Q 2069 2156 2228 2338 
Q 2531 2678 2651 2914 
Q 2772 3150 2772 3378 
Q 2772 3750 2511 3984 
Q 2250 4219 1831 4219 
Q 1534 4219 1204 4116 
Q 875 4013 500 3803 
L 500 4441 
Q 881 4594 1212 4672 
Q 1544 4750 1819 4750 
Q 2544 4750 2975 4387 
Q 3406 4025 3406 3419 
Q 3406 3131 3298 2873 
Q 3191 2616 2906 2266 
Q 2828 2175 2409 1742 
Q 1991 1309 1228 531 
z
" transform="scale(0.015625)"/>
       </defs>
       <use xlink:href="#DejaVuSans-14"/>
       <use xlink:href="#DejaVuSans-13" transform="translate(63.625 0)"/>
       <use xlink:href="#DejaVuSans-15" transform="translate(127.25 0)"/>
      </g>
     </g>
    </g>
    <g id="ytick_3">
     <g id="line2d_5">
      <path d="M 48.742695 116.651667 
L 621.15 116.651667 
" clip-path="url(#pb9608250c3)" style="fill: none; stroke: #e6e1d6; stroke-width: 0.8; stroke-linecap: square"/>
     </g>
     <g id="line2d_6">
      <g>
       <use xlink:href="#m1f6f2e62c7" x="48.742695" y="116.651667" style="fill: #555555; stroke: #555555; stroke-width: 0.8"/>
      </g>
     </g>
     <g id="text_3">
      <!-- 104 -->
      <g style="fill: #555555" transform="translate(21.70082 120.640437) scale(0.105 -0.105)">
       <defs>
        <path id="DejaVuSans-17" d="M 2419 4116 
L 825 1625 
L 2419 1625 
L 2419 4116 
z
M 2253 4666 
L 3047 4666 
L 3047 1625 
L 3713 1625 
L 3713 1100 
L 3047 1100 
L 3047 0 
L 2419 0 
L 2419 1100 
L 313 1100 
L 313 1709 
L 2253 4666 
z
" transform="scale(0.015625)"/>
       </defs>
       <use xlink:href="#DejaVuSans-14"/>
       <use xlink:href="#DejaVuSans-13" transform="translate(63.625 0)"/>
       <use xlink:href="#DejaVuSans-17" transform="translate(127.25 0)"/>
      </g>
     </g>
    </g>
    <g id="ytick_4">
     <g id="line2d_7">
      <path d="M 48.742695 64.047005 
L 621.15 64.047005 
" clip-path="url(#pb9608250c3)" style="fill: none; stroke: #e6e1d6; stroke-width: 0.8; stroke-linecap: square"/>
     </g>
     <g id="line2d_8">
      <g>
       <use xlink:href="#m1f6f2e62c7" x="48.742695" y="64.047005" style="fill: #555555; stroke: #555555; stroke-width: 0.8"/>
      </g>
     </g>
     <g id="text_4">
      <!-- 106 -->
      <g style="fill: #555555" transform="translate(21.70082 68.035774) scale(0.105 -0.105)">
       <defs>
        <path id="DejaVuSans-19" d="M 2113 2584 
Q 1688 2584 1439 2293 
Q 1191 2003 1191 1497 
Q 1191 994 1439 701 
Q 1688 409 2113 409 
Q 2538 409 2786 701 
Q 3034 994 3034 1497 
Q 3034 2003 2786 2293 
Q 2538 2584 2113 2584 
z
M 3366 4563 
L 3366 3988 
Q 3128 4100 2886 4159 
Q 2644 4219 2406 4219 
Q 1781 4219 1451 3797 
Q 1122 3375 1075 2522 
Q 1259 2794 1537 2939 
Q 1816 3084 2150 3084 
Q 2853 3084 3261 2657 
Q 3669 2231 3669 1497 
Q 3669 778 3244 343 
Q 2819 -91 2113 -91 
Q 1303 -91 875 529 
Q 447 1150 447 2328 
Q 447 3434 972 4092 
Q 1497 4750 2381 4750 
Q 2619 4750 2861 4703 
Q 3103 4656 3366 4563 
z
" transform="scale(0.015625)"/>
       </defs>
       <use xlink:href="#DejaVuSans-14"/>
       <use xlink:href="#DejaVuSans-13" transform="translate(63.625 0)"/>
       <use xlink:href="#DejaVuSans-19" transform="translate(127.25 0)"/>
      </g>
     </g>
    </g>
    <g id="ytick_5">
     <g id="line2d_9">
      <path d="M 48.742695 11.442342 
L 621.15 11.442342 
" clip-path="url(#pb9608250c3)" style="fill: none; stroke: #e6e1d6; stroke-width: 0.8; stroke-linecap: square"/>
     </g>
     <g id="line2d_10">
      <g>
       <use xlink:href="#m1f6f2e62c7" x="48.742695" y="11.442342" style="fill: #555555; stroke: #555555; stroke-width: 0.8"/>
      </g>
     </g>
     <g id="text_5">
      <!-- 108 -->
      <g style="fill: #555555" transform="translate(21.70082 15.431112) scale(0.105 -0.105)">
       <defs>
        <path id="DejaVuSans-1b" d="M 2034 2216 
Q 1584 2216 1326 1975 
Q 1069 1734 1069 1313 
Q 1069 891 1326 650 
Q 1584 409 2034 409 
Q 2484 409 2743 651 
Q 3003 894 3003 1313 
Q 3003 1734 2745 1975 
Q 2488 2216 2034 2216 
z
M 1403 2484 
Q 997 2584 770 2862 
Q 544 3141 544 3541 
Q 544 4100 942 4425 
Q 1341 4750 2034 4750 
Q 2731 4750 3128 4425 
Q 3525 4100 3525 3541 
Q 3525 3141 3298 2862 
Q 3072 2584 2669 2484 
Q 3125 2378 3379 2068 
Q 3634 1759 3634 1313 
Q 3634 634 3220 271 
Q 2806 -91 2034 -91 
Q 1263 -91 848 271 
Q 434 634 434 1313 
Q 434 1759 690 2068 
Q 947 2378 1403 2484 
z
M 1172 3481 
Q 1172 3119 1398 2916 
Q 1625 2713 2034 2713 
Q 2441 2713 2670 2916 
Q 2900 3119 2900 3481 
Q 2900 3844 2670 4047 
Q 2441 4250 2034 4250 
Q 1625 4250 1398 4047 
Q 1172 3844 1172 3481 
z
" transform="scale(0.015625)"/>
       </defs>
       <use xlink:href="#DejaVuSans-14"/>
       <use xlink:href="#DejaVuSans-13" transform="translate(63.625 0)"/>
       <use xlink:href="#DejaVuSans-1b" transform="translate(127.25 0)"/>
      </g>
     </g>
    </g>
    <g id="text_6">
     <!-- Price -->
     <g style="fill: #1f2937" transform="translate(15.178359 145.705965) rotate(-90) scale(0.105 -0.105)">
      <defs>
       <path id="DejaVuSans-33" d="M 1259 4147 
L 1259 2394 
L 2053 2394 
Q 2494 2394 2734 2622 
Q 2975 2850 2975 3272 
Q 2975 3691 2734 3919 
Q 2494 4147 2053 4147 
L 1259 4147 
z
M 628 4666 
L 2053 4666 
Q 2838 4666 3239 4311 
Q 3641 3956 3641 3272 
Q 3641 2581 3239 2228 
Q 2838 1875 2053 1875 
L 1259 1875 
L 1259 0 
L 628 0 
L 628 4666 
z
" transform="scale(0.015625)"/>
       <path id="DejaVuSans-55" d="M 2631 2963 
Q 2534 3019 2420 3045 
Q 2306 3072 2169 3072 
Q 1681 3072 1420 2755 
Q 1159 2438 1159 1844 
L 1159 0 
L 581 0 
L 581 3500 
L 1159 3500 
L 1159 2956 
Q 1341 3275 1631 3429 
Q 1922 3584 2338 3584 
Q 2397 3584 2469 3576 
Q 2541 3569 2628 3553 
L 2631 2963 
z
" transform="scale(0.015625)"/>
       <path id="DejaVuSans-4c" d="M 603 3500 
L 1178 3500 
L 1178 0 
L 603 0 
L 603 3500 
z
M 603 4863 
L 1178 4863 
L 1178 4134 
L 603 4134 
L 603 4863 
z
" transform="scale(0.015625)"/>
       <path id="DejaVuSans-46" d="M 3122 3366 
L 3122 2828 
Q 2878 2963 2633 3030 
Q 2388 3097 2138 3097 
Q 1578 3097 1268 2742 
Q 959 2388 959 1747 
Q 959 1106 1268 751 
Q 1578 397 2138 397 
Q 2388 397 2633 464 
Q 2878 531 3122 666 
L 3122 134 
Q 2881 22 2623 -34 
Q 2366 -91 2075 -91 
Q 1284 -91 818 406 
Q 353 903 353 1747 
Q 353 2603 823 3093 
Q 1294 3584 2113 3584 
Q 2378 3584 2631 3529 
Q 2884 3475 3122 3366 
z
" transform="scale(0.015625)"/>
       <path id="DejaVuSans-48" d="M 3597 1894 
L 3597 1613 
L 953 1613 
Q 991 1019 1311 708 
Q 1631 397 2203 397 
Q 2534 397 2845 478 
Q 3156 559 3463 722 
L 3463 178 
Q 3153 47 2828 -22 
Q 2503 -91 2169 -91 
Q 1331 -91 842 396 
Q 353 884 353 1716 
Q 353 2575 817 3079 
Q 1281 3584 2069 3584 
Q 2775 3584 3186 3129 
Q 3597 2675 3597 1894 
z
M 3022 2063 
Q 3016 2534 2758 2815 
Q 2500 3097 2075 3097 
Q 1594 3097 1305 2825 
Q 1016 2553 972 2059 
L 3022 2063 
z
" transform="scale(0.015625)"/>
      </defs>
      <use xlink:href="#DejaVuSans-33"/>
      <use xlink:href="#DejaVuSans-55" transform="translate(58.546875 0)"/>
      <use xlink:href="#DejaVuSans-4c" transform="translate(99.65625 0)"/>
      <use xlink:href="#DejaVuSans-46" transform="translate(127.4375 0)"/>
      <use xlink:href="#DejaVuSans-48" transform="translate(182.421875 0)"/>
     </g>
    </g>
   </g>
   <g id="patch_3">
    <path d="M 48.742695 258.596851 
L 48.742695 7.2 
" style="fill: none; stroke: #1f2937; stroke-width: 0.8; stroke-linejoin: miter; stroke-linecap: square"/>
   </g>
   <g id="patch_4">
    <path d="M 48.742695 258.596851 
L 621.15 258.596851 
" style="fill: none; stroke: #1f2937; stroke-width: 0.8; stroke-linejoin: miter; stroke-linecap: square"/>
   </g>
   <g id="line2d_11">
    <path d="M 62.703849 230.037269 
L 62.703849 225.417229 
" clip-path="url(#pb9608250c3)" style="fill: none; stroke: #b91c1c; stroke-width: 1.1; stroke-linecap: round"/>
   </g>
   <g id="line2d_12">
    <path d="M 76.665003 243.884247 
L 76.665003 234.864762 
" clip-path="url(#pb9608250c3)" style="fill: none; stroke: #b91c1c; stroke-width: 1.1; stroke-linecap: round"/>
   </g>
   <g id="line2d_13">
    <path d="M 90.626157 247.169721 
L 90.626157 187.454586 
" clip-path="url(#pb9608250c3)" style="fill: none; stroke: #1f8a56; stroke-width: 1.1; stroke-linecap: round"/>
   </g>
   <g id="line2d_14">
    <path d="M 104.58731 224.44493 
L 104.58731 190.262968 
" clip-path="url(#pb9608250c3)" style="fill: none; stroke: #b91c1c; stroke-width: 1.1; stroke-linecap: round"/>
   </g>
   <g id="line2d_15">
    <path d="M 118.548464 235.47872 
L 118.548464 208.330291 
" clip-path="url(#pb9608250c3)" style="fill: none; stroke: #1f8a56; stroke-width: 1.1; stroke-linecap: round"/>
   </g>
   <g id="line2d_16">
    <path d="M 132.509618 206.976419 
L 132.509618 184.456329 
" clip-path="url(#pb9608250c3)" style="fill: none; stroke: #1f8a56; stroke-width: 1.1; stroke-linecap: round"/>
   </g>
   <g id="line2d_17">
    <path d="M 146.470772 197.197786 
L 146.470772 176.202441 
" clip-path="url(#pb9608250c3)" style="fill: none; stroke: #1f8a56; stroke-width: 1.1; stroke-linecap: round"/>
   </g>
   <g id="line2d_18">
    <path d="M 160.431925 186.288517 
L 160.431925 171.456516 
" clip-path="url(#pb9608250c3)" style="fill: none; stroke: #b91c1c; stroke-width: 1.1; stroke-linecap: round"/>
   </g>
   <g id="line2d_19">
    <path d="M 174.393079 196.668372 
L 174.393079 178.604427 
" clip-path="url(#pb9608250c3)" style="fill: none; stroke: #b91c1c; stroke-width: 1.1; stroke-linecap: round"/>
   </g>
   <g id="line2d_20">
    <path d="M 188.354233 195.502342 
L 188.354233 170.467307 
" clip-path="url(#pb9608250c3)" style="fill: none; stroke: #1f8a56; stroke-width: 1.1; stroke-linecap: round"/>
   </g>
   <g id="line2d_21">
    <path d="M 202.315387 196.549306 
L 202.315387 177.111731 
" clip-path="url(#pb9608250c3)" style="fill: none; stroke: #b91c1c; stroke-width: 1.1; stroke-linecap: round"/>
   </g>
   <g id="line2d_22">
    <path d="M 216.276541 197.333072 
L 216.276541 172.099503 
" clip-path="url(#pb9608250c3)" style="fill: none; stroke: #1f8a56; stroke-width: 1.1; stroke-linecap: round"/>
   </g>
   <g id="line2d_23">
    <path d="M 230.237694 181.898201 
L 230.237694 172.611039 
" clip-path="url(#pb9608250c3)" style="fill: none; stroke: #1f8a56; stroke-width: 1.1; stroke-linecap: round"/>
   </g>
   <g id="line2d_24">
    <path d="M 244.198848 176.781239 
L 244.198848 148.801578 
" clip-path="url(#pb9608250c3)" style="fill: none; stroke: #1f8a56; stroke-width: 1.1; stroke-linecap: round"/>
   </g>
   <g id="line2d_25">
    <path d="M 258.160002 165.848414 
L 258.160002 147.390894 
" clip-path="url(#pb9608250c3)" style="fill: none; stroke: #b91c1c; stroke-width: 1.1; stroke-linecap: round"/>
   </g>
   <g id="line2d_26">
    <path d="M 272.121156 170.767422 
L 272.121156 159.898105 
" clip-path="url(#pb9608250c3)" style="fill: none; stroke: #1f8a56; stroke-width: 1.1; stroke-linecap: round"/>
   </g>
   <g id="line2d_27">
    <path d="M 286.082309 174.3447 
L 286.082309 165.926279 
" clip-path="url(#pb9608250c3)" style="fill: none; stroke: #1f8a56; stroke-width: 1.1; stroke-linecap: round"/>
   </g>
   <g id="line2d_28">
    <path d="M 300.043463 177.993466 
L 300.043463 156.577941 
" clip-path="url(#pb9608250c3)" style="fill: none; stroke: #1f8a56; stroke-width: 1.1; stroke-linecap: round"/>
   </g>
   <g id="line2d_29">
    <path d="M 314.004617 160.871989 
L 314.004617 123.174788 
" clip-path="url(#pb9608250c3)" style="fill: none; stroke: #1f8a56; stroke-width: 1.1; stroke-linecap: round"/>
   </g>
   <g id="line2d_30">
    <path d="M 327.965771 147.663344 
L 327.965771 120.284902 
" clip-path="url(#pb9608250c3)" style="fill: none; stroke: #b91c1c; stroke-width: 1.1; stroke-linecap: round"/>
   </g>
   <g id="line2d_31">
    <path d="M 341.926925 144.002561 
L 341.926925 127.541673 
" clip-path="url(#pb9608250c3)" style="fill: none; stroke: #1f8a56; stroke-width: 1.1; stroke-linecap: round"/>
   </g>
   <g id="line2d_32">
    <path d="M 355.888078 123.476343 
L 355.888078 116.757732 
" clip-path="url(#pb9608250c3)" style="fill: none; stroke: #b91c1c; stroke-width: 1.1; stroke-linecap: round"/>
   </g>
   <g id="line2d_33">
    <path d="M 369.849232 133.389058 
L 369.849232 116.106982 
" clip-path="url(#pb9608250c3)" style="fill: none; stroke: #b91c1c; stroke-width: 1.1; stroke-linecap: round"/>
   </g>
   <g id="line2d_34">
    <path d="M 383.810386 135.897477 
L 383.810386 123.905237 
" clip-path="url(#pb9608250c3)" style="fill: none; stroke: #1f8a56; stroke-width: 1.1; stroke-linecap: round"/>
   </g>
   <g id="line2d_35">
    <path d="M 397.77154 134.259798 
L 397.77154 124.481816 
" clip-path="url(#pb9608250c3)" style="fill: none; stroke: #b91c1c; stroke-width: 1.1; stroke-linecap: round"/>
   </g>
   <g id="line2d_36">
    <path d="M 411.732693 144.860253 
L 411.732693 134.544954 
" clip-path="url(#pb9608250c3)" style="fill: none; stroke: #b91c1c; stroke-width: 1.1; stroke-linecap: round"/>
   </g>
   <g id="line2d_37">
    <path d="M 425.693847 144.005403 
L 425.693847 111.839676 
" clip-path="url(#pb9608250c3)" style="fill: none; stroke: #1f8a56; stroke-width: 1.1; stroke-linecap: round"/>
   </g>
   <g id="line2d_38">
    <path d="M 439.655001 126.839271 
L 439.655001 106.164636 
" clip-path="url(#pb9608250c3)" style="fill: none; stroke: #b91c1c; stroke-width: 1.1; stroke-linecap: round"/>
   </g>
   <g id="line2d_39">
    <path d="M 453.616155 117.23601 
L 453.616155 105.782786 
" clip-path="url(#pb9608250c3)" style="fill: none; stroke: #1f8a56; stroke-width: 1.1; stroke-linecap: round"/>
   </g>
   <g id="line2d_40">
    <path d="M 467.577308 115.804918 
L 467.577308 95.677807 
" clip-path="url(#pb9608250c3)" style="fill: none; stroke: #1f8a56; stroke-width: 1.1; stroke-linecap: round"/>
   </g>
   <g id="line2d_41">
    <path d="M 481.538462 103.054267 
L 481.538462 98.558407 
" clip-path="url(#pb9608250c3)" style="fill: none; stroke: #b91c1c; stroke-width: 1.1; stroke-linecap: round"/>
   </g>
   <g id="line2d_42">
    <path d="M 495.499616 111.083399 
L 495.499616 95.989937 
" clip-path="url(#pb9608250c3)" style="fill: none; stroke: #1f8a56; stroke-width: 1.1; stroke-linecap: round"/>
   </g>
   <g id="line2d_43">
    <path d="M 509.46077 99.540694 
L 509.46077 59.212638 
" clip-path="url(#pb9608250c3)" style="fill: none; stroke: #1f8a56; stroke-width: 1.1; stroke-linecap: round"/>
   </g>
   <g id="line2d_44">
    <path d="M 523.421924 112.11167 
L 523.421924 58.563809 
" clip-path="url(#pb9608250c3)" style="fill: none; stroke: #b91c1c; stroke-width: 1.1; stroke-linecap: round"/>
   </g>
   <g id="line2d_45">
    <path d="M 537.383077 109.915243 
L 537.383077 68.125369 
" clip-path="url(#pb9608250c3)" style="fill: none; stroke: #1f8a56; stroke-width: 1.1; stroke-linecap: round"/>
   </g>
   <g id="line2d_46">
    <path d="M 551.344231 80.169114 
L 551.344231 62.836366 
" clip-path="url(#pb9608250c3)" style="fill: none; stroke: #b91c1c; stroke-width: 1.1; stroke-linecap: round"/>
   </g>
   <g id="line2d_47">
    <path d="M 565.305385 78.096459 
L 565.305385 55.949805 
" clip-path="url(#pb9608250c3)" style="fill: none; stroke: #1f8a56; stroke-width: 1.1; stroke-linecap: round"/>
   </g>
   <g id="line2d_48">
    <path d="M 579.266539 56.081112 
L 579.266539 48.743567 
" clip-path="url(#pb9608250c3)" style="fill: none; stroke: #1f8a56; stroke-width: 1.1; stroke-linecap: round"/>
   </g>
   <g id="line2d_49">
    <path d="M 593.227692 53.874298 
L 593.227692 21.94231 
" clip-path="url(#pb9608250c3)" style="fill: none; stroke: #1f8a56; stroke-width: 1.1; stroke-linecap: round"/>
   </g>
   <g id="line2d_50">
    <path d="M 607.188846 31.008316 
L 607.188846 18.62713 
" clip-path="url(#pb9608250c3)" style="fill: none; stroke: #1f8a56; stroke-width: 1.1; stroke-linecap: round"/>
   </g>
   <g id="patch_5">
    <path d="M 58.515503 228.353877 
L 66.892195 228.353877 
L 66.892195 221.497598 
L 58.515503 221.497598 
z
" clip-path="url(#pb9608250c3)" style="fill: #b91c1c; stroke: #b91c1c; stroke-linejoin: miter"/>
   </g>
   <g id="patch_6">
    <path d="M 72.476657 238.225923 
L 80.853349 238.225923 
L 80.853349 231.369644 
L 72.476657 231.369644 
z
" clip-path="url(#pb9608250c3)" style="fill: #b91c1c; stroke: #b91c1c; stroke-linejoin: miter"/>
   </g>
   <g id="patch_7">
    <path d="M 86.43781 238.973491 
L 94.814503 238.973491 
L 94.814503 192.847005 
L 86.43781 192.847005 
z
" clip-path="url(#pb9608250c3)" style="fill: #1f8a56; stroke: #1f8a56; stroke-linejoin: miter"/>
   </g>
   <g id="patch_8">
    <path d="M 100.398964 222.648228 
L 108.775657 222.648228 
L 108.775657 193.82223 
L 100.398964 193.82223 
z
" clip-path="url(#pb9608250c3)" style="fill: #b91c1c; stroke: #b91c1c; stroke-linejoin: miter"/>
   </g>
   <g id="patch_9">
    <path d="M 114.360118 232.126659 
L 122.73681 232.126659 
L 122.73681 209.634935 
L 114.360118 209.634935 
z
" clip-path="url(#pb9608250c3)" style="fill: #1f8a56; stroke: #1f8a56; stroke-linejoin: miter"/>
   </g>
   <g id="patch_10">
    <path d="M 128.321272 204.644781 
L 136.697964 204.644781 
L 136.697964 192.364476 
L 128.321272 192.364476 
z
" clip-path="url(#pb9608250c3)" style="fill: #1f8a56; stroke: #1f8a56; stroke-linejoin: miter"/>
   </g>
   <g id="patch_11">
    <path d="M 142.282426 196.050608 
L 150.659118 196.050608 
L 150.659118 181.470652 
L 142.282426 181.470652 
z
" clip-path="url(#pb9608250c3)" style="fill: #1f8a56; stroke: #1f8a56; stroke-linejoin: miter"/>
   </g>
   <g id="patch_12">
    <path d="M 156.243579 185.345569 
L 164.620272 185.345569 
L 164.620272 177.514854 
L 156.243579 177.514854 
z
" clip-path="url(#pb9608250c3)" style="fill: #b91c1c; stroke: #b91c1c; stroke-linejoin: miter"/>
   </g>
   <g id="patch_13">
    <path d="M 170.204733 196.556004 
L 178.581425 196.556004 
L 178.581425 180.573538 
L 170.204733 180.573538 
z
" clip-path="url(#pb9608250c3)" style="fill: #b91c1c; stroke: #b91c1c; stroke-linejoin: miter"/>
   </g>
   <g id="patch_14">
    <path d="M 184.165887 193.013667 
L 192.542579 193.013667 
L 192.542579 175.051744 
L 184.165887 175.051744 
z
" clip-path="url(#pb9608250c3)" style="fill: #1f8a56; stroke: #1f8a56; stroke-linejoin: miter"/>
   </g>
   <g id="patch_15">
    <path d="M 198.127041 193.779796 
L 206.503733 193.779796 
L 206.503733 177.522225 
L 198.127041 177.522225 
z
" clip-path="url(#pb9608250c3)" style="fill: #b91c1c; stroke: #b91c1c; stroke-linejoin: miter"/>
   </g>
   <g id="patch_16">
    <path d="M 212.088194 194.908476 
L 220.464887 194.908476 
L 220.464887 177.844845 
L 212.088194 177.844845 
z
" clip-path="url(#pb9608250c3)" style="fill: #1f8a56; stroke: #1f8a56; stroke-linejoin: miter"/>
   </g>
   <g id="patch_17">
    <path d="M 226.049348 177.5273 
L 234.42604 177.5273 
L 234.42604 170.671021 
L 226.049348 170.671021 
z
" clip-path="url(#pb9608250c3)" style="fill: #1f8a56; stroke: #1f8a56; stroke-linejoin: miter"/>
   </g>
   <g id="patch_18">
    <path d="M 240.010502 175.280525 
L 248.387194 175.280525 
L 248.387194 152.382722 
L 240.010502 152.382722 
z
" clip-path="url(#pb9608250c3)" style="fill: #1f8a56; stroke: #1f8a56; stroke-linejoin: miter"/>
   </g>
   <g id="patch_19">
    <path d="M 253.971656 163.509973 
L 262.348348 163.509973 
L 262.348348 148.598084 
L 253.971656 148.598084 
z
" clip-path="url(#pb9608250c3)" style="fill: #b91c1c; stroke: #b91c1c; stroke-linejoin: miter"/>
   </g>
   <g id="patch_20">
    <path d="M 267.93281 169.820173 
L 276.309502 169.820173 
L 276.309502 162.963895 
L 267.93281 162.963895 
z
" clip-path="url(#pb9608250c3)" style="fill: #1f8a56; stroke: #1f8a56; stroke-linejoin: miter"/>
   </g>
   <g id="patch_21">
    <path d="M 281.893963 173.290349 
L 290.270656 173.290349 
L 290.270656 166.43407 
L 281.893963 166.43407 
z
" clip-path="url(#pb9608250c3)" style="fill: #1f8a56; stroke: #1f8a56; stroke-linejoin: miter"/>
   </g>
   <g id="patch_22">
    <path d="M 295.855117 168.489799 
L 304.231809 168.489799 
L 304.231809 160.446324 
L 295.855117 160.446324 
z
" clip-path="url(#pb9608250c3)" style="fill: #1f8a56; stroke: #1f8a56; stroke-linejoin: miter"/>
   </g>
   <g id="patch_23">
    <path d="M 309.816271 159.830832 
L 318.192963 159.830832 
L 318.192963 129.513703 
L 309.816271 129.513703 
z
" clip-path="url(#pb9608250c3)" style="fill: #1f8a56; stroke: #1f8a56; stroke-linejoin: miter"/>
   </g>
   <g id="patch_24">
    <path d="M 323.777425 144.29423 
L 332.154117 144.29423 
L 332.154117 121.099557 
L 323.777425 121.099557 
z
" clip-path="url(#pb9608250c3)" style="fill: #b91c1c; stroke: #b91c1c; stroke-linejoin: miter"/>
   </g>
   <g id="patch_25">
    <path d="M 337.738578 142.095481 
L 346.115271 142.095481 
L 346.115271 128.579189 
L 337.738578 128.579189 
z
" clip-path="url(#pb9608250c3)" style="fill: #1f8a56; stroke: #1f8a56; stroke-linejoin: miter"/>
   </g>
   <g id="patch_26">
    <path d="M 351.699732 123.428873 
L 360.076424 123.428873 
L 360.076424 116.572594 
L 351.699732 116.572594 
z
" clip-path="url(#pb9608250c3)" style="fill: #b91c1c; stroke: #b91c1c; stroke-linejoin: miter"/>
   </g>
   <g id="patch_27">
    <path d="M 365.660886 132.151809 
L 374.037578 132.151809 
L 374.037578 120.638359 
L 365.660886 120.638359 
z
" clip-path="url(#pb9608250c3)" style="fill: #b91c1c; stroke: #b91c1c; stroke-linejoin: miter"/>
   </g>
   <g id="patch_28">
    <path d="M 379.62204 133.070233 
L 387.998732 133.070233 
L 387.998732 125.442573 
L 379.62204 125.442573 
z
" clip-path="url(#pb9608250c3)" style="fill: #1f8a56; stroke: #1f8a56; stroke-linejoin: miter"/>
   </g>
   <g id="patch_29">
    <path d="M 393.583194 132.645492 
L 401.959886 132.645492 
L 401.959886 125.789213 
L 393.583194 125.789213 
z
" clip-path="url(#pb9608250c3)" style="fill: #b91c1c; stroke: #b91c1c; stroke-linejoin: miter"/>
   </g>
   <g id="patch_30">
    <path d="M 407.544347 140.298956 
L 415.92104 140.298956 
L 415.92104 133.442678 
L 407.544347 133.442678 
z
" clip-path="url(#pb9608250c3)" style="fill: #b91c1c; stroke: #b91c1c; stroke-linejoin: miter"/>
   </g>
   <g id="patch_31">
    <path d="M 421.505501 141.266381 
L 429.882193 141.266381 
L 429.882193 116.981347 
L 421.505501 116.981347 
z
" clip-path="url(#pb9608250c3)" style="fill: #1f8a56; stroke: #1f8a56; stroke-linejoin: miter"/>
   </g>
   <g id="patch_32">
    <path d="M 435.466655 121.974279 
L 443.843347 121.974279 
L 443.843347 111.974332 
L 435.466655 111.974332 
z
" clip-path="url(#pb9608250c3)" style="fill: #b91c1c; stroke: #b91c1c; stroke-linejoin: miter"/>
   </g>
   <g id="patch_33">
    <path d="M 449.427809 117.1491 
L 457.804501 117.1491 
L 457.804501 106.143394 
L 449.427809 106.143394 
z
" clip-path="url(#pb9608250c3)" style="fill: #1f8a56; stroke: #1f8a56; stroke-linejoin: miter"/>
   </g>
   <g id="patch_34">
    <path d="M 463.388962 113.458564 
L 471.765655 113.458564 
L 471.765655 99.044528 
L 463.388962 99.044528 
z
" clip-path="url(#pb9608250c3)" style="fill: #1f8a56; stroke: #1f8a56; stroke-linejoin: miter"/>
   </g>
   <g id="patch_35">
    <path d="M 477.350116 101.371924 
L 485.726808 101.371924 
L 485.726808 94.515646 
L 477.350116 94.515646 
z
" clip-path="url(#pb9608250c3)" style="fill: #b91c1c; stroke: #b91c1c; stroke-linejoin: miter"/>
   </g>
   <g id="patch_36">
    <path d="M 491.31127 107.43857 
L 499.687962 107.43857 
L 499.687962 98.629793 
L 491.31127 98.629793 
z
" clip-path="url(#pb9608250c3)" style="fill: #1f8a56; stroke: #1f8a56; stroke-linejoin: miter"/>
   </g>
   <g id="patch_37">
    <path d="M 505.272424 97.600407 
L 513.649116 97.600407 
L 513.649116 66.86761 
L 505.272424 66.86761 
z
" clip-path="url(#pb9608250c3)" style="fill: #1f8a56; stroke: #1f8a56; stroke-linejoin: miter"/>
   </g>
   <g id="patch_38">
    <path d="M 519.233577 108.343914 
L 527.61027 108.343914 
L 527.61027 63.22076 
L 519.233577 63.22076 
z
" clip-path="url(#pb9608250c3)" style="fill: #b91c1c; stroke: #b91c1c; stroke-linejoin: miter"/>
   </g>
   <g id="patch_39">
    <path d="M 533.194731 109.441442 
L 541.571423 109.441442 
L 541.571423 70.121445 
L 533.194731 70.121445 
z
" clip-path="url(#pb9608250c3)" style="fill: #1f8a56; stroke: #1f8a56; stroke-linejoin: miter"/>
   </g>
   <g id="patch_40">
    <path d="M 547.155885 78.100565 
L 555.532577 78.100565 
L 555.532577 71.244286 
L 547.155885 71.244286 
z
" clip-path="url(#pb9608250c3)" style="fill: #b91c1c; stroke: #b91c1c; stroke-linejoin: miter"/>
   </g>
   <g id="patch_41">
    <path d="M 561.117039 72.891393 
L 569.493731 72.891393 
L 569.493731 56.060556 
L 561.117039 56.060556 
z
" clip-path="url(#pb9608250c3)" style="fill: #1f8a56; stroke: #1f8a56; stroke-linejoin: miter"/>
   </g>
   <g id="patch_42">
    <path d="M 575.078193 55.018491 
L 583.454885 55.018491 
L 583.454885 48.162212 
L 575.078193 48.162212 
z
" clip-path="url(#pb9608250c3)" style="fill: #1f8a56; stroke: #1f8a56; stroke-linejoin: miter"/>
   </g>
   <g id="patch_43">
    <path d="M 589.039346 51.900689 
L 597.416039 51.900689 
L 597.416039 25.074167 
L 589.039346 25.074167 
z
" clip-path="url(#pb9608250c3)" style="fill: #1f8a56; stroke: #1f8a56; stroke-linejoin: miter"/>
   </g>
   <g id="patch_44">
    <path d="M 603.0005 27.570956 
L 611.377192 27.570956 
L 611.377192 20.714677 
L 603.0005 20.714677 
z
" clip-path="url(#pb9608250c3)" style="fill: #1f8a56; stroke: #1f8a56; stroke-linejoin: miter"/>
   </g>
  </g>
  <g id="axes_2">
   <g id="patch_45">
    <path d="M 48.742695 387.873015 
L 621.15 387.873015 
L 621.15 262.17459 
L 48.742695 262.17459 
z
" style="fill: #ffffff"/>
   </g>
   <g id="matplotlib.axis_3"/>
   <g id="matplotlib.axis_4">
    <g id="ytick_6">
     <g id="line2d_51">
      <g>
       <use xlink:href="#m1f6f2e62c7" x="48.742695" y="382.159451" style="fill: #555555; stroke: #555555; stroke-width: 0.8"/>
      </g>
     </g>
     <g id="text_7">
      <!-- 30 -->
      <g style="fill: #555555" transform="translate(28.381445 386.14822) scale(0.105 -0.105)">
       <defs>
        <path id="DejaVuSans-16" d="M 2597 2516 
Q 3050 2419 3304 2112 
Q 3559 1806 3559 1356 
Q 3559 666 3084 287 
Q 2609 -91 1734 -91 
Q 1441 -91 1130 -33 
Q 819 25 488 141 
L 488 750 
Q 750 597 1062 519 
Q 1375 441 1716 441 
Q 2309 441 2620 675 
Q 2931 909 2931 1356 
Q 2931 1769 2642 2001 
Q 2353 2234 1838 2234 
L 1294 2234 
L 1294 2753 
L 1863 2753 
Q 2328 2753 2575 2939 
Q 2822 3125 2822 3475 
Q 2822 3834 2567 4026 
Q 2313 4219 1838 4219 
Q 1578 4219 1281 4162 
Q 984 4106 628 3988 
L 628 4550 
Q 988 4650 1302 4700 
Q 1616 4750 1894 4750 
Q 2613 4750 3031 4423 
Q 3450 4097 3450 3541 
Q 3450 3153 3228 2886 
Q 3006 2619 2597 2516 
z
" transform="scale(0.015625)"/>
       </defs>
       <use xlink:href="#DejaVuSans-16"/>
       <use xlink:href="#DejaVuSans-13" transform="translate(63.625 0)"/>
      </g>
     </g>
    </g>
    <g id="ytick_7">
     <g id="line2d_52">
      <g>
       <use xlink:href="#m1f6f2e62c7" x="48.742695" y="355.326133" style="fill: #555555; stroke: #555555; stroke-width: 0.8"/>
      </g>
     </g>
     <g id="text_8">
      <!-- 40 -->
      <g style="fill: #555555" transform="translate(28.381445 359.314902) scale(0.105 -0.105)">
       <use xlink:href="#DejaVuSans-17"/>
       <use xlink:href="#DejaVuSans-13" transform="translate(63.625 0)"/>
      </g>
     </g>
    </g>
    <g id="ytick_8">
     <g id="line2d_53">
      <g>
       <use xlink:href="#m1f6f2e62c7" x="48.742695" y="328.492814" style="fill: #555555; stroke: #555555; stroke-width: 0.8"/>
      </g>
     </g>
     <g id="text_9">
      <!-- 50 -->
      <g style="fill: #555555" transform="translate(28.381445 332.481584) scale(0.105 -0.105)">
       <defs>
        <path id="DejaVuSans-18" d="M 691 4666 
L 3169 4666 
L 3169 4134 
L 1269 4134 
L 1269 2991 
Q 1406 3038 1543 3061 
Q 1681 3084 1819 3084 
Q 2600 3084 3056 2656 
Q 3513 2228 3513 1497 
Q 3513 744 3044 326 
Q 2575 -91 1722 -91 
Q 1428 -91 1123 -41 
Q 819 9 494 109 
L 494 744 
Q 775 591 1075 516 
Q 1375 441 1709 441 
Q 2250 441 2565 725 
Q 2881 1009 2881 1497 
Q 2881 1984 2565 2268 
Q 2250 2553 1709 2553 
Q 1456 2553 1204 2497 
Q 953 2441 691 2322 
L 691 4666 
z
" transform="scale(0.015625)"/>
       </defs>
       <use xlink:href="#DejaVuSans-18"/>
       <use xlink:href="#DejaVuSans-13" transform="translate(63.625 0)"/>
      </g>
     </g>
    </g>
    <g id="ytick_9">
     <g id="line2d_54">
      <g>
       <use xlink:href="#m1f6f2e62c7" x="48.742695" y="301.659496" style="fill: #555555; stroke: #555555; stroke-width: 0.8"/>
      </g>
     </g>
     <g id="text_10">
      <!-- 60 -->
      <g style="fill: #555555" transform="translate(28.381445 305.648266) scale(0.105 -0.105)">
       <use xlink:href="#DejaVuSans-19"/>
       <use xlink:href="#DejaVuSans-13" transform="translate(63.625 0)"/>
      </g>
     </g>
    </g>
    <g id="ytick_10">
     <g id="line2d_55">
      <g>
       <use xlink:href="#m1f6f2e62c7" x="48.742695" y="274.826178" style="fill: #555555; stroke: #555555; stroke-width: 0.8"/>
      </g>
     </g>
     <g id="text_11">
      <!-- 70 -->
      <g style="fill: #555555" transform="translate(28.381445 278.814948) scale(0.105 -0.105)">
       <defs>
        <path id="DejaVuSans-1a" d="M 525 4666 
L 3525 4666 
L 3525 4397 
L 1831 0 
L 1172 0 
L 2766 4134 
L 525 4134 
L 525 4666 
z
" transform="scale(0.015625)"/>
       </defs>
       <use xlink:href="#DejaVuSans-1a"/>
       <use xlink:href="#DejaVuSans-13" transform="translate(63.625 0)"/>
      </g>
     </g>
    </g>
    <g id="text_12">
     <!-- RSI -->
     <g style="fill: #1f2937" transform="translate(21.858984 333.553412) rotate(-90) scale(0.105 -0.105)">
      <defs>
       <path id="DejaVuSans-35" d="M 2841 2188 
Q 3044 2119 3236 1894 
Q 3428 1669 3622 1275 
L 4263 0 
L 3584 0 
L 2988 1197 
Q 2756 1666 2539 1819 
Q 2322 1972 1947 1972 
L 1259 1972 
L 1259 0 
L 628 0 
L 628 4666 
L 2053 4666 
Q 2853 4666 3247 4331 
Q 3641 3997 3641 3322 
Q 3641 2881 3436 2590 
Q 3231 2300 2841 2188 
z
M 1259 4147 
L 1259 2491 
L 2053 2491 
Q 2509 2491 2742 2702 
Q 2975 2913 2975 3322 
Q 2975 3731 2742 3939 
Q 2509 4147 2053 4147 
L 1259 4147 
z
" transform="scale(0.015625)"/>
       <path id="DejaVuSans-36" d="M 3425 4513 
L 3425 3897 
Q 3066 4069 2747 4153 
Q 2428 4238 2131 4238 
Q 1616 4238 1336 4038 
Q 1056 3838 1056 3469 
Q 1056 3159 1242 3001 
Q 1428 2844 1947 2747 
L 2328 2669 
Q 3034 2534 3370 2195 
Q 3706 1856 3706 1288 
Q 3706 609 3251 259 
Q 2797 -91 1919 -91 
Q 1588 -91 1214 -16 
Q 841 59 441 206 
L 441 856 
Q 825 641 1194 531 
Q 1563 422 1919 422 
Q 2459 422 2753 634 
Q 3047 847 3047 1241 
Q 3047 1584 2836 1778 
Q 2625 1972 2144 2069 
L 1759 2144 
Q 1053 2284 737 2584 
Q 422 2884 422 3419 
Q 422 4038 858 4394 
Q 1294 4750 2059 4750 
Q 2388 4750 2728 4690 
Q 3069 4631 3425 4513 
z
" transform="scale(0.015625)"/>
       <path id="DejaVuSans-2c" d="M 628 4666 
L 1259 4666 
L 1259 0 
L 628 0 
L 628 4666 
z
" transform="scale(0.015625)"/>
      </defs>
      <use xlink:href="#DejaVuSans-35"/>
      <use xlink:href="#DejaVuSans-36" transform="translate(69.484375 0)"/>
      <use xlink:href="#DejaVuSans-2c" transform="translate(132.96875 0)"/>
     </g>
    </g>
   </g>
   <g id="line2d_56">
    <path d="M 74.761209 291.325213 
L 88.104037 291.325213 
L 101.446864 291.325213 
L 114.789692 291.325213 
L 128.13252 291.325213 
L 141.475347 291.325213 
L 154.818175 291.325213 
L 168.161002 291.325213 
L 181.50383 291.325213 
L 194.846658 291.325213 
L 208.189485 291.325213 
L 221.532313 291.325213 
L 234.875141 291.325213 
L 248.217968 291.325213 
L 261.560796 299.669409 
L 274.903623 301.903726 
L 288.246451 302.945813 
L 301.589279 298.849838 
L 314.932106 283.532279 
L 328.274934 296.093158 
L 341.617761 288.52945 
L 354.960589 286.121479 
L 368.303417 293.985539 
L 381.646244 290.439156 
L 394.989072 297.244687 
L 408.3319 304.400836 
L 421.674727 290.71856 
L 435.017555 295.509638 
L 448.360382 286.718888 
L 461.70321 282.998627 
L 475.046038 285.517025 
L 488.388865 283.923465 
L 501.731693 267.888155 
L 515.07452 307.052148 
L 528.417348 296.349234 
L 541.760176 305.855126 
L 555.103003 299.364616 
L 568.445831 301.466711 
L 581.788659 293.520132 
L 595.131486 295.571697 
" clip-path="url(#pad27af83e8)" style="fill: none; stroke: #b7791f; stroke-width: 1.8; stroke-linecap: square"/>
   </g>
   <g id="line2d_57">
    <path d="M 48.742695 274.826178 
L 621.15 274.826178 
" clip-path="url(#pad27af83e8)" style="fill: none; stroke-dasharray: 1,1.65; stroke-dashoffset: 0; stroke: #8a8f98"/>
   </g>
   <g id="line2d_58">
    <path d="M 48.742695 382.159451 
L 621.15 382.159451 
" clip-path="url(#pad27af83e8)" style="fill: none; stroke-dasharray: 1,1.65; stroke-dashoffset: 0; stroke: #8a8f98"/>
   </g>
   <g id="patch_46">
    <path d="M 48.742695 387.873015 
L 48.742695 262.17459 
" style="fill: none; stroke: #1f2937; stroke-width: 0.8; stroke-linejoin: miter; stroke-linecap: square"/>
   </g>
   <g id="patch_47">
    <path d="M 48.742695 387.873015 
L 621.15 387.873015 
" style="fill: none; stroke: #1f2937; stroke-width: 0.8; stroke-linejoin: miter; stroke-linecap: square"/>
   </g>
  </g>
  <g id="axes_3">
   <g id="patch_48">
    <path d="M 48.742695 517.14918 
L 621.15 517.14918 
L 621.15 391.450754 
L 48.742695 391.450754 
z
" style="fill: #ffffff"/>
   </g>
   <g id="patch_49">
    <path d="M 74.761209 483.269642 
L 83.936504 483.269642 
L 83.936504 483.269642 
L 74.761209 483.269642 
z
" clip-path="url(#pf86d2d9075)" style="fill: #1f8a56"/>
   </g>
   <g id="patch_50">
    <path d="M 87.868773 483.269642 
L 97.044067 483.269642 
L 97.044067 483.269642 
L 87.868773 483.269642 
z
" clip-path="url(#pf86d2d9075)" style="fill: #1f8a56"/>
   </g>
   <g id="patch_51">
    <path d="M 100.976336 483.269642 
L 110.151631 483.269642 
L 110.151631 483.269642 
L 100.976336 483.269642 
z
" clip-path="url(#pf86d2d9075)" style="fill: #1f8a56"/>
   </g>
   <g id="patch_52">
    <path d="M 114.0839 483.269642 
L 123.259195 483.269642 
L 123.259195 476.911243 
L 114.0839 476.911243 
z
" clip-path="url(#pf86d2d9075)" style="fill: #1f8a56"/>
   </g>
   <g id="patch_53">
    <path d="M 127.191464 483.269642 
L 136.366758 483.269642 
L 136.366758 461.127892 
L 127.191464 461.127892 
z
" clip-path="url(#pf86d2d9075)" style="fill: #1f8a56"/>
   </g>
   <g id="patch_54">
    <path d="M 140.299027 483.269642 
L 149.474322 483.269642 
L 149.474322 479.36409 
L 140.299027 479.36409 
z
" clip-path="url(#pf86d2d9075)" style="fill: #1f8a56"/>
   </g>
   <g id="patch_55">
    <path d="M 153.406591 483.269642 
L 162.581886 483.269642 
L 162.581886 461.969378 
L 153.406591 461.969378 
z
" clip-path="url(#pf86d2d9075)" style="fill: #1f8a56"/>
   </g>
   <g id="patch_56">
    <path d="M 166.514155 483.269642 
L 175.689449 483.269642 
L 175.689449 459.51796 
L 166.514155 459.51796 
z
" clip-path="url(#pf86d2d9075)" style="fill: #1f8a56"/>
   </g>
   <g id="patch_57">
    <path d="M 179.621718 483.269642 
L 188.797013 483.269642 
L 188.797013 480.71357 
L 179.621718 480.71357 
z
" clip-path="url(#pf86d2d9075)" style="fill: #1f8a56"/>
   </g>
   <g id="patch_58">
    <path d="M 192.729282 483.269642 
L 201.904577 483.269642 
L 201.904577 501.870642 
L 192.729282 501.870642 
z
" clip-path="url(#pf86d2d9075)" style="fill: #b91c1c"/>
   </g>
   <g id="patch_59">
    <path d="M 205.836846 483.269642 
L 215.01214 483.269642 
L 215.01214 503.533934 
L 205.836846 503.533934 
z
" clip-path="url(#pf86d2d9075)" style="fill: #b91c1c"/>
   </g>
   <g id="patch_60">
    <path d="M 218.944409 483.269642 
L 228.119704 483.269642 
L 228.119704 490.765595 
L 218.944409 490.765595 
z
" clip-path="url(#pf86d2d9075)" style="fill: #b91c1c"/>
   </g>
   <g id="patch_61">
    <path d="M 232.051973 483.269642 
L 241.227268 483.269642 
L 241.227268 493.833472 
L 232.051973 493.833472 
z
" clip-path="url(#pf86d2d9075)" style="fill: #b91c1c"/>
   </g>
   <g id="patch_62">
    <path d="M 245.159537 483.269642 
L 254.334831 483.269642 
L 254.334831 467.599017 
L 245.159537 467.599017 
z
" clip-path="url(#pf86d2d9075)" style="fill: #1f8a56"/>
   </g>
   <g id="patch_63">
    <path d="M 258.2671 483.269642 
L 267.442395 483.269642 
L 267.442395 465.954124 
L 258.2671 465.954124 
z
" clip-path="url(#pf86d2d9075)" style="fill: #1f8a56"/>
   </g>
   <g id="patch_64">
    <path d="M 271.374664 483.269642 
L 280.549959 483.269642 
L 280.549959 472.572632 
L 271.374664 472.572632 
z
" clip-path="url(#pf86d2d9075)" style="fill: #1f8a56"/>
   </g>
   <g id="patch_65">
    <path d="M 284.482228 483.269642 
L 293.657522 483.269642 
L 293.657522 502.82855 
L 284.482228 502.82855 
z
" clip-path="url(#pf86d2d9075)" style="fill: #b91c1c"/>
   </g>
   <g id="patch_66">
    <path d="M 297.589791 483.269642 
L 306.765086 483.269642 
L 306.765086 499.576056 
L 297.589791 499.576056 
z
" clip-path="url(#pf86d2d9075)" style="fill: #b91c1c"/>
   </g>
   <g id="patch_67">
    <path d="M 310.697355 483.269642 
L 319.872649 483.269642 
L 319.872649 481.232183 
L 310.697355 481.232183 
z
" clip-path="url(#pf86d2d9075)" style="fill: #1f8a56"/>
   </g>
   <g id="patch_68">
    <path d="M 323.804919 483.269642 
L 332.980213 483.269642 
L 332.980213 468.138467 
L 323.804919 468.138467 
z
" clip-path="url(#pf86d2d9075)" style="fill: #1f8a56"/>
   </g>
   <g id="patch_69">
    <path d="M 336.912482 483.269642 
L 346.087777 483.269642 
L 346.087777 461.51831 
L 336.912482 461.51831 
z
" clip-path="url(#pf86d2d9075)" style="fill: #1f8a56"/>
   </g>
   <g id="patch_70">
    <path d="M 350.020046 483.269642 
L 359.19534 483.269642 
L 359.19534 475.940168 
L 350.020046 475.940168 
z
" clip-path="url(#pf86d2d9075)" style="fill: #1f8a56"/>
   </g>
   <g id="patch_71">
    <path d="M 363.12761 483.269642 
L 372.302904 483.269642 
L 372.302904 481.411971 
L 363.12761 481.411971 
z
" clip-path="url(#pf86d2d9075)" style="fill: #1f8a56"/>
   </g>
   <g id="patch_72">
    <path d="M 376.235173 483.269642 
L 385.410468 483.269642 
L 385.410468 494.290157 
L 376.235173 494.290157 
z
" clip-path="url(#pf86d2d9075)" style="fill: #b91c1c"/>
   </g>
   <g id="patch_73">
    <path d="M 389.342737 483.269642 
L 398.518031 483.269642 
L 398.518031 507.956719 
L 389.342737 507.956719 
z
" clip-path="url(#pf86d2d9075)" style="fill: #b91c1c"/>
   </g>
   <g id="patch_74">
    <path d="M 402.4503 483.269642 
L 411.625595 483.269642 
L 411.625595 511.435615 
L 402.4503 511.435615 
z
" clip-path="url(#pf86d2d9075)" style="fill: #b91c1c"/>
   </g>
   <g id="patch_75">
    <path d="M 415.557864 483.269642 
L 424.733159 483.269642 
L 424.733159 494.767704 
L 415.557864 494.767704 
z
" clip-path="url(#pf86d2d9075)" style="fill: #b91c1c"/>
   </g>
   <g id="patch_76">
    <path d="M 428.665428 483.269642 
L 437.840722 483.269642 
L 437.840722 483.614684 
L 428.665428 483.614684 
z
" clip-path="url(#pf86d2d9075)" style="fill: #b91c1c"/>
   </g>
   <g id="patch_77">
    <path d="M 441.772991 483.269642 
L 450.948286 483.269642 
L 450.948286 460.116689 
L 441.772991 460.116689 
z
" clip-path="url(#pf86d2d9075)" style="fill: #1f8a56"/>
   </g>
   <g id="patch_78">
    <path d="M 454.880555 483.269642 
L 464.05585 483.269642 
L 464.05585 461.584711 
L 454.880555 461.584711 
z
" clip-path="url(#pf86d2d9075)" style="fill: #1f8a56"/>
   </g>
   <g id="patch_79">
    <path d="M 467.988119 483.269642 
L 477.163413 483.269642 
L 477.163413 464.19684 
L 467.988119 464.19684 
z
" clip-path="url(#pf86d2d9075)" style="fill: #1f8a56"/>
   </g>
   <g id="patch_80">
    <path d="M 481.095682 483.269642 
L 490.270977 483.269642 
L 490.270977 478.051828 
L 481.095682 478.051828 
z
" clip-path="url(#pf86d2d9075)" style="fill: #1f8a56"/>
   </g>
   <g id="patch_81">
    <path d="M 494.203246 483.269642 
L 503.378541 483.269642 
L 503.378541 476.098962 
L 494.203246 476.098962 
z
" clip-path="url(#pf86d2d9075)" style="fill: #1f8a56"/>
   </g>
   <g id="patch_82">
    <path d="M 507.31081 483.269642 
L 516.486104 483.269642 
L 516.486104 495.276477 
L 507.31081 495.276477 
z
" clip-path="url(#pf86d2d9075)" style="fill: #b91c1c"/>
   </g>
   <g id="patch_83">
    <path d="M 520.418373 483.269642 
L 529.593668 483.269642 
L 529.593668 482.618364 
L 520.418373 482.618364 
z
" clip-path="url(#pf86d2d9075)" style="fill: #1f8a56"/>
   </g>
   <g id="patch_84">
    <path d="M 533.525937 483.269642 
L 542.701232 483.269642 
L 542.701232 504.948237 
L 533.525937 504.948237 
z
" clip-path="url(#pf86d2d9075)" style="fill: #b91c1c"/>
   </g>
   <g id="patch_85">
    <path d="M 546.633501 483.269642 
L 555.808795 483.269642 
L 555.808795 468.101804 
L 546.633501 468.101804 
z
" clip-path="url(#pf86d2d9075)" style="fill: #1f8a56"/>
   </g>
   <g id="patch_86">
    <path d="M 559.741064 483.269642 
L 568.916359 483.269642 
L 568.916359 472.964018 
L 559.741064 472.964018 
z
" clip-path="url(#pf86d2d9075)" style="fill: #1f8a56"/>
   </g>
   <g id="patch_87">
    <path d="M 572.848628 483.269642 
L 582.023922 483.269642 
L 582.023922 454.614133 
L 572.848628 454.614133 
z
" clip-path="url(#pf86d2d9075)" style="fill: #1f8a56"/>
   </g>
   <g id="patch_88">
    <path d="M 585.956192 483.269642 
L 595.131486 483.269642 
L 595.131486 465.789001 
L 585.956192 465.789001 
z
" clip-path="url(#pf86d2d9075)" style="fill: #1f8a56"/>
   </g>
   <g id="matplotlib.axis_5">
    <g id="xtick_1">
     <g id="line2d_59">
      <defs>
       <path id="mdf907fcfc4" d="M 0 0 
L 0 3.5 
" style="stroke: #555555; stroke-width: 0.8"/>
      </defs>
      <g>
       <use xlink:href="#mdf907fcfc4" x="79.348856" y="517.14918" style="fill: #555555; stroke: #555555; stroke-width: 0.8"/>
      </g>
     </g>
     <g id="text_13">
      <!-- 0 -->
      <g style="fill: #555555" transform="translate(76.008544 532.126719) scale(0.105 -0.105)">
       <use xlink:href="#DejaVuSans-13"/>
      </g>
     </g>
    </g>
    <g id="xtick_2">
     <g id="line2d_60">
      <g>
       <use xlink:href="#mdf907fcfc4" x="144.886675" y="517.14918" style="fill: #555555; stroke: #555555; stroke-width: 0.8"/>
      </g>
     </g>
     <g id="text_14">
      <!-- 5 -->
      <g style="fill: #555555" transform="translate(141.546362 532.126719) scale(0.105 -0.105)">
       <use xlink:href="#DejaVuSans-18"/>
      </g>
     </g>
    </g>
    <g id="xtick_3">
     <g id="line2d_61">
      <g>
       <use xlink:href="#mdf907fcfc4" x="210.424493" y="517.14918" style="fill: #555555; stroke: #555555; stroke-width: 0.8"/>
      </g>
     </g>
     <g id="text_15">
      <!-- 10 -->
      <g style="fill: #555555" transform="translate(203.743868 532.126719) scale(0.105 -0.105)">
       <use xlink:href="#DejaVuSans-14"/>
       <use xlink:href="#DejaVuSans-13" transform="translate(63.625 0)"/>
      </g>
     </g>
    </g>
    <g id="xtick_4">
     <g id="line2d_62">
      <g>
       <use xlink:href="#mdf907fcfc4" x="275.962311" y="517.14918" style="fill: #555555; stroke: #555555; stroke-width: 0.8"/>
      </g>
     </g>
     <g id="text_16">
      <!-- 15 -->
      <g style="fill: #555555" transform="translate(269.281686 532.126719) scale(0.105 -0.105)">
       <use xlink:href="#DejaVuSans-14"/>
       <use xlink:href="#DejaVuSans-18" transform="translate(63.625 0)"/>
      </g>
     </g>
    </g>
    <g id="xtick_5">
     <g id="line2d_63">
      <g>
       <use xlink:href="#mdf907fcfc4" x="341.500129" y="517.14918" style="fill: #555555; stroke: #555555; stroke-width: 0.8"/>
      </g>
     </g>
     <g id="text_17">
      <!-- 20 -->
      <g style="fill: #555555" transform="translate(334.819504 532.126719) scale(0.105 -0.105)">
       <use xlink:href="#DejaVuSans-15"/>
       <use xlink:href="#DejaVuSans-13" transform="translate(63.625 0)"/>
      </g>
     </g>
    </g>
    <g id="xtick_6">
     <g id="line2d_64">
      <g>
       <use xlink:href="#mdf907fcfc4" x="407.037948" y="517.14918" style="fill: #555555; stroke: #555555; stroke-width: 0.8"/>
      </g>
     </g>
     <g id="text_18">
      <!-- 25 -->
      <g style="fill: #555555" transform="translate(400.357323 532.126719) scale(0.105 -0.105)">
       <use xlink:href="#DejaVuSans-15"/>
       <use xlink:href="#DejaVuSans-18" transform="translate(63.625 0)"/>
      </g>
     </g>
    </g>
    <g id="xtick_7">
     <g id="line2d_65">
      <g>
       <use xlink:href="#mdf907fcfc4" x="472.575766" y="517.14918" style="fill: #555555; stroke: #555555; stroke-width: 0.8"/>
      </g>
     </g>
     <g id="text_19">
      <!-- 30 -->
      <g style="fill: #555555" transform="translate(465.895141 532.126719) scale(0.105 -0.105)">
       <use xlink:href="#DejaVuSans-16"/>
       <use xlink:href="#DejaVuSans-13" transform="translate(63.625 0)"/>
      </g>
     </g>
    </g>
    <g id="xtick_8">
     <g id="line2d_66">
      <g>
       <use xlink:href="#mdf907fcfc4" x="538.113584" y="517.14918" style="fill: #555555; stroke: #555555; stroke-width: 0.8"/>
      </g>
     </g>
     <g id="text_20">
      <!-- 35 -->
      <g style="fill: #555555" transform="translate(531.432959 532.126719) scale(0.105 -0.105)">
       <use xlink:href="#DejaVuSans-16"/>
       <use xlink:href="#DejaVuSans-18" transform="translate(63.625 0)"/>
      </g>
     </g>
    </g>
    <g id="xtick_9">
     <g id="line2d_67">
      <g>
       <use xlink:href="#mdf907fcfc4" x="603.651403" y="517.14918" style="fill: #555555; stroke: #555555; stroke-width: 0.8"/>
      </g>
     </g>
     <g id="text_21">
      <!-- 40 -->
      <g style="fill: #555555" transform="translate(596.970778 532.126719) scale(0.105 -0.105)">
       <use xlink:href="#DejaVuSans-17"/>
       <use xlink:href="#DejaVuSans-13" transform="translate(63.625 0)"/>
      </g>
     </g>
    </g>
    <g id="text_22">
     <!-- Time → -->
     <g style="fill: #1f2937" transform="translate(316.030762 546.627539) scale(0.105 -0.105)">
      <defs>
       <path id="DejaVuSans-37" d="M -19 4666 
L 3928 4666 
L 3928 4134 
L 2272 4134 
L 2272 0 
L 1638 0 
L 1638 4134 
L -19 4134 
L -19 4666 
z
" transform="scale(0.015625)"/>
       <path id="DejaVuSans-50" d="M 3328 2828 
Q 3544 3216 3844 3400 
Q 4144 3584 4550 3584 
Q 5097 3584 5394 3201 
Q 5691 2819 5691 2113 
L 5691 0 
L 5113 0 
L 5113 2094 
Q 5113 2597 4934 2840 
Q 4756 3084 4391 3084 
Q 3944 3084 3684 2787 
Q 3425 2491 3425 1978 
L 3425 0 
L 2847 0 
L 2847 2094 
Q 2847 2600 2669 2842 
Q 2491 3084 2119 3084 
Q 1678 3084 1418 2786 
Q 1159 2488 1159 1978 
L 1159 0 
L 581 0 
L 581 3500 
L 1159 3500 
L 1159 2956 
Q 1356 3278 1631 3431 
Q 1906 3584 2284 3584 
Q 2666 3584 2933 3390 
Q 3200 3197 3328 2828 
z
" transform="scale(0.015625)"/>
       <path id="DejaVuSans-3" transform="scale(0.015625)"/>
       <path id="DejaVuSans-c1c" d="M 5050 2147 
L 5050 1866 
L 3822 638 
L 3447 1013 
L 4175 1741 
L 366 1741 
L 366 2272 
L 4175 2272 
L 3447 3000 
L 3822 3375 
L 5050 2147 
z
" transform="scale(0.015625)"/>
      </defs>
      <use xlink:href="#DejaVuSans-37"/>
      <use xlink:href="#DejaVuSans-4c" transform="translate(58 0)"/>
      <use xlink:href="#DejaVuSans-50" transform="translate(85.78125 0)"/>
      <use xlink:href="#DejaVuSans-48" transform="translate(183.1875 0)"/>
      <use xlink:href="#DejaVuSans-3" transform="translate(244.71875 0)"/>
      <use xlink:href="#DejaVuSans-c1c" transform="translate(276.5 0)"/>
     </g>
    </g>
   </g>
   <g id="matplotlib.axis_6">
    <g id="ytick_11">
     <g id="line2d_68">
      <g>
       <use xlink:href="#m1f6f2e62c7" x="48.742695" y="483.269642" style="fill: #555555; stroke: #555555; stroke-width: 0.8"/>
      </g>
     </g>
     <g id="text_23">
      <!-- 0.0 -->
      <g style="fill: #555555" transform="translate(25.044414 487.258412) scale(0.105 -0.105)">
       <defs>
        <path id="DejaVuSans-11" d="M 684 794 
L 1344 794 
L 1344 0 
L 684 0 
L 684 794 
z
" transform="scale(0.015625)"/>
       </defs>
       <use xlink:href="#DejaVuSans-13"/>
       <use xlink:href="#DejaVuSans-11" transform="translate(63.625 0)"/>
       <use xlink:href="#DejaVuSans-13" transform="translate(95.40625 0)"/>
      </g>
     </g>
    </g>
    <g id="ytick_12">
     <g id="line2d_69">
      <g>
       <use xlink:href="#m1f6f2e62c7" x="48.742695" y="440.579612" style="fill: #555555; stroke: #555555; stroke-width: 0.8"/>
      </g>
     </g>
     <g id="text_24">
      <!-- 0.5 -->
      <g style="fill: #555555" transform="translate(25.044414 444.568382) scale(0.105 -0.105)">
       <use xlink:href="#DejaVuSans-13"/>
       <use xlink:href="#DejaVuSans-11" transform="translate(63.625 0)"/>
       <use xlink:href="#DejaVuSans-18" transform="translate(95.40625 0)"/>
      </g>
     </g>
    </g>
    <g id="ytick_13">
     <g id="line2d_70">
      <g>
       <use xlink:href="#m1f6f2e62c7" x="48.742695" y="397.889582" style="fill: #555555; stroke: #555555; stroke-width: 0.8"/>
      </g>
     </g>
     <g id="text_25">
      <!-- 1.0 -->
      <g style="fill: #555555" transform="translate(25.044414 401.878352) scale(0.105 -0.105)">
       <use xlink:href="#DejaVuSans-14"/>
       <use xlink:href="#DejaVuSans-11" transform="translate(63.625 0)"/>
       <use xlink:href="#DejaVuSans-13" transform="translate(95.40625 0)"/>
      </g>
     </g>
    </g>
    <g id="text_26">
     <!-- MACD -->
     <g style="fill: #1f2937" transform="translate(18.521953 470.037662) rotate(-90) scale(0.105 -0.105)">
      <defs>
       <path id="DejaVuSans-30" d="M 628 4666 
L 1569 4666 
L 2759 1491 
L 3956 4666 
L 4897 4666 
L 4897 0 
L 4281 0 
L 4281 4097 
L 3078 897 
L 2444 897 
L 1241 4097 
L 1241 0 
L 628 0 
L 628 4666 
z
" transform="scale(0.015625)"/>
       <path id="DejaVuSans-24" d="M 2188 4044 
L 1331 1722 
L 3047 1722 
L 2188 4044 
z
M 1831 4666 
L 2547 4666 
L 4325 0 
L 3669 0 
L 3244 1197 
L 1141 1197 
L 716 0 
L 50 0 
L 1831 4666 
z
" transform="scale(0.015625)"/>
       <path id="DejaVuSans-26" d="M 4122 4306 
L 4122 3641 
Q 3803 3938 3442 4084 
Q 3081 4231 2675 4231 
Q 1875 4231 1450 3742 
Q 1025 3253 1025 2328 
Q 1025 1406 1450 917 
Q 1875 428 2675 428 
Q 3081 428 3442 575 
Q 3803 722 4122 1019 
L 4122 359 
Q 3791 134 3420 21 
Q 3050 -91 2638 -91 
Q 1578 -91 968 557 
Q 359 1206 359 2328 
Q 359 3453 968 4101 
Q 1578 4750 2638 4750 
Q 3056 4750 3426 4639 
Q 3797 4528 4122 4306 
z
" transform="scale(0.015625)"/>
       <path id="DejaVuSans-27" d="M 1259 4147 
L 1259 519 
L 2022 519 
Q 2988 519 3436 956 
Q 3884 1394 3884 2338 
Q 3884 3275 3436 3711 
Q 2988 4147 2022 4147 
L 1259 4147 
z
M 628 4666 
L 1925 4666 
Q 3281 4666 3915 4102 
Q 4550 3538 4550 2338 
Q 4550 1131 3912 565 
Q 3275 0 1925 0 
L 628 0 
L 628 4666 
z
" transform="scale(0.015625)"/>
      </defs>
      <use xlink:href="#DejaVuSans-30"/>
      <use xlink:href="#DejaVuSans-24" transform="translate(86.28125 0)"/>
      <use xlink:href="#DejaVuSans-26" transform="translate(152.9375 0)"/>
      <use xlink:href="#DejaVuSans-27" transform="translate(222.765625 0)"/>
     </g>
    </g>
   </g>
   <g id="line2d_71">
    <path d="M 79.348856 483.269642 
L 92.45642 483.269642 
L 105.563984 483.269642 
L 118.671547 474.791777 
L 131.779111 450.921353 
L 144.886675 464.453521 
L 157.994238 434.988531 
L 171.101802 418.452225 
L 184.209366 435.889995 
L 197.316929 454.578249 
L 210.424493 463.325879 
L 223.532057 461.259312 
L 236.63962 473.806252 
L 249.747184 445.236314 
L 262.854748 437.013268 
L 275.962311 437.755931 
L 289.069875 466.080381 
L 302.177439 468.691745 
L 315.285002 454.79274 
L 328.392566 443.013387 
L 341.500129 426.497514 
L 354.607693 431.661915 
L 367.715257 431.247377 
L 380.82282 444.496288 
L 393.930384 468.717963 
L 407.037948 485.708506 
L 420.145511 481.638334 
L 433.253075 479.148323 
L 446.360639 451.29445 
L 459.468202 441.78046 
L 472.575766 431.977342 
L 485.68333 434.726998 
L 498.790893 426.600692 
L 511.898457 447.11079 
L 525.006021 435.277789 
L 538.113584 465.23455 
L 551.221148 428.983925 
L 564.328712 429.424589 
L 577.436275 403.007009 
L 590.543839 397.164319 
" clip-path="url(#pf86d2d9075)" style="fill: none; stroke: #1f2937; stroke-width: 1.5; stroke-linecap: square"/>
   </g>
   <g id="line2d_72">
    <path d="M 79.348856 483.269642 
L 92.45642 483.269642 
L 105.563984 483.269642 
L 118.671547 481.150176 
L 131.779111 473.063104 
L 144.886675 468.359073 
L 157.994238 456.288795 
L 171.101802 442.203907 
L 184.209366 438.446068 
L 197.316929 435.97725 
L 210.424493 443.061587 
L 223.532057 453.763359 
L 236.63962 463.242423 
L 249.747184 460.906939 
L 262.854748 454.328786 
L 275.962311 448.452941 
L 289.069875 446.521474 
L 302.177439 452.385331 
L 315.285002 456.830199 
L 328.392566 458.144563 
L 341.500129 448.248846 
L 354.607693 438.991389 
L 367.715257 433.105048 
L 380.82282 433.475774 
L 393.930384 444.030886 
L 407.037948 457.542533 
L 420.145511 470.140273 
L 433.253075 478.803281 
L 446.360639 474.447403 
L 459.468202 463.465392 
L 472.575766 451.050144 
L 485.68333 439.944813 
L 498.790893 433.771373 
L 511.898457 435.103956 
L 525.006021 435.929067 
L 538.113584 443.555955 
L 551.221148 444.151764 
L 564.328712 439.730214 
L 577.436275 431.662519 
L 590.543839 414.644961 
" clip-path="url(#pf86d2d9075)" style="fill: none; stroke-dasharray: 4.81,2.08; stroke-dashoffset: 0; stroke: #b91c1c; stroke-width: 1.3"/>
   </g>
   <g id="patch_89">
    <path d="M 48.742695 517.14918 
L 48.742695 391.450754 
" style="fill: none; stroke: #1f2937; stroke-width: 0.8; stroke-linejoin: miter; stroke-linecap: square"/>
   </g>
   <g id="patch_90">
    <path d="M 48.742695 517.14918 
L 621.15 517.14918 
" style="fill: none; stroke: #1f2937; stroke-width: 0.8; stroke-linejoin: miter; stroke-linecap: square"/>
   </g>
  </g>
 </g>
 <defs>
  <clipPath id="pb9608250c3">
   <rect x="48.742695" y="7.2" width="572.407305" height="251.396851"/>
  </clipPath>
  <clipPath id="pad27af83e8">
   <rect x="48.742695" y="262.17459" width="572.407305" height="125.698426"/>
  </clipPath>
  <clipPath id="pf86d2d9075">
   <rect x="48.742695" y="391.450754" width="572.407305" height="125.698426"/>
  </clipPath>
 </defs>
</svg>
