<?xml version="1.0" encoding="utf-8" standalone="no"?>
<!DOCTYPE svg PUBLIC "-//W3C//DTD SVG 1.1//EN"
  "http://www.w3.org/Graphics/SVG/1.1/DTD/svg11.dtd">
<svg xmlns:xlink="http://www.w3.org/1999/xlink" width="685.95pt" height="354.75pt" viewBox="0 0 685.95 354.75" xmlns="http://www.w3.org/2000/svg" version="1.1">
 <metadata>
  <rdf:RDF xmlns:dc="http://purl.org/dc/elements/1.1/" xmlns:cc="http://creativecommons.org/ns#" xmlns:rdf="http://www.w3.org/1999/02/22-rdf-syntax-ns#">
   <cc:Work>
    <dc:type rdf:resource="http://purl.org/dc/dcmitype/StillImage"/>
    <dc:date>2026-07-19T15:23:25.856424</dc:date>
    <dc:format>image/svg+xml</dc:format>
    <dc:creator>
     <cc:Agent>
      <dc:title>Matplotlib v3.11.1, https://matplotlib.org/</dc:title>
     </cc:Agent>
    </dc:creator>
   </cc:Work>
  </rdf:RDF>
 </metadata>
 <defs>
  <style type="text/css">*{stroke-linejoin: round; stroke-linecap: butt}</style>
 </defs>
 <g id="figure_1">
  <g id="patch_1">
   <path d="M 0 354.75 
L 685.95 354.75 
L 685.95 0 
L 0 0 
z
" style="fill: #ffffff"/>
  </g>
  <g id="axes_1">
   <g id="patch_2">
    <path d="M 7.2 322.52 
L 626.701016 322.52 
L 626.701016 25.0815 
L 7.2 25.0815 
z
" style="fill: #ffffff"/>
   </g>
   <g id="matplotlib.axis_1">
    <g id="text_1">
     <text style="font-size: 10px; font-family: 'Noto Naskh Arabic', 'DejaVu Sans'; text-anchor: middle; fill: #1f2937" x="316.950508" y="341.21" transform="rotate(-0 316.950508 341.21)">​ﻦﻣﺰﻟﺍ</text>
    </g>
   </g>
   <g id="matplotlib.axis_2">
    <g id="ytick_1">
     <g id="line2d_1">
      <path d="M 7.2 309.289318 
L 626.701016 309.289318 
" clip-path="url(#p47ba9b0e3f)" style="fill: none; stroke: #e6e1d6; stroke-width: 0.8; stroke-linecap: square"/>
     </g>
     <g id="line2d_2">
      <defs>
       <path id="m4104f7e8bd" d="M 0 0 
L 3.5 0 
" style="stroke: #555555; stroke-width: 0.8"/>
      </defs>
      <g>
       <use xlink:href="#m4104f7e8bd" x="626.701016" y="309.289318" style="fill: #555555; stroke: #555555; stroke-width: 0.8"/>
      </g>
     </g>
     <g id="text_2">
      <text style="font-size: 10.5px; font-family: 'Noto Naskh Arabic', 'DejaVu Sans'; text-anchor: start; fill: #555555" x="633.701016" y="314.901568" transform="rotate(-0 633.701016 314.901568)">95</text>
     </g>
    </g>
    <g id="ytick_2">
     <g id="line2d_3">
      <path d="M 7.2 249.298589 
L 626.701016 249.298589 
" clip-path="url(#p47ba9b0e3f)" style="fill: none; stroke: #e6e1d6; stroke-width: 0.8; stroke-linecap: square"/>
     </g>
     <g id="line2d_4">
      <g>
       <use xlink:href="#m4104f7e8bd" x="626.701016" y="249.298589" style="fill: #555555; stroke: #555555; stroke-width: 0.8"/>
      </g>
     </g>
     <g id="text_3">
      <text style="font-size: 10.5px; font-family: 'Noto Naskh Arabic', 'DejaVu Sans'; text-anchor: start; fill: #555555" x="633.701016" y="254.910839" transform="rotate(-0 633.701016 254.910839)">100</text>
     </g>
    </g>
    <g id="ytick_3">
     <g id="line2d_5">
      <path d="M 7.2 189.307861 
L 626.701016 189.307861 
" clip-path="url(#p47ba9b0e3f)" style="fill: none; stroke: #e6e1d6; stroke-width: 0.8; stroke-linecap: square"/>
     </g>
     <g id="line2d_6">
      <g>
       <use xlink:href="#m4104f7e8bd" x="626.701016" y="189.307861" style="fill: #555555; stroke: #555555; stroke-width: 0.8"/>
      </g>
     </g>
     <g id="text_4">
      <text style="font-size: 10.5px; font-family: 'Noto Naskh Arabic', 'DejaVu Sans'; text-anchor: start; fill: #555555" x="633.701016" y="194.920111" transform="rotate(-0 633.701016 194.920111)">105</text>
     </g>
    </g>
    <g id="ytick_4">
     <g id="line2d_7">
      <path d="M 7.2 129.317133 
L 626.701016 129.317133 
" clip-path="url(#p47ba9b0e3f)" style="fill: none; stroke: #e6e1d6; stroke-width: 0.8; stroke-linecap: square"/>
     </g>
     <g id="line2d_8">
      <g>
       <use xlink:href="#m4104f7e8bd" x="626.701016" y="129.317133" style="fill: #555555; stroke: #555555; stroke-width: 0.8"/>
      </g>
     </g>
     <g id="text_5">
      <text style="font-size: 10.5px; font-family: 'Noto Naskh Arabic', 'DejaVu Sans'; text-anchor: start; fill: #555555" x="633.701016" y="134.929383" transform="rotate(-0 633.701016 134.929383)">110</text>
     </g>
    </g>
    <g id="ytick_5">
     <g id="line2d_9">
      <path d="M 7.2 69.326405 
L 626.701016 69.326405 
" clip-path="url(#p47ba9b0e3f)" style="fill: none; stroke: #e6e1d6; stroke-width: 0.8; stroke-linecap: square"/>
     </g>
     <g id="line2d_10">
      <g>
       <use xlink:href="#m4104f7e8bd" x="626.701016" y="69.326405" style="fill: #555555; stroke: #555555; stroke-width: 0.8"/>
      </g>
     </g>
     <g id="text_6">
      <text style="font-size: 10.5px; font-family: 'Noto Naskh Arabic', 'DejaVu Sans'; text-anchor: start; fill: #555555" x="633.701016" y="74.938655" transform="rotate(-0 633.701016 74.938655)">115</text>
     </g>
    </g>
    <g id="text_7">
     <text style="font-size: 10px; font-family: 'Noto Naskh Arabic', 'DejaVu Sans'; text-anchor: middle; fill: #1f2937" x="668.06" y="173.80075" transform="rotate(-270 668.06 173.80075)">​ﺮﻌﺴﻟﺍ</text>
    </g>
   </g>
   <g id="patch_3">
    <path d="M 16.178276 271.533232 
L 168.808961 271.533232 
L 168.808961 236.764672 
L 16.178276 236.764672 
z
" clip-path="url(#p47ba9b0e3f)" style="fill: #dde7ee; opacity: 0.3; stroke: #1f2937; stroke-width: 1.4; stroke-linejoin: miter"/>
   </g>
   <g id="patch_4">
    <path d="M 321.439646 104.19337 
L 474.070331 104.19337 
L 474.070331 76.068268 
L 321.439646 76.068268 
z
" clip-path="url(#p47ba9b0e3f)" style="fill: #f4ebd9; opacity: 0.35; stroke: #b7791f; stroke-width: 1.4; stroke-linejoin: miter"/>
   </g>
   <g id="patch_5">
    <path d="M 626.701016 322.52 
L 626.701016 25.0815 
" style="fill: none; stroke: #1f2937; stroke-width: 0.8; stroke-linejoin: miter; stroke-linecap: square"/>
   </g>
   <g id="patch_6">
    <path d="M 7.2 322.52 
L 626.701016 322.52 
" style="fill: none; stroke: #1f2937; stroke-width: 0.8; stroke-linejoin: miter; stroke-linecap: square"/>
   </g>
   <g id="line2d_11">
    <path d="M 16.178276 252.94484 
L 16.178276 248.895126 
" clip-path="url(#p47ba9b0e3f)" style="fill: none; stroke: #b91c1c; stroke-width: 1.1; stroke-linecap: round"/>
   </g>
   <g id="line2d_12">
    <path d="M 25.156551 257.776311 
L 25.156551 251.42161 
" clip-path="url(#p47ba9b0e3f)" style="fill: none; stroke: #b91c1c; stroke-width: 1.1; stroke-linecap: round"/>
   </g>
   <g id="line2d_13">
    <path d="M 34.134827 264.905102 
L 34.134827 251.16114 
" clip-path="url(#p47ba9b0e3f)" style="fill: none; stroke: #b91c1c; stroke-width: 1.1; stroke-linecap: round"/>
   </g>
   <g id="line2d_14">
    <path d="M 43.113102 267.172259 
L 43.113102 262.957165 
" clip-path="url(#p47ba9b0e3f)" style="fill: none; stroke: #b91c1c; stroke-width: 1.1; stroke-linecap: round"/>
   </g>
   <g id="line2d_15">
    <path d="M 52.091378 269.133603 
L 52.091378 259.008873 
" clip-path="url(#p47ba9b0e3f)" style="fill: none; stroke: #1f8a56; stroke-width: 1.1; stroke-linecap: round"/>
   </g>
   <g id="line2d_16">
    <path d="M 61.069654 265.02306 
L 61.069654 260.508619 
" clip-path="url(#p47ba9b0e3f)" style="fill: none; stroke: #b91c1c; stroke-width: 1.1; stroke-linecap: round"/>
   </g>
   <g id="line2d_17">
    <path d="M 70.047929 265.492814 
L 70.047929 261.436704 
" clip-path="url(#p47ba9b0e3f)" style="fill: none; stroke: #1f8a56; stroke-width: 1.1; stroke-linecap: round"/>
   </g>
   <g id="line2d_18">
    <path d="M 79.026205 266.228013 
L 79.026205 251.21697 
" clip-path="url(#p47ba9b0e3f)" style="fill: none; stroke: #1f8a56; stroke-width: 1.1; stroke-linecap: round"/>
   </g>
   <g id="line2d_19">
    <path d="M 88.00448 257.349595 
L 88.00448 249.283371 
" clip-path="url(#p47ba9b0e3f)" style="fill: none; stroke: #b91c1c; stroke-width: 1.1; stroke-linecap: round"/>
   </g>
   <g id="line2d_20">
    <path d="M 96.982756 261.43108 
L 96.982756 250.110705 
" clip-path="url(#p47ba9b0e3f)" style="fill: none; stroke: #1f8a56; stroke-width: 1.1; stroke-linecap: round"/>
   </g>
   <g id="line2d_21">
    <path d="M 105.961031 258.19032 
L 105.961031 247.654876 
" clip-path="url(#p47ba9b0e3f)" style="fill: none; stroke: #b91c1c; stroke-width: 1.1; stroke-linecap: round"/>
   </g>
   <g id="line2d_22">
    <path d="M 114.939307 261.960368 
L 114.939307 249.999014 
" clip-path="url(#p47ba9b0e3f)" style="fill: none; stroke: #1f8a56; stroke-width: 1.1; stroke-linecap: round"/>
   </g>
   <g id="line2d_23">
    <path d="M 123.917583 252.278623 
L 123.917583 242.468739 
" clip-path="url(#p47ba9b0e3f)" style="fill: none; stroke: #1f8a56; stroke-width: 1.1; stroke-linecap: round"/>
   </g>
   <g id="line2d_24">
    <path d="M 132.895858 248.225708 
L 132.895858 241.081657 
" clip-path="url(#p47ba9b0e3f)" style="fill: none; stroke: #b91c1c; stroke-width: 1.1; stroke-linecap: round"/>
   </g>
   <g id="line2d_25">
    <path d="M 141.874134 246.754009 
L 141.874134 242.658129 
" clip-path="url(#p47ba9b0e3f)" style="fill: none; stroke: #1f8a56; stroke-width: 1.1; stroke-linecap: round"/>
   </g>
   <g id="line2d_26">
    <path d="M 150.852409 247.397937 
L 150.852409 243.314944 
" clip-path="url(#p47ba9b0e3f)" style="fill: none; stroke: #b91c1c; stroke-width: 1.1; stroke-linecap: round"/>
   </g>
   <g id="line2d_27">
    <path d="M 159.830685 248.83557 
L 159.830685 239.164301 
" clip-path="url(#p47ba9b0e3f)" style="fill: none; stroke: #b91c1c; stroke-width: 1.1; stroke-linecap: round"/>
   </g>
   <g id="line2d_28">
    <path d="M 168.808961 249.789379 
L 168.808961 248.800927 
" clip-path="url(#p47ba9b0e3f)" style="fill: none; stroke: #1f8a56; stroke-width: 1.1; stroke-linecap: round"/>
   </g>
   <g id="line2d_29">
    <path d="M 177.787236 248.261917 
L 177.787236 231.798161 
" clip-path="url(#p47ba9b0e3f)" style="fill: none; stroke: #1f8a56; stroke-width: 1.1; stroke-linecap: round"/>
   </g>
   <g id="line2d_30">
    <path d="M 186.765512 235.674334 
L 186.765512 218.514153 
" clip-path="url(#p47ba9b0e3f)" style="fill: none; stroke: #1f8a56; stroke-width: 1.1; stroke-linecap: round"/>
   </g>
   <g id="line2d_31">
    <path d="M 195.743787 216.824119 
L 195.743787 201.734532 
" clip-path="url(#p47ba9b0e3f)" style="fill: none; stroke: #1f8a56; stroke-width: 1.1; stroke-linecap: round"/>
   </g>
   <g id="line2d_32">
    <path d="M 204.722063 203.192735 
L 204.722063 192.351365 
" clip-path="url(#p47ba9b0e3f)" style="fill: none; stroke: #1f8a56; stroke-width: 1.1; stroke-linecap: round"/>
   </g>
   <g id="line2d_33">
    <path d="M 213.700339 187.921848 
L 213.700339 178.809692 
" clip-path="url(#p47ba9b0e3f)" style="fill: none; stroke: #1f8a56; stroke-width: 1.1; stroke-linecap: round"/>
   </g>
   <g id="line2d_34">
    <path d="M 222.678614 181.541672 
L 222.678614 177.899518 
" clip-path="url(#p47ba9b0e3f)" style="fill: none; stroke: #b91c1c; stroke-width: 1.1; stroke-linecap: round"/>
   </g>
   <g id="line2d_35">
    <path d="M 231.65689 181.655011 
L 231.65689 179.080766 
" clip-path="url(#p47ba9b0e3f)" style="fill: none; stroke: #1f8a56; stroke-width: 1.1; stroke-linecap: round"/>
   </g>
   <g id="line2d_36">
    <path d="M 240.635165 180.763163 
L 240.635165 170.184989 
" clip-path="url(#p47ba9b0e3f)" style="fill: none; stroke: #1f8a56; stroke-width: 1.1; stroke-linecap: round"/>
   </g>
   <g id="line2d_37">
    <path d="M 249.613441 171.379263 
L 249.613441 168.679177 
" clip-path="url(#p47ba9b0e3f)" style="fill: none; stroke: #1f8a56; stroke-width: 1.1; stroke-linecap: round"/>
   </g>
   <g id="line2d_38">
    <path d="M 258.591716 171.032596 
L 258.591716 152.993924 
" clip-path="url(#p47ba9b0e3f)" style="fill: none; stroke: #1f8a56; stroke-width: 1.1; stroke-linecap: round"/>
   </g>
   <g id="line2d_39">
    <path d="M 267.569992 157.755766 
L 267.569992 143.747769 
" clip-path="url(#p47ba9b0e3f)" style="fill: none; stroke: #1f8a56; stroke-width: 1.1; stroke-linecap: round"/>
   </g>
   <g id="line2d_40">
    <path d="M 276.548268 142.809604 
L 276.548268 132.416356 
" clip-path="url(#p47ba9b0e3f)" style="fill: none; stroke: #1f8a56; stroke-width: 1.1; stroke-linecap: round"/>
   </g>
   <g id="line2d_41">
    <path d="M 285.526543 134.375647 
L 285.526543 126.716466 
" clip-path="url(#p47ba9b0e3f)" style="fill: none; stroke: #1f8a56; stroke-width: 1.1; stroke-linecap: round"/>
   </g>
   <g id="line2d_42">
    <path d="M 294.504819 132.622316 
L 294.504819 128.035598 
" clip-path="url(#p47ba9b0e3f)" style="fill: none; stroke: #1f8a56; stroke-width: 1.1; stroke-linecap: round"/>
   </g>
   <g id="line2d_43">
    <path d="M 303.483094 129.563946 
L 303.483094 117.721648 
" clip-path="url(#p47ba9b0e3f)" style="fill: none; stroke: #1f8a56; stroke-width: 1.1; stroke-linecap: round"/>
   </g>
   <g id="line2d_44">
    <path d="M 312.46137 119.788938 
L 312.46137 94.868895 
" clip-path="url(#p47ba9b0e3f)" style="fill: none; stroke: #1f8a56; stroke-width: 1.1; stroke-linecap: round"/>
   </g>
   <g id="line2d_45">
    <path d="M 321.439646 98.435951 
L 321.439646 88.851435 
" clip-path="url(#p47ba9b0e3f)" style="fill: none; stroke: #1f8a56; stroke-width: 1.1; stroke-linecap: round"/>
   </g>
   <g id="line2d_46">
    <path d="M 330.417921 92.295619 
L 330.417921 81.437685 
" clip-path="url(#p47ba9b0e3f)" style="fill: none; stroke: #1f8a56; stroke-width: 1.1; stroke-linecap: round"/>
   </g>
   <g id="line2d_47">
    <path d="M 339.396197 93.470654 
L 339.396197 78.467897 
" clip-path="url(#p47ba9b0e3f)" style="fill: none; stroke: #b91c1c; stroke-width: 1.1; stroke-linecap: round"/>
   </g>
   <g id="line2d_48">
    <path d="M 348.374472 91.752848 
L 348.374472 90.247322 
" clip-path="url(#p47ba9b0e3f)" style="fill: none; stroke: #b91c1c; stroke-width: 1.1; stroke-linecap: round"/>
   </g>
   <g id="line2d_49">
    <path d="M 357.352748 94.451202 
L 357.352748 88.803359 
" clip-path="url(#p47ba9b0e3f)" style="fill: none; stroke: #b91c1c; stroke-width: 1.1; stroke-linecap: round"/>
   </g>
   <g id="line2d_50">
    <path d="M 366.331024 99.863758 
L 366.331024 92.662228 
" clip-path="url(#p47ba9b0e3f)" style="fill: none; stroke: #b91c1c; stroke-width: 1.1; stroke-linecap: round"/>
   </g>
   <g id="line2d_51">
    <path d="M 375.309299 98.353543 
L 375.309299 95.174095 
" clip-path="url(#p47ba9b0e3f)" style="fill: none; stroke: #1f8a56; stroke-width: 1.1; stroke-linecap: round"/>
   </g>
   <g id="line2d_52">
    <path d="M 384.287575 101.793741 
L 384.287575 93.421288 
" clip-path="url(#p47ba9b0e3f)" style="fill: none; stroke: #b91c1c; stroke-width: 1.1; stroke-linecap: round"/>
   </g>
   <g id="line2d_53">
    <path d="M 393.26585 98.65548 
L 393.26585 90.598683 
" clip-path="url(#p47ba9b0e3f)" style="fill: none; stroke: #1f8a56; stroke-width: 1.1; stroke-linecap: round"/>
   </g>
   <g id="line2d_54">
    <path d="M 402.244126 96.61898 
L 402.244126 87.914081 
" clip-path="url(#p47ba9b0e3f)" style="fill: none; stroke: #b91c1c; stroke-width: 1.1; stroke-linecap: round"/>
   </g>
   <g id="line2d_55">
    <path d="M 411.222401 96.695852 
L 411.222401 87.44044 
" clip-path="url(#p47ba9b0e3f)" style="fill: none; stroke: #1f8a56; stroke-width: 1.1; stroke-linecap: round"/>
   </g>
   <g id="line2d_56">
    <path d="M 420.200677 87.634572 
L 420.200677 85.360634 
" clip-path="url(#p47ba9b0e3f)" style="fill: none; stroke: #1f8a56; stroke-width: 1.1; stroke-linecap: round"/>
   </g>
   <g id="line2d_57">
    <path d="M 429.178953 98.562267 
L 429.178953 87.978634 
" clip-path="url(#p47ba9b0e3f)" style="fill: none; stroke: #b91c1c; stroke-width: 1.1; stroke-linecap: round"/>
   </g>
   <g id="line2d_58">
    <path d="M 438.157228 97.961999 
L 438.157228 91.934266 
" clip-path="url(#p47ba9b0e3f)" style="fill: none; stroke: #1f8a56; stroke-width: 1.1; stroke-linecap: round"/>
   </g>
   <g id="line2d_59">
    <path d="M 447.135504 91.929053 
L 447.135504 91.099634 
" clip-path="url(#p47ba9b0e3f)" style="fill: none; stroke: #b91c1c; stroke-width: 1.1; stroke-linecap: round"/>
   </g>
   <g id="line2d_60">
    <path d="M 456.113779 95.338907 
L 456.113779 88.32416 
" clip-path="url(#p47ba9b0e3f)" style="fill: none; stroke: #1f8a56; stroke-width: 1.1; stroke-linecap: round"/>
   </g>
   <g id="line2d_61">
    <path d="M 465.092055 94.071776 
L 465.092055 89.70418 
" clip-path="url(#p47ba9b0e3f)" style="fill: none; stroke: #b91c1c; stroke-width: 1.1; stroke-linecap: round"/>
   </g>
   <g id="line2d_62">
    <path d="M 474.070331 95.171605 
L 474.070331 91.077016 
" clip-path="url(#p47ba9b0e3f)" style="fill: none; stroke: #b91c1c; stroke-width: 1.1; stroke-linecap: round"/>
   </g>
   <g id="line2d_63">
    <path d="M 483.048606 105.521171 
L 483.048606 95.262602 
" clip-path="url(#p47ba9b0e3f)" style="fill: none; stroke: #b91c1c; stroke-width: 1.1; stroke-linecap: round"/>
   </g>
   <g id="line2d_64">
    <path d="M 492.026882 111.255134 
L 492.026882 104.846115 
" clip-path="url(#p47ba9b0e3f)" style="fill: none; stroke: #b91c1c; stroke-width: 1.1; stroke-linecap: round"/>
   </g>
   <g id="line2d_65">
    <path d="M 501.005157 120.917528 
L 501.005157 111.32638 
" clip-path="url(#p47ba9b0e3f)" style="fill: none; stroke: #b91c1c; stroke-width: 1.1; stroke-linecap: round"/>
   </g>
   <g id="line2d_66">
    <path d="M 509.983433 137.700432 
L 509.983433 119.021217 
" clip-path="url(#p47ba9b0e3f)" style="fill: none; stroke: #b91c1c; stroke-width: 1.1; stroke-linecap: round"/>
   </g>
   <g id="line2d_67">
    <path d="M 518.961709 141.381535 
L 518.961709 136.156581 
" clip-path="url(#p47ba9b0e3f)" style="fill: none; stroke: #b91c1c; stroke-width: 1.1; stroke-linecap: round"/>
   </g>
   <g id="line2d_68">
    <path d="M 527.939984 154.359001 
L 527.939984 138.211337 
" clip-path="url(#p47ba9b0e3f)" style="fill: none; stroke: #b91c1c; stroke-width: 1.1; stroke-linecap: round"/>
   </g>
   <g id="line2d_69">
    <path d="M 536.91826 158.313723 
L 536.91826 154.054336 
" clip-path="url(#p47ba9b0e3f)" style="fill: none; stroke: #b91c1c; stroke-width: 1.1; stroke-linecap: round"/>
   </g>
   <g id="line2d_70">
    <path d="M 545.896535 165.948427 
L 545.896535 154.72837 
" clip-path="url(#p47ba9b0e3f)" style="fill: none; stroke: #b91c1c; stroke-width: 1.1; stroke-linecap: round"/>
   </g>
   <g id="line2d_71">
    <path d="M 554.874811 176.34788 
L 554.874811 162.388684 
" clip-path="url(#p47ba9b0e3f)" style="fill: none; stroke: #b91c1c; stroke-width: 1.1; stroke-linecap: round"/>
   </g>
   <g id="line2d_72">
    <path d="M 563.853087 190.632813 
L 563.853087 175.68022 
" clip-path="url(#p47ba9b0e3f)" style="fill: none; stroke: #b91c1c; stroke-width: 1.1; stroke-linecap: round"/>
   </g>
   <g id="line2d_73">
    <path d="M 572.831362 204.964317 
L 572.831362 187.33129 
" clip-path="url(#p47ba9b0e3f)" style="fill: none; stroke: #b91c1c; stroke-width: 1.1; stroke-linecap: round"/>
   </g>
   <g id="line2d_74">
    <path d="M 581.809638 208.239607 
L 581.809638 201.303363 
" clip-path="url(#p47ba9b0e3f)" style="fill: none; stroke: #1f8a56; stroke-width: 1.1; stroke-linecap: round"/>
   </g>
   <g id="line2d_75">
    <path d="M 590.787913 205.18296 
L 590.787913 199.109009 
" clip-path="url(#p47ba9b0e3f)" style="fill: none; stroke: #b91c1c; stroke-width: 1.1; stroke-linecap: round"/>
   </g>
   <g id="line2d_76">
    <path d="M 599.766189 209.081566 
L 599.766189 203.749821 
" clip-path="url(#p47ba9b0e3f)" style="fill: none; stroke: #b91c1c; stroke-width: 1.1; stroke-linecap: round"/>
   </g>
   <g id="line2d_77">
    <path d="M 608.744464 225.110121 
L 608.744464 206.207713 
" clip-path="url(#p47ba9b0e3f)" style="fill: none; stroke: #b91c1c; stroke-width: 1.1; stroke-linecap: round"/>
   </g>
   <g id="line2d_78">
    <path d="M 617.72274 239.383428 
L 617.72274 221.329281 
" clip-path="url(#p47ba9b0e3f)" style="fill: none; stroke: #b91c1c; stroke-width: 1.1; stroke-linecap: round"/>
   </g>
   <g id="text_8">
    <text style="font-weight: 700; font-size: 9px; font-family: 'Noto Naskh Arabic', 'DejaVu Sans'; fill: #1f2937" transform="translate(80.037056 211.559445)">​ﻊﻴﻤﺠﺘﻟﺍ</text>
    <text style="font-weight: 700; font-size: 9px; font-family: 'Noto Naskh Arabic', 'DejaVu Sans'; fill: #1f2937" transform="translate(53.898384 226.886445)">(Accumulation)</text>
   </g>
   <g id="text_9">
    <text style="font-weight: 700; font-size: 9.5px; font-family: 'Noto Naskh Arabic', 'DejaVu Sans'; text-anchor: middle; fill: #1f8a56" x="240.635165" y="170.658054" transform="rotate(-0 240.635165 170.658054)">​(Markup) ﻱﺩﻮﻌﺼﻟﺍ ﺞﻳﻭﺮﺘﻟﺍ</text>
   </g>
   <g id="text_10">
    <text style="font-weight: 700; font-size: 9px; font-family: 'Noto Naskh Arabic', 'DejaVu Sans'; fill: #b7791f" transform="translate(386.297566 51.660256)">​ﻊﻳﺯﻮﺘﻟﺍ</text>
    <text style="font-weight: 700; font-size: 9px; font-family: 'Noto Naskh Arabic', 'DejaVu Sans'; fill: #b7791f" transform="translate(363.359519 66.987256)">(Distribution)</text>
   </g>
   <g id="text_11">
    <text style="font-weight: 700; font-size: 9.5px; font-family: 'Noto Naskh Arabic', 'DejaVu Sans'; text-anchor: middle; fill: #b91c1c" x="545.896535" y="166.470514" transform="rotate(-0 545.896535 166.470514)">​(Markdown) ﻲﻃﻮﺒﻬﻟﺍ ﺞﻳﻭﺮﺘﻟﺍ</text>
   </g>
   <g id="text_12">
    <text style="font-weight: 700; font-size: 10.5px; font-family: 'Noto Naskh Arabic', 'DejaVu Sans'; text-anchor: middle; fill: #1f2937" x="316.950508" y="18.4245" transform="rotate(-0 316.950508 18.4245)">​ﻲﻃﻮﺒﻫ ﺞﻳﻭﺮﺗ ← ﻊﻳﺯﻮﺗ ← ﻱﺩﻮﻌﺻ ﺞﻳﻭﺮﺗ ← ﻊﻴﻤﺠﺗ :ﺔﻠﻣﺎﻜﻟﺍ ﻑﻮﻜﻳﻭ ﺓﺭﻭﺩ</text>
   </g>
   <g id="patch_7">
    <path d="M 13.70925 252.447736 
L 18.647301 252.447736 
L 18.647301 246.727764 
L 13.70925 246.727764 
z
" clip-path="url(#p47ba9b0e3f)" style="fill: #b91c1c; stroke: #b91c1c; stroke-linejoin: miter"/>
   </g>
   <g id="patch_8">
    <path d="M 22.687525 257.549821 
L 27.625577 257.549821 
L 27.625577 251.516951 
L 22.687525 251.516951 
z
" clip-path="url(#p47ba9b0e3f)" style="fill: #b91c1c; stroke: #b91c1c; stroke-linejoin: miter"/>
   </g>
   <g id="patch_9">
    <path d="M 31.665801 263.373423 
L 36.603853 263.373423 
L 36.603853 253.082096 
L 31.665801 253.082096 
z
" clip-path="url(#p47ba9b0e3f)" style="fill: #b91c1c; stroke: #b91c1c; stroke-linejoin: miter"/>
   </g>
   <g id="patch_10">
    <path d="M 40.644077 266.736136 
L 45.582128 266.736136 
L 45.582128 261.016165 
L 40.644077 261.016165 
z
" clip-path="url(#p47ba9b0e3f)" style="fill: #b91c1c; stroke: #b91c1c; stroke-linejoin: miter"/>
   </g>
   <g id="patch_11">
    <path d="M 49.622352 268.105294 
L 54.560404 268.105294 
L 54.560404 259.884156 
L 49.622352 259.884156 
z
" clip-path="url(#p47ba9b0e3f)" style="fill: #1f8a56; stroke: #1f8a56; stroke-linejoin: miter"/>
   </g>
   <g id="patch_12">
    <path d="M 58.600628 262.460357 
L 63.538679 262.460357 
L 63.538679 256.740385 
L 58.600628 256.740385 
z
" clip-path="url(#p47ba9b0e3f)" style="fill: #b91c1c; stroke: #b91c1c; stroke-linejoin: miter"/>
   </g>
   <g id="patch_13">
    <path d="M 67.578903 263.899423 
L 72.516955 263.899423 
L 72.516955 258.179451 
L 67.578903 258.179451 
z
" clip-path="url(#p47ba9b0e3f)" style="fill: #1f8a56; stroke: #1f8a56; stroke-linejoin: miter"/>
   </g>
   <g id="patch_14">
    <path d="M 76.557179 264.096148 
L 81.49523 264.096148 
L 81.49523 253.926015 
L 76.557179 253.926015 
z
" clip-path="url(#p47ba9b0e3f)" style="fill: #1f8a56; stroke: #1f8a56; stroke-linejoin: miter"/>
   </g>
   <g id="patch_15">
    <path d="M 85.535455 256.075605 
L 90.473506 256.075605 
L 90.473506 250.355634 
L 85.535455 250.355634 
z
" clip-path="url(#p47ba9b0e3f)" style="fill: #b91c1c; stroke: #b91c1c; stroke-linejoin: miter"/>
   </g>
   <g id="patch_16">
    <path d="M 94.51373 260.255453 
L 99.451782 260.255453 
L 99.451782 250.541088 
L 94.51373 250.541088 
z
" clip-path="url(#p47ba9b0e3f)" style="fill: #1f8a56; stroke: #1f8a56; stroke-linejoin: miter"/>
   </g>
   <g id="patch_17">
    <path d="M 103.492006 257.82594 
L 108.430057 257.82594 
L 108.430057 249.678185 
L 103.492006 249.678185 
z
" clip-path="url(#p47ba9b0e3f)" style="fill: #b91c1c; stroke: #b91c1c; stroke-linejoin: miter"/>
   </g>
   <g id="patch_18">
    <path d="M 112.470281 260.8675 
L 117.408333 260.8675 
L 117.408333 250.932905 
L 112.470281 250.932905 
z
" clip-path="url(#p47ba9b0e3f)" style="fill: #1f8a56; stroke: #1f8a56; stroke-linejoin: miter"/>
   </g>
   <g id="patch_19">
    <path d="M 121.448557 251.040743 
L 126.386608 251.040743 
L 126.386608 243.451676 
L 121.448557 243.451676 
z
" clip-path="url(#p47ba9b0e3f)" style="fill: #1f8a56; stroke: #1f8a56; stroke-linejoin: miter"/>
   </g>
   <g id="patch_20">
    <path d="M 130.426832 247.804665 
L 135.364884 247.804665 
L 135.364884 242.084693 
L 130.426832 242.084693 
z
" clip-path="url(#p47ba9b0e3f)" style="fill: #b91c1c; stroke: #b91c1c; stroke-linejoin: miter"/>
   </g>
   <g id="patch_21">
    <path d="M 139.405108 245.846059 
L 144.34316 245.846059 
L 144.34316 240.126088 
L 139.405108 240.126088 
z
" clip-path="url(#p47ba9b0e3f)" style="fill: #1f8a56; stroke: #1f8a56; stroke-linejoin: miter"/>
   </g>
   <g id="patch_22">
    <path d="M 148.383384 245.355002 
L 153.321435 245.355002 
L 153.321435 239.63503 
L 148.383384 239.63503 
z
" clip-path="url(#p47ba9b0e3f)" style="fill: #b91c1c; stroke: #b91c1c; stroke-linejoin: miter"/>
   </g>
   <g id="patch_23">
    <path d="M 157.361659 247.179002 
L 162.299711 247.179002 
L 162.299711 240.834171 
L 157.361659 240.834171 
z
" clip-path="url(#p47ba9b0e3f)" style="fill: #b91c1c; stroke: #b91c1c; stroke-linejoin: miter"/>
   </g>
   <g id="patch_24">
    <path d="M 166.339935 249.596497 
L 171.277986 249.596497 
L 171.277986 243.876526 
L 166.339935 243.876526 
z
" clip-path="url(#p47ba9b0e3f)" style="fill: #1f8a56; stroke: #1f8a56; stroke-linejoin: miter"/>
   </g>
   <g id="patch_25">
    <path d="M 175.31821 247.395271 
L 180.256262 247.395271 
L 180.256262 232.485276 
L 175.31821 232.485276 
z
" clip-path="url(#p47ba9b0e3f)" style="fill: #1f8a56; stroke: #1f8a56; stroke-linejoin: miter"/>
   </g>
   <g id="patch_26">
    <path d="M 184.296486 233.970928 
L 189.234538 233.970928 
L 189.234538 218.698038 
L 184.296486 218.698038 
z
" clip-path="url(#p47ba9b0e3f)" style="fill: #1f8a56; stroke: #1f8a56; stroke-linejoin: miter"/>
   </g>
   <g id="patch_27">
    <path d="M 193.274762 215.81971 
L 198.212813 215.81971 
L 198.212813 203.384141 
L 193.274762 203.384141 
z
" clip-path="url(#p47ba9b0e3f)" style="fill: #1f8a56; stroke: #1f8a56; stroke-linejoin: miter"/>
   </g>
   <g id="patch_28">
    <path d="M 202.253037 201.585321 
L 207.191089 201.585321 
L 207.191089 193.098163 
L 202.253037 193.098163 
z
" clip-path="url(#p47ba9b0e3f)" style="fill: #1f8a56; stroke: #1f8a56; stroke-linejoin: miter"/>
   </g>
   <g id="patch_29">
    <path d="M 211.231313 187.121129 
L 216.169364 187.121129 
L 216.169364 178.881405 
L 211.231313 178.881405 
z
" clip-path="url(#p47ba9b0e3f)" style="fill: #1f8a56; stroke: #1f8a56; stroke-linejoin: miter"/>
   </g>
   <g id="patch_30">
    <path d="M 220.209588 180.006806 
L 225.14764 180.006806 
L 225.14764 174.286835 
L 220.209588 174.286835 
z
" clip-path="url(#p47ba9b0e3f)" style="fill: #b91c1c; stroke: #b91c1c; stroke-linejoin: miter"/>
   </g>
   <g id="patch_31">
    <path d="M 229.187864 181.207133 
L 234.125916 181.207133 
L 234.125916 175.487162 
L 229.187864 175.487162 
z
" clip-path="url(#p47ba9b0e3f)" style="fill: #1f8a56; stroke: #1f8a56; stroke-linejoin: miter"/>
   </g>
   <g id="patch_32">
    <path d="M 238.16614 179.655509 
L 243.104191 179.655509 
L 243.104191 170.447021 
L 238.16614 170.447021 
z
" clip-path="url(#p47ba9b0e3f)" style="fill: #1f8a56; stroke: #1f8a56; stroke-linejoin: miter"/>
   </g>
   <g id="patch_33">
    <path d="M 247.144415 171.297917 
L 252.082467 171.297917 
L 252.082467 165.577945 
L 247.144415 165.577945 
z
" clip-path="url(#p47ba9b0e3f)" style="fill: #1f8a56; stroke: #1f8a56; stroke-linejoin: miter"/>
   </g>
   <g id="patch_34">
    <path d="M 256.122691 170.337362 
L 261.060742 170.337362 
L 261.060742 155.295382 
L 256.122691 155.295382 
z
" clip-path="url(#p47ba9b0e3f)" style="fill: #1f8a56; stroke: #1f8a56; stroke-linejoin: miter"/>
   </g>
   <g id="patch_35">
    <path d="M 265.100966 156.772134 
L 270.039018 156.772134 
L 270.039018 143.801127 
L 265.100966 143.801127 
z
" clip-path="url(#p47ba9b0e3f)" style="fill: #1f8a56; stroke: #1f8a56; stroke-linejoin: miter"/>
   </g>
   <g id="patch_36">
    <path d="M 274.079242 140.208937 
L 279.017293 140.208937 
L 279.017293 132.807164 
L 274.079242 132.807164 
z
" clip-path="url(#p47ba9b0e3f)" style="fill: #1f8a56; stroke: #1f8a56; stroke-linejoin: miter"/>
   </g>
   <g id="patch_37">
    <path d="M 283.057517 133.190291 
L 287.995569 133.190291 
L 287.995569 127.47032 
L 283.057517 127.47032 
z
" clip-path="url(#p47ba9b0e3f)" style="fill: #1f8a56; stroke: #1f8a56; stroke-linejoin: miter"/>
   </g>
   <g id="patch_38">
    <path d="M 292.035793 130.356686 
L 296.973845 130.356686 
L 296.973845 124.636714 
L 292.035793 124.636714 
z
" clip-path="url(#p47ba9b0e3f)" style="fill: #1f8a56; stroke: #1f8a56; stroke-linejoin: miter"/>
   </g>
   <g id="patch_39">
    <path d="M 301.014069 128.92037 
L 305.95212 128.92037 
L 305.95212 118.429349 
L 301.014069 118.429349 
z
" clip-path="url(#p47ba9b0e3f)" style="fill: #1f8a56; stroke: #1f8a56; stroke-linejoin: miter"/>
   </g>
   <g id="patch_40">
    <path d="M 309.992344 119.533642 
L 314.930396 119.533642 
L 314.930396 96.988159 
L 309.992344 96.988159 
z
" clip-path="url(#p47ba9b0e3f)" style="fill: #1f8a56; stroke: #1f8a56; stroke-linejoin: miter"/>
   </g>
   <g id="patch_41">
    <path d="M 318.97062 96.613519 
L 323.908671 96.613519 
L 323.908671 90.893547 
L 318.97062 90.893547 
z
" clip-path="url(#p47ba9b0e3f)" style="fill: #1f8a56; stroke: #1f8a56; stroke-linejoin: miter"/>
   </g>
   <g id="patch_42">
    <path d="M 327.948895 91.969989 
L 332.886947 91.969989 
L 332.886947 82.101912 
L 327.948895 82.101912 
z
" clip-path="url(#p47ba9b0e3f)" style="fill: #1f8a56; stroke: #1f8a56; stroke-linejoin: miter"/>
   </g>
   <g id="patch_43">
    <path d="M 336.927171 91.713336 
L 341.865223 91.713336 
L 341.865223 80.847055 
L 336.927171 80.847055 
z
" clip-path="url(#p47ba9b0e3f)" style="fill: #b91c1c; stroke: #b91c1c; stroke-linejoin: miter"/>
   </g>
   <g id="patch_44">
    <path d="M 345.905447 91.694537 
L 350.843498 91.694537 
L 350.843498 85.974566 
L 345.905447 85.974566 
z
" clip-path="url(#p47ba9b0e3f)" style="fill: #b91c1c; stroke: #b91c1c; stroke-linejoin: miter"/>
   </g>
   <g id="patch_45">
    <path d="M 354.883722 94.43907 
L 359.821774 94.43907 
L 359.821774 88.719099 
L 354.883722 88.719099 
z
" clip-path="url(#p47ba9b0e3f)" style="fill: #b91c1c; stroke: #b91c1c; stroke-linejoin: miter"/>
   </g>
   <g id="patch_46">
    <path d="M 363.861998 97.19282 
L 368.800049 97.19282 
L 368.800049 91.472848 
L 363.861998 91.472848 
z
" clip-path="url(#p47ba9b0e3f)" style="fill: #b91c1c; stroke: #b91c1c; stroke-linejoin: miter"/>
   </g>
   <g id="patch_47">
    <path d="M 372.840273 97.111818 
L 377.778325 97.111818 
L 377.778325 91.391847 
L 372.840273 91.391847 
z
" clip-path="url(#p47ba9b0e3f)" style="fill: #1f8a56; stroke: #1f8a56; stroke-linejoin: miter"/>
   </g>
   <g id="patch_48">
    <path d="M 381.818549 99.983399 
L 386.756601 99.983399 
L 386.756601 94.263428 
L 381.818549 94.263428 
z
" clip-path="url(#p47ba9b0e3f)" style="fill: #b91c1c; stroke: #b91c1c; stroke-linejoin: miter"/>
   </g>
   <g id="patch_49">
    <path d="M 390.796825 98.453312 
L 395.734876 98.453312 
L 395.734876 91.847036 
L 390.796825 91.847036 
z
" clip-path="url(#p47ba9b0e3f)" style="fill: #1f8a56; stroke: #1f8a56; stroke-linejoin: miter"/>
   </g>
   <g id="patch_50">
    <path d="M 399.7751 92.372304 
L 404.713152 92.372304 
L 404.713152 86.652333 
L 399.7751 86.652333 
z
" clip-path="url(#p47ba9b0e3f)" style="fill: #b91c1c; stroke: #b91c1c; stroke-linejoin: miter"/>
   </g>
   <g id="patch_51">
    <path d="M 408.753376 94.580188 
L 413.691427 94.580188 
L 413.691427 88.860217 
L 408.753376 88.860217 
z
" clip-path="url(#p47ba9b0e3f)" style="fill: #1f8a56; stroke: #1f8a56; stroke-linejoin: miter"/>
   </g>
   <g id="patch_52">
    <path d="M 417.731651 87.234369 
L 422.669703 87.234369 
L 422.669703 81.514398 
L 417.731651 81.514398 
z
" clip-path="url(#p47ba9b0e3f)" style="fill: #1f8a56; stroke: #1f8a56; stroke-linejoin: miter"/>
   </g>
   <g id="patch_53">
    <path d="M 426.709927 96.798931 
L 431.647978 96.798931 
L 431.647978 88.142235 
L 426.709927 88.142235 
z
" clip-path="url(#p47ba9b0e3f)" style="fill: #b91c1c; stroke: #b91c1c; stroke-linejoin: miter"/>
   </g>
   <g id="patch_54">
    <path d="M 435.688202 95.131214 
L 440.626254 95.131214 
L 440.626254 89.411243 
L 435.688202 89.411243 
z
" clip-path="url(#p47ba9b0e3f)" style="fill: #1f8a56; stroke: #1f8a56; stroke-linejoin: miter"/>
   </g>
   <g id="patch_55">
    <path d="M 444.666478 91.775586 
L 449.60453 91.775586 
L 449.60453 86.055615 
L 444.666478 86.055615 
z
" clip-path="url(#p47ba9b0e3f)" style="fill: #b91c1c; stroke: #b91c1c; stroke-linejoin: miter"/>
   </g>
   <g id="patch_56">
    <path d="M 453.644754 93.287195 
L 458.582805 93.287195 
L 458.582805 87.567224 
L 453.644754 87.567224 
z
" clip-path="url(#p47ba9b0e3f)" style="fill: #1f8a56; stroke: #1f8a56; stroke-linejoin: miter"/>
   </g>
   <g id="patch_57">
    <path d="M 462.623029 92.700221 
L 467.561081 92.700221 
L 467.561081 86.980249 
L 462.623029 86.980249 
z
" clip-path="url(#p47ba9b0e3f)" style="fill: #b91c1c; stroke: #b91c1c; stroke-linejoin: miter"/>
   </g>
   <g id="patch_58">
    <path d="M 471.601305 94.481595 
L 476.539356 94.481595 
L 476.539356 88.761624 
L 471.601305 88.761624 
z
" clip-path="url(#p47ba9b0e3f)" style="fill: #b91c1c; stroke: #b91c1c; stroke-linejoin: miter"/>
   </g>
   <g id="patch_59">
    <path d="M 480.57958 104.894559 
L 485.517632 104.894559 
L 485.517632 96.139792 
L 480.57958 96.139792 
z
" clip-path="url(#p47ba9b0e3f)" style="fill: #b91c1c; stroke: #b91c1c; stroke-linejoin: miter"/>
   </g>
   <g id="patch_60">
    <path d="M 489.557856 111.036586 
L 494.495908 111.036586 
L 494.495908 105.004145 
L 489.557856 105.004145 
z
" clip-path="url(#p47ba9b0e3f)" style="fill: #b91c1c; stroke: #b91c1c; stroke-linejoin: miter"/>
   </g>
   <g id="patch_61">
    <path d="M 498.536132 120.813013 
L 503.474183 120.813013 
L 503.474183 112.426851 
L 498.536132 112.426851 
z
" clip-path="url(#p47ba9b0e3f)" style="fill: #b91c1c; stroke: #b91c1c; stroke-linejoin: miter"/>
   </g>
   <g id="patch_62">
    <path d="M 507.514407 137.022363 
L 512.452459 137.022363 
L 512.452459 121.264994 
L 507.514407 121.264994 
z
" clip-path="url(#p47ba9b0e3f)" style="fill: #b91c1c; stroke: #b91c1c; stroke-linejoin: miter"/>
   </g>
   <g id="patch_63">
    <path d="M 516.492683 141.04425 
L 521.430734 141.04425 
L 521.430734 135.324278 
L 516.492683 135.324278 
z
" clip-path="url(#p47ba9b0e3f)" style="fill: #b91c1c; stroke: #b91c1c; stroke-linejoin: miter"/>
   </g>
   <g id="patch_64">
    <path d="M 525.470958 154.064395 
L 530.40901 154.064395 
L 530.40901 140.123976 
L 525.470958 140.123976 
z
" clip-path="url(#p47ba9b0e3f)" style="fill: #b91c1c; stroke: #b91c1c; stroke-linejoin: miter"/>
   </g>
   <g id="patch_65">
    <path d="M 534.449234 156.120093 
L 539.387286 156.120093 
L 539.387286 150.400122 
L 534.449234 150.400122 
z
" clip-path="url(#p47ba9b0e3f)" style="fill: #b91c1c; stroke: #b91c1c; stroke-linejoin: miter"/>
   </g>
   <g id="patch_66">
    <path d="M 543.42751 163.800299 
L 548.365561 163.800299 
L 548.365561 155.102751 
L 543.42751 155.102751 
z
" clip-path="url(#p47ba9b0e3f)" style="fill: #b91c1c; stroke: #b91c1c; stroke-linejoin: miter"/>
   </g>
   <g id="patch_67">
    <path d="M 552.405785 175.700849 
L 557.343837 175.700849 
L 557.343837 162.566643 
L 552.405785 162.566643 
z
" clip-path="url(#p47ba9b0e3f)" style="fill: #b91c1c; stroke: #b91c1c; stroke-linejoin: miter"/>
   </g>
   <g id="patch_68">
    <path d="M 561.384061 190.395334 
L 566.322112 190.395334 
L 566.322112 175.846691 
L 561.384061 175.846691 
z
" clip-path="url(#p47ba9b0e3f)" style="fill: #b91c1c; stroke: #b91c1c; stroke-linejoin: miter"/>
   </g>
   <g id="patch_69">
    <path d="M 570.362336 204.051163 
L 575.300388 204.051163 
L 575.300388 190.541967 
L 570.362336 190.541967 
z
" clip-path="url(#p47ba9b0e3f)" style="fill: #b91c1c; stroke: #b91c1c; stroke-linejoin: miter"/>
   </g>
   <g id="patch_70">
    <path d="M 579.340612 206.230817 
L 584.278663 206.230817 
L 584.278663 200.510846 
L 579.340612 200.510846 
z
" clip-path="url(#p47ba9b0e3f)" style="fill: #1f8a56; stroke: #1f8a56; stroke-linejoin: miter"/>
   </g>
   <g id="patch_71">
    <path d="M 588.318887 203.89588 
L 593.256939 203.89588 
L 593.256939 198.175909 
L 588.318887 198.175909 
z
" clip-path="url(#p47ba9b0e3f)" style="fill: #b91c1c; stroke: #b91c1c; stroke-linejoin: miter"/>
   </g>
   <g id="patch_72">
    <path d="M 597.297163 208.429838 
L 602.235215 208.429838 
L 602.235215 202.709867 
L 597.297163 202.709867 
z
" clip-path="url(#p47ba9b0e3f)" style="fill: #b91c1c; stroke: #b91c1c; stroke-linejoin: miter"/>
   </g>
   <g id="patch_73">
    <path d="M 606.275439 223.001516 
L 611.21349 223.001516 
L 611.21349 207.466892 
L 606.275439 207.466892 
z
" clip-path="url(#p47ba9b0e3f)" style="fill: #b91c1c; stroke: #b91c1c; stroke-linejoin: miter"/>
   </g>
   <g id="patch_74">
    <path d="M 615.253714 237.644986 
L 620.191766 237.644986 
L 620.191766 221.731631 
L 615.253714 221.731631 
z
" clip-path="url(#p47ba9b0e3f)" style="fill: #b91c1c; stroke: #b91c1c; stroke-linejoin: miter"/>
   </g>
   <g id="patch_75">
    <path d="M 179.269824 231.139981 
Q 240.636328 175.456258 300.181283 121.4254 
" clip-path="url(#p47ba9b0e3f)" style="fill: none; stroke: #1f8a56; stroke-width: 2.2; stroke-linecap: round"/>
    <path d="M 293.291317 123.356299 
L 300.181283 121.4254 
L 297.592023 128.095912 
z
" clip-path="url(#p47ba9b0e3f)" style="fill: #1f8a56; stroke: #1f8a56; stroke-width: 2.2; stroke-linecap: round"/>
   </g>
   <g id="patch_76">
    <path d="M 484.423788 106.346922 
Q 545.89647 171.269704 605.678004 234.406423 
" clip-path="url(#p47ba9b0e3f)" style="fill: none; stroke: #b91c1c; stroke-width: 2.2; stroke-linecap: round"/>
    <path d="M 603.601327 227.558984 
L 605.678004 234.406423 
L 598.954047 231.959301 
z
" clip-path="url(#p47ba9b0e3f)" style="fill: #b91c1c; stroke: #b91c1c; stroke-width: 2.2; stroke-linecap: round"/>
   </g>
  </g>
 </g>
 <defs>
  <clipPath id="p47ba9b0e3f">
   <rect x="7.2" y="25.0815" width="619.501016" height="297.4385"/>
  </clipPath>
 </defs>
</svg>
