<?xml version="1.0" encoding="utf-8" standalone="no"?>
<!DOCTYPE svg PUBLIC "-//W3C//DTD SVG 1.1//EN"
  "http://www.w3.org/Graphics/SVG/1.1/DTD/svg11.dtd">
<svg xmlns:xlink="http://www.w3.org/1999/xlink" width="729.15pt" height="325.95pt" viewBox="0 0 729.15 325.95" xmlns="http://www.w3.org/2000/svg" version="1.1">
 <metadata>
  <rdf:RDF xmlns:dc="http://purl.org/dc/elements/1.1/" xmlns:cc="http://creativecommons.org/ns#" xmlns:rdf="http://www.w3.org/1999/02/22-rdf-syntax-ns#">
   <cc:Work>
    <dc:type rdf:resource="http://purl.org/dc/dcmitype/StillImage"/>
    <dc:date>2026-07-19T15:23:12.421501</dc:date>
    <dc:format>image/svg+xml</dc:format>
    <dc:creator>
     <cc:Agent>
      <dc:title>Matplotlib v3.11.1, https://matplotlib.org/</dc:title>
     </cc:Agent>
    </dc:creator>
   </cc:Work>
  </rdf:RDF>
 </metadata>
 <defs>
  <style type="text/css">*{stroke-linejoin: round; stroke-linecap: butt}</style>
 </defs>
 <g id="figure_1">
  <g id="patch_1">
   <path d="M 0 325.95 
L 729.15 325.95 
L 729.15 -0 
L 0 -0 
z
" style="fill: #ffffff"/>
  </g>
  <g id="axes_1">
   <g id="patch_2">
    <path d="M 54.100484 318.75 
L 363.924492 318.75 
L 363.924492 25.0815 
L 54.100484 25.0815 
z
" style="fill: #ffffff"/>
   </g>
   <g id="matplotlib.axis_1"/>
   <g id="matplotlib.axis_2">
    <g id="ytick_1">
     <g id="line2d_1">
      <path d="M 54.100484 269.508351 
L 363.924492 269.508351 
" clip-path="url(#pd8496de71f)" style="fill: none; stroke: #e6e1d6; stroke-width: 0.8; stroke-linecap: square"/>
     </g>
     <g id="line2d_2">
      <defs>
       <path id="md281af1652" d="M 0 0 
L -3.5 0 
" style="stroke: #555555; stroke-width: 0.8"/>
      </defs>
      <g>
       <use xlink:href="#md281af1652" x="54.100484" y="269.508351" style="fill: #555555; stroke: #555555; stroke-width: 0.8"/>
      </g>
     </g>
     <g id="text_1">
      <text style="font-size: 10.5px; font-family: 'Noto Naskh Arabic', 'DejaVu Sans'; text-anchor: end; fill: #555555" x="47.100484" y="275.120601" transform="rotate(-0 47.100484 275.120601)">20</text>
     </g>
    </g>
    <g id="ytick_2">
     <g id="line2d_3">
      <path d="M 54.100484 209.686551 
L 363.924492 209.686551 
" clip-path="url(#pd8496de71f)" style="fill: none; stroke: #e6e1d6; stroke-width: 0.8; stroke-linecap: square"/>
     </g>
     <g id="line2d_4">
      <g>
       <use xlink:href="#md281af1652" x="54.100484" y="209.686551" style="fill: #555555; stroke: #555555; stroke-width: 0.8"/>
      </g>
     </g>
     <g id="text_2">
      <text style="font-size: 10.5px; font-family: 'Noto Naskh Arabic', 'DejaVu Sans'; text-anchor: end; fill: #555555" x="47.100484" y="215.298801" transform="rotate(-0 47.100484 215.298801)">40</text>
     </g>
    </g>
    <g id="ytick_3">
     <g id="line2d_5">
      <path d="M 54.100484 149.86475 
L 363.924492 149.86475 
" clip-path="url(#pd8496de71f)" style="fill: none; stroke: #e6e1d6; stroke-width: 0.8; stroke-linecap: square"/>
     </g>
     <g id="line2d_6">
      <g>
       <use xlink:href="#md281af1652" x="54.100484" y="149.86475" style="fill: #555555; stroke: #555555; stroke-width: 0.8"/>
      </g>
     </g>
     <g id="text_3">
      <text style="font-size: 10.5px; font-family: 'Noto Naskh Arabic', 'DejaVu Sans'; text-anchor: end; fill: #555555" x="47.100484" y="155.477" transform="rotate(-0 47.100484 155.477)">60</text>
     </g>
    </g>
    <g id="ytick_4">
     <g id="line2d_7">
      <path d="M 54.100484 90.042949 
L 363.924492 90.042949 
" clip-path="url(#pd8496de71f)" style="fill: none; stroke: #e6e1d6; stroke-width: 0.8; stroke-linecap: square"/>
     </g>
     <g id="line2d_8">
      <g>
       <use xlink:href="#md281af1652" x="54.100484" y="90.042949" style="fill: #555555; stroke: #555555; stroke-width: 0.8"/>
      </g>
     </g>
     <g id="text_4">
      <text style="font-size: 10.5px; font-family: 'Noto Naskh Arabic', 'DejaVu Sans'; text-anchor: end; fill: #555555" x="47.100484" y="95.655199" transform="rotate(-0 47.100484 95.655199)">80</text>
     </g>
    </g>
    <g id="ytick_5">
     <g id="line2d_9">
      <path d="M 54.100484 30.221149 
L 363.924492 30.221149 
" clip-path="url(#pd8496de71f)" style="fill: none; stroke: #e6e1d6; stroke-width: 0.8; stroke-linecap: square"/>
     </g>
     <g id="line2d_10">
      <g>
       <use xlink:href="#md281af1652" x="54.100484" y="30.221149" style="fill: #555555; stroke: #555555; stroke-width: 0.8"/>
      </g>
     </g>
     <g id="text_5">
      <text style="font-size: 10.5px; font-family: 'Noto Naskh Arabic', 'DejaVu Sans'; text-anchor: end; fill: #555555" x="47.100484" y="35.833399" transform="rotate(-0 47.100484 35.833399)">100</text>
     </g>
    </g>
    <g id="text_6">
     <text style="font-size: 10.5px; font-family: 'Noto Naskh Arabic', 'DejaVu Sans'; text-anchor: middle; fill: #1f2937" x="18.4245" y="171.91575" transform="rotate(-90 18.4245 171.91575)">​ﺮﻌﺴﻟﺍ</text>
    </g>
   </g>
   <g id="line2d_11">
    <path d="M 68.183394 303.395867 
L 75.405399 291.224811 
L 82.627404 305.401432 
L 89.849408 289.343963 
L 97.071413 281.587802 
L 104.293418 285.940873 
L 111.515423 275.614376 
L 118.737428 287.253907 
L 125.959433 270.374268 
L 133.181437 257.971626 
L 140.403442 275.294735 
L 147.625447 271.411951 
L 154.847452 265.551963 
L 162.069457 263.666673 
L 169.291462 271.935428 
L 176.513466 260.282117 
L 183.735471 254.555958 
L 190.957476 237.971069 
L 198.179481 239.276891 
L 205.401486 231.40848 
L 212.623491 221.228919 
L 219.845496 229.457031 
L 227.0675 220.548732 
L 234.289505 205.624331 
L 241.51151 203.254052 
L 248.733515 200.273064 
L 255.95552 202.729528 
L 263.177525 188.188546 
L 270.399529 174.339205 
L 277.621534 149.824298 
L 284.843539 157.757082 
L 292.065544 144.261239 
L 299.287549 132.61176 
L 306.509554 123.824679 
L 313.731559 100.665659 
L 320.953563 86.965851 
L 328.175568 72.042637 
L 335.397573 39.92185 
L 342.619578 40.964833 
L 349.841583 38.430068 
" clip-path="url(#pd8496de71f)" style="fill: none; stroke: #1f2937; stroke-width: 2; stroke-linecap: square"/>
   </g>
   <g id="patch_3">
    <path d="M 54.100484 318.75 
L 54.100484 25.0815 
" style="fill: none; stroke: #1f2937; stroke-width: 0.8; stroke-linejoin: miter; stroke-linecap: square"/>
   </g>
   <g id="patch_4">
    <path d="M 54.100484 318.75 
L 363.924492 318.75 
" style="fill: none; stroke: #1f2937; stroke-width: 0.8; stroke-linejoin: miter; stroke-linecap: square"/>
   </g>
   <g id="text_7">
    <text style="font-weight: 700; font-size: 10.5px; font-family: 'Noto Naskh Arabic', 'DejaVu Sans'; text-anchor: middle; fill: #1f2937" x="209.012488" y="18.4245" transform="rotate(-0 209.012488 18.4245)">​ﻲﺑﺎﺴﺤﻟﺍ ﺱﺎﻴﻘﻤﻟﺍ</text>
   </g>
  </g>
  <g id="axes_2">
   <g id="patch_5">
    <path d="M 412.125992 318.75 
L 721.95 318.75 
L 721.95 25.0815 
L 412.125992 25.0815 
z
" style="fill: #ffffff"/>
   </g>
   <g id="matplotlib.axis_3"/>
   <g id="matplotlib.axis_4">
    <g id="ytick_6">
     <g id="line2d_12">
      <path d="M 412.125992 281.552227 
L 721.95 281.552227 
" clip-path="url(#pc0085a1d4a)" style="fill: none; stroke: #e6e1d6; stroke-width: 0.8; stroke-linecap: square"/>
     </g>
     <g id="line2d_13">
      <g>
       <use xlink:href="#md281af1652" x="412.125992" y="281.552227" style="fill: #555555; stroke: #555555; stroke-width: 0.8"/>
      </g>
     </g>
     <g id="text_8">
      <!-- $\mathdefault{10^{1}}$ -->
      <g style="fill: #555555" transform="translate(388.430992 287.164477)">
       <text>
        <tspan x="0" y="-0.4135" style="font-size: 10.5px; font-family: 'Noto Naskh Arabic'; fill: #555555">1</tspan>
        <tspan x="6.005981" y="-0.4135" style="font-size: 10.5px; font-family: 'Noto Naskh Arabic'; fill: #555555">0</tspan>
        <tspan x="12.112451" y="-4.75" style="font-size: 7.35px; font-family: 'Noto Naskh Arabic'; fill: #555555">1</tspan>
       </text>
      </g>
     </g>
    </g>
    <g id="ytick_7">
     <g id="line2d_14">
      <path d="M 412.125992 35.455836 
L 721.95 35.455836 
" clip-path="url(#pc0085a1d4a)" style="fill: none; stroke: #e6e1d6; stroke-width: 0.8; stroke-linecap: square"/>
     </g>
     <g id="line2d_15">
      <g>
       <use xlink:href="#md281af1652" x="412.125992" y="35.455836" style="fill: #555555; stroke: #555555; stroke-width: 0.8"/>
      </g>
     </g>
     <g id="text_9">
      <!-- $\mathdefault{10^{2}}$ -->
      <g style="fill: #555555" transform="translate(388.430992 41.068086)">
       <text>
        <tspan x="0" y="-0.336938" style="font-size: 10.5px; font-family: 'Noto Naskh Arabic'; fill: #555555">1</tspan>
        <tspan x="6.005981" y="-0.336938" style="font-size: 10.5px; font-family: 'Noto Naskh Arabic'; fill: #555555">0</tspan>
        <tspan x="12.112451" y="-4.673438" style="font-size: 7.35px; font-family: 'Noto Naskh Arabic'; fill: #555555">2</tspan>
       </text>
      </g>
     </g>
    </g>
    <g id="ytick_8">
     <g id="line2d_16">
      <defs>
       <path id="m3f25468f3f" d="M 0 0 
L -2 0 
" style="stroke: #555555; stroke-width: 0.6"/>
      </defs>
      <g>
       <use xlink:href="#m3f25468f3f" x="412.125992" y="305.401432" style="fill: #555555; stroke: #555555; stroke-width: 0.6"/>
      </g>
     </g>
    </g>
    <g id="ytick_9">
     <g id="line2d_17">
      <g>
       <use xlink:href="#m3f25468f3f" x="412.125992" y="292.812981" style="fill: #555555; stroke: #555555; stroke-width: 0.6"/>
      </g>
     </g>
    </g>
    <g id="ytick_10">
     <g id="line2d_18">
      <g>
       <use xlink:href="#m3f25468f3f" x="412.125992" y="207.469832" style="fill: #555555; stroke: #555555; stroke-width: 0.6"/>
      </g>
     </g>
    </g>
    <g id="ytick_11">
     <g id="line2d_19">
      <g>
       <use xlink:href="#m3f25468f3f" x="412.125992" y="164.134408" style="fill: #555555; stroke: #555555; stroke-width: 0.6"/>
      </g>
     </g>
    </g>
    <g id="ytick_12">
     <g id="line2d_20">
      <g>
       <use xlink:href="#m3f25468f3f" x="412.125992" y="133.387436" style="fill: #555555; stroke: #555555; stroke-width: 0.6"/>
      </g>
     </g>
    </g>
    <g id="ytick_13">
     <g id="line2d_21">
      <g>
       <use xlink:href="#m3f25468f3f" x="412.125992" y="109.538232" style="fill: #555555; stroke: #555555; stroke-width: 0.6"/>
      </g>
     </g>
    </g>
    <g id="ytick_14">
     <g id="line2d_22">
      <g>
       <use xlink:href="#m3f25468f3f" x="412.125992" y="90.052013" style="fill: #555555; stroke: #555555; stroke-width: 0.6"/>
      </g>
     </g>
    </g>
    <g id="ytick_15">
     <g id="line2d_23">
      <g>
       <use xlink:href="#m3f25468f3f" x="412.125992" y="73.576649" style="fill: #555555; stroke: #555555; stroke-width: 0.6"/>
      </g>
     </g>
    </g>
    <g id="ytick_16">
     <g id="line2d_24">
      <g>
       <use xlink:href="#m3f25468f3f" x="412.125992" y="59.30504" style="fill: #555555; stroke: #555555; stroke-width: 0.6"/>
      </g>
     </g>
    </g>
    <g id="ytick_17">
     <g id="line2d_25">
      <g>
       <use xlink:href="#m3f25468f3f" x="412.125992" y="46.716589" style="fill: #555555; stroke: #555555; stroke-width: 0.6"/>
      </g>
     </g>
    </g>
    <g id="text_10">
     <text style="font-size: 10.5px; font-family: 'Noto Naskh Arabic', 'DejaVu Sans'; text-anchor: middle; fill: #1f2937" x="377.773992" y="171.91575" transform="rotate(-90 377.773992 171.91575)">​(ﻲﻤﺘﻳﺭﺎﻏﻮﻟ) ﺮﻌﺴﻟﺍ</text>
    </g>
   </g>
   <g id="line2d_26">
    <path d="M 426.208902 296.799181 
L 433.430906 255.673624 
L 440.652911 305.401432 
L 447.874916 250.524263 
L 455.096921 231.576373 
L 462.318926 241.79463 
L 469.540931 218.976714 
L 476.762936 245.078898 
L 483.98494 209.028194 
L 491.206945 188.622197 
L 498.42895 218.342609 
L 505.650955 210.926111 
L 512.87296 200.625226 
L 520.094965 197.511687 
L 527.316969 211.896493 
L 534.538974 192.140034 
L 541.760979 183.624996 
L 548.982984 162.214612 
L 556.204989 163.753278 
L 563.426994 154.800444 
L 570.648999 144.230155 
L 577.871003 152.691447 
L 585.093008 143.559769 
L 592.315013 129.818876 
L 599.537018 127.790395 
L 606.759023 125.292739 
L 613.981028 127.346663 
L 621.203032 115.726187 
L 628.425037 105.722054 
L 635.647042 90.027925 
L 642.869047 94.858673 
L 650.091052 86.765952 
L 657.313057 80.24157 
L 664.535061 75.571047 
L 671.757066 64.158244 
L 678.979071 57.939408 
L 686.201076 51.553191 
L 693.423081 38.979567 
L 700.645086 39.365436 
L 707.867091 38.430068 
" clip-path="url(#pc0085a1d4a)" style="fill: none; stroke: #b7791f; stroke-width: 2; stroke-linecap: square"/>
   </g>
   <g id="patch_6">
    <path d="M 412.125992 318.75 
L 412.125992 25.0815 
" style="fill: none; stroke: #1f2937; stroke-width: 0.8; stroke-linejoin: miter; stroke-linecap: square"/>
   </g>
   <g id="patch_7">
    <path d="M 412.125992 318.75 
L 721.95 318.75 
" style="fill: none; stroke: #1f2937; stroke-width: 0.8; stroke-linejoin: miter; stroke-linecap: square"/>
   </g>
   <g id="text_11">
    <text style="font-weight: 700; font-size: 10.5px; font-family: 'Noto Naskh Arabic', 'DejaVu Sans'; text-anchor: middle; fill: #1f2937" x="567.037996" y="18.4245" transform="rotate(-0 567.037996 18.4245)">​ﻲﻤﺘﻳﺭﺎﻏﻮﻠﻟﺍ ﺱﺎﻴﻘﻤﻟﺍ</text>
   </g>
  </g>
 </g>
 <defs>
  <clipPath id="pd8496de71f">
   <rect x="54.100484" y="25.0815" width="309.824008" height="293.6685"/>
  </clipPath>
  <clipPath id="pc0085a1d4a">
   <rect x="412.125992" y="25.0815" width="309.824008" height="293.6685"/>
  </clipPath>
 </defs>
</svg>
