<?xml version="1.0" encoding="utf-8" standalone="no"?>
<!DOCTYPE svg PUBLIC "-//W3C//DTD SVG 1.1//EN"
  "http://www.w3.org/Graphics/SVG/1.1/DTD/svg11.dtd">
<svg xmlns:xlink="http://www.w3.org/1999/xlink" width="628.35pt" height="340.35pt" viewBox="0 0 628.35 340.35" xmlns="http://www.w3.org/2000/svg" version="1.1">
 <metadata>
  <rdf:RDF xmlns:dc="http://purl.org/dc/elements/1.1/" xmlns:cc="http://creativecommons.org/ns#" xmlns:rdf="http://www.w3.org/1999/02/22-rdf-syntax-ns#">
   <cc:Work>
    <dc:type rdf:resource="http://purl.org/dc/dcmitype/StillImage"/>
    <dc:date>2026-07-18T23:55:07.866576</dc:date>
    <dc:format>image/svg+xml</dc:format>
    <dc:creator>
     <cc:Agent>
      <dc:title>Matplotlib v3.11.1, https://matplotlib.org/</dc:title>
     </cc:Agent>
    </dc:creator>
   </cc:Work>
  </rdf:RDF>
 </metadata>
 <defs>
  <style type="text/css">*{stroke-linejoin: round; stroke-linecap: butt}</style>
 </defs>
 <g id="figure_1">
  <g id="patch_1">
   <path d="M 0 340.35 
L 628.35 340.35 
L 628.35 0 
L 0 0 
z
" style="fill: #ffffff"/>
  </g>
  <g id="axes_1">
   <g id="patch_2">
    <path d="M 57.248984 308.12 
L 621.15 308.12 
L 621.15 7.2 
L 57.248984 7.2 
z
" style="fill: #ffffff"/>
   </g>
   <g id="matplotlib.axis_1">
    <g id="text_1">
     <!-- ​ﻦﻣﺰﻟﺍ -->
     <g style="fill: #1f2937" transform="translate(329.724492 326.81) scale(0.1 -0.1)">
      <defs>
       <path id="NotoNaskhArabic-Regular-3" d="M 666 0 
Q 646 1126 604 2057 
Q 563 2989 493 3725 
Q 467 3987 566 4118 
Q 666 4250 915 4294 
Q 941 4173 1001 3965 
Q 1062 3757 1139 3533 
L 966 3386 
Q 992 2912 1001 2413 
Q 1011 1914 1001 1338 
Q 992 762 960 51 
L 666 0 
z
" transform="scale(0.015625)"/>
       <path id="NotoNaskhArabic-Regular-1c1" d="M -6 0 
Q -64 0 -64 51 
L -64 435 
Q -64 486 -6 486 
Q 378 486 704 659 
Q 685 902 665 1139 
Q 646 1376 627 1606 
Q 570 2208 512 2790 
Q 454 3373 384 3936 
Q 474 4032 579 4121 
Q 685 4211 806 4294 
Q 826 3949 851 3497 
Q 877 3046 915 2483 
Q 947 2016 960 1609 
Q 973 1203 979 864 
Q 979 755 915 572 
Q 851 390 755 224 
Q 640 0 -6 0 
z
" transform="scale(0.015625)"/>
       <path id="NotoNaskhArabic-Regular-d6" d="M 710 -1306 
Q 608 -1306 451 -1248 
Q 294 -1190 134 -1107 
Q -26 -1024 -128 -947 
L -45 -736 
Q 134 -768 284 -787 
Q 435 -806 563 -806 
Q 1043 -806 1385 -518 
Q 1728 -230 1907 314 
Q 1862 416 1814 515 
Q 1766 614 1709 717 
Q 1491 1107 1388 1340 
Q 1286 1574 1286 1734 
Q 1286 1901 1382 2000 
Q 1478 2099 1658 2182 
Q 1683 2099 1712 2000 
Q 1741 1901 1786 1792 
Q 1888 1530 1955 1334 
Q 2022 1139 2054 1018 
Q 2093 896 2115 797 
Q 2138 698 2144 614 
Q 2362 486 2643 486 
Q 2694 486 2694 435 
L 2694 51 
Q 2694 0 2643 0 
Q 2342 0 2118 154 
Q 2048 -288 1849 -617 
Q 1651 -947 1356 -1126 
Q 1062 -1306 710 -1306 
z
M 1299 2560 
Q 1018 2771 839 2976 
Q 1165 3303 1287 3443 
Q 1389 3335 1494 3229 
Q 1600 3123 1709 3027 
Q 1562 2816 1299 2560 
z
" transform="scale(0.015625)"/>
       <path id="NotoNaskhArabic-Regular-1e5" d="M 2291 0 
Q 2035 0 1753 48 
Q 1472 96 1209 182 
Q 947 269 749 384 
Q 602 179 422 89 
Q 243 0 0 0 
Q -51 0 -51 51 
L -51 435 
Q -51 486 0 486 
Q 243 486 409 604 
Q 576 723 698 960 
Q 813 1171 880 1308 
Q 947 1446 1004 1555 
Q 1062 1664 1152 1779 
Q 1312 1990 1478 2083 
Q 1645 2176 1830 2176 
Q 2016 2176 2201 1945 
Q 2387 1715 2502 1357 
Q 2618 1005 2618 666 
Q 2618 467 2547 307 
Q 2477 147 2291 0 
z
M 2150 486 
Q 2144 781 2061 1065 
Q 1978 1350 1875 1498 
Q 1805 1606 1728 1606 
Q 1491 1606 1286 1318 
Q 1235 1242 1161 1117 
Q 1088 992 998 806 
Q 1459 563 2150 486 
z
" transform="scale(0.015625)"/>
       <path id="NotoNaskhArabic-Regular-1e8" d="M 1594 -1677 
Q 1050 -1677 742 -1363 
Q 435 -1050 435 -474 
Q 435 -346 444 -237 
Q 454 -128 480 9 
Q 506 147 557 358 
L 794 301 
Q 723 6 723 -154 
Q 723 -621 956 -883 
Q 1190 -1146 1606 -1146 
Q 1926 -1146 2249 -1040 
Q 2573 -934 2829 -752 
Q 3085 -570 3187 -346 
Q 2976 109 2873 416 
Q 2771 723 2771 877 
Q 2771 1043 2864 1174 
Q 2957 1306 3187 1446 
Q 3200 1344 3235 1133 
Q 3270 922 3334 595 
Q 3565 486 3802 486 
Q 3859 486 3859 435 
L 3859 51 
Q 3859 0 3802 0 
Q 3590 0 3418 77 
L 3424 -109 
Q 3424 -499 3174 -860 
Q 2925 -1222 2490 -1446 
Q 2061 -1677 1594 -1677 
z
M 1766 1504 
Q 1485 1715 1306 1920 
Q 1632 2247 1754 2387 
Q 1856 2279 1961 2173 
Q 2067 2067 2176 1971 
Q 2029 1760 1766 1504 
z
" transform="scale(0.015625)"/>
       <path id="NotoNaskhArabic-Regular-554" transform="scale(0.015625)"/>
      </defs>
      <use xlink:href="#NotoNaskhArabic-Regular-3"/>
      <use xlink:href="#NotoNaskhArabic-Regular-1c1" transform="translate(23.796875 0)"/>
      <use xlink:href="#NotoNaskhArabic-Regular-d6" transform="translate(45 0)"/>
      <use xlink:href="#NotoNaskhArabic-Regular-1e5" transform="translate(85.40625 0)"/>
      <use xlink:href="#NotoNaskhArabic-Regular-1e8" transform="translate(131 0)"/>
      <use xlink:href="#NotoNaskhArabic-Regular-554" transform="translate(189.5 0)"/>
     </g>
    </g>
   </g>
   <g id="matplotlib.axis_2">
    <g id="ytick_1">
     <g id="line2d_1">
      <path d="M 57.248984 290.418824 
L 621.15 290.418824 
" clip-path="url(#pc531729714)" style="fill: none; stroke: #e6e1d6; stroke-width: 0.8; stroke-linecap: square"/>
     </g>
     <g id="line2d_2">
      <defs>
       <path id="mb2c17f1d72" d="M 0 0 
L -3.5 0 
" style="stroke: #555555; stroke-width: 0.8"/>
      </defs>
      <g>
       <use xlink:href="#mb2c17f1d72" x="57.248984" y="290.418824" style="fill: #555555; stroke: #555555; stroke-width: 0.8"/>
      </g>
     </g>
     <g id="text_2">
      <!-- 95 -->
      <g style="fill: #555555" transform="translate(38.236328 296.031074) scale(0.105 -0.105)">
       <defs>
        <path id="NotoNaskhArabic-Regular-4d5" d="M 1229 -64 
Q 851 -64 653 0 
L 653 480 
Q 883 397 1216 397 
Q 1728 397 2057 601 
Q 2387 806 2560 1197 
Q 2650 1395 2701 1654 
Q 2752 1914 2758 2240 
L 2720 2240 
Q 2362 1709 1632 1709 
Q 1030 1709 675 2077 
Q 320 2445 320 3091 
Q 320 3565 499 3910 
Q 678 4256 1008 4445 
Q 1338 4634 1779 4634 
Q 2246 4634 2598 4394 
Q 2950 4154 3136 3699 
Q 3328 3238 3328 2618 
Q 3328 -64 1229 -64 
z
M 1754 2157 
Q 2035 2157 2265 2269 
Q 2496 2381 2630 2579 
Q 2758 2778 2758 2989 
Q 2758 3302 2636 3571 
Q 2515 3840 2291 4000 
Q 2074 4160 1779 4160 
Q 1350 4160 1113 3881 
Q 877 3603 877 3098 
Q 877 2643 1101 2400 
Q 1325 2157 1754 2157 
z
" transform="scale(0.015625)"/>
        <path id="NotoNaskhArabic-Regular-4d1" d="M 1587 -64 
Q 826 -64 403 186 
L 403 717 
Q 634 576 960 496 
Q 1286 416 1594 416 
Q 2131 416 2425 672 
Q 2720 928 2720 1402 
Q 2720 2330 1574 2330 
Q 1210 2330 794 2234 
L 512 2413 
L 685 4570 
L 2976 4570 
L 2976 4058 
L 1165 4058 
L 1056 2733 
Q 1235 2765 1411 2784 
Q 1587 2803 1760 2803 
Q 2477 2803 2886 2444 
Q 3296 2086 3296 1459 
Q 3296 749 2841 342 
Q 2387 -64 1587 -64 
z
" transform="scale(0.015625)"/>
       </defs>
       <use xlink:href="#NotoNaskhArabic-Regular-4d5"/>
       <use xlink:href="#NotoNaskhArabic-Regular-4d1" transform="translate(57.203125 0)"/>
      </g>
     </g>
    </g>
    <g id="ytick_2">
     <g id="line2d_3">
      <path d="M 57.248984 228.956405 
L 621.15 228.956405 
" clip-path="url(#pc531729714)" style="fill: none; stroke: #e6e1d6; stroke-width: 0.8; stroke-linecap: square"/>
     </g>
     <g id="line2d_4">
      <g>
       <use xlink:href="#mb2c17f1d72" x="57.248984" y="228.956405" style="fill: #555555; stroke: #555555; stroke-width: 0.8"/>
      </g>
     </g>
     <g id="text_3">
      <!-- 100 -->
      <g style="fill: #555555" transform="translate(32.23 234.568655) scale(0.105 -0.105)">
       <defs>
        <path id="NotoNaskhArabic-Regular-4cd" d="M 1722 0 
L 1722 3194 
Q 1722 3405 1728 3603 
Q 1734 3802 1747 3981 
Q 1702 3936 1657 3891 
Q 1613 3846 1562 3808 
Q 1402 3674 1226 3530 
Q 1050 3386 864 3232 
L 570 3610 
L 1805 4570 
L 2272 4570 
L 2272 0 
L 1722 0 
z
" transform="scale(0.015625)"/>
        <path id="NotoNaskhArabic-Regular-4cc" d="M 1824 -64 
Q 1082 -64 698 534 
Q 314 1133 314 2291 
Q 314 3488 682 4064 
Q 1050 4640 1824 4640 
Q 2566 4640 2956 4038 
Q 3347 3437 3347 2291 
Q 3347 1101 2969 518 
Q 2592 -64 1824 -64 
z
M 1824 416 
Q 2208 416 2426 678 
Q 2778 1094 2778 2291 
Q 2778 3571 2368 3962 
Q 2163 4160 1824 4160 
Q 1427 4160 1203 3878 
Q 877 3469 877 2291 
Q 877 1075 1229 666 
Q 1440 416 1824 416 
z
" transform="scale(0.015625)"/>
       </defs>
       <use xlink:href="#NotoNaskhArabic-Regular-4cd"/>
       <use xlink:href="#NotoNaskhArabic-Regular-4cc" transform="translate(57.203125 0)"/>
       <use xlink:href="#NotoNaskhArabic-Regular-4cc" transform="translate(114.40625 0)"/>
      </g>
     </g>
    </g>
    <g id="ytick_3">
     <g id="line2d_5">
      <path d="M 57.248984 167.493987 
L 621.15 167.493987 
" clip-path="url(#pc531729714)" style="fill: none; stroke: #e6e1d6; stroke-width: 0.8; stroke-linecap: square"/>
     </g>
     <g id="line2d_6">
      <g>
       <use xlink:href="#mb2c17f1d72" x="57.248984" y="167.493987" style="fill: #555555; stroke: #555555; stroke-width: 0.8"/>
      </g>
     </g>
     <g id="text_4">
      <!-- 105 -->
      <g style="fill: #555555" transform="translate(32.23 173.106237) scale(0.105 -0.105)">
       <use xlink:href="#NotoNaskhArabic-Regular-4cd"/>
       <use xlink:href="#NotoNaskhArabic-Regular-4cc" transform="translate(57.203125 0)"/>
       <use xlink:href="#NotoNaskhArabic-Regular-4d1" transform="translate(114.40625 0)"/>
      </g>
     </g>
    </g>
    <g id="ytick_4">
     <g id="line2d_7">
      <path d="M 57.248984 106.031569 
L 621.15 106.031569 
" clip-path="url(#pc531729714)" style="fill: none; stroke: #e6e1d6; stroke-width: 0.8; stroke-linecap: square"/>
     </g>
     <g id="line2d_8">
      <g>
       <use xlink:href="#mb2c17f1d72" x="57.248984" y="106.031569" style="fill: #555555; stroke: #555555; stroke-width: 0.8"/>
      </g>
     </g>
     <g id="text_5">
      <!-- 110 -->
      <g style="fill: #555555" transform="translate(32.23 111.643819) scale(0.105 -0.105)">
       <use xlink:href="#NotoNaskhArabic-Regular-4cd"/>
       <use xlink:href="#NotoNaskhArabic-Regular-4cd" transform="translate(57.203125 0)"/>
       <use xlink:href="#NotoNaskhArabic-Regular-4cc" transform="translate(114.40625 0)"/>
      </g>
     </g>
    </g>
    <g id="ytick_5">
     <g id="line2d_9">
      <path d="M 57.248984 44.56915 
L 621.15 44.56915 
" clip-path="url(#pc531729714)" style="fill: none; stroke: #e6e1d6; stroke-width: 0.8; stroke-linecap: square"/>
     </g>
     <g id="line2d_10">
      <g>
       <use xlink:href="#mb2c17f1d72" x="57.248984" y="44.56915" style="fill: #555555; stroke: #555555; stroke-width: 0.8"/>
      </g>
     </g>
     <g id="text_6">
      <!-- 115 -->
      <g style="fill: #555555" transform="translate(32.23 50.1814) scale(0.105 -0.105)">
       <use xlink:href="#NotoNaskhArabic-Regular-4cd"/>
       <use xlink:href="#NotoNaskhArabic-Regular-4cd" transform="translate(57.203125 0)"/>
       <use xlink:href="#NotoNaskhArabic-Regular-4d1" transform="translate(114.40625 0)"/>
      </g>
     </g>
    </g>
    <g id="text_7">
     <!-- ​ﺮﻌﺴﻟﺍ -->
     <g style="fill: #1f2937" transform="translate(17.89 167.315469) rotate(-90) scale(0.1 -0.1)">
      <defs>
       <path id="NotoNaskhArabic-Regular-f9" d="M 1446 0 
Q 1267 0 1030 57 
Q 794 115 666 198 
Q 576 109 397 54 
Q 218 0 0 0 
Q -51 0 -51 51 
L -51 435 
Q -51 486 0 486 
Q 326 486 518 634 
Q 627 723 681 809 
Q 736 896 858 1094 
Q 915 1197 1056 1197 
Q 1146 1197 1210 1152 
Q 1114 909 1046 765 
Q 979 621 947 570 
Q 998 544 1155 515 
Q 1312 486 1517 486 
Q 1664 486 1789 505 
Q 1914 525 2016 550 
Q 2061 621 2115 793 
Q 2170 966 2227 1145 
Q 2285 1325 2323 1408 
Q 2381 1536 2432 1574 
Q 2483 1613 2579 1613 
Q 2669 1613 2733 1568 
Q 2688 1466 2608 1235 
Q 2528 1005 2400 582 
Q 2496 538 2566 522 
Q 2637 506 2739 506 
Q 2906 506 3091 570 
Q 3123 608 3168 723 
Q 3213 838 3277 1030 
Q 3328 1190 3385 1331 
Q 3443 1472 3501 1568 
Q 3552 1664 3699 1664 
Q 3789 1664 3853 1619 
Q 3808 1517 3728 1289 
Q 3648 1062 3533 710 
Q 3757 589 3917 537 
Q 4077 486 4294 486 
Q 4352 486 4352 435 
L 4352 51 
Q 4352 0 4294 0 
Q 4045 0 3798 96 
Q 3552 192 3386 346 
Q 3366 301 3347 259 
Q 3328 218 3296 173 
Q 3251 96 3078 48 
Q 2906 0 2733 0 
Q 2438 0 2221 160 
Q 2176 102 2041 67 
Q 1907 32 1744 19 
Q 1581 6 1446 0 
z
" transform="scale(0.015625)"/>
       <path id="NotoNaskhArabic-Regular-135" d="M 6 0 
Q -51 0 -51 58 
L -51 429 
Q -51 486 6 486 
Q 672 486 1101 640 
L 986 787 
Q 864 973 771 1094 
Q 678 1216 621 1280 
Q 506 1427 410 1491 
L 307 1427 
Q 192 1555 192 1709 
Q 192 1862 297 1974 
Q 403 2086 566 2172 
Q 730 2259 902 2310 
Q 1158 2394 1446 2394 
Q 1722 2394 1936 2288 
Q 2150 2182 2272 2003 
Q 2400 1824 2400 1594 
Q 2400 1293 2243 1049 
Q 2086 806 1830 602 
Q 2099 486 2694 486 
Q 2758 486 2758 429 
L 2758 58 
Q 2758 0 2694 0 
Q 2259 0 1955 83 
Q 1651 166 1402 346 
Q 1050 166 723 83 
Q 397 0 6 0 
z
M 1478 845 
Q 1696 992 1821 1152 
Q 1946 1312 1946 1459 
Q 1946 1638 1811 1753 
Q 1677 1869 1466 1869 
Q 1075 1869 710 1677 
Q 947 1491 1325 1018 
Q 1395 934 1478 845 
z
" transform="scale(0.015625)"/>
       <path id="NotoNaskhArabic-Regular-d4" d="M 710 -1306 
Q 608 -1306 451 -1248 
Q 294 -1190 134 -1107 
Q -26 -1024 -128 -947 
L -45 -736 
Q 134 -768 284 -787 
Q 435 -806 563 -806 
Q 1043 -806 1385 -518 
Q 1728 -230 1907 314 
Q 1862 416 1814 515 
Q 1766 614 1709 717 
Q 1491 1107 1388 1340 
Q 1286 1574 1286 1734 
Q 1286 1901 1382 2000 
Q 1478 2099 1658 2182 
Q 1683 2099 1712 2000 
Q 1741 1901 1786 1792 
Q 1888 1530 1955 1334 
Q 2022 1139 2054 1018 
Q 2093 896 2115 797 
Q 2138 698 2144 614 
Q 2362 486 2643 486 
Q 2694 486 2694 435 
L 2694 51 
Q 2694 0 2643 0 
Q 2342 0 2118 154 
Q 2048 -288 1849 -617 
Q 1651 -947 1356 -1126 
Q 1062 -1306 710 -1306 
z
" transform="scale(0.015625)"/>
      </defs>
      <use xlink:href="#NotoNaskhArabic-Regular-3"/>
      <use xlink:href="#NotoNaskhArabic-Regular-1c1" transform="translate(23.796875 0)"/>
      <use xlink:href="#NotoNaskhArabic-Regular-f9" transform="translate(45 0)"/>
      <use xlink:href="#NotoNaskhArabic-Regular-135" transform="translate(111.296875 0)"/>
      <use xlink:href="#NotoNaskhArabic-Regular-d4" transform="translate(152.703125 0)"/>
      <use xlink:href="#NotoNaskhArabic-Regular-554" transform="translate(193.109375 0)"/>
     </g>
    </g>
   </g>
   <g id="line2d_11">
    <path d="M 75.43934 255.999869 
L 93.629695 251.082876 
L 111.82005 246.165882 
L 130.010406 241.248889 
L 148.200761 236.331895 
L 166.391116 231.414902 
L 184.581472 226.497908 
L 202.771827 221.580915 
L 220.962182 216.663922 
L 239.152538 211.746928 
L 257.342893 206.829935 
L 275.533248 201.912941 
L 293.723604 196.995948 
L 311.913959 192.078954 
L 330.104315 187.161961 
L 348.29467 182.244967 
L 366.485025 177.327974 
L 384.675381 172.41098 
L 402.865736 167.493987 
L 421.056091 162.576993 
L 439.246447 157.66 
L 457.436802 152.743007 
L 475.627157 147.826013 
L 493.817513 142.90902 
L 512.007868 137.992026 
L 530.198223 133.075033 
L 548.388579 128.158039 
L 566.578934 123.241046 
L 584.769289 118.324052 
L 602.959645 113.407059 
" clip-path="url(#pc531729714)" style="fill: none; stroke: #1f2937; stroke-width: 2; stroke-linecap: square"/>
   </g>
   <g id="line2d_12">
    <path d="M 75.43934 201.912941 
L 93.629695 196.995948 
L 111.82005 192.078954 
L 130.010406 187.161961 
L 148.200761 182.244967 
L 166.391116 177.327974 
L 184.581472 172.41098 
L 202.771827 167.493987 
L 220.962182 162.576993 
L 239.152538 157.66 
L 257.342893 152.743007 
L 275.533248 147.826013 
L 293.723604 142.90902 
L 311.913959 137.992026 
L 330.104315 133.075033 
L 348.29467 128.158039 
L 366.485025 123.241046 
L 384.675381 118.324052 
L 402.865736 113.407059 
L 421.056091 108.490065 
L 439.246447 103.573072 
L 457.436802 98.656078 
L 475.627157 93.739085 
L 493.817513 88.822092 
L 512.007868 83.905098 
L 530.198223 78.988105 
L 548.388579 74.071111 
L 566.578934 69.154118 
L 584.769289 64.237124 
L 602.959645 59.320131 
" clip-path="url(#pc531729714)" style="fill: none; stroke-dasharray: 7.4,3.2; stroke-dashoffset: 0; stroke: #1f2937; stroke-width: 2"/>
   </g>
   <g id="patch_3">
    <path d="M 57.248984 308.12 
L 57.248984 7.2 
" style="fill: none; stroke: #1f2937; stroke-width: 0.8; stroke-linejoin: miter; stroke-linecap: square"/>
   </g>
   <g id="patch_4">
    <path d="M 57.248984 308.12 
L 621.15 308.12 
" style="fill: none; stroke: #1f2937; stroke-width: 0.8; stroke-linejoin: miter; stroke-linecap: square"/>
   </g>
   <g id="line2d_13">
    <path d="M 75.43934 221.917368 
L 75.43934 211.043885 
" clip-path="url(#pc531729714)" style="fill: none; stroke: #1f8a56; stroke-width: 1.1; stroke-linecap: round"/>
   </g>
   <g id="line2d_14">
    <path d="M 93.629695 237.160306 
L 93.629695 210.984626 
" clip-path="url(#pc531729714)" style="fill: none; stroke: #b91c1c; stroke-width: 1.1; stroke-linecap: round"/>
   </g>
   <g id="line2d_15">
    <path d="M 111.82005 238.086169 
L 111.82005 221.876442 
" clip-path="url(#pc531729714)" style="fill: none; stroke: #1f8a56; stroke-width: 1.1; stroke-linecap: round"/>
   </g>
   <g id="line2d_16">
    <path d="M 130.010406 225.944936 
L 130.010406 213.780383 
" clip-path="url(#pc531729714)" style="fill: none; stroke: #1f8a56; stroke-width: 1.1; stroke-linecap: round"/>
   </g>
   <g id="line2d_17">
    <path d="M 148.200761 218.595534 
L 148.200761 213.028671 
" clip-path="url(#pc531729714)" style="fill: none; stroke: #b91c1c; stroke-width: 1.1; stroke-linecap: round"/>
   </g>
   <g id="line2d_18">
    <path d="M 166.391116 217.29529 
L 166.391116 211.401797 
" clip-path="url(#pc531729714)" style="fill: none; stroke: #1f8a56; stroke-width: 1.1; stroke-linecap: round"/>
   </g>
   <g id="line2d_19">
    <path d="M 184.581472 218.390521 
L 184.581472 204.984665 
" clip-path="url(#pc531729714)" style="fill: none; stroke: #1f8a56; stroke-width: 1.1; stroke-linecap: round"/>
   </g>
   <g id="line2d_20">
    <path d="M 202.771827 214.202779 
L 202.771827 204.346899 
" clip-path="url(#pc531729714)" style="fill: none; stroke: #b91c1c; stroke-width: 1.1; stroke-linecap: round"/>
   </g>
   <g id="line2d_21">
    <path d="M 220.962182 213.445502 
L 220.962182 174.137169 
" clip-path="url(#pc531729714)" style="fill: none; stroke: #1f8a56; stroke-width: 1.1; stroke-linecap: round"/>
   </g>
   <g id="line2d_22">
    <path d="M 239.152538 176.817627 
L 239.152538 169.384138 
" clip-path="url(#pc531729714)" style="fill: none; stroke: #1f8a56; stroke-width: 1.1; stroke-linecap: round"/>
   </g>
   <g id="line2d_23">
    <path d="M 257.342893 175.08505 
L 257.342893 169.353648 
" clip-path="url(#pc531729714)" style="fill: none; stroke: #b91c1c; stroke-width: 1.1; stroke-linecap: round"/>
   </g>
   <g id="line2d_24">
    <path d="M 275.533248 171.355139 
L 275.533248 166.426343 
" clip-path="url(#pc531729714)" style="fill: none; stroke: #1f8a56; stroke-width: 1.1; stroke-linecap: round"/>
   </g>
   <g id="line2d_25">
    <path d="M 293.723604 179.112208 
L 293.723604 161.673158 
" clip-path="url(#pc531729714)" style="fill: none; stroke: #b91c1c; stroke-width: 1.1; stroke-linecap: round"/>
   </g>
   <g id="line2d_26">
    <path d="M 311.913959 177.974547 
L 311.913959 163.594013 
" clip-path="url(#pc531729714)" style="fill: none; stroke: #1f8a56; stroke-width: 1.1; stroke-linecap: round"/>
   </g>
   <g id="line2d_27">
    <path d="M 330.104315 168.065813 
L 330.104315 150.073433 
" clip-path="url(#pc531729714)" style="fill: none; stroke: #1f8a56; stroke-width: 1.1; stroke-linecap: round"/>
   </g>
   <g id="line2d_28">
    <path d="M 348.29467 153.589448 
L 348.29467 139.493404 
" clip-path="url(#pc531729714)" style="fill: none; stroke: #1f8a56; stroke-width: 1.1; stroke-linecap: round"/>
   </g>
   <g id="line2d_29">
    <path d="M 366.485025 150.469739 
L 366.485025 142.695046 
" clip-path="url(#pc531729714)" style="fill: none; stroke: #b91c1c; stroke-width: 1.1; stroke-linecap: round"/>
   </g>
   <g id="line2d_30">
    <path d="M 384.675381 149.897216 
L 384.675381 142.267922 
" clip-path="url(#pc531729714)" style="fill: none; stroke: #1f8a56; stroke-width: 1.1; stroke-linecap: round"/>
   </g>
   <g id="line2d_31">
    <path d="M 402.865736 145.397875 
L 402.865736 138.784531 
" clip-path="url(#pc531729714)" style="fill: none; stroke: #b91c1c; stroke-width: 1.1; stroke-linecap: round"/>
   </g>
   <g id="line2d_32">
    <path d="M 421.056091 143.386108 
L 421.056091 118.291635 
" clip-path="url(#pc531729714)" style="fill: none; stroke: #1f8a56; stroke-width: 1.1; stroke-linecap: round"/>
   </g>
   <g id="line2d_33">
    <path d="M 439.246447 141.137425 
L 439.246447 120.261855 
" clip-path="url(#pc531729714)" style="fill: none; stroke: #b91c1c; stroke-width: 1.1; stroke-linecap: round"/>
   </g>
   <g id="line2d_34">
    <path d="M 457.436802 142.563946 
L 457.436802 127.921944 
" clip-path="url(#pc531729714)" style="fill: none; stroke: #1f8a56; stroke-width: 1.1; stroke-linecap: round"/>
   </g>
   <g id="line2d_35">
    <path d="M 475.627157 127.534687 
L 475.627157 120.517797 
" clip-path="url(#pc531729714)" style="fill: none; stroke: #1f8a56; stroke-width: 1.1; stroke-linecap: round"/>
   </g>
   <g id="line2d_36">
    <path d="M 493.817513 125.708183 
L 493.817513 120.349279 
" clip-path="url(#pc531729714)" style="fill: none; stroke: #b91c1c; stroke-width: 1.1; stroke-linecap: round"/>
   </g>
   <g id="line2d_37">
    <path d="M 512.007868 124.639324 
L 512.007868 115.118149 
" clip-path="url(#pc531729714)" style="fill: none; stroke: #1f8a56; stroke-width: 1.1; stroke-linecap: round"/>
   </g>
   <g id="line2d_38">
    <path d="M 530.198223 117.07579 
L 530.198223 89.800608 
" clip-path="url(#pc531729714)" style="fill: none; stroke: #1f8a56; stroke-width: 1.1; stroke-linecap: round"/>
   </g>
   <g id="line2d_39">
    <path d="M 548.388579 94.753693 
L 548.388579 88.970229 
" clip-path="url(#pc531729714)" style="fill: none; stroke: #b91c1c; stroke-width: 1.1; stroke-linecap: round"/>
   </g>
   <g id="line2d_40">
    <path d="M 566.578934 97.763887 
L 566.578934 93.918381 
" clip-path="url(#pc531729714)" style="fill: none; stroke: #b91c1c; stroke-width: 1.1; stroke-linecap: round"/>
   </g>
   <g id="line2d_41">
    <path d="M 584.769289 108.003718 
L 584.769289 97.653388 
" clip-path="url(#pc531729714)" style="fill: none; stroke: #b91c1c; stroke-width: 1.1; stroke-linecap: round"/>
   </g>
   <g id="line2d_42">
    <path d="M 602.959645 107.064719 
L 602.959645 91.931323 
" clip-path="url(#pc531729714)" style="fill: none; stroke: #1f8a56; stroke-width: 1.1; stroke-linecap: round"/>
   </g>
   <g id="text_8">
    <!-- ​(ﻢﻋﺩ) ﻩﺎﺠﺗﻻﺍ ﻂﺧ -->
    <g style="fill: #1f2937" transform="translate(532.412748 119.553301) scale(0.09 -0.09)">
     <defs>
      <path id="NotoNaskhArabic-Bold-a4" d="M 0 58 
Q -51 58 -51 109 
L -51 762 
Q -51 813 0 813 
Q 467 813 793 829 
Q 1120 845 1427 934 
Q 1702 1018 1897 1069 
Q 2093 1120 2202 1146 
Q 2112 1197 2025 1251 
Q 1939 1306 1856 1363 
Q 1651 1504 1513 1558 
Q 1376 1613 1235 1613 
Q 1043 1613 870 1558 
Q 698 1504 480 1363 
Q 422 1421 377 1533 
Q 333 1645 333 1747 
Q 333 2029 582 2205 
Q 832 2381 1210 2381 
Q 1414 2381 1603 2310 
Q 1792 2240 2029 2080 
Q 2317 1882 2560 1763 
Q 2803 1645 3136 1555 
Q 3302 1517 3500 1494 
Q 3699 1472 3936 1472 
L 3603 794 
Q 3405 813 3273 825 
Q 3142 838 2963 826 
Q 2739 806 2483 704 
Q 2227 602 1990 467 
Q 1741 320 1533 237 
Q 1325 154 1107 115 
Q 890 77 624 67 
Q 358 58 0 58 
z
M 1894 2873 
Q 1568 3142 1402 3334 
Q 1549 3481 1667 3606 
Q 1786 3731 1882 3846 
Q 1952 3769 2067 3654 
Q 2182 3539 2342 3385 
Q 2266 3277 2154 3149 
Q 2042 3021 1894 2873 
z
" transform="scale(0.015625)"/>
      <path id="NotoNaskhArabic-Bold-124" d="M 2573 0 
Q 2336 0 2038 13 
Q 1741 26 1488 48 
Q 1235 70 1120 102 
Q 1037 128 883 221 
Q 730 314 554 448 
Q 378 582 218 723 
L 314 998 
Q 922 851 1357 787 
Q 1421 870 1485 950 
Q 1549 1030 1613 1114 
Q 1549 1395 1494 1664 
Q 1440 1933 1389 2189 
Q 1312 2566 1245 2915 
Q 1178 3264 1114 3578 
Q 1107 3616 1104 3654 
Q 1101 3693 1101 3725 
Q 1101 3987 1289 4169 
Q 1478 4352 1754 4352 
Q 1811 4134 1875 3939 
Q 1939 3744 2010 3565 
L 1805 3411 
Q 1830 3123 1852 2835 
Q 1875 2547 1894 2253 
Q 1907 2074 1923 1891 
Q 1939 1709 1946 1523 
Q 2867 2560 3450 2560 
Q 3610 2560 3798 2470 
Q 3987 2381 4176 2233 
Q 4365 2086 4518 1901 
Q 4742 1632 4742 1446 
Q 4742 1210 4678 1037 
Q 5018 813 5434 813 
Q 5491 813 5491 762 
L 5491 109 
Q 5491 58 5434 58 
Q 5139 58 4848 189 
Q 4557 320 4333 557 
Q 4134 384 3846 259 
Q 3558 134 3228 67 
Q 2899 0 2573 0 
z
M 2637 704 
Q 3091 704 3494 809 
Q 3898 915 4378 1146 
Q 3802 1805 3290 1805 
Q 2733 1805 1811 736 
Q 2022 723 2230 713 
Q 2438 704 2637 704 
z
" transform="scale(0.015625)"/>
      <path id="NotoNaskhArabic-Bold-554" transform="scale(0.015625)"/>
      <path id="NotoNaskhArabic-Bold-3" d="M 774 58 
Q 742 717 710 1216 
Q 678 1715 646 2134 
Q 614 2554 576 2950 
Q 538 3347 493 3808 
Q 474 3968 566 4089 
Q 659 4211 822 4281 
Q 986 4352 1178 4352 
Q 1229 4154 1296 3955 
Q 1363 3757 1440 3565 
L 1216 3398 
Q 1229 2867 1222 2035 
Q 1216 1203 1184 109 
L 774 58 
z
" transform="scale(0.015625)"/>
      <path id="NotoNaskhArabic-Bold-2de" d="M 896 0 
Q 883 0 883 51 
Q 883 141 899 294 
Q 915 448 937 576 
Q 960 704 979 704 
L 1242 704 
Q 1542 947 1753 1164 
Q 1965 1382 2086 1581 
Q 1581 2086 832 2541 
L 595 2528 
Q 218 2714 218 3098 
Q 218 3437 570 3642 
Q 794 3494 1091 3235 
Q 1389 2976 1690 2675 
Q 1856 2515 2009 2355 
Q 2163 2195 2298 2042 
Q 2355 2246 2355 2477 
Q 2355 2637 2221 3411 
Q 2189 3610 2169 3728 
Q 2150 3846 2150 3891 
Q 2150 4154 2342 4307 
Q 2534 4461 2829 4461 
Q 2880 4256 2944 4057 
Q 3008 3859 3085 3674 
L 2874 3514 
L 2880 3398 
L 2899 2790 
Q 2899 2214 2598 1664 
Q 2624 1638 2713 1516 
Q 2803 1395 2908 1238 
Q 3014 1082 3094 947 
Q 3174 813 3174 762 
Q 3174 704 3142 601 
Q 3110 499 3065 387 
Q 3021 275 2979 195 
Q 2938 115 2918 109 
Q 2605 58 2102 29 
Q 1600 0 896 0 
z
M 1779 730 
Q 2067 742 2294 768 
Q 2522 794 2752 832 
Q 2650 947 2554 1062 
Q 2458 1178 2355 1299 
Q 2093 973 1779 730 
z
" transform="scale(0.015625)"/>
      <path id="NotoNaskhArabic-Bold-38" d="M 0 58 
Q -51 58 -51 109 
L -51 762 
Q -51 813 0 813 
Q 320 813 640 867 
Q 960 922 1139 998 
Q 1075 1146 976 1328 
Q 877 1510 819 1613 
Q 755 1734 710 1833 
Q 666 1933 666 2016 
Q 666 2176 838 2361 
Q 1011 2547 1248 2669 
Q 1293 2470 1347 2217 
Q 1402 1965 1446 1702 
Q 1485 1504 1501 1376 
Q 1517 1248 1517 1184 
Q 1517 1037 1443 822 
Q 1370 608 1267 410 
Q 685 58 0 58 
z
M 1332 3020 
Q 1197 3129 1088 3225 
Q 980 3321 890 3417 
Q 1127 3635 1319 3865 
Q 1376 3801 1478 3705 
Q 1581 3609 1722 3468 
Q 1549 3232 1332 3020 
z
M 474 2924 
Q 199 3148 32 3328 
Q 141 3436 250 3548 
Q 359 3660 468 3769 
Q 583 3635 864 3372 
Q 704 3142 474 2924 
z
" transform="scale(0.015625)"/>
      <path id="NotoNaskhArabic-Bold-73" d="M 0 58 
Q -51 58 -51 109 
L -51 762 
Q -51 813 0 813 
Q 467 813 793 829 
Q 1120 845 1427 934 
Q 1702 1018 1897 1069 
Q 2093 1120 2202 1146 
Q 2118 1197 2032 1251 
Q 1946 1306 1856 1363 
Q 1651 1498 1513 1555 
Q 1376 1613 1235 1613 
Q 1043 1613 870 1558 
Q 698 1504 480 1363 
Q 422 1421 377 1533 
Q 333 1645 333 1747 
Q 333 2029 582 2205 
Q 832 2381 1210 2381 
Q 1414 2381 1603 2310 
Q 1792 2240 2029 2080 
Q 2317 1882 2560 1763 
Q 2803 1645 3136 1555 
Q 3302 1517 3500 1494 
Q 3699 1472 3936 1472 
L 3654 934 
Q 3578 941 3501 941 
Q 3424 941 3347 947 
Q 3411 890 3488 867 
Q 3565 845 3661 832 
Q 3808 826 3965 822 
Q 4122 819 4262 813 
Q 4314 813 4314 762 
L 4314 109 
Q 4314 58 4262 58 
Q 4032 58 3782 80 
Q 3533 102 3325 150 
Q 3117 198 3021 262 
Q 2893 358 2838 537 
Q 2784 717 2746 877 
Q 2624 851 2525 803 
Q 2426 755 2304 675 
Q 2182 595 1990 467 
Q 1683 262 1395 176 
Q 1107 90 774 74 
Q 442 58 0 58 
z
M 2208 -1107 
Q 2035 -966 1913 -851 
Q 1792 -736 1708 -646 
Q 1836 -518 1958 -393 
Q 2080 -269 2195 -134 
Q 2361 -326 2656 -595 
Q 2585 -697 2470 -828 
Q 2355 -960 2208 -1107 
z
" transform="scale(0.015625)"/>
      <path id="NotoNaskhArabic-Bold-4" d="M 1901 58 
Q 1517 58 1283 186 
Q 1050 314 938 528 
Q 826 742 794 1018 
Q 781 1139 749 1424 
Q 717 1709 681 2073 
Q 646 2438 608 2809 
Q 570 3181 538 3481 
Q 506 3782 486 3930 
Q 845 4166 1248 4352 
Q 1274 3635 1296 2918 
Q 1318 2202 1338 1478 
L 1363 979 
Q 1478 883 1606 848 
Q 1734 813 1914 813 
Q 1952 813 1952 762 
L 1952 109 
Q 1952 58 1901 58 
z
" transform="scale(0.015625)"/>
      <path id="NotoNaskhArabic-Bold-1fd" d="M 1274 0 
Q 909 0 672 246 
Q 435 493 435 864 
Q 435 1126 572 1401 
Q 710 1677 1018 1984 
Q 915 2048 880 2141 
Q 845 2234 845 2330 
Q 845 2464 899 2585 
Q 954 2707 1043 2752 
Q 1408 2637 1721 2381 
Q 2035 2125 2214 1798 
Q 2394 1466 2394 1184 
Q 2394 1094 2349 944 
Q 2304 794 2233 634 
Q 2163 474 2086 349 
Q 2010 224 1939 179 
Q 1818 96 1642 48 
Q 1466 0 1274 0 
z
M 1344 672 
Q 1690 672 1978 851 
Q 1882 1133 1715 1360 
Q 1549 1587 1286 1786 
Q 915 1421 915 1075 
Q 915 896 1040 784 
Q 1165 672 1344 672 
z
" transform="scale(0.015625)"/>
      <path id="DejaVuSans-Bold-b" d="M 2413 -844 
L 1484 -844 
Q 1006 -72 778 623 
Q 550 1319 550 2003 
Q 550 2688 779 3389 
Q 1009 4091 1484 4856 
L 2413 4856 
Q 2013 4116 1813 3408 
Q 1613 2700 1613 2009 
Q 1613 1319 1811 609 
Q 2009 -100 2413 -844 
z
" transform="scale(0.015625)"/>
      <path id="NotoNaskhArabic-Bold-b5" d="M 1075 0 
Q 218 0 218 499 
Q 218 634 272 784 
Q 326 934 410 1018 
Q 570 890 774 826 
Q 979 762 1280 762 
Q 1696 762 2118 896 
Q 2016 1082 1929 1222 
Q 1843 1363 1773 1466 
Q 1594 1728 1478 1923 
Q 1363 2118 1363 2240 
Q 1363 2445 1526 2630 
Q 1690 2816 1901 2880 
Q 1952 2714 2022 2515 
Q 2093 2317 2166 2125 
Q 2240 1933 2291 1792 
Q 2381 1549 2445 1337 
Q 2509 1126 2509 954 
Q 2509 896 2473 765 
Q 2438 634 2387 493 
Q 2336 352 2285 250 
Q 2054 134 1734 67 
Q 1414 0 1075 0 
z
" transform="scale(0.015625)"/>
      <path id="NotoNaskhArabic-Bold-136" d="M 0 58 
Q -51 58 -51 109 
L -51 762 
Q -51 813 0 813 
L 499 813 
Q 365 1005 365 1210 
Q 365 1408 441 1632 
Q 518 1856 652 2057 
Q 787 2259 947 2387 
Q 1190 2579 1440 2579 
Q 1875 2579 2406 1990 
L 2272 1728 
Q 2074 1805 1907 1840 
Q 1741 1875 1600 1875 
Q 1376 1875 1197 1827 
Q 1018 1779 819 1670 
Q 832 1434 921 1245 
Q 1011 1056 1190 928 
Q 1267 877 1338 838 
Q 1843 870 2240 953 
Q 2637 1037 3040 1197 
Q 3091 1152 3116 1056 
Q 3142 960 3142 883 
Q 3142 730 3072 602 
Q 3002 474 2874 410 
Q 2746 346 2259 250 
Q 1766 147 1235 102 
Q 704 58 0 58 
z
" transform="scale(0.015625)"/>
      <path id="NotoNaskhArabic-Bold-1e3" d="M 570 -1965 
Q 570 -1664 554 -1296 
Q 538 -928 506 -486 
Q 467 -45 451 240 
Q 435 525 435 653 
Q 435 723 493 896 
Q 525 979 576 1107 
Q 627 1235 704 1402 
Q 723 1434 857 1539 
Q 992 1645 1181 1776 
Q 1370 1907 1542 2010 
Q 1811 2157 2054 2249 
Q 2298 2342 2477 2342 
Q 2592 2342 2678 2227 
Q 2765 2112 2842 1946 
Q 2874 1862 2912 1769 
Q 2950 1677 2982 1581 
Q 3053 1382 3139 1209 
Q 3226 1037 3328 928 
Q 3437 813 3590 813 
Q 3661 813 3661 755 
L 3661 128 
Q 3661 58 3590 58 
Q 3277 58 3014 301 
L 2931 0 
Q 2445 0 2064 93 
Q 1683 186 1462 362 
Q 1242 538 1242 774 
Q 1242 998 1318 1216 
Q 1242 1171 1117 1081 
Q 992 992 819 864 
Q 870 531 928 182 
Q 986 -166 1069 -672 
Q 1120 -979 1158 -1212 
Q 1197 -1446 1216 -1600 
Q 877 -1856 570 -1965 
z
M 2726 710 
Q 2515 1133 2458 1664 
Q 1920 1453 1606 1082 
Q 1939 806 2726 710 
z
" transform="scale(0.015625)"/>
      <path id="DejaVuSans-Bold-c" d="M 513 -844 
Q 913 -100 1113 609 
Q 1313 1319 1313 2009 
Q 1313 2700 1113 3408 
Q 913 4116 513 4856 
L 1441 4856 
Q 1916 4091 2145 3389 
Q 2375 2688 2375 2003 
Q 2375 1319 2147 623 
Q 1919 -72 1441 -844 
L 513 -844 
z
" transform="scale(0.015625)"/>
     </defs>
     <use xlink:href="#NotoNaskhArabic-Bold-a4"/>
     <use xlink:href="#NotoNaskhArabic-Bold-124" transform="translate(64.90625 0)"/>
     <use xlink:href="#NotoNaskhArabic-Bold-554" transform="translate(149 0)"/>
     <use xlink:href="#NotoNaskhArabic-Bold-3" transform="translate(171.09375 0)"/>
     <use xlink:href="#NotoNaskhArabic-Bold-2de" transform="translate(199.5 0)"/>
     <use xlink:href="#NotoNaskhArabic-Bold-38" transform="translate(254.09375 0)"/>
     <use xlink:href="#NotoNaskhArabic-Bold-73" transform="translate(281.59375 0)"/>
     <use xlink:href="#NotoNaskhArabic-Bold-4" transform="translate(347.296875 0)"/>
     <use xlink:href="#NotoNaskhArabic-Bold-1fd" transform="translate(376.09375 0)"/>
     <use xlink:href="#NotoNaskhArabic-Bold-554" transform="translate(418.59375 0)"/>
     <use xlink:href="#DejaVuSans-Bold-b" transform="translate(440.6875 0)"/>
     <use xlink:href="#NotoNaskhArabic-Bold-b5" transform="translate(486.390625 0)"/>
     <use xlink:href="#NotoNaskhArabic-Bold-136" transform="translate(529.890625 0)"/>
     <use xlink:href="#NotoNaskhArabic-Bold-1e3" transform="translate(581.59375 0)"/>
     <use xlink:href="#DejaVuSans-Bold-c" transform="translate(637.09375 0)"/>
     <use xlink:href="#NotoNaskhArabic-Bold-554" transform="translate(682.796875 0)"/>
    </g>
   </g>
   <g id="text_9">
    <!-- ​(ﺔﻣﻭﺎﻘﻣ) ﺓﺎﻨﻘﻟﺍ -->
    <g style="fill: #1f2937" transform="translate(542.536342 49.486144) scale(0.09 -0.09)">
     <defs>
      <path id="NotoNaskhArabic-Bold-1c1" d="M 0 58 
Q -51 58 -51 109 
L -51 762 
Q -51 813 0 813 
Q 282 813 672 960 
Q 646 1146 624 1334 
Q 602 1523 570 1709 
Q 544 1894 441 2448 
Q 339 3002 173 3930 
Q 339 4045 534 4147 
Q 730 4250 934 4352 
Q 947 3827 960 3356 
Q 973 2886 986 2477 
Q 998 2067 1004 1718 
Q 1011 1370 1011 1069 
Q 1011 634 762 256 
Q 698 166 490 112 
Q 282 58 0 58 
z
" transform="scale(0.015625)"/>
      <path id="NotoNaskhArabic-Bold-169" d="M 6 58 
Q -51 58 -51 115 
L -51 755 
Q -51 813 6 813 
Q 115 813 227 816 
Q 339 819 454 819 
Q 358 973 358 1114 
Q 358 1197 374 1337 
Q 390 1478 419 1606 
Q 448 1734 474 1786 
Q 595 2003 771 2179 
Q 947 2355 1152 2457 
Q 1357 2560 1549 2560 
Q 1722 2560 1898 2368 
Q 2074 2176 2182 1875 
Q 2291 1568 2291 1306 
Q 2291 1056 2150 819 
Q 2285 819 2422 816 
Q 2560 813 2694 813 
Q 2746 813 2746 762 
L 2746 109 
Q 2746 58 2694 58 
Q 1882 58 1325 269 
Q 1030 147 716 102 
Q 403 58 6 58 
z
M 1299 794 
Q 1690 902 1933 1107 
Q 1888 1280 1795 1446 
Q 1702 1613 1613 1696 
Q 1549 1773 1478 1773 
Q 1146 1773 704 1178 
Q 819 1043 979 944 
Q 1139 845 1299 794 
z
M 1888 3052 
Q 1753 3161 1644 3257 
Q 1536 3353 1446 3449 
Q 1683 3667 1875 3897 
Q 1932 3833 2034 3737 
Q 2137 3641 2278 3500 
Q 2105 3264 1888 3052 
z
M 1030 2956 
Q 755 3180 588 3360 
Q 697 3468 806 3580 
Q 915 3692 1024 3801 
Q 1139 3667 1420 3404 
Q 1260 3174 1030 2956 
z
" transform="scale(0.015625)"/>
      <path id="NotoNaskhArabic-Bold-1e9" d="M 0 58 
Q -51 58 -51 109 
L -51 762 
Q -51 813 0 813 
Q 416 813 627 966 
Q 710 1024 774 1145 
Q 838 1267 922 1427 
Q 1024 1632 1101 1680 
Q 1178 1728 1280 1728 
Q 1427 1728 1536 1638 
Q 1466 1478 1392 1312 
Q 1318 1146 1248 979 
Q 1562 813 1926 813 
Q 1978 813 1978 762 
L 1978 109 
Q 1978 58 1926 58 
Q 1440 58 998 499 
Q 960 435 925 384 
Q 890 333 858 288 
Q 774 192 550 125 
Q 326 58 0 58 
z
M 966 2284 
Q 640 2553 474 2745 
Q 621 2892 739 3017 
Q 858 3142 954 3257 
Q 1024 3180 1139 3065 
Q 1254 2950 1414 2796 
Q 1338 2688 1226 2560 
Q 1114 2432 966 2284 
z
" transform="scale(0.015625)"/>
      <path id="NotoNaskhArabic-Bold-214" d="M 1274 0 
Q 909 0 672 246 
Q 435 493 435 864 
Q 435 1126 572 1401 
Q 710 1677 1018 1984 
Q 915 2048 880 2141 
Q 845 2234 845 2330 
Q 845 2464 899 2585 
Q 954 2707 1043 2752 
Q 1408 2637 1721 2381 
Q 2035 2125 2214 1798 
Q 2394 1466 2394 1184 
Q 2394 1094 2349 944 
Q 2304 794 2233 634 
Q 2163 474 2086 349 
Q 2010 224 1939 179 
Q 1818 96 1642 48 
Q 1466 0 1274 0 
z
M 1344 672 
Q 1690 672 1978 851 
Q 1882 1133 1715 1360 
Q 1549 1587 1286 1786 
Q 915 1421 915 1075 
Q 915 896 1040 784 
Q 1165 672 1344 672 
z
M 1684 3251 
Q 1549 3360 1440 3456 
Q 1332 3552 1242 3648 
Q 1479 3866 1671 4096 
Q 1728 4032 1830 3936 
Q 1933 3840 2074 3699 
Q 1901 3463 1684 3251 
z
M 826 3155 
Q 551 3379 384 3559 
Q 493 3667 602 3779 
Q 711 3891 820 4000 
Q 935 3866 1216 3603 
Q 1056 3373 826 3155 
z
" transform="scale(0.015625)"/>
      <path id="NotoNaskhArabic-Bold-1e5" d="M 2349 0 
Q 1920 0 1488 99 
Q 1056 198 755 358 
Q 602 198 429 128 
Q 256 58 0 58 
Q -51 58 -51 109 
L -51 762 
Q -51 813 0 813 
Q 525 813 774 1286 
Q 890 1517 982 1680 
Q 1075 1843 1146 1939 
Q 1306 2157 1446 2249 
Q 1587 2342 1773 2342 
Q 2003 2342 2224 2102 
Q 2445 1862 2586 1466 
Q 2726 1082 2726 723 
Q 2726 557 2611 339 
Q 2496 122 2349 0 
z
M 2138 704 
Q 2112 941 2035 1142 
Q 1958 1344 1862 1466 
Q 1760 1587 1677 1587 
Q 1536 1587 1427 1472 
Q 1325 1363 1120 960 
Q 1325 870 1577 803 
Q 1830 736 2138 704 
z
" transform="scale(0.015625)"/>
      <path id="NotoNaskhArabic-Bold-218" d="M 1248 -1248 
Q 1171 -1248 1011 -1174 
Q 851 -1101 668 -982 
Q 486 -864 326 -730 
L 429 -461 
Q 602 -506 778 -528 
Q 954 -550 1133 -550 
Q 1632 -550 2003 -304 
Q 2374 -58 2515 371 
L 2509 416 
Q 2323 224 2105 112 
Q 1888 0 1664 0 
Q 1267 0 1049 230 
Q 832 461 832 883 
Q 832 1242 966 1584 
Q 1101 1926 1318 2131 
Q 1530 2342 1766 2342 
Q 2042 2342 2288 2089 
Q 2534 1837 2694 1402 
Q 2848 973 2848 570 
Q 2848 83 2637 -339 
Q 2426 -762 2054 -1005 
Q 1690 -1248 1248 -1248 
z
M 1792 704 
Q 2074 704 2400 813 
Q 2342 992 2220 1181 
Q 2099 1370 1952 1472 
Q 1798 1574 1658 1574 
Q 1498 1574 1376 1488 
Q 1254 1402 1203 1267 
Q 1178 1190 1178 1094 
Q 1178 902 1338 803 
Q 1498 704 1792 704 
z
" transform="scale(0.015625)"/>
      <path id="NotoNaskhArabic-Bold-215" d="M 3302 58 
Q 2912 58 2675 182 
Q 2438 307 2393 531 
L 2336 768 
L 2080 243 
Q 1881 262 1711 288 
Q 1542 314 1395 365 
Q 1235 422 1075 518 
Q 915 614 806 716 
Q 697 819 697 890 
Q 697 941 738 1078 
Q 780 1216 838 1369 
Q 896 1523 940 1600 
Q 998 1728 1184 1882 
Q 1363 2042 1593 2192 
Q 1824 2342 1984 2413 
L 1952 2669 
Q 2118 2797 2223 2873 
Q 2329 2950 2418 3011 
Q 2508 3072 2617 3136 
L 2617 986 
Q 2924 813 3302 813 
Q 3353 813 3353 762 
L 3353 109 
Q 3353 58 3302 58 
z
M 2272 1005 
Q 2233 1158 2188 1366 
Q 2144 1574 2086 1837 
Q 1491 1638 1152 1318 
Q 1356 1178 1542 1123 
Q 1728 1069 1894 1043 
Q 2067 1011 2272 1005 
z
M 2138 3257 
Q 2003 3366 1894 3462 
Q 1786 3558 1696 3654 
Q 1933 3872 2125 4102 
Q 2182 4038 2284 3942 
Q 2387 3846 2528 3705 
Q 2355 3469 2138 3257 
z
M 1280 3161 
Q 1005 3385 838 3565 
Q 947 3673 1056 3785 
Q 1165 3897 1274 4006 
Q 1389 3872 1670 3609 
Q 1510 3379 1280 3161 
z
" transform="scale(0.015625)"/>
     </defs>
     <use xlink:href="#NotoNaskhArabic-Bold-3"/>
     <use xlink:href="#NotoNaskhArabic-Bold-1c1" transform="translate(28.40625 0)"/>
     <use xlink:href="#NotoNaskhArabic-Bold-169" transform="translate(50.109375 0)"/>
     <use xlink:href="#NotoNaskhArabic-Bold-1e9" transform="translate(91.3125 0)"/>
     <use xlink:href="#NotoNaskhArabic-Bold-4" transform="translate(120.515625 0)"/>
     <use xlink:href="#NotoNaskhArabic-Bold-214" transform="translate(149.3125 0)"/>
     <use xlink:href="#NotoNaskhArabic-Bold-554" transform="translate(191.8125 0)"/>
     <use xlink:href="#DejaVuSans-Bold-b" transform="translate(213.90625 0)"/>
     <use xlink:href="#NotoNaskhArabic-Bold-1e5" transform="translate(259.609375 0)"/>
     <use xlink:href="#NotoNaskhArabic-Bold-169" transform="translate(306.90625 0)"/>
     <use xlink:href="#NotoNaskhArabic-Bold-4" transform="translate(348.109375 0)"/>
     <use xlink:href="#NotoNaskhArabic-Bold-218" transform="translate(376.90625 0)"/>
     <use xlink:href="#NotoNaskhArabic-Bold-1e5" transform="translate(426.609375 0)"/>
     <use xlink:href="#NotoNaskhArabic-Bold-215" transform="translate(473.90625 0)"/>
     <use xlink:href="#DejaVuSans-Bold-c" transform="translate(524.609375 0)"/>
     <use xlink:href="#NotoNaskhArabic-Bold-554" transform="translate(570.3125 0)"/>
    </g>
   </g>
   <g id="patch_5">
    <path d="M 69.982233 220.577891 
L 80.896446 220.577891 
L 80.896446 212.415092 
L 69.982233 212.415092 
z
" clip-path="url(#pc531729714)" style="fill: #1f8a56; stroke: #1f8a56; stroke-linejoin: miter"/>
   </g>
   <g id="patch_6">
    <path d="M 88.172588 235.232528 
L 99.086802 235.232528 
L 99.086802 211.705305 
L 88.172588 211.705305 
z
" clip-path="url(#pc531729714)" style="fill: #b91c1c; stroke: #b91c1c; stroke-linejoin: miter"/>
   </g>
   <g id="patch_7">
    <path d="M 106.362944 236.211595 
L 117.277157 236.211595 
L 117.277157 223.187033 
L 106.362944 223.187033 
z
" clip-path="url(#pc531729714)" style="fill: #1f8a56; stroke: #1f8a56; stroke-linejoin: miter"/>
   </g>
   <g id="patch_8">
    <path d="M 124.553299 222.88035 
L 135.467512 222.88035 
L 135.467512 215.570049 
L 124.553299 215.570049 
z
" clip-path="url(#pc531729714)" style="fill: #1f8a56; stroke: #1f8a56; stroke-linejoin: miter"/>
   </g>
   <g id="patch_9">
    <path d="M 142.743654 216.524554 
L 153.657868 216.524554 
L 153.657868 212.051075 
L 142.743654 212.051075 
z
" clip-path="url(#pc531729714)" style="fill: #b91c1c; stroke: #b91c1c; stroke-linejoin: miter"/>
   </g>
   <g id="patch_10">
    <path d="M 160.93401 214.621807 
L 171.848223 214.621807 
L 171.848223 210.148328 
L 160.93401 210.148328 
z
" clip-path="url(#pc531729714)" style="fill: #1f8a56; stroke: #1f8a56; stroke-linejoin: miter"/>
   </g>
   <g id="patch_11">
    <path d="M 179.124365 212.372853 
L 190.038578 212.372853 
L 190.038578 207.899374 
L 179.124365 207.899374 
z
" clip-path="url(#pc531729714)" style="fill: #1f8a56; stroke: #1f8a56; stroke-linejoin: miter"/>
   </g>
   <g id="patch_12">
    <path d="M 197.314721 213.638096 
L 208.228934 213.638096 
L 208.228934 206.691981 
L 197.314721 206.691981 
z
" clip-path="url(#pc531729714)" style="fill: #b91c1c; stroke: #b91c1c; stroke-linejoin: miter"/>
   </g>
   <g id="patch_13">
    <path d="M 215.505076 213.145103 
L 226.419289 213.145103 
L 226.419289 175.864334 
L 215.505076 175.864334 
z
" clip-path="url(#pc531729714)" style="fill: #1f8a56; stroke: #1f8a56; stroke-linejoin: miter"/>
   </g>
   <g id="patch_14">
    <path d="M 233.695431 176.103138 
L 244.609644 176.103138 
L 244.609644 171.359594 
L 233.695431 171.359594 
z
" clip-path="url(#pc531729714)" style="fill: #1f8a56; stroke: #1f8a56; stroke-linejoin: miter"/>
   </g>
   <g id="patch_15">
    <path d="M 251.885787 173.28761 
L 262.8 173.28761 
L 262.8 168.814131 
L 251.885787 168.814131 
z
" clip-path="url(#pc531729714)" style="fill: #b91c1c; stroke: #b91c1c; stroke-linejoin: miter"/>
   </g>
   <g id="patch_16">
    <path d="M 270.076142 171.186346 
L 280.990355 171.186346 
L 280.990355 166.712867 
L 270.076142 166.712867 
z
" clip-path="url(#pc531729714)" style="fill: #1f8a56; stroke: #1f8a56; stroke-linejoin: miter"/>
   </g>
   <g id="patch_17">
    <path d="M 288.266497 176.85122 
L 299.18071 176.85122 
L 299.18071 166.556426 
L 288.266497 166.556426 
z
" clip-path="url(#pc531729714)" style="fill: #b91c1c; stroke: #b91c1c; stroke-linejoin: miter"/>
   </g>
   <g id="patch_18">
    <path d="M 306.456853 177.054749 
L 317.371066 177.054749 
L 317.371066 166.623564 
L 306.456853 166.623564 
z
" clip-path="url(#pc531729714)" style="fill: #1f8a56; stroke: #1f8a56; stroke-linejoin: miter"/>
   </g>
   <g id="patch_19">
    <path d="M 324.647208 167.038418 
L 335.561421 167.038418 
L 335.561421 150.518683 
L 324.647208 150.518683 
z
" clip-path="url(#pc531729714)" style="fill: #1f8a56; stroke: #1f8a56; stroke-linejoin: miter"/>
   </g>
   <g id="patch_20">
    <path d="M 342.837563 152.401769 
L 353.751776 152.401769 
L 353.751776 141.420483 
L 342.837563 141.420483 
z
" clip-path="url(#pc531729714)" style="fill: #1f8a56; stroke: #1f8a56; stroke-linejoin: miter"/>
   </g>
   <g id="patch_21">
    <path d="M 361.027919 148.432391 
L 371.942132 148.432391 
L 371.942132 143.372595 
L 361.027919 143.372595 
z
" clip-path="url(#pc531729714)" style="fill: #b91c1c; stroke: #b91c1c; stroke-linejoin: miter"/>
   </g>
   <g id="patch_22">
    <path d="M 379.218274 148.135794 
L 390.132487 148.135794 
L 390.132487 143.38161 
L 379.218274 143.38161 
z
" clip-path="url(#pc531729714)" style="fill: #1f8a56; stroke: #1f8a56; stroke-linejoin: miter"/>
   </g>
   <g id="patch_23">
    <path d="M 397.408629 144.568276 
L 408.322842 144.568276 
L 408.322842 140.094798 
L 397.408629 140.094798 
z
" clip-path="url(#pc531729714)" style="fill: #b91c1c; stroke: #b91c1c; stroke-linejoin: miter"/>
   </g>
   <g id="patch_24">
    <path d="M 415.598985 143.024168 
L 426.513198 143.024168 
L 426.513198 120.123903 
L 415.598985 120.123903 
z
" clip-path="url(#pc531729714)" style="fill: #1f8a56; stroke: #1f8a56; stroke-linejoin: miter"/>
   </g>
   <g id="patch_25">
    <path d="M 433.78934 140.978298 
L 444.703553 140.978298 
L 444.703553 121.655255 
L 433.78934 121.655255 
z
" clip-path="url(#pc531729714)" style="fill: #b91c1c; stroke: #b91c1c; stroke-linejoin: miter"/>
   </g>
   <g id="patch_26">
    <path d="M 451.979695 141.896327 
L 462.893909 141.896327 
L 462.893909 128.886081 
L 451.979695 128.886081 
z
" clip-path="url(#pc531729714)" style="fill: #1f8a56; stroke: #1f8a56; stroke-linejoin: miter"/>
   </g>
   <g id="patch_27">
    <path d="M 470.170051 126.589014 
L 481.084264 126.589014 
L 481.084264 120.905436 
L 470.170051 120.905436 
z
" clip-path="url(#pc531729714)" style="fill: #1f8a56; stroke: #1f8a56; stroke-linejoin: miter"/>
   </g>
   <g id="patch_28">
    <path d="M 488.360406 122.885534 
L 499.274619 122.885534 
L 499.274619 118.412055 
L 488.360406 118.412055 
z
" clip-path="url(#pc531729714)" style="fill: #b91c1c; stroke: #b91c1c; stroke-linejoin: miter"/>
   </g>
   <g id="patch_29">
    <path d="M 506.550761 121.987087 
L 517.464975 121.987087 
L 517.464975 116.926474 
L 506.550761 116.926474 
z
" clip-path="url(#pc531729714)" style="fill: #1f8a56; stroke: #1f8a56; stroke-linejoin: miter"/>
   </g>
   <g id="patch_30">
    <path d="M 524.741117 117.029351 
L 535.65533 117.029351 
L 535.65533 90.104529 
L 524.741117 90.104529 
z
" clip-path="url(#pc531729714)" style="fill: #1f8a56; stroke: #1f8a56; stroke-linejoin: miter"/>
   </g>
   <g id="patch_31">
    <path d="M 542.931472 94.278861 
L 553.845685 94.278861 
L 553.845685 89.805383 
L 542.931472 89.805383 
z
" clip-path="url(#pc531729714)" style="fill: #b91c1c; stroke: #b91c1c; stroke-linejoin: miter"/>
   </g>
   <g id="patch_32">
    <path d="M 561.121827 97.188172 
L 572.036041 97.188172 
L 572.036041 92.714693 
L 561.121827 92.714693 
z
" clip-path="url(#pc531729714)" style="fill: #b91c1c; stroke: #b91c1c; stroke-linejoin: miter"/>
   </g>
   <g id="patch_33">
    <path d="M 579.312183 106.009103 
L 590.226396 106.009103 
L 590.226396 100.675847 
L 579.312183 100.675847 
z
" clip-path="url(#pc531729714)" style="fill: #b91c1c; stroke: #b91c1c; stroke-linejoin: miter"/>
   </g>
   <g id="patch_34">
    <path d="M 597.502538 106.540307 
L 608.416751 106.540307 
L 608.416751 93.415901 
L 597.502538 93.415901 
z
" clip-path="url(#pc531729714)" style="fill: #1f8a56; stroke: #1f8a56; stroke-linejoin: miter"/>
   </g>
  </g>
 </g>
 <defs>
  <clipPath id="pc531729714">
   <rect x="57.248984" y="7.2" width="563.901016" height="300.92"/>
  </clipPath>
 </defs>
</svg>
