<?xml version="1.0" encoding="utf-8" standalone="no"?>
<!DOCTYPE svg PUBLIC "-//W3C//DTD SVG 1.1//EN"
  "http://www.w3.org/Graphics/SVG/1.1/DTD/svg11.dtd">
<svg xmlns:xlink="http://www.w3.org/1999/xlink" width="729.15pt" height="318.75pt" viewBox="0 0 729.15 318.75" xmlns="http://www.w3.org/2000/svg" version="1.1">
 <metadata>
  <rdf:RDF xmlns:dc="http://purl.org/dc/elements/1.1/" xmlns:cc="http://creativecommons.org/ns#" xmlns:rdf="http://www.w3.org/1999/02/22-rdf-syntax-ns#">
   <cc:Work>
    <dc:type rdf:resource="http://purl.org/dc/dcmitype/StillImage"/>
    <dc:date>2026-07-18T20:17:16.833742</dc:date>
    <dc:format>image/svg+xml</dc:format>
    <dc:creator>
     <cc:Agent>
      <dc:title>Matplotlib v3.11.1, https://matplotlib.org/</dc:title>
     </cc:Agent>
    </dc:creator>
   </cc:Work>
  </rdf:RDF>
 </metadata>
 <defs>
  <style type="text/css">*{stroke-linejoin: round; stroke-linecap: butt}</style>
 </defs>
 <g id="figure_1">
  <g id="patch_1">
   <path d="M 0 318.75 
L 729.15 318.75 
L 729.15 0 
L 0 0 
z
" style="fill: #ffffff"/>
  </g>
  <g id="axes_1">
   <g id="patch_2">
    <path d="M 34.241875 311.55 
L 363.2625 311.55 
L 363.2625 21.178359 
L 34.241875 21.178359 
z
" style="fill: #ffffff"/>
   </g>
   <g id="matplotlib.axis_1"/>
   <g id="matplotlib.axis_2">
    <g id="ytick_1">
     <g id="line2d_1">
      <defs>
       <path id="mdb5bca6b1c" d="M 0 0 
L -3.5 0 
" style="stroke: #555555; stroke-width: 0.8"/>
      </defs>
      <g>
       <use xlink:href="#mdb5bca6b1c" x="34.241875" y="301.05776" style="fill: #555555; stroke: #555555; stroke-width: 0.8"/>
      </g>
     </g>
     <g id="text_1">
      <!-- 100 -->
      <g style="fill: #555555" transform="translate(7.2 305.04653) scale(0.105 -0.105)">
       <defs>
        <path id="DejaVuSans-14" d="M 794 531 
L 1825 531 
L 1825 4091 
L 703 3866 
L 703 4441 
L 1819 4666 
L 2450 4666 
L 2450 531 
L 3481 531 
L 3481 0 
L 794 0 
L 794 531 
z
" transform="scale(0.015625)"/>
        <path id="DejaVuSans-13" d="M 2034 4250 
Q 1547 4250 1301 3770 
Q 1056 3291 1056 2328 
Q 1056 1369 1301 889 
Q 1547 409 2034 409 
Q 2525 409 2770 889 
Q 3016 1369 3016 2328 
Q 3016 3291 2770 3770 
Q 2525 4250 2034 4250 
z
M 2034 4750 
Q 2819 4750 3233 4129 
Q 3647 3509 3647 2328 
Q 3647 1150 3233 529 
Q 2819 -91 2034 -91 
Q 1250 -91 836 529 
Q 422 1150 422 2328 
Q 422 3509 836 4129 
Q 1250 4750 2034 4750 
z
" transform="scale(0.015625)"/>
       </defs>
       <use xlink:href="#DejaVuSans-14"/>
       <use xlink:href="#DejaVuSans-13" transform="translate(63.625 0)"/>
       <use xlink:href="#DejaVuSans-13" transform="translate(127.25 0)"/>
      </g>
     </g>
    </g>
    <g id="ytick_2">
     <g id="line2d_2">
      <g>
       <use xlink:href="#mdb5bca6b1c" x="34.241875" y="258.944459" style="fill: #555555; stroke: #555555; stroke-width: 0.8"/>
      </g>
     </g>
     <g id="text_2">
      <!-- 102 -->
      <g style="fill: #555555" transform="translate(7.2 262.933229) scale(0.105 -0.105)">
       <defs>
        <path id="DejaVuSans-15" d="M 1228 531 
L 3431 531 
L 3431 0 
L 469 0 
L 469 531 
Q 828 903 1448 1529 
Q 2069 2156 2228 2338 
Q 2531 2678 2651 2914 
Q 2772 3150 2772 3378 
Q 2772 3750 2511 3984 
Q 2250 4219 1831 4219 
Q 1534 4219 1204 4116 
Q 875 4013 500 3803 
L 500 4441 
Q 881 4594 1212 4672 
Q 1544 4750 1819 4750 
Q 2544 4750 2975 4387 
Q 3406 4025 3406 3419 
Q 3406 3131 3298 2873 
Q 3191 2616 2906 2266 
Q 2828 2175 2409 1742 
Q 1991 1309 1228 531 
z
" transform="scale(0.015625)"/>
       </defs>
       <use xlink:href="#DejaVuSans-14"/>
       <use xlink:href="#DejaVuSans-13" transform="translate(63.625 0)"/>
       <use xlink:href="#DejaVuSans-15" transform="translate(127.25 0)"/>
      </g>
     </g>
    </g>
    <g id="ytick_3">
     <g id="line2d_3">
      <g>
       <use xlink:href="#mdb5bca6b1c" x="34.241875" y="216.831158" style="fill: #555555; stroke: #555555; stroke-width: 0.8"/>
      </g>
     </g>
     <g id="text_3">
      <!-- 104 -->
      <g style="fill: #555555" transform="translate(7.2 220.819928) scale(0.105 -0.105)">
       <defs>
        <path id="DejaVuSans-17" d="M 2419 4116 
L 825 1625 
L 2419 1625 
L 2419 4116 
z
M 2253 4666 
L 3047 4666 
L 3047 1625 
L 3713 1625 
L 3713 1100 
L 3047 1100 
L 3047 0 
L 2419 0 
L 2419 1100 
L 313 1100 
L 313 1709 
L 2253 4666 
z
" transform="scale(0.015625)"/>
       </defs>
       <use xlink:href="#DejaVuSans-14"/>
       <use xlink:href="#DejaVuSans-13" transform="translate(63.625 0)"/>
       <use xlink:href="#DejaVuSans-17" transform="translate(127.25 0)"/>
      </g>
     </g>
    </g>
    <g id="ytick_4">
     <g id="line2d_4">
      <g>
       <use xlink:href="#mdb5bca6b1c" x="34.241875" y="174.717858" style="fill: #555555; stroke: #555555; stroke-width: 0.8"/>
      </g>
     </g>
     <g id="text_4">
      <!-- 106 -->
      <g style="fill: #555555" transform="translate(7.2 178.706627) scale(0.105 -0.105)">
       <defs>
        <path id="DejaVuSans-19" d="M 2113 2584 
Q 1688 2584 1439 2293 
Q 1191 2003 1191 1497 
Q 1191 994 1439 701 
Q 1688 409 2113 409 
Q 2538 409 2786 701 
Q 3034 994 3034 1497 
Q 3034 2003 2786 2293 
Q 2538 2584 2113 2584 
z
M 3366 4563 
L 3366 3988 
Q 3128 4100 2886 4159 
Q 2644 4219 2406 4219 
Q 1781 4219 1451 3797 
Q 1122 3375 1075 2522 
Q 1259 2794 1537 2939 
Q 1816 3084 2150 3084 
Q 2853 3084 3261 2657 
Q 3669 2231 3669 1497 
Q 3669 778 3244 343 
Q 2819 -91 2113 -91 
Q 1303 -91 875 529 
Q 447 1150 447 2328 
Q 447 3434 972 4092 
Q 1497 4750 2381 4750 
Q 2619 4750 2861 4703 
Q 3103 4656 3366 4563 
z
" transform="scale(0.015625)"/>
       </defs>
       <use xlink:href="#DejaVuSans-14"/>
       <use xlink:href="#DejaVuSans-13" transform="translate(63.625 0)"/>
       <use xlink:href="#DejaVuSans-19" transform="translate(127.25 0)"/>
      </g>
     </g>
    </g>
    <g id="ytick_5">
     <g id="line2d_5">
      <g>
       <use xlink:href="#mdb5bca6b1c" x="34.241875" y="132.604557" style="fill: #555555; stroke: #555555; stroke-width: 0.8"/>
      </g>
     </g>
     <g id="text_5">
      <!-- 108 -->
      <g style="fill: #555555" transform="translate(7.2 136.593326) scale(0.105 -0.105)">
       <defs>
        <path id="DejaVuSans-1b" d="M 2034 2216 
Q 1584 2216 1326 1975 
Q 1069 1734 1069 1313 
Q 1069 891 1326 650 
Q 1584 409 2034 409 
Q 2484 409 2743 651 
Q 3003 894 3003 1313 
Q 3003 1734 2745 1975 
Q 2488 2216 2034 2216 
z
M 1403 2484 
Q 997 2584 770 2862 
Q 544 3141 544 3541 
Q 544 4100 942 4425 
Q 1341 4750 2034 4750 
Q 2731 4750 3128 4425 
Q 3525 4100 3525 3541 
Q 3525 3141 3298 2862 
Q 3072 2584 2669 2484 
Q 3125 2378 3379 2068 
Q 3634 1759 3634 1313 
Q 3634 634 3220 271 
Q 2806 -91 2034 -91 
Q 1263 -91 848 271 
Q 434 634 434 1313 
Q 434 1759 690 2068 
Q 947 2378 1403 2484 
z
M 1172 3481 
Q 1172 3119 1398 2916 
Q 1625 2713 2034 2713 
Q 2441 2713 2670 2916 
Q 2900 3119 2900 3481 
Q 2900 3844 2670 4047 
Q 2441 4250 2034 4250 
Q 1625 4250 1398 4047 
Q 1172 3844 1172 3481 
z
" transform="scale(0.015625)"/>
       </defs>
       <use xlink:href="#DejaVuSans-14"/>
       <use xlink:href="#DejaVuSans-13" transform="translate(63.625 0)"/>
       <use xlink:href="#DejaVuSans-1b" transform="translate(127.25 0)"/>
      </g>
     </g>
    </g>
    <g id="ytick_6">
     <g id="line2d_6">
      <g>
       <use xlink:href="#mdb5bca6b1c" x="34.241875" y="90.491256" style="fill: #555555; stroke: #555555; stroke-width: 0.8"/>
      </g>
     </g>
     <g id="text_6">
      <!-- 110 -->
      <g style="fill: #555555" transform="translate(7.2 94.480025) scale(0.105 -0.105)">
       <use xlink:href="#DejaVuSans-14"/>
       <use xlink:href="#DejaVuSans-14" transform="translate(63.625 0)"/>
       <use xlink:href="#DejaVuSans-13" transform="translate(127.25 0)"/>
      </g>
     </g>
    </g>
    <g id="ytick_7">
     <g id="line2d_7">
      <g>
       <use xlink:href="#mdb5bca6b1c" x="34.241875" y="48.377955" style="fill: #555555; stroke: #555555; stroke-width: 0.8"/>
      </g>
     </g>
     <g id="text_7">
      <!-- 112 -->
      <g style="fill: #555555" transform="translate(7.2 52.366724) scale(0.105 -0.105)">
       <use xlink:href="#DejaVuSans-14"/>
       <use xlink:href="#DejaVuSans-14" transform="translate(63.625 0)"/>
       <use xlink:href="#DejaVuSans-15" transform="translate(127.25 0)"/>
      </g>
     </g>
    </g>
   </g>
   <g id="line2d_8">
    <path d="M 34.241875 220.062194 
L 363.2625 220.062194 
" clip-path="url(#pf0e9a25b8d)" style="fill: none; stroke-dasharray: 5.18,2.24; stroke-dashoffset: 0; stroke: #b7791f; stroke-width: 1.4"/>
   </g>
   <g id="patch_3">
    <path d="M 34.241875 311.55 
L 34.241875 21.178359 
" style="fill: none; stroke: #1f2937; stroke-width: 0.8; stroke-linejoin: miter; stroke-linecap: square"/>
   </g>
   <g id="patch_4">
    <path d="M 34.241875 311.55 
L 363.2625 311.55 
" style="fill: none; stroke: #1f2937; stroke-width: 0.8; stroke-linejoin: miter; stroke-linecap: square"/>
   </g>
   <g id="line2d_9">
    <path d="M 48.54712 297.441892 
L 48.54712 290.20067 
" clip-path="url(#pf0e9a25b8d)" style="fill: none; stroke: #1f8a56; stroke-width: 1.1; stroke-linecap: round"/>
   </g>
   <g id="line2d_10">
    <path d="M 62.852364 298.039734 
L 62.852364 288.15531 
" clip-path="url(#pf0e9a25b8d)" style="fill: none; stroke: #b91c1c; stroke-width: 1.1; stroke-linecap: round"/>
   </g>
   <g id="line2d_11">
    <path d="M 77.157609 298.351289 
L 77.157609 285.648537 
" clip-path="url(#pf0e9a25b8d)" style="fill: none; stroke: #1f8a56; stroke-width: 1.1; stroke-linecap: round"/>
   </g>
   <g id="line2d_12">
    <path d="M 91.462853 294.219293 
L 91.462853 283.537695 
" clip-path="url(#pf0e9a25b8d)" style="fill: none; stroke: #1f8a56; stroke-width: 1.1; stroke-linecap: round"/>
   </g>
   <g id="line2d_13">
    <path d="M 105.768098 281.733721 
L 105.768098 273.034567 
" clip-path="url(#pf0e9a25b8d)" style="fill: none; stroke: #1f8a56; stroke-width: 1.1; stroke-linecap: round"/>
   </g>
   <g id="line2d_14">
    <path d="M 120.073342 280.729706 
L 120.073342 251.48788 
" clip-path="url(#pf0e9a25b8d)" style="fill: none; stroke: #1f8a56; stroke-width: 1.1; stroke-linecap: round"/>
   </g>
   <g id="line2d_15">
    <path d="M 134.378587 256.890651 
L 134.378587 239.711427 
" clip-path="url(#pf0e9a25b8d)" style="fill: none; stroke: #1f8a56; stroke-width: 1.1; stroke-linecap: round"/>
   </g>
   <g id="line2d_16">
    <path d="M 148.683832 249.59664 
L 148.683832 232.064621 
" clip-path="url(#pf0e9a25b8d)" style="fill: none; stroke: #1f8a56; stroke-width: 1.1; stroke-linecap: round"/>
   </g>
   <g id="line2d_17">
    <path d="M 162.989076 235.660963 
L 162.989076 229.119131 
" clip-path="url(#pf0e9a25b8d)" style="fill: none; stroke: #b91c1c; stroke-width: 1.1; stroke-linecap: round"/>
   </g>
   <g id="line2d_18">
    <path d="M 177.294321 240.601828 
L 177.294321 222.811827 
" clip-path="url(#pf0e9a25b8d)" style="fill: none; stroke: #1f8a56; stroke-width: 1.1; stroke-linecap: round"/>
   </g>
   <g id="line2d_19">
    <path d="M 191.599565 237.276453 
L 191.599565 218.543626 
" clip-path="url(#pf0e9a25b8d)" style="fill: none; stroke: #b91c1c; stroke-width: 1.1; stroke-linecap: round"/>
   </g>
   <g id="line2d_20">
    <path d="M 205.90481 245.169369 
L 205.90481 237.721128 
" clip-path="url(#pf0e9a25b8d)" style="fill: none; stroke: #b91c1c; stroke-width: 1.1; stroke-linecap: round"/>
   </g>
   <g id="line2d_21">
    <path d="M 220.210054 249.455926 
L 220.210054 224.706334 
" clip-path="url(#pf0e9a25b8d)" style="fill: none; stroke: #1f8a56; stroke-width: 1.1; stroke-linecap: round"/>
   </g>
   <g id="line2d_22">
    <path d="M 234.515299 225.83801 
L 234.515299 187.75272 
" clip-path="url(#pf0e9a25b8d)" style="fill: none; stroke: #1f8a56; stroke-width: 1.1; stroke-linecap: round"/>
   </g>
   <g id="line2d_23">
    <path d="M 248.820543 192.021296 
L 248.820543 173.851815 
" clip-path="url(#pf0e9a25b8d)" style="fill: none; stroke: #1f8a56; stroke-width: 1.1; stroke-linecap: round"/>
   </g>
   <g id="line2d_24">
    <path d="M 263.125788 181.713068 
L 263.125788 154.647718 
" clip-path="url(#pf0e9a25b8d)" style="fill: none; stroke: #1f8a56; stroke-width: 1.1; stroke-linecap: round"/>
   </g>
   <g id="line2d_25">
    <path d="M 277.431033 160.669892 
L 277.431033 134.087104 
" clip-path="url(#pf0e9a25b8d)" style="fill: none; stroke: #1f8a56; stroke-width: 1.1; stroke-linecap: round"/>
   </g>
   <g id="line2d_26">
    <path d="M 291.736277 147.386089 
L 291.736277 123.475828 
" clip-path="url(#pf0e9a25b8d)" style="fill: none; stroke: #1f8a56; stroke-width: 1.1; stroke-linecap: round"/>
   </g>
   <g id="line2d_27">
    <path d="M 306.041522 131.587936 
L 306.041522 88.65043 
" clip-path="url(#pf0e9a25b8d)" style="fill: none; stroke: #1f8a56; stroke-width: 1.1; stroke-linecap: round"/>
   </g>
   <g id="line2d_28">
    <path d="M 320.346766 93.548208 
L 320.346766 82.675023 
" clip-path="url(#pf0e9a25b8d)" style="fill: none; stroke: #1f8a56; stroke-width: 1.1; stroke-linecap: round"/>
   </g>
   <g id="line2d_29">
    <path d="M 334.652011 88.495378 
L 334.652011 55.465023 
" clip-path="url(#pf0e9a25b8d)" style="fill: none; stroke: #1f8a56; stroke-width: 1.1; stroke-linecap: round"/>
   </g>
   <g id="line2d_30">
    <path d="M 348.957255 59.578332 
L 348.957255 34.37707 
" clip-path="url(#pf0e9a25b8d)" style="fill: none; stroke: #1f8a56; stroke-width: 1.1; stroke-linecap: round"/>
   </g>
   <g id="text_8">
    <!-- Real Breakout -->
    <g style="fill: #1f8a56" transform="translate(157.080312 15.178359) scale(0.105 -0.105)">
     <defs>
      <path id="DejaVuSans-Bold-35" d="M 2297 2597 
Q 2675 2597 2839 2737 
Q 3003 2878 3003 3200 
Q 3003 3519 2839 3656 
Q 2675 3794 2297 3794 
L 1791 3794 
L 1791 2597 
L 2297 2597 
z
M 1791 1766 
L 1791 0 
L 588 0 
L 588 4666 
L 2425 4666 
Q 3347 4666 3776 4356 
Q 4206 4047 4206 3378 
Q 4206 2916 3982 2619 
Q 3759 2322 3309 2181 
Q 3556 2125 3751 1926 
Q 3947 1728 4147 1325 
L 4800 0 
L 3519 0 
L 2950 1159 
Q 2778 1509 2601 1637 
Q 2425 1766 2131 1766 
L 1791 1766 
z
" transform="scale(0.015625)"/>
      <path id="DejaVuSans-Bold-48" d="M 4031 1759 
L 4031 1441 
L 1416 1441 
Q 1456 1047 1700 850 
Q 1944 653 2381 653 
Q 2734 653 3104 758 
Q 3475 863 3866 1075 
L 3866 213 
Q 3469 63 3072 -14 
Q 2675 -91 2278 -91 
Q 1328 -91 801 392 
Q 275 875 275 1747 
Q 275 2603 792 3093 
Q 1309 3584 2216 3584 
Q 3041 3584 3536 3087 
Q 4031 2591 4031 1759 
z
M 2881 2131 
Q 2881 2450 2695 2645 
Q 2509 2841 2209 2841 
Q 1884 2841 1681 2658 
Q 1478 2475 1428 2131 
L 2881 2131 
z
" transform="scale(0.015625)"/>
      <path id="DejaVuSans-Bold-44" d="M 2106 1575 
Q 1756 1575 1579 1456 
Q 1403 1338 1403 1106 
Q 1403 894 1545 773 
Q 1688 653 1941 653 
Q 2256 653 2472 879 
Q 2688 1106 2688 1447 
L 2688 1575 
L 2106 1575 
z
M 3816 1997 
L 3816 0 
L 2688 0 
L 2688 519 
Q 2463 200 2181 54 
Q 1900 -91 1497 -91 
Q 953 -91 614 226 
Q 275 544 275 1050 
Q 275 1666 698 1953 
Q 1122 2241 2028 2241 
L 2688 2241 
L 2688 2328 
Q 2688 2594 2478 2717 
Q 2269 2841 1825 2841 
Q 1466 2841 1156 2769 
Q 847 2697 581 2553 
L 581 3406 
Q 941 3494 1303 3539 
Q 1666 3584 2028 3584 
Q 2975 3584 3395 3211 
Q 3816 2838 3816 1997 
z
" transform="scale(0.015625)"/>
      <path id="DejaVuSans-Bold-4f" d="M 538 4863 
L 1656 4863 
L 1656 0 
L 538 0 
L 538 4863 
z
" transform="scale(0.015625)"/>
      <path id="DejaVuSans-Bold-3" transform="scale(0.015625)"/>
      <path id="DejaVuSans-Bold-25" d="M 2456 2859 
Q 2741 2859 2887 2984 
Q 3034 3109 3034 3353 
Q 3034 3594 2887 3720 
Q 2741 3847 2456 3847 
L 1791 3847 
L 1791 2859 
L 2456 2859 
z
M 2497 819 
Q 2859 819 3042 972 
Q 3225 1125 3225 1434 
Q 3225 1738 3044 1889 
Q 2863 2041 2497 2041 
L 1791 2041 
L 1791 819 
L 2497 819 
z
M 3616 2497 
Q 4003 2384 4215 2081 
Q 4428 1778 4428 1338 
Q 4428 663 3972 331 
Q 3516 0 2584 0 
L 588 0 
L 588 4666 
L 2394 4666 
Q 3366 4666 3802 4372 
Q 4238 4078 4238 3431 
Q 4238 3091 4078 2852 
Q 3919 2613 3616 2497 
z
" transform="scale(0.015625)"/>
      <path id="DejaVuSans-Bold-55" d="M 3138 2547 
Q 2991 2616 2845 2648 
Q 2700 2681 2553 2681 
Q 2122 2681 1889 2404 
Q 1656 2128 1656 1613 
L 1656 0 
L 538 0 
L 538 3500 
L 1656 3500 
L 1656 2925 
Q 1872 3269 2151 3426 
Q 2431 3584 2822 3584 
Q 2878 3584 2943 3579 
Q 3009 3575 3134 3559 
L 3138 2547 
z
" transform="scale(0.015625)"/>
      <path id="DejaVuSans-Bold-4e" d="M 538 4863 
L 1656 4863 
L 1656 2216 
L 2944 3500 
L 4244 3500 
L 2534 1894 
L 4378 0 
L 3022 0 
L 1656 1459 
L 1656 0 
L 538 0 
L 538 4863 
z
" transform="scale(0.015625)"/>
      <path id="DejaVuSans-Bold-52" d="M 2203 2784 
Q 1831 2784 1636 2517 
Q 1441 2250 1441 1747 
Q 1441 1244 1636 976 
Q 1831 709 2203 709 
Q 2569 709 2762 976 
Q 2956 1244 2956 1747 
Q 2956 2250 2762 2517 
Q 2569 2784 2203 2784 
z
M 2203 3584 
Q 3106 3584 3614 3096 
Q 4122 2609 4122 1747 
Q 4122 884 3614 396 
Q 3106 -91 2203 -91 
Q 1297 -91 786 396 
Q 275 884 275 1747 
Q 275 2609 786 3096 
Q 1297 3584 2203 3584 
z
" transform="scale(0.015625)"/>
      <path id="DejaVuSans-Bold-58" d="M 500 1363 
L 500 3500 
L 1625 3500 
L 1625 3150 
Q 1625 2866 1622 2436 
Q 1619 2006 1619 1863 
Q 1619 1441 1641 1255 
Q 1663 1069 1716 984 
Q 1784 875 1895 815 
Q 2006 756 2150 756 
Q 2500 756 2700 1025 
Q 2900 1294 2900 1772 
L 2900 3500 
L 4019 3500 
L 4019 0 
L 2900 0 
L 2900 506 
Q 2647 200 2364 54 
Q 2081 -91 1741 -91 
Q 1134 -91 817 281 
Q 500 653 500 1363 
z
" transform="scale(0.015625)"/>
      <path id="DejaVuSans-Bold-57" d="M 1759 4494 
L 1759 3500 
L 2913 3500 
L 2913 2700 
L 1759 2700 
L 1759 1216 
Q 1759 972 1856 886 
Q 1953 800 2241 800 
L 2816 800 
L 2816 0 
L 1856 0 
Q 1194 0 917 276 
Q 641 553 641 1216 
L 641 2700 
L 84 2700 
L 84 3500 
L 641 3500 
L 641 4494 
L 1759 4494 
z
" transform="scale(0.015625)"/>
     </defs>
     <use xlink:href="#DejaVuSans-Bold-35"/>
     <use xlink:href="#DejaVuSans-Bold-48" transform="translate(77 0)"/>
     <use xlink:href="#DejaVuSans-Bold-44" transform="translate(144.828125 0)"/>
     <use xlink:href="#DejaVuSans-Bold-4f" transform="translate(212.3125 0)"/>
     <use xlink:href="#DejaVuSans-Bold-3" transform="translate(246.59375 0)"/>
     <use xlink:href="#DejaVuSans-Bold-25" transform="translate(281.40625 0)"/>
     <use xlink:href="#DejaVuSans-Bold-55" transform="translate(357.625 0)"/>
     <use xlink:href="#DejaVuSans-Bold-48" transform="translate(406.9375 0)"/>
     <use xlink:href="#DejaVuSans-Bold-44" transform="translate(474.765625 0)"/>
     <use xlink:href="#DejaVuSans-Bold-4e" transform="translate(542.25 0)"/>
     <use xlink:href="#DejaVuSans-Bold-52" transform="translate(606.0625 0)"/>
     <use xlink:href="#DejaVuSans-Bold-58" transform="translate(674.765625 0)"/>
     <use xlink:href="#DejaVuSans-Bold-57" transform="translate(745.953125 0)"/>
    </g>
   </g>
   <g id="patch_5">
    <path d="M 44.613177 294.820148 
L 52.481062 294.820148 
L 52.481062 286.900921 
L 44.613177 286.900921 
z
" clip-path="url(#pf0e9a25b8d)" style="fill: #1f8a56; stroke: #1f8a56; stroke-linejoin: miter"/>
   </g>
   <g id="patch_6">
    <path d="M 58.918422 297.406613 
L 66.786306 297.406613 
L 66.786306 289.487386 
L 58.918422 289.487386 
z
" clip-path="url(#pf0e9a25b8d)" style="fill: #b91c1c; stroke: #b91c1c; stroke-linejoin: miter"/>
   </g>
   <g id="patch_7">
    <path d="M 73.223666 295.543459 
L 81.091551 295.543459 
L 81.091551 285.921584 
L 73.223666 285.921584 
z
" clip-path="url(#pf0e9a25b8d)" style="fill: #1f8a56; stroke: #1f8a56; stroke-linejoin: miter"/>
   </g>
   <g id="patch_8">
    <path d="M 87.528911 289.507975 
L 95.396796 289.507975 
L 95.396796 281.588748 
L 87.528911 281.588748 
z
" clip-path="url(#pf0e9a25b8d)" style="fill: #1f8a56; stroke: #1f8a56; stroke-linejoin: miter"/>
   </g>
   <g id="patch_9">
    <path d="M 101.834156 278.842734 
L 109.70204 278.842734 
L 109.70204 270.923507 
L 101.834156 270.923507 
z
" clip-path="url(#pf0e9a25b8d)" style="fill: #1f8a56; stroke: #1f8a56; stroke-linejoin: miter"/>
   </g>
   <g id="patch_10">
    <path d="M 116.1394 278.099854 
L 124.007285 278.099854 
L 124.007285 255.806962 
L 116.1394 255.806962 
z
" clip-path="url(#pf0e9a25b8d)" style="fill: #1f8a56; stroke: #1f8a56; stroke-linejoin: miter"/>
   </g>
   <g id="patch_11">
    <path d="M 130.444645 254.590206 
L 138.312529 254.590206 
L 138.312529 241.193629 
L 130.444645 241.193629 
z
" clip-path="url(#pf0e9a25b8d)" style="fill: #1f8a56; stroke: #1f8a56; stroke-linejoin: miter"/>
   </g>
   <g id="patch_12">
    <path d="M 144.749889 245.399885 
L 152.617774 245.399885 
L 152.617774 234.723104 
L 144.749889 234.723104 
z
" clip-path="url(#pf0e9a25b8d)" style="fill: #1f8a56; stroke: #1f8a56; stroke-linejoin: miter"/>
   </g>
   <g id="patch_13">
    <path d="M 159.055134 235.254068 
L 166.923018 235.254068 
L 166.923018 227.334841 
L 159.055134 227.334841 
z
" clip-path="url(#pf0e9a25b8d)" style="fill: #b91c1c; stroke: #b91c1c; stroke-linejoin: miter"/>
   </g>
   <g id="patch_14">
    <path d="M 173.360378 237.555526 
L 181.228263 237.555526 
L 181.228263 226.379189 
L 173.360378 226.379189 
z
" clip-path="url(#pf0e9a25b8d)" style="fill: #1f8a56; stroke: #1f8a56; stroke-linejoin: miter"/>
   </g>
   <g id="patch_15">
    <path d="M 187.665623 236.335417 
L 195.533507 236.335417 
L 195.533507 219.262538 
L 187.665623 219.262538 
z
" clip-path="url(#pf0e9a25b8d)" style="fill: #b91c1c; stroke: #b91c1c; stroke-linejoin: miter"/>
   </g>
   <g id="patch_16">
    <path d="M 201.970868 242.194413 
L 209.838752 242.194413 
L 209.838752 234.275186 
L 201.970868 234.275186 
z
" clip-path="url(#pf0e9a25b8d)" style="fill: #b91c1c; stroke: #b91c1c; stroke-linejoin: miter"/>
   </g>
   <g id="patch_17">
    <path d="M 216.276112 245.838273 
L 224.143997 245.838273 
L 224.143997 224.777813 
L 216.276112 224.777813 
z
" clip-path="url(#pf0e9a25b8d)" style="fill: #1f8a56; stroke: #1f8a56; stroke-linejoin: miter"/>
   </g>
   <g id="patch_18">
    <path d="M 230.581357 225.40853 
L 238.449241 225.40853 
L 238.449241 190.884429 
L 230.581357 190.884429 
z
" clip-path="url(#pf0e9a25b8d)" style="fill: #1f8a56; stroke: #1f8a56; stroke-linejoin: miter"/>
   </g>
   <g id="patch_19">
    <path d="M 244.886601 189.4071 
L 252.754486 189.4071 
L 252.754486 177.338228 
L 244.886601 177.338228 
z
" clip-path="url(#pf0e9a25b8d)" style="fill: #1f8a56; stroke: #1f8a56; stroke-linejoin: miter"/>
   </g>
   <g id="patch_20">
    <path d="M 259.191846 178.992547 
L 267.05973 178.992547 
L 267.05973 156.69558 
L 259.191846 156.69558 
z
" clip-path="url(#pf0e9a25b8d)" style="fill: #1f8a56; stroke: #1f8a56; stroke-linejoin: miter"/>
   </g>
   <g id="patch_21">
    <path d="M 273.49709 156.699388 
L 281.364975 156.699388 
L 281.364975 139.363455 
L 273.49709 139.363455 
z
" clip-path="url(#pf0e9a25b8d)" style="fill: #1f8a56; stroke: #1f8a56; stroke-linejoin: miter"/>
   </g>
   <g id="patch_22">
    <path d="M 287.802335 145.597602 
L 295.670219 145.597602 
L 295.670219 125.493955 
L 287.802335 125.493955 
z
" clip-path="url(#pf0e9a25b8d)" style="fill: #1f8a56; stroke: #1f8a56; stroke-linejoin: miter"/>
   </g>
   <g id="patch_23">
    <path d="M 302.107579 131.332372 
L 309.975464 131.332372 
L 309.975464 91.722422 
L 302.107579 91.722422 
z
" clip-path="url(#pf0e9a25b8d)" style="fill: #1f8a56; stroke: #1f8a56; stroke-linejoin: miter"/>
   </g>
   <g id="patch_24">
    <path d="M 316.412824 89.383191 
L 324.280709 89.383191 
L 324.280709 81.463963 
L 316.412824 81.463963 
z
" clip-path="url(#pf0e9a25b8d)" style="fill: #1f8a56; stroke: #1f8a56; stroke-linejoin: miter"/>
   </g>
   <g id="patch_25">
    <path d="M 330.718069 85.118055 
L 338.585953 85.118055 
L 338.585953 55.898354 
L 330.718069 55.898354 
z
" clip-path="url(#pf0e9a25b8d)" style="fill: #1f8a56; stroke: #1f8a56; stroke-linejoin: miter"/>
   </g>
   <g id="patch_26">
    <path d="M 345.023313 57.529892 
L 352.891198 57.529892 
L 352.891198 35.0407 
L 345.023313 35.0407 
z
" clip-path="url(#pf0e9a25b8d)" style="fill: #1f8a56; stroke: #1f8a56; stroke-linejoin: miter"/>
   </g>
  </g>
  <g id="axes_2">
   <g id="patch_27">
    <path d="M 392.929375 311.55 
L 721.95 311.55 
L 721.95 21.178359 
L 392.929375 21.178359 
z
" style="fill: #ffffff"/>
   </g>
   <g id="matplotlib.axis_3"/>
   <g id="matplotlib.axis_4">
    <g id="ytick_8">
     <g id="line2d_31">
      <g>
       <use xlink:href="#mdb5bca6b1c" x="392.929375" y="281.641082" style="fill: #555555; stroke: #555555; stroke-width: 0.8"/>
      </g>
     </g>
     <g id="text_9">
      <!-- 100 -->
      <g style="fill: #555555" transform="translate(365.8875 285.629852) scale(0.105 -0.105)">
       <use xlink:href="#DejaVuSans-14"/>
       <use xlink:href="#DejaVuSans-13" transform="translate(63.625 0)"/>
       <use xlink:href="#DejaVuSans-13" transform="translate(127.25 0)"/>
      </g>
     </g>
    </g>
    <g id="ytick_9">
     <g id="line2d_32">
      <g>
       <use xlink:href="#mdb5bca6b1c" x="392.929375" y="240.417342" style="fill: #555555; stroke: #555555; stroke-width: 0.8"/>
      </g>
     </g>
     <g id="text_10">
      <!-- 101 -->
      <g style="fill: #555555" transform="translate(365.8875 244.406111) scale(0.105 -0.105)">
       <use xlink:href="#DejaVuSans-14"/>
       <use xlink:href="#DejaVuSans-13" transform="translate(63.625 0)"/>
       <use xlink:href="#DejaVuSans-14" transform="translate(127.25 0)"/>
      </g>
     </g>
    </g>
    <g id="ytick_10">
     <g id="line2d_33">
      <g>
       <use xlink:href="#mdb5bca6b1c" x="392.929375" y="199.193602" style="fill: #555555; stroke: #555555; stroke-width: 0.8"/>
      </g>
     </g>
     <g id="text_11">
      <!-- 102 -->
      <g style="fill: #555555" transform="translate(365.8875 203.182371) scale(0.105 -0.105)">
       <use xlink:href="#DejaVuSans-14"/>
       <use xlink:href="#DejaVuSans-13" transform="translate(63.625 0)"/>
       <use xlink:href="#DejaVuSans-15" transform="translate(127.25 0)"/>
      </g>
     </g>
    </g>
    <g id="ytick_11">
     <g id="line2d_34">
      <g>
       <use xlink:href="#mdb5bca6b1c" x="392.929375" y="157.969862" style="fill: #555555; stroke: #555555; stroke-width: 0.8"/>
      </g>
     </g>
     <g id="text_12">
      <!-- 103 -->
      <g style="fill: #555555" transform="translate(365.8875 161.958631) scale(0.105 -0.105)">
       <defs>
        <path id="DejaVuSans-16" d="M 2597 2516 
Q 3050 2419 3304 2112 
Q 3559 1806 3559 1356 
Q 3559 666 3084 287 
Q 2609 -91 1734 -91 
Q 1441 -91 1130 -33 
Q 819 25 488 141 
L 488 750 
Q 750 597 1062 519 
Q 1375 441 1716 441 
Q 2309 441 2620 675 
Q 2931 909 2931 1356 
Q 2931 1769 2642 2001 
Q 2353 2234 1838 2234 
L 1294 2234 
L 1294 2753 
L 1863 2753 
Q 2328 2753 2575 2939 
Q 2822 3125 2822 3475 
Q 2822 3834 2567 4026 
Q 2313 4219 1838 4219 
Q 1578 4219 1281 4162 
Q 984 4106 628 3988 
L 628 4550 
Q 988 4650 1302 4700 
Q 1616 4750 1894 4750 
Q 2613 4750 3031 4423 
Q 3450 4097 3450 3541 
Q 3450 3153 3228 2886 
Q 3006 2619 2597 2516 
z
" transform="scale(0.015625)"/>
       </defs>
       <use xlink:href="#DejaVuSans-14"/>
       <use xlink:href="#DejaVuSans-13" transform="translate(63.625 0)"/>
       <use xlink:href="#DejaVuSans-16" transform="translate(127.25 0)"/>
      </g>
     </g>
    </g>
    <g id="ytick_12">
     <g id="line2d_35">
      <g>
       <use xlink:href="#mdb5bca6b1c" x="392.929375" y="116.746121" style="fill: #555555; stroke: #555555; stroke-width: 0.8"/>
      </g>
     </g>
     <g id="text_13">
      <!-- 104 -->
      <g style="fill: #555555" transform="translate(365.8875 120.734891) scale(0.105 -0.105)">
       <use xlink:href="#DejaVuSans-14"/>
       <use xlink:href="#DejaVuSans-13" transform="translate(63.625 0)"/>
       <use xlink:href="#DejaVuSans-17" transform="translate(127.25 0)"/>
      </g>
     </g>
    </g>
    <g id="ytick_13">
     <g id="line2d_36">
      <g>
       <use xlink:href="#mdb5bca6b1c" x="392.929375" y="75.522381" style="fill: #555555; stroke: #555555; stroke-width: 0.8"/>
      </g>
     </g>
     <g id="text_14">
      <!-- 105 -->
      <g style="fill: #555555" transform="translate(365.8875 79.511151) scale(0.105 -0.105)">
       <defs>
        <path id="DejaVuSans-18" d="M 691 4666 
L 3169 4666 
L 3169 4134 
L 1269 4134 
L 1269 2991 
Q 1406 3038 1543 3061 
Q 1681 3084 1819 3084 
Q 2600 3084 3056 2656 
Q 3513 2228 3513 1497 
Q 3513 744 3044 326 
Q 2575 -91 1722 -91 
Q 1428 -91 1123 -41 
Q 819 9 494 109 
L 494 744 
Q 775 591 1075 516 
Q 1375 441 1709 441 
Q 2250 441 2565 725 
Q 2881 1009 2881 1497 
Q 2881 1984 2565 2268 
Q 2250 2553 1709 2553 
Q 1456 2553 1204 2497 
Q 953 2441 691 2322 
L 691 4666 
z
" transform="scale(0.015625)"/>
       </defs>
       <use xlink:href="#DejaVuSans-14"/>
       <use xlink:href="#DejaVuSans-13" transform="translate(63.625 0)"/>
       <use xlink:href="#DejaVuSans-18" transform="translate(127.25 0)"/>
      </g>
     </g>
    </g>
    <g id="ytick_14">
     <g id="line2d_37">
      <g>
       <use xlink:href="#mdb5bca6b1c" x="392.929375" y="34.298641" style="fill: #555555; stroke: #555555; stroke-width: 0.8"/>
      </g>
     </g>
     <g id="text_15">
      <!-- 106 -->
      <g style="fill: #555555" transform="translate(365.8875 38.287411) scale(0.105 -0.105)">
       <use xlink:href="#DejaVuSans-14"/>
       <use xlink:href="#DejaVuSans-13" transform="translate(63.625 0)"/>
       <use xlink:href="#DejaVuSans-19" transform="translate(127.25 0)"/>
      </g>
     </g>
    </g>
   </g>
   <g id="line2d_38">
    <path d="M 392.929375 123.071694 
L 721.95 123.071694 
" clip-path="url(#p1a4a61205d)" style="fill: none; stroke-dasharray: 5.18,2.24; stroke-dashoffset: 0; stroke: #b7791f; stroke-width: 1.4"/>
   </g>
   <g id="patch_28">
    <path d="M 392.929375 311.55 
L 392.929375 21.178359 
" style="fill: none; stroke: #1f2937; stroke-width: 0.8; stroke-linejoin: miter; stroke-linecap: square"/>
   </g>
   <g id="patch_29">
    <path d="M 392.929375 311.55 
L 721.95 311.55 
" style="fill: none; stroke: #1f2937; stroke-width: 0.8; stroke-linejoin: miter; stroke-linecap: square"/>
   </g>
   <g id="line2d_39">
    <path d="M 406.0902 275.089214 
L 406.0902 266.711564 
" clip-path="url(#p1a4a61205d)" style="fill: none; stroke: #1f8a56; stroke-width: 1.1; stroke-linecap: round"/>
   </g>
   <g id="line2d_40">
    <path d="M 419.251025 279.641637 
L 419.251025 262.613004 
" clip-path="url(#p1a4a61205d)" style="fill: none; stroke: #b91c1c; stroke-width: 1.1; stroke-linecap: round"/>
   </g>
   <g id="line2d_41">
    <path d="M 432.41185 275.349143 
L 432.41185 245.493283 
" clip-path="url(#p1a4a61205d)" style="fill: none; stroke: #1f8a56; stroke-width: 1.1; stroke-linecap: round"/>
   </g>
   <g id="line2d_42">
    <path d="M 445.572675 267.24566 
L 445.572675 242.582515 
" clip-path="url(#p1a4a61205d)" style="fill: none; stroke: #1f8a56; stroke-width: 1.1; stroke-linecap: round"/>
   </g>
   <g id="line2d_43">
    <path d="M 458.7335 238.946128 
L 458.7335 230.39167 
" clip-path="url(#p1a4a61205d)" style="fill: none; stroke: #1f8a56; stroke-width: 1.1; stroke-linecap: round"/>
   </g>
   <g id="line2d_44">
    <path d="M 471.894325 242.659061 
L 471.894325 187.8465 
" clip-path="url(#p1a4a61205d)" style="fill: none; stroke: #1f8a56; stroke-width: 1.1; stroke-linecap: round"/>
   </g>
   <g id="line2d_45">
    <path d="M 485.05515 192.511361 
L 485.05515 157.357927 
" clip-path="url(#p1a4a61205d)" style="fill: none; stroke: #1f8a56; stroke-width: 1.1; stroke-linecap: round"/>
   </g>
   <g id="line2d_46">
    <path d="M 498.215975 178.500889 
L 498.215975 144.790129 
" clip-path="url(#p1a4a61205d)" style="fill: none; stroke: #1f8a56; stroke-width: 1.1; stroke-linecap: round"/>
   </g>
   <g id="line2d_47">
    <path d="M 511.3768 159.896119 
L 511.3768 146.479412 
" clip-path="url(#p1a4a61205d)" style="fill: none; stroke: #b91c1c; stroke-width: 1.1; stroke-linecap: round"/>
   </g>
   <g id="line2d_48">
    <path d="M 524.537625 158.16015 
L 524.537625 131.738651 
" clip-path="url(#p1a4a61205d)" style="fill: none; stroke: #1f8a56; stroke-width: 1.1; stroke-linecap: round"/>
   </g>
   <g id="line2d_49">
    <path d="M 537.69845 160.048613 
L 537.69845 121.366225 
" clip-path="url(#p1a4a61205d)" style="fill: none; stroke: #b91c1c; stroke-width: 1.1; stroke-linecap: round"/>
   </g>
   <g id="line2d_50">
    <path d="M 550.859275 171.727245 
L 550.859275 155.212591 
" clip-path="url(#p1a4a61205d)" style="fill: none; stroke: #b91c1c; stroke-width: 1.1; stroke-linecap: round"/>
   </g>
   <g id="line2d_51">
    <path d="M 564.0201 181.308184 
L 564.0201 123.231079 
" clip-path="url(#p1a4a61205d)" style="fill: none; stroke: #1f8a56; stroke-width: 1.1; stroke-linecap: round"/>
   </g>
   <g id="line2d_52">
    <path d="M 577.180925 134.792821 
L 577.180925 101.598353 
" clip-path="url(#p1a4a61205d)" style="fill: none; stroke: #1f8a56; stroke-width: 1.1; stroke-linecap: round"/>
   </g>
   <g id="line2d_53">
    <path d="M 590.34175 103.215648 
L 590.34175 34.37707 
" clip-path="url(#p1a4a61205d)" style="fill: none; stroke: #1f8a56; stroke-width: 1.1; stroke-linecap: round"/>
   </g>
   <g id="line2d_54">
    <path d="M 603.502575 89.361967 
L 603.502575 43.994621 
" clip-path="url(#p1a4a61205d)" style="fill: none; stroke: #b91c1c; stroke-width: 1.1; stroke-linecap: round"/>
   </g>
   <g id="line2d_55">
    <path d="M 616.6634 87.82731 
L 616.6634 73.135168 
" clip-path="url(#p1a4a61205d)" style="fill: none; stroke: #1f8a56; stroke-width: 1.1; stroke-linecap: round"/>
   </g>
   <g id="line2d_56">
    <path d="M 629.824225 104.989913 
L 629.824225 88.155501 
" clip-path="url(#p1a4a61205d)" style="fill: none; stroke: #b91c1c; stroke-width: 1.1; stroke-linecap: round"/>
   </g>
   <g id="line2d_57">
    <path d="M 642.98505 119.249694 
L 642.98505 102.455596 
" clip-path="url(#p1a4a61205d)" style="fill: none; stroke: #1f8a56; stroke-width: 1.1; stroke-linecap: round"/>
   </g>
   <g id="line2d_58">
    <path d="M 656.145875 123.67144 
L 656.145875 97.425089 
" clip-path="url(#p1a4a61205d)" style="fill: none; stroke: #b91c1c; stroke-width: 1.1; stroke-linecap: round"/>
   </g>
   <g id="line2d_59">
    <path d="M 669.3067 165.663091 
L 669.3067 117.83679 
" clip-path="url(#p1a4a61205d)" style="fill: none; stroke: #b91c1c; stroke-width: 1.1; stroke-linecap: round"/>
   </g>
   <g id="line2d_60">
    <path d="M 682.467525 215.540355 
L 682.467525 160.962238 
" clip-path="url(#p1a4a61205d)" style="fill: none; stroke: #b91c1c; stroke-width: 1.1; stroke-linecap: round"/>
   </g>
   <g id="line2d_61">
    <path d="M 695.62835 263.487706 
L 695.62835 200.148275 
" clip-path="url(#p1a4a61205d)" style="fill: none; stroke: #b91c1c; stroke-width: 1.1; stroke-linecap: round"/>
   </g>
   <g id="line2d_62">
    <path d="M 708.789175 298.351289 
L 708.789175 238.966378 
" clip-path="url(#p1a4a61205d)" style="fill: none; stroke: #b91c1c; stroke-width: 1.1; stroke-linecap: round"/>
   </g>
   <g id="text_16">
    <!-- False Breakout -->
    <g style="fill: #b91c1c" transform="translate(513.406953 15.178359) scale(0.105 -0.105)">
     <defs>
      <path id="DejaVuSans-Bold-29" d="M 588 4666 
L 3834 4666 
L 3834 3756 
L 1791 3756 
L 1791 2888 
L 3713 2888 
L 3713 1978 
L 1791 1978 
L 1791 0 
L 588 0 
L 588 4666 
z
" transform="scale(0.015625)"/>
      <path id="DejaVuSans-Bold-56" d="M 3272 3391 
L 3272 2541 
Q 2913 2691 2578 2766 
Q 2244 2841 1947 2841 
Q 1628 2841 1473 2761 
Q 1319 2681 1319 2516 
Q 1319 2381 1436 2309 
Q 1553 2238 1856 2203 
L 2053 2175 
Q 2913 2066 3209 1816 
Q 3506 1566 3506 1031 
Q 3506 472 3093 190 
Q 2681 -91 1863 -91 
Q 1516 -91 1145 -36 
Q 775 19 384 128 
L 384 978 
Q 719 816 1070 734 
Q 1422 653 1784 653 
Q 2113 653 2278 743 
Q 2444 834 2444 1013 
Q 2444 1163 2330 1236 
Q 2216 1309 1875 1350 
L 1678 1375 
Q 931 1469 631 1722 
Q 331 1975 331 2491 
Q 331 3047 712 3315 
Q 1094 3584 1881 3584 
Q 2191 3584 2531 3537 
Q 2872 3491 3272 3391 
z
" transform="scale(0.015625)"/>
     </defs>
     <use xlink:href="#DejaVuSans-Bold-29"/>
     <use xlink:href="#DejaVuSans-Bold-44" transform="translate(62.453125 0)"/>
     <use xlink:href="#DejaVuSans-Bold-4f" transform="translate(129.9375 0)"/>
     <use xlink:href="#DejaVuSans-Bold-56" transform="translate(164.21875 0)"/>
     <use xlink:href="#DejaVuSans-Bold-48" transform="translate(223.734375 0)"/>
     <use xlink:href="#DejaVuSans-Bold-3" transform="translate(291.5625 0)"/>
     <use xlink:href="#DejaVuSans-Bold-25" transform="translate(326.375 0)"/>
     <use xlink:href="#DejaVuSans-Bold-55" transform="translate(402.59375 0)"/>
     <use xlink:href="#DejaVuSans-Bold-48" transform="translate(451.90625 0)"/>
     <use xlink:href="#DejaVuSans-Bold-44" transform="translate(519.734375 0)"/>
     <use xlink:href="#DejaVuSans-Bold-4e" transform="translate(587.21875 0)"/>
     <use xlink:href="#DejaVuSans-Bold-52" transform="translate(651.03125 0)"/>
     <use xlink:href="#DejaVuSans-Bold-58" transform="translate(719.734375 0)"/>
     <use xlink:href="#DejaVuSans-Bold-57" transform="translate(790.921875 0)"/>
    </g>
   </g>
   <g id="patch_30">
    <path d="M 402.470973 269.429373 
L 409.709427 269.429373 
L 409.709427 261.510145 
L 402.470973 261.510145 
z
" clip-path="url(#p1a4a61205d)" style="fill: #1f8a56; stroke: #1f8a56; stroke-linejoin: miter"/>
   </g>
   <g id="patch_31">
    <path d="M 415.631798 274.493034 
L 422.870252 274.493034 
L 422.870252 266.310115 
L 415.631798 266.310115 
z
" clip-path="url(#p1a4a61205d)" style="fill: #b91c1c; stroke: #b91c1c; stroke-linejoin: miter"/>
   </g>
   <g id="patch_32">
    <path d="M 428.792623 270.845438 
L 436.031077 270.845438 
L 436.031077 252.008173 
L 428.792623 252.008173 
z
" clip-path="url(#p1a4a61205d)" style="fill: #1f8a56; stroke: #1f8a56; stroke-linejoin: miter"/>
   </g>
   <g id="patch_33">
    <path d="M 441.953448 259.029446 
L 449.191902 259.029446 
L 449.191902 251.038216 
L 441.953448 251.038216 
z
" clip-path="url(#p1a4a61205d)" style="fill: #1f8a56; stroke: #1f8a56; stroke-linejoin: miter"/>
   </g>
   <g id="patch_34">
    <path d="M 455.114273 238.149527 
L 462.352727 238.149527 
L 462.352727 230.230299 
L 455.114273 230.230299 
z
" clip-path="url(#p1a4a61205d)" style="fill: #1f8a56; stroke: #1f8a56; stroke-linejoin: miter"/>
   </g>
   <g id="patch_35">
    <path d="M 468.275098 236.69515 
L 475.513552 236.69515 
L 475.513552 193.051154 
L 468.275098 193.051154 
z
" clip-path="url(#p1a4a61205d)" style="fill: #1f8a56; stroke: #1f8a56; stroke-linejoin: miter"/>
   </g>
   <g id="patch_36">
    <path d="M 481.435923 190.669045 
L 488.674377 190.669045 
L 488.674377 164.441844 
L 481.435923 164.441844 
z
" clip-path="url(#p1a4a61205d)" style="fill: #1f8a56; stroke: #1f8a56; stroke-linejoin: miter"/>
   </g>
   <g id="patch_37">
    <path d="M 494.596748 172.676657 
L 501.835202 172.676657 
L 501.835202 151.774148 
L 494.596748 151.774148 
z
" clip-path="url(#p1a4a61205d)" style="fill: #1f8a56; stroke: #1f8a56; stroke-linejoin: miter"/>
   </g>
   <g id="patch_38">
    <path d="M 507.757573 152.813645 
L 514.996027 152.813645 
L 514.996027 144.894417 
L 507.757573 144.894417 
z
" clip-path="url(#p1a4a61205d)" style="fill: #b91c1c; stroke: #b91c1c; stroke-linejoin: miter"/>
   </g>
   <g id="patch_39">
    <path d="M 520.918398 157.319333 
L 528.156852 157.319333 
L 528.156852 135.438817 
L 520.918398 135.438817 
z
" clip-path="url(#p1a4a61205d)" style="fill: #1f8a56; stroke: #1f8a56; stroke-linejoin: miter"/>
   </g>
   <g id="patch_40">
    <path d="M 534.079223 154.930661 
L 541.317677 154.930661 
L 541.317677 121.506164 
L 534.079223 121.506164 
z
" clip-path="url(#p1a4a61205d)" style="fill: #b91c1c; stroke: #b91c1c; stroke-linejoin: miter"/>
   </g>
   <g id="patch_41">
    <path d="M 547.240048 166.401133 
L 554.478502 166.401133 
L 554.478502 158.481906 
L 547.240048 158.481906 
z
" clip-path="url(#p1a4a61205d)" style="fill: #b91c1c; stroke: #b91c1c; stroke-linejoin: miter"/>
   </g>
   <g id="patch_42">
    <path d="M 560.400873 173.534915 
L 567.639327 173.534915 
L 567.639327 130.056618 
L 560.400873 130.056618 
z
" clip-path="url(#p1a4a61205d)" style="fill: #1f8a56; stroke: #1f8a56; stroke-linejoin: miter"/>
   </g>
   <g id="patch_43">
    <path d="M 573.561698 131.291405 
L 580.800152 131.291405 
L 580.800152 105.607563 
L 573.561698 105.607563 
z
" clip-path="url(#p1a4a61205d)" style="fill: #1f8a56; stroke: #1f8a56; stroke-linejoin: miter"/>
   </g>
   <g id="patch_44">
    <path d="M 586.722523 102.715316 
L 593.960977 102.715316 
L 593.960977 44.706868 
L 586.722523 44.706868 
z
" clip-path="url(#p1a4a61205d)" style="fill: #1f8a56; stroke: #1f8a56; stroke-linejoin: miter"/>
   </g>
   <g id="patch_45">
    <path d="M 599.883348 81.207889 
L 607.121802 81.207889 
L 607.121802 47.945617 
L 599.883348 47.945617 
z
" clip-path="url(#p1a4a61205d)" style="fill: #b91c1c; stroke: #b91c1c; stroke-linejoin: miter"/>
   </g>
   <g id="patch_46">
    <path d="M 613.044173 81.215344 
L 620.282627 81.215344 
L 620.282627 73.296116 
L 613.044173 73.296116 
z
" clip-path="url(#p1a4a61205d)" style="fill: #1f8a56; stroke: #1f8a56; stroke-linejoin: miter"/>
   </g>
   <g id="patch_47">
    <path d="M 626.204998 100.979572 
L 633.443452 100.979572 
L 633.443452 91.354299 
L 626.204998 91.354299 
z
" clip-path="url(#p1a4a61205d)" style="fill: #b91c1c; stroke: #b91c1c; stroke-linejoin: miter"/>
   </g>
   <g id="patch_48">
    <path d="M 639.365823 112.409756 
L 646.604277 112.409756 
L 646.604277 103.303952 
L 639.365823 103.303952 
z
" clip-path="url(#p1a4a61205d)" style="fill: #1f8a56; stroke: #1f8a56; stroke-linejoin: miter"/>
   </g>
   <g id="patch_49">
    <path d="M 652.526648 121.385461 
L 659.765102 121.385461 
L 659.765102 98.724313 
L 652.526648 98.724313 
z
" clip-path="url(#p1a4a61205d)" style="fill: #b91c1c; stroke: #b91c1c; stroke-linejoin: miter"/>
   </g>
   <g id="patch_50">
    <path d="M 665.687473 159.007583 
L 672.925927 159.007583 
L 672.925927 122.969518 
L 665.687473 122.969518 
z
" clip-path="url(#p1a4a61205d)" style="fill: #b91c1c; stroke: #b91c1c; stroke-linejoin: miter"/>
   </g>
   <g id="patch_51">
    <path d="M 678.848298 210.896005 
L 686.086752 210.896005 
L 686.086752 162.201733 
L 678.848298 162.201733 
z
" clip-path="url(#p1a4a61205d)" style="fill: #b91c1c; stroke: #b91c1c; stroke-linejoin: miter"/>
   </g>
   <g id="patch_52">
    <path d="M 692.009123 258.554508 
L 699.247577 258.554508 
L 699.247577 205.645315 
L 692.009123 205.645315 
z
" clip-path="url(#p1a4a61205d)" style="fill: #b91c1c; stroke: #b91c1c; stroke-linejoin: miter"/>
   </g>
   <g id="patch_53">
    <path d="M 705.169948 296.241126 
L 712.408402 296.241126 
L 712.408402 248.189979 
L 705.169948 248.189979 
z
" clip-path="url(#p1a4a61205d)" style="fill: #b91c1c; stroke: #b91c1c; stroke-linejoin: miter"/>
   </g>
  </g>
 </g>
 <defs>
  <clipPath id="pf0e9a25b8d">
   <rect x="34.241875" y="21.178359" width="329.020625" height="290.371641"/>
  </clipPath>
  <clipPath id="p1a4a61205d">
   <rect x="392.929375" y="21.178359" width="329.020625" height="290.371641"/>
  </clipPath>
 </defs>
</svg>
