<?xml version="1.0" encoding="utf-8" standalone="no"?>
<!DOCTYPE svg PUBLIC "-//W3C//DTD SVG 1.1//EN"
  "http://www.w3.org/Graphics/SVG/1.1/DTD/svg11.dtd">
<svg xmlns:xlink="http://www.w3.org/1999/xlink" width="628.35pt" height="263.450838pt" viewBox="0 0 628.35 263.450838" xmlns="http://www.w3.org/2000/svg" version="1.1">
 <metadata>
  <rdf:RDF xmlns:dc="http://purl.org/dc/elements/1.1/" xmlns:cc="http://creativecommons.org/ns#" xmlns:rdf="http://www.w3.org/1999/02/22-rdf-syntax-ns#">
   <cc:Work>
    <dc:type rdf:resource="http://purl.org/dc/dcmitype/StillImage"/>
    <dc:date>2026-07-19T01:11:27.661695</dc:date>
    <dc:format>image/svg+xml</dc:format>
    <dc:creator>
     <cc:Agent>
      <dc:title>Matplotlib v3.11.1, https://matplotlib.org/</dc:title>
     </cc:Agent>
    </dc:creator>
   </cc:Work>
  </rdf:RDF>
 </metadata>
 <defs>
  <style type="text/css">*{stroke-linejoin: round; stroke-linecap: butt}</style>
 </defs>
 <g id="figure_1">
  <g id="patch_1">
   <path d="M 0 263.450838 
L 628.35 263.450838 
L 628.35 0 
L 0 0 
z
" style="fill: #ffffff"/>
  </g>
  <g id="axes_1">
   <g id="patch_2">
    <path d="M 54.100484 186.170609 
L 621.15 186.170609 
L 621.15 52.490609 
L 54.100484 52.490609 
z
" style="fill: #ffffff"/>
   </g>
   <g id="FillBetweenPolyCollection_1">
    <defs>
     <path id="m1891185f83" d="M 79.875462 -153.807186 
L 79.875462 -153.807186 
L 126.739059 -136.194538 
L 173.602655 -118.581889 
L 220.466251 -100.969241 
L 267.329848 -83.356593 
L 314.193444 -136.194538 
L 361.05704 -145.000862 
L 407.920637 -127.388213 
L 454.784233 -134.433273 
L 501.647829 -116.820625 
L 548.511426 -99.207976 
L 595.375022 -204.883866 
L 595.375022 -204.883866 
L 595.375022 -204.883866 
L 548.511426 -153.807186 
L 501.647829 -153.807186 
L 454.784233 -153.807186 
L 407.920637 -153.807186 
L 361.05704 -153.807186 
L 314.193444 -153.807186 
L 267.329848 -153.807186 
L 220.466251 -153.807186 
L 173.602655 -153.807186 
L 126.739059 -153.807186 
L 79.875462 -153.807186 
z
" style="stroke: #b91c1c; stroke-opacity: 0.15"/>
    </defs>
    <g clip-path="url(#p247e9f4ce2)">
     <use xlink:href="#m1891185f83" x="0" y="263.450838" style="fill: #b91c1c; fill-opacity: 0.15; stroke: #b91c1c; stroke-opacity: 0.15"/>
    </g>
   </g>
   <g id="matplotlib.axis_1">
    <g id="xtick_1">
     <g id="line2d_1">
      <defs>
       <path id="m65e9f190fb" d="M 0 0 
L 0 3.5 
" style="stroke: #555555; stroke-width: 0.8"/>
      </defs>
      <g>
       <use xlink:href="#m65e9f190fb" x="79.875462" y="186.170609" style="fill: #555555; stroke: #555555; stroke-width: 0.8"/>
      </g>
     </g>
     <g id="text_1">
      <!-- 0 -->
      <g style="fill: #555555" transform="translate(76.872298 204.395109) scale(0.105 -0.105)">
       <defs>
        <path id="NotoNaskhArabic-Regular-4cc" d="M 1824 -64 
Q 1082 -64 698 534 
Q 314 1133 314 2291 
Q 314 3488 682 4064 
Q 1050 4640 1824 4640 
Q 2566 4640 2956 4038 
Q 3347 3437 3347 2291 
Q 3347 1101 2969 518 
Q 2592 -64 1824 -64 
z
M 1824 416 
Q 2208 416 2426 678 
Q 2778 1094 2778 2291 
Q 2778 3571 2368 3962 
Q 2163 4160 1824 4160 
Q 1427 4160 1203 3878 
Q 877 3469 877 2291 
Q 877 1075 1229 666 
Q 1440 416 1824 416 
z
" transform="scale(0.015625)"/>
       </defs>
       <use xlink:href="#NotoNaskhArabic-Regular-4cc"/>
      </g>
     </g>
    </g>
    <g id="xtick_2">
     <g id="line2d_2">
      <g>
       <use xlink:href="#m65e9f190fb" x="173.602655" y="186.170609" style="fill: #555555; stroke: #555555; stroke-width: 0.8"/>
      </g>
     </g>
     <g id="text_2">
      <!-- 2 -->
      <g style="fill: #555555" transform="translate(170.599491 204.395109) scale(0.105 -0.105)">
       <defs>
        <path id="NotoNaskhArabic-Regular-4ce" d="M 307 0 
L 307 467 
L 1504 1677 
Q 1773 1952 1952 2147 
Q 2131 2342 2221 2458 
Q 2413 2720 2489 2925 
Q 2566 3130 2566 3386 
Q 2566 3744 2352 3949 
Q 2138 4154 1760 4154 
Q 1478 4154 1228 4058 
Q 979 3962 659 3718 
L 358 4096 
Q 1005 4634 1760 4634 
Q 2240 4634 2576 4448 
Q 2912 4262 3053 3923 
Q 3142 3686 3142 3418 
Q 3142 3123 3033 2841 
Q 2925 2560 2707 2272 
Q 2598 2131 2416 1929 
Q 2234 1728 1971 1478 
L 1018 538 
L 1018 512 
L 3328 512 
L 3328 0 
L 307 0 
z
" transform="scale(0.015625)"/>
       </defs>
       <use xlink:href="#NotoNaskhArabic-Regular-4ce"/>
      </g>
     </g>
    </g>
    <g id="xtick_3">
     <g id="line2d_3">
      <g>
       <use xlink:href="#m65e9f190fb" x="267.329848" y="186.170609" style="fill: #555555; stroke: #555555; stroke-width: 0.8"/>
      </g>
     </g>
     <g id="text_3">
      <!-- 4 -->
      <g style="fill: #555555" transform="translate(264.326684 204.395109) scale(0.105 -0.105)">
       <defs>
        <path id="NotoNaskhArabic-Regular-4d0" d="M 2323 0 
L 2323 1037 
L 134 1037 
L 134 1517 
L 2285 4595 
L 2867 4595 
L 2867 1542 
L 3533 1542 
L 3533 1037 
L 2867 1037 
L 2867 0 
L 2323 0 
z
M 685 1542 
L 2323 1542 
L 2323 2982 
Q 2323 3194 2332 3446 
Q 2342 3699 2355 3994 
L 2330 3994 
Q 2298 3910 2211 3747 
Q 2125 3584 2054 3494 
L 685 1542 
z
" transform="scale(0.015625)"/>
       </defs>
       <use xlink:href="#NotoNaskhArabic-Regular-4d0"/>
      </g>
     </g>
    </g>
    <g id="xtick_4">
     <g id="line2d_4">
      <g>
       <use xlink:href="#m65e9f190fb" x="361.05704" y="186.170609" style="fill: #555555; stroke: #555555; stroke-width: 0.8"/>
      </g>
     </g>
     <g id="text_4">
      <!-- 6 -->
      <g style="fill: #555555" transform="translate(358.053876 204.395109) scale(0.105 -0.105)">
       <defs>
        <path id="NotoNaskhArabic-Regular-4d2" d="M 1907 -64 
Q 1440 -64 1088 176 
Q 736 416 544 870 
Q 352 1331 352 1952 
Q 352 4634 2445 4634 
Q 2810 4634 3008 4576 
L 3008 4096 
Q 2771 4173 2458 4173 
Q 1984 4173 1654 3987 
Q 1325 3802 1139 3405 
Q 941 2976 915 2323 
L 954 2323 
Q 1299 2861 2035 2861 
Q 2656 2861 3008 2486 
Q 3360 2112 3360 1472 
Q 3360 762 2969 349 
Q 2579 -64 1907 -64 
z
M 1901 410 
Q 2336 410 2569 688 
Q 2803 966 2803 1472 
Q 2803 1926 2576 2172 
Q 2349 2419 1920 2419 
Q 1645 2419 1421 2307 
Q 1197 2195 1056 1997 
Q 922 1798 922 1581 
Q 922 1267 1050 995 
Q 1178 723 1395 563 
Q 1619 410 1901 410 
z
" transform="scale(0.015625)"/>
       </defs>
       <use xlink:href="#NotoNaskhArabic-Regular-4d2"/>
      </g>
     </g>
    </g>
    <g id="xtick_5">
     <g id="line2d_5">
      <g>
       <use xlink:href="#m65e9f190fb" x="454.784233" y="186.170609" style="fill: #555555; stroke: #555555; stroke-width: 0.8"/>
      </g>
     </g>
     <g id="text_5">
      <!-- 8 -->
      <g style="fill: #555555" transform="translate(451.781069 204.395109) scale(0.105 -0.105)">
       <defs>
        <path id="NotoNaskhArabic-Regular-4d4" d="M 1843 -64 
Q 1114 -64 714 256 
Q 314 576 314 1165 
Q 314 1946 1261 2387 
Q 832 2630 646 2912 
Q 461 3194 461 3546 
Q 461 4045 832 4339 
Q 1203 4634 1824 4634 
Q 2451 4634 2822 4342 
Q 3194 4051 3194 3539 
Q 3194 3200 2986 2928 
Q 2778 2656 2323 2419 
Q 2874 2150 3107 1856 
Q 3341 1562 3341 1184 
Q 3341 621 2937 278 
Q 2534 -64 1843 -64 
z
M 1850 2637 
Q 2278 2816 2457 3030 
Q 2637 3245 2637 3520 
Q 2637 3834 2416 4006 
Q 2195 4179 1818 4179 
Q 1446 4179 1228 4003 
Q 1011 3827 1011 3520 
Q 1011 3322 1094 3171 
Q 1178 3021 1338 2906 
Q 1498 2784 1850 2637 
z
M 1830 384 
Q 2278 384 2534 595 
Q 2790 806 2790 1178 
Q 2790 1478 2547 1712 
Q 2304 1946 1728 2157 
Q 1280 1965 1072 1728 
Q 864 1491 864 1158 
Q 864 800 1123 592 
Q 1382 384 1830 384 
z
" transform="scale(0.015625)"/>
       </defs>
       <use xlink:href="#NotoNaskhArabic-Regular-4d4"/>
      </g>
     </g>
    </g>
    <g id="xtick_6">
     <g id="line2d_6">
      <g>
       <use xlink:href="#m65e9f190fb" x="548.511426" y="186.170609" style="fill: #555555; stroke: #555555; stroke-width: 0.8"/>
      </g>
     </g>
     <g id="text_6">
      <!-- 10 -->
      <g style="fill: #555555" transform="translate(542.505098 204.395109) scale(0.105 -0.105)">
       <defs>
        <path id="NotoNaskhArabic-Regular-4cd" d="M 1722 0 
L 1722 3194 
Q 1722 3405 1728 3603 
Q 1734 3802 1747 3981 
Q 1702 3936 1657 3891 
Q 1613 3846 1562 3808 
Q 1402 3674 1226 3530 
Q 1050 3386 864 3232 
L 570 3610 
L 1805 4570 
L 2272 4570 
L 2272 0 
L 1722 0 
z
" transform="scale(0.015625)"/>
       </defs>
       <use xlink:href="#NotoNaskhArabic-Regular-4cd"/>
       <use xlink:href="#NotoNaskhArabic-Regular-4cc" transform="translate(57.203125 0)"/>
      </g>
     </g>
    </g>
    <g id="text_7">
     <!-- ​ﺔﻘﻔﺼﻟﺍ ﻢﻗﺭ -->
     <g style="fill: #1f2937" transform="translate(316.499734 226.276609) scale(0.105 -0.105)">
      <defs>
       <path id="NotoNaskhArabic-Regular-d3" d="M 710 -1306 
Q 608 -1306 451 -1248 
Q 294 -1190 134 -1107 
Q -26 -1024 -128 -947 
L -45 -736 
Q 134 -768 284 -787 
Q 435 -806 563 -806 
Q 1043 -806 1385 -518 
Q 1728 -230 1907 314 
Q 1862 416 1814 515 
Q 1766 614 1709 717 
Q 1491 1107 1388 1340 
Q 1286 1574 1286 1734 
Q 1286 1901 1382 2000 
Q 1478 2099 1658 2182 
Q 1696 2029 1789 1785 
Q 1882 1542 1946 1357 
Q 2029 1133 2086 915 
Q 2144 698 2144 518 
Q 2144 19 1955 -406 
Q 1766 -832 1440 -1069 
Q 1107 -1306 710 -1306 
z
" transform="scale(0.015625)"/>
       <path id="NotoNaskhArabic-Regular-16a" d="M 6 0 
Q -51 0 -51 58 
L -51 429 
Q -51 486 6 486 
Q 698 486 1174 569 
Q 1651 653 2054 832 
Q 2042 960 2019 1085 
Q 1997 1210 1971 1331 
Q 1773 1171 1536 1075 
Q 1299 979 1062 979 
Q 781 979 601 1193 
Q 422 1408 422 1728 
Q 422 2054 534 2342 
Q 646 2630 819 2797 
Q 1011 2970 1216 2970 
Q 1549 2970 1805 2730 
Q 2061 2490 2214 2054 
Q 2362 1613 2362 1114 
Q 2362 896 2138 461 
Q 1882 301 1587 198 
Q 1293 96 912 48 
Q 531 0 6 0 
z
M 1210 1466 
Q 1530 1466 1888 1626 
Q 1766 2016 1568 2221 
Q 1370 2426 1120 2426 
Q 928 2426 797 2250 
Q 666 2074 666 1856 
Q 666 1658 797 1562 
Q 928 1466 1210 1466 
z
M 1664 3321 
Q 1523 3430 1417 3529 
Q 1312 3628 1242 3718 
Q 1274 3750 1376 3859 
Q 1478 3968 1651 4147 
Q 1690 4108 1789 4012 
Q 1888 3916 2048 3763 
Q 1926 3571 1664 3321 
z
M 704 3232 
Q 563 3347 454 3446 
Q 346 3545 275 3622 
Q 442 3782 691 4057 
Q 730 4012 826 3916 
Q 922 3820 1082 3673 
Q 1024 3577 928 3468 
Q 832 3360 704 3232 
z
" transform="scale(0.015625)"/>
       <path id="NotoNaskhArabic-Regular-1e3" d="M 634 -1952 
Q 608 -1587 579 -1212 
Q 550 -838 506 -448 
Q 474 -141 454 121 
Q 435 384 435 595 
Q 435 634 444 682 
Q 454 730 467 787 
Q 506 902 659 1229 
Q 672 1261 761 1334 
Q 851 1408 979 1497 
Q 1107 1587 1238 1676 
Q 1370 1766 1472 1830 
Q 1754 1997 1968 2086 
Q 2182 2176 2317 2176 
Q 2438 2176 2554 1978 
Q 2618 1875 2688 1715 
Q 2758 1555 2842 1331 
Q 2918 1114 2995 954 
Q 3072 794 3136 691 
Q 3283 486 3430 486 
Q 3501 486 3501 422 
L 3501 70 
Q 3501 0 3430 0 
Q 3117 0 2848 275 
L 2771 0 
Q 2330 0 1955 96 
Q 1581 192 1350 361 
Q 1120 531 1120 749 
Q 1120 954 1242 1190 
Q 947 992 704 806 
Q 749 275 915 -717 
Q 947 -966 985 -1216 
Q 1024 -1466 1062 -1715 
Q 966 -1779 860 -1840 
Q 755 -1901 634 -1952 
z
M 2726 442 
Q 2586 666 2474 1005 
Q 2362 1344 2330 1690 
Q 2150 1600 1974 1462 
Q 1798 1325 1660 1171 
Q 1523 1018 1459 883 
Q 1875 531 2726 442 
z
" transform="scale(0.015625)"/>
       <path id="NotoNaskhArabic-Regular-554" transform="scale(0.015625)"/>
       <path id="NotoNaskhArabic-Regular-3" d="M 666 0 
Q 646 1126 604 2057 
Q 563 2989 493 3725 
Q 467 3987 566 4118 
Q 666 4250 915 4294 
Q 941 4173 1001 3965 
Q 1062 3757 1139 3533 
L 966 3386 
Q 992 2912 1001 2413 
Q 1011 1914 1001 1338 
Q 992 762 960 51 
L 666 0 
z
" transform="scale(0.015625)"/>
       <path id="NotoNaskhArabic-Regular-1c1" d="M -6 0 
Q -64 0 -64 51 
L -64 435 
Q -64 486 -6 486 
Q 378 486 704 659 
Q 685 902 665 1139 
Q 646 1376 627 1606 
Q 570 2208 512 2790 
Q 454 3373 384 3936 
Q 474 4032 579 4121 
Q 685 4211 806 4294 
Q 826 3949 851 3497 
Q 877 3046 915 2483 
Q 947 2016 960 1609 
Q 973 1203 979 864 
Q 979 755 915 572 
Q 851 390 755 224 
Q 640 0 -6 0 
z
" transform="scale(0.015625)"/>
       <path id="NotoNaskhArabic-Regular-111" d="M 2534 0 
Q 2227 0 1900 45 
Q 1574 90 1286 173 
Q 998 256 806 358 
Q 781 333 755 301 
Q 730 269 698 237 
Q 486 0 0 0 
Q -51 0 -51 51 
L -51 435 
Q -51 486 0 486 
Q 288 486 457 592 
Q 627 698 800 998 
Q 826 1043 848 1088 
Q 870 1133 896 1178 
Q 966 1286 1101 1286 
Q 1190 1286 1248 1229 
Q 1184 1069 1136 957 
Q 1088 845 1062 787 
Q 1139 749 1216 717 
Q 1293 685 1376 659 
Q 2003 1478 2528 1888 
Q 3040 2285 3469 2285 
Q 3648 2285 3913 2137 
Q 4179 1990 4390 1760 
Q 4595 1523 4595 1350 
Q 4595 966 4352 666 
Q 4634 486 5030 486 
Q 5088 486 5088 435 
L 5088 51 
Q 5088 0 5030 0 
Q 4755 0 4489 109 
Q 4224 218 4051 397 
Q 3872 282 3638 195 
Q 3405 109 3142 58 
Q 2848 0 2534 0 
z
M 2598 486 
Q 3430 486 4307 1037 
Q 4115 1376 3843 1561 
Q 3571 1747 3309 1747 
Q 3002 1747 2586 1452 
Q 2170 1158 1677 582 
Q 2176 486 2598 486 
z
" transform="scale(0.015625)"/>
       <path id="NotoNaskhArabic-Regular-145" d="M 6 0 
Q -51 0 -51 58 
L -51 429 
Q -51 486 6 486 
Q 186 486 320 492 
Q 454 499 557 512 
Q 320 774 320 1062 
Q 320 1171 339 1308 
Q 358 1446 384 1564 
Q 410 1683 435 1728 
Q 602 2029 870 2211 
Q 1139 2394 1446 2394 
Q 1613 2394 1766 2234 
Q 1920 2074 2016 1798 
Q 2118 1530 2118 1248 
Q 2118 845 1843 518 
Q 1946 506 2118 496 
Q 2291 486 2528 486 
Q 2586 486 2586 435 
L 2586 51 
Q 2586 0 2528 0 
Q 1734 0 1216 205 
Q 998 96 707 48 
Q 416 0 6 0 
z
M 1216 659 
Q 1581 794 1869 1050 
Q 1850 1210 1763 1402 
Q 1677 1594 1568 1722 
Q 1453 1850 1389 1850 
Q 1267 1850 1113 1750 
Q 960 1651 809 1484 
Q 659 1318 557 1120 
Q 826 813 1216 659 
z
M 1292 2771 
Q 1011 2982 832 3187 
Q 1158 3514 1280 3654 
Q 1382 3546 1487 3440 
Q 1593 3334 1702 3238 
Q 1555 3027 1292 2771 
z
" transform="scale(0.015625)"/>
       <path id="NotoNaskhArabic-Regular-169" d="M 6 0 
Q -51 0 -51 58 
L -51 429 
Q -51 486 6 486 
Q 186 486 320 492 
Q 454 499 557 512 
Q 320 774 320 1062 
Q 320 1171 339 1308 
Q 358 1446 384 1564 
Q 410 1683 435 1728 
Q 602 2029 870 2211 
Q 1139 2394 1446 2394 
Q 1613 2394 1766 2234 
Q 1920 2074 2016 1798 
Q 2118 1530 2118 1248 
Q 2118 845 1843 518 
Q 1946 506 2118 496 
Q 2291 486 2528 486 
Q 2586 486 2586 435 
L 2586 51 
Q 2586 0 2528 0 
Q 1734 0 1216 205 
Q 998 96 707 48 
Q 416 0 6 0 
z
M 1216 659 
Q 1581 794 1869 1050 
Q 1850 1210 1763 1402 
Q 1677 1594 1568 1722 
Q 1453 1850 1389 1850 
Q 1267 1850 1113 1750 
Q 960 1651 809 1484 
Q 659 1318 557 1120 
Q 826 813 1216 659 
z
M 1760 2745 
Q 1619 2854 1513 2953 
Q 1408 3052 1338 3142 
Q 1370 3174 1472 3283 
Q 1574 3392 1747 3571 
Q 1786 3532 1885 3436 
Q 1984 3340 2144 3187 
Q 2022 2995 1760 2745 
z
M 800 2656 
Q 659 2771 550 2870 
Q 442 2969 371 3046 
Q 538 3206 787 3481 
Q 826 3436 922 3340 
Q 1018 3244 1178 3097 
Q 1120 3001 1024 2892 
Q 928 2784 800 2656 
z
" transform="scale(0.015625)"/>
       <path id="NotoNaskhArabic-Regular-215" d="M 3040 0 
Q 2656 0 2416 147 
Q 2176 294 2138 557 
L 2112 691 
L 1882 250 
Q 1651 275 1520 291 
Q 1389 307 1305 332 
Q 1222 358 1126 397 
Q 1011 442 873 515 
Q 736 589 633 675 
Q 531 762 531 838 
Q 531 896 572 1014 
Q 614 1133 668 1251 
Q 723 1370 762 1434 
Q 813 1523 922 1632 
Q 1088 1792 1344 1955 
Q 1600 2118 1875 2227 
L 1850 2400 
Q 2074 2598 2317 2733 
Q 2330 2214 2349 1696 
Q 2368 1178 2374 659 
Q 2675 486 3040 486 
Q 3098 486 3098 435 
L 3098 51 
Q 3098 0 3040 0 
z
M 2099 768 
Q 2061 1018 2019 1283 
Q 1978 1549 1933 1811 
Q 1171 1555 845 1139 
Q 1018 986 1219 909 
Q 1421 832 1645 800 
Q 1754 787 1869 780 
Q 1984 774 2099 768 
z
M 2067 2995 
Q 1926 3104 1820 3203 
Q 1715 3302 1645 3392 
Q 1677 3424 1779 3533 
Q 1881 3642 2054 3821 
Q 2093 3782 2192 3686 
Q 2291 3590 2451 3437 
Q 2329 3245 2067 2995 
z
M 1107 2906 
Q 966 3021 857 3120 
Q 749 3219 678 3296 
Q 845 3456 1094 3731 
Q 1133 3686 1229 3590 
Q 1325 3494 1485 3347 
Q 1427 3251 1331 3142 
Q 1235 3034 1107 2906 
z
" transform="scale(0.015625)"/>
      </defs>
      <use xlink:href="#NotoNaskhArabic-Regular-d3"/>
      <use xlink:href="#NotoNaskhArabic-Regular-16a" transform="translate(38.59375 0)"/>
      <use xlink:href="#NotoNaskhArabic-Regular-1e3" transform="translate(80.59375 0)"/>
      <use xlink:href="#NotoNaskhArabic-Regular-554" transform="translate(133.390625 0)"/>
      <use xlink:href="#NotoNaskhArabic-Regular-3" transform="translate(155.484375 0)"/>
      <use xlink:href="#NotoNaskhArabic-Regular-1c1" transform="translate(179.28125 0)"/>
      <use xlink:href="#NotoNaskhArabic-Regular-111" transform="translate(200.484375 0)"/>
      <use xlink:href="#NotoNaskhArabic-Regular-145" transform="translate(278.28125 0)"/>
      <use xlink:href="#NotoNaskhArabic-Regular-169" transform="translate(316.984375 0)"/>
      <use xlink:href="#NotoNaskhArabic-Regular-215" transform="translate(355.6875 0)"/>
      <use xlink:href="#NotoNaskhArabic-Regular-554" transform="translate(402.390625 0)"/>
     </g>
    </g>
   </g>
   <g id="matplotlib.axis_2">
    <g id="ytick_1">
     <g id="line2d_7">
      <path d="M 54.100484 162.481597 
L 621.15 162.481597 
" clip-path="url(#p247e9f4ce2)" style="fill: none; stroke: #e6e1d6; stroke-width: 0.8; stroke-linecap: square"/>
     </g>
     <g id="line2d_8">
      <defs>
       <path id="m4a6147e0dc" d="M 0 0 
L -3.5 0 
" style="stroke: #555555; stroke-width: 0.8"/>
      </defs>
      <g>
       <use xlink:href="#m4a6147e0dc" x="54.100484" y="162.481597" style="fill: #555555; stroke: #555555; stroke-width: 0.8"/>
      </g>
     </g>
     <g id="text_8">
      <!-- 96 -->
      <g style="fill: #555555" transform="translate(35.087828 168.093847) scale(0.105 -0.105)">
       <defs>
        <path id="NotoNaskhArabic-Regular-4d5" d="M 1229 -64 
Q 851 -64 653 0 
L 653 480 
Q 883 397 1216 397 
Q 1728 397 2057 601 
Q 2387 806 2560 1197 
Q 2650 1395 2701 1654 
Q 2752 1914 2758 2240 
L 2720 2240 
Q 2362 1709 1632 1709 
Q 1030 1709 675 2077 
Q 320 2445 320 3091 
Q 320 3565 499 3910 
Q 678 4256 1008 4445 
Q 1338 4634 1779 4634 
Q 2246 4634 2598 4394 
Q 2950 4154 3136 3699 
Q 3328 3238 3328 2618 
Q 3328 -64 1229 -64 
z
M 1754 2157 
Q 2035 2157 2265 2269 
Q 2496 2381 2630 2579 
Q 2758 2778 2758 2989 
Q 2758 3302 2636 3571 
Q 2515 3840 2291 4000 
Q 2074 4160 1779 4160 
Q 1350 4160 1113 3881 
Q 877 3603 877 3098 
Q 877 2643 1101 2400 
Q 1325 2157 1754 2157 
z
" transform="scale(0.015625)"/>
       </defs>
       <use xlink:href="#NotoNaskhArabic-Regular-4d5"/>
       <use xlink:href="#NotoNaskhArabic-Regular-4d2" transform="translate(57.203125 0)"/>
      </g>
     </g>
    </g>
    <g id="ytick_2">
     <g id="line2d_9">
      <path d="M 54.100484 127.2563 
L 621.15 127.2563 
" clip-path="url(#p247e9f4ce2)" style="fill: none; stroke: #e6e1d6; stroke-width: 0.8; stroke-linecap: square"/>
     </g>
     <g id="line2d_10">
      <g>
       <use xlink:href="#m4a6147e0dc" x="54.100484" y="127.2563" style="fill: #555555; stroke: #555555; stroke-width: 0.8"/>
      </g>
     </g>
     <g id="text_9">
      <!-- 98 -->
      <g style="fill: #555555" transform="translate(35.087828 132.86855) scale(0.105 -0.105)">
       <use xlink:href="#NotoNaskhArabic-Regular-4d5"/>
       <use xlink:href="#NotoNaskhArabic-Regular-4d4" transform="translate(57.203125 0)"/>
      </g>
     </g>
    </g>
    <g id="ytick_3">
     <g id="line2d_11">
      <path d="M 54.100484 92.031004 
L 621.15 92.031004 
" clip-path="url(#p247e9f4ce2)" style="fill: none; stroke: #e6e1d6; stroke-width: 0.8; stroke-linecap: square"/>
     </g>
     <g id="line2d_12">
      <g>
       <use xlink:href="#m4a6147e0dc" x="54.100484" y="92.031004" style="fill: #555555; stroke: #555555; stroke-width: 0.8"/>
      </g>
     </g>
     <g id="text_10">
      <!-- 100 -->
      <g style="fill: #555555" transform="translate(29.0815 97.643254) scale(0.105 -0.105)">
       <use xlink:href="#NotoNaskhArabic-Regular-4cd"/>
       <use xlink:href="#NotoNaskhArabic-Regular-4cc" transform="translate(57.203125 0)"/>
       <use xlink:href="#NotoNaskhArabic-Regular-4cc" transform="translate(114.40625 0)"/>
      </g>
     </g>
    </g>
    <g id="ytick_4">
     <g id="line2d_13">
      <path d="M 54.100484 56.805708 
L 621.15 56.805708 
" clip-path="url(#p247e9f4ce2)" style="fill: none; stroke: #e6e1d6; stroke-width: 0.8; stroke-linecap: square"/>
     </g>
     <g id="line2d_14">
      <g>
       <use xlink:href="#m4a6147e0dc" x="54.100484" y="56.805708" style="fill: #555555; stroke: #555555; stroke-width: 0.8"/>
      </g>
     </g>
     <g id="text_11">
      <!-- 102 -->
      <g style="fill: #555555" transform="translate(29.0815 62.417958) scale(0.105 -0.105)">
       <use xlink:href="#NotoNaskhArabic-Regular-4cd"/>
       <use xlink:href="#NotoNaskhArabic-Regular-4cc" transform="translate(57.203125 0)"/>
       <use xlink:href="#NotoNaskhArabic-Regular-4ce" transform="translate(114.40625 0)"/>
      </g>
     </g>
    </g>
    <g id="text_12">
     <!-- ​(Equity) ﻝﺎﻤﻟﺍ ﺱﺃﺭ -->
     <g style="fill: #1f2937" transform="translate(18.4245 159.924593) rotate(-90) scale(0.105 -0.105)">
      <defs>
       <path id="DejaVuSans-b" d="M 1984 4856 
Q 1566 4138 1362 3434 
Q 1159 2731 1159 2009 
Q 1159 1288 1364 580 
Q 1569 -128 1984 -844 
L 1484 -844 
Q 1016 -109 783 600 
Q 550 1309 550 2009 
Q 550 2706 781 3412 
Q 1013 4119 1484 4856 
L 1984 4856 
z
" transform="scale(0.015625)"/>
       <path id="DejaVuSans-28" d="M 628 4666 
L 3578 4666 
L 3578 4134 
L 1259 4134 
L 1259 2753 
L 3481 2753 
L 3481 2222 
L 1259 2222 
L 1259 531 
L 3634 531 
L 3634 0 
L 628 0 
L 628 4666 
z
" transform="scale(0.015625)"/>
       <path id="DejaVuSans-54" d="M 947 1747 
Q 947 1113 1208 752 
Q 1469 391 1925 391 
Q 2381 391 2643 752 
Q 2906 1113 2906 1747 
Q 2906 2381 2643 2742 
Q 2381 3103 1925 3103 
Q 1469 3103 1208 2742 
Q 947 2381 947 1747 
z
M 2906 525 
Q 2725 213 2448 61 
Q 2172 -91 1784 -91 
Q 1150 -91 751 415 
Q 353 922 353 1747 
Q 353 2572 751 3078 
Q 1150 3584 1784 3584 
Q 2172 3584 2448 3432 
Q 2725 3281 2906 2969 
L 2906 3500 
L 3481 3500 
L 3481 -1331 
L 2906 -1331 
L 2906 525 
z
" transform="scale(0.015625)"/>
       <path id="DejaVuSans-58" d="M 544 1381 
L 544 3500 
L 1119 3500 
L 1119 1403 
Q 1119 906 1312 657 
Q 1506 409 1894 409 
Q 2359 409 2629 706 
Q 2900 1003 2900 1516 
L 2900 3500 
L 3475 3500 
L 3475 0 
L 2900 0 
L 2900 538 
Q 2691 219 2414 64 
Q 2138 -91 1772 -91 
Q 1169 -91 856 284 
Q 544 659 544 1381 
z
M 1991 3584 
L 1991 3584 
z
" transform="scale(0.015625)"/>
       <path id="DejaVuSans-4c" d="M 603 3500 
L 1178 3500 
L 1178 0 
L 603 0 
L 603 3500 
z
M 603 4863 
L 1178 4863 
L 1178 4134 
L 603 4134 
L 603 4863 
z
" transform="scale(0.015625)"/>
       <path id="DejaVuSans-57" d="M 1172 4494 
L 1172 3500 
L 2356 3500 
L 2356 3053 
L 1172 3053 
L 1172 1153 
Q 1172 725 1289 603 
Q 1406 481 1766 481 
L 2356 481 
L 2356 0 
L 1766 0 
Q 1100 0 847 248 
Q 594 497 594 1153 
L 594 3053 
L 172 3053 
L 172 3500 
L 594 3500 
L 594 4494 
L 1172 4494 
z
" transform="scale(0.015625)"/>
       <path id="DejaVuSans-5c" d="M 2059 -325 
Q 1816 -950 1584 -1140 
Q 1353 -1331 966 -1331 
L 506 -1331 
L 506 -850 
L 844 -850 
Q 1081 -850 1212 -737 
Q 1344 -625 1503 -206 
L 1606 56 
L 191 3500 
L 800 3500 
L 1894 763 
L 2988 3500 
L 3597 3500 
L 2059 -325 
z
" transform="scale(0.015625)"/>
       <path id="DejaVuSans-c" d="M 513 4856 
L 1013 4856 
Q 1481 4119 1714 3412 
Q 1947 2706 1947 2009 
Q 1947 1309 1714 600 
Q 1481 -109 1013 -844 
L 513 -844 
Q 928 -128 1133 580 
Q 1338 1288 1338 2009 
Q 1338 2731 1133 3434 
Q 928 4138 513 4856 
z
" transform="scale(0.015625)"/>
       <path id="NotoNaskhArabic-Regular-7" d="M 666 0 
Q 646 1126 604 2057 
Q 563 2989 493 3725 
Q 467 3987 566 4118 
Q 666 4250 915 4294 
Q 941 4173 1001 3965 
Q 1062 3757 1139 3533 
L 966 3386 
Q 992 2912 1001 2413 
Q 1011 1914 1001 1338 
Q 992 762 960 51 
L 666 0 
z
M 332 4519 
L 313 4768 
L 569 4909 
Q 332 4948 332 5165 
Q 332 5287 402 5402 
Q 473 5517 585 5594 
Q 697 5671 806 5671 
Q 1056 5671 1056 5434 
Q 1056 5344 1011 5261 
L 889 5293 
L 896 5319 
Q 896 5351 870 5376 
Q 844 5402 812 5402 
Q 710 5402 630 5328 
Q 550 5255 512 5159 
Q 620 5031 819 5031 
Q 934 5031 1132 5069 
L 1120 4826 
Q 857 4762 687 4691 
Q 518 4621 332 4519 
z
" transform="scale(0.015625)"/>
       <path id="NotoNaskhArabic-Regular-f7" d="M 1594 -1677 
Q 1050 -1677 742 -1363 
Q 435 -1050 435 -474 
Q 435 -346 444 -237 
Q 454 -128 480 9 
Q 506 147 557 358 
L 794 301 
Q 723 6 723 -154 
Q 723 -621 956 -883 
Q 1190 -1146 1606 -1146 
Q 1926 -1146 2249 -1040 
Q 2573 -934 2829 -752 
Q 3085 -570 3187 -346 
Q 2976 109 2873 416 
Q 2771 723 2771 877 
Q 2771 1043 2864 1174 
Q 2957 1306 3187 1446 
Q 3200 1357 3216 1251 
Q 3232 1146 3264 982 
Q 3296 819 3347 544 
Q 3539 486 3731 486 
Q 3910 486 4051 505 
Q 4192 525 4294 550 
Q 4339 627 4371 736 
Q 4525 1254 4595 1402 
Q 4646 1530 4697 1571 
Q 4749 1613 4851 1613 
Q 4941 1613 5005 1568 
Q 4960 1472 4889 1270 
Q 4819 1069 4730 755 
Q 5050 614 5306 560 
Q 5562 506 5856 506 
Q 5818 634 5760 810 
Q 5702 986 5613 1203 
Q 5485 1549 5485 1638 
Q 5485 1779 5597 1923 
Q 5709 2067 5907 2176 
Q 5933 2022 5981 1804 
Q 6029 1587 6061 1440 
Q 6099 1267 6128 1100 
Q 6157 934 6157 787 
Q 6157 723 6121 579 
Q 6086 435 6032 278 
Q 5978 122 5914 0 
Q 5504 0 5203 57 
Q 4902 115 4557 275 
L 4499 173 
Q 4454 96 4211 45 
Q 4096 19 3958 9 
Q 3821 0 3654 0 
Q 3597 0 3539 3 
Q 3482 6 3424 13 
L 3424 -109 
Q 3424 -499 3174 -860 
Q 2925 -1222 2490 -1446 
Q 2061 -1677 1594 -1677 
z
" transform="scale(0.015625)"/>
       <path id="NotoNaskhArabic-Regular-1e4" d="M 2016 0 
Q 1414 0 902 192 
Q 595 77 400 38 
Q 205 0 0 0 
Q -51 0 -51 51 
L -51 435 
Q -51 486 0 486 
Q 109 486 211 505 
Q 314 525 416 550 
Q 371 640 371 749 
Q 371 928 460 1152 
Q 550 1376 700 1590 
Q 851 1805 1037 1952 
Q 1318 2176 1568 2176 
Q 1677 2176 1760 2051 
Q 1843 1926 1926 1734 
Q 1971 1645 2009 1542 
Q 2048 1440 2086 1331 
Q 2163 1114 2252 928 
Q 2342 742 2445 614 
Q 2554 486 2682 486 
Q 2752 486 2752 422 
L 2752 70 
Q 2752 0 2682 0 
Q 2362 0 2099 282 
L 2016 0 
z
M 1978 442 
Q 1837 646 1728 979 
Q 1619 1312 1581 1683 
Q 1421 1613 1241 1475 
Q 1062 1338 918 1178 
Q 774 1018 704 877 
Q 1133 525 1978 442 
z
" transform="scale(0.015625)"/>
       <path id="NotoNaskhArabic-Regular-4" d="M 1677 0 
Q 1299 0 1049 150 
Q 800 301 768 557 
Q 742 787 713 1072 
Q 685 1357 653 1747 
Q 621 2138 579 2672 
Q 538 3206 486 3936 
Q 576 4026 685 4118 
Q 794 4211 922 4294 
Q 941 3795 953 3308 
Q 966 2822 976 2281 
Q 986 1741 992 1082 
L 1011 653 
Q 1312 486 1677 486 
Q 1728 486 1728 435 
L 1728 51 
Q 1728 0 1677 0 
z
" transform="scale(0.015625)"/>
       <path id="NotoNaskhArabic-Regular-1bd" d="M 1594 -1677 
Q 1050 -1677 742 -1363 
Q 435 -1050 435 -474 
Q 435 -346 444 -237 
Q 454 -128 480 9 
Q 506 147 557 358 
L 794 301 
Q 723 6 723 -154 
Q 723 -621 956 -883 
Q 1190 -1146 1606 -1146 
Q 1914 -1146 2240 -1040 
Q 2566 -934 2816 -749 
Q 3072 -563 3174 -346 
L 3008 685 
Q 2944 1094 2867 1568 
Q 2790 2042 2720 2493 
Q 2650 2944 2608 3289 
Q 2566 3635 2566 3795 
Q 2566 4013 2665 4131 
Q 2765 4250 2982 4294 
Q 3027 4154 3091 3936 
Q 3155 3718 3213 3533 
L 3066 3405 
L 3283 1408 
Q 3347 928 3379 550 
Q 3411 173 3411 -109 
Q 3411 -499 3164 -860 
Q 2918 -1222 2483 -1446 
Q 2054 -1677 1594 -1677 
z
" transform="scale(0.015625)"/>
      </defs>
      <use xlink:href="#NotoNaskhArabic-Regular-554"/>
      <use xlink:href="#DejaVuSans-b"/>
      <use xlink:href="#DejaVuSans-28" transform="translate(39.015625 0)"/>
      <use xlink:href="#DejaVuSans-54" transform="translate(102.203125 0)"/>
      <use xlink:href="#DejaVuSans-58" transform="translate(165.6875 0)"/>
      <use xlink:href="#DejaVuSans-4c" transform="translate(229.0625 0)"/>
      <use xlink:href="#DejaVuSans-57" transform="translate(256.84375 0)"/>
      <use xlink:href="#DejaVuSans-5c" transform="translate(296.046875 0)"/>
      <use xlink:href="#DejaVuSans-c" transform="translate(355.234375 0)"/>
      <use xlink:href="#NotoNaskhArabic-Regular-554" transform="translate(394.25 0)"/>
      <use xlink:href="#NotoNaskhArabic-Regular-d3" transform="translate(416.34375 0)"/>
      <use xlink:href="#NotoNaskhArabic-Regular-7" transform="translate(454.9375 0)"/>
      <use xlink:href="#NotoNaskhArabic-Regular-f7" transform="translate(478.734375 0)"/>
      <use xlink:href="#NotoNaskhArabic-Regular-554" transform="translate(580.03125 0)"/>
      <use xlink:href="#NotoNaskhArabic-Regular-3" transform="translate(602.125 0)"/>
      <use xlink:href="#NotoNaskhArabic-Regular-1c1" transform="translate(625.921875 0)"/>
      <use xlink:href="#NotoNaskhArabic-Regular-1e4" transform="translate(647.125 0)"/>
      <use xlink:href="#NotoNaskhArabic-Regular-4" transform="translate(688.421875 0)"/>
      <use xlink:href="#NotoNaskhArabic-Regular-1bd" transform="translate(713.71875 0)"/>
     </g>
    </g>
   </g>
   <g id="line2d_15">
    <path d="M 79.875462 109.643652 
L 126.739059 127.2563 
L 173.602655 144.868949 
L 220.466251 162.481597 
L 267.329848 180.094245 
L 314.193444 127.2563 
L 361.05704 118.449976 
L 407.920637 136.062625 
L 454.784233 129.017565 
L 501.647829 146.630213 
L 548.511426 164.242862 
L 595.375022 58.566972 
" clip-path="url(#p247e9f4ce2)" style="fill: none; stroke: #1f2937; stroke-width: 2.2; stroke-linecap: square"/>
    <defs>
     <path id="m691e887e5e" d="M 0 2.5 
C 0.663008 2.5 1.29895 2.236584 1.767767 1.767767 
C 2.236584 1.29895 2.5 0.663008 2.5 0 
C 2.5 -0.663008 2.236584 -1.29895 1.767767 -1.767767 
C 1.29895 -2.236584 0.663008 -2.5 0 -2.5 
C -0.663008 -2.5 -1.29895 -2.236584 -1.767767 -1.767767 
C -2.236584 -1.29895 -2.5 -0.663008 -2.5 0 
C -2.5 0.663008 -2.236584 1.29895 -1.767767 1.767767 
C -1.29895 2.236584 -0.663008 2.5 0 2.5 
z
" style="stroke: #1f2937"/>
    </defs>
    <g clip-path="url(#p247e9f4ce2)">
     <use xlink:href="#m691e887e5e" x="79.875462" y="109.643652" style="fill: #1f2937; stroke: #1f2937"/>
     <use xlink:href="#m691e887e5e" x="126.739059" y="127.2563" style="fill: #1f2937; stroke: #1f2937"/>
     <use xlink:href="#m691e887e5e" x="173.602655" y="144.868949" style="fill: #1f2937; stroke: #1f2937"/>
     <use xlink:href="#m691e887e5e" x="220.466251" y="162.481597" style="fill: #1f2937; stroke: #1f2937"/>
     <use xlink:href="#m691e887e5e" x="267.329848" y="180.094245" style="fill: #1f2937; stroke: #1f2937"/>
     <use xlink:href="#m691e887e5e" x="314.193444" y="127.2563" style="fill: #1f2937; stroke: #1f2937"/>
     <use xlink:href="#m691e887e5e" x="361.05704" y="118.449976" style="fill: #1f2937; stroke: #1f2937"/>
     <use xlink:href="#m691e887e5e" x="407.920637" y="136.062625" style="fill: #1f2937; stroke: #1f2937"/>
     <use xlink:href="#m691e887e5e" x="454.784233" y="129.017565" style="fill: #1f2937; stroke: #1f2937"/>
     <use xlink:href="#m691e887e5e" x="501.647829" y="146.630213" style="fill: #1f2937; stroke: #1f2937"/>
     <use xlink:href="#m691e887e5e" x="548.511426" y="164.242862" style="fill: #1f2937; stroke: #1f2937"/>
     <use xlink:href="#m691e887e5e" x="595.375022" y="58.566972" style="fill: #1f2937; stroke: #1f2937"/>
    </g>
   </g>
   <g id="patch_3">
    <path d="M 54.100484 186.170609 
L 54.100484 52.490609 
" style="fill: none; stroke: #1f2937; stroke-width: 0.8; stroke-linejoin: miter; stroke-linecap: square"/>
   </g>
   <g id="patch_4">
    <path d="M 54.100484 186.170609 
L 621.15 186.170609 
" style="fill: none; stroke: #1f2937; stroke-width: 0.8; stroke-linejoin: miter; stroke-linecap: square"/>
   </g>
   <g id="patch_5">
    <path d="M 199.082251 222.542846 
Q 232.358369 201.845785 264.685111 181.739217 
" style="fill: none; stroke: #b91c1c; stroke-linecap: round"/>
    <path d="M 260.677498 182.112101 
L 264.685111 181.739217 
L 262.57885 185.169037 
" style="fill: none; stroke: #b91c1c; stroke-linecap: round"/>
   </g>
   <g id="text_13">
    <!-- ​ﺓﺮﺳﺎﺧ ﺕﺎﻘﻔﺻ 5 -->
    <g style="fill: #b91c1c" transform="translate(126.739059 235.217838) scale(0.09 -0.09)">
     <defs>
      <path id="NotoNaskhArabic-Bold-4d1" d="M 1542 -64 
Q 787 -64 314 186 
L 314 1018 
Q 557 890 886 806 
Q 1216 723 1510 723 
Q 2394 723 2394 1446 
Q 2394 2138 1478 2138 
Q 1312 2138 1113 2106 
Q 915 2074 787 2035 
L 403 2240 
L 576 4570 
L 3053 4570 
L 3053 3750 
L 1421 3750 
L 1338 2854 
Q 1504 2886 1635 2902 
Q 1766 2918 1920 2918 
Q 2586 2918 2976 2547 
Q 3366 2176 3366 1530 
Q 3366 762 2892 349 
Q 2419 -64 1542 -64 
z
" transform="scale(0.015625)"/>
      <path id="NotoNaskhArabic-Bold-554" transform="scale(0.015625)"/>
      <path id="NotoNaskhArabic-Bold-112" d="M 2592 0 
Q 2163 0 1699 80 
Q 1235 160 851 339 
Q 826 314 797 285 
Q 768 256 730 230 
Q 595 147 400 102 
Q 205 58 0 58 
Q -51 58 -51 109 
L -51 762 
Q -51 813 0 813 
Q 243 813 380 841 
Q 518 870 614 969 
Q 710 1069 826 1274 
Q 851 1318 880 1363 
Q 909 1408 934 1466 
Q 1030 1638 1222 1638 
Q 1318 1638 1427 1574 
Q 1363 1414 1302 1260 
Q 1242 1107 1178 954 
Q 1248 928 1312 909 
Q 1376 890 1440 864 
Q 2099 1741 2605 2150 
Q 3091 2560 3469 2560 
Q 3629 2560 3824 2464 
Q 4019 2368 4211 2214 
Q 4403 2061 4544 1882 
Q 4762 1619 4762 1446 
Q 4762 582 3699 192 
Q 3174 0 2592 0 
z
M 2656 704 
Q 3117 704 3520 813 
Q 3923 922 4390 1146 
Q 3814 1805 3309 1805 
Q 3027 1805 2652 1536 
Q 2278 1267 1862 774 
Q 2067 742 2265 723 
Q 2464 704 2656 704 
z
" transform="scale(0.015625)"/>
      <path id="NotoNaskhArabic-Bold-145" d="M 6 58 
Q -51 58 -51 115 
L -51 755 
Q -51 813 6 813 
Q 115 813 227 816 
Q 339 819 454 819 
Q 358 973 358 1114 
Q 358 1197 374 1337 
Q 390 1478 419 1606 
Q 448 1734 474 1786 
Q 595 2003 771 2179 
Q 947 2355 1152 2457 
Q 1357 2560 1549 2560 
Q 1722 2560 1898 2368 
Q 2074 2176 2182 1875 
Q 2291 1568 2291 1306 
Q 2291 1056 2150 819 
Q 2285 819 2422 816 
Q 2560 813 2694 813 
Q 2746 813 2746 762 
L 2746 109 
Q 2746 58 2694 58 
Q 1882 58 1325 269 
Q 1030 147 716 102 
Q 403 58 6 58 
z
M 1299 794 
Q 1690 902 1933 1107 
Q 1888 1280 1795 1446 
Q 1702 1613 1613 1696 
Q 1549 1773 1478 1773 
Q 1146 1773 704 1178 
Q 819 1043 979 944 
Q 1139 845 1299 794 
z
M 1459 3084 
Q 1133 3353 967 3545 
Q 1114 3692 1232 3817 
Q 1351 3942 1447 4057 
Q 1517 3980 1632 3865 
Q 1747 3750 1907 3596 
Q 1831 3488 1719 3360 
Q 1607 3232 1459 3084 
z
" transform="scale(0.015625)"/>
      <path id="NotoNaskhArabic-Bold-169" d="M 6 58 
Q -51 58 -51 115 
L -51 755 
Q -51 813 6 813 
Q 115 813 227 816 
Q 339 819 454 819 
Q 358 973 358 1114 
Q 358 1197 374 1337 
Q 390 1478 419 1606 
Q 448 1734 474 1786 
Q 595 2003 771 2179 
Q 947 2355 1152 2457 
Q 1357 2560 1549 2560 
Q 1722 2560 1898 2368 
Q 2074 2176 2182 1875 
Q 2291 1568 2291 1306 
Q 2291 1056 2150 819 
Q 2285 819 2422 816 
Q 2560 813 2694 813 
Q 2746 813 2746 762 
L 2746 109 
Q 2746 58 2694 58 
Q 1882 58 1325 269 
Q 1030 147 716 102 
Q 403 58 6 58 
z
M 1299 794 
Q 1690 902 1933 1107 
Q 1888 1280 1795 1446 
Q 1702 1613 1613 1696 
Q 1549 1773 1478 1773 
Q 1146 1773 704 1178 
Q 819 1043 979 944 
Q 1139 845 1299 794 
z
M 1888 3052 
Q 1753 3161 1644 3257 
Q 1536 3353 1446 3449 
Q 1683 3667 1875 3897 
Q 1932 3833 2034 3737 
Q 2137 3641 2278 3500 
Q 2105 3264 1888 3052 
z
M 1030 2956 
Q 755 3180 588 3360 
Q 697 3468 806 3580 
Q 915 3692 1024 3801 
Q 1139 3667 1420 3404 
Q 1260 3174 1030 2956 
z
" transform="scale(0.015625)"/>
      <path id="NotoNaskhArabic-Bold-4" d="M 1901 58 
Q 1517 58 1283 186 
Q 1050 314 938 528 
Q 826 742 794 1018 
Q 781 1139 749 1424 
Q 717 1709 681 2073 
Q 646 2438 608 2809 
Q 570 3181 538 3481 
Q 506 3782 486 3930 
Q 845 4166 1248 4352 
Q 1274 3635 1296 2918 
Q 1318 2202 1338 1478 
L 1363 979 
Q 1478 883 1606 848 
Q 1734 813 1914 813 
Q 1952 813 1952 762 
L 1952 109 
Q 1952 58 1901 58 
z
" transform="scale(0.015625)"/>
      <path id="NotoNaskhArabic-Bold-35" d="M 2010 0 
Q 1235 0 841 352 
Q 448 704 448 1363 
Q 448 1638 570 2067 
L 858 2067 
Q 851 2042 844 1926 
Q 838 1811 838 1747 
Q 838 1376 982 1174 
Q 1126 973 1434 864 
Q 1587 819 1792 790 
Q 1997 762 2246 762 
Q 2803 762 3340 864 
Q 3878 966 4320 1165 
Q 4256 1312 4157 1494 
Q 4058 1677 4000 1779 
Q 3936 1907 3891 2006 
Q 3846 2106 3846 2189 
Q 3846 2342 4019 2528 
Q 4192 2714 4429 2835 
Q 4531 2355 4585 2054 
Q 4640 1754 4665 1590 
Q 4691 1427 4691 1350 
Q 4691 1203 4617 982 
Q 4544 762 4442 576 
Q 4160 403 3766 275 
Q 3373 147 2921 73 
Q 2470 0 2010 0 
z
M 2752 2278 
Q 2617 2387 2508 2483 
Q 2400 2579 2310 2675 
Q 2547 2893 2739 3123 
Q 2796 3059 2898 2963 
Q 3001 2867 3142 2726 
Q 2969 2490 2752 2278 
z
M 1894 2182 
Q 1619 2406 1452 2586 
Q 1561 2694 1670 2806 
Q 1779 2918 1888 3027 
Q 2003 2893 2284 2630 
Q 2124 2400 1894 2182 
z
" transform="scale(0.015625)"/>
      <path id="NotoNaskhArabic-Bold-a4" d="M 0 58 
Q -51 58 -51 109 
L -51 762 
Q -51 813 0 813 
Q 467 813 793 829 
Q 1120 845 1427 934 
Q 1702 1018 1897 1069 
Q 2093 1120 2202 1146 
Q 2112 1197 2025 1251 
Q 1939 1306 1856 1363 
Q 1651 1504 1513 1558 
Q 1376 1613 1235 1613 
Q 1043 1613 870 1558 
Q 698 1504 480 1363 
Q 422 1421 377 1533 
Q 333 1645 333 1747 
Q 333 2029 582 2205 
Q 832 2381 1210 2381 
Q 1414 2381 1603 2310 
Q 1792 2240 2029 2080 
Q 2317 1882 2560 1763 
Q 2803 1645 3136 1555 
Q 3302 1517 3500 1494 
Q 3699 1472 3936 1472 
L 3603 794 
Q 3405 813 3273 825 
Q 3142 838 2963 826 
Q 2739 806 2483 704 
Q 2227 602 1990 467 
Q 1741 320 1533 237 
Q 1325 154 1107 115 
Q 890 77 624 67 
Q 358 58 0 58 
z
M 1894 2873 
Q 1568 3142 1402 3334 
Q 1549 3481 1667 3606 
Q 1786 3731 1882 3846 
Q 1952 3769 2067 3654 
Q 2182 3539 2342 3385 
Q 2266 3277 2154 3149 
Q 2042 3021 1894 2873 
z
" transform="scale(0.015625)"/>
      <path id="NotoNaskhArabic-Bold-fa" d="M 1472 0 
Q 1165 0 736 205 
Q 608 141 406 99 
Q 205 58 0 58 
Q -51 58 -51 109 
L -51 762 
Q -51 813 0 813 
Q 294 813 441 851 
Q 589 890 678 979 
Q 749 1050 806 1142 
Q 864 1235 998 1466 
Q 1037 1536 1110 1581 
Q 1184 1626 1267 1626 
Q 1357 1626 1466 1555 
Q 1363 1286 1286 1091 
Q 1210 896 1158 781 
Q 1331 762 1504 762 
Q 1632 762 1734 778 
Q 1837 794 1965 832 
Q 2010 902 2093 1104 
Q 2176 1306 2317 1696 
Q 2349 1779 2432 1833 
Q 2515 1888 2630 1888 
Q 2765 1888 2854 1818 
Q 2778 1626 2710 1414 
Q 2643 1203 2586 992 
Q 2829 870 3133 806 
Q 3437 742 3782 704 
Q 3584 1094 3443 1376 
Q 3302 1658 3302 1798 
Q 3302 1952 3475 2141 
Q 3648 2330 3885 2451 
Q 3994 1907 4051 1603 
Q 4109 1299 4131 1145 
Q 4154 992 4154 909 
Q 4154 806 4112 633 
Q 4070 461 4006 288 
Q 3942 115 3885 0 
Q 3501 0 3097 89 
Q 2694 179 2355 326 
Q 2317 243 2278 173 
Q 2234 102 1994 51 
Q 1754 0 1472 0 
z
" transform="scale(0.015625)"/>
      <path id="NotoNaskhArabic-Bold-d4" d="M 653 -1248 
Q 544 -1248 304 -1107 
Q 64 -966 -218 -730 
L -115 -461 
Q 243 -550 531 -550 
Q 1005 -550 1331 -313 
Q 1658 -77 1805 371 
Q 1760 467 1705 566 
Q 1651 666 1587 762 
Q 1299 1203 1203 1414 
Q 1107 1626 1107 1779 
Q 1107 1965 1254 2147 
Q 1402 2330 1638 2451 
Q 1670 2330 1705 2208 
Q 1741 2086 1786 1958 
Q 1926 1555 2006 1299 
Q 2086 1043 2106 934 
Q 2323 813 2586 813 
Q 2637 813 2637 762 
L 2637 109 
Q 2637 58 2586 58 
Q 2349 58 2112 179 
Q 2042 -243 1837 -566 
Q 1632 -890 1328 -1069 
Q 1024 -1248 653 -1248 
z
" transform="scale(0.015625)"/>
      <path id="NotoNaskhArabic-Bold-214" d="M 1274 0 
Q 909 0 672 246 
Q 435 493 435 864 
Q 435 1126 572 1401 
Q 710 1677 1018 1984 
Q 915 2048 880 2141 
Q 845 2234 845 2330 
Q 845 2464 899 2585 
Q 954 2707 1043 2752 
Q 1408 2637 1721 2381 
Q 2035 2125 2214 1798 
Q 2394 1466 2394 1184 
Q 2394 1094 2349 944 
Q 2304 794 2233 634 
Q 2163 474 2086 349 
Q 2010 224 1939 179 
Q 1818 96 1642 48 
Q 1466 0 1274 0 
z
M 1344 672 
Q 1690 672 1978 851 
Q 1882 1133 1715 1360 
Q 1549 1587 1286 1786 
Q 915 1421 915 1075 
Q 915 896 1040 784 
Q 1165 672 1344 672 
z
M 1684 3251 
Q 1549 3360 1440 3456 
Q 1332 3552 1242 3648 
Q 1479 3866 1671 4096 
Q 1728 4032 1830 3936 
Q 1933 3840 2074 3699 
Q 1901 3463 1684 3251 
z
M 826 3155 
Q 551 3379 384 3559 
Q 493 3667 602 3779 
Q 711 3891 820 4000 
Q 935 3866 1216 3603 
Q 1056 3373 826 3155 
z
" transform="scale(0.015625)"/>
     </defs>
     <use xlink:href="#NotoNaskhArabic-Bold-4d1"/>
     <use xlink:href="#NotoNaskhArabic-Bold-554" transform="translate(57.203125 0)"/>
     <use xlink:href="#NotoNaskhArabic-Bold-112" transform="translate(79.296875 0)"/>
     <use xlink:href="#NotoNaskhArabic-Bold-145" transform="translate(158.796875 0)"/>
     <use xlink:href="#NotoNaskhArabic-Bold-169" transform="translate(200 0)"/>
     <use xlink:href="#NotoNaskhArabic-Bold-4" transform="translate(241.203125 0)"/>
     <use xlink:href="#NotoNaskhArabic-Bold-35" transform="translate(270 0)"/>
     <use xlink:href="#NotoNaskhArabic-Bold-554" transform="translate(350.59375 0)"/>
     <use xlink:href="#NotoNaskhArabic-Bold-a4" transform="translate(372.6875 0)"/>
     <use xlink:href="#NotoNaskhArabic-Bold-4" transform="translate(437.59375 0)"/>
     <use xlink:href="#NotoNaskhArabic-Bold-fa" transform="translate(466.390625 0)"/>
     <use xlink:href="#NotoNaskhArabic-Bold-d4" transform="translate(536.390625 0)"/>
     <use xlink:href="#NotoNaskhArabic-Bold-214" transform="translate(575.890625 0)"/>
     <use xlink:href="#NotoNaskhArabic-Bold-554" transform="translate(618.390625 0)"/>
    </g>
    <!-- (ﺔﻘﻔﺻ ﻞﻜﻟ %1 ﺓﺮﻃﺎﺨﻣ) -->
    <g style="fill: #b91c1c" transform="translate(126.739059 250.544838) scale(0.09 -0.09)">
     <defs>
      <path id="DejaVuSans-Bold-b" d="M 2413 -844 
L 1484 -844 
Q 1006 -72 778 623 
Q 550 1319 550 2003 
Q 550 2688 779 3389 
Q 1009 4091 1484 4856 
L 2413 4856 
Q 2013 4116 1813 3408 
Q 1613 2700 1613 2009 
Q 1613 1319 1811 609 
Q 2009 -100 2413 -844 
z
" transform="scale(0.015625)"/>
      <path id="NotoNaskhArabic-Bold-1e5" d="M 2349 0 
Q 1920 0 1488 99 
Q 1056 198 755 358 
Q 602 198 429 128 
Q 256 58 0 58 
Q -51 58 -51 109 
L -51 762 
Q -51 813 0 813 
Q 525 813 774 1286 
Q 890 1517 982 1680 
Q 1075 1843 1146 1939 
Q 1306 2157 1446 2249 
Q 1587 2342 1773 2342 
Q 2003 2342 2224 2102 
Q 2445 1862 2586 1466 
Q 2726 1082 2726 723 
Q 2726 557 2611 339 
Q 2496 122 2349 0 
z
M 2138 704 
Q 2112 941 2035 1142 
Q 1958 1344 1862 1466 
Q 1760 1587 1677 1587 
Q 1536 1587 1427 1472 
Q 1325 1363 1120 960 
Q 1325 870 1577 803 
Q 1830 736 2138 704 
z
" transform="scale(0.015625)"/>
      <path id="NotoNaskhArabic-Bold-a3" d="M 0 58 
Q -51 58 -51 109 
L -51 762 
Q -51 813 0 813 
Q 467 813 793 829 
Q 1120 845 1427 934 
Q 1702 1018 1897 1069 
Q 2093 1120 2202 1146 
Q 2118 1197 2032 1251 
Q 1946 1306 1856 1363 
Q 1651 1498 1513 1555 
Q 1376 1613 1235 1613 
Q 1043 1613 870 1558 
Q 698 1504 480 1363 
Q 422 1421 377 1533 
Q 333 1645 333 1747 
Q 333 2029 582 2205 
Q 832 2381 1210 2381 
Q 1414 2381 1603 2310 
Q 1792 2240 2029 2080 
Q 2317 1882 2560 1763 
Q 2803 1645 3136 1555 
Q 3302 1517 3500 1494 
Q 3699 1472 3936 1472 
L 3654 934 
Q 3578 941 3501 941 
Q 3424 941 3347 947 
Q 3411 890 3488 867 
Q 3565 845 3661 832 
Q 3808 826 3965 822 
Q 4122 819 4262 813 
Q 4314 813 4314 762 
L 4314 109 
Q 4314 58 4262 58 
Q 4032 58 3782 80 
Q 3533 102 3325 150 
Q 3117 198 3021 262 
Q 2893 358 2838 537 
Q 2784 717 2746 877 
Q 2624 851 2525 803 
Q 2426 755 2304 675 
Q 2182 595 1990 467 
Q 1683 262 1395 176 
Q 1107 90 774 74 
Q 442 58 0 58 
z
M 1894 2873 
Q 1568 3142 1402 3334 
Q 1549 3481 1667 3606 
Q 1786 3731 1882 3846 
Q 1952 3769 2067 3654 
Q 2182 3539 2342 3385 
Q 2266 3277 2154 3149 
Q 2042 3021 1894 2873 
z
" transform="scale(0.015625)"/>
      <path id="NotoNaskhArabic-Bold-126" d="M 0 58 
Q -51 58 -51 109 
L -51 762 
Q -51 813 0 813 
L 531 819 
L 659 819 
Q 730 915 794 1008 
Q 858 1101 922 1184 
Q 762 1946 662 2422 
Q 563 2899 508 3164 
Q 454 3430 435 3552 
Q 416 3674 416 3725 
Q 416 3987 605 4169 
Q 794 4352 1069 4352 
Q 1133 4134 1197 3939 
Q 1261 3744 1331 3565 
L 1126 3411 
Q 1152 3110 1171 2809 
Q 1190 2509 1216 2208 
Q 1229 2054 1241 1907 
Q 1254 1760 1261 1606 
Q 2170 2669 2803 2669 
Q 3066 2669 3354 2512 
Q 3642 2355 3872 2074 
Q 4109 1786 4109 1626 
Q 4109 1126 3683 777 
Q 3258 429 2362 243 
Q 1914 154 1325 106 
Q 736 58 0 58 
z
M 1158 832 
Q 1190 832 1321 838 
Q 1453 845 1632 854 
Q 1811 864 1990 880 
Q 2170 896 2291 915 
Q 2458 947 2624 979 
Q 2790 1011 3040 1075 
Q 3290 1139 3693 1254 
Q 3475 1498 3305 1635 
Q 3136 1773 2985 1830 
Q 2835 1888 2650 1888 
Q 2061 1888 1158 832 
z
" transform="scale(0.015625)"/>
      <path id="NotoNaskhArabic-Bold-4cd" d="M 1677 0 
L 1677 2643 
Q 1677 2822 1686 3020 
Q 1696 3219 1702 3552 
Q 1466 3315 1370 3238 
Q 1242 3136 1107 3030 
Q 973 2925 845 2816 
L 378 3398 
L 1850 4570 
L 2643 4570 
L 2643 0 
L 1677 0 
z
" transform="scale(0.015625)"/>
      <path id="DejaVuSans-Bold-8" d="M 4959 1925 
Q 4738 1925 4616 1733 
Q 4494 1541 4494 1184 
Q 4494 825 4614 633 
Q 4734 441 4959 441 
Q 5184 441 5303 633 
Q 5422 825 5422 1184 
Q 5422 1541 5301 1733 
Q 5181 1925 4959 1925 
z
M 4959 2450 
Q 5541 2450 5875 2112 
Q 6209 1775 6209 1184 
Q 6209 594 5875 251 
Q 5541 -91 4959 -91 
Q 4378 -91 4042 251 
Q 3706 594 3706 1184 
Q 3706 1772 4042 2111 
Q 4378 2450 4959 2450 
z
M 2094 -91 
L 1403 -91 
L 4319 4750 
L 5013 4750 
L 2094 -91 
z
M 1453 4750 
Q 2034 4750 2367 4411 
Q 2700 4072 2700 3481 
Q 2700 2891 2367 2550 
Q 2034 2209 1453 2209 
Q 872 2209 539 2550 
Q 206 2891 206 3481 
Q 206 4072 539 4411 
Q 872 4750 1453 4750 
z
M 1453 4225 
Q 1228 4225 1106 4031 
Q 984 3838 984 3481 
Q 984 3122 1106 2926 
Q 1228 2731 1453 2731 
Q 1678 2731 1798 2926 
Q 1919 3122 1919 3481 
Q 1919 3838 1797 4031 
Q 1675 4225 1453 4225 
z
" transform="scale(0.015625)"/>
      <path id="NotoNaskhArabic-Bold-1c1" d="M 0 58 
Q -51 58 -51 109 
L -51 762 
Q -51 813 0 813 
Q 282 813 672 960 
Q 646 1146 624 1334 
Q 602 1523 570 1709 
Q 544 1894 441 2448 
Q 339 3002 173 3930 
Q 339 4045 534 4147 
Q 730 4250 934 4352 
Q 947 3827 960 3356 
Q 973 2886 986 2477 
Q 998 2067 1004 1718 
Q 1011 1370 1011 1069 
Q 1011 634 762 256 
Q 698 166 490 112 
Q 282 58 0 58 
z
" transform="scale(0.015625)"/>
      <path id="NotoNaskhArabic-Bold-175" d="M 0 58 
Q -51 58 -51 109 
L -51 762 
Q -51 813 0 813 
Q 832 813 1293 870 
Q 1741 922 1952 1030 
Q 1882 1178 1728 1347 
Q 1574 1517 1363 1683 
Q 1242 1773 1085 1875 
Q 928 1978 723 2099 
Q 64 2470 64 2778 
Q 64 2906 121 3030 
Q 179 3155 269 3238 
Q 314 3277 515 3376 
Q 717 3475 1008 3606 
Q 1299 3738 1622 3878 
Q 1946 4019 2243 4144 
Q 2541 4269 2746 4352 
Q 2880 4230 2880 4032 
Q 2880 3872 2781 3728 
Q 2682 3584 2534 3514 
Q 2291 3392 2038 3283 
Q 1786 3174 1440 3049 
Q 1094 2925 563 2739 
Q 1011 2630 1401 2371 
Q 1792 2112 2029 1773 
Q 2278 1421 2278 1107 
Q 2278 1050 2272 1037 
Q 2630 813 3046 813 
Q 3104 813 3104 762 
L 3104 109 
Q 3104 58 3046 58 
Q 2470 58 2016 531 
Q 1901 429 1702 326 
Q 1126 58 0 58 
z
" transform="scale(0.015625)"/>
      <path id="NotoNaskhArabic-Bold-1be" d="M 1606 -1613 
Q 1030 -1613 729 -1277 
Q 429 -941 429 -301 
Q 429 -134 470 96 
Q 512 326 589 627 
L 870 557 
Q 787 282 787 45 
Q 787 -858 1619 -858 
Q 1984 -858 2262 -794 
Q 2541 -730 2784 -576 
Q 2970 -467 3155 -288 
L 3014 461 
Q 2989 608 2915 1014 
Q 2842 1421 2726 2086 
Q 2694 2291 2652 2537 
Q 2611 2784 2569 3024 
Q 2528 3264 2499 3446 
Q 2470 3629 2470 3699 
Q 2470 3968 2675 4160 
Q 2880 4352 3162 4352 
Q 3219 4134 3283 3939 
Q 3347 3744 3418 3565 
L 3213 3411 
Q 3270 2810 3331 2198 
Q 3392 1587 3450 973 
Q 3718 813 4000 813 
Q 4058 813 4058 762 
L 4058 109 
Q 4058 58 4000 58 
Q 3878 58 3760 86 
Q 3642 115 3507 192 
L 3514 -45 
Q 3514 -474 3258 -838 
Q 3002 -1203 2566 -1408 
Q 2349 -1510 2109 -1561 
Q 1869 -1613 1606 -1613 
z
" transform="scale(0.015625)"/>
      <path id="NotoNaskhArabic-Bold-215" d="M 3302 58 
Q 2912 58 2675 182 
Q 2438 307 2393 531 
L 2336 768 
L 2080 243 
Q 1881 262 1711 288 
Q 1542 314 1395 365 
Q 1235 422 1075 518 
Q 915 614 806 716 
Q 697 819 697 890 
Q 697 941 738 1078 
Q 780 1216 838 1369 
Q 896 1523 940 1600 
Q 998 1728 1184 1882 
Q 1363 2042 1593 2192 
Q 1824 2342 1984 2413 
L 1952 2669 
Q 2118 2797 2223 2873 
Q 2329 2950 2418 3011 
Q 2508 3072 2617 3136 
L 2617 986 
Q 2924 813 3302 813 
Q 3353 813 3353 762 
L 3353 109 
Q 3353 58 3302 58 
z
M 2272 1005 
Q 2233 1158 2188 1366 
Q 2144 1574 2086 1837 
Q 1491 1638 1152 1318 
Q 1356 1178 1542 1123 
Q 1728 1069 1894 1043 
Q 2067 1011 2272 1005 
z
M 2138 3257 
Q 2003 3366 1894 3462 
Q 1786 3558 1696 3654 
Q 1933 3872 2125 4102 
Q 2182 4038 2284 3942 
Q 2387 3846 2528 3705 
Q 2355 3469 2138 3257 
z
M 1280 3161 
Q 1005 3385 838 3565 
Q 947 3673 1056 3785 
Q 1165 3897 1274 4006 
Q 1389 3872 1670 3609 
Q 1510 3379 1280 3161 
z
" transform="scale(0.015625)"/>
      <path id="DejaVuSans-Bold-c" d="M 513 -844 
Q 913 -100 1113 609 
Q 1313 1319 1313 2009 
Q 1313 2700 1113 3408 
Q 913 4116 513 4856 
L 1441 4856 
Q 1916 4091 2145 3389 
Q 2375 2688 2375 2003 
Q 2375 1319 2147 623 
Q 1919 -72 1441 -844 
L 513 -844 
z
" transform="scale(0.015625)"/>
     </defs>
     <use xlink:href="#DejaVuSans-Bold-b"/>
     <use xlink:href="#NotoNaskhArabic-Bold-1e5" transform="translate(45.703125 0)"/>
     <use xlink:href="#NotoNaskhArabic-Bold-a3" transform="translate(93 0)"/>
     <use xlink:href="#NotoNaskhArabic-Bold-4" transform="translate(158.703125 0)"/>
     <use xlink:href="#NotoNaskhArabic-Bold-126" transform="translate(187.5 0)"/>
     <use xlink:href="#NotoNaskhArabic-Bold-d4" transform="translate(256.796875 0)"/>
     <use xlink:href="#NotoNaskhArabic-Bold-214" transform="translate(296.296875 0)"/>
     <use xlink:href="#NotoNaskhArabic-Bold-554" transform="translate(338.796875 0)"/>
     <use xlink:href="#NotoNaskhArabic-Bold-4cd" transform="translate(360.890625 0)"/>
     <use xlink:href="#DejaVuSans-Bold-8" transform="translate(418.09375 0)"/>
     <use xlink:href="#NotoNaskhArabic-Bold-554" transform="translate(518.296875 0)"/>
     <use xlink:href="#NotoNaskhArabic-Bold-1c1" transform="translate(540.390625 0)"/>
     <use xlink:href="#NotoNaskhArabic-Bold-175" transform="translate(562.09375 0)"/>
     <use xlink:href="#NotoNaskhArabic-Bold-1be" transform="translate(608.796875 0)"/>
     <use xlink:href="#NotoNaskhArabic-Bold-554" transform="translate(670.5 0)"/>
     <use xlink:href="#NotoNaskhArabic-Bold-112" transform="translate(692.59375 0)"/>
     <use xlink:href="#NotoNaskhArabic-Bold-145" transform="translate(772.09375 0)"/>
     <use xlink:href="#NotoNaskhArabic-Bold-169" transform="translate(813.296875 0)"/>
     <use xlink:href="#NotoNaskhArabic-Bold-215" transform="translate(854.5 0)"/>
     <use xlink:href="#DejaVuSans-Bold-c" transform="translate(905.203125 0)"/>
    </g>
   </g>
   <g id="patch_6">
    <path d="M 539.815125 40.4732 
Q 566.643868 49.210314 592.40953 57.601223 
" style="fill: none; stroke: #1f8a56; stroke-linecap: round"/>
    <path d="M 589.543855 54.774934 
L 592.40953 57.601223 
L 588.429094 58.19799 
" style="fill: none; stroke: #1f8a56; stroke-linecap: round"/>
   </g>
   <g id="text_14">
    <!-- ​ﻊﻔﺗﺮﻣ ﺓﺮﻃﺎﺨﻣ ﺪﺋﺎﻌﺑ ﺔﺤﺑﺍﺭ ﺔﻘﻔﺻ -->
    <g style="fill: #1f8a56" transform="translate(431.352435 16.821) scale(0.09 -0.09)">
     <defs>
      <path id="NotoNaskhArabic-Bold-d3" d="M 653 -1248 
Q 544 -1248 304 -1107 
Q 64 -966 -218 -730 
L -115 -461 
Q 243 -550 531 -550 
Q 1005 -550 1331 -313 
Q 1658 -77 1805 371 
Q 1760 467 1705 566 
Q 1651 666 1587 762 
Q 1402 1050 1254 1312 
Q 1107 1574 1107 1779 
Q 1107 1965 1254 2147 
Q 1402 2330 1638 2451 
Q 1677 2317 1731 2137 
Q 1786 1958 1846 1782 
Q 1907 1606 1952 1472 
Q 2035 1235 2089 1004 
Q 2144 774 2144 570 
Q 2144 70 1952 -349 
Q 1760 -768 1421 -1011 
Q 1082 -1248 653 -1248 
z
" transform="scale(0.015625)"/>
      <path id="NotoNaskhArabic-Bold-3" d="M 774 58 
Q 742 717 710 1216 
Q 678 1715 646 2134 
Q 614 2554 576 2950 
Q 538 3347 493 3808 
Q 474 3968 566 4089 
Q 659 4211 822 4281 
Q 986 4352 1178 4352 
Q 1229 4154 1296 3955 
Q 1363 3757 1440 3565 
L 1216 3398 
Q 1229 2867 1222 2035 
Q 1216 1203 1184 109 
L 774 58 
z
" transform="scale(0.015625)"/>
      <path id="NotoNaskhArabic-Bold-26" d="M 0 58 
Q -51 58 -51 109 
L -51 762 
Q -51 813 0 813 
Q 320 813 640 867 
Q 960 922 1139 998 
Q 1075 1146 976 1328 
Q 877 1510 819 1613 
Q 755 1734 710 1833 
Q 666 1933 666 2016 
Q 666 2176 838 2361 
Q 1011 2547 1248 2669 
Q 1293 2470 1347 2217 
Q 1402 1965 1446 1702 
Q 1485 1504 1501 1376 
Q 1517 1248 1517 1184 
Q 1517 1037 1443 822 
Q 1370 608 1267 410 
Q 685 58 0 58 
z
M 916 -1427 
Q 743 -1286 621 -1171 
Q 500 -1056 416 -966 
Q 544 -838 666 -713 
Q 788 -589 903 -454 
Q 1069 -646 1364 -915 
Q 1293 -1017 1178 -1148 
Q 1063 -1280 916 -1427 
z
" transform="scale(0.015625)"/>
      <path id="NotoNaskhArabic-Bold-8b" d="M 0 58 
Q -51 58 -51 109 
L -51 762 
Q -51 813 0 813 
Q 467 813 793 829 
Q 1120 845 1427 934 
Q 1702 1018 1897 1069 
Q 2093 1120 2202 1146 
Q 2118 1197 2032 1251 
Q 1946 1306 1856 1363 
Q 1651 1498 1513 1555 
Q 1376 1613 1235 1613 
Q 1043 1613 870 1558 
Q 698 1504 480 1363 
Q 422 1421 377 1533 
Q 333 1645 333 1747 
Q 333 2029 582 2205 
Q 832 2381 1210 2381 
Q 1414 2381 1603 2310 
Q 1792 2240 2029 2080 
Q 2317 1882 2560 1763 
Q 2803 1645 3136 1555 
Q 3302 1517 3500 1494 
Q 3699 1472 3936 1472 
L 3654 934 
Q 3578 941 3501 941 
Q 3424 941 3347 947 
Q 3411 890 3488 867 
Q 3565 845 3661 832 
Q 3808 826 3965 822 
Q 4122 819 4262 813 
Q 4314 813 4314 762 
L 4314 109 
Q 4314 58 4262 58 
Q 4032 58 3782 80 
Q 3533 102 3325 150 
Q 3117 198 3021 262 
Q 2893 358 2838 537 
Q 2784 717 2746 877 
Q 2624 851 2525 803 
Q 2426 755 2304 675 
Q 2182 595 1990 467 
Q 1683 262 1395 176 
Q 1107 90 774 74 
Q 442 58 0 58 
z
" transform="scale(0.015625)"/>
      <path id="NotoNaskhArabic-Bold-135" d="M 6 58 
Q -51 58 -51 115 
L -51 755 
Q -51 813 6 813 
Q 346 813 627 822 
Q 909 832 1126 870 
L 998 1030 
Q 909 1152 835 1235 
Q 762 1318 691 1382 
Q 640 1434 589 1478 
Q 538 1523 486 1568 
L 371 1485 
Q 198 1670 198 1894 
Q 198 2112 390 2272 
Q 582 2432 915 2554 
Q 1242 2669 1549 2669 
Q 1830 2669 2080 2547 
Q 2330 2426 2470 2208 
Q 2618 1990 2618 1760 
Q 2618 1530 2490 1306 
Q 2362 1082 2118 858 
Q 2291 832 2486 822 
Q 2682 813 2912 813 
Q 2976 813 2976 755 
L 2976 115 
Q 2976 58 2912 58 
Q 2464 58 2105 160 
Q 1747 262 1530 448 
Q 845 58 6 58 
z
M 1626 1062 
Q 1978 1293 1978 1613 
Q 1978 1773 1862 1865 
Q 1747 1958 1574 1958 
Q 1408 1958 1257 1926 
Q 1107 1894 902 1805 
Q 973 1741 1117 1603 
Q 1261 1466 1459 1248 
Q 1498 1203 1539 1158 
Q 1581 1114 1626 1062 
z
" transform="scale(0.015625)"/>
      <path id="NotoNaskhArabic-Bold-245" d="M 0 58 
Q -51 58 -51 109 
L -51 762 
Q -51 813 0 813 
Q 320 813 640 867 
Q 960 922 1139 998 
Q 1075 1146 976 1328 
Q 877 1510 819 1613 
Q 755 1734 710 1833 
Q 666 1933 666 2016 
Q 666 2176 838 2361 
Q 1011 2547 1248 2669 
Q 1293 2470 1347 2217 
Q 1402 1965 1446 1702 
Q 1485 1504 1501 1376 
Q 1517 1248 1517 1184 
Q 1517 1037 1443 822 
Q 1370 608 1267 410 
Q 685 58 0 58 
z
M 401 2912 
L 378 3235 
L 654 3396 
Q 409 3488 409 3696 
Q 409 3834 493 3972 
Q 577 4110 704 4206 
Q 831 4302 947 4302 
Q 1230 4302 1230 3956 
Q 1230 3841 1200 3780 
L 1046 3802 
L 1046 3826 
Q 1046 3895 954 3895 
Q 785 3895 685 3703 
Q 823 3565 1069 3565 
Q 1130 3565 1207 3572 
Q 1284 3580 1369 3596 
L 1338 3258 
Q 1062 3196 873 3131 
Q 685 3066 401 2912 
z
" transform="scale(0.015625)"/>
      <path id="NotoNaskhArabic-Bold-b6" d="M 1075 0 
Q 218 0 218 499 
Q 218 634 272 784 
Q 326 934 410 1018 
Q 570 890 774 826 
Q 979 762 1280 762 
Q 1466 762 1658 784 
Q 1850 806 2048 851 
Q 1798 1286 1648 1673 
Q 1498 2061 1498 2246 
Q 1498 2477 1613 2646 
Q 1728 2816 1946 2880 
Q 2074 2362 2208 1955 
Q 2342 1549 2490 1248 
Q 2611 1005 2758 909 
Q 2906 813 3162 813 
Q 3213 813 3213 762 
L 3213 109 
Q 3213 58 3162 58 
Q 2707 58 2413 352 
Q 1709 0 1075 0 
z
" transform="scale(0.015625)"/>
      <path id="NotoNaskhArabic-Bold-38" d="M 0 58 
Q -51 58 -51 109 
L -51 762 
Q -51 813 0 813 
Q 320 813 640 867 
Q 960 922 1139 998 
Q 1075 1146 976 1328 
Q 877 1510 819 1613 
Q 755 1734 710 1833 
Q 666 1933 666 2016 
Q 666 2176 838 2361 
Q 1011 2547 1248 2669 
Q 1293 2470 1347 2217 
Q 1402 1965 1446 1702 
Q 1485 1504 1501 1376 
Q 1517 1248 1517 1184 
Q 1517 1037 1443 822 
Q 1370 608 1267 410 
Q 685 58 0 58 
z
M 1332 3020 
Q 1197 3129 1088 3225 
Q 980 3321 890 3417 
Q 1127 3635 1319 3865 
Q 1376 3801 1478 3705 
Q 1581 3609 1722 3468 
Q 1549 3232 1332 3020 
z
M 474 2924 
Q 199 3148 32 3328 
Q 141 3436 250 3548 
Q 359 3660 468 3769 
Q 583 3635 864 3372 
Q 704 3142 474 2924 
z
" transform="scale(0.015625)"/>
      <path id="NotoNaskhArabic-Bold-134" d="M 2349 -1926 
Q 1856 -1926 1478 -1760 
Q 1101 -1594 896 -1293 
Q 691 -979 691 -589 
Q 691 -198 867 134 
Q 1043 467 1434 781 
Q 1427 794 1395 835 
Q 1363 877 1331 922 
Q 1261 1011 1158 1136 
Q 1056 1261 947 1370 
Q 890 1421 835 1472 
Q 781 1523 730 1568 
L 608 1485 
Q 442 1670 442 1894 
Q 442 2112 630 2272 
Q 819 2432 1152 2547 
Q 1478 2669 1792 2669 
Q 2080 2669 2320 2544 
Q 2560 2419 2707 2214 
Q 2854 2010 2854 1760 
Q 2854 1293 2323 858 
Q 2598 813 3091 813 
Q 3162 813 3162 755 
L 3162 115 
Q 3162 58 3091 58 
Q 2662 58 2329 154 
Q 1997 250 1728 474 
Q 1024 26 1024 -461 
Q 1024 -813 1357 -1001 
Q 1690 -1190 2323 -1190 
Q 2822 -1190 3590 -1018 
L 3674 -1293 
Q 3283 -1523 3030 -1664 
Q 2778 -1805 2618 -1865 
Q 2458 -1926 2349 -1926 
z
M 1850 1082 
Q 2067 1242 2150 1382 
Q 2214 1491 2214 1613 
Q 2214 1779 2096 1868 
Q 1978 1958 1811 1958 
Q 1651 1958 1497 1926 
Q 1344 1894 1139 1805 
Q 1184 1766 1229 1728 
Q 1274 1690 1325 1638 
Q 1408 1562 1497 1462 
Q 1587 1363 1690 1248 
L 1850 1082 
z
" transform="scale(0.015625)"/>
     </defs>
     <use xlink:href="#NotoNaskhArabic-Bold-112"/>
     <use xlink:href="#NotoNaskhArabic-Bold-145" transform="translate(79.5 0)"/>
     <use xlink:href="#NotoNaskhArabic-Bold-169" transform="translate(120.703125 0)"/>
     <use xlink:href="#NotoNaskhArabic-Bold-215" transform="translate(161.90625 0)"/>
     <use xlink:href="#NotoNaskhArabic-Bold-554" transform="translate(212.609375 0)"/>
     <use xlink:href="#NotoNaskhArabic-Bold-d3" transform="translate(234.703125 0)"/>
     <use xlink:href="#NotoNaskhArabic-Bold-3" transform="translate(272.40625 0)"/>
     <use xlink:href="#NotoNaskhArabic-Bold-26" transform="translate(300.8125 0)"/>
     <use xlink:href="#NotoNaskhArabic-Bold-8b" transform="translate(328.3125 0)"/>
     <use xlink:href="#NotoNaskhArabic-Bold-215" transform="translate(394.015625 0)"/>
     <use xlink:href="#NotoNaskhArabic-Bold-554" transform="translate(444.71875 0)"/>
     <use xlink:href="#NotoNaskhArabic-Bold-26" transform="translate(466.8125 0)"/>
     <use xlink:href="#NotoNaskhArabic-Bold-135" transform="translate(494.3125 0)"/>
     <use xlink:href="#NotoNaskhArabic-Bold-4" transform="translate(539.109375 0)"/>
     <use xlink:href="#NotoNaskhArabic-Bold-245" transform="translate(567.90625 0)"/>
     <use xlink:href="#NotoNaskhArabic-Bold-b6" transform="translate(596.703125 0)"/>
     <use xlink:href="#NotoNaskhArabic-Bold-554" transform="translate(645.203125 0)"/>
     <use xlink:href="#NotoNaskhArabic-Bold-1e5" transform="translate(667.296875 0)"/>
     <use xlink:href="#NotoNaskhArabic-Bold-a3" transform="translate(714.59375 0)"/>
     <use xlink:href="#NotoNaskhArabic-Bold-4" transform="translate(780.296875 0)"/>
     <use xlink:href="#NotoNaskhArabic-Bold-126" transform="translate(809.09375 0)"/>
     <use xlink:href="#NotoNaskhArabic-Bold-d4" transform="translate(878.390625 0)"/>
     <use xlink:href="#NotoNaskhArabic-Bold-214" transform="translate(917.890625 0)"/>
     <use xlink:href="#NotoNaskhArabic-Bold-554" transform="translate(960.390625 0)"/>
     <use xlink:href="#NotoNaskhArabic-Bold-1e5" transform="translate(982.484375 0)"/>
     <use xlink:href="#NotoNaskhArabic-Bold-d4" transform="translate(1029.78125 0)"/>
     <use xlink:href="#NotoNaskhArabic-Bold-38" transform="translate(1069.28125 0)"/>
     <use xlink:href="#NotoNaskhArabic-Bold-145" transform="translate(1096.78125 0)"/>
     <use xlink:href="#NotoNaskhArabic-Bold-134" transform="translate(1137.984375 0)"/>
     <use xlink:href="#NotoNaskhArabic-Bold-554" transform="translate(1185.6875 0)"/>
    </g>
    <!-- ﻊﺟﺍﺮﺘﻟﺍ ﺽﻮﻌﺗ -->
    <g style="fill: #1f8a56" transform="translate(431.352435 32.148) scale(0.09 -0.09)">
     <defs>
      <path id="NotoNaskhArabic-Bold-219" d="M 1248 -1248 
Q 1171 -1248 1011 -1174 
Q 851 -1101 668 -982 
Q 486 -864 326 -730 
L 429 -461 
Q 602 -506 778 -528 
Q 954 -550 1133 -550 
Q 1536 -550 1862 -380 
Q 2189 -211 2368 64 
Q 2093 83 1894 102 
Q 1696 122 1574 147 
Q 838 307 838 1018 
Q 838 1370 972 1712 
Q 1107 2054 1325 2266 
Q 1549 2477 1766 2477 
Q 2029 2477 2262 2240 
Q 2496 2003 2650 1626 
Q 2720 1446 2768 1241 
Q 2816 1037 2835 813 
L 3181 813 
Q 3232 813 3232 762 
L 3232 109 
Q 3232 58 3181 58 
L 2784 58 
Q 2669 -365 2419 -669 
Q 2170 -973 1843 -1120 
Q 1555 -1248 1248 -1248 
z
M 2419 819 
Q 2285 1254 2077 1484 
Q 1869 1715 1626 1715 
Q 1504 1715 1401 1651 
Q 1299 1587 1235 1498 
Q 1178 1402 1178 1293 
Q 1178 941 1805 858 
Q 1952 838 2419 819 
z
" transform="scale(0.015625)"/>
      <path id="NotoNaskhArabic-Bold-11b" d="M 1606 -1613 
Q 1037 -1613 736 -1277 
Q 435 -941 435 -301 
Q 435 32 595 627 
L 877 557 
Q 787 256 787 45 
Q 787 -858 1626 -858 
Q 2131 -858 2486 -726 
Q 2842 -595 3181 -288 
Q 2957 134 2797 438 
Q 2637 742 2637 922 
Q 2637 1408 3283 1728 
Q 3283 1722 3318 1498 
Q 3354 1274 3418 922 
L 3590 864 
Q 4864 2560 5619 2560 
Q 5779 2560 5968 2470 
Q 6157 2381 6345 2233 
Q 6534 2086 6688 1901 
Q 6918 1632 6918 1446 
Q 6918 1030 6649 704 
Q 6381 378 5850 192 
Q 5312 0 4742 0 
Q 4448 0 4147 38 
Q 3846 77 3526 147 
Q 3526 102 3529 54 
Q 3533 6 3533 -45 
Q 3533 -474 3277 -838 
Q 3021 -1203 2579 -1408 
Q 2362 -1510 2115 -1561 
Q 1869 -1613 1606 -1613 
z
M 4806 704 
Q 5267 704 5670 813 
Q 6074 922 6541 1146 
Q 5978 1805 5466 1805 
Q 5242 1805 4982 1648 
Q 4723 1491 4473 1254 
Q 4224 1018 4006 768 
Q 4243 742 4444 723 
Q 4646 704 4806 704 
z
M 4780 3001 
Q 4454 3270 4288 3462 
Q 4435 3609 4553 3734 
Q 4672 3859 4768 3974 
Q 4838 3897 4953 3782 
Q 5068 3667 5228 3513 
Q 5152 3405 5040 3277 
Q 4928 3149 4780 3001 
z
" transform="scale(0.015625)"/>
      <path id="NotoNaskhArabic-Bold-37" d="M 0 58 
Q -51 58 -51 109 
L -51 762 
Q -51 813 0 813 
Q 307 813 566 829 
Q 826 845 992 928 
Q 1120 992 1187 1104 
Q 1254 1216 1357 1421 
Q 1459 1632 1536 1680 
Q 1613 1728 1715 1728 
Q 1869 1728 1971 1638 
Q 1888 1427 1814 1264 
Q 1741 1101 1690 979 
Q 2003 813 2362 813 
Q 2413 813 2413 762 
L 2413 109 
Q 2413 58 2362 58 
Q 1875 58 1434 499 
L 1382 416 
Q 1203 179 883 118 
Q 563 58 0 58 
z
M 1664 2252 
Q 1529 2361 1420 2457 
Q 1312 2553 1222 2649 
Q 1459 2867 1651 3097 
Q 1708 3033 1810 2937 
Q 1913 2841 2054 2700 
Q 1881 2464 1664 2252 
z
M 806 2156 
Q 531 2380 364 2560 
Q 473 2668 582 2780 
Q 691 2892 800 3001 
Q 915 2867 1196 2604 
Q 1036 2374 806 2156 
z
" transform="scale(0.015625)"/>
      <path id="NotoNaskhArabic-Bold-74" d="M 0 58 
Q -51 58 -51 109 
L -51 762 
Q -51 813 0 813 
Q 467 813 793 829 
Q 1120 845 1427 934 
Q 1702 1018 1897 1069 
Q 2093 1120 2202 1146 
Q 2112 1197 2025 1251 
Q 1939 1306 1856 1363 
Q 1651 1504 1513 1558 
Q 1376 1613 1235 1613 
Q 1043 1613 870 1558 
Q 698 1504 480 1363 
Q 422 1421 377 1533 
Q 333 1645 333 1747 
Q 333 2029 582 2205 
Q 832 2381 1210 2381 
Q 1414 2381 1603 2310 
Q 1792 2240 2029 2080 
Q 2317 1882 2560 1763 
Q 2803 1645 3136 1555 
Q 3302 1517 3500 1494 
Q 3699 1472 3936 1472 
L 3603 794 
Q 3405 813 3273 825 
Q 3142 838 2963 826 
Q 2739 806 2483 704 
Q 2227 602 1990 467 
Q 1741 320 1533 237 
Q 1325 154 1107 115 
Q 890 77 624 67 
Q 358 58 0 58 
z
M 2272 -1107 
Q 2099 -966 1977 -851 
Q 1856 -736 1772 -646 
Q 1900 -518 2022 -393 
Q 2144 -269 2259 -134 
Q 2425 -326 2720 -595 
Q 2649 -697 2534 -828 
Q 2419 -960 2272 -1107 
z
" transform="scale(0.015625)"/>
     </defs>
     <use xlink:href="#NotoNaskhArabic-Bold-38"/>
     <use xlink:href="#NotoNaskhArabic-Bold-135" transform="translate(27.5 0)"/>
     <use xlink:href="#NotoNaskhArabic-Bold-219" transform="translate(72.296875 0)"/>
     <use xlink:href="#NotoNaskhArabic-Bold-11b" transform="translate(121.09375 0)"/>
     <use xlink:href="#NotoNaskhArabic-Bold-554" transform="translate(234.1875 0)"/>
     <use xlink:href="#NotoNaskhArabic-Bold-3" transform="translate(256.28125 0)"/>
     <use xlink:href="#NotoNaskhArabic-Bold-1c1" transform="translate(284.6875 0)"/>
     <use xlink:href="#NotoNaskhArabic-Bold-37" transform="translate(306.390625 0)"/>
     <use xlink:href="#NotoNaskhArabic-Bold-d4" transform="translate(342.390625 0)"/>
     <use xlink:href="#NotoNaskhArabic-Bold-3" transform="translate(381.890625 0)"/>
     <use xlink:href="#NotoNaskhArabic-Bold-74" transform="translate(410.296875 0)"/>
     <use xlink:href="#NotoNaskhArabic-Bold-134" transform="translate(475.203125 0)"/>
    </g>
   </g>
  </g>
 </g>
 <defs>
  <clipPath id="p247e9f4ce2">
   <rect x="54.100484" y="52.490609" width="567.049516" height="133.68"/>
  </clipPath>
 </defs>
</svg>
