<?xml version="1.0" encoding="utf-8" standalone="no"?>
<!DOCTYPE svg PUBLIC "-//W3C//DTD SVG 1.1//EN"
  "http://www.w3.org/Graphics/SVG/1.1/DTD/svg11.dtd">
<svg xmlns:xlink="http://www.w3.org/1999/xlink" width="628.35pt" height="340.35pt" viewBox="0 0 628.35 340.35" xmlns="http://www.w3.org/2000/svg" version="1.1">
 <metadata>
  <rdf:RDF xmlns:dc="http://purl.org/dc/elements/1.1/" xmlns:cc="http://creativecommons.org/ns#" xmlns:rdf="http://www.w3.org/1999/02/22-rdf-syntax-ns#">
   <cc:Work>
    <dc:type rdf:resource="http://purl.org/dc/dcmitype/StillImage"/>
    <dc:date>2026-07-18T19:30:38.604793</dc:date>
    <dc:format>image/svg+xml</dc:format>
    <dc:creator>
     <cc:Agent>
      <dc:title>Matplotlib v3.11.1, https://matplotlib.org/</dc:title>
     </cc:Agent>
    </dc:creator>
   </cc:Work>
  </rdf:RDF>
 </metadata>
 <defs>
  <style type="text/css">*{stroke-linejoin: round; stroke-linecap: butt}</style>
 </defs>
 <g id="figure_1">
  <g id="patch_1">
   <path d="M 0 340.35 
L 628.35 340.35 
L 628.35 0 
L 0 0 
z
" style="fill: #ffffff"/>
  </g>
  <g id="axes_1">
   <g id="patch_2">
    <path d="M 62.260312 315.149219 
L 621.15 315.149219 
L 621.15 7.2 
L 62.260312 7.2 
z
" style="fill: #ffffff"/>
   </g>
   <g id="matplotlib.axis_1">
    <g id="text_1">
     <!-- Time → -->
     <g style="fill: #1f2937" transform="translate(323.690313 330.747656) scale(0.1 -0.1)">
      <defs>
       <path id="DejaVuSans-37" d="M -19 4666 
L 3928 4666 
L 3928 4134 
L 2272 4134 
L 2272 0 
L 1638 0 
L 1638 4134 
L -19 4134 
L -19 4666 
z
" transform="scale(0.015625)"/>
       <path id="DejaVuSans-4c" d="M 603 3500 
L 1178 3500 
L 1178 0 
L 603 0 
L 603 3500 
z
M 603 4863 
L 1178 4863 
L 1178 4134 
L 603 4134 
L 603 4863 
z
" transform="scale(0.015625)"/>
       <path id="DejaVuSans-50" d="M 3328 2828 
Q 3544 3216 3844 3400 
Q 4144 3584 4550 3584 
Q 5097 3584 5394 3201 
Q 5691 2819 5691 2113 
L 5691 0 
L 5113 0 
L 5113 2094 
Q 5113 2597 4934 2840 
Q 4756 3084 4391 3084 
Q 3944 3084 3684 2787 
Q 3425 2491 3425 1978 
L 3425 0 
L 2847 0 
L 2847 2094 
Q 2847 2600 2669 2842 
Q 2491 3084 2119 3084 
Q 1678 3084 1418 2786 
Q 1159 2488 1159 1978 
L 1159 0 
L 581 0 
L 581 3500 
L 1159 3500 
L 1159 2956 
Q 1356 3278 1631 3431 
Q 1906 3584 2284 3584 
Q 2666 3584 2933 3390 
Q 3200 3197 3328 2828 
z
" transform="scale(0.015625)"/>
       <path id="DejaVuSans-48" d="M 3597 1894 
L 3597 1613 
L 953 1613 
Q 991 1019 1311 708 
Q 1631 397 2203 397 
Q 2534 397 2845 478 
Q 3156 559 3463 722 
L 3463 178 
Q 3153 47 2828 -22 
Q 2503 -91 2169 -91 
Q 1331 -91 842 396 
Q 353 884 353 1716 
Q 353 2575 817 3079 
Q 1281 3584 2069 3584 
Q 2775 3584 3186 3129 
Q 3597 2675 3597 1894 
z
M 3022 2063 
Q 3016 2534 2758 2815 
Q 2500 3097 2075 3097 
Q 1594 3097 1305 2825 
Q 1016 2553 972 2059 
L 3022 2063 
z
" transform="scale(0.015625)"/>
       <path id="DejaVuSans-3" transform="scale(0.015625)"/>
       <path id="DejaVuSans-c1c" d="M 5050 2147 
L 5050 1866 
L 3822 638 
L 3447 1013 
L 4175 1741 
L 366 1741 
L 366 2272 
L 4175 2272 
L 3447 3000 
L 3822 3375 
L 5050 2147 
z
" transform="scale(0.015625)"/>
      </defs>
      <use xlink:href="#DejaVuSans-37"/>
      <use xlink:href="#DejaVuSans-4c" transform="translate(58 0)"/>
      <use xlink:href="#DejaVuSans-50" transform="translate(85.78125 0)"/>
      <use xlink:href="#DejaVuSans-48" transform="translate(183.1875 0)"/>
      <use xlink:href="#DejaVuSans-3" transform="translate(244.71875 0)"/>
      <use xlink:href="#DejaVuSans-c1c" transform="translate(276.5 0)"/>
     </g>
    </g>
   </g>
   <g id="matplotlib.axis_2">
    <g id="ytick_1">
     <g id="line2d_1">
      <path d="M 62.260312 307.638614 
L 621.15 307.638614 
" clip-path="url(#pb41a5927ef)" style="fill: none; stroke: #e6e1d6; stroke-width: 0.8; stroke-linecap: square"/>
     </g>
     <g id="line2d_2">
      <defs>
       <path id="ma5c8a67b24" d="M 0 0 
L -3.5 0 
" style="stroke: #555555; stroke-width: 0.8"/>
      </defs>
      <g>
       <use xlink:href="#ma5c8a67b24" x="62.260312" y="307.638614" style="fill: #555555; stroke: #555555; stroke-width: 0.8"/>
      </g>
     </g>
     <g id="text_2">
      <!-- 97.5 -->
      <g style="fill: #555555" transform="translate(31.881406 311.627383) scale(0.105 -0.105)">
       <defs>
        <path id="DejaVuSans-1c" d="M 703 97 
L 703 672 
Q 941 559 1184 500 
Q 1428 441 1663 441 
Q 2288 441 2617 861 
Q 2947 1281 2994 2138 
Q 2813 1869 2534 1725 
Q 2256 1581 1919 1581 
Q 1219 1581 811 2004 
Q 403 2428 403 3163 
Q 403 3881 828 4315 
Q 1253 4750 1959 4750 
Q 2769 4750 3195 4129 
Q 3622 3509 3622 2328 
Q 3622 1225 3098 567 
Q 2575 -91 1691 -91 
Q 1453 -91 1209 -44 
Q 966 3 703 97 
z
M 1959 2075 
Q 2384 2075 2632 2365 
Q 2881 2656 2881 3163 
Q 2881 3666 2632 3958 
Q 2384 4250 1959 4250 
Q 1534 4250 1286 3958 
Q 1038 3666 1038 3163 
Q 1038 2656 1286 2365 
Q 1534 2075 1959 2075 
z
" transform="scale(0.015625)"/>
        <path id="DejaVuSans-1a" d="M 525 4666 
L 3525 4666 
L 3525 4397 
L 1831 0 
L 1172 0 
L 2766 4134 
L 525 4134 
L 525 4666 
z
" transform="scale(0.015625)"/>
        <path id="DejaVuSans-11" d="M 684 794 
L 1344 794 
L 1344 0 
L 684 0 
L 684 794 
z
" transform="scale(0.015625)"/>
        <path id="DejaVuSans-18" d="M 691 4666 
L 3169 4666 
L 3169 4134 
L 1269 4134 
L 1269 2991 
Q 1406 3038 1543 3061 
Q 1681 3084 1819 3084 
Q 2600 3084 3056 2656 
Q 3513 2228 3513 1497 
Q 3513 744 3044 326 
Q 2575 -91 1722 -91 
Q 1428 -91 1123 -41 
Q 819 9 494 109 
L 494 744 
Q 775 591 1075 516 
Q 1375 441 1709 441 
Q 2250 441 2565 725 
Q 2881 1009 2881 1497 
Q 2881 1984 2565 2268 
Q 2250 2553 1709 2553 
Q 1456 2553 1204 2497 
Q 953 2441 691 2322 
L 691 4666 
z
" transform="scale(0.015625)"/>
       </defs>
       <use xlink:href="#DejaVuSans-1c"/>
       <use xlink:href="#DejaVuSans-1a" transform="translate(63.625 0)"/>
       <use xlink:href="#DejaVuSans-11" transform="translate(127.25 0)"/>
       <use xlink:href="#DejaVuSans-18" transform="translate(159.03125 0)"/>
      </g>
     </g>
    </g>
    <g id="ytick_2">
     <g id="line2d_3">
      <path d="M 62.260312 271.84872 
L 621.15 271.84872 
" clip-path="url(#pb41a5927ef)" style="fill: none; stroke: #e6e1d6; stroke-width: 0.8; stroke-linecap: square"/>
     </g>
     <g id="line2d_4">
      <g>
       <use xlink:href="#ma5c8a67b24" x="62.260312" y="271.84872" style="fill: #555555; stroke: #555555; stroke-width: 0.8"/>
      </g>
     </g>
     <g id="text_3">
      <!-- 100.0 -->
      <g style="fill: #555555" transform="translate(25.200781 275.83749) scale(0.105 -0.105)">
       <defs>
        <path id="DejaVuSans-14" d="M 794 531 
L 1825 531 
L 1825 4091 
L 703 3866 
L 703 4441 
L 1819 4666 
L 2450 4666 
L 2450 531 
L 3481 531 
L 3481 0 
L 794 0 
L 794 531 
z
" transform="scale(0.015625)"/>
        <path id="DejaVuSans-13" d="M 2034 4250 
Q 1547 4250 1301 3770 
Q 1056 3291 1056 2328 
Q 1056 1369 1301 889 
Q 1547 409 2034 409 
Q 2525 409 2770 889 
Q 3016 1369 3016 2328 
Q 3016 3291 2770 3770 
Q 2525 4250 2034 4250 
z
M 2034 4750 
Q 2819 4750 3233 4129 
Q 3647 3509 3647 2328 
Q 3647 1150 3233 529 
Q 2819 -91 2034 -91 
Q 1250 -91 836 529 
Q 422 1150 422 2328 
Q 422 3509 836 4129 
Q 1250 4750 2034 4750 
z
" transform="scale(0.015625)"/>
       </defs>
       <use xlink:href="#DejaVuSans-14"/>
       <use xlink:href="#DejaVuSans-13" transform="translate(63.625 0)"/>
       <use xlink:href="#DejaVuSans-13" transform="translate(127.25 0)"/>
       <use xlink:href="#DejaVuSans-11" transform="translate(190.875 0)"/>
       <use xlink:href="#DejaVuSans-13" transform="translate(222.65625 0)"/>
      </g>
     </g>
    </g>
    <g id="ytick_3">
     <g id="line2d_5">
      <path d="M 62.260312 236.058827 
L 621.15 236.058827 
" clip-path="url(#pb41a5927ef)" style="fill: none; stroke: #e6e1d6; stroke-width: 0.8; stroke-linecap: square"/>
     </g>
     <g id="line2d_6">
      <g>
       <use xlink:href="#ma5c8a67b24" x="62.260312" y="236.058827" style="fill: #555555; stroke: #555555; stroke-width: 0.8"/>
      </g>
     </g>
     <g id="text_4">
      <!-- 102.5 -->
      <g style="fill: #555555" transform="translate(25.200781 240.047596) scale(0.105 -0.105)">
       <defs>
        <path id="DejaVuSans-15" d="M 1228 531 
L 3431 531 
L 3431 0 
L 469 0 
L 469 531 
Q 828 903 1448 1529 
Q 2069 2156 2228 2338 
Q 2531 2678 2651 2914 
Q 2772 3150 2772 3378 
Q 2772 3750 2511 3984 
Q 2250 4219 1831 4219 
Q 1534 4219 1204 4116 
Q 875 4013 500 3803 
L 500 4441 
Q 881 4594 1212 4672 
Q 1544 4750 1819 4750 
Q 2544 4750 2975 4387 
Q 3406 4025 3406 3419 
Q 3406 3131 3298 2873 
Q 3191 2616 2906 2266 
Q 2828 2175 2409 1742 
Q 1991 1309 1228 531 
z
" transform="scale(0.015625)"/>
       </defs>
       <use xlink:href="#DejaVuSans-14"/>
       <use xlink:href="#DejaVuSans-13" transform="translate(63.625 0)"/>
       <use xlink:href="#DejaVuSans-15" transform="translate(127.25 0)"/>
       <use xlink:href="#DejaVuSans-11" transform="translate(190.875 0)"/>
       <use xlink:href="#DejaVuSans-18" transform="translate(222.65625 0)"/>
      </g>
     </g>
    </g>
    <g id="ytick_4">
     <g id="line2d_7">
      <path d="M 62.260312 200.268933 
L 621.15 200.268933 
" clip-path="url(#pb41a5927ef)" style="fill: none; stroke: #e6e1d6; stroke-width: 0.8; stroke-linecap: square"/>
     </g>
     <g id="line2d_8">
      <g>
       <use xlink:href="#ma5c8a67b24" x="62.260312" y="200.268933" style="fill: #555555; stroke: #555555; stroke-width: 0.8"/>
      </g>
     </g>
     <g id="text_5">
      <!-- 105.0 -->
      <g style="fill: #555555" transform="translate(25.200781 204.257703) scale(0.105 -0.105)">
       <use xlink:href="#DejaVuSans-14"/>
       <use xlink:href="#DejaVuSans-13" transform="translate(63.625 0)"/>
       <use xlink:href="#DejaVuSans-18" transform="translate(127.25 0)"/>
       <use xlink:href="#DejaVuSans-11" transform="translate(190.875 0)"/>
       <use xlink:href="#DejaVuSans-13" transform="translate(222.65625 0)"/>
      </g>
     </g>
    </g>
    <g id="ytick_5">
     <g id="line2d_9">
      <path d="M 62.260312 164.47904 
L 621.15 164.47904 
" clip-path="url(#pb41a5927ef)" style="fill: none; stroke: #e6e1d6; stroke-width: 0.8; stroke-linecap: square"/>
     </g>
     <g id="line2d_10">
      <g>
       <use xlink:href="#ma5c8a67b24" x="62.260312" y="164.47904" style="fill: #555555; stroke: #555555; stroke-width: 0.8"/>
      </g>
     </g>
     <g id="text_6">
      <!-- 107.5 -->
      <g style="fill: #555555" transform="translate(25.200781 168.467809) scale(0.105 -0.105)">
       <use xlink:href="#DejaVuSans-14"/>
       <use xlink:href="#DejaVuSans-13" transform="translate(63.625 0)"/>
       <use xlink:href="#DejaVuSans-1a" transform="translate(127.25 0)"/>
       <use xlink:href="#DejaVuSans-11" transform="translate(190.875 0)"/>
       <use xlink:href="#DejaVuSans-18" transform="translate(222.65625 0)"/>
      </g>
     </g>
    </g>
    <g id="ytick_6">
     <g id="line2d_11">
      <path d="M 62.260312 128.689146 
L 621.15 128.689146 
" clip-path="url(#pb41a5927ef)" style="fill: none; stroke: #e6e1d6; stroke-width: 0.8; stroke-linecap: square"/>
     </g>
     <g id="line2d_12">
      <g>
       <use xlink:href="#ma5c8a67b24" x="62.260312" y="128.689146" style="fill: #555555; stroke: #555555; stroke-width: 0.8"/>
      </g>
     </g>
     <g id="text_7">
      <!-- 110.0 -->
      <g style="fill: #555555" transform="translate(25.200781 132.677916) scale(0.105 -0.105)">
       <use xlink:href="#DejaVuSans-14"/>
       <use xlink:href="#DejaVuSans-14" transform="translate(63.625 0)"/>
       <use xlink:href="#DejaVuSans-13" transform="translate(127.25 0)"/>
       <use xlink:href="#DejaVuSans-11" transform="translate(190.875 0)"/>
       <use xlink:href="#DejaVuSans-13" transform="translate(222.65625 0)"/>
      </g>
     </g>
    </g>
    <g id="ytick_7">
     <g id="line2d_13">
      <path d="M 62.260312 92.899252 
L 621.15 92.899252 
" clip-path="url(#pb41a5927ef)" style="fill: none; stroke: #e6e1d6; stroke-width: 0.8; stroke-linecap: square"/>
     </g>
     <g id="line2d_14">
      <g>
       <use xlink:href="#ma5c8a67b24" x="62.260312" y="92.899252" style="fill: #555555; stroke: #555555; stroke-width: 0.8"/>
      </g>
     </g>
     <g id="text_8">
      <!-- 112.5 -->
      <g style="fill: #555555" transform="translate(25.200781 96.888022) scale(0.105 -0.105)">
       <use xlink:href="#DejaVuSans-14"/>
       <use xlink:href="#DejaVuSans-14" transform="translate(63.625 0)"/>
       <use xlink:href="#DejaVuSans-15" transform="translate(127.25 0)"/>
       <use xlink:href="#DejaVuSans-11" transform="translate(190.875 0)"/>
       <use xlink:href="#DejaVuSans-18" transform="translate(222.65625 0)"/>
      </g>
     </g>
    </g>
    <g id="ytick_8">
     <g id="line2d_15">
      <path d="M 62.260312 57.109359 
L 621.15 57.109359 
" clip-path="url(#pb41a5927ef)" style="fill: none; stroke: #e6e1d6; stroke-width: 0.8; stroke-linecap: square"/>
     </g>
     <g id="line2d_16">
      <g>
       <use xlink:href="#ma5c8a67b24" x="62.260312" y="57.109359" style="fill: #555555; stroke: #555555; stroke-width: 0.8"/>
      </g>
     </g>
     <g id="text_9">
      <!-- 115.0 -->
      <g style="fill: #555555" transform="translate(25.200781 61.098128) scale(0.105 -0.105)">
       <use xlink:href="#DejaVuSans-14"/>
       <use xlink:href="#DejaVuSans-14" transform="translate(63.625 0)"/>
       <use xlink:href="#DejaVuSans-18" transform="translate(127.25 0)"/>
       <use xlink:href="#DejaVuSans-11" transform="translate(190.875 0)"/>
       <use xlink:href="#DejaVuSans-13" transform="translate(222.65625 0)"/>
      </g>
     </g>
    </g>
    <g id="ytick_9">
     <g id="line2d_17">
      <path d="M 62.260312 21.319465 
L 621.15 21.319465 
" clip-path="url(#pb41a5927ef)" style="fill: none; stroke: #e6e1d6; stroke-width: 0.8; stroke-linecap: square"/>
     </g>
     <g id="line2d_18">
      <g>
       <use xlink:href="#ma5c8a67b24" x="62.260312" y="21.319465" style="fill: #555555; stroke: #555555; stroke-width: 0.8"/>
      </g>
     </g>
     <g id="text_10">
      <!-- 117.5 -->
      <g style="fill: #555555" transform="translate(25.200781 25.308235) scale(0.105 -0.105)">
       <use xlink:href="#DejaVuSans-14"/>
       <use xlink:href="#DejaVuSans-14" transform="translate(63.625 0)"/>
       <use xlink:href="#DejaVuSans-1a" transform="translate(127.25 0)"/>
       <use xlink:href="#DejaVuSans-11" transform="translate(190.875 0)"/>
       <use xlink:href="#DejaVuSans-18" transform="translate(222.65625 0)"/>
      </g>
     </g>
    </g>
    <g id="text_11">
     <!-- Price -->
     <g style="fill: #1f2937" transform="translate(14.798437 173.372266) rotate(-90) scale(0.1 -0.1)">
      <defs>
       <path id="DejaVuSans-33" d="M 1259 4147 
L 1259 2394 
L 2053 2394 
Q 2494 2394 2734 2622 
Q 2975 2850 2975 3272 
Q 2975 3691 2734 3919 
Q 2494 4147 2053 4147 
L 1259 4147 
z
M 628 4666 
L 2053 4666 
Q 2838 4666 3239 4311 
Q 3641 3956 3641 3272 
Q 3641 2581 3239 2228 
Q 2838 1875 2053 1875 
L 1259 1875 
L 1259 0 
L 628 0 
L 628 4666 
z
" transform="scale(0.015625)"/>
       <path id="DejaVuSans-55" d="M 2631 2963 
Q 2534 3019 2420 3045 
Q 2306 3072 2169 3072 
Q 1681 3072 1420 2755 
Q 1159 2438 1159 1844 
L 1159 0 
L 581 0 
L 581 3500 
L 1159 3500 
L 1159 2956 
Q 1341 3275 1631 3429 
Q 1922 3584 2338 3584 
Q 2397 3584 2469 3576 
Q 2541 3569 2628 3553 
L 2631 2963 
z
" transform="scale(0.015625)"/>
       <path id="DejaVuSans-46" d="M 3122 3366 
L 3122 2828 
Q 2878 2963 2633 3030 
Q 2388 3097 2138 3097 
Q 1578 3097 1268 2742 
Q 959 2388 959 1747 
Q 959 1106 1268 751 
Q 1578 397 2138 397 
Q 2388 397 2633 464 
Q 2878 531 3122 666 
L 3122 134 
Q 2881 22 2623 -34 
Q 2366 -91 2075 -91 
Q 1284 -91 818 406 
Q 353 903 353 1747 
Q 353 2603 823 3093 
Q 1294 3584 2113 3584 
Q 2378 3584 2631 3529 
Q 2884 3475 3122 3366 
z
" transform="scale(0.015625)"/>
      </defs>
      <use xlink:href="#DejaVuSans-33"/>
      <use xlink:href="#DejaVuSans-55" transform="translate(58.546875 0)"/>
      <use xlink:href="#DejaVuSans-4c" transform="translate(99.65625 0)"/>
      <use xlink:href="#DejaVuSans-46" transform="translate(127.4375 0)"/>
      <use xlink:href="#DejaVuSans-48" transform="translate(182.421875 0)"/>
     </g>
    </g>
   </g>
   <g id="patch_3">
    <path d="M 336.225846 249.309962 
L 511.563787 249.309962 
L 511.563787 224.22869 
L 336.225846 224.22869 
z
" clip-path="url(#pb41a5927ef)" style="fill: #ddebdd; opacity: 0.3; stroke: #1f8a56; stroke-width: 1.4; stroke-linejoin: miter"/>
   </g>
   <g id="patch_4">
    <path d="M 456.77068 177.917683 
L 478.687923 177.917683 
L 478.687923 168.820216 
L 456.77068 168.820216 
z
" clip-path="url(#pb41a5927ef)" style="fill: #e0a94a; opacity: 0.22; stroke: #b7791f; stroke-width: 1.4; stroke-linejoin: miter"/>
   </g>
   <g id="patch_5">
    <path d="M 485.263096 214.506876 
L 504.988614 214.506876 
L 504.988614 177.875442 
L 485.263096 177.875442 
z
" clip-path="url(#pb41a5927ef)" style="fill: #f2d98a; opacity: 0.22; stroke: #b7791f; stroke-width: 1.4; stroke-linejoin: miter"/>
   </g>
   <g id="line2d_19">
    <path d="M 336.225846 214.506876 
L 511.563787 214.506876 
" clip-path="url(#pb41a5927ef)" style="fill: none; stroke-dasharray: 5.18,2.24; stroke-dashoffset: 0; stroke: #8a8f98; stroke-width: 1.4"/>
   </g>
   <g id="patch_6">
    <path d="M 62.260312 315.149219 
L 62.260312 7.2 
" style="fill: none; stroke: #1f2937; stroke-width: 0.8; stroke-linejoin: miter; stroke-linecap: square"/>
   </g>
   <g id="patch_7">
    <path d="M 62.260312 315.149219 
L 621.15 315.149219 
" style="fill: none; stroke: #1f2937; stroke-width: 0.8; stroke-linejoin: miter; stroke-linecap: square"/>
   </g>
   <g id="line2d_20">
    <path d="M 73.218934 274.391234 
L 73.218934 264.593139 
" clip-path="url(#pb41a5927ef)" style="fill: none; stroke: #1f8a56; stroke-width: 1.1; stroke-linecap: round"/>
   </g>
   <g id="line2d_21">
    <path d="M 84.177555 266.78035 
L 84.177555 262.861209 
" clip-path="url(#pb41a5927ef)" style="fill: none; stroke: #b91c1c; stroke-width: 1.1; stroke-linecap: round"/>
   </g>
   <g id="line2d_22">
    <path d="M 95.136176 267.81091 
L 95.136176 256.505245 
" clip-path="url(#pb41a5927ef)" style="fill: none; stroke: #1f8a56; stroke-width: 1.1; stroke-linecap: round"/>
   </g>
   <g id="line2d_23">
    <path d="M 106.094798 259.651916 
L 106.094798 253.539382 
" clip-path="url(#pb41a5927ef)" style="fill: none; stroke: #1f8a56; stroke-width: 1.1; stroke-linecap: round"/>
   </g>
   <g id="line2d_24">
    <path d="M 117.053419 255.289274 
L 117.053419 245.552064 
" clip-path="url(#pb41a5927ef)" style="fill: none; stroke: #1f8a56; stroke-width: 1.1; stroke-linecap: round"/>
   </g>
   <g id="line2d_25">
    <path d="M 128.01204 246.913889 
L 128.01204 214.495974 
" clip-path="url(#pb41a5927ef)" style="fill: none; stroke: #1f8a56; stroke-width: 1.1; stroke-linecap: round"/>
   </g>
   <g id="line2d_26">
    <path d="M 138.970662 220.094097 
L 138.970662 201.222017 
" clip-path="url(#pb41a5927ef)" style="fill: none; stroke: #1f8a56; stroke-width: 1.1; stroke-linecap: round"/>
   </g>
   <g id="line2d_27">
    <path d="M 149.929283 203.143304 
L 149.929283 186.968524 
" clip-path="url(#pb41a5927ef)" style="fill: none; stroke: #1f8a56; stroke-width: 1.1; stroke-linecap: round"/>
   </g>
   <g id="line2d_28">
    <path d="M 160.887904 189.932615 
L 160.887904 186.252236 
" clip-path="url(#pb41a5927ef)" style="fill: none; stroke: #1f8a56; stroke-width: 1.1; stroke-linecap: round"/>
   </g>
   <g id="line2d_29">
    <path d="M 171.846526 190.715817 
L 171.846526 187.98702 
" clip-path="url(#pb41a5927ef)" style="fill: none; stroke: #1f8a56; stroke-width: 1.1; stroke-linecap: round"/>
   </g>
   <g id="line2d_30">
    <path d="M 182.805147 188.93759 
L 182.805147 174.644125 
" clip-path="url(#pb41a5927ef)" style="fill: none; stroke: #1f8a56; stroke-width: 1.1; stroke-linecap: round"/>
   </g>
   <g id="line2d_31">
    <path d="M 193.763768 176.861451 
L 193.763768 173.578926 
" clip-path="url(#pb41a5927ef)" style="fill: none; stroke: #b91c1c; stroke-width: 1.1; stroke-linecap: round"/>
   </g>
   <g id="line2d_32">
    <path d="M 204.72239 175.938383 
L 204.72239 172.225331 
" clip-path="url(#pb41a5927ef)" style="fill: none; stroke: #b91c1c; stroke-width: 1.1; stroke-linecap: round"/>
   </g>
   <g id="line2d_33">
    <path d="M 215.681011 174.857297 
L 215.681011 160.832782 
" clip-path="url(#pb41a5927ef)" style="fill: none; stroke: #1f8a56; stroke-width: 1.1; stroke-linecap: round"/>
   </g>
   <g id="line2d_34">
    <path d="M 226.639632 164.404862 
L 226.639632 158.806209 
" clip-path="url(#pb41a5927ef)" style="fill: none; stroke: #1f8a56; stroke-width: 1.1; stroke-linecap: round"/>
   </g>
   <g id="line2d_35">
    <path d="M 237.598254 162.422846 
L 237.598254 145.413676 
" clip-path="url(#pb41a5927ef)" style="fill: none; stroke: #1f8a56; stroke-width: 1.1; stroke-linecap: round"/>
   </g>
   <g id="line2d_36">
    <path d="M 248.556875 147.612628 
L 248.556875 144.902789 
" clip-path="url(#pb41a5927ef)" style="fill: none; stroke: #b91c1c; stroke-width: 1.1; stroke-linecap: round"/>
   </g>
   <g id="line2d_37">
    <path d="M 259.515496 147.836208 
L 259.515496 130.10058 
" clip-path="url(#pb41a5927ef)" style="fill: none; stroke: #1f8a56; stroke-width: 1.1; stroke-linecap: round"/>
   </g>
   <g id="line2d_38">
    <path d="M 270.474118 142.786223 
L 270.474118 133.885918 
" clip-path="url(#pb41a5927ef)" style="fill: none; stroke: #b91c1c; stroke-width: 1.1; stroke-linecap: round"/>
   </g>
   <g id="line2d_39">
    <path d="M 281.432739 147.217888 
L 281.432739 138.289096 
" clip-path="url(#pb41a5927ef)" style="fill: none; stroke: #1f8a56; stroke-width: 1.1; stroke-linecap: round"/>
   </g>
   <g id="line2d_40">
    <path d="M 292.39136 148.369534 
L 292.39136 145.941489 
" clip-path="url(#pb41a5927ef)" style="fill: none; stroke: #1f8a56; stroke-width: 1.1; stroke-linecap: round"/>
   </g>
   <g id="line2d_41">
    <path d="M 303.349982 144.230755 
L 303.349982 135.193678 
" clip-path="url(#pb41a5927ef)" style="fill: none; stroke: #1f8a56; stroke-width: 1.1; stroke-linecap: round"/>
   </g>
   <g id="line2d_42">
    <path d="M 314.308603 142.015273 
L 314.308603 137.50749 
" clip-path="url(#pb41a5927ef)" style="fill: none; stroke: #b91c1c; stroke-width: 1.1; stroke-linecap: round"/>
   </g>
   <g id="line2d_43">
    <path d="M 325.267224 144.030875 
L 325.267224 124.408961 
" clip-path="url(#pb41a5927ef)" style="fill: none; stroke: #1f8a56; stroke-width: 1.1; stroke-linecap: round"/>
   </g>
   <g id="line2d_44">
    <path d="M 336.225846 126.188169 
L 336.225846 119.788296 
" clip-path="url(#pb41a5927ef)" style="fill: none; stroke: #b91c1c; stroke-width: 1.1; stroke-linecap: round"/>
   </g>
   <g id="line2d_45">
    <path d="M 347.184467 126.426824 
L 347.184467 107.182753 
" clip-path="url(#pb41a5927ef)" style="fill: none; stroke: #1f8a56; stroke-width: 1.1; stroke-linecap: round"/>
   </g>
   <g id="line2d_46">
    <path d="M 358.143088 127.452657 
L 358.143088 112.180945 
" clip-path="url(#pb41a5927ef)" style="fill: none; stroke: #b91c1c; stroke-width: 1.1; stroke-linecap: round"/>
   </g>
   <g id="line2d_47">
    <path d="M 369.10171 130.079158 
L 369.10171 124.333797 
" clip-path="url(#pb41a5927ef)" style="fill: none; stroke: #b91c1c; stroke-width: 1.1; stroke-linecap: round"/>
   </g>
   <g id="line2d_48">
    <path d="M 380.060331 138.549278 
L 380.060331 123.331639 
" clip-path="url(#pb41a5927ef)" style="fill: none; stroke: #b91c1c; stroke-width: 1.1; stroke-linecap: round"/>
   </g>
   <g id="line2d_49">
    <path d="M 391.018952 144.239729 
L 391.018952 137.845736 
" clip-path="url(#pb41a5927ef)" style="fill: none; stroke: #b91c1c; stroke-width: 1.1; stroke-linecap: round"/>
   </g>
   <g id="line2d_50">
    <path d="M 401.977574 160.974517 
L 401.977574 145.341899 
" clip-path="url(#pb41a5927ef)" style="fill: none; stroke: #b91c1c; stroke-width: 1.1; stroke-linecap: round"/>
   </g>
   <g id="line2d_51">
    <path d="M 412.936195 155.835506 
L 412.936195 146.562441 
" clip-path="url(#pb41a5927ef)" style="fill: none; stroke: #1f8a56; stroke-width: 1.1; stroke-linecap: round"/>
   </g>
   <g id="line2d_52">
    <path d="M 423.894816 163.156877 
L 423.894816 145.296017 
" clip-path="url(#pb41a5927ef)" style="fill: none; stroke: #b91c1c; stroke-width: 1.1; stroke-linecap: round"/>
   </g>
   <g id="line2d_53">
    <path d="M 434.853438 169.718515 
L 434.853438 162.066126 
" clip-path="url(#pb41a5927ef)" style="fill: none; stroke: #b91c1c; stroke-width: 1.1; stroke-linecap: round"/>
   </g>
   <g id="line2d_54">
    <path d="M 445.812059 179.50965 
L 445.812059 169.235123 
" clip-path="url(#pb41a5927ef)" style="fill: none; stroke: #b91c1c; stroke-width: 1.1; stroke-linecap: round"/>
   </g>
   <g id="line2d_55">
    <path d="M 456.77068 180.493602 
L 456.77068 166.973731 
" clip-path="url(#pb41a5927ef)" style="fill: none; stroke: #1f8a56; stroke-width: 1.1; stroke-linecap: round"/>
   </g>
   <g id="line2d_56">
    <path d="M 467.729301 175.214357 
L 467.729301 171.112275 
" clip-path="url(#pb41a5927ef)" style="fill: none; stroke: #b91c1c; stroke-width: 1.1; stroke-linecap: round"/>
   </g>
   <g id="line2d_57">
    <path d="M 478.687923 190.501661 
L 478.687923 177.875442 
" clip-path="url(#pb41a5927ef)" style="fill: none; stroke: #b91c1c; stroke-width: 1.1; stroke-linecap: round"/>
   </g>
   <g id="line2d_58">
    <path d="M 489.646544 202.694382 
L 489.646544 185.603406 
" clip-path="url(#pb41a5927ef)" style="fill: none; stroke: #b91c1c; stroke-width: 1.1; stroke-linecap: round"/>
   </g>
   <g id="line2d_59">
    <path d="M 500.605165 214.506876 
L 500.605165 196.543062 
" clip-path="url(#pb41a5927ef)" style="fill: none; stroke: #b91c1c; stroke-width: 1.1; stroke-linecap: round"/>
   </g>
   <g id="line2d_60">
    <path d="M 511.563787 212.282463 
L 511.563787 188.202502 
" clip-path="url(#pb41a5927ef)" style="fill: none; stroke: #1f8a56; stroke-width: 1.1; stroke-linecap: round"/>
   </g>
   <g id="line2d_61">
    <path d="M 522.522408 191.629961 
L 522.522408 172.674036 
" clip-path="url(#pb41a5927ef)" style="fill: none; stroke: #1f8a56; stroke-width: 1.1; stroke-linecap: round"/>
   </g>
   <g id="line2d_62">
    <path d="M 533.481029 174.122987 
L 533.481029 160.388569 
" clip-path="url(#pb41a5927ef)" style="fill: none; stroke: #1f8a56; stroke-width: 1.1; stroke-linecap: round"/>
   </g>
   <g id="line2d_63">
    <path d="M 544.439651 169.399289 
L 544.439651 162.66584 
" clip-path="url(#pb41a5927ef)" style="fill: none; stroke: #b91c1c; stroke-width: 1.1; stroke-linecap: round"/>
   </g>
   <g id="line2d_64">
    <path d="M 555.398272 168.066058 
L 555.398272 147.55602 
" clip-path="url(#pb41a5927ef)" style="fill: none; stroke: #1f8a56; stroke-width: 1.1; stroke-linecap: round"/>
   </g>
   <g id="line2d_65">
    <path d="M 566.356893 153.02911 
L 566.356893 120.414025 
" clip-path="url(#pb41a5927ef)" style="fill: none; stroke: #1f8a56; stroke-width: 1.1; stroke-linecap: round"/>
   </g>
   <g id="line2d_66">
    <path d="M 577.315515 121.222732 
L 577.315515 90.500067 
" clip-path="url(#pb41a5927ef)" style="fill: none; stroke: #1f8a56; stroke-width: 1.1; stroke-linecap: round"/>
   </g>
   <g id="line2d_67">
    <path d="M 588.274136 96.482443 
L 588.274136 74.897535 
" clip-path="url(#pb41a5927ef)" style="fill: none; stroke: #1f8a56; stroke-width: 1.1; stroke-linecap: round"/>
   </g>
   <g id="line2d_68">
    <path d="M 599.232757 73.413123 
L 599.232757 67.387164 
" clip-path="url(#pb41a5927ef)" style="fill: none; stroke: #1f8a56; stroke-width: 1.1; stroke-linecap: round"/>
   </g>
   <g id="line2d_69">
    <path d="M 610.191379 69.427137 
L 610.191379 47.957985 
" clip-path="url(#pb41a5927ef)" style="fill: none; stroke: #1f8a56; stroke-width: 1.1; stroke-linecap: round"/>
   </g>
   <g id="text_12">
    <!-- Discount zone -->
    <g style="fill: #1f8a56" transform="translate(388.088176 219.056828) scale(0.09 -0.09)">
     <defs>
      <path id="DejaVuSans-Bold-27" d="M 1791 3756 
L 1791 909 
L 2222 909 
Q 2959 909 3348 1275 
Q 3738 1641 3738 2338 
Q 3738 3031 3350 3393 
Q 2963 3756 2222 3756 
L 1791 3756 
z
M 588 4666 
L 1856 4666 
Q 2919 4666 3439 4514 
Q 3959 4363 4331 4000 
Q 4659 3684 4818 3271 
Q 4978 2859 4978 2338 
Q 4978 1809 4818 1395 
Q 4659 981 4331 666 
Q 3956 303 3431 151 
Q 2906 0 1856 0 
L 588 0 
L 588 4666 
z
" transform="scale(0.015625)"/>
      <path id="DejaVuSans-Bold-4c" d="M 538 3500 
L 1656 3500 
L 1656 0 
L 538 0 
L 538 3500 
z
M 538 4863 
L 1656 4863 
L 1656 3950 
L 538 3950 
L 538 4863 
z
" transform="scale(0.015625)"/>
      <path id="DejaVuSans-Bold-56" d="M 3272 3391 
L 3272 2541 
Q 2913 2691 2578 2766 
Q 2244 2841 1947 2841 
Q 1628 2841 1473 2761 
Q 1319 2681 1319 2516 
Q 1319 2381 1436 2309 
Q 1553 2238 1856 2203 
L 2053 2175 
Q 2913 2066 3209 1816 
Q 3506 1566 3506 1031 
Q 3506 472 3093 190 
Q 2681 -91 1863 -91 
Q 1516 -91 1145 -36 
Q 775 19 384 128 
L 384 978 
Q 719 816 1070 734 
Q 1422 653 1784 653 
Q 2113 653 2278 743 
Q 2444 834 2444 1013 
Q 2444 1163 2330 1236 
Q 2216 1309 1875 1350 
L 1678 1375 
Q 931 1469 631 1722 
Q 331 1975 331 2491 
Q 331 3047 712 3315 
Q 1094 3584 1881 3584 
Q 2191 3584 2531 3537 
Q 2872 3491 3272 3391 
z
" transform="scale(0.015625)"/>
      <path id="DejaVuSans-Bold-46" d="M 3366 3391 
L 3366 2478 
Q 3138 2634 2908 2709 
Q 2678 2784 2431 2784 
Q 1963 2784 1702 2511 
Q 1441 2238 1441 1747 
Q 1441 1256 1702 982 
Q 1963 709 2431 709 
Q 2694 709 2930 787 
Q 3166 866 3366 1019 
L 3366 103 
Q 3103 6 2833 -42 
Q 2563 -91 2291 -91 
Q 1344 -91 809 395 
Q 275 881 275 1747 
Q 275 2613 809 3098 
Q 1344 3584 2291 3584 
Q 2566 3584 2833 3536 
Q 3100 3488 3366 3391 
z
" transform="scale(0.015625)"/>
      <path id="DejaVuSans-Bold-52" d="M 2203 2784 
Q 1831 2784 1636 2517 
Q 1441 2250 1441 1747 
Q 1441 1244 1636 976 
Q 1831 709 2203 709 
Q 2569 709 2762 976 
Q 2956 1244 2956 1747 
Q 2956 2250 2762 2517 
Q 2569 2784 2203 2784 
z
M 2203 3584 
Q 3106 3584 3614 3096 
Q 4122 2609 4122 1747 
Q 4122 884 3614 396 
Q 3106 -91 2203 -91 
Q 1297 -91 786 396 
Q 275 884 275 1747 
Q 275 2609 786 3096 
Q 1297 3584 2203 3584 
z
" transform="scale(0.015625)"/>
      <path id="DejaVuSans-Bold-58" d="M 500 1363 
L 500 3500 
L 1625 3500 
L 1625 3150 
Q 1625 2866 1622 2436 
Q 1619 2006 1619 1863 
Q 1619 1441 1641 1255 
Q 1663 1069 1716 984 
Q 1784 875 1895 815 
Q 2006 756 2150 756 
Q 2500 756 2700 1025 
Q 2900 1294 2900 1772 
L 2900 3500 
L 4019 3500 
L 4019 0 
L 2900 0 
L 2900 506 
Q 2647 200 2364 54 
Q 2081 -91 1741 -91 
Q 1134 -91 817 281 
Q 500 653 500 1363 
z
" transform="scale(0.015625)"/>
      <path id="DejaVuSans-Bold-51" d="M 4056 2131 
L 4056 0 
L 2931 0 
L 2931 347 
L 2931 1631 
Q 2931 2084 2911 2256 
Q 2891 2428 2841 2509 
Q 2775 2619 2662 2680 
Q 2550 2741 2406 2741 
Q 2056 2741 1856 2470 
Q 1656 2200 1656 1722 
L 1656 0 
L 538 0 
L 538 3500 
L 1656 3500 
L 1656 2988 
Q 1909 3294 2193 3439 
Q 2478 3584 2822 3584 
Q 3428 3584 3742 3212 
Q 4056 2841 4056 2131 
z
" transform="scale(0.015625)"/>
      <path id="DejaVuSans-Bold-57" d="M 1759 4494 
L 1759 3500 
L 2913 3500 
L 2913 2700 
L 1759 2700 
L 1759 1216 
Q 1759 972 1856 886 
Q 1953 800 2241 800 
L 2816 800 
L 2816 0 
L 1856 0 
Q 1194 0 917 276 
Q 641 553 641 1216 
L 641 2700 
L 84 2700 
L 84 3500 
L 641 3500 
L 641 4494 
L 1759 4494 
z
" transform="scale(0.015625)"/>
      <path id="DejaVuSans-Bold-3" transform="scale(0.015625)"/>
      <path id="DejaVuSans-Bold-5d" d="M 366 3500 
L 3419 3500 
L 3419 2719 
L 1575 800 
L 3419 800 
L 3419 0 
L 288 0 
L 288 781 
L 2131 2700 
L 366 2700 
L 366 3500 
z
" transform="scale(0.015625)"/>
      <path id="DejaVuSans-Bold-48" d="M 4031 1759 
L 4031 1441 
L 1416 1441 
Q 1456 1047 1700 850 
Q 1944 653 2381 653 
Q 2734 653 3104 758 
Q 3475 863 3866 1075 
L 3866 213 
Q 3469 63 3072 -14 
Q 2675 -91 2278 -91 
Q 1328 -91 801 392 
Q 275 875 275 1747 
Q 275 2603 792 3093 
Q 1309 3584 2216 3584 
Q 3041 3584 3536 3087 
Q 4031 2591 4031 1759 
z
M 2881 2131 
Q 2881 2450 2695 2645 
Q 2509 2841 2209 2841 
Q 1884 2841 1681 2658 
Q 1478 2475 1428 2131 
L 2881 2131 
z
" transform="scale(0.015625)"/>
     </defs>
     <use xlink:href="#DejaVuSans-Bold-27"/>
     <use xlink:href="#DejaVuSans-Bold-4c" transform="translate(83.015625 0)"/>
     <use xlink:href="#DejaVuSans-Bold-56" transform="translate(117.296875 0)"/>
     <use xlink:href="#DejaVuSans-Bold-46" transform="translate(176.8125 0)"/>
     <use xlink:href="#DejaVuSans-Bold-52" transform="translate(236.09375 0)"/>
     <use xlink:href="#DejaVuSans-Bold-58" transform="translate(304.796875 0)"/>
     <use xlink:href="#DejaVuSans-Bold-51" transform="translate(375.984375 0)"/>
     <use xlink:href="#DejaVuSans-Bold-57" transform="translate(447.171875 0)"/>
     <use xlink:href="#DejaVuSans-Bold-3" transform="translate(494.96875 0)"/>
     <use xlink:href="#DejaVuSans-Bold-5d" transform="translate(529.78125 0)"/>
     <use xlink:href="#DejaVuSans-Bold-52" transform="translate(587.984375 0)"/>
     <use xlink:href="#DejaVuSans-Bold-51" transform="translate(656.6875 0)"/>
     <use xlink:href="#DejaVuSans-Bold-48" transform="translate(727.875 0)"/>
    </g>
   </g>
   <g id="text_13">
    <!-- Order Block -->
    <g style="fill: #b7791f" transform="translate(437.901333 165.56641) scale(0.09 -0.09)">
     <defs>
      <path id="DejaVuSans-Bold-32" d="M 2719 3878 
Q 2169 3878 1866 3472 
Q 1563 3066 1563 2328 
Q 1563 1594 1866 1187 
Q 2169 781 2719 781 
Q 3272 781 3575 1187 
Q 3878 1594 3878 2328 
Q 3878 3066 3575 3472 
Q 3272 3878 2719 3878 
z
M 2719 4750 
Q 3844 4750 4481 4106 
Q 5119 3463 5119 2328 
Q 5119 1197 4481 553 
Q 3844 -91 2719 -91 
Q 1597 -91 958 553 
Q 319 1197 319 2328 
Q 319 3463 958 4106 
Q 1597 4750 2719 4750 
z
" transform="scale(0.015625)"/>
      <path id="DejaVuSans-Bold-55" d="M 3138 2547 
Q 2991 2616 2845 2648 
Q 2700 2681 2553 2681 
Q 2122 2681 1889 2404 
Q 1656 2128 1656 1613 
L 1656 0 
L 538 0 
L 538 3500 
L 1656 3500 
L 1656 2925 
Q 1872 3269 2151 3426 
Q 2431 3584 2822 3584 
Q 2878 3584 2943 3579 
Q 3009 3575 3134 3559 
L 3138 2547 
z
" transform="scale(0.015625)"/>
      <path id="DejaVuSans-Bold-47" d="M 2919 2988 
L 2919 4863 
L 4044 4863 
L 4044 0 
L 2919 0 
L 2919 506 
Q 2688 197 2409 53 
Q 2131 -91 1766 -91 
Q 1119 -91 703 423 
Q 288 938 288 1747 
Q 288 2556 703 3070 
Q 1119 3584 1766 3584 
Q 2128 3584 2408 3439 
Q 2688 3294 2919 2988 
z
M 2181 722 
Q 2541 722 2730 984 
Q 2919 1247 2919 1747 
Q 2919 2247 2730 2509 
Q 2541 2772 2181 2772 
Q 1825 2772 1636 2509 
Q 1447 2247 1447 1747 
Q 1447 1247 1636 984 
Q 1825 722 2181 722 
z
" transform="scale(0.015625)"/>
      <path id="DejaVuSans-Bold-25" d="M 2456 2859 
Q 2741 2859 2887 2984 
Q 3034 3109 3034 3353 
Q 3034 3594 2887 3720 
Q 2741 3847 2456 3847 
L 1791 3847 
L 1791 2859 
L 2456 2859 
z
M 2497 819 
Q 2859 819 3042 972 
Q 3225 1125 3225 1434 
Q 3225 1738 3044 1889 
Q 2863 2041 2497 2041 
L 1791 2041 
L 1791 819 
L 2497 819 
z
M 3616 2497 
Q 4003 2384 4215 2081 
Q 4428 1778 4428 1338 
Q 4428 663 3972 331 
Q 3516 0 2584 0 
L 588 0 
L 588 4666 
L 2394 4666 
Q 3366 4666 3802 4372 
Q 4238 4078 4238 3431 
Q 4238 3091 4078 2852 
Q 3919 2613 3616 2497 
z
" transform="scale(0.015625)"/>
      <path id="DejaVuSans-Bold-4f" d="M 538 4863 
L 1656 4863 
L 1656 0 
L 538 0 
L 538 4863 
z
" transform="scale(0.015625)"/>
      <path id="DejaVuSans-Bold-4e" d="M 538 4863 
L 1656 4863 
L 1656 2216 
L 2944 3500 
L 4244 3500 
L 2534 1894 
L 4378 0 
L 3022 0 
L 1656 1459 
L 1656 0 
L 538 0 
L 538 4863 
z
" transform="scale(0.015625)"/>
     </defs>
     <use xlink:href="#DejaVuSans-Bold-32"/>
     <use xlink:href="#DejaVuSans-Bold-55" transform="translate(85.015625 0)"/>
     <use xlink:href="#DejaVuSans-Bold-47" transform="translate(134.328125 0)"/>
     <use xlink:href="#DejaVuSans-Bold-48" transform="translate(205.90625 0)"/>
     <use xlink:href="#DejaVuSans-Bold-55" transform="translate(273.734375 0)"/>
     <use xlink:href="#DejaVuSans-Bold-3" transform="translate(323.046875 0)"/>
     <use xlink:href="#DejaVuSans-Bold-25" transform="translate(357.859375 0)"/>
     <use xlink:href="#DejaVuSans-Bold-4f" transform="translate(434.078125 0)"/>
     <use xlink:href="#DejaVuSans-Bold-52" transform="translate(468.359375 0)"/>
     <use xlink:href="#DejaVuSans-Bold-46" transform="translate(537.0625 0)"/>
     <use xlink:href="#DejaVuSans-Bold-4e" transform="translate(596.34375 0)"/>
    </g>
   </g>
   <g id="text_14">
    <!-- FVG -->
    <g style="fill: #b7791f" transform="translate(484.875699 171.317561) scale(0.09 -0.09)">
     <defs>
      <path id="DejaVuSans-Bold-29" d="M 588 4666 
L 3834 4666 
L 3834 3756 
L 1791 3756 
L 1791 2888 
L 3713 2888 
L 3713 1978 
L 1791 1978 
L 1791 0 
L 588 0 
L 588 4666 
z
" transform="scale(0.015625)"/>
      <path id="DejaVuSans-Bold-39" d="M 31 4666 
L 1241 4666 
L 2478 1222 
L 3713 4666 
L 4922 4666 
L 3194 0 
L 1759 0 
L 31 4666 
z
" transform="scale(0.015625)"/>
      <path id="DejaVuSans-Bold-2a" d="M 4781 347 
Q 4331 128 3847 18 
Q 3363 -91 2847 -91 
Q 1681 -91 1000 561 
Q 319 1213 319 2328 
Q 319 3456 1012 4103 
Q 1706 4750 2913 4750 
Q 3378 4750 3804 4662 
Q 4231 4575 4609 4403 
L 4609 3438 
Q 4219 3659 3833 3768 
Q 3447 3878 3059 3878 
Q 2341 3878 1952 3476 
Q 1563 3075 1563 2328 
Q 1563 1588 1938 1184 
Q 2313 781 3003 781 
Q 3191 781 3352 804 
Q 3513 828 3641 878 
L 3641 1784 
L 2906 1784 
L 2906 2591 
L 4781 2591 
L 4781 347 
z
" transform="scale(0.015625)"/>
     </defs>
     <use xlink:href="#DejaVuSans-Bold-29"/>
     <use xlink:href="#DejaVuSans-Bold-39" transform="translate(68.3125 0)"/>
     <use xlink:href="#DejaVuSans-Bold-2a" transform="translate(145.703125 0)"/>
    </g>
   </g>
   <g id="text_15">
    <!-- Liquidity swept -->
    <g style="fill: #8a8f98" transform="translate(514.851373 216.845118) scale(0.09 -0.09)">
     <defs>
      <path id="DejaVuSans-Bold-2f" d="M 588 4666 
L 1791 4666 
L 1791 909 
L 3903 909 
L 3903 0 
L 588 0 
L 588 4666 
z
" transform="scale(0.015625)"/>
      <path id="DejaVuSans-Bold-54" d="M 2181 2772 
Q 1825 2772 1636 2509 
Q 1447 2247 1447 1747 
Q 1447 1247 1636 984 
Q 1825 722 2181 722 
Q 2541 722 2730 984 
Q 2919 1247 2919 1747 
Q 2919 2247 2730 2509 
Q 2541 2772 2181 2772 
z
M 2919 506 
Q 2688 197 2409 53 
Q 2131 -91 1766 -91 
Q 1119 -91 703 423 
Q 288 938 288 1747 
Q 288 2556 703 3067 
Q 1119 3578 1766 3578 
Q 2131 3578 2409 3434 
Q 2688 3291 2919 2981 
L 2919 3500 
L 4044 3500 
L 4044 -1331 
L 2919 -1331 
L 2919 506 
z
" transform="scale(0.015625)"/>
      <path id="DejaVuSans-Bold-5c" d="M 78 3500 
L 1197 3500 
L 2138 1125 
L 2938 3500 
L 4056 3500 
L 2584 -331 
Q 2363 -916 2067 -1148 
Q 1772 -1381 1288 -1381 
L 641 -1381 
L 641 -647 
L 991 -647 
Q 1275 -647 1404 -556 
Q 1534 -466 1606 -231 
L 1638 -134 
L 78 3500 
z
" transform="scale(0.015625)"/>
      <path id="DejaVuSans-Bold-5a" d="M 225 3500 
L 1313 3500 
L 1900 1088 
L 2491 3500 
L 3425 3500 
L 4013 1113 
L 4603 3500 
L 5691 3500 
L 4769 0 
L 3547 0 
L 2956 2406 
L 2369 0 
L 1147 0 
L 225 3500 
z
" transform="scale(0.015625)"/>
      <path id="DejaVuSans-Bold-53" d="M 1656 506 
L 1656 -1331 
L 538 -1331 
L 538 3500 
L 1656 3500 
L 1656 2988 
Q 1888 3294 2169 3439 
Q 2450 3584 2816 3584 
Q 3463 3584 3878 3070 
Q 4294 2556 4294 1747 
Q 4294 938 3878 423 
Q 3463 -91 2816 -91 
Q 2450 -91 2169 54 
Q 1888 200 1656 506 
z
M 2400 2772 
Q 2041 2772 1848 2508 
Q 1656 2244 1656 1747 
Q 1656 1250 1848 986 
Q 2041 722 2400 722 
Q 2759 722 2948 984 
Q 3138 1247 3138 1747 
Q 3138 2247 2948 2509 
Q 2759 2772 2400 2772 
z
" transform="scale(0.015625)"/>
     </defs>
     <use xlink:href="#DejaVuSans-Bold-2f"/>
     <use xlink:href="#DejaVuSans-Bold-4c" transform="translate(63.71875 0)"/>
     <use xlink:href="#DejaVuSans-Bold-54" transform="translate(98 0)"/>
     <use xlink:href="#DejaVuSans-Bold-58" transform="translate(169.578125 0)"/>
     <use xlink:href="#DejaVuSans-Bold-4c" transform="translate(240.765625 0)"/>
     <use xlink:href="#DejaVuSans-Bold-47" transform="translate(275.046875 0)"/>
     <use xlink:href="#DejaVuSans-Bold-4c" transform="translate(346.625 0)"/>
     <use xlink:href="#DejaVuSans-Bold-57" transform="translate(380.90625 0)"/>
     <use xlink:href="#DejaVuSans-Bold-5c" transform="translate(428.703125 0)"/>
     <use xlink:href="#DejaVuSans-Bold-3" transform="translate(493.890625 0)"/>
     <use xlink:href="#DejaVuSans-Bold-56" transform="translate(528.703125 0)"/>
     <use xlink:href="#DejaVuSans-Bold-5a" transform="translate(588.21875 0)"/>
     <use xlink:href="#DejaVuSans-Bold-48" transform="translate(680.609375 0)"/>
     <use xlink:href="#DejaVuSans-Bold-53" transform="translate(748.4375 0)"/>
     <use xlink:href="#DejaVuSans-Bold-57" transform="translate(820.015625 0)"/>
    </g>
   </g>
   <g id="text_16">
    <!-- 5 confluences → high-probability entry -->
    <g style="fill: #1f2937" transform="translate(189.32304 34.354096) scale(0.095 -0.095)">
     <defs>
      <path id="DejaVuSans-Bold-18" d="M 678 4666 
L 3669 4666 
L 3669 3781 
L 1638 3781 
L 1638 3059 
Q 1775 3097 1914 3117 
Q 2053 3138 2203 3138 
Q 3056 3138 3531 2711 
Q 4006 2284 4006 1522 
Q 4006 766 3489 337 
Q 2972 -91 2053 -91 
Q 1656 -91 1267 -14 
Q 878 63 494 219 
L 494 1166 
Q 875 947 1217 837 
Q 1559 728 1863 728 
Q 2300 728 2551 942 
Q 2803 1156 2803 1522 
Q 2803 1891 2551 2103 
Q 2300 2316 1863 2316 
Q 1603 2316 1309 2248 
Q 1016 2181 678 2041 
L 678 4666 
z
" transform="scale(0.015625)"/>
      <path id="DejaVuSans-Bold-13ac" d="M 1984 4863 
L 4206 4863 
L 4206 0 
L 3078 0 
L 3078 4128 
L 2222 4128 
Q 1984 4128 1890 4042 
Q 1797 3956 1797 3744 
L 1797 3500 
L 2675 3500 
L 2675 2700 
L 1797 2700 
L 1797 0 
L 678 0 
L 678 2700 
L 122 2700 
L 122 3500 
L 678 3500 
L 678 3744 
Q 678 4316 997 4589 
Q 1316 4863 1984 4863 
z
" transform="scale(0.015625)"/>
      <path id="DejaVuSans-Bold-c1c" d="M 5050 2225 
L 5050 1788 
L 3822 559 
L 3369 1013 
L 3988 1631 
L 366 1631 
L 366 2381 
L 3988 2381 
L 3369 3000 
L 3822 3453 
L 5050 2225 
z
" transform="scale(0.015625)"/>
      <path id="DejaVuSans-Bold-4b" d="M 4056 2131 
L 4056 0 
L 2931 0 
L 2931 347 
L 2931 1625 
Q 2931 2084 2911 2256 
Q 2891 2428 2841 2509 
Q 2775 2619 2662 2680 
Q 2550 2741 2406 2741 
Q 2056 2741 1856 2470 
Q 1656 2200 1656 1722 
L 1656 0 
L 538 0 
L 538 4863 
L 1656 4863 
L 1656 2988 
Q 1909 3294 2193 3439 
Q 2478 3584 2822 3584 
Q 3428 3584 3742 3212 
Q 4056 2841 4056 2131 
z
" transform="scale(0.015625)"/>
      <path id="DejaVuSans-Bold-4a" d="M 2919 594 
Q 2688 288 2409 144 
Q 2131 0 1766 0 
Q 1125 0 706 504 
Q 288 1009 288 1791 
Q 288 2575 706 3076 
Q 1125 3578 1766 3578 
Q 2131 3578 2409 3434 
Q 2688 3291 2919 2981 
L 2919 3500 
L 4044 3500 
L 4044 353 
Q 4044 -491 3511 -936 
Q 2978 -1381 1966 -1381 
Q 1638 -1381 1331 -1331 
Q 1025 -1281 716 -1178 
L 716 -306 
Q 1009 -475 1290 -558 
Q 1572 -641 1856 -641 
Q 2406 -641 2662 -400 
Q 2919 -159 2919 353 
L 2919 594 
z
M 2181 2772 
Q 1834 2772 1640 2515 
Q 1447 2259 1447 1791 
Q 1447 1309 1634 1061 
Q 1822 813 2181 813 
Q 2531 813 2725 1069 
Q 2919 1325 2919 1791 
Q 2919 2259 2725 2515 
Q 2531 2772 2181 2772 
z
" transform="scale(0.015625)"/>
      <path id="DejaVuSans-Bold-10" d="M 347 2297 
L 2309 2297 
L 2309 1388 
L 347 1388 
L 347 2297 
z
" transform="scale(0.015625)"/>
      <path id="DejaVuSans-Bold-45" d="M 2400 722 
Q 2759 722 2948 984 
Q 3138 1247 3138 1747 
Q 3138 2247 2948 2509 
Q 2759 2772 2400 2772 
Q 2041 2772 1848 2508 
Q 1656 2244 1656 1747 
Q 1656 1250 1848 986 
Q 2041 722 2400 722 
z
M 1656 2988 
Q 1888 3294 2169 3439 
Q 2450 3584 2816 3584 
Q 3463 3584 3878 3070 
Q 4294 2556 4294 1747 
Q 4294 938 3878 423 
Q 3463 -91 2816 -91 
Q 2450 -91 2169 54 
Q 1888 200 1656 506 
L 1656 0 
L 538 0 
L 538 4863 
L 1656 4863 
L 1656 2988 
z
" transform="scale(0.015625)"/>
      <path id="DejaVuSans-Bold-44" d="M 2106 1575 
Q 1756 1575 1579 1456 
Q 1403 1338 1403 1106 
Q 1403 894 1545 773 
Q 1688 653 1941 653 
Q 2256 653 2472 879 
Q 2688 1106 2688 1447 
L 2688 1575 
L 2106 1575 
z
M 3816 1997 
L 3816 0 
L 2688 0 
L 2688 519 
Q 2463 200 2181 54 
Q 1900 -91 1497 -91 
Q 953 -91 614 226 
Q 275 544 275 1050 
Q 275 1666 698 1953 
Q 1122 2241 2028 2241 
L 2688 2241 
L 2688 2328 
Q 2688 2594 2478 2717 
Q 2269 2841 1825 2841 
Q 1466 2841 1156 2769 
Q 847 2697 581 2553 
L 581 3406 
Q 941 3494 1303 3539 
Q 1666 3584 2028 3584 
Q 2975 3584 3395 3211 
Q 3816 2838 3816 1997 
z
" transform="scale(0.015625)"/>
     </defs>
     <use xlink:href="#DejaVuSans-Bold-18"/>
     <use xlink:href="#DejaVuSans-Bold-3" transform="translate(69.578125 0)"/>
     <use xlink:href="#DejaVuSans-Bold-46" transform="translate(104.390625 0)"/>
     <use xlink:href="#DejaVuSans-Bold-52" transform="translate(163.671875 0)"/>
     <use xlink:href="#DejaVuSans-Bold-51" transform="translate(232.375 0)"/>
     <use xlink:href="#DejaVuSans-Bold-13ac" transform="translate(303.5625 0)"/>
     <use xlink:href="#DejaVuSans-Bold-58" transform="translate(377.6875 0)"/>
     <use xlink:href="#DejaVuSans-Bold-48" transform="translate(448.875 0)"/>
     <use xlink:href="#DejaVuSans-Bold-51" transform="translate(516.703125 0)"/>
     <use xlink:href="#DejaVuSans-Bold-46" transform="translate(587.890625 0)"/>
     <use xlink:href="#DejaVuSans-Bold-48" transform="translate(647.171875 0)"/>
     <use xlink:href="#DejaVuSans-Bold-56" transform="translate(715 0)"/>
     <use xlink:href="#DejaVuSans-Bold-3" transform="translate(774.515625 0)"/>
     <use xlink:href="#DejaVuSans-Bold-c1c" transform="translate(809.328125 0)"/>
     <use xlink:href="#DejaVuSans-Bold-3" transform="translate(893.125 0)"/>
     <use xlink:href="#DejaVuSans-Bold-4b" transform="translate(927.9375 0)"/>
     <use xlink:href="#DejaVuSans-Bold-4c" transform="translate(999.125 0)"/>
     <use xlink:href="#DejaVuSans-Bold-4a" transform="translate(1033.40625 0)"/>
     <use xlink:href="#DejaVuSans-Bold-4b" transform="translate(1104.984375 0)"/>
     <use xlink:href="#DejaVuSans-Bold-10" transform="translate(1176.171875 0)"/>
     <use xlink:href="#DejaVuSans-Bold-53" transform="translate(1217.671875 0)"/>
     <use xlink:href="#DejaVuSans-Bold-55" transform="translate(1289.25 0)"/>
     <use xlink:href="#DejaVuSans-Bold-52" transform="translate(1338.5625 0)"/>
     <use xlink:href="#DejaVuSans-Bold-45" transform="translate(1407.265625 0)"/>
     <use xlink:href="#DejaVuSans-Bold-44" transform="translate(1478.84375 0)"/>
     <use xlink:href="#DejaVuSans-Bold-45" transform="translate(1546.328125 0)"/>
     <use xlink:href="#DejaVuSans-Bold-4c" transform="translate(1617.90625 0)"/>
     <use xlink:href="#DejaVuSans-Bold-4f" transform="translate(1652.1875 0)"/>
     <use xlink:href="#DejaVuSans-Bold-4c" transform="translate(1686.46875 0)"/>
     <use xlink:href="#DejaVuSans-Bold-57" transform="translate(1720.75 0)"/>
     <use xlink:href="#DejaVuSans-Bold-5c" transform="translate(1768.546875 0)"/>
     <use xlink:href="#DejaVuSans-Bold-3" transform="translate(1833.734375 0)"/>
     <use xlink:href="#DejaVuSans-Bold-48" transform="translate(1868.546875 0)"/>
     <use xlink:href="#DejaVuSans-Bold-51" transform="translate(1936.375 0)"/>
     <use xlink:href="#DejaVuSans-Bold-57" transform="translate(2007.5625 0)"/>
     <use xlink:href="#DejaVuSans-Bold-55" transform="translate(2055.359375 0)"/>
     <use xlink:href="#DejaVuSans-Bold-5c" transform="translate(2104.671875 0)"/>
    </g>
   </g>
   <g id="patch_8">
    <path d="M 69.931347 272.402144 
L 76.50652 272.402144 
L 76.50652 265.609146 
L 69.931347 265.609146 
z
" clip-path="url(#pb41a5927ef)" style="fill: #1f8a56; stroke: #1f8a56; stroke-linejoin: miter"/>
   </g>
   <g id="patch_9">
    <path d="M 80.889969 265.945633 
L 87.465142 265.945633 
L 87.465142 259.152635 
L 80.889969 259.152635 
z
" clip-path="url(#pb41a5927ef)" style="fill: #b91c1c; stroke: #b91c1c; stroke-linejoin: miter"/>
   </g>
   <g id="patch_10">
    <path d="M 91.84859 266.463839 
L 98.423763 266.463839 
L 98.423763 256.992681 
L 91.84859 256.992681 
z
" clip-path="url(#pb41a5927ef)" style="fill: #1f8a56; stroke: #1f8a56; stroke-linejoin: miter"/>
   </g>
   <g id="patch_11">
    <path d="M 102.807211 256.7613 
L 109.382384 256.7613 
L 109.382384 249.968302 
L 102.807211 249.968302 
z
" clip-path="url(#pb41a5927ef)" style="fill: #1f8a56; stroke: #1f8a56; stroke-linejoin: miter"/>
   </g>
   <g id="patch_12">
    <path d="M 113.765833 254.694826 
L 120.341006 254.694826 
L 120.341006 245.560204 
L 113.765833 245.560204 
z
" clip-path="url(#pb41a5927ef)" style="fill: #1f8a56; stroke: #1f8a56; stroke-linejoin: miter"/>
   </g>
   <g id="patch_13">
    <path d="M 124.724454 243.198485 
L 131.299627 243.198485 
L 131.299627 216.738502 
L 124.724454 216.738502 
z
" clip-path="url(#pb41a5927ef)" style="fill: #1f8a56; stroke: #1f8a56; stroke-linejoin: miter"/>
   </g>
   <g id="patch_14">
    <path d="M 135.683075 217.223449 
L 142.258248 217.223449 
L 142.258248 205.088469 
L 135.683075 205.088469 
z
" clip-path="url(#pb41a5927ef)" style="fill: #1f8a56; stroke: #1f8a56; stroke-linejoin: miter"/>
   </g>
   <g id="patch_15">
    <path d="M 146.641697 202.833876 
L 153.216869 202.833876 
L 153.216869 190.597689 
L 146.641697 190.597689 
z
" clip-path="url(#pb41a5927ef)" style="fill: #1f8a56; stroke: #1f8a56; stroke-linejoin: miter"/>
   </g>
   <g id="patch_16">
    <path d="M 157.600318 189.648179 
L 164.175491 189.648179 
L 164.175491 182.855181 
L 157.600318 182.855181 
z
" clip-path="url(#pb41a5927ef)" style="fill: #1f8a56; stroke: #1f8a56; stroke-linejoin: miter"/>
   </g>
   <g id="patch_17">
    <path d="M 168.558939 189.753157 
L 175.134112 189.753157 
L 175.134112 182.960159 
L 168.558939 182.960159 
z
" clip-path="url(#pb41a5927ef)" style="fill: #1f8a56; stroke: #1f8a56; stroke-linejoin: miter"/>
   </g>
   <g id="patch_18">
    <path d="M 179.517561 187.926626 
L 186.092733 187.926626 
L 186.092733 174.802682 
L 179.517561 174.802682 
z
" clip-path="url(#pb41a5927ef)" style="fill: #1f8a56; stroke: #1f8a56; stroke-linejoin: miter"/>
   </g>
   <g id="patch_19">
    <path d="M 190.476182 175.176064 
L 197.051355 175.176064 
L 197.051355 168.383066 
L 190.476182 168.383066 
z
" clip-path="url(#pb41a5927ef)" style="fill: #b91c1c; stroke: #b91c1c; stroke-linejoin: miter"/>
   </g>
   <g id="patch_20">
    <path d="M 201.434803 175.309269 
L 208.009976 175.309269 
L 208.009976 168.516271 
L 201.434803 168.516271 
z
" clip-path="url(#pb41a5927ef)" style="fill: #b91c1c; stroke: #b91c1c; stroke-linejoin: miter"/>
   </g>
   <g id="patch_21">
    <path d="M 212.393425 174.801791 
L 218.968597 174.801791 
L 218.968597 163.866787 
L 212.393425 163.866787 
z
" clip-path="url(#pb41a5927ef)" style="fill: #1f8a56; stroke: #1f8a56; stroke-linejoin: miter"/>
   </g>
   <g id="patch_22">
    <path d="M 223.352046 162.895289 
L 229.927219 162.895289 
L 229.927219 156.102291 
L 223.352046 156.102291 
z
" clip-path="url(#pb41a5927ef)" style="fill: #1f8a56; stroke: #1f8a56; stroke-linejoin: miter"/>
   </g>
   <g id="patch_23">
    <path d="M 234.310667 161.063713 
L 240.88584 161.063713 
L 240.88584 146.758836 
L 234.310667 146.758836 
z
" clip-path="url(#pb41a5927ef)" style="fill: #1f8a56; stroke: #1f8a56; stroke-linejoin: miter"/>
   </g>
   <g id="patch_24">
    <path d="M 245.269289 146.600131 
L 251.844461 146.600131 
L 251.844461 139.807133 
L 245.269289 139.807133 
z
" clip-path="url(#pb41a5927ef)" style="fill: #b91c1c; stroke: #b91c1c; stroke-linejoin: miter"/>
   </g>
   <g id="patch_25">
    <path d="M 256.22791 146.603331 
L 262.803083 146.603331 
L 262.803083 131.094433 
L 256.22791 131.094433 
z
" clip-path="url(#pb41a5927ef)" style="fill: #1f8a56; stroke: #1f8a56; stroke-linejoin: miter"/>
   </g>
   <g id="patch_26">
    <path d="M 267.186531 142.602406 
L 273.761704 142.602406 
L 273.761704 134.792354 
L 267.186531 134.792354 
z
" clip-path="url(#pb41a5927ef)" style="fill: #b91c1c; stroke: #b91c1c; stroke-linejoin: miter"/>
   </g>
   <g id="patch_27">
    <path d="M 278.145153 145.568156 
L 284.720325 145.568156 
L 284.720325 138.775158 
L 278.145153 138.775158 
z
" clip-path="url(#pb41a5927ef)" style="fill: #1f8a56; stroke: #1f8a56; stroke-linejoin: miter"/>
   </g>
   <g id="patch_28">
    <path d="M 289.103774 147.432306 
L 295.678947 147.432306 
L 295.678947 140.639308 
L 289.103774 140.639308 
z
" clip-path="url(#pb41a5927ef)" style="fill: #1f8a56; stroke: #1f8a56; stroke-linejoin: miter"/>
   </g>
   <g id="patch_29">
    <path d="M 300.062395 144.083494 
L 306.637568 144.083494 
L 306.637568 136.668492 
L 300.062395 136.668492 
z
" clip-path="url(#pb41a5927ef)" style="fill: #1f8a56; stroke: #1f8a56; stroke-linejoin: miter"/>
   </g>
   <g id="patch_30">
    <path d="M 311.021017 141.71903 
L 317.596189 141.71903 
L 317.596189 134.926032 
L 311.021017 134.926032 
z
" clip-path="url(#pb41a5927ef)" style="fill: #b91c1c; stroke: #b91c1c; stroke-linejoin: miter"/>
   </g>
   <g id="patch_31">
    <path d="M 321.979638 142.382793 
L 328.554811 142.382793 
L 328.554811 125.23288 
L 321.979638 125.23288 
z
" clip-path="url(#pb41a5927ef)" style="fill: #1f8a56; stroke: #1f8a56; stroke-linejoin: miter"/>
   </g>
   <g id="patch_32">
    <path d="M 332.938259 125.88917 
L 339.513432 125.88917 
L 339.513432 119.096172 
L 332.938259 119.096172 
z
" clip-path="url(#pb41a5927ef)" style="fill: #b91c1c; stroke: #b91c1c; stroke-linejoin: miter"/>
   </g>
   <g id="patch_33">
    <path d="M 343.896881 125.183623 
L 350.472053 125.183623 
L 350.472053 109.759 
L 343.896881 109.759 
z
" clip-path="url(#pb41a5927ef)" style="fill: #1f8a56; stroke: #1f8a56; stroke-linejoin: miter"/>
   </g>
   <g id="patch_34">
    <path d="M 354.855502 126.439007 
L 361.430675 126.439007 
L 361.430675 113.326849 
L 354.855502 113.326849 
z
" clip-path="url(#pb41a5927ef)" style="fill: #b91c1c; stroke: #b91c1c; stroke-linejoin: miter"/>
   </g>
   <g id="patch_35">
    <path d="M 365.814123 126.880205 
L 372.389296 126.880205 
L 372.389296 120.087207 
L 365.814123 120.087207 
z
" clip-path="url(#pb41a5927ef)" style="fill: #b91c1c; stroke: #b91c1c; stroke-linejoin: miter"/>
   </g>
   <g id="patch_36">
    <path d="M 376.772744 138.167164 
L 383.347917 138.167164 
L 383.347917 123.649411 
L 376.772744 123.649411 
z
" clip-path="url(#pb41a5927ef)" style="fill: #b91c1c; stroke: #b91c1c; stroke-linejoin: miter"/>
   </g>
   <g id="patch_37">
    <path d="M 387.731366 143.78888 
L 394.306539 143.78888 
L 394.306539 136.995882 
L 387.731366 136.995882 
z
" clip-path="url(#pb41a5927ef)" style="fill: #b91c1c; stroke: #b91c1c; stroke-linejoin: miter"/>
   </g>
   <g id="patch_38">
    <path d="M 398.689987 157.711983 
L 405.26516 157.711983 
L 405.26516 146.456063 
L 398.689987 146.456063 
z
" clip-path="url(#pb41a5927ef)" style="fill: #b91c1c; stroke: #b91c1c; stroke-linejoin: miter"/>
   </g>
   <g id="patch_39">
    <path d="M 409.648608 155.694849 
L 416.223781 155.694849 
L 416.223781 148.901851 
L 409.648608 148.901851 
z
" clip-path="url(#pb41a5927ef)" style="fill: #1f8a56; stroke: #1f8a56; stroke-linejoin: miter"/>
   </g>
   <g id="patch_40">
    <path d="M 420.60723 163.06584 
L 427.182403 163.06584 
L 427.182403 147.969308 
L 420.60723 147.969308 
z
" clip-path="url(#pb41a5927ef)" style="fill: #b91c1c; stroke: #b91c1c; stroke-linejoin: miter"/>
   </g>
   <g id="patch_41">
    <path d="M 431.565851 168.971351 
L 438.141024 168.971351 
L 438.141024 162.130445 
L 431.565851 162.130445 
z
" clip-path="url(#pb41a5927ef)" style="fill: #b91c1c; stroke: #b91c1c; stroke-linejoin: miter"/>
   </g>
   <g id="patch_42">
    <path d="M 442.524472 178.458403 
L 449.099645 178.458403 
L 449.099645 171.232923 
L 442.524472 171.232923 
z
" clip-path="url(#pb41a5927ef)" style="fill: #b91c1c; stroke: #b91c1c; stroke-linejoin: miter"/>
   </g>
   <g id="patch_43">
    <path d="M 453.483094 178.478309 
L 460.058267 178.478309 
L 460.058267 170.048948 
L 453.483094 170.048948 
z
" clip-path="url(#pb41a5927ef)" style="fill: #1f8a56; stroke: #1f8a56; stroke-linejoin: miter"/>
   </g>
   <g id="patch_44">
    <path d="M 464.441715 175.054492 
L 471.016888 175.054492 
L 471.016888 168.261494 
L 464.441715 168.261494 
z
" clip-path="url(#pb41a5927ef)" style="fill: #b91c1c; stroke: #b91c1c; stroke-linejoin: miter"/>
   </g>
   <g id="patch_45">
    <path d="M 475.400336 189.472086 
L 481.975509 189.472086 
L 481.975509 178.179643 
L 475.400336 178.179643 
z
" clip-path="url(#pb41a5927ef)" style="fill: #b91c1c; stroke: #b91c1c; stroke-linejoin: miter"/>
   </g>
   <g id="patch_46">
    <path d="M 486.358958 199.507338 
L 492.934131 199.507338 
L 492.934131 187.660615 
L 486.358958 187.660615 
z
" clip-path="url(#pb41a5927ef)" style="fill: #b91c1c; stroke: #b91c1c; stroke-linejoin: miter"/>
   </g>
   <g id="patch_47">
    <path d="M 497.317579 212.678036 
L 503.892752 212.678036 
L 503.892752 197.794281 
L 497.317579 197.794281 
z
" clip-path="url(#pb41a5927ef)" style="fill: #b91c1c; stroke: #b91c1c; stroke-linejoin: miter"/>
   </g>
   <g id="patch_48">
    <path d="M 508.2762 210.590959 
L 514.851373 210.590959 
L 514.851373 189.816406 
L 508.2762 189.816406 
z
" clip-path="url(#pb41a5927ef)" style="fill: #1f8a56; stroke: #1f8a56; stroke-linejoin: miter"/>
   </g>
   <g id="patch_49">
    <path d="M 519.234822 188.624961 
L 525.809994 188.624961 
L 525.809994 174.587337 
L 519.234822 174.587337 
z
" clip-path="url(#pb41a5927ef)" style="fill: #1f8a56; stroke: #1f8a56; stroke-linejoin: miter"/>
   </g>
   <g id="patch_50">
    <path d="M 530.193443 172.747444 
L 536.768616 172.747444 
L 536.768616 163.559093 
L 530.193443 163.559093 
z
" clip-path="url(#pb41a5927ef)" style="fill: #1f8a56; stroke: #1f8a56; stroke-linejoin: miter"/>
   </g>
   <g id="patch_51">
    <path d="M 541.152064 168.114805 
L 547.727237 168.114805 
L 547.727237 161.321807 
L 541.152064 161.321807 
z
" clip-path="url(#pb41a5927ef)" style="fill: #b91c1c; stroke: #b91c1c; stroke-linejoin: miter"/>
   </g>
   <g id="patch_52">
    <path d="M 552.110686 166.314898 
L 558.685858 166.314898 
L 558.685858 149.588418 
L 552.110686 149.588418 
z
" clip-path="url(#pb41a5927ef)" style="fill: #1f8a56; stroke: #1f8a56; stroke-linejoin: miter"/>
   </g>
   <g id="patch_53">
    <path d="M 563.069307 150.731667 
L 569.64448 150.731667 
L 569.64448 120.573677 
L 563.069307 120.573677 
z
" clip-path="url(#pb41a5927ef)" style="fill: #1f8a56; stroke: #1f8a56; stroke-linejoin: miter"/>
   </g>
   <g id="patch_54">
    <path d="M 574.027928 120.202563 
L 580.603101 120.202563 
L 580.603101 91.351059 
L 574.027928 91.351059 
z
" clip-path="url(#pb41a5927ef)" style="fill: #1f8a56; stroke: #1f8a56; stroke-linejoin: miter"/>
   </g>
   <g id="patch_55">
    <path d="M 584.98655 95.242303 
L 591.561722 95.242303 
L 591.561722 76.320678 
L 584.98655 76.320678 
z
" clip-path="url(#pb41a5927ef)" style="fill: #1f8a56; stroke: #1f8a56; stroke-linejoin: miter"/>
   </g>
   <g id="patch_56">
    <path d="M 595.945171 72.592036 
L 602.520344 72.592036 
L 602.520344 65.799038 
L 595.945171 65.799038 
z
" clip-path="url(#pb41a5927ef)" style="fill: #1f8a56; stroke: #1f8a56; stroke-linejoin: miter"/>
   </g>
   <g id="patch_57">
    <path d="M 606.903792 66.743747 
L 613.478965 66.743747 
L 613.478965 51.17038 
L 606.903792 51.17038 
z
" clip-path="url(#pb41a5927ef)" style="fill: #1f8a56; stroke: #1f8a56; stroke-linejoin: miter"/>
   </g>
  </g>
 </g>
 <defs>
  <clipPath id="pb41a5927ef">
   <rect x="62.260312" y="7.2" width="558.889688" height="307.949219"/>
  </clipPath>
 </defs>
</svg>
