<?xml version="1.0" encoding="utf-8" standalone="no"?>
<!DOCTYPE svg PUBLIC "-//W3C//DTD SVG 1.1//EN"
  "http://www.w3.org/Graphics/SVG/1.1/DTD/svg11.dtd">
<svg xmlns:xlink="http://www.w3.org/1999/xlink" width="628.35pt" height="325.95pt" viewBox="0 0 628.35 325.95" xmlns="http://www.w3.org/2000/svg" version="1.1">
 <metadata>
  <rdf:RDF xmlns:dc="http://purl.org/dc/elements/1.1/" xmlns:cc="http://creativecommons.org/ns#" xmlns:rdf="http://www.w3.org/1999/02/22-rdf-syntax-ns#">
   <cc:Work>
    <dc:type rdf:resource="http://purl.org/dc/dcmitype/StillImage"/>
    <dc:date>2026-07-19T01:19:51.777979</dc:date>
    <dc:format>image/svg+xml</dc:format>
    <dc:creator>
     <cc:Agent>
      <dc:title>Matplotlib v3.11.1, https://matplotlib.org/</dc:title>
     </cc:Agent>
    </dc:creator>
   </cc:Work>
  </rdf:RDF>
 </metadata>
 <defs>
  <style type="text/css">*{stroke-linejoin: round; stroke-linecap: butt}</style>
 </defs>
 <g id="figure_1">
  <g id="patch_1">
   <path d="M 0 325.95 
L 628.35 325.95 
L 628.35 0 
L 0 0 
z
" style="fill: #ffffff"/>
  </g>
  <g id="axes_1">
   <g id="patch_2">
    <path d="M 48.094156 293.8685 
L 580.255844 293.8685 
L 580.255844 12.81225 
L 48.094156 12.81225 
z
" style="fill: #ffffff"/>
   </g>
   <g id="matplotlib.axis_1">
    <g id="xtick_1">
     <g id="line2d_1">
      <defs>
       <path id="mfa48729d71" d="M 0 0 
L 0 3.5 
" style="stroke: #555555; stroke-width: 0.8"/>
      </defs>
      <g>
       <use xlink:href="#mfa48729d71" x="101.989319" y="293.8685" style="fill: #555555; stroke: #555555; stroke-width: 0.8"/>
      </g>
     </g>
     <g id="text_1">
      <!-- вҖӢ1пәӯ -->
      <g style="fill: #555555" transform="translate(96.959983 312.093) scale(0.105 -0.105)">
       <defs>
        <path id="NotoNaskhArabic-Regular-d3" d="M 710 -1306 
Q 608 -1306 451 -1248 
Q 294 -1190 134 -1107 
Q -26 -1024 -128 -947 
L -45 -736 
Q 134 -768 284 -787 
Q 435 -806 563 -806 
Q 1043 -806 1385 -518 
Q 1728 -230 1907 314 
Q 1862 416 1814 515 
Q 1766 614 1709 717 
Q 1491 1107 1388 1340 
Q 1286 1574 1286 1734 
Q 1286 1901 1382 2000 
Q 1478 2099 1658 2182 
Q 1696 2029 1789 1785 
Q 1882 1542 1946 1357 
Q 2029 1133 2086 915 
Q 2144 698 2144 518 
Q 2144 19 1955 -406 
Q 1766 -832 1440 -1069 
Q 1107 -1306 710 -1306 
z
" transform="scale(0.015625)"/>
        <path id="NotoNaskhArabic-Regular-4cd" d="M 1722 0 
L 1722 3194 
Q 1722 3405 1728 3603 
Q 1734 3802 1747 3981 
Q 1702 3936 1657 3891 
Q 1613 3846 1562 3808 
Q 1402 3674 1226 3530 
Q 1050 3386 864 3232 
L 570 3610 
L 1805 4570 
L 2272 4570 
L 2272 0 
L 1722 0 
z
" transform="scale(0.015625)"/>
        <path id="NotoNaskhArabic-Regular-554" transform="scale(0.015625)"/>
       </defs>
       <use xlink:href="#NotoNaskhArabic-Regular-d3"/>
       <use xlink:href="#NotoNaskhArabic-Regular-4cd" transform="translate(38.59375 0)"/>
       <use xlink:href="#NotoNaskhArabic-Regular-554" transform="translate(95.796875 0)"/>
      </g>
     </g>
    </g>
    <g id="xtick_2">
     <g id="line2d_2">
      <g>
       <use xlink:href="#mfa48729d71" x="186.863592" y="293.8685" style="fill: #555555; stroke: #555555; stroke-width: 0.8"/>
      </g>
     </g>
     <g id="text_2">
      <!-- вҖӢ2пәӯ -->
      <g style="fill: #555555" transform="translate(181.834256 312.093) scale(0.105 -0.105)">
       <defs>
        <path id="NotoNaskhArabic-Regular-4ce" d="M 307 0 
L 307 467 
L 1504 1677 
Q 1773 1952 1952 2147 
Q 2131 2342 2221 2458 
Q 2413 2720 2489 2925 
Q 2566 3130 2566 3386 
Q 2566 3744 2352 3949 
Q 2138 4154 1760 4154 
Q 1478 4154 1228 4058 
Q 979 3962 659 3718 
L 358 4096 
Q 1005 4634 1760 4634 
Q 2240 4634 2576 4448 
Q 2912 4262 3053 3923 
Q 3142 3686 3142 3418 
Q 3142 3123 3033 2841 
Q 2925 2560 2707 2272 
Q 2598 2131 2416 1929 
Q 2234 1728 1971 1478 
L 1018 538 
L 1018 512 
L 3328 512 
L 3328 0 
L 307 0 
z
" transform="scale(0.015625)"/>
       </defs>
       <use xlink:href="#NotoNaskhArabic-Regular-d3"/>
       <use xlink:href="#NotoNaskhArabic-Regular-4ce" transform="translate(38.59375 0)"/>
       <use xlink:href="#NotoNaskhArabic-Regular-554" transform="translate(95.796875 0)"/>
      </g>
     </g>
    </g>
    <g id="xtick_3">
     <g id="line2d_3">
      <g>
       <use xlink:href="#mfa48729d71" x="271.737864" y="293.8685" style="fill: #555555; stroke: #555555; stroke-width: 0.8"/>
      </g>
     </g>
     <g id="text_3">
      <!-- вҖӢ3пәӯ -->
      <g style="fill: #555555" transform="translate(266.708528 312.093) scale(0.105 -0.105)">
       <defs>
        <path id="NotoNaskhArabic-Regular-4cf" d="M 1542 -64 
Q 1184 -64 877 -9 
Q 570 45 288 186 
L 288 710 
Q 576 570 909 490 
Q 1242 410 1549 410 
Q 2707 410 2707 1312 
Q 2707 2118 1427 2118 
L 986 2118 
L 986 2598 
L 1434 2598 
Q 1971 2598 2275 2825 
Q 2579 3053 2579 3462 
Q 2579 3789 2358 3974 
Q 2138 4160 1747 4160 
Q 1446 4160 1187 4077 
Q 928 3994 595 3776 
L 314 4160 
Q 595 4384 963 4509 
Q 1331 4634 1741 4634 
Q 2406 4634 2780 4330 
Q 3155 4026 3155 3501 
Q 3155 3066 2908 2784 
Q 2662 2502 2208 2406 
L 2208 2381 
Q 2758 2317 3027 2035 
Q 3296 1754 3296 1299 
Q 3296 646 2845 291 
Q 2394 -64 1542 -64 
z
" transform="scale(0.015625)"/>
       </defs>
       <use xlink:href="#NotoNaskhArabic-Regular-d3"/>
       <use xlink:href="#NotoNaskhArabic-Regular-4cf" transform="translate(38.59375 0)"/>
       <use xlink:href="#NotoNaskhArabic-Regular-554" transform="translate(95.796875 0)"/>
      </g>
     </g>
    </g>
    <g id="xtick_4">
     <g id="line2d_4">
      <g>
       <use xlink:href="#mfa48729d71" x="356.612136" y="293.8685" style="fill: #555555; stroke: #555555; stroke-width: 0.8"/>
      </g>
     </g>
     <g id="text_4">
      <!-- вҖӢ4пәӯ -->
      <g style="fill: #555555" transform="translate(351.5828 312.093) scale(0.105 -0.105)">
       <defs>
        <path id="NotoNaskhArabic-Regular-4d0" d="M 2323 0 
L 2323 1037 
L 134 1037 
L 134 1517 
L 2285 4595 
L 2867 4595 
L 2867 1542 
L 3533 1542 
L 3533 1037 
L 2867 1037 
L 2867 0 
L 2323 0 
z
M 685 1542 
L 2323 1542 
L 2323 2982 
Q 2323 3194 2332 3446 
Q 2342 3699 2355 3994 
L 2330 3994 
Q 2298 3910 2211 3747 
Q 2125 3584 2054 3494 
L 685 1542 
z
" transform="scale(0.015625)"/>
       </defs>
       <use xlink:href="#NotoNaskhArabic-Regular-d3"/>
       <use xlink:href="#NotoNaskhArabic-Regular-4d0" transform="translate(38.59375 0)"/>
       <use xlink:href="#NotoNaskhArabic-Regular-554" transform="translate(95.796875 0)"/>
      </g>
     </g>
    </g>
    <g id="xtick_5">
     <g id="line2d_5">
      <g>
       <use xlink:href="#mfa48729d71" x="441.486408" y="293.8685" style="fill: #555555; stroke: #555555; stroke-width: 0.8"/>
      </g>
     </g>
     <g id="text_5">
      <!-- вҖӢ5пәӯ -->
      <g style="fill: #555555" transform="translate(436.457073 312.093) scale(0.105 -0.105)">
       <defs>
        <path id="NotoNaskhArabic-Regular-4d1" d="M 1587 -64 
Q 826 -64 403 186 
L 403 717 
Q 634 576 960 496 
Q 1286 416 1594 416 
Q 2131 416 2425 672 
Q 2720 928 2720 1402 
Q 2720 2330 1574 2330 
Q 1210 2330 794 2234 
L 512 2413 
L 685 4570 
L 2976 4570 
L 2976 4058 
L 1165 4058 
L 1056 2733 
Q 1235 2765 1411 2784 
Q 1587 2803 1760 2803 
Q 2477 2803 2886 2444 
Q 3296 2086 3296 1459 
Q 3296 749 2841 342 
Q 2387 -64 1587 -64 
z
" transform="scale(0.015625)"/>
       </defs>
       <use xlink:href="#NotoNaskhArabic-Regular-d3"/>
       <use xlink:href="#NotoNaskhArabic-Regular-4d1" transform="translate(38.59375 0)"/>
       <use xlink:href="#NotoNaskhArabic-Regular-554" transform="translate(95.796875 0)"/>
      </g>
     </g>
    </g>
    <g id="xtick_6">
     <g id="line2d_6">
      <g>
       <use xlink:href="#mfa48729d71" x="526.360681" y="293.8685" style="fill: #555555; stroke: #555555; stroke-width: 0.8"/>
      </g>
     </g>
     <g id="text_6">
      <!-- вҖӢ6пәӯ -->
      <g style="fill: #555555" transform="translate(521.331345 312.093) scale(0.105 -0.105)">
       <defs>
        <path id="NotoNaskhArabic-Regular-4d2" d="M 1907 -64 
Q 1440 -64 1088 176 
Q 736 416 544 870 
Q 352 1331 352 1952 
Q 352 4634 2445 4634 
Q 2810 4634 3008 4576 
L 3008 4096 
Q 2771 4173 2458 4173 
Q 1984 4173 1654 3987 
Q 1325 3802 1139 3405 
Q 941 2976 915 2323 
L 954 2323 
Q 1299 2861 2035 2861 
Q 2656 2861 3008 2486 
Q 3360 2112 3360 1472 
Q 3360 762 2969 349 
Q 2579 -64 1907 -64 
z
M 1901 410 
Q 2336 410 2569 688 
Q 2803 966 2803 1472 
Q 2803 1926 2576 2172 
Q 2349 2419 1920 2419 
Q 1645 2419 1421 2307 
Q 1197 2195 1056 1997 
Q 922 1798 922 1581 
Q 922 1267 1050 995 
Q 1178 723 1395 563 
Q 1619 410 1901 410 
z
" transform="scale(0.015625)"/>
       </defs>
       <use xlink:href="#NotoNaskhArabic-Regular-d3"/>
       <use xlink:href="#NotoNaskhArabic-Regular-4d2" transform="translate(38.59375 0)"/>
       <use xlink:href="#NotoNaskhArabic-Regular-554" transform="translate(95.796875 0)"/>
      </g>
     </g>
    </g>
   </g>
   <g id="matplotlib.axis_2">
    <g id="ytick_1">
     <g id="line2d_7">
      <path d="M 48.094156 293.8685 
L 580.255844 293.8685 
" clip-path="url(#pc6adf094d6)" style="fill: none; stroke: #e6e1d6; stroke-width: 0.8; stroke-linecap: square"/>
     </g>
     <g id="line2d_8">
      <defs>
       <path id="mea71831a21" d="M 0 0 
L -3.5 0 
" style="stroke: #555555; stroke-width: 0.8"/>
      </defs>
      <g>
       <use xlink:href="#mea71831a21" x="48.094156" y="293.8685" style="fill: #555555; stroke: #555555; stroke-width: 0.8"/>
      </g>
     </g>
     <g id="text_7">
      <!-- 0 -->
      <g style="fill: #555555" transform="translate(35.087828 299.48075) scale(0.105 -0.105)">
       <defs>
        <path id="NotoNaskhArabic-Regular-4cc" d="M 1824 -64 
Q 1082 -64 698 534 
Q 314 1133 314 2291 
Q 314 3488 682 4064 
Q 1050 4640 1824 4640 
Q 2566 4640 2956 4038 
Q 3347 3437 3347 2291 
Q 3347 1101 2969 518 
Q 2592 -64 1824 -64 
z
M 1824 416 
Q 2208 416 2426 678 
Q 2778 1094 2778 2291 
Q 2778 3571 2368 3962 
Q 2163 4160 1824 4160 
Q 1427 4160 1203 3878 
Q 877 3469 877 2291 
Q 877 1075 1229 666 
Q 1440 416 1824 416 
z
" transform="scale(0.015625)"/>
       </defs>
       <use xlink:href="#NotoNaskhArabic-Regular-4cc"/>
      </g>
     </g>
    </g>
    <g id="ytick_2">
     <g id="line2d_9">
      <path d="M 48.094156 241.383673 
L 580.255844 241.383673 
" clip-path="url(#pc6adf094d6)" style="fill: none; stroke: #e6e1d6; stroke-width: 0.8; stroke-linecap: square"/>
     </g>
     <g id="line2d_10">
      <g>
       <use xlink:href="#mea71831a21" x="48.094156" y="241.383673" style="fill: #555555; stroke: #555555; stroke-width: 0.8"/>
      </g>
     </g>
     <g id="text_8">
      <!-- 10 -->
      <g style="fill: #555555" transform="translate(29.0815 246.995923) scale(0.105 -0.105)">
       <use xlink:href="#NotoNaskhArabic-Regular-4cd"/>
       <use xlink:href="#NotoNaskhArabic-Regular-4cc" transform="translate(57.203125 0)"/>
      </g>
     </g>
    </g>
    <g id="ytick_3">
     <g id="line2d_11">
      <path d="M 48.094156 188.898845 
L 580.255844 188.898845 
" clip-path="url(#pc6adf094d6)" style="fill: none; stroke: #e6e1d6; stroke-width: 0.8; stroke-linecap: square"/>
     </g>
     <g id="line2d_12">
      <g>
       <use xlink:href="#mea71831a21" x="48.094156" y="188.898845" style="fill: #555555; stroke: #555555; stroke-width: 0.8"/>
      </g>
     </g>
     <g id="text_9">
      <!-- 20 -->
      <g style="fill: #555555" transform="translate(29.0815 194.511095) scale(0.105 -0.105)">
       <use xlink:href="#NotoNaskhArabic-Regular-4ce"/>
       <use xlink:href="#NotoNaskhArabic-Regular-4cc" transform="translate(57.203125 0)"/>
      </g>
     </g>
    </g>
    <g id="ytick_4">
     <g id="line2d_13">
      <path d="M 48.094156 136.414018 
L 580.255844 136.414018 
" clip-path="url(#pc6adf094d6)" style="fill: none; stroke: #e6e1d6; stroke-width: 0.8; stroke-linecap: square"/>
     </g>
     <g id="line2d_14">
      <g>
       <use xlink:href="#mea71831a21" x="48.094156" y="136.414018" style="fill: #555555; stroke: #555555; stroke-width: 0.8"/>
      </g>
     </g>
     <g id="text_10">
      <!-- 30 -->
      <g style="fill: #555555" transform="translate(29.0815 142.026268) scale(0.105 -0.105)">
       <use xlink:href="#NotoNaskhArabic-Regular-4cf"/>
       <use xlink:href="#NotoNaskhArabic-Regular-4cc" transform="translate(57.203125 0)"/>
      </g>
     </g>
    </g>
    <g id="ytick_5">
     <g id="line2d_15">
      <path d="M 48.094156 83.929191 
L 580.255844 83.929191 
" clip-path="url(#pc6adf094d6)" style="fill: none; stroke: #e6e1d6; stroke-width: 0.8; stroke-linecap: square"/>
     </g>
     <g id="line2d_16">
      <g>
       <use xlink:href="#mea71831a21" x="48.094156" y="83.929191" style="fill: #555555; stroke: #555555; stroke-width: 0.8"/>
      </g>
     </g>
     <g id="text_11">
      <!-- 40 -->
      <g style="fill: #555555" transform="translate(29.0815 89.541441) scale(0.105 -0.105)">
       <use xlink:href="#NotoNaskhArabic-Regular-4d0"/>
       <use xlink:href="#NotoNaskhArabic-Regular-4cc" transform="translate(57.203125 0)"/>
      </g>
     </g>
    </g>
    <g id="ytick_6">
     <g id="line2d_17">
      <path d="M 48.094156 31.444364 
L 580.255844 31.444364 
" clip-path="url(#pc6adf094d6)" style="fill: none; stroke: #e6e1d6; stroke-width: 0.8; stroke-linecap: square"/>
     </g>
     <g id="line2d_18">
      <g>
       <use xlink:href="#mea71831a21" x="48.094156" y="31.444364" style="fill: #555555; stroke: #555555; stroke-width: 0.8"/>
      </g>
     </g>
     <g id="text_12">
      <!-- 50 -->
      <g style="fill: #555555" transform="translate(29.0815 37.056614) scale(0.105 -0.105)">
       <use xlink:href="#NotoNaskhArabic-Regular-4d1"/>
       <use xlink:href="#NotoNaskhArabic-Regular-4cc" transform="translate(57.203125 0)"/>
      </g>
     </g>
    </g>
    <g id="text_13">
     <!-- вҖӢпәӯп»»п»ӯпә© пәӯпәҺп»ҙп» п»Ј -->
     <g style="fill: #1f2937" transform="translate(18.4245 172.800648) rotate(-90) scale(0.105 -0.105)">
      <defs>
       <path id="NotoNaskhArabic-Regular-1e5" d="M 2291 0 
Q 2035 0 1753 48 
Q 1472 96 1209 182 
Q 947 269 749 384 
Q 602 179 422 89 
Q 243 0 0 0 
Q -51 0 -51 51 
L -51 435 
Q -51 486 0 486 
Q 243 486 409 604 
Q 576 723 698 960 
Q 813 1171 880 1308 
Q 947 1446 1004 1555 
Q 1062 1664 1152 1779 
Q 1312 1990 1478 2083 
Q 1645 2176 1830 2176 
Q 2016 2176 2201 1945 
Q 2387 1715 2502 1357 
Q 2618 1005 2618 666 
Q 2618 467 2547 307 
Q 2477 147 2291 0 
z
M 2150 486 
Q 2144 781 2061 1065 
Q 1978 1350 1875 1498 
Q 1805 1606 1728 1606 
Q 1491 1606 1286 1318 
Q 1235 1242 1161 1117 
Q 1088 992 998 806 
Q 1459 563 2150 486 
z
" transform="scale(0.015625)"/>
       <path id="NotoNaskhArabic-Regular-1bf" d="M 0 0 
Q -51 0 -51 51 
L -51 435 
Q -51 486 0 486 
Q 352 486 698 653 
Q 659 992 608 1600 
Q 557 2208 499 3085 
Q 480 3296 464 3510 
Q 448 3725 435 3936 
Q 531 4038 636 4124 
Q 742 4211 864 4294 
Q 883 3853 902 3165 
Q 922 2477 934 1536 
Q 934 1318 940 1097 
Q 947 877 954 659 
Q 1242 486 1619 486 
Q 1677 486 1677 435 
L 1677 51 
Q 1677 0 1619 0 
Q 1152 0 883 230 
Q 646 96 460 48 
Q 275 0 0 0 
z
" transform="scale(0.015625)"/>
       <path id="NotoNaskhArabic-Regular-240" d="M 0 0 
Q -51 0 -51 51 
L -51 435 
Q -51 486 0 486 
Q 397 486 672 521 
Q 947 557 1062 640 
Q 1133 685 1229 841 
Q 1325 998 1510 1350 
Q 1568 1459 1709 1459 
Q 1786 1459 1869 1408 
Q 1830 1312 1763 1161 
Q 1696 1011 1638 883 
Q 1581 755 1555 730 
Q 1773 595 1958 540 
Q 2144 486 2362 486 
Q 2413 486 2413 435 
L 2413 51 
Q 2413 0 2362 0 
Q 1766 0 1350 371 
L 1248 237 
Q 1203 192 1001 134 
Q 800 77 528 38 
Q 256 0 0 0 
z
M 1728 -1165 
Q 1459 -953 1312 -774 
Q 1453 -640 1721 -345 
Q 1753 -371 1849 -467 
Q 1945 -563 2118 -729 
Q 2054 -819 1958 -928 
Q 1862 -1037 1728 -1165 
z
M 774 -1261 
Q 486 -1030 345 -870 
Q 435 -793 537 -684 
Q 640 -576 761 -435 
Q 787 -467 886 -563 
Q 985 -659 1152 -819 
Q 1094 -915 998 -1024 
Q 902 -1133 774 -1261 
z
" transform="scale(0.015625)"/>
       <path id="NotoNaskhArabic-Regular-4" d="M 1677 0 
Q 1299 0 1049 150 
Q 800 301 768 557 
Q 742 787 713 1072 
Q 685 1357 653 1747 
Q 621 2138 579 2672 
Q 538 3206 486 3936 
Q 576 4026 685 4118 
Q 794 4211 922 4294 
Q 941 3795 953 3308 
Q 966 2822 976 2281 
Q 986 1741 992 1082 
L 1011 653 
Q 1312 486 1677 486 
Q 1728 486 1728 435 
L 1728 51 
Q 1728 0 1677 0 
z
" transform="scale(0.015625)"/>
       <path id="NotoNaskhArabic-Regular-b5" d="M 998 0 
Q 218 0 218 403 
Q 218 621 333 742 
Q 493 614 697 550 
Q 902 486 1203 486 
Q 1632 486 2074 621 
Q 2022 762 1955 909 
Q 1888 1056 1805 1203 
Q 1632 1510 1549 1670 
Q 1466 1830 1440 1926 
Q 1414 2022 1414 2125 
Q 1414 2445 1747 2547 
Q 1805 2406 1878 2233 
Q 1952 2061 2029 1894 
Q 2106 1728 2157 1606 
Q 2253 1402 2317 1226 
Q 2381 1050 2381 902 
Q 2381 806 2320 630 
Q 2259 454 2150 250 
Q 1690 0 998 0 
z
" transform="scale(0.015625)"/>
       <path id="NotoNaskhArabic-Regular-218" d="M 1235 -1299 
Q 1101 -1299 905 -1238 
Q 710 -1178 521 -1082 
Q 333 -986 218 -890 
L 307 -678 
Q 646 -800 1088 -800 
Q 1568 -800 1910 -515 
Q 2253 -230 2432 314 
L 2426 365 
Q 2042 0 1568 0 
Q 1197 0 982 227 
Q 768 454 768 826 
Q 768 1152 899 1469 
Q 1030 1786 1242 1984 
Q 1453 2176 1670 2176 
Q 1920 2176 2147 1955 
Q 2374 1734 2522 1325 
Q 2598 1120 2633 918 
Q 2669 717 2669 518 
Q 2669 218 2576 -83 
Q 2483 -384 2320 -637 
Q 2157 -890 1939 -1056 
Q 1606 -1299 1235 -1299 
z
M 1722 525 
Q 1882 525 2013 550 
Q 2144 576 2368 666 
Q 2291 966 2150 1196 
Q 2010 1427 1843 1536 
Q 1709 1632 1574 1632 
Q 1440 1632 1312 1533 
Q 1184 1434 1094 1280 
Q 1011 1126 1011 1005 
Q 1011 774 1196 649 
Q 1382 525 1722 525 
z
" transform="scale(0.015625)"/>
       <path id="NotoNaskhArabic-Regular-2de" d="M 877 0 
Q 858 0 858 70 
Q 858 128 874 227 
Q 890 326 915 406 
Q 941 486 954 486 
L 1088 486 
Q 1376 710 1555 864 
Q 1734 1018 1862 1155 
Q 1990 1293 2118 1459 
Q 1830 1792 1472 2089 
Q 1114 2387 768 2586 
L 531 2573 
Q 224 2861 224 3123 
Q 224 3219 262 3312 
Q 301 3405 442 3475 
Q 621 3354 835 3181 
Q 1050 3008 1274 2813 
Q 1498 2618 1690 2426 
Q 1837 2285 1990 2118 
Q 2144 1952 2304 1766 
Q 2426 2048 2426 2317 
Q 2426 2451 2390 2745 
Q 2355 3040 2285 3501 
Q 2253 3718 2233 3846 
Q 2214 3974 2214 4000 
Q 2214 4326 2643 4403 
Q 2688 4205 2749 4016 
Q 2810 3827 2874 3642 
L 2701 3494 
L 2707 3360 
L 2746 2445 
Q 2746 1958 2502 1491 
Q 2566 1389 2646 1248 
Q 2726 1107 2803 963 
Q 2880 819 2931 704 
Q 2982 589 2982 538 
Q 2982 474 2947 374 
Q 2912 275 2867 195 
Q 2822 115 2790 109 
Q 2490 58 2013 29 
Q 1536 0 877 0 
z
M 1594 499 
Q 2157 518 2733 614 
Q 2662 742 2560 892 
Q 2458 1043 2323 1210 
Q 2189 1024 2003 845 
Q 1818 666 1594 499 
z
" transform="scale(0.015625)"/>
      </defs>
      <use xlink:href="#NotoNaskhArabic-Regular-1e5"/>
      <use xlink:href="#NotoNaskhArabic-Regular-1bf" transform="translate(45.59375 0)"/>
      <use xlink:href="#NotoNaskhArabic-Regular-240" transform="translate(70.09375 0)"/>
      <use xlink:href="#NotoNaskhArabic-Regular-4" transform="translate(106.09375 0)"/>
      <use xlink:href="#NotoNaskhArabic-Regular-d3" transform="translate(131.390625 0)"/>
      <use xlink:href="#NotoNaskhArabic-Regular-554" transform="translate(169.984375 0)"/>
      <use xlink:href="#NotoNaskhArabic-Regular-b5" transform="translate(192.078125 0)"/>
      <use xlink:href="#NotoNaskhArabic-Regular-218" transform="translate(233.484375 0)"/>
      <use xlink:href="#NotoNaskhArabic-Regular-2de" transform="translate(280.28125 0)"/>
      <use xlink:href="#NotoNaskhArabic-Regular-d3" transform="translate(332.078125 0)"/>
      <use xlink:href="#NotoNaskhArabic-Regular-554" transform="translate(370.671875 0)"/>
     </g>
    </g>
   </g>
   <g id="patch_3">
    <path d="M 48.094156 293.8685 
L 48.094156 12.81225 
" style="fill: none; stroke: #1f2937; stroke-width: 0.8; stroke-linejoin: miter; stroke-linecap: square"/>
   </g>
   <g id="patch_4">
    <path d="M 48.094156 293.8685 
L 580.255844 293.8685 
" style="fill: none; stroke: #1f2937; stroke-width: 0.8; stroke-linejoin: miter; stroke-linecap: square"/>
   </g>
   <g id="patch_5">
    <path d="M 72.283324 293.8685 
L 101.989319 293.8685 
L 101.989319 73.432225 
L 72.283324 73.432225 
z
" clip-path="url(#pc6adf094d6)" style="fill: #1f8a56"/>
   </g>
   <g id="patch_6">
    <path d="M 157.157596 293.8685 
L 186.863592 293.8685 
L 186.863592 62.93526 
L 157.157596 62.93526 
z
" clip-path="url(#pc6adf094d6)" style="fill: #1f8a56"/>
   </g>
   <g id="patch_7">
    <path d="M 242.031869 293.8685 
L 271.737864 293.8685 
L 271.737864 52.438295 
L 242.031869 52.438295 
z
" clip-path="url(#pc6adf094d6)" style="fill: #1f8a56"/>
   </g>
   <g id="patch_8">
    <path d="M 326.906141 293.8685 
L 356.612136 293.8685 
L 356.612136 57.686777 
L 326.906141 57.686777 
z
" clip-path="url(#pc6adf094d6)" style="fill: #1f8a56"/>
   </g>
   <g id="patch_9">
    <path d="M 411.780413 293.8685 
L 441.486408 293.8685 
L 441.486408 41.941329 
L 411.780413 41.941329 
z
" clip-path="url(#pc6adf094d6)" style="fill: #1f8a56"/>
   </g>
   <g id="patch_10">
    <path d="M 496.654686 293.8685 
L 526.360681 293.8685 
L 526.360681 26.195881 
L 496.654686 26.195881 
z
" clip-path="url(#pc6adf094d6)" style="fill: #1f8a56"/>
   </g>
   <g id="patch_11">
    <path d="M 101.989319 293.8685 
L 131.695314 293.8685 
L 131.695314 89.177674 
L 101.989319 89.177674 
z
" clip-path="url(#pc6adf094d6)" style="fill: #b91c1c"/>
   </g>
   <g id="patch_12">
    <path d="M 186.863592 293.8685 
L 216.569587 293.8685 
L 216.569587 83.929191 
L 186.863592 83.929191 
z
" clip-path="url(#pc6adf094d6)" style="fill: #b91c1c"/>
   </g>
   <g id="patch_13">
    <path d="M 271.737864 293.8685 
L 301.443859 293.8685 
L 301.443859 78.680708 
L 271.737864 78.680708 
z
" clip-path="url(#pc6adf094d6)" style="fill: #b91c1c"/>
   </g>
   <g id="patch_14">
    <path d="M 356.612136 293.8685 
L 386.318131 293.8685 
L 386.318131 62.93526 
L 356.612136 62.93526 
z
" clip-path="url(#pc6adf094d6)" style="fill: #b91c1c"/>
   </g>
   <g id="patch_15">
    <path d="M 441.486408 293.8685 
L 471.192404 293.8685 
L 471.192404 68.183743 
L 441.486408 68.183743 
z
" clip-path="url(#pc6adf094d6)" style="fill: #b91c1c"/>
   </g>
   <g id="patch_16">
    <path d="M 526.360681 293.8685 
L 556.066676 293.8685 
L 556.066676 62.93526 
L 526.360681 62.93526 
z
" clip-path="url(#pc6adf094d6)" style="fill: #b91c1c"/>
   </g>
   <g id="legend_1">
    <g id="patch_17">
     <path d="M 56.194156 30.53325 
L 74.194156 30.53325 
L 74.194156 24.23325 
L 56.194156 24.23325 
z
" style="fill: #1f8a56"/>
    </g>
    <g id="text_14">
     <!-- вҖӢпә•пәҚпәӯпә©пәҺпәјп»ҹпәҚ -->
     <g style="fill: #1f2937" transform="translate(81.394156 30.53325) scale(0.09 -0.09)">
      <defs>
       <path id="NotoNaskhArabic-Regular-3" d="M 666 0 
Q 646 1126 604 2057 
Q 563 2989 493 3725 
Q 467 3987 566 4118 
Q 666 4250 915 4294 
Q 941 4173 1001 3965 
Q 1062 3757 1139 3533 
L 966 3386 
Q 992 2912 1001 2413 
Q 1011 1914 1001 1338 
Q 992 762 960 51 
L 666 0 
z
" transform="scale(0.015625)"/>
       <path id="NotoNaskhArabic-Regular-1c1" d="M -6 0 
Q -64 0 -64 51 
L -64 435 
Q -64 486 -6 486 
Q 378 486 704 659 
Q 685 902 665 1139 
Q 646 1376 627 1606 
Q 570 2208 512 2790 
Q 454 3373 384 3936 
Q 474 4032 579 4121 
Q 685 4211 806 4294 
Q 826 3949 851 3497 
Q 877 3046 915 2483 
Q 947 2016 960 1609 
Q 973 1203 979 864 
Q 979 755 915 572 
Q 851 390 755 224 
Q 640 0 -6 0 
z
" transform="scale(0.015625)"/>
       <path id="NotoNaskhArabic-Regular-111" d="M 2534 0 
Q 2227 0 1900 45 
Q 1574 90 1286 173 
Q 998 256 806 358 
Q 781 333 755 301 
Q 730 269 698 237 
Q 486 0 0 0 
Q -51 0 -51 51 
L -51 435 
Q -51 486 0 486 
Q 288 486 457 592 
Q 627 698 800 998 
Q 826 1043 848 1088 
Q 870 1133 896 1178 
Q 966 1286 1101 1286 
Q 1190 1286 1248 1229 
Q 1184 1069 1136 957 
Q 1088 845 1062 787 
Q 1139 749 1216 717 
Q 1293 685 1376 659 
Q 2003 1478 2528 1888 
Q 3040 2285 3469 2285 
Q 3648 2285 3913 2137 
Q 4179 1990 4390 1760 
Q 4595 1523 4595 1350 
Q 4595 966 4352 666 
Q 4634 486 5030 486 
Q 5088 486 5088 435 
L 5088 51 
Q 5088 0 5030 0 
Q 4755 0 4489 109 
Q 4224 218 4051 397 
Q 3872 282 3638 195 
Q 3405 109 3142 58 
Q 2848 0 2534 0 
z
M 2598 486 
Q 3430 486 4307 1037 
Q 4115 1376 3843 1561 
Q 3571 1747 3309 1747 
Q 3002 1747 2586 1452 
Q 2170 1158 1677 582 
Q 2176 486 2598 486 
z
" transform="scale(0.015625)"/>
       <path id="NotoNaskhArabic-Regular-35" d="M 2010 0 
Q 1254 0 851 272 
Q 448 544 448 1088 
Q 448 1498 531 1792 
L 762 1792 
Q 755 1766 748 1660 
Q 742 1555 742 1478 
Q 742 1107 883 905 
Q 1024 704 1331 595 
Q 1645 486 2144 486 
Q 2739 486 3308 608 
Q 3878 730 4320 941 
Q 4288 1075 4230 1251 
Q 4173 1427 4090 1645 
Q 3968 1965 3968 2074 
Q 3968 2208 4077 2352 
Q 4186 2496 4390 2611 
Q 4493 2138 4560 1795 
Q 4627 1453 4627 1222 
Q 4627 1005 4403 570 
Q 3981 301 3376 150 
Q 2771 0 2010 0 
z
M 2790 2099 
Q 2649 2208 2543 2307 
Q 2438 2406 2368 2496 
Q 2400 2528 2502 2637 
Q 2604 2746 2777 2925 
Q 2816 2886 2915 2790 
Q 3014 2694 3174 2541 
Q 3052 2349 2790 2099 
z
M 1830 2010 
Q 1689 2125 1580 2224 
Q 1472 2323 1401 2400 
Q 1568 2560 1817 2835 
Q 1856 2790 1952 2694 
Q 2048 2598 2208 2451 
Q 2150 2355 2054 2246 
Q 1958 2138 1830 2010 
z
" transform="scale(0.015625)"/>
      </defs>
      <use xlink:href="#NotoNaskhArabic-Regular-3"/>
      <use xlink:href="#NotoNaskhArabic-Regular-1c1" transform="translate(23.796875 0)"/>
      <use xlink:href="#NotoNaskhArabic-Regular-111" transform="translate(45 0)"/>
      <use xlink:href="#NotoNaskhArabic-Regular-4" transform="translate(122.796875 0)"/>
      <use xlink:href="#NotoNaskhArabic-Regular-b5" transform="translate(148.09375 0)"/>
      <use xlink:href="#NotoNaskhArabic-Regular-d3" transform="translate(189.5 0)"/>
      <use xlink:href="#NotoNaskhArabic-Regular-3" transform="translate(228.09375 0)"/>
      <use xlink:href="#NotoNaskhArabic-Regular-35" transform="translate(251.890625 0)"/>
      <use xlink:href="#NotoNaskhArabic-Regular-554" transform="translate(329.09375 0)"/>
     </g>
    </g>
    <g id="patch_18">
     <path d="M 56.194156 50.36025 
L 74.194156 50.36025 
L 74.194156 44.06025 
L 56.194156 44.06025 
z
" style="fill: #b91c1c"/>
    </g>
    <g id="text_15">
     <!-- вҖӢпә•пәҚпә©пәӯпәҚп»®п»ҹпәҚ -->
     <g style="fill: #1f2937" transform="translate(81.394156 50.36025) scale(0.09 -0.09)">
      <defs>
       <path id="NotoNaskhArabic-Regular-219" d="M 1235 -1299 
Q 1101 -1299 905 -1238 
Q 710 -1178 521 -1082 
Q 333 -986 218 -890 
L 307 -678 
Q 646 -800 1088 -800 
Q 1485 -800 1792 -605 
Q 2099 -410 2310 6 
Q 1997 19 1763 44 
Q 1530 70 1376 115 
Q 1037 205 902 374 
Q 768 544 768 877 
Q 768 1203 899 1523 
Q 1030 1843 1242 2035 
Q 1453 2227 1670 2227 
Q 1933 2227 2163 1990 
Q 2394 1754 2534 1338 
Q 2605 1126 2637 918 
Q 2669 710 2669 486 
L 3053 486 
Q 3104 486 3104 435 
L 3104 51 
Q 3104 0 3053 0 
L 2605 0 
Q 2509 -365 2304 -669 
Q 2099 -973 1818 -1139 
Q 1542 -1299 1235 -1299 
z
M 2413 493 
Q 2362 826 2234 1094 
Q 2106 1363 1933 1523 
Q 1760 1683 1574 1683 
Q 1440 1683 1309 1580 
Q 1178 1478 1094 1331 
Q 1011 1184 1011 1062 
Q 1011 838 1177 720 
Q 1344 602 1632 550 
Q 1779 525 1968 515 
Q 2157 506 2413 493 
z
" transform="scale(0.015625)"/>
      </defs>
      <use xlink:href="#NotoNaskhArabic-Regular-3"/>
      <use xlink:href="#NotoNaskhArabic-Regular-1c1" transform="translate(23.796875 0)"/>
      <use xlink:href="#NotoNaskhArabic-Regular-219" transform="translate(45 0)"/>
      <use xlink:href="#NotoNaskhArabic-Regular-3" transform="translate(91.796875 0)"/>
      <use xlink:href="#NotoNaskhArabic-Regular-d3" transform="translate(115.59375 0)"/>
      <use xlink:href="#NotoNaskhArabic-Regular-b5" transform="translate(154.1875 0)"/>
      <use xlink:href="#NotoNaskhArabic-Regular-3" transform="translate(195.59375 0)"/>
      <use xlink:href="#NotoNaskhArabic-Regular-35" transform="translate(219.390625 0)"/>
      <use xlink:href="#NotoNaskhArabic-Regular-554" transform="translate(296.59375 0)"/>
     </g>
    </g>
   </g>
  </g>
  <g id="axes_2">
   <g id="matplotlib.axis_3">
    <g id="ytick_7">
     <g id="line2d_19">
      <defs>
       <path id="m887c643557" d="M 0 0 
L 3.5 0 
" style="stroke: #555555; stroke-width: 0.8"/>
      </defs>
      <g>
       <use xlink:href="#m887c643557" x="580.255844" y="293.8685" style="fill: #555555; stroke: #555555; stroke-width: 0.8"/>
      </g>
     </g>
     <g id="text_16">
      <!-- 0 -->
      <g style="fill: #1f2937" transform="translate(587.255844 299.48075) scale(0.105 -0.105)">
       <use xlink:href="#NotoNaskhArabic-Regular-4cc"/>
      </g>
     </g>
    </g>
    <g id="ytick_8">
     <g id="line2d_20">
      <g>
       <use xlink:href="#m887c643557" x="580.255844" y="247.025792" style="fill: #555555; stroke: #555555; stroke-width: 0.8"/>
      </g>
     </g>
     <g id="text_17">
      <!-- 2 -->
      <g style="fill: #1f2937" transform="translate(587.255844 252.638042) scale(0.105 -0.105)">
       <use xlink:href="#NotoNaskhArabic-Regular-4ce"/>
      </g>
     </g>
    </g>
    <g id="ytick_9">
     <g id="line2d_21">
      <g>
       <use xlink:href="#m887c643557" x="580.255844" y="200.183083" style="fill: #555555; stroke: #555555; stroke-width: 0.8"/>
      </g>
     </g>
     <g id="text_18">
      <!-- 4 -->
      <g style="fill: #1f2937" transform="translate(587.255844 205.795333) scale(0.105 -0.105)">
       <use xlink:href="#NotoNaskhArabic-Regular-4d0"/>
      </g>
     </g>
    </g>
    <g id="ytick_10">
     <g id="line2d_22">
      <g>
       <use xlink:href="#m887c643557" x="580.255844" y="153.340375" style="fill: #555555; stroke: #555555; stroke-width: 0.8"/>
      </g>
     </g>
     <g id="text_19">
      <!-- 6 -->
      <g style="fill: #1f2937" transform="translate(587.255844 158.952625) scale(0.105 -0.105)">
       <use xlink:href="#NotoNaskhArabic-Regular-4d2"/>
      </g>
     </g>
    </g>
    <g id="ytick_11">
     <g id="line2d_23">
      <g>
       <use xlink:href="#m887c643557" x="580.255844" y="106.497667" style="fill: #555555; stroke: #555555; stroke-width: 0.8"/>
      </g>
     </g>
     <g id="text_20">
      <!-- 8 -->
      <g style="fill: #1f2937" transform="translate(587.255844 112.109917) scale(0.105 -0.105)">
       <defs>
        <path id="NotoNaskhArabic-Regular-4d4" d="M 1843 -64 
Q 1114 -64 714 256 
Q 314 576 314 1165 
Q 314 1946 1261 2387 
Q 832 2630 646 2912 
Q 461 3194 461 3546 
Q 461 4045 832 4339 
Q 1203 4634 1824 4634 
Q 2451 4634 2822 4342 
Q 3194 4051 3194 3539 
Q 3194 3200 2986 2928 
Q 2778 2656 2323 2419 
Q 2874 2150 3107 1856 
Q 3341 1562 3341 1184 
Q 3341 621 2937 278 
Q 2534 -64 1843 -64 
z
M 1850 2637 
Q 2278 2816 2457 3030 
Q 2637 3245 2637 3520 
Q 2637 3834 2416 4006 
Q 2195 4179 1818 4179 
Q 1446 4179 1228 4003 
Q 1011 3827 1011 3520 
Q 1011 3322 1094 3171 
Q 1178 3021 1338 2906 
Q 1498 2784 1850 2637 
z
M 1830 384 
Q 2278 384 2534 595 
Q 2790 806 2790 1178 
Q 2790 1478 2547 1712 
Q 2304 1946 1728 2157 
Q 1280 1965 1072 1728 
Q 864 1491 864 1158 
Q 864 800 1123 592 
Q 1382 384 1830 384 
z
" transform="scale(0.015625)"/>
       </defs>
       <use xlink:href="#NotoNaskhArabic-Regular-4d4"/>
      </g>
     </g>
    </g>
    <g id="ytick_12">
     <g id="line2d_24">
      <g>
       <use xlink:href="#m887c643557" x="580.255844" y="59.654958" style="fill: #555555; stroke: #555555; stroke-width: 0.8"/>
      </g>
     </g>
     <g id="text_21">
      <!-- 10 -->
      <g style="fill: #1f2937" transform="translate(587.255844 65.267208) scale(0.105 -0.105)">
       <use xlink:href="#NotoNaskhArabic-Regular-4cd"/>
       <use xlink:href="#NotoNaskhArabic-Regular-4cc" transform="translate(57.203125 0)"/>
      </g>
     </g>
    </g>
    <g id="ytick_13">
     <g id="line2d_25">
      <g>
       <use xlink:href="#m887c643557" x="580.255844" y="12.81225" style="fill: #555555; stroke: #555555; stroke-width: 0.8"/>
      </g>
     </g>
     <g id="text_22">
      <!-- 12 -->
      <g style="fill: #1f2937" transform="translate(587.255844 18.4245) scale(0.105 -0.105)">
       <use xlink:href="#NotoNaskhArabic-Regular-4cd"/>
       <use xlink:href="#NotoNaskhArabic-Regular-4ce" transform="translate(57.203125 0)"/>
      </g>
     </g>
    </g>
    <g id="text_23">
     <!-- вҖӢ($пәӯпәҺп»ҙп» п»Ј) п»ұпәӯпәҺпә пәҳп»ҹпәҚ п»ҘпәҚпә°п»ҙп»Өп»ҹпәҚ -->
     <g style="fill: #1f2937" transform="translate(614.493 199.236039) rotate(-90) scale(0.105 -0.105)">
      <defs>
       <path id="NotoNaskhArabic-Regular-1e4" d="M 2016 0 
Q 1414 0 902 192 
Q 595 77 400 38 
Q 205 0 0 0 
Q -51 0 -51 51 
L -51 435 
Q -51 486 0 486 
Q 109 486 211 505 
Q 314 525 416 550 
Q 371 640 371 749 
Q 371 928 460 1152 
Q 550 1376 700 1590 
Q 851 1805 1037 1952 
Q 1318 2176 1568 2176 
Q 1677 2176 1760 2051 
Q 1843 1926 1926 1734 
Q 1971 1645 2009 1542 
Q 2048 1440 2086 1331 
Q 2163 1114 2252 928 
Q 2342 742 2445 614 
Q 2554 486 2682 486 
Q 2752 486 2752 422 
L 2752 70 
Q 2752 0 2682 0 
Q 2362 0 2099 282 
L 2016 0 
z
M 1978 442 
Q 1837 646 1728 979 
Q 1619 1312 1581 1683 
Q 1421 1613 1241 1475 
Q 1062 1338 918 1178 
Q 774 1018 704 877 
Q 1133 525 1978 442 
z
" transform="scale(0.015625)"/>
       <path id="NotoNaskhArabic-Regular-d6" d="M 710 -1306 
Q 608 -1306 451 -1248 
Q 294 -1190 134 -1107 
Q -26 -1024 -128 -947 
L -45 -736 
Q 134 -768 284 -787 
Q 435 -806 563 -806 
Q 1043 -806 1385 -518 
Q 1728 -230 1907 314 
Q 1862 416 1814 515 
Q 1766 614 1709 717 
Q 1491 1107 1388 1340 
Q 1286 1574 1286 1734 
Q 1286 1901 1382 2000 
Q 1478 2099 1658 2182 
Q 1683 2099 1712 2000 
Q 1741 1901 1786 1792 
Q 1888 1530 1955 1334 
Q 2022 1139 2054 1018 
Q 2093 896 2115 797 
Q 2138 698 2144 614 
Q 2362 486 2643 486 
Q 2694 486 2694 435 
L 2694 51 
Q 2694 0 2643 0 
Q 2342 0 2118 154 
Q 2048 -288 1849 -617 
Q 1651 -947 1356 -1126 
Q 1062 -1306 710 -1306 
z
M 1299 2560 
Q 1018 2771 839 2976 
Q 1165 3303 1287 3443 
Q 1389 3335 1494 3229 
Q 1600 3123 1709 3027 
Q 1562 2816 1299 2560 
z
" transform="scale(0.015625)"/>
       <path id="NotoNaskhArabic-Regular-1e7" d="M 1594 -1677 
Q 1050 -1677 742 -1363 
Q 435 -1050 435 -474 
Q 435 -346 444 -237 
Q 454 -128 480 9 
Q 506 147 557 358 
L 794 301 
Q 723 6 723 -154 
Q 723 -621 956 -883 
Q 1190 -1146 1606 -1146 
Q 1926 -1146 2249 -1040 
Q 2573 -934 2829 -752 
Q 3085 -570 3187 -346 
Q 2976 109 2873 416 
Q 2771 723 2771 877 
Q 2771 1043 2864 1174 
Q 2957 1306 3187 1446 
Q 3200 1338 3238 1130 
Q 3277 922 3334 621 
Q 3379 390 3401 208 
Q 3424 26 3424 -109 
Q 3424 -499 3174 -860 
Q 2925 -1222 2490 -1446 
Q 2061 -1677 1594 -1677 
z
M 1766 1504 
Q 1485 1715 1306 1920 
Q 1632 2247 1754 2387 
Q 1856 2279 1961 2173 
Q 2067 2067 2176 1971 
Q 2029 1760 1766 1504 
z
" transform="scale(0.015625)"/>
       <path id="NotoNaskhArabic-Regular-37" d="M 0 0 
Q -51 0 -51 51 
L -51 435 
Q -51 486 0 486 
Q 397 486 672 521 
Q 947 557 1062 640 
Q 1133 685 1229 841 
Q 1325 998 1510 1350 
Q 1568 1459 1709 1459 
Q 1786 1459 1869 1408 
Q 1830 1312 1763 1161 
Q 1696 1011 1638 883 
Q 1581 755 1555 730 
Q 1773 595 1958 540 
Q 2144 486 2362 486 
Q 2413 486 2413 435 
L 2413 51 
Q 2413 0 2362 0 
Q 1766 0 1350 371 
L 1248 237 
Q 1203 192 1001 134 
Q 800 77 528 38 
Q 256 0 0 0 
z
M 1728 2035 
Q 1587 2144 1481 2243 
Q 1376 2342 1306 2432 
Q 1338 2464 1440 2573 
Q 1542 2682 1715 2861 
Q 1754 2822 1853 2726 
Q 1952 2630 2112 2477 
Q 1990 2285 1728 2035 
z
M 768 1946 
Q 627 2061 518 2160 
Q 410 2259 339 2336 
Q 506 2496 755 2771 
Q 794 2726 890 2630 
Q 986 2534 1146 2387 
Q 1088 2291 992 2182 
Q 896 2074 768 1946 
z
" transform="scale(0.015625)"/>
       <path id="NotoNaskhArabic-Regular-73" d="M 0 0 
Q -51 0 -51 51 
L -51 435 
Q -51 486 0 486 
Q 602 486 1043 553 
Q 1485 621 1837 781 
Q 2253 966 2477 1011 
Q 2355 1069 2230 1142 
Q 2106 1216 1984 1306 
Q 1734 1491 1568 1564 
Q 1402 1638 1235 1638 
Q 1037 1638 902 1587 
Q 768 1536 531 1389 
Q 442 1491 442 1638 
Q 442 1882 653 2029 
Q 864 2176 1210 2176 
Q 1414 2176 1622 2096 
Q 1830 2016 2106 1824 
Q 2438 1600 2672 1481 
Q 2906 1363 3142 1312 
Q 3386 1254 3853 1254 
L 3603 781 
Q 3552 787 3440 793 
Q 3328 800 3213 813 
Q 3098 826 3021 832 
Q 3091 717 3171 646 
Q 3251 576 3379 544 
Q 3610 486 4314 486 
Q 4371 486 4371 435 
L 4371 51 
Q 4371 0 4314 0 
Q 3840 6 3549 73 
Q 3258 141 3072 288 
Q 2982 365 2896 483 
Q 2810 602 2733 762 
Q 2560 698 2387 598 
Q 2214 499 2042 410 
Q 1805 288 1603 208 
Q 1402 128 1181 83 
Q 960 38 678 19 
Q 397 0 0 0 
z
M 2272 -1178 
Q 2131 -1069 2015 -963 
Q 1900 -858 1811 -755 
Q 2099 -480 2259 -288 
Q 2483 -525 2681 -710 
Q 2528 -922 2272 -1178 
z
" transform="scale(0.015625)"/>
       <path id="NotoNaskhArabic-Regular-23e" d="M 1594 -1677 
Q 1050 -1677 742 -1363 
Q 435 -1050 435 -474 
Q 435 -346 444 -237 
Q 454 -128 480 9 
Q 506 147 557 358 
L 794 301 
Q 723 6 723 -154 
Q 723 -621 956 -883 
Q 1190 -1146 1606 -1146 
Q 1837 -1146 2105 -1091 
Q 2374 -1037 2636 -937 
Q 2899 -838 3098 -710 
Q 3405 -518 3501 -307 
Q 3418 -294 3338 -281 
Q 3258 -269 3168 -262 
Q 2682 -224 2445 -144 
Q 2208 -64 2080 115 
Q 1958 294 1958 582 
Q 1958 781 2051 1017 
Q 2144 1254 2310 1488 
Q 2477 1722 2682 1901 
Q 2995 2176 3245 2176 
Q 3462 2176 3571 2029 
Q 3680 1882 3738 1619 
L 3507 1555 
Q 3462 1619 3420 1635 
Q 3379 1651 3302 1651 
Q 3194 1651 3037 1571 
Q 2880 1491 2723 1353 
Q 2566 1216 2432 1050 
Q 2234 781 2189 557 
Q 2362 390 2893 314 
Q 3123 282 3283 240 
Q 3443 198 3539 134 
Q 3648 58 3689 -48 
Q 3731 -154 3731 -301 
Q 3731 -493 3568 -710 
Q 3405 -928 3133 -1126 
Q 2861 -1325 2522 -1466 
Q 2022 -1677 1594 -1677 
z
M 2266 -2682 
Q 1997 -2470 1850 -2291 
Q 1991 -2157 2259 -1862 
Q 2291 -1888 2387 -1984 
Q 2483 -2080 2656 -2246 
Q 2592 -2336 2496 -2445 
Q 2400 -2554 2266 -2682 
z
M 1312 -2778 
Q 1024 -2547 883 -2387 
Q 973 -2310 1075 -2201 
Q 1178 -2093 1299 -1952 
Q 1325 -1984 1424 -2080 
Q 1523 -2176 1690 -2336 
Q 1632 -2432 1536 -2541 
Q 1440 -2650 1312 -2778 
z
" transform="scale(0.015625)"/>
       <path id="DejaVuSans-b" d="M 1984 4856 
Q 1566 4138 1362 3434 
Q 1159 2731 1159 2009 
Q 1159 1288 1364 580 
Q 1569 -128 1984 -844 
L 1484 -844 
Q 1016 -109 783 600 
Q 550 1309 550 2009 
Q 550 2706 781 3412 
Q 1013 4119 1484 4856 
L 1984 4856 
z
" transform="scale(0.015625)"/>
       <path id="DejaVuSans-7" d="M 2163 -941 
L 1850 -941 
L 1847 0 
Q 1519 6 1191 76 
Q 863 147 531 288 
L 531 850 
Q 850 650 1176 548 
Q 1503 447 1850 444 
L 1850 1869 
Q 1159 1981 845 2250 
Q 531 2519 531 2988 
Q 531 3497 872 3790 
Q 1213 4084 1850 4128 
L 1850 4863 
L 2163 4863 
L 2163 4138 
Q 2453 4125 2725 4076 
Q 2997 4028 3256 3944 
L 3256 3397 
Q 2997 3528 2723 3600 
Q 2450 3672 2163 3684 
L 2163 2350 
Q 2872 2241 3206 1959 
Q 3541 1678 3541 1191 
Q 3541 663 3186 358 
Q 2831 53 2163 6 
L 2163 -941 
z
M 1850 2406 
L 1850 3688 
Q 1488 3647 1297 3481 
Q 1106 3316 1106 3041 
Q 1106 2772 1282 2622 
Q 1459 2472 1850 2406 
z
M 2163 1806 
L 2163 453 
Q 2559 506 2761 678 
Q 2963 850 2963 1131 
Q 2963 1406 2770 1568 
Q 2578 1731 2163 1806 
z
" transform="scale(0.015625)"/>
       <path id="DejaVuSans-c" d="M 513 4856 
L 1013 4856 
Q 1481 4119 1714 3412 
Q 1947 2706 1947 2009 
Q 1947 1309 1714 600 
Q 1481 -109 1013 -844 
L 513 -844 
Q 928 -128 1133 580 
Q 1338 1288 1338 2009 
Q 1338 2731 1133 3434 
Q 928 4138 513 4856 
z
" transform="scale(0.015625)"/>
      </defs>
      <use xlink:href="#NotoNaskhArabic-Regular-3"/>
      <use xlink:href="#NotoNaskhArabic-Regular-1c1" transform="translate(23.796875 0)"/>
      <use xlink:href="#NotoNaskhArabic-Regular-1e4" transform="translate(45 0)"/>
      <use xlink:href="#NotoNaskhArabic-Regular-240" transform="translate(86.296875 0)"/>
      <use xlink:href="#NotoNaskhArabic-Regular-d6" transform="translate(122.296875 0)"/>
      <use xlink:href="#NotoNaskhArabic-Regular-3" transform="translate(162.703125 0)"/>
      <use xlink:href="#NotoNaskhArabic-Regular-1e7" transform="translate(186.5 0)"/>
      <use xlink:href="#NotoNaskhArabic-Regular-554" transform="translate(245.09375 0)"/>
      <use xlink:href="#NotoNaskhArabic-Regular-3" transform="translate(267.1875 0)"/>
      <use xlink:href="#NotoNaskhArabic-Regular-1c1" transform="translate(290.984375 0)"/>
      <use xlink:href="#NotoNaskhArabic-Regular-37" transform="translate(312.1875 0)"/>
      <use xlink:href="#NotoNaskhArabic-Regular-73" transform="translate(348.1875 0)"/>
      <use xlink:href="#NotoNaskhArabic-Regular-4" transform="translate(414.78125 0)"/>
      <use xlink:href="#NotoNaskhArabic-Regular-d3" transform="translate(440.078125 0)"/>
      <use xlink:href="#NotoNaskhArabic-Regular-23e" transform="translate(478.671875 0)"/>
      <use xlink:href="#NotoNaskhArabic-Regular-554" transform="translate(540.46875 0)"/>
      <use xlink:href="#DejaVuSans-b" transform="translate(562.5625 0)"/>
      <use xlink:href="#NotoNaskhArabic-Regular-1e5" transform="translate(601.578125 0)"/>
      <use xlink:href="#NotoNaskhArabic-Regular-1bf" transform="translate(647.171875 0)"/>
      <use xlink:href="#NotoNaskhArabic-Regular-240" transform="translate(671.671875 0)"/>
      <use xlink:href="#NotoNaskhArabic-Regular-4" transform="translate(707.671875 0)"/>
      <use xlink:href="#NotoNaskhArabic-Regular-d3" transform="translate(732.96875 0)"/>
      <use xlink:href="#DejaVuSans-7" transform="translate(771.5625 0)"/>
      <use xlink:href="#DejaVuSans-c" transform="translate(835.1875 0)"/>
      <use xlink:href="#NotoNaskhArabic-Regular-554" transform="translate(874.203125 0)"/>
     </g>
    </g>
   </g>
   <g id="line2d_26">
    <path d="M 101.989319 223.604437 
L 186.863592 200.183083 
L 271.737864 176.761729 
L 356.612136 270.447146 
L 441.486408 176.761729 
L 526.360681 129.919021 
" clip-path="url(#pc6adf094d6)" style="fill: none; stroke: #1f2937; stroke-width: 2.2; stroke-linecap: square"/>
    <defs>
     <path id="m06a0440d19" d="M 0 2.5 
C 0.663008 2.5 1.29895 2.236584 1.767767 1.767767 
C 2.236584 1.29895 2.5 0.663008 2.5 0 
C 2.5 -0.663008 2.236584 -1.29895 1.767767 -1.767767 
C 1.29895 -2.236584 0.663008 -2.5 0 -2.5 
C -0.663008 -2.5 -1.29895 -2.236584 -1.767767 -1.767767 
C -2.236584 -1.29895 -2.5 -0.663008 -2.5 0 
C -2.5 0.663008 -2.236584 1.29895 -1.767767 1.767767 
C -1.29895 2.236584 -0.663008 2.5 0 2.5 
z
" style="stroke: #1f2937"/>
    </defs>
    <g clip-path="url(#pc6adf094d6)">
     <use xlink:href="#m06a0440d19" x="101.989319" y="223.604437" style="fill: #1f2937; stroke: #1f2937"/>
     <use xlink:href="#m06a0440d19" x="186.863592" y="200.183083" style="fill: #1f2937; stroke: #1f2937"/>
     <use xlink:href="#m06a0440d19" x="271.737864" y="176.761729" style="fill: #1f2937; stroke: #1f2937"/>
     <use xlink:href="#m06a0440d19" x="356.612136" y="270.447146" style="fill: #1f2937; stroke: #1f2937"/>
     <use xlink:href="#m06a0440d19" x="441.486408" y="176.761729" style="fill: #1f2937; stroke: #1f2937"/>
     <use xlink:href="#m06a0440d19" x="526.360681" y="129.919021" style="fill: #1f2937; stroke: #1f2937"/>
    </g>
   </g>
   <g id="patch_19">
    <path d="M 48.094156 293.8685 
L 48.094156 12.81225 
" style="fill: none; stroke: #1f2937; stroke-width: 0.8; stroke-linejoin: miter; stroke-linecap: square"/>
   </g>
   <g id="patch_20">
    <path d="M 580.255844 293.8685 
L 580.255844 12.81225 
" style="fill: none; stroke: #1f2937; stroke-width: 0.8; stroke-linejoin: miter; stroke-linecap: square"/>
   </g>
   <g id="patch_21">
    <path d="M 48.094156 293.8685 
L 580.255844 293.8685 
" style="fill: none; stroke: #1f2937; stroke-width: 0.8; stroke-linejoin: miter; stroke-linecap: square"/>
   </g>
  </g>
 </g>
 <defs>
  <clipPath id="pc6adf094d6">
   <rect x="48.094156" y="12.81225" width="532.161688" height="281.05625"/>
  </clipPath>
 </defs>
</svg>
