<?xml version="1.0" encoding="utf-8" standalone="no"?>
<!DOCTYPE svg PUBLIC "-//W3C//DTD SVG 1.1//EN"
  "http://www.w3.org/Graphics/SVG/1.1/DTD/svg11.dtd">
<svg xmlns:xlink="http://www.w3.org/1999/xlink" width="757.95pt" height="325.95pt" viewBox="0 0 757.95 325.95" xmlns="http://www.w3.org/2000/svg" version="1.1">
 <metadata>
  <rdf:RDF xmlns:dc="http://purl.org/dc/elements/1.1/" xmlns:cc="http://creativecommons.org/ns#" xmlns:rdf="http://www.w3.org/1999/02/22-rdf-syntax-ns#">
   <cc:Work>
    <dc:type rdf:resource="http://purl.org/dc/dcmitype/StillImage"/>
    <dc:date>2026-07-19T01:11:10.108986</dc:date>
    <dc:format>image/svg+xml</dc:format>
    <dc:creator>
     <cc:Agent>
      <dc:title>Matplotlib v3.11.1, https://matplotlib.org/</dc:title>
     </cc:Agent>
    </dc:creator>
   </cc:Work>
  </rdf:RDF>
 </metadata>
 <defs>
  <style type="text/css">*{stroke-linejoin: round; stroke-linecap: butt}</style>
 </defs>
 <g id="figure_1">
  <g id="patch_1">
   <path d="M 0 325.95 
L 757.95 325.95 
L 757.95 0 
L 0 0 
z
" style="fill: #ffffff"/>
  </g>
  <g id="axes_1">
   <g id="patch_2">
    <path d="M 7.2 318.75 
L 377.6625 318.75 
L 377.6625 23.3785 
L 7.2 23.3785 
z
" style="fill: #ffffff"/>
   </g>
   <g id="matplotlib.axis_1"/>
   <g id="matplotlib.axis_2"/>
   <g id="patch_3">
    <path d="M 173.908125 302.854521 
L 193.313304 302.854521 
L 193.313304 284.963726 
L 173.908125 284.963726 
z
" clip-path="url(#pe68300cf7e)" style="fill: #e0a94a; opacity: 0.22; stroke: #b7791f; stroke-width: 1.4; stroke-linejoin: miter"/>
   </g>
   <g id="patch_4">
    <path d="M 377.6625 318.75 
L 377.6625 23.3785 
" style="fill: none; stroke: #1f2937; stroke-width: 0.8; stroke-linejoin: miter; stroke-linecap: square"/>
   </g>
   <g id="patch_5">
    <path d="M 7.2 318.75 
L 377.6625 318.75 
" style="fill: none; stroke: #1f2937; stroke-width: 0.8; stroke-linejoin: miter; stroke-linecap: square"/>
   </g>
   <g id="line2d_1">
    <path d="M 24.841071 217.829953 
L 24.841071 214.541669 
" clip-path="url(#pe68300cf7e)" style="fill: none; stroke: #b91c1c; stroke-width: 1.1; stroke-linecap: round"/>
   </g>
   <g id="line2d_2">
    <path d="M 42.482143 220.849201 
L 42.482143 218.046607 
" clip-path="url(#pe68300cf7e)" style="fill: none; stroke: #b91c1c; stroke-width: 1.1; stroke-linecap: round"/>
   </g>
   <g id="line2d_3">
    <path d="M 60.123214 234.864232 
L 60.123214 220.029772 
" clip-path="url(#pe68300cf7e)" style="fill: none; stroke: #b91c1c; stroke-width: 1.1; stroke-linecap: round"/>
   </g>
   <g id="line2d_4">
    <path d="M 77.764286 240.655634 
L 77.764286 230.105621 
" clip-path="url(#pe68300cf7e)" style="fill: none; stroke: #b91c1c; stroke-width: 1.1; stroke-linecap: round"/>
   </g>
   <g id="line2d_5">
    <path d="M 95.405357 252.298485 
L 95.405357 238.547754 
" clip-path="url(#pe68300cf7e)" style="fill: none; stroke: #b91c1c; stroke-width: 1.1; stroke-linecap: round"/>
   </g>
   <g id="line2d_6">
    <path d="M 113.046429 267.981364 
L 113.046429 246.488349 
" clip-path="url(#pe68300cf7e)" style="fill: none; stroke: #b91c1c; stroke-width: 1.1; stroke-linecap: round"/>
   </g>
   <g id="line2d_7">
    <path d="M 130.6875 278.80452 
L 130.6875 257.399443 
" clip-path="url(#pe68300cf7e)" style="fill: none; stroke: #b91c1c; stroke-width: 1.1; stroke-linecap: round"/>
   </g>
   <g id="line2d_8">
    <path d="M 148.328571 284.398929 
L 148.328571 278.596455 
" clip-path="url(#pe68300cf7e)" style="fill: none; stroke: #1f8a56; stroke-width: 1.1; stroke-linecap: round"/>
   </g>
   <g id="line2d_9">
    <path d="M 165.969643 289.456715 
L 165.969643 284.596366 
" clip-path="url(#pe68300cf7e)" style="fill: none; stroke: #b91c1c; stroke-width: 1.1; stroke-linecap: round"/>
   </g>
   <g id="line2d_10">
    <path d="M 183.610714 301.65749 
L 183.610714 286.120571 
" clip-path="url(#pe68300cf7e)" style="fill: none; stroke: #b91c1c; stroke-width: 1.1; stroke-linecap: round"/>
   </g>
   <g id="line2d_11">
    <path d="M 201.251786 305.324023 
L 201.251786 259.701025 
" clip-path="url(#pe68300cf7e)" style="fill: none; stroke: #1f8a56; stroke-width: 1.1; stroke-linecap: round"/>
   </g>
   <g id="line2d_12">
    <path d="M 218.892857 259.198274 
L 218.892857 234.066415 
" clip-path="url(#pe68300cf7e)" style="fill: none; stroke: #1f8a56; stroke-width: 1.1; stroke-linecap: round"/>
   </g>
   <g id="line2d_13">
    <path d="M 236.533929 234.994804 
L 236.533929 185.878951 
" clip-path="url(#pe68300cf7e)" style="fill: none; stroke: #1f8a56; stroke-width: 1.1; stroke-linecap: round"/>
   </g>
   <g id="line2d_14">
    <path d="M 254.175 191.201949 
L 254.175 173.005682 
" clip-path="url(#pe68300cf7e)" style="fill: none; stroke: #1f8a56; stroke-width: 1.1; stroke-linecap: round"/>
   </g>
   <g id="line2d_15">
    <path d="M 271.816071 172.429926 
L 271.816071 143.218021 
" clip-path="url(#pe68300cf7e)" style="fill: none; stroke: #1f8a56; stroke-width: 1.1; stroke-linecap: round"/>
   </g>
   <g id="line2d_16">
    <path d="M 289.457143 149.957046 
L 289.457143 113.121742 
" clip-path="url(#pe68300cf7e)" style="fill: none; stroke: #1f8a56; stroke-width: 1.1; stroke-linecap: round"/>
   </g>
   <g id="line2d_17">
    <path d="M 307.098214 113.771167 
L 307.098214 101.019873 
" clip-path="url(#pe68300cf7e)" style="fill: none; stroke: #1f8a56; stroke-width: 1.1; stroke-linecap: round"/>
   </g>
   <g id="line2d_18">
    <path d="M 324.739286 113.164876 
L 324.739286 98.118666 
" clip-path="url(#pe68300cf7e)" style="fill: none; stroke: #b91c1c; stroke-width: 1.1; stroke-linecap: round"/>
   </g>
   <g id="line2d_19">
    <path d="M 342.380357 112.019476 
L 342.380357 71.094122 
" clip-path="url(#pe68300cf7e)" style="fill: none; stroke: #1f8a56; stroke-width: 1.1; stroke-linecap: round"/>
   </g>
   <g id="line2d_20">
    <path d="M 360.021429 79.349853 
L 360.021429 36.804477 
" clip-path="url(#pe68300cf7e)" style="fill: none; stroke: #1f8a56; stroke-width: 1.1; stroke-linecap: round"/>
   </g>
   <g id="text_1">
    <!-- ​BOS ﺪﻋﺎﺻ -->
    <g style="fill: #1f8a56" transform="translate(214.50135 193.95276) scale(0.095 -0.095)">
     <defs>
      <path id="NotoNaskhArabic-Bold-554" transform="scale(0.015625)"/>
      <path id="DejaVuSans-Bold-25" d="M 2456 2859 
Q 2741 2859 2887 2984 
Q 3034 3109 3034 3353 
Q 3034 3594 2887 3720 
Q 2741 3847 2456 3847 
L 1791 3847 
L 1791 2859 
L 2456 2859 
z
M 2497 819 
Q 2859 819 3042 972 
Q 3225 1125 3225 1434 
Q 3225 1738 3044 1889 
Q 2863 2041 2497 2041 
L 1791 2041 
L 1791 819 
L 2497 819 
z
M 3616 2497 
Q 4003 2384 4215 2081 
Q 4428 1778 4428 1338 
Q 4428 663 3972 331 
Q 3516 0 2584 0 
L 588 0 
L 588 4666 
L 2394 4666 
Q 3366 4666 3802 4372 
Q 4238 4078 4238 3431 
Q 4238 3091 4078 2852 
Q 3919 2613 3616 2497 
z
" transform="scale(0.015625)"/>
      <path id="DejaVuSans-Bold-32" d="M 2719 3878 
Q 2169 3878 1866 3472 
Q 1563 3066 1563 2328 
Q 1563 1594 1866 1187 
Q 2169 781 2719 781 
Q 3272 781 3575 1187 
Q 3878 1594 3878 2328 
Q 3878 3066 3575 3472 
Q 3272 3878 2719 3878 
z
M 2719 4750 
Q 3844 4750 4481 4106 
Q 5119 3463 5119 2328 
Q 5119 1197 4481 553 
Q 3844 -91 2719 -91 
Q 1597 -91 958 553 
Q 319 1197 319 2328 
Q 319 3463 958 4106 
Q 1597 4750 2719 4750 
z
" transform="scale(0.015625)"/>
      <path id="DejaVuSans-Bold-36" d="M 3834 4519 
L 3834 3531 
Q 3450 3703 3084 3790 
Q 2719 3878 2394 3878 
Q 1963 3878 1756 3759 
Q 1550 3641 1550 3391 
Q 1550 3203 1689 3098 
Q 1828 2994 2194 2919 
L 2706 2816 
Q 3484 2659 3812 2340 
Q 4141 2022 4141 1434 
Q 4141 663 3683 286 
Q 3225 -91 2284 -91 
Q 1841 -91 1394 -6 
Q 947 78 500 244 
L 500 1259 
Q 947 1022 1364 901 
Q 1781 781 2169 781 
Q 2563 781 2772 912 
Q 2981 1044 2981 1288 
Q 2981 1506 2839 1625 
Q 2697 1744 2272 1838 
L 1806 1941 
Q 1106 2091 782 2419 
Q 459 2747 459 3303 
Q 459 4000 909 4375 
Q 1359 4750 2203 4750 
Q 2588 4750 2994 4692 
Q 3400 4634 3834 4519 
z
" transform="scale(0.015625)"/>
      <path id="NotoNaskhArabic-Bold-112" d="M 2592 0 
Q 2163 0 1699 80 
Q 1235 160 851 339 
Q 826 314 797 285 
Q 768 256 730 230 
Q 595 147 400 102 
Q 205 58 0 58 
Q -51 58 -51 109 
L -51 762 
Q -51 813 0 813 
Q 243 813 380 841 
Q 518 870 614 969 
Q 710 1069 826 1274 
Q 851 1318 880 1363 
Q 909 1408 934 1466 
Q 1030 1638 1222 1638 
Q 1318 1638 1427 1574 
Q 1363 1414 1302 1260 
Q 1242 1107 1178 954 
Q 1248 928 1312 909 
Q 1376 890 1440 864 
Q 2099 1741 2605 2150 
Q 3091 2560 3469 2560 
Q 3629 2560 3824 2464 
Q 4019 2368 4211 2214 
Q 4403 2061 4544 1882 
Q 4762 1619 4762 1446 
Q 4762 582 3699 192 
Q 3174 0 2592 0 
z
M 2656 704 
Q 3117 704 3520 813 
Q 3923 922 4390 1146 
Q 3814 1805 3309 1805 
Q 3027 1805 2652 1536 
Q 2278 1267 1862 774 
Q 2067 742 2265 723 
Q 2464 704 2656 704 
z
" transform="scale(0.015625)"/>
      <path id="NotoNaskhArabic-Bold-4" d="M 1901 58 
Q 1517 58 1283 186 
Q 1050 314 938 528 
Q 826 742 794 1018 
Q 781 1139 749 1424 
Q 717 1709 681 2073 
Q 646 2438 608 2809 
Q 570 3181 538 3481 
Q 506 3782 486 3930 
Q 845 4166 1248 4352 
Q 1274 3635 1296 2918 
Q 1318 2202 1338 1478 
L 1363 979 
Q 1478 883 1606 848 
Q 1734 813 1914 813 
Q 1952 813 1952 762 
L 1952 109 
Q 1952 58 1901 58 
z
" transform="scale(0.015625)"/>
      <path id="NotoNaskhArabic-Bold-136" d="M 0 58 
Q -51 58 -51 109 
L -51 762 
Q -51 813 0 813 
L 499 813 
Q 365 1005 365 1210 
Q 365 1408 441 1632 
Q 518 1856 652 2057 
Q 787 2259 947 2387 
Q 1190 2579 1440 2579 
Q 1875 2579 2406 1990 
L 2272 1728 
Q 2074 1805 1907 1840 
Q 1741 1875 1600 1875 
Q 1376 1875 1197 1827 
Q 1018 1779 819 1670 
Q 832 1434 921 1245 
Q 1011 1056 1190 928 
Q 1267 877 1338 838 
Q 1843 870 2240 953 
Q 2637 1037 3040 1197 
Q 3091 1152 3116 1056 
Q 3142 960 3142 883 
Q 3142 730 3072 602 
Q 3002 474 2874 410 
Q 2746 346 2259 250 
Q 1766 147 1235 102 
Q 704 58 0 58 
z
" transform="scale(0.015625)"/>
      <path id="NotoNaskhArabic-Bold-b6" d="M 1075 0 
Q 218 0 218 499 
Q 218 634 272 784 
Q 326 934 410 1018 
Q 570 890 774 826 
Q 979 762 1280 762 
Q 1466 762 1658 784 
Q 1850 806 2048 851 
Q 1798 1286 1648 1673 
Q 1498 2061 1498 2246 
Q 1498 2477 1613 2646 
Q 1728 2816 1946 2880 
Q 2074 2362 2208 1955 
Q 2342 1549 2490 1248 
Q 2611 1005 2758 909 
Q 2906 813 3162 813 
Q 3213 813 3213 762 
L 3213 109 
Q 3213 58 3162 58 
Q 2707 58 2413 352 
Q 1709 0 1075 0 
z
" transform="scale(0.015625)"/>
     </defs>
     <use xlink:href="#NotoNaskhArabic-Bold-554"/>
     <use xlink:href="#DejaVuSans-Bold-25"/>
     <use xlink:href="#DejaVuSans-Bold-32" transform="translate(76.21875 0)"/>
     <use xlink:href="#DejaVuSans-Bold-36" transform="translate(161.234375 0)"/>
     <use xlink:href="#NotoNaskhArabic-Bold-554" transform="translate(233.25 0)"/>
     <use xlink:href="#NotoNaskhArabic-Bold-112" transform="translate(255.34375 0)"/>
     <use xlink:href="#NotoNaskhArabic-Bold-4" transform="translate(334.84375 0)"/>
     <use xlink:href="#NotoNaskhArabic-Bold-136" transform="translate(363.640625 0)"/>
     <use xlink:href="#NotoNaskhArabic-Bold-b6" transform="translate(415.34375 0)"/>
    </g>
   </g>
   <g id="text_2">
    <!-- ​ﻱﺩﻮﻌﺻ ﻉﺎﻓﺪﻧﺍ ﻞﺒﻗ ﺔﻄﺑﺎﻫ ﺔﻌﻤﺷ ﺮﺧﺁ :(Bullish OB) ﺔﻳﺩﻮﻌﺻ ﺐﻠﻃ ﺔﻠﺘﻛ -->
    <g style="fill: #1f8a56" transform="translate(62.592969 17.3555) scale(0.095 -0.095)">
     <defs>
      <path id="NotoNaskhArabic-Bold-176" d="M 0 58 
Q -51 58 -51 109 
L -51 762 
Q -51 813 0 813 
Q 845 813 1293 870 
Q 1517 896 1680 937 
Q 1843 979 1952 1030 
Q 1882 1178 1731 1347 
Q 1581 1517 1363 1677 
Q 1254 1766 1094 1872 
Q 934 1978 723 2099 
Q 653 2074 557 2074 
Q 378 2074 246 2195 
Q 115 2317 115 2490 
Q 115 2560 134 2688 
Q 154 2816 182 2950 
Q 211 3085 236 3184 
Q 262 3283 282 3290 
Q 685 3494 982 3638 
Q 1280 3782 1526 3894 
Q 1773 4006 2025 4115 
Q 2278 4224 2592 4352 
Q 2720 4224 2720 4026 
Q 2720 3802 2637 3693 
Q 2554 3584 2374 3494 
Q 2074 3347 1795 3228 
Q 1517 3110 1203 3004 
Q 890 2899 474 2784 
Q 947 2662 1363 2390 
Q 1779 2118 2029 1773 
Q 2278 1427 2278 1107 
Q 2278 595 1702 326 
Q 1120 58 0 58 
z
" transform="scale(0.015625)"/>
      <path id="NotoNaskhArabic-Bold-37" d="M 0 58 
Q -51 58 -51 109 
L -51 762 
Q -51 813 0 813 
Q 307 813 566 829 
Q 826 845 992 928 
Q 1120 992 1187 1104 
Q 1254 1216 1357 1421 
Q 1459 1632 1536 1680 
Q 1613 1728 1715 1728 
Q 1869 1728 1971 1638 
Q 1888 1427 1814 1264 
Q 1741 1101 1690 979 
Q 2003 813 2362 813 
Q 2413 813 2413 762 
L 2413 109 
Q 2413 58 2362 58 
Q 1875 58 1434 499 
L 1382 416 
Q 1203 179 883 118 
Q 563 58 0 58 
z
M 1664 2252 
Q 1529 2361 1420 2457 
Q 1312 2553 1222 2649 
Q 1459 2867 1651 3097 
Q 1708 3033 1810 2937 
Q 1913 2841 2054 2700 
Q 1881 2464 1664 2252 
z
M 806 2156 
Q 531 2380 364 2560 
Q 473 2668 582 2780 
Q 691 2892 800 3001 
Q 915 2867 1196 2604 
Q 1036 2374 806 2156 
z
" transform="scale(0.015625)"/>
      <path id="NotoNaskhArabic-Bold-1bf" d="M 0 58 
Q -51 58 -51 109 
L -51 762 
Q -51 813 0 813 
Q 154 813 304 845 
Q 454 877 595 934 
Q 454 1830 307 3059 
Q 282 3264 259 3481 
Q 237 3699 211 3930 
Q 384 4058 576 4160 
Q 768 4262 973 4352 
Q 966 4115 956 3696 
Q 947 3277 937 2768 
Q 928 2259 922 1734 
L 922 992 
Q 1190 813 1619 813 
Q 1677 813 1677 762 
L 1677 109 
Q 1677 58 1619 58 
Q 1088 58 832 282 
Q 691 192 470 125 
Q 250 58 0 58 
z
" transform="scale(0.015625)"/>
      <path id="NotoNaskhArabic-Bold-215" d="M 3302 58 
Q 2912 58 2675 182 
Q 2438 307 2393 531 
L 2336 768 
L 2080 243 
Q 1881 262 1711 288 
Q 1542 314 1395 365 
Q 1235 422 1075 518 
Q 915 614 806 716 
Q 697 819 697 890 
Q 697 941 738 1078 
Q 780 1216 838 1369 
Q 896 1523 940 1600 
Q 998 1728 1184 1882 
Q 1363 2042 1593 2192 
Q 1824 2342 1984 2413 
L 1952 2669 
Q 2118 2797 2223 2873 
Q 2329 2950 2418 3011 
Q 2508 3072 2617 3136 
L 2617 986 
Q 2924 813 3302 813 
Q 3353 813 3353 762 
L 3353 109 
Q 3353 58 3302 58 
z
M 2272 1005 
Q 2233 1158 2188 1366 
Q 2144 1574 2086 1837 
Q 1491 1638 1152 1318 
Q 1356 1178 1542 1123 
Q 1728 1069 1894 1043 
Q 2067 1011 2272 1005 
z
M 2138 3257 
Q 2003 3366 1894 3462 
Q 1786 3558 1696 3654 
Q 1933 3872 2125 4102 
Q 2182 4038 2284 3942 
Q 2387 3846 2528 3705 
Q 2355 3469 2138 3257 
z
M 1280 3161 
Q 1005 3385 838 3565 
Q 947 3673 1056 3785 
Q 1165 3897 1274 4006 
Q 1389 3872 1670 3609 
Q 1510 3379 1280 3161 
z
" transform="scale(0.015625)"/>
      <path id="NotoNaskhArabic-Bold-126" d="M 0 58 
Q -51 58 -51 109 
L -51 762 
Q -51 813 0 813 
L 531 819 
L 659 819 
Q 730 915 794 1008 
Q 858 1101 922 1184 
Q 762 1946 662 2422 
Q 563 2899 508 3164 
Q 454 3430 435 3552 
Q 416 3674 416 3725 
Q 416 3987 605 4169 
Q 794 4352 1069 4352 
Q 1133 4134 1197 3939 
Q 1261 3744 1331 3565 
L 1126 3411 
Q 1152 3110 1171 2809 
Q 1190 2509 1216 2208 
Q 1229 2054 1241 1907 
Q 1254 1760 1261 1606 
Q 2170 2669 2803 2669 
Q 3066 2669 3354 2512 
Q 3642 2355 3872 2074 
Q 4109 1786 4109 1626 
Q 4109 1126 3683 777 
Q 3258 429 2362 243 
Q 1914 154 1325 106 
Q 736 58 0 58 
z
M 1158 832 
Q 1190 832 1321 838 
Q 1453 845 1632 854 
Q 1811 864 1990 880 
Q 2170 896 2291 915 
Q 2458 947 2624 979 
Q 2790 1011 3040 1075 
Q 3290 1139 3693 1254 
Q 3475 1498 3305 1635 
Q 3136 1773 2985 1830 
Q 2835 1888 2650 1888 
Q 2061 1888 1158 832 
z
" transform="scale(0.015625)"/>
      <path id="NotoNaskhArabic-Bold-24" d="M 2010 0 
Q 448 0 448 1363 
Q 448 1638 570 2067 
L 858 2067 
Q 851 2042 844 1926 
Q 838 1811 838 1747 
Q 838 1376 982 1174 
Q 1126 973 1434 864 
Q 1587 819 1792 790 
Q 1997 762 2246 762 
Q 2918 762 3404 845 
Q 3891 928 4070 1069 
Q 4134 1126 4182 1200 
Q 4230 1274 4301 1434 
Q 4390 1626 4467 1677 
Q 4544 1728 4646 1728 
Q 4794 1728 4902 1638 
Q 4838 1466 4768 1302 
Q 4698 1139 4608 986 
Q 4774 902 4928 857 
Q 5082 813 5293 813 
Q 5344 813 5344 762 
L 5344 109 
Q 5344 58 5293 58 
Q 5050 58 4816 166 
Q 4582 275 4314 544 
Q 3994 288 3376 144 
Q 2758 0 2010 0 
z
M 2624 -1427 
Q 2451 -1286 2329 -1171 
Q 2208 -1056 2124 -966 
Q 2252 -838 2374 -713 
Q 2496 -589 2611 -454 
Q 2777 -646 3072 -915 
Q 3001 -1017 2886 -1148 
Q 2771 -1280 2624 -1427 
z
" transform="scale(0.015625)"/>
      <path id="NotoNaskhArabic-Bold-135" d="M 6 58 
Q -51 58 -51 115 
L -51 755 
Q -51 813 6 813 
Q 346 813 627 822 
Q 909 832 1126 870 
L 998 1030 
Q 909 1152 835 1235 
Q 762 1318 691 1382 
Q 640 1434 589 1478 
Q 538 1523 486 1568 
L 371 1485 
Q 198 1670 198 1894 
Q 198 2112 390 2272 
Q 582 2432 915 2554 
Q 1242 2669 1549 2669 
Q 1830 2669 2080 2547 
Q 2330 2426 2470 2208 
Q 2618 1990 2618 1760 
Q 2618 1530 2490 1306 
Q 2362 1082 2118 858 
Q 2291 832 2486 822 
Q 2682 813 2912 813 
Q 2976 813 2976 755 
L 2976 115 
Q 2976 58 2912 58 
Q 2464 58 2105 160 
Q 1747 262 1530 448 
Q 845 58 6 58 
z
M 1626 1062 
Q 1978 1293 1978 1613 
Q 1978 1773 1862 1865 
Q 1747 1958 1574 1958 
Q 1408 1958 1257 1926 
Q 1107 1894 902 1805 
Q 973 1741 1117 1603 
Q 1261 1466 1459 1248 
Q 1498 1203 1539 1158 
Q 1581 1114 1626 1062 
z
" transform="scale(0.015625)"/>
      <path id="NotoNaskhArabic-Bold-219" d="M 1248 -1248 
Q 1171 -1248 1011 -1174 
Q 851 -1101 668 -982 
Q 486 -864 326 -730 
L 429 -461 
Q 602 -506 778 -528 
Q 954 -550 1133 -550 
Q 1536 -550 1862 -380 
Q 2189 -211 2368 64 
Q 2093 83 1894 102 
Q 1696 122 1574 147 
Q 838 307 838 1018 
Q 838 1370 972 1712 
Q 1107 2054 1325 2266 
Q 1549 2477 1766 2477 
Q 2029 2477 2262 2240 
Q 2496 2003 2650 1626 
Q 2720 1446 2768 1241 
Q 2816 1037 2835 813 
L 3181 813 
Q 3232 813 3232 762 
L 3232 109 
Q 3232 58 3181 58 
L 2784 58 
Q 2669 -365 2419 -669 
Q 2170 -973 1843 -1120 
Q 1555 -1248 1248 -1248 
z
M 2419 819 
Q 2285 1254 2077 1484 
Q 1869 1715 1626 1715 
Q 1504 1715 1401 1651 
Q 1299 1587 1235 1498 
Q 1178 1402 1178 1293 
Q 1178 941 1805 858 
Q 1952 838 2419 819 
z
" transform="scale(0.015625)"/>
      <path id="NotoNaskhArabic-Bold-b5" d="M 1075 0 
Q 218 0 218 499 
Q 218 634 272 784 
Q 326 934 410 1018 
Q 570 890 774 826 
Q 979 762 1280 762 
Q 1696 762 2118 896 
Q 2016 1082 1929 1222 
Q 1843 1363 1773 1466 
Q 1594 1728 1478 1923 
Q 1363 2118 1363 2240 
Q 1363 2445 1526 2630 
Q 1690 2816 1901 2880 
Q 1952 2714 2022 2515 
Q 2093 2317 2166 2125 
Q 2240 1933 2291 1792 
Q 2381 1549 2445 1337 
Q 2509 1126 2509 954 
Q 2509 896 2473 765 
Q 2438 634 2387 493 
Q 2336 352 2285 250 
Q 2054 134 1734 67 
Q 1414 0 1075 0 
z
" transform="scale(0.015625)"/>
      <path id="NotoNaskhArabic-Bold-241" d="M 0 58 
Q -51 58 -51 109 
L -51 762 
Q -51 813 0 813 
Q 339 813 652 835 
Q 966 858 1212 902 
Q 1459 947 1581 998 
Q 1517 1146 1414 1328 
Q 1312 1510 1261 1613 
Q 1197 1734 1152 1833 
Q 1107 1933 1107 2016 
Q 1107 2170 1280 2358 
Q 1453 2547 1690 2669 
Q 1786 2189 1843 1897 
Q 1901 1606 1926 1443 
Q 1952 1280 1952 1184 
Q 1952 1037 1881 825 
Q 1811 614 1702 410 
Q 1530 307 1251 227 
Q 973 147 646 102 
Q 320 58 0 58 
z
M 1479 -1235 
Q 1204 -1011 1037 -832 
Q 1242 -653 1466 -384 
Q 1485 -403 1584 -502 
Q 1684 -602 1863 -787 
Q 1799 -883 1703 -995 
Q 1607 -1107 1479 -1235 
z
M 621 -1331 
Q 461 -1203 355 -1100 
Q 250 -998 180 -922 
Q 288 -813 397 -701 
Q 506 -589 615 -480 
Q 692 -576 1012 -877 
Q 858 -1107 621 -1331 
z
" transform="scale(0.015625)"/>
      <path id="DejaVuSans-Bold-b" d="M 2413 -844 
L 1484 -844 
Q 1006 -72 778 623 
Q 550 1319 550 2003 
Q 550 2688 779 3389 
Q 1009 4091 1484 4856 
L 2413 4856 
Q 2013 4116 1813 3408 
Q 1613 2700 1613 2009 
Q 1613 1319 1811 609 
Q 2009 -100 2413 -844 
z
" transform="scale(0.015625)"/>
      <path id="DejaVuSans-Bold-58" d="M 500 1363 
L 500 3500 
L 1625 3500 
L 1625 3150 
Q 1625 2866 1622 2436 
Q 1619 2006 1619 1863 
Q 1619 1441 1641 1255 
Q 1663 1069 1716 984 
Q 1784 875 1895 815 
Q 2006 756 2150 756 
Q 2500 756 2700 1025 
Q 2900 1294 2900 1772 
L 2900 3500 
L 4019 3500 
L 4019 0 
L 2900 0 
L 2900 506 
Q 2647 200 2364 54 
Q 2081 -91 1741 -91 
Q 1134 -91 817 281 
Q 500 653 500 1363 
z
" transform="scale(0.015625)"/>
      <path id="DejaVuSans-Bold-4f" d="M 538 4863 
L 1656 4863 
L 1656 0 
L 538 0 
L 538 4863 
z
" transform="scale(0.015625)"/>
      <path id="DejaVuSans-Bold-4c" d="M 538 3500 
L 1656 3500 
L 1656 0 
L 538 0 
L 538 3500 
z
M 538 4863 
L 1656 4863 
L 1656 3950 
L 538 3950 
L 538 4863 
z
" transform="scale(0.015625)"/>
      <path id="DejaVuSans-Bold-56" d="M 3272 3391 
L 3272 2541 
Q 2913 2691 2578 2766 
Q 2244 2841 1947 2841 
Q 1628 2841 1473 2761 
Q 1319 2681 1319 2516 
Q 1319 2381 1436 2309 
Q 1553 2238 1856 2203 
L 2053 2175 
Q 2913 2066 3209 1816 
Q 3506 1566 3506 1031 
Q 3506 472 3093 190 
Q 2681 -91 1863 -91 
Q 1516 -91 1145 -36 
Q 775 19 384 128 
L 384 978 
Q 719 816 1070 734 
Q 1422 653 1784 653 
Q 2113 653 2278 743 
Q 2444 834 2444 1013 
Q 2444 1163 2330 1236 
Q 2216 1309 1875 1350 
L 1678 1375 
Q 931 1469 631 1722 
Q 331 1975 331 2491 
Q 331 3047 712 3315 
Q 1094 3584 1881 3584 
Q 2191 3584 2531 3537 
Q 2872 3491 3272 3391 
z
" transform="scale(0.015625)"/>
      <path id="DejaVuSans-Bold-4b" d="M 4056 2131 
L 4056 0 
L 2931 0 
L 2931 347 
L 2931 1625 
Q 2931 2084 2911 2256 
Q 2891 2428 2841 2509 
Q 2775 2619 2662 2680 
Q 2550 2741 2406 2741 
Q 2056 2741 1856 2470 
Q 1656 2200 1656 1722 
L 1656 0 
L 538 0 
L 538 4863 
L 1656 4863 
L 1656 2988 
Q 1909 3294 2193 3439 
Q 2478 3584 2822 3584 
Q 3428 3584 3742 3212 
Q 4056 2841 4056 2131 
z
" transform="scale(0.015625)"/>
      <path id="DejaVuSans-Bold-c" d="M 513 -844 
Q 913 -100 1113 609 
Q 1313 1319 1313 2009 
Q 1313 2700 1113 3408 
Q 913 4116 513 4856 
L 1441 4856 
Q 1916 4091 2145 3389 
Q 2375 2688 2375 2003 
Q 2375 1319 2147 623 
Q 1919 -72 1441 -844 
L 513 -844 
z
" transform="scale(0.015625)"/>
      <path id="NotoNaskhArabic-Bold-516" d="M 1037 1792 
Q 877 1920 710 2029 
Q 544 2138 378 2234 
Q 429 2317 473 2397 
Q 518 2477 557 2560 
Q 602 2643 650 2723 
Q 698 2803 755 2886 
Q 870 2816 1017 2720 
Q 1165 2624 1273 2534 
Q 1382 2445 1382 2381 
Q 1382 2291 1037 1792 
z
M 1037 -365 
Q 691 -96 378 77 
Q 429 166 473 246 
Q 518 326 557 410 
Q 602 486 650 566 
Q 698 646 755 730 
Q 1382 365 1382 224 
Q 1382 134 1037 -365 
z
" transform="scale(0.015625)"/>
      <path id="NotoNaskhArabic-Bold-13" d="M 774 58 
Q 742 717 710 1216 
Q 678 1715 646 2134 
Q 614 2554 576 2950 
Q 538 3347 493 3808 
Q 474 3968 566 4089 
Q 659 4211 822 4281 
Q 986 4352 1178 4352 
Q 1229 4154 1296 3955 
Q 1363 3757 1440 3565 
L 1216 3398 
Q 1229 2867 1222 2035 
Q 1216 1203 1184 109 
L 774 58 
z
M 122 4659 
L 45 4793 
Q 422 5094 467 5094 
L 576 5081 
Q 762 5037 896 5014 
Q 1030 4992 1114 4992 
Q 1222 4992 1379 5027 
Q 1536 5062 1626 5107 
L 1677 4966 
Q 1549 4838 1376 4755 
Q 1203 4672 1088 4672 
Q 794 4672 429 4806 
L 122 4659 
z
" transform="scale(0.015625)"/>
      <path id="NotoNaskhArabic-Bold-a4" d="M 0 58 
Q -51 58 -51 109 
L -51 762 
Q -51 813 0 813 
Q 467 813 793 829 
Q 1120 845 1427 934 
Q 1702 1018 1897 1069 
Q 2093 1120 2202 1146 
Q 2112 1197 2025 1251 
Q 1939 1306 1856 1363 
Q 1651 1504 1513 1558 
Q 1376 1613 1235 1613 
Q 1043 1613 870 1558 
Q 698 1504 480 1363 
Q 422 1421 377 1533 
Q 333 1645 333 1747 
Q 333 2029 582 2205 
Q 832 2381 1210 2381 
Q 1414 2381 1603 2310 
Q 1792 2240 2029 2080 
Q 2317 1882 2560 1763 
Q 2803 1645 3136 1555 
Q 3302 1517 3500 1494 
Q 3699 1472 3936 1472 
L 3603 794 
Q 3405 813 3273 825 
Q 3142 838 2963 826 
Q 2739 806 2483 704 
Q 2227 602 1990 467 
Q 1741 320 1533 237 
Q 1325 154 1107 115 
Q 890 77 624 67 
Q 358 58 0 58 
z
M 1894 2873 
Q 1568 3142 1402 3334 
Q 1549 3481 1667 3606 
Q 1786 3731 1882 3846 
Q 1952 3769 2067 3654 
Q 2182 3539 2342 3385 
Q 2266 3277 2154 3149 
Q 2042 3021 1894 2873 
z
" transform="scale(0.015625)"/>
      <path id="NotoNaskhArabic-Bold-d4" d="M 653 -1248 
Q 544 -1248 304 -1107 
Q 64 -966 -218 -730 
L -115 -461 
Q 243 -550 531 -550 
Q 1005 -550 1331 -313 
Q 1658 -77 1805 371 
Q 1760 467 1705 566 
Q 1651 666 1587 762 
Q 1299 1203 1203 1414 
Q 1107 1626 1107 1779 
Q 1107 1965 1254 2147 
Q 1402 2330 1638 2451 
Q 1670 2330 1705 2208 
Q 1741 2086 1786 1958 
Q 1926 1555 2006 1299 
Q 2086 1043 2106 934 
Q 2323 813 2586 813 
Q 2637 813 2637 762 
L 2637 109 
Q 2637 58 2586 58 
Q 2349 58 2112 179 
Q 2042 -243 1837 -566 
Q 1632 -890 1328 -1069 
Q 1024 -1248 653 -1248 
z
" transform="scale(0.015625)"/>
      <path id="NotoNaskhArabic-Bold-106" d="M 1472 0 
Q 1165 0 736 205 
Q 608 141 406 99 
Q 205 58 0 58 
Q -51 58 -51 109 
L -51 762 
Q -51 813 0 813 
Q 294 813 441 851 
Q 589 890 678 979 
Q 749 1050 806 1142 
Q 864 1235 998 1466 
Q 1037 1536 1110 1581 
Q 1184 1626 1267 1626 
Q 1357 1626 1466 1555 
Q 1363 1286 1286 1091 
Q 1210 896 1158 781 
Q 1331 762 1504 762 
Q 1632 762 1734 778 
Q 1837 794 1965 832 
Q 2010 902 2093 1104 
Q 2176 1306 2317 1696 
Q 2349 1779 2432 1833 
Q 2515 1888 2630 1888 
Q 2765 1888 2854 1818 
Q 2778 1626 2710 1414 
Q 2643 1203 2586 992 
Q 2829 870 3133 806 
Q 3437 742 3782 704 
Q 3584 1094 3443 1376 
Q 3302 1658 3302 1798 
Q 3302 1952 3475 2141 
Q 3648 2330 3885 2451 
Q 3994 1907 4051 1603 
Q 4109 1299 4131 1145 
Q 4154 992 4154 909 
Q 4154 806 4112 633 
Q 4070 461 4006 288 
Q 3942 115 3885 0 
Q 3501 0 3097 89 
Q 2694 179 2355 326 
Q 2317 243 2278 173 
Q 2234 102 1994 51 
Q 1754 0 1472 0 
z
M 2324 2995 
Q 2189 3104 2093 3196 
Q 1997 3289 1933 3360 
Q 2068 3481 2160 3567 
Q 2253 3654 2304 3718 
Q 2375 3635 2467 3545 
Q 2560 3456 2676 3360 
Q 2541 3212 2451 3119 
Q 2362 3027 2324 2995 
z
M 2784 2444 
Q 2650 2553 2541 2652 
Q 2432 2752 2343 2848 
Q 2439 2937 2547 3046 
Q 2656 3155 2772 3289 
Q 2810 3244 2912 3148 
Q 3015 3052 3175 2899 
Q 3092 2777 2992 2665 
Q 2893 2553 2784 2444 
z
M 1895 2355 
Q 1607 2572 1460 2758 
Q 1568 2867 1677 2979 
Q 1786 3091 1895 3200 
Q 1946 3136 2045 3033 
Q 2144 2931 2285 2803 
Q 2189 2675 2093 2559 
Q 1997 2444 1895 2355 
z
" transform="scale(0.015625)"/>
      <path id="NotoNaskhArabic-Bold-1e4" d="M 2016 0 
Q 1606 0 1257 73 
Q 909 147 685 269 
Q 506 147 346 102 
Q 186 58 0 58 
Q -51 58 -51 109 
L -51 762 
Q -51 813 0 813 
Q 160 813 333 858 
Q 333 870 336 886 
Q 339 902 339 922 
Q 384 1261 573 1597 
Q 762 1933 1018 2131 
Q 1286 2342 1568 2342 
Q 1696 2342 1811 2176 
Q 1862 2093 1929 1942 
Q 1997 1792 2074 1581 
Q 2227 1133 2394 960 
Q 2528 813 2682 813 
Q 2752 813 2752 755 
L 2752 128 
Q 2752 58 2682 58 
Q 2362 58 2106 301 
L 2016 0 
z
M 1818 710 
Q 1606 1133 1549 1664 
Q 979 1440 698 1082 
Q 877 941 1155 851 
Q 1434 762 1818 710 
z
" transform="scale(0.015625)"/>
      <path id="NotoNaskhArabic-Bold-200" d="M 2650 -58 
Q 2221 -45 1821 51 
Q 1421 147 1120 307 
Q 659 58 0 58 
Q -51 58 -51 109 
L -51 774 
Q -51 813 0 813 
Q 122 819 240 819 
Q 358 819 480 826 
Q 282 1088 282 1382 
Q 282 1555 352 1753 
Q 422 1952 544 2128 
Q 666 2304 806 2400 
L 992 3066 
Q 1517 2938 1974 2589 
Q 2432 2240 2701 1754 
Q 2976 1280 2976 800 
Q 2976 653 2886 419 
Q 2797 186 2650 -58 
z
M 1171 979 
Q 1299 1043 1382 1196 
Q 1466 1350 1466 1536 
Q 1466 1690 1363 1808 
Q 1261 1926 1146 1926 
Q 915 1926 742 1658 
Q 710 1606 675 1536 
Q 640 1466 608 1389 
Q 730 1261 870 1158 
Q 1011 1056 1171 979 
z
M 2618 640 
Q 2509 928 2393 1152 
Q 2278 1376 2144 1549 
Q 2074 1651 1990 1734 
Q 1907 1818 1818 1888 
Q 1882 1722 1882 1517 
Q 1882 1101 1683 800 
Q 1850 755 2086 716 
Q 2323 678 2618 640 
z
" transform="scale(0.015625)"/>
      <path id="NotoNaskhArabic-Bold-26" d="M 0 58 
Q -51 58 -51 109 
L -51 762 
Q -51 813 0 813 
Q 320 813 640 867 
Q 960 922 1139 998 
Q 1075 1146 976 1328 
Q 877 1510 819 1613 
Q 755 1734 710 1833 
Q 666 1933 666 2016 
Q 666 2176 838 2361 
Q 1011 2547 1248 2669 
Q 1293 2470 1347 2217 
Q 1402 1965 1446 1702 
Q 1485 1504 1501 1376 
Q 1517 1248 1517 1184 
Q 1517 1037 1443 822 
Q 1370 608 1267 410 
Q 685 58 0 58 
z
M 916 -1427 
Q 743 -1286 621 -1171 
Q 500 -1056 416 -966 
Q 544 -838 666 -713 
Q 788 -589 903 -454 
Q 1069 -646 1364 -915 
Q 1293 -1017 1178 -1148 
Q 1063 -1280 916 -1427 
z
" transform="scale(0.015625)"/>
      <path id="NotoNaskhArabic-Bold-125" d="M 0 58 
Q -51 58 -51 109 
L -51 762 
Q -51 813 0 813 
Q 166 819 332 819 
Q 499 819 659 819 
Q 730 915 794 1008 
Q 858 1101 922 1184 
Q 768 1933 669 2406 
Q 570 2880 515 3149 
Q 461 3418 438 3546 
Q 416 3674 416 3725 
Q 416 3987 605 4169 
Q 794 4352 1069 4352 
Q 1133 4134 1197 3939 
Q 1261 3744 1331 3565 
L 1126 3411 
Q 1146 3130 1168 2842 
Q 1190 2554 1210 2272 
Q 1222 2106 1238 1939 
Q 1254 1773 1261 1606 
Q 2170 2669 2803 2669 
Q 3066 2669 3354 2512 
Q 3642 2355 3872 2074 
Q 4109 1786 4109 1626 
Q 4109 1286 3885 986 
Q 4205 813 4570 813 
Q 4627 813 4627 762 
L 4627 109 
Q 4627 58 4570 58 
Q 4256 58 3952 202 
Q 3648 346 3424 602 
Q 2944 346 2128 202 
Q 1312 58 0 58 
z
M 1158 832 
Q 1190 832 1321 838 
Q 1453 845 1632 854 
Q 1811 864 1990 880 
Q 2170 896 2291 915 
Q 2458 947 2624 979 
Q 2790 1011 3040 1075 
Q 3290 1139 3693 1254 
Q 3475 1498 3305 1635 
Q 3136 1773 2985 1830 
Q 2835 1888 2650 1888 
Q 2061 1888 1158 832 
z
" transform="scale(0.015625)"/>
      <path id="NotoNaskhArabic-Bold-16a" d="M 6 58 
Q -51 58 -51 115 
L -51 762 
Q -51 813 6 813 
Q 710 813 1196 857 
Q 1683 902 2061 1075 
Q 2048 1120 2029 1177 
Q 2010 1235 1978 1312 
Q 1824 1178 1638 1107 
Q 1453 1037 1229 1037 
Q 864 1037 685 1229 
Q 506 1421 506 1709 
Q 506 2029 624 2297 
Q 742 2566 941 2720 
Q 1043 2803 1158 2851 
Q 1274 2899 1395 2899 
Q 1658 2899 1904 2608 
Q 2150 2317 2285 1869 
Q 2349 1677 2377 1469 
Q 2406 1261 2406 1043 
Q 2406 832 2189 397 
Q 1875 275 1577 201 
Q 1280 128 912 93 
Q 544 58 6 58 
z
M 1318 1504 
Q 1568 1504 1856 1594 
Q 1734 1875 1593 2003 
Q 1453 2131 1254 2131 
Q 1056 2131 944 2032 
Q 832 1933 832 1811 
Q 832 1658 947 1581 
Q 1062 1504 1318 1504 
z
M 1818 3296 
Q 1683 3405 1574 3501 
Q 1466 3597 1376 3693 
Q 1613 3911 1805 4141 
Q 1862 4077 1964 3981 
Q 2067 3885 2208 3744 
Q 2035 3508 1818 3296 
z
M 960 3200 
Q 685 3424 518 3604 
Q 627 3712 736 3824 
Q 845 3936 954 4045 
Q 1069 3911 1350 3648 
Q 1190 3418 960 3200 
z
" transform="scale(0.015625)"/>
      <path id="NotoNaskhArabic-Bold-25" d="M 0 58 
Q -51 58 -51 109 
L -51 762 
Q -51 813 0 813 
Q 416 813 627 966 
Q 710 1024 774 1145 
Q 838 1267 922 1427 
Q 1024 1632 1101 1680 
Q 1178 1728 1280 1728 
Q 1427 1728 1536 1638 
Q 1466 1478 1392 1312 
Q 1318 1146 1248 979 
Q 1562 813 1926 813 
Q 1978 813 1978 762 
L 1978 109 
Q 1978 58 1926 58 
Q 1440 58 998 499 
Q 960 435 925 384 
Q 890 333 858 288 
Q 774 192 550 125 
Q 326 58 0 58 
z
M 1088 -1427 
Q 915 -1286 793 -1171 
Q 672 -1056 588 -966 
Q 716 -838 838 -713 
Q 960 -589 1075 -454 
Q 1241 -646 1536 -915 
Q 1465 -1017 1350 -1148 
Q 1235 -1280 1088 -1427 
z
" transform="scale(0.015625)"/>
      <path id="NotoNaskhArabic-Bold-1be" d="M 1606 -1613 
Q 1030 -1613 729 -1277 
Q 429 -941 429 -301 
Q 429 -134 470 96 
Q 512 326 589 627 
L 870 557 
Q 787 282 787 45 
Q 787 -858 1619 -858 
Q 1984 -858 2262 -794 
Q 2541 -730 2784 -576 
Q 2970 -467 3155 -288 
L 3014 461 
Q 2989 608 2915 1014 
Q 2842 1421 2726 2086 
Q 2694 2291 2652 2537 
Q 2611 2784 2569 3024 
Q 2528 3264 2499 3446 
Q 2470 3629 2470 3699 
Q 2470 3968 2675 4160 
Q 2880 4352 3162 4352 
Q 3219 4134 3283 3939 
Q 3347 3744 3418 3565 
L 3213 3411 
Q 3270 2810 3331 2198 
Q 3392 1587 3450 973 
Q 3718 813 4000 813 
Q 4058 813 4058 762 
L 4058 109 
Q 4058 58 4000 58 
Q 3878 58 3760 86 
Q 3642 115 3507 192 
L 3514 -45 
Q 3514 -474 3258 -838 
Q 3002 -1203 2566 -1408 
Q 2349 -1510 2109 -1561 
Q 1869 -1613 1606 -1613 
z
" transform="scale(0.015625)"/>
      <path id="NotoNaskhArabic-Bold-3" d="M 774 58 
Q 742 717 710 1216 
Q 678 1715 646 2134 
Q 614 2554 576 2950 
Q 538 3347 493 3808 
Q 474 3968 566 4089 
Q 659 4211 822 4281 
Q 986 4352 1178 4352 
Q 1229 4154 1296 3955 
Q 1363 3757 1440 3565 
L 1216 3398 
Q 1229 2867 1222 2035 
Q 1216 1203 1184 109 
L 774 58 
z
" transform="scale(0.015625)"/>
      <path id="NotoNaskhArabic-Bold-1ea" d="M 0 58 
Q -51 58 -51 109 
L -51 762 
Q -51 813 0 813 
Q 320 813 640 867 
Q 960 922 1139 998 
Q 1075 1146 976 1328 
Q 877 1510 819 1613 
Q 755 1734 710 1833 
Q 666 1933 666 2016 
Q 666 2176 838 2361 
Q 1011 2547 1248 2669 
Q 1293 2470 1347 2217 
Q 1402 1965 1446 1702 
Q 1485 1504 1501 1376 
Q 1517 1248 1517 1184 
Q 1517 1037 1443 822 
Q 1370 608 1267 410 
Q 685 58 0 58 
z
M 902 3052 
Q 576 3321 410 3513 
Q 557 3660 675 3785 
Q 794 3910 890 4025 
Q 960 3948 1075 3833 
Q 1190 3718 1350 3564 
Q 1274 3456 1162 3328 
Q 1050 3200 902 3052 
z
" transform="scale(0.015625)"/>
      <path id="NotoNaskhArabic-Bold-146" d="M 6 58 
Q -51 58 -51 115 
L -51 762 
Q -51 813 6 813 
Q 710 813 1196 857 
Q 1683 902 2061 1075 
Q 2048 1120 2029 1177 
Q 2010 1235 1978 1312 
Q 1824 1178 1638 1107 
Q 1453 1037 1229 1037 
Q 864 1037 685 1229 
Q 506 1421 506 1709 
Q 506 2029 624 2297 
Q 742 2566 941 2720 
Q 1043 2803 1158 2851 
Q 1274 2899 1395 2899 
Q 1658 2899 1904 2608 
Q 2150 2317 2285 1869 
Q 2349 1677 2377 1469 
Q 2406 1261 2406 1043 
Q 2406 832 2189 397 
Q 1875 275 1577 201 
Q 1280 128 912 93 
Q 544 58 6 58 
z
M 1318 1504 
Q 1568 1504 1856 1594 
Q 1734 1875 1593 2003 
Q 1453 2131 1254 2131 
Q 1056 2131 944 2032 
Q 832 1933 832 1811 
Q 832 1658 947 1581 
Q 1062 1504 1318 1504 
z
M 1388 3328 
Q 1062 3597 896 3789 
Q 1043 3936 1161 4061 
Q 1280 4186 1376 4301 
Q 1446 4224 1561 4109 
Q 1676 3994 1836 3840 
Q 1760 3732 1648 3604 
Q 1536 3476 1388 3328 
z
" transform="scale(0.015625)"/>
      <path id="NotoNaskhArabic-Bold-133" d="M 2349 -1926 
Q 1594 -1926 1158 -1529 
Q 723 -1133 723 -454 
Q 723 237 1203 755 
Q 998 851 841 1008 
Q 685 1165 608 1338 
Q 531 1510 531 1670 
Q 531 1862 604 2083 
Q 678 2304 809 2505 
Q 941 2707 1101 2842 
Q 1338 3040 1600 3040 
Q 2048 3040 2573 2445 
L 2438 2189 
Q 2246 2266 2080 2301 
Q 1914 2336 1766 2336 
Q 1542 2336 1366 2288 
Q 1190 2240 986 2131 
Q 1005 1786 1219 1555 
Q 1434 1325 1798 1235 
Q 2080 1402 2387 1539 
Q 2694 1677 3040 1792 
Q 3110 1690 3110 1466 
Q 3110 1190 2880 1037 
Q 2829 998 2713 944 
Q 2598 890 2426 819 
Q 1869 602 1593 422 
Q 1318 243 1184 32 
Q 1050 -179 1050 -416 
Q 1050 -781 1386 -985 
Q 1722 -1190 2362 -1190 
Q 2624 -1190 2899 -1152 
Q 3168 -1114 3840 -960 
L 3923 -1229 
Q 3373 -1568 2960 -1747 
Q 2547 -1926 2349 -1926 
z
" transform="scale(0.015625)"/>
      <path id="NotoNaskhArabic-Bold-23e" d="M 1606 -1613 
Q 1037 -1613 736 -1277 
Q 435 -941 435 -301 
Q 435 32 595 627 
L 877 557 
Q 787 256 787 45 
Q 787 -858 1683 -858 
Q 1965 -858 2291 -771 
Q 2618 -685 2931 -531 
Q 3078 -454 3222 -368 
Q 3366 -282 3494 -179 
Q 3418 -179 3344 -179 
Q 3270 -179 3200 -173 
Q 2362 -128 2093 230 
Q 1939 442 1939 762 
Q 1939 1005 2038 1267 
Q 2138 1530 2307 1776 
Q 2477 2022 2688 2202 
Q 3008 2464 3290 2464 
Q 3725 2464 3853 1638 
L 3571 1581 
Q 3475 1702 3366 1702 
Q 3194 1702 2976 1577 
Q 2758 1453 2560 1229 
Q 2374 1024 2266 755 
Q 2394 704 2582 665 
Q 2771 627 3021 595 
Q 3245 570 3376 525 
Q 3507 480 3603 403 
Q 3699 333 3760 179 
Q 3821 26 3821 -122 
Q 3821 -314 3667 -547 
Q 3514 -781 3242 -998 
Q 2970 -1216 2624 -1376 
Q 2125 -1613 1606 -1613 
z
M 2227 -2630 
Q 1952 -2406 1785 -2227 
Q 1990 -2048 2214 -1779 
Q 2233 -1798 2332 -1897 
Q 2432 -1997 2611 -2182 
Q 2547 -2278 2451 -2390 
Q 2355 -2502 2227 -2630 
z
M 1369 -2726 
Q 1209 -2598 1103 -2495 
Q 998 -2393 928 -2317 
Q 1036 -2208 1145 -2096 
Q 1254 -1984 1363 -1875 
Q 1440 -1971 1760 -2272 
Q 1606 -2502 1369 -2726 
z
" transform="scale(0.015625)"/>
     </defs>
     <use xlink:href="#NotoNaskhArabic-Bold-176"/>
     <use xlink:href="#NotoNaskhArabic-Bold-37" transform="translate(44.296875 0)"/>
     <use xlink:href="#NotoNaskhArabic-Bold-1bf" transform="translate(80.296875 0)"/>
     <use xlink:href="#NotoNaskhArabic-Bold-215" transform="translate(104.796875 0)"/>
     <use xlink:href="#NotoNaskhArabic-Bold-554" transform="translate(155.5 0)"/>
     <use xlink:href="#NotoNaskhArabic-Bold-126" transform="translate(177.59375 0)"/>
     <use xlink:href="#NotoNaskhArabic-Bold-1bf" transform="translate(246.890625 0)"/>
     <use xlink:href="#NotoNaskhArabic-Bold-24" transform="translate(271.390625 0)"/>
     <use xlink:href="#NotoNaskhArabic-Bold-554" transform="translate(353.09375 0)"/>
     <use xlink:href="#NotoNaskhArabic-Bold-112" transform="translate(375.1875 0)"/>
     <use xlink:href="#NotoNaskhArabic-Bold-135" transform="translate(454.6875 0)"/>
     <use xlink:href="#NotoNaskhArabic-Bold-219" transform="translate(499.484375 0)"/>
     <use xlink:href="#NotoNaskhArabic-Bold-b5" transform="translate(548.28125 0)"/>
     <use xlink:href="#NotoNaskhArabic-Bold-241" transform="translate(591.78125 0)"/>
     <use xlink:href="#NotoNaskhArabic-Bold-215" transform="translate(626.078125 0)"/>
     <use xlink:href="#NotoNaskhArabic-Bold-554" transform="translate(676.78125 0)"/>
     <use xlink:href="#DejaVuSans-Bold-b" transform="translate(698.875 0)"/>
     <use xlink:href="#DejaVuSans-Bold-25" transform="translate(744.578125 0)"/>
     <use xlink:href="#DejaVuSans-Bold-58" transform="translate(820.796875 0)"/>
     <use xlink:href="#DejaVuSans-Bold-4f" transform="translate(891.984375 0)"/>
     <use xlink:href="#DejaVuSans-Bold-4f" transform="translate(926.265625 0)"/>
     <use xlink:href="#DejaVuSans-Bold-4c" transform="translate(960.546875 0)"/>
     <use xlink:href="#DejaVuSans-Bold-56" transform="translate(994.828125 0)"/>
     <use xlink:href="#DejaVuSans-Bold-4b" transform="translate(1054.34375 0)"/>
     <use xlink:href="#NotoNaskhArabic-Bold-554" transform="translate(1125.53125 0)"/>
     <use xlink:href="#DejaVuSans-Bold-32" transform="translate(1147.625 0)"/>
     <use xlink:href="#DejaVuSans-Bold-25" transform="translate(1232.640625 0)"/>
     <use xlink:href="#DejaVuSans-Bold-c" transform="translate(1308.859375 0)"/>
     <use xlink:href="#NotoNaskhArabic-Bold-516" transform="translate(1354.5625 0)"/>
     <use xlink:href="#NotoNaskhArabic-Bold-554" transform="translate(1381.96875 0)"/>
     <use xlink:href="#NotoNaskhArabic-Bold-13" transform="translate(1404.0625 0)"/>
     <use xlink:href="#NotoNaskhArabic-Bold-a4" transform="translate(1432.46875 0)"/>
     <use xlink:href="#NotoNaskhArabic-Bold-d4" transform="translate(1497.375 0)"/>
     <use xlink:href="#NotoNaskhArabic-Bold-554" transform="translate(1536.875 0)"/>
     <use xlink:href="#NotoNaskhArabic-Bold-106" transform="translate(1558.96875 0)"/>
     <use xlink:href="#NotoNaskhArabic-Bold-1e4" transform="translate(1628.96875 0)"/>
     <use xlink:href="#NotoNaskhArabic-Bold-135" transform="translate(1670.265625 0)"/>
     <use xlink:href="#NotoNaskhArabic-Bold-215" transform="translate(1715.0625 0)"/>
     <use xlink:href="#NotoNaskhArabic-Bold-554" transform="translate(1765.765625 0)"/>
     <use xlink:href="#NotoNaskhArabic-Bold-200" transform="translate(1787.859375 0)"/>
     <use xlink:href="#NotoNaskhArabic-Bold-4" transform="translate(1839.453125 0)"/>
     <use xlink:href="#NotoNaskhArabic-Bold-26" transform="translate(1868.25 0)"/>
     <use xlink:href="#NotoNaskhArabic-Bold-125" transform="translate(1895.75 0)"/>
     <use xlink:href="#NotoNaskhArabic-Bold-215" transform="translate(1966.34375 0)"/>
     <use xlink:href="#NotoNaskhArabic-Bold-554" transform="translate(2017.046875 0)"/>
     <use xlink:href="#NotoNaskhArabic-Bold-16a" transform="translate(2039.140625 0)"/>
     <use xlink:href="#NotoNaskhArabic-Bold-25" transform="translate(2081.84375 0)"/>
     <use xlink:href="#NotoNaskhArabic-Bold-1be" transform="translate(2111.046875 0)"/>
     <use xlink:href="#NotoNaskhArabic-Bold-554" transform="translate(2172.75 0)"/>
     <use xlink:href="#NotoNaskhArabic-Bold-3" transform="translate(2194.84375 0)"/>
     <use xlink:href="#NotoNaskhArabic-Bold-1ea" transform="translate(2223.25 0)"/>
     <use xlink:href="#NotoNaskhArabic-Bold-b6" transform="translate(2250.75 0)"/>
     <use xlink:href="#NotoNaskhArabic-Bold-146" transform="translate(2299.25 0)"/>
     <use xlink:href="#NotoNaskhArabic-Bold-4" transform="translate(2341.953125 0)"/>
     <use xlink:href="#NotoNaskhArabic-Bold-133" transform="translate(2370.75 0)"/>
     <use xlink:href="#NotoNaskhArabic-Bold-554" transform="translate(2431.15625 0)"/>
     <use xlink:href="#NotoNaskhArabic-Bold-112" transform="translate(2453.25 0)"/>
     <use xlink:href="#NotoNaskhArabic-Bold-135" transform="translate(2532.75 0)"/>
     <use xlink:href="#NotoNaskhArabic-Bold-219" transform="translate(2577.546875 0)"/>
     <use xlink:href="#NotoNaskhArabic-Bold-b5" transform="translate(2626.34375 0)"/>
     <use xlink:href="#NotoNaskhArabic-Bold-23e" transform="translate(2669.84375 0)"/>
     <use xlink:href="#NotoNaskhArabic-Bold-554" transform="translate(2733.4375 0)"/>
    </g>
   </g>
   <g id="patch_6">
    <path d="M 19.989777 217.357402 
L 29.692366 217.357402 
L 29.692366 209.301815 
L 19.989777 209.301815 
z
" clip-path="url(#pe68300cf7e)" style="fill: #b91c1c; stroke: #b91c1c; stroke-linejoin: miter"/>
   </g>
   <g id="patch_7">
    <path d="M 37.630848 220.847004 
L 47.333438 220.847004 
L 47.333438 212.791417 
L 37.630848 212.791417 
z
" clip-path="url(#pe68300cf7e)" style="fill: #b91c1c; stroke: #b91c1c; stroke-linejoin: miter"/>
   </g>
   <g id="patch_8">
    <path d="M 55.27192 234.424513 
L 64.974509 234.424513 
L 64.974509 223.319425 
L 55.27192 223.319425 
z
" clip-path="url(#pe68300cf7e)" style="fill: #b91c1c; stroke: #b91c1c; stroke-linejoin: miter"/>
   </g>
   <g id="patch_9">
    <path d="M 72.912991 239.268542 
L 82.61558 239.268542 
L 82.61558 231.212955 
L 72.912991 231.212955 
z
" clip-path="url(#pe68300cf7e)" style="fill: #b91c1c; stroke: #b91c1c; stroke-linejoin: miter"/>
   </g>
   <g id="patch_10">
    <path d="M 90.554063 251.85376 
L 100.256652 251.85376 
L 100.256652 239.862122 
L 90.554063 239.862122 
z
" clip-path="url(#pe68300cf7e)" style="fill: #b91c1c; stroke: #b91c1c; stroke-linejoin: miter"/>
   </g>
   <g id="patch_11">
    <path d="M 108.195134 265.63092 
L 117.897723 265.63092 
L 117.897723 247.718334 
L 108.195134 247.718334 
z
" clip-path="url(#pe68300cf7e)" style="fill: #b91c1c; stroke: #b91c1c; stroke-linejoin: miter"/>
   </g>
   <g id="patch_12">
    <path d="M 125.836205 275.131741 
L 135.538795 275.131741 
L 135.538795 260.588358 
L 125.836205 260.588358 
z
" clip-path="url(#pe68300cf7e)" style="fill: #b91c1c; stroke: #b91c1c; stroke-linejoin: miter"/>
   </g>
   <g id="patch_13">
    <path d="M 143.477277 282.798088 
L 153.179866 282.798088 
L 153.179866 274.742501 
L 143.477277 274.742501 
z
" clip-path="url(#pe68300cf7e)" style="fill: #1f8a56; stroke: #1f8a56; stroke-linejoin: miter"/>
   </g>
   <g id="patch_14">
    <path d="M 161.118348 288.557334 
L 170.820938 288.557334 
L 170.820938 280.501747 
L 161.118348 280.501747 
z
" clip-path="url(#pe68300cf7e)" style="fill: #b91c1c; stroke: #b91c1c; stroke-linejoin: miter"/>
   </g>
   <g id="patch_15">
    <path d="M 178.75942 300.745936 
L 188.462009 300.745936 
L 188.462009 287.07231 
L 178.75942 287.07231 
z
" clip-path="url(#pe68300cf7e)" style="fill: #b91c1c; stroke: #b91c1c; stroke-linejoin: miter"/>
   </g>
   <g id="patch_16">
    <path d="M 196.400491 303.437828 
L 206.10308 303.437828 
L 206.10308 261.14527 
L 196.400491 261.14527 
z
" clip-path="url(#pe68300cf7e)" style="fill: #1f8a56; stroke: #1f8a56; stroke-linejoin: miter"/>
   </g>
   <g id="patch_17">
    <path d="M 214.041562 257.740829 
L 223.744152 257.740829 
L 223.744152 234.638698 
L 214.041562 234.638698 
z
" clip-path="url(#pe68300cf7e)" style="fill: #1f8a56; stroke: #1f8a56; stroke-linejoin: miter"/>
   </g>
   <g id="patch_18">
    <path d="M 231.682634 233.364913 
L 241.385223 233.364913 
L 241.385223 190.369815 
L 231.682634 190.369815 
z
" clip-path="url(#pe68300cf7e)" style="fill: #1f8a56; stroke: #1f8a56; stroke-linejoin: miter"/>
   </g>
   <g id="patch_19">
    <path d="M 249.323705 189.827666 
L 259.026295 189.827666 
L 259.026295 173.792451 
L 249.323705 173.792451 
z
" clip-path="url(#pe68300cf7e)" style="fill: #1f8a56; stroke: #1f8a56; stroke-linejoin: miter"/>
   </g>
   <g id="patch_20">
    <path d="M 266.964777 171.653396 
L 276.667366 171.653396 
L 276.667366 143.628923 
L 266.964777 143.628923 
z
" clip-path="url(#pe68300cf7e)" style="fill: #1f8a56; stroke: #1f8a56; stroke-linejoin: miter"/>
   </g>
   <g id="patch_21">
    <path d="M 284.605848 148.210276 
L 294.308437 148.210276 
L 294.308437 115.989601 
L 284.605848 115.989601 
z
" clip-path="url(#pe68300cf7e)" style="fill: #1f8a56; stroke: #1f8a56; stroke-linejoin: miter"/>
   </g>
   <g id="patch_22">
    <path d="M 302.24692 113.643283 
L 311.949509 113.643283 
L 311.949509 101.694124 
L 302.24692 101.694124 
z
" clip-path="url(#pe68300cf7e)" style="fill: #1f8a56; stroke: #1f8a56; stroke-linejoin: miter"/>
   </g>
   <g id="patch_23">
    <path d="M 319.887991 110.170332 
L 329.59058 110.170332 
L 329.59058 100.670389 
L 319.887991 100.670389 
z
" clip-path="url(#pe68300cf7e)" style="fill: #b91c1c; stroke: #b91c1c; stroke-linejoin: miter"/>
   </g>
   <g id="patch_24">
    <path d="M 337.529063 110.743972 
L 347.231652 110.743972 
L 347.231652 73.245631 
L 337.529063 73.245631 
z
" clip-path="url(#pe68300cf7e)" style="fill: #1f8a56; stroke: #1f8a56; stroke-linejoin: miter"/>
   </g>
   <g id="patch_25">
    <path d="M 355.170134 75.835513 
L 364.872723 75.835513 
L 364.872723 37.825968 
L 355.170134 37.825968 
z
" clip-path="url(#pe68300cf7e)" style="fill: #1f8a56; stroke: #1f8a56; stroke-linejoin: miter"/>
   </g>
   <g id="patch_26">
    <path d="M 202.283289 259.427426 
Q 236.535102 202.385143 269.520704 147.451582 
" clip-path="url(#pe68300cf7e)" style="fill: none; stroke: #1f8a56; stroke-width: 2.2; stroke-linecap: round"/>
    <path d="M 263.482645 151.291093 
L 269.520704 147.451582 
L 268.969477 154.585736 
z
" clip-path="url(#pe68300cf7e)" style="fill: #1f8a56; stroke: #1f8a56; stroke-width: 2.2; stroke-linecap: round"/>
   </g>
  </g>
  <g id="axes_2">
   <g id="patch_27">
    <path d="M 380.2875 318.75 
L 750.75 318.75 
L 750.75 23.3785 
L 380.2875 23.3785 
z
" style="fill: #ffffff"/>
   </g>
   <g id="matplotlib.axis_3"/>
   <g id="matplotlib.axis_4"/>
   <g id="patch_28">
    <path d="M 546.995625 48.690158 
L 566.400804 48.690158 
L 566.400804 34.359017 
L 546.995625 34.359017 
z
" clip-path="url(#p050b318971)" style="fill: #f4d9d9; opacity: 0.22; stroke: #b91c1c; stroke-width: 1.4; stroke-linejoin: miter"/>
   </g>
   <g id="patch_29">
    <path d="M 750.75 318.75 
L 750.75 23.3785 
" style="fill: none; stroke: #1f2937; stroke-width: 0.8; stroke-linejoin: miter; stroke-linecap: square"/>
   </g>
   <g id="patch_30">
    <path d="M 380.2875 318.75 
L 750.75 318.75 
" style="fill: none; stroke: #1f2937; stroke-width: 0.8; stroke-linejoin: miter; stroke-linecap: square"/>
   </g>
   <g id="line2d_21">
    <path d="M 397.928571 145.980793 
L 397.928571 140.487174 
" clip-path="url(#p050b318971)" style="fill: none; stroke: #1f8a56; stroke-width: 1.1; stroke-linecap: round"/>
   </g>
   <g id="line2d_22">
    <path d="M 415.569643 146.611899 
L 415.569643 127.284996 
" clip-path="url(#p050b318971)" style="fill: none; stroke: #1f8a56; stroke-width: 1.1; stroke-linecap: round"/>
   </g>
   <g id="line2d_23">
    <path d="M 433.210714 139.087341 
L 433.210714 116.258451 
" clip-path="url(#p050b318971)" style="fill: none; stroke: #1f8a56; stroke-width: 1.1; stroke-linecap: round"/>
   </g>
   <g id="line2d_24">
    <path d="M 450.851786 127.574676 
L 450.851786 111.157098 
" clip-path="url(#p050b318971)" style="fill: none; stroke: #b91c1c; stroke-width: 1.1; stroke-linecap: round"/>
   </g>
   <g id="line2d_25">
    <path d="M 468.492857 131.55288 
L 468.492857 89.349448 
" clip-path="url(#p050b318971)" style="fill: none; stroke: #1f8a56; stroke-width: 1.1; stroke-linecap: round"/>
   </g>
   <g id="line2d_26">
    <path d="M 486.133929 97.077527 
L 486.133929 81.739432 
" clip-path="url(#p050b318971)" style="fill: none; stroke: #1f8a56; stroke-width: 1.1; stroke-linecap: round"/>
   </g>
   <g id="line2d_27">
    <path d="M 503.775 87.943548 
L 503.775 78.839633 
" clip-path="url(#p050b318971)" style="fill: none; stroke: #1f8a56; stroke-width: 1.1; stroke-linecap: round"/>
   </g>
   <g id="line2d_28">
    <path d="M 521.416071 86.124202 
L 521.416071 57.754819 
" clip-path="url(#p050b318971)" style="fill: none; stroke: #1f8a56; stroke-width: 1.1; stroke-linecap: round"/>
   </g>
   <g id="line2d_29">
    <path d="M 539.057143 67.512286 
L 539.057143 44.101905 
" clip-path="url(#p050b318971)" style="fill: none; stroke: #1f8a56; stroke-width: 1.1; stroke-linecap: round"/>
   </g>
   <g id="line2d_30">
    <path d="M 556.698214 48.989382 
L 556.698214 36.804477 
" clip-path="url(#p050b318971)" style="fill: none; stroke: #1f8a56; stroke-width: 1.1; stroke-linecap: round"/>
   </g>
   <g id="line2d_31">
    <path d="M 574.339286 83.228719 
L 574.339286 40.789914 
" clip-path="url(#p050b318971)" style="fill: none; stroke: #b91c1c; stroke-width: 1.1; stroke-linecap: round"/>
   </g>
   <g id="line2d_32">
    <path d="M 591.980357 88.635082 
L 591.980357 81.025111 
" clip-path="url(#p050b318971)" style="fill: none; stroke: #b91c1c; stroke-width: 1.1; stroke-linecap: round"/>
   </g>
   <g id="line2d_33">
    <path d="M 609.621429 132.798965 
L 609.621429 85.670707 
" clip-path="url(#p050b318971)" style="fill: none; stroke: #b91c1c; stroke-width: 1.1; stroke-linecap: round"/>
   </g>
   <g id="line2d_34">
    <path d="M 627.2625 171.426618 
L 627.2625 140.180712 
" clip-path="url(#p050b318971)" style="fill: none; stroke: #b91c1c; stroke-width: 1.1; stroke-linecap: round"/>
   </g>
   <g id="line2d_35">
    <path d="M 644.903571 175.515106 
L 644.903571 168.593657 
" clip-path="url(#p050b318971)" style="fill: none; stroke: #1f8a56; stroke-width: 1.1; stroke-linecap: round"/>
   </g>
   <g id="line2d_36">
    <path d="M 662.544643 228.146158 
L 662.544643 161.981801 
" clip-path="url(#p050b318971)" style="fill: none; stroke: #b91c1c; stroke-width: 1.1; stroke-linecap: round"/>
   </g>
   <g id="line2d_37">
    <path d="M 680.185714 258.740745 
L 680.185714 232.480131 
" clip-path="url(#p050b318971)" style="fill: none; stroke: #b91c1c; stroke-width: 1.1; stroke-linecap: round"/>
   </g>
   <g id="line2d_38">
    <path d="M 697.826786 271.84647 
L 697.826786 257.96059 
" clip-path="url(#p050b318971)" style="fill: none; stroke: #b91c1c; stroke-width: 1.1; stroke-linecap: round"/>
   </g>
   <g id="line2d_39">
    <path d="M 715.467857 280.978883 
L 715.467857 268.183043 
" clip-path="url(#p050b318971)" style="fill: none; stroke: #1f8a56; stroke-width: 1.1; stroke-linecap: round"/>
   </g>
   <g id="line2d_40">
    <path d="M 733.108929 305.324023 
L 733.108929 265.786325 
" clip-path="url(#p050b318971)" style="fill: none; stroke: #b91c1c; stroke-width: 1.1; stroke-linecap: round"/>
   </g>
   <g id="text_3">
    <!-- ​BOS ﻂﺑﺎﻫ -->
    <g style="fill: #b91c1c" transform="translate(588.373343 113.744199) scale(0.095 -0.095)">
     <defs>
      <path id="NotoNaskhArabic-Bold-124" d="M 2573 0 
Q 2336 0 2038 13 
Q 1741 26 1488 48 
Q 1235 70 1120 102 
Q 1037 128 883 221 
Q 730 314 554 448 
Q 378 582 218 723 
L 314 998 
Q 922 851 1357 787 
Q 1421 870 1485 950 
Q 1549 1030 1613 1114 
Q 1549 1395 1494 1664 
Q 1440 1933 1389 2189 
Q 1312 2566 1245 2915 
Q 1178 3264 1114 3578 
Q 1107 3616 1104 3654 
Q 1101 3693 1101 3725 
Q 1101 3987 1289 4169 
Q 1478 4352 1754 4352 
Q 1811 4134 1875 3939 
Q 1939 3744 2010 3565 
L 1805 3411 
Q 1830 3123 1852 2835 
Q 1875 2547 1894 2253 
Q 1907 2074 1923 1891 
Q 1939 1709 1946 1523 
Q 2867 2560 3450 2560 
Q 3610 2560 3798 2470 
Q 3987 2381 4176 2233 
Q 4365 2086 4518 1901 
Q 4742 1632 4742 1446 
Q 4742 1210 4678 1037 
Q 5018 813 5434 813 
Q 5491 813 5491 762 
L 5491 109 
Q 5491 58 5434 58 
Q 5139 58 4848 189 
Q 4557 320 4333 557 
Q 4134 384 3846 259 
Q 3558 134 3228 67 
Q 2899 0 2573 0 
z
M 2637 704 
Q 3091 704 3494 809 
Q 3898 915 4378 1146 
Q 3802 1805 3290 1805 
Q 2733 1805 1811 736 
Q 2022 723 2230 713 
Q 2438 704 2637 704 
z
" transform="scale(0.015625)"/>
     </defs>
     <use xlink:href="#NotoNaskhArabic-Bold-554"/>
     <use xlink:href="#DejaVuSans-Bold-25"/>
     <use xlink:href="#DejaVuSans-Bold-32" transform="translate(76.21875 0)"/>
     <use xlink:href="#DejaVuSans-Bold-36" transform="translate(161.234375 0)"/>
     <use xlink:href="#NotoNaskhArabic-Bold-554" transform="translate(233.25 0)"/>
     <use xlink:href="#NotoNaskhArabic-Bold-200" transform="translate(255.34375 0)"/>
     <use xlink:href="#NotoNaskhArabic-Bold-4" transform="translate(306.9375 0)"/>
     <use xlink:href="#NotoNaskhArabic-Bold-26" transform="translate(335.734375 0)"/>
     <use xlink:href="#NotoNaskhArabic-Bold-124" transform="translate(363.234375 0)"/>
    </g>
   </g>
   <g id="text_4">
    <!-- ​ﻲﻃﻮﺒﻫ ﻉﺎﻓﺪﻧﺍ ﻞﺒﻗ ﺓﺪﻋﺎﺻ ﺔﻌﻤﺷ ﺮﺧﺁ :(Bearish OB) ﺔﻄﺑﺎﻫ ﺐﻠﻃ ﺔﻠﺘﻛ -->
    <g style="fill: #b91c1c" transform="translate(436.536211 17.3555) scale(0.095 -0.095)">
     <defs>
      <path id="DejaVuSans-Bold-48" d="M 4031 1759 
L 4031 1441 
L 1416 1441 
Q 1456 1047 1700 850 
Q 1944 653 2381 653 
Q 2734 653 3104 758 
Q 3475 863 3866 1075 
L 3866 213 
Q 3469 63 3072 -14 
Q 2675 -91 2278 -91 
Q 1328 -91 801 392 
Q 275 875 275 1747 
Q 275 2603 792 3093 
Q 1309 3584 2216 3584 
Q 3041 3584 3536 3087 
Q 4031 2591 4031 1759 
z
M 2881 2131 
Q 2881 2450 2695 2645 
Q 2509 2841 2209 2841 
Q 1884 2841 1681 2658 
Q 1478 2475 1428 2131 
L 2881 2131 
z
" transform="scale(0.015625)"/>
      <path id="DejaVuSans-Bold-44" d="M 2106 1575 
Q 1756 1575 1579 1456 
Q 1403 1338 1403 1106 
Q 1403 894 1545 773 
Q 1688 653 1941 653 
Q 2256 653 2472 879 
Q 2688 1106 2688 1447 
L 2688 1575 
L 2106 1575 
z
M 3816 1997 
L 3816 0 
L 2688 0 
L 2688 519 
Q 2463 200 2181 54 
Q 1900 -91 1497 -91 
Q 953 -91 614 226 
Q 275 544 275 1050 
Q 275 1666 698 1953 
Q 1122 2241 2028 2241 
L 2688 2241 
L 2688 2328 
Q 2688 2594 2478 2717 
Q 2269 2841 1825 2841 
Q 1466 2841 1156 2769 
Q 847 2697 581 2553 
L 581 3406 
Q 941 3494 1303 3539 
Q 1666 3584 2028 3584 
Q 2975 3584 3395 3211 
Q 3816 2838 3816 1997 
z
" transform="scale(0.015625)"/>
      <path id="DejaVuSans-Bold-55" d="M 3138 2547 
Q 2991 2616 2845 2648 
Q 2700 2681 2553 2681 
Q 2122 2681 1889 2404 
Q 1656 2128 1656 1613 
L 1656 0 
L 538 0 
L 538 3500 
L 1656 3500 
L 1656 2925 
Q 1872 3269 2151 3426 
Q 2431 3584 2822 3584 
Q 2878 3584 2943 3579 
Q 3009 3575 3134 3559 
L 3138 2547 
z
" transform="scale(0.015625)"/>
      <path id="NotoNaskhArabic-Bold-214" d="M 1274 0 
Q 909 0 672 246 
Q 435 493 435 864 
Q 435 1126 572 1401 
Q 710 1677 1018 1984 
Q 915 2048 880 2141 
Q 845 2234 845 2330 
Q 845 2464 899 2585 
Q 954 2707 1043 2752 
Q 1408 2637 1721 2381 
Q 2035 2125 2214 1798 
Q 2394 1466 2394 1184 
Q 2394 1094 2349 944 
Q 2304 794 2233 634 
Q 2163 474 2086 349 
Q 2010 224 1939 179 
Q 1818 96 1642 48 
Q 1466 0 1274 0 
z
M 1344 672 
Q 1690 672 1978 851 
Q 1882 1133 1715 1360 
Q 1549 1587 1286 1786 
Q 915 1421 915 1075 
Q 915 896 1040 784 
Q 1165 672 1344 672 
z
M 1684 3251 
Q 1549 3360 1440 3456 
Q 1332 3552 1242 3648 
Q 1479 3866 1671 4096 
Q 1728 4032 1830 3936 
Q 1933 3840 2074 3699 
Q 1901 3463 1684 3251 
z
M 826 3155 
Q 551 3379 384 3559 
Q 493 3667 602 3779 
Q 711 3891 820 4000 
Q 935 3866 1216 3603 
Q 1056 3373 826 3155 
z
" transform="scale(0.015625)"/>
      <path id="NotoNaskhArabic-Bold-23f" d="M 1830 -1613 
Q 1152 -1613 793 -1277 
Q 435 -941 435 -301 
Q 435 32 595 627 
L 877 557 
Q 787 256 787 45 
Q 787 -397 1059 -627 
Q 1331 -858 1901 -858 
Q 2240 -858 2598 -816 
Q 2957 -774 3283 -710 
Q 3450 -672 3610 -627 
Q 3770 -582 3898 -531 
Q 3757 -474 3561 -374 
Q 3366 -275 3187 -163 
Q 3008 -51 2893 32 
Q 2726 160 2726 218 
Q 2726 282 2771 397 
Q 2816 512 2877 633 
Q 2938 755 2992 838 
Q 3046 922 3066 922 
Q 3354 870 3699 841 
Q 4045 813 4454 813 
Q 4525 813 4525 749 
L 4525 122 
Q 4525 58 4454 58 
Q 4320 58 4137 70 
Q 3955 83 3779 108 
Q 3603 134 3475 166 
Q 3738 45 3875 -25 
Q 4013 -96 4070 -131 
Q 4128 -166 4147 -198 
Q 4192 -243 4208 -336 
Q 4224 -429 4224 -518 
Q 4224 -678 4057 -848 
Q 3891 -1018 3600 -1171 
Q 3309 -1325 2925 -1440 
Q 2349 -1613 1830 -1613 
z
M 2355 -2630 
Q 2080 -2406 1913 -2227 
Q 2118 -2048 2342 -1779 
Q 2361 -1798 2460 -1897 
Q 2560 -1997 2739 -2182 
Q 2675 -2278 2579 -2390 
Q 2483 -2502 2355 -2630 
z
M 1497 -2726 
Q 1337 -2598 1231 -2495 
Q 1126 -2393 1056 -2317 
Q 1164 -2208 1273 -2096 
Q 1382 -1984 1491 -1875 
Q 1568 -1971 1888 -2272 
Q 1734 -2502 1497 -2726 
z
" transform="scale(0.015625)"/>
     </defs>
     <use xlink:href="#NotoNaskhArabic-Bold-176"/>
     <use xlink:href="#NotoNaskhArabic-Bold-37" transform="translate(44.296875 0)"/>
     <use xlink:href="#NotoNaskhArabic-Bold-1bf" transform="translate(80.296875 0)"/>
     <use xlink:href="#NotoNaskhArabic-Bold-215" transform="translate(104.796875 0)"/>
     <use xlink:href="#NotoNaskhArabic-Bold-554" transform="translate(155.5 0)"/>
     <use xlink:href="#NotoNaskhArabic-Bold-126" transform="translate(177.59375 0)"/>
     <use xlink:href="#NotoNaskhArabic-Bold-1bf" transform="translate(246.890625 0)"/>
     <use xlink:href="#NotoNaskhArabic-Bold-24" transform="translate(271.390625 0)"/>
     <use xlink:href="#NotoNaskhArabic-Bold-554" transform="translate(353.09375 0)"/>
     <use xlink:href="#NotoNaskhArabic-Bold-200" transform="translate(375.1875 0)"/>
     <use xlink:href="#NotoNaskhArabic-Bold-4" transform="translate(426.78125 0)"/>
     <use xlink:href="#NotoNaskhArabic-Bold-26" transform="translate(455.578125 0)"/>
     <use xlink:href="#NotoNaskhArabic-Bold-125" transform="translate(483.078125 0)"/>
     <use xlink:href="#NotoNaskhArabic-Bold-215" transform="translate(553.671875 0)"/>
     <use xlink:href="#NotoNaskhArabic-Bold-554" transform="translate(604.375 0)"/>
     <use xlink:href="#DejaVuSans-Bold-b" transform="translate(626.46875 0)"/>
     <use xlink:href="#DejaVuSans-Bold-25" transform="translate(672.171875 0)"/>
     <use xlink:href="#DejaVuSans-Bold-48" transform="translate(748.390625 0)"/>
     <use xlink:href="#DejaVuSans-Bold-44" transform="translate(816.21875 0)"/>
     <use xlink:href="#DejaVuSans-Bold-55" transform="translate(883.703125 0)"/>
     <use xlink:href="#DejaVuSans-Bold-4c" transform="translate(933.015625 0)"/>
     <use xlink:href="#DejaVuSans-Bold-56" transform="translate(967.296875 0)"/>
     <use xlink:href="#DejaVuSans-Bold-4b" transform="translate(1026.8125 0)"/>
     <use xlink:href="#NotoNaskhArabic-Bold-554" transform="translate(1098 0)"/>
     <use xlink:href="#DejaVuSans-Bold-32" transform="translate(1120.09375 0)"/>
     <use xlink:href="#DejaVuSans-Bold-25" transform="translate(1205.109375 0)"/>
     <use xlink:href="#DejaVuSans-Bold-c" transform="translate(1281.328125 0)"/>
     <use xlink:href="#NotoNaskhArabic-Bold-516" transform="translate(1327.03125 0)"/>
     <use xlink:href="#NotoNaskhArabic-Bold-554" transform="translate(1354.4375 0)"/>
     <use xlink:href="#NotoNaskhArabic-Bold-13" transform="translate(1376.53125 0)"/>
     <use xlink:href="#NotoNaskhArabic-Bold-a4" transform="translate(1404.9375 0)"/>
     <use xlink:href="#NotoNaskhArabic-Bold-d4" transform="translate(1469.84375 0)"/>
     <use xlink:href="#NotoNaskhArabic-Bold-554" transform="translate(1509.34375 0)"/>
     <use xlink:href="#NotoNaskhArabic-Bold-106" transform="translate(1531.4375 0)"/>
     <use xlink:href="#NotoNaskhArabic-Bold-1e4" transform="translate(1601.4375 0)"/>
     <use xlink:href="#NotoNaskhArabic-Bold-135" transform="translate(1642.734375 0)"/>
     <use xlink:href="#NotoNaskhArabic-Bold-215" transform="translate(1687.53125 0)"/>
     <use xlink:href="#NotoNaskhArabic-Bold-554" transform="translate(1738.234375 0)"/>
     <use xlink:href="#NotoNaskhArabic-Bold-112" transform="translate(1760.328125 0)"/>
     <use xlink:href="#NotoNaskhArabic-Bold-4" transform="translate(1839.828125 0)"/>
     <use xlink:href="#NotoNaskhArabic-Bold-136" transform="translate(1868.625 0)"/>
     <use xlink:href="#NotoNaskhArabic-Bold-b6" transform="translate(1920.328125 0)"/>
     <use xlink:href="#NotoNaskhArabic-Bold-214" transform="translate(1968.828125 0)"/>
     <use xlink:href="#NotoNaskhArabic-Bold-554" transform="translate(2011.328125 0)"/>
     <use xlink:href="#NotoNaskhArabic-Bold-16a" transform="translate(2033.421875 0)"/>
     <use xlink:href="#NotoNaskhArabic-Bold-25" transform="translate(2076.125 0)"/>
     <use xlink:href="#NotoNaskhArabic-Bold-1be" transform="translate(2105.328125 0)"/>
     <use xlink:href="#NotoNaskhArabic-Bold-554" transform="translate(2167.03125 0)"/>
     <use xlink:href="#NotoNaskhArabic-Bold-3" transform="translate(2189.125 0)"/>
     <use xlink:href="#NotoNaskhArabic-Bold-1ea" transform="translate(2217.53125 0)"/>
     <use xlink:href="#NotoNaskhArabic-Bold-b6" transform="translate(2245.03125 0)"/>
     <use xlink:href="#NotoNaskhArabic-Bold-146" transform="translate(2293.53125 0)"/>
     <use xlink:href="#NotoNaskhArabic-Bold-4" transform="translate(2336.234375 0)"/>
     <use xlink:href="#NotoNaskhArabic-Bold-133" transform="translate(2365.03125 0)"/>
     <use xlink:href="#NotoNaskhArabic-Bold-554" transform="translate(2425.4375 0)"/>
     <use xlink:href="#NotoNaskhArabic-Bold-200" transform="translate(2447.53125 0)"/>
     <use xlink:href="#NotoNaskhArabic-Bold-25" transform="translate(2499.125 0)"/>
     <use xlink:href="#NotoNaskhArabic-Bold-219" transform="translate(2528.328125 0)"/>
     <use xlink:href="#NotoNaskhArabic-Bold-126" transform="translate(2577.125 0)"/>
     <use xlink:href="#NotoNaskhArabic-Bold-23f" transform="translate(2646.421875 0)"/>
     <use xlink:href="#NotoNaskhArabic-Bold-554" transform="translate(2715.421875 0)"/>
    </g>
   </g>
   <g id="patch_31">
    <path d="M 393.077277 144.776605 
L 402.779866 144.776605 
L 402.779866 136.721018 
L 393.077277 136.721018 
z
" clip-path="url(#p050b318971)" style="fill: #1f8a56; stroke: #1f8a56; stroke-linejoin: miter"/>
   </g>
   <g id="patch_32">
    <path d="M 410.718348 145.131683 
L 420.420937 145.131683 
L 420.420937 130.452946 
L 410.718348 130.452946 
z
" clip-path="url(#p050b318971)" style="fill: #1f8a56; stroke: #1f8a56; stroke-linejoin: miter"/>
   </g>
   <g id="patch_33">
    <path d="M 428.35942 137.006203 
L 438.062009 137.006203 
L 438.062009 116.880226 
L 428.35942 116.880226 
z
" clip-path="url(#p050b318971)" style="fill: #1f8a56; stroke: #1f8a56; stroke-linejoin: miter"/>
   </g>
   <g id="patch_34">
    <path d="M 446.000491 125.381332 
L 455.70308 125.381332 
L 455.70308 113.603816 
L 446.000491 113.603816 
z
" clip-path="url(#p050b318971)" style="fill: #b91c1c; stroke: #b91c1c; stroke-linejoin: miter"/>
   </g>
   <g id="patch_35">
    <path d="M 463.641562 130.270167 
L 473.344152 130.270167 
L 473.344152 91.853553 
L 463.641562 91.853553 
z
" clip-path="url(#p050b318971)" style="fill: #1f8a56; stroke: #1f8a56; stroke-linejoin: miter"/>
   </g>
   <g id="patch_36">
    <path d="M 481.282634 91.085085 
L 490.985223 91.085085 
L 490.985223 82.535127 
L 481.282634 82.535127 
z
" clip-path="url(#p050b318971)" style="fill: #1f8a56; stroke: #1f8a56; stroke-linejoin: miter"/>
   </g>
   <g id="patch_37">
    <path d="M 498.923705 85.839595 
L 508.626295 85.839595 
L 508.626295 77.784007 
L 498.923705 77.784007 
z
" clip-path="url(#p050b318971)" style="fill: #1f8a56; stroke: #1f8a56; stroke-linejoin: miter"/>
   </g>
   <g id="patch_38">
    <path d="M 516.564777 83.601078 
L 526.267366 83.601078 
L 526.267366 58.704853 
L 516.564777 58.704853 
z
" clip-path="url(#p050b318971)" style="fill: #1f8a56; stroke: #1f8a56; stroke-linejoin: miter"/>
   </g>
   <g id="patch_39">
    <path d="M 534.205848 64.077278 
L 543.908438 64.077278 
L 543.908438 45.639142 
L 534.205848 45.639142 
z
" clip-path="url(#p050b318971)" style="fill: #1f8a56; stroke: #1f8a56; stroke-linejoin: miter"/>
   </g>
   <g id="patch_40">
    <path d="M 551.84692 45.638345 
L 561.549509 45.638345 
L 561.549509 37.410829 
L 551.84692 37.410829 
z
" clip-path="url(#p050b318971)" style="fill: #1f8a56; stroke: #1f8a56; stroke-linejoin: miter"/>
   </g>
   <g id="patch_41">
    <path d="M 569.487991 81.887914 
L 579.19058 81.887914 
L 579.19058 40.936129 
L 569.487991 40.936129 
z
" clip-path="url(#p050b318971)" style="fill: #b91c1c; stroke: #b91c1c; stroke-linejoin: miter"/>
   </g>
   <g id="patch_42">
    <path d="M 587.129063 86.954792 
L 596.831652 86.954792 
L 596.831652 78.899205 
L 587.129063 78.899205 
z
" clip-path="url(#p050b318971)" style="fill: #b91c1c; stroke: #b91c1c; stroke-linejoin: miter"/>
   </g>
   <g id="patch_43">
    <path d="M 604.770134 132.446112 
L 614.472723 132.446112 
L 614.472723 88.076388 
L 604.770134 88.076388 
z
" clip-path="url(#p050b318971)" style="fill: #b91c1c; stroke: #b91c1c; stroke-linejoin: miter"/>
   </g>
   <g id="patch_44">
    <path d="M 622.411205 170.344409 
L 632.113795 170.344409 
L 632.113795 140.24815 
L 622.411205 140.24815 
z
" clip-path="url(#p050b318971)" style="fill: #b91c1c; stroke: #b91c1c; stroke-linejoin: miter"/>
   </g>
   <g id="patch_45">
    <path d="M 640.052277 174.365501 
L 649.754866 174.365501 
L 649.754866 166.309914 
L 640.052277 166.309914 
z
" clip-path="url(#p050b318971)" style="fill: #1f8a56; stroke: #1f8a56; stroke-linejoin: miter"/>
   </g>
   <g id="patch_46">
    <path d="M 657.693348 228.14395 
L 667.395938 228.14395 
L 667.395938 164.740248 
L 657.693348 164.740248 
z
" clip-path="url(#p050b318971)" style="fill: #b91c1c; stroke: #b91c1c; stroke-linejoin: miter"/>
   </g>
   <g id="patch_47">
    <path d="M 675.33442 258.570922 
L 685.037009 258.570922 
L 685.037009 235.368615 
L 675.33442 235.368615 
z
" clip-path="url(#p050b318971)" style="fill: #b91c1c; stroke: #b91c1c; stroke-linejoin: miter"/>
   </g>
   <g id="patch_48">
    <path d="M 692.975491 271.628691 
L 702.67808 271.628691 
L 702.67808 259.136135 
L 692.975491 259.136135 
z
" clip-path="url(#p050b318971)" style="fill: #b91c1c; stroke: #b91c1c; stroke-linejoin: miter"/>
   </g>
   <g id="patch_49">
    <path d="M 710.616563 279.153864 
L 720.319152 279.153864 
L 720.319152 269.981578 
L 710.616563 269.981578 
z
" clip-path="url(#p050b318971)" style="fill: #1f8a56; stroke: #1f8a56; stroke-linejoin: miter"/>
   </g>
   <g id="patch_50">
    <path d="M 728.257634 303.216075 
L 737.960223 303.216075 
L 737.960223 268.744545 
L 728.257634 268.744545 
z
" clip-path="url(#p050b318971)" style="fill: #b91c1c; stroke: #b91c1c; stroke-linejoin: miter"/>
   </g>
   <g id="patch_51">
    <path d="M 575.590441 83.45047 
Q 609.621944 125.952093 642.116069 166.533699 
" clip-path="url(#p050b318971)" style="fill: none; stroke: #b91c1c; stroke-width: 2.2; stroke-linecap: round"/>
    <path d="M 640.61377 159.537764 
L 642.116069 166.533699 
L 635.617942 163.537977 
z
" clip-path="url(#p050b318971)" style="fill: #b91c1c; stroke: #b91c1c; stroke-width: 2.2; stroke-linecap: round"/>
   </g>
  </g>
 </g>
 <defs>
  <clipPath id="pe68300cf7e">
   <rect x="7.2" y="23.3785" width="370.4625" height="295.3715"/>
  </clipPath>
  <clipPath id="p050b318971">
   <rect x="380.2875" y="23.3785" width="370.4625" height="295.3715"/>
  </clipPath>
 </defs>
</svg>
