<?xml version="1.0" encoding="utf-8" standalone="no"?>
<!DOCTYPE svg PUBLIC "-//W3C//DTD SVG 1.1//EN"
  "http://www.w3.org/Graphics/SVG/1.1/DTD/svg11.dtd">
<svg xmlns:xlink="http://www.w3.org/1999/xlink" width="628.35pt" height="340.35pt" viewBox="0 0 628.35 340.35" xmlns="http://www.w3.org/2000/svg" version="1.1">
 <metadata>
  <rdf:RDF xmlns:dc="http://purl.org/dc/elements/1.1/" xmlns:cc="http://creativecommons.org/ns#" xmlns:rdf="http://www.w3.org/1999/02/22-rdf-syntax-ns#">
   <cc:Work>
    <dc:type rdf:resource="http://purl.org/dc/dcmitype/StillImage"/>
    <dc:date>2026-07-19T01:19:51.353053</dc:date>
    <dc:format>image/svg+xml</dc:format>
    <dc:creator>
     <cc:Agent>
      <dc:title>Matplotlib v3.11.1, https://matplotlib.org/</dc:title>
     </cc:Agent>
    </dc:creator>
   </cc:Work>
  </rdf:RDF>
 </metadata>
 <defs>
  <style type="text/css">*{stroke-linejoin: round; stroke-linecap: butt}</style>
 </defs>
 <g id="figure_1">
  <g id="patch_1">
   <path d="M 0 340.35 
L 628.35 340.35 
L 628.35 0 
L 0 0 
z
" style="fill: #ffffff"/>
  </g>
  <g id="axes_1">
   <g id="patch_2">
    <path d="M 48.094156 286.387 
L 578.0935 286.387 
L 578.0935 7.2 
L 48.094156 7.2 
z
" style="fill: #ffffff"/>
   </g>
   <g id="matplotlib.axis_1">
    <g id="xtick_1">
     <g id="line2d_1">
      <defs>
       <path id="m6773dace39" d="M 0 0 
L 0 3.5 
" style="stroke: #555555; stroke-width: 0.8"/>
      </defs>
      <g>
       <use xlink:href="#m6773dace39" x="72.185036" y="286.387" style="fill: #555555; stroke: #555555; stroke-width: 0.8"/>
      </g>
     </g>
     <g id="text_1">
      <!-- 0 -->
      <g style="fill: #555555" transform="translate(69.181871 304.6115) scale(0.105 -0.105)">
       <defs>
        <path id="NotoNaskhArabic-Regular-4cc" d="M 1824 -64 
Q 1082 -64 698 534 
Q 314 1133 314 2291 
Q 314 3488 682 4064 
Q 1050 4640 1824 4640 
Q 2566 4640 2956 4038 
Q 3347 3437 3347 2291 
Q 3347 1101 2969 518 
Q 2592 -64 1824 -64 
z
M 1824 416 
Q 2208 416 2426 678 
Q 2778 1094 2778 2291 
Q 2778 3571 2368 3962 
Q 2163 4160 1824 4160 
Q 1427 4160 1203 3878 
Q 877 3469 877 2291 
Q 877 1075 1229 666 
Q 1440 416 1824 416 
z
" transform="scale(0.015625)"/>
       </defs>
       <use xlink:href="#NotoNaskhArabic-Regular-4cc"/>
      </g>
     </g>
    </g>
    <g id="xtick_2">
     <g id="line2d_2">
      <g>
       <use xlink:href="#m6773dace39" x="159.788233" y="286.387" style="fill: #555555; stroke: #555555; stroke-width: 0.8"/>
      </g>
     </g>
     <g id="text_2">
      <!-- 2 -->
      <g style="fill: #555555" transform="translate(156.785069 304.6115) scale(0.105 -0.105)">
       <defs>
        <path id="NotoNaskhArabic-Regular-4ce" d="M 307 0 
L 307 467 
L 1504 1677 
Q 1773 1952 1952 2147 
Q 2131 2342 2221 2458 
Q 2413 2720 2489 2925 
Q 2566 3130 2566 3386 
Q 2566 3744 2352 3949 
Q 2138 4154 1760 4154 
Q 1478 4154 1228 4058 
Q 979 3962 659 3718 
L 358 4096 
Q 1005 4634 1760 4634 
Q 2240 4634 2576 4448 
Q 2912 4262 3053 3923 
Q 3142 3686 3142 3418 
Q 3142 3123 3033 2841 
Q 2925 2560 2707 2272 
Q 2598 2131 2416 1929 
Q 2234 1728 1971 1478 
L 1018 538 
L 1018 512 
L 3328 512 
L 3328 0 
L 307 0 
z
" transform="scale(0.015625)"/>
       </defs>
       <use xlink:href="#NotoNaskhArabic-Regular-4ce"/>
      </g>
     </g>
    </g>
    <g id="xtick_3">
     <g id="line2d_3">
      <g>
       <use xlink:href="#m6773dace39" x="247.39143" y="286.387" style="fill: #555555; stroke: #555555; stroke-width: 0.8"/>
      </g>
     </g>
     <g id="text_3">
      <!-- 4 -->
      <g style="fill: #555555" transform="translate(244.388266 304.6115) scale(0.105 -0.105)">
       <defs>
        <path id="NotoNaskhArabic-Regular-4d0" d="M 2323 0 
L 2323 1037 
L 134 1037 
L 134 1517 
L 2285 4595 
L 2867 4595 
L 2867 1542 
L 3533 1542 
L 3533 1037 
L 2867 1037 
L 2867 0 
L 2323 0 
z
M 685 1542 
L 2323 1542 
L 2323 2982 
Q 2323 3194 2332 3446 
Q 2342 3699 2355 3994 
L 2330 3994 
Q 2298 3910 2211 3747 
Q 2125 3584 2054 3494 
L 685 1542 
z
" transform="scale(0.015625)"/>
       </defs>
       <use xlink:href="#NotoNaskhArabic-Regular-4d0"/>
      </g>
     </g>
    </g>
    <g id="xtick_4">
     <g id="line2d_4">
      <g>
       <use xlink:href="#m6773dace39" x="334.994627" y="286.387" style="fill: #555555; stroke: #555555; stroke-width: 0.8"/>
      </g>
     </g>
     <g id="text_4">
      <!-- 6 -->
      <g style="fill: #555555" transform="translate(331.991463 304.6115) scale(0.105 -0.105)">
       <defs>
        <path id="NotoNaskhArabic-Regular-4d2" d="M 1907 -64 
Q 1440 -64 1088 176 
Q 736 416 544 870 
Q 352 1331 352 1952 
Q 352 4634 2445 4634 
Q 2810 4634 3008 4576 
L 3008 4096 
Q 2771 4173 2458 4173 
Q 1984 4173 1654 3987 
Q 1325 3802 1139 3405 
Q 941 2976 915 2323 
L 954 2323 
Q 1299 2861 2035 2861 
Q 2656 2861 3008 2486 
Q 3360 2112 3360 1472 
Q 3360 762 2969 349 
Q 2579 -64 1907 -64 
z
M 1901 410 
Q 2336 410 2569 688 
Q 2803 966 2803 1472 
Q 2803 1926 2576 2172 
Q 2349 2419 1920 2419 
Q 1645 2419 1421 2307 
Q 1197 2195 1056 1997 
Q 922 1798 922 1581 
Q 922 1267 1050 995 
Q 1178 723 1395 563 
Q 1619 410 1901 410 
z
" transform="scale(0.015625)"/>
       </defs>
       <use xlink:href="#NotoNaskhArabic-Regular-4d2"/>
      </g>
     </g>
    </g>
    <g id="xtick_5">
     <g id="line2d_5">
      <g>
       <use xlink:href="#m6773dace39" x="422.597825" y="286.387" style="fill: #555555; stroke: #555555; stroke-width: 0.8"/>
      </g>
     </g>
     <g id="text_5">
      <!-- 8 -->
      <g style="fill: #555555" transform="translate(419.594661 304.6115) scale(0.105 -0.105)">
       <defs>
        <path id="NotoNaskhArabic-Regular-4d4" d="M 1843 -64 
Q 1114 -64 714 256 
Q 314 576 314 1165 
Q 314 1946 1261 2387 
Q 832 2630 646 2912 
Q 461 3194 461 3546 
Q 461 4045 832 4339 
Q 1203 4634 1824 4634 
Q 2451 4634 2822 4342 
Q 3194 4051 3194 3539 
Q 3194 3200 2986 2928 
Q 2778 2656 2323 2419 
Q 2874 2150 3107 1856 
Q 3341 1562 3341 1184 
Q 3341 621 2937 278 
Q 2534 -64 1843 -64 
z
M 1850 2637 
Q 2278 2816 2457 3030 
Q 2637 3245 2637 3520 
Q 2637 3834 2416 4006 
Q 2195 4179 1818 4179 
Q 1446 4179 1228 4003 
Q 1011 3827 1011 3520 
Q 1011 3322 1094 3171 
Q 1178 3021 1338 2906 
Q 1498 2784 1850 2637 
z
M 1830 384 
Q 2278 384 2534 595 
Q 2790 806 2790 1178 
Q 2790 1478 2547 1712 
Q 2304 1946 1728 2157 
Q 1280 1965 1072 1728 
Q 864 1491 864 1158 
Q 864 800 1123 592 
Q 1382 384 1830 384 
z
" transform="scale(0.015625)"/>
       </defs>
       <use xlink:href="#NotoNaskhArabic-Regular-4d4"/>
      </g>
     </g>
    </g>
    <g id="xtick_6">
     <g id="line2d_6">
      <g>
       <use xlink:href="#m6773dace39" x="510.201022" y="286.387" style="fill: #555555; stroke: #555555; stroke-width: 0.8"/>
      </g>
     </g>
     <g id="text_6">
      <!-- 10 -->
      <g style="fill: #555555" transform="translate(504.194694 304.6115) scale(0.105 -0.105)">
       <defs>
        <path id="NotoNaskhArabic-Regular-4cd" d="M 1722 0 
L 1722 3194 
Q 1722 3405 1728 3603 
Q 1734 3802 1747 3981 
Q 1702 3936 1657 3891 
Q 1613 3846 1562 3808 
Q 1402 3674 1226 3530 
Q 1050 3386 864 3232 
L 570 3610 
L 1805 4570 
L 2272 4570 
L 2272 0 
L 1722 0 
z
" transform="scale(0.015625)"/>
       </defs>
       <use xlink:href="#NotoNaskhArabic-Regular-4cd"/>
       <use xlink:href="#NotoNaskhArabic-Regular-4cc" transform="translate(57.203125 0)"/>
      </g>
     </g>
    </g>
    <g id="text_7">
     <!-- ​ﺮﻬﺸﻟﺍ -->
     <g style="fill: #1f2937" transform="translate(303.129492 326.493) scale(0.105 -0.105)">
      <defs>
       <path id="NotoNaskhArabic-Regular-3" d="M 666 0 
Q 646 1126 604 2057 
Q 563 2989 493 3725 
Q 467 3987 566 4118 
Q 666 4250 915 4294 
Q 941 4173 1001 3965 
Q 1062 3757 1139 3533 
L 966 3386 
Q 992 2912 1001 2413 
Q 1011 1914 1001 1338 
Q 992 762 960 51 
L 666 0 
z
" transform="scale(0.015625)"/>
       <path id="NotoNaskhArabic-Regular-1c1" d="M -6 0 
Q -64 0 -64 51 
L -64 435 
Q -64 486 -6 486 
Q 378 486 704 659 
Q 685 902 665 1139 
Q 646 1376 627 1606 
Q 570 2208 512 2790 
Q 454 3373 384 3936 
Q 474 4032 579 4121 
Q 685 4211 806 4294 
Q 826 3949 851 3497 
Q 877 3046 915 2483 
Q 947 2016 960 1609 
Q 973 1203 979 864 
Q 979 755 915 572 
Q 851 390 755 224 
Q 640 0 -6 0 
z
" transform="scale(0.015625)"/>
       <path id="NotoNaskhArabic-Regular-105" d="M 1446 0 
Q 1267 0 1030 57 
Q 794 115 666 198 
Q 576 109 397 54 
Q 218 0 0 0 
Q -51 0 -51 51 
L -51 435 
Q -51 486 0 486 
Q 326 486 518 634 
Q 627 723 681 809 
Q 736 896 858 1094 
Q 915 1197 1056 1197 
Q 1146 1197 1210 1152 
Q 1114 909 1046 765 
Q 979 621 947 570 
Q 998 544 1155 515 
Q 1312 486 1517 486 
Q 1664 486 1789 505 
Q 1914 525 2016 550 
Q 2061 621 2115 793 
Q 2170 966 2227 1145 
Q 2285 1325 2323 1408 
Q 2381 1536 2432 1574 
Q 2483 1613 2579 1613 
Q 2669 1613 2733 1568 
Q 2688 1466 2608 1235 
Q 2528 1005 2400 582 
Q 2496 538 2566 522 
Q 2637 506 2739 506 
Q 2906 506 3091 570 
Q 3123 608 3168 723 
Q 3213 838 3277 1030 
Q 3328 1190 3385 1331 
Q 3443 1472 3501 1568 
Q 3552 1664 3699 1664 
Q 3789 1664 3853 1619 
Q 3808 1517 3728 1289 
Q 3648 1062 3533 710 
Q 3757 589 3917 537 
Q 4077 486 4294 486 
Q 4352 486 4352 435 
L 4352 51 
Q 4352 0 4294 0 
Q 4045 0 3798 96 
Q 3552 192 3386 346 
Q 3366 301 3347 259 
Q 3328 218 3296 173 
Q 3251 96 3078 48 
Q 2906 0 2733 0 
Q 2438 0 2221 160 
Q 2176 102 2041 67 
Q 1907 32 1744 19 
Q 1581 6 1446 0 
z
M 2317 2605 
Q 2150 2707 1958 2918 
Q 2054 3014 2140 3103 
Q 2227 3193 2298 3277 
Q 2413 3123 2650 2918 
Q 2464 2701 2317 2605 
z
M 2771 2080 
Q 2560 2246 2394 2432 
Q 2451 2483 2547 2582 
Q 2643 2681 2765 2822 
Q 2854 2733 2940 2643 
Q 3027 2553 3117 2470 
Q 3053 2381 2969 2281 
Q 2886 2182 2771 2080 
z
M 1862 1997 
Q 1741 2093 1645 2182 
Q 1549 2272 1478 2349 
Q 1632 2489 1850 2739 
Q 1914 2662 2202 2387 
Q 2144 2304 2061 2204 
Q 1978 2105 1862 1997 
z
" transform="scale(0.015625)"/>
       <path id="NotoNaskhArabic-Regular-1ff" d="M 1632 -1306 
Q 1139 -1306 825 -1011 
Q 512 -717 422 -173 
L 179 -275 
L 115 6 
L 0 0 
Q -51 0 -51 51 
L -51 435 
Q -51 486 0 486 
Q 109 493 211 496 
Q 314 499 416 506 
Q 550 1696 1619 2707 
L 1850 2643 
Q 1862 2502 1888 2313 
Q 1914 2125 1958 1888 
Q 2003 1670 2022 1520 
Q 2042 1370 2042 1280 
Q 2042 998 1882 780 
Q 1722 563 1517 442 
Q 1779 467 2000 476 
Q 2221 486 2477 486 
Q 2547 486 2547 422 
L 2547 70 
Q 2547 0 2477 0 
Q 2214 0 2029 -45 
Q 2182 -109 2288 -240 
Q 2394 -371 2394 -499 
Q 2394 -557 2349 -688 
Q 2304 -819 2253 -944 
Q 2202 -1069 2170 -1107 
Q 2086 -1190 1939 -1248 
Q 1792 -1306 1632 -1306 
z
M 806 480 
Q 1037 506 1264 605 
Q 1491 704 1670 858 
L 1619 1184 
Q 1555 1485 1520 1705 
Q 1485 1926 1472 2067 
Q 1120 1568 976 1203 
Q 832 838 806 480 
z
M 1690 -858 
Q 1798 -858 1920 -813 
Q 2042 -768 2112 -685 
Q 2061 -499 1904 -342 
Q 1747 -186 1536 -93 
Q 1325 0 1094 0 
Q 1037 0 845 -38 
Q 947 -448 1164 -653 
Q 1382 -858 1690 -858 
z
" transform="scale(0.015625)"/>
       <path id="NotoNaskhArabic-Regular-d4" d="M 710 -1306 
Q 608 -1306 451 -1248 
Q 294 -1190 134 -1107 
Q -26 -1024 -128 -947 
L -45 -736 
Q 134 -768 284 -787 
Q 435 -806 563 -806 
Q 1043 -806 1385 -518 
Q 1728 -230 1907 314 
Q 1862 416 1814 515 
Q 1766 614 1709 717 
Q 1491 1107 1388 1340 
Q 1286 1574 1286 1734 
Q 1286 1901 1382 2000 
Q 1478 2099 1658 2182 
Q 1683 2099 1712 2000 
Q 1741 1901 1786 1792 
Q 1888 1530 1955 1334 
Q 2022 1139 2054 1018 
Q 2093 896 2115 797 
Q 2138 698 2144 614 
Q 2362 486 2643 486 
Q 2694 486 2694 435 
L 2694 51 
Q 2694 0 2643 0 
Q 2342 0 2118 154 
Q 2048 -288 1849 -617 
Q 1651 -947 1356 -1126 
Q 1062 -1306 710 -1306 
z
" transform="scale(0.015625)"/>
       <path id="NotoNaskhArabic-Regular-554" transform="scale(0.015625)"/>
      </defs>
      <use xlink:href="#NotoNaskhArabic-Regular-3"/>
      <use xlink:href="#NotoNaskhArabic-Regular-1c1" transform="translate(23.796875 0)"/>
      <use xlink:href="#NotoNaskhArabic-Regular-105" transform="translate(45 0)"/>
      <use xlink:href="#NotoNaskhArabic-Regular-1ff" transform="translate(111.296875 0)"/>
      <use xlink:href="#NotoNaskhArabic-Regular-d4" transform="translate(149.390625 0)"/>
      <use xlink:href="#NotoNaskhArabic-Regular-554" transform="translate(189.796875 0)"/>
     </g>
    </g>
   </g>
   <g id="matplotlib.axis_2">
    <g id="ytick_1">
     <g id="line2d_7">
      <path d="M 48.094156 268.894981 
L 578.0935 268.894981 
" clip-path="url(#pa059e977cb)" style="fill: none; stroke: #e6e1d6; stroke-width: 0.8; stroke-linecap: square"/>
     </g>
     <g id="line2d_8">
      <defs>
       <path id="m286206c576" d="M 0 0 
L -3.5 0 
" style="stroke: #555555; stroke-width: 0.8"/>
      </defs>
      <g>
       <use xlink:href="#m286206c576" x="48.094156" y="268.894981" style="fill: #555555; stroke: #555555; stroke-width: 0.8"/>
      </g>
     </g>
     <g id="text_8">
      <!-- 44 -->
      <g style="fill: #b7791f" transform="translate(29.0815 274.507231) scale(0.105 -0.105)">
       <use xlink:href="#NotoNaskhArabic-Regular-4d0"/>
       <use xlink:href="#NotoNaskhArabic-Regular-4d0" transform="translate(57.203125 0)"/>
      </g>
     </g>
    </g>
    <g id="ytick_2">
     <g id="line2d_9">
      <path d="M 48.094156 228.450181 
L 578.0935 228.450181 
" clip-path="url(#pa059e977cb)" style="fill: none; stroke: #e6e1d6; stroke-width: 0.8; stroke-linecap: square"/>
     </g>
     <g id="line2d_10">
      <g>
       <use xlink:href="#m286206c576" x="48.094156" y="228.450181" style="fill: #555555; stroke: #555555; stroke-width: 0.8"/>
      </g>
     </g>
     <g id="text_9">
      <!-- 46 -->
      <g style="fill: #b7791f" transform="translate(29.0815 234.062431) scale(0.105 -0.105)">
       <use xlink:href="#NotoNaskhArabic-Regular-4d0"/>
       <use xlink:href="#NotoNaskhArabic-Regular-4d2" transform="translate(57.203125 0)"/>
      </g>
     </g>
    </g>
    <g id="ytick_3">
     <g id="line2d_11">
      <path d="M 48.094156 188.005381 
L 578.0935 188.005381 
" clip-path="url(#pa059e977cb)" style="fill: none; stroke: #e6e1d6; stroke-width: 0.8; stroke-linecap: square"/>
     </g>
     <g id="line2d_12">
      <g>
       <use xlink:href="#m286206c576" x="48.094156" y="188.005381" style="fill: #555555; stroke: #555555; stroke-width: 0.8"/>
      </g>
     </g>
     <g id="text_10">
      <!-- 48 -->
      <g style="fill: #b7791f" transform="translate(29.0815 193.617631) scale(0.105 -0.105)">
       <use xlink:href="#NotoNaskhArabic-Regular-4d0"/>
       <use xlink:href="#NotoNaskhArabic-Regular-4d4" transform="translate(57.203125 0)"/>
      </g>
     </g>
    </g>
    <g id="ytick_4">
     <g id="line2d_13">
      <path d="M 48.094156 147.56058 
L 578.0935 147.56058 
" clip-path="url(#pa059e977cb)" style="fill: none; stroke: #e6e1d6; stroke-width: 0.8; stroke-linecap: square"/>
     </g>
     <g id="line2d_14">
      <g>
       <use xlink:href="#m286206c576" x="48.094156" y="147.56058" style="fill: #555555; stroke: #555555; stroke-width: 0.8"/>
      </g>
     </g>
     <g id="text_11">
      <!-- 50 -->
      <g style="fill: #b7791f" transform="translate(29.0815 153.17283) scale(0.105 -0.105)">
       <defs>
        <path id="NotoNaskhArabic-Regular-4d1" d="M 1587 -64 
Q 826 -64 403 186 
L 403 717 
Q 634 576 960 496 
Q 1286 416 1594 416 
Q 2131 416 2425 672 
Q 2720 928 2720 1402 
Q 2720 2330 1574 2330 
Q 1210 2330 794 2234 
L 512 2413 
L 685 4570 
L 2976 4570 
L 2976 4058 
L 1165 4058 
L 1056 2733 
Q 1235 2765 1411 2784 
Q 1587 2803 1760 2803 
Q 2477 2803 2886 2444 
Q 3296 2086 3296 1459 
Q 3296 749 2841 342 
Q 2387 -64 1587 -64 
z
" transform="scale(0.015625)"/>
       </defs>
       <use xlink:href="#NotoNaskhArabic-Regular-4d1"/>
       <use xlink:href="#NotoNaskhArabic-Regular-4cc" transform="translate(57.203125 0)"/>
      </g>
     </g>
    </g>
    <g id="ytick_5">
     <g id="line2d_15">
      <path d="M 48.094156 107.11578 
L 578.0935 107.11578 
" clip-path="url(#pa059e977cb)" style="fill: none; stroke: #e6e1d6; stroke-width: 0.8; stroke-linecap: square"/>
     </g>
     <g id="line2d_16">
      <g>
       <use xlink:href="#m286206c576" x="48.094156" y="107.11578" style="fill: #555555; stroke: #555555; stroke-width: 0.8"/>
      </g>
     </g>
     <g id="text_12">
      <!-- 52 -->
      <g style="fill: #b7791f" transform="translate(29.0815 112.72803) scale(0.105 -0.105)">
       <use xlink:href="#NotoNaskhArabic-Regular-4d1"/>
       <use xlink:href="#NotoNaskhArabic-Regular-4ce" transform="translate(57.203125 0)"/>
      </g>
     </g>
    </g>
    <g id="ytick_6">
     <g id="line2d_17">
      <path d="M 48.094156 66.670979 
L 578.0935 66.670979 
" clip-path="url(#pa059e977cb)" style="fill: none; stroke: #e6e1d6; stroke-width: 0.8; stroke-linecap: square"/>
     </g>
     <g id="line2d_18">
      <g>
       <use xlink:href="#m286206c576" x="48.094156" y="66.670979" style="fill: #555555; stroke: #555555; stroke-width: 0.8"/>
      </g>
     </g>
     <g id="text_13">
      <!-- 54 -->
      <g style="fill: #b7791f" transform="translate(29.0815 72.283229) scale(0.105 -0.105)">
       <use xlink:href="#NotoNaskhArabic-Regular-4d1"/>
       <use xlink:href="#NotoNaskhArabic-Regular-4d0" transform="translate(57.203125 0)"/>
      </g>
     </g>
    </g>
    <g id="ytick_7">
     <g id="line2d_19">
      <path d="M 48.094156 26.226179 
L 578.0935 26.226179 
" clip-path="url(#pa059e977cb)" style="fill: none; stroke: #e6e1d6; stroke-width: 0.8; stroke-linecap: square"/>
     </g>
     <g id="line2d_20">
      <g>
       <use xlink:href="#m286206c576" x="48.094156" y="26.226179" style="fill: #555555; stroke: #555555; stroke-width: 0.8"/>
      </g>
     </g>
     <g id="text_14">
      <!-- 56 -->
      <g style="fill: #b7791f" transform="translate(29.0815 31.838429) scale(0.105 -0.105)">
       <use xlink:href="#NotoNaskhArabic-Regular-4d1"/>
       <use xlink:href="#NotoNaskhArabic-Regular-4d2" transform="translate(57.203125 0)"/>
      </g>
     </g>
    </g>
    <g id="text_15">
     <!-- PMI -->
     <g style="fill: #b7791f" transform="translate(18.4245 156.037602) rotate(-90) scale(0.105 -0.105)">
      <defs>
       <path id="DejaVuSans-33" d="M 1259 4147 
L 1259 2394 
L 2053 2394 
Q 2494 2394 2734 2622 
Q 2975 2850 2975 3272 
Q 2975 3691 2734 3919 
Q 2494 4147 2053 4147 
L 1259 4147 
z
M 628 4666 
L 2053 4666 
Q 2838 4666 3239 4311 
Q 3641 3956 3641 3272 
Q 3641 2581 3239 2228 
Q 2838 1875 2053 1875 
L 1259 1875 
L 1259 0 
L 628 0 
L 628 4666 
z
" transform="scale(0.015625)"/>
       <path id="DejaVuSans-30" d="M 628 4666 
L 1569 4666 
L 2759 1491 
L 3956 4666 
L 4897 4666 
L 4897 0 
L 4281 0 
L 4281 4097 
L 3078 897 
L 2444 897 
L 1241 4097 
L 1241 0 
L 628 0 
L 628 4666 
z
" transform="scale(0.015625)"/>
       <path id="DejaVuSans-2c" d="M 628 4666 
L 1259 4666 
L 1259 0 
L 628 0 
L 628 4666 
z
" transform="scale(0.015625)"/>
      </defs>
      <use xlink:href="#DejaVuSans-33"/>
      <use xlink:href="#DejaVuSans-30" transform="translate(60.296875 0)"/>
      <use xlink:href="#DejaVuSans-2c" transform="translate(146.578125 0)"/>
     </g>
    </g>
   </g>
   <g id="line2d_21">
    <path d="M 72.185036 19.890318 
L 115.986634 52.148074 
L 159.788233 61.952753 
L 203.589831 97.152288 
L 247.39143 107.977483 
L 291.193029 146.282245 
L 334.994627 156.778449 
L 378.796226 181.04151 
L 422.597825 203.77479 
L 466.399423 221.812031 
L 510.201022 258.899015 
L 554.002621 273.696682 
" clip-path="url(#pa059e977cb)" style="fill: none; stroke: #b7791f; stroke-width: 2.2; stroke-linecap: square"/>
    <defs>
     <path id="m2ea6a2f008" d="M 0 2 
C 0.530406 2 1.03916 1.789267 1.414214 1.414214 
C 1.789267 1.03916 2 0.530406 2 0 
C 2 -0.530406 1.789267 -1.03916 1.414214 -1.414214 
C 1.03916 -1.789267 0.530406 -2 0 -2 
C -0.530406 -2 -1.03916 -1.789267 -1.414214 -1.414214 
C -1.789267 -1.03916 -2 -0.530406 -2 0 
C -2 0.530406 -1.789267 1.03916 -1.414214 1.414214 
C -1.03916 1.789267 -0.530406 2 0 2 
z
" style="stroke: #b7791f"/>
    </defs>
    <g clip-path="url(#pa059e977cb)">
     <use xlink:href="#m2ea6a2f008" x="72.185036" y="19.890318" style="fill: #b7791f; stroke: #b7791f"/>
     <use xlink:href="#m2ea6a2f008" x="115.986634" y="52.148074" style="fill: #b7791f; stroke: #b7791f"/>
     <use xlink:href="#m2ea6a2f008" x="159.788233" y="61.952753" style="fill: #b7791f; stroke: #b7791f"/>
     <use xlink:href="#m2ea6a2f008" x="203.589831" y="97.152288" style="fill: #b7791f; stroke: #b7791f"/>
     <use xlink:href="#m2ea6a2f008" x="247.39143" y="107.977483" style="fill: #b7791f; stroke: #b7791f"/>
     <use xlink:href="#m2ea6a2f008" x="291.193029" y="146.282245" style="fill: #b7791f; stroke: #b7791f"/>
     <use xlink:href="#m2ea6a2f008" x="334.994627" y="156.778449" style="fill: #b7791f; stroke: #b7791f"/>
     <use xlink:href="#m2ea6a2f008" x="378.796226" y="181.04151" style="fill: #b7791f; stroke: #b7791f"/>
     <use xlink:href="#m2ea6a2f008" x="422.597825" y="203.77479" style="fill: #b7791f; stroke: #b7791f"/>
     <use xlink:href="#m2ea6a2f008" x="466.399423" y="221.812031" style="fill: #b7791f; stroke: #b7791f"/>
     <use xlink:href="#m2ea6a2f008" x="510.201022" y="258.899015" style="fill: #b7791f; stroke: #b7791f"/>
     <use xlink:href="#m2ea6a2f008" x="554.002621" y="273.696682" style="fill: #b7791f; stroke: #b7791f"/>
    </g>
   </g>
   <g id="line2d_22">
    <path d="M 48.094156 147.56058 
L 578.0935 147.56058 
" clip-path="url(#pa059e977cb)" style="fill: none; stroke-dasharray: 1.2,1.98; stroke-dashoffset: 0; stroke: #8a8f98; stroke-width: 1.2"/>
   </g>
   <g id="patch_3">
    <path d="M 48.094156 286.387 
L 48.094156 7.2 
" style="fill: none; stroke: #1f2937; stroke-width: 0.8; stroke-linejoin: miter; stroke-linecap: square"/>
   </g>
   <g id="patch_4">
    <path d="M 578.0935 286.387 
L 578.0935 7.2 
" style="fill: none; stroke: #1f2937; stroke-width: 0.8; stroke-linejoin: miter; stroke-linecap: square"/>
   </g>
   <g id="patch_5">
    <path d="M 48.094156 286.387 
L 578.0935 286.387 
" style="fill: none; stroke: #1f2937; stroke-width: 0.8; stroke-linejoin: miter; stroke-linecap: square"/>
   </g>
  </g>
  <g id="axes_2">
   <g id="matplotlib.axis_3">
    <g id="ytick_8">
     <g id="line2d_23">
      <defs>
       <path id="mb1068ef983" d="M 0 0 
L 3.5 0 
" style="stroke: #555555; stroke-width: 0.8"/>
      </defs>
      <g>
       <use xlink:href="#mb1068ef983" x="578.0935" y="244.888972" style="fill: #555555; stroke: #555555; stroke-width: 0.8"/>
      </g>
     </g>
     <g id="text_16">
      <!-- 1.0 -->
      <g style="fill: #1f2937" transform="translate(585.0935 250.501222) scale(0.105 -0.105)">
       <defs>
        <path id="NotoNaskhArabic-Regular-514" d="M 800 -422 
Q 646 -314 518 -230 
Q 390 -147 294 -90 
Q 326 -19 364 41 
Q 403 102 429 166 
Q 493 282 576 410 
Q 1069 122 1069 32 
Q 1069 -38 800 -422 
z
" transform="scale(0.015625)"/>
       </defs>
       <use xlink:href="#NotoNaskhArabic-Regular-4cd"/>
       <use xlink:href="#NotoNaskhArabic-Regular-514" transform="translate(57.203125 0)"/>
       <use xlink:href="#NotoNaskhArabic-Regular-4cc" transform="translate(77.796875 0)"/>
      </g>
     </g>
    </g>
    <g id="ytick_9">
     <g id="line2d_24">
      <g>
       <use xlink:href="#mb1068ef983" x="578.0935" y="185.203475" style="fill: #555555; stroke: #555555; stroke-width: 0.8"/>
      </g>
     </g>
     <g id="text_17">
      <!-- 1.5 -->
      <g style="fill: #1f2937" transform="translate(585.0935 190.815725) scale(0.105 -0.105)">
       <use xlink:href="#NotoNaskhArabic-Regular-4cd"/>
       <use xlink:href="#NotoNaskhArabic-Regular-514" transform="translate(57.203125 0)"/>
       <use xlink:href="#NotoNaskhArabic-Regular-4d1" transform="translate(77.796875 0)"/>
      </g>
     </g>
    </g>
    <g id="ytick_10">
     <g id="line2d_25">
      <g>
       <use xlink:href="#mb1068ef983" x="578.0935" y="125.517978" style="fill: #555555; stroke: #555555; stroke-width: 0.8"/>
      </g>
     </g>
     <g id="text_18">
      <!-- 2.0 -->
      <g style="fill: #1f2937" transform="translate(585.0935 131.130228) scale(0.105 -0.105)">
       <use xlink:href="#NotoNaskhArabic-Regular-4ce"/>
       <use xlink:href="#NotoNaskhArabic-Regular-514" transform="translate(57.203125 0)"/>
       <use xlink:href="#NotoNaskhArabic-Regular-4cc" transform="translate(77.796875 0)"/>
      </g>
     </g>
    </g>
    <g id="ytick_11">
     <g id="line2d_26">
      <g>
       <use xlink:href="#mb1068ef983" x="578.0935" y="65.832481" style="fill: #555555; stroke: #555555; stroke-width: 0.8"/>
      </g>
     </g>
     <g id="text_19">
      <!-- 2.5 -->
      <g style="fill: #1f2937" transform="translate(585.0935 71.444731) scale(0.105 -0.105)">
       <use xlink:href="#NotoNaskhArabic-Regular-4ce"/>
       <use xlink:href="#NotoNaskhArabic-Regular-514" transform="translate(57.203125 0)"/>
       <use xlink:href="#NotoNaskhArabic-Regular-4d1" transform="translate(77.796875 0)"/>
      </g>
     </g>
    </g>
    <g id="text_20">
     <!-- ​(%) ﻲﻟﺎﻤﺟﻹﺍ ﻲﻠﺤﻤﻟﺍ ﺞﺗﺎﻨﻟﺍ ﻮﻤﻧ -->
     <g style="fill: #1f2937" transform="translate(614.493 205.472094) rotate(-90) scale(0.105 -0.105)">
      <defs>
       <path id="NotoNaskhArabic-Regular-1ea" d="M 0 0 
Q -51 0 -51 51 
L -51 435 
Q -51 486 0 486 
Q 294 486 598 553 
Q 902 621 1133 723 
Q 1088 870 1030 1046 
Q 973 1222 902 1427 
Q 781 1747 781 1856 
Q 781 1997 893 2144 
Q 1005 2291 1197 2394 
Q 1210 2304 1248 2121 
Q 1286 1939 1344 1658 
Q 1440 1235 1440 1005 
Q 1440 909 1379 733 
Q 1318 557 1210 352 
Q 627 0 0 0 
z
M 876 2829 
Q 595 3040 416 3245 
Q 742 3572 864 3712 
Q 966 3604 1071 3498 
Q 1177 3392 1286 3296 
Q 1139 3085 876 2829 
z
" transform="scale(0.015625)"/>
       <path id="NotoNaskhArabic-Regular-1e4" d="M 2016 0 
Q 1414 0 902 192 
Q 595 77 400 38 
Q 205 0 0 0 
Q -51 0 -51 51 
L -51 435 
Q -51 486 0 486 
Q 109 486 211 505 
Q 314 525 416 550 
Q 371 640 371 749 
Q 371 928 460 1152 
Q 550 1376 700 1590 
Q 851 1805 1037 1952 
Q 1318 2176 1568 2176 
Q 1677 2176 1760 2051 
Q 1843 1926 1926 1734 
Q 1971 1645 2009 1542 
Q 2048 1440 2086 1331 
Q 2163 1114 2252 928 
Q 2342 742 2445 614 
Q 2554 486 2682 486 
Q 2752 486 2752 422 
L 2752 70 
Q 2752 0 2682 0 
Q 2362 0 2099 282 
L 2016 0 
z
M 1978 442 
Q 1837 646 1728 979 
Q 1619 1312 1581 1683 
Q 1421 1613 1241 1475 
Q 1062 1338 918 1178 
Q 774 1018 704 877 
Q 1133 525 1978 442 
z
" transform="scale(0.015625)"/>
       <path id="NotoNaskhArabic-Regular-219" d="M 1235 -1299 
Q 1101 -1299 905 -1238 
Q 710 -1178 521 -1082 
Q 333 -986 218 -890 
L 307 -678 
Q 646 -800 1088 -800 
Q 1485 -800 1792 -605 
Q 2099 -410 2310 6 
Q 1997 19 1763 44 
Q 1530 70 1376 115 
Q 1037 205 902 374 
Q 768 544 768 877 
Q 768 1203 899 1523 
Q 1030 1843 1242 2035 
Q 1453 2227 1670 2227 
Q 1933 2227 2163 1990 
Q 2394 1754 2534 1338 
Q 2605 1126 2637 918 
Q 2669 710 2669 486 
L 3053 486 
Q 3104 486 3104 435 
L 3104 51 
Q 3104 0 3053 0 
L 2605 0 
Q 2509 -365 2304 -669 
Q 2099 -973 1818 -1139 
Q 1542 -1299 1235 -1299 
z
M 2413 493 
Q 2362 826 2234 1094 
Q 2106 1363 1933 1523 
Q 1760 1683 1574 1683 
Q 1440 1683 1309 1580 
Q 1178 1478 1094 1331 
Q 1011 1184 1011 1062 
Q 1011 838 1177 720 
Q 1344 602 1632 550 
Q 1779 525 1968 515 
Q 2157 506 2413 493 
z
" transform="scale(0.015625)"/>
       <path id="NotoNaskhArabic-Regular-1e9" d="M 0 0 
Q -51 0 -51 51 
L -51 435 
Q -51 486 0 486 
Q 467 486 666 666 
Q 723 717 812 870 
Q 902 1024 1075 1350 
Q 1133 1459 1274 1459 
Q 1350 1459 1434 1408 
Q 1363 1242 1286 1069 
Q 1210 896 1120 730 
Q 1344 595 1526 540 
Q 1709 486 1926 486 
Q 1978 486 1978 435 
L 1978 51 
Q 1978 0 1926 0 
Q 1331 0 915 378 
Q 890 339 864 304 
Q 838 269 806 237 
Q 742 154 502 77 
Q 262 0 0 0 
z
M 1004 2061 
Q 723 2272 544 2477 
Q 870 2804 992 2944 
Q 1094 2836 1199 2730 
Q 1305 2624 1414 2528 
Q 1267 2317 1004 2061 
z
" transform="scale(0.015625)"/>
       <path id="NotoNaskhArabic-Regular-4" d="M 1677 0 
Q 1299 0 1049 150 
Q 800 301 768 557 
Q 742 787 713 1072 
Q 685 1357 653 1747 
Q 621 2138 579 2672 
Q 538 3206 486 3936 
Q 576 4026 685 4118 
Q 794 4211 922 4294 
Q 941 3795 953 3308 
Q 966 2822 976 2281 
Q 986 1741 992 1082 
L 1011 653 
Q 1312 486 1677 486 
Q 1728 486 1728 435 
L 1728 51 
Q 1728 0 1677 0 
z
" transform="scale(0.015625)"/>
       <path id="NotoNaskhArabic-Regular-38" d="M 0 0 
Q -51 0 -51 51 
L -51 435 
Q -51 486 0 486 
Q 294 486 598 553 
Q 902 621 1133 723 
Q 1088 870 1030 1046 
Q 973 1222 902 1427 
Q 781 1747 781 1856 
Q 781 1997 893 2144 
Q 1005 2291 1197 2394 
Q 1210 2304 1248 2121 
Q 1286 1939 1344 1658 
Q 1440 1235 1440 1005 
Q 1440 909 1379 733 
Q 1318 557 1210 352 
Q 627 0 0 0 
z
M 1344 2803 
Q 1203 2912 1097 3011 
Q 992 3110 922 3200 
Q 954 3232 1056 3341 
Q 1158 3450 1331 3629 
Q 1370 3590 1469 3494 
Q 1568 3398 1728 3245 
Q 1606 3053 1344 2803 
z
M 384 2714 
Q 243 2829 134 2928 
Q 26 3027 -45 3104 
Q 122 3264 371 3539 
Q 410 3494 506 3398 
Q 602 3302 762 3155 
Q 704 3059 608 2950 
Q 512 2842 384 2714 
z
" transform="scale(0.015625)"/>
       <path id="NotoNaskhArabic-Regular-72" d="M 2054 -1830 
Q 1626 -1830 1309 -1657 
Q 992 -1485 816 -1174 
Q 640 -864 640 -454 
Q 640 -96 803 233 
Q 966 563 1261 832 
Q 1459 1011 1712 1158 
Q 1965 1306 2259 1408 
Q 1990 1530 1827 1597 
Q 1664 1664 1555 1702 
Q 1382 1766 1229 1766 
Q 1030 1766 896 1715 
Q 762 1664 531 1517 
Q 435 1613 435 1766 
Q 435 2010 649 2154 
Q 864 2298 1210 2298 
Q 1395 2298 1612 2230 
Q 1830 2163 2208 1997 
Q 2874 1690 3398 1690 
L 3821 1702 
L 3635 1210 
Q 3546 1203 3450 1196 
Q 3354 1190 3258 1184 
Q 3174 1184 3094 1177 
Q 3014 1171 2925 1158 
Q 3027 934 3097 812 
Q 3168 691 3267 633 
Q 3366 576 3533 538 
Q 3674 512 3866 499 
Q 4058 486 4320 486 
Q 4371 486 4371 435 
L 4371 51 
Q 4371 0 4320 0 
Q 3750 0 3456 105 
Q 3162 211 2976 448 
Q 2784 685 2669 1114 
Q 2086 979 1667 736 
Q 1248 493 1043 173 
Q 960 45 915 -96 
Q 870 -237 870 -384 
Q 870 -832 1222 -1075 
Q 1574 -1318 2214 -1318 
Q 2765 -1318 3571 -1088 
L 3661 -1299 
Q 2803 -1830 2054 -1830 
z
M 2151 -672 
Q 2010 -563 1894 -457 
Q 1779 -352 1690 -249 
Q 1978 26 2138 218 
Q 2362 -19 2560 -204 
Q 2407 -416 2151 -672 
z
" transform="scale(0.015625)"/>
       <path id="NotoNaskhArabic-Regular-8b" d="M 0 0 
Q -51 0 -51 51 
L -51 435 
Q -51 486 0 486 
Q 602 486 1043 553 
Q 1485 621 1837 781 
Q 2253 966 2477 1011 
Q 2355 1069 2230 1142 
Q 2106 1216 1984 1306 
Q 1734 1491 1568 1564 
Q 1402 1638 1235 1638 
Q 1037 1638 902 1587 
Q 768 1536 531 1389 
Q 442 1491 442 1638 
Q 442 1882 653 2029 
Q 864 2176 1210 2176 
Q 1414 2176 1622 2096 
Q 1830 2016 2106 1824 
Q 2438 1600 2672 1481 
Q 2906 1363 3142 1312 
Q 3386 1254 3853 1254 
L 3603 781 
Q 3552 787 3440 793 
Q 3328 800 3213 813 
Q 3098 826 3021 832 
Q 3091 717 3171 646 
Q 3251 576 3379 544 
Q 3610 486 4314 486 
Q 4371 486 4371 435 
L 4371 51 
Q 4371 0 4314 0 
Q 3840 6 3549 73 
Q 3258 141 3072 288 
Q 2982 365 2896 483 
Q 2810 602 2733 762 
Q 2560 698 2387 598 
Q 2214 499 2042 410 
Q 1805 288 1603 208 
Q 1402 128 1181 83 
Q 960 38 678 19 
Q 397 0 0 0 
z
" transform="scale(0.015625)"/>
       <path id="NotoNaskhArabic-Regular-1bf" d="M 0 0 
Q -51 0 -51 51 
L -51 435 
Q -51 486 0 486 
Q 352 486 698 653 
Q 659 992 608 1600 
Q 557 2208 499 3085 
Q 480 3296 464 3510 
Q 448 3725 435 3936 
Q 531 4038 636 4124 
Q 742 4211 864 4294 
Q 883 3853 902 3165 
Q 922 2477 934 1536 
Q 934 1318 940 1097 
Q 947 877 954 659 
Q 1242 486 1619 486 
Q 1677 486 1677 435 
L 1677 51 
Q 1677 0 1619 0 
Q 1152 0 883 230 
Q 646 96 460 48 
Q 275 0 0 0 
z
" transform="scale(0.015625)"/>
       <path id="NotoNaskhArabic-Regular-23f" d="M 1811 -1670 
Q 1152 -1670 793 -1356 
Q 435 -1043 435 -467 
Q 435 -339 444 -230 
Q 454 -122 480 16 
Q 506 154 557 365 
L 794 307 
Q 723 13 723 -147 
Q 723 -614 1020 -876 
Q 1318 -1139 1830 -1139 
Q 2413 -1139 2777 -1075 
Q 3142 -1011 3430 -890 
Q 3571 -832 3699 -755 
Q 3827 -678 3942 -576 
Q 3546 -365 3312 -227 
Q 3078 -90 2950 0 
Q 2803 115 2803 160 
Q 2803 218 2844 323 
Q 2886 429 2940 512 
Q 2995 595 3034 595 
Q 3258 550 3642 518 
Q 4026 486 4435 486 
Q 4506 486 4506 416 
L 4506 64 
Q 4506 0 4435 0 
Q 4218 0 3939 32 
Q 3661 64 3450 115 
Q 3590 32 3734 -45 
Q 3878 -122 4019 -198 
Q 4115 -256 4140 -352 
Q 4166 -448 4166 -576 
Q 4166 -736 4006 -909 
Q 3846 -1082 3561 -1235 
Q 3277 -1389 2899 -1504 
Q 2330 -1670 1811 -1670 
z
M 2394 -2682 
Q 2125 -2470 1978 -2291 
Q 2119 -2157 2387 -1862 
Q 2419 -1888 2515 -1984 
Q 2611 -2080 2784 -2246 
Q 2720 -2336 2624 -2445 
Q 2528 -2554 2394 -2682 
z
M 1440 -2778 
Q 1152 -2547 1011 -2387 
Q 1101 -2310 1203 -2201 
Q 1306 -2093 1427 -1952 
Q 1453 -1984 1552 -2080 
Q 1651 -2176 1818 -2336 
Q 1760 -2432 1664 -2541 
Q 1568 -2650 1440 -2778 
z
" transform="scale(0.015625)"/>
       <path id="NotoNaskhArabic-Regular-2ea" d="M 877 0 
Q 858 0 858 70 
Q 858 128 874 227 
Q 890 326 915 406 
Q 941 486 954 486 
L 1088 486 
Q 1376 710 1555 864 
Q 1734 1018 1862 1155 
Q 1990 1293 2118 1459 
Q 1830 1792 1472 2089 
Q 1114 2387 768 2586 
L 531 2573 
Q 224 2861 224 3123 
Q 224 3219 262 3312 
Q 301 3405 442 3475 
Q 621 3354 835 3181 
Q 1050 3008 1274 2813 
Q 1498 2618 1690 2426 
Q 1837 2285 1990 2118 
Q 2144 1952 2304 1766 
Q 2426 2048 2426 2317 
Q 2426 2451 2390 2745 
Q 2355 3040 2285 3501 
Q 2253 3718 2233 3846 
Q 2214 3974 2214 4000 
Q 2214 4326 2643 4403 
Q 2688 4205 2749 4016 
Q 2810 3827 2874 3642 
L 2701 3494 
L 2707 3360 
L 2746 2445 
Q 2746 1958 2502 1491 
Q 2566 1389 2646 1248 
Q 2726 1107 2803 963 
Q 2880 819 2931 704 
Q 2982 589 2982 538 
Q 2982 474 2947 374 
Q 2912 275 2867 195 
Q 2822 115 2790 109 
Q 2490 58 2013 29 
Q 1536 0 877 0 
z
M 1594 499 
Q 2157 518 2733 614 
Q 2662 742 2560 892 
Q 2458 1043 2323 1210 
Q 2189 1024 2003 845 
Q 1818 666 1594 499 
z
M 723 -1575 
L 710 -1325 
L 960 -1184 
Q 729 -1133 729 -928 
Q 729 -800 803 -688 
Q 877 -576 985 -502 
Q 1094 -429 1203 -429 
Q 1453 -429 1453 -659 
Q 1453 -749 1408 -839 
L 1286 -800 
L 1293 -775 
Q 1293 -698 1216 -698 
Q 1113 -698 1030 -768 
Q 947 -839 915 -935 
Q 1011 -1063 1203 -1063 
Q 1357 -1063 1529 -1018 
L 1517 -1267 
Q 1331 -1312 1209 -1353 
Q 1088 -1395 979 -1446 
Q 870 -1498 723 -1575 
z
" transform="scale(0.015625)"/>
       <path id="NotoNaskhArabic-Regular-74" d="M 0 0 
Q -51 0 -51 51 
L -51 435 
Q -51 486 0 486 
Q 474 486 842 528 
Q 1210 570 1478 653 
Q 1907 800 2115 867 
Q 2323 934 2477 960 
Q 2227 1082 1984 1280 
Q 1728 1485 1565 1561 
Q 1402 1638 1235 1638 
Q 1037 1638 902 1587 
Q 768 1536 531 1389 
Q 442 1491 442 1638 
Q 442 1882 653 2029 
Q 864 2176 1210 2176 
Q 1414 2176 1622 2089 
Q 1830 2003 2106 1798 
Q 2445 1555 2678 1430 
Q 2912 1306 3149 1254 
Q 3392 1197 3853 1197 
L 3603 730 
Q 3501 742 3369 752 
Q 3238 762 3091 762 
Q 2944 762 2813 736 
Q 2682 710 2506 633 
Q 2330 557 2042 410 
Q 1805 288 1603 208 
Q 1402 128 1181 83 
Q 960 38 678 19 
Q 397 0 0 0 
z
M 2272 -1178 
Q 2131 -1069 2015 -963 
Q 1900 -858 1811 -755 
Q 2099 -480 2259 -288 
Q 2483 -525 2681 -710 
Q 2528 -922 2272 -1178 
z
" transform="scale(0.015625)"/>
       <path id="NotoNaskhArabic-Regular-6" d="M 877 0 
Q 858 19 858 70 
Q 858 134 874 230 
Q 890 326 915 406 
Q 941 486 954 486 
Q 1139 486 1350 492 
Q 1562 499 1792 512 
Q 2022 525 2262 550 
Q 2502 576 2733 614 
Q 2605 858 2397 1130 
Q 2189 1402 1926 1664 
Q 1670 1933 1369 2173 
Q 1069 2413 768 2586 
L 531 2573 
Q 416 2682 317 2822 
Q 218 2963 218 3104 
Q 218 3213 259 3309 
Q 301 3405 442 3475 
Q 723 3283 1133 2931 
Q 1421 2688 1718 2403 
Q 2016 2118 2234 1856 
Q 2323 1754 2448 1565 
Q 2573 1376 2694 1165 
Q 2816 954 2899 781 
Q 2982 608 2982 538 
Q 2982 493 2950 390 
Q 2918 288 2873 201 
Q 2829 115 2790 109 
Q 2694 96 2496 73 
Q 2298 51 2086 35 
Q 1875 19 1728 13 
Q 1670 13 1552 9 
Q 1434 6 1293 3 
Q 1152 0 1040 0 
Q 928 0 877 0 
z
" transform="scale(0.015625)"/>
       <path id="NotoNaskhArabic-Regular-1c2" d="M 1478 422 
L 1050 454 
Q 1331 672 1580 886 
Q 1830 1101 2016 1325 
Q 2202 1549 2314 1795 
Q 2426 2042 2426 2317 
Q 2426 2413 2406 2592 
Q 2387 2771 2355 2988 
Q 2323 3206 2291 3411 
Q 2259 3616 2240 3776 
Q 2221 3936 2221 4000 
Q 2221 4173 2333 4269 
Q 2445 4365 2643 4403 
Q 2694 4205 2742 4035 
Q 2790 3866 2874 3642 
L 2701 3494 
Q 2701 3462 2710 3308 
Q 2720 3155 2726 2966 
Q 2733 2778 2739 2627 
Q 2746 2477 2746 2445 
Q 2746 2106 2637 1805 
Q 2528 1504 2349 1248 
Q 2170 992 1942 784 
Q 1715 576 1478 422 
z
" transform="scale(0.015625)"/>
       <path id="DejaVuSans-b" d="M 1984 4856 
Q 1566 4138 1362 3434 
Q 1159 2731 1159 2009 
Q 1159 1288 1364 580 
Q 1569 -128 1984 -844 
L 1484 -844 
Q 1016 -109 783 600 
Q 550 1309 550 2009 
Q 550 2706 781 3412 
Q 1013 4119 1484 4856 
L 1984 4856 
z
" transform="scale(0.015625)"/>
       <path id="DejaVuSans-8" d="M 4653 2053 
Q 4381 2053 4226 1822 
Q 4072 1591 4072 1178 
Q 4072 772 4226 539 
Q 4381 306 4653 306 
Q 4919 306 5073 539 
Q 5228 772 5228 1178 
Q 5228 1588 5073 1820 
Q 4919 2053 4653 2053 
z
M 4653 2450 
Q 5147 2450 5437 2106 
Q 5728 1763 5728 1178 
Q 5728 594 5436 251 
Q 5144 -91 4653 -91 
Q 4153 -91 3862 251 
Q 3572 594 3572 1178 
Q 3572 1766 3864 2108 
Q 4156 2450 4653 2450 
z
M 1428 4353 
Q 1159 4353 1004 4120 
Q 850 3888 850 3481 
Q 850 3069 1003 2837 
Q 1156 2606 1428 2606 
Q 1700 2606 1854 2837 
Q 2009 3069 2009 3481 
Q 2009 3884 1853 4118 
Q 1697 4353 1428 4353 
z
M 4250 4750 
L 4750 4750 
L 1831 -91 
L 1331 -91 
L 4250 4750 
z
M 1428 4750 
Q 1922 4750 2215 4408 
Q 2509 4066 2509 3481 
Q 2509 2891 2217 2550 
Q 1925 2209 1428 2209 
Q 931 2209 642 2551 
Q 353 2894 353 3481 
Q 353 4063 643 4406 
Q 934 4750 1428 4750 
z
" transform="scale(0.015625)"/>
       <path id="DejaVuSans-c" d="M 513 4856 
L 1013 4856 
Q 1481 4119 1714 3412 
Q 1947 2706 1947 2009 
Q 1947 1309 1714 600 
Q 1481 -109 1013 -844 
L 513 -844 
Q 928 -128 1133 580 
Q 1338 1288 1338 2009 
Q 1338 2731 1133 3434 
Q 928 4138 513 4856 
z
" transform="scale(0.015625)"/>
      </defs>
      <use xlink:href="#NotoNaskhArabic-Regular-1ea"/>
      <use xlink:href="#NotoNaskhArabic-Regular-1e4" transform="translate(27.5 0)"/>
      <use xlink:href="#NotoNaskhArabic-Regular-219" transform="translate(68.796875 0)"/>
      <use xlink:href="#NotoNaskhArabic-Regular-554" transform="translate(115.59375 0)"/>
      <use xlink:href="#NotoNaskhArabic-Regular-3" transform="translate(137.6875 0)"/>
      <use xlink:href="#NotoNaskhArabic-Regular-1c1" transform="translate(161.484375 0)"/>
      <use xlink:href="#NotoNaskhArabic-Regular-1e9" transform="translate(182.6875 0)"/>
      <use xlink:href="#NotoNaskhArabic-Regular-4" transform="translate(211.890625 0)"/>
      <use xlink:href="#NotoNaskhArabic-Regular-38" transform="translate(237.1875 0)"/>
      <use xlink:href="#NotoNaskhArabic-Regular-72" transform="translate(264.6875 0)"/>
      <use xlink:href="#NotoNaskhArabic-Regular-554" transform="translate(331.28125 0)"/>
      <use xlink:href="#NotoNaskhArabic-Regular-3" transform="translate(353.375 0)"/>
      <use xlink:href="#NotoNaskhArabic-Regular-1c1" transform="translate(377.171875 0)"/>
      <use xlink:href="#NotoNaskhArabic-Regular-1e4" transform="translate(398.375 0)"/>
      <use xlink:href="#NotoNaskhArabic-Regular-8b" transform="translate(439.671875 0)"/>
      <use xlink:href="#NotoNaskhArabic-Regular-1bf" transform="translate(506.265625 0)"/>
      <use xlink:href="#NotoNaskhArabic-Regular-23f" transform="translate(530.765625 0)"/>
      <use xlink:href="#NotoNaskhArabic-Regular-554" transform="translate(599.46875 0)"/>
      <use xlink:href="#NotoNaskhArabic-Regular-3" transform="translate(621.5625 0)"/>
      <use xlink:href="#NotoNaskhArabic-Regular-2ea" transform="translate(645.359375 0)"/>
      <use xlink:href="#NotoNaskhArabic-Regular-74" transform="translate(697.15625 0)"/>
      <use xlink:href="#NotoNaskhArabic-Regular-1e4" transform="translate(760.75 0)"/>
      <use xlink:href="#NotoNaskhArabic-Regular-6" transform="translate(802.046875 0)"/>
      <use xlink:href="#NotoNaskhArabic-Regular-1c2" transform="translate(802.046875 0)"/>
      <use xlink:href="#NotoNaskhArabic-Regular-23f" transform="translate(853.84375 0)"/>
      <use xlink:href="#NotoNaskhArabic-Regular-554" transform="translate(922.546875 0)"/>
      <use xlink:href="#DejaVuSans-b" transform="translate(944.640625 0)"/>
      <use xlink:href="#DejaVuSans-8" transform="translate(983.65625 0)"/>
      <use xlink:href="#DejaVuSans-c" transform="translate(1078.671875 0)"/>
      <use xlink:href="#NotoNaskhArabic-Regular-554" transform="translate(1117.6875 0)"/>
     </g>
    </g>
   </g>
   <g id="line2d_27">
    <path d="M 72.185036 32.93355 
L 115.986634 21.389339 
L 159.788233 28.789263 
L 203.589831 39.187022 
L 247.39143 19.890318 
L 291.193029 27.37816 
L 334.994627 73.658751 
L 378.796226 114.353522 
L 422.597825 155.521488 
L 466.399423 198.592131 
L 510.201022 239.626446 
L 554.002621 273.696682 
" clip-path="url(#pa059e977cb)" style="fill: none; stroke-dasharray: 8.14,3.52; stroke-dashoffset: 0; stroke: #1f2937; stroke-width: 2.2"/>
    <defs>
     <path id="m12ba25e95a" d="M -2 2 
L 2 2 
L 2 -2 
L -2 -2 
z
" style="stroke: #1f2937; stroke-linejoin: miter"/>
    </defs>
    <g clip-path="url(#pa059e977cb)">
     <use xlink:href="#m12ba25e95a" x="72.185036" y="32.93355" style="fill: #1f2937; stroke: #1f2937; stroke-linejoin: miter"/>
     <use xlink:href="#m12ba25e95a" x="115.986634" y="21.389339" style="fill: #1f2937; stroke: #1f2937; stroke-linejoin: miter"/>
     <use xlink:href="#m12ba25e95a" x="159.788233" y="28.789263" style="fill: #1f2937; stroke: #1f2937; stroke-linejoin: miter"/>
     <use xlink:href="#m12ba25e95a" x="203.589831" y="39.187022" style="fill: #1f2937; stroke: #1f2937; stroke-linejoin: miter"/>
     <use xlink:href="#m12ba25e95a" x="247.39143" y="19.890318" style="fill: #1f2937; stroke: #1f2937; stroke-linejoin: miter"/>
     <use xlink:href="#m12ba25e95a" x="291.193029" y="27.37816" style="fill: #1f2937; stroke: #1f2937; stroke-linejoin: miter"/>
     <use xlink:href="#m12ba25e95a" x="334.994627" y="73.658751" style="fill: #1f2937; stroke: #1f2937; stroke-linejoin: miter"/>
     <use xlink:href="#m12ba25e95a" x="378.796226" y="114.353522" style="fill: #1f2937; stroke: #1f2937; stroke-linejoin: miter"/>
     <use xlink:href="#m12ba25e95a" x="422.597825" y="155.521488" style="fill: #1f2937; stroke: #1f2937; stroke-linejoin: miter"/>
     <use xlink:href="#m12ba25e95a" x="466.399423" y="198.592131" style="fill: #1f2937; stroke: #1f2937; stroke-linejoin: miter"/>
     <use xlink:href="#m12ba25e95a" x="510.201022" y="239.626446" style="fill: #1f2937; stroke: #1f2937; stroke-linejoin: miter"/>
     <use xlink:href="#m12ba25e95a" x="554.002621" y="273.696682" style="fill: #1f2937; stroke: #1f2937; stroke-linejoin: miter"/>
    </g>
   </g>
   <g id="patch_6">
    <path d="M 48.094156 286.387 
L 48.094156 7.2 
" style="fill: none; stroke: #1f2937; stroke-width: 0.8; stroke-linejoin: miter; stroke-linecap: square"/>
   </g>
   <g id="patch_7">
    <path d="M 578.0935 286.387 
L 578.0935 7.2 
" style="fill: none; stroke: #1f2937; stroke-width: 0.8; stroke-linejoin: miter; stroke-linecap: square"/>
   </g>
   <g id="patch_8">
    <path d="M 48.094156 286.387 
L 578.0935 286.387 
" style="fill: none; stroke: #1f2937; stroke-width: 0.8; stroke-linejoin: miter; stroke-linecap: square"/>
   </g>
  </g>
 </g>
 <defs>
  <clipPath id="pa059e977cb">
   <rect x="48.094156" y="7.2" width="529.999344" height="279.187"/>
  </clipPath>
 </defs>
</svg>
