<?xml version="1.0" encoding="utf-8" standalone="no"?>
<!DOCTYPE svg PUBLIC "-//W3C//DTD SVG 1.1//EN"
  "http://www.w3.org/Graphics/SVG/1.1/DTD/svg11.dtd">
<svg xmlns:xlink="http://www.w3.org/1999/xlink" width="628.35pt" height="340.35pt" viewBox="0 0 628.35 340.35" xmlns="http://www.w3.org/2000/svg" version="1.1">
 <metadata>
  <rdf:RDF xmlns:dc="http://purl.org/dc/elements/1.1/" xmlns:cc="http://creativecommons.org/ns#" xmlns:rdf="http://www.w3.org/1999/02/22-rdf-syntax-ns#">
   <cc:Work>
    <dc:type rdf:resource="http://purl.org/dc/dcmitype/StillImage"/>
    <dc:date>2026-07-18T23:02:09.961213</dc:date>
    <dc:format>image/svg+xml</dc:format>
    <dc:creator>
     <cc:Agent>
      <dc:title>Matplotlib v3.11.1, https://matplotlib.org/</dc:title>
     </cc:Agent>
    </dc:creator>
   </cc:Work>
  </rdf:RDF>
 </metadata>
 <defs>
  <style type="text/css">*{stroke-linejoin: round; stroke-linecap: butt}</style>
 </defs>
 <g id="figure_1">
  <g id="patch_1">
   <path d="M 0 340.35 
L 628.35 340.35 
L 628.35 0 
L 0 0 
z
" style="fill: #ffffff"/>
  </g>
  <g id="axes_1">
   <g id="patch_2">
    <path d="M 7.2 333.15 
L 621.15 333.15 
L 621.15 25.0815 
L 7.2 25.0815 
z
" style="fill: #ffffff"/>
   </g>
   <g id="matplotlib.axis_1"/>
   <g id="matplotlib.axis_2"/>
   <g id="patch_3">
    <path d="M 7.2 333.15 
L 7.2 25.0815 
" style="fill: none; stroke: #1f2937; stroke-width: 0.8; stroke-linejoin: miter; stroke-linecap: square"/>
   </g>
   <g id="patch_4">
    <path d="M 7.2 333.15 
L 621.15 333.15 
" style="fill: none; stroke: #1f2937; stroke-width: 0.8; stroke-linejoin: miter; stroke-linecap: square"/>
   </g>
   <g id="line2d_1">
    <path d="M 21.477907 295.897898 
L 21.477907 290.896666 
" clip-path="url(#p63f65fbcd4)" style="fill: none; stroke: #1f8a56; stroke-width: 1.1; stroke-linecap: round"/>
   </g>
   <g id="line2d_2">
    <path d="M 35.755814 307.477625 
L 35.755814 234.892463 
" clip-path="url(#p63f65fbcd4)" style="fill: none; stroke: #1f8a56; stroke-width: 1.1; stroke-linecap: round"/>
   </g>
   <g id="line2d_3">
    <path d="M 50.033721 239.11684 
L 50.033721 211.746518 
" clip-path="url(#p63f65fbcd4)" style="fill: none; stroke: #1f8a56; stroke-width: 1.1; stroke-linecap: round"/>
   </g>
   <g id="line2d_4">
    <path d="M 64.311628 206.122372 
L 64.311628 177.490264 
" clip-path="url(#p63f65fbcd4)" style="fill: none; stroke: #1f8a56; stroke-width: 1.1; stroke-linecap: round"/>
   </g>
   <g id="line2d_5">
    <path d="M 78.589535 193.60731 
L 78.589535 153.804648 
" clip-path="url(#p63f65fbcd4)" style="fill: none; stroke: #1f8a56; stroke-width: 1.1; stroke-linecap: round"/>
   </g>
   <g id="line2d_6">
    <path d="M 92.867442 184.630825 
L 92.867442 168.983751 
" clip-path="url(#p63f65fbcd4)" style="fill: none; stroke: #b91c1c; stroke-width: 1.1; stroke-linecap: round"/>
   </g>
   <g id="line2d_7">
    <path d="M 107.145349 185.95831 
L 107.145349 167.083406 
" clip-path="url(#p63f65fbcd4)" style="fill: none; stroke: #b91c1c; stroke-width: 1.1; stroke-linecap: round"/>
   </g>
   <g id="line2d_8">
    <path d="M 121.423256 219.587745 
L 121.423256 181.420931 
" clip-path="url(#p63f65fbcd4)" style="fill: none; stroke: #b91c1c; stroke-width: 1.1; stroke-linecap: round"/>
   </g>
   <g id="line2d_9">
    <path d="M 135.701163 234.490613 
L 135.701163 220.604175 
" clip-path="url(#p63f65fbcd4)" style="fill: none; stroke: #b91c1c; stroke-width: 1.1; stroke-linecap: round"/>
   </g>
   <g id="line2d_10">
    <path d="M 149.97907 251.373074 
L 149.97907 232.525757 
" clip-path="url(#p63f65fbcd4)" style="fill: none; stroke: #b91c1c; stroke-width: 1.1; stroke-linecap: round"/>
   </g>
   <g id="line2d_11">
    <path d="M 164.256977 242.511266 
L 164.256977 229.86338 
" clip-path="url(#p63f65fbcd4)" style="fill: none; stroke: #1f8a56; stroke-width: 1.1; stroke-linecap: round"/>
   </g>
   <g id="line2d_12">
    <path d="M 178.534884 237.613714 
L 178.534884 212.410587 
" clip-path="url(#p63f65fbcd4)" style="fill: none; stroke: #1f8a56; stroke-width: 1.1; stroke-linecap: round"/>
   </g>
   <g id="line2d_13">
    <path d="M 192.812791 208.575155 
L 192.812791 197.251785 
" clip-path="url(#p63f65fbcd4)" style="fill: none; stroke: #1f8a56; stroke-width: 1.1; stroke-linecap: round"/>
   </g>
   <g id="line2d_14">
    <path d="M 207.090698 204.634666 
L 207.090698 165.239554 
" clip-path="url(#p63f65fbcd4)" style="fill: none; stroke: #1f8a56; stroke-width: 1.1; stroke-linecap: round"/>
   </g>
   <g id="line2d_15">
    <path d="M 221.368605 172.942544 
L 221.368605 135.716167 
" clip-path="url(#p63f65fbcd4)" style="fill: none; stroke: #1f8a56; stroke-width: 1.1; stroke-linecap: round"/>
   </g>
   <g id="line2d_16">
    <path d="M 235.646512 150.396724 
L 235.646512 138.742352 
" clip-path="url(#p63f65fbcd4)" style="fill: none; stroke: #b91c1c; stroke-width: 1.1; stroke-linecap: round"/>
   </g>
   <g id="line2d_17">
    <path d="M 249.924419 152.097065 
L 249.924419 124.965949 
" clip-path="url(#p63f65fbcd4)" style="fill: none; stroke: #b91c1c; stroke-width: 1.1; stroke-linecap: round"/>
   </g>
   <g id="line2d_18">
    <path d="M 264.202326 188.530178 
L 264.202326 136.496771 
" clip-path="url(#p63f65fbcd4)" style="fill: none; stroke: #b91c1c; stroke-width: 1.1; stroke-linecap: round"/>
   </g>
   <g id="line2d_19">
    <path d="M 278.480233 201.766486 
L 278.480233 176.391447 
" clip-path="url(#p63f65fbcd4)" style="fill: none; stroke: #b91c1c; stroke-width: 1.1; stroke-linecap: round"/>
   </g>
   <g id="line2d_20">
    <path d="M 292.75814 211.562157 
L 292.75814 189.96851 
" clip-path="url(#p63f65fbcd4)" style="fill: none; stroke: #1f8a56; stroke-width: 1.1; stroke-linecap: round"/>
   </g>
   <g id="line2d_21">
    <path d="M 307.036047 193.003218 
L 307.036047 166.473896 
" clip-path="url(#p63f65fbcd4)" style="fill: none; stroke: #1f8a56; stroke-width: 1.1; stroke-linecap: round"/>
   </g>
   <g id="line2d_22">
    <path d="M 321.313953 171.863547 
L 321.313953 158.600506 
" clip-path="url(#p63f65fbcd4)" style="fill: none; stroke: #1f8a56; stroke-width: 1.1; stroke-linecap: round"/>
   </g>
   <g id="line2d_23">
    <path d="M 335.59186 166.657394 
L 335.59186 144.829235 
" clip-path="url(#p63f65fbcd4)" style="fill: none; stroke: #1f8a56; stroke-width: 1.1; stroke-linecap: round"/>
   </g>
   <g id="line2d_24">
    <path d="M 349.869767 161.236634 
L 349.869767 134.753676 
" clip-path="url(#p63f65fbcd4)" style="fill: none; stroke: #1f8a56; stroke-width: 1.1; stroke-linecap: round"/>
   </g>
   <g id="line2d_25">
    <path d="M 364.147674 147.25231 
L 364.147674 111.436788 
" clip-path="url(#p63f65fbcd4)" style="fill: none; stroke: #1f8a56; stroke-width: 1.1; stroke-linecap: round"/>
   </g>
   <g id="line2d_26">
    <path d="M 378.425581 134.604232 
L 378.425581 114.297771 
" clip-path="url(#p63f65fbcd4)" style="fill: none; stroke: #b91c1c; stroke-width: 1.1; stroke-linecap: round"/>
   </g>
   <g id="line2d_27">
    <path d="M 392.703488 157.875499 
L 392.703488 134.694138 
" clip-path="url(#p63f65fbcd4)" style="fill: none; stroke: #b91c1c; stroke-width: 1.1; stroke-linecap: round"/>
   </g>
   <g id="line2d_28">
    <path d="M 406.981395 181.776652 
L 406.981395 144.345081 
" clip-path="url(#p63f65fbcd4)" style="fill: none; stroke: #b91c1c; stroke-width: 1.1; stroke-linecap: round"/>
   </g>
   <g id="line2d_29">
    <path d="M 421.259302 203.772944 
L 421.259302 165.890363 
" clip-path="url(#p63f65fbcd4)" style="fill: none; stroke: #b91c1c; stroke-width: 1.1; stroke-linecap: round"/>
   </g>
   <g id="line2d_30">
    <path d="M 435.537209 210.442728 
L 435.537209 186.64057 
" clip-path="url(#p63f65fbcd4)" style="fill: none; stroke: #b91c1c; stroke-width: 1.1; stroke-linecap: round"/>
   </g>
   <g id="line2d_31">
    <path d="M 449.815116 204.019565 
L 449.815116 196.007232 
" clip-path="url(#p63f65fbcd4)" style="fill: none; stroke: #b91c1c; stroke-width: 1.1; stroke-linecap: round"/>
   </g>
   <g id="line2d_32">
    <path d="M 464.093023 207.246565 
L 464.093023 183.301319 
" clip-path="url(#p63f65fbcd4)" style="fill: none; stroke: #1f8a56; stroke-width: 1.1; stroke-linecap: round"/>
   </g>
   <g id="line2d_33">
    <path d="M 478.37093 176.848372 
L 478.37093 163.897189 
" clip-path="url(#p63f65fbcd4)" style="fill: none; stroke: #1f8a56; stroke-width: 1.1; stroke-linecap: round"/>
   </g>
   <g id="line2d_34">
    <path d="M 492.648837 176.109659 
L 492.648837 161.069662 
" clip-path="url(#p63f65fbcd4)" style="fill: none; stroke: #1f8a56; stroke-width: 1.1; stroke-linecap: round"/>
   </g>
   <g id="line2d_35">
    <path d="M 506.926744 179.454497 
L 506.926744 150.436324 
" clip-path="url(#p63f65fbcd4)" style="fill: none; stroke: #1f8a56; stroke-width: 1.1; stroke-linecap: round"/>
   </g>
   <g id="line2d_36">
    <path d="M 521.204651 166.722047 
L 521.204651 142.123525 
" clip-path="url(#p63f65fbcd4)" style="fill: none; stroke: #b91c1c; stroke-width: 1.1; stroke-linecap: round"/>
   </g>
   <g id="line2d_37">
    <path d="M 535.482558 173.609139 
L 535.482558 158.516264 
" clip-path="url(#p63f65fbcd4)" style="fill: none; stroke: #b91c1c; stroke-width: 1.1; stroke-linecap: round"/>
   </g>
   <g id="line2d_38">
    <path d="M 549.760465 184.614321 
L 549.760465 169.734417 
" clip-path="url(#p63f65fbcd4)" style="fill: none; stroke: #b91c1c; stroke-width: 1.1; stroke-linecap: round"/>
   </g>
   <g id="line2d_39">
    <path d="M 564.038372 186.821582 
L 564.038372 179.859805 
" clip-path="url(#p63f65fbcd4)" style="fill: none; stroke: #b91c1c; stroke-width: 1.1; stroke-linecap: round"/>
   </g>
   <g id="line2d_40">
    <path d="M 578.316279 208.403123 
L 578.316279 172.809515 
" clip-path="url(#p63f65fbcd4)" style="fill: none; stroke: #b91c1c; stroke-width: 1.1; stroke-linecap: round"/>
   </g>
   <g id="line2d_41">
    <path d="M 592.594186 208.796002 
L 592.594186 196.300811 
" clip-path="url(#p63f65fbcd4)" style="fill: none; stroke: #1f8a56; stroke-width: 1.1; stroke-linecap: round"/>
   </g>
   <g id="line2d_42">
    <path d="M 606.872093 207.969188 
L 606.872093 200.409307 
" clip-path="url(#p63f65fbcd4)" style="fill: none; stroke: #b91c1c; stroke-width: 1.1; stroke-linecap: round"/>
   </g>
   <g id="text_1">
    <!-- ﻰﻠﻋﺄﻓ ﻰﻠﻋﺃ ﻥﺎﻌﻴﻗﻭ ﻰﻧﺩﺄﻓ ﻰﻧﺩﺃ ﻢﻤﻗ :ﻲﺠﻳﺭﺪﺗ ﻖﻴﻀﺗ -->
    <g style="fill: #1f2937" transform="translate(233.525047 63.757356) scale(0.095 -0.095)">
     <defs>
      <path id="NotoNaskhArabic-Bold-38" d="M 0 58 
Q -51 58 -51 109 
L -51 762 
Q -51 813 0 813 
Q 320 813 640 867 
Q 960 922 1139 998 
Q 1075 1146 976 1328 
Q 877 1510 819 1613 
Q 755 1734 710 1833 
Q 666 1933 666 2016 
Q 666 2176 838 2361 
Q 1011 2547 1248 2669 
Q 1293 2470 1347 2217 
Q 1402 1965 1446 1702 
Q 1485 1504 1501 1376 
Q 1517 1248 1517 1184 
Q 1517 1037 1443 822 
Q 1370 608 1267 410 
Q 685 58 0 58 
z
M 1332 3020 
Q 1197 3129 1088 3225 
Q 980 3321 890 3417 
Q 1127 3635 1319 3865 
Q 1376 3801 1478 3705 
Q 1581 3609 1722 3468 
Q 1549 3232 1332 3020 
z
M 474 2924 
Q 199 3148 32 3328 
Q 141 3436 250 3548 
Q 359 3660 468 3769 
Q 583 3635 864 3372 
Q 704 3142 474 2924 
z
" transform="scale(0.015625)"/>
      <path id="NotoNaskhArabic-Bold-11d" d="M 2592 0 
Q 2163 0 1699 80 
Q 1235 160 851 339 
Q 813 282 742 243 
Q 608 154 406 106 
Q 205 58 0 58 
Q -51 58 -51 109 
L -51 762 
Q -51 813 0 813 
Q 256 813 397 848 
Q 538 883 634 985 
Q 730 1088 838 1286 
Q 864 1331 886 1376 
Q 909 1421 934 1466 
Q 1030 1638 1222 1638 
Q 1318 1638 1427 1574 
Q 1363 1414 1302 1260 
Q 1242 1107 1178 954 
Q 1248 928 1312 909 
Q 1376 890 1440 864 
Q 2099 1741 2605 2150 
Q 3091 2560 3469 2560 
Q 3629 2560 3824 2464 
Q 4019 2368 4211 2214 
Q 4403 2061 4544 1882 
Q 4762 1619 4762 1446 
Q 4762 1229 4691 1050 
Q 4922 915 5082 864 
Q 5242 813 5466 813 
Q 5523 813 5523 762 
L 5523 109 
Q 5523 58 5466 58 
Q 5171 58 4880 186 
Q 4589 314 4358 563 
Q 4205 416 3904 278 
Q 3603 141 3258 70 
Q 3085 38 2921 19 
Q 2758 0 2592 0 
z
M 2656 704 
Q 3117 704 3520 813 
Q 3923 922 4390 1146 
Q 3814 1805 3309 1805 
Q 3027 1805 2652 1536 
Q 2278 1267 1862 774 
Q 2067 742 2265 723 
Q 2464 704 2656 704 
z
M 2604 3001 
Q 2278 3270 2112 3462 
Q 2259 3609 2377 3734 
Q 2496 3859 2592 3974 
Q 2662 3897 2777 3782 
Q 2892 3667 3052 3513 
Q 2976 3405 2864 3277 
Q 2752 3149 2604 3001 
z
" transform="scale(0.015625)"/>
      <path id="NotoNaskhArabic-Bold-240" d="M 0 58 
Q -51 58 -51 109 
L -51 762 
Q -51 813 0 813 
Q 307 813 566 829 
Q 826 845 992 928 
Q 1120 992 1187 1104 
Q 1254 1216 1357 1421 
Q 1459 1632 1536 1680 
Q 1613 1728 1715 1728 
Q 1869 1728 1971 1638 
Q 1888 1427 1814 1264 
Q 1741 1101 1690 979 
Q 2003 813 2362 813 
Q 2413 813 2413 762 
L 2413 109 
Q 2413 58 2362 58 
Q 1875 58 1434 499 
L 1382 416 
Q 1203 179 883 118 
Q 563 58 0 58 
z
M 1651 -1235 
Q 1376 -1011 1209 -832 
Q 1414 -653 1638 -384 
Q 1657 -403 1756 -502 
Q 1856 -602 2035 -787 
Q 1971 -883 1875 -995 
Q 1779 -1107 1651 -1235 
z
M 793 -1331 
Q 633 -1203 527 -1100 
Q 422 -998 352 -922 
Q 460 -813 569 -701 
Q 678 -589 787 -480 
Q 864 -576 1184 -877 
Q 1030 -1107 793 -1331 
z
" transform="scale(0.015625)"/>
      <path id="NotoNaskhArabic-Bold-168" d="M 1606 -1613 
Q 1037 -1613 736 -1277 
Q 435 -941 435 -301 
Q 435 32 595 627 
L 877 557 
Q 787 256 787 45 
Q 787 -858 1683 -858 
Q 2515 -858 3366 -198 
L 3334 64 
Q 2566 90 2285 186 
Q 1946 294 1818 483 
Q 1690 672 1690 1018 
Q 1690 1370 1824 1712 
Q 1958 2054 2176 2266 
Q 2387 2477 2618 2477 
Q 2886 2477 3139 2221 
Q 3392 1965 3558 1530 
Q 3622 1370 3673 1190 
Q 3725 1011 3750 813 
L 4102 813 
Q 4154 813 4154 762 
L 4154 109 
Q 4154 58 4102 58 
L 3770 58 
Q 3712 -390 3417 -764 
Q 3123 -1139 2611 -1376 
Q 2112 -1613 1606 -1613 
z
M 3174 819 
Q 2906 1715 2477 1715 
Q 2349 1715 2243 1648 
Q 2138 1581 2080 1485 
Q 2022 1402 2022 1293 
Q 2022 1107 2208 992 
Q 2362 896 2656 858 
Q 2733 851 2857 841 
Q 2982 832 3174 819 
z
M 3060 2982 
Q 2925 3091 2816 3187 
Q 2708 3283 2618 3379 
Q 2855 3597 3047 3827 
Q 3104 3763 3206 3667 
Q 3309 3571 3450 3430 
Q 3277 3194 3060 2982 
z
M 2202 2886 
Q 1927 3110 1760 3290 
Q 1869 3398 1978 3510 
Q 2087 3622 2196 3731 
Q 2311 3597 2592 3334 
Q 2432 3104 2202 2886 
z
" transform="scale(0.015625)"/>
      <path id="NotoNaskhArabic-Bold-554" transform="scale(0.015625)"/>
      <path id="NotoNaskhArabic-Bold-b6" d="M 1075 0 
Q 218 0 218 499 
Q 218 634 272 784 
Q 326 934 410 1018 
Q 570 890 774 826 
Q 979 762 1280 762 
Q 1466 762 1658 784 
Q 1850 806 2048 851 
Q 1798 1286 1648 1673 
Q 1498 2061 1498 2246 
Q 1498 2477 1613 2646 
Q 1728 2816 1946 2880 
Q 2074 2362 2208 1955 
Q 2342 1549 2490 1248 
Q 2611 1005 2758 909 
Q 2906 813 3162 813 
Q 3213 813 3213 762 
L 3213 109 
Q 3213 58 3162 58 
Q 2707 58 2413 352 
Q 1709 0 1075 0 
z
" transform="scale(0.015625)"/>
      <path id="NotoNaskhArabic-Bold-d3" d="M 653 -1248 
Q 544 -1248 304 -1107 
Q 64 -966 -218 -730 
L -115 -461 
Q 243 -550 531 -550 
Q 1005 -550 1331 -313 
Q 1658 -77 1805 371 
Q 1760 467 1705 566 
Q 1651 666 1587 762 
Q 1402 1050 1254 1312 
Q 1107 1574 1107 1779 
Q 1107 1965 1254 2147 
Q 1402 2330 1638 2451 
Q 1677 2317 1731 2137 
Q 1786 1958 1846 1782 
Q 1907 1606 1952 1472 
Q 2035 1235 2089 1004 
Q 2144 774 2144 570 
Q 2144 70 1952 -349 
Q 1760 -768 1421 -1011 
Q 1082 -1248 653 -1248 
z
" transform="scale(0.015625)"/>
      <path id="NotoNaskhArabic-Bold-241" d="M 0 58 
Q -51 58 -51 109 
L -51 762 
Q -51 813 0 813 
Q 339 813 652 835 
Q 966 858 1212 902 
Q 1459 947 1581 998 
Q 1517 1146 1414 1328 
Q 1312 1510 1261 1613 
Q 1197 1734 1152 1833 
Q 1107 1933 1107 2016 
Q 1107 2170 1280 2358 
Q 1453 2547 1690 2669 
Q 1786 2189 1843 1897 
Q 1901 1606 1926 1443 
Q 1952 1280 1952 1184 
Q 1952 1037 1881 825 
Q 1811 614 1702 410 
Q 1530 307 1251 227 
Q 973 147 646 102 
Q 320 58 0 58 
z
M 1479 -1235 
Q 1204 -1011 1037 -832 
Q 1242 -653 1466 -384 
Q 1485 -403 1584 -502 
Q 1684 -602 1863 -787 
Q 1799 -883 1703 -995 
Q 1607 -1107 1479 -1235 
z
M 621 -1331 
Q 461 -1203 355 -1100 
Q 250 -998 180 -922 
Q 288 -813 397 -701 
Q 506 -589 615 -480 
Q 692 -576 1012 -877 
Q 858 -1107 621 -1331 
z
" transform="scale(0.015625)"/>
      <path id="NotoNaskhArabic-Bold-73" d="M 0 58 
Q -51 58 -51 109 
L -51 762 
Q -51 813 0 813 
Q 467 813 793 829 
Q 1120 845 1427 934 
Q 1702 1018 1897 1069 
Q 2093 1120 2202 1146 
Q 2118 1197 2032 1251 
Q 1946 1306 1856 1363 
Q 1651 1498 1513 1555 
Q 1376 1613 1235 1613 
Q 1043 1613 870 1558 
Q 698 1504 480 1363 
Q 422 1421 377 1533 
Q 333 1645 333 1747 
Q 333 2029 582 2205 
Q 832 2381 1210 2381 
Q 1414 2381 1603 2310 
Q 1792 2240 2029 2080 
Q 2317 1882 2560 1763 
Q 2803 1645 3136 1555 
Q 3302 1517 3500 1494 
Q 3699 1472 3936 1472 
L 3654 934 
Q 3578 941 3501 941 
Q 3424 941 3347 947 
Q 3411 890 3488 867 
Q 3565 845 3661 832 
Q 3808 826 3965 822 
Q 4122 819 4262 813 
Q 4314 813 4314 762 
L 4314 109 
Q 4314 58 4262 58 
Q 4032 58 3782 80 
Q 3533 102 3325 150 
Q 3117 198 3021 262 
Q 2893 358 2838 537 
Q 2784 717 2746 877 
Q 2624 851 2525 803 
Q 2426 755 2304 675 
Q 2182 595 1990 467 
Q 1683 262 1395 176 
Q 1107 90 774 74 
Q 442 58 0 58 
z
M 2208 -1107 
Q 2035 -966 1913 -851 
Q 1792 -736 1708 -646 
Q 1836 -518 1958 -393 
Q 2080 -269 2195 -134 
Q 2361 -326 2656 -595 
Q 2585 -697 2470 -828 
Q 2355 -960 2208 -1107 
z
" transform="scale(0.015625)"/>
      <path id="NotoNaskhArabic-Bold-23f" d="M 1830 -1613 
Q 1152 -1613 793 -1277 
Q 435 -941 435 -301 
Q 435 32 595 627 
L 877 557 
Q 787 256 787 45 
Q 787 -397 1059 -627 
Q 1331 -858 1901 -858 
Q 2240 -858 2598 -816 
Q 2957 -774 3283 -710 
Q 3450 -672 3610 -627 
Q 3770 -582 3898 -531 
Q 3757 -474 3561 -374 
Q 3366 -275 3187 -163 
Q 3008 -51 2893 32 
Q 2726 160 2726 218 
Q 2726 282 2771 397 
Q 2816 512 2877 633 
Q 2938 755 2992 838 
Q 3046 922 3066 922 
Q 3354 870 3699 841 
Q 4045 813 4454 813 
Q 4525 813 4525 749 
L 4525 122 
Q 4525 58 4454 58 
Q 4320 58 4137 70 
Q 3955 83 3779 108 
Q 3603 134 3475 166 
Q 3738 45 3875 -25 
Q 4013 -96 4070 -131 
Q 4128 -166 4147 -198 
Q 4192 -243 4208 -336 
Q 4224 -429 4224 -518 
Q 4224 -678 4057 -848 
Q 3891 -1018 3600 -1171 
Q 3309 -1325 2925 -1440 
Q 2349 -1613 1830 -1613 
z
M 2355 -2630 
Q 2080 -2406 1913 -2227 
Q 2118 -2048 2342 -1779 
Q 2361 -1798 2460 -1897 
Q 2560 -1997 2739 -2182 
Q 2675 -2278 2579 -2390 
Q 2483 -2502 2355 -2630 
z
M 1497 -2726 
Q 1337 -2598 1231 -2495 
Q 1126 -2393 1056 -2317 
Q 1164 -2208 1273 -2096 
Q 1382 -1984 1491 -1875 
Q 1568 -1971 1888 -2272 
Q 1734 -2502 1497 -2726 
z
" transform="scale(0.015625)"/>
      <path id="NotoNaskhArabic-Bold-516" d="M 1037 1792 
Q 877 1920 710 2029 
Q 544 2138 378 2234 
Q 429 2317 473 2397 
Q 518 2477 557 2560 
Q 602 2643 650 2723 
Q 698 2803 755 2886 
Q 870 2816 1017 2720 
Q 1165 2624 1273 2534 
Q 1382 2445 1382 2381 
Q 1382 2291 1037 1792 
z
M 1037 -365 
Q 691 -96 378 77 
Q 429 166 473 246 
Q 518 326 557 410 
Q 602 486 650 566 
Q 698 646 755 730 
Q 1382 365 1382 224 
Q 1382 134 1037 -365 
z
" transform="scale(0.015625)"/>
      <path id="NotoNaskhArabic-Bold-16a" d="M 6 58 
Q -51 58 -51 115 
L -51 762 
Q -51 813 6 813 
Q 710 813 1196 857 
Q 1683 902 2061 1075 
Q 2048 1120 2029 1177 
Q 2010 1235 1978 1312 
Q 1824 1178 1638 1107 
Q 1453 1037 1229 1037 
Q 864 1037 685 1229 
Q 506 1421 506 1709 
Q 506 2029 624 2297 
Q 742 2566 941 2720 
Q 1043 2803 1158 2851 
Q 1274 2899 1395 2899 
Q 1658 2899 1904 2608 
Q 2150 2317 2285 1869 
Q 2349 1677 2377 1469 
Q 2406 1261 2406 1043 
Q 2406 832 2189 397 
Q 1875 275 1577 201 
Q 1280 128 912 93 
Q 544 58 6 58 
z
M 1318 1504 
Q 1568 1504 1856 1594 
Q 1734 1875 1593 2003 
Q 1453 2131 1254 2131 
Q 1056 2131 944 2032 
Q 832 1933 832 1811 
Q 832 1658 947 1581 
Q 1062 1504 1318 1504 
z
M 1818 3296 
Q 1683 3405 1574 3501 
Q 1466 3597 1376 3693 
Q 1613 3911 1805 4141 
Q 1862 4077 1964 3981 
Q 2067 3885 2208 3744 
Q 2035 3508 1818 3296 
z
M 960 3200 
Q 685 3424 518 3604 
Q 627 3712 736 3824 
Q 845 3936 954 4045 
Q 1069 3911 1350 3648 
Q 1190 3418 960 3200 
z
" transform="scale(0.015625)"/>
      <path id="NotoNaskhArabic-Bold-1e4" d="M 2016 0 
Q 1606 0 1257 73 
Q 909 147 685 269 
Q 506 147 346 102 
Q 186 58 0 58 
Q -51 58 -51 109 
L -51 762 
Q -51 813 0 813 
Q 160 813 333 858 
Q 333 870 336 886 
Q 339 902 339 922 
Q 384 1261 573 1597 
Q 762 1933 1018 2131 
Q 1286 2342 1568 2342 
Q 1696 2342 1811 2176 
Q 1862 2093 1929 1942 
Q 1997 1792 2074 1581 
Q 2227 1133 2394 960 
Q 2528 813 2682 813 
Q 2752 813 2752 755 
L 2752 128 
Q 2752 58 2682 58 
Q 2362 58 2106 301 
L 2016 0 
z
M 1818 710 
Q 1606 1133 1549 1664 
Q 979 1440 698 1082 
Q 877 941 1155 851 
Q 1434 762 1818 710 
z
" transform="scale(0.015625)"/>
      <path id="NotoNaskhArabic-Bold-1e3" d="M 570 -1965 
Q 570 -1664 554 -1296 
Q 538 -928 506 -486 
Q 467 -45 451 240 
Q 435 525 435 653 
Q 435 723 493 896 
Q 525 979 576 1107 
Q 627 1235 704 1402 
Q 723 1434 857 1539 
Q 992 1645 1181 1776 
Q 1370 1907 1542 2010 
Q 1811 2157 2054 2249 
Q 2298 2342 2477 2342 
Q 2592 2342 2678 2227 
Q 2765 2112 2842 1946 
Q 2874 1862 2912 1769 
Q 2950 1677 2982 1581 
Q 3053 1382 3139 1209 
Q 3226 1037 3328 928 
Q 3437 813 3590 813 
Q 3661 813 3661 755 
L 3661 128 
Q 3661 58 3590 58 
Q 3277 58 3014 301 
L 2931 0 
Q 2445 0 2064 93 
Q 1683 186 1462 362 
Q 1242 538 1242 774 
Q 1242 998 1318 1216 
Q 1242 1171 1117 1081 
Q 992 992 819 864 
Q 870 531 928 182 
Q 986 -166 1069 -672 
Q 1120 -979 1158 -1212 
Q 1197 -1446 1216 -1600 
Q 877 -1856 570 -1965 
z
M 2726 710 
Q 2515 1133 2458 1664 
Q 1920 1453 1606 1082 
Q 1939 806 2726 710 
z
" transform="scale(0.015625)"/>
      <path id="NotoNaskhArabic-Bold-7" d="M 774 58 
Q 742 717 710 1216 
Q 678 1715 646 2134 
Q 614 2554 576 2950 
Q 538 3347 493 3808 
Q 474 3968 566 4089 
Q 659 4211 822 4281 
Q 986 4352 1178 4352 
Q 1229 4154 1296 3955 
Q 1363 3757 1440 3565 
L 1216 3398 
Q 1229 2867 1222 2035 
Q 1216 1203 1184 109 
L 774 58 
z
M 473 4506 
L 454 4775 
L 684 4909 
Q 480 4986 480 5159 
Q 480 5274 550 5389 
Q 620 5504 726 5584 
Q 832 5664 928 5664 
Q 1164 5664 1164 5376 
Q 1164 5280 1139 5229 
L 1011 5248 
L 1011 5268 
Q 1011 5325 934 5325 
Q 793 5325 710 5165 
Q 825 5050 1030 5050 
Q 1081 5050 1145 5056 
Q 1209 5063 1280 5076 
L 1254 4794 
Q 1024 4743 867 4688 
Q 710 4634 473 4506 
z
" transform="scale(0.015625)"/>
      <path id="NotoNaskhArabic-Bold-b5" d="M 1075 0 
Q 218 0 218 499 
Q 218 634 272 784 
Q 326 934 410 1018 
Q 570 890 774 826 
Q 979 762 1280 762 
Q 1696 762 2118 896 
Q 2016 1082 1929 1222 
Q 1843 1363 1773 1466 
Q 1594 1728 1478 1923 
Q 1363 2118 1363 2240 
Q 1363 2445 1526 2630 
Q 1690 2816 1901 2880 
Q 1952 2714 2022 2515 
Q 2093 2317 2166 2125 
Q 2240 1933 2291 1792 
Q 2381 1549 2445 1337 
Q 2509 1126 2509 954 
Q 2509 896 2473 765 
Q 2438 634 2387 493 
Q 2336 352 2285 250 
Q 2054 134 1734 67 
Q 1414 0 1075 0 
z
" transform="scale(0.015625)"/>
      <path id="NotoNaskhArabic-Bold-1ea" d="M 0 58 
Q -51 58 -51 109 
L -51 762 
Q -51 813 0 813 
Q 320 813 640 867 
Q 960 922 1139 998 
Q 1075 1146 976 1328 
Q 877 1510 819 1613 
Q 755 1734 710 1833 
Q 666 1933 666 2016 
Q 666 2176 838 2361 
Q 1011 2547 1248 2669 
Q 1293 2470 1347 2217 
Q 1402 1965 1446 1702 
Q 1485 1504 1501 1376 
Q 1517 1248 1517 1184 
Q 1517 1037 1443 822 
Q 1370 608 1267 410 
Q 685 58 0 58 
z
M 902 3052 
Q 576 3321 410 3513 
Q 557 3660 675 3785 
Q 794 3910 890 4025 
Q 960 3948 1075 3833 
Q 1190 3718 1350 3564 
Q 1274 3456 1162 3328 
Q 1050 3200 902 3052 
z
" transform="scale(0.015625)"/>
      <path id="NotoNaskhArabic-Bold-235" d="M 1830 -1613 
Q 1152 -1613 793 -1277 
Q 435 -941 435 -301 
Q 435 32 595 627 
L 877 557 
Q 787 256 787 45 
Q 787 -397 1059 -627 
Q 1331 -858 1901 -858 
Q 2240 -858 2598 -816 
Q 2957 -774 3283 -710 
Q 3450 -672 3610 -627 
Q 3770 -582 3898 -531 
Q 3757 -474 3561 -374 
Q 3366 -275 3187 -163 
Q 3008 -51 2893 32 
Q 2726 160 2726 218 
Q 2726 282 2771 397 
Q 2816 512 2877 633 
Q 2938 755 2992 838 
Q 3046 922 3066 922 
Q 3354 870 3699 841 
Q 4045 813 4454 813 
Q 4525 813 4525 749 
L 4525 122 
Q 4525 58 4454 58 
Q 4320 58 4137 70 
Q 3955 83 3779 108 
Q 3603 134 3475 166 
Q 3738 45 3875 -25 
Q 4013 -96 4070 -131 
Q 4128 -166 4147 -198 
Q 4192 -243 4208 -336 
Q 4224 -429 4224 -518 
Q 4224 -678 4057 -848 
Q 3891 -1018 3600 -1171 
Q 3309 -1325 2925 -1440 
Q 2349 -1613 1830 -1613 
z
" transform="scale(0.015625)"/>
      <path id="NotoNaskhArabic-Bold-146" d="M 6 58 
Q -51 58 -51 115 
L -51 762 
Q -51 813 6 813 
Q 710 813 1196 857 
Q 1683 902 2061 1075 
Q 2048 1120 2029 1177 
Q 2010 1235 1978 1312 
Q 1824 1178 1638 1107 
Q 1453 1037 1229 1037 
Q 864 1037 685 1229 
Q 506 1421 506 1709 
Q 506 2029 624 2297 
Q 742 2566 941 2720 
Q 1043 2803 1158 2851 
Q 1274 2899 1395 2899 
Q 1658 2899 1904 2608 
Q 2150 2317 2285 1869 
Q 2349 1677 2377 1469 
Q 2406 1261 2406 1043 
Q 2406 832 2189 397 
Q 1875 275 1577 201 
Q 1280 128 912 93 
Q 544 58 6 58 
z
M 1318 1504 
Q 1568 1504 1856 1594 
Q 1734 1875 1593 2003 
Q 1453 2131 1254 2131 
Q 1056 2131 944 2032 
Q 832 1933 832 1811 
Q 832 1658 947 1581 
Q 1062 1504 1318 1504 
z
M 1388 3328 
Q 1062 3597 896 3789 
Q 1043 3936 1161 4061 
Q 1280 4186 1376 4301 
Q 1446 4224 1561 4109 
Q 1676 3994 1836 3840 
Q 1760 3732 1648 3604 
Q 1536 3476 1388 3328 
z
" transform="scale(0.015625)"/>
      <path id="NotoNaskhArabic-Bold-8" d="M 1901 58 
Q 1517 58 1283 186 
Q 1050 314 938 528 
Q 826 742 794 1018 
Q 781 1139 749 1424 
Q 717 1709 681 2073 
Q 646 2438 608 2809 
Q 570 3181 538 3481 
Q 506 3782 486 3930 
Q 845 4166 1248 4352 
Q 1274 3635 1296 2918 
Q 1318 2202 1338 1478 
L 1363 979 
Q 1478 883 1606 848 
Q 1734 813 1914 813 
Q 1952 813 1952 762 
L 1952 109 
Q 1952 58 1901 58 
z
M 448 4506 
L 429 4775 
L 659 4909 
Q 455 4986 455 5159 
Q 455 5274 525 5389 
Q 595 5504 701 5584 
Q 807 5664 903 5664 
Q 1139 5664 1139 5376 
Q 1139 5280 1114 5229 
L 986 5248 
L 986 5268 
Q 986 5325 909 5325 
Q 768 5325 685 5165 
Q 800 5050 1005 5050 
Q 1056 5050 1120 5056 
Q 1184 5063 1255 5076 
L 1229 4794 
Q 999 4743 842 4688 
Q 685 4634 448 4506 
z
" transform="scale(0.015625)"/>
      <path id="NotoNaskhArabic-Bold-218" d="M 1248 -1248 
Q 1171 -1248 1011 -1174 
Q 851 -1101 668 -982 
Q 486 -864 326 -730 
L 429 -461 
Q 602 -506 778 -528 
Q 954 -550 1133 -550 
Q 1632 -550 2003 -304 
Q 2374 -58 2515 371 
L 2509 416 
Q 2323 224 2105 112 
Q 1888 0 1664 0 
Q 1267 0 1049 230 
Q 832 461 832 883 
Q 832 1242 966 1584 
Q 1101 1926 1318 2131 
Q 1530 2342 1766 2342 
Q 2042 2342 2288 2089 
Q 2534 1837 2694 1402 
Q 2848 973 2848 570 
Q 2848 83 2637 -339 
Q 2426 -762 2054 -1005 
Q 1690 -1248 1248 -1248 
z
M 1792 704 
Q 2074 704 2400 813 
Q 2342 992 2220 1181 
Q 2099 1370 1952 1472 
Q 1798 1574 1658 1574 
Q 1498 1574 1376 1488 
Q 1254 1402 1203 1267 
Q 1178 1190 1178 1094 
Q 1178 902 1338 803 
Q 1498 704 1792 704 
z
" transform="scale(0.015625)"/>
      <path id="NotoNaskhArabic-Bold-135" d="M 6 58 
Q -51 58 -51 115 
L -51 755 
Q -51 813 6 813 
Q 346 813 627 822 
Q 909 832 1126 870 
L 998 1030 
Q 909 1152 835 1235 
Q 762 1318 691 1382 
Q 640 1434 589 1478 
Q 538 1523 486 1568 
L 371 1485 
Q 198 1670 198 1894 
Q 198 2112 390 2272 
Q 582 2432 915 2554 
Q 1242 2669 1549 2669 
Q 1830 2669 2080 2547 
Q 2330 2426 2470 2208 
Q 2618 1990 2618 1760 
Q 2618 1530 2490 1306 
Q 2362 1082 2118 858 
Q 2291 832 2486 822 
Q 2682 813 2912 813 
Q 2976 813 2976 755 
L 2976 115 
Q 2976 58 2912 58 
Q 2464 58 2105 160 
Q 1747 262 1530 448 
Q 845 58 6 58 
z
M 1626 1062 
Q 1978 1293 1978 1613 
Q 1978 1773 1862 1865 
Q 1747 1958 1574 1958 
Q 1408 1958 1257 1926 
Q 1107 1894 902 1805 
Q 973 1741 1117 1603 
Q 1261 1466 1459 1248 
Q 1498 1203 1539 1158 
Q 1581 1114 1626 1062 
z
" transform="scale(0.015625)"/>
      <path id="NotoNaskhArabic-Bold-4" d="M 1901 58 
Q 1517 58 1283 186 
Q 1050 314 938 528 
Q 826 742 794 1018 
Q 781 1139 749 1424 
Q 717 1709 681 2073 
Q 646 2438 608 2809 
Q 570 3181 538 3481 
Q 506 3782 486 3930 
Q 845 4166 1248 4352 
Q 1274 3635 1296 2918 
Q 1318 2202 1338 1478 
L 1363 979 
Q 1478 883 1606 848 
Q 1734 813 1914 813 
Q 1952 813 1952 762 
L 1952 109 
Q 1952 58 1901 58 
z
" transform="scale(0.015625)"/>
      <path id="NotoNaskhArabic-Bold-1e7" d="M 1606 -1613 
Q 1037 -1613 736 -1277 
Q 435 -941 435 -301 
Q 435 32 595 627 
L 877 557 
Q 787 256 787 45 
Q 787 -858 1626 -858 
Q 2131 -858 2486 -726 
Q 2842 -595 3181 -288 
Q 2963 134 2800 444 
Q 2637 755 2637 883 
Q 2637 1408 3283 1728 
Q 3302 1600 3331 1430 
Q 3360 1261 3389 1088 
Q 3418 915 3437 787 
Q 3475 557 3504 342 
Q 3533 128 3533 -45 
Q 3533 -474 3277 -838 
Q 3021 -1203 2579 -1408 
Q 2362 -1510 2115 -1561 
Q 1869 -1613 1606 -1613 
z
M 1811 1580 
Q 1485 1849 1319 2041 
Q 1466 2188 1584 2313 
Q 1703 2438 1799 2553 
Q 1869 2476 1984 2361 
Q 2099 2246 2259 2092 
Q 2183 1984 2071 1856 
Q 1959 1728 1811 1580 
z
" transform="scale(0.015625)"/>
      <path id="NotoNaskhArabic-Bold-136" d="M 0 58 
Q -51 58 -51 109 
L -51 762 
Q -51 813 0 813 
L 499 813 
Q 365 1005 365 1210 
Q 365 1408 441 1632 
Q 518 1856 652 2057 
Q 787 2259 947 2387 
Q 1190 2579 1440 2579 
Q 1875 2579 2406 1990 
L 2272 1728 
Q 2074 1805 1907 1840 
Q 1741 1875 1600 1875 
Q 1376 1875 1197 1827 
Q 1018 1779 819 1670 
Q 832 1434 921 1245 
Q 1011 1056 1190 928 
Q 1267 877 1338 838 
Q 1843 870 2240 953 
Q 2637 1037 3040 1197 
Q 3091 1152 3116 1056 
Q 3142 960 3142 883 
Q 3142 730 3072 602 
Q 3002 474 2874 410 
Q 2746 346 2259 250 
Q 1766 147 1235 102 
Q 704 58 0 58 
z
" transform="scale(0.015625)"/>
      <path id="NotoNaskhArabic-Bold-1bf" d="M 0 58 
Q -51 58 -51 109 
L -51 762 
Q -51 813 0 813 
Q 154 813 304 845 
Q 454 877 595 934 
Q 454 1830 307 3059 
Q 282 3264 259 3481 
Q 237 3699 211 3930 
Q 384 4058 576 4160 
Q 768 4262 973 4352 
Q 966 4115 956 3696 
Q 947 3277 937 2768 
Q 928 2259 922 1734 
L 922 992 
Q 1190 813 1619 813 
Q 1677 813 1677 762 
L 1677 109 
Q 1677 58 1619 58 
Q 1088 58 832 282 
Q 691 192 470 125 
Q 250 58 0 58 
z
" transform="scale(0.015625)"/>
     </defs>
     <use xlink:href="#NotoNaskhArabic-Bold-38"/>
     <use xlink:href="#NotoNaskhArabic-Bold-11d" transform="translate(27.5 0)"/>
     <use xlink:href="#NotoNaskhArabic-Bold-240" transform="translate(112.09375 0)"/>
     <use xlink:href="#NotoNaskhArabic-Bold-168" transform="translate(148.09375 0)"/>
     <use xlink:href="#NotoNaskhArabic-Bold-554" transform="translate(211.296875 0)"/>
     <use xlink:href="#NotoNaskhArabic-Bold-38" transform="translate(233.390625 0)"/>
     <use xlink:href="#NotoNaskhArabic-Bold-b6" transform="translate(260.890625 0)"/>
     <use xlink:href="#NotoNaskhArabic-Bold-d3" transform="translate(309.390625 0)"/>
     <use xlink:href="#NotoNaskhArabic-Bold-241" transform="translate(347.09375 0)"/>
     <use xlink:href="#NotoNaskhArabic-Bold-73" transform="translate(381.390625 0)"/>
     <use xlink:href="#NotoNaskhArabic-Bold-23f" transform="translate(447.09375 0)"/>
     <use xlink:href="#NotoNaskhArabic-Bold-516" transform="translate(516.09375 0)"/>
     <use xlink:href="#NotoNaskhArabic-Bold-554" transform="translate(543.5 0)"/>
     <use xlink:href="#NotoNaskhArabic-Bold-16a" transform="translate(565.59375 0)"/>
     <use xlink:href="#NotoNaskhArabic-Bold-1e4" transform="translate(608.296875 0)"/>
     <use xlink:href="#NotoNaskhArabic-Bold-1e3" transform="translate(649.59375 0)"/>
     <use xlink:href="#NotoNaskhArabic-Bold-554" transform="translate(705.09375 0)"/>
     <use xlink:href="#NotoNaskhArabic-Bold-7" transform="translate(727.1875 0)"/>
     <use xlink:href="#NotoNaskhArabic-Bold-b5" transform="translate(755.59375 0)"/>
     <use xlink:href="#NotoNaskhArabic-Bold-1ea" transform="translate(799.09375 0)"/>
     <use xlink:href="#NotoNaskhArabic-Bold-235" transform="translate(826.59375 0)"/>
     <use xlink:href="#NotoNaskhArabic-Bold-554" transform="translate(895.59375 0)"/>
     <use xlink:href="#NotoNaskhArabic-Bold-146" transform="translate(917.6875 0)"/>
     <use xlink:href="#NotoNaskhArabic-Bold-8" transform="translate(960.390625 0)"/>
     <use xlink:href="#NotoNaskhArabic-Bold-b5" transform="translate(989.1875 0)"/>
     <use xlink:href="#NotoNaskhArabic-Bold-1ea" transform="translate(1032.6875 0)"/>
     <use xlink:href="#NotoNaskhArabic-Bold-235" transform="translate(1060.1875 0)"/>
     <use xlink:href="#NotoNaskhArabic-Bold-554" transform="translate(1129.1875 0)"/>
     <use xlink:href="#NotoNaskhArabic-Bold-218" transform="translate(1151.28125 0)"/>
     <use xlink:href="#NotoNaskhArabic-Bold-16a" transform="translate(1200.984375 0)"/>
     <use xlink:href="#NotoNaskhArabic-Bold-240" transform="translate(1243.6875 0)"/>
     <use xlink:href="#NotoNaskhArabic-Bold-135" transform="translate(1279.6875 0)"/>
     <use xlink:href="#NotoNaskhArabic-Bold-4" transform="translate(1324.484375 0)"/>
     <use xlink:href="#NotoNaskhArabic-Bold-1e7" transform="translate(1353.28125 0)"/>
     <use xlink:href="#NotoNaskhArabic-Bold-554" transform="translate(1413.6875 0)"/>
     <use xlink:href="#NotoNaskhArabic-Bold-7" transform="translate(1435.78125 0)"/>
     <use xlink:href="#NotoNaskhArabic-Bold-136" transform="translate(1464.1875 0)"/>
     <use xlink:href="#NotoNaskhArabic-Bold-1bf" transform="translate(1515.890625 0)"/>
     <use xlink:href="#NotoNaskhArabic-Bold-235" transform="translate(1540.390625 0)"/>
     <use xlink:href="#NotoNaskhArabic-Bold-554" transform="translate(1609.390625 0)"/>
     <use xlink:href="#NotoNaskhArabic-Bold-146" transform="translate(1631.484375 0)"/>
     <use xlink:href="#NotoNaskhArabic-Bold-8" transform="translate(1674.1875 0)"/>
     <use xlink:href="#NotoNaskhArabic-Bold-136" transform="translate(1702.984375 0)"/>
     <use xlink:href="#NotoNaskhArabic-Bold-1bf" transform="translate(1754.6875 0)"/>
     <use xlink:href="#NotoNaskhArabic-Bold-235" transform="translate(1779.1875 0)"/>
    </g>
   </g>
   <g id="text_2">
    <!-- ﻕﺍﺮﺘﺧﻻﺍ ﺐﺴﺣ ﻲﺳﺎﻜﻌﻧﺍ ﻭﺃ ﻱﺭﺍﺮﻤﺘﺳﺍ — (Symmetrical Triangle) ﻞﺛﺎﻤﺘﻤﻟﺍ ﺚﻠﺜﻤﻟﺍ -->
    <g style="fill: #1f2937" transform="translate(138.763477 18.4245) scale(0.105 -0.105)">
     <defs>
      <path id="NotoNaskhArabic-Bold-3" d="M 774 58 
Q 742 717 710 1216 
Q 678 1715 646 2134 
Q 614 2554 576 2950 
Q 538 3347 493 3808 
Q 474 3968 566 4089 
Q 659 4211 822 4281 
Q 986 4352 1178 4352 
Q 1229 4154 1296 3955 
Q 1363 3757 1440 3565 
L 1216 3398 
Q 1229 2867 1222 2035 
Q 1216 1203 1184 109 
L 774 58 
z
" transform="scale(0.015625)"/>
      <path id="NotoNaskhArabic-Bold-1c1" d="M 0 58 
Q -51 58 -51 109 
L -51 762 
Q -51 813 0 813 
Q 282 813 672 960 
Q 646 1146 624 1334 
Q 602 1523 570 1709 
Q 544 1894 441 2448 
Q 339 3002 173 3930 
Q 339 4045 534 4147 
Q 730 4250 934 4352 
Q 947 3827 960 3356 
Q 973 2886 986 2477 
Q 998 2067 1004 1718 
Q 1011 1370 1011 1069 
Q 1011 634 762 256 
Q 698 166 490 112 
Q 282 58 0 58 
z
" transform="scale(0.015625)"/>
      <path id="NotoNaskhArabic-Bold-43" d="M 0 58 
Q -51 58 -51 109 
L -51 762 
Q -51 813 0 813 
Q 307 813 566 829 
Q 826 845 992 928 
Q 1120 992 1187 1104 
Q 1254 1216 1357 1421 
Q 1459 1632 1536 1680 
Q 1613 1728 1715 1728 
Q 1869 1728 1971 1638 
Q 1888 1427 1814 1264 
Q 1741 1101 1690 979 
Q 2003 813 2362 813 
Q 2413 813 2413 762 
L 2413 109 
Q 2413 58 2362 58 
Q 1875 58 1434 499 
L 1382 416 
Q 1203 179 883 118 
Q 563 58 0 58 
z
M 1242 2778 
Q 1107 2887 1011 2979 
Q 915 3072 851 3143 
Q 986 3264 1078 3350 
Q 1171 3437 1222 3501 
Q 1293 3418 1385 3328 
Q 1478 3239 1594 3143 
Q 1459 2995 1369 2902 
Q 1280 2810 1242 2778 
z
M 1702 2227 
Q 1568 2336 1459 2435 
Q 1350 2535 1261 2631 
Q 1357 2720 1465 2829 
Q 1574 2938 1690 3072 
Q 1728 3027 1830 2931 
Q 1933 2835 2093 2682 
Q 2010 2560 1910 2448 
Q 1811 2336 1702 2227 
z
M 813 2138 
Q 525 2355 378 2541 
Q 486 2650 595 2762 
Q 704 2874 813 2983 
Q 864 2919 963 2816 
Q 1062 2714 1203 2586 
Q 1107 2458 1011 2342 
Q 915 2227 813 2138 
z
" transform="scale(0.015625)"/>
      <path id="NotoNaskhArabic-Bold-42" d="M 2010 0 
Q 448 0 448 1363 
Q 448 1638 570 2067 
L 858 2067 
Q 851 2042 844 1926 
Q 838 1811 838 1747 
Q 838 1376 982 1174 
Q 1126 973 1434 864 
Q 1587 819 1792 790 
Q 1997 762 2246 762 
Q 2918 762 3404 845 
Q 3891 928 4070 1069 
Q 4134 1126 4182 1200 
Q 4230 1274 4301 1434 
Q 4390 1626 4467 1677 
Q 4544 1728 4646 1728 
Q 4794 1728 4902 1638 
Q 4838 1466 4768 1302 
Q 4698 1139 4608 986 
Q 4774 902 4928 857 
Q 5082 813 5293 813 
Q 5344 813 5344 762 
L 5344 109 
Q 5344 58 5293 58 
Q 5050 58 4816 166 
Q 4582 275 4314 544 
Q 3994 288 3376 144 
Q 2758 0 2010 0 
z
M 2458 2803 
Q 2323 2912 2227 3004 
Q 2131 3097 2067 3168 
Q 2202 3289 2294 3375 
Q 2387 3462 2438 3526 
Q 2509 3443 2601 3353 
Q 2694 3264 2810 3168 
Q 2675 3020 2585 2927 
Q 2496 2835 2458 2803 
z
M 2918 2252 
Q 2784 2361 2675 2460 
Q 2566 2560 2477 2656 
Q 2573 2745 2681 2854 
Q 2790 2963 2906 3097 
Q 2944 3052 3046 2956 
Q 3149 2860 3309 2707 
Q 3226 2585 3126 2473 
Q 3027 2361 2918 2252 
z
M 2029 2163 
Q 1741 2380 1594 2566 
Q 1702 2675 1811 2787 
Q 1920 2899 2029 3008 
Q 2080 2944 2179 2841 
Q 2278 2739 2419 2611 
Q 2323 2483 2227 2367 
Q 2131 2252 2029 2163 
z
" transform="scale(0.015625)"/>
      <path id="NotoNaskhArabic-Bold-37" d="M 0 58 
Q -51 58 -51 109 
L -51 762 
Q -51 813 0 813 
Q 307 813 566 829 
Q 826 845 992 928 
Q 1120 992 1187 1104 
Q 1254 1216 1357 1421 
Q 1459 1632 1536 1680 
Q 1613 1728 1715 1728 
Q 1869 1728 1971 1638 
Q 1888 1427 1814 1264 
Q 1741 1101 1690 979 
Q 2003 813 2362 813 
Q 2413 813 2413 762 
L 2413 109 
Q 2413 58 2362 58 
Q 1875 58 1434 499 
L 1382 416 
Q 1203 179 883 118 
Q 563 58 0 58 
z
M 1664 2252 
Q 1529 2361 1420 2457 
Q 1312 2553 1222 2649 
Q 1459 2867 1651 3097 
Q 1708 3033 1810 2937 
Q 1913 2841 2054 2700 
Q 1881 2464 1664 2252 
z
M 806 2156 
Q 531 2380 364 2560 
Q 473 2668 582 2780 
Q 691 2892 800 3001 
Q 915 2867 1196 2604 
Q 1036 2374 806 2156 
z
" transform="scale(0.015625)"/>
      <path id="NotoNaskhArabic-Bold-44" d="M 0 58 
Q -51 58 -51 109 
L -51 762 
Q -51 813 0 813 
Q 320 813 640 867 
Q 960 922 1139 998 
Q 1075 1146 976 1328 
Q 877 1510 819 1613 
Q 755 1734 710 1833 
Q 666 1933 666 2016 
Q 666 2176 838 2361 
Q 1011 2547 1248 2669 
Q 1293 2470 1347 2217 
Q 1402 1965 1446 1702 
Q 1485 1504 1501 1376 
Q 1517 1248 1517 1184 
Q 1517 1037 1443 822 
Q 1370 608 1267 410 
Q 685 58 0 58 
z
M 909 3546 
Q 774 3655 678 3747 
Q 582 3840 518 3911 
Q 653 4032 745 4118 
Q 838 4205 889 4269 
Q 960 4186 1052 4096 
Q 1145 4007 1261 3911 
Q 1126 3763 1036 3670 
Q 947 3578 909 3546 
z
M 1369 2995 
Q 1235 3104 1126 3203 
Q 1017 3303 928 3399 
Q 1024 3488 1132 3597 
Q 1241 3706 1357 3840 
Q 1395 3795 1497 3699 
Q 1600 3603 1760 3450 
Q 1677 3328 1577 3216 
Q 1478 3104 1369 2995 
z
M 480 2906 
Q 192 3123 45 3309 
Q 153 3418 262 3530 
Q 371 3642 480 3751 
Q 531 3687 630 3584 
Q 729 3482 870 3354 
Q 774 3226 678 3110 
Q 582 2995 480 2906 
z
" transform="scale(0.015625)"/>
      <path id="NotoNaskhArabic-Bold-1be" d="M 1606 -1613 
Q 1030 -1613 729 -1277 
Q 429 -941 429 -301 
Q 429 -134 470 96 
Q 512 326 589 627 
L 870 557 
Q 787 282 787 45 
Q 787 -858 1619 -858 
Q 1984 -858 2262 -794 
Q 2541 -730 2784 -576 
Q 2970 -467 3155 -288 
L 3014 461 
Q 2989 608 2915 1014 
Q 2842 1421 2726 2086 
Q 2694 2291 2652 2537 
Q 2611 2784 2569 3024 
Q 2528 3264 2499 3446 
Q 2470 3629 2470 3699 
Q 2470 3968 2675 4160 
Q 2880 4352 3162 4352 
Q 3219 4134 3283 3939 
Q 3347 3744 3418 3565 
L 3213 3411 
Q 3270 2810 3331 2198 
Q 3392 1587 3450 973 
Q 3718 813 4000 813 
Q 4058 813 4058 762 
L 4058 109 
Q 4058 58 4000 58 
Q 3878 58 3760 86 
Q 3642 115 3507 192 
L 3514 -45 
Q 3514 -474 3258 -838 
Q 3002 -1203 2566 -1408 
Q 2349 -1510 2109 -1561 
Q 1869 -1613 1606 -1613 
z
" transform="scale(0.015625)"/>
      <path id="DejaVuSans-Bold-b" d="M 2413 -844 
L 1484 -844 
Q 1006 -72 778 623 
Q 550 1319 550 2003 
Q 550 2688 779 3389 
Q 1009 4091 1484 4856 
L 2413 4856 
Q 2013 4116 1813 3408 
Q 1613 2700 1613 2009 
Q 1613 1319 1811 609 
Q 2009 -100 2413 -844 
z
" transform="scale(0.015625)"/>
      <path id="DejaVuSans-Bold-36" d="M 3834 4519 
L 3834 3531 
Q 3450 3703 3084 3790 
Q 2719 3878 2394 3878 
Q 1963 3878 1756 3759 
Q 1550 3641 1550 3391 
Q 1550 3203 1689 3098 
Q 1828 2994 2194 2919 
L 2706 2816 
Q 3484 2659 3812 2340 
Q 4141 2022 4141 1434 
Q 4141 663 3683 286 
Q 3225 -91 2284 -91 
Q 1841 -91 1394 -6 
Q 947 78 500 244 
L 500 1259 
Q 947 1022 1364 901 
Q 1781 781 2169 781 
Q 2563 781 2772 912 
Q 2981 1044 2981 1288 
Q 2981 1506 2839 1625 
Q 2697 1744 2272 1838 
L 1806 1941 
Q 1106 2091 782 2419 
Q 459 2747 459 3303 
Q 459 4000 909 4375 
Q 1359 4750 2203 4750 
Q 2588 4750 2994 4692 
Q 3400 4634 3834 4519 
z
" transform="scale(0.015625)"/>
      <path id="DejaVuSans-Bold-5c" d="M 78 3500 
L 1197 3500 
L 2138 1125 
L 2938 3500 
L 4056 3500 
L 2584 -331 
Q 2363 -916 2067 -1148 
Q 1772 -1381 1288 -1381 
L 641 -1381 
L 641 -647 
L 991 -647 
Q 1275 -647 1404 -556 
Q 1534 -466 1606 -231 
L 1638 -134 
L 78 3500 
z
" transform="scale(0.015625)"/>
      <path id="DejaVuSans-Bold-50" d="M 3781 2919 
Q 3994 3244 4286 3414 
Q 4578 3584 4928 3584 
Q 5531 3584 5847 3212 
Q 6163 2841 6163 2131 
L 6163 0 
L 5038 0 
L 5038 1825 
Q 5041 1866 5042 1909 
Q 5044 1953 5044 2034 
Q 5044 2406 4934 2573 
Q 4825 2741 4581 2741 
Q 4263 2741 4089 2478 
Q 3916 2216 3909 1719 
L 3909 0 
L 2784 0 
L 2784 1825 
Q 2784 2406 2684 2573 
Q 2584 2741 2328 2741 
Q 2006 2741 1831 2477 
Q 1656 2213 1656 1722 
L 1656 0 
L 531 0 
L 531 3500 
L 1656 3500 
L 1656 2988 
Q 1863 3284 2130 3434 
Q 2397 3584 2719 3584 
Q 3081 3584 3359 3409 
Q 3638 3234 3781 2919 
z
" transform="scale(0.015625)"/>
      <path id="DejaVuSans-Bold-48" d="M 4031 1759 
L 4031 1441 
L 1416 1441 
Q 1456 1047 1700 850 
Q 1944 653 2381 653 
Q 2734 653 3104 758 
Q 3475 863 3866 1075 
L 3866 213 
Q 3469 63 3072 -14 
Q 2675 -91 2278 -91 
Q 1328 -91 801 392 
Q 275 875 275 1747 
Q 275 2603 792 3093 
Q 1309 3584 2216 3584 
Q 3041 3584 3536 3087 
Q 4031 2591 4031 1759 
z
M 2881 2131 
Q 2881 2450 2695 2645 
Q 2509 2841 2209 2841 
Q 1884 2841 1681 2658 
Q 1478 2475 1428 2131 
L 2881 2131 
z
" transform="scale(0.015625)"/>
      <path id="DejaVuSans-Bold-57" d="M 1759 4494 
L 1759 3500 
L 2913 3500 
L 2913 2700 
L 1759 2700 
L 1759 1216 
Q 1759 972 1856 886 
Q 1953 800 2241 800 
L 2816 800 
L 2816 0 
L 1856 0 
Q 1194 0 917 276 
Q 641 553 641 1216 
L 641 2700 
L 84 2700 
L 84 3500 
L 641 3500 
L 641 4494 
L 1759 4494 
z
" transform="scale(0.015625)"/>
      <path id="DejaVuSans-Bold-55" d="M 3138 2547 
Q 2991 2616 2845 2648 
Q 2700 2681 2553 2681 
Q 2122 2681 1889 2404 
Q 1656 2128 1656 1613 
L 1656 0 
L 538 0 
L 538 3500 
L 1656 3500 
L 1656 2925 
Q 1872 3269 2151 3426 
Q 2431 3584 2822 3584 
Q 2878 3584 2943 3579 
Q 3009 3575 3134 3559 
L 3138 2547 
z
" transform="scale(0.015625)"/>
      <path id="DejaVuSans-Bold-4c" d="M 538 3500 
L 1656 3500 
L 1656 0 
L 538 0 
L 538 3500 
z
M 538 4863 
L 1656 4863 
L 1656 3950 
L 538 3950 
L 538 4863 
z
" transform="scale(0.015625)"/>
      <path id="DejaVuSans-Bold-46" d="M 3366 3391 
L 3366 2478 
Q 3138 2634 2908 2709 
Q 2678 2784 2431 2784 
Q 1963 2784 1702 2511 
Q 1441 2238 1441 1747 
Q 1441 1256 1702 982 
Q 1963 709 2431 709 
Q 2694 709 2930 787 
Q 3166 866 3366 1019 
L 3366 103 
Q 3103 6 2833 -42 
Q 2563 -91 2291 -91 
Q 1344 -91 809 395 
Q 275 881 275 1747 
Q 275 2613 809 3098 
Q 1344 3584 2291 3584 
Q 2566 3584 2833 3536 
Q 3100 3488 3366 3391 
z
" transform="scale(0.015625)"/>
      <path id="DejaVuSans-Bold-44" d="M 2106 1575 
Q 1756 1575 1579 1456 
Q 1403 1338 1403 1106 
Q 1403 894 1545 773 
Q 1688 653 1941 653 
Q 2256 653 2472 879 
Q 2688 1106 2688 1447 
L 2688 1575 
L 2106 1575 
z
M 3816 1997 
L 3816 0 
L 2688 0 
L 2688 519 
Q 2463 200 2181 54 
Q 1900 -91 1497 -91 
Q 953 -91 614 226 
Q 275 544 275 1050 
Q 275 1666 698 1953 
Q 1122 2241 2028 2241 
L 2688 2241 
L 2688 2328 
Q 2688 2594 2478 2717 
Q 2269 2841 1825 2841 
Q 1466 2841 1156 2769 
Q 847 2697 581 2553 
L 581 3406 
Q 941 3494 1303 3539 
Q 1666 3584 2028 3584 
Q 2975 3584 3395 3211 
Q 3816 2838 3816 1997 
z
" transform="scale(0.015625)"/>
      <path id="DejaVuSans-Bold-4f" d="M 538 4863 
L 1656 4863 
L 1656 0 
L 538 0 
L 538 4863 
z
" transform="scale(0.015625)"/>
      <path id="DejaVuSans-Bold-37" d="M 31 4666 
L 4331 4666 
L 4331 3756 
L 2784 3756 
L 2784 0 
L 1581 0 
L 1581 3756 
L 31 3756 
L 31 4666 
z
" transform="scale(0.015625)"/>
      <path id="DejaVuSans-Bold-51" d="M 4056 2131 
L 4056 0 
L 2931 0 
L 2931 347 
L 2931 1631 
Q 2931 2084 2911 2256 
Q 2891 2428 2841 2509 
Q 2775 2619 2662 2680 
Q 2550 2741 2406 2741 
Q 2056 2741 1856 2470 
Q 1656 2200 1656 1722 
L 1656 0 
L 538 0 
L 538 3500 
L 1656 3500 
L 1656 2988 
Q 1909 3294 2193 3439 
Q 2478 3584 2822 3584 
Q 3428 3584 3742 3212 
Q 4056 2841 4056 2131 
z
" transform="scale(0.015625)"/>
      <path id="DejaVuSans-Bold-4a" d="M 2919 594 
Q 2688 288 2409 144 
Q 2131 0 1766 0 
Q 1125 0 706 504 
Q 288 1009 288 1791 
Q 288 2575 706 3076 
Q 1125 3578 1766 3578 
Q 2131 3578 2409 3434 
Q 2688 3291 2919 2981 
L 2919 3500 
L 4044 3500 
L 4044 353 
Q 4044 -491 3511 -936 
Q 2978 -1381 1966 -1381 
Q 1638 -1381 1331 -1331 
Q 1025 -1281 716 -1178 
L 716 -306 
Q 1009 -475 1290 -558 
Q 1572 -641 1856 -641 
Q 2406 -641 2662 -400 
Q 2919 -159 2919 353 
L 2919 594 
z
M 2181 2772 
Q 1834 2772 1640 2515 
Q 1447 2259 1447 1791 
Q 1447 1309 1634 1061 
Q 1822 813 2181 813 
Q 2531 813 2725 1069 
Q 2919 1325 2919 1791 
Q 2919 2259 2725 2515 
Q 2531 2772 2181 2772 
z
" transform="scale(0.015625)"/>
      <path id="DejaVuSans-Bold-c" d="M 513 -844 
Q 913 -100 1113 609 
Q 1313 1319 1313 2009 
Q 1313 2700 1113 3408 
Q 913 4116 513 4856 
L 1441 4856 
Q 1916 4091 2145 3389 
Q 2375 2688 2375 2003 
Q 2375 1319 2147 623 
Q 1919 -72 1441 -844 
L 513 -844 
z
" transform="scale(0.015625)"/>
      <path id="DejaVuSans-Bold-af6" d="M 344 2156 
L 6056 2156 
L 6056 1350 
L 344 1350 
L 344 2156 
z
" transform="scale(0.015625)"/>
      <path id="NotoNaskhArabic-Bold-fa" d="M 1472 0 
Q 1165 0 736 205 
Q 608 141 406 99 
Q 205 58 0 58 
Q -51 58 -51 109 
L -51 762 
Q -51 813 0 813 
Q 294 813 441 851 
Q 589 890 678 979 
Q 749 1050 806 1142 
Q 864 1235 998 1466 
Q 1037 1536 1110 1581 
Q 1184 1626 1267 1626 
Q 1357 1626 1466 1555 
Q 1363 1286 1286 1091 
Q 1210 896 1158 781 
Q 1331 762 1504 762 
Q 1632 762 1734 778 
Q 1837 794 1965 832 
Q 2010 902 2093 1104 
Q 2176 1306 2317 1696 
Q 2349 1779 2432 1833 
Q 2515 1888 2630 1888 
Q 2765 1888 2854 1818 
Q 2778 1626 2710 1414 
Q 2643 1203 2586 992 
Q 2829 870 3133 806 
Q 3437 742 3782 704 
Q 3584 1094 3443 1376 
Q 3302 1658 3302 1798 
Q 3302 1952 3475 2141 
Q 3648 2330 3885 2451 
Q 3994 1907 4051 1603 
Q 4109 1299 4131 1145 
Q 4154 992 4154 909 
Q 4154 806 4112 633 
Q 4070 461 4006 288 
Q 3942 115 3885 0 
Q 3501 0 3097 89 
Q 2694 179 2355 326 
Q 2317 243 2278 173 
Q 2234 102 1994 51 
Q 1754 0 1472 0 
z
" transform="scale(0.015625)"/>
      <path id="NotoNaskhArabic-Bold-d4" d="M 653 -1248 
Q 544 -1248 304 -1107 
Q 64 -966 -218 -730 
L -115 -461 
Q 243 -550 531 -550 
Q 1005 -550 1331 -313 
Q 1658 -77 1805 371 
Q 1760 467 1705 566 
Q 1651 666 1587 762 
Q 1299 1203 1203 1414 
Q 1107 1626 1107 1779 
Q 1107 1965 1254 2147 
Q 1402 2330 1638 2451 
Q 1670 2330 1705 2208 
Q 1741 2086 1786 1958 
Q 1926 1555 2006 1299 
Q 2086 1043 2106 934 
Q 2323 813 2586 813 
Q 2637 813 2637 762 
L 2637 109 
Q 2637 58 2586 58 
Q 2349 58 2112 179 
Q 2042 -243 1837 -566 
Q 1632 -890 1328 -1069 
Q 1024 -1248 653 -1248 
z
" transform="scale(0.015625)"/>
      <path id="NotoNaskhArabic-Bold-23e" d="M 1606 -1613 
Q 1037 -1613 736 -1277 
Q 435 -941 435 -301 
Q 435 32 595 627 
L 877 557 
Q 787 256 787 45 
Q 787 -858 1683 -858 
Q 1965 -858 2291 -771 
Q 2618 -685 2931 -531 
Q 3078 -454 3222 -368 
Q 3366 -282 3494 -179 
Q 3418 -179 3344 -179 
Q 3270 -179 3200 -173 
Q 2362 -128 2093 230 
Q 1939 442 1939 762 
Q 1939 1005 2038 1267 
Q 2138 1530 2307 1776 
Q 2477 2022 2688 2202 
Q 3008 2464 3290 2464 
Q 3725 2464 3853 1638 
L 3571 1581 
Q 3475 1702 3366 1702 
Q 3194 1702 2976 1577 
Q 2758 1453 2560 1229 
Q 2374 1024 2266 755 
Q 2394 704 2582 665 
Q 2771 627 3021 595 
Q 3245 570 3376 525 
Q 3507 480 3603 403 
Q 3699 333 3760 179 
Q 3821 26 3821 -122 
Q 3821 -314 3667 -547 
Q 3514 -781 3242 -998 
Q 2970 -1216 2624 -1376 
Q 2125 -1613 1606 -1613 
z
M 2227 -2630 
Q 1952 -2406 1785 -2227 
Q 1990 -2048 2214 -1779 
Q 2233 -1798 2332 -1897 
Q 2432 -1997 2611 -2182 
Q 2547 -2278 2451 -2390 
Q 2355 -2502 2227 -2630 
z
M 1369 -2726 
Q 1209 -2598 1103 -2495 
Q 998 -2393 928 -2317 
Q 1036 -2208 1145 -2096 
Q 1254 -1984 1363 -1875 
Q 1440 -1971 1760 -2272 
Q 1606 -2502 1369 -2726 
z
" transform="scale(0.015625)"/>
      <path id="NotoNaskhArabic-Bold-175" d="M 0 58 
Q -51 58 -51 109 
L -51 762 
Q -51 813 0 813 
Q 832 813 1293 870 
Q 1741 922 1952 1030 
Q 1882 1178 1728 1347 
Q 1574 1517 1363 1683 
Q 1242 1773 1085 1875 
Q 928 1978 723 2099 
Q 64 2470 64 2778 
Q 64 2906 121 3030 
Q 179 3155 269 3238 
Q 314 3277 515 3376 
Q 717 3475 1008 3606 
Q 1299 3738 1622 3878 
Q 1946 4019 2243 4144 
Q 2541 4269 2746 4352 
Q 2880 4230 2880 4032 
Q 2880 3872 2781 3728 
Q 2682 3584 2534 3514 
Q 2291 3392 2038 3283 
Q 1786 3174 1440 3049 
Q 1094 2925 563 2739 
Q 1011 2630 1401 2371 
Q 1792 2112 2029 1773 
Q 2278 1421 2278 1107 
Q 2278 1050 2272 1037 
Q 2630 813 3046 813 
Q 3104 813 3104 762 
L 3104 109 
Q 3104 58 3046 58 
Q 2470 58 2016 531 
Q 1901 429 1702 326 
Q 1126 58 0 58 
z
" transform="scale(0.015625)"/>
      <path id="NotoNaskhArabic-Bold-8c" d="M 0 58 
Q -51 58 -51 109 
L -51 762 
Q -51 813 0 813 
Q 467 813 793 829 
Q 1120 845 1427 934 
Q 1702 1018 1897 1069 
Q 2093 1120 2202 1146 
Q 2112 1197 2025 1251 
Q 1939 1306 1856 1363 
Q 1651 1504 1513 1558 
Q 1376 1613 1235 1613 
Q 1043 1613 870 1558 
Q 698 1504 480 1363 
Q 422 1421 377 1533 
Q 333 1645 333 1747 
Q 333 2029 582 2205 
Q 832 2381 1210 2381 
Q 1414 2381 1603 2310 
Q 1792 2240 2029 2080 
Q 2317 1882 2560 1763 
Q 2803 1645 3136 1555 
Q 3302 1517 3500 1494 
Q 3699 1472 3936 1472 
L 3603 794 
Q 3405 813 3273 825 
Q 3142 838 2963 826 
Q 2739 806 2483 704 
Q 2227 602 1990 467 
Q 1741 320 1533 237 
Q 1325 154 1107 115 
Q 890 77 624 67 
Q 358 58 0 58 
z
" transform="scale(0.015625)"/>
      <path id="NotoNaskhArabic-Bold-f9" d="M 1472 0 
Q 1165 0 736 205 
Q 608 141 406 99 
Q 205 58 0 58 
Q -51 58 -51 109 
L -51 762 
Q -51 813 0 813 
Q 294 813 441 851 
Q 589 890 678 979 
Q 749 1050 813 1149 
Q 877 1248 998 1466 
Q 1037 1536 1110 1581 
Q 1184 1626 1267 1626 
Q 1357 1626 1466 1555 
Q 1382 1363 1308 1171 
Q 1235 979 1158 781 
Q 1331 762 1504 762 
Q 1632 762 1709 771 
Q 1786 781 1965 832 
Q 2016 909 2096 1107 
Q 2176 1306 2317 1696 
Q 2349 1779 2432 1833 
Q 2515 1888 2630 1888 
Q 2765 1888 2854 1818 
Q 2816 1722 2736 1472 
Q 2656 1222 2509 742 
Q 2554 742 2595 742 
Q 2637 742 2682 736 
Q 2912 736 3142 806 
Q 3162 838 3194 915 
Q 3226 992 3283 1146 
Q 3322 1254 3379 1401 
Q 3437 1549 3507 1747 
Q 3546 1837 3632 1891 
Q 3718 1946 3827 1946 
Q 3942 1946 4045 1875 
Q 4006 1773 3942 1581 
Q 3878 1389 3750 986 
Q 4038 813 4518 813 
Q 4570 813 4570 762 
L 4570 109 
Q 4570 58 4518 58 
Q 4262 58 3993 170 
Q 3725 282 3578 442 
Q 3526 301 3468 201 
Q 3411 102 3226 51 
Q 3034 0 2758 0 
Q 2566 0 2240 141 
Q 2150 77 1923 38 
Q 1696 0 1472 0 
z
" transform="scale(0.015625)"/>
      <path id="NotoNaskhArabic-Bold-24" d="M 2010 0 
Q 448 0 448 1363 
Q 448 1638 570 2067 
L 858 2067 
Q 851 2042 844 1926 
Q 838 1811 838 1747 
Q 838 1376 982 1174 
Q 1126 973 1434 864 
Q 1587 819 1792 790 
Q 1997 762 2246 762 
Q 2918 762 3404 845 
Q 3891 928 4070 1069 
Q 4134 1126 4182 1200 
Q 4230 1274 4301 1434 
Q 4390 1626 4467 1677 
Q 4544 1728 4646 1728 
Q 4794 1728 4902 1638 
Q 4838 1466 4768 1302 
Q 4698 1139 4608 986 
Q 4774 902 4928 857 
Q 5082 813 5293 813 
Q 5344 813 5344 762 
L 5344 109 
Q 5344 58 5293 58 
Q 5050 58 4816 166 
Q 4582 275 4314 544 
Q 3994 288 3376 144 
Q 2758 0 2010 0 
z
M 2624 -1427 
Q 2451 -1286 2329 -1171 
Q 2208 -1056 2124 -966 
Q 2252 -838 2374 -713 
Q 2496 -589 2611 -454 
Q 2777 -646 3072 -915 
Q 3001 -1017 2886 -1148 
Q 2771 -1280 2624 -1427 
z
" transform="scale(0.015625)"/>
      <path id="NotoNaskhArabic-Bold-2de" d="M 896 0 
Q 883 0 883 51 
Q 883 141 899 294 
Q 915 448 937 576 
Q 960 704 979 704 
L 1242 704 
Q 1542 947 1753 1164 
Q 1965 1382 2086 1581 
Q 1581 2086 832 2541 
L 595 2528 
Q 218 2714 218 3098 
Q 218 3437 570 3642 
Q 794 3494 1091 3235 
Q 1389 2976 1690 2675 
Q 1856 2515 2009 2355 
Q 2163 2195 2298 2042 
Q 2355 2246 2355 2477 
Q 2355 2637 2221 3411 
Q 2189 3610 2169 3728 
Q 2150 3846 2150 3891 
Q 2150 4154 2342 4307 
Q 2534 4461 2829 4461 
Q 2880 4256 2944 4057 
Q 3008 3859 3085 3674 
L 2874 3514 
L 2880 3398 
L 2899 2790 
Q 2899 2214 2598 1664 
Q 2624 1638 2713 1516 
Q 2803 1395 2908 1238 
Q 3014 1082 3094 947 
Q 3174 813 3174 762 
Q 3174 704 3142 601 
Q 3110 499 3065 387 
Q 3021 275 2979 195 
Q 2938 115 2918 109 
Q 2605 58 2102 29 
Q 1600 0 896 0 
z
M 1779 730 
Q 2067 742 2294 768 
Q 2522 794 2752 832 
Q 2650 947 2554 1062 
Q 2458 1178 2355 1299 
Q 2093 973 1779 730 
z
" transform="scale(0.015625)"/>
      <path id="NotoNaskhArabic-Bold-a4" d="M 0 58 
Q -51 58 -51 109 
L -51 762 
Q -51 813 0 813 
Q 467 813 793 829 
Q 1120 845 1427 934 
Q 1702 1018 1897 1069 
Q 2093 1120 2202 1146 
Q 2112 1197 2025 1251 
Q 1939 1306 1856 1363 
Q 1651 1504 1513 1558 
Q 1376 1613 1235 1613 
Q 1043 1613 870 1558 
Q 698 1504 480 1363 
Q 422 1421 377 1533 
Q 333 1645 333 1747 
Q 333 2029 582 2205 
Q 832 2381 1210 2381 
Q 1414 2381 1603 2310 
Q 1792 2240 2029 2080 
Q 2317 1882 2560 1763 
Q 2803 1645 3136 1555 
Q 3302 1517 3500 1494 
Q 3699 1472 3936 1472 
L 3603 794 
Q 3405 813 3273 825 
Q 3142 838 2963 826 
Q 2739 806 2483 704 
Q 2227 602 1990 467 
Q 1741 320 1533 237 
Q 1325 154 1107 115 
Q 890 77 624 67 
Q 358 58 0 58 
z
M 1894 2873 
Q 1568 3142 1402 3334 
Q 1549 3481 1667 3606 
Q 1786 3731 1882 3846 
Q 1952 3769 2067 3654 
Q 2182 3539 2342 3385 
Q 2266 3277 2154 3149 
Q 2042 3021 1894 2873 
z
" transform="scale(0.015625)"/>
      <path id="NotoNaskhArabic-Bold-167" d="M 1606 -1613 
Q 1037 -1613 736 -1277 
Q 435 -941 435 -301 
Q 435 32 595 627 
L 877 557 
Q 787 256 787 45 
Q 787 -858 1683 -858 
Q 2317 -858 2976 -493 
Q 3085 -429 3200 -355 
Q 3315 -282 3424 -198 
Q 3411 -51 3388 99 
Q 3366 250 3334 390 
Q 2938 0 2522 0 
Q 2125 0 1907 230 
Q 1690 461 1690 883 
Q 1690 1242 1824 1584 
Q 1958 1926 2176 2131 
Q 2400 2342 2630 2342 
Q 2950 2342 3238 2080 
Q 3526 1818 3686 1350 
Q 3846 890 3846 320 
Q 3846 -90 3676 -432 
Q 3507 -774 3194 -1037 
Q 2989 -1210 2717 -1338 
Q 2445 -1466 2160 -1539 
Q 1875 -1613 1606 -1613 
z
M 2650 704 
Q 2925 704 3219 800 
Q 3027 1331 2765 1498 
Q 2643 1574 2515 1574 
Q 2374 1574 2259 1500 
Q 2144 1427 2086 1318 
Q 2035 1203 2035 1094 
Q 2035 902 2195 803 
Q 2355 704 2650 704 
z
M 3060 2860 
Q 2925 2969 2816 3065 
Q 2708 3161 2618 3257 
Q 2855 3475 3047 3705 
Q 3104 3641 3206 3545 
Q 3309 3449 3450 3308 
Q 3277 3072 3060 2860 
z
M 2202 2764 
Q 1927 2988 1760 3168 
Q 1869 3276 1978 3388 
Q 2087 3500 2196 3609 
Q 2311 3475 2592 3212 
Q 2432 2982 2202 2764 
z
" transform="scale(0.015625)"/>
     </defs>
     <use xlink:href="#NotoNaskhArabic-Bold-3"/>
     <use xlink:href="#NotoNaskhArabic-Bold-1c1" transform="translate(28.40625 0)"/>
     <use xlink:href="#NotoNaskhArabic-Bold-1e4" transform="translate(50.109375 0)"/>
     <use xlink:href="#NotoNaskhArabic-Bold-43" transform="translate(91.40625 0)"/>
     <use xlink:href="#NotoNaskhArabic-Bold-1bf" transform="translate(127.40625 0)"/>
     <use xlink:href="#NotoNaskhArabic-Bold-42" transform="translate(151.90625 0)"/>
     <use xlink:href="#NotoNaskhArabic-Bold-554" transform="translate(233.609375 0)"/>
     <use xlink:href="#NotoNaskhArabic-Bold-3" transform="translate(255.703125 0)"/>
     <use xlink:href="#NotoNaskhArabic-Bold-1c1" transform="translate(284.109375 0)"/>
     <use xlink:href="#NotoNaskhArabic-Bold-1e4" transform="translate(305.8125 0)"/>
     <use xlink:href="#NotoNaskhArabic-Bold-37" transform="translate(347.109375 0)"/>
     <use xlink:href="#NotoNaskhArabic-Bold-1e4" transform="translate(383.109375 0)"/>
     <use xlink:href="#NotoNaskhArabic-Bold-4" transform="translate(424.40625 0)"/>
     <use xlink:href="#NotoNaskhArabic-Bold-44" transform="translate(453.203125 0)"/>
     <use xlink:href="#NotoNaskhArabic-Bold-1be" transform="translate(480.703125 0)"/>
     <use xlink:href="#NotoNaskhArabic-Bold-554" transform="translate(542.40625 0)"/>
     <use xlink:href="#DejaVuSans-Bold-b" transform="translate(564.5 0)"/>
     <use xlink:href="#DejaVuSans-Bold-36" transform="translate(610.203125 0)"/>
     <use xlink:href="#DejaVuSans-Bold-5c" transform="translate(682.21875 0)"/>
     <use xlink:href="#DejaVuSans-Bold-50" transform="translate(747.40625 0)"/>
     <use xlink:href="#DejaVuSans-Bold-50" transform="translate(851.609375 0)"/>
     <use xlink:href="#DejaVuSans-Bold-48" transform="translate(955.8125 0)"/>
     <use xlink:href="#DejaVuSans-Bold-57" transform="translate(1023.640625 0)"/>
     <use xlink:href="#DejaVuSans-Bold-55" transform="translate(1071.4375 0)"/>
     <use xlink:href="#DejaVuSans-Bold-4c" transform="translate(1120.75 0)"/>
     <use xlink:href="#DejaVuSans-Bold-46" transform="translate(1155.03125 0)"/>
     <use xlink:href="#DejaVuSans-Bold-44" transform="translate(1214.3125 0)"/>
     <use xlink:href="#DejaVuSans-Bold-4f" transform="translate(1281.796875 0)"/>
     <use xlink:href="#NotoNaskhArabic-Bold-554" transform="translate(1316.078125 0)"/>
     <use xlink:href="#DejaVuSans-Bold-37" transform="translate(1338.171875 0)"/>
     <use xlink:href="#DejaVuSans-Bold-55" transform="translate(1395.40625 0)"/>
     <use xlink:href="#DejaVuSans-Bold-4c" transform="translate(1444.71875 0)"/>
     <use xlink:href="#DejaVuSans-Bold-44" transform="translate(1479 0)"/>
     <use xlink:href="#DejaVuSans-Bold-51" transform="translate(1546.484375 0)"/>
     <use xlink:href="#DejaVuSans-Bold-4a" transform="translate(1617.671875 0)"/>
     <use xlink:href="#DejaVuSans-Bold-4f" transform="translate(1689.25 0)"/>
     <use xlink:href="#DejaVuSans-Bold-48" transform="translate(1723.53125 0)"/>
     <use xlink:href="#DejaVuSans-Bold-c" transform="translate(1791.359375 0)"/>
     <use xlink:href="#NotoNaskhArabic-Bold-554" transform="translate(1837.0625 0)"/>
     <use xlink:href="#DejaVuSans-Bold-af6" transform="translate(1859.15625 0)"/>
     <use xlink:href="#NotoNaskhArabic-Bold-554" transform="translate(1959.15625 0)"/>
     <use xlink:href="#NotoNaskhArabic-Bold-3" transform="translate(1981.25 0)"/>
     <use xlink:href="#NotoNaskhArabic-Bold-fa" transform="translate(2009.65625 0)"/>
     <use xlink:href="#NotoNaskhArabic-Bold-37" transform="translate(2079.65625 0)"/>
     <use xlink:href="#NotoNaskhArabic-Bold-1e4" transform="translate(2115.65625 0)"/>
     <use xlink:href="#NotoNaskhArabic-Bold-d4" transform="translate(2156.953125 0)"/>
     <use xlink:href="#NotoNaskhArabic-Bold-3" transform="translate(2196.453125 0)"/>
     <use xlink:href="#NotoNaskhArabic-Bold-d3" transform="translate(2224.859375 0)"/>
     <use xlink:href="#NotoNaskhArabic-Bold-23e" transform="translate(2262.5625 0)"/>
     <use xlink:href="#NotoNaskhArabic-Bold-554" transform="translate(2326.15625 0)"/>
     <use xlink:href="#NotoNaskhArabic-Bold-7" transform="translate(2348.25 0)"/>
     <use xlink:href="#NotoNaskhArabic-Bold-218" transform="translate(2376.65625 0)"/>
     <use xlink:href="#NotoNaskhArabic-Bold-554" transform="translate(2426.359375 0)"/>
     <use xlink:href="#NotoNaskhArabic-Bold-3" transform="translate(2448.453125 0)"/>
     <use xlink:href="#NotoNaskhArabic-Bold-1ea" transform="translate(2476.859375 0)"/>
     <use xlink:href="#NotoNaskhArabic-Bold-135" transform="translate(2504.359375 0)"/>
     <use xlink:href="#NotoNaskhArabic-Bold-175" transform="translate(2549.15625 0)"/>
     <use xlink:href="#NotoNaskhArabic-Bold-4" transform="translate(2595.859375 0)"/>
     <use xlink:href="#NotoNaskhArabic-Bold-fa" transform="translate(2624.65625 0)"/>
     <use xlink:href="#NotoNaskhArabic-Bold-23f" transform="translate(2694.65625 0)"/>
     <use xlink:href="#NotoNaskhArabic-Bold-554" transform="translate(2763.65625 0)"/>
     <use xlink:href="#NotoNaskhArabic-Bold-8c" transform="translate(2785.75 0)"/>
     <use xlink:href="#NotoNaskhArabic-Bold-f9" transform="translate(2850.65625 0)"/>
     <use xlink:href="#NotoNaskhArabic-Bold-24" transform="translate(2920.359375 0)"/>
     <use xlink:href="#NotoNaskhArabic-Bold-554" transform="translate(3002.0625 0)"/>
     <use xlink:href="#NotoNaskhArabic-Bold-3" transform="translate(3024.15625 0)"/>
     <use xlink:href="#NotoNaskhArabic-Bold-2de" transform="translate(3052.5625 0)"/>
     <use xlink:href="#NotoNaskhArabic-Bold-a4" transform="translate(3107.15625 0)"/>
     <use xlink:href="#NotoNaskhArabic-Bold-37" transform="translate(3172.0625 0)"/>
     <use xlink:href="#NotoNaskhArabic-Bold-d4" transform="translate(3208.0625 0)"/>
     <use xlink:href="#NotoNaskhArabic-Bold-3" transform="translate(3247.5625 0)"/>
     <use xlink:href="#NotoNaskhArabic-Bold-167" transform="translate(3275.96875 0)"/>
    </g>
   </g>
   <g id="patch_5">
    <path d="M 17.551483 294.700368 
L 25.404331 294.700368 
L 25.404331 288.819141 
L 17.551483 288.819141 
z
" clip-path="url(#p63f65fbcd4)" style="fill: #1f8a56; stroke: #1f8a56; stroke-linejoin: miter"/>
   </g>
   <g id="patch_6">
    <path d="M 31.82939 304.161077 
L 39.682238 304.161077 
L 39.682238 235.457691 
L 31.82939 235.457691 
z
" clip-path="url(#p63f65fbcd4)" style="fill: #1f8a56; stroke: #1f8a56; stroke-linejoin: miter"/>
   </g>
   <g id="patch_7">
    <path d="M 46.107297 237.52754 
L 53.960145 237.52754 
L 53.960145 211.917381 
L 46.107297 211.917381 
z
" clip-path="url(#p63f65fbcd4)" style="fill: #1f8a56; stroke: #1f8a56; stroke-linejoin: miter"/>
   </g>
   <g id="patch_8">
    <path d="M 60.385203 205.044876 
L 68.238052 205.044876 
L 68.238052 178.576661 
L 60.385203 178.576661 
z
" clip-path="url(#p63f65fbcd4)" style="fill: #1f8a56; stroke: #1f8a56; stroke-linejoin: miter"/>
   </g>
   <g id="patch_9">
    <path d="M 74.66311 187.449212 
L 82.515959 187.449212 
L 82.515959 157.818987 
L 74.66311 157.818987 
z
" clip-path="url(#p63f65fbcd4)" style="fill: #1f8a56; stroke: #1f8a56; stroke-linejoin: miter"/>
   </g>
   <g id="patch_10">
    <path d="M 88.941017 178.321672 
L 96.793866 178.321672 
L 96.793866 169.564701 
L 88.941017 169.564701 
z
" clip-path="url(#p63f65fbcd4)" style="fill: #b91c1c; stroke: #b91c1c; stroke-linejoin: miter"/>
   </g>
   <g id="patch_11">
    <path d="M 103.218924 185.935246 
L 111.071773 185.935246 
L 111.071773 169.110614 
L 103.218924 169.110614 
z
" clip-path="url(#p63f65fbcd4)" style="fill: #b91c1c; stroke: #b91c1c; stroke-linejoin: miter"/>
   </g>
   <g id="patch_12">
    <path d="M 117.496831 218.955709 
L 125.34968 218.955709 
L 125.34968 182.220154 
L 117.496831 182.220154 
z
" clip-path="url(#p63f65fbcd4)" style="fill: #b91c1c; stroke: #b91c1c; stroke-linejoin: miter"/>
   </g>
   <g id="patch_13">
    <path d="M 131.774738 230.091323 
L 139.627587 230.091323 
L 139.627587 224.210097 
L 131.774738 224.210097 
z
" clip-path="url(#p63f65fbcd4)" style="fill: #b91c1c; stroke: #b91c1c; stroke-linejoin: miter"/>
   </g>
   <g id="patch_14">
    <path d="M 146.052645 249.3246 
L 153.905494 249.3246 
L 153.905494 235.020722 
L 146.052645 235.020722 
z
" clip-path="url(#p63f65fbcd4)" style="fill: #b91c1c; stroke: #b91c1c; stroke-linejoin: miter"/>
   </g>
   <g id="patch_15">
    <path d="M 160.330552 240.281581 
L 168.183401 240.281581 
L 168.183401 232.492324 
L 160.330552 232.492324 
z
" clip-path="url(#p63f65fbcd4)" style="fill: #1f8a56; stroke: #1f8a56; stroke-linejoin: miter"/>
   </g>
   <g id="patch_16">
    <path d="M 174.608459 236.984867 
L 182.461308 236.984867 
L 182.461308 213.192842 
L 174.608459 213.192842 
z
" clip-path="url(#p63f65fbcd4)" style="fill: #1f8a56; stroke: #1f8a56; stroke-linejoin: miter"/>
   </g>
   <g id="patch_17">
    <path d="M 188.886366 206.772424 
L 196.739215 206.772424 
L 196.739215 197.318986 
L 188.886366 197.318986 
z
" clip-path="url(#p63f65fbcd4)" style="fill: #1f8a56; stroke: #1f8a56; stroke-linejoin: miter"/>
   </g>
   <g id="patch_18">
    <path d="M 203.164273 204.020874 
L 211.017122 204.020874 
L 211.017122 169.311698 
L 203.164273 169.311698 
z
" clip-path="url(#p63f65fbcd4)" style="fill: #1f8a56; stroke: #1f8a56; stroke-linejoin: miter"/>
   </g>
   <g id="patch_19">
    <path d="M 217.44218 169.558031 
L 225.295029 169.558031 
L 225.295029 140.672415 
L 217.44218 140.672415 
z
" clip-path="url(#p63f65fbcd4)" style="fill: #1f8a56; stroke: #1f8a56; stroke-linejoin: miter"/>
   </g>
   <g id="patch_20">
    <path d="M 231.720087 143.278051 
L 239.572936 143.278051 
L 239.572936 137.396825 
L 231.720087 137.396825 
z
" clip-path="url(#p63f65fbcd4)" style="fill: #b91c1c; stroke: #b91c1c; stroke-linejoin: miter"/>
   </g>
   <g id="patch_21">
    <path d="M 245.997994 149.531108 
L 253.850843 149.531108 
L 253.850843 134.379954 
L 245.997994 134.379954 
z
" clip-path="url(#p63f65fbcd4)" style="fill: #b91c1c; stroke: #b91c1c; stroke-linejoin: miter"/>
   </g>
   <g id="patch_22">
    <path d="M 260.275901 185.417182 
L 268.12875 185.417182 
L 268.12875 138.771796 
L 260.275901 138.771796 
z
" clip-path="url(#p63f65fbcd4)" style="fill: #b91c1c; stroke: #b91c1c; stroke-linejoin: miter"/>
   </g>
   <g id="patch_23">
    <path d="M 274.553808 199.801776 
L 282.406657 199.801776 
L 282.406657 180.649927 
L 274.553808 180.649927 
z
" clip-path="url(#p63f65fbcd4)" style="fill: #b91c1c; stroke: #b91c1c; stroke-linejoin: miter"/>
   </g>
   <g id="patch_24">
    <path d="M 288.831715 206.723055 
L 296.684564 206.723055 
L 296.684564 193.677506 
L 288.831715 193.677506 
z
" clip-path="url(#p63f65fbcd4)" style="fill: #1f8a56; stroke: #1f8a56; stroke-linejoin: miter"/>
   </g>
   <g id="patch_25">
    <path d="M 303.109622 192.687817 
L 310.962471 192.687817 
L 310.962471 170.376452 
L 303.109622 170.376452 
z
" clip-path="url(#p63f65fbcd4)" style="fill: #1f8a56; stroke: #1f8a56; stroke-linejoin: miter"/>
   </g>
   <g id="patch_26">
    <path d="M 317.387529 167.142278 
L 325.240378 167.142278 
L 325.240378 161.261052 
L 317.387529 161.261052 
z
" clip-path="url(#p63f65fbcd4)" style="fill: #1f8a56; stroke: #1f8a56; stroke-linejoin: miter"/>
   </g>
   <g id="patch_27">
    <path d="M 331.665436 162.062579 
L 339.518285 162.062579 
L 339.518285 145.421211 
L 331.665436 145.421211 
z
" clip-path="url(#p63f65fbcd4)" style="fill: #1f8a56; stroke: #1f8a56; stroke-linejoin: miter"/>
   </g>
   <g id="patch_28">
    <path d="M 345.943343 158.900147 
L 353.796192 158.900147 
L 353.796192 139.501375 
L 345.943343 139.501375 
z
" clip-path="url(#p63f65fbcd4)" style="fill: #1f8a56; stroke: #1f8a56; stroke-linejoin: miter"/>
   </g>
   <g id="patch_29">
    <path d="M 360.22125 145.262216 
L 368.074099 145.262216 
L 368.074099 116.363137 
L 360.22125 116.363137 
z
" clip-path="url(#p63f65fbcd4)" style="fill: #1f8a56; stroke: #1f8a56; stroke-linejoin: miter"/>
   </g>
   <g id="patch_30">
    <path d="M 374.499157 134.426956 
L 382.352006 134.426956 
L 382.352006 115.033047 
L 374.499157 115.033047 
z
" clip-path="url(#p63f65fbcd4)" style="fill: #b91c1c; stroke: #b91c1c; stroke-linejoin: miter"/>
   </g>
   <g id="patch_31">
    <path d="M 388.777064 156.74878 
L 396.629913 156.74878 
L 396.629913 139.429516 
L 388.777064 139.429516 
z
" clip-path="url(#p63f65fbcd4)" style="fill: #b91c1c; stroke: #b91c1c; stroke-linejoin: miter"/>
   </g>
   <g id="patch_32">
    <path d="M 403.054971 180.197121 
L 410.90782 180.197121 
L 410.90782 148.515535 
L 403.054971 148.515535 
z
" clip-path="url(#p63f65fbcd4)" style="fill: #b91c1c; stroke: #b91c1c; stroke-linejoin: miter"/>
   </g>
   <g id="patch_33">
    <path d="M 417.332878 202.821971 
L 425.185727 202.821971 
L 425.185727 172.111142 
L 417.332878 172.111142 
z
" clip-path="url(#p63f65fbcd4)" style="fill: #b91c1c; stroke: #b91c1c; stroke-linejoin: miter"/>
   </g>
   <g id="patch_34">
    <path d="M 431.610785 208.050902 
L 439.463634 208.050902 
L 439.463634 191.407853 
L 431.610785 191.407853 
z
" clip-path="url(#p63f65fbcd4)" style="fill: #b91c1c; stroke: #b91c1c; stroke-linejoin: miter"/>
   </g>
   <g id="patch_35">
    <path d="M 445.888692 202.662475 
L 453.741541 202.662475 
L 453.741541 196.781249 
L 445.888692 196.781249 
z
" clip-path="url(#p63f65fbcd4)" style="fill: #b91c1c; stroke: #b91c1c; stroke-linejoin: miter"/>
   </g>
   <g id="patch_36">
    <path d="M 460.166599 203.86861 
L 468.019448 203.86861 
L 468.019448 184.48885 
L 460.166599 184.48885 
z
" clip-path="url(#p63f65fbcd4)" style="fill: #1f8a56; stroke: #1f8a56; stroke-linejoin: miter"/>
   </g>
   <g id="patch_37">
    <path d="M 474.444506 174.40788 
L 482.297355 174.40788 
L 482.297355 168.526654 
L 474.444506 168.526654 
z
" clip-path="url(#p63f65fbcd4)" style="fill: #1f8a56; stroke: #1f8a56; stroke-linejoin: miter"/>
   </g>
   <g id="patch_38">
    <path d="M 488.722413 174.217982 
L 496.575262 174.217982 
L 496.575262 163.030811 
L 488.722413 163.030811 
z
" clip-path="url(#p63f65fbcd4)" style="fill: #1f8a56; stroke: #1f8a56; stroke-linejoin: miter"/>
   </g>
   <g id="patch_39">
    <path d="M 503.00032 171.645617 
L 510.853169 171.645617 
L 510.853169 151.137124 
L 503.00032 151.137124 
z
" clip-path="url(#p63f65fbcd4)" style="fill: #1f8a56; stroke: #1f8a56; stroke-linejoin: miter"/>
   </g>
   <g id="patch_40">
    <path d="M 517.278227 163.566004 
L 525.131076 163.566004 
L 525.131076 145.208647 
L 517.278227 145.208647 
z
" clip-path="url(#p63f65fbcd4)" style="fill: #b91c1c; stroke: #b91c1c; stroke-linejoin: miter"/>
   </g>
   <g id="patch_41">
    <path d="M 531.556134 170.586406 
L 539.408983 170.586406 
L 539.408983 162.823008 
L 531.556134 162.823008 
z
" clip-path="url(#p63f65fbcd4)" style="fill: #b91c1c; stroke: #b91c1c; stroke-linejoin: miter"/>
   </g>
   <g id="patch_42">
    <path d="M 545.834041 184.499228 
L 553.68689 184.499228 
L 553.68689 172.412095 
L 545.834041 172.412095 
z
" clip-path="url(#p63f65fbcd4)" style="fill: #b91c1c; stroke: #b91c1c; stroke-linejoin: miter"/>
   </g>
   <g id="patch_43">
    <path d="M 560.111948 184.982977 
L 567.964797 184.982977 
L 567.964797 179.10175 
L 560.111948 179.10175 
z
" clip-path="url(#p63f65fbcd4)" style="fill: #b91c1c; stroke: #b91c1c; stroke-linejoin: miter"/>
   </g>
   <g id="patch_44">
    <path d="M 574.389855 204.979068 
L 582.242703 204.979068 
L 582.242703 177.615684 
L 574.389855 177.615684 
z
" clip-path="url(#p63f65fbcd4)" style="fill: #b91c1c; stroke: #b91c1c; stroke-linejoin: miter"/>
   </g>
   <g id="patch_45">
    <path d="M 588.667762 207.931845 
L 596.52061 207.931845 
L 596.52061 202.050618 
L 588.667762 202.050618 
z
" clip-path="url(#p63f65fbcd4)" style="fill: #1f8a56; stroke: #1f8a56; stroke-linejoin: miter"/>
   </g>
   <g id="patch_46">
    <path d="M 602.945669 206.091447 
L 610.798517 206.091447 
L 610.798517 200.21022 
L 602.945669 200.21022 
z
" clip-path="url(#p63f65fbcd4)" style="fill: #b91c1c; stroke: #b91c1c; stroke-linejoin: miter"/>
   </g>
   <g id="line2d_43">
    <path d="M 35.755814 154.14148 
L 592.594186 149.76266 
" clip-path="url(#p63f65fbcd4)" style="fill: none; stroke: #b91c1c; stroke-width: 2; stroke-linecap: square"/>
   </g>
   <g id="line2d_44">
    <path d="M 35.755814 267.745212 
L 592.594186 187.931038 
" clip-path="url(#p63f65fbcd4)" style="fill: none; stroke: #1f8a56; stroke-width: 2; stroke-linecap: square"/>
   </g>
  </g>
 </g>
 <defs>
  <clipPath id="p63f65fbcd4">
   <rect x="7.2" y="25.0815" width="613.95" height="308.0685"/>
  </clipPath>
 </defs>
</svg>
