<?xml version="1.0" encoding="utf-8" standalone="no"?>
<!DOCTYPE svg PUBLIC "-//W3C//DTD SVG 1.1//EN"
  "http://www.w3.org/Graphics/SVG/1.1/DTD/svg11.dtd">
<svg xmlns:xlink="http://www.w3.org/1999/xlink" width="729.15pt" height="325.57662pt" viewBox="0 0 729.15 325.57662" xmlns="http://www.w3.org/2000/svg" version="1.1">
 <metadata>
  <rdf:RDF xmlns:dc="http://purl.org/dc/elements/1.1/" xmlns:cc="http://creativecommons.org/ns#" xmlns:rdf="http://www.w3.org/1999/02/22-rdf-syntax-ns#">
   <cc:Work>
    <dc:type rdf:resource="http://purl.org/dc/dcmitype/StillImage"/>
    <dc:date>2026-07-19T00:15:42.831474</dc:date>
    <dc:format>image/svg+xml</dc:format>
    <dc:creator>
     <cc:Agent>
      <dc:title>Matplotlib v3.11.1, https://matplotlib.org/</dc:title>
     </cc:Agent>
    </dc:creator>
   </cc:Work>
  </rdf:RDF>
 </metadata>
 <defs>
  <style type="text/css">*{stroke-linejoin: round; stroke-linecap: butt}</style>
 </defs>
 <g id="figure_1">
  <g id="patch_1">
   <path d="M 0 325.57662 
L 729.15 325.57662 
L 729.15 -0 
L 0 -0 
z
" style="fill: #ffffff"/>
  </g>
  <g id="axes_1">
   <g id="patch_2">
    <path d="M 40.387656 314.742886 
L 370.35 314.742886 
L 370.35 24.23 
L 40.387656 24.23 
z
" style="fill: #ffffff"/>
   </g>
   <g id="matplotlib.axis_1"/>
   <g id="matplotlib.axis_2">
    <g id="ytick_1">
     <g id="line2d_1">
      <defs>
       <path id="me45d45aef0" d="M 0 0 
L -3.5 0 
" style="stroke: #555555; stroke-width: 0.8"/>
      </defs>
      <g>
       <use xlink:href="#me45d45aef0" x="40.387656" y="306.10737" style="fill: #555555; stroke: #555555; stroke-width: 0.8"/>
      </g>
     </g>
     <g id="text_1">
      <!-- 100.0 -->
      <g style="fill: #555555" transform="translate(7.2 311.71962) scale(0.105 -0.105)">
       <defs>
        <path id="NotoNaskhArabic-Regular-4cd" d="M 1722 0 
L 1722 3194 
Q 1722 3405 1728 3603 
Q 1734 3802 1747 3981 
Q 1702 3936 1657 3891 
Q 1613 3846 1562 3808 
Q 1402 3674 1226 3530 
Q 1050 3386 864 3232 
L 570 3610 
L 1805 4570 
L 2272 4570 
L 2272 0 
L 1722 0 
z
" transform="scale(0.015625)"/>
        <path id="NotoNaskhArabic-Regular-4cc" d="M 1824 -64 
Q 1082 -64 698 534 
Q 314 1133 314 2291 
Q 314 3488 682 4064 
Q 1050 4640 1824 4640 
Q 2566 4640 2956 4038 
Q 3347 3437 3347 2291 
Q 3347 1101 2969 518 
Q 2592 -64 1824 -64 
z
M 1824 416 
Q 2208 416 2426 678 
Q 2778 1094 2778 2291 
Q 2778 3571 2368 3962 
Q 2163 4160 1824 4160 
Q 1427 4160 1203 3878 
Q 877 3469 877 2291 
Q 877 1075 1229 666 
Q 1440 416 1824 416 
z
" transform="scale(0.015625)"/>
        <path id="NotoNaskhArabic-Regular-514" d="M 800 -422 
Q 646 -314 518 -230 
Q 390 -147 294 -90 
Q 326 -19 364 41 
Q 403 102 429 166 
Q 493 282 576 410 
Q 1069 122 1069 32 
Q 1069 -38 800 -422 
z
" transform="scale(0.015625)"/>
       </defs>
       <use xlink:href="#NotoNaskhArabic-Regular-4cd"/>
       <use xlink:href="#NotoNaskhArabic-Regular-4cc" transform="translate(57.203125 0)"/>
       <use xlink:href="#NotoNaskhArabic-Regular-4cc" transform="translate(114.40625 0)"/>
       <use xlink:href="#NotoNaskhArabic-Regular-514" transform="translate(171.609375 0)"/>
       <use xlink:href="#NotoNaskhArabic-Regular-4cc" transform="translate(192.203125 0)"/>
      </g>
     </g>
    </g>
    <g id="ytick_2">
     <g id="line2d_2">
      <g>
       <use xlink:href="#me45d45aef0" x="40.387656" y="272.9197" style="fill: #555555; stroke: #555555; stroke-width: 0.8"/>
      </g>
     </g>
     <g id="text_2">
      <!-- 102.5 -->
      <g style="fill: #555555" transform="translate(7.2 278.53195) scale(0.105 -0.105)">
       <defs>
        <path id="NotoNaskhArabic-Regular-4ce" d="M 307 0 
L 307 467 
L 1504 1677 
Q 1773 1952 1952 2147 
Q 2131 2342 2221 2458 
Q 2413 2720 2489 2925 
Q 2566 3130 2566 3386 
Q 2566 3744 2352 3949 
Q 2138 4154 1760 4154 
Q 1478 4154 1228 4058 
Q 979 3962 659 3718 
L 358 4096 
Q 1005 4634 1760 4634 
Q 2240 4634 2576 4448 
Q 2912 4262 3053 3923 
Q 3142 3686 3142 3418 
Q 3142 3123 3033 2841 
Q 2925 2560 2707 2272 
Q 2598 2131 2416 1929 
Q 2234 1728 1971 1478 
L 1018 538 
L 1018 512 
L 3328 512 
L 3328 0 
L 307 0 
z
" transform="scale(0.015625)"/>
        <path id="NotoNaskhArabic-Regular-4d1" d="M 1587 -64 
Q 826 -64 403 186 
L 403 717 
Q 634 576 960 496 
Q 1286 416 1594 416 
Q 2131 416 2425 672 
Q 2720 928 2720 1402 
Q 2720 2330 1574 2330 
Q 1210 2330 794 2234 
L 512 2413 
L 685 4570 
L 2976 4570 
L 2976 4058 
L 1165 4058 
L 1056 2733 
Q 1235 2765 1411 2784 
Q 1587 2803 1760 2803 
Q 2477 2803 2886 2444 
Q 3296 2086 3296 1459 
Q 3296 749 2841 342 
Q 2387 -64 1587 -64 
z
" transform="scale(0.015625)"/>
       </defs>
       <use xlink:href="#NotoNaskhArabic-Regular-4cd"/>
       <use xlink:href="#NotoNaskhArabic-Regular-4cc" transform="translate(57.203125 0)"/>
       <use xlink:href="#NotoNaskhArabic-Regular-4ce" transform="translate(114.40625 0)"/>
       <use xlink:href="#NotoNaskhArabic-Regular-514" transform="translate(171.609375 0)"/>
       <use xlink:href="#NotoNaskhArabic-Regular-4d1" transform="translate(192.203125 0)"/>
      </g>
     </g>
    </g>
    <g id="ytick_3">
     <g id="line2d_3">
      <g>
       <use xlink:href="#me45d45aef0" x="40.387656" y="239.732031" style="fill: #555555; stroke: #555555; stroke-width: 0.8"/>
      </g>
     </g>
     <g id="text_3">
      <!-- 105.0 -->
      <g style="fill: #555555" transform="translate(7.2 245.344281) scale(0.105 -0.105)">
       <use xlink:href="#NotoNaskhArabic-Regular-4cd"/>
       <use xlink:href="#NotoNaskhArabic-Regular-4cc" transform="translate(57.203125 0)"/>
       <use xlink:href="#NotoNaskhArabic-Regular-4d1" transform="translate(114.40625 0)"/>
       <use xlink:href="#NotoNaskhArabic-Regular-514" transform="translate(171.609375 0)"/>
       <use xlink:href="#NotoNaskhArabic-Regular-4cc" transform="translate(192.203125 0)"/>
      </g>
     </g>
    </g>
    <g id="ytick_4">
     <g id="line2d_4">
      <g>
       <use xlink:href="#me45d45aef0" x="40.387656" y="206.544362" style="fill: #555555; stroke: #555555; stroke-width: 0.8"/>
      </g>
     </g>
     <g id="text_4">
      <!-- 107.5 -->
      <g style="fill: #555555" transform="translate(7.2 212.156612) scale(0.105 -0.105)">
       <defs>
        <path id="NotoNaskhArabic-Regular-4d3" d="M 870 0 
L 2746 4058 
L 282 4058 
L 282 4570 
L 3347 4570 
L 3347 4134 
L 1491 0 
L 870 0 
z
" transform="scale(0.015625)"/>
       </defs>
       <use xlink:href="#NotoNaskhArabic-Regular-4cd"/>
       <use xlink:href="#NotoNaskhArabic-Regular-4cc" transform="translate(57.203125 0)"/>
       <use xlink:href="#NotoNaskhArabic-Regular-4d3" transform="translate(114.40625 0)"/>
       <use xlink:href="#NotoNaskhArabic-Regular-514" transform="translate(171.609375 0)"/>
       <use xlink:href="#NotoNaskhArabic-Regular-4d1" transform="translate(192.203125 0)"/>
      </g>
     </g>
    </g>
    <g id="ytick_5">
     <g id="line2d_5">
      <g>
       <use xlink:href="#me45d45aef0" x="40.387656" y="173.356692" style="fill: #555555; stroke: #555555; stroke-width: 0.8"/>
      </g>
     </g>
     <g id="text_5">
      <!-- 110.0 -->
      <g style="fill: #555555" transform="translate(7.2 178.968942) scale(0.105 -0.105)">
       <use xlink:href="#NotoNaskhArabic-Regular-4cd"/>
       <use xlink:href="#NotoNaskhArabic-Regular-4cd" transform="translate(57.203125 0)"/>
       <use xlink:href="#NotoNaskhArabic-Regular-4cc" transform="translate(114.40625 0)"/>
       <use xlink:href="#NotoNaskhArabic-Regular-514" transform="translate(171.609375 0)"/>
       <use xlink:href="#NotoNaskhArabic-Regular-4cc" transform="translate(192.203125 0)"/>
      </g>
     </g>
    </g>
    <g id="ytick_6">
     <g id="line2d_6">
      <g>
       <use xlink:href="#me45d45aef0" x="40.387656" y="140.169023" style="fill: #555555; stroke: #555555; stroke-width: 0.8"/>
      </g>
     </g>
     <g id="text_6">
      <!-- 112.5 -->
      <g style="fill: #555555" transform="translate(7.2 145.781273) scale(0.105 -0.105)">
       <use xlink:href="#NotoNaskhArabic-Regular-4cd"/>
       <use xlink:href="#NotoNaskhArabic-Regular-4cd" transform="translate(57.203125 0)"/>
       <use xlink:href="#NotoNaskhArabic-Regular-4ce" transform="translate(114.40625 0)"/>
       <use xlink:href="#NotoNaskhArabic-Regular-514" transform="translate(171.609375 0)"/>
       <use xlink:href="#NotoNaskhArabic-Regular-4d1" transform="translate(192.203125 0)"/>
      </g>
     </g>
    </g>
    <g id="ytick_7">
     <g id="line2d_7">
      <g>
       <use xlink:href="#me45d45aef0" x="40.387656" y="106.981353" style="fill: #555555; stroke: #555555; stroke-width: 0.8"/>
      </g>
     </g>
     <g id="text_7">
      <!-- 115.0 -->
      <g style="fill: #555555" transform="translate(7.2 112.593603) scale(0.105 -0.105)">
       <use xlink:href="#NotoNaskhArabic-Regular-4cd"/>
       <use xlink:href="#NotoNaskhArabic-Regular-4cd" transform="translate(57.203125 0)"/>
       <use xlink:href="#NotoNaskhArabic-Regular-4d1" transform="translate(114.40625 0)"/>
       <use xlink:href="#NotoNaskhArabic-Regular-514" transform="translate(171.609375 0)"/>
       <use xlink:href="#NotoNaskhArabic-Regular-4cc" transform="translate(192.203125 0)"/>
      </g>
     </g>
    </g>
    <g id="ytick_8">
     <g id="line2d_8">
      <g>
       <use xlink:href="#me45d45aef0" x="40.387656" y="73.793684" style="fill: #555555; stroke: #555555; stroke-width: 0.8"/>
      </g>
     </g>
     <g id="text_8">
      <!-- 117.5 -->
      <g style="fill: #555555" transform="translate(7.2 79.405934) scale(0.105 -0.105)">
       <use xlink:href="#NotoNaskhArabic-Regular-4cd"/>
       <use xlink:href="#NotoNaskhArabic-Regular-4cd" transform="translate(57.203125 0)"/>
       <use xlink:href="#NotoNaskhArabic-Regular-4d3" transform="translate(114.40625 0)"/>
       <use xlink:href="#NotoNaskhArabic-Regular-514" transform="translate(171.609375 0)"/>
       <use xlink:href="#NotoNaskhArabic-Regular-4d1" transform="translate(192.203125 0)"/>
      </g>
     </g>
    </g>
    <g id="ytick_9">
     <g id="line2d_9">
      <g>
       <use xlink:href="#me45d45aef0" x="40.387656" y="40.606014" style="fill: #555555; stroke: #555555; stroke-width: 0.8"/>
      </g>
     </g>
     <g id="text_9">
      <!-- 120.0 -->
      <g style="fill: #555555" transform="translate(7.2 46.218264) scale(0.105 -0.105)">
       <use xlink:href="#NotoNaskhArabic-Regular-4cd"/>
       <use xlink:href="#NotoNaskhArabic-Regular-4ce" transform="translate(57.203125 0)"/>
       <use xlink:href="#NotoNaskhArabic-Regular-4cc" transform="translate(114.40625 0)"/>
       <use xlink:href="#NotoNaskhArabic-Regular-514" transform="translate(171.609375 0)"/>
       <use xlink:href="#NotoNaskhArabic-Regular-4cc" transform="translate(192.203125 0)"/>
      </g>
     </g>
    </g>
   </g>
   <g id="patch_3">
    <path d="M 40.387656 314.742886 
L 40.387656 24.23 
" style="fill: none; stroke: #1f2937; stroke-width: 0.8; stroke-linejoin: miter; stroke-linecap: square"/>
   </g>
   <g id="patch_4">
    <path d="M 40.387656 314.742886 
L 370.35 314.742886 
" style="fill: none; stroke: #1f2937; stroke-width: 0.8; stroke-linejoin: miter; stroke-linecap: square"/>
   </g>
   <g id="line2d_10">
    <path d="M 48.061199 299.095445 
L 48.061199 297.183641 
" clip-path="url(#p15d75f616e)" style="fill: none; stroke: #1f8a56; stroke-width: 1.1; stroke-linecap: round"/>
   </g>
   <g id="line2d_11">
    <path d="M 55.734742 301.537755 
L 55.734742 298.93397 
" clip-path="url(#p15d75f616e)" style="fill: none; stroke: #1f8a56; stroke-width: 1.1; stroke-linecap: round"/>
   </g>
   <g id="line2d_12">
    <path d="M 63.408285 296.833679 
L 63.408285 283.15178 
" clip-path="url(#p15d75f616e)" style="fill: none; stroke: #1f8a56; stroke-width: 1.1; stroke-linecap: round"/>
   </g>
   <g id="line2d_13">
    <path d="M 71.081828 286.320576 
L 71.081828 274.287893 
" clip-path="url(#p15d75f616e)" style="fill: none; stroke: #1f8a56; stroke-width: 1.1; stroke-linecap: round"/>
   </g>
   <g id="line2d_14">
    <path d="M 78.755371 274.889277 
L 78.755371 272.289867 
" clip-path="url(#p15d75f616e)" style="fill: none; stroke: #b91c1c; stroke-width: 1.1; stroke-linecap: round"/>
   </g>
   <g id="line2d_15">
    <path d="M 86.428914 276.991716 
L 86.428914 258.846257 
" clip-path="url(#p15d75f616e)" style="fill: none; stroke: #1f8a56; stroke-width: 1.1; stroke-linecap: round"/>
   </g>
   <g id="line2d_16">
    <path d="M 94.102456 264.883759 
L 94.102456 242.680592 
" clip-path="url(#p15d75f616e)" style="fill: none; stroke: #1f8a56; stroke-width: 1.1; stroke-linecap: round"/>
   </g>
   <g id="line2d_17">
    <path d="M 101.775999 246.670425 
L 101.775999 244.681785 
" clip-path="url(#p15d75f616e)" style="fill: none; stroke: #1f8a56; stroke-width: 1.1; stroke-linecap: round"/>
   </g>
   <g id="line2d_18">
    <path d="M 109.449542 249.26725 
L 109.449542 230.583988 
" clip-path="url(#p15d75f616e)" style="fill: none; stroke: #1f8a56; stroke-width: 1.1; stroke-linecap: round"/>
   </g>
   <g id="line2d_19">
    <path d="M 117.123085 233.82259 
L 117.123085 226.446427 
" clip-path="url(#p15d75f616e)" style="fill: none; stroke: #1f8a56; stroke-width: 1.1; stroke-linecap: round"/>
   </g>
   <g id="line2d_20">
    <path d="M 124.796628 226.407591 
L 124.796628 222.484356 
" clip-path="url(#p15d75f616e)" style="fill: none; stroke: #b91c1c; stroke-width: 1.1; stroke-linecap: round"/>
   </g>
   <g id="line2d_21">
    <path d="M 132.470171 224.569659 
L 132.470171 212.487328 
" clip-path="url(#p15d75f616e)" style="fill: none; stroke: #1f8a56; stroke-width: 1.1; stroke-linecap: round"/>
   </g>
   <g id="line2d_22">
    <path d="M 140.143714 212.613696 
L 140.143714 208.722254 
" clip-path="url(#p15d75f616e)" style="fill: none; stroke: #1f8a56; stroke-width: 1.1; stroke-linecap: round"/>
   </g>
   <g id="line2d_23">
    <path d="M 147.817257 210.408764 
L 147.817257 208.233527 
" clip-path="url(#p15d75f616e)" style="fill: none; stroke: #b91c1c; stroke-width: 1.1; stroke-linecap: round"/>
   </g>
   <g id="line2d_24">
    <path d="M 155.490799 211.081715 
L 155.490799 205.519443 
" clip-path="url(#p15d75f616e)" style="fill: none; stroke: #1f8a56; stroke-width: 1.1; stroke-linecap: round"/>
   </g>
   <g id="line2d_25">
    <path d="M 163.164342 204.221898 
L 163.164342 199.278915 
" clip-path="url(#p15d75f616e)" style="fill: none; stroke: #1f8a56; stroke-width: 1.1; stroke-linecap: round"/>
   </g>
   <g id="line2d_26">
    <path d="M 170.837885 203.529644 
L 170.837885 192.52183 
" clip-path="url(#p15d75f616e)" style="fill: none; stroke: #1f8a56; stroke-width: 1.1; stroke-linecap: round"/>
   </g>
   <g id="line2d_27">
    <path d="M 178.511428 196.085803 
L 178.511428 186.64399 
" clip-path="url(#p15d75f616e)" style="fill: none; stroke: #1f8a56; stroke-width: 1.1; stroke-linecap: round"/>
   </g>
   <g id="line2d_28">
    <path d="M 186.184971 187.644212 
L 186.184971 180.251607 
" clip-path="url(#p15d75f616e)" style="fill: none; stroke: #1f8a56; stroke-width: 1.1; stroke-linecap: round"/>
   </g>
   <g id="line2d_29">
    <path d="M 193.858514 183.528869 
L 193.858514 169.595749 
" clip-path="url(#p15d75f616e)" style="fill: none; stroke: #1f8a56; stroke-width: 1.1; stroke-linecap: round"/>
   </g>
   <g id="line2d_30">
    <path d="M 201.532057 177.095113 
L 201.532057 168.878618 
" clip-path="url(#p15d75f616e)" style="fill: none; stroke: #b91c1c; stroke-width: 1.1; stroke-linecap: round"/>
   </g>
   <g id="line2d_31">
    <path d="M 209.2056 180.277273 
L 209.2056 176.370192 
" clip-path="url(#p15d75f616e)" style="fill: none; stroke: #1f8a56; stroke-width: 1.1; stroke-linecap: round"/>
   </g>
   <g id="line2d_32">
    <path d="M 216.879142 186.880176 
L 216.879142 173.790016 
" clip-path="url(#p15d75f616e)" style="fill: none; stroke: #b91c1c; stroke-width: 1.1; stroke-linecap: round"/>
   </g>
   <g id="line2d_33">
    <path d="M 224.552685 184.988674 
L 224.552685 183.329484 
" clip-path="url(#p15d75f616e)" style="fill: none; stroke: #1f8a56; stroke-width: 1.1; stroke-linecap: round"/>
   </g>
   <g id="line2d_34">
    <path d="M 232.226228 191.2994 
L 232.226228 186.117398 
" clip-path="url(#p15d75f616e)" style="fill: none; stroke: #b91c1c; stroke-width: 1.1; stroke-linecap: round"/>
   </g>
   <g id="line2d_35">
    <path d="M 239.899771 191.767034 
L 239.899771 184.21351 
" clip-path="url(#p15d75f616e)" style="fill: none; stroke: #b91c1c; stroke-width: 1.1; stroke-linecap: round"/>
   </g>
   <g id="line2d_36">
    <path d="M 247.573314 193.498436 
L 247.573314 189.147079 
" clip-path="url(#p15d75f616e)" style="fill: none; stroke: #b91c1c; stroke-width: 1.1; stroke-linecap: round"/>
   </g>
   <g id="line2d_37">
    <path d="M 255.246857 194.290058 
L 255.246857 192.521734 
" clip-path="url(#p15d75f616e)" style="fill: none; stroke: #1f8a56; stroke-width: 1.1; stroke-linecap: round"/>
   </g>
   <g id="line2d_38">
    <path d="M 262.9204 194.008533 
L 262.9204 186.884118 
" clip-path="url(#p15d75f616e)" style="fill: none; stroke: #1f8a56; stroke-width: 1.1; stroke-linecap: round"/>
   </g>
   <g id="line2d_39">
    <path d="M 270.593943 191.584933 
L 270.593943 181.159814 
" clip-path="url(#p15d75f616e)" style="fill: none; stroke: #1f8a56; stroke-width: 1.1; stroke-linecap: round"/>
   </g>
   <g id="line2d_40">
    <path d="M 278.267485 179.702785 
L 278.267485 167.695344 
" clip-path="url(#p15d75f616e)" style="fill: none; stroke: #1f8a56; stroke-width: 1.1; stroke-linecap: round"/>
   </g>
   <g id="line2d_41">
    <path d="M 285.941028 170.401344 
L 285.941028 161.498335 
" clip-path="url(#p15d75f616e)" style="fill: none; stroke: #1f8a56; stroke-width: 1.1; stroke-linecap: round"/>
   </g>
   <g id="line2d_42">
    <path d="M 293.614571 166.551883 
L 293.614571 152.13528 
" clip-path="url(#p15d75f616e)" style="fill: none; stroke: #1f8a56; stroke-width: 1.1; stroke-linecap: round"/>
   </g>
   <g id="line2d_43">
    <path d="M 301.288114 151.368566 
L 301.288114 138.232589 
" clip-path="url(#p15d75f616e)" style="fill: none; stroke: #1f8a56; stroke-width: 1.1; stroke-linecap: round"/>
   </g>
   <g id="line2d_44">
    <path d="M 308.961657 143.330812 
L 308.961657 118.374625 
" clip-path="url(#p15d75f616e)" style="fill: none; stroke: #1f8a56; stroke-width: 1.1; stroke-linecap: round"/>
   </g>
   <g id="line2d_45">
    <path d="M 316.6352 120.892449 
L 316.6352 106.00742 
" clip-path="url(#p15d75f616e)" style="fill: none; stroke: #1f8a56; stroke-width: 1.1; stroke-linecap: round"/>
   </g>
   <g id="line2d_46">
    <path d="M 324.308743 109.867622 
L 324.308743 94.896855 
" clip-path="url(#p15d75f616e)" style="fill: none; stroke: #1f8a56; stroke-width: 1.1; stroke-linecap: round"/>
   </g>
   <g id="line2d_47">
    <path d="M 331.982286 97.993605 
L 331.982286 83.386411 
" clip-path="url(#p15d75f616e)" style="fill: none; stroke: #1f8a56; stroke-width: 1.1; stroke-linecap: round"/>
   </g>
   <g id="line2d_48">
    <path d="M 339.655828 83.753888 
L 339.655828 79.624518 
" clip-path="url(#p15d75f616e)" style="fill: none; stroke: #1f8a56; stroke-width: 1.1; stroke-linecap: round"/>
   </g>
   <g id="line2d_49">
    <path d="M 347.329371 77.881136 
L 347.329371 69.491286 
" clip-path="url(#p15d75f616e)" style="fill: none; stroke: #1f8a56; stroke-width: 1.1; stroke-linecap: round"/>
   </g>
   <g id="line2d_50">
    <path d="M 355.002914 71.555767 
L 355.002914 57.325249 
" clip-path="url(#p15d75f616e)" style="fill: none; stroke: #1f8a56; stroke-width: 1.1; stroke-linecap: round"/>
   </g>
   <g id="line2d_51">
    <path d="M 362.676457 59.100904 
L 362.676457 37.435131 
" clip-path="url(#p15d75f616e)" style="fill: none; stroke: #1f8a56; stroke-width: 1.1; stroke-linecap: round"/>
   </g>
   <g id="text_10">
    <!-- ​ﻰﻠﻋﻷﺍ ﻢﻳﺮﻔﻟﺍ ﻰﻠﻋ ﺢﺿﺍﻭ ﺪﻋﺎﺻ ﺯﺎﻴﺤﻧﺍ -->
    <g style="fill: #1f8a56" transform="translate(147.685678 30.797597) scale(0.09 -0.09)">
     <defs>
      <path id="NotoNaskhArabic-Bold-3" d="M 774 58 
Q 742 717 710 1216 
Q 678 1715 646 2134 
Q 614 2554 576 2950 
Q 538 3347 493 3808 
Q 474 3968 566 4089 
Q 659 4211 822 4281 
Q 986 4352 1178 4352 
Q 1229 4154 1296 3955 
Q 1363 3757 1440 3565 
L 1216 3398 
Q 1229 2867 1222 2035 
Q 1216 1203 1184 109 
L 774 58 
z
" transform="scale(0.015625)"/>
      <path id="NotoNaskhArabic-Bold-1ea" d="M 0 58 
Q -51 58 -51 109 
L -51 762 
Q -51 813 0 813 
Q 320 813 640 867 
Q 960 922 1139 998 
Q 1075 1146 976 1328 
Q 877 1510 819 1613 
Q 755 1734 710 1833 
Q 666 1933 666 2016 
Q 666 2176 838 2361 
Q 1011 2547 1248 2669 
Q 1293 2470 1347 2217 
Q 1402 1965 1446 1702 
Q 1485 1504 1501 1376 
Q 1517 1248 1517 1184 
Q 1517 1037 1443 822 
Q 1370 608 1267 410 
Q 685 58 0 58 
z
M 902 3052 
Q 576 3321 410 3513 
Q 557 3660 675 3785 
Q 794 3910 890 4025 
Q 960 3948 1075 3833 
Q 1190 3718 1350 3564 
Q 1274 3456 1162 3328 
Q 1050 3200 902 3052 
z
" transform="scale(0.015625)"/>
      <path id="NotoNaskhArabic-Bold-8b" d="M 0 58 
Q -51 58 -51 109 
L -51 762 
Q -51 813 0 813 
Q 467 813 793 829 
Q 1120 845 1427 934 
Q 1702 1018 1897 1069 
Q 2093 1120 2202 1146 
Q 2118 1197 2032 1251 
Q 1946 1306 1856 1363 
Q 1651 1498 1513 1555 
Q 1376 1613 1235 1613 
Q 1043 1613 870 1558 
Q 698 1504 480 1363 
Q 422 1421 377 1533 
Q 333 1645 333 1747 
Q 333 2029 582 2205 
Q 832 2381 1210 2381 
Q 1414 2381 1603 2310 
Q 1792 2240 2029 2080 
Q 2317 1882 2560 1763 
Q 2803 1645 3136 1555 
Q 3302 1517 3500 1494 
Q 3699 1472 3936 1472 
L 3654 934 
Q 3578 941 3501 941 
Q 3424 941 3347 947 
Q 3411 890 3488 867 
Q 3565 845 3661 832 
Q 3808 826 3965 822 
Q 4122 819 4262 813 
Q 4314 813 4314 762 
L 4314 109 
Q 4314 58 4262 58 
Q 4032 58 3782 80 
Q 3533 102 3325 150 
Q 3117 198 3021 262 
Q 2893 358 2838 537 
Q 2784 717 2746 877 
Q 2624 851 2525 803 
Q 2426 755 2304 675 
Q 2182 595 1990 467 
Q 1683 262 1395 176 
Q 1107 90 774 74 
Q 442 58 0 58 
z
" transform="scale(0.015625)"/>
      <path id="NotoNaskhArabic-Bold-240" d="M 0 58 
Q -51 58 -51 109 
L -51 762 
Q -51 813 0 813 
Q 307 813 566 829 
Q 826 845 992 928 
Q 1120 992 1187 1104 
Q 1254 1216 1357 1421 
Q 1459 1632 1536 1680 
Q 1613 1728 1715 1728 
Q 1869 1728 1971 1638 
Q 1888 1427 1814 1264 
Q 1741 1101 1690 979 
Q 2003 813 2362 813 
Q 2413 813 2413 762 
L 2413 109 
Q 2413 58 2362 58 
Q 1875 58 1434 499 
L 1382 416 
Q 1203 179 883 118 
Q 563 58 0 58 
z
M 1651 -1235 
Q 1376 -1011 1209 -832 
Q 1414 -653 1638 -384 
Q 1657 -403 1756 -502 
Q 1856 -602 2035 -787 
Q 1971 -883 1875 -995 
Q 1779 -1107 1651 -1235 
z
M 793 -1331 
Q 633 -1203 527 -1100 
Q 422 -998 352 -922 
Q 460 -813 569 -701 
Q 678 -589 787 -480 
Q 864 -576 1184 -877 
Q 1030 -1107 793 -1331 
z
" transform="scale(0.015625)"/>
      <path id="NotoNaskhArabic-Bold-4" d="M 1901 58 
Q 1517 58 1283 186 
Q 1050 314 938 528 
Q 826 742 794 1018 
Q 781 1139 749 1424 
Q 717 1709 681 2073 
Q 646 2438 608 2809 
Q 570 3181 538 3481 
Q 506 3782 486 3930 
Q 845 4166 1248 4352 
Q 1274 3635 1296 2918 
Q 1318 2202 1338 1478 
L 1363 979 
Q 1478 883 1606 848 
Q 1734 813 1914 813 
Q 1952 813 1952 762 
L 1952 109 
Q 1952 58 1901 58 
z
" transform="scale(0.015625)"/>
      <path id="NotoNaskhArabic-Bold-d5" d="M 653 -1248 
Q 544 -1248 304 -1107 
Q 64 -966 -218 -730 
L -115 -461 
Q 243 -550 531 -550 
Q 1005 -550 1331 -313 
Q 1658 -77 1805 371 
Q 1760 467 1705 566 
Q 1651 666 1587 762 
Q 1402 1050 1254 1312 
Q 1107 1574 1107 1779 
Q 1107 1965 1254 2147 
Q 1402 2330 1638 2451 
Q 1677 2317 1731 2137 
Q 1786 1958 1846 1782 
Q 1907 1606 1952 1472 
Q 2035 1235 2089 1004 
Q 2144 774 2144 570 
Q 2144 70 1952 -349 
Q 1760 -768 1421 -1011 
Q 1082 -1248 653 -1248 
z
M 1286 2835 
Q 960 3104 794 3296 
Q 941 3443 1059 3568 
Q 1178 3693 1274 3808 
Q 1344 3731 1459 3616 
Q 1574 3501 1734 3347 
Q 1658 3239 1546 3111 
Q 1434 2983 1286 2835 
z
" transform="scale(0.015625)"/>
      <path id="NotoNaskhArabic-Bold-554" transform="scale(0.015625)"/>
      <path id="NotoNaskhArabic-Bold-112" d="M 2592 0 
Q 2163 0 1699 80 
Q 1235 160 851 339 
Q 826 314 797 285 
Q 768 256 730 230 
Q 595 147 400 102 
Q 205 58 0 58 
Q -51 58 -51 109 
L -51 762 
Q -51 813 0 813 
Q 243 813 380 841 
Q 518 870 614 969 
Q 710 1069 826 1274 
Q 851 1318 880 1363 
Q 909 1408 934 1466 
Q 1030 1638 1222 1638 
Q 1318 1638 1427 1574 
Q 1363 1414 1302 1260 
Q 1242 1107 1178 954 
Q 1248 928 1312 909 
Q 1376 890 1440 864 
Q 2099 1741 2605 2150 
Q 3091 2560 3469 2560 
Q 3629 2560 3824 2464 
Q 4019 2368 4211 2214 
Q 4403 2061 4544 1882 
Q 4762 1619 4762 1446 
Q 4762 582 3699 192 
Q 3174 0 2592 0 
z
M 2656 704 
Q 3117 704 3520 813 
Q 3923 922 4390 1146 
Q 3814 1805 3309 1805 
Q 3027 1805 2652 1536 
Q 2278 1267 1862 774 
Q 2067 742 2265 723 
Q 2464 704 2656 704 
z
" transform="scale(0.015625)"/>
      <path id="NotoNaskhArabic-Bold-136" d="M 0 58 
Q -51 58 -51 109 
L -51 762 
Q -51 813 0 813 
L 499 813 
Q 365 1005 365 1210 
Q 365 1408 441 1632 
Q 518 1856 652 2057 
Q 787 2259 947 2387 
Q 1190 2579 1440 2579 
Q 1875 2579 2406 1990 
L 2272 1728 
Q 2074 1805 1907 1840 
Q 1741 1875 1600 1875 
Q 1376 1875 1197 1827 
Q 1018 1779 819 1670 
Q 832 1434 921 1245 
Q 1011 1056 1190 928 
Q 1267 877 1338 838 
Q 1843 870 2240 953 
Q 2637 1037 3040 1197 
Q 3091 1152 3116 1056 
Q 3142 960 3142 883 
Q 3142 730 3072 602 
Q 3002 474 2874 410 
Q 2746 346 2259 250 
Q 1766 147 1235 102 
Q 704 58 0 58 
z
" transform="scale(0.015625)"/>
      <path id="NotoNaskhArabic-Bold-b6" d="M 1075 0 
Q 218 0 218 499 
Q 218 634 272 784 
Q 326 934 410 1018 
Q 570 890 774 826 
Q 979 762 1280 762 
Q 1466 762 1658 784 
Q 1850 806 2048 851 
Q 1798 1286 1648 1673 
Q 1498 2061 1498 2246 
Q 1498 2477 1613 2646 
Q 1728 2816 1946 2880 
Q 2074 2362 2208 1955 
Q 2342 1549 2490 1248 
Q 2611 1005 2758 909 
Q 2906 813 3162 813 
Q 3213 813 3213 762 
L 3213 109 
Q 3213 58 3162 58 
Q 2707 58 2413 352 
Q 1709 0 1075 0 
z
" transform="scale(0.015625)"/>
      <path id="NotoNaskhArabic-Bold-218" d="M 1248 -1248 
Q 1171 -1248 1011 -1174 
Q 851 -1101 668 -982 
Q 486 -864 326 -730 
L 429 -461 
Q 602 -506 778 -528 
Q 954 -550 1133 -550 
Q 1632 -550 2003 -304 
Q 2374 -58 2515 371 
L 2509 416 
Q 2323 224 2105 112 
Q 1888 0 1664 0 
Q 1267 0 1049 230 
Q 832 461 832 883 
Q 832 1242 966 1584 
Q 1101 1926 1318 2131 
Q 1530 2342 1766 2342 
Q 2042 2342 2288 2089 
Q 2534 1837 2694 1402 
Q 2848 973 2848 570 
Q 2848 83 2637 -339 
Q 2426 -762 2054 -1005 
Q 1690 -1248 1248 -1248 
z
M 1792 704 
Q 2074 704 2400 813 
Q 2342 992 2220 1181 
Q 2099 1370 1952 1472 
Q 1798 1574 1658 1574 
Q 1498 1574 1376 1488 
Q 1254 1402 1203 1267 
Q 1178 1190 1178 1094 
Q 1178 902 1338 803 
Q 1498 704 1792 704 
z
" transform="scale(0.015625)"/>
      <path id="NotoNaskhArabic-Bold-11e" d="M 2592 0 
Q 2163 0 1699 80 
Q 1235 160 851 339 
Q 826 314 797 285 
Q 768 256 730 230 
Q 595 147 400 102 
Q 205 58 0 58 
Q -51 58 -51 109 
L -51 762 
Q -51 813 0 813 
Q 243 813 380 841 
Q 518 870 614 969 
Q 710 1069 826 1274 
Q 851 1318 880 1363 
Q 909 1408 934 1466 
Q 1030 1638 1222 1638 
Q 1318 1638 1427 1574 
Q 1363 1414 1302 1260 
Q 1242 1107 1178 954 
Q 1248 928 1312 909 
Q 1376 890 1440 864 
Q 2099 1741 2605 2150 
Q 3091 2560 3469 2560 
Q 3629 2560 3824 2464 
Q 4019 2368 4211 2214 
Q 4403 2061 4544 1882 
Q 4762 1619 4762 1446 
Q 4762 582 3699 192 
Q 3174 0 2592 0 
z
M 2656 704 
Q 3117 704 3520 813 
Q 3923 922 4390 1146 
Q 3814 1805 3309 1805 
Q 3027 1805 2652 1536 
Q 2278 1267 1862 774 
Q 2067 742 2265 723 
Q 2464 704 2656 704 
z
M 2604 3001 
Q 2278 3270 2112 3462 
Q 2259 3609 2377 3734 
Q 2496 3859 2592 3974 
Q 2662 3897 2777 3782 
Q 2892 3667 3052 3513 
Q 2976 3405 2864 3277 
Q 2752 3149 2604 3001 
z
" transform="scale(0.015625)"/>
      <path id="NotoNaskhArabic-Bold-8a" d="M 2368 -1862 
Q 1523 -1862 1097 -1465 
Q 672 -1069 672 -314 
Q 672 77 848 409 
Q 1024 742 1338 1005 
Q 1498 1133 1670 1238 
Q 1843 1344 2035 1421 
Q 1946 1453 1856 1485 
Q 1766 1517 1677 1549 
Q 1491 1613 1312 1613 
Q 1139 1613 992 1571 
Q 845 1530 582 1363 
Q 525 1421 480 1533 
Q 435 1645 435 1747 
Q 435 2035 662 2208 
Q 890 2381 1286 2381 
Q 1498 2381 1728 2326 
Q 1958 2272 2310 2144 
Q 2656 2016 2918 1961 
Q 3181 1907 3424 1907 
L 4006 1914 
L 3744 1197 
Q 3667 1190 3571 1184 
Q 3475 1178 3424 1178 
L 3232 1178 
Q 3341 998 3446 931 
Q 3552 864 3789 838 
Q 3891 826 4115 819 
Q 4339 813 4685 813 
Q 4742 813 4742 762 
L 4742 109 
Q 4742 58 4685 58 
Q 4070 58 3750 150 
Q 3430 243 3238 467 
Q 3046 698 2886 1197 
Q 2381 1101 1933 883 
Q 1485 666 1242 371 
Q 998 70 998 -250 
Q 998 -685 1360 -905 
Q 1722 -1126 2400 -1126 
Q 2861 -1126 3629 -954 
L 3718 -1229 
Q 3309 -1466 3053 -1603 
Q 2797 -1741 2640 -1801 
Q 2483 -1862 2368 -1862 
z
" transform="scale(0.015625)"/>
      <path id="NotoNaskhArabic-Bold-1bf" d="M 0 58 
Q -51 58 -51 109 
L -51 762 
Q -51 813 0 813 
Q 154 813 304 845 
Q 454 877 595 934 
Q 454 1830 307 3059 
Q 282 3264 259 3481 
Q 237 3699 211 3930 
Q 384 4058 576 4160 
Q 768 4262 973 4352 
Q 966 4115 956 3696 
Q 947 3277 937 2768 
Q 928 2259 922 1734 
L 922 992 
Q 1190 813 1619 813 
Q 1677 813 1677 762 
L 1677 109 
Q 1677 58 1619 58 
Q 1088 58 832 282 
Q 691 192 470 125 
Q 250 58 0 58 
z
" transform="scale(0.015625)"/>
      <path id="NotoNaskhArabic-Bold-235" d="M 1830 -1613 
Q 1152 -1613 793 -1277 
Q 435 -941 435 -301 
Q 435 32 595 627 
L 877 557 
Q 787 256 787 45 
Q 787 -397 1059 -627 
Q 1331 -858 1901 -858 
Q 2240 -858 2598 -816 
Q 2957 -774 3283 -710 
Q 3450 -672 3610 -627 
Q 3770 -582 3898 -531 
Q 3757 -474 3561 -374 
Q 3366 -275 3187 -163 
Q 3008 -51 2893 32 
Q 2726 160 2726 218 
Q 2726 282 2771 397 
Q 2816 512 2877 633 
Q 2938 755 2992 838 
Q 3046 922 3066 922 
Q 3354 870 3699 841 
Q 4045 813 4454 813 
Q 4525 813 4525 749 
L 4525 122 
Q 4525 58 4454 58 
Q 4320 58 4137 70 
Q 3955 83 3779 108 
Q 3603 134 3475 166 
Q 3738 45 3875 -25 
Q 4013 -96 4070 -131 
Q 4128 -166 4147 -198 
Q 4192 -243 4208 -336 
Q 4224 -429 4224 -518 
Q 4224 -678 4057 -848 
Q 3891 -1018 3600 -1171 
Q 3309 -1325 2925 -1440 
Q 2349 -1613 1830 -1613 
z
" transform="scale(0.015625)"/>
      <path id="NotoNaskhArabic-Bold-1c1" d="M 0 58 
Q -51 58 -51 109 
L -51 762 
Q -51 813 0 813 
Q 282 813 672 960 
Q 646 1146 624 1334 
Q 602 1523 570 1709 
Q 544 1894 441 2448 
Q 339 3002 173 3930 
Q 339 4045 534 4147 
Q 730 4250 934 4352 
Q 947 3827 960 3356 
Q 973 2886 986 2477 
Q 998 2067 1004 1718 
Q 1011 1370 1011 1069 
Q 1011 634 762 256 
Q 698 166 490 112 
Q 282 58 0 58 
z
" transform="scale(0.015625)"/>
      <path id="NotoNaskhArabic-Bold-145" d="M 6 58 
Q -51 58 -51 115 
L -51 755 
Q -51 813 6 813 
Q 115 813 227 816 
Q 339 819 454 819 
Q 358 973 358 1114 
Q 358 1197 374 1337 
Q 390 1478 419 1606 
Q 448 1734 474 1786 
Q 595 2003 771 2179 
Q 947 2355 1152 2457 
Q 1357 2560 1549 2560 
Q 1722 2560 1898 2368 
Q 2074 2176 2182 1875 
Q 2291 1568 2291 1306 
Q 2291 1056 2150 819 
Q 2285 819 2422 816 
Q 2560 813 2694 813 
Q 2746 813 2746 762 
L 2746 109 
Q 2746 58 2694 58 
Q 1882 58 1325 269 
Q 1030 147 716 102 
Q 403 58 6 58 
z
M 1299 794 
Q 1690 902 1933 1107 
Q 1888 1280 1795 1446 
Q 1702 1613 1613 1696 
Q 1549 1773 1478 1773 
Q 1146 1773 704 1178 
Q 819 1043 979 944 
Q 1139 845 1299 794 
z
M 1459 3084 
Q 1133 3353 967 3545 
Q 1114 3692 1232 3817 
Q 1351 3942 1447 4057 
Q 1517 3980 1632 3865 
Q 1747 3750 1907 3596 
Q 1831 3488 1719 3360 
Q 1607 3232 1459 3084 
z
" transform="scale(0.015625)"/>
      <path id="NotoNaskhArabic-Bold-d4" d="M 653 -1248 
Q 544 -1248 304 -1107 
Q 64 -966 -218 -730 
L -115 -461 
Q 243 -550 531 -550 
Q 1005 -550 1331 -313 
Q 1658 -77 1805 371 
Q 1760 467 1705 566 
Q 1651 666 1587 762 
Q 1299 1203 1203 1414 
Q 1107 1626 1107 1779 
Q 1107 1965 1254 2147 
Q 1402 2330 1638 2451 
Q 1670 2330 1705 2208 
Q 1741 2086 1786 1958 
Q 1926 1555 2006 1299 
Q 2086 1043 2106 934 
Q 2323 813 2586 813 
Q 2637 813 2637 762 
L 2637 109 
Q 2637 58 2586 58 
Q 2349 58 2112 179 
Q 2042 -243 1837 -566 
Q 1632 -890 1328 -1069 
Q 1024 -1248 653 -1248 
z
" transform="scale(0.015625)"/>
      <path id="NotoNaskhArabic-Bold-241" d="M 0 58 
Q -51 58 -51 109 
L -51 762 
Q -51 813 0 813 
Q 339 813 652 835 
Q 966 858 1212 902 
Q 1459 947 1581 998 
Q 1517 1146 1414 1328 
Q 1312 1510 1261 1613 
Q 1197 1734 1152 1833 
Q 1107 1933 1107 2016 
Q 1107 2170 1280 2358 
Q 1453 2547 1690 2669 
Q 1786 2189 1843 1897 
Q 1901 1606 1926 1443 
Q 1952 1280 1952 1184 
Q 1952 1037 1881 825 
Q 1811 614 1702 410 
Q 1530 307 1251 227 
Q 973 147 646 102 
Q 320 58 0 58 
z
M 1479 -1235 
Q 1204 -1011 1037 -832 
Q 1242 -653 1466 -384 
Q 1485 -403 1584 -502 
Q 1684 -602 1863 -787 
Q 1799 -883 1703 -995 
Q 1607 -1107 1479 -1235 
z
M 621 -1331 
Q 461 -1203 355 -1100 
Q 250 -998 180 -922 
Q 288 -813 397 -701 
Q 506 -589 615 -480 
Q 692 -576 1012 -877 
Q 858 -1107 621 -1331 
z
" transform="scale(0.015625)"/>
      <path id="NotoNaskhArabic-Bold-1e3" d="M 570 -1965 
Q 570 -1664 554 -1296 
Q 538 -928 506 -486 
Q 467 -45 451 240 
Q 435 525 435 653 
Q 435 723 493 896 
Q 525 979 576 1107 
Q 627 1235 704 1402 
Q 723 1434 857 1539 
Q 992 1645 1181 1776 
Q 1370 1907 1542 2010 
Q 1811 2157 2054 2249 
Q 2298 2342 2477 2342 
Q 2592 2342 2678 2227 
Q 2765 2112 2842 1946 
Q 2874 1862 2912 1769 
Q 2950 1677 2982 1581 
Q 3053 1382 3139 1209 
Q 3226 1037 3328 928 
Q 3437 813 3590 813 
Q 3661 813 3661 755 
L 3661 128 
Q 3661 58 3590 58 
Q 3277 58 3014 301 
L 2931 0 
Q 2445 0 2064 93 
Q 1683 186 1462 362 
Q 1242 538 1242 774 
Q 1242 998 1318 1216 
Q 1242 1171 1117 1081 
Q 992 992 819 864 
Q 870 531 928 182 
Q 986 -166 1069 -672 
Q 1120 -979 1158 -1212 
Q 1197 -1446 1216 -1600 
Q 877 -1856 570 -1965 
z
M 2726 710 
Q 2515 1133 2458 1664 
Q 1920 1453 1606 1082 
Q 1939 806 2726 710 
z
" transform="scale(0.015625)"/>
      <path id="NotoNaskhArabic-Bold-2e8" d="M 896 0 
Q 883 0 883 51 
Q 883 141 899 294 
Q 915 448 937 576 
Q 960 704 979 704 
L 1242 704 
Q 1542 947 1753 1164 
Q 1965 1382 2086 1581 
Q 1581 2086 832 2541 
L 595 2528 
Q 218 2714 218 3098 
Q 218 3437 570 3642 
Q 794 3494 1091 3235 
Q 1389 2976 1690 2675 
Q 1856 2515 2009 2355 
Q 2163 2195 2298 2042 
Q 2355 2246 2355 2477 
Q 2355 2637 2221 3411 
Q 2189 3610 2169 3728 
Q 2150 3846 2150 3891 
Q 2150 4154 2342 4307 
Q 2534 4461 2829 4461 
Q 2880 4256 2944 4057 
Q 3008 3859 3085 3674 
L 2874 3514 
L 2880 3398 
L 2899 2790 
Q 2899 2214 2598 1664 
Q 2624 1638 2713 1516 
Q 2803 1395 2908 1238 
Q 3014 1082 3094 947 
Q 3174 813 3174 762 
Q 3174 704 3142 601 
Q 3110 499 3065 387 
Q 3021 275 2979 195 
Q 2938 115 2918 109 
Q 2605 58 2102 29 
Q 1600 0 896 0 
z
M 1779 730 
Q 2067 742 2294 768 
Q 2522 794 2752 832 
Q 2650 947 2554 1062 
Q 2458 1178 2355 1299 
Q 2093 973 1779 730 
z
M -26 3629 
L -45 3898 
L 185 4032 
Q -19 4109 -19 4282 
Q -19 4397 51 4512 
Q 121 4627 227 4707 
Q 333 4787 429 4787 
Q 665 4787 665 4499 
Q 665 4403 640 4352 
L 512 4371 
L 512 4391 
Q 512 4448 435 4448 
Q 294 4448 211 4288 
Q 326 4173 531 4173 
Q 582 4173 646 4179 
Q 710 4186 781 4199 
L 755 3917 
Q 525 3866 368 3811 
Q 211 3757 -26 3629 
z
" transform="scale(0.015625)"/>
     </defs>
     <use xlink:href="#NotoNaskhArabic-Bold-3"/>
     <use xlink:href="#NotoNaskhArabic-Bold-1ea" transform="translate(28.40625 0)"/>
     <use xlink:href="#NotoNaskhArabic-Bold-8b" transform="translate(55.90625 0)"/>
     <use xlink:href="#NotoNaskhArabic-Bold-240" transform="translate(121.609375 0)"/>
     <use xlink:href="#NotoNaskhArabic-Bold-4" transform="translate(157.609375 0)"/>
     <use xlink:href="#NotoNaskhArabic-Bold-d5" transform="translate(186.40625 0)"/>
     <use xlink:href="#NotoNaskhArabic-Bold-554" transform="translate(224.109375 0)"/>
     <use xlink:href="#NotoNaskhArabic-Bold-112" transform="translate(246.203125 0)"/>
     <use xlink:href="#NotoNaskhArabic-Bold-4" transform="translate(325.703125 0)"/>
     <use xlink:href="#NotoNaskhArabic-Bold-136" transform="translate(354.5 0)"/>
     <use xlink:href="#NotoNaskhArabic-Bold-b6" transform="translate(406.203125 0)"/>
     <use xlink:href="#NotoNaskhArabic-Bold-554" transform="translate(454.703125 0)"/>
     <use xlink:href="#NotoNaskhArabic-Bold-218" transform="translate(476.796875 0)"/>
     <use xlink:href="#NotoNaskhArabic-Bold-3" transform="translate(526.5 0)"/>
     <use xlink:href="#NotoNaskhArabic-Bold-11e" transform="translate(554.90625 0)"/>
     <use xlink:href="#NotoNaskhArabic-Bold-8a" transform="translate(634.40625 0)"/>
     <use xlink:href="#NotoNaskhArabic-Bold-554" transform="translate(706.8125 0)"/>
     <use xlink:href="#NotoNaskhArabic-Bold-136" transform="translate(728.90625 0)"/>
     <use xlink:href="#NotoNaskhArabic-Bold-1bf" transform="translate(780.609375 0)"/>
     <use xlink:href="#NotoNaskhArabic-Bold-235" transform="translate(805.109375 0)"/>
     <use xlink:href="#NotoNaskhArabic-Bold-554" transform="translate(874.109375 0)"/>
     <use xlink:href="#NotoNaskhArabic-Bold-3" transform="translate(896.203125 0)"/>
     <use xlink:href="#NotoNaskhArabic-Bold-1c1" transform="translate(924.609375 0)"/>
     <use xlink:href="#NotoNaskhArabic-Bold-145" transform="translate(946.3125 0)"/>
     <use xlink:href="#NotoNaskhArabic-Bold-d4" transform="translate(987.515625 0)"/>
     <use xlink:href="#NotoNaskhArabic-Bold-241" transform="translate(1027.015625 0)"/>
     <use xlink:href="#NotoNaskhArabic-Bold-1e3" transform="translate(1061.3125 0)"/>
     <use xlink:href="#NotoNaskhArabic-Bold-554" transform="translate(1116.8125 0)"/>
     <use xlink:href="#NotoNaskhArabic-Bold-3" transform="translate(1138.90625 0)"/>
     <use xlink:href="#NotoNaskhArabic-Bold-2e8" transform="translate(1167.3125 0)"/>
     <use xlink:href="#NotoNaskhArabic-Bold-136" transform="translate(1221.90625 0)"/>
     <use xlink:href="#NotoNaskhArabic-Bold-1bf" transform="translate(1273.609375 0)"/>
     <use xlink:href="#NotoNaskhArabic-Bold-235" transform="translate(1298.109375 0)"/>
     <use xlink:href="#NotoNaskhArabic-Bold-554" transform="translate(1367.109375 0)"/>
    </g>
   </g>
   <g id="text_11">
    <!-- ​ﻞﺼﻔﻟﺍ ﻢﻜﺤﻟﺍ :(HTF) ﻰﻠﻋﻷﺍ ﺭﺎﻃﻹﺍ -->
    <g style="fill: #1f2937" transform="translate(138.867266 17.89) scale(0.1 -0.1)">
     <defs>
      <path id="NotoNaskhArabic-Bold-2ea" d="M 896 0 
Q 883 0 883 51 
Q 883 141 899 294 
Q 915 448 937 576 
Q 960 704 979 704 
L 1242 704 
Q 1542 947 1753 1164 
Q 1965 1382 2086 1581 
Q 1581 2086 832 2541 
L 595 2528 
Q 218 2714 218 3098 
Q 218 3437 570 3642 
Q 794 3494 1091 3235 
Q 1389 2976 1690 2675 
Q 1856 2515 2009 2355 
Q 2163 2195 2298 2042 
Q 2355 2246 2355 2477 
Q 2355 2637 2221 3411 
Q 2189 3610 2169 3728 
Q 2150 3846 2150 3891 
Q 2150 4154 2342 4307 
Q 2534 4461 2829 4461 
Q 2880 4256 2944 4057 
Q 3008 3859 3085 3674 
L 2874 3514 
L 2880 3398 
L 2899 2790 
Q 2899 2214 2598 1664 
Q 2624 1638 2713 1516 
Q 2803 1395 2908 1238 
Q 3014 1082 3094 947 
Q 3174 813 3174 762 
Q 3174 704 3142 601 
Q 3110 499 3065 387 
Q 3021 275 2979 195 
Q 2938 115 2918 109 
Q 2605 58 2102 29 
Q 1600 0 896 0 
z
M 1779 730 
Q 2067 742 2294 768 
Q 2522 794 2752 832 
Q 2650 947 2554 1062 
Q 2458 1178 2355 1299 
Q 2093 973 1779 730 
z
M 678 -1555 
L 665 -1292 
L 896 -1152 
Q 691 -1081 691 -908 
Q 691 -793 761 -674 
Q 832 -556 937 -479 
Q 1043 -403 1139 -403 
Q 1376 -403 1376 -684 
Q 1376 -761 1344 -838 
L 1222 -812 
L 1222 -800 
Q 1222 -742 1145 -742 
Q 1005 -742 921 -902 
Q 1037 -1017 1235 -1017 
Q 1293 -1017 1357 -1007 
Q 1421 -998 1485 -985 
L 1459 -1273 
Q 1229 -1324 1072 -1378 
Q 915 -1433 678 -1555 
z
" transform="scale(0.015625)"/>
      <path id="NotoNaskhArabic-Bold-126" d="M 0 58 
Q -51 58 -51 109 
L -51 762 
Q -51 813 0 813 
L 531 819 
L 659 819 
Q 730 915 794 1008 
Q 858 1101 922 1184 
Q 762 1946 662 2422 
Q 563 2899 508 3164 
Q 454 3430 435 3552 
Q 416 3674 416 3725 
Q 416 3987 605 4169 
Q 794 4352 1069 4352 
Q 1133 4134 1197 3939 
Q 1261 3744 1331 3565 
L 1126 3411 
Q 1152 3110 1171 2809 
Q 1190 2509 1216 2208 
Q 1229 2054 1241 1907 
Q 1254 1760 1261 1606 
Q 2170 2669 2803 2669 
Q 3066 2669 3354 2512 
Q 3642 2355 3872 2074 
Q 4109 1786 4109 1626 
Q 4109 1126 3683 777 
Q 3258 429 2362 243 
Q 1914 154 1325 106 
Q 736 58 0 58 
z
M 1158 832 
Q 1190 832 1321 838 
Q 1453 845 1632 854 
Q 1811 864 1990 880 
Q 2170 896 2291 915 
Q 2458 947 2624 979 
Q 2790 1011 3040 1075 
Q 3290 1139 3693 1254 
Q 3475 1498 3305 1635 
Q 3136 1773 2985 1830 
Q 2835 1888 2650 1888 
Q 2061 1888 1158 832 
z
" transform="scale(0.015625)"/>
      <path id="NotoNaskhArabic-Bold-d3" d="M 653 -1248 
Q 544 -1248 304 -1107 
Q 64 -966 -218 -730 
L -115 -461 
Q 243 -550 531 -550 
Q 1005 -550 1331 -313 
Q 1658 -77 1805 371 
Q 1760 467 1705 566 
Q 1651 666 1587 762 
Q 1402 1050 1254 1312 
Q 1107 1574 1107 1779 
Q 1107 1965 1254 2147 
Q 1402 2330 1638 2451 
Q 1677 2317 1731 2137 
Q 1786 1958 1846 1782 
Q 1907 1606 1952 1472 
Q 2035 1235 2089 1004 
Q 2144 774 2144 570 
Q 2144 70 1952 -349 
Q 1760 -768 1421 -1011 
Q 1082 -1248 653 -1248 
z
" transform="scale(0.015625)"/>
      <path id="DejaVuSans-Bold-b" d="M 2413 -844 
L 1484 -844 
Q 1006 -72 778 623 
Q 550 1319 550 2003 
Q 550 2688 779 3389 
Q 1009 4091 1484 4856 
L 2413 4856 
Q 2013 4116 1813 3408 
Q 1613 2700 1613 2009 
Q 1613 1319 1811 609 
Q 2009 -100 2413 -844 
z
" transform="scale(0.015625)"/>
      <path id="DejaVuSans-Bold-2b" d="M 588 4666 
L 1791 4666 
L 1791 2888 
L 3566 2888 
L 3566 4666 
L 4769 4666 
L 4769 0 
L 3566 0 
L 3566 1978 
L 1791 1978 
L 1791 0 
L 588 0 
L 588 4666 
z
" transform="scale(0.015625)"/>
      <path id="DejaVuSans-Bold-37" d="M 31 4666 
L 4331 4666 
L 4331 3756 
L 2784 3756 
L 2784 0 
L 1581 0 
L 1581 3756 
L 31 3756 
L 31 4666 
z
" transform="scale(0.015625)"/>
      <path id="DejaVuSans-Bold-29" d="M 588 4666 
L 3834 4666 
L 3834 3756 
L 1791 3756 
L 1791 2888 
L 3713 2888 
L 3713 1978 
L 1791 1978 
L 1791 0 
L 588 0 
L 588 4666 
z
" transform="scale(0.015625)"/>
      <path id="DejaVuSans-Bold-c" d="M 513 -844 
Q 913 -100 1113 609 
Q 1313 1319 1313 2009 
Q 1313 2700 1113 3408 
Q 913 4116 513 4856 
L 1441 4856 
Q 1916 4091 2145 3389 
Q 2375 2688 2375 2003 
Q 2375 1319 2147 623 
Q 1919 -72 1441 -844 
L 513 -844 
z
" transform="scale(0.015625)"/>
      <path id="NotoNaskhArabic-Bold-516" d="M 1037 1792 
Q 877 1920 710 2029 
Q 544 2138 378 2234 
Q 429 2317 473 2397 
Q 518 2477 557 2560 
Q 602 2643 650 2723 
Q 698 2803 755 2886 
Q 870 2816 1017 2720 
Q 1165 2624 1273 2534 
Q 1382 2445 1382 2381 
Q 1382 2291 1037 1792 
z
M 1037 -365 
Q 691 -96 378 77 
Q 429 166 473 246 
Q 518 326 557 410 
Q 602 486 650 566 
Q 698 646 755 730 
Q 1382 365 1382 224 
Q 1382 134 1037 -365 
z
" transform="scale(0.015625)"/>
      <path id="NotoNaskhArabic-Bold-175" d="M 0 58 
Q -51 58 -51 109 
L -51 762 
Q -51 813 0 813 
Q 832 813 1293 870 
Q 1741 922 1952 1030 
Q 1882 1178 1728 1347 
Q 1574 1517 1363 1683 
Q 1242 1773 1085 1875 
Q 928 1978 723 2099 
Q 64 2470 64 2778 
Q 64 2906 121 3030 
Q 179 3155 269 3238 
Q 314 3277 515 3376 
Q 717 3475 1008 3606 
Q 1299 3738 1622 3878 
Q 1946 4019 2243 4144 
Q 2541 4269 2746 4352 
Q 2880 4230 2880 4032 
Q 2880 3872 2781 3728 
Q 2682 3584 2534 3514 
Q 2291 3392 2038 3283 
Q 1786 3174 1440 3049 
Q 1094 2925 563 2739 
Q 1011 2630 1401 2371 
Q 1792 2112 2029 1773 
Q 2278 1421 2278 1107 
Q 2278 1050 2272 1037 
Q 2630 813 3046 813 
Q 3104 813 3104 762 
L 3104 109 
Q 3104 58 3046 58 
Q 2470 58 2016 531 
Q 1901 429 1702 326 
Q 1126 58 0 58 
z
" transform="scale(0.015625)"/>
      <path id="NotoNaskhArabic-Bold-111" d="M 2592 0 
Q 2163 0 1699 80 
Q 1235 160 851 339 
Q 813 282 742 243 
Q 608 154 406 106 
Q 205 58 0 58 
Q -51 58 -51 109 
L -51 762 
Q -51 813 0 813 
Q 256 813 397 848 
Q 538 883 634 985 
Q 730 1088 838 1286 
Q 864 1331 886 1376 
Q 909 1421 934 1466 
Q 1030 1638 1222 1638 
Q 1318 1638 1427 1574 
Q 1363 1414 1302 1260 
Q 1242 1107 1178 954 
Q 1248 928 1312 909 
Q 1376 890 1440 864 
Q 2099 1741 2605 2150 
Q 3091 2560 3469 2560 
Q 3629 2560 3824 2464 
Q 4019 2368 4211 2214 
Q 4403 2061 4544 1882 
Q 4762 1619 4762 1446 
Q 4762 1229 4691 1050 
Q 4922 915 5082 864 
Q 5242 813 5466 813 
Q 5523 813 5523 762 
L 5523 109 
Q 5523 58 5466 58 
Q 5171 58 4880 186 
Q 4589 314 4358 563 
Q 4205 416 3904 278 
Q 3603 141 3258 70 
Q 3085 38 2921 19 
Q 2758 0 2592 0 
z
M 2656 704 
Q 3117 704 3520 813 
Q 3923 922 4390 1146 
Q 3814 1805 3309 1805 
Q 3027 1805 2652 1536 
Q 2278 1267 1862 774 
Q 2067 742 2265 723 
Q 2464 704 2656 704 
z
" transform="scale(0.015625)"/>
      <path id="NotoNaskhArabic-Bold-1be" d="M 1606 -1613 
Q 1030 -1613 729 -1277 
Q 429 -941 429 -301 
Q 429 -134 470 96 
Q 512 326 589 627 
L 870 557 
Q 787 282 787 45 
Q 787 -858 1619 -858 
Q 1984 -858 2262 -794 
Q 2541 -730 2784 -576 
Q 2970 -467 3155 -288 
L 3014 461 
Q 2989 608 2915 1014 
Q 2842 1421 2726 2086 
Q 2694 2291 2652 2537 
Q 2611 2784 2569 3024 
Q 2528 3264 2499 3446 
Q 2470 3629 2470 3699 
Q 2470 3968 2675 4160 
Q 2880 4352 3162 4352 
Q 3219 4134 3283 3939 
Q 3347 3744 3418 3565 
L 3213 3411 
Q 3270 2810 3331 2198 
Q 3392 1587 3450 973 
Q 3718 813 4000 813 
Q 4058 813 4058 762 
L 4058 109 
Q 4058 58 4000 58 
Q 3878 58 3760 86 
Q 3642 115 3507 192 
L 3514 -45 
Q 3514 -474 3258 -838 
Q 3002 -1203 2566 -1408 
Q 2349 -1510 2109 -1561 
Q 1869 -1613 1606 -1613 
z
" transform="scale(0.015625)"/>
     </defs>
     <use xlink:href="#NotoNaskhArabic-Bold-3"/>
     <use xlink:href="#NotoNaskhArabic-Bold-2ea" transform="translate(28.40625 0)"/>
     <use xlink:href="#NotoNaskhArabic-Bold-126" transform="translate(83 0)"/>
     <use xlink:href="#NotoNaskhArabic-Bold-4" transform="translate(152.296875 0)"/>
     <use xlink:href="#NotoNaskhArabic-Bold-d3" transform="translate(181.09375 0)"/>
     <use xlink:href="#NotoNaskhArabic-Bold-554" transform="translate(218.796875 0)"/>
     <use xlink:href="#NotoNaskhArabic-Bold-3" transform="translate(240.890625 0)"/>
     <use xlink:href="#NotoNaskhArabic-Bold-2e8" transform="translate(269.296875 0)"/>
     <use xlink:href="#NotoNaskhArabic-Bold-136" transform="translate(323.890625 0)"/>
     <use xlink:href="#NotoNaskhArabic-Bold-1bf" transform="translate(375.59375 0)"/>
     <use xlink:href="#NotoNaskhArabic-Bold-235" transform="translate(400.09375 0)"/>
     <use xlink:href="#NotoNaskhArabic-Bold-554" transform="translate(469.09375 0)"/>
     <use xlink:href="#DejaVuSans-Bold-b" transform="translate(491.1875 0)"/>
     <use xlink:href="#DejaVuSans-Bold-2b" transform="translate(536.890625 0)"/>
     <use xlink:href="#DejaVuSans-Bold-37" transform="translate(620.578125 0)"/>
     <use xlink:href="#DejaVuSans-Bold-29" transform="translate(688.796875 0)"/>
     <use xlink:href="#DejaVuSans-Bold-c" transform="translate(757.109375 0)"/>
     <use xlink:href="#NotoNaskhArabic-Bold-516" transform="translate(802.8125 0)"/>
     <use xlink:href="#NotoNaskhArabic-Bold-554" transform="translate(830.21875 0)"/>
     <use xlink:href="#NotoNaskhArabic-Bold-3" transform="translate(852.3125 0)"/>
     <use xlink:href="#NotoNaskhArabic-Bold-1c1" transform="translate(880.71875 0)"/>
     <use xlink:href="#NotoNaskhArabic-Bold-8b" transform="translate(902.421875 0)"/>
     <use xlink:href="#NotoNaskhArabic-Bold-175" transform="translate(968.125 0)"/>
     <use xlink:href="#NotoNaskhArabic-Bold-1e3" transform="translate(1014.828125 0)"/>
     <use xlink:href="#NotoNaskhArabic-Bold-554" transform="translate(1070.328125 0)"/>
     <use xlink:href="#NotoNaskhArabic-Bold-3" transform="translate(1092.421875 0)"/>
     <use xlink:href="#NotoNaskhArabic-Bold-1c1" transform="translate(1120.828125 0)"/>
     <use xlink:href="#NotoNaskhArabic-Bold-145" transform="translate(1142.53125 0)"/>
     <use xlink:href="#NotoNaskhArabic-Bold-111" transform="translate(1183.734375 0)"/>
     <use xlink:href="#NotoNaskhArabic-Bold-1be" transform="translate(1268.328125 0)"/>
     <use xlink:href="#NotoNaskhArabic-Bold-554" transform="translate(1330.03125 0)"/>
    </g>
   </g>
   <g id="patch_5">
    <path d="M 45.950975 298.324808 
L 50.171423 298.324808 
L 50.171423 290.401728 
L 45.950975 290.401728 
z
" clip-path="url(#p15d75f616e)" style="fill: #1f8a56; stroke: #1f8a56; stroke-linejoin: miter"/>
   </g>
   <g id="patch_6">
    <path d="M 53.624518 299.942462 
L 57.844966 299.942462 
L 57.844966 292.019383 
L 53.624518 292.019383 
z
" clip-path="url(#p15d75f616e)" style="fill: #1f8a56; stroke: #1f8a56; stroke-linejoin: miter"/>
   </g>
   <g id="patch_7">
    <path d="M 61.298061 295.795095 
L 65.518509 295.795095 
L 65.518509 283.424372 
L 61.298061 283.424372 
z
" clip-path="url(#p15d75f616e)" style="fill: #1f8a56; stroke: #1f8a56; stroke-linejoin: miter"/>
   </g>
   <g id="patch_8">
    <path d="M 68.971603 285.788125 
L 73.192052 285.788125 
L 73.192052 274.96538 
L 68.971603 274.96538 
z
" clip-path="url(#p15d75f616e)" style="fill: #1f8a56; stroke: #1f8a56; stroke-linejoin: miter"/>
   </g>
   <g id="patch_9">
    <path d="M 76.645146 274.030219 
L 80.865595 274.030219 
L 80.865595 266.10714 
L 76.645146 266.10714 
z
" clip-path="url(#p15d75f616e)" style="fill: #b91c1c; stroke: #b91c1c; stroke-linejoin: miter"/>
   </g>
   <g id="patch_10">
    <path d="M 84.318689 276.556434 
L 88.539138 276.556434 
L 88.539138 259.1574 
L 84.318689 259.1574 
z
" clip-path="url(#p15d75f616e)" style="fill: #1f8a56; stroke: #1f8a56; stroke-linejoin: miter"/>
   </g>
   <g id="patch_11">
    <path d="M 91.992232 262.312203 
L 96.212681 262.312203 
L 96.212681 245.330865 
L 91.992232 245.330865 
z
" clip-path="url(#p15d75f616e)" style="fill: #1f8a56; stroke: #1f8a56; stroke-linejoin: miter"/>
   </g>
   <g id="patch_12">
    <path d="M 99.665775 246.589106 
L 103.886224 246.589106 
L 103.886224 238.666027 
L 99.665775 238.666027 
z
" clip-path="url(#p15d75f616e)" style="fill: #1f8a56; stroke: #1f8a56; stroke-linejoin: miter"/>
   </g>
   <g id="patch_13">
    <path d="M 107.339318 247.800084 
L 111.559766 247.800084 
L 111.559766 231.434792 
L 107.339318 231.434792 
z
" clip-path="url(#p15d75f616e)" style="fill: #1f8a56; stroke: #1f8a56; stroke-linejoin: miter"/>
   </g>
   <g id="patch_14">
    <path d="M 115.012861 233.288472 
L 119.233309 233.288472 
L 119.233309 225.365392 
L 115.012861 225.365392 
z
" clip-path="url(#p15d75f616e)" style="fill: #1f8a56; stroke: #1f8a56; stroke-linejoin: miter"/>
   </g>
   <g id="patch_15">
    <path d="M 122.686404 225.007068 
L 126.906852 225.007068 
L 126.906852 217.083989 
L 122.686404 217.083989 
z
" clip-path="url(#p15d75f616e)" style="fill: #b91c1c; stroke: #b91c1c; stroke-linejoin: miter"/>
   </g>
   <g id="patch_16">
    <path d="M 130.359946 223.564547 
L 134.580395 223.564547 
L 134.580395 212.660198 
L 130.359946 212.660198 
z
" clip-path="url(#p15d75f616e)" style="fill: #1f8a56; stroke: #1f8a56; stroke-linejoin: miter"/>
   </g>
   <g id="patch_17">
    <path d="M 138.033489 209.665547 
L 142.253938 209.665547 
L 142.253938 201.742468 
L 138.033489 201.742468 
z
" clip-path="url(#p15d75f616e)" style="fill: #1f8a56; stroke: #1f8a56; stroke-linejoin: miter"/>
   </g>
   <g id="patch_18">
    <path d="M 145.707032 209.921784 
L 149.927481 209.921784 
L 149.927481 201.998705 
L 145.707032 201.998705 
z
" clip-path="url(#p15d75f616e)" style="fill: #b91c1c; stroke: #b91c1c; stroke-linejoin: miter"/>
   </g>
   <g id="patch_19">
    <path d="M 153.380575 209.31339 
L 157.601024 209.31339 
L 157.601024 201.390311 
L 153.380575 201.390311 
z
" clip-path="url(#p15d75f616e)" style="fill: #1f8a56; stroke: #1f8a56; stroke-linejoin: miter"/>
   </g>
   <g id="patch_20">
    <path d="M 161.054118 203.265587 
L 165.274567 203.265587 
L 165.274567 195.342508 
L 161.054118 195.342508 
z
" clip-path="url(#p15d75f616e)" style="fill: #1f8a56; stroke: #1f8a56; stroke-linejoin: miter"/>
   </g>
   <g id="patch_21">
    <path d="M 168.727661 202.038967 
L 172.948109 202.038967 
L 172.948109 192.529579 
L 168.727661 192.529579 
z
" clip-path="url(#p15d75f616e)" style="fill: #1f8a56; stroke: #1f8a56; stroke-linejoin: miter"/>
   </g>
   <g id="patch_22">
    <path d="M 176.401204 195.617156 
L 180.621652 195.617156 
L 180.621652 187.694077 
L 176.401204 187.694077 
z
" clip-path="url(#p15d75f616e)" style="fill: #1f8a56; stroke: #1f8a56; stroke-linejoin: miter"/>
   </g>
   <g id="patch_23">
    <path d="M 184.074747 187.556221 
L 188.295195 187.556221 
L 188.295195 179.633142 
L 184.074747 179.633142 
z
" clip-path="url(#p15d75f616e)" style="fill: #1f8a56; stroke: #1f8a56; stroke-linejoin: miter"/>
   </g>
   <g id="patch_24">
    <path d="M 191.74829 181.868707 
L 195.968738 181.868707 
L 195.968738 170.472345 
L 191.74829 170.472345 
z
" clip-path="url(#p15d75f616e)" style="fill: #1f8a56; stroke: #1f8a56; stroke-linejoin: miter"/>
   </g>
   <g id="patch_25">
    <path d="M 199.421832 176.381079 
L 203.642281 176.381079 
L 203.642281 168.458 
L 199.421832 168.458 
z
" clip-path="url(#p15d75f616e)" style="fill: #b91c1c; stroke: #b91c1c; stroke-linejoin: miter"/>
   </g>
   <g id="patch_26">
    <path d="M 207.095375 179.325345 
L 211.315824 179.325345 
L 211.315824 171.402266 
L 207.095375 171.402266 
z
" clip-path="url(#p15d75f616e)" style="fill: #1f8a56; stroke: #1f8a56; stroke-linejoin: miter"/>
   </g>
   <g id="patch_27">
    <path d="M 214.768918 184.911859 
L 218.989367 184.911859 
L 218.989367 174.107642 
L 214.768918 174.107642 
z
" clip-path="url(#p15d75f616e)" style="fill: #b91c1c; stroke: #b91c1c; stroke-linejoin: miter"/>
   </g>
   <g id="patch_28">
    <path d="M 222.442461 184.852691 
L 226.66291 184.852691 
L 226.66291 176.929612 
L 222.442461 176.929612 
z
" clip-path="url(#p15d75f616e)" style="fill: #1f8a56; stroke: #1f8a56; stroke-linejoin: miter"/>
   </g>
   <g id="patch_29">
    <path d="M 230.116004 189.677747 
L 234.336452 189.677747 
L 234.336452 181.754668 
L 230.116004 181.754668 
z
" clip-path="url(#p15d75f616e)" style="fill: #b91c1c; stroke: #b91c1c; stroke-linejoin: miter"/>
   </g>
   <g id="patch_30">
    <path d="M 237.789547 190.287151 
L 242.009995 190.287151 
L 242.009995 182.364071 
L 237.789547 182.364071 
z
" clip-path="url(#p15d75f616e)" style="fill: #b91c1c; stroke: #b91c1c; stroke-linejoin: miter"/>
   </g>
   <g id="patch_31">
    <path d="M 245.46309 191.94587 
L 249.683538 191.94587 
L 249.683538 184.022791 
L 245.46309 184.022791 
z
" clip-path="url(#p15d75f616e)" style="fill: #b91c1c; stroke: #b91c1c; stroke-linejoin: miter"/>
   </g>
   <g id="patch_32">
    <path d="M 253.136633 193.413663 
L 257.357081 193.413663 
L 257.357081 185.490584 
L 253.136633 185.490584 
z
" clip-path="url(#p15d75f616e)" style="fill: #1f8a56; stroke: #1f8a56; stroke-linejoin: miter"/>
   </g>
   <g id="patch_33">
    <path d="M 260.810175 193.683038 
L 265.030624 193.683038 
L 265.030624 185.759959 
L 260.810175 185.759959 
z
" clip-path="url(#p15d75f616e)" style="fill: #1f8a56; stroke: #1f8a56; stroke-linejoin: miter"/>
   </g>
   <g id="patch_34">
    <path d="M 268.483718 189.070616 
L 272.704167 189.070616 
L 272.704167 181.147537 
L 268.483718 181.147537 
z
" clip-path="url(#p15d75f616e)" style="fill: #1f8a56; stroke: #1f8a56; stroke-linejoin: miter"/>
   </g>
   <g id="patch_35">
    <path d="M 276.157261 179.370857 
L 280.37771 179.370857 
L 280.37771 168.587451 
L 276.157261 168.587451 
z
" clip-path="url(#p15d75f616e)" style="fill: #1f8a56; stroke: #1f8a56; stroke-linejoin: miter"/>
   </g>
   <g id="patch_36">
    <path d="M 283.830804 168.726256 
L 288.051253 168.726256 
L 288.051253 160.803177 
L 283.830804 160.803177 
z
" clip-path="url(#p15d75f616e)" style="fill: #1f8a56; stroke: #1f8a56; stroke-linejoin: miter"/>
   </g>
   <g id="patch_37">
    <path d="M 291.504347 165.933547 
L 295.724796 165.933547 
L 295.724796 152.697561 
L 291.504347 152.697561 
z
" clip-path="url(#p15d75f616e)" style="fill: #1f8a56; stroke: #1f8a56; stroke-linejoin: miter"/>
   </g>
   <g id="patch_38">
    <path d="M 299.17789 150.435455 
L 303.398338 150.435455 
L 303.398338 138.546806 
L 299.17789 138.546806 
z
" clip-path="url(#p15d75f616e)" style="fill: #1f8a56; stroke: #1f8a56; stroke-linejoin: miter"/>
   </g>
   <g id="patch_39">
    <path d="M 306.851433 142.038103 
L 311.071881 142.038103 
L 311.071881 118.786324 
L 306.851433 118.786324 
z
" clip-path="url(#p15d75f616e)" style="fill: #1f8a56; stroke: #1f8a56; stroke-linejoin: miter"/>
   </g>
   <g id="patch_40">
    <path d="M 314.524976 120.287067 
L 318.745424 120.287067 
L 318.745424 107.40255 
L 314.524976 107.40255 
z
" clip-path="url(#p15d75f616e)" style="fill: #1f8a56; stroke: #1f8a56; stroke-linejoin: miter"/>
   </g>
   <g id="patch_41">
    <path d="M 322.198518 109.148426 
L 326.418967 109.148426 
L 326.418967 95.950832 
L 322.198518 95.950832 
z
" clip-path="url(#p15d75f616e)" style="fill: #1f8a56; stroke: #1f8a56; stroke-linejoin: miter"/>
   </g>
   <g id="patch_42">
    <path d="M 329.872061 96.726064 
L 334.09251 96.726064 
L 334.09251 83.668129 
L 329.872061 83.668129 
z
" clip-path="url(#p15d75f616e)" style="fill: #1f8a56; stroke: #1f8a56; stroke-linejoin: miter"/>
   </g>
   <g id="patch_43">
    <path d="M 337.545604 83.32337 
L 341.766053 83.32337 
L 341.766053 75.400291 
L 337.545604 75.400291 
z
" clip-path="url(#p15d75f616e)" style="fill: #1f8a56; stroke: #1f8a56; stroke-linejoin: miter"/>
   </g>
   <g id="patch_44">
    <path d="M 345.219147 77.816132 
L 349.439596 77.816132 
L 349.439596 69.893053 
L 345.219147 69.893053 
z
" clip-path="url(#p15d75f616e)" style="fill: #1f8a56; stroke: #1f8a56; stroke-linejoin: miter"/>
   </g>
   <g id="patch_45">
    <path d="M 352.89269 70.434821 
L 357.113139 70.434821 
L 357.113139 57.921526 
L 352.89269 57.921526 
z
" clip-path="url(#p15d75f616e)" style="fill: #1f8a56; stroke: #1f8a56; stroke-linejoin: miter"/>
   </g>
   <g id="patch_46">
    <path d="M 360.566233 58.92685 
L 364.786681 58.92685 
L 364.786681 38.329551 
L 360.566233 38.329551 
z
" clip-path="url(#p15d75f616e)" style="fill: #1f8a56; stroke: #1f8a56; stroke-linejoin: miter"/>
   </g>
  </g>
  <g id="axes_2">
   <g id="patch_47">
    <path d="M 391.987656 314.742886 
L 721.95 314.742886 
L 721.95 24.23 
L 391.987656 24.23 
z
" style="fill: #ffffff"/>
   </g>
   <g id="matplotlib.axis_3"/>
   <g id="matplotlib.axis_4">
    <g id="ytick_10">
     <g id="line2d_52">
      <g>
       <use xlink:href="#me45d45aef0" x="391.987656" y="281.83313" style="fill: #555555; stroke: #555555; stroke-width: 0.8"/>
      </g>
     </g>
     <g id="text_12">
      <!-- 93 -->
      <g style="fill: #555555" transform="translate(372.975 287.44538) scale(0.105 -0.105)">
       <defs>
        <path id="NotoNaskhArabic-Regular-4d5" d="M 1229 -64 
Q 851 -64 653 0 
L 653 480 
Q 883 397 1216 397 
Q 1728 397 2057 601 
Q 2387 806 2560 1197 
Q 2650 1395 2701 1654 
Q 2752 1914 2758 2240 
L 2720 2240 
Q 2362 1709 1632 1709 
Q 1030 1709 675 2077 
Q 320 2445 320 3091 
Q 320 3565 499 3910 
Q 678 4256 1008 4445 
Q 1338 4634 1779 4634 
Q 2246 4634 2598 4394 
Q 2950 4154 3136 3699 
Q 3328 3238 3328 2618 
Q 3328 -64 1229 -64 
z
M 1754 2157 
Q 2035 2157 2265 2269 
Q 2496 2381 2630 2579 
Q 2758 2778 2758 2989 
Q 2758 3302 2636 3571 
Q 2515 3840 2291 4000 
Q 2074 4160 1779 4160 
Q 1350 4160 1113 3881 
Q 877 3603 877 3098 
Q 877 2643 1101 2400 
Q 1325 2157 1754 2157 
z
" transform="scale(0.015625)"/>
        <path id="NotoNaskhArabic-Regular-4cf" d="M 1542 -64 
Q 1184 -64 877 -9 
Q 570 45 288 186 
L 288 710 
Q 576 570 909 490 
Q 1242 410 1549 410 
Q 2707 410 2707 1312 
Q 2707 2118 1427 2118 
L 986 2118 
L 986 2598 
L 1434 2598 
Q 1971 2598 2275 2825 
Q 2579 3053 2579 3462 
Q 2579 3789 2358 3974 
Q 2138 4160 1747 4160 
Q 1446 4160 1187 4077 
Q 928 3994 595 3776 
L 314 4160 
Q 595 4384 963 4509 
Q 1331 4634 1741 4634 
Q 2406 4634 2780 4330 
Q 3155 4026 3155 3501 
Q 3155 3066 2908 2784 
Q 2662 2502 2208 2406 
L 2208 2381 
Q 2758 2317 3027 2035 
Q 3296 1754 3296 1299 
Q 3296 646 2845 291 
Q 2394 -64 1542 -64 
z
" transform="scale(0.015625)"/>
       </defs>
       <use xlink:href="#NotoNaskhArabic-Regular-4d5"/>
       <use xlink:href="#NotoNaskhArabic-Regular-4cf" transform="translate(57.203125 0)"/>
      </g>
     </g>
    </g>
    <g id="ytick_11">
     <g id="line2d_53">
      <g>
       <use xlink:href="#me45d45aef0" x="391.987656" y="244.894716" style="fill: #555555; stroke: #555555; stroke-width: 0.8"/>
      </g>
     </g>
     <g id="text_13">
      <!-- 94 -->
      <g style="fill: #555555" transform="translate(372.975 250.506966) scale(0.105 -0.105)">
       <defs>
        <path id="NotoNaskhArabic-Regular-4d0" d="M 2323 0 
L 2323 1037 
L 134 1037 
L 134 1517 
L 2285 4595 
L 2867 4595 
L 2867 1542 
L 3533 1542 
L 3533 1037 
L 2867 1037 
L 2867 0 
L 2323 0 
z
M 685 1542 
L 2323 1542 
L 2323 2982 
Q 2323 3194 2332 3446 
Q 2342 3699 2355 3994 
L 2330 3994 
Q 2298 3910 2211 3747 
Q 2125 3584 2054 3494 
L 685 1542 
z
" transform="scale(0.015625)"/>
       </defs>
       <use xlink:href="#NotoNaskhArabic-Regular-4d5"/>
       <use xlink:href="#NotoNaskhArabic-Regular-4d0" transform="translate(57.203125 0)"/>
      </g>
     </g>
    </g>
    <g id="ytick_12">
     <g id="line2d_54">
      <g>
       <use xlink:href="#me45d45aef0" x="391.987656" y="207.956302" style="fill: #555555; stroke: #555555; stroke-width: 0.8"/>
      </g>
     </g>
     <g id="text_14">
      <!-- 95 -->
      <g style="fill: #555555" transform="translate(372.975 213.568552) scale(0.105 -0.105)">
       <use xlink:href="#NotoNaskhArabic-Regular-4d5"/>
       <use xlink:href="#NotoNaskhArabic-Regular-4d1" transform="translate(57.203125 0)"/>
      </g>
     </g>
    </g>
    <g id="ytick_13">
     <g id="line2d_55">
      <g>
       <use xlink:href="#me45d45aef0" x="391.987656" y="171.017888" style="fill: #555555; stroke: #555555; stroke-width: 0.8"/>
      </g>
     </g>
     <g id="text_15">
      <!-- 96 -->
      <g style="fill: #555555" transform="translate(372.975 176.630138) scale(0.105 -0.105)">
       <defs>
        <path id="NotoNaskhArabic-Regular-4d2" d="M 1907 -64 
Q 1440 -64 1088 176 
Q 736 416 544 870 
Q 352 1331 352 1952 
Q 352 4634 2445 4634 
Q 2810 4634 3008 4576 
L 3008 4096 
Q 2771 4173 2458 4173 
Q 1984 4173 1654 3987 
Q 1325 3802 1139 3405 
Q 941 2976 915 2323 
L 954 2323 
Q 1299 2861 2035 2861 
Q 2656 2861 3008 2486 
Q 3360 2112 3360 1472 
Q 3360 762 2969 349 
Q 2579 -64 1907 -64 
z
M 1901 410 
Q 2336 410 2569 688 
Q 2803 966 2803 1472 
Q 2803 1926 2576 2172 
Q 2349 2419 1920 2419 
Q 1645 2419 1421 2307 
Q 1197 2195 1056 1997 
Q 922 1798 922 1581 
Q 922 1267 1050 995 
Q 1178 723 1395 563 
Q 1619 410 1901 410 
z
" transform="scale(0.015625)"/>
       </defs>
       <use xlink:href="#NotoNaskhArabic-Regular-4d5"/>
       <use xlink:href="#NotoNaskhArabic-Regular-4d2" transform="translate(57.203125 0)"/>
      </g>
     </g>
    </g>
    <g id="ytick_14">
     <g id="line2d_56">
      <g>
       <use xlink:href="#me45d45aef0" x="391.987656" y="134.079474" style="fill: #555555; stroke: #555555; stroke-width: 0.8"/>
      </g>
     </g>
     <g id="text_16">
      <!-- 97 -->
      <g style="fill: #555555" transform="translate(372.975 139.691724) scale(0.105 -0.105)">
       <use xlink:href="#NotoNaskhArabic-Regular-4d5"/>
       <use xlink:href="#NotoNaskhArabic-Regular-4d3" transform="translate(57.203125 0)"/>
      </g>
     </g>
    </g>
    <g id="ytick_15">
     <g id="line2d_57">
      <g>
       <use xlink:href="#me45d45aef0" x="391.987656" y="97.141061" style="fill: #555555; stroke: #555555; stroke-width: 0.8"/>
      </g>
     </g>
     <g id="text_17">
      <!-- 98 -->
      <g style="fill: #555555" transform="translate(372.975 102.753311) scale(0.105 -0.105)">
       <defs>
        <path id="NotoNaskhArabic-Regular-4d4" d="M 1843 -64 
Q 1114 -64 714 256 
Q 314 576 314 1165 
Q 314 1946 1261 2387 
Q 832 2630 646 2912 
Q 461 3194 461 3546 
Q 461 4045 832 4339 
Q 1203 4634 1824 4634 
Q 2451 4634 2822 4342 
Q 3194 4051 3194 3539 
Q 3194 3200 2986 2928 
Q 2778 2656 2323 2419 
Q 2874 2150 3107 1856 
Q 3341 1562 3341 1184 
Q 3341 621 2937 278 
Q 2534 -64 1843 -64 
z
M 1850 2637 
Q 2278 2816 2457 3030 
Q 2637 3245 2637 3520 
Q 2637 3834 2416 4006 
Q 2195 4179 1818 4179 
Q 1446 4179 1228 4003 
Q 1011 3827 1011 3520 
Q 1011 3322 1094 3171 
Q 1178 3021 1338 2906 
Q 1498 2784 1850 2637 
z
M 1830 384 
Q 2278 384 2534 595 
Q 2790 806 2790 1178 
Q 2790 1478 2547 1712 
Q 2304 1946 1728 2157 
Q 1280 1965 1072 1728 
Q 864 1491 864 1158 
Q 864 800 1123 592 
Q 1382 384 1830 384 
z
" transform="scale(0.015625)"/>
       </defs>
       <use xlink:href="#NotoNaskhArabic-Regular-4d5"/>
       <use xlink:href="#NotoNaskhArabic-Regular-4d4" transform="translate(57.203125 0)"/>
      </g>
     </g>
    </g>
    <g id="ytick_16">
     <g id="line2d_58">
      <g>
       <use xlink:href="#me45d45aef0" x="391.987656" y="60.202647" style="fill: #555555; stroke: #555555; stroke-width: 0.8"/>
      </g>
     </g>
     <g id="text_18">
      <!-- 99 -->
      <g style="fill: #555555" transform="translate(372.975 65.814897) scale(0.105 -0.105)">
       <use xlink:href="#NotoNaskhArabic-Regular-4d5"/>
       <use xlink:href="#NotoNaskhArabic-Regular-4d5" transform="translate(57.203125 0)"/>
      </g>
     </g>
    </g>
   </g>
   <g id="patch_48">
    <path d="M 391.987656 314.742886 
L 391.987656 24.23 
" style="fill: none; stroke: #1f2937; stroke-width: 0.8; stroke-linejoin: miter; stroke-linecap: square"/>
   </g>
   <g id="patch_49">
    <path d="M 391.987656 314.742886 
L 721.95 314.742886 
" style="fill: none; stroke: #1f2937; stroke-width: 0.8; stroke-linejoin: miter; stroke-linecap: square"/>
   </g>
   <g id="line2d_59">
    <path d="M 402.631603 46.569131 
L 402.631603 39.634389 
" clip-path="url(#pc5ca43201a)" style="fill: none; stroke: #1f8a56; stroke-width: 1.1; stroke-linecap: round"/>
   </g>
   <g id="line2d_60">
    <path d="M 413.275549 56.529115 
L 413.275549 49.532023 
" clip-path="url(#pc5ca43201a)" style="fill: none; stroke: #b91c1c; stroke-width: 1.1; stroke-linecap: round"/>
   </g>
   <g id="line2d_61">
    <path d="M 423.919496 79.402602 
L 423.919496 48.433384 
" clip-path="url(#pc5ca43201a)" style="fill: none; stroke: #b91c1c; stroke-width: 1.1; stroke-linecap: round"/>
   </g>
   <g id="line2d_62">
    <path d="M 434.563443 94.719414 
L 434.563443 74.830566 
" clip-path="url(#pc5ca43201a)" style="fill: none; stroke: #b91c1c; stroke-width: 1.1; stroke-linecap: round"/>
   </g>
   <g id="line2d_63">
    <path d="M 445.207389 96.734766 
L 445.207389 80.475617 
" clip-path="url(#pc5ca43201a)" style="fill: none; stroke: #b91c1c; stroke-width: 1.1; stroke-linecap: round"/>
   </g>
   <g id="line2d_64">
    <path d="M 455.851336 95.22666 
L 455.851336 77.643635 
" clip-path="url(#pc5ca43201a)" style="fill: none; stroke: #1f8a56; stroke-width: 1.1; stroke-linecap: round"/>
   </g>
   <g id="line2d_65">
    <path d="M 466.495282 79.276144 
L 466.495282 59.825841 
" clip-path="url(#pc5ca43201a)" style="fill: none; stroke: #1f8a56; stroke-width: 1.1; stroke-linecap: round"/>
   </g>
   <g id="line2d_66">
    <path d="M 477.139229 62.562706 
L 477.139229 56.923712 
" clip-path="url(#pc5ca43201a)" style="fill: none; stroke: #1f8a56; stroke-width: 1.1; stroke-linecap: round"/>
   </g>
   <g id="line2d_67">
    <path d="M 487.783175 61.643737 
L 487.783175 56.346002 
" clip-path="url(#pc5ca43201a)" style="fill: none; stroke: #1f8a56; stroke-width: 1.1; stroke-linecap: round"/>
   </g>
   <g id="line2d_68">
    <path d="M 498.427122 64.887079 
L 498.427122 56.612645 
" clip-path="url(#pc5ca43201a)" style="fill: none; stroke: #1f8a56; stroke-width: 1.1; stroke-linecap: round"/>
   </g>
   <g id="line2d_69">
    <path d="M 509.071069 66.425072 
L 509.071069 55.891408 
" clip-path="url(#pc5ca43201a)" style="fill: none; stroke: #1f8a56; stroke-width: 1.1; stroke-linecap: round"/>
   </g>
   <g id="line2d_70">
    <path d="M 519.715015 69.885258 
L 519.715015 58.448662 
" clip-path="url(#pc5ca43201a)" style="fill: none; stroke: #b91c1c; stroke-width: 1.1; stroke-linecap: round"/>
   </g>
   <g id="line2d_71">
    <path d="M 530.358962 92.716449 
L 530.358962 55.564282 
" clip-path="url(#pc5ca43201a)" style="fill: none; stroke: #b91c1c; stroke-width: 1.1; stroke-linecap: round"/>
   </g>
   <g id="line2d_72">
    <path d="M 541.002908 88.501343 
L 541.002908 67.435841 
" clip-path="url(#pc5ca43201a)" style="fill: none; stroke: #1f8a56; stroke-width: 1.1; stroke-linecap: round"/>
   </g>
   <g id="line2d_73">
    <path d="M 551.646855 78.672068 
L 551.646855 69.873457 
" clip-path="url(#pc5ca43201a)" style="fill: none; stroke: #1f8a56; stroke-width: 1.1; stroke-linecap: round"/>
   </g>
   <g id="line2d_74">
    <path d="M 562.290801 111.472624 
L 562.290801 56.014567 
" clip-path="url(#pc5ca43201a)" style="fill: none; stroke: #b91c1c; stroke-width: 1.1; stroke-linecap: round"/>
   </g>
   <g id="line2d_75">
    <path d="M 572.934748 123.086152 
L 572.934748 98.876043 
" clip-path="url(#pc5ca43201a)" style="fill: none; stroke: #b91c1c; stroke-width: 1.1; stroke-linecap: round"/>
   </g>
   <g id="line2d_76">
    <path d="M 583.578695 124.344245 
L 583.578695 115.586758 
" clip-path="url(#pc5ca43201a)" style="fill: none; stroke: #b91c1c; stroke-width: 1.1; stroke-linecap: round"/>
   </g>
   <g id="line2d_77">
    <path d="M 594.222641 139.09082 
L 594.222641 116.714056 
" clip-path="url(#pc5ca43201a)" style="fill: none; stroke: #b91c1c; stroke-width: 1.1; stroke-linecap: round"/>
   </g>
   <g id="line2d_78">
    <path d="M 604.866588 160.240799 
L 604.866588 134.968872 
" clip-path="url(#pc5ca43201a)" style="fill: none; stroke: #b91c1c; stroke-width: 1.1; stroke-linecap: round"/>
   </g>
   <g id="line2d_79">
    <path d="M 615.510534 197.012838 
L 615.510534 153.610176 
" clip-path="url(#pc5ca43201a)" style="fill: none; stroke: #b91c1c; stroke-width: 1.1; stroke-linecap: round"/>
   </g>
   <g id="line2d_80">
    <path d="M 626.154481 187.519478 
L 626.154481 177.699538 
" clip-path="url(#pc5ca43201a)" style="fill: none; stroke: #b91c1c; stroke-width: 1.1; stroke-linecap: round"/>
   </g>
   <g id="line2d_81">
    <path d="M 636.798427 220.722021 
L 636.798427 185.564546 
" clip-path="url(#pc5ca43201a)" style="fill: none; stroke: #b91c1c; stroke-width: 1.1; stroke-linecap: round"/>
   </g>
   <g id="line2d_82">
    <path d="M 647.442374 221.489294 
L 647.442374 210.052426 
" clip-path="url(#pc5ca43201a)" style="fill: none; stroke: #1f8a56; stroke-width: 1.1; stroke-linecap: round"/>
   </g>
   <g id="line2d_83">
    <path d="M 658.086321 252.107038 
L 658.086321 211.058348 
" clip-path="url(#pc5ca43201a)" style="fill: none; stroke: #b91c1c; stroke-width: 1.1; stroke-linecap: round"/>
   </g>
   <g id="line2d_84">
    <path d="M 668.730267 277.811485 
L 668.730267 241.284606 
" clip-path="url(#pc5ca43201a)" style="fill: none; stroke: #b91c1c; stroke-width: 1.1; stroke-linecap: round"/>
   </g>
   <g id="line2d_85">
    <path d="M 679.374214 284.565662 
L 679.374214 274.377158 
" clip-path="url(#pc5ca43201a)" style="fill: none; stroke: #b91c1c; stroke-width: 1.1; stroke-linecap: round"/>
   </g>
   <g id="line2d_86">
    <path d="M 690.01816 286.344703 
L 690.01816 274.040822 
" clip-path="url(#pc5ca43201a)" style="fill: none; stroke: #b91c1c; stroke-width: 1.1; stroke-linecap: round"/>
   </g>
   <g id="line2d_87">
    <path d="M 700.662107 295.53547 
L 700.662107 289.963698 
" clip-path="url(#pc5ca43201a)" style="fill: none; stroke: #b91c1c; stroke-width: 1.1; stroke-linecap: round"/>
   </g>
   <g id="line2d_88">
    <path d="M 711.306053 301.537755 
L 711.306053 291.236507 
" clip-path="url(#pc5ca43201a)" style="fill: none; stroke: #1f8a56; stroke-width: 1.1; stroke-linecap: round"/>
   </g>
   <g id="text_19">
    <!-- ​ﺎﺳﺎﻜﻌﻧﺍ ﺲﻴﻟ — ﻂﻘﻓ ﻂﻴﺴﺑ ﻂﺑﺎﻫ ﺢﻴﺤﺼﺗ -->
    <g style="fill: #b91c1c" transform="translate(493.32127 24.859023) scale(0.09 -0.09)">
     <defs>
      <path id="NotoNaskhArabic-Bold-38" d="M 0 58 
Q -51 58 -51 109 
L -51 762 
Q -51 813 0 813 
Q 320 813 640 867 
Q 960 922 1139 998 
Q 1075 1146 976 1328 
Q 877 1510 819 1613 
Q 755 1734 710 1833 
Q 666 1933 666 2016 
Q 666 2176 838 2361 
Q 1011 2547 1248 2669 
Q 1293 2470 1347 2217 
Q 1402 1965 1446 1702 
Q 1485 1504 1501 1376 
Q 1517 1248 1517 1184 
Q 1517 1037 1443 822 
Q 1370 608 1267 410 
Q 685 58 0 58 
z
M 1332 3020 
Q 1197 3129 1088 3225 
Q 980 3321 890 3417 
Q 1127 3635 1319 3865 
Q 1376 3801 1478 3705 
Q 1581 3609 1722 3468 
Q 1549 3232 1332 3020 
z
M 474 2924 
Q 199 3148 32 3328 
Q 141 3436 250 3548 
Q 359 3660 468 3769 
Q 583 3635 864 3372 
Q 704 3142 474 2924 
z
" transform="scale(0.015625)"/>
      <path id="NotoNaskhArabic-Bold-200" d="M 2650 -58 
Q 2221 -45 1821 51 
Q 1421 147 1120 307 
Q 659 58 0 58 
Q -51 58 -51 109 
L -51 774 
Q -51 813 0 813 
Q 122 819 240 819 
Q 358 819 480 826 
Q 282 1088 282 1382 
Q 282 1555 352 1753 
Q 422 1952 544 2128 
Q 666 2304 806 2400 
L 992 3066 
Q 1517 2938 1974 2589 
Q 2432 2240 2701 1754 
Q 2976 1280 2976 800 
Q 2976 653 2886 419 
Q 2797 186 2650 -58 
z
M 1171 979 
Q 1299 1043 1382 1196 
Q 1466 1350 1466 1536 
Q 1466 1690 1363 1808 
Q 1261 1926 1146 1926 
Q 915 1926 742 1658 
Q 710 1606 675 1536 
Q 640 1466 608 1389 
Q 730 1261 870 1158 
Q 1011 1056 1171 979 
z
M 2618 640 
Q 2509 928 2393 1152 
Q 2278 1376 2144 1549 
Q 2074 1651 1990 1734 
Q 1907 1818 1818 1888 
Q 1882 1722 1882 1517 
Q 1882 1101 1683 800 
Q 1850 755 2086 716 
Q 2323 678 2618 640 
z
" transform="scale(0.015625)"/>
      <path id="NotoNaskhArabic-Bold-26" d="M 0 58 
Q -51 58 -51 109 
L -51 762 
Q -51 813 0 813 
Q 320 813 640 867 
Q 960 922 1139 998 
Q 1075 1146 976 1328 
Q 877 1510 819 1613 
Q 755 1734 710 1833 
Q 666 1933 666 2016 
Q 666 2176 838 2361 
Q 1011 2547 1248 2669 
Q 1293 2470 1347 2217 
Q 1402 1965 1446 1702 
Q 1485 1504 1501 1376 
Q 1517 1248 1517 1184 
Q 1517 1037 1443 822 
Q 1370 608 1267 410 
Q 685 58 0 58 
z
M 916 -1427 
Q 743 -1286 621 -1171 
Q 500 -1056 416 -966 
Q 544 -838 666 -713 
Q 788 -589 903 -454 
Q 1069 -646 1364 -915 
Q 1293 -1017 1178 -1148 
Q 1063 -1280 916 -1427 
z
" transform="scale(0.015625)"/>
      <path id="NotoNaskhArabic-Bold-124" d="M 2573 0 
Q 2336 0 2038 13 
Q 1741 26 1488 48 
Q 1235 70 1120 102 
Q 1037 128 883 221 
Q 730 314 554 448 
Q 378 582 218 723 
L 314 998 
Q 922 851 1357 787 
Q 1421 870 1485 950 
Q 1549 1030 1613 1114 
Q 1549 1395 1494 1664 
Q 1440 1933 1389 2189 
Q 1312 2566 1245 2915 
Q 1178 3264 1114 3578 
Q 1107 3616 1104 3654 
Q 1101 3693 1101 3725 
Q 1101 3987 1289 4169 
Q 1478 4352 1754 4352 
Q 1811 4134 1875 3939 
Q 1939 3744 2010 3565 
L 1805 3411 
Q 1830 3123 1852 2835 
Q 1875 2547 1894 2253 
Q 1907 2074 1923 1891 
Q 1939 1709 1946 1523 
Q 2867 2560 3450 2560 
Q 3610 2560 3798 2470 
Q 3987 2381 4176 2233 
Q 4365 2086 4518 1901 
Q 4742 1632 4742 1446 
Q 4742 1210 4678 1037 
Q 5018 813 5434 813 
Q 5491 813 5491 762 
L 5491 109 
Q 5491 58 5434 58 
Q 5139 58 4848 189 
Q 4557 320 4333 557 
Q 4134 384 3846 259 
Q 3558 134 3228 67 
Q 2899 0 2573 0 
z
M 2637 704 
Q 3091 704 3494 809 
Q 3898 915 4378 1146 
Q 3802 1805 3290 1805 
Q 2733 1805 1811 736 
Q 2022 723 2230 713 
Q 2438 704 2637 704 
z
" transform="scale(0.015625)"/>
      <path id="NotoNaskhArabic-Bold-f9" d="M 1472 0 
Q 1165 0 736 205 
Q 608 141 406 99 
Q 205 58 0 58 
Q -51 58 -51 109 
L -51 762 
Q -51 813 0 813 
Q 294 813 441 851 
Q 589 890 678 979 
Q 749 1050 813 1149 
Q 877 1248 998 1466 
Q 1037 1536 1110 1581 
Q 1184 1626 1267 1626 
Q 1357 1626 1466 1555 
Q 1382 1363 1308 1171 
Q 1235 979 1158 781 
Q 1331 762 1504 762 
Q 1632 762 1709 771 
Q 1786 781 1965 832 
Q 2016 909 2096 1107 
Q 2176 1306 2317 1696 
Q 2349 1779 2432 1833 
Q 2515 1888 2630 1888 
Q 2765 1888 2854 1818 
Q 2816 1722 2736 1472 
Q 2656 1222 2509 742 
Q 2554 742 2595 742 
Q 2637 742 2682 736 
Q 2912 736 3142 806 
Q 3162 838 3194 915 
Q 3226 992 3283 1146 
Q 3322 1254 3379 1401 
Q 3437 1549 3507 1747 
Q 3546 1837 3632 1891 
Q 3718 1946 3827 1946 
Q 3942 1946 4045 1875 
Q 4006 1773 3942 1581 
Q 3878 1389 3750 986 
Q 4038 813 4518 813 
Q 4570 813 4570 762 
L 4570 109 
Q 4570 58 4518 58 
Q 4262 58 3993 170 
Q 3725 282 3578 442 
Q 3526 301 3468 201 
Q 3411 102 3226 51 
Q 3034 0 2758 0 
Q 2566 0 2240 141 
Q 2150 77 1923 38 
Q 1696 0 1472 0 
z
" transform="scale(0.015625)"/>
      <path id="NotoNaskhArabic-Bold-146" d="M 6 58 
Q -51 58 -51 115 
L -51 762 
Q -51 813 6 813 
Q 710 813 1196 857 
Q 1683 902 2061 1075 
Q 2048 1120 2029 1177 
Q 2010 1235 1978 1312 
Q 1824 1178 1638 1107 
Q 1453 1037 1229 1037 
Q 864 1037 685 1229 
Q 506 1421 506 1709 
Q 506 2029 624 2297 
Q 742 2566 941 2720 
Q 1043 2803 1158 2851 
Q 1274 2899 1395 2899 
Q 1658 2899 1904 2608 
Q 2150 2317 2285 1869 
Q 2349 1677 2377 1469 
Q 2406 1261 2406 1043 
Q 2406 832 2189 397 
Q 1875 275 1577 201 
Q 1280 128 912 93 
Q 544 58 6 58 
z
M 1318 1504 
Q 1568 1504 1856 1594 
Q 1734 1875 1593 2003 
Q 1453 2131 1254 2131 
Q 1056 2131 944 2032 
Q 832 1933 832 1811 
Q 832 1658 947 1581 
Q 1062 1504 1318 1504 
z
M 1388 3328 
Q 1062 3597 896 3789 
Q 1043 3936 1161 4061 
Q 1280 4186 1376 4301 
Q 1446 4224 1561 4109 
Q 1676 3994 1836 3840 
Q 1760 3732 1648 3604 
Q 1536 3476 1388 3328 
z
" transform="scale(0.015625)"/>
      <path id="NotoNaskhArabic-Bold-169" d="M 6 58 
Q -51 58 -51 115 
L -51 755 
Q -51 813 6 813 
Q 115 813 227 816 
Q 339 819 454 819 
Q 358 973 358 1114 
Q 358 1197 374 1337 
Q 390 1478 419 1606 
Q 448 1734 474 1786 
Q 595 2003 771 2179 
Q 947 2355 1152 2457 
Q 1357 2560 1549 2560 
Q 1722 2560 1898 2368 
Q 2074 2176 2182 1875 
Q 2291 1568 2291 1306 
Q 2291 1056 2150 819 
Q 2285 819 2422 816 
Q 2560 813 2694 813 
Q 2746 813 2746 762 
L 2746 109 
Q 2746 58 2694 58 
Q 1882 58 1325 269 
Q 1030 147 716 102 
Q 403 58 6 58 
z
M 1299 794 
Q 1690 902 1933 1107 
Q 1888 1280 1795 1446 
Q 1702 1613 1613 1696 
Q 1549 1773 1478 1773 
Q 1146 1773 704 1178 
Q 819 1043 979 944 
Q 1139 845 1299 794 
z
M 1888 3052 
Q 1753 3161 1644 3257 
Q 1536 3353 1446 3449 
Q 1683 3667 1875 3897 
Q 1932 3833 2034 3737 
Q 2137 3641 2278 3500 
Q 2105 3264 1888 3052 
z
M 1030 2956 
Q 755 3180 588 3360 
Q 697 3468 806 3580 
Q 915 3692 1024 3801 
Q 1139 3667 1420 3404 
Q 1260 3174 1030 2956 
z
" transform="scale(0.015625)"/>
      <path id="DejaVuSans-Bold-af6" d="M 344 2156 
L 6056 2156 
L 6056 1350 
L 344 1350 
L 344 2156 
z
" transform="scale(0.015625)"/>
      <path id="NotoNaskhArabic-Bold-f8" d="M 1606 -1613 
Q 1037 -1613 736 -1277 
Q 435 -941 435 -301 
Q 435 32 595 627 
L 877 557 
Q 787 256 787 45 
Q 787 -858 1626 -858 
Q 2131 -858 2486 -726 
Q 2842 -595 3181 -288 
Q 2931 134 2784 460 
Q 2637 787 2637 883 
Q 2637 1408 3283 1728 
Q 3296 1632 3312 1539 
Q 3328 1446 3357 1276 
Q 3386 1107 3443 774 
Q 3507 768 3568 765 
Q 3629 762 3693 762 
Q 3821 762 3923 781 
Q 4026 800 4154 832 
Q 4205 928 4326 1229 
Q 4371 1350 4416 1465 
Q 4461 1581 4506 1696 
Q 4582 1888 4819 1888 
Q 4947 1888 5043 1818 
Q 5011 1741 4937 1523 
Q 4864 1306 4755 947 
L 4691 742 
Q 4742 742 4784 742 
Q 4826 742 4870 736 
Q 5101 736 5325 806 
Q 5357 858 5401 966 
Q 5446 1075 5510 1248 
Q 5613 1517 5657 1651 
Q 5702 1786 5747 1837 
Q 5798 1888 5865 1917 
Q 5933 1946 6016 1946 
Q 6131 1946 6234 1875 
Q 6195 1786 6124 1562 
Q 6054 1338 5946 986 
L 6035 934 
Q 6163 877 6332 845 
Q 6502 813 6701 813 
Q 6758 813 6758 762 
L 6758 109 
Q 6758 58 6701 58 
Q 6445 58 6176 170 
Q 5907 282 5760 442 
L 5664 211 
Q 5632 128 5517 83 
Q 5402 38 5248 19 
Q 5094 0 4947 0 
Q 4755 0 4429 141 
Q 4346 83 4131 41 
Q 3917 0 3731 0 
Q 3578 0 3533 6 
L 3533 -45 
Q 3533 -474 3277 -838 
Q 3021 -1203 2579 -1408 
Q 2362 -1510 2115 -1561 
Q 1869 -1613 1606 -1613 
z
" transform="scale(0.015625)"/>
      <path id="NotoNaskhArabic-Bold-135" d="M 6 58 
Q -51 58 -51 115 
L -51 755 
Q -51 813 6 813 
Q 346 813 627 822 
Q 909 832 1126 870 
L 998 1030 
Q 909 1152 835 1235 
Q 762 1318 691 1382 
Q 640 1434 589 1478 
Q 538 1523 486 1568 
L 371 1485 
Q 198 1670 198 1894 
Q 198 2112 390 2272 
Q 582 2432 915 2554 
Q 1242 2669 1549 2669 
Q 1830 2669 2080 2547 
Q 2330 2426 2470 2208 
Q 2618 1990 2618 1760 
Q 2618 1530 2490 1306 
Q 2362 1082 2118 858 
Q 2291 832 2486 822 
Q 2682 813 2912 813 
Q 2976 813 2976 755 
L 2976 115 
Q 2976 58 2912 58 
Q 2464 58 2105 160 
Q 1747 262 1530 448 
Q 845 58 6 58 
z
M 1626 1062 
Q 1978 1293 1978 1613 
Q 1978 1773 1862 1865 
Q 1747 1958 1574 1958 
Q 1408 1958 1257 1926 
Q 1107 1894 902 1805 
Q 973 1741 1117 1603 
Q 1261 1466 1459 1248 
Q 1498 1203 1539 1158 
Q 1581 1114 1626 1062 
z
" transform="scale(0.015625)"/>
      <path id="NotoNaskhArabic-Bold-fa" d="M 1472 0 
Q 1165 0 736 205 
Q 608 141 406 99 
Q 205 58 0 58 
Q -51 58 -51 109 
L -51 762 
Q -51 813 0 813 
Q 294 813 441 851 
Q 589 890 678 979 
Q 749 1050 806 1142 
Q 864 1235 998 1466 
Q 1037 1536 1110 1581 
Q 1184 1626 1267 1626 
Q 1357 1626 1466 1555 
Q 1363 1286 1286 1091 
Q 1210 896 1158 781 
Q 1331 762 1504 762 
Q 1632 762 1734 778 
Q 1837 794 1965 832 
Q 2010 902 2093 1104 
Q 2176 1306 2317 1696 
Q 2349 1779 2432 1833 
Q 2515 1888 2630 1888 
Q 2765 1888 2854 1818 
Q 2778 1626 2710 1414 
Q 2643 1203 2586 992 
Q 2829 870 3133 806 
Q 3437 742 3782 704 
Q 3584 1094 3443 1376 
Q 3302 1658 3302 1798 
Q 3302 1952 3475 2141 
Q 3648 2330 3885 2451 
Q 3994 1907 4051 1603 
Q 4109 1299 4131 1145 
Q 4154 992 4154 909 
Q 4154 806 4112 633 
Q 4070 461 4006 288 
Q 3942 115 3885 0 
Q 3501 0 3097 89 
Q 2694 179 2355 326 
Q 2317 243 2278 173 
Q 2234 102 1994 51 
Q 1754 0 1472 0 
z
" transform="scale(0.015625)"/>
     </defs>
     <use xlink:href="#NotoNaskhArabic-Bold-38"/>
     <use xlink:href="#NotoNaskhArabic-Bold-111" transform="translate(27.5 0)"/>
     <use xlink:href="#NotoNaskhArabic-Bold-8b" transform="translate(112.09375 0)"/>
     <use xlink:href="#NotoNaskhArabic-Bold-240" transform="translate(177.796875 0)"/>
     <use xlink:href="#NotoNaskhArabic-Bold-8a" transform="translate(213.796875 0)"/>
     <use xlink:href="#NotoNaskhArabic-Bold-554" transform="translate(286.203125 0)"/>
     <use xlink:href="#NotoNaskhArabic-Bold-200" transform="translate(308.296875 0)"/>
     <use xlink:href="#NotoNaskhArabic-Bold-4" transform="translate(359.890625 0)"/>
     <use xlink:href="#NotoNaskhArabic-Bold-26" transform="translate(388.6875 0)"/>
     <use xlink:href="#NotoNaskhArabic-Bold-124" transform="translate(416.1875 0)"/>
     <use xlink:href="#NotoNaskhArabic-Bold-554" transform="translate(500.28125 0)"/>
     <use xlink:href="#NotoNaskhArabic-Bold-26" transform="translate(522.375 0)"/>
     <use xlink:href="#NotoNaskhArabic-Bold-f9" transform="translate(549.875 0)"/>
     <use xlink:href="#NotoNaskhArabic-Bold-240" transform="translate(619.578125 0)"/>
     <use xlink:href="#NotoNaskhArabic-Bold-124" transform="translate(655.578125 0)"/>
     <use xlink:href="#NotoNaskhArabic-Bold-554" transform="translate(739.671875 0)"/>
     <use xlink:href="#NotoNaskhArabic-Bold-146" transform="translate(761.765625 0)"/>
     <use xlink:href="#NotoNaskhArabic-Bold-169" transform="translate(804.46875 0)"/>
     <use xlink:href="#NotoNaskhArabic-Bold-124" transform="translate(845.671875 0)"/>
     <use xlink:href="#NotoNaskhArabic-Bold-554" transform="translate(929.765625 0)"/>
     <use xlink:href="#DejaVuSans-Bold-af6" transform="translate(951.859375 0)"/>
     <use xlink:href="#NotoNaskhArabic-Bold-554" transform="translate(1051.859375 0)"/>
     <use xlink:href="#NotoNaskhArabic-Bold-1c1" transform="translate(1073.953125 0)"/>
     <use xlink:href="#NotoNaskhArabic-Bold-240" transform="translate(1095.65625 0)"/>
     <use xlink:href="#NotoNaskhArabic-Bold-f8" transform="translate(1131.65625 0)"/>
     <use xlink:href="#NotoNaskhArabic-Bold-554" transform="translate(1235.5625 0)"/>
     <use xlink:href="#NotoNaskhArabic-Bold-3" transform="translate(1257.65625 0)"/>
     <use xlink:href="#NotoNaskhArabic-Bold-1ea" transform="translate(1286.0625 0)"/>
     <use xlink:href="#NotoNaskhArabic-Bold-135" transform="translate(1313.5625 0)"/>
     <use xlink:href="#NotoNaskhArabic-Bold-175" transform="translate(1358.359375 0)"/>
     <use xlink:href="#NotoNaskhArabic-Bold-4" transform="translate(1405.0625 0)"/>
     <use xlink:href="#NotoNaskhArabic-Bold-fa" transform="translate(1433.859375 0)"/>
     <use xlink:href="#NotoNaskhArabic-Bold-4" transform="translate(1503.859375 0)"/>
     <use xlink:href="#NotoNaskhArabic-Bold-554" transform="translate(1532.65625 0)"/>
    </g>
   </g>
   <g id="text_20">
    <!-- ​ﺖﻗﺆﻣ ﺢﻴﺤﺼﺗ :(LTF) ﺮﻐﺻﻷﺍ ﺭﺎﻃﻹﺍ -->
    <g style="fill: #1f2937" transform="translate(488.809453 17.89) scale(0.1 -0.1)">
     <defs>
      <path id="NotoNaskhArabic-Bold-13d" d="M 6 58 
Q -51 58 -51 115 
L -51 755 
Q -51 813 6 813 
Q 346 813 627 822 
Q 909 832 1126 870 
L 998 1030 
Q 909 1152 835 1235 
Q 762 1318 691 1382 
Q 640 1434 589 1478 
Q 538 1523 486 1568 
L 371 1485 
Q 198 1670 198 1894 
Q 198 2112 390 2272 
Q 582 2432 915 2554 
Q 1242 2669 1549 2669 
Q 1830 2669 2080 2547 
Q 2330 2426 2470 2208 
Q 2618 1990 2618 1760 
Q 2618 1530 2490 1306 
Q 2362 1082 2118 858 
Q 2291 832 2486 822 
Q 2682 813 2912 813 
Q 2976 813 2976 755 
L 2976 115 
Q 2976 58 2912 58 
Q 2464 58 2105 160 
Q 1747 262 1530 448 
Q 845 58 6 58 
z
M 1626 1062 
Q 1978 1293 1978 1613 
Q 1978 1773 1862 1865 
Q 1747 1958 1574 1958 
Q 1408 1958 1257 1926 
Q 1107 1894 902 1805 
Q 973 1741 1117 1603 
Q 1261 1466 1459 1248 
Q 1498 1203 1539 1158 
Q 1581 1114 1626 1062 
z
M 1465 3065 
Q 1139 3334 973 3526 
Q 1120 3673 1238 3798 
Q 1357 3923 1453 4038 
Q 1523 3961 1638 3846 
Q 1753 3731 1913 3577 
Q 1837 3469 1725 3341 
Q 1613 3213 1465 3065 
z
" transform="scale(0.015625)"/>
      <path id="DejaVuSans-Bold-2f" d="M 588 4666 
L 1791 4666 
L 1791 909 
L 3903 909 
L 3903 0 
L 588 0 
L 588 4666 
z
" transform="scale(0.015625)"/>
      <path id="NotoNaskhArabic-Bold-1e5" d="M 2349 0 
Q 1920 0 1488 99 
Q 1056 198 755 358 
Q 602 198 429 128 
Q 256 58 0 58 
Q -51 58 -51 109 
L -51 762 
Q -51 813 0 813 
Q 525 813 774 1286 
Q 890 1517 982 1680 
Q 1075 1843 1146 1939 
Q 1306 2157 1446 2249 
Q 1587 2342 1773 2342 
Q 2003 2342 2224 2102 
Q 2445 1862 2586 1466 
Q 2726 1082 2726 723 
Q 2726 557 2611 339 
Q 2496 122 2349 0 
z
M 2138 704 
Q 2112 941 2035 1142 
Q 1958 1344 1862 1466 
Q 1760 1587 1677 1587 
Q 1536 1587 1427 1472 
Q 1325 1363 1120 960 
Q 1325 870 1577 803 
Q 1830 736 2138 704 
z
" transform="scale(0.015625)"/>
      <path id="NotoNaskhArabic-Bold-221" d="M 1248 -1248 
Q 1171 -1248 1011 -1174 
Q 851 -1101 668 -982 
Q 486 -864 326 -730 
L 429 -461 
Q 602 -506 778 -528 
Q 954 -550 1133 -550 
Q 1536 -550 1862 -380 
Q 2189 -211 2368 64 
Q 2093 83 1894 102 
Q 1696 122 1574 147 
Q 838 307 838 1018 
Q 838 1370 972 1712 
Q 1107 2054 1325 2266 
Q 1549 2477 1766 2477 
Q 2029 2477 2262 2240 
Q 2496 2003 2650 1626 
Q 2720 1446 2768 1241 
Q 2816 1037 2835 813 
L 3181 813 
Q 3232 813 3232 762 
L 3232 109 
Q 3232 58 3181 58 
L 2784 58 
Q 2669 -365 2419 -669 
Q 2170 -973 1843 -1120 
Q 1555 -1248 1248 -1248 
z
M 2419 819 
Q 2285 1254 2077 1484 
Q 1869 1715 1626 1715 
Q 1504 1715 1401 1651 
Q 1299 1587 1235 1498 
Q 1178 1402 1178 1293 
Q 1178 941 1805 858 
Q 1952 838 2419 819 
z
M 1207 2758 
L 1184 3081 
L 1460 3242 
Q 1215 3334 1215 3542 
Q 1215 3680 1299 3818 
Q 1383 3956 1510 4052 
Q 1637 4148 1753 4148 
Q 2036 4148 2036 3802 
Q 2036 3687 2006 3626 
L 1852 3648 
L 1852 3672 
Q 1852 3741 1760 3741 
Q 1591 3741 1491 3549 
Q 1629 3411 1875 3411 
Q 1936 3411 2013 3418 
Q 2090 3426 2175 3442 
L 2144 3104 
Q 1868 3042 1679 2977 
Q 1491 2912 1207 2758 
z
" transform="scale(0.015625)"/>
      <path id="NotoNaskhArabic-Bold-16a" d="M 6 58 
Q -51 58 -51 115 
L -51 762 
Q -51 813 6 813 
Q 710 813 1196 857 
Q 1683 902 2061 1075 
Q 2048 1120 2029 1177 
Q 2010 1235 1978 1312 
Q 1824 1178 1638 1107 
Q 1453 1037 1229 1037 
Q 864 1037 685 1229 
Q 506 1421 506 1709 
Q 506 2029 624 2297 
Q 742 2566 941 2720 
Q 1043 2803 1158 2851 
Q 1274 2899 1395 2899 
Q 1658 2899 1904 2608 
Q 2150 2317 2285 1869 
Q 2349 1677 2377 1469 
Q 2406 1261 2406 1043 
Q 2406 832 2189 397 
Q 1875 275 1577 201 
Q 1280 128 912 93 
Q 544 58 6 58 
z
M 1318 1504 
Q 1568 1504 1856 1594 
Q 1734 1875 1593 2003 
Q 1453 2131 1254 2131 
Q 1056 2131 944 2032 
Q 832 1933 832 1811 
Q 832 1658 947 1581 
Q 1062 1504 1318 1504 
z
M 1818 3296 
Q 1683 3405 1574 3501 
Q 1466 3597 1376 3693 
Q 1613 3911 1805 4141 
Q 1862 4077 1964 3981 
Q 2067 3885 2208 3744 
Q 2035 3508 1818 3296 
z
M 960 3200 
Q 685 3424 518 3604 
Q 627 3712 736 3824 
Q 845 3936 954 4045 
Q 1069 3911 1350 3648 
Q 1190 3418 960 3200 
z
" transform="scale(0.015625)"/>
      <path id="NotoNaskhArabic-Bold-36" d="M 2010 0 
Q 448 0 448 1363 
Q 448 1638 570 2067 
L 858 2067 
Q 851 2042 844 1926 
Q 838 1811 838 1747 
Q 838 1376 982 1174 
Q 1126 973 1434 864 
Q 1587 819 1792 790 
Q 1997 762 2246 762 
Q 2918 762 3404 845 
Q 3891 928 4070 1069 
Q 4134 1126 4182 1200 
Q 4230 1274 4301 1434 
Q 4390 1626 4467 1677 
Q 4544 1728 4646 1728 
Q 4794 1728 4902 1638 
Q 4838 1466 4768 1302 
Q 4698 1139 4608 986 
Q 4774 902 4928 857 
Q 5082 813 5293 813 
Q 5344 813 5344 762 
L 5344 109 
Q 5344 58 5293 58 
Q 5050 58 4816 166 
Q 4582 275 4314 544 
Q 3994 288 3376 144 
Q 2758 0 2010 0 
z
M 2880 2278 
Q 2745 2387 2636 2483 
Q 2528 2579 2438 2675 
Q 2675 2893 2867 3123 
Q 2924 3059 3026 2963 
Q 3129 2867 3270 2726 
Q 3097 2490 2880 2278 
z
M 2022 2182 
Q 1747 2406 1580 2586 
Q 1689 2694 1798 2806 
Q 1907 2918 2016 3027 
Q 2131 2893 2412 2630 
Q 2252 2400 2022 2182 
z
" transform="scale(0.015625)"/>
     </defs>
     <use xlink:href="#NotoNaskhArabic-Bold-3"/>
     <use xlink:href="#NotoNaskhArabic-Bold-2ea" transform="translate(28.40625 0)"/>
     <use xlink:href="#NotoNaskhArabic-Bold-126" transform="translate(83 0)"/>
     <use xlink:href="#NotoNaskhArabic-Bold-4" transform="translate(152.296875 0)"/>
     <use xlink:href="#NotoNaskhArabic-Bold-d3" transform="translate(181.09375 0)"/>
     <use xlink:href="#NotoNaskhArabic-Bold-554" transform="translate(218.796875 0)"/>
     <use xlink:href="#NotoNaskhArabic-Bold-3" transform="translate(240.890625 0)"/>
     <use xlink:href="#NotoNaskhArabic-Bold-2e8" transform="translate(269.296875 0)"/>
     <use xlink:href="#NotoNaskhArabic-Bold-112" transform="translate(323.890625 0)"/>
     <use xlink:href="#NotoNaskhArabic-Bold-13d" transform="translate(403.390625 0)"/>
     <use xlink:href="#NotoNaskhArabic-Bold-d4" transform="translate(448.1875 0)"/>
     <use xlink:href="#NotoNaskhArabic-Bold-554" transform="translate(487.6875 0)"/>
     <use xlink:href="#DejaVuSans-Bold-b" transform="translate(509.78125 0)"/>
     <use xlink:href="#DejaVuSans-Bold-2f" transform="translate(555.484375 0)"/>
     <use xlink:href="#DejaVuSans-Bold-37" transform="translate(602.65625 0)"/>
     <use xlink:href="#DejaVuSans-Bold-29" transform="translate(670.875 0)"/>
     <use xlink:href="#DejaVuSans-Bold-c" transform="translate(739.1875 0)"/>
     <use xlink:href="#NotoNaskhArabic-Bold-516" transform="translate(784.890625 0)"/>
     <use xlink:href="#NotoNaskhArabic-Bold-554" transform="translate(812.296875 0)"/>
     <use xlink:href="#NotoNaskhArabic-Bold-38" transform="translate(834.390625 0)"/>
     <use xlink:href="#NotoNaskhArabic-Bold-111" transform="translate(861.890625 0)"/>
     <use xlink:href="#NotoNaskhArabic-Bold-8b" transform="translate(946.484375 0)"/>
     <use xlink:href="#NotoNaskhArabic-Bold-240" transform="translate(1012.1875 0)"/>
     <use xlink:href="#NotoNaskhArabic-Bold-8a" transform="translate(1048.1875 0)"/>
     <use xlink:href="#NotoNaskhArabic-Bold-554" transform="translate(1120.59375 0)"/>
     <use xlink:href="#NotoNaskhArabic-Bold-1e5" transform="translate(1142.6875 0)"/>
     <use xlink:href="#NotoNaskhArabic-Bold-221" transform="translate(1189.984375 0)"/>
     <use xlink:href="#NotoNaskhArabic-Bold-16a" transform="translate(1238.78125 0)"/>
     <use xlink:href="#NotoNaskhArabic-Bold-36" transform="translate(1281.484375 0)"/>
     <use xlink:href="#NotoNaskhArabic-Bold-554" transform="translate(1363.1875 0)"/>
    </g>
   </g>
   <g id="patch_50">
    <path d="M 399.704518 45.292233 
L 405.558688 45.292233 
L 405.558688 37.435131 
L 399.704518 37.435131 
z
" clip-path="url(#pc5ca43201a)" style="fill: #1f8a56; stroke: #1f8a56; stroke-linejoin: miter"/>
   </g>
   <g id="patch_51">
    <path d="M 410.348464 51.223599 
L 416.202635 51.223599 
L 416.202635 43.366497 
L 410.348464 43.366497 
z
" clip-path="url(#pc5ca43201a)" style="fill: #b91c1c; stroke: #b91c1c; stroke-linejoin: miter"/>
   </g>
   <g id="patch_52">
    <path d="M 420.992411 77.815837 
L 426.846581 77.815837 
L 426.846581 50.543099 
L 420.992411 50.543099 
z
" clip-path="url(#pc5ca43201a)" style="fill: #b91c1c; stroke: #b91c1c; stroke-linejoin: miter"/>
   </g>
   <g id="patch_53">
    <path d="M 431.636357 89.227596 
L 437.490528 89.227596 
L 437.490528 79.384164 
L 431.636357 79.384164 
z
" clip-path="url(#pc5ca43201a)" style="fill: #b91c1c; stroke: #b91c1c; stroke-linejoin: miter"/>
   </g>
   <g id="patch_54">
    <path d="M 442.280304 95.52455 
L 448.134474 95.52455 
L 448.134474 83.630491 
L 442.280304 83.630491 
z
" clip-path="url(#pc5ca43201a)" style="fill: #b91c1c; stroke: #b91c1c; stroke-linejoin: miter"/>
   </g>
   <g id="patch_55">
    <path d="M 452.92425 91.532839 
L 458.778421 91.532839 
L 458.778421 79.097044 
L 452.92425 79.097044 
z
" clip-path="url(#pc5ca43201a)" style="fill: #1f8a56; stroke: #1f8a56; stroke-linejoin: miter"/>
   </g>
   <g id="patch_56">
    <path d="M 463.568197 75.149167 
L 469.422368 75.149167 
L 469.422368 62.679512 
L 463.568197 62.679512 
z
" clip-path="url(#pc5ca43201a)" style="fill: #1f8a56; stroke: #1f8a56; stroke-linejoin: miter"/>
   </g>
   <g id="patch_57">
    <path d="M 474.212144 60.855297 
L 480.066314 60.855297 
L 480.066314 52.998195 
L 474.212144 52.998195 
z
" clip-path="url(#pc5ca43201a)" style="fill: #1f8a56; stroke: #1f8a56; stroke-linejoin: miter"/>
   </g>
   <g id="patch_58">
    <path d="M 484.85609 60.639732 
L 490.710261 60.639732 
L 490.710261 52.78263 
L 484.85609 52.78263 
z
" clip-path="url(#pc5ca43201a)" style="fill: #1f8a56; stroke: #1f8a56; stroke-linejoin: miter"/>
   </g>
   <g id="patch_59">
    <path d="M 495.500037 64.500859 
L 501.354207 64.500859 
L 501.354207 56.643756 
L 495.500037 56.643756 
z
" clip-path="url(#pc5ca43201a)" style="fill: #1f8a56; stroke: #1f8a56; stroke-linejoin: miter"/>
   </g>
   <g id="patch_60">
    <path d="M 506.143983 62.984732 
L 511.998154 62.984732 
L 511.998154 55.12763 
L 506.143983 55.12763 
z
" clip-path="url(#pc5ca43201a)" style="fill: #1f8a56; stroke: #1f8a56; stroke-linejoin: miter"/>
   </g>
   <g id="patch_61">
    <path d="M 516.78793 67.156696 
L 522.6421 67.156696 
L 522.6421 59.124075 
L 516.78793 59.124075 
z
" clip-path="url(#pc5ca43201a)" style="fill: #b91c1c; stroke: #b91c1c; stroke-linejoin: miter"/>
   </g>
   <g id="patch_62">
    <path d="M 527.431876 89.381367 
L 533.286047 89.381367 
L 533.286047 56.095573 
L 527.431876 56.095573 
z
" clip-path="url(#pc5ca43201a)" style="fill: #b91c1c; stroke: #b91c1c; stroke-linejoin: miter"/>
   </g>
   <g id="patch_63">
    <path d="M 538.075823 87.77411 
L 543.929994 87.77411 
L 543.929994 69.641103 
L 538.075823 69.641103 
z
" clip-path="url(#pc5ca43201a)" style="fill: #1f8a56; stroke: #1f8a56; stroke-linejoin: miter"/>
   </g>
   <g id="patch_64">
    <path d="M 548.71977 73.005448 
L 554.57394 73.005448 
L 554.57394 65.148346 
L 548.71977 65.148346 
z
" clip-path="url(#pc5ca43201a)" style="fill: #1f8a56; stroke: #1f8a56; stroke-linejoin: miter"/>
   </g>
   <g id="patch_65">
    <path d="M 559.363716 107.907855 
L 565.217887 107.907855 
L 565.217887 59.990516 
L 559.363716 59.990516 
z
" clip-path="url(#pc5ca43201a)" style="fill: #b91c1c; stroke: #b91c1c; stroke-linejoin: miter"/>
   </g>
   <g id="patch_66">
    <path d="M 570.007663 121.968907 
L 575.861833 121.968907 
L 575.861833 102.858678 
L 570.007663 102.858678 
z
" clip-path="url(#pc5ca43201a)" style="fill: #b91c1c; stroke: #b91c1c; stroke-linejoin: miter"/>
   </g>
   <g id="patch_67">
    <path d="M 580.651609 120.861541 
L 586.50578 120.861541 
L 586.50578 113.004439 
L 580.651609 113.004439 
z
" clip-path="url(#pc5ca43201a)" style="fill: #b91c1c; stroke: #b91c1c; stroke-linejoin: miter"/>
   </g>
   <g id="patch_68">
    <path d="M 591.295556 136.884003 
L 597.149726 136.884003 
L 597.149726 121.201194 
L 591.295556 121.201194 
z
" clip-path="url(#pc5ca43201a)" style="fill: #b91c1c; stroke: #b91c1c; stroke-linejoin: miter"/>
   </g>
   <g id="patch_69">
    <path d="M 601.939502 159.324301 
L 607.793673 159.324301 
L 607.793673 140.129022 
L 601.939502 140.129022 
z
" clip-path="url(#pc5ca43201a)" style="fill: #b91c1c; stroke: #b91c1c; stroke-linejoin: miter"/>
   </g>
   <g id="patch_70">
    <path d="M 612.583449 190.131615 
L 618.43762 190.131615 
L 618.43762 155.960248 
L 612.583449 155.960248 
z
" clip-path="url(#pc5ca43201a)" style="fill: #b91c1c; stroke: #b91c1c; stroke-linejoin: miter"/>
   </g>
   <g id="patch_71">
    <path d="M 623.227396 185.34792 
L 629.081566 185.34792 
L 629.081566 177.490818 
L 623.227396 177.490818 
z
" clip-path="url(#pc5ca43201a)" style="fill: #b91c1c; stroke: #b91c1c; stroke-linejoin: miter"/>
   </g>
   <g id="patch_72">
    <path d="M 633.871342 220.366969 
L 639.725513 220.366969 
L 639.725513 189.813828 
L 633.871342 189.813828 
z
" clip-path="url(#pc5ca43201a)" style="fill: #b91c1c; stroke: #b91c1c; stroke-linejoin: miter"/>
   </g>
   <g id="patch_73">
    <path d="M 644.515289 221.200321 
L 650.369459 221.200321 
L 650.369459 213.343219 
L 644.515289 213.343219 
z
" clip-path="url(#pc5ca43201a)" style="fill: #1f8a56; stroke: #1f8a56; stroke-linejoin: miter"/>
   </g>
   <g id="patch_74">
    <path d="M 655.159235 251.056176 
L 661.013406 251.056176 
L 661.013406 215.343006 
L 655.159235 215.343006 
z
" clip-path="url(#pc5ca43201a)" style="fill: #b91c1c; stroke: #b91c1c; stroke-linejoin: miter"/>
   </g>
   <g id="patch_75">
    <path d="M 665.803182 275.878253 
L 671.657352 275.878253 
L 671.657352 245.565503 
L 665.803182 245.565503 
z
" clip-path="url(#pc5ca43201a)" style="fill: #b91c1c; stroke: #b91c1c; stroke-linejoin: miter"/>
   </g>
   <g id="patch_76">
    <path d="M 676.447128 280.039076 
L 682.301299 280.039076 
L 682.301299 272.181974 
L 676.447128 272.181974 
z
" clip-path="url(#pc5ca43201a)" style="fill: #b91c1c; stroke: #b91c1c; stroke-linejoin: miter"/>
   </g>
   <g id="patch_77">
    <path d="M 687.091075 284.468433 
L 692.945246 284.468433 
L 692.945246 274.178251 
L 687.091075 274.178251 
z
" clip-path="url(#pc5ca43201a)" style="fill: #b91c1c; stroke: #b91c1c; stroke-linejoin: miter"/>
   </g>
   <g id="patch_78">
    <path d="M 697.735022 293.9644 
L 703.589192 293.9644 
L 703.589192 286.107298 
L 697.735022 286.107298 
z
" clip-path="url(#pc5ca43201a)" style="fill: #b91c1c; stroke: #b91c1c; stroke-linejoin: miter"/>
   </g>
   <g id="patch_79">
    <path d="M 708.378968 298.465465 
L 714.233139 298.465465 
L 714.233139 290.608363 
L 708.378968 290.608363 
z
" clip-path="url(#pc5ca43201a)" style="fill: #1f8a56; stroke: #1f8a56; stroke-linejoin: miter"/>
   </g>
  </g>
 </g>
 <defs>
  <clipPath id="p15d75f616e">
   <rect x="40.387656" y="24.23" width="329.962344" height="290.512886"/>
  </clipPath>
  <clipPath id="pc5ca43201a">
   <rect x="391.987656" y="24.23" width="329.962344" height="290.512886"/>
  </clipPath>
 </defs>
</svg>
