<?xml version="1.0" encoding="utf-8" standalone="no"?>
<!DOCTYPE svg PUBLIC "-//W3C//DTD SVG 1.1//EN"
  "http://www.w3.org/Graphics/SVG/1.1/DTD/svg11.dtd">
<svg xmlns:xlink="http://www.w3.org/1999/xlink" width="628.35pt" height="297.15pt" viewBox="0 0 628.35 297.15" xmlns="http://www.w3.org/2000/svg" version="1.1">
 <metadata>
  <rdf:RDF xmlns:dc="http://purl.org/dc/elements/1.1/" xmlns:cc="http://creativecommons.org/ns#" xmlns:rdf="http://www.w3.org/1999/02/22-rdf-syntax-ns#">
   <cc:Work>
    <dc:type rdf:resource="http://purl.org/dc/dcmitype/StillImage"/>
    <dc:date>2026-07-18T23:49:07.375268</dc:date>
    <dc:format>image/svg+xml</dc:format>
    <dc:creator>
     <cc:Agent>
      <dc:title>Matplotlib v3.11.1, https://matplotlib.org/</dc:title>
     </cc:Agent>
    </dc:creator>
   </cc:Work>
  </rdf:RDF>
 </metadata>
 <defs>
  <style type="text/css">*{stroke-linejoin: round; stroke-linecap: butt}</style>
 </defs>
 <g id="figure_1">
  <g id="patch_1">
   <path d="M 0 297.15 
L 628.35 297.15 
L 628.35 0 
L 0 0 
z
" style="fill: #ffffff"/>
  </g>
  <g id="axes_1">
   <g id="patch_2">
    <path d="M 44.037 219.2625 
L 154.548 219.2625 
L 154.548 127.36875 
L 44.037 127.36875 
z
" clip-path="url(#p02913a570d)" style="fill: #1f2937; opacity: 0.15; stroke: #1f2937; stroke-width: 1.8; stroke-linejoin: miter"/>
   </g>
   <g id="patch_3">
    <path d="M 191.385 219.2625 
L 301.896 219.2625 
L 301.896 127.36875 
L 191.385 127.36875 
z
" clip-path="url(#p02913a570d)" style="fill: #b7791f; opacity: 0.15; stroke: #b7791f; stroke-width: 1.8; stroke-linejoin: miter"/>
   </g>
   <g id="patch_4">
    <path d="M 338.733 219.2625 
L 449.244 219.2625 
L 449.244 127.36875 
L 338.733 127.36875 
z
" clip-path="url(#p02913a570d)" style="fill: #b91c1c; opacity: 0.15; stroke: #b91c1c; stroke-width: 1.8; stroke-linejoin: miter"/>
   </g>
   <g id="patch_5">
    <path d="M 486.081 219.2625 
L 596.592 219.2625 
L 596.592 127.36875 
L 486.081 127.36875 
z
" clip-path="url(#p02913a570d)" style="fill: #1f8a56; opacity: 0.15; stroke: #1f8a56; stroke-width: 1.8; stroke-linejoin: miter"/>
   </g>
   <g id="patch_6">
    <path d="M 156.549033 173.315625 
Q 172.965568 173.315625 187.146034 173.315625 
" clip-path="url(#p02913a570d)" style="fill: none; stroke: #8a8f98; stroke-width: 2; stroke-linecap: round"/>
    <path d="M 181.546034 170.515625 
L 187.146034 173.315625 
L 181.546034 176.115625 
z
" clip-path="url(#p02913a570d)" style="fill: #8a8f98; stroke: #8a8f98; stroke-width: 2; stroke-linecap: round"/>
   </g>
   <g id="patch_7">
    <path d="M 303.897033 173.315625 
Q 320.313568 173.315625 334.494034 173.315625 
" clip-path="url(#p02913a570d)" style="fill: none; stroke: #8a8f98; stroke-width: 2; stroke-linecap: round"/>
    <path d="M 328.894034 170.515625 
L 334.494034 173.315625 
L 328.894034 176.115625 
z
" clip-path="url(#p02913a570d)" style="fill: #8a8f98; stroke: #8a8f98; stroke-width: 2; stroke-linecap: round"/>
   </g>
   <g id="patch_8">
    <path d="M 451.245033 173.315625 
Q 467.661568 173.315625 481.842034 173.315625 
" clip-path="url(#p02913a570d)" style="fill: none; stroke: #8a8f98; stroke-width: 2; stroke-linecap: round"/>
    <path d="M 476.242034 170.515625 
L 481.842034 173.315625 
L 476.242034 176.115625 
z
" clip-path="url(#p02913a570d)" style="fill: #8a8f98; stroke: #8a8f98; stroke-width: 2; stroke-linecap: round"/>
   </g>
   <g id="text_1">
    <!-- (ﺔﻄﻘﻨﻟﺍ ﺔﻤﻴﻗ × ﻒﻗﻮﻟﺍ ﺔﻓﺎﺴﻣ) ÷ (ﺓﺮﻃﺎﺨﻤﻟﺍ ﺔﺒﺴﻧ × ﻝﺎﻤﻟﺍ ﺱﺃﺭ) = ﺰﻛﺮﻤﻟﺍ ﻢﺠﺣ -->
    <g style="fill: #1f2937" transform="translate(137.145937 56.68125) scale(0.12 -0.12)">
     <defs>
      <path id="NotoNaskhArabic-Bold-8c" d="M 0 58 
Q -51 58 -51 109 
L -51 762 
Q -51 813 0 813 
Q 467 813 793 829 
Q 1120 845 1427 934 
Q 1702 1018 1897 1069 
Q 2093 1120 2202 1146 
Q 2112 1197 2025 1251 
Q 1939 1306 1856 1363 
Q 1651 1504 1513 1558 
Q 1376 1613 1235 1613 
Q 1043 1613 870 1558 
Q 698 1504 480 1363 
Q 422 1421 377 1533 
Q 333 1645 333 1747 
Q 333 2029 582 2205 
Q 832 2381 1210 2381 
Q 1414 2381 1603 2310 
Q 1792 2240 2029 2080 
Q 2317 1882 2560 1763 
Q 2803 1645 3136 1555 
Q 3302 1517 3500 1494 
Q 3699 1472 3936 1472 
L 3603 794 
Q 3405 813 3273 825 
Q 3142 838 2963 826 
Q 2739 806 2483 704 
Q 2227 602 1990 467 
Q 1741 320 1533 237 
Q 1325 154 1107 115 
Q 890 77 624 67 
Q 358 58 0 58 
z
" transform="scale(0.015625)"/>
      <path id="NotoNaskhArabic-Bold-73" d="M 0 58 
Q -51 58 -51 109 
L -51 762 
Q -51 813 0 813 
Q 467 813 793 829 
Q 1120 845 1427 934 
Q 1702 1018 1897 1069 
Q 2093 1120 2202 1146 
Q 2118 1197 2032 1251 
Q 1946 1306 1856 1363 
Q 1651 1498 1513 1555 
Q 1376 1613 1235 1613 
Q 1043 1613 870 1558 
Q 698 1504 480 1363 
Q 422 1421 377 1533 
Q 333 1645 333 1747 
Q 333 2029 582 2205 
Q 832 2381 1210 2381 
Q 1414 2381 1603 2310 
Q 1792 2240 2029 2080 
Q 2317 1882 2560 1763 
Q 2803 1645 3136 1555 
Q 3302 1517 3500 1494 
Q 3699 1472 3936 1472 
L 3654 934 
Q 3578 941 3501 941 
Q 3424 941 3347 947 
Q 3411 890 3488 867 
Q 3565 845 3661 832 
Q 3808 826 3965 822 
Q 4122 819 4262 813 
Q 4314 813 4314 762 
L 4314 109 
Q 4314 58 4262 58 
Q 4032 58 3782 80 
Q 3533 102 3325 150 
Q 3117 198 3021 262 
Q 2893 358 2838 537 
Q 2784 717 2746 877 
Q 2624 851 2525 803 
Q 2426 755 2304 675 
Q 2182 595 1990 467 
Q 1683 262 1395 176 
Q 1107 90 774 74 
Q 442 58 0 58 
z
M 2208 -1107 
Q 2035 -966 1913 -851 
Q 1792 -736 1708 -646 
Q 1836 -518 1958 -393 
Q 2080 -269 2195 -134 
Q 2361 -326 2656 -595 
Q 2585 -697 2470 -828 
Q 2355 -960 2208 -1107 
z
" transform="scale(0.015625)"/>
      <path id="NotoNaskhArabic-Bold-1e3" d="M 570 -1965 
Q 570 -1664 554 -1296 
Q 538 -928 506 -486 
Q 467 -45 451 240 
Q 435 525 435 653 
Q 435 723 493 896 
Q 525 979 576 1107 
Q 627 1235 704 1402 
Q 723 1434 857 1539 
Q 992 1645 1181 1776 
Q 1370 1907 1542 2010 
Q 1811 2157 2054 2249 
Q 2298 2342 2477 2342 
Q 2592 2342 2678 2227 
Q 2765 2112 2842 1946 
Q 2874 1862 2912 1769 
Q 2950 1677 2982 1581 
Q 3053 1382 3139 1209 
Q 3226 1037 3328 928 
Q 3437 813 3590 813 
Q 3661 813 3661 755 
L 3661 128 
Q 3661 58 3590 58 
Q 3277 58 3014 301 
L 2931 0 
Q 2445 0 2064 93 
Q 1683 186 1462 362 
Q 1242 538 1242 774 
Q 1242 998 1318 1216 
Q 1242 1171 1117 1081 
Q 992 992 819 864 
Q 870 531 928 182 
Q 986 -166 1069 -672 
Q 1120 -979 1158 -1212 
Q 1197 -1446 1216 -1600 
Q 877 -1856 570 -1965 
z
M 2726 710 
Q 2515 1133 2458 1664 
Q 1920 1453 1606 1082 
Q 1939 806 2726 710 
z
" transform="scale(0.015625)"/>
      <path id="NotoNaskhArabic-Bold-554" transform="scale(0.015625)"/>
      <path id="NotoNaskhArabic-Bold-3" d="M 774 58 
Q 742 717 710 1216 
Q 678 1715 646 2134 
Q 614 2554 576 2950 
Q 538 3347 493 3808 
Q 474 3968 566 4089 
Q 659 4211 822 4281 
Q 986 4352 1178 4352 
Q 1229 4154 1296 3955 
Q 1363 3757 1440 3565 
L 1216 3398 
Q 1229 2867 1222 2035 
Q 1216 1203 1184 109 
L 774 58 
z
" transform="scale(0.015625)"/>
      <path id="NotoNaskhArabic-Bold-1c1" d="M 0 58 
Q -51 58 -51 109 
L -51 762 
Q -51 813 0 813 
Q 282 813 672 960 
Q 646 1146 624 1334 
Q 602 1523 570 1709 
Q 544 1894 441 2448 
Q 339 3002 173 3930 
Q 339 4045 534 4147 
Q 730 4250 934 4352 
Q 947 3827 960 3356 
Q 973 2886 986 2477 
Q 998 2067 1004 1718 
Q 1011 1370 1011 1069 
Q 1011 634 762 256 
Q 698 166 490 112 
Q 282 58 0 58 
z
" transform="scale(0.015625)"/>
      <path id="NotoNaskhArabic-Bold-1e4" d="M 2016 0 
Q 1606 0 1257 73 
Q 909 147 685 269 
Q 506 147 346 102 
Q 186 58 0 58 
Q -51 58 -51 109 
L -51 762 
Q -51 813 0 813 
Q 160 813 333 858 
Q 333 870 336 886 
Q 339 902 339 922 
Q 384 1261 573 1597 
Q 762 1933 1018 2131 
Q 1286 2342 1568 2342 
Q 1696 2342 1811 2176 
Q 1862 2093 1929 1942 
Q 1997 1792 2074 1581 
Q 2227 1133 2394 960 
Q 2528 813 2682 813 
Q 2752 813 2752 755 
L 2752 128 
Q 2752 58 2682 58 
Q 2362 58 2106 301 
L 2016 0 
z
M 1818 710 
Q 1606 1133 1549 1664 
Q 979 1440 698 1082 
Q 877 941 1155 851 
Q 1434 762 1818 710 
z
" transform="scale(0.015625)"/>
      <path id="NotoNaskhArabic-Bold-d4" d="M 653 -1248 
Q 544 -1248 304 -1107 
Q 64 -966 -218 -730 
L -115 -461 
Q 243 -550 531 -550 
Q 1005 -550 1331 -313 
Q 1658 -77 1805 371 
Q 1760 467 1705 566 
Q 1651 666 1587 762 
Q 1299 1203 1203 1414 
Q 1107 1626 1107 1779 
Q 1107 1965 1254 2147 
Q 1402 2330 1638 2451 
Q 1670 2330 1705 2208 
Q 1741 2086 1786 1958 
Q 1926 1555 2006 1299 
Q 2086 1043 2106 934 
Q 2323 813 2586 813 
Q 2637 813 2637 762 
L 2637 109 
Q 2637 58 2586 58 
Q 2349 58 2112 179 
Q 2042 -243 1837 -566 
Q 1632 -890 1328 -1069 
Q 1024 -1248 653 -1248 
z
" transform="scale(0.015625)"/>
      <path id="NotoNaskhArabic-Bold-176" d="M 0 58 
Q -51 58 -51 109 
L -51 762 
Q -51 813 0 813 
Q 845 813 1293 870 
Q 1517 896 1680 937 
Q 1843 979 1952 1030 
Q 1882 1178 1731 1347 
Q 1581 1517 1363 1677 
Q 1254 1766 1094 1872 
Q 934 1978 723 2099 
Q 653 2074 557 2074 
Q 378 2074 246 2195 
Q 115 2317 115 2490 
Q 115 2560 134 2688 
Q 154 2816 182 2950 
Q 211 3085 236 3184 
Q 262 3283 282 3290 
Q 685 3494 982 3638 
Q 1280 3782 1526 3894 
Q 1773 4006 2025 4115 
Q 2278 4224 2592 4352 
Q 2720 4224 2720 4026 
Q 2720 3802 2637 3693 
Q 2554 3584 2374 3494 
Q 2074 3347 1795 3228 
Q 1517 3110 1203 3004 
Q 890 2899 474 2784 
Q 947 2662 1363 2390 
Q 1779 2118 2029 1773 
Q 2278 1427 2278 1107 
Q 2278 595 1702 326 
Q 1120 58 0 58 
z
" transform="scale(0.015625)"/>
      <path id="NotoNaskhArabic-Bold-d6" d="M 653 -1248 
Q 544 -1248 304 -1107 
Q 64 -966 -218 -730 
L -115 -461 
Q 243 -550 531 -550 
Q 1005 -550 1331 -313 
Q 1658 -77 1805 371 
Q 1760 467 1705 566 
Q 1651 666 1587 762 
Q 1299 1203 1203 1414 
Q 1107 1626 1107 1779 
Q 1107 1965 1254 2147 
Q 1402 2330 1638 2451 
Q 1670 2330 1705 2208 
Q 1741 2086 1786 1958 
Q 1926 1555 2006 1299 
Q 2086 1043 2106 934 
Q 2323 813 2586 813 
Q 2637 813 2637 762 
L 2637 109 
Q 2637 58 2586 58 
Q 2349 58 2112 179 
Q 2042 -243 1837 -566 
Q 1632 -890 1328 -1069 
Q 1024 -1248 653 -1248 
z
M 1286 2835 
Q 960 3104 794 3296 
Q 941 3443 1059 3568 
Q 1178 3693 1274 3808 
Q 1344 3731 1459 3616 
Q 1574 3501 1734 3347 
Q 1658 3239 1546 3111 
Q 1434 2983 1286 2835 
z
" transform="scale(0.015625)"/>
      <path id="DejaVuSans-Bold-20" d="M 678 3084 
L 4684 3084 
L 4684 2350 
L 678 2350 
L 678 3084 
z
M 678 1663 
L 4684 1663 
L 4684 922 
L 678 922 
L 678 1663 
z
" transform="scale(0.015625)"/>
      <path id="DejaVuSans-Bold-b" d="M 2413 -844 
L 1484 -844 
Q 1006 -72 778 623 
Q 550 1319 550 2003 
Q 550 2688 779 3389 
Q 1009 4091 1484 4856 
L 2413 4856 
Q 2013 4116 1813 3408 
Q 1613 2700 1613 2009 
Q 1613 1319 1811 609 
Q 2009 -100 2413 -844 
z
" transform="scale(0.015625)"/>
      <path id="NotoNaskhArabic-Bold-d3" d="M 653 -1248 
Q 544 -1248 304 -1107 
Q 64 -966 -218 -730 
L -115 -461 
Q 243 -550 531 -550 
Q 1005 -550 1331 -313 
Q 1658 -77 1805 371 
Q 1760 467 1705 566 
Q 1651 666 1587 762 
Q 1402 1050 1254 1312 
Q 1107 1574 1107 1779 
Q 1107 1965 1254 2147 
Q 1402 2330 1638 2451 
Q 1677 2317 1731 2137 
Q 1786 1958 1846 1782 
Q 1907 1606 1952 1472 
Q 2035 1235 2089 1004 
Q 2144 774 2144 570 
Q 2144 70 1952 -349 
Q 1760 -768 1421 -1011 
Q 1082 -1248 653 -1248 
z
" transform="scale(0.015625)"/>
      <path id="NotoNaskhArabic-Bold-7" d="M 774 58 
Q 742 717 710 1216 
Q 678 1715 646 2134 
Q 614 2554 576 2950 
Q 538 3347 493 3808 
Q 474 3968 566 4089 
Q 659 4211 822 4281 
Q 986 4352 1178 4352 
Q 1229 4154 1296 3955 
Q 1363 3757 1440 3565 
L 1216 3398 
Q 1229 2867 1222 2035 
Q 1216 1203 1184 109 
L 774 58 
z
M 473 4506 
L 454 4775 
L 684 4909 
Q 480 4986 480 5159 
Q 480 5274 550 5389 
Q 620 5504 726 5584 
Q 832 5664 928 5664 
Q 1164 5664 1164 5376 
Q 1164 5280 1139 5229 
L 1011 5248 
L 1011 5268 
Q 1011 5325 934 5325 
Q 793 5325 710 5165 
Q 825 5050 1030 5050 
Q 1081 5050 1145 5056 
Q 1209 5063 1280 5076 
L 1254 4794 
Q 1024 4743 867 4688 
Q 710 4634 473 4506 
z
" transform="scale(0.015625)"/>
      <path id="NotoNaskhArabic-Bold-f7" d="M 1606 -1613 
Q 1037 -1613 736 -1277 
Q 435 -941 435 -301 
Q 435 32 595 627 
L 877 557 
Q 787 256 787 45 
Q 787 -858 1626 -858 
Q 2131 -858 2486 -726 
Q 2842 -595 3181 -288 
Q 2963 134 2800 444 
Q 2637 755 2637 883 
Q 2637 1408 3283 1728 
Q 3296 1606 3334 1372 
Q 3373 1139 3437 794 
Q 3546 781 3642 771 
Q 3738 762 3821 762 
Q 3949 762 4025 771 
Q 4102 781 4275 832 
Q 4326 922 4448 1229 
Q 4499 1350 4544 1465 
Q 4589 1581 4634 1696 
Q 4698 1875 4928 1875 
Q 5062 1875 5171 1811 
Q 5126 1709 5056 1491 
Q 4986 1274 4896 992 
Q 5139 870 5427 806 
Q 5715 742 6093 704 
Q 6029 845 5955 982 
Q 5882 1120 5811 1261 
Q 5734 1408 5673 1539 
Q 5613 1670 5613 1798 
Q 5613 1952 5785 2141 
Q 5958 2330 6195 2451 
Q 6240 2234 6281 2016 
Q 6323 1798 6368 1587 
Q 6464 1082 6464 909 
Q 6464 806 6422 640 
Q 6381 474 6320 298 
Q 6259 122 6195 0 
Q 5805 0 5395 93 
Q 4986 186 4666 326 
L 4595 186 
Q 4550 102 4314 51 
Q 4192 26 4051 13 
Q 3910 0 3744 0 
Q 3693 0 3638 3 
Q 3584 6 3533 13 
L 3533 -45 
Q 3533 -474 3277 -838 
Q 3021 -1203 2579 -1408 
Q 2362 -1510 2115 -1561 
Q 1869 -1613 1606 -1613 
z
" transform="scale(0.015625)"/>
      <path id="NotoNaskhArabic-Bold-4" d="M 1901 58 
Q 1517 58 1283 186 
Q 1050 314 938 528 
Q 826 742 794 1018 
Q 781 1139 749 1424 
Q 717 1709 681 2073 
Q 646 2438 608 2809 
Q 570 3181 538 3481 
Q 506 3782 486 3930 
Q 845 4166 1248 4352 
Q 1274 3635 1296 2918 
Q 1318 2202 1338 1478 
L 1363 979 
Q 1478 883 1606 848 
Q 1734 813 1914 813 
Q 1952 813 1952 762 
L 1952 109 
Q 1952 58 1901 58 
z
" transform="scale(0.015625)"/>
      <path id="NotoNaskhArabic-Bold-1bd" d="M 1606 -1613 
Q 1030 -1613 729 -1277 
Q 429 -941 429 -301 
Q 429 -134 470 96 
Q 512 326 589 627 
L 870 557 
Q 787 282 787 45 
Q 787 -858 1619 -858 
Q 1971 -858 2243 -797 
Q 2515 -736 2752 -595 
Q 2854 -538 2953 -458 
Q 3053 -378 3155 -288 
L 3014 461 
Q 2957 742 2886 1136 
Q 2816 1530 2742 1955 
Q 2669 2381 2608 2758 
Q 2547 3136 2508 3392 
Q 2470 3648 2470 3699 
Q 2470 3968 2675 4160 
Q 2880 4352 3162 4352 
Q 3219 4134 3283 3939 
Q 3347 3744 3418 3565 
L 3213 3411 
L 3405 1414 
Q 3437 1101 3462 861 
Q 3488 621 3501 406 
Q 3514 192 3514 -45 
Q 3514 -474 3258 -838 
Q 3002 -1203 2566 -1408 
Q 2349 -1510 2109 -1561 
Q 1869 -1613 1606 -1613 
z
" transform="scale(0.015625)"/>
      <path id="DejaVuSans-Bold-99" d="M 4563 3359 
L 3206 2003 
L 4563 653 
L 4038 128 
L 2681 1478 
L 1325 128 
L 800 653 
L 2156 2003 
L 800 3359 
L 1325 3884 
L 2681 2528 
L 4038 3884 
L 4563 3359 
z
" transform="scale(0.015625)"/>
      <path id="NotoNaskhArabic-Bold-1ea" d="M 0 58 
Q -51 58 -51 109 
L -51 762 
Q -51 813 0 813 
Q 320 813 640 867 
Q 960 922 1139 998 
Q 1075 1146 976 1328 
Q 877 1510 819 1613 
Q 755 1734 710 1833 
Q 666 1933 666 2016 
Q 666 2176 838 2361 
Q 1011 2547 1248 2669 
Q 1293 2470 1347 2217 
Q 1402 1965 1446 1702 
Q 1485 1504 1501 1376 
Q 1517 1248 1517 1184 
Q 1517 1037 1443 822 
Q 1370 608 1267 410 
Q 685 58 0 58 
z
M 902 3052 
Q 576 3321 410 3513 
Q 557 3660 675 3785 
Q 794 3910 890 4025 
Q 960 3948 1075 3833 
Q 1190 3718 1350 3564 
Q 1274 3456 1162 3328 
Q 1050 3200 902 3052 
z
" transform="scale(0.015625)"/>
      <path id="NotoNaskhArabic-Bold-f9" d="M 1472 0 
Q 1165 0 736 205 
Q 608 141 406 99 
Q 205 58 0 58 
Q -51 58 -51 109 
L -51 762 
Q -51 813 0 813 
Q 294 813 441 851 
Q 589 890 678 979 
Q 749 1050 813 1149 
Q 877 1248 998 1466 
Q 1037 1536 1110 1581 
Q 1184 1626 1267 1626 
Q 1357 1626 1466 1555 
Q 1382 1363 1308 1171 
Q 1235 979 1158 781 
Q 1331 762 1504 762 
Q 1632 762 1709 771 
Q 1786 781 1965 832 
Q 2016 909 2096 1107 
Q 2176 1306 2317 1696 
Q 2349 1779 2432 1833 
Q 2515 1888 2630 1888 
Q 2765 1888 2854 1818 
Q 2816 1722 2736 1472 
Q 2656 1222 2509 742 
Q 2554 742 2595 742 
Q 2637 742 2682 736 
Q 2912 736 3142 806 
Q 3162 838 3194 915 
Q 3226 992 3283 1146 
Q 3322 1254 3379 1401 
Q 3437 1549 3507 1747 
Q 3546 1837 3632 1891 
Q 3718 1946 3827 1946 
Q 3942 1946 4045 1875 
Q 4006 1773 3942 1581 
Q 3878 1389 3750 986 
Q 4038 813 4518 813 
Q 4570 813 4570 762 
L 4570 109 
Q 4570 58 4518 58 
Q 4262 58 3993 170 
Q 3725 282 3578 442 
Q 3526 301 3468 201 
Q 3411 102 3226 51 
Q 3034 0 2758 0 
Q 2566 0 2240 141 
Q 2150 77 1923 38 
Q 1696 0 1472 0 
z
" transform="scale(0.015625)"/>
      <path id="NotoNaskhArabic-Bold-25" d="M 0 58 
Q -51 58 -51 109 
L -51 762 
Q -51 813 0 813 
Q 416 813 627 966 
Q 710 1024 774 1145 
Q 838 1267 922 1427 
Q 1024 1632 1101 1680 
Q 1178 1728 1280 1728 
Q 1427 1728 1536 1638 
Q 1466 1478 1392 1312 
Q 1318 1146 1248 979 
Q 1562 813 1926 813 
Q 1978 813 1978 762 
L 1978 109 
Q 1978 58 1926 58 
Q 1440 58 998 499 
Q 960 435 925 384 
Q 890 333 858 288 
Q 774 192 550 125 
Q 326 58 0 58 
z
M 1088 -1427 
Q 915 -1286 793 -1171 
Q 672 -1056 588 -966 
Q 716 -838 838 -713 
Q 960 -589 1075 -454 
Q 1241 -646 1536 -915 
Q 1465 -1017 1350 -1148 
Q 1235 -1280 1088 -1427 
z
" transform="scale(0.015625)"/>
      <path id="NotoNaskhArabic-Bold-215" d="M 3302 58 
Q 2912 58 2675 182 
Q 2438 307 2393 531 
L 2336 768 
L 2080 243 
Q 1881 262 1711 288 
Q 1542 314 1395 365 
Q 1235 422 1075 518 
Q 915 614 806 716 
Q 697 819 697 890 
Q 697 941 738 1078 
Q 780 1216 838 1369 
Q 896 1523 940 1600 
Q 998 1728 1184 1882 
Q 1363 2042 1593 2192 
Q 1824 2342 1984 2413 
L 1952 2669 
Q 2118 2797 2223 2873 
Q 2329 2950 2418 3011 
Q 2508 3072 2617 3136 
L 2617 986 
Q 2924 813 3302 813 
Q 3353 813 3353 762 
L 3353 109 
Q 3353 58 3302 58 
z
M 2272 1005 
Q 2233 1158 2188 1366 
Q 2144 1574 2086 1837 
Q 1491 1638 1152 1318 
Q 1356 1178 1542 1123 
Q 1728 1069 1894 1043 
Q 2067 1011 2272 1005 
z
M 2138 3257 
Q 2003 3366 1894 3462 
Q 1786 3558 1696 3654 
Q 1933 3872 2125 4102 
Q 2182 4038 2284 3942 
Q 2387 3846 2528 3705 
Q 2355 3469 2138 3257 
z
M 1280 3161 
Q 1005 3385 838 3565 
Q 947 3673 1056 3785 
Q 1165 3897 1274 4006 
Q 1389 3872 1670 3609 
Q 1510 3379 1280 3161 
z
" transform="scale(0.015625)"/>
      <path id="NotoNaskhArabic-Bold-a3" d="M 0 58 
Q -51 58 -51 109 
L -51 762 
Q -51 813 0 813 
Q 467 813 793 829 
Q 1120 845 1427 934 
Q 1702 1018 1897 1069 
Q 2093 1120 2202 1146 
Q 2118 1197 2032 1251 
Q 1946 1306 1856 1363 
Q 1651 1498 1513 1555 
Q 1376 1613 1235 1613 
Q 1043 1613 870 1558 
Q 698 1504 480 1363 
Q 422 1421 377 1533 
Q 333 1645 333 1747 
Q 333 2029 582 2205 
Q 832 2381 1210 2381 
Q 1414 2381 1603 2310 
Q 1792 2240 2029 2080 
Q 2317 1882 2560 1763 
Q 2803 1645 3136 1555 
Q 3302 1517 3500 1494 
Q 3699 1472 3936 1472 
L 3654 934 
Q 3578 941 3501 941 
Q 3424 941 3347 947 
Q 3411 890 3488 867 
Q 3565 845 3661 832 
Q 3808 826 3965 822 
Q 4122 819 4262 813 
Q 4314 813 4314 762 
L 4314 109 
Q 4314 58 4262 58 
Q 4032 58 3782 80 
Q 3533 102 3325 150 
Q 3117 198 3021 262 
Q 2893 358 2838 537 
Q 2784 717 2746 877 
Q 2624 851 2525 803 
Q 2426 755 2304 675 
Q 2182 595 1990 467 
Q 1683 262 1395 176 
Q 1107 90 774 74 
Q 442 58 0 58 
z
M 1894 2873 
Q 1568 3142 1402 3334 
Q 1549 3481 1667 3606 
Q 1786 3731 1882 3846 
Q 1952 3769 2067 3654 
Q 2182 3539 2342 3385 
Q 2266 3277 2154 3149 
Q 2042 3021 1894 2873 
z
" transform="scale(0.015625)"/>
      <path id="NotoNaskhArabic-Bold-126" d="M 0 58 
Q -51 58 -51 109 
L -51 762 
Q -51 813 0 813 
L 531 819 
L 659 819 
Q 730 915 794 1008 
Q 858 1101 922 1184 
Q 762 1946 662 2422 
Q 563 2899 508 3164 
Q 454 3430 435 3552 
Q 416 3674 416 3725 
Q 416 3987 605 4169 
Q 794 4352 1069 4352 
Q 1133 4134 1197 3939 
Q 1261 3744 1331 3565 
L 1126 3411 
Q 1152 3110 1171 2809 
Q 1190 2509 1216 2208 
Q 1229 2054 1241 1907 
Q 1254 1760 1261 1606 
Q 2170 2669 2803 2669 
Q 3066 2669 3354 2512 
Q 3642 2355 3872 2074 
Q 4109 1786 4109 1626 
Q 4109 1126 3683 777 
Q 3258 429 2362 243 
Q 1914 154 1325 106 
Q 736 58 0 58 
z
M 1158 832 
Q 1190 832 1321 838 
Q 1453 845 1632 854 
Q 1811 864 1990 880 
Q 2170 896 2291 915 
Q 2458 947 2624 979 
Q 2790 1011 3040 1075 
Q 3290 1139 3693 1254 
Q 3475 1498 3305 1635 
Q 3136 1773 2985 1830 
Q 2835 1888 2650 1888 
Q 2061 1888 1158 832 
z
" transform="scale(0.015625)"/>
      <path id="NotoNaskhArabic-Bold-214" d="M 1274 0 
Q 909 0 672 246 
Q 435 493 435 864 
Q 435 1126 572 1401 
Q 710 1677 1018 1984 
Q 915 2048 880 2141 
Q 845 2234 845 2330 
Q 845 2464 899 2585 
Q 954 2707 1043 2752 
Q 1408 2637 1721 2381 
Q 2035 2125 2214 1798 
Q 2394 1466 2394 1184 
Q 2394 1094 2349 944 
Q 2304 794 2233 634 
Q 2163 474 2086 349 
Q 2010 224 1939 179 
Q 1818 96 1642 48 
Q 1466 0 1274 0 
z
M 1344 672 
Q 1690 672 1978 851 
Q 1882 1133 1715 1360 
Q 1549 1587 1286 1786 
Q 915 1421 915 1075 
Q 915 896 1040 784 
Q 1165 672 1344 672 
z
M 1684 3251 
Q 1549 3360 1440 3456 
Q 1332 3552 1242 3648 
Q 1479 3866 1671 4096 
Q 1728 4032 1830 3936 
Q 1933 3840 2074 3699 
Q 1901 3463 1684 3251 
z
M 826 3155 
Q 551 3379 384 3559 
Q 493 3667 602 3779 
Q 711 3891 820 4000 
Q 935 3866 1216 3603 
Q 1056 3373 826 3155 
z
" transform="scale(0.015625)"/>
      <path id="DejaVuSans-Bold-c" d="M 513 -844 
Q 913 -100 1113 609 
Q 1313 1319 1313 2009 
Q 1313 2700 1113 3408 
Q 913 4116 513 4856 
L 1441 4856 
Q 1916 4091 2145 3389 
Q 2375 2688 2375 2003 
Q 2375 1319 2147 623 
Q 1919 -72 1441 -844 
L 513 -844 
z
" transform="scale(0.015625)"/>
      <path id="DejaVuSans-Bold-b9" d="M 2203 1234 
L 3163 1234 
L 3163 269 
L 2203 269 
L 2203 1234 
z
M 2203 3744 
L 3163 3744 
L 3163 2778 
L 2203 2778 
L 2203 3744 
z
M 678 2375 
L 4684 2375 
L 4684 1638 
L 678 1638 
L 678 2375 
z
" transform="scale(0.015625)"/>
      <path id="NotoNaskhArabic-Bold-1e5" d="M 2349 0 
Q 1920 0 1488 99 
Q 1056 198 755 358 
Q 602 198 429 128 
Q 256 58 0 58 
Q -51 58 -51 109 
L -51 762 
Q -51 813 0 813 
Q 525 813 774 1286 
Q 890 1517 982 1680 
Q 1075 1843 1146 1939 
Q 1306 2157 1446 2249 
Q 1587 2342 1773 2342 
Q 2003 2342 2224 2102 
Q 2445 1862 2586 1466 
Q 2726 1082 2726 723 
Q 2726 557 2611 339 
Q 2496 122 2349 0 
z
M 2138 704 
Q 2112 941 2035 1142 
Q 1958 1344 1862 1466 
Q 1760 1587 1677 1587 
Q 1536 1587 1427 1472 
Q 1325 1363 1120 960 
Q 1325 870 1577 803 
Q 1830 736 2138 704 
z
" transform="scale(0.015625)"/>
      <path id="NotoNaskhArabic-Bold-146" d="M 6 58 
Q -51 58 -51 115 
L -51 762 
Q -51 813 6 813 
Q 710 813 1196 857 
Q 1683 902 2061 1075 
Q 2048 1120 2029 1177 
Q 2010 1235 1978 1312 
Q 1824 1178 1638 1107 
Q 1453 1037 1229 1037 
Q 864 1037 685 1229 
Q 506 1421 506 1709 
Q 506 2029 624 2297 
Q 742 2566 941 2720 
Q 1043 2803 1158 2851 
Q 1274 2899 1395 2899 
Q 1658 2899 1904 2608 
Q 2150 2317 2285 1869 
Q 2349 1677 2377 1469 
Q 2406 1261 2406 1043 
Q 2406 832 2189 397 
Q 1875 275 1577 201 
Q 1280 128 912 93 
Q 544 58 6 58 
z
M 1318 1504 
Q 1568 1504 1856 1594 
Q 1734 1875 1593 2003 
Q 1453 2131 1254 2131 
Q 1056 2131 944 2032 
Q 832 1933 832 1811 
Q 832 1658 947 1581 
Q 1062 1504 1318 1504 
z
M 1388 3328 
Q 1062 3597 896 3789 
Q 1043 3936 1161 4061 
Q 1280 4186 1376 4301 
Q 1446 4224 1561 4109 
Q 1676 3994 1836 3840 
Q 1760 3732 1648 3604 
Q 1536 3476 1388 3328 
z
" transform="scale(0.015625)"/>
      <path id="NotoNaskhArabic-Bold-219" d="M 1248 -1248 
Q 1171 -1248 1011 -1174 
Q 851 -1101 668 -982 
Q 486 -864 326 -730 
L 429 -461 
Q 602 -506 778 -528 
Q 954 -550 1133 -550 
Q 1536 -550 1862 -380 
Q 2189 -211 2368 64 
Q 2093 83 1894 102 
Q 1696 122 1574 147 
Q 838 307 838 1018 
Q 838 1370 972 1712 
Q 1107 2054 1325 2266 
Q 1549 2477 1766 2477 
Q 2029 2477 2262 2240 
Q 2496 2003 2650 1626 
Q 2720 1446 2768 1241 
Q 2816 1037 2835 813 
L 3181 813 
Q 3232 813 3232 762 
L 3232 109 
Q 3232 58 3181 58 
L 2784 58 
Q 2669 -365 2419 -669 
Q 2170 -973 1843 -1120 
Q 1555 -1248 1248 -1248 
z
M 2419 819 
Q 2285 1254 2077 1484 
Q 1869 1715 1626 1715 
Q 1504 1715 1401 1651 
Q 1299 1587 1235 1498 
Q 1178 1402 1178 1293 
Q 1178 941 1805 858 
Q 1952 838 2419 819 
z
" transform="scale(0.015625)"/>
      <path id="NotoNaskhArabic-Bold-16a" d="M 6 58 
Q -51 58 -51 115 
L -51 762 
Q -51 813 6 813 
Q 710 813 1196 857 
Q 1683 902 2061 1075 
Q 2048 1120 2029 1177 
Q 2010 1235 1978 1312 
Q 1824 1178 1638 1107 
Q 1453 1037 1229 1037 
Q 864 1037 685 1229 
Q 506 1421 506 1709 
Q 506 2029 624 2297 
Q 742 2566 941 2720 
Q 1043 2803 1158 2851 
Q 1274 2899 1395 2899 
Q 1658 2899 1904 2608 
Q 2150 2317 2285 1869 
Q 2349 1677 2377 1469 
Q 2406 1261 2406 1043 
Q 2406 832 2189 397 
Q 1875 275 1577 201 
Q 1280 128 912 93 
Q 544 58 6 58 
z
M 1318 1504 
Q 1568 1504 1856 1594 
Q 1734 1875 1593 2003 
Q 1453 2131 1254 2131 
Q 1056 2131 944 2032 
Q 832 1933 832 1811 
Q 832 1658 947 1581 
Q 1062 1504 1318 1504 
z
M 1818 3296 
Q 1683 3405 1574 3501 
Q 1466 3597 1376 3693 
Q 1613 3911 1805 4141 
Q 1862 4077 1964 3981 
Q 2067 3885 2208 3744 
Q 2035 3508 1818 3296 
z
M 960 3200 
Q 685 3424 518 3604 
Q 627 3712 736 3824 
Q 845 3936 954 4045 
Q 1069 3911 1350 3648 
Q 1190 3418 960 3200 
z
" transform="scale(0.015625)"/>
      <path id="NotoNaskhArabic-Bold-144" d="M 1965 0 
Q 1190 0 796 352 
Q 403 704 403 1363 
Q 403 1498 435 1674 
Q 467 1850 531 2067 
L 813 2067 
Q 794 1894 794 1747 
Q 794 1376 941 1171 
Q 1088 966 1389 864 
Q 1702 755 2195 755 
Q 2310 755 2416 758 
Q 2522 762 2685 771 
Q 2848 781 3123 800 
Q 3008 966 3008 1114 
Q 3008 1229 3024 1363 
Q 3040 1498 3069 1616 
Q 3098 1734 3123 1786 
Q 3238 2003 3414 2179 
Q 3590 2355 3795 2457 
Q 4000 2560 4192 2560 
Q 4371 2560 4544 2371 
Q 4717 2182 4826 1882 
Q 4941 1587 4941 1306 
Q 4941 1082 4749 819 
Q 4896 819 5046 819 
Q 5197 819 5338 813 
Q 5395 813 5395 762 
L 5395 109 
Q 5395 58 5338 58 
Q 4480 58 3936 282 
Q 3712 198 3389 137 
Q 3066 77 2701 38 
Q 2336 0 1965 0 
z
M 3949 794 
Q 4352 902 4576 1107 
Q 4531 1274 4454 1424 
Q 4378 1574 4294 1664 
Q 4205 1773 4128 1773 
Q 3789 1773 3354 1178 
Q 3475 1043 3635 944 
Q 3795 845 3949 794 
z
M 4038 3084 
Q 3712 3353 3546 3545 
Q 3693 3692 3811 3817 
Q 3930 3942 4026 4057 
Q 4096 3980 4211 3865 
Q 4326 3750 4486 3596 
Q 4410 3488 4298 3360 
Q 4186 3232 4038 3084 
z
" transform="scale(0.015625)"/>
      <path id="NotoNaskhArabic-Bold-240" d="M 0 58 
Q -51 58 -51 109 
L -51 762 
Q -51 813 0 813 
Q 307 813 566 829 
Q 826 845 992 928 
Q 1120 992 1187 1104 
Q 1254 1216 1357 1421 
Q 1459 1632 1536 1680 
Q 1613 1728 1715 1728 
Q 1869 1728 1971 1638 
Q 1888 1427 1814 1264 
Q 1741 1101 1690 979 
Q 2003 813 2362 813 
Q 2413 813 2413 762 
L 2413 109 
Q 2413 58 2362 58 
Q 1875 58 1434 499 
L 1382 416 
Q 1203 179 883 118 
Q 563 58 0 58 
z
M 1651 -1235 
Q 1376 -1011 1209 -832 
Q 1414 -653 1638 -384 
Q 1657 -403 1756 -502 
Q 1856 -602 2035 -787 
Q 1971 -883 1875 -995 
Q 1779 -1107 1651 -1235 
z
M 793 -1331 
Q 633 -1203 527 -1100 
Q 422 -998 352 -922 
Q 460 -813 569 -701 
Q 678 -589 787 -480 
Q 864 -576 1184 -877 
Q 1030 -1107 793 -1331 
z
" transform="scale(0.015625)"/>
      <path id="NotoNaskhArabic-Bold-1e9" d="M 0 58 
Q -51 58 -51 109 
L -51 762 
Q -51 813 0 813 
Q 416 813 627 966 
Q 710 1024 774 1145 
Q 838 1267 922 1427 
Q 1024 1632 1101 1680 
Q 1178 1728 1280 1728 
Q 1427 1728 1536 1638 
Q 1466 1478 1392 1312 
Q 1318 1146 1248 979 
Q 1562 813 1926 813 
Q 1978 813 1978 762 
L 1978 109 
Q 1978 58 1926 58 
Q 1440 58 998 499 
Q 960 435 925 384 
Q 890 333 858 288 
Q 774 192 550 125 
Q 326 58 0 58 
z
M 966 2284 
Q 640 2553 474 2745 
Q 621 2892 739 3017 
Q 858 3142 954 3257 
Q 1024 3180 1139 3065 
Q 1254 2950 1414 2796 
Q 1338 2688 1226 2560 
Q 1114 2432 966 2284 
z
" transform="scale(0.015625)"/>
      <path id="NotoNaskhArabic-Bold-169" d="M 6 58 
Q -51 58 -51 115 
L -51 755 
Q -51 813 6 813 
Q 115 813 227 816 
Q 339 819 454 819 
Q 358 973 358 1114 
Q 358 1197 374 1337 
Q 390 1478 419 1606 
Q 448 1734 474 1786 
Q 595 2003 771 2179 
Q 947 2355 1152 2457 
Q 1357 2560 1549 2560 
Q 1722 2560 1898 2368 
Q 2074 2176 2182 1875 
Q 2291 1568 2291 1306 
Q 2291 1056 2150 819 
Q 2285 819 2422 816 
Q 2560 813 2694 813 
Q 2746 813 2746 762 
L 2746 109 
Q 2746 58 2694 58 
Q 1882 58 1325 269 
Q 1030 147 716 102 
Q 403 58 6 58 
z
M 1299 794 
Q 1690 902 1933 1107 
Q 1888 1280 1795 1446 
Q 1702 1613 1613 1696 
Q 1549 1773 1478 1773 
Q 1146 1773 704 1178 
Q 819 1043 979 944 
Q 1139 845 1299 794 
z
M 1888 3052 
Q 1753 3161 1644 3257 
Q 1536 3353 1446 3449 
Q 1683 3667 1875 3897 
Q 1932 3833 2034 3737 
Q 2137 3641 2278 3500 
Q 2105 3264 1888 3052 
z
M 1030 2956 
Q 755 3180 588 3360 
Q 697 3468 806 3580 
Q 915 3692 1024 3801 
Q 1139 3667 1420 3404 
Q 1260 3174 1030 2956 
z
" transform="scale(0.015625)"/>
      <path id="NotoNaskhArabic-Bold-125" d="M 0 58 
Q -51 58 -51 109 
L -51 762 
Q -51 813 0 813 
Q 166 819 332 819 
Q 499 819 659 819 
Q 730 915 794 1008 
Q 858 1101 922 1184 
Q 768 1933 669 2406 
Q 570 2880 515 3149 
Q 461 3418 438 3546 
Q 416 3674 416 3725 
Q 416 3987 605 4169 
Q 794 4352 1069 4352 
Q 1133 4134 1197 3939 
Q 1261 3744 1331 3565 
L 1126 3411 
Q 1146 3130 1168 2842 
Q 1190 2554 1210 2272 
Q 1222 2106 1238 1939 
Q 1254 1773 1261 1606 
Q 2170 2669 2803 2669 
Q 3066 2669 3354 2512 
Q 3642 2355 3872 2074 
Q 4109 1786 4109 1626 
Q 4109 1286 3885 986 
Q 4205 813 4570 813 
Q 4627 813 4627 762 
L 4627 109 
Q 4627 58 4570 58 
Q 4256 58 3952 202 
Q 3648 346 3424 602 
Q 2944 346 2128 202 
Q 1312 58 0 58 
z
M 1158 832 
Q 1190 832 1321 838 
Q 1453 845 1632 854 
Q 1811 864 1990 880 
Q 2170 896 2291 915 
Q 2458 947 2624 979 
Q 2790 1011 3040 1075 
Q 3290 1139 3693 1254 
Q 3475 1498 3305 1635 
Q 3136 1773 2985 1830 
Q 2835 1888 2650 1888 
Q 2061 1888 1158 832 
z
" transform="scale(0.015625)"/>
     </defs>
     <use xlink:href="#NotoNaskhArabic-Bold-8c"/>
     <use xlink:href="#NotoNaskhArabic-Bold-73" transform="translate(64.90625 0)"/>
     <use xlink:href="#NotoNaskhArabic-Bold-1e3" transform="translate(130.609375 0)"/>
     <use xlink:href="#NotoNaskhArabic-Bold-554" transform="translate(186.109375 0)"/>
     <use xlink:href="#NotoNaskhArabic-Bold-3" transform="translate(208.203125 0)"/>
     <use xlink:href="#NotoNaskhArabic-Bold-1c1" transform="translate(236.609375 0)"/>
     <use xlink:href="#NotoNaskhArabic-Bold-1e4" transform="translate(258.3125 0)"/>
     <use xlink:href="#NotoNaskhArabic-Bold-d4" transform="translate(299.609375 0)"/>
     <use xlink:href="#NotoNaskhArabic-Bold-176" transform="translate(339.109375 0)"/>
     <use xlink:href="#NotoNaskhArabic-Bold-d6" transform="translate(383.40625 0)"/>
     <use xlink:href="#NotoNaskhArabic-Bold-554" transform="translate(422.90625 0)"/>
     <use xlink:href="#DejaVuSans-Bold-20" transform="translate(445 0)"/>
     <use xlink:href="#NotoNaskhArabic-Bold-554" transform="translate(528.796875 0)"/>
     <use xlink:href="#DejaVuSans-Bold-b" transform="translate(550.890625 0)"/>
     <use xlink:href="#NotoNaskhArabic-Bold-d3" transform="translate(596.59375 0)"/>
     <use xlink:href="#NotoNaskhArabic-Bold-7" transform="translate(634.296875 0)"/>
     <use xlink:href="#NotoNaskhArabic-Bold-f7" transform="translate(662.703125 0)"/>
     <use xlink:href="#NotoNaskhArabic-Bold-554" transform="translate(768.796875 0)"/>
     <use xlink:href="#NotoNaskhArabic-Bold-3" transform="translate(790.890625 0)"/>
     <use xlink:href="#NotoNaskhArabic-Bold-1c1" transform="translate(819.296875 0)"/>
     <use xlink:href="#NotoNaskhArabic-Bold-1e4" transform="translate(841 0)"/>
     <use xlink:href="#NotoNaskhArabic-Bold-4" transform="translate(882.296875 0)"/>
     <use xlink:href="#NotoNaskhArabic-Bold-1bd" transform="translate(911.09375 0)"/>
     <use xlink:href="#NotoNaskhArabic-Bold-554" transform="translate(972.296875 0)"/>
     <use xlink:href="#DejaVuSans-Bold-99" transform="translate(994.390625 0)"/>
     <use xlink:href="#NotoNaskhArabic-Bold-554" transform="translate(1078.1875 0)"/>
     <use xlink:href="#NotoNaskhArabic-Bold-1ea" transform="translate(1100.28125 0)"/>
     <use xlink:href="#NotoNaskhArabic-Bold-f9" transform="translate(1127.78125 0)"/>
     <use xlink:href="#NotoNaskhArabic-Bold-25" transform="translate(1197.484375 0)"/>
     <use xlink:href="#NotoNaskhArabic-Bold-215" transform="translate(1226.6875 0)"/>
     <use xlink:href="#NotoNaskhArabic-Bold-554" transform="translate(1277.390625 0)"/>
     <use xlink:href="#NotoNaskhArabic-Bold-3" transform="translate(1299.484375 0)"/>
     <use xlink:href="#NotoNaskhArabic-Bold-1c1" transform="translate(1327.890625 0)"/>
     <use xlink:href="#NotoNaskhArabic-Bold-1e4" transform="translate(1349.59375 0)"/>
     <use xlink:href="#NotoNaskhArabic-Bold-a3" transform="translate(1390.890625 0)"/>
     <use xlink:href="#NotoNaskhArabic-Bold-4" transform="translate(1456.59375 0)"/>
     <use xlink:href="#NotoNaskhArabic-Bold-126" transform="translate(1485.390625 0)"/>
     <use xlink:href="#NotoNaskhArabic-Bold-d4" transform="translate(1554.6875 0)"/>
     <use xlink:href="#NotoNaskhArabic-Bold-214" transform="translate(1594.1875 0)"/>
     <use xlink:href="#DejaVuSans-Bold-c" transform="translate(1636.6875 0)"/>
     <use xlink:href="#NotoNaskhArabic-Bold-554" transform="translate(1682.390625 0)"/>
     <use xlink:href="#DejaVuSans-Bold-b9" transform="translate(1704.484375 0)"/>
     <use xlink:href="#NotoNaskhArabic-Bold-554" transform="translate(1788.28125 0)"/>
     <use xlink:href="#DejaVuSans-Bold-b" transform="translate(1810.375 0)"/>
     <use xlink:href="#NotoNaskhArabic-Bold-1e5" transform="translate(1856.078125 0)"/>
     <use xlink:href="#NotoNaskhArabic-Bold-f9" transform="translate(1903.375 0)"/>
     <use xlink:href="#NotoNaskhArabic-Bold-4" transform="translate(1973.078125 0)"/>
     <use xlink:href="#NotoNaskhArabic-Bold-146" transform="translate(2001.875 0)"/>
     <use xlink:href="#NotoNaskhArabic-Bold-215" transform="translate(2044.578125 0)"/>
     <use xlink:href="#NotoNaskhArabic-Bold-554" transform="translate(2095.28125 0)"/>
     <use xlink:href="#NotoNaskhArabic-Bold-3" transform="translate(2117.375 0)"/>
     <use xlink:href="#NotoNaskhArabic-Bold-1c1" transform="translate(2145.78125 0)"/>
     <use xlink:href="#NotoNaskhArabic-Bold-219" transform="translate(2167.484375 0)"/>
     <use xlink:href="#NotoNaskhArabic-Bold-16a" transform="translate(2216.28125 0)"/>
     <use xlink:href="#NotoNaskhArabic-Bold-144" transform="translate(2258.984375 0)"/>
     <use xlink:href="#NotoNaskhArabic-Bold-554" transform="translate(2342.1875 0)"/>
     <use xlink:href="#DejaVuSans-Bold-99" transform="translate(2364.28125 0)"/>
     <use xlink:href="#NotoNaskhArabic-Bold-554" transform="translate(2448.078125 0)"/>
     <use xlink:href="#NotoNaskhArabic-Bold-16a" transform="translate(2470.171875 0)"/>
     <use xlink:href="#NotoNaskhArabic-Bold-240" transform="translate(2512.875 0)"/>
     <use xlink:href="#NotoNaskhArabic-Bold-1e4" transform="translate(2548.875 0)"/>
     <use xlink:href="#NotoNaskhArabic-Bold-215" transform="translate(2590.171875 0)"/>
     <use xlink:href="#NotoNaskhArabic-Bold-554" transform="translate(2640.875 0)"/>
     <use xlink:href="#NotoNaskhArabic-Bold-3" transform="translate(2662.96875 0)"/>
     <use xlink:href="#NotoNaskhArabic-Bold-1c1" transform="translate(2691.375 0)"/>
     <use xlink:href="#NotoNaskhArabic-Bold-1e9" transform="translate(2713.078125 0)"/>
     <use xlink:href="#NotoNaskhArabic-Bold-169" transform="translate(2742.28125 0)"/>
     <use xlink:href="#NotoNaskhArabic-Bold-125" transform="translate(2783.484375 0)"/>
     <use xlink:href="#NotoNaskhArabic-Bold-215" transform="translate(2854.078125 0)"/>
     <use xlink:href="#DejaVuSans-Bold-c" transform="translate(2904.78125 0)"/>
    </g>
   </g>
   <g id="text_2">
    <!-- ﻝﺎﻤﻟﺍ ﺱﺃﺭ -->
    <g style="fill: #1f2937" transform="translate(81.446602 167.292625) scale(0.095 -0.095)">
     <use xlink:href="#NotoNaskhArabic-Bold-d3"/>
     <use xlink:href="#NotoNaskhArabic-Bold-7" transform="translate(37.703125 0)"/>
     <use xlink:href="#NotoNaskhArabic-Bold-f7" transform="translate(66.109375 0)"/>
     <use xlink:href="#NotoNaskhArabic-Bold-554" transform="translate(172.203125 0)"/>
     <use xlink:href="#NotoNaskhArabic-Bold-3" transform="translate(194.296875 0)"/>
     <use xlink:href="#NotoNaskhArabic-Bold-1c1" transform="translate(222.703125 0)"/>
     <use xlink:href="#NotoNaskhArabic-Bold-1e4" transform="translate(244.40625 0)"/>
     <use xlink:href="#NotoNaskhArabic-Bold-4" transform="translate(285.703125 0)"/>
     <use xlink:href="#NotoNaskhArabic-Bold-1bd" transform="translate(314.5 0)"/>
    </g>
    <!-- $10,000 -->
    <g style="fill: #1f2937" transform="translate(81.128945 183.471125) scale(0.095 -0.095)">
     <defs>
      <path id="DejaVuSans-Bold-7" d="M 2484 -941 
L 1978 -941 
L 1975 0 
Q 1584 16 1218 87 
Q 853 159 506 288 
L 506 1106 
Q 866 922 1233 823 
Q 1600 725 1978 713 
L 1978 1684 
L 1875 1703 
Q 1128 1834 814 2115 
Q 500 2397 500 2925 
Q 500 3484 883 3798 
Q 1266 4113 1975 4141 
L 1978 4863 
L 2484 4863 
L 2484 4153 
Q 2797 4128 3109 4075 
Q 3422 4022 3738 3938 
L 3738 3144 
Q 3425 3275 3112 3348 
Q 2800 3422 2484 3438 
L 2484 2541 
L 2584 2522 
Q 3378 2397 3698 2105 
Q 4019 1813 4019 1241 
Q 4019 666 3637 358 
Q 3256 50 2484 6 
L 2484 -941 
z
M 1978 2613 
L 1978 3428 
Q 1756 3416 1623 3308 
Q 1491 3200 1491 3034 
Q 1491 2850 1612 2745 
Q 1734 2641 1978 2613 
z
M 2484 1594 
L 2484 725 
Q 2756 728 2892 831 
Q 3028 934 3028 1141 
Q 3028 1353 2903 1458 
Q 2778 1563 2484 1594 
z
" transform="scale(0.015625)"/>
      <path id="NotoNaskhArabic-Bold-4cd" d="M 1677 0 
L 1677 2643 
Q 1677 2822 1686 3020 
Q 1696 3219 1702 3552 
Q 1466 3315 1370 3238 
Q 1242 3136 1107 3030 
Q 973 2925 845 2816 
L 378 3398 
L 1850 4570 
L 2643 4570 
L 2643 0 
L 1677 0 
z
" transform="scale(0.015625)"/>
      <path id="NotoNaskhArabic-Bold-4cc" d="M 1824 -64 
Q 1030 -64 630 531 
Q 230 1126 230 2285 
Q 230 3494 620 4067 
Q 1011 4640 1824 4640 
Q 2618 4640 3021 4041 
Q 3424 3443 3424 2285 
Q 3424 1088 3033 512 
Q 2643 -64 1824 -64 
z
M 1824 717 
Q 2170 717 2310 1082 
Q 2464 1459 2464 2285 
Q 2464 3123 2310 3494 
Q 2157 3859 1824 3859 
Q 1485 3859 1338 3494 
Q 1190 3110 1190 2285 
Q 1190 1453 1338 1082 
Q 1485 717 1824 717 
z
" transform="scale(0.015625)"/>
      <path id="NotoNaskhArabic-Bold-515" d="M 262 -826 
Q 365 -435 445 -41 
Q 525 352 582 742 
L 1184 742 
L 1229 672 
Q 1146 339 1005 -35 
Q 864 -410 678 -826 
L 262 -826 
z
" transform="scale(0.015625)"/>
     </defs>
     <use xlink:href="#DejaVuSans-Bold-7"/>
     <use xlink:href="#NotoNaskhArabic-Bold-4cd" transform="translate(69.578125 0)"/>
     <use xlink:href="#NotoNaskhArabic-Bold-4cc" transform="translate(126.78125 0)"/>
     <use xlink:href="#NotoNaskhArabic-Bold-515" transform="translate(183.984375 0)"/>
     <use xlink:href="#NotoNaskhArabic-Bold-4cc" transform="translate(210.78125 0)"/>
     <use xlink:href="#NotoNaskhArabic-Bold-4cc" transform="translate(267.984375 0)"/>
     <use xlink:href="#NotoNaskhArabic-Bold-4cc" transform="translate(325.1875 0)"/>
    </g>
   </g>
   <g id="text_3">
    <!-- ﺓﺮﻃﺎﺨﻤﻟﺍ ﺔﺒﺴﻧ -->
    <g style="fill: #b7791f" transform="translate(221.161203 167.292625) scale(0.095 -0.095)">
     <use xlink:href="#NotoNaskhArabic-Bold-1ea"/>
     <use xlink:href="#NotoNaskhArabic-Bold-f9" transform="translate(27.5 0)"/>
     <use xlink:href="#NotoNaskhArabic-Bold-25" transform="translate(97.203125 0)"/>
     <use xlink:href="#NotoNaskhArabic-Bold-215" transform="translate(126.40625 0)"/>
     <use xlink:href="#NotoNaskhArabic-Bold-554" transform="translate(177.109375 0)"/>
     <use xlink:href="#NotoNaskhArabic-Bold-3" transform="translate(199.203125 0)"/>
     <use xlink:href="#NotoNaskhArabic-Bold-1c1" transform="translate(227.609375 0)"/>
     <use xlink:href="#NotoNaskhArabic-Bold-1e4" transform="translate(249.3125 0)"/>
     <use xlink:href="#NotoNaskhArabic-Bold-a3" transform="translate(290.609375 0)"/>
     <use xlink:href="#NotoNaskhArabic-Bold-4" transform="translate(356.3125 0)"/>
     <use xlink:href="#NotoNaskhArabic-Bold-126" transform="translate(385.109375 0)"/>
     <use xlink:href="#NotoNaskhArabic-Bold-d4" transform="translate(454.40625 0)"/>
     <use xlink:href="#NotoNaskhArabic-Bold-214" transform="translate(493.90625 0)"/>
    </g>
    <!-- %1 -->
    <g style="fill: #b7791f" transform="translate(239.163703 183.471125) scale(0.095 -0.095)">
     <defs>
      <path id="DejaVuSans-Bold-8" d="M 4959 1925 
Q 4738 1925 4616 1733 
Q 4494 1541 4494 1184 
Q 4494 825 4614 633 
Q 4734 441 4959 441 
Q 5184 441 5303 633 
Q 5422 825 5422 1184 
Q 5422 1541 5301 1733 
Q 5181 1925 4959 1925 
z
M 4959 2450 
Q 5541 2450 5875 2112 
Q 6209 1775 6209 1184 
Q 6209 594 5875 251 
Q 5541 -91 4959 -91 
Q 4378 -91 4042 251 
Q 3706 594 3706 1184 
Q 3706 1772 4042 2111 
Q 4378 2450 4959 2450 
z
M 2094 -91 
L 1403 -91 
L 4319 4750 
L 5013 4750 
L 2094 -91 
z
M 1453 4750 
Q 2034 4750 2367 4411 
Q 2700 4072 2700 3481 
Q 2700 2891 2367 2550 
Q 2034 2209 1453 2209 
Q 872 2209 539 2550 
Q 206 2891 206 3481 
Q 206 4072 539 4411 
Q 872 4750 1453 4750 
z
M 1453 4225 
Q 1228 4225 1106 4031 
Q 984 3838 984 3481 
Q 984 3122 1106 2926 
Q 1228 2731 1453 2731 
Q 1678 2731 1798 2926 
Q 1919 3122 1919 3481 
Q 1919 3838 1797 4031 
Q 1675 4225 1453 4225 
z
" transform="scale(0.015625)"/>
     </defs>
     <use xlink:href="#DejaVuSans-Bold-8"/>
     <use xlink:href="#NotoNaskhArabic-Bold-4cd" transform="translate(100.203125 0)"/>
    </g>
   </g>
   <g id="text_4">
    <!-- ﻒﻗﻮﻟﺍ ﺔﻓﺎﺴﻣ -->
    <g style="fill: #b91c1c" transform="translate(370.898305 167.292625) scale(0.095 -0.095)">
     <use xlink:href="#NotoNaskhArabic-Bold-1e5"/>
     <use xlink:href="#NotoNaskhArabic-Bold-f9" transform="translate(47.296875 0)"/>
     <use xlink:href="#NotoNaskhArabic-Bold-4" transform="translate(117 0)"/>
     <use xlink:href="#NotoNaskhArabic-Bold-146" transform="translate(145.796875 0)"/>
     <use xlink:href="#NotoNaskhArabic-Bold-215" transform="translate(188.5 0)"/>
     <use xlink:href="#NotoNaskhArabic-Bold-554" transform="translate(239.203125 0)"/>
     <use xlink:href="#NotoNaskhArabic-Bold-3" transform="translate(261.296875 0)"/>
     <use xlink:href="#NotoNaskhArabic-Bold-1c1" transform="translate(289.703125 0)"/>
     <use xlink:href="#NotoNaskhArabic-Bold-219" transform="translate(311.40625 0)"/>
     <use xlink:href="#NotoNaskhArabic-Bold-16a" transform="translate(360.203125 0)"/>
     <use xlink:href="#NotoNaskhArabic-Bold-144" transform="translate(402.90625 0)"/>
    </g>
    <!-- ﺔﻄﻘﻧ 50 -->
    <g style="fill: #b91c1c" transform="translate(378.47975 183.471125) scale(0.095 -0.095)">
     <defs>
      <path id="NotoNaskhArabic-Bold-4d1" d="M 1542 -64 
Q 787 -64 314 186 
L 314 1018 
Q 557 890 886 806 
Q 1216 723 1510 723 
Q 2394 723 2394 1446 
Q 2394 2138 1478 2138 
Q 1312 2138 1113 2106 
Q 915 2074 787 2035 
L 403 2240 
L 576 4570 
L 3053 4570 
L 3053 3750 
L 1421 3750 
L 1338 2854 
Q 1504 2886 1635 2902 
Q 1766 2918 1920 2918 
Q 2586 2918 2976 2547 
Q 3366 2176 3366 1530 
Q 3366 762 2892 349 
Q 2419 -64 1542 -64 
z
" transform="scale(0.015625)"/>
     </defs>
     <use xlink:href="#NotoNaskhArabic-Bold-4d1"/>
     <use xlink:href="#NotoNaskhArabic-Bold-4cc" transform="translate(57.203125 0)"/>
     <use xlink:href="#NotoNaskhArabic-Bold-554" transform="translate(114.40625 0)"/>
     <use xlink:href="#NotoNaskhArabic-Bold-1ea" transform="translate(136.5 0)"/>
     <use xlink:href="#NotoNaskhArabic-Bold-169" transform="translate(164 0)"/>
     <use xlink:href="#NotoNaskhArabic-Bold-125" transform="translate(205.203125 0)"/>
     <use xlink:href="#NotoNaskhArabic-Bold-215" transform="translate(275.796875 0)"/>
    </g>
   </g>
   <g id="text_5">
    <!-- ﺰﻛﺮﻤﻟﺍ ﻢﺠﺣ -->
    <g style="fill: #1f8a56" transform="translate(521.248453 167.292625) scale(0.095 -0.095)">
     <use xlink:href="#NotoNaskhArabic-Bold-8c"/>
     <use xlink:href="#NotoNaskhArabic-Bold-73" transform="translate(64.90625 0)"/>
     <use xlink:href="#NotoNaskhArabic-Bold-1e3" transform="translate(130.609375 0)"/>
     <use xlink:href="#NotoNaskhArabic-Bold-554" transform="translate(186.109375 0)"/>
     <use xlink:href="#NotoNaskhArabic-Bold-3" transform="translate(208.203125 0)"/>
     <use xlink:href="#NotoNaskhArabic-Bold-1c1" transform="translate(236.609375 0)"/>
     <use xlink:href="#NotoNaskhArabic-Bold-1e4" transform="translate(258.3125 0)"/>
     <use xlink:href="#NotoNaskhArabic-Bold-d4" transform="translate(299.609375 0)"/>
     <use xlink:href="#NotoNaskhArabic-Bold-176" transform="translate(339.109375 0)"/>
     <use xlink:href="#NotoNaskhArabic-Bold-d6" transform="translate(383.40625 0)"/>
    </g>
    <!-- ﺕﻮﻟ 2 -->
    <g style="fill: #1f8a56" transform="translate(530.392945 183.471125) scale(0.095 -0.095)">
     <defs>
      <path id="NotoNaskhArabic-Bold-4ce" d="M 256 0 
L 256 672 
L 1402 1830 
Q 1914 2355 2067 2554 
Q 2234 2765 2298 2925 
Q 2362 3085 2362 3283 
Q 2362 3558 2211 3692 
Q 2061 3827 1805 3827 
Q 1542 3827 1292 3705 
Q 1043 3584 768 3360 
L 243 3981 
Q 518 4218 761 4358 
Q 1005 4499 1267 4566 
Q 1530 4634 1875 4634 
Q 2304 4634 2633 4477 
Q 2963 4320 3142 4038 
Q 3322 3763 3322 3398 
Q 3322 3085 3213 2809 
Q 3104 2534 2867 2240 
Q 2752 2093 2547 1885 
Q 2342 1677 2048 1408 
L 1459 858 
L 1459 813 
L 3450 813 
L 3450 0 
L 256 0 
z
" transform="scale(0.015625)"/>
      <path id="NotoNaskhArabic-Bold-35" d="M 2010 0 
Q 1235 0 841 352 
Q 448 704 448 1363 
Q 448 1638 570 2067 
L 858 2067 
Q 851 2042 844 1926 
Q 838 1811 838 1747 
Q 838 1376 982 1174 
Q 1126 973 1434 864 
Q 1587 819 1792 790 
Q 1997 762 2246 762 
Q 2803 762 3340 864 
Q 3878 966 4320 1165 
Q 4256 1312 4157 1494 
Q 4058 1677 4000 1779 
Q 3936 1907 3891 2006 
Q 3846 2106 3846 2189 
Q 3846 2342 4019 2528 
Q 4192 2714 4429 2835 
Q 4531 2355 4585 2054 
Q 4640 1754 4665 1590 
Q 4691 1427 4691 1350 
Q 4691 1203 4617 982 
Q 4544 762 4442 576 
Q 4160 403 3766 275 
Q 3373 147 2921 73 
Q 2470 0 2010 0 
z
M 2752 2278 
Q 2617 2387 2508 2483 
Q 2400 2579 2310 2675 
Q 2547 2893 2739 3123 
Q 2796 3059 2898 2963 
Q 3001 2867 3142 2726 
Q 2969 2490 2752 2278 
z
M 1894 2182 
Q 1619 2406 1452 2586 
Q 1561 2694 1670 2806 
Q 1779 2918 1888 3027 
Q 2003 2893 2284 2630 
Q 2124 2400 1894 2182 
z
" transform="scale(0.015625)"/>
     </defs>
     <use xlink:href="#NotoNaskhArabic-Bold-4ce"/>
     <use xlink:href="#NotoNaskhArabic-Bold-554" transform="translate(57.203125 0)"/>
     <use xlink:href="#NotoNaskhArabic-Bold-1c1" transform="translate(79.296875 0)"/>
     <use xlink:href="#NotoNaskhArabic-Bold-219" transform="translate(101 0)"/>
     <use xlink:href="#NotoNaskhArabic-Bold-35" transform="translate(149.796875 0)"/>
    </g>
   </g>
  </g>
 </g>
 <defs>
  <clipPath id="p02913a570d">
   <rect x="7.2" y="7.2" width="613.95" height="282.75"/>
  </clipPath>
 </defs>
</svg>
