<?xml version="1.0" encoding="utf-8" standalone="no"?>
<!DOCTYPE svg PUBLIC "-//W3C//DTD SVG 1.1//EN"
  "http://www.w3.org/Graphics/SVG/1.1/DTD/svg11.dtd">
<svg xmlns:xlink="http://www.w3.org/1999/xlink" width="628.35pt" height="325.010815pt" viewBox="0 0 628.35 325.010815" xmlns="http://www.w3.org/2000/svg" version="1.1">
 <metadata>
  <rdf:RDF xmlns:dc="http://purl.org/dc/elements/1.1/" xmlns:cc="http://creativecommons.org/ns#" xmlns:rdf="http://www.w3.org/1999/02/22-rdf-syntax-ns#">
   <cc:Work>
    <dc:type rdf:resource="http://purl.org/dc/dcmitype/StillImage"/>
    <dc:date>2026-07-19T00:33:04.938340</dc:date>
    <dc:format>image/svg+xml</dc:format>
    <dc:creator>
     <cc:Agent>
      <dc:title>Matplotlib v3.11.1, https://matplotlib.org/</dc:title>
     </cc:Agent>
    </dc:creator>
   </cc:Work>
  </rdf:RDF>
 </metadata>
 <defs>
  <style type="text/css">*{stroke-linejoin: round; stroke-linecap: butt}</style>
 </defs>
 <g id="figure_1">
  <g id="patch_1">
   <path d="M 0 325.010815 
L 628.35 325.010815 
L 628.35 0 
L 0 0 
z
" style="fill: #ffffff"/>
  </g>
  <g id="axes_1">
   <g id="patch_2">
    <path d="M 51.882359 292.929315 
L 621.15 292.929315 
L 621.15 10.931615 
L 51.882359 10.931615 
z
" style="fill: #ffffff"/>
   </g>
   <g id="matplotlib.axis_1">
    <g id="xtick_1">
     <g id="line2d_1">
      <defs>
       <path id="mf84b41aeaf" d="M 0 0 
L 0 3.5 
" style="stroke: #555555; stroke-width: 0.8"/>
      </defs>
      <g>
       <use xlink:href="#mf84b41aeaf" x="125.285144" y="292.929315" style="fill: #555555; stroke: #555555; stroke-width: 0.8"/>
      </g>
     </g>
     <g id="text_1">
      <!-- ​ﺔﻴﻠﻴﻐﺸﺘﻟﺍ -->
      <g style="fill: #555555" transform="translate(107.860066 311.153815) scale(0.105 -0.105)">
       <defs>
        <path id="NotoNaskhArabic-Regular-3" d="M 666 0 
Q 646 1126 604 2057 
Q 563 2989 493 3725 
Q 467 3987 566 4118 
Q 666 4250 915 4294 
Q 941 4173 1001 3965 
Q 1062 3757 1139 3533 
L 966 3386 
Q 992 2912 1001 2413 
Q 1011 1914 1001 1338 
Q 992 762 960 51 
L 666 0 
z
" transform="scale(0.015625)"/>
        <path id="NotoNaskhArabic-Regular-1c1" d="M -6 0 
Q -64 0 -64 51 
L -64 435 
Q -64 486 -6 486 
Q 378 486 704 659 
Q 685 902 665 1139 
Q 646 1376 627 1606 
Q 570 2208 512 2790 
Q 454 3373 384 3936 
Q 474 4032 579 4121 
Q 685 4211 806 4294 
Q 826 3949 851 3497 
Q 877 3046 915 2483 
Q 947 2016 960 1609 
Q 973 1203 979 864 
Q 979 755 915 572 
Q 851 390 755 224 
Q 640 0 -6 0 
z
" transform="scale(0.015625)"/>
        <path id="NotoNaskhArabic-Regular-37" d="M 0 0 
Q -51 0 -51 51 
L -51 435 
Q -51 486 0 486 
Q 397 486 672 521 
Q 947 557 1062 640 
Q 1133 685 1229 841 
Q 1325 998 1510 1350 
Q 1568 1459 1709 1459 
Q 1786 1459 1869 1408 
Q 1830 1312 1763 1161 
Q 1696 1011 1638 883 
Q 1581 755 1555 730 
Q 1773 595 1958 540 
Q 2144 486 2362 486 
Q 2413 486 2413 435 
L 2413 51 
Q 2413 0 2362 0 
Q 1766 0 1350 371 
L 1248 237 
Q 1203 192 1001 134 
Q 800 77 528 38 
Q 256 0 0 0 
z
M 1728 2035 
Q 1587 2144 1481 2243 
Q 1376 2342 1306 2432 
Q 1338 2464 1440 2573 
Q 1542 2682 1715 2861 
Q 1754 2822 1853 2726 
Q 1952 2630 2112 2477 
Q 1990 2285 1728 2035 
z
M 768 1946 
Q 627 2061 518 2160 
Q 410 2259 339 2336 
Q 506 2496 755 2771 
Q 794 2726 890 2630 
Q 986 2534 1146 2387 
Q 1088 2291 992 2182 
Q 896 2074 768 1946 
z
" transform="scale(0.015625)"/>
        <path id="NotoNaskhArabic-Regular-105" d="M 1446 0 
Q 1267 0 1030 57 
Q 794 115 666 198 
Q 576 109 397 54 
Q 218 0 0 0 
Q -51 0 -51 51 
L -51 435 
Q -51 486 0 486 
Q 326 486 518 634 
Q 627 723 681 809 
Q 736 896 858 1094 
Q 915 1197 1056 1197 
Q 1146 1197 1210 1152 
Q 1114 909 1046 765 
Q 979 621 947 570 
Q 998 544 1155 515 
Q 1312 486 1517 486 
Q 1664 486 1789 505 
Q 1914 525 2016 550 
Q 2061 621 2115 793 
Q 2170 966 2227 1145 
Q 2285 1325 2323 1408 
Q 2381 1536 2432 1574 
Q 2483 1613 2579 1613 
Q 2669 1613 2733 1568 
Q 2688 1466 2608 1235 
Q 2528 1005 2400 582 
Q 2496 538 2566 522 
Q 2637 506 2739 506 
Q 2906 506 3091 570 
Q 3123 608 3168 723 
Q 3213 838 3277 1030 
Q 3328 1190 3385 1331 
Q 3443 1472 3501 1568 
Q 3552 1664 3699 1664 
Q 3789 1664 3853 1619 
Q 3808 1517 3728 1289 
Q 3648 1062 3533 710 
Q 3757 589 3917 537 
Q 4077 486 4294 486 
Q 4352 486 4352 435 
L 4352 51 
Q 4352 0 4294 0 
Q 4045 0 3798 96 
Q 3552 192 3386 346 
Q 3366 301 3347 259 
Q 3328 218 3296 173 
Q 3251 96 3078 48 
Q 2906 0 2733 0 
Q 2438 0 2221 160 
Q 2176 102 2041 67 
Q 1907 32 1744 19 
Q 1581 6 1446 0 
z
M 2317 2605 
Q 2150 2707 1958 2918 
Q 2054 3014 2140 3103 
Q 2227 3193 2298 3277 
Q 2413 3123 2650 2918 
Q 2464 2701 2317 2605 
z
M 2771 2080 
Q 2560 2246 2394 2432 
Q 2451 2483 2547 2582 
Q 2643 2681 2765 2822 
Q 2854 2733 2940 2643 
Q 3027 2553 3117 2470 
Q 3053 2381 2969 2281 
Q 2886 2182 2771 2080 
z
M 1862 1997 
Q 1741 2093 1645 2182 
Q 1549 2272 1478 2349 
Q 1632 2489 1850 2739 
Q 1914 2662 2202 2387 
Q 2144 2304 2061 2204 
Q 1978 2105 1862 1997 
z
" transform="scale(0.015625)"/>
        <path id="NotoNaskhArabic-Regular-13d" d="M 6 0 
Q -51 0 -51 58 
L -51 429 
Q -51 486 6 486 
Q 672 486 1101 640 
L 986 787 
Q 864 973 771 1094 
Q 678 1216 621 1280 
Q 506 1427 410 1491 
L 307 1427 
Q 192 1555 192 1709 
Q 192 1862 297 1974 
Q 403 2086 566 2172 
Q 730 2259 902 2310 
Q 1158 2394 1446 2394 
Q 1722 2394 1936 2288 
Q 2150 2182 2272 2003 
Q 2400 1824 2400 1594 
Q 2400 1293 2243 1049 
Q 2086 806 1830 602 
Q 2099 486 2694 486 
Q 2758 486 2758 429 
L 2758 58 
Q 2758 0 2694 0 
Q 2259 0 1955 83 
Q 1651 166 1402 346 
Q 1050 166 723 83 
Q 397 0 6 0 
z
M 1478 845 
Q 1696 992 1821 1152 
Q 1946 1312 1946 1459 
Q 1946 1638 1811 1753 
Q 1677 1869 1466 1869 
Q 1075 1869 710 1677 
Q 947 1491 1325 1018 
Q 1395 934 1478 845 
z
M 1363 2822 
Q 1082 3033 903 3238 
Q 1229 3565 1351 3705 
Q 1453 3597 1558 3491 
Q 1664 3385 1773 3289 
Q 1626 3078 1363 2822 
z
" transform="scale(0.015625)"/>
        <path id="NotoNaskhArabic-Regular-240" d="M 0 0 
Q -51 0 -51 51 
L -51 435 
Q -51 486 0 486 
Q 397 486 672 521 
Q 947 557 1062 640 
Q 1133 685 1229 841 
Q 1325 998 1510 1350 
Q 1568 1459 1709 1459 
Q 1786 1459 1869 1408 
Q 1830 1312 1763 1161 
Q 1696 1011 1638 883 
Q 1581 755 1555 730 
Q 1773 595 1958 540 
Q 2144 486 2362 486 
Q 2413 486 2413 435 
L 2413 51 
Q 2413 0 2362 0 
Q 1766 0 1350 371 
L 1248 237 
Q 1203 192 1001 134 
Q 800 77 528 38 
Q 256 0 0 0 
z
M 1728 -1165 
Q 1459 -953 1312 -774 
Q 1453 -640 1721 -345 
Q 1753 -371 1849 -467 
Q 1945 -563 2118 -729 
Q 2054 -819 1958 -928 
Q 1862 -1037 1728 -1165 
z
M 774 -1261 
Q 486 -1030 345 -870 
Q 435 -793 537 -684 
Q 640 -576 761 -435 
Q 787 -467 886 -563 
Q 985 -659 1152 -819 
Q 1094 -915 998 -1024 
Q 902 -1133 774 -1261 
z
" transform="scale(0.015625)"/>
        <path id="NotoNaskhArabic-Regular-1bf" d="M 0 0 
Q -51 0 -51 51 
L -51 435 
Q -51 486 0 486 
Q 352 486 698 653 
Q 659 992 608 1600 
Q 557 2208 499 3085 
Q 480 3296 464 3510 
Q 448 3725 435 3936 
Q 531 4038 636 4124 
Q 742 4211 864 4294 
Q 883 3853 902 3165 
Q 922 2477 934 1536 
Q 934 1318 940 1097 
Q 947 877 954 659 
Q 1242 486 1619 486 
Q 1677 486 1677 435 
L 1677 51 
Q 1677 0 1619 0 
Q 1152 0 883 230 
Q 646 96 460 48 
Q 275 0 0 0 
z
" transform="scale(0.015625)"/>
        <path id="NotoNaskhArabic-Regular-215" d="M 3040 0 
Q 2656 0 2416 147 
Q 2176 294 2138 557 
L 2112 691 
L 1882 250 
Q 1651 275 1520 291 
Q 1389 307 1305 332 
Q 1222 358 1126 397 
Q 1011 442 873 515 
Q 736 589 633 675 
Q 531 762 531 838 
Q 531 896 572 1014 
Q 614 1133 668 1251 
Q 723 1370 762 1434 
Q 813 1523 922 1632 
Q 1088 1792 1344 1955 
Q 1600 2118 1875 2227 
L 1850 2400 
Q 2074 2598 2317 2733 
Q 2330 2214 2349 1696 
Q 2368 1178 2374 659 
Q 2675 486 3040 486 
Q 3098 486 3098 435 
L 3098 51 
Q 3098 0 3040 0 
z
M 2099 768 
Q 2061 1018 2019 1283 
Q 1978 1549 1933 1811 
Q 1171 1555 845 1139 
Q 1018 986 1219 909 
Q 1421 832 1645 800 
Q 1754 787 1869 780 
Q 1984 774 2099 768 
z
M 2067 2995 
Q 1926 3104 1820 3203 
Q 1715 3302 1645 3392 
Q 1677 3424 1779 3533 
Q 1881 3642 2054 3821 
Q 2093 3782 2192 3686 
Q 2291 3590 2451 3437 
Q 2329 3245 2067 2995 
z
M 1107 2906 
Q 966 3021 857 3120 
Q 749 3219 678 3296 
Q 845 3456 1094 3731 
Q 1133 3686 1229 3590 
Q 1325 3494 1485 3347 
Q 1427 3251 1331 3142 
Q 1235 3034 1107 2906 
z
" transform="scale(0.015625)"/>
        <path id="NotoNaskhArabic-Regular-554" transform="scale(0.015625)"/>
       </defs>
       <use xlink:href="#NotoNaskhArabic-Regular-3"/>
       <use xlink:href="#NotoNaskhArabic-Regular-1c1" transform="translate(23.796875 0)"/>
       <use xlink:href="#NotoNaskhArabic-Regular-37" transform="translate(45 0)"/>
       <use xlink:href="#NotoNaskhArabic-Regular-105" transform="translate(81 0)"/>
       <use xlink:href="#NotoNaskhArabic-Regular-13d" transform="translate(147.296875 0)"/>
       <use xlink:href="#NotoNaskhArabic-Regular-240" transform="translate(188.703125 0)"/>
       <use xlink:href="#NotoNaskhArabic-Regular-1bf" transform="translate(224.703125 0)"/>
       <use xlink:href="#NotoNaskhArabic-Regular-240" transform="translate(249.203125 0)"/>
       <use xlink:href="#NotoNaskhArabic-Regular-215" transform="translate(285.203125 0)"/>
       <use xlink:href="#NotoNaskhArabic-Regular-554" transform="translate(331.90625 0)"/>
      </g>
     </g>
    </g>
    <g id="xtick_2">
     <g id="line2d_2">
      <g>
       <use xlink:href="#mf84b41aeaf" x="336.51618" y="292.929315" style="fill: #555555; stroke: #555555; stroke-width: 0.8"/>
      </g>
     </g>
     <g id="text_2">
      <!-- ​ﺔﻳﺭﺎﻤﺜﺘﺳﻻﺍ -->
      <g style="fill: #555555" transform="translate(315.538328 311.153815) scale(0.105 -0.105)">
       <defs>
        <path id="NotoNaskhArabic-Regular-2de" d="M 877 0 
Q 858 0 858 70 
Q 858 128 874 227 
Q 890 326 915 406 
Q 941 486 954 486 
L 1088 486 
Q 1376 710 1555 864 
Q 1734 1018 1862 1155 
Q 1990 1293 2118 1459 
Q 1830 1792 1472 2089 
Q 1114 2387 768 2586 
L 531 2573 
Q 224 2861 224 3123 
Q 224 3219 262 3312 
Q 301 3405 442 3475 
Q 621 3354 835 3181 
Q 1050 3008 1274 2813 
Q 1498 2618 1690 2426 
Q 1837 2285 1990 2118 
Q 2144 1952 2304 1766 
Q 2426 2048 2426 2317 
Q 2426 2451 2390 2745 
Q 2355 3040 2285 3501 
Q 2253 3718 2233 3846 
Q 2214 3974 2214 4000 
Q 2214 4326 2643 4403 
Q 2688 4205 2749 4016 
Q 2810 3827 2874 3642 
L 2701 3494 
L 2707 3360 
L 2746 2445 
Q 2746 1958 2502 1491 
Q 2566 1389 2646 1248 
Q 2726 1107 2803 963 
Q 2880 819 2931 704 
Q 2982 589 2982 538 
Q 2982 474 2947 374 
Q 2912 275 2867 195 
Q 2822 115 2790 109 
Q 2490 58 2013 29 
Q 1536 0 877 0 
z
M 1594 499 
Q 2157 518 2733 614 
Q 2662 742 2560 892 
Q 2458 1043 2323 1210 
Q 2189 1024 2003 845 
Q 1818 666 1594 499 
z
" transform="scale(0.015625)"/>
        <path id="NotoNaskhArabic-Regular-fa" d="M 1446 0 
Q 1261 0 1027 61 
Q 794 122 666 198 
Q 576 109 397 54 
Q 218 0 0 0 
Q -51 0 -51 51 
L -51 435 
Q -51 486 0 486 
Q 326 486 518 634 
Q 595 691 636 745 
Q 678 800 726 880 
Q 774 960 858 1094 
Q 915 1197 1056 1197 
Q 1146 1197 1210 1152 
Q 1114 909 1046 765 
Q 979 621 947 570 
Q 998 544 1155 515 
Q 1312 486 1517 486 
Q 1664 486 1789 505 
Q 1914 525 2016 550 
Q 2061 614 2115 784 
Q 2170 954 2224 1136 
Q 2278 1318 2323 1408 
Q 2381 1536 2429 1574 
Q 2477 1613 2579 1613 
Q 2669 1613 2733 1568 
Q 2688 1466 2617 1261 
Q 2547 1056 2451 755 
Q 2675 659 2848 604 
Q 3021 550 3193 528 
Q 3366 506 3584 506 
Q 3558 602 3497 768 
Q 3437 934 3373 1116 
Q 3309 1299 3261 1443 
Q 3213 1587 3213 1638 
Q 3213 1779 3325 1920 
Q 3437 2061 3635 2176 
Q 3661 1997 3721 1741 
Q 3782 1485 3833 1229 
Q 3885 973 3885 787 
Q 3885 717 3846 573 
Q 3808 429 3753 272 
Q 3699 115 3635 0 
Q 3226 0 2925 57 
Q 2624 115 2278 275 
Q 2259 224 2227 173 
Q 2189 109 2057 73 
Q 1926 38 1760 22 
Q 1594 6 1446 0 
z
" transform="scale(0.015625)"/>
        <path id="NotoNaskhArabic-Regular-43" d="M 0 0 
Q -51 0 -51 51 
L -51 435 
Q -51 486 0 486 
Q 397 486 672 521 
Q 947 557 1062 640 
Q 1133 685 1229 841 
Q 1325 998 1510 1350 
Q 1568 1459 1709 1459 
Q 1786 1459 1869 1408 
Q 1830 1312 1763 1161 
Q 1696 1011 1638 883 
Q 1581 755 1555 730 
Q 1773 595 1958 540 
Q 2144 486 2362 486 
Q 2413 486 2413 435 
L 2413 51 
Q 2413 0 2362 0 
Q 1766 0 1350 371 
L 1248 237 
Q 1203 192 1001 134 
Q 800 77 528 38 
Q 256 0 0 0 
z
M 1293 2554 
Q 1126 2656 934 2867 
Q 1030 2963 1116 3052 
Q 1203 3142 1274 3226 
Q 1389 3072 1626 2867 
Q 1440 2650 1293 2554 
z
M 1747 2029 
Q 1536 2195 1370 2381 
Q 1427 2432 1523 2531 
Q 1619 2630 1741 2771 
Q 1830 2682 1916 2592 
Q 2003 2502 2093 2419 
Q 2029 2330 1945 2230 
Q 1862 2131 1747 2029 
z
M 838 1946 
Q 717 2042 621 2131 
Q 525 2221 454 2298 
Q 608 2438 826 2688 
Q 890 2611 1178 2336 
Q 1120 2253 1037 2153 
Q 954 2054 838 1946 
z
" transform="scale(0.015625)"/>
        <path id="NotoNaskhArabic-Regular-1e4" d="M 2016 0 
Q 1414 0 902 192 
Q 595 77 400 38 
Q 205 0 0 0 
Q -51 0 -51 51 
L -51 435 
Q -51 486 0 486 
Q 109 486 211 505 
Q 314 525 416 550 
Q 371 640 371 749 
Q 371 928 460 1152 
Q 550 1376 700 1590 
Q 851 1805 1037 1952 
Q 1318 2176 1568 2176 
Q 1677 2176 1760 2051 
Q 1843 1926 1926 1734 
Q 1971 1645 2009 1542 
Q 2048 1440 2086 1331 
Q 2163 1114 2252 928 
Q 2342 742 2445 614 
Q 2554 486 2682 486 
Q 2752 486 2752 422 
L 2752 70 
Q 2752 0 2682 0 
Q 2362 0 2099 282 
L 2016 0 
z
M 1978 442 
Q 1837 646 1728 979 
Q 1619 1312 1581 1683 
Q 1421 1613 1241 1475 
Q 1062 1338 918 1178 
Q 774 1018 704 877 
Q 1133 525 1978 442 
z
" transform="scale(0.015625)"/>
        <path id="NotoNaskhArabic-Regular-4" d="M 1677 0 
Q 1299 0 1049 150 
Q 800 301 768 557 
Q 742 787 713 1072 
Q 685 1357 653 1747 
Q 621 2138 579 2672 
Q 538 3206 486 3936 
Q 576 4026 685 4118 
Q 794 4211 922 4294 
Q 941 3795 953 3308 
Q 966 2822 976 2281 
Q 986 1741 992 1082 
L 1011 653 
Q 1312 486 1677 486 
Q 1728 486 1728 435 
L 1728 51 
Q 1728 0 1677 0 
z
" transform="scale(0.015625)"/>
        <path id="NotoNaskhArabic-Regular-d3" d="M 710 -1306 
Q 608 -1306 451 -1248 
Q 294 -1190 134 -1107 
Q -26 -1024 -128 -947 
L -45 -736 
Q 134 -768 284 -787 
Q 435 -806 563 -806 
Q 1043 -806 1385 -518 
Q 1728 -230 1907 314 
Q 1862 416 1814 515 
Q 1766 614 1709 717 
Q 1491 1107 1388 1340 
Q 1286 1574 1286 1734 
Q 1286 1901 1382 2000 
Q 1478 2099 1658 2182 
Q 1696 2029 1789 1785 
Q 1882 1542 1946 1357 
Q 2029 1133 2086 915 
Q 2144 698 2144 518 
Q 2144 19 1955 -406 
Q 1766 -832 1440 -1069 
Q 1107 -1306 710 -1306 
z
" transform="scale(0.015625)"/>
        <path id="NotoNaskhArabic-Regular-241" d="M 0 0 
Q -51 0 -51 51 
L -51 435 
Q -51 486 0 486 
Q 314 486 618 515 
Q 922 544 1171 598 
Q 1421 653 1568 723 
Q 1536 851 1478 1027 
Q 1421 1203 1331 1427 
Q 1274 1594 1242 1699 
Q 1210 1805 1210 1856 
Q 1210 1997 1325 2144 
Q 1440 2291 1632 2394 
Q 1715 2022 1766 1782 
Q 1818 1542 1843 1369 
Q 1869 1197 1869 1005 
Q 1869 781 1651 352 
Q 1478 250 1206 170 
Q 934 90 620 45 
Q 307 0 0 0 
z
M 1581 -1165 
Q 1312 -953 1165 -774 
Q 1306 -640 1574 -345 
Q 1606 -371 1702 -467 
Q 1798 -563 1971 -729 
Q 1907 -819 1811 -928 
Q 1715 -1037 1581 -1165 
z
M 627 -1261 
Q 339 -1030 198 -870 
Q 288 -793 390 -684 
Q 493 -576 614 -435 
Q 640 -467 739 -563 
Q 838 -659 1005 -819 
Q 947 -915 851 -1024 
Q 755 -1133 627 -1261 
z
" transform="scale(0.015625)"/>
       </defs>
       <use xlink:href="#NotoNaskhArabic-Regular-3"/>
       <use xlink:href="#NotoNaskhArabic-Regular-2de" transform="translate(23.796875 0)"/>
       <use xlink:href="#NotoNaskhArabic-Regular-fa" transform="translate(75.59375 0)"/>
       <use xlink:href="#NotoNaskhArabic-Regular-37" transform="translate(141.390625 0)"/>
       <use xlink:href="#NotoNaskhArabic-Regular-43" transform="translate(177.390625 0)"/>
       <use xlink:href="#NotoNaskhArabic-Regular-1e4" transform="translate(213.390625 0)"/>
       <use xlink:href="#NotoNaskhArabic-Regular-4" transform="translate(254.6875 0)"/>
       <use xlink:href="#NotoNaskhArabic-Regular-d3" transform="translate(279.984375 0)"/>
       <use xlink:href="#NotoNaskhArabic-Regular-241" transform="translate(318.578125 0)"/>
       <use xlink:href="#NotoNaskhArabic-Regular-215" transform="translate(352.875 0)"/>
       <use xlink:href="#NotoNaskhArabic-Regular-554" transform="translate(399.578125 0)"/>
      </g>
     </g>
    </g>
    <g id="xtick_3">
     <g id="line2d_3">
      <g>
       <use xlink:href="#mf84b41aeaf" x="547.747215" y="292.929315" style="fill: #555555; stroke: #555555; stroke-width: 0.8"/>
      </g>
     </g>
     <g id="text_3">
      <!-- ​ﺔﻴﻠﻳﻮﻤﺘﻟﺍ -->
      <g style="fill: #555555" transform="translate(531.441043 311.153815) scale(0.105 -0.105)">
       <defs>
        <path id="NotoNaskhArabic-Regular-219" d="M 1235 -1299 
Q 1101 -1299 905 -1238 
Q 710 -1178 521 -1082 
Q 333 -986 218 -890 
L 307 -678 
Q 646 -800 1088 -800 
Q 1485 -800 1792 -605 
Q 2099 -410 2310 6 
Q 1997 19 1763 44 
Q 1530 70 1376 115 
Q 1037 205 902 374 
Q 768 544 768 877 
Q 768 1203 899 1523 
Q 1030 1843 1242 2035 
Q 1453 2227 1670 2227 
Q 1933 2227 2163 1990 
Q 2394 1754 2534 1338 
Q 2605 1126 2637 918 
Q 2669 710 2669 486 
L 3053 486 
Q 3104 486 3104 435 
L 3104 51 
Q 3104 0 3053 0 
L 2605 0 
Q 2509 -365 2304 -669 
Q 2099 -973 1818 -1139 
Q 1542 -1299 1235 -1299 
z
M 2413 493 
Q 2362 826 2234 1094 
Q 2106 1363 1933 1523 
Q 1760 1683 1574 1683 
Q 1440 1683 1309 1580 
Q 1178 1478 1094 1331 
Q 1011 1184 1011 1062 
Q 1011 838 1177 720 
Q 1344 602 1632 550 
Q 1779 525 1968 515 
Q 2157 506 2413 493 
z
" transform="scale(0.015625)"/>
       </defs>
       <use xlink:href="#NotoNaskhArabic-Regular-3"/>
       <use xlink:href="#NotoNaskhArabic-Regular-1c1" transform="translate(23.796875 0)"/>
       <use xlink:href="#NotoNaskhArabic-Regular-37" transform="translate(45 0)"/>
       <use xlink:href="#NotoNaskhArabic-Regular-1e4" transform="translate(81 0)"/>
       <use xlink:href="#NotoNaskhArabic-Regular-219" transform="translate(122.296875 0)"/>
       <use xlink:href="#NotoNaskhArabic-Regular-241" transform="translate(169.09375 0)"/>
       <use xlink:href="#NotoNaskhArabic-Regular-1bf" transform="translate(203.390625 0)"/>
       <use xlink:href="#NotoNaskhArabic-Regular-240" transform="translate(227.890625 0)"/>
       <use xlink:href="#NotoNaskhArabic-Regular-215" transform="translate(263.890625 0)"/>
       <use xlink:href="#NotoNaskhArabic-Regular-554" transform="translate(310.59375 0)"/>
      </g>
     </g>
    </g>
   </g>
   <g id="matplotlib.axis_2">
    <g id="ytick_1">
     <g id="line2d_4">
      <path d="M 51.882359 280.111238 
L 621.15 280.111238 
" clip-path="url(#p5f0a0a05e7)" style="fill: none; stroke: #e6e1d6; stroke-width: 0.8; stroke-linecap: square"/>
     </g>
     <g id="line2d_5">
      <defs>
       <path id="meb836c20ae" d="M 0 0 
L -3.5 0 
" style="stroke: #555555; stroke-width: 0.8"/>
      </defs>
      <g>
       <use xlink:href="#meb836c20ae" x="51.882359" y="280.111238" style="fill: #555555; stroke: #555555; stroke-width: 0.8"/>
      </g>
     </g>
     <g id="text_4">
      <!-- -15 -->
      <g style="fill: #555555" transform="translate(29.0815 285.723488) scale(0.105 -0.105)">
       <defs>
        <path id="DejaVuSans-10" d="M 313 2009 
L 1997 2009 
L 1997 1497 
L 313 1497 
L 313 2009 
z
" transform="scale(0.015625)"/>
        <path id="NotoNaskhArabic-Regular-4cd" d="M 1722 0 
L 1722 3194 
Q 1722 3405 1728 3603 
Q 1734 3802 1747 3981 
Q 1702 3936 1657 3891 
Q 1613 3846 1562 3808 
Q 1402 3674 1226 3530 
Q 1050 3386 864 3232 
L 570 3610 
L 1805 4570 
L 2272 4570 
L 2272 0 
L 1722 0 
z
" transform="scale(0.015625)"/>
        <path id="NotoNaskhArabic-Regular-4d1" d="M 1587 -64 
Q 826 -64 403 186 
L 403 717 
Q 634 576 960 496 
Q 1286 416 1594 416 
Q 2131 416 2425 672 
Q 2720 928 2720 1402 
Q 2720 2330 1574 2330 
Q 1210 2330 794 2234 
L 512 2413 
L 685 4570 
L 2976 4570 
L 2976 4058 
L 1165 4058 
L 1056 2733 
Q 1235 2765 1411 2784 
Q 1587 2803 1760 2803 
Q 2477 2803 2886 2444 
Q 3296 2086 3296 1459 
Q 3296 749 2841 342 
Q 2387 -64 1587 -64 
z
" transform="scale(0.015625)"/>
       </defs>
       <use xlink:href="#DejaVuSans-10"/>
       <use xlink:href="#NotoNaskhArabic-Regular-4cd" transform="translate(36.078125 0)"/>
       <use xlink:href="#NotoNaskhArabic-Regular-4d1" transform="translate(93.28125 0)"/>
      </g>
     </g>
    </g>
    <g id="ytick_2">
     <g id="line2d_6">
      <path d="M 51.882359 243.48816 
L 621.15 243.48816 
" clip-path="url(#p5f0a0a05e7)" style="fill: none; stroke: #e6e1d6; stroke-width: 0.8; stroke-linecap: square"/>
     </g>
     <g id="line2d_7">
      <g>
       <use xlink:href="#meb836c20ae" x="51.882359" y="243.48816" style="fill: #555555; stroke: #555555; stroke-width: 0.8"/>
      </g>
     </g>
     <g id="text_5">
      <!-- -10 -->
      <g style="fill: #555555" transform="translate(29.0815 249.10041) scale(0.105 -0.105)">
       <defs>
        <path id="NotoNaskhArabic-Regular-4cc" d="M 1824 -64 
Q 1082 -64 698 534 
Q 314 1133 314 2291 
Q 314 3488 682 4064 
Q 1050 4640 1824 4640 
Q 2566 4640 2956 4038 
Q 3347 3437 3347 2291 
Q 3347 1101 2969 518 
Q 2592 -64 1824 -64 
z
M 1824 416 
Q 2208 416 2426 678 
Q 2778 1094 2778 2291 
Q 2778 3571 2368 3962 
Q 2163 4160 1824 4160 
Q 1427 4160 1203 3878 
Q 877 3469 877 2291 
Q 877 1075 1229 666 
Q 1440 416 1824 416 
z
" transform="scale(0.015625)"/>
       </defs>
       <use xlink:href="#DejaVuSans-10"/>
       <use xlink:href="#NotoNaskhArabic-Regular-4cd" transform="translate(36.078125 0)"/>
       <use xlink:href="#NotoNaskhArabic-Regular-4cc" transform="translate(93.28125 0)"/>
      </g>
     </g>
    </g>
    <g id="ytick_3">
     <g id="line2d_8">
      <path d="M 51.882359 206.865082 
L 621.15 206.865082 
" clip-path="url(#p5f0a0a05e7)" style="fill: none; stroke: #e6e1d6; stroke-width: 0.8; stroke-linecap: square"/>
     </g>
     <g id="line2d_9">
      <g>
       <use xlink:href="#meb836c20ae" x="51.882359" y="206.865082" style="fill: #555555; stroke: #555555; stroke-width: 0.8"/>
      </g>
     </g>
     <g id="text_6">
      <!-- -5 -->
      <g style="fill: #555555" transform="translate(35.087828 212.477332) scale(0.105 -0.105)">
       <use xlink:href="#DejaVuSans-10"/>
       <use xlink:href="#NotoNaskhArabic-Regular-4d1" transform="translate(36.078125 0)"/>
      </g>
     </g>
    </g>
    <g id="ytick_4">
     <g id="line2d_10">
      <path d="M 51.882359 170.242004 
L 621.15 170.242004 
" clip-path="url(#p5f0a0a05e7)" style="fill: none; stroke: #e6e1d6; stroke-width: 0.8; stroke-linecap: square"/>
     </g>
     <g id="line2d_11">
      <g>
       <use xlink:href="#meb836c20ae" x="51.882359" y="170.242004" style="fill: #555555; stroke: #555555; stroke-width: 0.8"/>
      </g>
     </g>
     <g id="text_7">
      <!-- 0 -->
      <g style="fill: #555555" transform="translate(38.876031 175.854254) scale(0.105 -0.105)">
       <use xlink:href="#NotoNaskhArabic-Regular-4cc"/>
      </g>
     </g>
    </g>
    <g id="ytick_5">
     <g id="line2d_12">
      <path d="M 51.882359 133.618926 
L 621.15 133.618926 
" clip-path="url(#p5f0a0a05e7)" style="fill: none; stroke: #e6e1d6; stroke-width: 0.8; stroke-linecap: square"/>
     </g>
     <g id="line2d_13">
      <g>
       <use xlink:href="#meb836c20ae" x="51.882359" y="133.618926" style="fill: #555555; stroke: #555555; stroke-width: 0.8"/>
      </g>
     </g>
     <g id="text_8">
      <!-- 5 -->
      <g style="fill: #555555" transform="translate(38.876031 139.231176) scale(0.105 -0.105)">
       <use xlink:href="#NotoNaskhArabic-Regular-4d1"/>
      </g>
     </g>
    </g>
    <g id="ytick_6">
     <g id="line2d_14">
      <path d="M 51.882359 96.995848 
L 621.15 96.995848 
" clip-path="url(#p5f0a0a05e7)" style="fill: none; stroke: #e6e1d6; stroke-width: 0.8; stroke-linecap: square"/>
     </g>
     <g id="line2d_15">
      <g>
       <use xlink:href="#meb836c20ae" x="51.882359" y="96.995848" style="fill: #555555; stroke: #555555; stroke-width: 0.8"/>
      </g>
     </g>
     <g id="text_9">
      <!-- 10 -->
      <g style="fill: #555555" transform="translate(32.869703 102.608098) scale(0.105 -0.105)">
       <use xlink:href="#NotoNaskhArabic-Regular-4cd"/>
       <use xlink:href="#NotoNaskhArabic-Regular-4cc" transform="translate(57.203125 0)"/>
      </g>
     </g>
    </g>
    <g id="ytick_7">
     <g id="line2d_16">
      <path d="M 51.882359 60.37277 
L 621.15 60.37277 
" clip-path="url(#p5f0a0a05e7)" style="fill: none; stroke: #e6e1d6; stroke-width: 0.8; stroke-linecap: square"/>
     </g>
     <g id="line2d_17">
      <g>
       <use xlink:href="#meb836c20ae" x="51.882359" y="60.37277" style="fill: #555555; stroke: #555555; stroke-width: 0.8"/>
      </g>
     </g>
     <g id="text_10">
      <!-- 15 -->
      <g style="fill: #555555" transform="translate(32.869703 65.98502) scale(0.105 -0.105)">
       <use xlink:href="#NotoNaskhArabic-Regular-4cd"/>
       <use xlink:href="#NotoNaskhArabic-Regular-4d1" transform="translate(57.203125 0)"/>
      </g>
     </g>
    </g>
    <g id="ytick_8">
     <g id="line2d_18">
      <path d="M 51.882359 23.749692 
L 621.15 23.749692 
" clip-path="url(#p5f0a0a05e7)" style="fill: none; stroke: #e6e1d6; stroke-width: 0.8; stroke-linecap: square"/>
     </g>
     <g id="line2d_19">
      <g>
       <use xlink:href="#meb836c20ae" x="51.882359" y="23.749692" style="fill: #555555; stroke: #555555; stroke-width: 0.8"/>
      </g>
     </g>
     <g id="text_11">
      <!-- 20 -->
      <g style="fill: #555555" transform="translate(32.869703 29.361942) scale(0.105 -0.105)">
       <defs>
        <path id="NotoNaskhArabic-Regular-4ce" d="M 307 0 
L 307 467 
L 1504 1677 
Q 1773 1952 1952 2147 
Q 2131 2342 2221 2458 
Q 2413 2720 2489 2925 
Q 2566 3130 2566 3386 
Q 2566 3744 2352 3949 
Q 2138 4154 1760 4154 
Q 1478 4154 1228 4058 
Q 979 3962 659 3718 
L 358 4096 
Q 1005 4634 1760 4634 
Q 2240 4634 2576 4448 
Q 2912 4262 3053 3923 
Q 3142 3686 3142 3418 
Q 3142 3123 3033 2841 
Q 2925 2560 2707 2272 
Q 2598 2131 2416 1929 
Q 2234 1728 1971 1478 
L 1018 538 
L 1018 512 
L 3328 512 
L 3328 0 
L 307 0 
z
" transform="scale(0.015625)"/>
       </defs>
       <use xlink:href="#NotoNaskhArabic-Regular-4ce"/>
       <use xlink:href="#NotoNaskhArabic-Regular-4cc" transform="translate(57.203125 0)"/>
      </g>
     </g>
    </g>
    <g id="text_12">
     <!-- ​($ﻥﻮﻴﻠﻣ) ﻱﺪﻘﻨﻟﺍ ﻖﻓﺪﺘﻟﺍ ﻲﻓﺎﺻ -->
     <g style="fill: #1f2937" transform="translate(18.4245 209.19402) rotate(-90) scale(0.105 -0.105)">
      <defs>
       <path id="NotoNaskhArabic-Regular-112" d="M 2534 0 
Q 2227 0 1900 45 
Q 1574 90 1286 173 
Q 998 256 806 358 
Q 781 333 755 301 
Q 730 269 698 237 
Q 486 0 0 0 
Q -51 0 -51 51 
L -51 435 
Q -51 486 0 486 
Q 288 486 457 592 
Q 627 698 800 998 
Q 826 1043 848 1088 
Q 870 1133 896 1178 
Q 966 1286 1101 1286 
Q 1190 1286 1248 1229 
Q 1184 1069 1136 957 
Q 1088 845 1062 787 
Q 1139 749 1216 717 
Q 1293 685 1376 659 
Q 1978 1459 2502 1869 
Q 3034 2285 3469 2285 
Q 3648 2285 3913 2137 
Q 4179 1990 4390 1760 
Q 4595 1523 4595 1350 
Q 4595 960 4345 659 
Q 4096 358 3590 179 
Q 3098 0 2534 0 
z
M 2598 486 
Q 3430 486 4307 1037 
Q 4115 1376 3843 1561 
Q 3571 1747 3309 1747 
Q 3002 1747 2586 1452 
Q 2170 1158 1677 582 
Q 2176 486 2598 486 
z
" transform="scale(0.015625)"/>
       <path id="NotoNaskhArabic-Regular-146" d="M 6 0 
Q -51 0 -51 58 
L -51 429 
Q -51 486 6 486 
Q 698 486 1174 569 
Q 1651 653 2054 832 
Q 2042 960 2019 1085 
Q 1997 1210 1971 1331 
Q 1773 1171 1536 1075 
Q 1299 979 1062 979 
Q 781 979 601 1193 
Q 422 1408 422 1728 
Q 422 2054 534 2342 
Q 646 2630 819 2797 
Q 1011 2970 1216 2970 
Q 1549 2970 1805 2730 
Q 2061 2490 2214 2054 
Q 2362 1613 2362 1114 
Q 2362 896 2138 461 
Q 1882 301 1587 198 
Q 1293 96 912 48 
Q 531 0 6 0 
z
M 1210 1466 
Q 1530 1466 1888 1626 
Q 1766 2016 1568 2221 
Q 1370 2426 1120 2426 
Q 928 2426 797 2250 
Q 666 2074 666 1856 
Q 666 1658 797 1562 
Q 928 1466 1210 1466 
z
M 1196 3347 
Q 915 3558 736 3763 
Q 1062 4090 1184 4230 
Q 1286 4122 1391 4016 
Q 1497 3910 1606 3814 
Q 1459 3603 1196 3347 
z
" transform="scale(0.015625)"/>
       <path id="NotoNaskhArabic-Regular-23f" d="M 1811 -1670 
Q 1152 -1670 793 -1356 
Q 435 -1043 435 -467 
Q 435 -339 444 -230 
Q 454 -122 480 16 
Q 506 154 557 365 
L 794 307 
Q 723 13 723 -147 
Q 723 -614 1020 -876 
Q 1318 -1139 1830 -1139 
Q 2413 -1139 2777 -1075 
Q 3142 -1011 3430 -890 
Q 3571 -832 3699 -755 
Q 3827 -678 3942 -576 
Q 3546 -365 3312 -227 
Q 3078 -90 2950 0 
Q 2803 115 2803 160 
Q 2803 218 2844 323 
Q 2886 429 2940 512 
Q 2995 595 3034 595 
Q 3258 550 3642 518 
Q 4026 486 4435 486 
Q 4506 486 4506 416 
L 4506 64 
Q 4506 0 4435 0 
Q 4218 0 3939 32 
Q 3661 64 3450 115 
Q 3590 32 3734 -45 
Q 3878 -122 4019 -198 
Q 4115 -256 4140 -352 
Q 4166 -448 4166 -576 
Q 4166 -736 4006 -909 
Q 3846 -1082 3561 -1235 
Q 3277 -1389 2899 -1504 
Q 2330 -1670 1811 -1670 
z
M 2394 -2682 
Q 2125 -2470 1978 -2291 
Q 2119 -2157 2387 -1862 
Q 2419 -1888 2515 -1984 
Q 2611 -2080 2784 -2246 
Q 2720 -2336 2624 -2445 
Q 2528 -2554 2394 -2682 
z
M 1440 -2778 
Q 1152 -2547 1011 -2387 
Q 1101 -2310 1203 -2201 
Q 1306 -2093 1427 -1952 
Q 1453 -1984 1552 -2080 
Q 1651 -2176 1818 -2336 
Q 1760 -2432 1664 -2541 
Q 1568 -2650 1440 -2778 
z
" transform="scale(0.015625)"/>
       <path id="NotoNaskhArabic-Regular-b6" d="M 998 0 
Q 218 0 218 403 
Q 218 621 333 742 
Q 493 614 697 550 
Q 902 486 1203 486 
Q 1606 486 2086 621 
Q 1926 909 1795 1209 
Q 1664 1510 1587 1760 
Q 1510 2010 1510 2125 
Q 1510 2445 1850 2547 
Q 1997 2003 2144 1564 
Q 2291 1126 2509 819 
Q 2637 634 2771 560 
Q 2906 486 3085 486 
Q 3142 486 3142 435 
L 3142 51 
Q 3142 0 3085 0 
Q 2829 0 2633 86 
Q 2438 173 2291 333 
Q 1709 0 998 0 
z
" transform="scale(0.015625)"/>
       <path id="NotoNaskhArabic-Regular-168" d="M 1702 -1677 
Q 1101 -1677 768 -1360 
Q 435 -1043 435 -474 
Q 435 -346 444 -237 
Q 454 -128 480 9 
Q 506 147 557 358 
L 794 301 
Q 723 6 723 -154 
Q 723 -640 979 -893 
Q 1235 -1146 1722 -1146 
Q 2285 -1146 2758 -925 
Q 3232 -704 3488 -326 
L 3469 6 
Q 3245 6 2989 25 
Q 2733 45 2505 86 
Q 2278 128 2138 192 
Q 1741 384 1741 877 
Q 1741 1203 1872 1523 
Q 2003 1843 2214 2035 
Q 2426 2227 2643 2227 
Q 2918 2227 3174 1984 
Q 3430 1741 3597 1331 
Q 3770 928 3808 486 
L 4160 486 
Q 4218 486 4218 435 
L 4218 51 
Q 4218 0 4160 0 
L 3802 0 
Q 3738 -474 3434 -851 
Q 3130 -1229 2650 -1453 
Q 2163 -1677 1702 -1677 
z
M 3386 499 
Q 3245 1088 3017 1385 
Q 2790 1683 2541 1683 
Q 2413 1683 2281 1580 
Q 2150 1478 2067 1331 
Q 1990 1190 1990 1062 
Q 1990 928 2051 832 
Q 2112 736 2253 666 
Q 2406 595 2618 557 
Q 2829 512 3386 499 
z
M 3066 2592 
Q 2925 2701 2819 2800 
Q 2714 2899 2644 2989 
Q 2676 3021 2778 3130 
Q 2880 3239 3053 3418 
Q 3092 3379 3191 3283 
Q 3290 3187 3450 3034 
Q 3328 2842 3066 2592 
z
M 2106 2503 
Q 1965 2618 1856 2717 
Q 1748 2816 1677 2893 
Q 1844 3053 2093 3328 
Q 2132 3283 2228 3187 
Q 2324 3091 2484 2944 
Q 2426 2848 2330 2739 
Q 2234 2631 2106 2503 
z
" transform="scale(0.015625)"/>
       <path id="NotoNaskhArabic-Regular-1e9" d="M 0 0 
Q -51 0 -51 51 
L -51 435 
Q -51 486 0 486 
Q 467 486 666 666 
Q 723 717 812 870 
Q 902 1024 1075 1350 
Q 1133 1459 1274 1459 
Q 1350 1459 1434 1408 
Q 1363 1242 1286 1069 
Q 1210 896 1120 730 
Q 1344 595 1526 540 
Q 1709 486 1926 486 
Q 1978 486 1978 435 
L 1978 51 
Q 1978 0 1926 0 
Q 1331 0 915 378 
Q 890 339 864 304 
Q 838 269 806 237 
Q 742 154 502 77 
Q 262 0 0 0 
z
M 1004 2061 
Q 723 2272 544 2477 
Q 870 2804 992 2944 
Q 1094 2836 1199 2730 
Q 1305 2624 1414 2528 
Q 1267 2317 1004 2061 
z
" transform="scale(0.015625)"/>
       <path id="NotoNaskhArabic-Regular-169" d="M 6 0 
Q -51 0 -51 58 
L -51 429 
Q -51 486 6 486 
Q 186 486 320 492 
Q 454 499 557 512 
Q 320 774 320 1062 
Q 320 1171 339 1308 
Q 358 1446 384 1564 
Q 410 1683 435 1728 
Q 602 2029 870 2211 
Q 1139 2394 1446 2394 
Q 1613 2394 1766 2234 
Q 1920 2074 2016 1798 
Q 2118 1530 2118 1248 
Q 2118 845 1843 518 
Q 1946 506 2118 496 
Q 2291 486 2528 486 
Q 2586 486 2586 435 
L 2586 51 
Q 2586 0 2528 0 
Q 1734 0 1216 205 
Q 998 96 707 48 
Q 416 0 6 0 
z
M 1216 659 
Q 1581 794 1869 1050 
Q 1850 1210 1763 1402 
Q 1677 1594 1568 1722 
Q 1453 1850 1389 1850 
Q 1267 1850 1113 1750 
Q 960 1651 809 1484 
Q 659 1318 557 1120 
Q 826 813 1216 659 
z
M 1760 2745 
Q 1619 2854 1513 2953 
Q 1408 3052 1338 3142 
Q 1370 3174 1472 3283 
Q 1574 3392 1747 3571 
Q 1786 3532 1885 3436 
Q 1984 3340 2144 3187 
Q 2022 2995 1760 2745 
z
M 800 2656 
Q 659 2771 550 2870 
Q 442 2969 371 3046 
Q 538 3206 787 3481 
Q 826 3436 922 3340 
Q 1018 3244 1178 3097 
Q 1120 3001 1024 2892 
Q 928 2784 800 2656 
z
" transform="scale(0.015625)"/>
       <path id="NotoNaskhArabic-Regular-23e" d="M 1594 -1677 
Q 1050 -1677 742 -1363 
Q 435 -1050 435 -474 
Q 435 -346 444 -237 
Q 454 -128 480 9 
Q 506 147 557 358 
L 794 301 
Q 723 6 723 -154 
Q 723 -621 956 -883 
Q 1190 -1146 1606 -1146 
Q 1837 -1146 2105 -1091 
Q 2374 -1037 2636 -937 
Q 2899 -838 3098 -710 
Q 3405 -518 3501 -307 
Q 3418 -294 3338 -281 
Q 3258 -269 3168 -262 
Q 2682 -224 2445 -144 
Q 2208 -64 2080 115 
Q 1958 294 1958 582 
Q 1958 781 2051 1017 
Q 2144 1254 2310 1488 
Q 2477 1722 2682 1901 
Q 2995 2176 3245 2176 
Q 3462 2176 3571 2029 
Q 3680 1882 3738 1619 
L 3507 1555 
Q 3462 1619 3420 1635 
Q 3379 1651 3302 1651 
Q 3194 1651 3037 1571 
Q 2880 1491 2723 1353 
Q 2566 1216 2432 1050 
Q 2234 781 2189 557 
Q 2362 390 2893 314 
Q 3123 282 3283 240 
Q 3443 198 3539 134 
Q 3648 58 3689 -48 
Q 3731 -154 3731 -301 
Q 3731 -493 3568 -710 
Q 3405 -928 3133 -1126 
Q 2861 -1325 2522 -1466 
Q 2022 -1677 1594 -1677 
z
M 2266 -2682 
Q 1997 -2470 1850 -2291 
Q 1991 -2157 2259 -1862 
Q 2291 -1888 2387 -1984 
Q 2483 -2080 2656 -2246 
Q 2592 -2336 2496 -2445 
Q 2400 -2554 2266 -2682 
z
M 1312 -2778 
Q 1024 -2547 883 -2387 
Q 973 -2310 1075 -2201 
Q 1178 -2093 1299 -1952 
Q 1325 -1984 1424 -2080 
Q 1523 -2176 1690 -2336 
Q 1632 -2432 1536 -2541 
Q 1440 -2650 1312 -2778 
z
" transform="scale(0.015625)"/>
       <path id="DejaVuSans-b" d="M 1984 4856 
Q 1566 4138 1362 3434 
Q 1159 2731 1159 2009 
Q 1159 1288 1364 580 
Q 1569 -128 1984 -844 
L 1484 -844 
Q 1016 -109 783 600 
Q 550 1309 550 2009 
Q 550 2706 781 3412 
Q 1013 4119 1484 4856 
L 1984 4856 
z
" transform="scale(0.015625)"/>
       <path id="NotoNaskhArabic-Regular-1e5" d="M 2291 0 
Q 2035 0 1753 48 
Q 1472 96 1209 182 
Q 947 269 749 384 
Q 602 179 422 89 
Q 243 0 0 0 
Q -51 0 -51 51 
L -51 435 
Q -51 486 0 486 
Q 243 486 409 604 
Q 576 723 698 960 
Q 813 1171 880 1308 
Q 947 1446 1004 1555 
Q 1062 1664 1152 1779 
Q 1312 1990 1478 2083 
Q 1645 2176 1830 2176 
Q 2016 2176 2201 1945 
Q 2387 1715 2502 1357 
Q 2618 1005 2618 666 
Q 2618 467 2547 307 
Q 2477 147 2291 0 
z
M 2150 486 
Q 2144 781 2061 1065 
Q 1978 1350 1875 1498 
Q 1805 1606 1728 1606 
Q 1491 1606 1286 1318 
Q 1235 1242 1161 1117 
Q 1088 992 998 806 
Q 1459 563 2150 486 
z
" transform="scale(0.015625)"/>
       <path id="NotoNaskhArabic-Regular-1e7" d="M 1594 -1677 
Q 1050 -1677 742 -1363 
Q 435 -1050 435 -474 
Q 435 -346 444 -237 
Q 454 -128 480 9 
Q 506 147 557 358 
L 794 301 
Q 723 6 723 -154 
Q 723 -621 956 -883 
Q 1190 -1146 1606 -1146 
Q 1926 -1146 2249 -1040 
Q 2573 -934 2829 -752 
Q 3085 -570 3187 -346 
Q 2976 109 2873 416 
Q 2771 723 2771 877 
Q 2771 1043 2864 1174 
Q 2957 1306 3187 1446 
Q 3200 1338 3238 1130 
Q 3277 922 3334 621 
Q 3379 390 3401 208 
Q 3424 26 3424 -109 
Q 3424 -499 3174 -860 
Q 2925 -1222 2490 -1446 
Q 2061 -1677 1594 -1677 
z
M 1766 1504 
Q 1485 1715 1306 1920 
Q 1632 2247 1754 2387 
Q 1856 2279 1961 2173 
Q 2067 2067 2176 1971 
Q 2029 1760 1766 1504 
z
" transform="scale(0.015625)"/>
       <path id="DejaVuSans-7" d="M 2163 -941 
L 1850 -941 
L 1847 0 
Q 1519 6 1191 76 
Q 863 147 531 288 
L 531 850 
Q 850 650 1176 548 
Q 1503 447 1850 444 
L 1850 1869 
Q 1159 1981 845 2250 
Q 531 2519 531 2988 
Q 531 3497 872 3790 
Q 1213 4084 1850 4128 
L 1850 4863 
L 2163 4863 
L 2163 4138 
Q 2453 4125 2725 4076 
Q 2997 4028 3256 3944 
L 3256 3397 
Q 2997 3528 2723 3600 
Q 2450 3672 2163 3684 
L 2163 2350 
Q 2872 2241 3206 1959 
Q 3541 1678 3541 1191 
Q 3541 663 3186 358 
Q 2831 53 2163 6 
L 2163 -941 
z
M 1850 2406 
L 1850 3688 
Q 1488 3647 1297 3481 
Q 1106 3316 1106 3041 
Q 1106 2772 1282 2622 
Q 1459 2472 1850 2406 
z
M 2163 1806 
L 2163 453 
Q 2559 506 2761 678 
Q 2963 850 2963 1131 
Q 2963 1406 2770 1568 
Q 2578 1731 2163 1806 
z
" transform="scale(0.015625)"/>
       <path id="DejaVuSans-c" d="M 513 4856 
L 1013 4856 
Q 1481 4119 1714 3412 
Q 1947 2706 1947 2009 
Q 1947 1309 1714 600 
Q 1481 -109 1013 -844 
L 513 -844 
Q 928 -128 1133 580 
Q 1338 1288 1338 2009 
Q 1338 2731 1133 3434 
Q 928 4138 513 4856 
z
" transform="scale(0.015625)"/>
      </defs>
      <use xlink:href="#NotoNaskhArabic-Regular-112"/>
      <use xlink:href="#NotoNaskhArabic-Regular-4" transform="translate(78.59375 0)"/>
      <use xlink:href="#NotoNaskhArabic-Regular-146" transform="translate(103.890625 0)"/>
      <use xlink:href="#NotoNaskhArabic-Regular-23f" transform="translate(145.890625 0)"/>
      <use xlink:href="#NotoNaskhArabic-Regular-554" transform="translate(214.59375 0)"/>
      <use xlink:href="#NotoNaskhArabic-Regular-3" transform="translate(236.6875 0)"/>
      <use xlink:href="#NotoNaskhArabic-Regular-1c1" transform="translate(260.484375 0)"/>
      <use xlink:href="#NotoNaskhArabic-Regular-37" transform="translate(281.6875 0)"/>
      <use xlink:href="#NotoNaskhArabic-Regular-b6" transform="translate(317.6875 0)"/>
      <use xlink:href="#NotoNaskhArabic-Regular-146" transform="translate(365.09375 0)"/>
      <use xlink:href="#NotoNaskhArabic-Regular-168" transform="translate(407.09375 0)"/>
      <use xlink:href="#NotoNaskhArabic-Regular-554" transform="translate(471.296875 0)"/>
      <use xlink:href="#NotoNaskhArabic-Regular-3" transform="translate(493.390625 0)"/>
      <use xlink:href="#NotoNaskhArabic-Regular-1c1" transform="translate(517.1875 0)"/>
      <use xlink:href="#NotoNaskhArabic-Regular-1e9" transform="translate(538.390625 0)"/>
      <use xlink:href="#NotoNaskhArabic-Regular-169" transform="translate(567.59375 0)"/>
      <use xlink:href="#NotoNaskhArabic-Regular-b6" transform="translate(606.296875 0)"/>
      <use xlink:href="#NotoNaskhArabic-Regular-23e" transform="translate(653.703125 0)"/>
      <use xlink:href="#NotoNaskhArabic-Regular-554" transform="translate(715.5 0)"/>
      <use xlink:href="#DejaVuSans-b" transform="translate(737.59375 0)"/>
      <use xlink:href="#NotoNaskhArabic-Regular-1e5" transform="translate(776.609375 0)"/>
      <use xlink:href="#NotoNaskhArabic-Regular-1bf" transform="translate(822.203125 0)"/>
      <use xlink:href="#NotoNaskhArabic-Regular-240" transform="translate(846.703125 0)"/>
      <use xlink:href="#NotoNaskhArabic-Regular-219" transform="translate(882.703125 0)"/>
      <use xlink:href="#NotoNaskhArabic-Regular-1e7" transform="translate(929.5 0)"/>
      <use xlink:href="#DejaVuSans-7" transform="translate(988.09375 0)"/>
      <use xlink:href="#DejaVuSans-c" transform="translate(1051.71875 0)"/>
      <use xlink:href="#NotoNaskhArabic-Regular-554" transform="translate(1090.734375 0)"/>
     </g>
    </g>
   </g>
   <g id="line2d_20">
    <path d="M 51.882359 170.242004 
L 621.15 170.242004 
" clip-path="url(#p5f0a0a05e7)" style="fill: none; stroke: #1f2937; stroke-width: 1.2; stroke-linecap: square"/>
   </g>
   <g id="patch_3">
    <path d="M 51.882359 292.929315 
L 51.882359 10.931615 
" style="fill: none; stroke: #1f2937; stroke-width: 0.8; stroke-linejoin: miter; stroke-linecap: square"/>
   </g>
   <g id="patch_4">
    <path d="M 51.882359 292.929315 
L 621.15 292.929315 
" style="fill: none; stroke: #1f2937; stroke-width: 0.8; stroke-linejoin: miter; stroke-linecap: square"/>
   </g>
   <g id="patch_5">
    <path d="M 77.758161 170.242004 
L 172.812127 170.242004 
L 172.812127 228.838929 
L 77.758161 228.838929 
z
" clip-path="url(#p5f0a0a05e7)" style="fill: #b91c1c"/>
   </g>
   <g id="patch_6">
    <path d="M 288.989197 170.242004 
L 384.043163 170.242004 
L 384.043163 280.111238 
L 288.989197 280.111238 
z
" clip-path="url(#p5f0a0a05e7)" style="fill: #b91c1c"/>
   </g>
   <g id="patch_7">
    <path d="M 500.220232 170.242004 
L 595.274198 170.242004 
L 595.274198 23.749692 
L 500.220232 23.749692 
z
" clip-path="url(#p5f0a0a05e7)" style="fill: #1f8a56"/>
   </g>
   <g id="text_13">
    <!-- -8 -->
    <g style="fill: #1f2937" transform="translate(120.349988 239.825852) scale(0.1 -0.1)">
     <defs>
      <path id="DejaVuSans-Bold-10" d="M 347 2297 
L 2309 2297 
L 2309 1388 
L 347 1388 
L 347 2297 
z
" transform="scale(0.015625)"/>
      <path id="NotoNaskhArabic-Bold-4d4" d="M 1830 -64 
Q 1082 -64 653 256 
Q 224 576 224 1158 
Q 224 1555 432 1856 
Q 640 2157 1101 2387 
Q 710 2630 537 2915 
Q 365 3200 365 3533 
Q 365 3859 550 4105 
Q 736 4352 1065 4489 
Q 1395 4627 1830 4627 
Q 2490 4627 2890 4329 
Q 3290 4032 3290 3526 
Q 3290 3174 3098 2902 
Q 2906 2630 2470 2413 
Q 2982 2138 3206 1840 
Q 3430 1542 3430 1184 
Q 3430 813 3228 531 
Q 3027 250 2668 93 
Q 2310 -64 1830 -64 
z
M 1830 2816 
Q 2138 2963 2259 3110 
Q 2381 3258 2381 3456 
Q 2381 3674 2224 3798 
Q 2067 3923 1824 3923 
Q 1581 3923 1427 3795 
Q 1274 3667 1274 3456 
Q 1274 3245 1434 3078 
Q 1555 2950 1830 2816 
z
M 1818 646 
Q 2176 646 2355 800 
Q 2534 954 2534 1210 
Q 2534 1421 2358 1603 
Q 2182 1786 1786 1990 
Q 1120 1683 1120 1216 
Q 1120 947 1305 796 
Q 1491 646 1818 646 
z
" transform="scale(0.015625)"/>
     </defs>
     <use xlink:href="#DejaVuSans-Bold-10"/>
     <use xlink:href="#NotoNaskhArabic-Bold-4d4" transform="translate(41.5 0)"/>
    </g>
   </g>
   <g id="text_14">
    <!-- -15 -->
    <g style="fill: #1f2937" transform="translate(328.720867 291.098161) scale(0.1 -0.1)">
     <defs>
      <path id="NotoNaskhArabic-Bold-4cd" d="M 1677 0 
L 1677 2643 
Q 1677 2822 1686 3020 
Q 1696 3219 1702 3552 
Q 1466 3315 1370 3238 
Q 1242 3136 1107 3030 
Q 973 2925 845 2816 
L 378 3398 
L 1850 4570 
L 2643 4570 
L 2643 0 
L 1677 0 
z
" transform="scale(0.015625)"/>
      <path id="NotoNaskhArabic-Bold-4d1" d="M 1542 -64 
Q 787 -64 314 186 
L 314 1018 
Q 557 890 886 806 
Q 1216 723 1510 723 
Q 2394 723 2394 1446 
Q 2394 2138 1478 2138 
Q 1312 2138 1113 2106 
Q 915 2074 787 2035 
L 403 2240 
L 576 4570 
L 3053 4570 
L 3053 3750 
L 1421 3750 
L 1338 2854 
Q 1504 2886 1635 2902 
Q 1766 2918 1920 2918 
Q 2586 2918 2976 2547 
Q 3366 2176 3366 1530 
Q 3366 762 2892 349 
Q 2419 -64 1542 -64 
z
" transform="scale(0.015625)"/>
     </defs>
     <use xlink:href="#DejaVuSans-Bold-10"/>
     <use xlink:href="#NotoNaskhArabic-Bold-4cd" transform="translate(41.5 0)"/>
     <use xlink:href="#NotoNaskhArabic-Bold-4d1" transform="translate(98.703125 0)"/>
    </g>
   </g>
   <g id="text_15">
    <!-- +20 -->
    <g style="fill: #1f2937" transform="translate(537.837059 17.89) scale(0.1 -0.1)">
     <defs>
      <path id="DejaVuSans-Bold-e" d="M 3053 4013 
L 3053 2375 
L 4684 2375 
L 4684 1638 
L 3053 1638 
L 3053 0 
L 2309 0 
L 2309 1638 
L 678 1638 
L 678 2375 
L 2309 2375 
L 2309 4013 
L 3053 4013 
z
" transform="scale(0.015625)"/>
      <path id="NotoNaskhArabic-Bold-4ce" d="M 256 0 
L 256 672 
L 1402 1830 
Q 1914 2355 2067 2554 
Q 2234 2765 2298 2925 
Q 2362 3085 2362 3283 
Q 2362 3558 2211 3692 
Q 2061 3827 1805 3827 
Q 1542 3827 1292 3705 
Q 1043 3584 768 3360 
L 243 3981 
Q 518 4218 761 4358 
Q 1005 4499 1267 4566 
Q 1530 4634 1875 4634 
Q 2304 4634 2633 4477 
Q 2963 4320 3142 4038 
Q 3322 3763 3322 3398 
Q 3322 3085 3213 2809 
Q 3104 2534 2867 2240 
Q 2752 2093 2547 1885 
Q 2342 1677 2048 1408 
L 1459 858 
L 1459 813 
L 3450 813 
L 3450 0 
L 256 0 
z
" transform="scale(0.015625)"/>
      <path id="NotoNaskhArabic-Bold-4cc" d="M 1824 -64 
Q 1030 -64 630 531 
Q 230 1126 230 2285 
Q 230 3494 620 4067 
Q 1011 4640 1824 4640 
Q 2618 4640 3021 4041 
Q 3424 3443 3424 2285 
Q 3424 1088 3033 512 
Q 2643 -64 1824 -64 
z
M 1824 717 
Q 2170 717 2310 1082 
Q 2464 1459 2464 2285 
Q 2464 3123 2310 3494 
Q 2157 3859 1824 3859 
Q 1485 3859 1338 3494 
Q 1190 3110 1190 2285 
Q 1190 1453 1338 1082 
Q 1485 717 1824 717 
z
" transform="scale(0.015625)"/>
     </defs>
     <use xlink:href="#DejaVuSans-Bold-e"/>
     <use xlink:href="#NotoNaskhArabic-Bold-4ce" transform="translate(83.796875 0)"/>
     <use xlink:href="#NotoNaskhArabic-Bold-4cc" transform="translate(141 0)"/>
    </g>
   </g>
   <g id="text_16">
    <!-- ​:ﺐﻟﺎﺳ ﻲﻠﻴﻐﺸﺗ ﻱﺪﻘﻧ ﻖﻓﺪﺗ ﻦﻜﻟ ﺐﺟﻮﻣ ﻲﺒﺳﺎﺤﻣ ﺢﺑﺭ -->
    <g style="fill: #b91c1c" transform="translate(253.662742 45.04577) scale(0.09 -0.09)">
     <defs>
      <path id="NotoNaskhArabic-Bold-d3" d="M 653 -1248 
Q 544 -1248 304 -1107 
Q 64 -966 -218 -730 
L -115 -461 
Q 243 -550 531 -550 
Q 1005 -550 1331 -313 
Q 1658 -77 1805 371 
Q 1760 467 1705 566 
Q 1651 666 1587 762 
Q 1402 1050 1254 1312 
Q 1107 1574 1107 1779 
Q 1107 1965 1254 2147 
Q 1402 2330 1638 2451 
Q 1677 2317 1731 2137 
Q 1786 1958 1846 1782 
Q 1907 1606 1952 1472 
Q 2035 1235 2089 1004 
Q 2144 774 2144 570 
Q 2144 70 1952 -349 
Q 1760 -768 1421 -1011 
Q 1082 -1248 653 -1248 
z
" transform="scale(0.015625)"/>
      <path id="NotoNaskhArabic-Bold-26" d="M 0 58 
Q -51 58 -51 109 
L -51 762 
Q -51 813 0 813 
Q 320 813 640 867 
Q 960 922 1139 998 
Q 1075 1146 976 1328 
Q 877 1510 819 1613 
Q 755 1734 710 1833 
Q 666 1933 666 2016 
Q 666 2176 838 2361 
Q 1011 2547 1248 2669 
Q 1293 2470 1347 2217 
Q 1402 1965 1446 1702 
Q 1485 1504 1501 1376 
Q 1517 1248 1517 1184 
Q 1517 1037 1443 822 
Q 1370 608 1267 410 
Q 685 58 0 58 
z
M 916 -1427 
Q 743 -1286 621 -1171 
Q 500 -1056 416 -966 
Q 544 -838 666 -713 
Q 788 -589 903 -454 
Q 1069 -646 1364 -915 
Q 1293 -1017 1178 -1148 
Q 1063 -1280 916 -1427 
z
" transform="scale(0.015625)"/>
      <path id="NotoNaskhArabic-Bold-8a" d="M 2368 -1862 
Q 1523 -1862 1097 -1465 
Q 672 -1069 672 -314 
Q 672 77 848 409 
Q 1024 742 1338 1005 
Q 1498 1133 1670 1238 
Q 1843 1344 2035 1421 
Q 1946 1453 1856 1485 
Q 1766 1517 1677 1549 
Q 1491 1613 1312 1613 
Q 1139 1613 992 1571 
Q 845 1530 582 1363 
Q 525 1421 480 1533 
Q 435 1645 435 1747 
Q 435 2035 662 2208 
Q 890 2381 1286 2381 
Q 1498 2381 1728 2326 
Q 1958 2272 2310 2144 
Q 2656 2016 2918 1961 
Q 3181 1907 3424 1907 
L 4006 1914 
L 3744 1197 
Q 3667 1190 3571 1184 
Q 3475 1178 3424 1178 
L 3232 1178 
Q 3341 998 3446 931 
Q 3552 864 3789 838 
Q 3891 826 4115 819 
Q 4339 813 4685 813 
Q 4742 813 4742 762 
L 4742 109 
Q 4742 58 4685 58 
Q 4070 58 3750 150 
Q 3430 243 3238 467 
Q 3046 698 2886 1197 
Q 2381 1101 1933 883 
Q 1485 666 1242 371 
Q 998 70 998 -250 
Q 998 -685 1360 -905 
Q 1722 -1126 2400 -1126 
Q 2861 -1126 3629 -954 
L 3718 -1229 
Q 3309 -1466 3053 -1603 
Q 2797 -1741 2640 -1801 
Q 2483 -1862 2368 -1862 
z
" transform="scale(0.015625)"/>
      <path id="NotoNaskhArabic-Bold-554" transform="scale(0.015625)"/>
      <path id="NotoNaskhArabic-Bold-1e5" d="M 2349 0 
Q 1920 0 1488 99 
Q 1056 198 755 358 
Q 602 198 429 128 
Q 256 58 0 58 
Q -51 58 -51 109 
L -51 762 
Q -51 813 0 813 
Q 525 813 774 1286 
Q 890 1517 982 1680 
Q 1075 1843 1146 1939 
Q 1306 2157 1446 2249 
Q 1587 2342 1773 2342 
Q 2003 2342 2224 2102 
Q 2445 1862 2586 1466 
Q 2726 1082 2726 723 
Q 2726 557 2611 339 
Q 2496 122 2349 0 
z
M 2138 704 
Q 2112 941 2035 1142 
Q 1958 1344 1862 1466 
Q 1760 1587 1677 1587 
Q 1536 1587 1427 1472 
Q 1325 1363 1120 960 
Q 1325 870 1577 803 
Q 1830 736 2138 704 
z
" transform="scale(0.015625)"/>
      <path id="NotoNaskhArabic-Bold-8b" d="M 0 58 
Q -51 58 -51 109 
L -51 762 
Q -51 813 0 813 
Q 467 813 793 829 
Q 1120 845 1427 934 
Q 1702 1018 1897 1069 
Q 2093 1120 2202 1146 
Q 2118 1197 2032 1251 
Q 1946 1306 1856 1363 
Q 1651 1498 1513 1555 
Q 1376 1613 1235 1613 
Q 1043 1613 870 1558 
Q 698 1504 480 1363 
Q 422 1421 377 1533 
Q 333 1645 333 1747 
Q 333 2029 582 2205 
Q 832 2381 1210 2381 
Q 1414 2381 1603 2310 
Q 1792 2240 2029 2080 
Q 2317 1882 2560 1763 
Q 2803 1645 3136 1555 
Q 3302 1517 3500 1494 
Q 3699 1472 3936 1472 
L 3654 934 
Q 3578 941 3501 941 
Q 3424 941 3347 947 
Q 3411 890 3488 867 
Q 3565 845 3661 832 
Q 3808 826 3965 822 
Q 4122 819 4262 813 
Q 4314 813 4314 762 
L 4314 109 
Q 4314 58 4262 58 
Q 4032 58 3782 80 
Q 3533 102 3325 150 
Q 3117 198 3021 262 
Q 2893 358 2838 537 
Q 2784 717 2746 877 
Q 2624 851 2525 803 
Q 2426 755 2304 675 
Q 2182 595 1990 467 
Q 1683 262 1395 176 
Q 1107 90 774 74 
Q 442 58 0 58 
z
" transform="scale(0.015625)"/>
      <path id="NotoNaskhArabic-Bold-4" d="M 1901 58 
Q 1517 58 1283 186 
Q 1050 314 938 528 
Q 826 742 794 1018 
Q 781 1139 749 1424 
Q 717 1709 681 2073 
Q 646 2438 608 2809 
Q 570 3181 538 3481 
Q 506 3782 486 3930 
Q 845 4166 1248 4352 
Q 1274 3635 1296 2918 
Q 1318 2202 1338 1478 
L 1363 979 
Q 1478 883 1606 848 
Q 1734 813 1914 813 
Q 1952 813 1952 762 
L 1952 109 
Q 1952 58 1901 58 
z
" transform="scale(0.015625)"/>
      <path id="NotoNaskhArabic-Bold-fa" d="M 1472 0 
Q 1165 0 736 205 
Q 608 141 406 99 
Q 205 58 0 58 
Q -51 58 -51 109 
L -51 762 
Q -51 813 0 813 
Q 294 813 441 851 
Q 589 890 678 979 
Q 749 1050 806 1142 
Q 864 1235 998 1466 
Q 1037 1536 1110 1581 
Q 1184 1626 1267 1626 
Q 1357 1626 1466 1555 
Q 1363 1286 1286 1091 
Q 1210 896 1158 781 
Q 1331 762 1504 762 
Q 1632 762 1734 778 
Q 1837 794 1965 832 
Q 2010 902 2093 1104 
Q 2176 1306 2317 1696 
Q 2349 1779 2432 1833 
Q 2515 1888 2630 1888 
Q 2765 1888 2854 1818 
Q 2778 1626 2710 1414 
Q 2643 1203 2586 992 
Q 2829 870 3133 806 
Q 3437 742 3782 704 
Q 3584 1094 3443 1376 
Q 3302 1658 3302 1798 
Q 3302 1952 3475 2141 
Q 3648 2330 3885 2451 
Q 3994 1907 4051 1603 
Q 4109 1299 4131 1145 
Q 4154 992 4154 909 
Q 4154 806 4112 633 
Q 4070 461 4006 288 
Q 3942 115 3885 0 
Q 3501 0 3097 89 
Q 2694 179 2355 326 
Q 2317 243 2278 173 
Q 2234 102 1994 51 
Q 1754 0 1472 0 
z
" transform="scale(0.015625)"/>
      <path id="NotoNaskhArabic-Bold-25" d="M 0 58 
Q -51 58 -51 109 
L -51 762 
Q -51 813 0 813 
Q 416 813 627 966 
Q 710 1024 774 1145 
Q 838 1267 922 1427 
Q 1024 1632 1101 1680 
Q 1178 1728 1280 1728 
Q 1427 1728 1536 1638 
Q 1466 1478 1392 1312 
Q 1318 1146 1248 979 
Q 1562 813 1926 813 
Q 1978 813 1978 762 
L 1978 109 
Q 1978 58 1926 58 
Q 1440 58 998 499 
Q 960 435 925 384 
Q 890 333 858 288 
Q 774 192 550 125 
Q 326 58 0 58 
z
M 1088 -1427 
Q 915 -1286 793 -1171 
Q 672 -1056 588 -966 
Q 716 -838 838 -713 
Q 960 -589 1075 -454 
Q 1241 -646 1536 -915 
Q 1465 -1017 1350 -1148 
Q 1235 -1280 1088 -1427 
z
" transform="scale(0.015625)"/>
      <path id="NotoNaskhArabic-Bold-23f" d="M 1830 -1613 
Q 1152 -1613 793 -1277 
Q 435 -941 435 -301 
Q 435 32 595 627 
L 877 557 
Q 787 256 787 45 
Q 787 -397 1059 -627 
Q 1331 -858 1901 -858 
Q 2240 -858 2598 -816 
Q 2957 -774 3283 -710 
Q 3450 -672 3610 -627 
Q 3770 -582 3898 -531 
Q 3757 -474 3561 -374 
Q 3366 -275 3187 -163 
Q 3008 -51 2893 32 
Q 2726 160 2726 218 
Q 2726 282 2771 397 
Q 2816 512 2877 633 
Q 2938 755 2992 838 
Q 3046 922 3066 922 
Q 3354 870 3699 841 
Q 4045 813 4454 813 
Q 4525 813 4525 749 
L 4525 122 
Q 4525 58 4454 58 
Q 4320 58 4137 70 
Q 3955 83 3779 108 
Q 3603 134 3475 166 
Q 3738 45 3875 -25 
Q 4013 -96 4070 -131 
Q 4128 -166 4147 -198 
Q 4192 -243 4208 -336 
Q 4224 -429 4224 -518 
Q 4224 -678 4057 -848 
Q 3891 -1018 3600 -1171 
Q 3309 -1325 2925 -1440 
Q 2349 -1613 1830 -1613 
z
M 2355 -2630 
Q 2080 -2406 1913 -2227 
Q 2118 -2048 2342 -1779 
Q 2361 -1798 2460 -1897 
Q 2560 -1997 2739 -2182 
Q 2675 -2278 2579 -2390 
Q 2483 -2502 2355 -2630 
z
M 1497 -2726 
Q 1337 -2598 1231 -2495 
Q 1126 -2393 1056 -2317 
Q 1164 -2208 1273 -2096 
Q 1382 -1984 1491 -1875 
Q 1568 -1971 1888 -2272 
Q 1734 -2502 1497 -2726 
z
" transform="scale(0.015625)"/>
      <path id="NotoNaskhArabic-Bold-219" d="M 1248 -1248 
Q 1171 -1248 1011 -1174 
Q 851 -1101 668 -982 
Q 486 -864 326 -730 
L 429 -461 
Q 602 -506 778 -528 
Q 954 -550 1133 -550 
Q 1536 -550 1862 -380 
Q 2189 -211 2368 64 
Q 2093 83 1894 102 
Q 1696 122 1574 147 
Q 838 307 838 1018 
Q 838 1370 972 1712 
Q 1107 2054 1325 2266 
Q 1549 2477 1766 2477 
Q 2029 2477 2262 2240 
Q 2496 2003 2650 1626 
Q 2720 1446 2768 1241 
Q 2816 1037 2835 813 
L 3181 813 
Q 3232 813 3232 762 
L 3232 109 
Q 3232 58 3181 58 
L 2784 58 
Q 2669 -365 2419 -669 
Q 2170 -973 1843 -1120 
Q 1555 -1248 1248 -1248 
z
M 2419 819 
Q 2285 1254 2077 1484 
Q 1869 1715 1626 1715 
Q 1504 1715 1401 1651 
Q 1299 1587 1235 1498 
Q 1178 1402 1178 1293 
Q 1178 941 1805 858 
Q 1952 838 2419 819 
z
" transform="scale(0.015625)"/>
      <path id="NotoNaskhArabic-Bold-74" d="M 0 58 
Q -51 58 -51 109 
L -51 762 
Q -51 813 0 813 
Q 467 813 793 829 
Q 1120 845 1427 934 
Q 1702 1018 1897 1069 
Q 2093 1120 2202 1146 
Q 2112 1197 2025 1251 
Q 1939 1306 1856 1363 
Q 1651 1504 1513 1558 
Q 1376 1613 1235 1613 
Q 1043 1613 870 1558 
Q 698 1504 480 1363 
Q 422 1421 377 1533 
Q 333 1645 333 1747 
Q 333 2029 582 2205 
Q 832 2381 1210 2381 
Q 1414 2381 1603 2310 
Q 1792 2240 2029 2080 
Q 2317 1882 2560 1763 
Q 2803 1645 3136 1555 
Q 3302 1517 3500 1494 
Q 3699 1472 3936 1472 
L 3603 794 
Q 3405 813 3273 825 
Q 3142 838 2963 826 
Q 2739 806 2483 704 
Q 2227 602 1990 467 
Q 1741 320 1533 237 
Q 1325 154 1107 115 
Q 890 77 624 67 
Q 358 58 0 58 
z
M 2272 -1107 
Q 2099 -966 1977 -851 
Q 1856 -736 1772 -646 
Q 1900 -518 2022 -393 
Q 2144 -269 2259 -134 
Q 2425 -326 2720 -595 
Q 2649 -697 2534 -828 
Q 2419 -960 2272 -1107 
z
" transform="scale(0.015625)"/>
      <path id="NotoNaskhArabic-Bold-24" d="M 2010 0 
Q 448 0 448 1363 
Q 448 1638 570 2067 
L 858 2067 
Q 851 2042 844 1926 
Q 838 1811 838 1747 
Q 838 1376 982 1174 
Q 1126 973 1434 864 
Q 1587 819 1792 790 
Q 1997 762 2246 762 
Q 2918 762 3404 845 
Q 3891 928 4070 1069 
Q 4134 1126 4182 1200 
Q 4230 1274 4301 1434 
Q 4390 1626 4467 1677 
Q 4544 1728 4646 1728 
Q 4794 1728 4902 1638 
Q 4838 1466 4768 1302 
Q 4698 1139 4608 986 
Q 4774 902 4928 857 
Q 5082 813 5293 813 
Q 5344 813 5344 762 
L 5344 109 
Q 5344 58 5293 58 
Q 5050 58 4816 166 
Q 4582 275 4314 544 
Q 3994 288 3376 144 
Q 2758 0 2010 0 
z
M 2624 -1427 
Q 2451 -1286 2329 -1171 
Q 2208 -1056 2124 -966 
Q 2252 -838 2374 -713 
Q 2496 -589 2611 -454 
Q 2777 -646 3072 -915 
Q 3001 -1017 2886 -1148 
Q 2771 -1280 2624 -1427 
z
" transform="scale(0.015625)"/>
      <path id="NotoNaskhArabic-Bold-1c1" d="M 0 58 
Q -51 58 -51 109 
L -51 762 
Q -51 813 0 813 
Q 282 813 672 960 
Q 646 1146 624 1334 
Q 602 1523 570 1709 
Q 544 1894 441 2448 
Q 339 3002 173 3930 
Q 339 4045 534 4147 
Q 730 4250 934 4352 
Q 947 3827 960 3356 
Q 973 2886 986 2477 
Q 998 2067 1004 1718 
Q 1011 1370 1011 1069 
Q 1011 634 762 256 
Q 698 166 490 112 
Q 282 58 0 58 
z
" transform="scale(0.015625)"/>
      <path id="NotoNaskhArabic-Bold-175" d="M 0 58 
Q -51 58 -51 109 
L -51 762 
Q -51 813 0 813 
Q 832 813 1293 870 
Q 1741 922 1952 1030 
Q 1882 1178 1728 1347 
Q 1574 1517 1363 1683 
Q 1242 1773 1085 1875 
Q 928 1978 723 2099 
Q 64 2470 64 2778 
Q 64 2906 121 3030 
Q 179 3155 269 3238 
Q 314 3277 515 3376 
Q 717 3475 1008 3606 
Q 1299 3738 1622 3878 
Q 1946 4019 2243 4144 
Q 2541 4269 2746 4352 
Q 2880 4230 2880 4032 
Q 2880 3872 2781 3728 
Q 2682 3584 2534 3514 
Q 2291 3392 2038 3283 
Q 1786 3174 1440 3049 
Q 1094 2925 563 2739 
Q 1011 2630 1401 2371 
Q 1792 2112 2029 1773 
Q 2278 1421 2278 1107 
Q 2278 1050 2272 1037 
Q 2630 813 3046 813 
Q 3104 813 3104 762 
L 3104 109 
Q 3104 58 3046 58 
Q 2470 58 2016 531 
Q 1901 429 1702 326 
Q 1126 58 0 58 
z
" transform="scale(0.015625)"/>
      <path id="NotoNaskhArabic-Bold-1e8" d="M 1606 -1613 
Q 1037 -1613 736 -1277 
Q 435 -941 435 -301 
Q 435 32 595 627 
L 877 557 
Q 787 256 787 45 
Q 787 -858 1626 -858 
Q 2131 -858 2486 -726 
Q 2842 -595 3181 -288 
Q 2963 115 2800 419 
Q 2637 723 2637 883 
Q 2637 1408 3283 1728 
Q 3296 1626 3328 1427 
Q 3360 1229 3411 928 
Q 3622 813 3885 813 
Q 3942 813 3942 762 
L 3942 109 
Q 3942 58 3885 58 
Q 3795 58 3705 74 
Q 3616 90 3526 128 
L 3533 -45 
Q 3533 -474 3277 -838 
Q 3021 -1203 2579 -1408 
Q 2362 -1510 2115 -1561 
Q 1869 -1613 1606 -1613 
z
M 1811 1580 
Q 1485 1849 1319 2041 
Q 1466 2188 1584 2313 
Q 1703 2438 1799 2553 
Q 1869 2476 1984 2361 
Q 2099 2246 2259 2092 
Q 2183 1984 2071 1856 
Q 1959 1728 1811 1580 
z
" transform="scale(0.015625)"/>
      <path id="NotoNaskhArabic-Bold-38" d="M 0 58 
Q -51 58 -51 109 
L -51 762 
Q -51 813 0 813 
Q 320 813 640 867 
Q 960 922 1139 998 
Q 1075 1146 976 1328 
Q 877 1510 819 1613 
Q 755 1734 710 1833 
Q 666 1933 666 2016 
Q 666 2176 838 2361 
Q 1011 2547 1248 2669 
Q 1293 2470 1347 2217 
Q 1402 1965 1446 1702 
Q 1485 1504 1501 1376 
Q 1517 1248 1517 1184 
Q 1517 1037 1443 822 
Q 1370 608 1267 410 
Q 685 58 0 58 
z
M 1332 3020 
Q 1197 3129 1088 3225 
Q 980 3321 890 3417 
Q 1127 3635 1319 3865 
Q 1376 3801 1478 3705 
Q 1581 3609 1722 3468 
Q 1549 3232 1332 3020 
z
M 474 2924 
Q 199 3148 32 3328 
Q 141 3436 250 3548 
Q 359 3660 468 3769 
Q 583 3635 864 3372 
Q 704 3142 474 2924 
z
" transform="scale(0.015625)"/>
      <path id="NotoNaskhArabic-Bold-b6" d="M 1075 0 
Q 218 0 218 499 
Q 218 634 272 784 
Q 326 934 410 1018 
Q 570 890 774 826 
Q 979 762 1280 762 
Q 1466 762 1658 784 
Q 1850 806 2048 851 
Q 1798 1286 1648 1673 
Q 1498 2061 1498 2246 
Q 1498 2477 1613 2646 
Q 1728 2816 1946 2880 
Q 2074 2362 2208 1955 
Q 2342 1549 2490 1248 
Q 2611 1005 2758 909 
Q 2906 813 3162 813 
Q 3213 813 3213 762 
L 3213 109 
Q 3213 58 3162 58 
Q 2707 58 2413 352 
Q 1709 0 1075 0 
z
" transform="scale(0.015625)"/>
      <path id="NotoNaskhArabic-Bold-146" d="M 6 58 
Q -51 58 -51 115 
L -51 762 
Q -51 813 6 813 
Q 710 813 1196 857 
Q 1683 902 2061 1075 
Q 2048 1120 2029 1177 
Q 2010 1235 1978 1312 
Q 1824 1178 1638 1107 
Q 1453 1037 1229 1037 
Q 864 1037 685 1229 
Q 506 1421 506 1709 
Q 506 2029 624 2297 
Q 742 2566 941 2720 
Q 1043 2803 1158 2851 
Q 1274 2899 1395 2899 
Q 1658 2899 1904 2608 
Q 2150 2317 2285 1869 
Q 2349 1677 2377 1469 
Q 2406 1261 2406 1043 
Q 2406 832 2189 397 
Q 1875 275 1577 201 
Q 1280 128 912 93 
Q 544 58 6 58 
z
M 1318 1504 
Q 1568 1504 1856 1594 
Q 1734 1875 1593 2003 
Q 1453 2131 1254 2131 
Q 1056 2131 944 2032 
Q 832 1933 832 1811 
Q 832 1658 947 1581 
Q 1062 1504 1318 1504 
z
M 1388 3328 
Q 1062 3597 896 3789 
Q 1043 3936 1161 4061 
Q 1280 4186 1376 4301 
Q 1446 4224 1561 4109 
Q 1676 3994 1836 3840 
Q 1760 3732 1648 3604 
Q 1536 3476 1388 3328 
z
" transform="scale(0.015625)"/>
      <path id="NotoNaskhArabic-Bold-168" d="M 1606 -1613 
Q 1037 -1613 736 -1277 
Q 435 -941 435 -301 
Q 435 32 595 627 
L 877 557 
Q 787 256 787 45 
Q 787 -858 1683 -858 
Q 2515 -858 3366 -198 
L 3334 64 
Q 2566 90 2285 186 
Q 1946 294 1818 483 
Q 1690 672 1690 1018 
Q 1690 1370 1824 1712 
Q 1958 2054 2176 2266 
Q 2387 2477 2618 2477 
Q 2886 2477 3139 2221 
Q 3392 1965 3558 1530 
Q 3622 1370 3673 1190 
Q 3725 1011 3750 813 
L 4102 813 
Q 4154 813 4154 762 
L 4154 109 
Q 4154 58 4102 58 
L 3770 58 
Q 3712 -390 3417 -764 
Q 3123 -1139 2611 -1376 
Q 2112 -1613 1606 -1613 
z
M 3174 819 
Q 2906 1715 2477 1715 
Q 2349 1715 2243 1648 
Q 2138 1581 2080 1485 
Q 2022 1402 2022 1293 
Q 2022 1107 2208 992 
Q 2362 896 2656 858 
Q 2733 851 2857 841 
Q 2982 832 3174 819 
z
M 3060 2982 
Q 2925 3091 2816 3187 
Q 2708 3283 2618 3379 
Q 2855 3597 3047 3827 
Q 3104 3763 3206 3667 
Q 3309 3571 3450 3430 
Q 3277 3194 3060 2982 
z
M 2202 2886 
Q 1927 3110 1760 3290 
Q 1869 3398 1978 3510 
Q 2087 3622 2196 3731 
Q 2311 3597 2592 3334 
Q 2432 3104 2202 2886 
z
" transform="scale(0.015625)"/>
      <path id="NotoNaskhArabic-Bold-1ea" d="M 0 58 
Q -51 58 -51 109 
L -51 762 
Q -51 813 0 813 
Q 320 813 640 867 
Q 960 922 1139 998 
Q 1075 1146 976 1328 
Q 877 1510 819 1613 
Q 755 1734 710 1833 
Q 666 1933 666 2016 
Q 666 2176 838 2361 
Q 1011 2547 1248 2669 
Q 1293 2470 1347 2217 
Q 1402 1965 1446 1702 
Q 1485 1504 1501 1376 
Q 1517 1248 1517 1184 
Q 1517 1037 1443 822 
Q 1370 608 1267 410 
Q 685 58 0 58 
z
M 902 3052 
Q 576 3321 410 3513 
Q 557 3660 675 3785 
Q 794 3910 890 4025 
Q 960 3948 1075 3833 
Q 1190 3718 1350 3564 
Q 1274 3456 1162 3328 
Q 1050 3200 902 3052 
z
" transform="scale(0.015625)"/>
      <path id="NotoNaskhArabic-Bold-169" d="M 6 58 
Q -51 58 -51 115 
L -51 755 
Q -51 813 6 813 
Q 115 813 227 816 
Q 339 819 454 819 
Q 358 973 358 1114 
Q 358 1197 374 1337 
Q 390 1478 419 1606 
Q 448 1734 474 1786 
Q 595 2003 771 2179 
Q 947 2355 1152 2457 
Q 1357 2560 1549 2560 
Q 1722 2560 1898 2368 
Q 2074 2176 2182 1875 
Q 2291 1568 2291 1306 
Q 2291 1056 2150 819 
Q 2285 819 2422 816 
Q 2560 813 2694 813 
Q 2746 813 2746 762 
L 2746 109 
Q 2746 58 2694 58 
Q 1882 58 1325 269 
Q 1030 147 716 102 
Q 403 58 6 58 
z
M 1299 794 
Q 1690 902 1933 1107 
Q 1888 1280 1795 1446 
Q 1702 1613 1613 1696 
Q 1549 1773 1478 1773 
Q 1146 1773 704 1178 
Q 819 1043 979 944 
Q 1139 845 1299 794 
z
M 1888 3052 
Q 1753 3161 1644 3257 
Q 1536 3353 1446 3449 
Q 1683 3667 1875 3897 
Q 1932 3833 2034 3737 
Q 2137 3641 2278 3500 
Q 2105 3264 1888 3052 
z
M 1030 2956 
Q 755 3180 588 3360 
Q 697 3468 806 3580 
Q 915 3692 1024 3801 
Q 1139 3667 1420 3404 
Q 1260 3174 1030 2956 
z
" transform="scale(0.015625)"/>
      <path id="NotoNaskhArabic-Bold-23e" d="M 1606 -1613 
Q 1037 -1613 736 -1277 
Q 435 -941 435 -301 
Q 435 32 595 627 
L 877 557 
Q 787 256 787 45 
Q 787 -858 1683 -858 
Q 1965 -858 2291 -771 
Q 2618 -685 2931 -531 
Q 3078 -454 3222 -368 
Q 3366 -282 3494 -179 
Q 3418 -179 3344 -179 
Q 3270 -179 3200 -173 
Q 2362 -128 2093 230 
Q 1939 442 1939 762 
Q 1939 1005 2038 1267 
Q 2138 1530 2307 1776 
Q 2477 2022 2688 2202 
Q 3008 2464 3290 2464 
Q 3725 2464 3853 1638 
L 3571 1581 
Q 3475 1702 3366 1702 
Q 3194 1702 2976 1577 
Q 2758 1453 2560 1229 
Q 2374 1024 2266 755 
Q 2394 704 2582 665 
Q 2771 627 3021 595 
Q 3245 570 3376 525 
Q 3507 480 3603 403 
Q 3699 333 3760 179 
Q 3821 26 3821 -122 
Q 3821 -314 3667 -547 
Q 3514 -781 3242 -998 
Q 2970 -1216 2624 -1376 
Q 2125 -1613 1606 -1613 
z
M 2227 -2630 
Q 1952 -2406 1785 -2227 
Q 1990 -2048 2214 -1779 
Q 2233 -1798 2332 -1897 
Q 2432 -1997 2611 -2182 
Q 2547 -2278 2451 -2390 
Q 2355 -2502 2227 -2630 
z
M 1369 -2726 
Q 1209 -2598 1103 -2495 
Q 998 -2393 928 -2317 
Q 1036 -2208 1145 -2096 
Q 1254 -1984 1363 -1875 
Q 1440 -1971 1760 -2272 
Q 1606 -2502 1369 -2726 
z
" transform="scale(0.015625)"/>
      <path id="NotoNaskhArabic-Bold-105" d="M 1472 0 
Q 1165 0 736 205 
Q 608 141 406 99 
Q 205 58 0 58 
Q -51 58 -51 109 
L -51 762 
Q -51 813 0 813 
Q 294 813 441 851 
Q 589 890 678 979 
Q 749 1050 813 1149 
Q 877 1248 998 1466 
Q 1037 1536 1110 1581 
Q 1184 1626 1267 1626 
Q 1357 1626 1466 1555 
Q 1382 1363 1308 1171 
Q 1235 979 1158 781 
Q 1331 762 1504 762 
Q 1632 762 1709 771 
Q 1786 781 1965 832 
Q 2016 909 2096 1107 
Q 2176 1306 2317 1696 
Q 2349 1779 2432 1833 
Q 2515 1888 2630 1888 
Q 2765 1888 2854 1818 
Q 2816 1722 2736 1472 
Q 2656 1222 2509 742 
Q 2554 742 2595 742 
Q 2637 742 2682 736 
Q 2912 736 3142 806 
Q 3162 838 3194 915 
Q 3226 992 3283 1146 
Q 3322 1254 3379 1401 
Q 3437 1549 3507 1747 
Q 3546 1837 3632 1891 
Q 3718 1946 3827 1946 
Q 3942 1946 4045 1875 
Q 4006 1773 3942 1581 
Q 3878 1389 3750 986 
Q 4038 813 4518 813 
Q 4570 813 4570 762 
L 4570 109 
Q 4570 58 4518 58 
Q 4262 58 3993 170 
Q 3725 282 3578 442 
Q 3526 301 3468 201 
Q 3411 102 3226 51 
Q 3034 0 2758 0 
Q 2566 0 2240 141 
Q 2150 77 1923 38 
Q 1696 0 1472 0 
z
M 2324 2995 
Q 2189 3104 2093 3196 
Q 1997 3289 1933 3360 
Q 2068 3481 2160 3567 
Q 2253 3654 2304 3718 
Q 2375 3635 2467 3545 
Q 2560 3456 2676 3360 
Q 2541 3212 2451 3119 
Q 2362 3027 2324 2995 
z
M 2784 2444 
Q 2650 2553 2541 2652 
Q 2432 2752 2343 2848 
Q 2439 2937 2547 3046 
Q 2656 3155 2772 3289 
Q 2810 3244 2912 3148 
Q 3015 3052 3175 2899 
Q 3092 2777 2992 2665 
Q 2893 2553 2784 2444 
z
M 1895 2355 
Q 1607 2572 1460 2758 
Q 1568 2867 1677 2979 
Q 1786 3091 1895 3200 
Q 1946 3136 2045 3033 
Q 2144 2931 2285 2803 
Q 2189 2675 2093 2559 
Q 1997 2444 1895 2355 
z
" transform="scale(0.015625)"/>
      <path id="NotoNaskhArabic-Bold-13d" d="M 6 58 
Q -51 58 -51 115 
L -51 755 
Q -51 813 6 813 
Q 346 813 627 822 
Q 909 832 1126 870 
L 998 1030 
Q 909 1152 835 1235 
Q 762 1318 691 1382 
Q 640 1434 589 1478 
Q 538 1523 486 1568 
L 371 1485 
Q 198 1670 198 1894 
Q 198 2112 390 2272 
Q 582 2432 915 2554 
Q 1242 2669 1549 2669 
Q 1830 2669 2080 2547 
Q 2330 2426 2470 2208 
Q 2618 1990 2618 1760 
Q 2618 1530 2490 1306 
Q 2362 1082 2118 858 
Q 2291 832 2486 822 
Q 2682 813 2912 813 
Q 2976 813 2976 755 
L 2976 115 
Q 2976 58 2912 58 
Q 2464 58 2105 160 
Q 1747 262 1530 448 
Q 845 58 6 58 
z
M 1626 1062 
Q 1978 1293 1978 1613 
Q 1978 1773 1862 1865 
Q 1747 1958 1574 1958 
Q 1408 1958 1257 1926 
Q 1107 1894 902 1805 
Q 973 1741 1117 1603 
Q 1261 1466 1459 1248 
Q 1498 1203 1539 1158 
Q 1581 1114 1626 1062 
z
M 1465 3065 
Q 1139 3334 973 3526 
Q 1120 3673 1238 3798 
Q 1357 3923 1453 4038 
Q 1523 3961 1638 3846 
Q 1753 3731 1913 3577 
Q 1837 3469 1725 3341 
Q 1613 3213 1465 3065 
z
" transform="scale(0.015625)"/>
      <path id="NotoNaskhArabic-Bold-240" d="M 0 58 
Q -51 58 -51 109 
L -51 762 
Q -51 813 0 813 
Q 307 813 566 829 
Q 826 845 992 928 
Q 1120 992 1187 1104 
Q 1254 1216 1357 1421 
Q 1459 1632 1536 1680 
Q 1613 1728 1715 1728 
Q 1869 1728 1971 1638 
Q 1888 1427 1814 1264 
Q 1741 1101 1690 979 
Q 2003 813 2362 813 
Q 2413 813 2413 762 
L 2413 109 
Q 2413 58 2362 58 
Q 1875 58 1434 499 
L 1382 416 
Q 1203 179 883 118 
Q 563 58 0 58 
z
M 1651 -1235 
Q 1376 -1011 1209 -832 
Q 1414 -653 1638 -384 
Q 1657 -403 1756 -502 
Q 1856 -602 2035 -787 
Q 1971 -883 1875 -995 
Q 1779 -1107 1651 -1235 
z
M 793 -1331 
Q 633 -1203 527 -1100 
Q 422 -998 352 -922 
Q 460 -813 569 -701 
Q 678 -589 787 -480 
Q 864 -576 1184 -877 
Q 1030 -1107 793 -1331 
z
" transform="scale(0.015625)"/>
      <path id="NotoNaskhArabic-Bold-1bf" d="M 0 58 
Q -51 58 -51 109 
L -51 762 
Q -51 813 0 813 
Q 154 813 304 845 
Q 454 877 595 934 
Q 454 1830 307 3059 
Q 282 3264 259 3481 
Q 237 3699 211 3930 
Q 384 4058 576 4160 
Q 768 4262 973 4352 
Q 966 4115 956 3696 
Q 947 3277 937 2768 
Q 928 2259 922 1734 
L 922 992 
Q 1190 813 1619 813 
Q 1677 813 1677 762 
L 1677 109 
Q 1677 58 1619 58 
Q 1088 58 832 282 
Q 691 192 470 125 
Q 250 58 0 58 
z
" transform="scale(0.015625)"/>
      <path id="NotoNaskhArabic-Bold-6" d="M 896 0 
Q 877 0 877 77 
Q 877 166 893 316 
Q 909 467 934 585 
Q 960 704 979 704 
Q 1158 704 1372 710 
Q 1587 717 1818 730 
Q 2048 742 2288 768 
Q 2528 794 2752 832 
Q 2522 1114 2320 1338 
Q 2118 1562 1894 1760 
Q 1677 1958 1424 2147 
Q 1171 2336 832 2541 
L 595 2528 
Q 429 2611 323 2752 
Q 218 2893 218 3098 
Q 218 3277 314 3414 
Q 410 3552 570 3642 
Q 717 3546 880 3411 
Q 1043 3277 1222 3110 
Q 1440 2918 1677 2684 
Q 1914 2451 2134 2217 
Q 2355 1984 2502 1792 
Q 2598 1670 2713 1513 
Q 2829 1357 2934 1203 
Q 3040 1050 3107 931 
Q 3174 813 3174 762 
Q 3174 717 3142 614 
Q 3110 512 3065 397 
Q 3021 282 2979 198 
Q 2938 115 2918 109 
Q 2797 90 2601 70 
Q 2406 51 2195 38 
Q 1984 26 1805 19 
Q 1747 19 1622 16 
Q 1498 13 1354 9 
Q 1210 6 1085 3 
Q 960 0 896 0 
z
" transform="scale(0.015625)"/>
      <path id="NotoNaskhArabic-Bold-1c2" d="M 1478 506 
L 1133 621 
Q 1414 838 1638 1052 
Q 1862 1267 2022 1485 
Q 2182 1709 2268 1955 
Q 2355 2202 2355 2477 
Q 2355 2573 2326 2768 
Q 2298 2963 2256 3187 
Q 2214 3411 2185 3606 
Q 2157 3802 2157 3891 
Q 2157 4154 2345 4307 
Q 2534 4461 2829 4461 
Q 2893 4224 2947 4051 
Q 3002 3878 3085 3674 
L 2874 3514 
Q 2880 3430 2886 3267 
Q 2893 3104 2896 2963 
Q 2899 2822 2899 2790 
Q 2899 2381 2755 2003 
Q 2611 1626 2362 1306 
Q 2176 1069 1958 877 
Q 1741 685 1478 506 
z
" transform="scale(0.015625)"/>
      <path id="NotoNaskhArabic-Bold-516" d="M 1037 1792 
Q 877 1920 710 2029 
Q 544 2138 378 2234 
Q 429 2317 473 2397 
Q 518 2477 557 2560 
Q 602 2643 650 2723 
Q 698 2803 755 2886 
Q 870 2816 1017 2720 
Q 1165 2624 1273 2534 
Q 1382 2445 1382 2381 
Q 1382 2291 1037 1792 
z
M 1037 -365 
Q 691 -96 378 77 
Q 429 166 473 246 
Q 518 326 557 410 
Q 602 486 650 566 
Q 698 646 755 730 
Q 1382 365 1382 224 
Q 1382 134 1037 -365 
z
" transform="scale(0.015625)"/>
     </defs>
     <use xlink:href="#NotoNaskhArabic-Bold-d3"/>
     <use xlink:href="#NotoNaskhArabic-Bold-26" transform="translate(37.703125 0)"/>
     <use xlink:href="#NotoNaskhArabic-Bold-8a" transform="translate(65.203125 0)"/>
     <use xlink:href="#NotoNaskhArabic-Bold-554" transform="translate(137.609375 0)"/>
     <use xlink:href="#NotoNaskhArabic-Bold-1e5" transform="translate(159.703125 0)"/>
     <use xlink:href="#NotoNaskhArabic-Bold-8b" transform="translate(207 0)"/>
     <use xlink:href="#NotoNaskhArabic-Bold-4" transform="translate(272.703125 0)"/>
     <use xlink:href="#NotoNaskhArabic-Bold-fa" transform="translate(301.5 0)"/>
     <use xlink:href="#NotoNaskhArabic-Bold-25" transform="translate(371.5 0)"/>
     <use xlink:href="#NotoNaskhArabic-Bold-23f" transform="translate(400.703125 0)"/>
     <use xlink:href="#NotoNaskhArabic-Bold-554" transform="translate(469.703125 0)"/>
     <use xlink:href="#NotoNaskhArabic-Bold-1e5" transform="translate(491.796875 0)"/>
     <use xlink:href="#NotoNaskhArabic-Bold-219" transform="translate(539.09375 0)"/>
     <use xlink:href="#NotoNaskhArabic-Bold-74" transform="translate(587.890625 0)"/>
     <use xlink:href="#NotoNaskhArabic-Bold-24" transform="translate(652.796875 0)"/>
     <use xlink:href="#NotoNaskhArabic-Bold-554" transform="translate(734.5 0)"/>
     <use xlink:href="#NotoNaskhArabic-Bold-1c1" transform="translate(756.59375 0)"/>
     <use xlink:href="#NotoNaskhArabic-Bold-175" transform="translate(778.296875 0)"/>
     <use xlink:href="#NotoNaskhArabic-Bold-1e8" transform="translate(825 0)"/>
     <use xlink:href="#NotoNaskhArabic-Bold-554" transform="translate(884.90625 0)"/>
     <use xlink:href="#NotoNaskhArabic-Bold-38" transform="translate(907 0)"/>
     <use xlink:href="#NotoNaskhArabic-Bold-b6" transform="translate(934.5 0)"/>
     <use xlink:href="#NotoNaskhArabic-Bold-146" transform="translate(983 0)"/>
     <use xlink:href="#NotoNaskhArabic-Bold-168" transform="translate(1025.703125 0)"/>
     <use xlink:href="#NotoNaskhArabic-Bold-554" transform="translate(1088.90625 0)"/>
     <use xlink:href="#NotoNaskhArabic-Bold-1ea" transform="translate(1111 0)"/>
     <use xlink:href="#NotoNaskhArabic-Bold-169" transform="translate(1138.5 0)"/>
     <use xlink:href="#NotoNaskhArabic-Bold-b6" transform="translate(1179.703125 0)"/>
     <use xlink:href="#NotoNaskhArabic-Bold-23e" transform="translate(1228.203125 0)"/>
     <use xlink:href="#NotoNaskhArabic-Bold-554" transform="translate(1291.796875 0)"/>
     <use xlink:href="#NotoNaskhArabic-Bold-38" transform="translate(1313.890625 0)"/>
     <use xlink:href="#NotoNaskhArabic-Bold-105" transform="translate(1341.390625 0)"/>
     <use xlink:href="#NotoNaskhArabic-Bold-13d" transform="translate(1411.09375 0)"/>
     <use xlink:href="#NotoNaskhArabic-Bold-240" transform="translate(1455.890625 0)"/>
     <use xlink:href="#NotoNaskhArabic-Bold-1bf" transform="translate(1491.890625 0)"/>
     <use xlink:href="#NotoNaskhArabic-Bold-23f" transform="translate(1516.390625 0)"/>
     <use xlink:href="#NotoNaskhArabic-Bold-554" transform="translate(1585.390625 0)"/>
     <use xlink:href="#NotoNaskhArabic-Bold-fa" transform="translate(1607.484375 0)"/>
     <use xlink:href="#NotoNaskhArabic-Bold-6" transform="translate(1677.484375 0)"/>
     <use xlink:href="#NotoNaskhArabic-Bold-1c2" transform="translate(1677.484375 0)"/>
     <use xlink:href="#NotoNaskhArabic-Bold-24" transform="translate(1732.078125 0)"/>
     <use xlink:href="#NotoNaskhArabic-Bold-516" transform="translate(1813.78125 0)"/>
     <use xlink:href="#NotoNaskhArabic-Bold-554" transform="translate(1841.1875 0)"/>
    </g>
    <!-- ﺺﺤﻔﻟﺍ ﻖﺤﺘﺴﺗ ﺔﻳﺮﻳﺬﺤﺗ ﺓﺭﺎﺷﺇ -->
    <g style="fill: #b91c1c" transform="translate(286.475477 60.37277) scale(0.09 -0.09)">
     <defs>
      <path id="NotoNaskhArabic-Bold-a" d="M 774 58 
Q 742 717 710 1216 
Q 678 1715 646 2134 
Q 614 2554 576 2950 
Q 538 3347 493 3808 
Q 474 3968 566 4089 
Q 659 4211 822 4281 
Q 986 4352 1178 4352 
Q 1229 4154 1296 3955 
Q 1363 3757 1440 3565 
L 1216 3398 
Q 1229 2867 1222 2035 
Q 1216 1203 1184 109 
L 774 58 
z
M 608 -1530 
L 595 -1267 
L 826 -1127 
Q 621 -1056 621 -883 
Q 621 -768 691 -649 
Q 762 -531 867 -454 
Q 973 -378 1069 -378 
Q 1306 -378 1306 -659 
Q 1306 -736 1274 -813 
L 1152 -787 
L 1152 -775 
Q 1152 -717 1075 -717 
Q 935 -717 851 -877 
Q 967 -992 1165 -992 
Q 1223 -992 1287 -982 
Q 1351 -973 1415 -960 
L 1389 -1248 
Q 1159 -1299 1002 -1353 
Q 845 -1408 608 -1530 
z
" transform="scale(0.015625)"/>
      <path id="NotoNaskhArabic-Bold-106" d="M 1472 0 
Q 1165 0 736 205 
Q 608 141 406 99 
Q 205 58 0 58 
Q -51 58 -51 109 
L -51 762 
Q -51 813 0 813 
Q 294 813 441 851 
Q 589 890 678 979 
Q 749 1050 806 1142 
Q 864 1235 998 1466 
Q 1037 1536 1110 1581 
Q 1184 1626 1267 1626 
Q 1357 1626 1466 1555 
Q 1363 1286 1286 1091 
Q 1210 896 1158 781 
Q 1331 762 1504 762 
Q 1632 762 1734 778 
Q 1837 794 1965 832 
Q 2010 902 2093 1104 
Q 2176 1306 2317 1696 
Q 2349 1779 2432 1833 
Q 2515 1888 2630 1888 
Q 2765 1888 2854 1818 
Q 2778 1626 2710 1414 
Q 2643 1203 2586 992 
Q 2829 870 3133 806 
Q 3437 742 3782 704 
Q 3584 1094 3443 1376 
Q 3302 1658 3302 1798 
Q 3302 1952 3475 2141 
Q 3648 2330 3885 2451 
Q 3994 1907 4051 1603 
Q 4109 1299 4131 1145 
Q 4154 992 4154 909 
Q 4154 806 4112 633 
Q 4070 461 4006 288 
Q 3942 115 3885 0 
Q 3501 0 3097 89 
Q 2694 179 2355 326 
Q 2317 243 2278 173 
Q 2234 102 1994 51 
Q 1754 0 1472 0 
z
M 2324 2995 
Q 2189 3104 2093 3196 
Q 1997 3289 1933 3360 
Q 2068 3481 2160 3567 
Q 2253 3654 2304 3718 
Q 2375 3635 2467 3545 
Q 2560 3456 2676 3360 
Q 2541 3212 2451 3119 
Q 2362 3027 2324 2995 
z
M 2784 2444 
Q 2650 2553 2541 2652 
Q 2432 2752 2343 2848 
Q 2439 2937 2547 3046 
Q 2656 3155 2772 3289 
Q 2810 3244 2912 3148 
Q 3015 3052 3175 2899 
Q 3092 2777 2992 2665 
Q 2893 2553 2784 2444 
z
M 1895 2355 
Q 1607 2572 1460 2758 
Q 1568 2867 1677 2979 
Q 1786 3091 1895 3200 
Q 1946 3136 2045 3033 
Q 2144 2931 2285 2803 
Q 2189 2675 2093 2559 
Q 1997 2444 1895 2355 
z
" transform="scale(0.015625)"/>
      <path id="NotoNaskhArabic-Bold-214" d="M 1274 0 
Q 909 0 672 246 
Q 435 493 435 864 
Q 435 1126 572 1401 
Q 710 1677 1018 1984 
Q 915 2048 880 2141 
Q 845 2234 845 2330 
Q 845 2464 899 2585 
Q 954 2707 1043 2752 
Q 1408 2637 1721 2381 
Q 2035 2125 2214 1798 
Q 2394 1466 2394 1184 
Q 2394 1094 2349 944 
Q 2304 794 2233 634 
Q 2163 474 2086 349 
Q 2010 224 1939 179 
Q 1818 96 1642 48 
Q 1466 0 1274 0 
z
M 1344 672 
Q 1690 672 1978 851 
Q 1882 1133 1715 1360 
Q 1549 1587 1286 1786 
Q 915 1421 915 1075 
Q 915 896 1040 784 
Q 1165 672 1344 672 
z
M 1684 3251 
Q 1549 3360 1440 3456 
Q 1332 3552 1242 3648 
Q 1479 3866 1671 4096 
Q 1728 4032 1830 3936 
Q 1933 3840 2074 3699 
Q 1901 3463 1684 3251 
z
M 826 3155 
Q 551 3379 384 3559 
Q 493 3667 602 3779 
Q 711 3891 820 4000 
Q 935 3866 1216 3603 
Q 1056 3373 826 3155 
z
" transform="scale(0.015625)"/>
      <path id="NotoNaskhArabic-Bold-b8" d="M 1075 0 
Q 218 0 218 499 
Q 218 634 272 784 
Q 326 934 410 1018 
Q 570 890 774 826 
Q 979 762 1280 762 
Q 1466 762 1658 784 
Q 1850 806 2048 851 
Q 1798 1286 1648 1673 
Q 1498 2061 1498 2246 
Q 1498 2477 1613 2646 
Q 1728 2816 1946 2880 
Q 2074 2362 2208 1955 
Q 2342 1549 2490 1248 
Q 2611 1005 2758 909 
Q 2906 813 3162 813 
Q 3213 813 3213 762 
L 3213 109 
Q 3213 58 3162 58 
Q 2707 58 2413 352 
Q 1709 0 1075 0 
z
M 1433 3264 
Q 1107 3533 941 3725 
Q 1088 3872 1206 3997 
Q 1325 4122 1421 4237 
Q 1491 4160 1606 4045 
Q 1721 3930 1881 3776 
Q 1805 3668 1693 3540 
Q 1581 3412 1433 3264 
z
" transform="scale(0.015625)"/>
      <path id="NotoNaskhArabic-Bold-241" d="M 0 58 
Q -51 58 -51 109 
L -51 762 
Q -51 813 0 813 
Q 339 813 652 835 
Q 966 858 1212 902 
Q 1459 947 1581 998 
Q 1517 1146 1414 1328 
Q 1312 1510 1261 1613 
Q 1197 1734 1152 1833 
Q 1107 1933 1107 2016 
Q 1107 2170 1280 2358 
Q 1453 2547 1690 2669 
Q 1786 2189 1843 1897 
Q 1901 1606 1926 1443 
Q 1952 1280 1952 1184 
Q 1952 1037 1881 825 
Q 1811 614 1702 410 
Q 1530 307 1251 227 
Q 973 147 646 102 
Q 320 58 0 58 
z
M 1479 -1235 
Q 1204 -1011 1037 -832 
Q 1242 -653 1466 -384 
Q 1485 -403 1584 -502 
Q 1684 -602 1863 -787 
Q 1799 -883 1703 -995 
Q 1607 -1107 1479 -1235 
z
M 621 -1331 
Q 461 -1203 355 -1100 
Q 250 -998 180 -922 
Q 288 -813 397 -701 
Q 506 -589 615 -480 
Q 692 -576 1012 -877 
Q 858 -1107 621 -1331 
z
" transform="scale(0.015625)"/>
      <path id="NotoNaskhArabic-Bold-d4" d="M 653 -1248 
Q 544 -1248 304 -1107 
Q 64 -966 -218 -730 
L -115 -461 
Q 243 -550 531 -550 
Q 1005 -550 1331 -313 
Q 1658 -77 1805 371 
Q 1760 467 1705 566 
Q 1651 666 1587 762 
Q 1299 1203 1203 1414 
Q 1107 1626 1107 1779 
Q 1107 1965 1254 2147 
Q 1402 2330 1638 2451 
Q 1670 2330 1705 2208 
Q 1741 2086 1786 1958 
Q 1926 1555 2006 1299 
Q 2086 1043 2106 934 
Q 2323 813 2586 813 
Q 2637 813 2637 762 
L 2637 109 
Q 2637 58 2586 58 
Q 2349 58 2112 179 
Q 2042 -243 1837 -566 
Q 1632 -890 1328 -1069 
Q 1024 -1248 653 -1248 
z
" transform="scale(0.015625)"/>
      <path id="NotoNaskhArabic-Bold-215" d="M 3302 58 
Q 2912 58 2675 182 
Q 2438 307 2393 531 
L 2336 768 
L 2080 243 
Q 1881 262 1711 288 
Q 1542 314 1395 365 
Q 1235 422 1075 518 
Q 915 614 806 716 
Q 697 819 697 890 
Q 697 941 738 1078 
Q 780 1216 838 1369 
Q 896 1523 940 1600 
Q 998 1728 1184 1882 
Q 1363 2042 1593 2192 
Q 1824 2342 1984 2413 
L 1952 2669 
Q 2118 2797 2223 2873 
Q 2329 2950 2418 3011 
Q 2508 3072 2617 3136 
L 2617 986 
Q 2924 813 3302 813 
Q 3353 813 3353 762 
L 3353 109 
Q 3353 58 3302 58 
z
M 2272 1005 
Q 2233 1158 2188 1366 
Q 2144 1574 2086 1837 
Q 1491 1638 1152 1318 
Q 1356 1178 1542 1123 
Q 1728 1069 1894 1043 
Q 2067 1011 2272 1005 
z
M 2138 3257 
Q 2003 3366 1894 3462 
Q 1786 3558 1696 3654 
Q 1933 3872 2125 4102 
Q 2182 4038 2284 3942 
Q 2387 3846 2528 3705 
Q 2355 3469 2138 3257 
z
M 1280 3161 
Q 1005 3385 838 3565 
Q 947 3673 1056 3785 
Q 1165 3897 1274 4006 
Q 1389 3872 1670 3609 
Q 1510 3379 1280 3161 
z
" transform="scale(0.015625)"/>
      <path id="NotoNaskhArabic-Bold-f9" d="M 1472 0 
Q 1165 0 736 205 
Q 608 141 406 99 
Q 205 58 0 58 
Q -51 58 -51 109 
L -51 762 
Q -51 813 0 813 
Q 294 813 441 851 
Q 589 890 678 979 
Q 749 1050 813 1149 
Q 877 1248 998 1466 
Q 1037 1536 1110 1581 
Q 1184 1626 1267 1626 
Q 1357 1626 1466 1555 
Q 1382 1363 1308 1171 
Q 1235 979 1158 781 
Q 1331 762 1504 762 
Q 1632 762 1709 771 
Q 1786 781 1965 832 
Q 2016 909 2096 1107 
Q 2176 1306 2317 1696 
Q 2349 1779 2432 1833 
Q 2515 1888 2630 1888 
Q 2765 1888 2854 1818 
Q 2816 1722 2736 1472 
Q 2656 1222 2509 742 
Q 2554 742 2595 742 
Q 2637 742 2682 736 
Q 2912 736 3142 806 
Q 3162 838 3194 915 
Q 3226 992 3283 1146 
Q 3322 1254 3379 1401 
Q 3437 1549 3507 1747 
Q 3546 1837 3632 1891 
Q 3718 1946 3827 1946 
Q 3942 1946 4045 1875 
Q 4006 1773 3942 1581 
Q 3878 1389 3750 986 
Q 4038 813 4518 813 
Q 4570 813 4570 762 
L 4570 109 
Q 4570 58 4518 58 
Q 4262 58 3993 170 
Q 3725 282 3578 442 
Q 3526 301 3468 201 
Q 3411 102 3226 51 
Q 3034 0 2758 0 
Q 2566 0 2240 141 
Q 2150 77 1923 38 
Q 1696 0 1472 0 
z
" transform="scale(0.015625)"/>
      <path id="NotoNaskhArabic-Bold-37" d="M 0 58 
Q -51 58 -51 109 
L -51 762 
Q -51 813 0 813 
Q 307 813 566 829 
Q 826 845 992 928 
Q 1120 992 1187 1104 
Q 1254 1216 1357 1421 
Q 1459 1632 1536 1680 
Q 1613 1728 1715 1728 
Q 1869 1728 1971 1638 
Q 1888 1427 1814 1264 
Q 1741 1101 1690 979 
Q 2003 813 2362 813 
Q 2413 813 2413 762 
L 2413 109 
Q 2413 58 2362 58 
Q 1875 58 1434 499 
L 1382 416 
Q 1203 179 883 118 
Q 563 58 0 58 
z
M 1664 2252 
Q 1529 2361 1420 2457 
Q 1312 2553 1222 2649 
Q 1459 2867 1651 3097 
Q 1708 3033 1810 2937 
Q 1913 2841 2054 2700 
Q 1881 2464 1664 2252 
z
M 806 2156 
Q 531 2380 364 2560 
Q 473 2668 582 2780 
Q 691 2892 800 3001 
Q 915 2867 1196 2604 
Q 1036 2374 806 2156 
z
" transform="scale(0.015625)"/>
      <path id="NotoNaskhArabic-Bold-3" d="M 774 58 
Q 742 717 710 1216 
Q 678 1715 646 2134 
Q 614 2554 576 2950 
Q 538 3347 493 3808 
Q 474 3968 566 4089 
Q 659 4211 822 4281 
Q 986 4352 1178 4352 
Q 1229 4154 1296 3955 
Q 1363 3757 1440 3565 
L 1216 3398 
Q 1229 2867 1222 2035 
Q 1216 1203 1184 109 
L 774 58 
z
" transform="scale(0.015625)"/>
      <path id="NotoNaskhArabic-Bold-145" d="M 6 58 
Q -51 58 -51 115 
L -51 755 
Q -51 813 6 813 
Q 115 813 227 816 
Q 339 819 454 819 
Q 358 973 358 1114 
Q 358 1197 374 1337 
Q 390 1478 419 1606 
Q 448 1734 474 1786 
Q 595 2003 771 2179 
Q 947 2355 1152 2457 
Q 1357 2560 1549 2560 
Q 1722 2560 1898 2368 
Q 2074 2176 2182 1875 
Q 2291 1568 2291 1306 
Q 2291 1056 2150 819 
Q 2285 819 2422 816 
Q 2560 813 2694 813 
Q 2746 813 2746 762 
L 2746 109 
Q 2746 58 2694 58 
Q 1882 58 1325 269 
Q 1030 147 716 102 
Q 403 58 6 58 
z
M 1299 794 
Q 1690 902 1933 1107 
Q 1888 1280 1795 1446 
Q 1702 1613 1613 1696 
Q 1549 1773 1478 1773 
Q 1146 1773 704 1178 
Q 819 1043 979 944 
Q 1139 845 1299 794 
z
M 1459 3084 
Q 1133 3353 967 3545 
Q 1114 3692 1232 3817 
Q 1351 3942 1447 4057 
Q 1517 3980 1632 3865 
Q 1747 3750 1907 3596 
Q 1831 3488 1719 3360 
Q 1607 3232 1459 3084 
z
" transform="scale(0.015625)"/>
      <path id="NotoNaskhArabic-Bold-110" d="M 1606 -1613 
Q 1037 -1613 736 -1277 
Q 435 -941 435 -301 
Q 435 32 595 627 
L 877 557 
Q 787 256 787 45 
Q 787 -858 1626 -858 
Q 2131 -858 2486 -726 
Q 2842 -595 3181 -288 
Q 2989 77 2880 291 
Q 2771 506 2716 618 
Q 2662 730 2649 784 
Q 2637 838 2637 883 
Q 2637 1408 3283 1728 
Q 3315 1530 3350 1328 
Q 3386 1126 3418 922 
L 3590 864 
Q 4864 2560 5619 2560 
Q 5779 2560 5968 2470 
Q 6157 2381 6345 2233 
Q 6534 2086 6688 1901 
Q 6918 1632 6918 1446 
Q 6918 1344 6902 1248 
Q 6886 1152 6854 1062 
Q 7098 922 7254 867 
Q 7411 813 7648 813 
Q 7706 813 7706 762 
L 7706 109 
Q 7706 58 7648 58 
Q 7347 58 7049 195 
Q 6752 333 6528 576 
Q 6214 307 5734 153 
Q 5254 0 4742 0 
Q 4448 0 4147 38 
Q 3846 77 3526 147 
Q 3526 102 3529 54 
Q 3533 6 3533 -45 
Q 3533 -474 3277 -838 
Q 3021 -1203 2579 -1408 
Q 2362 -1510 2115 -1561 
Q 1869 -1613 1606 -1613 
z
M 4806 704 
Q 5267 704 5670 813 
Q 6074 922 6541 1146 
Q 5978 1805 5466 1805 
Q 5088 1805 4544 1318 
Q 4410 1197 4275 1059 
Q 4141 922 4006 768 
Q 4243 742 4444 723 
Q 4646 704 4806 704 
z
" transform="scale(0.015625)"/>
     </defs>
     <use xlink:href="#NotoNaskhArabic-Bold-a"/>
     <use xlink:href="#NotoNaskhArabic-Bold-106" transform="translate(28.40625 0)"/>
     <use xlink:href="#NotoNaskhArabic-Bold-4" transform="translate(98.40625 0)"/>
     <use xlink:href="#NotoNaskhArabic-Bold-d3" transform="translate(127.203125 0)"/>
     <use xlink:href="#NotoNaskhArabic-Bold-214" transform="translate(164.90625 0)"/>
     <use xlink:href="#NotoNaskhArabic-Bold-554" transform="translate(207.40625 0)"/>
     <use xlink:href="#NotoNaskhArabic-Bold-38" transform="translate(229.5 0)"/>
     <use xlink:href="#NotoNaskhArabic-Bold-8b" transform="translate(257 0)"/>
     <use xlink:href="#NotoNaskhArabic-Bold-b8" transform="translate(322.703125 0)"/>
     <use xlink:href="#NotoNaskhArabic-Bold-241" transform="translate(371.203125 0)"/>
     <use xlink:href="#NotoNaskhArabic-Bold-d4" transform="translate(405.5 0)"/>
     <use xlink:href="#NotoNaskhArabic-Bold-241" transform="translate(445 0)"/>
     <use xlink:href="#NotoNaskhArabic-Bold-215" transform="translate(479.296875 0)"/>
     <use xlink:href="#NotoNaskhArabic-Bold-554" transform="translate(530 0)"/>
     <use xlink:href="#NotoNaskhArabic-Bold-38" transform="translate(552.09375 0)"/>
     <use xlink:href="#NotoNaskhArabic-Bold-f9" transform="translate(579.59375 0)"/>
     <use xlink:href="#NotoNaskhArabic-Bold-37" transform="translate(649.296875 0)"/>
     <use xlink:href="#NotoNaskhArabic-Bold-8b" transform="translate(685.296875 0)"/>
     <use xlink:href="#NotoNaskhArabic-Bold-168" transform="translate(751 0)"/>
     <use xlink:href="#NotoNaskhArabic-Bold-554" transform="translate(814.203125 0)"/>
     <use xlink:href="#NotoNaskhArabic-Bold-3" transform="translate(836.296875 0)"/>
     <use xlink:href="#NotoNaskhArabic-Bold-1c1" transform="translate(864.703125 0)"/>
     <use xlink:href="#NotoNaskhArabic-Bold-145" transform="translate(886.40625 0)"/>
     <use xlink:href="#NotoNaskhArabic-Bold-8b" transform="translate(927.609375 0)"/>
     <use xlink:href="#NotoNaskhArabic-Bold-110" transform="translate(993.3125 0)"/>
    </g>
   </g>
  </g>
 </g>
 <defs>
  <clipPath id="p5f0a0a05e7">
   <rect x="51.882359" y="10.931615" width="569.267641" height="281.9977"/>
  </clipPath>
 </defs>
</svg>
