<?xml version="1.0" encoding="utf-8" standalone="no"?>
<!DOCTYPE svg PUBLIC "-//W3C//DTD SVG 1.1//EN"
  "http://www.w3.org/Graphics/SVG/1.1/DTD/svg11.dtd">
<svg xmlns:xlink="http://www.w3.org/1999/xlink" width="685.95pt" height="350.463pt" viewBox="0 0 685.95 350.463" xmlns="http://www.w3.org/2000/svg" version="1.1">
 <metadata>
  <rdf:RDF xmlns:dc="http://purl.org/dc/elements/1.1/" xmlns:cc="http://creativecommons.org/ns#" xmlns:rdf="http://www.w3.org/1999/02/22-rdf-syntax-ns#">
   <cc:Work>
    <dc:type rdf:resource="http://purl.org/dc/dcmitype/StillImage"/>
    <dc:date>2026-07-19T04:29:55.532195</dc:date>
    <dc:format>image/svg+xml</dc:format>
    <dc:creator>
     <cc:Agent>
      <dc:title>Matplotlib v3.11.1, https://matplotlib.org/</dc:title>
     </cc:Agent>
    </dc:creator>
   </cc:Work>
  </rdf:RDF>
 </metadata>
 <defs>
  <style type="text/css">*{stroke-linejoin: round; stroke-linecap: butt}</style>
 </defs>
 <g id="figure_1">
  <g id="patch_1">
   <path d="M 0 350.463 
L 685.95 350.463 
L 685.95 0 
L 0 0 
z
" style="fill: #ffffff"/>
  </g>
  <g id="axes_1">
   <g id="patch_2">
    <path d="M 32.218984 296.5 
L 495.093266 296.5 
L 495.093266 25.950409 
L 32.218984 25.950409 
z
" style="fill: #ffffff"/>
   </g>
   <g id="matplotlib.axis_1"/>
   <g id="matplotlib.axis_2">
    <g id="ytick_1">
     <g id="line2d_1">
      <defs>
       <path id="m0d8eedb82e" d="M 0 0 
L -3.5 0 
" style="stroke: #555555; stroke-width: 0.8"/>
      </defs>
      <g>
       <use xlink:href="#m0d8eedb82e" x="32.218984" y="270.669684" style="fill: #555555; stroke: #555555; stroke-width: 0.8"/>
      </g>
     </g>
     <g id="text_1">
      <text style="font-size: 10.5px; font-family: 'Noto Naskh Arabic', 'DejaVu Sans'; text-anchor: end; fill: #555555" x="25.218984" y="276.281934" transform="rotate(-0 25.218984 276.281934)">97</text>
     </g>
    </g>
    <g id="ytick_2">
     <g id="line2d_2">
      <g>
       <use xlink:href="#m0d8eedb82e" x="32.218984" y="236.22866" style="fill: #555555; stroke: #555555; stroke-width: 0.8"/>
      </g>
     </g>
     <g id="text_2">
      <text style="font-size: 10.5px; font-family: 'Noto Naskh Arabic', 'DejaVu Sans'; text-anchor: end; fill: #555555" x="25.218984" y="241.84091" transform="rotate(-0 25.218984 241.84091)">98</text>
     </g>
    </g>
    <g id="ytick_3">
     <g id="line2d_3">
      <g>
       <use xlink:href="#m0d8eedb82e" x="32.218984" y="201.787637" style="fill: #555555; stroke: #555555; stroke-width: 0.8"/>
      </g>
     </g>
     <g id="text_3">
      <text style="font-size: 10.5px; font-family: 'Noto Naskh Arabic', 'DejaVu Sans'; text-anchor: end; fill: #555555" x="25.218984" y="207.399887" transform="rotate(-0 25.218984 207.399887)">99</text>
     </g>
    </g>
    <g id="ytick_4">
     <g id="line2d_4">
      <g>
       <use xlink:href="#m0d8eedb82e" x="32.218984" y="167.346613" style="fill: #555555; stroke: #555555; stroke-width: 0.8"/>
      </g>
     </g>
     <g id="text_4">
      <text style="font-size: 10.5px; font-family: 'Noto Naskh Arabic', 'DejaVu Sans'; text-anchor: end; fill: #555555" x="25.218984" y="172.958863" transform="rotate(-0 25.218984 172.958863)">100</text>
     </g>
    </g>
    <g id="ytick_5">
     <g id="line2d_5">
      <g>
       <use xlink:href="#m0d8eedb82e" x="32.218984" y="132.90559" style="fill: #555555; stroke: #555555; stroke-width: 0.8"/>
      </g>
     </g>
     <g id="text_5">
      <text style="font-size: 10.5px; font-family: 'Noto Naskh Arabic', 'DejaVu Sans'; text-anchor: end; fill: #555555" x="25.218984" y="138.51784" transform="rotate(-0 25.218984 138.51784)">101</text>
     </g>
    </g>
    <g id="ytick_6">
     <g id="line2d_6">
      <g>
       <use xlink:href="#m0d8eedb82e" x="32.218984" y="98.464566" style="fill: #555555; stroke: #555555; stroke-width: 0.8"/>
      </g>
     </g>
     <g id="text_6">
      <text style="font-size: 10.5px; font-family: 'Noto Naskh Arabic', 'DejaVu Sans'; text-anchor: end; fill: #555555" x="25.218984" y="104.076816" transform="rotate(-0 25.218984 104.076816)">102</text>
     </g>
    </g>
    <g id="ytick_7">
     <g id="line2d_7">
      <g>
       <use xlink:href="#m0d8eedb82e" x="32.218984" y="64.023542" style="fill: #555555; stroke: #555555; stroke-width: 0.8"/>
      </g>
     </g>
     <g id="text_7">
      <text style="font-size: 10.5px; font-family: 'Noto Naskh Arabic', 'DejaVu Sans'; text-anchor: end; fill: #555555" x="25.218984" y="69.635792" transform="rotate(-0 25.218984 69.635792)">103</text>
     </g>
    </g>
    <g id="ytick_8">
     <g id="line2d_8">
      <g>
       <use xlink:href="#m0d8eedb82e" x="32.218984" y="29.582519" style="fill: #555555; stroke: #555555; stroke-width: 0.8"/>
      </g>
     </g>
     <g id="text_8">
      <text style="font-size: 10.5px; font-family: 'Noto Naskh Arabic', 'DejaVu Sans'; text-anchor: end; fill: #555555" x="25.218984" y="35.194769" transform="rotate(-0 25.218984 35.194769)">104</text>
     </g>
    </g>
   </g>
   <g id="patch_3">
    <path d="M 32.218984 296.5 
L 32.218984 25.950409 
" style="fill: none; stroke: #1f2937; stroke-width: 0.8; stroke-linejoin: miter; stroke-linecap: square"/>
   </g>
   <g id="patch_4">
    <path d="M 32.218984 296.5 
L 495.093266 296.5 
" style="fill: none; stroke: #1f2937; stroke-width: 0.8; stroke-linejoin: miter; stroke-linecap: square"/>
   </g>
   <g id="line2d_9">
    <path d="M 43.508601 141.722971 
L 43.508601 115.692812 
" clip-path="url(#peb47bd37bc)" style="fill: none; stroke: #b91c1c; stroke-width: 1.1; stroke-linecap: round"/>
   </g>
   <g id="line2d_10">
    <path d="M 54.798218 147.588568 
L 54.798218 141.671063 
" clip-path="url(#peb47bd37bc)" style="fill: none; stroke: #b91c1c; stroke-width: 1.1; stroke-linecap: round"/>
   </g>
   <g id="line2d_11">
    <path d="M 66.087834 160.698472 
L 66.087834 135.139306 
" clip-path="url(#peb47bd37bc)" style="fill: none; stroke: #1f8a56; stroke-width: 1.1; stroke-linecap: round"/>
   </g>
   <g id="line2d_12">
    <path d="M 77.377451 137.187278 
L 77.377451 106.99915 
" clip-path="url(#peb47bd37bc)" style="fill: none; stroke: #1f8a56; stroke-width: 1.1; stroke-linecap: round"/>
   </g>
   <g id="line2d_13">
    <path d="M 88.667068 116.856958 
L 88.667068 100.864153 
" clip-path="url(#peb47bd37bc)" style="fill: none; stroke: #1f8a56; stroke-width: 1.1; stroke-linecap: round"/>
   </g>
   <g id="line2d_14">
    <path d="M 99.956684 109.070937 
L 99.956684 95.348741 
" clip-path="url(#peb47bd37bc)" style="fill: none; stroke: #1f8a56; stroke-width: 1.1; stroke-linecap: round"/>
   </g>
   <g id="line2d_15">
    <path d="M 111.246301 104.939385 
L 111.246301 82.650059 
" clip-path="url(#peb47bd37bc)" style="fill: none; stroke: #1f8a56; stroke-width: 1.1; stroke-linecap: round"/>
   </g>
   <g id="line2d_16">
    <path d="M 122.535917 93.591883 
L 122.535917 67.887565 
" clip-path="url(#peb47bd37bc)" style="fill: none; stroke: #1f8a56; stroke-width: 1.1; stroke-linecap: round"/>
   </g>
   <g id="line2d_17">
    <path d="M 133.825534 71.793536 
L 133.825534 63.900014 
" clip-path="url(#peb47bd37bc)" style="fill: none; stroke: #1f8a56; stroke-width: 1.1; stroke-linecap: round"/>
   </g>
   <g id="line2d_18">
    <path d="M 145.115151 65.704571 
L 145.115151 45.501216 
" clip-path="url(#peb47bd37bc)" style="fill: none; stroke: #1f8a56; stroke-width: 1.1; stroke-linecap: round"/>
   </g>
   <g id="line2d_19">
    <path d="M 156.404767 79.146422 
L 156.404767 38.248118 
" clip-path="url(#peb47bd37bc)" style="fill: none; stroke: #b91c1c; stroke-width: 1.1; stroke-linecap: round"/>
   </g>
   <g id="line2d_20">
    <path d="M 167.694384 108.951072 
L 167.694384 64.990693 
" clip-path="url(#peb47bd37bc)" style="fill: none; stroke: #b91c1c; stroke-width: 1.1; stroke-linecap: round"/>
   </g>
   <g id="line2d_21">
    <path d="M 178.984001 111.264189 
L 178.984001 97.787305 
" clip-path="url(#peb47bd37bc)" style="fill: none; stroke: #1f8a56; stroke-width: 1.1; stroke-linecap: round"/>
   </g>
   <g id="line2d_22">
    <path d="M 190.273617 117.703205 
L 190.273617 97.004175 
" clip-path="url(#peb47bd37bc)" style="fill: none; stroke: #b91c1c; stroke-width: 1.1; stroke-linecap: round"/>
   </g>
   <g id="line2d_23">
    <path d="M 201.563234 129.148824 
L 201.563234 114.620409 
" clip-path="url(#peb47bd37bc)" style="fill: none; stroke: #1f8a56; stroke-width: 1.1; stroke-linecap: round"/>
   </g>
   <g id="line2d_24">
    <path d="M 212.85285 155.530998 
L 212.85285 111.307867 
" clip-path="url(#peb47bd37bc)" style="fill: none; stroke: #b91c1c; stroke-width: 1.1; stroke-linecap: round"/>
   </g>
   <g id="line2d_25">
    <path d="M 224.142467 180.750322 
L 224.142467 140.24322 
" clip-path="url(#peb47bd37bc)" style="fill: none; stroke: #b91c1c; stroke-width: 1.1; stroke-linecap: round"/>
   </g>
   <g id="line2d_26">
    <path d="M 235.432084 211.072113 
L 235.432084 175.021234 
" clip-path="url(#peb47bd37bc)" style="fill: none; stroke: #b91c1c; stroke-width: 1.1; stroke-linecap: round"/>
   </g>
   <g id="line2d_27">
    <path d="M 246.7217 211.575632 
L 246.7217 203.97681 
" clip-path="url(#peb47bd37bc)" style="fill: none; stroke: #b91c1c; stroke-width: 1.1; stroke-linecap: round"/>
   </g>
   <g id="line2d_28">
    <path d="M 258.011317 227.007533 
L 258.011317 205.484546 
" clip-path="url(#peb47bd37bc)" style="fill: none; stroke: #b91c1c; stroke-width: 1.1; stroke-linecap: round"/>
   </g>
   <g id="line2d_29">
    <path d="M 269.300934 241.010186 
L 269.300934 219.522471 
" clip-path="url(#peb47bd37bc)" style="fill: none; stroke: #b91c1c; stroke-width: 1.1; stroke-linecap: round"/>
   </g>
   <g id="line2d_30">
    <path d="M 280.59055 257.542857 
L 280.59055 230.327741 
" clip-path="url(#peb47bd37bc)" style="fill: none; stroke: #b91c1c; stroke-width: 1.1; stroke-linecap: round"/>
   </g>
   <g id="line2d_31">
    <path d="M 291.880167 255.272925 
L 291.880167 238.828483 
" clip-path="url(#peb47bd37bc)" style="fill: none; stroke: #1f8a56; stroke-width: 1.1; stroke-linecap: round"/>
   </g>
   <g id="line2d_32">
    <path d="M 303.169783 272.245826 
L 303.169783 240.450994 
" clip-path="url(#peb47bd37bc)" style="fill: none; stroke: #b91c1c; stroke-width: 1.1; stroke-linecap: round"/>
   </g>
   <g id="line2d_33">
    <path d="M 314.4594 284.202291 
L 314.4594 263.037078 
" clip-path="url(#peb47bd37bc)" style="fill: none; stroke: #1f8a56; stroke-width: 1.1; stroke-linecap: round"/>
   </g>
   <g id="line2d_34">
    <path d="M 325.749017 269.704638 
L 325.749017 252.915205 
" clip-path="url(#peb47bd37bc)" style="fill: none; stroke: #1f8a56; stroke-width: 1.1; stroke-linecap: round"/>
   </g>
   <g id="line2d_35">
    <path d="M 337.038633 259.08505 
L 337.038633 244.397786 
" clip-path="url(#peb47bd37bc)" style="fill: none; stroke: #b91c1c; stroke-width: 1.1; stroke-linecap: round"/>
   </g>
   <g id="line2d_36">
    <path d="M 348.32825 256.032548 
L 348.32825 249.864999 
" clip-path="url(#peb47bd37bc)" style="fill: none; stroke: #1f8a56; stroke-width: 1.1; stroke-linecap: round"/>
   </g>
   <g id="line2d_37">
    <path d="M 359.617867 255.176909 
L 359.617867 216.291322 
" clip-path="url(#peb47bd37bc)" style="fill: none; stroke: #1f8a56; stroke-width: 1.1; stroke-linecap: round"/>
   </g>
   <g id="line2d_38">
    <path d="M 370.907483 224.865232 
L 370.907483 210.821283 
" clip-path="url(#peb47bd37bc)" style="fill: none; stroke: #b91c1c; stroke-width: 1.1; stroke-linecap: round"/>
   </g>
   <g id="line2d_39">
    <path d="M 382.1971 221.278165 
L 382.1971 209.159298 
" clip-path="url(#peb47bd37bc)" style="fill: none; stroke: #1f8a56; stroke-width: 1.1; stroke-linecap: round"/>
   </g>
   <g id="line2d_40">
    <path d="M 393.486716 208.783252 
L 393.486716 166.22793 
" clip-path="url(#peb47bd37bc)" style="fill: none; stroke: #1f8a56; stroke-width: 1.1; stroke-linecap: round"/>
   </g>
   <g id="line2d_41">
    <path d="M 404.776333 170.387236 
L 404.776333 166.847887 
" clip-path="url(#peb47bd37bc)" style="fill: none; stroke: #1f8a56; stroke-width: 1.1; stroke-linecap: round"/>
   </g>
   <g id="line2d_42">
    <path d="M 416.06595 180.439634 
L 416.06595 111.654773 
" clip-path="url(#peb47bd37bc)" style="fill: none; stroke: #1f8a56; stroke-width: 1.1; stroke-linecap: round"/>
   </g>
   <g id="line2d_43">
    <path d="M 427.355566 122.628199 
L 427.355566 113.792014 
" clip-path="url(#peb47bd37bc)" style="fill: none; stroke: #b91c1c; stroke-width: 1.1; stroke-linecap: round"/>
   </g>
   <g id="line2d_44">
    <path d="M 438.645183 115.519928 
L 438.645183 85.492443 
" clip-path="url(#peb47bd37bc)" style="fill: none; stroke: #1f8a56; stroke-width: 1.1; stroke-linecap: round"/>
   </g>
   <g id="line2d_45">
    <path d="M 449.9348 93.530493 
L 449.9348 82.645374 
" clip-path="url(#peb47bd37bc)" style="fill: none; stroke: #b91c1c; stroke-width: 1.1; stroke-linecap: round"/>
   </g>
   <g id="line2d_46">
    <path d="M 461.224416 87.672234 
L 461.224416 57.917279 
" clip-path="url(#peb47bd37bc)" style="fill: none; stroke: #1f8a56; stroke-width: 1.1; stroke-linecap: round"/>
   </g>
   <g id="line2d_47">
    <path d="M 472.514033 83.037741 
L 472.514033 65.553022 
" clip-path="url(#peb47bd37bc)" style="fill: none; stroke: #b91c1c; stroke-width: 1.1; stroke-linecap: round"/>
   </g>
   <g id="line2d_48">
    <path d="M 483.803649 82.245413 
L 483.803649 70.258079 
" clip-path="url(#peb47bd37bc)" style="fill: none; stroke: #1f8a56; stroke-width: 1.1; stroke-linecap: round"/>
   </g>
   <g id="patch_5">
    <path d="M 40.403956 139.023384 
L 46.613246 139.023384 
L 46.613246 123.816888 
L 40.403956 123.816888 
z
" clip-path="url(#peb47bd37bc)" style="fill: #b91c1c; stroke: #b91c1c; stroke-linejoin: miter"/>
   </g>
   <g id="patch_6">
    <path d="M 51.693573 144.336006 
L 57.902862 144.336006 
L 57.902862 136.95738 
L 51.693573 136.95738 
z
" clip-path="url(#peb47bd37bc)" style="fill: #b91c1c; stroke: #b91c1c; stroke-linejoin: miter"/>
   </g>
   <g id="patch_7">
    <path d="M 62.98319 148.856451 
L 69.192479 148.856451 
L 69.192479 137.855258 
L 62.98319 137.855258 
z
" clip-path="url(#peb47bd37bc)" style="fill: #1f8a56; stroke: #1f8a56; stroke-linejoin: miter"/>
   </g>
   <g id="patch_8">
    <path d="M 74.272806 134.680595 
L 80.482095 134.680595 
L 80.482095 111.579361 
L 74.272806 111.579361 
z
" clip-path="url(#peb47bd37bc)" style="fill: #1f8a56; stroke: #1f8a56; stroke-linejoin: miter"/>
   </g>
   <g id="patch_9">
    <path d="M 85.562423 112.408444 
L 91.771712 112.408444 
L 91.771712 104.271208 
L 85.562423 104.271208 
z
" clip-path="url(#peb47bd37bc)" style="fill: #1f8a56; stroke: #1f8a56; stroke-linejoin: miter"/>
   </g>
   <g id="patch_10">
    <path d="M 96.85204 106.316045 
L 103.061329 106.316045 
L 103.061329 98.937418 
L 96.85204 98.937418 
z
" clip-path="url(#peb47bd37bc)" style="fill: #1f8a56; stroke: #1f8a56; stroke-linejoin: miter"/>
   </g>
   <g id="patch_11">
    <path d="M 108.141656 98.243673 
L 114.350945 98.243673 
L 114.350945 83.464774 
L 108.141656 83.464774 
z
" clip-path="url(#peb47bd37bc)" style="fill: #1f8a56; stroke: #1f8a56; stroke-linejoin: miter"/>
   </g>
   <g id="patch_12">
    <path d="M 119.431273 85.220073 
L 125.640562 85.220073 
L 125.640562 68.700363 
L 119.431273 68.700363 
z
" clip-path="url(#peb47bd37bc)" style="fill: #1f8a56; stroke: #1f8a56; stroke-linejoin: miter"/>
   </g>
   <g id="patch_13">
    <path d="M 130.720889 68.983578 
L 136.930179 68.983578 
L 136.930179 61.604952 
L 130.720889 61.604952 
z
" clip-path="url(#peb47bd37bc)" style="fill: #1f8a56; stroke: #1f8a56; stroke-linejoin: miter"/>
   </g>
   <g id="patch_14">
    <path d="M 142.010506 62.807824 
L 148.219795 62.807824 
L 148.219795 47.778741 
L 142.010506 47.778741 
z
" clip-path="url(#peb47bd37bc)" style="fill: #1f8a56; stroke: #1f8a56; stroke-linejoin: miter"/>
   </g>
   <g id="patch_15">
    <path d="M 153.300123 77.715175 
L 159.509412 77.715175 
L 159.509412 42.032034 
L 153.300123 42.032034 
z
" clip-path="url(#peb47bd37bc)" style="fill: #b91c1c; stroke: #b91c1c; stroke-linejoin: miter"/>
   </g>
   <g id="patch_16">
    <path d="M 164.589739 100.564644 
L 170.799028 100.564644 
L 170.799028 74.304079 
L 164.589739 74.304079 
z
" clip-path="url(#peb47bd37bc)" style="fill: #b91c1c; stroke: #b91c1c; stroke-linejoin: miter"/>
   </g>
   <g id="patch_17">
    <path d="M 175.879356 106.820865 
L 182.088645 106.820865 
L 182.088645 99.442239 
L 175.879356 99.442239 
z
" clip-path="url(#peb47bd37bc)" style="fill: #1f8a56; stroke: #1f8a56; stroke-linejoin: miter"/>
   </g>
   <g id="patch_18">
    <path d="M 187.168973 117.69405 
L 193.378262 117.69405 
L 193.378262 97.716566 
L 187.168973 97.716566 
z
" clip-path="url(#peb47bd37bc)" style="fill: #b91c1c; stroke: #b91c1c; stroke-linejoin: miter"/>
   </g>
   <g id="patch_19">
    <path d="M 198.458589 123.540448 
L 204.667878 123.540448 
L 204.667878 115.109854 
L 198.458589 115.109854 
z
" clip-path="url(#peb47bd37bc)" style="fill: #1f8a56; stroke: #1f8a56; stroke-linejoin: miter"/>
   </g>
   <g id="patch_20">
    <path d="M 209.748206 148.367017 
L 215.957495 148.367017 
L 215.957495 116.020771 
L 209.748206 116.020771 
z
" clip-path="url(#peb47bd37bc)" style="fill: #b91c1c; stroke: #b91c1c; stroke-linejoin: miter"/>
   </g>
   <g id="patch_21">
    <path d="M 221.037822 180.489967 
L 227.247112 180.489967 
L 227.247112 143.786884 
L 221.037822 143.786884 
z
" clip-path="url(#peb47bd37bc)" style="fill: #b91c1c; stroke: #b91c1c; stroke-linejoin: miter"/>
   </g>
   <g id="patch_22">
    <path d="M 232.327439 204.945817 
L 238.536728 204.945817 
L 238.536728 176.221599 
L 232.327439 176.221599 
z
" clip-path="url(#peb47bd37bc)" style="fill: #b91c1c; stroke: #b91c1c; stroke-linejoin: miter"/>
   </g>
   <g id="patch_23">
    <path d="M 243.617056 209.665103 
L 249.826345 209.665103 
L 249.826345 202.286477 
L 243.617056 202.286477 
z
" clip-path="url(#peb47bd37bc)" style="fill: #b91c1c; stroke: #b91c1c; stroke-linejoin: miter"/>
   </g>
   <g id="patch_24">
    <path d="M 254.906672 225.796453 
L 261.115961 225.796453 
L 261.115961 209.778243 
L 254.906672 209.778243 
z
" clip-path="url(#peb47bd37bc)" style="fill: #b91c1c; stroke: #b91c1c; stroke-linejoin: miter"/>
   </g>
   <g id="patch_25">
    <path d="M 266.196289 235.666981 
L 272.405578 235.666981 
L 272.405578 221.39701 
L 266.196289 221.39701 
z
" clip-path="url(#peb47bd37bc)" style="fill: #b91c1c; stroke: #b91c1c; stroke-linejoin: miter"/>
   </g>
   <g id="patch_26">
    <path d="M 277.485906 256.454916 
L 283.695195 256.454916 
L 283.695195 230.34989 
L 277.485906 230.34989 
z
" clip-path="url(#peb47bd37bc)" style="fill: #b91c1c; stroke: #b91c1c; stroke-linejoin: miter"/>
   </g>
   <g id="patch_27">
    <path d="M 288.775522 254.650534 
L 294.984811 254.650534 
L 294.984811 240.827021 
L 288.775522 240.827021 
z
" clip-path="url(#peb47bd37bc)" style="fill: #1f8a56; stroke: #1f8a56; stroke-linejoin: miter"/>
   </g>
   <g id="patch_28">
    <path d="M 300.065139 267.981602 
L 306.274428 267.981602 
L 306.274428 243.1154 
L 300.065139 243.1154 
z
" clip-path="url(#peb47bd37bc)" style="fill: #b91c1c; stroke: #b91c1c; stroke-linejoin: miter"/>
   </g>
   <g id="patch_29">
    <path d="M 311.354755 275.760629 
L 317.564045 275.760629 
L 317.564045 264.052149 
L 311.354755 264.052149 
z
" clip-path="url(#peb47bd37bc)" style="fill: #1f8a56; stroke: #1f8a56; stroke-linejoin: miter"/>
   </g>
   <g id="patch_30">
    <path d="M 322.644372 263.190142 
L 328.853661 263.190142 
L 328.853661 255.811515 
L 322.644372 255.811515 
z
" clip-path="url(#peb47bd37bc)" style="fill: #1f8a56; stroke: #1f8a56; stroke-linejoin: miter"/>
   </g>
   <g id="patch_31">
    <path d="M 333.933989 254.998362 
L 340.143278 254.998362 
L 340.143278 247.619736 
L 333.933989 247.619736 
z
" clip-path="url(#peb47bd37bc)" style="fill: #b91c1c; stroke: #b91c1c; stroke-linejoin: miter"/>
   </g>
   <g id="patch_32">
    <path d="M 345.223605 255.612616 
L 351.432894 255.612616 
L 351.432894 248.233989 
L 345.223605 248.233989 
z
" clip-path="url(#peb47bd37bc)" style="fill: #1f8a56; stroke: #1f8a56; stroke-linejoin: miter"/>
   </g>
   <g id="patch_33">
    <path d="M 356.513222 251.231686 
L 362.722511 251.231686 
L 362.722511 220.577639 
L 356.513222 220.577639 
z
" clip-path="url(#peb47bd37bc)" style="fill: #1f8a56; stroke: #1f8a56; stroke-linejoin: miter"/>
   </g>
   <g id="patch_34">
    <path d="M 367.802839 218.555492 
L 374.012128 218.555492 
L 374.012128 211.176866 
L 367.802839 211.176866 
z
" clip-path="url(#peb47bd37bc)" style="fill: #b91c1c; stroke: #b91c1c; stroke-linejoin: miter"/>
   </g>
   <g id="patch_35">
    <path d="M 379.092455 218.867119 
L 385.301744 218.867119 
L 385.301744 211.488493 
L 379.092455 211.488493 
z
" clip-path="url(#peb47bd37bc)" style="fill: #1f8a56; stroke: #1f8a56; stroke-linejoin: miter"/>
   </g>
   <g id="patch_36">
    <path d="M 390.382072 207.91918 
L 396.591361 207.91918 
L 396.591361 168.49005 
L 390.382072 168.49005 
z
" clip-path="url(#peb47bd37bc)" style="fill: #1f8a56; stroke: #1f8a56; stroke-linejoin: miter"/>
   </g>
   <g id="patch_37">
    <path d="M 401.671688 169.116755 
L 407.880978 169.116755 
L 407.880978 161.738128 
L 401.671688 161.738128 
z
" clip-path="url(#peb47bd37bc)" style="fill: #1f8a56; stroke: #1f8a56; stroke-linejoin: miter"/>
   </g>
   <g id="patch_38">
    <path d="M 412.961305 172.18869 
L 419.170594 172.18869 
L 419.170594 114.241045 
L 412.961305 114.241045 
z
" clip-path="url(#peb47bd37bc)" style="fill: #1f8a56; stroke: #1f8a56; stroke-linejoin: miter"/>
   </g>
   <g id="patch_39">
    <path d="M 424.250922 121.612164 
L 430.460211 121.612164 
L 430.460211 114.233538 
L 424.250922 114.233538 
z
" clip-path="url(#peb47bd37bc)" style="fill: #b91c1c; stroke: #b91c1c; stroke-linejoin: miter"/>
   </g>
   <g id="patch_40">
    <path d="M 435.540538 115.414192 
L 441.749827 115.414192 
L 441.749827 92.187269 
L 435.540538 92.187269 
z
" clip-path="url(#peb47bd37bc)" style="fill: #1f8a56; stroke: #1f8a56; stroke-linejoin: miter"/>
   </g>
   <g id="patch_41">
    <path d="M 446.830155 89.441315 
L 453.039444 89.441315 
L 453.039444 82.062688 
L 446.830155 82.062688 
z
" clip-path="url(#peb47bd37bc)" style="fill: #b91c1c; stroke: #b91c1c; stroke-linejoin: miter"/>
   </g>
   <g id="patch_42">
    <path d="M 458.119772 82.797992 
L 464.329061 82.797992 
L 464.329061 66.751805 
L 458.119772 66.751805 
z
" clip-path="url(#peb47bd37bc)" style="fill: #1f8a56; stroke: #1f8a56; stroke-linejoin: miter"/>
   </g>
   <g id="patch_43">
    <path d="M 469.409388 78.024132 
L 475.618677 78.024132 
L 475.618677 68.873613 
L 469.409388 68.873613 
z
" clip-path="url(#peb47bd37bc)" style="fill: #b91c1c; stroke: #b91c1c; stroke-linejoin: miter"/>
   </g>
   <g id="patch_44">
    <path d="M 480.699005 81.734577 
L 486.908294 81.734577 
L 486.908294 74.355951 
L 480.699005 74.355951 
z
" clip-path="url(#peb47bd37bc)" style="fill: #1f8a56; stroke: #1f8a56; stroke-linejoin: miter"/>
   </g>
  </g>
  <g id="axes_2">
   <g id="patch_45">
    <path d="M 500.72143 296.5 
L 678.75 296.5 
L 678.75 25.950409 
L 500.72143 25.950409 
z
" style="fill: #ffffff"/>
   </g>
   <g id="patch_46">
    <path d="M 500.72143 290.027522 
L 507.059903 290.027522 
L 507.059903 278.377061 
L 500.72143 278.377061 
z
" clip-path="url(#pa6b90d91ec)" style="fill: #e0a94a; stroke: #b7791f; stroke-linejoin: miter"/>
   </g>
   <g id="patch_47">
    <path d="M 500.72143 277.082565 
L 505.595136 277.082565 
L 505.595136 265.432104 
L 500.72143 265.432104 
z
" clip-path="url(#pa6b90d91ec)" style="fill: #e0a94a; stroke: #b7791f; stroke-linejoin: miter"/>
   </g>
   <g id="patch_48">
    <path d="M 500.72143 264.137609 
L 512.543747 264.137609 
L 512.543747 252.487148 
L 500.72143 252.487148 
z
" clip-path="url(#pa6b90d91ec)" style="fill: #e0a94a; stroke: #b7791f; stroke-linejoin: miter"/>
   </g>
   <g id="patch_49">
    <path d="M 500.72143 251.192652 
L 504.505615 251.192652 
L 504.505615 239.542191 
L 500.72143 239.542191 
z
" clip-path="url(#pa6b90d91ec)" style="fill: #e0a94a; stroke: #b7791f; stroke-linejoin: miter"/>
   </g>
   <g id="patch_50">
    <path d="M 500.72143 238.247696 
L 505.757575 238.247696 
L 505.757575 226.597235 
L 500.72143 226.597235 
z
" clip-path="url(#pa6b90d91ec)" style="fill: #e0a94a; stroke: #b7791f; stroke-linejoin: miter"/>
   </g>
   <g id="patch_51">
    <path d="M 500.72143 225.302739 
L 504.827829 225.302739 
L 504.827829 213.652278 
L 500.72143 213.652278 
z
" clip-path="url(#pa6b90d91ec)" style="fill: #e0a94a; stroke: #b7791f; stroke-linejoin: miter"/>
   </g>
   <g id="patch_52">
    <path d="M 500.72143 212.357783 
L 514.209551 212.357783 
L 514.209551 200.707322 
L 500.72143 200.707322 
z
" clip-path="url(#pa6b90d91ec)" style="fill: #e0a94a; stroke: #b7791f; stroke-linejoin: miter"/>
   </g>
   <g id="patch_53">
    <path d="M 500.72143 199.412826 
L 527.70025 199.412826 
L 527.70025 187.762365 
L 500.72143 187.762365 
z
" clip-path="url(#pa6b90d91ec)" style="fill: #e0a94a; stroke: #b7791f; stroke-linejoin: miter"/>
   </g>
   <g id="patch_54">
    <path d="M 500.72143 186.46787 
L 549.78442 186.46787 
L 549.78442 174.817409 
L 500.72143 174.817409 
z
" clip-path="url(#pa6b90d91ec)" style="fill: #e0a94a; stroke: #b7791f; stroke-linejoin: miter"/>
   </g>
   <g id="patch_55">
    <path d="M 500.72143 173.522913 
L 600.509817 173.522913 
L 600.509817 161.872452 
L 500.72143 161.872452 
z
" clip-path="url(#pa6b90d91ec)" style="fill: #e0a94a; stroke: #b7791f; stroke-linejoin: miter"/>
   </g>
   <g id="patch_56">
    <path d="M 500.72143 160.577957 
L 640.045343 160.577957 
L 640.045343 148.927496 
L 500.72143 148.927496 
z
" clip-path="url(#pa6b90d91ec)" style="fill: #e0a94a; stroke: #b7791f; stroke-linejoin: miter"/>
   </g>
   <g id="patch_57">
    <path d="M 500.72143 147.633 
L 670.272449 147.633 
L 670.272449 135.98254 
L 500.72143 135.98254 
z
" clip-path="url(#pa6b90d91ec)" style="fill: #e0a94a; stroke: #b7791f; stroke-linejoin: miter"/>
   </g>
   <g id="patch_58">
    <path d="M 500.72143 134.688044 
L 661.839926 134.688044 
L 661.839926 123.037583 
L 500.72143 123.037583 
z
" clip-path="url(#pa6b90d91ec)" style="fill: #e0a94a; stroke: #b7791f; stroke-linejoin: miter"/>
   </g>
   <g id="patch_59">
    <path d="M 500.72143 121.743087 
L 626.612973 121.743087 
L 626.612973 110.092627 
L 500.72143 110.092627 
z
" clip-path="url(#pa6b90d91ec)" style="fill: #e0a94a; stroke: #b7791f; stroke-linejoin: miter"/>
   </g>
   <g id="patch_60">
    <path d="M 500.72143 108.798131 
L 580.14743 108.798131 
L 580.14743 97.14767 
L 500.72143 97.14767 
z
" clip-path="url(#pa6b90d91ec)" style="fill: #e0a94a; stroke: #b7791f; stroke-linejoin: miter"/>
   </g>
   <g id="patch_61">
    <path d="M 500.72143 95.853174 
L 534.138312 95.853174 
L 534.138312 84.202714 
L 500.72143 84.202714 
z
" clip-path="url(#pa6b90d91ec)" style="fill: #e0a94a; stroke: #b7791f; stroke-linejoin: miter"/>
   </g>
   <g id="patch_62">
    <path d="M 500.72143 82.908218 
L 515.450895 82.908218 
L 515.450895 71.257757 
L 500.72143 71.257757 
z
" clip-path="url(#pa6b90d91ec)" style="fill: #e0a94a; stroke: #b7791f; stroke-linejoin: miter"/>
   </g>
   <g id="patch_63">
    <path d="M 500.72143 69.963261 
L 514.347897 69.963261 
L 514.347897 58.312801 
L 500.72143 58.312801 
z
" clip-path="url(#pa6b90d91ec)" style="fill: #e0a94a; stroke: #b7791f; stroke-linejoin: miter"/>
   </g>
   <g id="patch_64">
    <path d="M 500.72143 57.018305 
L 507.767748 57.018305 
L 507.767748 45.367844 
L 500.72143 45.367844 
z
" clip-path="url(#pa6b90d91ec)" style="fill: #e0a94a; stroke: #b7791f; stroke-linejoin: miter"/>
   </g>
   <g id="patch_65">
    <path d="M 500.72143 44.073348 
L 508.910729 44.073348 
L 508.910729 32.422888 
L 500.72143 32.422888 
z
" clip-path="url(#pa6b90d91ec)" style="fill: #e0a94a; stroke: #b7791f; stroke-linejoin: miter"/>
   </g>
   <g id="patch_66">
    <path d="M 500.72143 210.416039 
L 678.75 210.416039 
L 678.75 112.03437 
L 500.72143 112.03437 
z
" clip-path="url(#pa6b90d91ec)" style="fill: #1f8a56; opacity: 0.12; stroke: #1f8a56; stroke-linejoin: miter"/>
   </g>
   <g id="matplotlib.axis_3">
    <g id="xtick_1">
     <g id="line2d_49">
      <defs>
       <path id="mfcd99ac529" d="M 0 0 
L 0 3.5 
" style="stroke: #555555; stroke-width: 0.8"/>
      </defs>
      <g>
       <use xlink:href="#mfcd99ac529" x="500.72143" y="296.5" style="fill: #555555; stroke: #555555; stroke-width: 0.8"/>
      </g>
     </g>
     <g id="text_9">
      <text style="font-size: 10.5px; font-family: 'Noto Naskh Arabic', 'DejaVu Sans'; text-anchor: middle; fill: #555555" x="500.72143" y="314.7245" transform="rotate(-0 500.72143 314.7245)">0</text>
     </g>
    </g>
    <g id="xtick_2">
     <g id="line2d_50">
      <g>
       <use xlink:href="#mfcd99ac529" x="542.065165" y="296.5" style="fill: #555555; stroke: #555555; stroke-width: 0.8"/>
      </g>
     </g>
     <g id="text_10">
      <text style="font-size: 10.5px; font-family: 'Noto Naskh Arabic', 'DejaVu Sans'; text-anchor: middle; fill: #555555" x="542.065165" y="314.7245" transform="rotate(-0 542.065165 314.7245)">10</text>
     </g>
    </g>
    <g id="xtick_3">
     <g id="line2d_51">
      <g>
       <use xlink:href="#mfcd99ac529" x="583.4089" y="296.5" style="fill: #555555; stroke: #555555; stroke-width: 0.8"/>
      </g>
     </g>
     <g id="text_11">
      <text style="font-size: 10.5px; font-family: 'Noto Naskh Arabic', 'DejaVu Sans'; text-anchor: middle; fill: #555555" x="583.4089" y="314.7245" transform="rotate(-0 583.4089 314.7245)">20</text>
     </g>
    </g>
    <g id="xtick_4">
     <g id="line2d_52">
      <g>
       <use xlink:href="#mfcd99ac529" x="624.752636" y="296.5" style="fill: #555555; stroke: #555555; stroke-width: 0.8"/>
      </g>
     </g>
     <g id="text_12">
      <text style="font-size: 10.5px; font-family: 'Noto Naskh Arabic', 'DejaVu Sans'; text-anchor: middle; fill: #555555" x="624.752636" y="314.7245" transform="rotate(-0 624.752636 314.7245)">30</text>
     </g>
    </g>
    <g id="xtick_5">
     <g id="line2d_53">
      <g>
       <use xlink:href="#mfcd99ac529" x="666.096371" y="296.5" style="fill: #555555; stroke: #555555; stroke-width: 0.8"/>
      </g>
     </g>
     <g id="text_13">
      <text style="font-size: 10.5px; font-family: 'Noto Naskh Arabic', 'DejaVu Sans'; text-anchor: middle; fill: #555555" x="666.096371" y="314.7245" transform="rotate(-0 666.096371 314.7245)">40</text>
     </g>
    </g>
    <g id="text_14">
     <text style="font-size: 10.5px; font-family: 'Noto Naskh Arabic', 'DejaVu Sans'; text-anchor: middle; fill: #1f2937" x="589.735715" y="336.606" transform="rotate(-0 589.735715 336.606)">​ﻯﻮﺘﺴﻣ ﻞﻛ ﺪﻨﻋ ﻢﺠﺣ</text>
    </g>
   </g>
   <g id="matplotlib.axis_4"/>
   <g id="patch_67">
    <path d="M 500.72143 296.5 
L 500.72143 25.950409 
" style="fill: none; stroke: #1f2937; stroke-width: 0.8; stroke-linejoin: miter; stroke-linecap: square"/>
   </g>
   <g id="patch_68">
    <path d="M 500.72143 296.5 
L 678.75 296.5 
" style="fill: none; stroke: #1f2937; stroke-width: 0.8; stroke-linejoin: miter; stroke-linecap: square"/>
   </g>
   <g id="text_15">
    <text style="font-weight: 700; font-size: 8.5px; font-family: 'Noto Naskh Arabic', 'DejaVu Sans'; fill: #1f8a56" transform="translate(565.079674 155.836205)">​ﺔﻤﻴﻘﻟﺍ ﺔﻘﻄﻨﻣ</text>
    <text style="font-weight: 700; font-size: 8.5px; font-family: 'Noto Naskh Arabic', 'DejaVu Sans'; fill: #1f8a56" transform="translate(556.247643 170.311705)">(Value Area)</text>
   </g>
  </g>
  <g id="text_16">
   <text style="font-weight: 700; font-size: 10.5px; font-family: 'Noto Naskh Arabic', 'DejaVu Sans'; text-anchor: middle; fill: #1f2937" x="342.975" y="18.4245" transform="rotate(-0 342.975 18.4245)">​ﺔﻳﺮﻌﺴﻟﺍ ﺕﺎﻳﻮﺘﺴﻤﻟﺍ ﺮﺒﻋ ﻢﺠﺤﻟﺍ ﻊﻳﺯﻮﺗ :(Market Profile) ﻕﻮﺴﻟﺍ ﻞﻳﺎﻓﻭﺮﺑ</text>
  </g>
 </g>
 <defs>
  <clipPath id="peb47bd37bc">
   <rect x="32.218984" y="25.950409" width="462.874282" height="270.549591"/>
  </clipPath>
  <clipPath id="pa6b90d91ec">
   <rect x="500.72143" y="25.950409" width="178.02857" height="270.549591"/>
  </clipPath>
 </defs>
</svg>
