<?xml version="1.0" encoding="utf-8" standalone="no"?>
<!DOCTYPE svg PUBLIC "-//W3C//DTD SVG 1.1//EN"
  "http://www.w3.org/Graphics/SVG/1.1/DTD/svg11.dtd">
<svg xmlns:xlink="http://www.w3.org/1999/xlink" width="628.35pt" height="397.832708pt" viewBox="0 0 628.35 397.832708" xmlns="http://www.w3.org/2000/svg" version="1.1">
 <metadata>
  <rdf:RDF xmlns:dc="http://purl.org/dc/elements/1.1/" xmlns:cc="http://creativecommons.org/ns#" xmlns:rdf="http://www.w3.org/1999/02/22-rdf-syntax-ns#">
   <cc:Work>
    <dc:type rdf:resource="http://purl.org/dc/dcmitype/StillImage"/>
    <dc:date>2026-07-19T15:23:21.915076</dc:date>
    <dc:format>image/svg+xml</dc:format>
    <dc:creator>
     <cc:Agent>
      <dc:title>Matplotlib v3.11.1, https://matplotlib.org/</dc:title>
     </cc:Agent>
    </dc:creator>
   </cc:Work>
  </rdf:RDF>
 </metadata>
 <defs>
  <style type="text/css">*{stroke-linejoin: round; stroke-linecap: butt}</style>
 </defs>
 <g id="figure_1">
  <g id="patch_1">
   <path d="M 0 397.832708 
L 628.35 397.832708 
L 628.35 0 
L 0 0 
z
" style="fill: #ffffff"/>
  </g>
  <g id="axes_1">
   <g id="patch_2">
    <path d="M 54.100484 249.824803 
L 621.15 249.824803 
L 621.15 9.221991 
L 54.100484 9.221991 
z
" style="fill: #ffffff"/>
   </g>
   <g id="matplotlib.axis_1"/>
   <g id="matplotlib.axis_2">
    <g id="ytick_1">
     <g id="line2d_1">
      <path d="M 54.100484 224.739617 
L 621.15 224.739617 
" clip-path="url(#p942669fe55)" style="fill: none; stroke: #e6e1d6; stroke-width: 0.8; stroke-linecap: square"/>
     </g>
     <g id="line2d_2">
      <defs>
       <path id="ma1fec10e52" d="M 0 0 
L -3.5 0 
" style="stroke: #555555; stroke-width: 0.8"/>
      </defs>
      <g>
       <use xlink:href="#ma1fec10e52" x="54.100484" y="224.739617" style="fill: #555555; stroke: #555555; stroke-width: 0.8"/>
      </g>
     </g>
     <g id="text_1">
      <text style="font-size: 10.5px; font-family: 'Noto Naskh Arabic', 'DejaVu Sans'; text-anchor: end; fill: #555555" x="47.100484" y="230.351867" transform="rotate(-0 47.100484 230.351867)">97</text>
     </g>
    </g>
    <g id="ytick_2">
     <g id="line2d_3">
      <path d="M 54.100484 194.464279 
L 621.15 194.464279 
" clip-path="url(#p942669fe55)" style="fill: none; stroke: #e6e1d6; stroke-width: 0.8; stroke-linecap: square"/>
     </g>
     <g id="line2d_4">
      <g>
       <use xlink:href="#ma1fec10e52" x="54.100484" y="194.464279" style="fill: #555555; stroke: #555555; stroke-width: 0.8"/>
      </g>
     </g>
     <g id="text_2">
      <text style="font-size: 10.5px; font-family: 'Noto Naskh Arabic', 'DejaVu Sans'; text-anchor: end; fill: #555555" x="47.100484" y="200.076529" transform="rotate(-0 47.100484 200.076529)">98</text>
     </g>
    </g>
    <g id="ytick_3">
     <g id="line2d_5">
      <path d="M 54.100484 164.18894 
L 621.15 164.18894 
" clip-path="url(#p942669fe55)" style="fill: none; stroke: #e6e1d6; stroke-width: 0.8; stroke-linecap: square"/>
     </g>
     <g id="line2d_6">
      <g>
       <use xlink:href="#ma1fec10e52" x="54.100484" y="164.18894" style="fill: #555555; stroke: #555555; stroke-width: 0.8"/>
      </g>
     </g>
     <g id="text_3">
      <text style="font-size: 10.5px; font-family: 'Noto Naskh Arabic', 'DejaVu Sans'; text-anchor: end; fill: #555555" x="47.100484" y="169.80119" transform="rotate(-0 47.100484 169.80119)">99</text>
     </g>
    </g>
    <g id="ytick_4">
     <g id="line2d_7">
      <path d="M 54.100484 133.913602 
L 621.15 133.913602 
" clip-path="url(#p942669fe55)" style="fill: none; stroke: #e6e1d6; stroke-width: 0.8; stroke-linecap: square"/>
     </g>
     <g id="line2d_8">
      <g>
       <use xlink:href="#ma1fec10e52" x="54.100484" y="133.913602" style="fill: #555555; stroke: #555555; stroke-width: 0.8"/>
      </g>
     </g>
     <g id="text_4">
      <text style="font-size: 10.5px; font-family: 'Noto Naskh Arabic', 'DejaVu Sans'; text-anchor: end; fill: #555555" x="47.100484" y="139.525852" transform="rotate(-0 47.100484 139.525852)">100</text>
     </g>
    </g>
    <g id="ytick_5">
     <g id="line2d_9">
      <path d="M 54.100484 103.638264 
L 621.15 103.638264 
" clip-path="url(#p942669fe55)" style="fill: none; stroke: #e6e1d6; stroke-width: 0.8; stroke-linecap: square"/>
     </g>
     <g id="line2d_10">
      <g>
       <use xlink:href="#ma1fec10e52" x="54.100484" y="103.638264" style="fill: #555555; stroke: #555555; stroke-width: 0.8"/>
      </g>
     </g>
     <g id="text_5">
      <text style="font-size: 10.5px; font-family: 'Noto Naskh Arabic', 'DejaVu Sans'; text-anchor: end; fill: #555555" x="47.100484" y="109.250514" transform="rotate(-0 47.100484 109.250514)">101</text>
     </g>
    </g>
    <g id="ytick_6">
     <g id="line2d_11">
      <path d="M 54.100484 73.362926 
L 621.15 73.362926 
" clip-path="url(#p942669fe55)" style="fill: none; stroke: #e6e1d6; stroke-width: 0.8; stroke-linecap: square"/>
     </g>
     <g id="line2d_12">
      <g>
       <use xlink:href="#ma1fec10e52" x="54.100484" y="73.362926" style="fill: #555555; stroke: #555555; stroke-width: 0.8"/>
      </g>
     </g>
     <g id="text_6">
      <text style="font-size: 10.5px; font-family: 'Noto Naskh Arabic', 'DejaVu Sans'; text-anchor: end; fill: #555555" x="47.100484" y="78.975176" transform="rotate(-0 47.100484 78.975176)">102</text>
     </g>
    </g>
    <g id="ytick_7">
     <g id="line2d_13">
      <path d="M 54.100484 43.087588 
L 621.15 43.087588 
" clip-path="url(#p942669fe55)" style="fill: none; stroke: #e6e1d6; stroke-width: 0.8; stroke-linecap: square"/>
     </g>
     <g id="line2d_14">
      <g>
       <use xlink:href="#ma1fec10e52" x="54.100484" y="43.087588" style="fill: #555555; stroke: #555555; stroke-width: 0.8"/>
      </g>
     </g>
     <g id="text_7">
      <text style="font-size: 10.5px; font-family: 'Noto Naskh Arabic', 'DejaVu Sans'; text-anchor: end; fill: #555555" x="47.100484" y="48.699838" transform="rotate(-0 47.100484 48.699838)">103</text>
     </g>
    </g>
    <g id="ytick_8">
     <g id="line2d_15">
      <path d="M 54.100484 12.81225 
L 621.15 12.81225 
" clip-path="url(#p942669fe55)" style="fill: none; stroke: #e6e1d6; stroke-width: 0.8; stroke-linecap: square"/>
     </g>
     <g id="line2d_16">
      <g>
       <use xlink:href="#ma1fec10e52" x="54.100484" y="12.81225" style="fill: #555555; stroke: #555555; stroke-width: 0.8"/>
      </g>
     </g>
     <g id="text_8">
      <text style="font-size: 10.5px; font-family: 'Noto Naskh Arabic', 'DejaVu Sans'; text-anchor: end; fill: #555555" x="47.100484" y="18.4245" transform="rotate(-0 47.100484 18.4245)">104</text>
     </g>
    </g>
    <g id="text_9">
     <text style="font-size: 10.5px; font-family: 'Noto Naskh Arabic', 'DejaVu Sans'; text-anchor: middle; fill: #1f2937" x="18.4245" y="129.523397" transform="rotate(-90 18.4245 129.523397)">​ﺮﻌﺴﻟﺍ</text>
    </g>
   </g>
   <g id="patch_3">
    <path d="M 54.100484 249.824803 
L 54.100484 9.221991 
" style="fill: none; stroke: #1f2937; stroke-width: 0.8; stroke-linejoin: miter; stroke-linecap: square"/>
   </g>
   <g id="patch_4">
    <path d="M 54.100484 249.824803 
L 621.15 249.824803 
" style="fill: none; stroke: #1f2937; stroke-width: 0.8; stroke-linejoin: miter; stroke-linecap: square"/>
   </g>
   <g id="line2d_17">
    <path d="M 67.93096 128.266572 
L 67.93096 106.636182 
" clip-path="url(#p942669fe55)" style="fill: none; stroke: #b91c1c; stroke-width: 1.1; stroke-linecap: round"/>
   </g>
   <g id="line2d_18">
    <path d="M 81.761436 127.295525 
L 81.761436 107.040391 
" clip-path="url(#p942669fe55)" style="fill: none; stroke: #1f8a56; stroke-width: 1.1; stroke-linecap: round"/>
   </g>
   <g id="line2d_19">
    <path d="M 95.591912 110.832477 
L 95.591912 91.955184 
" clip-path="url(#p942669fe55)" style="fill: none; stroke: #1f8a56; stroke-width: 1.1; stroke-linecap: round"/>
   </g>
   <g id="line2d_20">
    <path d="M 109.422388 94.059275 
L 109.422388 52.474093 
" clip-path="url(#p942669fe55)" style="fill: none; stroke: #1f8a56; stroke-width: 1.1; stroke-linecap: round"/>
   </g>
   <g id="line2d_21">
    <path d="M 123.252864 62.999444 
L 123.252864 50.416514 
" clip-path="url(#p942669fe55)" style="fill: none; stroke: #b91c1c; stroke-width: 1.1; stroke-linecap: round"/>
   </g>
   <g id="line2d_22">
    <path d="M 137.08334 65.911471 
L 137.08334 50.933062 
" clip-path="url(#p942669fe55)" style="fill: none; stroke: #1f8a56; stroke-width: 1.1; stroke-linecap: round"/>
   </g>
   <g id="line2d_23">
    <path d="M 150.913816 58.66685 
L 150.913816 33.170558 
" clip-path="url(#p942669fe55)" style="fill: none; stroke: #1f8a56; stroke-width: 1.1; stroke-linecap: round"/>
   </g>
   <g id="line2d_24">
    <path d="M 164.744292 45.571719 
L 164.744292 31.65949 
" clip-path="url(#p942669fe55)" style="fill: none; stroke: #1f8a56; stroke-width: 1.1; stroke-linecap: round"/>
   </g>
   <g id="line2d_25">
    <path d="M 178.574768 46.193598 
L 178.574768 37.481183 
" clip-path="url(#p942669fe55)" style="fill: none; stroke: #b91c1c; stroke-width: 1.1; stroke-linecap: round"/>
   </g>
   <g id="line2d_26">
    <path d="M 192.405244 61.445207 
L 192.405244 48.765524 
" clip-path="url(#p942669fe55)" style="fill: none; stroke: #b91c1c; stroke-width: 1.1; stroke-linecap: round"/>
   </g>
   <g id="line2d_27">
    <path d="M 206.23572 76.689591 
L 206.23572 53.888605 
" clip-path="url(#p942669fe55)" style="fill: none; stroke: #b91c1c; stroke-width: 1.1; stroke-linecap: round"/>
   </g>
   <g id="line2d_28">
    <path d="M 220.066196 88.26607 
L 220.066196 79.813862 
" clip-path="url(#p942669fe55)" style="fill: none; stroke: #b91c1c; stroke-width: 1.1; stroke-linecap: round"/>
   </g>
   <g id="line2d_29">
    <path d="M 233.896672 118.573102 
L 233.896672 85.490725 
" clip-path="url(#p942669fe55)" style="fill: none; stroke: #b91c1c; stroke-width: 1.1; stroke-linecap: round"/>
   </g>
   <g id="line2d_30">
    <path d="M 247.727148 143.580494 
L 247.727148 113.644325 
" clip-path="url(#p942669fe55)" style="fill: none; stroke: #b91c1c; stroke-width: 1.1; stroke-linecap: round"/>
   </g>
   <g id="line2d_31">
    <path d="M 261.557624 179.91075 
L 261.557624 129.818563 
" clip-path="url(#p942669fe55)" style="fill: none; stroke: #b91c1c; stroke-width: 1.1; stroke-linecap: round"/>
   </g>
   <g id="line2d_32">
    <path d="M 275.3881 179.31389 
L 275.3881 174.456076 
" clip-path="url(#p942669fe55)" style="fill: none; stroke: #1f8a56; stroke-width: 1.1; stroke-linecap: round"/>
   </g>
   <g id="line2d_33">
    <path d="M 289.218576 209.785302 
L 289.218576 174.910761 
" clip-path="url(#p942669fe55)" style="fill: none; stroke: #b91c1c; stroke-width: 1.1; stroke-linecap: round"/>
   </g>
   <g id="line2d_34">
    <path d="M 303.049052 230.279709 
L 303.049052 206.535294 
" clip-path="url(#p942669fe55)" style="fill: none; stroke: #b91c1c; stroke-width: 1.1; stroke-linecap: round"/>
   </g>
   <g id="line2d_35">
    <path d="M 316.879528 234.904055 
L 316.879528 219.545707 
" clip-path="url(#p942669fe55)" style="fill: none; stroke: #b91c1c; stroke-width: 1.1; stroke-linecap: round"/>
   </g>
   <g id="line2d_36">
    <path d="M 330.710004 238.888311 
L 330.710004 224.680113 
" clip-path="url(#p942669fe55)" style="fill: none; stroke: #b91c1c; stroke-width: 1.1; stroke-linecap: round"/>
   </g>
   <g id="line2d_37">
    <path d="M 344.54048 238.78335 
L 344.54048 208.453089 
" clip-path="url(#p942669fe55)" style="fill: none; stroke: #1f8a56; stroke-width: 1.1; stroke-linecap: round"/>
   </g>
   <g id="line2d_38">
    <path d="M 358.370956 217.083126 
L 358.370956 209.550946 
" clip-path="url(#p942669fe55)" style="fill: none; stroke: #1f8a56; stroke-width: 1.1; stroke-linecap: round"/>
   </g>
   <g id="line2d_39">
    <path d="M 372.201432 214.192792 
L 372.201432 191.648858 
" clip-path="url(#p942669fe55)" style="fill: none; stroke: #1f8a56; stroke-width: 1.1; stroke-linecap: round"/>
   </g>
   <g id="line2d_40">
    <path d="M 386.031908 197.835383 
L 386.031908 189.023067 
" clip-path="url(#p942669fe55)" style="fill: none; stroke: #b91c1c; stroke-width: 1.1; stroke-linecap: round"/>
   </g>
   <g id="line2d_41">
    <path d="M 399.862384 208.48007 
L 399.862384 167.366708 
" clip-path="url(#p942669fe55)" style="fill: none; stroke: #1f8a56; stroke-width: 1.1; stroke-linecap: round"/>
   </g>
   <g id="line2d_42">
    <path d="M 413.69286 173.957842 
L 413.69286 134.792273 
" clip-path="url(#p942669fe55)" style="fill: none; stroke: #1f8a56; stroke-width: 1.1; stroke-linecap: round"/>
   </g>
   <g id="line2d_43">
    <path d="M 427.523336 149.505206 
L 427.523336 109.315686 
" clip-path="url(#p942669fe55)" style="fill: none; stroke: #1f8a56; stroke-width: 1.1; stroke-linecap: round"/>
   </g>
   <g id="line2d_44">
    <path d="M 441.353812 115.428208 
L 441.353812 100.262645 
" clip-path="url(#p942669fe55)" style="fill: none; stroke: #1f8a56; stroke-width: 1.1; stroke-linecap: round"/>
   </g>
   <g id="line2d_45">
    <path d="M 455.184288 114.129674 
L 455.184288 75.090548 
" clip-path="url(#p942669fe55)" style="fill: none; stroke: #1f8a56; stroke-width: 1.1; stroke-linecap: round"/>
   </g>
   <g id="line2d_46">
    <path d="M 469.014764 83.944341 
L 469.014764 41.394785 
" clip-path="url(#p942669fe55)" style="fill: none; stroke: #1f8a56; stroke-width: 1.1; stroke-linecap: round"/>
   </g>
   <g id="line2d_47">
    <path d="M 482.84524 52.780937 
L 482.84524 47.147968 
" clip-path="url(#p942669fe55)" style="fill: none; stroke: #b91c1c; stroke-width: 1.1; stroke-linecap: round"/>
   </g>
   <g id="line2d_48">
    <path d="M 496.675716 58.271479 
L 496.675716 51.622075 
" clip-path="url(#p942669fe55)" style="fill: none; stroke: #1f8a56; stroke-width: 1.1; stroke-linecap: round"/>
   </g>
   <g id="line2d_49">
    <path d="M 510.506192 52.168261 
L 510.506192 25.934803 
" clip-path="url(#p942669fe55)" style="fill: none; stroke: #1f8a56; stroke-width: 1.1; stroke-linecap: round"/>
   </g>
   <g id="line2d_50">
    <path d="M 524.336668 51.424805 
L 524.336668 20.158483 
" clip-path="url(#p942669fe55)" style="fill: none; stroke: #b91c1c; stroke-width: 1.1; stroke-linecap: round"/>
   </g>
   <g id="line2d_51">
    <path d="M 538.167144 62.926401 
L 538.167144 43.53473 
" clip-path="url(#p942669fe55)" style="fill: none; stroke: #b91c1c; stroke-width: 1.1; stroke-linecap: round"/>
   </g>
   <g id="line2d_52">
    <path d="M 551.99762 80.231281 
L 551.99762 60.775412 
" clip-path="url(#p942669fe55)" style="fill: none; stroke: #b91c1c; stroke-width: 1.1; stroke-linecap: round"/>
   </g>
   <g id="line2d_53">
    <path d="M 565.828096 97.507902 
L 565.828096 77.671566 
" clip-path="url(#p942669fe55)" style="fill: none; stroke: #b91c1c; stroke-width: 1.1; stroke-linecap: round"/>
   </g>
   <g id="line2d_54">
    <path d="M 579.658572 122.559533 
L 579.658572 94.65379 
" clip-path="url(#p942669fe55)" style="fill: none; stroke: #b91c1c; stroke-width: 1.1; stroke-linecap: round"/>
   </g>
   <g id="line2d_55">
    <path d="M 593.489048 165.767751 
L 593.489048 115.51665 
" clip-path="url(#p942669fe55)" style="fill: none; stroke: #b91c1c; stroke-width: 1.1; stroke-linecap: round"/>
   </g>
   <g id="line2d_56">
    <path d="M 607.319524 164.053744 
L 607.319524 155.047727 
" clip-path="url(#p942669fe55)" style="fill: none; stroke: #1f8a56; stroke-width: 1.1; stroke-linecap: round"/>
   </g>
   <g id="patch_5">
    <path d="M 64.127579 123.932462 
L 71.734341 123.932462 
L 71.734341 107.225834 
L 64.127579 107.225834 
z
" clip-path="url(#p942669fe55)" style="fill: #b91c1c; stroke: #b91c1c; stroke-linejoin: miter"/>
   </g>
   <g id="patch_6">
    <path d="M 77.958055 117.728001 
L 85.564817 117.728001 
L 85.564817 107.393755 
L 77.958055 107.393755 
z
" clip-path="url(#p942669fe55)" style="fill: #1f8a56; stroke: #1f8a56; stroke-linejoin: miter"/>
   </g>
   <g id="patch_7">
    <path d="M 91.788531 109.74943 
L 99.395293 109.74943 
L 99.395293 92.204476 
L 91.788531 92.204476 
z
" clip-path="url(#p942669fe55)" style="fill: #1f8a56; stroke: #1f8a56; stroke-linejoin: miter"/>
   </g>
   <g id="patch_8">
    <path d="M 105.619007 92.838603 
L 113.225769 92.838603 
L 113.225769 54.357411 
L 105.619007 54.357411 
z
" clip-path="url(#p942669fe55)" style="fill: #1f8a56; stroke: #1f8a56; stroke-linejoin: miter"/>
   </g>
   <g id="patch_9">
    <path d="M 119.449483 62.116018 
L 127.056245 62.116018 
L 127.056245 55.554122 
L 119.449483 55.554122 
z
" clip-path="url(#p942669fe55)" style="fill: #b91c1c; stroke: #b91c1c; stroke-linejoin: miter"/>
   </g>
   <g id="patch_10">
    <path d="M 133.279959 65.502413 
L 140.886721 65.502413 
L 140.886721 54.551185 
L 133.279959 54.551185 
z
" clip-path="url(#p942669fe55)" style="fill: #1f8a56; stroke: #1f8a56; stroke-linejoin: miter"/>
   </g>
   <g id="patch_11">
    <path d="M 147.110435 54.433364 
L 154.717197 54.433364 
L 154.717197 40.645604 
L 147.110435 40.645604 
z
" clip-path="url(#p942669fe55)" style="fill: #1f8a56; stroke: #1f8a56; stroke-linejoin: miter"/>
   </g>
   <g id="patch_12">
    <path d="M 160.940911 41.169567 
L 168.547673 41.169567 
L 168.547673 34.607672 
L 160.940911 34.607672 
z
" clip-path="url(#p942669fe55)" style="fill: #1f8a56; stroke: #1f8a56; stroke-linejoin: miter"/>
   </g>
   <g id="patch_13">
    <path d="M 174.771387 44.312242 
L 182.378149 44.312242 
L 182.378149 37.750346 
L 174.771387 37.750346 
z
" clip-path="url(#p942669fe55)" style="fill: #b91c1c; stroke: #b91c1c; stroke-linejoin: miter"/>
   </g>
   <g id="patch_14">
    <path d="M 188.601863 58.639286 
L 196.208625 58.639286 
L 196.208625 49.020906 
L 188.601863 49.020906 
z
" clip-path="url(#p942669fe55)" style="fill: #b91c1c; stroke: #b91c1c; stroke-linejoin: miter"/>
   </g>
   <g id="patch_15">
    <path d="M 202.432339 74.612363 
L 210.039101 74.612363 
L 210.039101 54.598633 
L 202.432339 54.598633 
z
" clip-path="url(#p942669fe55)" style="fill: #b91c1c; stroke: #b91c1c; stroke-linejoin: miter"/>
   </g>
   <g id="patch_16">
    <path d="M 216.262815 85.175447 
L 223.869577 85.175447 
L 223.869577 78.613551 
L 216.262815 78.613551 
z
" clip-path="url(#p942669fe55)" style="fill: #b91c1c; stroke: #b91c1c; stroke-linejoin: miter"/>
   </g>
   <g id="patch_17">
    <path d="M 230.093291 115.610818 
L 237.700053 115.610818 
L 237.700053 89.757006 
L 230.093291 89.757006 
z
" clip-path="url(#p942669fe55)" style="fill: #b91c1c; stroke: #b91c1c; stroke-linejoin: miter"/>
   </g>
   <g id="patch_18">
    <path d="M 243.923767 139.519064 
L 251.530529 139.519064 
L 251.530529 115.437207 
L 243.923767 115.437207 
z
" clip-path="url(#p942669fe55)" style="fill: #b91c1c; stroke: #b91c1c; stroke-linejoin: miter"/>
   </g>
   <g id="patch_19">
    <path d="M 257.754243 177.81231 
L 265.361005 177.81231 
L 265.361005 134.904127 
L 257.754243 134.904127 
z
" clip-path="url(#p942669fe55)" style="fill: #b91c1c; stroke: #b91c1c; stroke-linejoin: miter"/>
   </g>
   <g id="patch_20">
    <path d="M 271.584719 178.547234 
L 279.191481 178.547234 
L 279.191481 171.985338 
L 271.584719 171.985338 
z
" clip-path="url(#p942669fe55)" style="fill: #1f8a56; stroke: #1f8a56; stroke-linejoin: miter"/>
   </g>
   <g id="patch_21">
    <path d="M 285.415195 205.120781 
L 293.021957 205.120781 
L 293.021957 176.432235 
L 285.415195 176.432235 
z
" clip-path="url(#p942669fe55)" style="fill: #b91c1c; stroke: #b91c1c; stroke-linejoin: miter"/>
   </g>
   <g id="patch_22">
    <path d="M 299.245671 228.806883 
L 306.852433 228.806883 
L 306.852433 209.712786 
L 299.245671 209.712786 
z
" clip-path="url(#p942669fe55)" style="fill: #b91c1c; stroke: #b91c1c; stroke-linejoin: miter"/>
   </g>
   <g id="patch_23">
    <path d="M 313.076147 226.667459 
L 320.682909 226.667459 
L 320.682909 220.105563 
L 313.076147 220.105563 
z
" clip-path="url(#p942669fe55)" style="fill: #b91c1c; stroke: #b91c1c; stroke-linejoin: miter"/>
   </g>
   <g id="patch_24">
    <path d="M 326.906623 230.988434 
L 334.513385 230.988434 
L 334.513385 224.426538 
L 326.906623 224.426538 
z
" clip-path="url(#p942669fe55)" style="fill: #b91c1c; stroke: #b91c1c; stroke-linejoin: miter"/>
   </g>
   <g id="patch_25">
    <path d="M 340.737099 235.999571 
L 348.343861 235.999571 
L 348.343861 209.337736 
L 340.737099 209.337736 
z
" clip-path="url(#p942669fe55)" style="fill: #1f8a56; stroke: #1f8a56; stroke-linejoin: miter"/>
   </g>
   <g id="patch_26">
    <path d="M 354.567575 210.704881 
L 362.174337 210.704881 
L 362.174337 204.142985 
L 354.567575 204.142985 
z
" clip-path="url(#p942669fe55)" style="fill: #1f8a56; stroke: #1f8a56; stroke-linejoin: miter"/>
   </g>
   <g id="patch_27">
    <path d="M 368.398051 208.485003 
L 376.004813 208.485003 
L 376.004813 192.6842 
L 368.398051 192.6842 
z
" clip-path="url(#p942669fe55)" style="fill: #1f8a56; stroke: #1f8a56; stroke-linejoin: miter"/>
   </g>
   <g id="patch_28">
    <path d="M 382.228527 195.551141 
L 389.835289 195.551141 
L 389.835289 188.989245 
L 382.228527 188.989245 
z
" clip-path="url(#p942669fe55)" style="fill: #b91c1c; stroke: #b91c1c; stroke-linejoin: miter"/>
   </g>
   <g id="patch_29">
    <path d="M 396.059003 201.332489 
L 403.665765 201.332489 
L 403.665765 168.460367 
L 396.059003 168.460367 
z
" clip-path="url(#p942669fe55)" style="fill: #1f8a56; stroke: #1f8a56; stroke-linejoin: miter"/>
   </g>
   <g id="patch_30">
    <path d="M 409.889479 173.251475 
L 417.496241 173.251475 
L 417.496241 140.099967 
L 409.889479 140.099967 
z
" clip-path="url(#p942669fe55)" style="fill: #1f8a56; stroke: #1f8a56; stroke-linejoin: miter"/>
   </g>
   <g id="patch_31">
    <path d="M 423.719955 146.423252 
L 431.326717 146.423252 
L 431.326717 111.768425 
L 423.719955 111.768425 
z
" clip-path="url(#p942669fe55)" style="fill: #1f8a56; stroke: #1f8a56; stroke-linejoin: miter"/>
   </g>
   <g id="patch_32">
    <path d="M 437.550431 111.627746 
L 445.157193 111.627746 
L 445.157193 102.666437 
L 437.550431 102.666437 
z
" clip-path="url(#p942669fe55)" style="fill: #1f8a56; stroke: #1f8a56; stroke-linejoin: miter"/>
   </g>
   <g id="patch_33">
    <path d="M 451.380907 103.868852 
L 458.987669 103.868852 
L 458.987669 76.517766 
L 451.380907 76.517766 
z
" clip-path="url(#p942669fe55)" style="fill: #1f8a56; stroke: #1f8a56; stroke-linejoin: miter"/>
   </g>
   <g id="patch_34">
    <path d="M 465.211383 81.791505 
L 472.818145 81.791505 
L 472.818145 45.821321 
L 465.211383 45.821321 
z
" clip-path="url(#p942669fe55)" style="fill: #1f8a56; stroke: #1f8a56; stroke-linejoin: miter"/>
   </g>
   <g id="patch_35">
    <path d="M 479.041859 51.470778 
L 486.648621 51.470778 
L 486.648621 44.908882 
L 479.041859 44.908882 
z
" clip-path="url(#p942669fe55)" style="fill: #b91c1c; stroke: #b91c1c; stroke-linejoin: miter"/>
   </g>
   <g id="patch_36">
    <path d="M 492.872335 54.936299 
L 500.479097 54.936299 
L 500.479097 48.374403 
L 492.872335 48.374403 
z
" clip-path="url(#p942669fe55)" style="fill: #1f8a56; stroke: #1f8a56; stroke-linejoin: miter"/>
   </g>
   <g id="patch_37">
    <path d="M 506.702811 48.368187 
L 514.309573 48.368187 
L 514.309573 29.356125 
L 506.702811 29.356125 
z
" clip-path="url(#p942669fe55)" style="fill: #1f8a56; stroke: #1f8a56; stroke-linejoin: miter"/>
   </g>
   <g id="patch_38">
    <path d="M 520.533287 47.377599 
L 528.140049 47.377599 
L 528.140049 24.277354 
L 520.533287 24.277354 
z
" clip-path="url(#p942669fe55)" style="fill: #b91c1c; stroke: #b91c1c; stroke-linejoin: miter"/>
   </g>
   <g id="patch_39">
    <path d="M 534.363763 57.59909 
L 541.970525 57.59909 
L 541.970525 45.665653 
L 534.363763 45.665653 
z
" clip-path="url(#p942669fe55)" style="fill: #b91c1c; stroke: #b91c1c; stroke-linejoin: miter"/>
   </g>
   <g id="patch_40">
    <path d="M 548.194239 79.944631 
L 555.801001 79.944631 
L 555.801001 62.230071 
L 548.194239 62.230071 
z
" clip-path="url(#p942669fe55)" style="fill: #b91c1c; stroke: #b91c1c; stroke-linejoin: miter"/>
   </g>
   <g id="patch_41">
    <path d="M 562.024715 94.459754 
L 569.631477 94.459754 
L 569.631477 78.539716 
L 562.024715 78.539716 
z
" clip-path="url(#p942669fe55)" style="fill: #b91c1c; stroke: #b91c1c; stroke-linejoin: miter"/>
   </g>
   <g id="patch_42">
    <path d="M 575.855191 121.528739 
L 583.461953 121.528739 
L 583.461953 96.112347 
L 575.855191 96.112347 
z
" clip-path="url(#p942669fe55)" style="fill: #b91c1c; stroke: #b91c1c; stroke-linejoin: miter"/>
   </g>
   <g id="patch_43">
    <path d="M 589.685667 164.77899 
L 597.292429 164.77899 
L 597.292429 119.992835 
L 589.685667 119.992835 
z
" clip-path="url(#p942669fe55)" style="fill: #b91c1c; stroke: #b91c1c; stroke-linejoin: miter"/>
   </g>
   <g id="patch_44">
    <path d="M 603.516143 163.41027 
L 611.122905 163.41027 
L 611.122905 156.848374 
L 603.516143 156.848374 
z
" clip-path="url(#p942669fe55)" style="fill: #1f8a56; stroke: #1f8a56; stroke-linejoin: miter"/>
   </g>
  </g>
  <g id="axes_2">
   <g id="patch_45">
    <path d="M 54.100484 378.363458 
L 621.15 378.363458 
L 621.15 258.062053 
L 54.100484 258.062053 
z
" style="fill: #ffffff"/>
   </g>
   <g id="matplotlib.axis_3"/>
   <g id="matplotlib.axis_4">
    <g id="ytick_9">
     <g id="line2d_57">
      <g>
       <use xlink:href="#ma1fec10e52" x="54.100484" y="378.363458" style="fill: #555555; stroke: #555555; stroke-width: 0.8"/>
      </g>
     </g>
     <g id="text_10">
      <text style="font-size: 10.5px; font-family: 'Noto Naskh Arabic', 'DejaVu Sans'; text-anchor: end; fill: #555555" x="47.100484" y="383.975708" transform="rotate(-0 47.100484 383.975708)">0</text>
     </g>
    </g>
    <g id="ytick_10">
     <g id="line2d_58">
      <g>
       <use xlink:href="#ma1fec10e52" x="54.100484" y="354.303177" style="fill: #555555; stroke: #555555; stroke-width: 0.8"/>
      </g>
     </g>
     <g id="text_11">
      <text style="font-size: 10.5px; font-family: 'Noto Naskh Arabic', 'DejaVu Sans'; text-anchor: end; fill: #555555" x="47.100484" y="359.915427" transform="rotate(-0 47.100484 359.915427)">20</text>
     </g>
    </g>
    <g id="ytick_11">
     <g id="line2d_59">
      <g>
       <use xlink:href="#ma1fec10e52" x="54.100484" y="330.242896" style="fill: #555555; stroke: #555555; stroke-width: 0.8"/>
      </g>
     </g>
     <g id="text_12">
      <text style="font-size: 10.5px; font-family: 'Noto Naskh Arabic', 'DejaVu Sans'; text-anchor: end; fill: #555555" x="47.100484" y="335.855146" transform="rotate(-0 47.100484 335.855146)">40</text>
     </g>
    </g>
    <g id="ytick_12">
     <g id="line2d_60">
      <g>
       <use xlink:href="#ma1fec10e52" x="54.100484" y="306.182615" style="fill: #555555; stroke: #555555; stroke-width: 0.8"/>
      </g>
     </g>
     <g id="text_13">
      <text style="font-size: 10.5px; font-family: 'Noto Naskh Arabic', 'DejaVu Sans'; text-anchor: end; fill: #555555" x="47.100484" y="311.794865" transform="rotate(-0 47.100484 311.794865)">60</text>
     </g>
    </g>
    <g id="ytick_13">
     <g id="line2d_61">
      <g>
       <use xlink:href="#ma1fec10e52" x="54.100484" y="282.122334" style="fill: #555555; stroke: #555555; stroke-width: 0.8"/>
      </g>
     </g>
     <g id="text_14">
      <text style="font-size: 10.5px; font-family: 'Noto Naskh Arabic', 'DejaVu Sans'; text-anchor: end; fill: #555555" x="47.100484" y="287.734584" transform="rotate(-0 47.100484 287.734584)">80</text>
     </g>
    </g>
    <g id="ytick_14">
     <g id="line2d_62">
      <g>
       <use xlink:href="#ma1fec10e52" x="54.100484" y="258.062053" style="fill: #555555; stroke: #555555; stroke-width: 0.8"/>
      </g>
     </g>
     <g id="text_15">
      <text style="font-size: 10.5px; font-family: 'Noto Naskh Arabic', 'DejaVu Sans'; text-anchor: end; fill: #555555" x="47.100484" y="263.674303" transform="rotate(-0 47.100484 263.674303)">100</text>
     </g>
    </g>
    <g id="text_16">
     <text style="font-size: 10.5px; font-family: 'Noto Naskh Arabic', 'DejaVu Sans'; text-anchor: middle; fill: #1f2937" x="18.4245" y="318.212756" transform="rotate(-90 18.4245 318.212756)">​ﻚﻴﺘﺳﺎﻛﻮﺘﺳ</text>
    </g>
   </g>
   <g id="line2d_63">
    <path d="M 79.875462 318.212756 
L 93.0934 301.569377 
L 106.311337 286.538145 
L 119.529275 274.575045 
L 132.747212 266.838873 
L 145.965149 264.078986 
L 159.183087 266.562718 
L 172.401024 274.049485 
L 185.618962 285.814087 
L 198.836899 300.716958 
L 212.054837 317.314543 
L 225.272774 333.999133 
L 238.490711 349.154589 
L 251.708649 361.312892 
L 264.926586 369.29634 
L 278.144524 372.331621 
L 291.362461 370.124728 
L 304.580399 362.889427 
L 317.798336 351.326561 
L 331.016273 336.556156 
L 344.234211 320.008933 
L 357.452148 303.287726 
L 370.670086 288.012218 
L 383.888023 275.662058 
L 397.105961 267.433533 
L 410.323898 264.123693 
L 423.541835 266.05314 
L 436.759773 273.034982 
L 449.97771 284.392929 
L 463.195648 299.026803 
L 476.413585 315.519107 
L 489.631523 332.272329 
L 502.84946 347.663682 
L 516.067397 360.202299 
L 529.285335 368.673635 
L 542.503272 372.257124 
L 555.72121 370.605654 
L 568.939147 363.879192 
L 582.157085 352.729292 
L 595.375022 338.235978 
" clip-path="url(#p9f5e0694a4)" style="fill: none; stroke: #1f2937; stroke-width: 1.8; stroke-linecap: square"/>
   </g>
   <g id="line2d_64">
    <path d="M 79.875462 318.212756 
L 93.0934 309.891066 
L 106.311337 302.106759 
L 119.529275 287.560855 
L 132.747212 275.984021 
L 145.965149 268.497635 
L 159.183087 265.826859 
L 172.401024 268.230396 
L 185.618962 275.47543 
L 198.836899 286.860177 
L 212.054837 301.281863 
L 225.272774 317.343544 
L 238.490711 333.489422 
L 251.708649 348.155538 
L 264.926586 359.921274 
L 278.144524 367.646951 
L 291.362461 370.58423 
L 304.580399 368.448592 
L 317.798336 361.446905 
L 331.016273 350.257381 
L 344.234211 335.963883 
L 357.452148 319.950938 
L 370.670086 303.769626 
L 383.888023 288.987334 
L 397.105961 277.035937 
L 410.323898 269.073095 
L 423.541835 265.870122 
L 436.759773 267.737272 
L 449.97771 274.493684 
L 463.195648 285.484905 
L 476.413585 299.64628 
L 489.631523 315.606079 
L 502.84946 331.818373 
L 516.067397 346.71277 
L 529.285335 358.846539 
L 542.503272 367.044353 
L 555.72121 370.512138 
L 568.939147 368.91399 
L 582.157085 362.404712 
L 595.375022 351.614821 
" clip-path="url(#p9f5e0694a4)" style="fill: none; stroke-dasharray: 5.92,2.56; stroke-dashoffset: 0; stroke: #b7791f; stroke-width: 1.6"/>
   </g>
   <g id="line2d_65">
    <path d="M 54.100484 282.122334 
L 621.15 282.122334 
" clip-path="url(#p9f5e0694a4)" style="fill: none; stroke-dasharray: 1.2,1.98; stroke-dashoffset: 0; stroke: #b91c1c; stroke-width: 1.2"/>
   </g>
   <g id="line2d_66">
    <path d="M 54.100484 354.303177 
L 621.15 354.303177 
" clip-path="url(#p9f5e0694a4)" style="fill: none; stroke-dasharray: 1.2,1.98; stroke-dashoffset: 0; stroke: #1f8a56; stroke-width: 1.2"/>
   </g>
   <g id="patch_46">
    <path d="M 54.100484 378.363458 
L 54.100484 258.062053 
" style="fill: none; stroke: #1f2937; stroke-width: 0.8; stroke-linejoin: miter; stroke-linecap: square"/>
   </g>
   <g id="patch_47">
    <path d="M 54.100484 378.363458 
L 621.15 378.363458 
" style="fill: none; stroke: #1f2937; stroke-width: 0.8; stroke-linejoin: miter; stroke-linecap: square"/>
   </g>
   <g id="legend_1">
    <g id="line2d_67">
     <path d="M 575.078672 271.823553 
L 583.578672 271.823553 
L 592.078672 271.823553 
" style="fill: none; stroke: #1f2937; stroke-width: 1.8; stroke-linecap: square"/>
    </g>
    <g id="text_17">
     <text style="font-size: 8.5px; font-family: 'Noto Naskh Arabic', 'DejaVu Sans'; text-anchor: start; fill: #1f2937" x="598.878672" y="274.798553" transform="rotate(-0 598.878672 274.798553)">%K</text>
    </g>
    <g id="line2d_68">
     <path d="M 575.078672 290.549053 
L 583.578672 290.549053 
L 592.078672 290.549053 
" style="fill: none; stroke-dasharray: 5.92,2.56; stroke-dashoffset: 0; stroke: #b7791f; stroke-width: 1.6"/>
    </g>
    <g id="text_18">
     <text style="font-size: 8.5px; font-family: 'Noto Naskh Arabic', 'DejaVu Sans'; text-anchor: start; fill: #1f2937" x="598.878672" y="293.524053" transform="rotate(-0 598.878672 293.524053)">%D</text>
    </g>
   </g>
  </g>
 </g>
 <defs>
  <clipPath id="p942669fe55">
   <rect x="54.100484" y="9.221991" width="567.049516" height="240.602811"/>
  </clipPath>
  <clipPath id="p9f5e0694a4">
   <rect x="54.100484" y="258.062053" width="567.049516" height="120.301406"/>
  </clipPath>
 </defs>
</svg>
