<?xml version="1.0" encoding="utf-8" standalone="no"?>
<!DOCTYPE svg PUBLIC "-//W3C//DTD SVG 1.1//EN"
  "http://www.w3.org/Graphics/SVG/1.1/DTD/svg11.dtd">
<svg xmlns:xlink="http://www.w3.org/1999/xlink" width="628.35pt" height="325.95pt" viewBox="0 0 628.35 325.95" xmlns="http://www.w3.org/2000/svg" version="1.1">
 <metadata>
  <rdf:RDF xmlns:dc="http://purl.org/dc/elements/1.1/" xmlns:cc="http://creativecommons.org/ns#" xmlns:rdf="http://www.w3.org/1999/02/22-rdf-syntax-ns#">
   <cc:Work>
    <dc:type rdf:resource="http://purl.org/dc/dcmitype/StillImage"/>
    <dc:date>2026-07-19T00:05:22.144092</dc:date>
    <dc:format>image/svg+xml</dc:format>
    <dc:creator>
     <cc:Agent>
      <dc:title>Matplotlib v3.11.1, https://matplotlib.org/</dc:title>
     </cc:Agent>
    </dc:creator>
   </cc:Work>
  </rdf:RDF>
 </metadata>
 <defs>
  <style type="text/css">*{stroke-linejoin: round; stroke-linecap: butt}</style>
 </defs>
 <g id="figure_1">
  <g id="patch_1">
   <path d="M 0 325.95 
L 628.35 325.95 
L 628.35 0 
L 0 0 
z
" style="fill: #ffffff"/>
  </g>
  <g id="axes_1">
   <g id="patch_2">
    <path d="M 45.876031 271.987 
L 621.15 271.987 
L 621.15 7.2 
L 45.876031 7.2 
z
" style="fill: #ffffff"/>
   </g>
   <g id="matplotlib.axis_1">
    <g id="xtick_1">
     <g id="line2d_1">
      <defs>
       <path id="m09f93a4cc5" d="M 0 0 
L 0 3.5 
" style="stroke: #555555; stroke-width: 0.8"/>
      </defs>
      <g>
       <use xlink:href="#m09f93a4cc5" x="72.024848" y="271.987" style="fill: #555555; stroke: #555555; stroke-width: 0.8"/>
      </g>
     </g>
     <g id="text_1">
      <!-- 0 -->
      <g style="fill: #555555" transform="translate(69.021684 290.2115) scale(0.105 -0.105)">
       <defs>
        <path id="NotoNaskhArabic-Regular-4cc" d="M 1824 -64 
Q 1082 -64 698 534 
Q 314 1133 314 2291 
Q 314 3488 682 4064 
Q 1050 4640 1824 4640 
Q 2566 4640 2956 4038 
Q 3347 3437 3347 2291 
Q 3347 1101 2969 518 
Q 2592 -64 1824 -64 
z
M 1824 416 
Q 2208 416 2426 678 
Q 2778 1094 2778 2291 
Q 2778 3571 2368 3962 
Q 2163 4160 1824 4160 
Q 1427 4160 1203 3878 
Q 877 3469 877 2291 
Q 877 1075 1229 666 
Q 1440 416 1824 416 
z
" transform="scale(0.015625)"/>
       </defs>
       <use xlink:href="#NotoNaskhArabic-Regular-4cc"/>
      </g>
     </g>
    </g>
    <g id="xtick_2">
     <g id="line2d_2">
      <g>
       <use xlink:href="#m09f93a4cc5" x="167.111454" y="271.987" style="fill: #555555; stroke: #555555; stroke-width: 0.8"/>
      </g>
     </g>
     <g id="text_2">
      <!-- 2 -->
      <g style="fill: #555555" transform="translate(164.10829 290.2115) scale(0.105 -0.105)">
       <defs>
        <path id="NotoNaskhArabic-Regular-4ce" d="M 307 0 
L 307 467 
L 1504 1677 
Q 1773 1952 1952 2147 
Q 2131 2342 2221 2458 
Q 2413 2720 2489 2925 
Q 2566 3130 2566 3386 
Q 2566 3744 2352 3949 
Q 2138 4154 1760 4154 
Q 1478 4154 1228 4058 
Q 979 3962 659 3718 
L 358 4096 
Q 1005 4634 1760 4634 
Q 2240 4634 2576 4448 
Q 2912 4262 3053 3923 
Q 3142 3686 3142 3418 
Q 3142 3123 3033 2841 
Q 2925 2560 2707 2272 
Q 2598 2131 2416 1929 
Q 2234 1728 1971 1478 
L 1018 538 
L 1018 512 
L 3328 512 
L 3328 0 
L 307 0 
z
" transform="scale(0.015625)"/>
       </defs>
       <use xlink:href="#NotoNaskhArabic-Regular-4ce"/>
      </g>
     </g>
    </g>
    <g id="xtick_3">
     <g id="line2d_3">
      <g>
       <use xlink:href="#m09f93a4cc5" x="262.198061" y="271.987" style="fill: #555555; stroke: #555555; stroke-width: 0.8"/>
      </g>
     </g>
     <g id="text_3">
      <!-- 4 -->
      <g style="fill: #555555" transform="translate(259.194897 290.2115) scale(0.105 -0.105)">
       <defs>
        <path id="NotoNaskhArabic-Regular-4d0" d="M 2323 0 
L 2323 1037 
L 134 1037 
L 134 1517 
L 2285 4595 
L 2867 4595 
L 2867 1542 
L 3533 1542 
L 3533 1037 
L 2867 1037 
L 2867 0 
L 2323 0 
z
M 685 1542 
L 2323 1542 
L 2323 2982 
Q 2323 3194 2332 3446 
Q 2342 3699 2355 3994 
L 2330 3994 
Q 2298 3910 2211 3747 
Q 2125 3584 2054 3494 
L 685 1542 
z
" transform="scale(0.015625)"/>
       </defs>
       <use xlink:href="#NotoNaskhArabic-Regular-4d0"/>
      </g>
     </g>
    </g>
    <g id="xtick_4">
     <g id="line2d_4">
      <g>
       <use xlink:href="#m09f93a4cc5" x="357.284667" y="271.987" style="fill: #555555; stroke: #555555; stroke-width: 0.8"/>
      </g>
     </g>
     <g id="text_4">
      <!-- 6 -->
      <g style="fill: #555555" transform="translate(354.281503 290.2115) scale(0.105 -0.105)">
       <defs>
        <path id="NotoNaskhArabic-Regular-4d2" d="M 1907 -64 
Q 1440 -64 1088 176 
Q 736 416 544 870 
Q 352 1331 352 1952 
Q 352 4634 2445 4634 
Q 2810 4634 3008 4576 
L 3008 4096 
Q 2771 4173 2458 4173 
Q 1984 4173 1654 3987 
Q 1325 3802 1139 3405 
Q 941 2976 915 2323 
L 954 2323 
Q 1299 2861 2035 2861 
Q 2656 2861 3008 2486 
Q 3360 2112 3360 1472 
Q 3360 762 2969 349 
Q 2579 -64 1907 -64 
z
M 1901 410 
Q 2336 410 2569 688 
Q 2803 966 2803 1472 
Q 2803 1926 2576 2172 
Q 2349 2419 1920 2419 
Q 1645 2419 1421 2307 
Q 1197 2195 1056 1997 
Q 922 1798 922 1581 
Q 922 1267 1050 995 
Q 1178 723 1395 563 
Q 1619 410 1901 410 
z
" transform="scale(0.015625)"/>
       </defs>
       <use xlink:href="#NotoNaskhArabic-Regular-4d2"/>
      </g>
     </g>
    </g>
    <g id="xtick_5">
     <g id="line2d_5">
      <g>
       <use xlink:href="#m09f93a4cc5" x="452.371274" y="271.987" style="fill: #555555; stroke: #555555; stroke-width: 0.8"/>
      </g>
     </g>
     <g id="text_5">
      <!-- 8 -->
      <g style="fill: #555555" transform="translate(449.36811 290.2115) scale(0.105 -0.105)">
       <defs>
        <path id="NotoNaskhArabic-Regular-4d4" d="M 1843 -64 
Q 1114 -64 714 256 
Q 314 576 314 1165 
Q 314 1946 1261 2387 
Q 832 2630 646 2912 
Q 461 3194 461 3546 
Q 461 4045 832 4339 
Q 1203 4634 1824 4634 
Q 2451 4634 2822 4342 
Q 3194 4051 3194 3539 
Q 3194 3200 2986 2928 
Q 2778 2656 2323 2419 
Q 2874 2150 3107 1856 
Q 3341 1562 3341 1184 
Q 3341 621 2937 278 
Q 2534 -64 1843 -64 
z
M 1850 2637 
Q 2278 2816 2457 3030 
Q 2637 3245 2637 3520 
Q 2637 3834 2416 4006 
Q 2195 4179 1818 4179 
Q 1446 4179 1228 4003 
Q 1011 3827 1011 3520 
Q 1011 3322 1094 3171 
Q 1178 3021 1338 2906 
Q 1498 2784 1850 2637 
z
M 1830 384 
Q 2278 384 2534 595 
Q 2790 806 2790 1178 
Q 2790 1478 2547 1712 
Q 2304 1946 1728 2157 
Q 1280 1965 1072 1728 
Q 864 1491 864 1158 
Q 864 800 1123 592 
Q 1382 384 1830 384 
z
" transform="scale(0.015625)"/>
       </defs>
       <use xlink:href="#NotoNaskhArabic-Regular-4d4"/>
      </g>
     </g>
    </g>
    <g id="xtick_6">
     <g id="line2d_6">
      <g>
       <use xlink:href="#m09f93a4cc5" x="547.45788" y="271.987" style="fill: #555555; stroke: #555555; stroke-width: 0.8"/>
      </g>
     </g>
     <g id="text_6">
      <!-- 10 -->
      <g style="fill: #555555" transform="translate(541.451552 290.2115) scale(0.105 -0.105)">
       <defs>
        <path id="NotoNaskhArabic-Regular-4cd" d="M 1722 0 
L 1722 3194 
Q 1722 3405 1728 3603 
Q 1734 3802 1747 3981 
Q 1702 3936 1657 3891 
Q 1613 3846 1562 3808 
Q 1402 3674 1226 3530 
Q 1050 3386 864 3232 
L 570 3610 
L 1805 4570 
L 2272 4570 
L 2272 0 
L 1722 0 
z
" transform="scale(0.015625)"/>
       </defs>
       <use xlink:href="#NotoNaskhArabic-Regular-4cd"/>
       <use xlink:href="#NotoNaskhArabic-Regular-4cc" transform="translate(57.203125 0)"/>
      </g>
     </g>
    </g>
    <g id="text_7">
     <!-- ​ﺮﻬﺸﻟﺍ -->
     <g style="fill: #1f2937" transform="translate(323.54868 312.093) scale(0.105 -0.105)">
      <defs>
       <path id="NotoNaskhArabic-Regular-3" d="M 666 0 
Q 646 1126 604 2057 
Q 563 2989 493 3725 
Q 467 3987 566 4118 
Q 666 4250 915 4294 
Q 941 4173 1001 3965 
Q 1062 3757 1139 3533 
L 966 3386 
Q 992 2912 1001 2413 
Q 1011 1914 1001 1338 
Q 992 762 960 51 
L 666 0 
z
" transform="scale(0.015625)"/>
       <path id="NotoNaskhArabic-Regular-1c1" d="M -6 0 
Q -64 0 -64 51 
L -64 435 
Q -64 486 -6 486 
Q 378 486 704 659 
Q 685 902 665 1139 
Q 646 1376 627 1606 
Q 570 2208 512 2790 
Q 454 3373 384 3936 
Q 474 4032 579 4121 
Q 685 4211 806 4294 
Q 826 3949 851 3497 
Q 877 3046 915 2483 
Q 947 2016 960 1609 
Q 973 1203 979 864 
Q 979 755 915 572 
Q 851 390 755 224 
Q 640 0 -6 0 
z
" transform="scale(0.015625)"/>
       <path id="NotoNaskhArabic-Regular-105" d="M 1446 0 
Q 1267 0 1030 57 
Q 794 115 666 198 
Q 576 109 397 54 
Q 218 0 0 0 
Q -51 0 -51 51 
L -51 435 
Q -51 486 0 486 
Q 326 486 518 634 
Q 627 723 681 809 
Q 736 896 858 1094 
Q 915 1197 1056 1197 
Q 1146 1197 1210 1152 
Q 1114 909 1046 765 
Q 979 621 947 570 
Q 998 544 1155 515 
Q 1312 486 1517 486 
Q 1664 486 1789 505 
Q 1914 525 2016 550 
Q 2061 621 2115 793 
Q 2170 966 2227 1145 
Q 2285 1325 2323 1408 
Q 2381 1536 2432 1574 
Q 2483 1613 2579 1613 
Q 2669 1613 2733 1568 
Q 2688 1466 2608 1235 
Q 2528 1005 2400 582 
Q 2496 538 2566 522 
Q 2637 506 2739 506 
Q 2906 506 3091 570 
Q 3123 608 3168 723 
Q 3213 838 3277 1030 
Q 3328 1190 3385 1331 
Q 3443 1472 3501 1568 
Q 3552 1664 3699 1664 
Q 3789 1664 3853 1619 
Q 3808 1517 3728 1289 
Q 3648 1062 3533 710 
Q 3757 589 3917 537 
Q 4077 486 4294 486 
Q 4352 486 4352 435 
L 4352 51 
Q 4352 0 4294 0 
Q 4045 0 3798 96 
Q 3552 192 3386 346 
Q 3366 301 3347 259 
Q 3328 218 3296 173 
Q 3251 96 3078 48 
Q 2906 0 2733 0 
Q 2438 0 2221 160 
Q 2176 102 2041 67 
Q 1907 32 1744 19 
Q 1581 6 1446 0 
z
M 2317 2605 
Q 2150 2707 1958 2918 
Q 2054 3014 2140 3103 
Q 2227 3193 2298 3277 
Q 2413 3123 2650 2918 
Q 2464 2701 2317 2605 
z
M 2771 2080 
Q 2560 2246 2394 2432 
Q 2451 2483 2547 2582 
Q 2643 2681 2765 2822 
Q 2854 2733 2940 2643 
Q 3027 2553 3117 2470 
Q 3053 2381 2969 2281 
Q 2886 2182 2771 2080 
z
M 1862 1997 
Q 1741 2093 1645 2182 
Q 1549 2272 1478 2349 
Q 1632 2489 1850 2739 
Q 1914 2662 2202 2387 
Q 2144 2304 2061 2204 
Q 1978 2105 1862 1997 
z
" transform="scale(0.015625)"/>
       <path id="NotoNaskhArabic-Regular-1ff" d="M 1632 -1306 
Q 1139 -1306 825 -1011 
Q 512 -717 422 -173 
L 179 -275 
L 115 6 
L 0 0 
Q -51 0 -51 51 
L -51 435 
Q -51 486 0 486 
Q 109 493 211 496 
Q 314 499 416 506 
Q 550 1696 1619 2707 
L 1850 2643 
Q 1862 2502 1888 2313 
Q 1914 2125 1958 1888 
Q 2003 1670 2022 1520 
Q 2042 1370 2042 1280 
Q 2042 998 1882 780 
Q 1722 563 1517 442 
Q 1779 467 2000 476 
Q 2221 486 2477 486 
Q 2547 486 2547 422 
L 2547 70 
Q 2547 0 2477 0 
Q 2214 0 2029 -45 
Q 2182 -109 2288 -240 
Q 2394 -371 2394 -499 
Q 2394 -557 2349 -688 
Q 2304 -819 2253 -944 
Q 2202 -1069 2170 -1107 
Q 2086 -1190 1939 -1248 
Q 1792 -1306 1632 -1306 
z
M 806 480 
Q 1037 506 1264 605 
Q 1491 704 1670 858 
L 1619 1184 
Q 1555 1485 1520 1705 
Q 1485 1926 1472 2067 
Q 1120 1568 976 1203 
Q 832 838 806 480 
z
M 1690 -858 
Q 1798 -858 1920 -813 
Q 2042 -768 2112 -685 
Q 2061 -499 1904 -342 
Q 1747 -186 1536 -93 
Q 1325 0 1094 0 
Q 1037 0 845 -38 
Q 947 -448 1164 -653 
Q 1382 -858 1690 -858 
z
" transform="scale(0.015625)"/>
       <path id="NotoNaskhArabic-Regular-d4" d="M 710 -1306 
Q 608 -1306 451 -1248 
Q 294 -1190 134 -1107 
Q -26 -1024 -128 -947 
L -45 -736 
Q 134 -768 284 -787 
Q 435 -806 563 -806 
Q 1043 -806 1385 -518 
Q 1728 -230 1907 314 
Q 1862 416 1814 515 
Q 1766 614 1709 717 
Q 1491 1107 1388 1340 
Q 1286 1574 1286 1734 
Q 1286 1901 1382 2000 
Q 1478 2099 1658 2182 
Q 1683 2099 1712 2000 
Q 1741 1901 1786 1792 
Q 1888 1530 1955 1334 
Q 2022 1139 2054 1018 
Q 2093 896 2115 797 
Q 2138 698 2144 614 
Q 2362 486 2643 486 
Q 2694 486 2694 435 
L 2694 51 
Q 2694 0 2643 0 
Q 2342 0 2118 154 
Q 2048 -288 1849 -617 
Q 1651 -947 1356 -1126 
Q 1062 -1306 710 -1306 
z
" transform="scale(0.015625)"/>
       <path id="NotoNaskhArabic-Regular-554" transform="scale(0.015625)"/>
      </defs>
      <use xlink:href="#NotoNaskhArabic-Regular-3"/>
      <use xlink:href="#NotoNaskhArabic-Regular-1c1" transform="translate(23.796875 0)"/>
      <use xlink:href="#NotoNaskhArabic-Regular-105" transform="translate(45 0)"/>
      <use xlink:href="#NotoNaskhArabic-Regular-1ff" transform="translate(111.296875 0)"/>
      <use xlink:href="#NotoNaskhArabic-Regular-d4" transform="translate(149.390625 0)"/>
      <use xlink:href="#NotoNaskhArabic-Regular-554" transform="translate(189.796875 0)"/>
     </g>
    </g>
   </g>
   <g id="matplotlib.axis_2">
    <g id="ytick_1">
     <g id="line2d_7">
      <path d="M 45.876031 253.264687 
L 621.15 253.264687 
" clip-path="url(#p390a1fa60a)" style="fill: none; stroke: #e6e1d6; stroke-width: 0.8; stroke-linecap: square"/>
     </g>
     <g id="line2d_8">
      <defs>
       <path id="mcd03d4adfc" d="M 0 0 
L -3.5 0 
" style="stroke: #555555; stroke-width: 0.8"/>
      </defs>
      <g>
       <use xlink:href="#mcd03d4adfc" x="45.876031" y="253.264687" style="fill: #555555; stroke: #555555; stroke-width: 0.8"/>
      </g>
     </g>
     <g id="text_8">
      <!-- -1 -->
      <g style="fill: #555555" transform="translate(29.0815 258.876937) scale(0.105 -0.105)">
       <defs>
        <path id="DejaVuSans-10" d="M 313 2009 
L 1997 2009 
L 1997 1497 
L 313 1497 
L 313 2009 
z
" transform="scale(0.015625)"/>
       </defs>
       <use xlink:href="#DejaVuSans-10"/>
       <use xlink:href="#NotoNaskhArabic-Regular-4cd" transform="translate(36.078125 0)"/>
      </g>
     </g>
    </g>
    <g id="ytick_2">
     <g id="line2d_9">
      <path d="M 45.876031 219.831985 
L 621.15 219.831985 
" clip-path="url(#p390a1fa60a)" style="fill: none; stroke: #e6e1d6; stroke-width: 0.8; stroke-linecap: square"/>
     </g>
     <g id="line2d_10">
      <g>
       <use xlink:href="#mcd03d4adfc" x="45.876031" y="219.831985" style="fill: #555555; stroke: #555555; stroke-width: 0.8"/>
      </g>
     </g>
     <g id="text_9">
      <!-- 0 -->
      <g style="fill: #555555" transform="translate(32.869703 225.444235) scale(0.105 -0.105)">
       <use xlink:href="#NotoNaskhArabic-Regular-4cc"/>
      </g>
     </g>
    </g>
    <g id="ytick_3">
     <g id="line2d_11">
      <path d="M 45.876031 186.399283 
L 621.15 186.399283 
" clip-path="url(#p390a1fa60a)" style="fill: none; stroke: #e6e1d6; stroke-width: 0.8; stroke-linecap: square"/>
     </g>
     <g id="line2d_12">
      <g>
       <use xlink:href="#mcd03d4adfc" x="45.876031" y="186.399283" style="fill: #555555; stroke: #555555; stroke-width: 0.8"/>
      </g>
     </g>
     <g id="text_10">
      <!-- 1 -->
      <g style="fill: #555555" transform="translate(32.869703 192.011533) scale(0.105 -0.105)">
       <use xlink:href="#NotoNaskhArabic-Regular-4cd"/>
      </g>
     </g>
    </g>
    <g id="ytick_4">
     <g id="line2d_13">
      <path d="M 45.876031 152.966581 
L 621.15 152.966581 
" clip-path="url(#p390a1fa60a)" style="fill: none; stroke: #e6e1d6; stroke-width: 0.8; stroke-linecap: square"/>
     </g>
     <g id="line2d_14">
      <g>
       <use xlink:href="#mcd03d4adfc" x="45.876031" y="152.966581" style="fill: #555555; stroke: #555555; stroke-width: 0.8"/>
      </g>
     </g>
     <g id="text_11">
      <!-- 2 -->
      <g style="fill: #555555" transform="translate(32.869703 158.578831) scale(0.105 -0.105)">
       <use xlink:href="#NotoNaskhArabic-Regular-4ce"/>
      </g>
     </g>
    </g>
    <g id="ytick_5">
     <g id="line2d_15">
      <path d="M 45.876031 119.533879 
L 621.15 119.533879 
" clip-path="url(#p390a1fa60a)" style="fill: none; stroke: #e6e1d6; stroke-width: 0.8; stroke-linecap: square"/>
     </g>
     <g id="line2d_16">
      <g>
       <use xlink:href="#mcd03d4adfc" x="45.876031" y="119.533879" style="fill: #555555; stroke: #555555; stroke-width: 0.8"/>
      </g>
     </g>
     <g id="text_12">
      <!-- 3 -->
      <g style="fill: #555555" transform="translate(32.869703 125.146129) scale(0.105 -0.105)">
       <defs>
        <path id="NotoNaskhArabic-Regular-4cf" d="M 1542 -64 
Q 1184 -64 877 -9 
Q 570 45 288 186 
L 288 710 
Q 576 570 909 490 
Q 1242 410 1549 410 
Q 2707 410 2707 1312 
Q 2707 2118 1427 2118 
L 986 2118 
L 986 2598 
L 1434 2598 
Q 1971 2598 2275 2825 
Q 2579 3053 2579 3462 
Q 2579 3789 2358 3974 
Q 2138 4160 1747 4160 
Q 1446 4160 1187 4077 
Q 928 3994 595 3776 
L 314 4160 
Q 595 4384 963 4509 
Q 1331 4634 1741 4634 
Q 2406 4634 2780 4330 
Q 3155 4026 3155 3501 
Q 3155 3066 2908 2784 
Q 2662 2502 2208 2406 
L 2208 2381 
Q 2758 2317 3027 2035 
Q 3296 1754 3296 1299 
Q 3296 646 2845 291 
Q 2394 -64 1542 -64 
z
" transform="scale(0.015625)"/>
       </defs>
       <use xlink:href="#NotoNaskhArabic-Regular-4cf"/>
      </g>
     </g>
    </g>
    <g id="ytick_6">
     <g id="line2d_17">
      <path d="M 45.876031 86.101177 
L 621.15 86.101177 
" clip-path="url(#p390a1fa60a)" style="fill: none; stroke: #e6e1d6; stroke-width: 0.8; stroke-linecap: square"/>
     </g>
     <g id="line2d_18">
      <g>
       <use xlink:href="#mcd03d4adfc" x="45.876031" y="86.101177" style="fill: #555555; stroke: #555555; stroke-width: 0.8"/>
      </g>
     </g>
     <g id="text_13">
      <!-- 4 -->
      <g style="fill: #555555" transform="translate(32.869703 91.713427) scale(0.105 -0.105)">
       <use xlink:href="#NotoNaskhArabic-Regular-4d0"/>
      </g>
     </g>
    </g>
    <g id="ytick_7">
     <g id="line2d_19">
      <path d="M 45.876031 52.668475 
L 621.15 52.668475 
" clip-path="url(#p390a1fa60a)" style="fill: none; stroke: #e6e1d6; stroke-width: 0.8; stroke-linecap: square"/>
     </g>
     <g id="line2d_20">
      <g>
       <use xlink:href="#mcd03d4adfc" x="45.876031" y="52.668475" style="fill: #555555; stroke: #555555; stroke-width: 0.8"/>
      </g>
     </g>
     <g id="text_14">
      <!-- 5 -->
      <g style="fill: #555555" transform="translate(32.869703 58.280725) scale(0.105 -0.105)">
       <defs>
        <path id="NotoNaskhArabic-Regular-4d1" d="M 1587 -64 
Q 826 -64 403 186 
L 403 717 
Q 634 576 960 496 
Q 1286 416 1594 416 
Q 2131 416 2425 672 
Q 2720 928 2720 1402 
Q 2720 2330 1574 2330 
Q 1210 2330 794 2234 
L 512 2413 
L 685 4570 
L 2976 4570 
L 2976 4058 
L 1165 4058 
L 1056 2733 
Q 1235 2765 1411 2784 
Q 1587 2803 1760 2803 
Q 2477 2803 2886 2444 
Q 3296 2086 3296 1459 
Q 3296 749 2841 342 
Q 2387 -64 1587 -64 
z
" transform="scale(0.015625)"/>
       </defs>
       <use xlink:href="#NotoNaskhArabic-Regular-4d1"/>
      </g>
     </g>
    </g>
    <g id="ytick_8">
     <g id="line2d_21">
      <path d="M 45.876031 19.235773 
L 621.15 19.235773 
" clip-path="url(#p390a1fa60a)" style="fill: none; stroke: #e6e1d6; stroke-width: 0.8; stroke-linecap: square"/>
     </g>
     <g id="line2d_22">
      <g>
       <use xlink:href="#mcd03d4adfc" x="45.876031" y="19.235773" style="fill: #555555; stroke: #555555; stroke-width: 0.8"/>
      </g>
     </g>
     <g id="text_15">
      <!-- 6 -->
      <g style="fill: #555555" transform="translate(32.869703 24.848023) scale(0.105 -0.105)">
       <use xlink:href="#NotoNaskhArabic-Regular-4d2"/>
      </g>
     </g>
    </g>
    <g id="text_16">
     <!-- ​(%) ﺭﺎﻌﺳﻷﺍ ﻲﻓ ﻱﻮﻨﺴﻟﺍ ﺮﻴﻐﺘﻟﺍ -->
     <g style="fill: #1f2937" transform="translate(18.4245 195.596234) rotate(-90) scale(0.105 -0.105)">
      <defs>
       <path id="NotoNaskhArabic-Regular-37" d="M 0 0 
Q -51 0 -51 51 
L -51 435 
Q -51 486 0 486 
Q 397 486 672 521 
Q 947 557 1062 640 
Q 1133 685 1229 841 
Q 1325 998 1510 1350 
Q 1568 1459 1709 1459 
Q 1786 1459 1869 1408 
Q 1830 1312 1763 1161 
Q 1696 1011 1638 883 
Q 1581 755 1555 730 
Q 1773 595 1958 540 
Q 2144 486 2362 486 
Q 2413 486 2413 435 
L 2413 51 
Q 2413 0 2362 0 
Q 1766 0 1350 371 
L 1248 237 
Q 1203 192 1001 134 
Q 800 77 528 38 
Q 256 0 0 0 
z
M 1728 2035 
Q 1587 2144 1481 2243 
Q 1376 2342 1306 2432 
Q 1338 2464 1440 2573 
Q 1542 2682 1715 2861 
Q 1754 2822 1853 2726 
Q 1952 2630 2112 2477 
Q 1990 2285 1728 2035 
z
M 768 1946 
Q 627 2061 518 2160 
Q 410 2259 339 2336 
Q 506 2496 755 2771 
Q 794 2726 890 2630 
Q 986 2534 1146 2387 
Q 1088 2291 992 2182 
Q 896 2074 768 1946 
z
" transform="scale(0.015625)"/>
       <path id="NotoNaskhArabic-Regular-13d" d="M 6 0 
Q -51 0 -51 58 
L -51 429 
Q -51 486 6 486 
Q 672 486 1101 640 
L 986 787 
Q 864 973 771 1094 
Q 678 1216 621 1280 
Q 506 1427 410 1491 
L 307 1427 
Q 192 1555 192 1709 
Q 192 1862 297 1974 
Q 403 2086 566 2172 
Q 730 2259 902 2310 
Q 1158 2394 1446 2394 
Q 1722 2394 1936 2288 
Q 2150 2182 2272 2003 
Q 2400 1824 2400 1594 
Q 2400 1293 2243 1049 
Q 2086 806 1830 602 
Q 2099 486 2694 486 
Q 2758 486 2758 429 
L 2758 58 
Q 2758 0 2694 0 
Q 2259 0 1955 83 
Q 1651 166 1402 346 
Q 1050 166 723 83 
Q 397 0 6 0 
z
M 1478 845 
Q 1696 992 1821 1152 
Q 1946 1312 1946 1459 
Q 1946 1638 1811 1753 
Q 1677 1869 1466 1869 
Q 1075 1869 710 1677 
Q 947 1491 1325 1018 
Q 1395 934 1478 845 
z
M 1363 2822 
Q 1082 3033 903 3238 
Q 1229 3565 1351 3705 
Q 1453 3597 1558 3491 
Q 1664 3385 1773 3289 
Q 1626 3078 1363 2822 
z
" transform="scale(0.015625)"/>
       <path id="NotoNaskhArabic-Regular-240" d="M 0 0 
Q -51 0 -51 51 
L -51 435 
Q -51 486 0 486 
Q 397 486 672 521 
Q 947 557 1062 640 
Q 1133 685 1229 841 
Q 1325 998 1510 1350 
Q 1568 1459 1709 1459 
Q 1786 1459 1869 1408 
Q 1830 1312 1763 1161 
Q 1696 1011 1638 883 
Q 1581 755 1555 730 
Q 1773 595 1958 540 
Q 2144 486 2362 486 
Q 2413 486 2413 435 
L 2413 51 
Q 2413 0 2362 0 
Q 1766 0 1350 371 
L 1248 237 
Q 1203 192 1001 134 
Q 800 77 528 38 
Q 256 0 0 0 
z
M 1728 -1165 
Q 1459 -953 1312 -774 
Q 1453 -640 1721 -345 
Q 1753 -371 1849 -467 
Q 1945 -563 2118 -729 
Q 2054 -819 1958 -928 
Q 1862 -1037 1728 -1165 
z
M 774 -1261 
Q 486 -1030 345 -870 
Q 435 -793 537 -684 
Q 640 -576 761 -435 
Q 787 -467 886 -563 
Q 985 -659 1152 -819 
Q 1094 -915 998 -1024 
Q 902 -1133 774 -1261 
z
" transform="scale(0.015625)"/>
       <path id="NotoNaskhArabic-Regular-f9" d="M 1446 0 
Q 1267 0 1030 57 
Q 794 115 666 198 
Q 576 109 397 54 
Q 218 0 0 0 
Q -51 0 -51 51 
L -51 435 
Q -51 486 0 486 
Q 326 486 518 634 
Q 627 723 681 809 
Q 736 896 858 1094 
Q 915 1197 1056 1197 
Q 1146 1197 1210 1152 
Q 1114 909 1046 765 
Q 979 621 947 570 
Q 998 544 1155 515 
Q 1312 486 1517 486 
Q 1664 486 1789 505 
Q 1914 525 2016 550 
Q 2061 621 2115 793 
Q 2170 966 2227 1145 
Q 2285 1325 2323 1408 
Q 2381 1536 2432 1574 
Q 2483 1613 2579 1613 
Q 2669 1613 2733 1568 
Q 2688 1466 2608 1235 
Q 2528 1005 2400 582 
Q 2496 538 2566 522 
Q 2637 506 2739 506 
Q 2906 506 3091 570 
Q 3123 608 3168 723 
Q 3213 838 3277 1030 
Q 3328 1190 3385 1331 
Q 3443 1472 3501 1568 
Q 3552 1664 3699 1664 
Q 3789 1664 3853 1619 
Q 3808 1517 3728 1289 
Q 3648 1062 3533 710 
Q 3757 589 3917 537 
Q 4077 486 4294 486 
Q 4352 486 4352 435 
L 4352 51 
Q 4352 0 4294 0 
Q 4045 0 3798 96 
Q 3552 192 3386 346 
Q 3366 301 3347 259 
Q 3328 218 3296 173 
Q 3251 96 3078 48 
Q 2906 0 2733 0 
Q 2438 0 2221 160 
Q 2176 102 2041 67 
Q 1907 32 1744 19 
Q 1581 6 1446 0 
z
" transform="scale(0.015625)"/>
       <path id="NotoNaskhArabic-Regular-1e9" d="M 0 0 
Q -51 0 -51 51 
L -51 435 
Q -51 486 0 486 
Q 467 486 666 666 
Q 723 717 812 870 
Q 902 1024 1075 1350 
Q 1133 1459 1274 1459 
Q 1350 1459 1434 1408 
Q 1363 1242 1286 1069 
Q 1210 896 1120 730 
Q 1344 595 1526 540 
Q 1709 486 1926 486 
Q 1978 486 1978 435 
L 1978 51 
Q 1978 0 1926 0 
Q 1331 0 915 378 
Q 890 339 864 304 
Q 838 269 806 237 
Q 742 154 502 77 
Q 262 0 0 0 
z
M 1004 2061 
Q 723 2272 544 2477 
Q 870 2804 992 2944 
Q 1094 2836 1199 2730 
Q 1305 2624 1414 2528 
Q 1267 2317 1004 2061 
z
" transform="scale(0.015625)"/>
       <path id="NotoNaskhArabic-Regular-219" d="M 1235 -1299 
Q 1101 -1299 905 -1238 
Q 710 -1178 521 -1082 
Q 333 -986 218 -890 
L 307 -678 
Q 646 -800 1088 -800 
Q 1485 -800 1792 -605 
Q 2099 -410 2310 6 
Q 1997 19 1763 44 
Q 1530 70 1376 115 
Q 1037 205 902 374 
Q 768 544 768 877 
Q 768 1203 899 1523 
Q 1030 1843 1242 2035 
Q 1453 2227 1670 2227 
Q 1933 2227 2163 1990 
Q 2394 1754 2534 1338 
Q 2605 1126 2637 918 
Q 2669 710 2669 486 
L 3053 486 
Q 3104 486 3104 435 
L 3104 51 
Q 3104 0 3053 0 
L 2605 0 
Q 2509 -365 2304 -669 
Q 2099 -973 1818 -1139 
Q 1542 -1299 1235 -1299 
z
M 2413 493 
Q 2362 826 2234 1094 
Q 2106 1363 1933 1523 
Q 1760 1683 1574 1683 
Q 1440 1683 1309 1580 
Q 1178 1478 1094 1331 
Q 1011 1184 1011 1062 
Q 1011 838 1177 720 
Q 1344 602 1632 550 
Q 1779 525 1968 515 
Q 2157 506 2413 493 
z
" transform="scale(0.015625)"/>
       <path id="NotoNaskhArabic-Regular-23e" d="M 1594 -1677 
Q 1050 -1677 742 -1363 
Q 435 -1050 435 -474 
Q 435 -346 444 -237 
Q 454 -128 480 9 
Q 506 147 557 358 
L 794 301 
Q 723 6 723 -154 
Q 723 -621 956 -883 
Q 1190 -1146 1606 -1146 
Q 1837 -1146 2105 -1091 
Q 2374 -1037 2636 -937 
Q 2899 -838 3098 -710 
Q 3405 -518 3501 -307 
Q 3418 -294 3338 -281 
Q 3258 -269 3168 -262 
Q 2682 -224 2445 -144 
Q 2208 -64 2080 115 
Q 1958 294 1958 582 
Q 1958 781 2051 1017 
Q 2144 1254 2310 1488 
Q 2477 1722 2682 1901 
Q 2995 2176 3245 2176 
Q 3462 2176 3571 2029 
Q 3680 1882 3738 1619 
L 3507 1555 
Q 3462 1619 3420 1635 
Q 3379 1651 3302 1651 
Q 3194 1651 3037 1571 
Q 2880 1491 2723 1353 
Q 2566 1216 2432 1050 
Q 2234 781 2189 557 
Q 2362 390 2893 314 
Q 3123 282 3283 240 
Q 3443 198 3539 134 
Q 3648 58 3689 -48 
Q 3731 -154 3731 -301 
Q 3731 -493 3568 -710 
Q 3405 -928 3133 -1126 
Q 2861 -1325 2522 -1466 
Q 2022 -1677 1594 -1677 
z
M 2266 -2682 
Q 1997 -2470 1850 -2291 
Q 1991 -2157 2259 -1862 
Q 2291 -1888 2387 -1984 
Q 2483 -2080 2656 -2246 
Q 2592 -2336 2496 -2445 
Q 2400 -2554 2266 -2682 
z
M 1312 -2778 
Q 1024 -2547 883 -2387 
Q 973 -2310 1075 -2201 
Q 1178 -2093 1299 -1952 
Q 1325 -1984 1424 -2080 
Q 1523 -2176 1690 -2336 
Q 1632 -2432 1536 -2541 
Q 1440 -2650 1312 -2778 
z
" transform="scale(0.015625)"/>
       <path id="NotoNaskhArabic-Regular-146" d="M 6 0 
Q -51 0 -51 58 
L -51 429 
Q -51 486 6 486 
Q 698 486 1174 569 
Q 1651 653 2054 832 
Q 2042 960 2019 1085 
Q 1997 1210 1971 1331 
Q 1773 1171 1536 1075 
Q 1299 979 1062 979 
Q 781 979 601 1193 
Q 422 1408 422 1728 
Q 422 2054 534 2342 
Q 646 2630 819 2797 
Q 1011 2970 1216 2970 
Q 1549 2970 1805 2730 
Q 2061 2490 2214 2054 
Q 2362 1613 2362 1114 
Q 2362 896 2138 461 
Q 1882 301 1587 198 
Q 1293 96 912 48 
Q 531 0 6 0 
z
M 1210 1466 
Q 1530 1466 1888 1626 
Q 1766 2016 1568 2221 
Q 1370 2426 1120 2426 
Q 928 2426 797 2250 
Q 666 2074 666 1856 
Q 666 1658 797 1562 
Q 928 1466 1210 1466 
z
M 1196 3347 
Q 915 3558 736 3763 
Q 1062 4090 1184 4230 
Q 1286 4122 1391 4016 
Q 1497 3910 1606 3814 
Q 1459 3603 1196 3347 
z
" transform="scale(0.015625)"/>
       <path id="NotoNaskhArabic-Regular-23f" d="M 1811 -1670 
Q 1152 -1670 793 -1356 
Q 435 -1043 435 -467 
Q 435 -339 444 -230 
Q 454 -122 480 16 
Q 506 154 557 365 
L 794 307 
Q 723 13 723 -147 
Q 723 -614 1020 -876 
Q 1318 -1139 1830 -1139 
Q 2413 -1139 2777 -1075 
Q 3142 -1011 3430 -890 
Q 3571 -832 3699 -755 
Q 3827 -678 3942 -576 
Q 3546 -365 3312 -227 
Q 3078 -90 2950 0 
Q 2803 115 2803 160 
Q 2803 218 2844 323 
Q 2886 429 2940 512 
Q 2995 595 3034 595 
Q 3258 550 3642 518 
Q 4026 486 4435 486 
Q 4506 486 4506 416 
L 4506 64 
Q 4506 0 4435 0 
Q 4218 0 3939 32 
Q 3661 64 3450 115 
Q 3590 32 3734 -45 
Q 3878 -122 4019 -198 
Q 4115 -256 4140 -352 
Q 4166 -448 4166 -576 
Q 4166 -736 4006 -909 
Q 3846 -1082 3561 -1235 
Q 3277 -1389 2899 -1504 
Q 2330 -1670 1811 -1670 
z
M 2394 -2682 
Q 2125 -2470 1978 -2291 
Q 2119 -2157 2387 -1862 
Q 2419 -1888 2515 -1984 
Q 2611 -2080 2784 -2246 
Q 2720 -2336 2624 -2445 
Q 2528 -2554 2394 -2682 
z
M 1440 -2778 
Q 1152 -2547 1011 -2387 
Q 1101 -2310 1203 -2201 
Q 1306 -2093 1427 -1952 
Q 1453 -1984 1552 -2080 
Q 1651 -2176 1818 -2336 
Q 1760 -2432 1664 -2541 
Q 1568 -2650 1440 -2778 
z
" transform="scale(0.015625)"/>
       <path id="NotoNaskhArabic-Regular-2e8" d="M 877 0 
Q 858 0 858 70 
Q 858 128 874 227 
Q 890 326 915 406 
Q 941 486 954 486 
L 1088 486 
Q 1376 710 1555 864 
Q 1734 1018 1862 1155 
Q 1990 1293 2118 1459 
Q 1830 1792 1472 2089 
Q 1114 2387 768 2586 
L 531 2573 
Q 224 2861 224 3123 
Q 224 3219 262 3312 
Q 301 3405 442 3475 
Q 621 3354 835 3181 
Q 1050 3008 1274 2813 
Q 1498 2618 1690 2426 
Q 1837 2285 1990 2118 
Q 2144 1952 2304 1766 
Q 2426 2048 2426 2317 
Q 2426 2451 2390 2745 
Q 2355 3040 2285 3501 
Q 2253 3718 2233 3846 
Q 2214 3974 2214 4000 
Q 2214 4326 2643 4403 
Q 2688 4205 2749 4016 
Q 2810 3827 2874 3642 
L 2701 3494 
L 2707 3360 
L 2746 2445 
Q 2746 1958 2502 1491 
Q 2566 1389 2646 1248 
Q 2726 1107 2803 963 
Q 2880 819 2931 704 
Q 2982 589 2982 538 
Q 2982 474 2947 374 
Q 2912 275 2867 195 
Q 2822 115 2790 109 
Q 2490 58 2013 29 
Q 1536 0 877 0 
z
M 1594 499 
Q 2157 518 2733 614 
Q 2662 742 2560 892 
Q 2458 1043 2323 1210 
Q 2189 1024 2003 845 
Q 1818 666 1594 499 
z
M -39 3699 
L -58 3948 
L 198 4089 
Q -39 4128 -39 4345 
Q -39 4467 31 4582 
Q 102 4697 214 4774 
Q 326 4851 435 4851 
Q 685 4851 685 4614 
Q 685 4524 640 4441 
L 518 4473 
L 525 4499 
Q 525 4531 499 4556 
Q 473 4582 441 4582 
Q 339 4582 259 4508 
Q 179 4435 141 4339 
Q 249 4211 448 4211 
Q 563 4211 761 4249 
L 749 4006 
Q 486 3942 316 3871 
Q 147 3801 -39 3699 
z
" transform="scale(0.015625)"/>
       <path id="NotoNaskhArabic-Regular-fa" d="M 1446 0 
Q 1261 0 1027 61 
Q 794 122 666 198 
Q 576 109 397 54 
Q 218 0 0 0 
Q -51 0 -51 51 
L -51 435 
Q -51 486 0 486 
Q 326 486 518 634 
Q 595 691 636 745 
Q 678 800 726 880 
Q 774 960 858 1094 
Q 915 1197 1056 1197 
Q 1146 1197 1210 1152 
Q 1114 909 1046 765 
Q 979 621 947 570 
Q 998 544 1155 515 
Q 1312 486 1517 486 
Q 1664 486 1789 505 
Q 1914 525 2016 550 
Q 2061 614 2115 784 
Q 2170 954 2224 1136 
Q 2278 1318 2323 1408 
Q 2381 1536 2429 1574 
Q 2477 1613 2579 1613 
Q 2669 1613 2733 1568 
Q 2688 1466 2617 1261 
Q 2547 1056 2451 755 
Q 2675 659 2848 604 
Q 3021 550 3193 528 
Q 3366 506 3584 506 
Q 3558 602 3497 768 
Q 3437 934 3373 1116 
Q 3309 1299 3261 1443 
Q 3213 1587 3213 1638 
Q 3213 1779 3325 1920 
Q 3437 2061 3635 2176 
Q 3661 1997 3721 1741 
Q 3782 1485 3833 1229 
Q 3885 973 3885 787 
Q 3885 717 3846 573 
Q 3808 429 3753 272 
Q 3699 115 3635 0 
Q 3226 0 2925 57 
Q 2624 115 2278 275 
Q 2259 224 2227 173 
Q 2189 109 2057 73 
Q 1926 38 1760 22 
Q 1594 6 1446 0 
z
" transform="scale(0.015625)"/>
       <path id="NotoNaskhArabic-Regular-135" d="M 6 0 
Q -51 0 -51 58 
L -51 429 
Q -51 486 6 486 
Q 672 486 1101 640 
L 986 787 
Q 864 973 771 1094 
Q 678 1216 621 1280 
Q 506 1427 410 1491 
L 307 1427 
Q 192 1555 192 1709 
Q 192 1862 297 1974 
Q 403 2086 566 2172 
Q 730 2259 902 2310 
Q 1158 2394 1446 2394 
Q 1722 2394 1936 2288 
Q 2150 2182 2272 2003 
Q 2400 1824 2400 1594 
Q 2400 1293 2243 1049 
Q 2086 806 1830 602 
Q 2099 486 2694 486 
Q 2758 486 2758 429 
L 2758 58 
Q 2758 0 2694 0 
Q 2259 0 1955 83 
Q 1651 166 1402 346 
Q 1050 166 723 83 
Q 397 0 6 0 
z
M 1478 845 
Q 1696 992 1821 1152 
Q 1946 1312 1946 1459 
Q 1946 1638 1811 1753 
Q 1677 1869 1466 1869 
Q 1075 1869 710 1677 
Q 947 1491 1325 1018 
Q 1395 934 1478 845 
z
" transform="scale(0.015625)"/>
       <path id="NotoNaskhArabic-Regular-4" d="M 1677 0 
Q 1299 0 1049 150 
Q 800 301 768 557 
Q 742 787 713 1072 
Q 685 1357 653 1747 
Q 621 2138 579 2672 
Q 538 3206 486 3936 
Q 576 4026 685 4118 
Q 794 4211 922 4294 
Q 941 3795 953 3308 
Q 966 2822 976 2281 
Q 986 1741 992 1082 
L 1011 653 
Q 1312 486 1677 486 
Q 1728 486 1728 435 
L 1728 51 
Q 1728 0 1677 0 
z
" transform="scale(0.015625)"/>
       <path id="NotoNaskhArabic-Regular-d3" d="M 710 -1306 
Q 608 -1306 451 -1248 
Q 294 -1190 134 -1107 
Q -26 -1024 -128 -947 
L -45 -736 
Q 134 -768 284 -787 
Q 435 -806 563 -806 
Q 1043 -806 1385 -518 
Q 1728 -230 1907 314 
Q 1862 416 1814 515 
Q 1766 614 1709 717 
Q 1491 1107 1388 1340 
Q 1286 1574 1286 1734 
Q 1286 1901 1382 2000 
Q 1478 2099 1658 2182 
Q 1696 2029 1789 1785 
Q 1882 1542 1946 1357 
Q 2029 1133 2086 915 
Q 2144 698 2144 518 
Q 2144 19 1955 -406 
Q 1766 -832 1440 -1069 
Q 1107 -1306 710 -1306 
z
" transform="scale(0.015625)"/>
       <path id="DejaVuSans-b" d="M 1984 4856 
Q 1566 4138 1362 3434 
Q 1159 2731 1159 2009 
Q 1159 1288 1364 580 
Q 1569 -128 1984 -844 
L 1484 -844 
Q 1016 -109 783 600 
Q 550 1309 550 2009 
Q 550 2706 781 3412 
Q 1013 4119 1484 4856 
L 1984 4856 
z
" transform="scale(0.015625)"/>
       <path id="DejaVuSans-8" d="M 4653 2053 
Q 4381 2053 4226 1822 
Q 4072 1591 4072 1178 
Q 4072 772 4226 539 
Q 4381 306 4653 306 
Q 4919 306 5073 539 
Q 5228 772 5228 1178 
Q 5228 1588 5073 1820 
Q 4919 2053 4653 2053 
z
M 4653 2450 
Q 5147 2450 5437 2106 
Q 5728 1763 5728 1178 
Q 5728 594 5436 251 
Q 5144 -91 4653 -91 
Q 4153 -91 3862 251 
Q 3572 594 3572 1178 
Q 3572 1766 3864 2108 
Q 4156 2450 4653 2450 
z
M 1428 4353 
Q 1159 4353 1004 4120 
Q 850 3888 850 3481 
Q 850 3069 1003 2837 
Q 1156 2606 1428 2606 
Q 1700 2606 1854 2837 
Q 2009 3069 2009 3481 
Q 2009 3884 1853 4118 
Q 1697 4353 1428 4353 
z
M 4250 4750 
L 4750 4750 
L 1831 -91 
L 1331 -91 
L 4250 4750 
z
M 1428 4750 
Q 1922 4750 2215 4408 
Q 2509 4066 2509 3481 
Q 2509 2891 2217 2550 
Q 1925 2209 1428 2209 
Q 931 2209 642 2551 
Q 353 2894 353 3481 
Q 353 4063 643 4406 
Q 934 4750 1428 4750 
z
" transform="scale(0.015625)"/>
       <path id="DejaVuSans-c" d="M 513 4856 
L 1013 4856 
Q 1481 4119 1714 3412 
Q 1947 2706 1947 2009 
Q 1947 1309 1714 600 
Q 1481 -109 1013 -844 
L 513 -844 
Q 928 -128 1133 580 
Q 1338 1288 1338 2009 
Q 1338 2731 1133 3434 
Q 928 4138 513 4856 
z
" transform="scale(0.015625)"/>
      </defs>
      <use xlink:href="#NotoNaskhArabic-Regular-3"/>
      <use xlink:href="#NotoNaskhArabic-Regular-1c1" transform="translate(23.796875 0)"/>
      <use xlink:href="#NotoNaskhArabic-Regular-37" transform="translate(45 0)"/>
      <use xlink:href="#NotoNaskhArabic-Regular-13d" transform="translate(81 0)"/>
      <use xlink:href="#NotoNaskhArabic-Regular-240" transform="translate(122.40625 0)"/>
      <use xlink:href="#NotoNaskhArabic-Regular-d4" transform="translate(158.40625 0)"/>
      <use xlink:href="#NotoNaskhArabic-Regular-554" transform="translate(198.8125 0)"/>
      <use xlink:href="#NotoNaskhArabic-Regular-3" transform="translate(220.90625 0)"/>
      <use xlink:href="#NotoNaskhArabic-Regular-1c1" transform="translate(244.703125 0)"/>
      <use xlink:href="#NotoNaskhArabic-Regular-f9" transform="translate(265.90625 0)"/>
      <use xlink:href="#NotoNaskhArabic-Regular-1e9" transform="translate(332.203125 0)"/>
      <use xlink:href="#NotoNaskhArabic-Regular-219" transform="translate(361.40625 0)"/>
      <use xlink:href="#NotoNaskhArabic-Regular-23e" transform="translate(408.203125 0)"/>
      <use xlink:href="#NotoNaskhArabic-Regular-554" transform="translate(470 0)"/>
      <use xlink:href="#NotoNaskhArabic-Regular-146" transform="translate(492.09375 0)"/>
      <use xlink:href="#NotoNaskhArabic-Regular-23f" transform="translate(534.09375 0)"/>
      <use xlink:href="#NotoNaskhArabic-Regular-554" transform="translate(602.796875 0)"/>
      <use xlink:href="#NotoNaskhArabic-Regular-3" transform="translate(624.890625 0)"/>
      <use xlink:href="#NotoNaskhArabic-Regular-2e8" transform="translate(648.6875 0)"/>
      <use xlink:href="#NotoNaskhArabic-Regular-fa" transform="translate(700.484375 0)"/>
      <use xlink:href="#NotoNaskhArabic-Regular-135" transform="translate(766.28125 0)"/>
      <use xlink:href="#NotoNaskhArabic-Regular-4" transform="translate(807.6875 0)"/>
      <use xlink:href="#NotoNaskhArabic-Regular-d3" transform="translate(832.984375 0)"/>
      <use xlink:href="#NotoNaskhArabic-Regular-554" transform="translate(871.578125 0)"/>
      <use xlink:href="#DejaVuSans-b" transform="translate(893.671875 0)"/>
      <use xlink:href="#DejaVuSans-8" transform="translate(932.6875 0)"/>
      <use xlink:href="#DejaVuSans-c" transform="translate(1027.703125 0)"/>
      <use xlink:href="#NotoNaskhArabic-Regular-554" transform="translate(1066.71875 0)"/>
     </g>
    </g>
   </g>
   <g id="line2d_23">
    <path d="M 72.024848 152.966581 
L 119.568151 147.951676 
L 167.111454 142.93677 
L 214.654758 137.921865 
L 262.198061 132.90696 
L 309.741364 127.892054 
L 357.284667 122.877149 
L 404.82797 117.862244 
L 452.371274 112.847338 
L 499.914577 107.832433 
L 547.45788 102.817528 
L 595.001183 97.802622 
" clip-path="url(#p390a1fa60a)" style="fill: none; stroke: #b91c1c; stroke-width: 2.2; stroke-linecap: square"/>
   </g>
   <g id="line2d_24">
    <path d="M 72.024848 19.235773 
L 119.568151 29.265583 
L 167.111454 39.295394 
L 214.654758 49.325205 
L 262.198061 59.355015 
L 309.741364 69.384826 
L 357.284667 79.414636 
L 404.82797 89.444447 
L 452.371274 99.474258 
L 499.914577 109.504068 
L 547.45788 119.533879 
L 595.001183 129.563689 
" clip-path="url(#p390a1fa60a)" style="fill: none; stroke: #b7791f; stroke-width: 2.2; stroke-linecap: square"/>
   </g>
   <g id="line2d_25">
    <path d="M 72.024848 186.399283 
L 119.568151 193.085823 
L 167.111454 199.772364 
L 214.654758 206.458904 
L 262.198061 213.145444 
L 309.741364 219.831985 
L 357.284667 226.518525 
L 404.82797 233.205066 
L 452.371274 239.891606 
L 499.914577 246.578146 
L 547.45788 253.264687 
L 595.001183 259.951227 
" clip-path="url(#p390a1fa60a)" style="fill: none; stroke: #1f2937; stroke-width: 2.2; stroke-linecap: square"/>
   </g>
   <g id="line2d_26">
    <path d="M 45.876031 219.831985 
L 621.15 219.831985 
" clip-path="url(#p390a1fa60a)" style="fill: none; stroke-dasharray: 1.2,1.98; stroke-dashoffset: 0; stroke: #8a8f98; stroke-width: 1.2"/>
   </g>
   <g id="patch_3">
    <path d="M 45.876031 271.987 
L 45.876031 7.2 
" style="fill: none; stroke: #1f2937; stroke-width: 0.8; stroke-linejoin: miter; stroke-linecap: square"/>
   </g>
   <g id="patch_4">
    <path d="M 45.876031 271.987 
L 621.15 271.987 
" style="fill: none; stroke: #1f2937; stroke-width: 0.8; stroke-linejoin: miter; stroke-linecap: square"/>
   </g>
   <g id="legend_1">
    <g id="line2d_27">
     <path d="M 488.350781 21.771 
L 497.350781 21.771 
L 506.350781 21.771 
" style="fill: none; stroke: #b91c1c; stroke-width: 2.2; stroke-linecap: square"/>
    </g>
    <g id="text_17">
     <!-- ​ﻉﺭﺎﺴﺘﻣ ﻢﺨﻀﺗ -->
     <g style="fill: #1f2937" transform="translate(513.550781 24.921) scale(0.09 -0.09)">
      <defs>
       <path id="NotoNaskhArabic-Regular-38" d="M 0 0 
Q -51 0 -51 51 
L -51 435 
Q -51 486 0 486 
Q 294 486 598 553 
Q 902 621 1133 723 
Q 1088 870 1030 1046 
Q 973 1222 902 1427 
Q 781 1747 781 1856 
Q 781 1997 893 2144 
Q 1005 2291 1197 2394 
Q 1210 2304 1248 2121 
Q 1286 1939 1344 1658 
Q 1440 1235 1440 1005 
Q 1440 909 1379 733 
Q 1318 557 1210 352 
Q 627 0 0 0 
z
M 1344 2803 
Q 1203 2912 1097 3011 
Q 992 3110 922 3200 
Q 954 3232 1056 3341 
Q 1158 3450 1331 3629 
Q 1370 3590 1469 3494 
Q 1568 3398 1728 3245 
Q 1606 3053 1344 2803 
z
M 384 2714 
Q 243 2829 134 2928 
Q 26 3027 -45 3104 
Q 122 3264 371 3539 
Q 410 3494 506 3398 
Q 602 3302 762 3155 
Q 704 3059 608 2950 
Q 512 2842 384 2714 
z
" transform="scale(0.015625)"/>
       <path id="NotoNaskhArabic-Regular-11d" d="M 2534 0 
Q 2227 0 1900 45 
Q 1574 90 1286 173 
Q 998 256 806 358 
Q 781 333 755 301 
Q 730 269 698 237 
Q 486 0 0 0 
Q -51 0 -51 51 
L -51 435 
Q -51 486 0 486 
Q 288 486 457 592 
Q 627 698 800 998 
Q 826 1043 848 1088 
Q 870 1133 896 1178 
Q 966 1286 1101 1286 
Q 1190 1286 1248 1229 
Q 1184 1069 1136 957 
Q 1088 845 1062 787 
Q 1139 749 1216 717 
Q 1293 685 1376 659 
Q 2003 1478 2528 1888 
Q 3040 2285 3469 2285 
Q 3648 2285 3913 2137 
Q 4179 1990 4390 1760 
Q 4595 1523 4595 1350 
Q 4595 966 4352 666 
Q 4634 486 5030 486 
Q 5088 486 5088 435 
L 5088 51 
Q 5088 0 5030 0 
Q 4755 0 4489 109 
Q 4224 218 4051 397 
Q 3872 282 3638 195 
Q 3405 109 3142 58 
Q 2848 0 2534 0 
z
M 2598 486 
Q 3430 486 4307 1037 
Q 4115 1376 3843 1561 
Q 3571 1747 3309 1747 
Q 3002 1747 2586 1452 
Q 2170 1158 1677 582 
Q 2176 486 2598 486 
z
M 2515 2880 
Q 2234 3091 2055 3296 
Q 2381 3623 2503 3763 
Q 2605 3655 2710 3549 
Q 2816 3443 2925 3347 
Q 2778 3136 2515 2880 
z
" transform="scale(0.015625)"/>
       <path id="NotoNaskhArabic-Regular-a3" d="M 0 0 
Q -51 0 -51 51 
L -51 435 
Q -51 486 0 486 
Q 602 486 1043 553 
Q 1485 621 1837 781 
Q 2253 966 2477 1011 
Q 2355 1069 2230 1142 
Q 2106 1216 1984 1306 
Q 1734 1491 1568 1564 
Q 1402 1638 1235 1638 
Q 1037 1638 902 1587 
Q 768 1536 531 1389 
Q 442 1491 442 1638 
Q 442 1882 653 2029 
Q 864 2176 1210 2176 
Q 1414 2176 1622 2096 
Q 1830 2016 2106 1824 
Q 2438 1600 2672 1481 
Q 2906 1363 3142 1312 
Q 3386 1254 3853 1254 
L 3603 781 
Q 3552 787 3440 793 
Q 3328 800 3213 813 
Q 3098 826 3021 832 
Q 3091 717 3171 646 
Q 3251 576 3379 544 
Q 3610 486 4314 486 
Q 4371 486 4371 435 
L 4371 51 
Q 4371 0 4314 0 
Q 3840 6 3549 73 
Q 3258 141 3072 288 
Q 2982 365 2896 483 
Q 2810 602 2733 762 
Q 2560 698 2387 598 
Q 2214 499 2042 410 
Q 1805 288 1603 208 
Q 1402 128 1181 83 
Q 960 38 678 19 
Q 397 0 0 0 
z
M 1894 2688 
Q 1613 2899 1434 3104 
Q 1760 3431 1882 3571 
Q 1984 3463 2089 3357 
Q 2195 3251 2304 3155 
Q 2157 2944 1894 2688 
z
" transform="scale(0.015625)"/>
       <path id="NotoNaskhArabic-Regular-1e3" d="M 634 -1952 
Q 608 -1587 579 -1212 
Q 550 -838 506 -448 
Q 474 -141 454 121 
Q 435 384 435 595 
Q 435 634 444 682 
Q 454 730 467 787 
Q 506 902 659 1229 
Q 672 1261 761 1334 
Q 851 1408 979 1497 
Q 1107 1587 1238 1676 
Q 1370 1766 1472 1830 
Q 1754 1997 1968 2086 
Q 2182 2176 2317 2176 
Q 2438 2176 2554 1978 
Q 2618 1875 2688 1715 
Q 2758 1555 2842 1331 
Q 2918 1114 2995 954 
Q 3072 794 3136 691 
Q 3283 486 3430 486 
Q 3501 486 3501 422 
L 3501 70 
Q 3501 0 3430 0 
Q 3117 0 2848 275 
L 2771 0 
Q 2330 0 1955 96 
Q 1581 192 1350 361 
Q 1120 531 1120 749 
Q 1120 954 1242 1190 
Q 947 992 704 806 
Q 749 275 915 -717 
Q 947 -966 985 -1216 
Q 1024 -1466 1062 -1715 
Q 966 -1779 860 -1840 
Q 755 -1901 634 -1952 
z
M 2726 442 
Q 2586 666 2474 1005 
Q 2362 1344 2330 1690 
Q 2150 1600 1974 1462 
Q 1798 1325 1660 1171 
Q 1523 1018 1459 883 
Q 1875 531 2726 442 
z
" transform="scale(0.015625)"/>
       <path id="NotoNaskhArabic-Regular-1e5" d="M 2291 0 
Q 2035 0 1753 48 
Q 1472 96 1209 182 
Q 947 269 749 384 
Q 602 179 422 89 
Q 243 0 0 0 
Q -51 0 -51 51 
L -51 435 
Q -51 486 0 486 
Q 243 486 409 604 
Q 576 723 698 960 
Q 813 1171 880 1308 
Q 947 1446 1004 1555 
Q 1062 1664 1152 1779 
Q 1312 1990 1478 2083 
Q 1645 2176 1830 2176 
Q 2016 2176 2201 1945 
Q 2387 1715 2502 1357 
Q 2618 1005 2618 666 
Q 2618 467 2547 307 
Q 2477 147 2291 0 
z
M 2150 486 
Q 2144 781 2061 1065 
Q 1978 1350 1875 1498 
Q 1805 1606 1728 1606 
Q 1491 1606 1286 1318 
Q 1235 1242 1161 1117 
Q 1088 992 998 806 
Q 1459 563 2150 486 
z
" transform="scale(0.015625)"/>
       <path id="NotoNaskhArabic-Regular-133" d="M 2381 -1830 
Q 1882 -1830 1510 -1660 
Q 1139 -1491 934 -1177 
Q 730 -864 730 -448 
Q 730 269 1248 826 
Q 1050 883 867 1024 
Q 685 1165 576 1344 
Q 467 1517 467 1734 
Q 467 2010 614 2307 
Q 762 2605 998 2784 
Q 1222 2970 1491 2970 
Q 1715 2970 1900 2874 
Q 2086 2778 2368 2547 
L 2259 2342 
Q 1875 2458 1651 2458 
Q 1254 2458 832 2227 
Q 832 1850 1094 1600 
Q 1357 1350 1824 1274 
Q 2298 1562 2944 1773 
Q 3014 1670 3014 1574 
Q 3014 1491 2976 1420 
Q 2938 1350 2842 1280 
Q 2752 1216 2611 1152 
Q 2470 1088 2304 1024 
Q 1824 819 1545 614 
Q 1267 410 1120 186 
Q 1043 58 1001 -73 
Q 960 -205 960 -346 
Q 960 -800 1325 -1049 
Q 1690 -1299 2400 -1299 
Q 2560 -1299 2707 -1292 
Q 2854 -1286 2995 -1274 
Q 3245 -1254 3478 -1216 
Q 3712 -1178 3955 -1120 
L 4026 -1338 
Q 3136 -1830 2381 -1830 
z
" transform="scale(0.015625)"/>
      </defs>
      <use xlink:href="#NotoNaskhArabic-Regular-38"/>
      <use xlink:href="#NotoNaskhArabic-Regular-11d" transform="translate(27.5 0)"/>
      <use xlink:href="#NotoNaskhArabic-Regular-a3" transform="translate(105.296875 0)"/>
      <use xlink:href="#NotoNaskhArabic-Regular-1e3" transform="translate(171.890625 0)"/>
      <use xlink:href="#NotoNaskhArabic-Regular-554" transform="translate(224.6875 0)"/>
      <use xlink:href="#NotoNaskhArabic-Regular-1e5" transform="translate(246.78125 0)"/>
      <use xlink:href="#NotoNaskhArabic-Regular-37" transform="translate(292.375 0)"/>
      <use xlink:href="#NotoNaskhArabic-Regular-f9" transform="translate(328.375 0)"/>
      <use xlink:href="#NotoNaskhArabic-Regular-4" transform="translate(394.671875 0)"/>
      <use xlink:href="#NotoNaskhArabic-Regular-d3" transform="translate(419.96875 0)"/>
      <use xlink:href="#NotoNaskhArabic-Regular-133" transform="translate(458.5625 0)"/>
      <use xlink:href="#NotoNaskhArabic-Regular-554" transform="translate(518.96875 0)"/>
     </g>
    </g>
    <g id="line2d_28">
     <path d="M 488.350781 41.598 
L 497.350781 41.598 
L 506.350781 41.598 
" style="fill: none; stroke: #b7791f; stroke-width: 2.2; stroke-linecap: square"/>
    </g>
    <g id="text_18">
     <!-- ​(Disinflation) ﻢﺨﻀﺗ ﺆﻃﺎﺒﺗ -->
     <g style="fill: #1f2937" transform="translate(513.550781 44.748) scale(0.09 -0.09)">
      <defs>
       <path id="DejaVuSans-27" d="M 1259 4147 
L 1259 519 
L 2022 519 
Q 2988 519 3436 956 
Q 3884 1394 3884 2338 
Q 3884 3275 3436 3711 
Q 2988 4147 2022 4147 
L 1259 4147 
z
M 628 4666 
L 1925 4666 
Q 3281 4666 3915 4102 
Q 4550 3538 4550 2338 
Q 4550 1131 3912 565 
Q 3275 0 1925 0 
L 628 0 
L 628 4666 
z
" transform="scale(0.015625)"/>
       <path id="DejaVuSans-4c" d="M 603 3500 
L 1178 3500 
L 1178 0 
L 603 0 
L 603 3500 
z
M 603 4863 
L 1178 4863 
L 1178 4134 
L 603 4134 
L 603 4863 
z
" transform="scale(0.015625)"/>
       <path id="DejaVuSans-56" d="M 2834 3397 
L 2834 2853 
Q 2591 2978 2328 3040 
Q 2066 3103 1784 3103 
Q 1356 3103 1142 2972 
Q 928 2841 928 2578 
Q 928 2378 1081 2264 
Q 1234 2150 1697 2047 
L 1894 2003 
Q 2506 1872 2764 1633 
Q 3022 1394 3022 966 
Q 3022 478 2636 193 
Q 2250 -91 1575 -91 
Q 1294 -91 989 -36 
Q 684 19 347 128 
L 347 722 
Q 666 556 975 473 
Q 1284 391 1588 391 
Q 1994 391 2212 530 
Q 2431 669 2431 922 
Q 2431 1156 2273 1281 
Q 2116 1406 1581 1522 
L 1381 1569 
Q 847 1681 609 1914 
Q 372 2147 372 2553 
Q 372 3047 722 3315 
Q 1072 3584 1716 3584 
Q 2034 3584 2315 3537 
Q 2597 3491 2834 3397 
z
" transform="scale(0.015625)"/>
       <path id="DejaVuSans-51" d="M 3513 2113 
L 3513 0 
L 2938 0 
L 2938 2094 
Q 2938 2591 2744 2837 
Q 2550 3084 2163 3084 
Q 1697 3084 1428 2787 
Q 1159 2491 1159 1978 
L 1159 0 
L 581 0 
L 581 3500 
L 1159 3500 
L 1159 2956 
Q 1366 3272 1645 3428 
Q 1925 3584 2291 3584 
Q 2894 3584 3203 3211 
Q 3513 2838 3513 2113 
z
" transform="scale(0.015625)"/>
       <path id="DejaVuSans-13b0" d="M 1831 4863 
L 3431 4863 
L 3431 0 
L 2853 0 
L 2853 4384 
L 1825 4384 
Q 1516 4384 1395 4259 
Q 1275 4134 1275 3809 
L 1275 3500 
L 2222 3500 
L 2222 3053 
L 1275 3053 
L 1275 0 
L 697 0 
L 697 3053 
L 147 3053 
L 147 3500 
L 697 3500 
L 697 3744 
Q 697 4328 969 4595 
Q 1241 4863 1831 4863 
z
" transform="scale(0.015625)"/>
       <path id="DejaVuSans-44" d="M 2194 1759 
Q 1497 1759 1228 1600 
Q 959 1441 959 1056 
Q 959 750 1161 570 
Q 1363 391 1709 391 
Q 2188 391 2477 730 
Q 2766 1069 2766 1631 
L 2766 1759 
L 2194 1759 
z
M 3341 1997 
L 3341 0 
L 2766 0 
L 2766 531 
Q 2569 213 2275 61 
Q 1981 -91 1556 -91 
Q 1019 -91 701 211 
Q 384 513 384 1019 
Q 384 1609 779 1909 
Q 1175 2209 1959 2209 
L 2766 2209 
L 2766 2266 
Q 2766 2663 2505 2880 
Q 2244 3097 1772 3097 
Q 1472 3097 1187 3025 
Q 903 2953 641 2809 
L 641 3341 
Q 956 3463 1253 3523 
Q 1550 3584 1831 3584 
Q 2591 3584 2966 3190 
Q 3341 2797 3341 1997 
z
" transform="scale(0.015625)"/>
       <path id="DejaVuSans-57" d="M 1172 4494 
L 1172 3500 
L 2356 3500 
L 2356 3053 
L 1172 3053 
L 1172 1153 
Q 1172 725 1289 603 
Q 1406 481 1766 481 
L 2356 481 
L 2356 0 
L 1766 0 
Q 1100 0 847 248 
Q 594 497 594 1153 
L 594 3053 
L 172 3053 
L 172 3500 
L 594 3500 
L 594 4494 
L 1172 4494 
z
" transform="scale(0.015625)"/>
       <path id="DejaVuSans-52" d="M 1959 3097 
Q 1497 3097 1228 2736 
Q 959 2375 959 1747 
Q 959 1119 1226 758 
Q 1494 397 1959 397 
Q 2419 397 2687 759 
Q 2956 1122 2956 1747 
Q 2956 2369 2687 2733 
Q 2419 3097 1959 3097 
z
M 1959 3584 
Q 2709 3584 3137 3096 
Q 3566 2609 3566 1747 
Q 3566 888 3137 398 
Q 2709 -91 1959 -91 
Q 1206 -91 779 398 
Q 353 888 353 1747 
Q 353 2609 779 3096 
Q 1206 3584 1959 3584 
z
" transform="scale(0.015625)"/>
       <path id="NotoNaskhArabic-Regular-25" d="M 0 0 
Q -51 0 -51 51 
L -51 435 
Q -51 486 0 486 
Q 467 486 666 666 
Q 723 717 812 870 
Q 902 1024 1075 1350 
Q 1133 1459 1274 1459 
Q 1350 1459 1434 1408 
Q 1363 1242 1286 1069 
Q 1210 896 1120 730 
Q 1344 595 1526 540 
Q 1709 486 1926 486 
Q 1978 486 1978 435 
L 1978 51 
Q 1978 0 1926 0 
Q 1331 0 915 378 
Q 890 339 864 304 
Q 838 269 806 237 
Q 742 154 502 77 
Q 262 0 0 0 
z
M 1037 -1325 
Q 896 -1216 780 -1110 
Q 665 -1005 576 -902 
Q 864 -627 1024 -435 
Q 1248 -672 1446 -857 
Q 1293 -1069 1037 -1325 
z
" transform="scale(0.015625)"/>
       <path id="NotoNaskhArabic-Regular-126" d="M 0 0 
Q -51 0 -51 51 
L -51 435 
Q -51 486 0 486 
L 531 493 
L 550 493 
Q 653 634 755 768 
Q 858 902 960 1030 
Q 755 2176 652 2851 
Q 550 3526 544 3789 
Q 544 4000 643 4121 
Q 742 4243 966 4294 
Q 1005 4147 1037 4038 
Q 1069 3930 1107 3814 
Q 1146 3699 1197 3533 
L 1030 3392 
Q 1037 3322 1053 3146 
Q 1069 2970 1091 2762 
Q 1114 2554 1133 2378 
Q 1152 2202 1158 2131 
Q 1190 1882 1203 1642 
Q 1216 1402 1222 1331 
Q 1677 1830 2077 2096 
Q 2477 2362 2771 2362 
Q 2950 2362 3216 2214 
Q 3482 2067 3693 1837 
Q 3898 1600 3898 1427 
Q 3898 493 2189 166 
Q 1760 83 1213 41 
Q 666 0 0 0 
z
M 909 499 
Q 1542 525 2003 585 
Q 2464 646 2758 755 
Q 2906 806 3117 905 
Q 3328 1005 3603 1146 
Q 3418 1466 3155 1648 
Q 2893 1830 2611 1830 
Q 2323 1830 1875 1478 
Q 1427 1126 909 499 
z
" transform="scale(0.015625)"/>
       <path id="NotoNaskhArabic-Regular-221" d="M 1235 -1299 
Q 1101 -1299 905 -1238 
Q 710 -1178 521 -1082 
Q 333 -986 218 -890 
L 307 -678 
Q 646 -800 1088 -800 
Q 1485 -800 1792 -605 
Q 2099 -410 2310 6 
Q 1997 19 1763 44 
Q 1530 70 1376 115 
Q 1037 205 902 374 
Q 768 544 768 877 
Q 768 1203 899 1523 
Q 1030 1843 1242 2035 
Q 1453 2227 1670 2227 
Q 1933 2227 2163 1990 
Q 2394 1754 2534 1338 
Q 2605 1126 2637 918 
Q 2669 710 2669 486 
L 3053 486 
Q 3104 486 3104 435 
L 3104 51 
Q 3104 0 3053 0 
L 2605 0 
Q 2509 -365 2304 -669 
Q 2099 -973 1818 -1139 
Q 1542 -1299 1235 -1299 
z
M 2413 493 
Q 2362 826 2234 1094 
Q 2106 1363 1933 1523 
Q 1760 1683 1574 1683 
Q 1440 1683 1309 1580 
Q 1178 1478 1094 1331 
Q 1011 1184 1011 1062 
Q 1011 838 1177 720 
Q 1344 602 1632 550 
Q 1779 525 1968 515 
Q 2157 506 2413 493 
z
M 1142 2331 
L 1122 2605 
L 1403 2760 
Q 1142 2803 1142 3042 
Q 1142 3176 1219 3302 
Q 1297 3429 1420 3513 
Q 1544 3598 1664 3598 
Q 1939 3598 1939 3338 
Q 1939 3239 1889 3147 
L 1755 3183 
L 1763 3211 
Q 1763 3246 1734 3274 
Q 1706 3303 1670 3303 
Q 1558 3303 1470 3222 
Q 1382 3141 1340 3035 
Q 1459 2894 1678 2894 
Q 1805 2894 2022 2936 
L 2009 2669 
Q 1720 2599 1533 2521 
Q 1347 2443 1142 2331 
z
" transform="scale(0.015625)"/>
      </defs>
      <use xlink:href="#NotoNaskhArabic-Regular-554"/>
      <use xlink:href="#DejaVuSans-b"/>
      <use xlink:href="#DejaVuSans-27" transform="translate(39.015625 0)"/>
      <use xlink:href="#DejaVuSans-4c" transform="translate(116.015625 0)"/>
      <use xlink:href="#DejaVuSans-56" transform="translate(143.796875 0)"/>
      <use xlink:href="#DejaVuSans-4c" transform="translate(195.890625 0)"/>
      <use xlink:href="#DejaVuSans-51" transform="translate(223.671875 0)"/>
      <use xlink:href="#DejaVuSans-13b0" transform="translate(287.046875 0)"/>
      <use xlink:href="#DejaVuSans-44" transform="translate(350.03125 0)"/>
      <use xlink:href="#DejaVuSans-57" transform="translate(411.3125 0)"/>
      <use xlink:href="#DejaVuSans-4c" transform="translate(450.515625 0)"/>
      <use xlink:href="#DejaVuSans-52" transform="translate(478.296875 0)"/>
      <use xlink:href="#DejaVuSans-51" transform="translate(539.484375 0)"/>
      <use xlink:href="#DejaVuSans-c" transform="translate(602.859375 0)"/>
      <use xlink:href="#NotoNaskhArabic-Regular-554" transform="translate(641.875 0)"/>
      <use xlink:href="#NotoNaskhArabic-Regular-38" transform="translate(663.96875 0)"/>
      <use xlink:href="#NotoNaskhArabic-Regular-25" transform="translate(691.46875 0)"/>
      <use xlink:href="#NotoNaskhArabic-Regular-4" transform="translate(720.671875 0)"/>
      <use xlink:href="#NotoNaskhArabic-Regular-126" transform="translate(745.96875 0)"/>
      <use xlink:href="#NotoNaskhArabic-Regular-221" transform="translate(811.96875 0)"/>
      <use xlink:href="#NotoNaskhArabic-Regular-554" transform="translate(858.765625 0)"/>
      <use xlink:href="#NotoNaskhArabic-Regular-38" transform="translate(880.859375 0)"/>
      <use xlink:href="#NotoNaskhArabic-Regular-11d" transform="translate(908.359375 0)"/>
      <use xlink:href="#NotoNaskhArabic-Regular-a3" transform="translate(986.15625 0)"/>
      <use xlink:href="#NotoNaskhArabic-Regular-1e3" transform="translate(1052.75 0)"/>
     </g>
    </g>
    <g id="line2d_29">
     <path d="M 488.350781 61.425 
L 497.350781 61.425 
L 506.350781 61.425 
" style="fill: none; stroke: #1f2937; stroke-width: 2.2; stroke-linecap: square"/>
    </g>
    <g id="text_19">
     <!-- ​(Deflation) ﺵﺎﻤﻜﻧﺍ -->
     <g style="fill: #1f2937" transform="translate(513.550781 64.575) scale(0.09 -0.09)">
      <defs>
       <path id="DejaVuSans-48" d="M 3597 1894 
L 3597 1613 
L 953 1613 
Q 991 1019 1311 708 
Q 1631 397 2203 397 
Q 2534 397 2845 478 
Q 3156 559 3463 722 
L 3463 178 
Q 3153 47 2828 -22 
Q 2503 -91 2169 -91 
Q 1331 -91 842 396 
Q 353 884 353 1716 
Q 353 2575 817 3079 
Q 1281 3584 2069 3584 
Q 2775 3584 3186 3129 
Q 3597 2675 3597 1894 
z
M 3022 2063 
Q 3016 2534 2758 2815 
Q 2500 3097 2075 3097 
Q 1594 3097 1305 2825 
Q 1016 2553 972 2059 
L 3022 2063 
z
" transform="scale(0.015625)"/>
       <path id="NotoNaskhArabic-Regular-1ea" d="M 0 0 
Q -51 0 -51 51 
L -51 435 
Q -51 486 0 486 
Q 294 486 598 553 
Q 902 621 1133 723 
Q 1088 870 1030 1046 
Q 973 1222 902 1427 
Q 781 1747 781 1856 
Q 781 1997 893 2144 
Q 1005 2291 1197 2394 
Q 1210 2304 1248 2121 
Q 1286 1939 1344 1658 
Q 1440 1235 1440 1005 
Q 1440 909 1379 733 
Q 1318 557 1210 352 
Q 627 0 0 0 
z
M 876 2829 
Q 595 3040 416 3245 
Q 742 3572 864 3712 
Q 966 3604 1071 3498 
Q 1177 3392 1286 3296 
Q 1139 3085 876 2829 
z
" transform="scale(0.015625)"/>
       <path id="NotoNaskhArabic-Regular-175" d="M 0 0 
Q -51 0 -51 51 
L -51 435 
Q -51 486 0 486 
Q 787 486 1363 653 
Q 1606 717 1888 864 
Q 1754 1274 1344 1619 
Q 1024 1894 550 2118 
Q 275 2253 140 2371 
Q 6 2490 6 2656 
Q 6 2886 134 3014 
Q 275 3155 867 3427 
Q 1459 3699 2656 4186 
Q 2752 4090 2752 3942 
Q 2752 3795 2688 3712 
Q 2624 3629 2483 3571 
Q 1939 3347 1398 3120 
Q 858 2893 307 2669 
Q 774 2547 1200 2284 
Q 1626 2022 1875 1690 
Q 2144 1344 2144 1050 
Q 2144 909 2106 794 
Q 2490 486 2989 486 
Q 3046 486 3046 435 
L 3046 51 
Q 3046 0 2989 0 
Q 2682 0 2403 112 
Q 2125 224 1901 467 
Q 1856 422 1798 380 
Q 1741 339 1677 301 
Q 1146 0 0 0 
z
" transform="scale(0.015625)"/>
       <path id="NotoNaskhArabic-Regular-1e4" d="M 2016 0 
Q 1414 0 902 192 
Q 595 77 400 38 
Q 205 0 0 0 
Q -51 0 -51 51 
L -51 435 
Q -51 486 0 486 
Q 109 486 211 505 
Q 314 525 416 550 
Q 371 640 371 749 
Q 371 928 460 1152 
Q 550 1376 700 1590 
Q 851 1805 1037 1952 
Q 1318 2176 1568 2176 
Q 1677 2176 1760 2051 
Q 1843 1926 1926 1734 
Q 1971 1645 2009 1542 
Q 2048 1440 2086 1331 
Q 2163 1114 2252 928 
Q 2342 742 2445 614 
Q 2554 486 2682 486 
Q 2752 486 2752 422 
L 2752 70 
Q 2752 0 2682 0 
Q 2362 0 2099 282 
L 2016 0 
z
M 1978 442 
Q 1837 646 1728 979 
Q 1619 1312 1581 1683 
Q 1421 1613 1241 1475 
Q 1062 1338 918 1178 
Q 774 1018 704 877 
Q 1133 525 1978 442 
z
" transform="scale(0.015625)"/>
       <path id="NotoNaskhArabic-Regular-103" d="M 1594 -1677 
Q 1050 -1677 742 -1363 
Q 435 -1050 435 -474 
Q 435 -346 444 -237 
Q 454 -128 480 9 
Q 506 147 557 358 
L 794 301 
Q 723 6 723 -154 
Q 723 -621 956 -883 
Q 1190 -1146 1606 -1146 
Q 1926 -1146 2249 -1040 
Q 2573 -934 2829 -752 
Q 3085 -570 3187 -346 
Q 2976 109 2873 416 
Q 2771 723 2771 877 
Q 2771 1043 2864 1174 
Q 2957 1306 3187 1446 
Q 3200 1357 3216 1251 
Q 3232 1146 3264 982 
Q 3296 819 3347 544 
Q 3539 486 3731 486 
Q 3910 486 4051 505 
Q 4192 525 4294 550 
Q 4339 627 4371 736 
Q 4525 1254 4595 1402 
Q 4646 1530 4697 1571 
Q 4749 1613 4851 1613 
Q 4941 1613 5005 1568 
Q 4960 1472 4889 1270 
Q 4819 1069 4730 755 
Q 5050 614 5306 560 
Q 5562 506 5856 506 
Q 5818 634 5760 810 
Q 5702 986 5613 1203 
Q 5485 1549 5485 1638 
Q 5485 1779 5597 1923 
Q 5709 2067 5907 2176 
Q 5933 2022 5981 1804 
Q 6029 1587 6061 1440 
Q 6099 1267 6128 1100 
Q 6157 934 6157 787 
Q 6157 723 6121 579 
Q 6086 435 6032 278 
Q 5978 122 5914 0 
Q 5504 0 5203 57 
Q 4902 115 4557 275 
L 4499 173 
Q 4454 96 4211 45 
Q 4096 19 3958 9 
Q 3821 0 3654 0 
Q 3597 0 3539 3 
Q 3482 6 3424 13 
L 3424 -109 
Q 3424 -499 3174 -860 
Q 2925 -1222 2490 -1446 
Q 2061 -1677 1594 -1677 
z
M 4621 2605 
Q 4454 2707 4262 2918 
Q 4358 3014 4444 3103 
Q 4531 3193 4602 3277 
Q 4717 3123 4954 2918 
Q 4768 2701 4621 2605 
z
M 5075 2080 
Q 4864 2246 4698 2432 
Q 4755 2483 4851 2582 
Q 4947 2681 5069 2822 
Q 5158 2733 5244 2643 
Q 5331 2553 5421 2470 
Q 5357 2381 5273 2281 
Q 5190 2182 5075 2080 
z
M 4166 1997 
Q 4045 2093 3949 2182 
Q 3853 2272 3782 2349 
Q 3936 2489 4154 2739 
Q 4218 2662 4506 2387 
Q 4448 2304 4365 2204 
Q 4282 2105 4166 1997 
z
" transform="scale(0.015625)"/>
      </defs>
      <use xlink:href="#NotoNaskhArabic-Regular-554"/>
      <use xlink:href="#DejaVuSans-b"/>
      <use xlink:href="#DejaVuSans-27" transform="translate(39.015625 0)"/>
      <use xlink:href="#DejaVuSans-48" transform="translate(116.015625 0)"/>
      <use xlink:href="#DejaVuSans-13b0" transform="translate(177.546875 0)"/>
      <use xlink:href="#DejaVuSans-44" transform="translate(240.53125 0)"/>
      <use xlink:href="#DejaVuSans-57" transform="translate(301.8125 0)"/>
      <use xlink:href="#DejaVuSans-4c" transform="translate(341.015625 0)"/>
      <use xlink:href="#DejaVuSans-52" transform="translate(368.796875 0)"/>
      <use xlink:href="#DejaVuSans-51" transform="translate(429.984375 0)"/>
      <use xlink:href="#DejaVuSans-c" transform="translate(493.359375 0)"/>
      <use xlink:href="#NotoNaskhArabic-Regular-554" transform="translate(532.375 0)"/>
      <use xlink:href="#NotoNaskhArabic-Regular-3" transform="translate(554.46875 0)"/>
      <use xlink:href="#NotoNaskhArabic-Regular-1ea" transform="translate(578.265625 0)"/>
      <use xlink:href="#NotoNaskhArabic-Regular-175" transform="translate(605.765625 0)"/>
      <use xlink:href="#NotoNaskhArabic-Regular-1e4" transform="translate(651.671875 0)"/>
      <use xlink:href="#NotoNaskhArabic-Regular-4" transform="translate(692.96875 0)"/>
      <use xlink:href="#NotoNaskhArabic-Regular-103" transform="translate(718.265625 0)"/>
     </g>
    </g>
   </g>
  </g>
 </g>
 <defs>
  <clipPath id="p390a1fa60a">
   <rect x="45.876031" y="7.2" width="575.273969" height="264.787"/>
  </clipPath>
 </defs>
</svg>
