<?xml version="1.0" encoding="utf-8" standalone="no"?>
<!DOCTYPE svg PUBLIC "-//W3C//DTD SVG 1.1//EN"
  "http://www.w3.org/Graphics/SVG/1.1/DTD/svg11.dtd">
<svg xmlns:xlink="http://www.w3.org/1999/xlink" width="628.35pt" height="340.35pt" viewBox="0 0 628.35 340.35" xmlns="http://www.w3.org/2000/svg" version="1.1">
 <metadata>
  <rdf:RDF xmlns:dc="http://purl.org/dc/elements/1.1/" xmlns:cc="http://creativecommons.org/ns#" xmlns:rdf="http://www.w3.org/1999/02/22-rdf-syntax-ns#">
   <cc:Work>
    <dc:type rdf:resource="http://purl.org/dc/dcmitype/StillImage"/>
    <dc:date>2026-07-19T00:33:11.236286</dc:date>
    <dc:format>image/svg+xml</dc:format>
    <dc:creator>
     <cc:Agent>
      <dc:title>Matplotlib v3.11.1, https://matplotlib.org/</dc:title>
     </cc:Agent>
    </dc:creator>
   </cc:Work>
  </rdf:RDF>
 </metadata>
 <defs>
  <style type="text/css">*{stroke-linejoin: round; stroke-linecap: butt}</style>
 </defs>
 <g id="figure_1">
  <g id="patch_1">
   <path d="M 0 340.35 
L 628.35 340.35 
L 628.35 0 
L 0 0 
z
" style="fill: #ffffff"/>
  </g>
  <g id="axes_1">
   <g id="patch_2">
    <path d="M 7.2 308.12 
L 569.101016 308.12 
L 569.101016 7.2 
L 7.2 7.2 
z
" style="fill: #ffffff"/>
   </g>
   <g id="matplotlib.axis_1">
    <g id="text_1">
     <!-- ​ﻦﻣﺰﻟﺍ -->
     <g style="fill: #1f2937" transform="translate(278.675508 326.81) scale(0.1 -0.1)">
      <defs>
       <path id="NotoNaskhArabic-Regular-3" d="M 666 0 
Q 646 1126 604 2057 
Q 563 2989 493 3725 
Q 467 3987 566 4118 
Q 666 4250 915 4294 
Q 941 4173 1001 3965 
Q 1062 3757 1139 3533 
L 966 3386 
Q 992 2912 1001 2413 
Q 1011 1914 1001 1338 
Q 992 762 960 51 
L 666 0 
z
" transform="scale(0.015625)"/>
       <path id="NotoNaskhArabic-Regular-1c1" d="M -6 0 
Q -64 0 -64 51 
L -64 435 
Q -64 486 -6 486 
Q 378 486 704 659 
Q 685 902 665 1139 
Q 646 1376 627 1606 
Q 570 2208 512 2790 
Q 454 3373 384 3936 
Q 474 4032 579 4121 
Q 685 4211 806 4294 
Q 826 3949 851 3497 
Q 877 3046 915 2483 
Q 947 2016 960 1609 
Q 973 1203 979 864 
Q 979 755 915 572 
Q 851 390 755 224 
Q 640 0 -6 0 
z
" transform="scale(0.015625)"/>
       <path id="NotoNaskhArabic-Regular-d6" d="M 710 -1306 
Q 608 -1306 451 -1248 
Q 294 -1190 134 -1107 
Q -26 -1024 -128 -947 
L -45 -736 
Q 134 -768 284 -787 
Q 435 -806 563 -806 
Q 1043 -806 1385 -518 
Q 1728 -230 1907 314 
Q 1862 416 1814 515 
Q 1766 614 1709 717 
Q 1491 1107 1388 1340 
Q 1286 1574 1286 1734 
Q 1286 1901 1382 2000 
Q 1478 2099 1658 2182 
Q 1683 2099 1712 2000 
Q 1741 1901 1786 1792 
Q 1888 1530 1955 1334 
Q 2022 1139 2054 1018 
Q 2093 896 2115 797 
Q 2138 698 2144 614 
Q 2362 486 2643 486 
Q 2694 486 2694 435 
L 2694 51 
Q 2694 0 2643 0 
Q 2342 0 2118 154 
Q 2048 -288 1849 -617 
Q 1651 -947 1356 -1126 
Q 1062 -1306 710 -1306 
z
M 1299 2560 
Q 1018 2771 839 2976 
Q 1165 3303 1287 3443 
Q 1389 3335 1494 3229 
Q 1600 3123 1709 3027 
Q 1562 2816 1299 2560 
z
" transform="scale(0.015625)"/>
       <path id="NotoNaskhArabic-Regular-1e5" d="M 2291 0 
Q 2035 0 1753 48 
Q 1472 96 1209 182 
Q 947 269 749 384 
Q 602 179 422 89 
Q 243 0 0 0 
Q -51 0 -51 51 
L -51 435 
Q -51 486 0 486 
Q 243 486 409 604 
Q 576 723 698 960 
Q 813 1171 880 1308 
Q 947 1446 1004 1555 
Q 1062 1664 1152 1779 
Q 1312 1990 1478 2083 
Q 1645 2176 1830 2176 
Q 2016 2176 2201 1945 
Q 2387 1715 2502 1357 
Q 2618 1005 2618 666 
Q 2618 467 2547 307 
Q 2477 147 2291 0 
z
M 2150 486 
Q 2144 781 2061 1065 
Q 1978 1350 1875 1498 
Q 1805 1606 1728 1606 
Q 1491 1606 1286 1318 
Q 1235 1242 1161 1117 
Q 1088 992 998 806 
Q 1459 563 2150 486 
z
" transform="scale(0.015625)"/>
       <path id="NotoNaskhArabic-Regular-1e8" d="M 1594 -1677 
Q 1050 -1677 742 -1363 
Q 435 -1050 435 -474 
Q 435 -346 444 -237 
Q 454 -128 480 9 
Q 506 147 557 358 
L 794 301 
Q 723 6 723 -154 
Q 723 -621 956 -883 
Q 1190 -1146 1606 -1146 
Q 1926 -1146 2249 -1040 
Q 2573 -934 2829 -752 
Q 3085 -570 3187 -346 
Q 2976 109 2873 416 
Q 2771 723 2771 877 
Q 2771 1043 2864 1174 
Q 2957 1306 3187 1446 
Q 3200 1344 3235 1133 
Q 3270 922 3334 595 
Q 3565 486 3802 486 
Q 3859 486 3859 435 
L 3859 51 
Q 3859 0 3802 0 
Q 3590 0 3418 77 
L 3424 -109 
Q 3424 -499 3174 -860 
Q 2925 -1222 2490 -1446 
Q 2061 -1677 1594 -1677 
z
M 1766 1504 
Q 1485 1715 1306 1920 
Q 1632 2247 1754 2387 
Q 1856 2279 1961 2173 
Q 2067 2067 2176 1971 
Q 2029 1760 1766 1504 
z
" transform="scale(0.015625)"/>
       <path id="NotoNaskhArabic-Regular-554" transform="scale(0.015625)"/>
      </defs>
      <use xlink:href="#NotoNaskhArabic-Regular-3"/>
      <use xlink:href="#NotoNaskhArabic-Regular-1c1" transform="translate(23.796875 0)"/>
      <use xlink:href="#NotoNaskhArabic-Regular-d6" transform="translate(45 0)"/>
      <use xlink:href="#NotoNaskhArabic-Regular-1e5" transform="translate(85.40625 0)"/>
      <use xlink:href="#NotoNaskhArabic-Regular-1e8" transform="translate(131 0)"/>
      <use xlink:href="#NotoNaskhArabic-Regular-554" transform="translate(189.5 0)"/>
     </g>
    </g>
   </g>
   <g id="matplotlib.axis_2">
    <g id="ytick_1">
     <g id="line2d_1">
      <path d="M 7.2 280.662662 
L 569.101016 280.662662 
" clip-path="url(#p6ea13546fe)" style="fill: none; stroke: #e6e1d6; stroke-width: 0.8; stroke-linecap: square"/>
     </g>
     <g id="line2d_2">
      <defs>
       <path id="ma592425486" d="M 0 0 
L 3.5 0 
" style="stroke: #555555; stroke-width: 0.8"/>
      </defs>
      <g>
       <use xlink:href="#ma592425486" x="569.101016" y="280.662662" style="fill: #555555; stroke: #555555; stroke-width: 0.8"/>
      </g>
     </g>
     <g id="text_2">
      <!-- 98 -->
      <g style="fill: #555555" transform="translate(576.101016 286.274912) scale(0.105 -0.105)">
       <defs>
        <path id="NotoNaskhArabic-Regular-4d5" d="M 1229 -64 
Q 851 -64 653 0 
L 653 480 
Q 883 397 1216 397 
Q 1728 397 2057 601 
Q 2387 806 2560 1197 
Q 2650 1395 2701 1654 
Q 2752 1914 2758 2240 
L 2720 2240 
Q 2362 1709 1632 1709 
Q 1030 1709 675 2077 
Q 320 2445 320 3091 
Q 320 3565 499 3910 
Q 678 4256 1008 4445 
Q 1338 4634 1779 4634 
Q 2246 4634 2598 4394 
Q 2950 4154 3136 3699 
Q 3328 3238 3328 2618 
Q 3328 -64 1229 -64 
z
M 1754 2157 
Q 2035 2157 2265 2269 
Q 2496 2381 2630 2579 
Q 2758 2778 2758 2989 
Q 2758 3302 2636 3571 
Q 2515 3840 2291 4000 
Q 2074 4160 1779 4160 
Q 1350 4160 1113 3881 
Q 877 3603 877 3098 
Q 877 2643 1101 2400 
Q 1325 2157 1754 2157 
z
" transform="scale(0.015625)"/>
        <path id="NotoNaskhArabic-Regular-4d4" d="M 1843 -64 
Q 1114 -64 714 256 
Q 314 576 314 1165 
Q 314 1946 1261 2387 
Q 832 2630 646 2912 
Q 461 3194 461 3546 
Q 461 4045 832 4339 
Q 1203 4634 1824 4634 
Q 2451 4634 2822 4342 
Q 3194 4051 3194 3539 
Q 3194 3200 2986 2928 
Q 2778 2656 2323 2419 
Q 2874 2150 3107 1856 
Q 3341 1562 3341 1184 
Q 3341 621 2937 278 
Q 2534 -64 1843 -64 
z
M 1850 2637 
Q 2278 2816 2457 3030 
Q 2637 3245 2637 3520 
Q 2637 3834 2416 4006 
Q 2195 4179 1818 4179 
Q 1446 4179 1228 4003 
Q 1011 3827 1011 3520 
Q 1011 3322 1094 3171 
Q 1178 3021 1338 2906 
Q 1498 2784 1850 2637 
z
M 1830 384 
Q 2278 384 2534 595 
Q 2790 806 2790 1178 
Q 2790 1478 2547 1712 
Q 2304 1946 1728 2157 
Q 1280 1965 1072 1728 
Q 864 1491 864 1158 
Q 864 800 1123 592 
Q 1382 384 1830 384 
z
" transform="scale(0.015625)"/>
       </defs>
       <use xlink:href="#NotoNaskhArabic-Regular-4d5"/>
       <use xlink:href="#NotoNaskhArabic-Regular-4d4" transform="translate(57.203125 0)"/>
      </g>
     </g>
    </g>
    <g id="ytick_2">
     <g id="line2d_3">
      <path d="M 7.2 245.491959 
L 569.101016 245.491959 
" clip-path="url(#p6ea13546fe)" style="fill: none; stroke: #e6e1d6; stroke-width: 0.8; stroke-linecap: square"/>
     </g>
     <g id="line2d_4">
      <g>
       <use xlink:href="#ma592425486" x="569.101016" y="245.491959" style="fill: #555555; stroke: #555555; stroke-width: 0.8"/>
      </g>
     </g>
     <g id="text_3">
      <!-- 99 -->
      <g style="fill: #555555" transform="translate(576.101016 251.104209) scale(0.105 -0.105)">
       <use xlink:href="#NotoNaskhArabic-Regular-4d5"/>
       <use xlink:href="#NotoNaskhArabic-Regular-4d5" transform="translate(57.203125 0)"/>
      </g>
     </g>
    </g>
    <g id="ytick_3">
     <g id="line2d_5">
      <path d="M 7.2 210.321255 
L 569.101016 210.321255 
" clip-path="url(#p6ea13546fe)" style="fill: none; stroke: #e6e1d6; stroke-width: 0.8; stroke-linecap: square"/>
     </g>
     <g id="line2d_6">
      <g>
       <use xlink:href="#ma592425486" x="569.101016" y="210.321255" style="fill: #555555; stroke: #555555; stroke-width: 0.8"/>
      </g>
     </g>
     <g id="text_4">
      <!-- 100 -->
      <g style="fill: #555555" transform="translate(576.101016 215.933505) scale(0.105 -0.105)">
       <defs>
        <path id="NotoNaskhArabic-Regular-4cd" d="M 1722 0 
L 1722 3194 
Q 1722 3405 1728 3603 
Q 1734 3802 1747 3981 
Q 1702 3936 1657 3891 
Q 1613 3846 1562 3808 
Q 1402 3674 1226 3530 
Q 1050 3386 864 3232 
L 570 3610 
L 1805 4570 
L 2272 4570 
L 2272 0 
L 1722 0 
z
" transform="scale(0.015625)"/>
        <path id="NotoNaskhArabic-Regular-4cc" d="M 1824 -64 
Q 1082 -64 698 534 
Q 314 1133 314 2291 
Q 314 3488 682 4064 
Q 1050 4640 1824 4640 
Q 2566 4640 2956 4038 
Q 3347 3437 3347 2291 
Q 3347 1101 2969 518 
Q 2592 -64 1824 -64 
z
M 1824 416 
Q 2208 416 2426 678 
Q 2778 1094 2778 2291 
Q 2778 3571 2368 3962 
Q 2163 4160 1824 4160 
Q 1427 4160 1203 3878 
Q 877 3469 877 2291 
Q 877 1075 1229 666 
Q 1440 416 1824 416 
z
" transform="scale(0.015625)"/>
       </defs>
       <use xlink:href="#NotoNaskhArabic-Regular-4cd"/>
       <use xlink:href="#NotoNaskhArabic-Regular-4cc" transform="translate(57.203125 0)"/>
       <use xlink:href="#NotoNaskhArabic-Regular-4cc" transform="translate(114.40625 0)"/>
      </g>
     </g>
    </g>
    <g id="ytick_4">
     <g id="line2d_7">
      <path d="M 7.2 175.150552 
L 569.101016 175.150552 
" clip-path="url(#p6ea13546fe)" style="fill: none; stroke: #e6e1d6; stroke-width: 0.8; stroke-linecap: square"/>
     </g>
     <g id="line2d_8">
      <g>
       <use xlink:href="#ma592425486" x="569.101016" y="175.150552" style="fill: #555555; stroke: #555555; stroke-width: 0.8"/>
      </g>
     </g>
     <g id="text_5">
      <!-- 101 -->
      <g style="fill: #555555" transform="translate(576.101016 180.762802) scale(0.105 -0.105)">
       <use xlink:href="#NotoNaskhArabic-Regular-4cd"/>
       <use xlink:href="#NotoNaskhArabic-Regular-4cc" transform="translate(57.203125 0)"/>
       <use xlink:href="#NotoNaskhArabic-Regular-4cd" transform="translate(114.40625 0)"/>
      </g>
     </g>
    </g>
    <g id="ytick_5">
     <g id="line2d_9">
      <path d="M 7.2 139.979848 
L 569.101016 139.979848 
" clip-path="url(#p6ea13546fe)" style="fill: none; stroke: #e6e1d6; stroke-width: 0.8; stroke-linecap: square"/>
     </g>
     <g id="line2d_10">
      <g>
       <use xlink:href="#ma592425486" x="569.101016" y="139.979848" style="fill: #555555; stroke: #555555; stroke-width: 0.8"/>
      </g>
     </g>
     <g id="text_6">
      <!-- 102 -->
      <g style="fill: #555555" transform="translate(576.101016 145.592098) scale(0.105 -0.105)">
       <defs>
        <path id="NotoNaskhArabic-Regular-4ce" d="M 307 0 
L 307 467 
L 1504 1677 
Q 1773 1952 1952 2147 
Q 2131 2342 2221 2458 
Q 2413 2720 2489 2925 
Q 2566 3130 2566 3386 
Q 2566 3744 2352 3949 
Q 2138 4154 1760 4154 
Q 1478 4154 1228 4058 
Q 979 3962 659 3718 
L 358 4096 
Q 1005 4634 1760 4634 
Q 2240 4634 2576 4448 
Q 2912 4262 3053 3923 
Q 3142 3686 3142 3418 
Q 3142 3123 3033 2841 
Q 2925 2560 2707 2272 
Q 2598 2131 2416 1929 
Q 2234 1728 1971 1478 
L 1018 538 
L 1018 512 
L 3328 512 
L 3328 0 
L 307 0 
z
" transform="scale(0.015625)"/>
       </defs>
       <use xlink:href="#NotoNaskhArabic-Regular-4cd"/>
       <use xlink:href="#NotoNaskhArabic-Regular-4cc" transform="translate(57.203125 0)"/>
       <use xlink:href="#NotoNaskhArabic-Regular-4ce" transform="translate(114.40625 0)"/>
      </g>
     </g>
    </g>
    <g id="ytick_6">
     <g id="line2d_11">
      <path d="M 7.2 104.809145 
L 569.101016 104.809145 
" clip-path="url(#p6ea13546fe)" style="fill: none; stroke: #e6e1d6; stroke-width: 0.8; stroke-linecap: square"/>
     </g>
     <g id="line2d_12">
      <g>
       <use xlink:href="#ma592425486" x="569.101016" y="104.809145" style="fill: #555555; stroke: #555555; stroke-width: 0.8"/>
      </g>
     </g>
     <g id="text_7">
      <!-- 103 -->
      <g style="fill: #555555" transform="translate(576.101016 110.421395) scale(0.105 -0.105)">
       <defs>
        <path id="NotoNaskhArabic-Regular-4cf" d="M 1542 -64 
Q 1184 -64 877 -9 
Q 570 45 288 186 
L 288 710 
Q 576 570 909 490 
Q 1242 410 1549 410 
Q 2707 410 2707 1312 
Q 2707 2118 1427 2118 
L 986 2118 
L 986 2598 
L 1434 2598 
Q 1971 2598 2275 2825 
Q 2579 3053 2579 3462 
Q 2579 3789 2358 3974 
Q 2138 4160 1747 4160 
Q 1446 4160 1187 4077 
Q 928 3994 595 3776 
L 314 4160 
Q 595 4384 963 4509 
Q 1331 4634 1741 4634 
Q 2406 4634 2780 4330 
Q 3155 4026 3155 3501 
Q 3155 3066 2908 2784 
Q 2662 2502 2208 2406 
L 2208 2381 
Q 2758 2317 3027 2035 
Q 3296 1754 3296 1299 
Q 3296 646 2845 291 
Q 2394 -64 1542 -64 
z
" transform="scale(0.015625)"/>
       </defs>
       <use xlink:href="#NotoNaskhArabic-Regular-4cd"/>
       <use xlink:href="#NotoNaskhArabic-Regular-4cc" transform="translate(57.203125 0)"/>
       <use xlink:href="#NotoNaskhArabic-Regular-4cf" transform="translate(114.40625 0)"/>
      </g>
     </g>
    </g>
    <g id="ytick_7">
     <g id="line2d_13">
      <path d="M 7.2 69.638441 
L 569.101016 69.638441 
" clip-path="url(#p6ea13546fe)" style="fill: none; stroke: #e6e1d6; stroke-width: 0.8; stroke-linecap: square"/>
     </g>
     <g id="line2d_14">
      <g>
       <use xlink:href="#ma592425486" x="569.101016" y="69.638441" style="fill: #555555; stroke: #555555; stroke-width: 0.8"/>
      </g>
     </g>
     <g id="text_8">
      <!-- 104 -->
      <g style="fill: #555555" transform="translate(576.101016 75.250691) scale(0.105 -0.105)">
       <defs>
        <path id="NotoNaskhArabic-Regular-4d0" d="M 2323 0 
L 2323 1037 
L 134 1037 
L 134 1517 
L 2285 4595 
L 2867 4595 
L 2867 1542 
L 3533 1542 
L 3533 1037 
L 2867 1037 
L 2867 0 
L 2323 0 
z
M 685 1542 
L 2323 1542 
L 2323 2982 
Q 2323 3194 2332 3446 
Q 2342 3699 2355 3994 
L 2330 3994 
Q 2298 3910 2211 3747 
Q 2125 3584 2054 3494 
L 685 1542 
z
" transform="scale(0.015625)"/>
       </defs>
       <use xlink:href="#NotoNaskhArabic-Regular-4cd"/>
       <use xlink:href="#NotoNaskhArabic-Regular-4cc" transform="translate(57.203125 0)"/>
       <use xlink:href="#NotoNaskhArabic-Regular-4d0" transform="translate(114.40625 0)"/>
      </g>
     </g>
    </g>
    <g id="ytick_8">
     <g id="line2d_15">
      <path d="M 7.2 34.467738 
L 569.101016 34.467738 
" clip-path="url(#p6ea13546fe)" style="fill: none; stroke: #e6e1d6; stroke-width: 0.8; stroke-linecap: square"/>
     </g>
     <g id="line2d_16">
      <g>
       <use xlink:href="#ma592425486" x="569.101016" y="34.467738" style="fill: #555555; stroke: #555555; stroke-width: 0.8"/>
      </g>
     </g>
     <g id="text_9">
      <!-- 105 -->
      <g style="fill: #555555" transform="translate(576.101016 40.079988) scale(0.105 -0.105)">
       <defs>
        <path id="NotoNaskhArabic-Regular-4d1" d="M 1587 -64 
Q 826 -64 403 186 
L 403 717 
Q 634 576 960 496 
Q 1286 416 1594 416 
Q 2131 416 2425 672 
Q 2720 928 2720 1402 
Q 2720 2330 1574 2330 
Q 1210 2330 794 2234 
L 512 2413 
L 685 4570 
L 2976 4570 
L 2976 4058 
L 1165 4058 
L 1056 2733 
Q 1235 2765 1411 2784 
Q 1587 2803 1760 2803 
Q 2477 2803 2886 2444 
Q 3296 2086 3296 1459 
Q 3296 749 2841 342 
Q 2387 -64 1587 -64 
z
" transform="scale(0.015625)"/>
       </defs>
       <use xlink:href="#NotoNaskhArabic-Regular-4cd"/>
       <use xlink:href="#NotoNaskhArabic-Regular-4cc" transform="translate(57.203125 0)"/>
       <use xlink:href="#NotoNaskhArabic-Regular-4d1" transform="translate(114.40625 0)"/>
      </g>
     </g>
    </g>
    <g id="text_10">
     <!-- ​ﺮﻌﺴﻟﺍ -->
     <g style="fill: #1f2937" transform="translate(610.46 148.004531) rotate(-270) scale(0.1 -0.1)">
      <defs>
       <path id="NotoNaskhArabic-Regular-f9" d="M 1446 0 
Q 1267 0 1030 57 
Q 794 115 666 198 
Q 576 109 397 54 
Q 218 0 0 0 
Q -51 0 -51 51 
L -51 435 
Q -51 486 0 486 
Q 326 486 518 634 
Q 627 723 681 809 
Q 736 896 858 1094 
Q 915 1197 1056 1197 
Q 1146 1197 1210 1152 
Q 1114 909 1046 765 
Q 979 621 947 570 
Q 998 544 1155 515 
Q 1312 486 1517 486 
Q 1664 486 1789 505 
Q 1914 525 2016 550 
Q 2061 621 2115 793 
Q 2170 966 2227 1145 
Q 2285 1325 2323 1408 
Q 2381 1536 2432 1574 
Q 2483 1613 2579 1613 
Q 2669 1613 2733 1568 
Q 2688 1466 2608 1235 
Q 2528 1005 2400 582 
Q 2496 538 2566 522 
Q 2637 506 2739 506 
Q 2906 506 3091 570 
Q 3123 608 3168 723 
Q 3213 838 3277 1030 
Q 3328 1190 3385 1331 
Q 3443 1472 3501 1568 
Q 3552 1664 3699 1664 
Q 3789 1664 3853 1619 
Q 3808 1517 3728 1289 
Q 3648 1062 3533 710 
Q 3757 589 3917 537 
Q 4077 486 4294 486 
Q 4352 486 4352 435 
L 4352 51 
Q 4352 0 4294 0 
Q 4045 0 3798 96 
Q 3552 192 3386 346 
Q 3366 301 3347 259 
Q 3328 218 3296 173 
Q 3251 96 3078 48 
Q 2906 0 2733 0 
Q 2438 0 2221 160 
Q 2176 102 2041 67 
Q 1907 32 1744 19 
Q 1581 6 1446 0 
z
" transform="scale(0.015625)"/>
       <path id="NotoNaskhArabic-Regular-135" d="M 6 0 
Q -51 0 -51 58 
L -51 429 
Q -51 486 6 486 
Q 672 486 1101 640 
L 986 787 
Q 864 973 771 1094 
Q 678 1216 621 1280 
Q 506 1427 410 1491 
L 307 1427 
Q 192 1555 192 1709 
Q 192 1862 297 1974 
Q 403 2086 566 2172 
Q 730 2259 902 2310 
Q 1158 2394 1446 2394 
Q 1722 2394 1936 2288 
Q 2150 2182 2272 2003 
Q 2400 1824 2400 1594 
Q 2400 1293 2243 1049 
Q 2086 806 1830 602 
Q 2099 486 2694 486 
Q 2758 486 2758 429 
L 2758 58 
Q 2758 0 2694 0 
Q 2259 0 1955 83 
Q 1651 166 1402 346 
Q 1050 166 723 83 
Q 397 0 6 0 
z
M 1478 845 
Q 1696 992 1821 1152 
Q 1946 1312 1946 1459 
Q 1946 1638 1811 1753 
Q 1677 1869 1466 1869 
Q 1075 1869 710 1677 
Q 947 1491 1325 1018 
Q 1395 934 1478 845 
z
" transform="scale(0.015625)"/>
       <path id="NotoNaskhArabic-Regular-d4" d="M 710 -1306 
Q 608 -1306 451 -1248 
Q 294 -1190 134 -1107 
Q -26 -1024 -128 -947 
L -45 -736 
Q 134 -768 284 -787 
Q 435 -806 563 -806 
Q 1043 -806 1385 -518 
Q 1728 -230 1907 314 
Q 1862 416 1814 515 
Q 1766 614 1709 717 
Q 1491 1107 1388 1340 
Q 1286 1574 1286 1734 
Q 1286 1901 1382 2000 
Q 1478 2099 1658 2182 
Q 1683 2099 1712 2000 
Q 1741 1901 1786 1792 
Q 1888 1530 1955 1334 
Q 2022 1139 2054 1018 
Q 2093 896 2115 797 
Q 2138 698 2144 614 
Q 2362 486 2643 486 
Q 2694 486 2694 435 
L 2694 51 
Q 2694 0 2643 0 
Q 2342 0 2118 154 
Q 2048 -288 1849 -617 
Q 1651 -947 1356 -1126 
Q 1062 -1306 710 -1306 
z
" transform="scale(0.015625)"/>
      </defs>
      <use xlink:href="#NotoNaskhArabic-Regular-3"/>
      <use xlink:href="#NotoNaskhArabic-Regular-1c1" transform="translate(23.796875 0)"/>
      <use xlink:href="#NotoNaskhArabic-Regular-f9" transform="translate(45 0)"/>
      <use xlink:href="#NotoNaskhArabic-Regular-135" transform="translate(111.296875 0)"/>
      <use xlink:href="#NotoNaskhArabic-Regular-d4" transform="translate(152.703125 0)"/>
      <use xlink:href="#NotoNaskhArabic-Regular-554" transform="translate(193.109375 0)"/>
     </g>
    </g>
   </g>
   <g id="line2d_17">
    <path d="M 18.217667 216.341563 
L 29.235334 231.640099 
L 40.253001 241.074482 
L 51.270668 242.130556 
L 62.288335 242.243665 
L 73.306002 246.339011 
L 84.323669 238.231203 
L 95.341336 221.101915 
L 106.359003 203.940345 
L 117.37667 182.28601 
L 128.394337 157.939947 
L 139.412004 134.496853 
L 150.429671 119.286521 
L 161.447338 104.016161 
L 172.465005 96.126905 
L 183.482672 93.155438 
L 194.500339 98.59942 
L 205.518006 108.349021 
L 216.535672 124.475801 
L 227.553339 135.095636 
L 238.571006 140.195351 
L 249.588673 134.622172 
L 260.60634 123.305292 
L 271.624007 109.167933 
L 282.641674 95.17811 
L 293.659341 85.417966 
L 304.677008 89.226832 
L 315.694675 95.481182 
L 326.712342 101.87649 
L 337.730009 117.591838 
L 348.747676 129.866742 
L 359.765343 135.300117 
L 370.78301 138.452816 
L 381.800677 129.865895 
L 392.818344 108.580324 
L 403.836011 91.454488 
L 414.853678 75.256447 
L 425.871345 65.093024 
L 436.889012 65.087941 
L 447.906679 66.474754 
L 458.924346 79.035785 
L 469.942013 93.352931 
L 480.95968 102.440709 
L 491.977347 120.687628 
L 502.995014 144.239993 
L 514.012681 162.38058 
L 525.030348 173.756016 
L 536.048015 187.952574 
L 547.065682 193.261438 
L 558.083349 203.521581 
" clip-path="url(#p6ea13546fe)" style="fill: none; stroke: #b7791f; stroke-width: 2; stroke-linecap: square"/>
   </g>
   <g id="line2d_18">
    <path d="M 18.217667 216.341563 
L 29.235334 231.640099 
L 40.253001 241.074482 
L 51.270668 242.130556 
L 62.288335 242.243665 
L 73.306002 241.339436 
L 84.323669 236.34803 
L 95.341336 228.591627 
L 106.359003 220.913772 
L 117.37667 212.264838 
L 128.394337 203.430578 
L 139.412004 193.91004 
L 150.429671 186.551202 
L 161.447338 179.164625 
L 172.465005 173.552193 
L 183.482672 165.811465 
L 194.500339 157.109159 
L 205.518006 149.579152 
L 216.535672 144.144102 
L 227.553339 137.836184 
L 238.571006 130.430246 
L 249.588673 122.572815 
L 260.60634 116.980278 
L 271.624007 112.553298 
L 282.641674 108.800217 
L 293.659341 106.256252 
L 304.677008 107.482808 
L 315.694675 109.045165 
L 326.712342 111.840075 
L 337.730009 115.955194 
L 348.747676 118.493353 
L 359.765343 119.716374 
L 370.78301 119.079763 
L 381.800677 113.636773 
L 392.818344 107.116757 
L 403.836011 102.246399 
L 414.853678 99.927799 
L 425.871345 99.675674 
L 436.889012 98.943442 
L 447.906679 97.548972 
L 458.924346 100.119005 
L 469.942013 101.303165 
L 480.95968 101.995516 
L 491.977347 105.213821 
L 502.995014 106.43169 
L 514.012681 110.956951 
L 525.030348 114.121798 
L 536.048015 118.495435 
L 547.065682 126.345669 
L 558.083349 138.078776 
" clip-path="url(#p6ea13546fe)" style="fill: none; stroke: #1f2937; stroke-width: 2; stroke-linecap: square"/>
   </g>
   <g id="patch_3">
    <path d="M 569.101016 308.12 
L 569.101016 7.2 
" style="fill: none; stroke: #1f2937; stroke-width: 0.8; stroke-linejoin: miter; stroke-linecap: square"/>
   </g>
   <g id="patch_4">
    <path d="M 7.2 308.12 
L 569.101016 308.12 
" style="fill: none; stroke: #1f2937; stroke-width: 0.8; stroke-linejoin: miter; stroke-linecap: square"/>
   </g>
   <g id="line2d_19">
    <path d="M 18.217667 220.930236 
L 18.217667 209.782136 
" clip-path="url(#p6ea13546fe)" style="fill: none; stroke: #b91c1c; stroke-width: 1.1; stroke-linecap: round"/>
   </g>
   <g id="line2d_20">
    <path d="M 29.235334 249.862541 
L 29.235334 206.369145 
" clip-path="url(#p6ea13546fe)" style="fill: none; stroke: #b91c1c; stroke-width: 1.1; stroke-linecap: round"/>
   </g>
   <g id="line2d_21">
    <path d="M 40.253001 268.292353 
L 40.253001 244.963407 
" clip-path="url(#p6ea13546fe)" style="fill: none; stroke: #b91c1c; stroke-width: 1.1; stroke-linecap: round"/>
   </g>
   <g id="line2d_22">
    <path d="M 51.270668 266.144209 
L 51.270668 244.642007 
" clip-path="url(#p6ea13546fe)" style="fill: none; stroke: #1f8a56; stroke-width: 1.1; stroke-linecap: round"/>
   </g>
   <g id="line2d_23">
    <path d="M 62.288335 253.057765 
L 62.288335 240.235742 
" clip-path="url(#p6ea13546fe)" style="fill: none; stroke: #1f8a56; stroke-width: 1.1; stroke-linecap: round"/>
   </g>
   <g id="line2d_24">
    <path d="M 73.306002 241.37572 
L 73.306002 234.653561 
" clip-path="url(#p6ea13546fe)" style="fill: none; stroke: #b91c1c; stroke-width: 1.1; stroke-linecap: round"/>
   </g>
   <g id="line2d_25">
    <path d="M 84.323669 246.853443 
L 84.323669 203.054774 
" clip-path="url(#p6ea13546fe)" style="fill: none; stroke: #1f8a56; stroke-width: 1.1; stroke-linecap: round"/>
   </g>
   <g id="line2d_26">
    <path d="M 95.341336 208.7224 
L 95.341336 167.161893 
" clip-path="url(#p6ea13546fe)" style="fill: none; stroke: #1f8a56; stroke-width: 1.1; stroke-linecap: round"/>
   </g>
   <g id="line2d_27">
    <path d="M 106.359003 181.35845 
L 106.359003 158.560467 
" clip-path="url(#p6ea13546fe)" style="fill: none; stroke: #1f8a56; stroke-width: 1.1; stroke-linecap: round"/>
   </g>
   <g id="line2d_28">
    <path d="M 117.37667 153.049701 
L 117.37667 133.263726 
" clip-path="url(#p6ea13546fe)" style="fill: none; stroke: #1f8a56; stroke-width: 1.1; stroke-linecap: round"/>
   </g>
   <g id="line2d_29">
    <path d="M 128.394337 138.526208 
L 128.394337 109.121128 
" clip-path="url(#p6ea13546fe)" style="fill: none; stroke: #1f8a56; stroke-width: 1.1; stroke-linecap: round"/>
   </g>
   <g id="line2d_30">
    <path d="M 139.412004 113.208636 
L 139.412004 82.9473 
" clip-path="url(#p6ea13546fe)" style="fill: none; stroke: #1f8a56; stroke-width: 1.1; stroke-linecap: round"/>
   </g>
   <g id="line2d_31">
    <path d="M 150.429671 100.029631 
L 150.429671 79.641556 
" clip-path="url(#p6ea13546fe)" style="fill: none; stroke: #b91c1c; stroke-width: 1.1; stroke-linecap: round"/>
   </g>
   <g id="line2d_32">
    <path d="M 161.447338 104.335728 
L 161.447338 75.016292 
" clip-path="url(#p6ea13546fe)" style="fill: none; stroke: #1f8a56; stroke-width: 1.1; stroke-linecap: round"/>
   </g>
   <g id="line2d_33">
    <path d="M 172.465005 100.054148 
L 172.465005 87.410879 
" clip-path="url(#p6ea13546fe)" style="fill: none; stroke: #b91c1c; stroke-width: 1.1; stroke-linecap: round"/>
   </g>
   <g id="line2d_34">
    <path d="M 183.482672 109.229214 
L 183.482672 91.840841 
" clip-path="url(#p6ea13546fe)" style="fill: none; stroke: #b91c1c; stroke-width: 1.1; stroke-linecap: round"/>
   </g>
   <g id="line2d_35">
    <path d="M 194.500339 120.648449 
L 194.500339 94.060175 
" clip-path="url(#p6ea13546fe)" style="fill: none; stroke: #b91c1c; stroke-width: 1.1; stroke-linecap: round"/>
   </g>
   <g id="line2d_36">
    <path d="M 205.518006 150.206671 
L 205.518006 109.914121 
" clip-path="url(#p6ea13546fe)" style="fill: none; stroke: #b91c1c; stroke-width: 1.1; stroke-linecap: round"/>
   </g>
   <g id="line2d_37">
    <path d="M 216.535672 170.305422 
L 216.535672 146.892188 
" clip-path="url(#p6ea13546fe)" style="fill: none; stroke: #b91c1c; stroke-width: 1.1; stroke-linecap: round"/>
   </g>
   <g id="line2d_38">
    <path d="M 227.553339 166.275165 
L 227.553339 144.140136 
" clip-path="url(#p6ea13546fe)" style="fill: none; stroke: #1f8a56; stroke-width: 1.1; stroke-linecap: round"/>
   </g>
   <g id="line2d_39">
    <path d="M 238.571006 145.112534 
L 238.571006 124.051778 
" clip-path="url(#p6ea13546fe)" style="fill: none; stroke: #1f8a56; stroke-width: 1.1; stroke-linecap: round"/>
   </g>
   <g id="line2d_40">
    <path d="M 249.588673 130.990738 
L 249.588673 87.451309 
" clip-path="url(#p6ea13546fe)" style="fill: none; stroke: #1f8a56; stroke-width: 1.1; stroke-linecap: round"/>
   </g>
   <g id="line2d_41">
    <path d="M 260.60634 96.325518 
L 260.60634 85.829801 
" clip-path="url(#p6ea13546fe)" style="fill: none; stroke: #1f8a56; stroke-width: 1.1; stroke-linecap: round"/>
   </g>
   <g id="line2d_42">
    <path d="M 271.624007 97.704824 
L 271.624007 87.575451 
" clip-path="url(#p6ea13546fe)" style="fill: none; stroke: #b91c1c; stroke-width: 1.1; stroke-linecap: round"/>
   </g>
   <g id="line2d_43">
    <path d="M 282.641674 93.037409 
L 282.641674 76.147074 
" clip-path="url(#p6ea13546fe)" style="fill: none; stroke: #1f8a56; stroke-width: 1.1; stroke-linecap: round"/>
   </g>
   <g id="line2d_44">
    <path d="M 293.659341 91.266982 
L 293.659341 73.504273 
" clip-path="url(#p6ea13546fe)" style="fill: none; stroke: #1f8a56; stroke-width: 1.1; stroke-linecap: round"/>
   </g>
   <g id="line2d_45">
    <path d="M 304.677008 109.818967 
L 304.677008 60.534366 
" clip-path="url(#p6ea13546fe)" style="fill: none; stroke: #b91c1c; stroke-width: 1.1; stroke-linecap: round"/>
   </g>
   <g id="line2d_46">
    <path d="M 315.694675 124.310246 
L 315.694675 109.293873 
" clip-path="url(#p6ea13546fe)" style="fill: none; stroke: #b91c1c; stroke-width: 1.1; stroke-linecap: round"/>
   </g>
   <g id="line2d_47">
    <path d="M 326.712342 128.242015 
L 326.712342 114.486959 
" clip-path="url(#p6ea13546fe)" style="fill: none; stroke: #b91c1c; stroke-width: 1.1; stroke-linecap: round"/>
   </g>
   <g id="line2d_48">
    <path d="M 337.730009 162.245999 
L 337.730009 122.158308 
" clip-path="url(#p6ea13546fe)" style="fill: none; stroke: #b91c1c; stroke-width: 1.1; stroke-linecap: round"/>
   </g>
   <g id="line2d_49">
    <path d="M 348.747676 162.128451 
L 348.747676 135.428159 
" clip-path="url(#p6ea13546fe)" style="fill: none; stroke: #1f8a56; stroke-width: 1.1; stroke-linecap: round"/>
   </g>
   <g id="line2d_50">
    <path d="M 359.765343 150.832287 
L 359.765343 131.163839 
" clip-path="url(#p6ea13546fe)" style="fill: none; stroke: #1f8a56; stroke-width: 1.1; stroke-linecap: round"/>
   </g>
   <g id="line2d_51">
    <path d="M 370.78301 138.996795 
L 370.78301 120.393987 
" clip-path="url(#p6ea13546fe)" style="fill: none; stroke: #b91c1c; stroke-width: 1.1; stroke-linecap: round"/>
   </g>
   <g id="line2d_52">
    <path d="M 381.800677 151.740824 
L 381.800677 73.860165 
" clip-path="url(#p6ea13546fe)" style="fill: none; stroke: #1f8a56; stroke-width: 1.1; stroke-linecap: round"/>
   </g>
   <g id="line2d_53">
    <path d="M 392.818344 89.367003 
L 392.818344 47.106539 
" clip-path="url(#p6ea13546fe)" style="fill: none; stroke: #1f8a56; stroke-width: 1.1; stroke-linecap: round"/>
   </g>
   <g id="line2d_54">
    <path d="M 403.836011 60.349664 
L 403.836011 50.233071 
" clip-path="url(#p6ea13546fe)" style="fill: none; stroke: #b91c1c; stroke-width: 1.1; stroke-linecap: round"/>
   </g>
   <g id="line2d_55">
    <path d="M 414.853678 58.335573 
L 414.853678 51.93924 
" clip-path="url(#p6ea13546fe)" style="fill: none; stroke: #1f8a56; stroke-width: 1.1; stroke-linecap: round"/>
   </g>
   <g id="line2d_56">
    <path d="M 425.871345 92.352815 
L 425.871345 48.78795 
" clip-path="url(#p6ea13546fe)" style="fill: none; stroke: #b91c1c; stroke-width: 1.1; stroke-linecap: round"/>
   </g>
   <g id="line2d_57">
    <path d="M 436.889012 95.107339 
L 436.889012 81.418433 
" clip-path="url(#p6ea13546fe)" style="fill: none; stroke: #1f8a56; stroke-width: 1.1; stroke-linecap: round"/>
   </g>
   <g id="line2d_58">
    <path d="M 447.906679 94.345392 
L 447.906679 55.200561 
" clip-path="url(#p6ea13546fe)" style="fill: none; stroke: #1f8a56; stroke-width: 1.1; stroke-linecap: round"/>
   </g>
   <g id="line2d_59">
    <path d="M 458.924346 115.561597 
L 458.924346 47.027647 
" clip-path="url(#p6ea13546fe)" style="fill: none; stroke: #b91c1c; stroke-width: 1.1; stroke-linecap: round"/>
   </g>
   <g id="line2d_60">
    <path d="M 469.942013 127.541828 
L 469.942013 115.866727 
" clip-path="url(#p6ea13546fe)" style="fill: none; stroke: #b91c1c; stroke-width: 1.1; stroke-linecap: round"/>
   </g>
   <g id="line2d_61">
    <path d="M 480.95968 133.459257 
L 480.95968 119.356765 
" clip-path="url(#p6ea13546fe)" style="fill: none; stroke: #b91c1c; stroke-width: 1.1; stroke-linecap: round"/>
   </g>
   <g id="line2d_62">
    <path d="M 491.977347 176.862153 
L 491.977347 132.002059 
" clip-path="url(#p6ea13546fe)" style="fill: none; stroke: #b91c1c; stroke-width: 1.1; stroke-linecap: round"/>
   </g>
   <g id="line2d_63">
    <path d="M 502.995014 180.924763 
L 502.995014 169.243258 
" clip-path="url(#p6ea13546fe)" style="fill: none; stroke: #b91c1c; stroke-width: 1.1; stroke-linecap: round"/>
   </g>
   <g id="line2d_64">
    <path d="M 514.012681 210.174957 
L 514.012681 168.451226 
" clip-path="url(#p6ea13546fe)" style="fill: none; stroke: #b91c1c; stroke-width: 1.1; stroke-linecap: round"/>
   </g>
   <g id="line2d_65">
    <path d="M 525.030348 220.659916 
L 525.030348 177.163313 
" clip-path="url(#p6ea13546fe)" style="fill: none; stroke: #1f8a56; stroke-width: 1.1; stroke-linecap: round"/>
   </g>
   <g id="line2d_66">
    <path d="M 536.048015 205.449442 
L 536.048015 172.109466 
" clip-path="url(#p6ea13546fe)" style="fill: none; stroke: #b91c1c; stroke-width: 1.1; stroke-linecap: round"/>
   </g>
   <g id="line2d_67">
    <path d="M 547.065682 202.122374 
L 547.065682 198.382901 
" clip-path="url(#p6ea13546fe)" style="fill: none; stroke: #1f8a56; stroke-width: 1.1; stroke-linecap: round"/>
   </g>
   <g id="line2d_68">
    <path d="M 558.083349 230.171668 
L 558.083349 197.000344 
" clip-path="url(#p6ea13546fe)" style="fill: none; stroke: #b91c1c; stroke-width: 1.1; stroke-linecap: round"/>
   </g>
   <g id="text_11">
    <!-- ​(Golden Cross) ﻲﺒﻫﺬﻟﺍ ﻊﻃﺎﻘﺘﻟﺍ -->
    <g style="fill: #1f8a56" transform="translate(154.197313 176.301645) scale(0.09 -0.09)">
     <defs>
      <path id="NotoNaskhArabic-Bold-554" transform="scale(0.015625)"/>
      <path id="DejaVuSans-Bold-b" d="M 2413 -844 
L 1484 -844 
Q 1006 -72 778 623 
Q 550 1319 550 2003 
Q 550 2688 779 3389 
Q 1009 4091 1484 4856 
L 2413 4856 
Q 2013 4116 1813 3408 
Q 1613 2700 1613 2009 
Q 1613 1319 1811 609 
Q 2009 -100 2413 -844 
z
" transform="scale(0.015625)"/>
      <path id="DejaVuSans-Bold-2a" d="M 4781 347 
Q 4331 128 3847 18 
Q 3363 -91 2847 -91 
Q 1681 -91 1000 561 
Q 319 1213 319 2328 
Q 319 3456 1012 4103 
Q 1706 4750 2913 4750 
Q 3378 4750 3804 4662 
Q 4231 4575 4609 4403 
L 4609 3438 
Q 4219 3659 3833 3768 
Q 3447 3878 3059 3878 
Q 2341 3878 1952 3476 
Q 1563 3075 1563 2328 
Q 1563 1588 1938 1184 
Q 2313 781 3003 781 
Q 3191 781 3352 804 
Q 3513 828 3641 878 
L 3641 1784 
L 2906 1784 
L 2906 2591 
L 4781 2591 
L 4781 347 
z
" transform="scale(0.015625)"/>
      <path id="DejaVuSans-Bold-52" d="M 2203 2784 
Q 1831 2784 1636 2517 
Q 1441 2250 1441 1747 
Q 1441 1244 1636 976 
Q 1831 709 2203 709 
Q 2569 709 2762 976 
Q 2956 1244 2956 1747 
Q 2956 2250 2762 2517 
Q 2569 2784 2203 2784 
z
M 2203 3584 
Q 3106 3584 3614 3096 
Q 4122 2609 4122 1747 
Q 4122 884 3614 396 
Q 3106 -91 2203 -91 
Q 1297 -91 786 396 
Q 275 884 275 1747 
Q 275 2609 786 3096 
Q 1297 3584 2203 3584 
z
" transform="scale(0.015625)"/>
      <path id="DejaVuSans-Bold-4f" d="M 538 4863 
L 1656 4863 
L 1656 0 
L 538 0 
L 538 4863 
z
" transform="scale(0.015625)"/>
      <path id="DejaVuSans-Bold-47" d="M 2919 2988 
L 2919 4863 
L 4044 4863 
L 4044 0 
L 2919 0 
L 2919 506 
Q 2688 197 2409 53 
Q 2131 -91 1766 -91 
Q 1119 -91 703 423 
Q 288 938 288 1747 
Q 288 2556 703 3070 
Q 1119 3584 1766 3584 
Q 2128 3584 2408 3439 
Q 2688 3294 2919 2988 
z
M 2181 722 
Q 2541 722 2730 984 
Q 2919 1247 2919 1747 
Q 2919 2247 2730 2509 
Q 2541 2772 2181 2772 
Q 1825 2772 1636 2509 
Q 1447 2247 1447 1747 
Q 1447 1247 1636 984 
Q 1825 722 2181 722 
z
" transform="scale(0.015625)"/>
      <path id="DejaVuSans-Bold-48" d="M 4031 1759 
L 4031 1441 
L 1416 1441 
Q 1456 1047 1700 850 
Q 1944 653 2381 653 
Q 2734 653 3104 758 
Q 3475 863 3866 1075 
L 3866 213 
Q 3469 63 3072 -14 
Q 2675 -91 2278 -91 
Q 1328 -91 801 392 
Q 275 875 275 1747 
Q 275 2603 792 3093 
Q 1309 3584 2216 3584 
Q 3041 3584 3536 3087 
Q 4031 2591 4031 1759 
z
M 2881 2131 
Q 2881 2450 2695 2645 
Q 2509 2841 2209 2841 
Q 1884 2841 1681 2658 
Q 1478 2475 1428 2131 
L 2881 2131 
z
" transform="scale(0.015625)"/>
      <path id="DejaVuSans-Bold-51" d="M 4056 2131 
L 4056 0 
L 2931 0 
L 2931 347 
L 2931 1631 
Q 2931 2084 2911 2256 
Q 2891 2428 2841 2509 
Q 2775 2619 2662 2680 
Q 2550 2741 2406 2741 
Q 2056 2741 1856 2470 
Q 1656 2200 1656 1722 
L 1656 0 
L 538 0 
L 538 3500 
L 1656 3500 
L 1656 2988 
Q 1909 3294 2193 3439 
Q 2478 3584 2822 3584 
Q 3428 3584 3742 3212 
Q 4056 2841 4056 2131 
z
" transform="scale(0.015625)"/>
      <path id="DejaVuSans-Bold-26" d="M 4288 256 
Q 3956 84 3597 -3 
Q 3238 -91 2847 -91 
Q 1681 -91 1000 561 
Q 319 1213 319 2328 
Q 319 3447 1000 4098 
Q 1681 4750 2847 4750 
Q 3238 4750 3597 4662 
Q 3956 4575 4288 4403 
L 4288 3438 
Q 3953 3666 3628 3772 
Q 3303 3878 2944 3878 
Q 2300 3878 1931 3465 
Q 1563 3053 1563 2328 
Q 1563 1606 1931 1193 
Q 2300 781 2944 781 
Q 3303 781 3628 887 
Q 3953 994 4288 1222 
L 4288 256 
z
" transform="scale(0.015625)"/>
      <path id="DejaVuSans-Bold-55" d="M 3138 2547 
Q 2991 2616 2845 2648 
Q 2700 2681 2553 2681 
Q 2122 2681 1889 2404 
Q 1656 2128 1656 1613 
L 1656 0 
L 538 0 
L 538 3500 
L 1656 3500 
L 1656 2925 
Q 1872 3269 2151 3426 
Q 2431 3584 2822 3584 
Q 2878 3584 2943 3579 
Q 3009 3575 3134 3559 
L 3138 2547 
z
" transform="scale(0.015625)"/>
      <path id="DejaVuSans-Bold-56" d="M 3272 3391 
L 3272 2541 
Q 2913 2691 2578 2766 
Q 2244 2841 1947 2841 
Q 1628 2841 1473 2761 
Q 1319 2681 1319 2516 
Q 1319 2381 1436 2309 
Q 1553 2238 1856 2203 
L 2053 2175 
Q 2913 2066 3209 1816 
Q 3506 1566 3506 1031 
Q 3506 472 3093 190 
Q 2681 -91 1863 -91 
Q 1516 -91 1145 -36 
Q 775 19 384 128 
L 384 978 
Q 719 816 1070 734 
Q 1422 653 1784 653 
Q 2113 653 2278 743 
Q 2444 834 2444 1013 
Q 2444 1163 2330 1236 
Q 2216 1309 1875 1350 
L 1678 1375 
Q 931 1469 631 1722 
Q 331 1975 331 2491 
Q 331 3047 712 3315 
Q 1094 3584 1881 3584 
Q 2191 3584 2531 3537 
Q 2872 3491 3272 3391 
z
" transform="scale(0.015625)"/>
      <path id="DejaVuSans-Bold-c" d="M 513 -844 
Q 913 -100 1113 609 
Q 1313 1319 1313 2009 
Q 1313 2700 1113 3408 
Q 913 4116 513 4856 
L 1441 4856 
Q 1916 4091 2145 3389 
Q 2375 2688 2375 2003 
Q 2375 1319 2147 623 
Q 1919 -72 1441 -844 
L 513 -844 
z
" transform="scale(0.015625)"/>
      <path id="NotoNaskhArabic-Bold-3" d="M 774 58 
Q 742 717 710 1216 
Q 678 1715 646 2134 
Q 614 2554 576 2950 
Q 538 3347 493 3808 
Q 474 3968 566 4089 
Q 659 4211 822 4281 
Q 986 4352 1178 4352 
Q 1229 4154 1296 3955 
Q 1363 3757 1440 3565 
L 1216 3398 
Q 1229 2867 1222 2035 
Q 1216 1203 1184 109 
L 774 58 
z
" transform="scale(0.015625)"/>
      <path id="NotoNaskhArabic-Bold-1c1" d="M 0 58 
Q -51 58 -51 109 
L -51 762 
Q -51 813 0 813 
Q 282 813 672 960 
Q 646 1146 624 1334 
Q 602 1523 570 1709 
Q 544 1894 441 2448 
Q 339 3002 173 3930 
Q 339 4045 534 4147 
Q 730 4250 934 4352 
Q 947 3827 960 3356 
Q 973 2886 986 2477 
Q 998 2067 1004 1718 
Q 1011 1370 1011 1069 
Q 1011 634 762 256 
Q 698 166 490 112 
Q 282 58 0 58 
z
" transform="scale(0.015625)"/>
      <path id="NotoNaskhArabic-Bold-37" d="M 0 58 
Q -51 58 -51 109 
L -51 762 
Q -51 813 0 813 
Q 307 813 566 829 
Q 826 845 992 928 
Q 1120 992 1187 1104 
Q 1254 1216 1357 1421 
Q 1459 1632 1536 1680 
Q 1613 1728 1715 1728 
Q 1869 1728 1971 1638 
Q 1888 1427 1814 1264 
Q 1741 1101 1690 979 
Q 2003 813 2362 813 
Q 2413 813 2413 762 
L 2413 109 
Q 2413 58 2362 58 
Q 1875 58 1434 499 
L 1382 416 
Q 1203 179 883 118 
Q 563 58 0 58 
z
M 1664 2252 
Q 1529 2361 1420 2457 
Q 1312 2553 1222 2649 
Q 1459 2867 1651 3097 
Q 1708 3033 1810 2937 
Q 1913 2841 2054 2700 
Q 1881 2464 1664 2252 
z
M 806 2156 
Q 531 2380 364 2560 
Q 473 2668 582 2780 
Q 691 2892 800 3001 
Q 915 2867 1196 2604 
Q 1036 2374 806 2156 
z
" transform="scale(0.015625)"/>
      <path id="NotoNaskhArabic-Bold-169" d="M 6 58 
Q -51 58 -51 115 
L -51 755 
Q -51 813 6 813 
Q 115 813 227 816 
Q 339 819 454 819 
Q 358 973 358 1114 
Q 358 1197 374 1337 
Q 390 1478 419 1606 
Q 448 1734 474 1786 
Q 595 2003 771 2179 
Q 947 2355 1152 2457 
Q 1357 2560 1549 2560 
Q 1722 2560 1898 2368 
Q 2074 2176 2182 1875 
Q 2291 1568 2291 1306 
Q 2291 1056 2150 819 
Q 2285 819 2422 816 
Q 2560 813 2694 813 
Q 2746 813 2746 762 
L 2746 109 
Q 2746 58 2694 58 
Q 1882 58 1325 269 
Q 1030 147 716 102 
Q 403 58 6 58 
z
M 1299 794 
Q 1690 902 1933 1107 
Q 1888 1280 1795 1446 
Q 1702 1613 1613 1696 
Q 1549 1773 1478 1773 
Q 1146 1773 704 1178 
Q 819 1043 979 944 
Q 1139 845 1299 794 
z
M 1888 3052 
Q 1753 3161 1644 3257 
Q 1536 3353 1446 3449 
Q 1683 3667 1875 3897 
Q 1932 3833 2034 3737 
Q 2137 3641 2278 3500 
Q 2105 3264 1888 3052 
z
M 1030 2956 
Q 755 3180 588 3360 
Q 697 3468 806 3580 
Q 915 3692 1024 3801 
Q 1139 3667 1420 3404 
Q 1260 3174 1030 2956 
z
" transform="scale(0.015625)"/>
      <path id="NotoNaskhArabic-Bold-4" d="M 1901 58 
Q 1517 58 1283 186 
Q 1050 314 938 528 
Q 826 742 794 1018 
Q 781 1139 749 1424 
Q 717 1709 681 2073 
Q 646 2438 608 2809 
Q 570 3181 538 3481 
Q 506 3782 486 3930 
Q 845 4166 1248 4352 
Q 1274 3635 1296 2918 
Q 1318 2202 1338 1478 
L 1363 979 
Q 1478 883 1606 848 
Q 1734 813 1914 813 
Q 1952 813 1952 762 
L 1952 109 
Q 1952 58 1901 58 
z
" transform="scale(0.015625)"/>
      <path id="NotoNaskhArabic-Bold-126" d="M 0 58 
Q -51 58 -51 109 
L -51 762 
Q -51 813 0 813 
L 531 819 
L 659 819 
Q 730 915 794 1008 
Q 858 1101 922 1184 
Q 762 1946 662 2422 
Q 563 2899 508 3164 
Q 454 3430 435 3552 
Q 416 3674 416 3725 
Q 416 3987 605 4169 
Q 794 4352 1069 4352 
Q 1133 4134 1197 3939 
Q 1261 3744 1331 3565 
L 1126 3411 
Q 1152 3110 1171 2809 
Q 1190 2509 1216 2208 
Q 1229 2054 1241 1907 
Q 1254 1760 1261 1606 
Q 2170 2669 2803 2669 
Q 3066 2669 3354 2512 
Q 3642 2355 3872 2074 
Q 4109 1786 4109 1626 
Q 4109 1126 3683 777 
Q 3258 429 2362 243 
Q 1914 154 1325 106 
Q 736 58 0 58 
z
M 1158 832 
Q 1190 832 1321 838 
Q 1453 845 1632 854 
Q 1811 864 1990 880 
Q 2170 896 2291 915 
Q 2458 947 2624 979 
Q 2790 1011 3040 1075 
Q 3290 1139 3693 1254 
Q 3475 1498 3305 1635 
Q 3136 1773 2985 1830 
Q 2835 1888 2650 1888 
Q 2061 1888 1158 832 
z
" transform="scale(0.015625)"/>
      <path id="NotoNaskhArabic-Bold-134" d="M 2349 -1926 
Q 1856 -1926 1478 -1760 
Q 1101 -1594 896 -1293 
Q 691 -979 691 -589 
Q 691 -198 867 134 
Q 1043 467 1434 781 
Q 1427 794 1395 835 
Q 1363 877 1331 922 
Q 1261 1011 1158 1136 
Q 1056 1261 947 1370 
Q 890 1421 835 1472 
Q 781 1523 730 1568 
L 608 1485 
Q 442 1670 442 1894 
Q 442 2112 630 2272 
Q 819 2432 1152 2547 
Q 1478 2669 1792 2669 
Q 2080 2669 2320 2544 
Q 2560 2419 2707 2214 
Q 2854 2010 2854 1760 
Q 2854 1293 2323 858 
Q 2598 813 3091 813 
Q 3162 813 3162 755 
L 3162 115 
Q 3162 58 3091 58 
Q 2662 58 2329 154 
Q 1997 250 1728 474 
Q 1024 26 1024 -461 
Q 1024 -813 1357 -1001 
Q 1690 -1190 2323 -1190 
Q 2822 -1190 3590 -1018 
L 3674 -1293 
Q 3283 -1523 3030 -1664 
Q 2778 -1805 2618 -1865 
Q 2458 -1926 2349 -1926 
z
M 1850 1082 
Q 2067 1242 2150 1382 
Q 2214 1491 2214 1613 
Q 2214 1779 2096 1868 
Q 1978 1958 1811 1958 
Q 1651 1958 1497 1926 
Q 1344 1894 1139 1805 
Q 1184 1766 1229 1728 
Q 1274 1690 1325 1638 
Q 1408 1562 1497 1462 
Q 1587 1363 1690 1248 
L 1850 1082 
z
" transform="scale(0.015625)"/>
      <path id="NotoNaskhArabic-Bold-b8" d="M 1075 0 
Q 218 0 218 499 
Q 218 634 272 784 
Q 326 934 410 1018 
Q 570 890 774 826 
Q 979 762 1280 762 
Q 1466 762 1658 784 
Q 1850 806 2048 851 
Q 1798 1286 1648 1673 
Q 1498 2061 1498 2246 
Q 1498 2477 1613 2646 
Q 1728 2816 1946 2880 
Q 2074 2362 2208 1955 
Q 2342 1549 2490 1248 
Q 2611 1005 2758 909 
Q 2906 813 3162 813 
Q 3213 813 3213 762 
L 3213 109 
Q 3213 58 3162 58 
Q 2707 58 2413 352 
Q 1709 0 1075 0 
z
M 1433 3264 
Q 1107 3533 941 3725 
Q 1088 3872 1206 3997 
Q 1325 4122 1421 4237 
Q 1491 4160 1606 4045 
Q 1721 3930 1881 3776 
Q 1805 3668 1693 3540 
Q 1581 3412 1433 3264 
z
" transform="scale(0.015625)"/>
      <path id="NotoNaskhArabic-Bold-200" d="M 2650 -58 
Q 2221 -45 1821 51 
Q 1421 147 1120 307 
Q 659 58 0 58 
Q -51 58 -51 109 
L -51 774 
Q -51 813 0 813 
Q 122 819 240 819 
Q 358 819 480 826 
Q 282 1088 282 1382 
Q 282 1555 352 1753 
Q 422 1952 544 2128 
Q 666 2304 806 2400 
L 992 3066 
Q 1517 2938 1974 2589 
Q 2432 2240 2701 1754 
Q 2976 1280 2976 800 
Q 2976 653 2886 419 
Q 2797 186 2650 -58 
z
M 1171 979 
Q 1299 1043 1382 1196 
Q 1466 1350 1466 1536 
Q 1466 1690 1363 1808 
Q 1261 1926 1146 1926 
Q 915 1926 742 1658 
Q 710 1606 675 1536 
Q 640 1466 608 1389 
Q 730 1261 870 1158 
Q 1011 1056 1171 979 
z
M 2618 640 
Q 2509 928 2393 1152 
Q 2278 1376 2144 1549 
Q 2074 1651 1990 1734 
Q 1907 1818 1818 1888 
Q 1882 1722 1882 1517 
Q 1882 1101 1683 800 
Q 1850 755 2086 716 
Q 2323 678 2618 640 
z
" transform="scale(0.015625)"/>
      <path id="NotoNaskhArabic-Bold-25" d="M 0 58 
Q -51 58 -51 109 
L -51 762 
Q -51 813 0 813 
Q 416 813 627 966 
Q 710 1024 774 1145 
Q 838 1267 922 1427 
Q 1024 1632 1101 1680 
Q 1178 1728 1280 1728 
Q 1427 1728 1536 1638 
Q 1466 1478 1392 1312 
Q 1318 1146 1248 979 
Q 1562 813 1926 813 
Q 1978 813 1978 762 
L 1978 109 
Q 1978 58 1926 58 
Q 1440 58 998 499 
Q 960 435 925 384 
Q 890 333 858 288 
Q 774 192 550 125 
Q 326 58 0 58 
z
M 1088 -1427 
Q 915 -1286 793 -1171 
Q 672 -1056 588 -966 
Q 716 -838 838 -713 
Q 960 -589 1075 -454 
Q 1241 -646 1536 -915 
Q 1465 -1017 1350 -1148 
Q 1235 -1280 1088 -1427 
z
" transform="scale(0.015625)"/>
      <path id="NotoNaskhArabic-Bold-23f" d="M 1830 -1613 
Q 1152 -1613 793 -1277 
Q 435 -941 435 -301 
Q 435 32 595 627 
L 877 557 
Q 787 256 787 45 
Q 787 -397 1059 -627 
Q 1331 -858 1901 -858 
Q 2240 -858 2598 -816 
Q 2957 -774 3283 -710 
Q 3450 -672 3610 -627 
Q 3770 -582 3898 -531 
Q 3757 -474 3561 -374 
Q 3366 -275 3187 -163 
Q 3008 -51 2893 32 
Q 2726 160 2726 218 
Q 2726 282 2771 397 
Q 2816 512 2877 633 
Q 2938 755 2992 838 
Q 3046 922 3066 922 
Q 3354 870 3699 841 
Q 4045 813 4454 813 
Q 4525 813 4525 749 
L 4525 122 
Q 4525 58 4454 58 
Q 4320 58 4137 70 
Q 3955 83 3779 108 
Q 3603 134 3475 166 
Q 3738 45 3875 -25 
Q 4013 -96 4070 -131 
Q 4128 -166 4147 -198 
Q 4192 -243 4208 -336 
Q 4224 -429 4224 -518 
Q 4224 -678 4057 -848 
Q 3891 -1018 3600 -1171 
Q 3309 -1325 2925 -1440 
Q 2349 -1613 1830 -1613 
z
M 2355 -2630 
Q 2080 -2406 1913 -2227 
Q 2118 -2048 2342 -1779 
Q 2361 -1798 2460 -1897 
Q 2560 -1997 2739 -2182 
Q 2675 -2278 2579 -2390 
Q 2483 -2502 2355 -2630 
z
M 1497 -2726 
Q 1337 -2598 1231 -2495 
Q 1126 -2393 1056 -2317 
Q 1164 -2208 1273 -2096 
Q 1382 -1984 1491 -1875 
Q 1568 -1971 1888 -2272 
Q 1734 -2502 1497 -2726 
z
" transform="scale(0.015625)"/>
     </defs>
     <use xlink:href="#NotoNaskhArabic-Bold-554"/>
     <use xlink:href="#DejaVuSans-Bold-b"/>
     <use xlink:href="#DejaVuSans-Bold-2a" transform="translate(45.703125 0)"/>
     <use xlink:href="#DejaVuSans-Bold-52" transform="translate(127.78125 0)"/>
     <use xlink:href="#DejaVuSans-Bold-4f" transform="translate(196.484375 0)"/>
     <use xlink:href="#DejaVuSans-Bold-47" transform="translate(230.765625 0)"/>
     <use xlink:href="#DejaVuSans-Bold-48" transform="translate(302.34375 0)"/>
     <use xlink:href="#DejaVuSans-Bold-51" transform="translate(370.171875 0)"/>
     <use xlink:href="#NotoNaskhArabic-Bold-554" transform="translate(441.359375 0)"/>
     <use xlink:href="#DejaVuSans-Bold-26" transform="translate(463.453125 0)"/>
     <use xlink:href="#DejaVuSans-Bold-55" transform="translate(536.84375 0)"/>
     <use xlink:href="#DejaVuSans-Bold-52" transform="translate(586.15625 0)"/>
     <use xlink:href="#DejaVuSans-Bold-56" transform="translate(654.859375 0)"/>
     <use xlink:href="#DejaVuSans-Bold-56" transform="translate(714.375 0)"/>
     <use xlink:href="#DejaVuSans-Bold-c" transform="translate(773.890625 0)"/>
     <use xlink:href="#NotoNaskhArabic-Bold-554" transform="translate(819.59375 0)"/>
     <use xlink:href="#NotoNaskhArabic-Bold-3" transform="translate(841.6875 0)"/>
     <use xlink:href="#NotoNaskhArabic-Bold-1c1" transform="translate(870.09375 0)"/>
     <use xlink:href="#NotoNaskhArabic-Bold-37" transform="translate(891.796875 0)"/>
     <use xlink:href="#NotoNaskhArabic-Bold-169" transform="translate(927.796875 0)"/>
     <use xlink:href="#NotoNaskhArabic-Bold-4" transform="translate(969 0)"/>
     <use xlink:href="#NotoNaskhArabic-Bold-126" transform="translate(997.796875 0)"/>
     <use xlink:href="#NotoNaskhArabic-Bold-134" transform="translate(1067.09375 0)"/>
     <use xlink:href="#NotoNaskhArabic-Bold-554" transform="translate(1114.796875 0)"/>
     <use xlink:href="#NotoNaskhArabic-Bold-3" transform="translate(1136.890625 0)"/>
     <use xlink:href="#NotoNaskhArabic-Bold-1c1" transform="translate(1165.296875 0)"/>
     <use xlink:href="#NotoNaskhArabic-Bold-b8" transform="translate(1187 0)"/>
     <use xlink:href="#NotoNaskhArabic-Bold-200" transform="translate(1235.5 0)"/>
     <use xlink:href="#NotoNaskhArabic-Bold-25" transform="translate(1287.09375 0)"/>
     <use xlink:href="#NotoNaskhArabic-Bold-23f" transform="translate(1316.296875 0)"/>
    </g>
   </g>
   <g id="patch_5">
    <path d="M 15.187809 216.341563 
L 21.247525 216.341563 
L 21.247525 209.70362 
L 15.187809 209.70362 
z
" clip-path="url(#p6ea13546fe)" style="fill: #b91c1c; stroke: #b91c1c; stroke-linejoin: miter"/>
   </g>
   <g id="patch_6">
    <path d="M 26.205476 246.938636 
L 32.265192 246.938636 
L 32.265192 214.570341 
L 26.205476 214.570341 
z
" clip-path="url(#p6ea13546fe)" style="fill: #b91c1c; stroke: #b91c1c; stroke-linejoin: miter"/>
   </g>
   <g id="patch_7">
    <path d="M 37.223143 259.943246 
L 43.282859 259.943246 
L 43.282859 249.063981 
L 37.223143 249.063981 
z
" clip-path="url(#p6ea13546fe)" style="fill: #b91c1c; stroke: #b91c1c; stroke-linejoin: miter"/>
   </g>
   <g id="patch_8">
    <path d="M 48.240809 258.435678 
L 54.300526 258.435678 
L 54.300526 245.298779 
L 48.240809 245.298779 
z
" clip-path="url(#p6ea13546fe)" style="fill: #1f8a56; stroke: #1f8a56; stroke-linejoin: miter"/>
   </g>
   <g id="patch_9">
    <path d="M 59.258476 248.035951 
L 65.318193 248.035951 
L 65.318193 241.398009 
L 59.258476 241.398009 
z
" clip-path="url(#p6ea13546fe)" style="fill: #1f8a56; stroke: #1f8a56; stroke-linejoin: miter"/>
   </g>
   <g id="patch_10">
    <path d="M 70.276143 236.818291 
L 76.33586 236.818291 
L 76.33586 230.180349 
L 70.276143 230.180349 
z
" clip-path="url(#p6ea13546fe)" style="fill: #b91c1c; stroke: #b91c1c; stroke-linejoin: miter"/>
   </g>
   <g id="patch_11">
    <path d="M 81.29381 243.585997 
L 87.353527 243.585997 
L 87.353527 206.399596 
L 81.29381 206.399596 
z
" clip-path="url(#p6ea13546fe)" style="fill: #1f8a56; stroke: #1f8a56; stroke-linejoin: miter"/>
   </g>
   <g id="patch_12">
    <path d="M 92.311477 198.846608 
L 98.371194 198.846608 
L 98.371194 174.296805 
L 92.311477 174.296805 
z
" clip-path="url(#p6ea13546fe)" style="fill: #1f8a56; stroke: #1f8a56; stroke-linejoin: miter"/>
   </g>
   <g id="patch_13">
    <path d="M 103.329144 176.288138 
L 109.388861 176.288138 
L 109.388861 159.490929 
L 103.329144 159.490929 
z
" clip-path="url(#p6ea13546fe)" style="fill: #1f8a56; stroke: #1f8a56; stroke-linejoin: miter"/>
   </g>
   <g id="patch_14">
    <path d="M 114.346811 150.818985 
L 120.406528 150.818985 
L 120.406528 134.424428 
L 114.346811 134.424428 
z
" clip-path="url(#p6ea13546fe)" style="fill: #1f8a56; stroke: #1f8a56; stroke-linejoin: miter"/>
   </g>
   <g id="patch_15">
    <path d="M 125.364478 136.464276 
L 131.424195 136.464276 
L 131.424195 115.087978 
L 125.364478 115.087978 
z
" clip-path="url(#p6ea13546fe)" style="fill: #1f8a56; stroke: #1f8a56; stroke-linejoin: miter"/>
   </g>
   <g id="patch_16">
    <path d="M 136.382145 110.863302 
L 142.441862 110.863302 
L 142.441862 89.184127 
L 136.382145 89.184127 
z
" clip-path="url(#p6ea13546fe)" style="fill: #1f8a56; stroke: #1f8a56; stroke-linejoin: miter"/>
   </g>
   <g id="patch_17">
    <path d="M 147.399812 98.245141 
L 153.459529 98.245141 
L 153.459529 91.607199 
L 147.399812 91.607199 
z
" clip-path="url(#p6ea13546fe)" style="fill: #b91c1c; stroke: #b91c1c; stroke-linejoin: miter"/>
   </g>
   <g id="patch_18">
    <path d="M 158.417479 102.318236 
L 164.477196 102.318236 
L 164.477196 83.139133 
L 158.417479 83.139133 
z
" clip-path="url(#p6ea13546fe)" style="fill: #1f8a56; stroke: #1f8a56; stroke-linejoin: miter"/>
   </g>
   <g id="patch_19">
    <path d="M 169.435146 94.978145 
L 175.494863 94.978145 
L 175.494863 88.340203 
L 169.435146 88.340203 
z
" clip-path="url(#p6ea13546fe)" style="fill: #b91c1c; stroke: #b91c1c; stroke-linejoin: miter"/>
   </g>
   <g id="patch_20">
    <path d="M 180.452813 100.230646 
L 186.51253 100.230646 
L 186.51253 93.592703 
L 180.452813 93.592703 
z
" clip-path="url(#p6ea13546fe)" style="fill: #b91c1c; stroke: #b91c1c; stroke-linejoin: miter"/>
   </g>
   <g id="patch_21">
    <path d="M 191.47048 116.404033 
L 197.530197 116.404033 
L 197.530197 99.547252 
L 191.47048 99.547252 
z
" clip-path="url(#p6ea13546fe)" style="fill: #b91c1c; stroke: #b91c1c; stroke-linejoin: miter"/>
   </g>
   <g id="patch_22">
    <path d="M 202.488147 146.993147 
L 208.547864 146.993147 
L 208.547864 111.185172 
L 202.488147 111.185172 
z
" clip-path="url(#p6ea13546fe)" style="fill: #b91c1c; stroke: #b91c1c; stroke-linejoin: miter"/>
   </g>
   <g id="patch_23">
    <path d="M 213.505814 163.773034 
L 219.565531 163.773034 
L 219.565531 150.96068 
L 213.505814 150.96068 
z
" clip-path="url(#p6ea13546fe)" style="fill: #b91c1c; stroke: #b91c1c; stroke-linejoin: miter"/>
   </g>
   <g id="patch_24">
    <path d="M 224.523481 165.584954 
L 230.583198 165.584954 
L 230.583198 148.07732 
L 224.523481 148.07732 
z
" clip-path="url(#p6ea13546fe)" style="fill: #1f8a56; stroke: #1f8a56; stroke-linejoin: miter"/>
   </g>
   <g id="patch_25">
    <path d="M 235.541148 143.842049 
L 241.600865 143.842049 
L 241.600865 125.729223 
L 235.541148 125.729223 
z
" clip-path="url(#p6ea13546fe)" style="fill: #1f8a56; stroke: #1f8a56; stroke-linejoin: miter"/>
   </g>
   <g id="patch_26">
    <path d="M 246.558815 127.814746 
L 252.618532 127.814746 
L 252.618532 88.538135 
L 246.558815 88.538135 
z
" clip-path="url(#p6ea13546fe)" style="fill: #1f8a56; stroke: #1f8a56; stroke-linejoin: miter"/>
   </g>
   <g id="patch_27">
    <path d="M 257.576482 92.707116 
L 263.636199 92.707116 
L 263.636199 86.069174 
L 257.576482 86.069174 
z
" clip-path="url(#p6ea13546fe)" style="fill: #1f8a56; stroke: #1f8a56; stroke-linejoin: miter"/>
   </g>
   <g id="patch_28">
    <path d="M 268.594149 93.08624 
L 274.653866 93.08624 
L 274.653866 86.448298 
L 268.594149 86.448298 
z
" clip-path="url(#p6ea13546fe)" style="fill: #b91c1c; stroke: #b91c1c; stroke-linejoin: miter"/>
   </g>
   <g id="patch_29">
    <path d="M 279.611816 85.94364 
L 285.671533 85.94364 
L 285.671533 78.128204 
L 279.611816 78.128204 
z
" clip-path="url(#p6ea13546fe)" style="fill: #1f8a56; stroke: #1f8a56; stroke-linejoin: miter"/>
   </g>
   <g id="patch_30">
    <path d="M 290.629483 86.550008 
L 296.6892 86.550008 
L 296.6892 76.928503 
L 290.629483 76.928503 
z
" clip-path="url(#p6ea13546fe)" style="fill: #1f8a56; stroke: #1f8a56; stroke-linejoin: miter"/>
   </g>
   <g id="patch_31">
    <path d="M 301.64715 107.582465 
L 307.706867 107.582465 
L 307.706867 70.682202 
L 301.64715 70.682202 
z
" clip-path="url(#p6ea13546fe)" style="fill: #b91c1c; stroke: #b91c1c; stroke-linejoin: miter"/>
   </g>
   <g id="patch_32">
    <path d="M 312.664817 121.6805 
L 318.724534 121.6805 
L 318.724534 110.848782 
L 312.664817 110.848782 
z
" clip-path="url(#p6ea13546fe)" style="fill: #b91c1c; stroke: #b91c1c; stroke-linejoin: miter"/>
   </g>
   <g id="patch_33">
    <path d="M 323.682484 125.06278 
L 329.742201 125.06278 
L 329.742201 118.424838 
L 323.682484 118.424838 
z
" clip-path="url(#p6ea13546fe)" style="fill: #b91c1c; stroke: #b91c1c; stroke-linejoin: miter"/>
   </g>
   <g id="patch_34">
    <path d="M 334.700151 156.70494 
L 340.759868 156.70494 
L 340.759868 124.130837 
L 334.700151 124.130837 
z
" clip-path="url(#p6ea13546fe)" style="fill: #b91c1c; stroke: #b91c1c; stroke-linejoin: miter"/>
   </g>
   <g id="patch_35">
    <path d="M 345.717818 161.320713 
L 351.777535 161.320713 
L 351.777535 138.303026 
L 345.717818 138.303026 
z
" clip-path="url(#p6ea13546fe)" style="fill: #1f8a56; stroke: #1f8a56; stroke-linejoin: miter"/>
   </g>
   <g id="patch_36">
    <path d="M 356.735485 147.204522 
L 362.795202 147.204522 
L 362.795202 134.749341 
L 356.735485 134.749341 
z
" clip-path="url(#p6ea13546fe)" style="fill: #1f8a56; stroke: #1f8a56; stroke-linejoin: miter"/>
   </g>
   <g id="patch_37">
    <path d="M 367.753152 137.443994 
L 373.812869 137.443994 
L 373.812869 125.48363 
L 367.753152 125.48363 
z
" clip-path="url(#p6ea13546fe)" style="fill: #b91c1c; stroke: #b91c1c; stroke-linejoin: miter"/>
   </g>
   <g id="patch_38">
    <path d="M 378.770819 148.121814 
L 384.830536 148.121814 
L 384.830536 82.128172 
L 378.770819 82.128172 
z
" clip-path="url(#p6ea13546fe)" style="fill: #1f8a56; stroke: #1f8a56; stroke-linejoin: miter"/>
   </g>
   <g id="patch_39">
    <path d="M 389.788486 83.681749 
L 395.848202 83.681749 
L 395.848202 50.277088 
L 389.788486 50.277088 
z
" clip-path="url(#p6ea13546fe)" style="fill: #1f8a56; stroke: #1f8a56; stroke-linejoin: miter"/>
   </g>
   <g id="patch_40">
    <path d="M 400.806153 52.673846 
L 406.865869 52.673846 
L 406.865869 46.035904 
L 400.806153 46.035904 
z
" clip-path="url(#p6ea13546fe)" style="fill: #b91c1c; stroke: #b91c1c; stroke-linejoin: miter"/>
   </g>
   <g id="patch_41">
    <path d="M 411.82382 58.241771 
L 417.883536 58.241771 
L 417.883536 51.603829 
L 411.82382 51.603829 
z
" clip-path="url(#p6ea13546fe)" style="fill: #1f8a56; stroke: #1f8a56; stroke-linejoin: miter"/>
   </g>
   <g id="patch_42">
    <path d="M 422.841487 86.626879 
L 428.901203 86.626879 
L 428.901203 54.355654 
L 422.841487 54.355654 
z
" clip-path="url(#p6ea13546fe)" style="fill: #b91c1c; stroke: #b91c1c; stroke-linejoin: miter"/>
   </g>
   <g id="patch_43">
    <path d="M 433.859154 89.378152 
L 439.91887 89.378152 
L 439.91887 82.102758 
L 433.859154 82.102758 
z
" clip-path="url(#p6ea13546fe)" style="fill: #1f8a56; stroke: #1f8a56; stroke-linejoin: miter"/>
   </g>
   <g id="patch_44">
    <path d="M 444.876821 87.144369 
L 450.936537 87.144369 
L 450.936537 57.211154 
L 444.876821 57.211154 
z
" clip-path="url(#p6ea13546fe)" style="fill: #1f8a56; stroke: #1f8a56; stroke-linejoin: miter"/>
   </g>
   <g id="patch_45">
    <path d="M 455.894487 115.479 
L 461.954204 115.479 
L 461.954204 52.343552 
L 455.894487 52.343552 
z
" clip-path="url(#p6ea13546fe)" style="fill: #b91c1c; stroke: #b91c1c; stroke-linejoin: miter"/>
   </g>
   <g id="patch_46">
    <path d="M 466.912154 125.344862 
L 472.971871 125.344862 
L 472.971871 116.588698 
L 466.912154 116.588698 
z
" clip-path="url(#p6ea13546fe)" style="fill: #b91c1c; stroke: #b91c1c; stroke-linejoin: miter"/>
   </g>
   <g id="patch_47">
    <path d="M 477.929821 132.065769 
L 483.989538 132.065769 
L 483.989538 122.690062 
L 477.929821 122.690062 
z
" clip-path="url(#p6ea13546fe)" style="fill: #b91c1c; stroke: #b91c1c; stroke-linejoin: miter"/>
   </g>
   <g id="patch_48">
    <path d="M 488.947488 173.337353 
L 495.007205 173.337353 
L 495.007205 138.427515 
L 488.947488 138.427515 
z
" clip-path="url(#p6ea13546fe)" style="fill: #b91c1c; stroke: #b91c1c; stroke-linejoin: miter"/>
   </g>
   <g id="patch_49">
    <path d="M 499.965155 174.972979 
L 506.024872 174.972979 
L 506.024872 168.335036 
L 499.965155 168.335036 
z
" clip-path="url(#p6ea13546fe)" style="fill: #b91c1c; stroke: #b91c1c; stroke-linejoin: miter"/>
   </g>
   <g id="patch_50">
    <path d="M 510.982822 206.181937 
L 517.042539 206.181937 
L 517.042539 169.341086 
L 510.982822 169.341086 
z
" clip-path="url(#p6ea13546fe)" style="fill: #b91c1c; stroke: #b91c1c; stroke-linejoin: miter"/>
   </g>
   <g id="patch_51">
    <path d="M 522.000489 216.410447 
L 528.060206 216.410447 
L 528.060206 182.222044 
L 522.000489 182.222044 
z
" clip-path="url(#p6ea13546fe)" style="fill: #1f8a56; stroke: #1f8a56; stroke-linejoin: miter"/>
   </g>
   <g id="patch_52">
    <path d="M 533.018156 203.048555 
L 539.077873 203.048555 
L 539.077873 178.810063 
L 533.018156 178.810063 
z
" clip-path="url(#p6ea13546fe)" style="fill: #b91c1c; stroke: #b91c1c; stroke-linejoin: miter"/>
   </g>
   <g id="patch_53">
    <path d="M 544.035823 201.381772 
L 550.09554 201.381772 
L 550.09554 194.74383 
L 544.035823 194.74383 
z
" clip-path="url(#p6ea13546fe)" style="fill: #1f8a56; stroke: #1f8a56; stroke-linejoin: miter"/>
   </g>
   <g id="patch_54">
    <path d="M 555.05349 226.273692 
L 561.113207 226.273692 
L 561.113207 201.995546 
L 555.05349 201.995546 
z
" clip-path="url(#p6ea13546fe)" style="fill: #b91c1c; stroke: #b91c1c; stroke-linejoin: miter"/>
   </g>
   <g id="legend_1">
    <g id="line2d_69">
     <path d="M 15.3 21.771 
L 24.3 21.771 
L 33.3 21.771 
" style="fill: none; stroke: #b7791f; stroke-width: 2; stroke-linecap: square"/>
    </g>
    <g id="text_12">
     <!-- MA 5 -->
     <g style="fill: #1f2937" transform="translate(40.5 24.921) scale(0.09 -0.09)">
      <defs>
       <path id="DejaVuSans-30" d="M 628 4666 
L 1569 4666 
L 2759 1491 
L 3956 4666 
L 4897 4666 
L 4897 0 
L 4281 0 
L 4281 4097 
L 3078 897 
L 2444 897 
L 1241 4097 
L 1241 0 
L 628 0 
L 628 4666 
z
" transform="scale(0.015625)"/>
       <path id="DejaVuSans-24" d="M 2188 4044 
L 1331 1722 
L 3047 1722 
L 2188 4044 
z
M 1831 4666 
L 2547 4666 
L 4325 0 
L 3669 0 
L 3244 1197 
L 1141 1197 
L 716 0 
L 50 0 
L 1831 4666 
z
" transform="scale(0.015625)"/>
      </defs>
      <use xlink:href="#DejaVuSans-30"/>
      <use xlink:href="#DejaVuSans-24" transform="translate(86.28125 0)"/>
      <use xlink:href="#NotoNaskhArabic-Regular-554" transform="translate(154.6875 0)"/>
      <use xlink:href="#NotoNaskhArabic-Regular-4d1" transform="translate(176.78125 0)"/>
     </g>
    </g>
    <g id="line2d_70">
     <path d="M 15.3 41.598 
L 24.3 41.598 
L 33.3 41.598 
" style="fill: none; stroke: #1f2937; stroke-width: 2; stroke-linecap: square"/>
    </g>
    <g id="text_13">
     <!-- MA 20 -->
     <g style="fill: #1f2937" transform="translate(40.5 44.748) scale(0.09 -0.09)">
      <use xlink:href="#DejaVuSans-30"/>
      <use xlink:href="#DejaVuSans-24" transform="translate(86.28125 0)"/>
      <use xlink:href="#NotoNaskhArabic-Regular-554" transform="translate(154.6875 0)"/>
      <use xlink:href="#NotoNaskhArabic-Regular-4ce" transform="translate(176.78125 0)"/>
      <use xlink:href="#NotoNaskhArabic-Regular-4cc" transform="translate(233.984375 0)"/>
     </g>
    </g>
   </g>
   <g id="line2d_71">
    <path d="M 216.535672 124.475801 
" clip-path="url(#p6ea13546fe)" style="fill: none; stroke: #1f8a56; stroke-width: 1.5; stroke-linecap: square"/>
    <defs>
     <path id="med0353137e" d="M 0 -3.5 
L -3.5 3.5 
L 3.5 3.5 
z
" style="stroke: #1f8a56; stroke-linejoin: miter"/>
    </defs>
    <g clip-path="url(#p6ea13546fe)">
     <use xlink:href="#med0353137e" x="216.535672" y="124.475801" style="fill: #1f8a56; stroke: #1f8a56; stroke-linejoin: miter"/>
    </g>
   </g>
  </g>
 </g>
 <defs>
  <clipPath id="p6ea13546fe">
   <rect x="7.2" y="7.2" width="561.901016" height="300.92"/>
  </clipPath>
 </defs>
</svg>
