<?xml version="1.0" encoding="utf-8" standalone="no"?>
<!DOCTYPE svg PUBLIC "-//W3C//DTD SVG 1.1//EN"
  "http://www.w3.org/Graphics/SVG/1.1/DTD/svg11.dtd">
<svg xmlns:xlink="http://www.w3.org/1999/xlink" width="628.35pt" height="342.767176pt" viewBox="0 0 628.35 342.767176" xmlns="http://www.w3.org/2000/svg" version="1.1">
 <metadata>
  <rdf:RDF xmlns:dc="http://purl.org/dc/elements/1.1/" xmlns:cc="http://creativecommons.org/ns#" xmlns:rdf="http://www.w3.org/1999/02/22-rdf-syntax-ns#">
   <cc:Work>
    <dc:type rdf:resource="http://purl.org/dc/dcmitype/StillImage"/>
    <dc:date>2026-07-19T04:29:53.186675</dc:date>
    <dc:format>image/svg+xml</dc:format>
    <dc:creator>
     <cc:Agent>
      <dc:title>Matplotlib v3.11.1, https://matplotlib.org/</dc:title>
     </cc:Agent>
    </dc:creator>
   </cc:Work>
  </rdf:RDF>
 </metadata>
 <defs>
  <style type="text/css">*{stroke-linejoin: round; stroke-linecap: butt}</style>
 </defs>
 <g id="figure_1">
  <g id="patch_1">
   <path d="M 0 342.767176 
L 628.35 342.767176 
L 628.35 0 
L 0 0 
z
" style="fill: #ffffff"/>
  </g>
  <g id="axes_1">
   <g id="patch_2">
    <path d="M 7.2 310.8982 
L 621.15 310.8982 
L 621.15 17.89 
L 7.2 17.89 
z
" style="fill: #ffffff"/>
   </g>
   <g id="patch_3">
    <path d="M 35.106818 310.8982 
L 383.942045 310.8982 
L 383.942045 17.89 
L 35.106818 17.89 
z
" clip-path="url(#p2ae60cfcaa)" style="fill: #1f8a56; opacity: 0.05; stroke: #1f8a56; stroke-linejoin: miter"/>
   </g>
   <g id="patch_4">
    <path d="M 383.942045 310.8982 
L 593.243182 310.8982 
L 593.243182 17.89 
L 383.942045 17.89 
z
" clip-path="url(#p2ae60cfcaa)" style="fill: #b91c1c; opacity: 0.05; stroke: #b91c1c; stroke-linejoin: miter"/>
   </g>
   <g id="matplotlib.axis_1"/>
   <g id="matplotlib.axis_2"/>
   <g id="line2d_1">
    <path d="M 35.106818 297.579645 
L 104.873864 180.376365 
L 146.734091 222.99574 
L 216.501136 105.79246 
L 258.361364 159.066678 
L 342.081818 31.208555 
L 383.942045 95.137616 
L 467.6625 52.518242 
L 509.522727 137.756991 
L 593.243182 212.340896 
" clip-path="url(#p2ae60cfcaa)" style="fill: none; stroke: #1f2937; stroke-width: 2.2; stroke-linecap: square"/>
    <defs>
     <path id="m0cb8cb150a" d="M 0 2 
C 0.530406 2 1.03916 1.789267 1.414214 1.414214 
C 1.789267 1.03916 2 0.530406 2 0 
C 2 -0.530406 1.789267 -1.03916 1.414214 -1.414214 
C 1.03916 -1.789267 0.530406 -2 0 -2 
C -0.530406 -2 -1.03916 -1.789267 -1.414214 -1.414214 
C -1.789267 -1.03916 -2 -0.530406 -2 0 
C -2 0.530406 -1.789267 1.03916 -1.414214 1.414214 
C -1.03916 1.789267 -0.530406 2 0 2 
z
" style="stroke: #1f2937"/>
    </defs>
    <g clip-path="url(#p2ae60cfcaa)">
     <use xlink:href="#m0cb8cb150a" x="35.106818" y="297.579645" style="fill: #1f2937; stroke: #1f2937"/>
     <use xlink:href="#m0cb8cb150a" x="104.873864" y="180.376365" style="fill: #1f2937; stroke: #1f2937"/>
     <use xlink:href="#m0cb8cb150a" x="146.734091" y="222.99574" style="fill: #1f2937; stroke: #1f2937"/>
     <use xlink:href="#m0cb8cb150a" x="216.501136" y="105.79246" style="fill: #1f2937; stroke: #1f2937"/>
     <use xlink:href="#m0cb8cb150a" x="258.361364" y="159.066678" style="fill: #1f2937; stroke: #1f2937"/>
     <use xlink:href="#m0cb8cb150a" x="342.081818" y="31.208555" style="fill: #1f2937; stroke: #1f2937"/>
     <use xlink:href="#m0cb8cb150a" x="383.942045" y="95.137616" style="fill: #1f2937; stroke: #1f2937"/>
     <use xlink:href="#m0cb8cb150a" x="467.6625" y="52.518242" style="fill: #1f2937; stroke: #1f2937"/>
     <use xlink:href="#m0cb8cb150a" x="509.522727" y="137.756991" style="fill: #1f2937; stroke: #1f2937"/>
     <use xlink:href="#m0cb8cb150a" x="593.243182" y="212.340896" style="fill: #1f2937; stroke: #1f2937"/>
    </g>
   </g>
   <g id="text_1">
    <text style="font-weight: 700; font-size: 10px; font-family: 'Noto Naskh Arabic', 'DejaVu Sans'; text-anchor: middle; fill: #b7791f" x="104.873864" y="167.057811" transform="rotate(-0 104.873864 167.057811)">1</text>
   </g>
   <g id="text_2">
    <text style="font-weight: 700; font-size: 10px; font-family: 'Noto Naskh Arabic', 'DejaVu Sans'; text-anchor: middle; fill: #b7791f" x="146.734091" y="209.677185" transform="rotate(-0 146.734091 209.677185)">2</text>
   </g>
   <g id="text_3">
    <text style="font-weight: 700; font-size: 10px; font-family: 'Noto Naskh Arabic', 'DejaVu Sans'; text-anchor: middle; fill: #b7791f" x="216.501136" y="92.473905" transform="rotate(-0 216.501136 92.473905)">3</text>
   </g>
   <g id="text_4">
    <text style="font-weight: 700; font-size: 10px; font-family: 'Noto Naskh Arabic', 'DejaVu Sans'; text-anchor: middle; fill: #b7791f" x="258.361364" y="145.748124" transform="rotate(-0 258.361364 145.748124)">4</text>
   </g>
   <g id="text_5">
    <text style="font-weight: 700; font-size: 10px; font-family: 'Noto Naskh Arabic', 'DejaVu Sans'; text-anchor: middle; fill: #b7791f" x="342.081818" y="17.89" transform="rotate(-0 342.081818 17.89)">5</text>
   </g>
   <g id="text_6">
    <text style="font-weight: 700; font-size: 10px; font-family: 'Noto Naskh Arabic', 'DejaVu Sans'; text-anchor: middle; fill: #b7791f" x="383.942045" y="81.819062" transform="rotate(-0 383.942045 81.819062)">A</text>
   </g>
   <g id="text_7">
    <text style="font-weight: 700; font-size: 10px; font-family: 'Noto Naskh Arabic', 'DejaVu Sans'; text-anchor: middle; fill: #b7791f" x="467.6625" y="39.199687" transform="rotate(-0 467.6625 39.199687)">B</text>
   </g>
   <g id="text_8">
    <text style="font-weight: 700; font-size: 10px; font-family: 'Noto Naskh Arabic', 'DejaVu Sans'; text-anchor: middle; fill: #b7791f" x="509.522727" y="124.438436" transform="rotate(-0 509.522727 124.438436)">C</text>
   </g>
   <g id="text_9">
    <text style="font-weight: 700; font-size: 9.5px; font-family: 'Noto Naskh Arabic', 'DejaVu Sans'; text-anchor: middle; fill: #1f8a56" x="209.524432" y="329.544176" transform="rotate(-0 209.524432 329.544176)">​(5-1) ﺔﻌﻓﺍﺪﻟﺍ ﺕﺎﺟﻮﻤﻟﺍ</text>
   </g>
   <g id="text_10">
    <text style="font-weight: 700; font-size: 9.5px; font-family: 'Noto Naskh Arabic', 'DejaVu Sans'; text-anchor: middle; fill: #b91c1c" x="488.592614" y="329.544176" transform="rotate(-0 488.592614 329.544176)">​(A-B-C) ﺔﻴﺤﻴﺤﺼﺘﻟﺍ ﺕﺎﺟﻮﻤﻟﺍ</text>
   </g>
  </g>
 </g>
 <defs>
  <clipPath id="p2ae60cfcaa">
   <rect x="7.2" y="17.89" width="613.95" height="293.0082"/>
  </clipPath>
 </defs>
</svg>
