<?xml version="1.0" encoding="utf-8" standalone="no"?>
<!DOCTYPE svg PUBLIC "-//W3C//DTD SVG 1.1//EN"
  "http://www.w3.org/Graphics/SVG/1.1/DTD/svg11.dtd">
<svg xmlns:xlink="http://www.w3.org/1999/xlink" width="572.4pt" height="318.8665pt" viewBox="0 0 572.4 318.8665" xmlns="http://www.w3.org/2000/svg" version="1.1">
 <metadata>
  <rdf:RDF xmlns:dc="http://purl.org/dc/elements/1.1/" xmlns:cc="http://creativecommons.org/ns#" xmlns:rdf="http://www.w3.org/1999/02/22-rdf-syntax-ns#">
   <cc:Work>
    <dc:type rdf:resource="http://purl.org/dc/dcmitype/StillImage"/>
    <dc:date>2026-07-19T00:33:13.111025</dc:date>
    <dc:format>image/svg+xml</dc:format>
    <dc:creator>
     <cc:Agent>
      <dc:title>Matplotlib v3.11.1, https://matplotlib.org/</dc:title>
     </cc:Agent>
    </dc:creator>
   </cc:Work>
  </rdf:RDF>
 </metadata>
 <defs>
  <style type="text/css">*{stroke-linejoin: round; stroke-linecap: butt}</style>
 </defs>
 <g id="figure_1">
  <g id="patch_1">
   <path d="M 0 318.8665 
L 572.4 318.8665 
L 572.4 0 
L 0 0 
z
" style="fill: #ffffff"/>
  </g>
  <g id="axes_1">
   <g id="patch_2">
    <path d="M 7.2 188.409198 
L 255.2 188.409198 
L 255.2 23.3785 
L 7.2 23.3785 
z
" style="fill: #ffffff"/>
   </g>
   <g id="matplotlib.axis_1"/>
   <g id="matplotlib.axis_2"/>
   <g id="line2d_1">
    <path d="M 17.12 177.305208 
L 17.12 168.629582 
" clip-path="url(#pb4f79de0bf)" style="fill: none; stroke: #b91c1c; stroke-width: 1.1; stroke-linecap: round"/>
   </g>
   <g id="line2d_2">
    <path d="M 27.04 174.177463 
L 27.04 170.746547 
" clip-path="url(#pb4f79de0bf)" style="fill: none; stroke: #b91c1c; stroke-width: 1.1; stroke-linecap: round"/>
   </g>
   <g id="line2d_3">
    <path d="M 36.96 180.907802 
L 36.96 174.08403 
" clip-path="url(#pb4f79de0bf)" style="fill: none; stroke: #b91c1c; stroke-width: 1.1; stroke-linecap: round"/>
   </g>
   <g id="line2d_4">
    <path d="M 46.88 174.881288 
L 46.88 169.790537 
" clip-path="url(#pb4f79de0bf)" style="fill: none; stroke: #1f8a56; stroke-width: 1.1; stroke-linecap: round"/>
   </g>
   <g id="line2d_5">
    <path d="M 56.8 172.955005 
L 56.8 155.751508 
" clip-path="url(#pb4f79de0bf)" style="fill: none; stroke: #1f8a56; stroke-width: 1.1; stroke-linecap: round"/>
   </g>
   <g id="line2d_6">
    <path d="M 66.72 164.847443 
L 66.72 156.483905 
" clip-path="url(#pb4f79de0bf)" style="fill: none; stroke: #b91c1c; stroke-width: 1.1; stroke-linecap: round"/>
   </g>
   <g id="line2d_7">
    <path d="M 76.64 164.921299 
L 76.64 159.153909 
" clip-path="url(#pb4f79de0bf)" style="fill: none; stroke: #1f8a56; stroke-width: 1.1; stroke-linecap: round"/>
   </g>
   <g id="line2d_8">
    <path d="M 86.56 162.039548 
L 86.56 152.869403 
" clip-path="url(#pb4f79de0bf)" style="fill: none; stroke: #1f8a56; stroke-width: 1.1; stroke-linecap: round"/>
   </g>
   <g id="line2d_9">
    <path d="M 96.48 153.346344 
L 96.48 152.074707 
" clip-path="url(#pb4f79de0bf)" style="fill: none; stroke: #1f8a56; stroke-width: 1.1; stroke-linecap: round"/>
   </g>
   <g id="line2d_10">
    <path d="M 106.4 153.656052 
L 106.4 142.188964 
" clip-path="url(#pb4f79de0bf)" style="fill: none; stroke: #1f8a56; stroke-width: 1.1; stroke-linecap: round"/>
   </g>
   <g id="line2d_11">
    <path d="M 116.32 146.143426 
L 116.32 142.330995 
" clip-path="url(#pb4f79de0bf)" style="fill: none; stroke: #1f8a56; stroke-width: 1.1; stroke-linecap: round"/>
   </g>
   <g id="line2d_12">
    <path d="M 126.24 142.843013 
L 126.24 132.219464 
" clip-path="url(#pb4f79de0bf)" style="fill: none; stroke: #1f8a56; stroke-width: 1.1; stroke-linecap: round"/>
   </g>
   <g id="line2d_13">
    <path d="M 136.16 135.279879 
L 136.16 129.134394 
" clip-path="url(#pb4f79de0bf)" style="fill: none; stroke: #1f8a56; stroke-width: 1.1; stroke-linecap: round"/>
   </g>
   <g id="line2d_14">
    <path d="M 146.08 128.989013 
L 146.08 119.773292 
" clip-path="url(#pb4f79de0bf)" style="fill: none; stroke: #1f8a56; stroke-width: 1.1; stroke-linecap: round"/>
   </g>
   <g id="line2d_15">
    <path d="M 156 126.779984 
L 156 117.47287 
" clip-path="url(#pb4f79de0bf)" style="fill: none; stroke: #1f8a56; stroke-width: 1.1; stroke-linecap: round"/>
   </g>
   <g id="line2d_16">
    <path d="M 165.92 120.161438 
L 165.92 102.344443 
" clip-path="url(#pb4f79de0bf)" style="fill: none; stroke: #1f8a56; stroke-width: 1.1; stroke-linecap: round"/>
   </g>
   <g id="line2d_17">
    <path d="M 175.84 105.035422 
L 175.84 88.537962 
" clip-path="url(#pb4f79de0bf)" style="fill: none; stroke: #1f8a56; stroke-width: 1.1; stroke-linecap: round"/>
   </g>
   <g id="line2d_18">
    <path d="M 185.76 95.099295 
L 185.76 89.252253 
" clip-path="url(#pb4f79de0bf)" style="fill: none; stroke: #1f8a56; stroke-width: 1.1; stroke-linecap: round"/>
   </g>
   <g id="line2d_19">
    <path d="M 195.68 93.521777 
L 195.68 84.870529 
" clip-path="url(#pb4f79de0bf)" style="fill: none; stroke: #1f8a56; stroke-width: 1.1; stroke-linecap: round"/>
   </g>
   <g id="line2d_20">
    <path d="M 205.6 86.601635 
L 205.6 83.642988 
" clip-path="url(#pb4f79de0bf)" style="fill: none; stroke: #1f8a56; stroke-width: 1.1; stroke-linecap: round"/>
   </g>
   <g id="line2d_21">
    <path d="M 215.52 85.90619 
L 215.52 68.79808 
" clip-path="url(#pb4f79de0bf)" style="fill: none; stroke: #1f8a56; stroke-width: 1.1; stroke-linecap: round"/>
   </g>
   <g id="line2d_22">
    <path d="M 225.44 70.602611 
L 225.44 55.474326 
" clip-path="url(#pb4f79de0bf)" style="fill: none; stroke: #1f8a56; stroke-width: 1.1; stroke-linecap: round"/>
   </g>
   <g id="line2d_23">
    <path d="M 235.36 62.178947 
L 235.36 44.204008 
" clip-path="url(#pb4f79de0bf)" style="fill: none; stroke: #1f8a56; stroke-width: 1.1; stroke-linecap: round"/>
   </g>
   <g id="line2d_24">
    <path d="M 245.28 45.091249 
L 245.28 30.879895 
" clip-path="url(#pb4f79de0bf)" style="fill: none; stroke: #1f8a56; stroke-width: 1.1; stroke-linecap: round"/>
   </g>
   <g id="text_1">
    <!-- ​(Climax Volume) ﺱﺎﻜﻌﻧﺍ ﺪﻨﻋ ﻢﺠﺣ ﺔﻤﻗ -->
    <g style="fill: #b91c1c" transform="translate(48.993828 17.3555) scale(0.095 -0.095)">
     <defs>
      <path id="NotoNaskhArabic-Bold-554" transform="scale(0.015625)"/>
      <path id="DejaVuSans-Bold-b" d="M 2413 -844 
L 1484 -844 
Q 1006 -72 778 623 
Q 550 1319 550 2003 
Q 550 2688 779 3389 
Q 1009 4091 1484 4856 
L 2413 4856 
Q 2013 4116 1813 3408 
Q 1613 2700 1613 2009 
Q 1613 1319 1811 609 
Q 2009 -100 2413 -844 
z
" transform="scale(0.015625)"/>
      <path id="DejaVuSans-Bold-26" d="M 4288 256 
Q 3956 84 3597 -3 
Q 3238 -91 2847 -91 
Q 1681 -91 1000 561 
Q 319 1213 319 2328 
Q 319 3447 1000 4098 
Q 1681 4750 2847 4750 
Q 3238 4750 3597 4662 
Q 3956 4575 4288 4403 
L 4288 3438 
Q 3953 3666 3628 3772 
Q 3303 3878 2944 3878 
Q 2300 3878 1931 3465 
Q 1563 3053 1563 2328 
Q 1563 1606 1931 1193 
Q 2300 781 2944 781 
Q 3303 781 3628 887 
Q 3953 994 4288 1222 
L 4288 256 
z
" transform="scale(0.015625)"/>
      <path id="DejaVuSans-Bold-4f" d="M 538 4863 
L 1656 4863 
L 1656 0 
L 538 0 
L 538 4863 
z
" transform="scale(0.015625)"/>
      <path id="DejaVuSans-Bold-4c" d="M 538 3500 
L 1656 3500 
L 1656 0 
L 538 0 
L 538 3500 
z
M 538 4863 
L 1656 4863 
L 1656 3950 
L 538 3950 
L 538 4863 
z
" transform="scale(0.015625)"/>
      <path id="DejaVuSans-Bold-50" d="M 3781 2919 
Q 3994 3244 4286 3414 
Q 4578 3584 4928 3584 
Q 5531 3584 5847 3212 
Q 6163 2841 6163 2131 
L 6163 0 
L 5038 0 
L 5038 1825 
Q 5041 1866 5042 1909 
Q 5044 1953 5044 2034 
Q 5044 2406 4934 2573 
Q 4825 2741 4581 2741 
Q 4263 2741 4089 2478 
Q 3916 2216 3909 1719 
L 3909 0 
L 2784 0 
L 2784 1825 
Q 2784 2406 2684 2573 
Q 2584 2741 2328 2741 
Q 2006 2741 1831 2477 
Q 1656 2213 1656 1722 
L 1656 0 
L 531 0 
L 531 3500 
L 1656 3500 
L 1656 2988 
Q 1863 3284 2130 3434 
Q 2397 3584 2719 3584 
Q 3081 3584 3359 3409 
Q 3638 3234 3781 2919 
z
" transform="scale(0.015625)"/>
      <path id="DejaVuSans-Bold-44" d="M 2106 1575 
Q 1756 1575 1579 1456 
Q 1403 1338 1403 1106 
Q 1403 894 1545 773 
Q 1688 653 1941 653 
Q 2256 653 2472 879 
Q 2688 1106 2688 1447 
L 2688 1575 
L 2106 1575 
z
M 3816 1997 
L 3816 0 
L 2688 0 
L 2688 519 
Q 2463 200 2181 54 
Q 1900 -91 1497 -91 
Q 953 -91 614 226 
Q 275 544 275 1050 
Q 275 1666 698 1953 
Q 1122 2241 2028 2241 
L 2688 2241 
L 2688 2328 
Q 2688 2594 2478 2717 
Q 2269 2841 1825 2841 
Q 1466 2841 1156 2769 
Q 847 2697 581 2553 
L 581 3406 
Q 941 3494 1303 3539 
Q 1666 3584 2028 3584 
Q 2975 3584 3395 3211 
Q 3816 2838 3816 1997 
z
" transform="scale(0.015625)"/>
      <path id="DejaVuSans-Bold-5b" d="M 1422 1791 
L 159 3500 
L 1344 3500 
L 2059 2463 
L 2784 3500 
L 3969 3500 
L 2706 1797 
L 4031 0 
L 2847 0 
L 2059 1106 
L 1281 0 
L 97 0 
L 1422 1791 
z
" transform="scale(0.015625)"/>
      <path id="DejaVuSans-Bold-39" d="M 31 4666 
L 1241 4666 
L 2478 1222 
L 3713 4666 
L 4922 4666 
L 3194 0 
L 1759 0 
L 31 4666 
z
" transform="scale(0.015625)"/>
      <path id="DejaVuSans-Bold-52" d="M 2203 2784 
Q 1831 2784 1636 2517 
Q 1441 2250 1441 1747 
Q 1441 1244 1636 976 
Q 1831 709 2203 709 
Q 2569 709 2762 976 
Q 2956 1244 2956 1747 
Q 2956 2250 2762 2517 
Q 2569 2784 2203 2784 
z
M 2203 3584 
Q 3106 3584 3614 3096 
Q 4122 2609 4122 1747 
Q 4122 884 3614 396 
Q 3106 -91 2203 -91 
Q 1297 -91 786 396 
Q 275 884 275 1747 
Q 275 2609 786 3096 
Q 1297 3584 2203 3584 
z
" transform="scale(0.015625)"/>
      <path id="DejaVuSans-Bold-58" d="M 500 1363 
L 500 3500 
L 1625 3500 
L 1625 3150 
Q 1625 2866 1622 2436 
Q 1619 2006 1619 1863 
Q 1619 1441 1641 1255 
Q 1663 1069 1716 984 
Q 1784 875 1895 815 
Q 2006 756 2150 756 
Q 2500 756 2700 1025 
Q 2900 1294 2900 1772 
L 2900 3500 
L 4019 3500 
L 4019 0 
L 2900 0 
L 2900 506 
Q 2647 200 2364 54 
Q 2081 -91 1741 -91 
Q 1134 -91 817 281 
Q 500 653 500 1363 
z
" transform="scale(0.015625)"/>
      <path id="DejaVuSans-Bold-48" d="M 4031 1759 
L 4031 1441 
L 1416 1441 
Q 1456 1047 1700 850 
Q 1944 653 2381 653 
Q 2734 653 3104 758 
Q 3475 863 3866 1075 
L 3866 213 
Q 3469 63 3072 -14 
Q 2675 -91 2278 -91 
Q 1328 -91 801 392 
Q 275 875 275 1747 
Q 275 2603 792 3093 
Q 1309 3584 2216 3584 
Q 3041 3584 3536 3087 
Q 4031 2591 4031 1759 
z
M 2881 2131 
Q 2881 2450 2695 2645 
Q 2509 2841 2209 2841 
Q 1884 2841 1681 2658 
Q 1478 2475 1428 2131 
L 2881 2131 
z
" transform="scale(0.015625)"/>
      <path id="DejaVuSans-Bold-c" d="M 513 -844 
Q 913 -100 1113 609 
Q 1313 1319 1313 2009 
Q 1313 2700 1113 3408 
Q 913 4116 513 4856 
L 1441 4856 
Q 1916 4091 2145 3389 
Q 2375 2688 2375 2003 
Q 2375 1319 2147 623 
Q 1919 -72 1441 -844 
L 513 -844 
z
" transform="scale(0.015625)"/>
      <path id="NotoNaskhArabic-Bold-16a" d="M 6 58 
Q -51 58 -51 115 
L -51 762 
Q -51 813 6 813 
Q 710 813 1196 857 
Q 1683 902 2061 1075 
Q 2048 1120 2029 1177 
Q 2010 1235 1978 1312 
Q 1824 1178 1638 1107 
Q 1453 1037 1229 1037 
Q 864 1037 685 1229 
Q 506 1421 506 1709 
Q 506 2029 624 2297 
Q 742 2566 941 2720 
Q 1043 2803 1158 2851 
Q 1274 2899 1395 2899 
Q 1658 2899 1904 2608 
Q 2150 2317 2285 1869 
Q 2349 1677 2377 1469 
Q 2406 1261 2406 1043 
Q 2406 832 2189 397 
Q 1875 275 1577 201 
Q 1280 128 912 93 
Q 544 58 6 58 
z
M 1318 1504 
Q 1568 1504 1856 1594 
Q 1734 1875 1593 2003 
Q 1453 2131 1254 2131 
Q 1056 2131 944 2032 
Q 832 1933 832 1811 
Q 832 1658 947 1581 
Q 1062 1504 1318 1504 
z
M 1818 3296 
Q 1683 3405 1574 3501 
Q 1466 3597 1376 3693 
Q 1613 3911 1805 4141 
Q 1862 4077 1964 3981 
Q 2067 3885 2208 3744 
Q 2035 3508 1818 3296 
z
M 960 3200 
Q 685 3424 518 3604 
Q 627 3712 736 3824 
Q 845 3936 954 4045 
Q 1069 3911 1350 3648 
Q 1190 3418 960 3200 
z
" transform="scale(0.015625)"/>
      <path id="NotoNaskhArabic-Bold-1e4" d="M 2016 0 
Q 1606 0 1257 73 
Q 909 147 685 269 
Q 506 147 346 102 
Q 186 58 0 58 
Q -51 58 -51 109 
L -51 762 
Q -51 813 0 813 
Q 160 813 333 858 
Q 333 870 336 886 
Q 339 902 339 922 
Q 384 1261 573 1597 
Q 762 1933 1018 2131 
Q 1286 2342 1568 2342 
Q 1696 2342 1811 2176 
Q 1862 2093 1929 1942 
Q 1997 1792 2074 1581 
Q 2227 1133 2394 960 
Q 2528 813 2682 813 
Q 2752 813 2752 755 
L 2752 128 
Q 2752 58 2682 58 
Q 2362 58 2106 301 
L 2016 0 
z
M 1818 710 
Q 1606 1133 1549 1664 
Q 979 1440 698 1082 
Q 877 941 1155 851 
Q 1434 762 1818 710 
z
" transform="scale(0.015625)"/>
      <path id="NotoNaskhArabic-Bold-215" d="M 3302 58 
Q 2912 58 2675 182 
Q 2438 307 2393 531 
L 2336 768 
L 2080 243 
Q 1881 262 1711 288 
Q 1542 314 1395 365 
Q 1235 422 1075 518 
Q 915 614 806 716 
Q 697 819 697 890 
Q 697 941 738 1078 
Q 780 1216 838 1369 
Q 896 1523 940 1600 
Q 998 1728 1184 1882 
Q 1363 2042 1593 2192 
Q 1824 2342 1984 2413 
L 1952 2669 
Q 2118 2797 2223 2873 
Q 2329 2950 2418 3011 
Q 2508 3072 2617 3136 
L 2617 986 
Q 2924 813 3302 813 
Q 3353 813 3353 762 
L 3353 109 
Q 3353 58 3302 58 
z
M 2272 1005 
Q 2233 1158 2188 1366 
Q 2144 1574 2086 1837 
Q 1491 1638 1152 1318 
Q 1356 1178 1542 1123 
Q 1728 1069 1894 1043 
Q 2067 1011 2272 1005 
z
M 2138 3257 
Q 2003 3366 1894 3462 
Q 1786 3558 1696 3654 
Q 1933 3872 2125 4102 
Q 2182 4038 2284 3942 
Q 2387 3846 2528 3705 
Q 2355 3469 2138 3257 
z
M 1280 3161 
Q 1005 3385 838 3565 
Q 947 3673 1056 3785 
Q 1165 3897 1274 4006 
Q 1389 3872 1670 3609 
Q 1510 3379 1280 3161 
z
" transform="scale(0.015625)"/>
      <path id="NotoNaskhArabic-Bold-8c" d="M 0 58 
Q -51 58 -51 109 
L -51 762 
Q -51 813 0 813 
Q 467 813 793 829 
Q 1120 845 1427 934 
Q 1702 1018 1897 1069 
Q 2093 1120 2202 1146 
Q 2112 1197 2025 1251 
Q 1939 1306 1856 1363 
Q 1651 1504 1513 1558 
Q 1376 1613 1235 1613 
Q 1043 1613 870 1558 
Q 698 1504 480 1363 
Q 422 1421 377 1533 
Q 333 1645 333 1747 
Q 333 2029 582 2205 
Q 832 2381 1210 2381 
Q 1414 2381 1603 2310 
Q 1792 2240 2029 2080 
Q 2317 1882 2560 1763 
Q 2803 1645 3136 1555 
Q 3302 1517 3500 1494 
Q 3699 1472 3936 1472 
L 3603 794 
Q 3405 813 3273 825 
Q 3142 838 2963 826 
Q 2739 806 2483 704 
Q 2227 602 1990 467 
Q 1741 320 1533 237 
Q 1325 154 1107 115 
Q 890 77 624 67 
Q 358 58 0 58 
z
" transform="scale(0.015625)"/>
      <path id="NotoNaskhArabic-Bold-73" d="M 0 58 
Q -51 58 -51 109 
L -51 762 
Q -51 813 0 813 
Q 467 813 793 829 
Q 1120 845 1427 934 
Q 1702 1018 1897 1069 
Q 2093 1120 2202 1146 
Q 2118 1197 2032 1251 
Q 1946 1306 1856 1363 
Q 1651 1498 1513 1555 
Q 1376 1613 1235 1613 
Q 1043 1613 870 1558 
Q 698 1504 480 1363 
Q 422 1421 377 1533 
Q 333 1645 333 1747 
Q 333 2029 582 2205 
Q 832 2381 1210 2381 
Q 1414 2381 1603 2310 
Q 1792 2240 2029 2080 
Q 2317 1882 2560 1763 
Q 2803 1645 3136 1555 
Q 3302 1517 3500 1494 
Q 3699 1472 3936 1472 
L 3654 934 
Q 3578 941 3501 941 
Q 3424 941 3347 947 
Q 3411 890 3488 867 
Q 3565 845 3661 832 
Q 3808 826 3965 822 
Q 4122 819 4262 813 
Q 4314 813 4314 762 
L 4314 109 
Q 4314 58 4262 58 
Q 4032 58 3782 80 
Q 3533 102 3325 150 
Q 3117 198 3021 262 
Q 2893 358 2838 537 
Q 2784 717 2746 877 
Q 2624 851 2525 803 
Q 2426 755 2304 675 
Q 2182 595 1990 467 
Q 1683 262 1395 176 
Q 1107 90 774 74 
Q 442 58 0 58 
z
M 2208 -1107 
Q 2035 -966 1913 -851 
Q 1792 -736 1708 -646 
Q 1836 -518 1958 -393 
Q 2080 -269 2195 -134 
Q 2361 -326 2656 -595 
Q 2585 -697 2470 -828 
Q 2355 -960 2208 -1107 
z
" transform="scale(0.015625)"/>
      <path id="NotoNaskhArabic-Bold-1e3" d="M 570 -1965 
Q 570 -1664 554 -1296 
Q 538 -928 506 -486 
Q 467 -45 451 240 
Q 435 525 435 653 
Q 435 723 493 896 
Q 525 979 576 1107 
Q 627 1235 704 1402 
Q 723 1434 857 1539 
Q 992 1645 1181 1776 
Q 1370 1907 1542 2010 
Q 1811 2157 2054 2249 
Q 2298 2342 2477 2342 
Q 2592 2342 2678 2227 
Q 2765 2112 2842 1946 
Q 2874 1862 2912 1769 
Q 2950 1677 2982 1581 
Q 3053 1382 3139 1209 
Q 3226 1037 3328 928 
Q 3437 813 3590 813 
Q 3661 813 3661 755 
L 3661 128 
Q 3661 58 3590 58 
Q 3277 58 3014 301 
L 2931 0 
Q 2445 0 2064 93 
Q 1683 186 1462 362 
Q 1242 538 1242 774 
Q 1242 998 1318 1216 
Q 1242 1171 1117 1081 
Q 992 992 819 864 
Q 870 531 928 182 
Q 986 -166 1069 -672 
Q 1120 -979 1158 -1212 
Q 1197 -1446 1216 -1600 
Q 877 -1856 570 -1965 
z
M 2726 710 
Q 2515 1133 2458 1664 
Q 1920 1453 1606 1082 
Q 1939 806 2726 710 
z
" transform="scale(0.015625)"/>
      <path id="NotoNaskhArabic-Bold-136" d="M 0 58 
Q -51 58 -51 109 
L -51 762 
Q -51 813 0 813 
L 499 813 
Q 365 1005 365 1210 
Q 365 1408 441 1632 
Q 518 1856 652 2057 
Q 787 2259 947 2387 
Q 1190 2579 1440 2579 
Q 1875 2579 2406 1990 
L 2272 1728 
Q 2074 1805 1907 1840 
Q 1741 1875 1600 1875 
Q 1376 1875 1197 1827 
Q 1018 1779 819 1670 
Q 832 1434 921 1245 
Q 1011 1056 1190 928 
Q 1267 877 1338 838 
Q 1843 870 2240 953 
Q 2637 1037 3040 1197 
Q 3091 1152 3116 1056 
Q 3142 960 3142 883 
Q 3142 730 3072 602 
Q 3002 474 2874 410 
Q 2746 346 2259 250 
Q 1766 147 1235 102 
Q 704 58 0 58 
z
" transform="scale(0.015625)"/>
      <path id="NotoNaskhArabic-Bold-1e9" d="M 0 58 
Q -51 58 -51 109 
L -51 762 
Q -51 813 0 813 
Q 416 813 627 966 
Q 710 1024 774 1145 
Q 838 1267 922 1427 
Q 1024 1632 1101 1680 
Q 1178 1728 1280 1728 
Q 1427 1728 1536 1638 
Q 1466 1478 1392 1312 
Q 1318 1146 1248 979 
Q 1562 813 1926 813 
Q 1978 813 1978 762 
L 1978 109 
Q 1978 58 1926 58 
Q 1440 58 998 499 
Q 960 435 925 384 
Q 890 333 858 288 
Q 774 192 550 125 
Q 326 58 0 58 
z
M 966 2284 
Q 640 2553 474 2745 
Q 621 2892 739 3017 
Q 858 3142 954 3257 
Q 1024 3180 1139 3065 
Q 1254 2950 1414 2796 
Q 1338 2688 1226 2560 
Q 1114 2432 966 2284 
z
" transform="scale(0.015625)"/>
      <path id="NotoNaskhArabic-Bold-b6" d="M 1075 0 
Q 218 0 218 499 
Q 218 634 272 784 
Q 326 934 410 1018 
Q 570 890 774 826 
Q 979 762 1280 762 
Q 1466 762 1658 784 
Q 1850 806 2048 851 
Q 1798 1286 1648 1673 
Q 1498 2061 1498 2246 
Q 1498 2477 1613 2646 
Q 1728 2816 1946 2880 
Q 2074 2362 2208 1955 
Q 2342 1549 2490 1248 
Q 2611 1005 2758 909 
Q 2906 813 3162 813 
Q 3213 813 3213 762 
L 3213 109 
Q 3213 58 3162 58 
Q 2707 58 2413 352 
Q 1709 0 1075 0 
z
" transform="scale(0.015625)"/>
      <path id="NotoNaskhArabic-Bold-3" d="M 774 58 
Q 742 717 710 1216 
Q 678 1715 646 2134 
Q 614 2554 576 2950 
Q 538 3347 493 3808 
Q 474 3968 566 4089 
Q 659 4211 822 4281 
Q 986 4352 1178 4352 
Q 1229 4154 1296 3955 
Q 1363 3757 1440 3565 
L 1216 3398 
Q 1229 2867 1222 2035 
Q 1216 1203 1184 109 
L 774 58 
z
" transform="scale(0.015625)"/>
      <path id="NotoNaskhArabic-Bold-1ea" d="M 0 58 
Q -51 58 -51 109 
L -51 762 
Q -51 813 0 813 
Q 320 813 640 867 
Q 960 922 1139 998 
Q 1075 1146 976 1328 
Q 877 1510 819 1613 
Q 755 1734 710 1833 
Q 666 1933 666 2016 
Q 666 2176 838 2361 
Q 1011 2547 1248 2669 
Q 1293 2470 1347 2217 
Q 1402 1965 1446 1702 
Q 1485 1504 1501 1376 
Q 1517 1248 1517 1184 
Q 1517 1037 1443 822 
Q 1370 608 1267 410 
Q 685 58 0 58 
z
M 902 3052 
Q 576 3321 410 3513 
Q 557 3660 675 3785 
Q 794 3910 890 4025 
Q 960 3948 1075 3833 
Q 1190 3718 1350 3564 
Q 1274 3456 1162 3328 
Q 1050 3200 902 3052 
z
" transform="scale(0.015625)"/>
      <path id="NotoNaskhArabic-Bold-135" d="M 6 58 
Q -51 58 -51 115 
L -51 755 
Q -51 813 6 813 
Q 346 813 627 822 
Q 909 832 1126 870 
L 998 1030 
Q 909 1152 835 1235 
Q 762 1318 691 1382 
Q 640 1434 589 1478 
Q 538 1523 486 1568 
L 371 1485 
Q 198 1670 198 1894 
Q 198 2112 390 2272 
Q 582 2432 915 2554 
Q 1242 2669 1549 2669 
Q 1830 2669 2080 2547 
Q 2330 2426 2470 2208 
Q 2618 1990 2618 1760 
Q 2618 1530 2490 1306 
Q 2362 1082 2118 858 
Q 2291 832 2486 822 
Q 2682 813 2912 813 
Q 2976 813 2976 755 
L 2976 115 
Q 2976 58 2912 58 
Q 2464 58 2105 160 
Q 1747 262 1530 448 
Q 845 58 6 58 
z
M 1626 1062 
Q 1978 1293 1978 1613 
Q 1978 1773 1862 1865 
Q 1747 1958 1574 1958 
Q 1408 1958 1257 1926 
Q 1107 1894 902 1805 
Q 973 1741 1117 1603 
Q 1261 1466 1459 1248 
Q 1498 1203 1539 1158 
Q 1581 1114 1626 1062 
z
" transform="scale(0.015625)"/>
      <path id="NotoNaskhArabic-Bold-175" d="M 0 58 
Q -51 58 -51 109 
L -51 762 
Q -51 813 0 813 
Q 832 813 1293 870 
Q 1741 922 1952 1030 
Q 1882 1178 1728 1347 
Q 1574 1517 1363 1683 
Q 1242 1773 1085 1875 
Q 928 1978 723 2099 
Q 64 2470 64 2778 
Q 64 2906 121 3030 
Q 179 3155 269 3238 
Q 314 3277 515 3376 
Q 717 3475 1008 3606 
Q 1299 3738 1622 3878 
Q 1946 4019 2243 4144 
Q 2541 4269 2746 4352 
Q 2880 4230 2880 4032 
Q 2880 3872 2781 3728 
Q 2682 3584 2534 3514 
Q 2291 3392 2038 3283 
Q 1786 3174 1440 3049 
Q 1094 2925 563 2739 
Q 1011 2630 1401 2371 
Q 1792 2112 2029 1773 
Q 2278 1421 2278 1107 
Q 2278 1050 2272 1037 
Q 2630 813 3046 813 
Q 3104 813 3104 762 
L 3104 109 
Q 3104 58 3046 58 
Q 2470 58 2016 531 
Q 1901 429 1702 326 
Q 1126 58 0 58 
z
" transform="scale(0.015625)"/>
      <path id="NotoNaskhArabic-Bold-4" d="M 1901 58 
Q 1517 58 1283 186 
Q 1050 314 938 528 
Q 826 742 794 1018 
Q 781 1139 749 1424 
Q 717 1709 681 2073 
Q 646 2438 608 2809 
Q 570 3181 538 3481 
Q 506 3782 486 3930 
Q 845 4166 1248 4352 
Q 1274 3635 1296 2918 
Q 1318 2202 1338 1478 
L 1363 979 
Q 1478 883 1606 848 
Q 1734 813 1914 813 
Q 1952 813 1952 762 
L 1952 109 
Q 1952 58 1901 58 
z
" transform="scale(0.015625)"/>
      <path id="NotoNaskhArabic-Bold-f7" d="M 1606 -1613 
Q 1037 -1613 736 -1277 
Q 435 -941 435 -301 
Q 435 32 595 627 
L 877 557 
Q 787 256 787 45 
Q 787 -858 1626 -858 
Q 2131 -858 2486 -726 
Q 2842 -595 3181 -288 
Q 2963 134 2800 444 
Q 2637 755 2637 883 
Q 2637 1408 3283 1728 
Q 3296 1606 3334 1372 
Q 3373 1139 3437 794 
Q 3546 781 3642 771 
Q 3738 762 3821 762 
Q 3949 762 4025 771 
Q 4102 781 4275 832 
Q 4326 922 4448 1229 
Q 4499 1350 4544 1465 
Q 4589 1581 4634 1696 
Q 4698 1875 4928 1875 
Q 5062 1875 5171 1811 
Q 5126 1709 5056 1491 
Q 4986 1274 4896 992 
Q 5139 870 5427 806 
Q 5715 742 6093 704 
Q 6029 845 5955 982 
Q 5882 1120 5811 1261 
Q 5734 1408 5673 1539 
Q 5613 1670 5613 1798 
Q 5613 1952 5785 2141 
Q 5958 2330 6195 2451 
Q 6240 2234 6281 2016 
Q 6323 1798 6368 1587 
Q 6464 1082 6464 909 
Q 6464 806 6422 640 
Q 6381 474 6320 298 
Q 6259 122 6195 0 
Q 5805 0 5395 93 
Q 4986 186 4666 326 
L 4595 186 
Q 4550 102 4314 51 
Q 4192 26 4051 13 
Q 3910 0 3744 0 
Q 3693 0 3638 3 
Q 3584 6 3533 13 
L 3533 -45 
Q 3533 -474 3277 -838 
Q 3021 -1203 2579 -1408 
Q 2362 -1510 2115 -1561 
Q 1869 -1613 1606 -1613 
z
" transform="scale(0.015625)"/>
     </defs>
     <use xlink:href="#NotoNaskhArabic-Bold-554"/>
     <use xlink:href="#DejaVuSans-Bold-b"/>
     <use xlink:href="#DejaVuSans-Bold-26" transform="translate(45.703125 0)"/>
     <use xlink:href="#DejaVuSans-Bold-4f" transform="translate(119.09375 0)"/>
     <use xlink:href="#DejaVuSans-Bold-4c" transform="translate(153.375 0)"/>
     <use xlink:href="#DejaVuSans-Bold-50" transform="translate(187.65625 0)"/>
     <use xlink:href="#DejaVuSans-Bold-44" transform="translate(291.859375 0)"/>
     <use xlink:href="#DejaVuSans-Bold-5b" transform="translate(359.34375 0)"/>
     <use xlink:href="#NotoNaskhArabic-Bold-554" transform="translate(423.84375 0)"/>
     <use xlink:href="#DejaVuSans-Bold-39" transform="translate(445.9375 0)"/>
     <use xlink:href="#DejaVuSans-Bold-52" transform="translate(517.859375 0)"/>
     <use xlink:href="#DejaVuSans-Bold-4f" transform="translate(586.5625 0)"/>
     <use xlink:href="#DejaVuSans-Bold-58" transform="translate(620.84375 0)"/>
     <use xlink:href="#DejaVuSans-Bold-50" transform="translate(692.03125 0)"/>
     <use xlink:href="#DejaVuSans-Bold-48" transform="translate(796.234375 0)"/>
     <use xlink:href="#DejaVuSans-Bold-c" transform="translate(864.0625 0)"/>
     <use xlink:href="#NotoNaskhArabic-Bold-554" transform="translate(909.765625 0)"/>
     <use xlink:href="#NotoNaskhArabic-Bold-16a" transform="translate(931.859375 0)"/>
     <use xlink:href="#NotoNaskhArabic-Bold-1e4" transform="translate(974.5625 0)"/>
     <use xlink:href="#NotoNaskhArabic-Bold-215" transform="translate(1015.859375 0)"/>
     <use xlink:href="#NotoNaskhArabic-Bold-554" transform="translate(1066.5625 0)"/>
     <use xlink:href="#NotoNaskhArabic-Bold-8c" transform="translate(1088.65625 0)"/>
     <use xlink:href="#NotoNaskhArabic-Bold-73" transform="translate(1153.5625 0)"/>
     <use xlink:href="#NotoNaskhArabic-Bold-1e3" transform="translate(1219.265625 0)"/>
     <use xlink:href="#NotoNaskhArabic-Bold-554" transform="translate(1274.765625 0)"/>
     <use xlink:href="#NotoNaskhArabic-Bold-136" transform="translate(1296.859375 0)"/>
     <use xlink:href="#NotoNaskhArabic-Bold-1e9" transform="translate(1348.5625 0)"/>
     <use xlink:href="#NotoNaskhArabic-Bold-b6" transform="translate(1377.765625 0)"/>
     <use xlink:href="#NotoNaskhArabic-Bold-554" transform="translate(1426.265625 0)"/>
     <use xlink:href="#NotoNaskhArabic-Bold-3" transform="translate(1448.359375 0)"/>
     <use xlink:href="#NotoNaskhArabic-Bold-1ea" transform="translate(1476.765625 0)"/>
     <use xlink:href="#NotoNaskhArabic-Bold-135" transform="translate(1504.265625 0)"/>
     <use xlink:href="#NotoNaskhArabic-Bold-175" transform="translate(1549.0625 0)"/>
     <use xlink:href="#NotoNaskhArabic-Bold-4" transform="translate(1595.765625 0)"/>
     <use xlink:href="#NotoNaskhArabic-Bold-f7" transform="translate(1624.5625 0)"/>
    </g>
   </g>
   <g id="patch_3">
    <path d="M 14.392 174.560466 
L 19.848 174.560466 
L 19.848 170.059628 
L 14.392 170.059628 
z
" clip-path="url(#pb4f79de0bf)" style="fill: #b91c1c; stroke: #b91c1c; stroke-linejoin: miter"/>
   </g>
   <g id="patch_4">
    <path d="M 24.312 174.056463 
L 29.768 174.056463 
L 29.768 169.555626 
L 24.312 169.555626 
z
" clip-path="url(#pb4f79de0bf)" style="fill: #b91c1c; stroke: #b91c1c; stroke-linejoin: miter"/>
   </g>
   <g id="patch_5">
    <path d="M 34.232 177.990561 
L 39.688 177.990561 
L 39.688 173.489723 
L 34.232 173.489723 
z
" clip-path="url(#pb4f79de0bf)" style="fill: #b91c1c; stroke: #b91c1c; stroke-linejoin: miter"/>
   </g>
   <g id="patch_6">
    <path d="M 44.152 174.063127 
L 49.608 174.063127 
L 49.608 169.562289 
L 44.152 169.562289 
z
" clip-path="url(#pb4f79de0bf)" style="fill: #1f8a56; stroke: #1f8a56; stroke-linejoin: miter"/>
   </g>
   <g id="patch_7">
    <path d="M 54.072 172.581795 
L 59.528 172.581795 
L 59.528 158.234668 
L 54.072 158.234668 
z
" clip-path="url(#pb4f79de0bf)" style="fill: #1f8a56; stroke: #1f8a56; stroke-linejoin: miter"/>
   </g>
   <g id="patch_8">
    <path d="M 63.992 164.419602 
L 69.448 164.419602 
L 69.448 158.475293 
L 63.992 158.475293 
z
" clip-path="url(#pb4f79de0bf)" style="fill: #b91c1c; stroke: #b91c1c; stroke-linejoin: miter"/>
   </g>
   <g id="patch_9">
    <path d="M 73.912 164.542988 
L 79.368 164.542988 
L 79.368 160.04215 
L 73.912 160.04215 
z
" clip-path="url(#pb4f79de0bf)" style="fill: #1f8a56; stroke: #1f8a56; stroke-linejoin: miter"/>
   </g>
   <g id="patch_10">
    <path d="M 83.832 161.272421 
L 89.288 161.272421 
L 89.288 153.945007 
L 83.832 153.945007 
z
" clip-path="url(#pb4f79de0bf)" style="fill: #1f8a56; stroke: #1f8a56; stroke-linejoin: miter"/>
   </g>
   <g id="patch_11">
    <path d="M 93.752 153.059444 
L 99.208 153.059444 
L 99.208 148.558607 
L 93.752 148.558607 
z
" clip-path="url(#pb4f79de0bf)" style="fill: #1f8a56; stroke: #1f8a56; stroke-linejoin: miter"/>
   </g>
   <g id="patch_12">
    <path d="M 103.672 151.325304 
L 109.128 151.325304 
L 109.128 143.18448 
L 103.672 143.18448 
z
" clip-path="url(#pb4f79de0bf)" style="fill: #1f8a56; stroke: #1f8a56; stroke-linejoin: miter"/>
   </g>
   <g id="patch_13">
    <path d="M 113.592 143.566145 
L 119.048 143.566145 
L 119.048 139.065307 
L 113.592 139.065307 
z
" clip-path="url(#pb4f79de0bf)" style="fill: #1f8a56; stroke: #1f8a56; stroke-linejoin: miter"/>
   </g>
   <g id="patch_14">
    <path d="M 123.512 142.281708 
L 128.968 142.281708 
L 128.968 134.862406 
L 123.512 134.862406 
z
" clip-path="url(#pb4f79de0bf)" style="fill: #1f8a56; stroke: #1f8a56; stroke-linejoin: miter"/>
   </g>
   <g id="patch_15">
    <path d="M 133.432 135.248867 
L 138.888 135.248867 
L 138.888 130.748029 
L 133.432 130.748029 
z
" clip-path="url(#pb4f79de0bf)" style="fill: #1f8a56; stroke: #1f8a56; stroke-linejoin: miter"/>
   </g>
   <g id="patch_16">
    <path d="M 143.352 128.978995 
L 148.808 128.978995 
L 148.808 123.471262 
L 143.352 123.471262 
z
" clip-path="url(#pb4f79de0bf)" style="fill: #1f8a56; stroke: #1f8a56; stroke-linejoin: miter"/>
   </g>
   <g id="patch_17">
    <path d="M 153.272 124.848814 
L 158.728 124.848814 
L 158.728 119.845452 
L 153.272 119.845452 
z
" clip-path="url(#pb4f79de0bf)" style="fill: #1f8a56; stroke: #1f8a56; stroke-linejoin: miter"/>
   </g>
   <g id="patch_18">
    <path d="M 163.192 119.739105 
L 168.648 119.739105 
L 168.648 102.725866 
L 163.192 102.725866 
z
" clip-path="url(#pb4f79de0bf)" style="fill: #1f8a56; stroke: #1f8a56; stroke-linejoin: miter"/>
   </g>
   <g id="patch_19">
    <path d="M 173.112 102.788592 
L 178.568 102.788592 
L 178.568 91.811003 
L 173.112 91.811003 
z
" clip-path="url(#pb4f79de0bf)" style="fill: #1f8a56; stroke: #1f8a56; stroke-linejoin: miter"/>
   </g>
   <g id="patch_20">
    <path d="M 183.032 93.106401 
L 188.488 93.106401 
L 188.488 88.605563 
L 183.032 88.605563 
z
" clip-path="url(#pb4f79de0bf)" style="fill: #1f8a56; stroke: #1f8a56; stroke-linejoin: miter"/>
   </g>
   <g id="patch_21">
    <path d="M 192.952 91.820867 
L 198.408 91.820867 
L 198.408 85.460811 
L 192.952 85.460811 
z
" clip-path="url(#pb4f79de0bf)" style="fill: #1f8a56; stroke: #1f8a56; stroke-linejoin: miter"/>
   </g>
   <g id="patch_22">
    <path d="M 202.872 85.957253 
L 208.328 85.957253 
L 208.328 81.456416 
L 202.872 81.456416 
z
" clip-path="url(#pb4f79de0bf)" style="fill: #1f8a56; stroke: #1f8a56; stroke-linejoin: miter"/>
   </g>
   <g id="patch_23">
    <path d="M 212.792 84.906372 
L 218.248 84.906372 
L 218.248 71.824622 
L 212.792 71.824622 
z
" clip-path="url(#pb4f79de0bf)" style="fill: #1f8a56; stroke: #1f8a56; stroke-linejoin: miter"/>
   </g>
   <g id="patch_24">
    <path d="M 222.712 70.041075 
L 228.168 70.041075 
L 228.168 58.951722 
L 222.712 58.951722 
z
" clip-path="url(#pb4f79de0bf)" style="fill: #1f8a56; stroke: #1f8a56; stroke-linejoin: miter"/>
   </g>
   <g id="patch_25">
    <path d="M 232.632 61.216414 
L 238.088 61.216414 
L 238.088 46.101591 
L 232.632 46.101591 
z
" clip-path="url(#pb4f79de0bf)" style="fill: #1f8a56; stroke: #1f8a56; stroke-linejoin: miter"/>
   </g>
   <g id="patch_26">
    <path d="M 242.552 44.326019 
L 248.008 44.326019 
L 248.008 31.910273 
L 242.552 31.910273 
z
" clip-path="url(#pb4f79de0bf)" style="fill: #1f8a56; stroke: #1f8a56; stroke-linejoin: miter"/>
   </g>
  </g>
  <g id="axes_2">
   <g id="patch_27">
    <path d="M 7.2 311.6665 
L 255.2 311.6665 
L 255.2 208.522314 
L 7.2 208.522314 
z
" style="fill: #ffffff"/>
   </g>
   <g id="patch_28">
    <path d="M 18.472727 311.6665 
L 25.131722 311.6665 
L 25.131722 278.961502 
L 18.472727 278.961502 
z
" clip-path="url(#pee3df2d2df)" style="fill: #b91c1c"/>
   </g>
   <g id="patch_29">
    <path d="M 27.985577 311.6665 
L 34.644572 311.6665 
L 34.644572 288.875598 
L 27.985577 288.875598 
z
" clip-path="url(#pee3df2d2df)" style="fill: #b91c1c"/>
   </g>
   <g id="patch_30">
    <path d="M 37.498427 311.6665 
L 44.157422 311.6665 
L 44.157422 280.246943 
L 37.498427 280.246943 
z
" clip-path="url(#pee3df2d2df)" style="fill: #b91c1c"/>
   </g>
   <g id="patch_31">
    <path d="M 47.011277 311.6665 
L 53.670272 311.6665 
L 53.670272 293.218118 
L 47.011277 293.218118 
z
" clip-path="url(#pee3df2d2df)" style="fill: #b91c1c"/>
   </g>
   <g id="patch_32">
    <path d="M 56.524127 311.6665 
L 63.183122 311.6665 
L 63.183122 288.753173 
L 56.524127 288.753173 
z
" clip-path="url(#pee3df2d2df)" style="fill: #b91c1c"/>
   </g>
   <g id="patch_33">
    <path d="M 66.036977 311.6665 
L 72.695972 311.6665 
L 72.695972 278.285219 
L 66.036977 278.285219 
z
" clip-path="url(#pee3df2d2df)" style="fill: #b91c1c"/>
   </g>
   <g id="patch_34">
    <path d="M 75.549827 311.6665 
L 82.208822 311.6665 
L 82.208822 290.831873 
L 75.549827 290.831873 
z
" clip-path="url(#pee3df2d2df)" style="fill: #b91c1c"/>
   </g>
   <g id="patch_35">
    <path d="M 85.062677 311.6665 
L 91.721672 311.6665 
L 91.721672 285.328667 
L 85.062677 285.328667 
z
" clip-path="url(#pee3df2d2df)" style="fill: #b91c1c"/>
   </g>
   <g id="patch_36">
    <path d="M 94.575527 311.6665 
L 101.234522 311.6665 
L 101.234522 292.172993 
L 94.575527 292.172993 
z
" clip-path="url(#pee3df2d2df)" style="fill: #b91c1c"/>
   </g>
   <g id="patch_37">
    <path d="M 104.088377 311.6665 
L 110.747372 311.6665 
L 110.747372 278.29795 
L 104.088377 278.29795 
z
" clip-path="url(#pee3df2d2df)" style="fill: #b91c1c"/>
   </g>
   <g id="patch_38">
    <path d="M 113.601227 311.6665 
L 120.260222 311.6665 
L 120.260222 289.812911 
L 113.601227 289.812911 
z
" clip-path="url(#pee3df2d2df)" style="fill: #b91c1c"/>
   </g>
   <g id="patch_39">
    <path d="M 123.114077 311.6665 
L 129.773072 311.6665 
L 129.773072 291.425186 
L 123.114077 291.425186 
z
" clip-path="url(#pee3df2d2df)" style="fill: #b91c1c"/>
   </g>
   <g id="patch_40">
    <path d="M 132.626928 311.6665 
L 139.285923 311.6665 
L 139.285923 278.798271 
L 132.626928 278.798271 
z
" clip-path="url(#pee3df2d2df)" style="fill: #b91c1c"/>
   </g>
   <g id="patch_41">
    <path d="M 142.139778 311.6665 
L 148.798773 311.6665 
L 148.798773 279.248188 
L 142.139778 279.248188 
z
" clip-path="url(#pee3df2d2df)" style="fill: #b91c1c"/>
   </g>
   <g id="patch_42">
    <path d="M 151.652628 311.6665 
L 158.311623 311.6665 
L 158.311623 279.231268 
L 151.652628 279.231268 
z
" clip-path="url(#pee3df2d2df)" style="fill: #b91c1c"/>
   </g>
   <g id="patch_43">
    <path d="M 161.165478 311.6665 
L 167.824473 311.6665 
L 167.824473 282.289465 
L 161.165478 282.289465 
z
" clip-path="url(#pee3df2d2df)" style="fill: #b91c1c"/>
   </g>
   <g id="patch_44">
    <path d="M 170.678328 311.6665 
L 177.337323 311.6665 
L 177.337323 290.786305 
L 170.678328 290.786305 
z
" clip-path="url(#pee3df2d2df)" style="fill: #b91c1c"/>
   </g>
   <g id="patch_45">
    <path d="M 180.191178 311.6665 
L 186.850173 311.6665 
L 186.850173 284.207801 
L 180.191178 284.207801 
z
" clip-path="url(#pee3df2d2df)" style="fill: #b91c1c"/>
   </g>
   <g id="patch_46">
    <path d="M 189.704028 311.6665 
L 196.363023 311.6665 
L 196.363023 293.122566 
L 189.704028 293.122566 
z
" clip-path="url(#pee3df2d2df)" style="fill: #b91c1c"/>
   </g>
   <g id="patch_47">
    <path d="M 199.216878 311.6665 
L 205.875873 311.6665 
L 205.875873 276.806139 
L 199.216878 276.806139 
z
" clip-path="url(#pee3df2d2df)" style="fill: #b91c1c"/>
   </g>
   <g id="patch_48">
    <path d="M 208.729728 311.6665 
L 215.388723 311.6665 
L 215.388723 231.294407 
L 208.729728 231.294407 
z
" clip-path="url(#pee3df2d2df)" style="fill: #b91c1c"/>
   </g>
   <g id="patch_49">
    <path d="M 218.242578 311.6665 
L 224.901573 311.6665 
L 224.901573 213.433942 
L 218.242578 213.433942 
z
" clip-path="url(#pee3df2d2df)" style="fill: #b91c1c"/>
   </g>
   <g id="patch_50">
    <path d="M 227.755428 311.6665 
L 234.414423 311.6665 
L 234.414423 222.364174 
L 227.755428 222.364174 
z
" clip-path="url(#pee3df2d2df)" style="fill: #b91c1c"/>
   </g>
   <g id="patch_51">
    <path d="M 237.268278 311.6665 
L 243.927273 311.6665 
L 243.927273 244.689756 
L 237.268278 244.689756 
z
" clip-path="url(#pee3df2d2df)" style="fill: #b91c1c"/>
   </g>
   <g id="matplotlib.axis_3"/>
   <g id="matplotlib.axis_4"/>
  </g>
  <g id="axes_3">
   <g id="patch_52">
    <path d="M 317.2 188.409198 
L 565.2 188.409198 
L 565.2 23.3785 
L 317.2 23.3785 
z
" style="fill: #ffffff"/>
   </g>
   <g id="matplotlib.axis_5"/>
   <g id="matplotlib.axis_6"/>
   <g id="line2d_25">
    <path d="M 329.009524 180.907802 
L 329.009524 160.37169 
" clip-path="url(#p31d8a316af)" style="fill: none; stroke: #1f8a56; stroke-width: 1.1; stroke-linecap: round"/>
   </g>
   <g id="line2d_26">
    <path d="M 340.819048 168.244693 
L 340.819048 164.628204 
" clip-path="url(#p31d8a316af)" style="fill: none; stroke: #1f8a56; stroke-width: 1.1; stroke-linecap: round"/>
   </g>
   <g id="line2d_27">
    <path d="M 352.628571 161.459079 
L 352.628571 120.409819 
" clip-path="url(#p31d8a316af)" style="fill: none; stroke: #1f8a56; stroke-width: 1.1; stroke-linecap: round"/>
   </g>
   <g id="line2d_28">
    <path d="M 364.438095 132.67727 
L 364.438095 98.185458 
" clip-path="url(#p31d8a316af)" style="fill: none; stroke: #1f8a56; stroke-width: 1.1; stroke-linecap: round"/>
   </g>
   <g id="line2d_29">
    <path d="M 376.247619 92.936554 
L 376.247619 78.91586 
" clip-path="url(#p31d8a316af)" style="fill: none; stroke: #1f8a56; stroke-width: 1.1; stroke-linecap: round"/>
   </g>
   <g id="line2d_30">
    <path d="M 388.057143 75.991665 
L 388.057143 50.665577 
" clip-path="url(#p31d8a316af)" style="fill: none; stroke: #1f8a56; stroke-width: 1.1; stroke-linecap: round"/>
   </g>
   <g id="line2d_31">
    <path d="M 399.866667 78.557904 
L 399.866667 46.616826 
" clip-path="url(#p31d8a316af)" style="fill: none; stroke: #b91c1c; stroke-width: 1.1; stroke-linecap: round"/>
   </g>
   <g id="line2d_32">
    <path d="M 411.67619 84.482001 
L 411.67619 40.97483 
" clip-path="url(#p31d8a316af)" style="fill: none; stroke: #1f8a56; stroke-width: 1.1; stroke-linecap: round"/>
   </g>
   <g id="line2d_33">
    <path d="M 423.485714 81.474626 
L 423.485714 48.973335 
" clip-path="url(#p31d8a316af)" style="fill: none; stroke: #b91c1c; stroke-width: 1.1; stroke-linecap: round"/>
   </g>
   <g id="line2d_34">
    <path d="M 435.295238 79.005288 
L 435.295238 41.486919 
" clip-path="url(#p31d8a316af)" style="fill: none; stroke: #1f8a56; stroke-width: 1.1; stroke-linecap: round"/>
   </g>
   <g id="line2d_35">
    <path d="M 447.104762 66.517712 
L 447.104762 30.879895 
" clip-path="url(#p31d8a316af)" style="fill: none; stroke: #b91c1c; stroke-width: 1.1; stroke-linecap: round"/>
   </g>
   <g id="line2d_36">
    <path d="M 458.914286 81.801629 
L 458.914286 50.25193 
" clip-path="url(#p31d8a316af)" style="fill: none; stroke: #b91c1c; stroke-width: 1.1; stroke-linecap: round"/>
   </g>
   <g id="line2d_37">
    <path d="M 470.72381 76.65677 
L 470.72381 62.891852 
" clip-path="url(#p31d8a316af)" style="fill: none; stroke: #b91c1c; stroke-width: 1.1; stroke-linecap: round"/>
   </g>
   <g id="line2d_38">
    <path d="M 482.533333 101.556099 
L 482.533333 58.411198 
" clip-path="url(#p31d8a316af)" style="fill: none; stroke: #b91c1c; stroke-width: 1.1; stroke-linecap: round"/>
   </g>
   <g id="line2d_39">
    <path d="M 494.342857 129.293061 
L 494.342857 84.297155 
" clip-path="url(#p31d8a316af)" style="fill: none; stroke: #b91c1c; stroke-width: 1.1; stroke-linecap: round"/>
   </g>
   <g id="line2d_40">
    <path d="M 506.152381 124.926352 
L 506.152381 102.747707 
" clip-path="url(#p31d8a316af)" style="fill: none; stroke: #b91c1c; stroke-width: 1.1; stroke-linecap: round"/>
   </g>
   <g id="line2d_41">
    <path d="M 517.961905 124.240077 
L 517.961905 95.229074 
" clip-path="url(#p31d8a316af)" style="fill: none; stroke: #1f8a56; stroke-width: 1.1; stroke-linecap: round"/>
   </g>
   <g id="line2d_42">
    <path d="M 529.771429 95.335082 
L 529.771429 75.241042 
" clip-path="url(#p31d8a316af)" style="fill: none; stroke: #1f8a56; stroke-width: 1.1; stroke-linecap: round"/>
   </g>
   <g id="line2d_43">
    <path d="M 541.580952 97.203491 
L 541.580952 73.538353 
" clip-path="url(#p31d8a316af)" style="fill: none; stroke: #b91c1c; stroke-width: 1.1; stroke-linecap: round"/>
   </g>
   <g id="line2d_44">
    <path d="M 553.390476 108.678881 
L 553.390476 86.144734 
" clip-path="url(#p31d8a316af)" style="fill: none; stroke: #b91c1c; stroke-width: 1.1; stroke-linecap: round"/>
   </g>
   <g id="text_2">
    <!-- ​(Volume Dry-up) ﺢﻴﺤﺼﺗ ﺀﺎﻨﺛﺃ ﻢﺠﺤﻟﺍ ﻑﺎﻔﺟ -->
    <g style="fill: #b7791f" transform="translate(350.768906 17.3555) scale(0.095 -0.095)">
     <defs>
      <path id="DejaVuSans-Bold-27" d="M 1791 3756 
L 1791 909 
L 2222 909 
Q 2959 909 3348 1275 
Q 3738 1641 3738 2338 
Q 3738 3031 3350 3393 
Q 2963 3756 2222 3756 
L 1791 3756 
z
M 588 4666 
L 1856 4666 
Q 2919 4666 3439 4514 
Q 3959 4363 4331 4000 
Q 4659 3684 4818 3271 
Q 4978 2859 4978 2338 
Q 4978 1809 4818 1395 
Q 4659 981 4331 666 
Q 3956 303 3431 151 
Q 2906 0 1856 0 
L 588 0 
L 588 4666 
z
" transform="scale(0.015625)"/>
      <path id="DejaVuSans-Bold-55" d="M 3138 2547 
Q 2991 2616 2845 2648 
Q 2700 2681 2553 2681 
Q 2122 2681 1889 2404 
Q 1656 2128 1656 1613 
L 1656 0 
L 538 0 
L 538 3500 
L 1656 3500 
L 1656 2925 
Q 1872 3269 2151 3426 
Q 2431 3584 2822 3584 
Q 2878 3584 2943 3579 
Q 3009 3575 3134 3559 
L 3138 2547 
z
" transform="scale(0.015625)"/>
      <path id="DejaVuSans-Bold-5c" d="M 78 3500 
L 1197 3500 
L 2138 1125 
L 2938 3500 
L 4056 3500 
L 2584 -331 
Q 2363 -916 2067 -1148 
Q 1772 -1381 1288 -1381 
L 641 -1381 
L 641 -647 
L 991 -647 
Q 1275 -647 1404 -556 
Q 1534 -466 1606 -231 
L 1638 -134 
L 78 3500 
z
" transform="scale(0.015625)"/>
      <path id="DejaVuSans-Bold-10" d="M 347 2297 
L 2309 2297 
L 2309 1388 
L 347 1388 
L 347 2297 
z
" transform="scale(0.015625)"/>
      <path id="DejaVuSans-Bold-53" d="M 1656 506 
L 1656 -1331 
L 538 -1331 
L 538 3500 
L 1656 3500 
L 1656 2988 
Q 1888 3294 2169 3439 
Q 2450 3584 2816 3584 
Q 3463 3584 3878 3070 
Q 4294 2556 4294 1747 
Q 4294 938 3878 423 
Q 3463 -91 2816 -91 
Q 2450 -91 2169 54 
Q 1888 200 1656 506 
z
M 2400 2772 
Q 2041 2772 1848 2508 
Q 1656 2244 1656 1747 
Q 1656 1250 1848 986 
Q 2041 722 2400 722 
Q 2759 722 2948 984 
Q 3138 1247 3138 1747 
Q 3138 2247 2948 2509 
Q 2759 2772 2400 2772 
z
" transform="scale(0.015625)"/>
      <path id="NotoNaskhArabic-Bold-74" d="M 0 58 
Q -51 58 -51 109 
L -51 762 
Q -51 813 0 813 
Q 467 813 793 829 
Q 1120 845 1427 934 
Q 1702 1018 1897 1069 
Q 2093 1120 2202 1146 
Q 2112 1197 2025 1251 
Q 1939 1306 1856 1363 
Q 1651 1504 1513 1558 
Q 1376 1613 1235 1613 
Q 1043 1613 870 1558 
Q 698 1504 480 1363 
Q 422 1421 377 1533 
Q 333 1645 333 1747 
Q 333 2029 582 2205 
Q 832 2381 1210 2381 
Q 1414 2381 1603 2310 
Q 1792 2240 2029 2080 
Q 2317 1882 2560 1763 
Q 2803 1645 3136 1555 
Q 3302 1517 3500 1494 
Q 3699 1472 3936 1472 
L 3603 794 
Q 3405 813 3273 825 
Q 3142 838 2963 826 
Q 2739 806 2483 704 
Q 2227 602 1990 467 
Q 1741 320 1533 237 
Q 1325 154 1107 115 
Q 890 77 624 67 
Q 358 58 0 58 
z
M 2272 -1107 
Q 2099 -966 1977 -851 
Q 1856 -736 1772 -646 
Q 1900 -518 2022 -393 
Q 2144 -269 2259 -134 
Q 2425 -326 2720 -595 
Q 2649 -697 2534 -828 
Q 2419 -960 2272 -1107 
z
" transform="scale(0.015625)"/>
      <path id="NotoNaskhArabic-Bold-145" d="M 6 58 
Q -51 58 -51 115 
L -51 755 
Q -51 813 6 813 
Q 115 813 227 816 
Q 339 819 454 819 
Q 358 973 358 1114 
Q 358 1197 374 1337 
Q 390 1478 419 1606 
Q 448 1734 474 1786 
Q 595 2003 771 2179 
Q 947 2355 1152 2457 
Q 1357 2560 1549 2560 
Q 1722 2560 1898 2368 
Q 2074 2176 2182 1875 
Q 2291 1568 2291 1306 
Q 2291 1056 2150 819 
Q 2285 819 2422 816 
Q 2560 813 2694 813 
Q 2746 813 2746 762 
L 2746 109 
Q 2746 58 2694 58 
Q 1882 58 1325 269 
Q 1030 147 716 102 
Q 403 58 6 58 
z
M 1299 794 
Q 1690 902 1933 1107 
Q 1888 1280 1795 1446 
Q 1702 1613 1613 1696 
Q 1549 1773 1478 1773 
Q 1146 1773 704 1178 
Q 819 1043 979 944 
Q 1139 845 1299 794 
z
M 1459 3084 
Q 1133 3353 967 3545 
Q 1114 3692 1232 3817 
Q 1351 3942 1447 4057 
Q 1517 3980 1632 3865 
Q 1747 3750 1907 3596 
Q 1831 3488 1719 3360 
Q 1607 3232 1459 3084 
z
" transform="scale(0.015625)"/>
      <path id="NotoNaskhArabic-Bold-143" d="M 1965 0 
Q 1190 0 796 352 
Q 403 704 403 1363 
Q 403 1498 435 1674 
Q 467 1850 531 2067 
L 813 2067 
Q 794 1894 794 1747 
Q 794 1376 941 1171 
Q 1088 966 1389 864 
Q 1702 755 2195 755 
Q 3034 755 3725 857 
Q 4416 960 4826 1139 
Q 4806 1235 4777 1337 
Q 4749 1440 4710 1555 
Q 4531 1421 4297 1334 
Q 4064 1248 3834 1248 
Q 3501 1248 3296 1449 
Q 3091 1651 3091 1997 
Q 3091 2336 3219 2649 
Q 3347 2963 3546 3149 
Q 3757 3341 3974 3341 
Q 4275 3341 4556 3059 
Q 4838 2778 4998 2285 
Q 5158 1798 5158 1171 
Q 5158 1056 5084 861 
Q 5011 666 4934 518 
Q 4301 269 3542 134 
Q 2784 0 1965 0 
z
M 3955 1792 
Q 4218 1792 4563 1907 
Q 4403 2246 4217 2412 
Q 4032 2579 3840 2579 
Q 3680 2579 3552 2460 
Q 3424 2342 3424 2157 
Q 3424 2003 3581 1897 
Q 3738 1792 3955 1792 
z
M 3968 3769 
Q 3642 4038 3476 4230 
Q 3623 4377 3741 4502 
Q 3860 4627 3956 4742 
Q 4026 4665 4141 4550 
Q 4256 4435 4416 4281 
Q 4340 4173 4228 4045 
Q 4116 3917 3968 3769 
z
" transform="scale(0.015625)"/>
      <path id="NotoNaskhArabic-Bold-1c1" d="M 0 58 
Q -51 58 -51 109 
L -51 762 
Q -51 813 0 813 
Q 282 813 672 960 
Q 646 1146 624 1334 
Q 602 1523 570 1709 
Q 544 1894 441 2448 
Q 339 3002 173 3930 
Q 339 4045 534 4147 
Q 730 4250 934 4352 
Q 947 3827 960 3356 
Q 973 2886 986 2477 
Q 998 2067 1004 1718 
Q 1011 1370 1011 1069 
Q 1011 634 762 256 
Q 698 166 490 112 
Q 282 58 0 58 
z
" transform="scale(0.015625)"/>
      <path id="NotoNaskhArabic-Bold-8b" d="M 0 58 
Q -51 58 -51 109 
L -51 762 
Q -51 813 0 813 
Q 467 813 793 829 
Q 1120 845 1427 934 
Q 1702 1018 1897 1069 
Q 2093 1120 2202 1146 
Q 2118 1197 2032 1251 
Q 1946 1306 1856 1363 
Q 1651 1498 1513 1555 
Q 1376 1613 1235 1613 
Q 1043 1613 870 1558 
Q 698 1504 480 1363 
Q 422 1421 377 1533 
Q 333 1645 333 1747 
Q 333 2029 582 2205 
Q 832 2381 1210 2381 
Q 1414 2381 1603 2310 
Q 1792 2240 2029 2080 
Q 2317 1882 2560 1763 
Q 2803 1645 3136 1555 
Q 3302 1517 3500 1494 
Q 3699 1472 3936 1472 
L 3654 934 
Q 3578 941 3501 941 
Q 3424 941 3347 947 
Q 3411 890 3488 867 
Q 3565 845 3661 832 
Q 3808 826 3965 822 
Q 4122 819 4262 813 
Q 4314 813 4314 762 
L 4314 109 
Q 4314 58 4262 58 
Q 4032 58 3782 80 
Q 3533 102 3325 150 
Q 3117 198 3021 262 
Q 2893 358 2838 537 
Q 2784 717 2746 877 
Q 2624 851 2525 803 
Q 2426 755 2304 675 
Q 2182 595 1990 467 
Q 1683 262 1395 176 
Q 1107 90 774 74 
Q 442 58 0 58 
z
" transform="scale(0.015625)"/>
      <path id="NotoNaskhArabic-Bold-7" d="M 774 58 
Q 742 717 710 1216 
Q 678 1715 646 2134 
Q 614 2554 576 2950 
Q 538 3347 493 3808 
Q 474 3968 566 4089 
Q 659 4211 822 4281 
Q 986 4352 1178 4352 
Q 1229 4154 1296 3955 
Q 1363 3757 1440 3565 
L 1216 3398 
Q 1229 2867 1222 2035 
Q 1216 1203 1184 109 
L 774 58 
z
M 473 4506 
L 454 4775 
L 684 4909 
Q 480 4986 480 5159 
Q 480 5274 550 5389 
Q 620 5504 726 5584 
Q 832 5664 928 5664 
Q 1164 5664 1164 5376 
Q 1164 5280 1139 5229 
L 1011 5248 
L 1011 5268 
Q 1011 5325 934 5325 
Q 793 5325 710 5165 
Q 825 5050 1030 5050 
Q 1081 5050 1145 5056 
Q 1209 5063 1280 5076 
L 1254 4794 
Q 1024 4743 867 4688 
Q 710 4634 473 4506 
z
" transform="scale(0.015625)"/>
      <path id="NotoNaskhArabic-Bold-44" d="M 0 58 
Q -51 58 -51 109 
L -51 762 
Q -51 813 0 813 
Q 320 813 640 867 
Q 960 922 1139 998 
Q 1075 1146 976 1328 
Q 877 1510 819 1613 
Q 755 1734 710 1833 
Q 666 1933 666 2016 
Q 666 2176 838 2361 
Q 1011 2547 1248 2669 
Q 1293 2470 1347 2217 
Q 1402 1965 1446 1702 
Q 1485 1504 1501 1376 
Q 1517 1248 1517 1184 
Q 1517 1037 1443 822 
Q 1370 608 1267 410 
Q 685 58 0 58 
z
M 909 3546 
Q 774 3655 678 3747 
Q 582 3840 518 3911 
Q 653 4032 745 4118 
Q 838 4205 889 4269 
Q 960 4186 1052 4096 
Q 1145 4007 1261 3911 
Q 1126 3763 1036 3670 
Q 947 3578 909 3546 
z
M 1369 2995 
Q 1235 3104 1126 3203 
Q 1017 3303 928 3399 
Q 1024 3488 1132 3597 
Q 1241 3706 1357 3840 
Q 1395 3795 1497 3699 
Q 1600 3603 1760 3450 
Q 1677 3328 1577 3216 
Q 1478 3104 1369 2995 
z
M 480 2906 
Q 192 3123 45 3309 
Q 153 3418 262 3530 
Q 371 3642 480 3751 
Q 531 3687 630 3584 
Q 729 3482 870 3354 
Q 774 3226 678 3110 
Q 582 2995 480 2906 
z
" transform="scale(0.015625)"/>
      <path id="NotoNaskhArabic-Bold-1" d="M 544 -205 
L 435 109 
Q 493 134 589 179 
Q 685 224 777 262 
Q 870 301 902 314 
Q 877 339 851 368 
Q 826 397 800 422 
Q 691 582 691 755 
Q 691 973 784 1209 
Q 877 1446 1040 1644 
Q 1203 1843 1408 1939 
Q 1536 1997 1664 1997 
Q 1914 1997 2090 1837 
Q 2266 1677 2266 1414 
Q 2266 1318 2230 1203 
Q 2195 1088 2112 998 
Q 1933 1050 1824 1114 
Q 1837 1152 1843 1187 
Q 1850 1222 1856 1267 
Q 1741 1312 1632 1312 
Q 1485 1312 1331 1232 
Q 1178 1152 1018 928 
Q 1107 813 1200 755 
Q 1293 698 1414 666 
Q 1472 646 1577 627 
Q 1683 608 1747 608 
Q 1792 621 1837 633 
Q 1882 646 1926 653 
Q 2042 678 2160 700 
Q 2278 723 2394 742 
Q 2451 755 2508 761 
Q 2566 768 2611 774 
Q 2662 717 2710 617 
Q 2758 518 2758 410 
Q 2758 262 2668 140 
Q 2579 19 2426 6 
Q 2285 -6 2080 -19 
Q 1875 -32 1632 -64 
Q 1402 -83 1142 -118 
Q 883 -154 544 -205 
z
" transform="scale(0.015625)"/>
      <path id="NotoNaskhArabic-Bold-38" d="M 0 58 
Q -51 58 -51 109 
L -51 762 
Q -51 813 0 813 
Q 320 813 640 867 
Q 960 922 1139 998 
Q 1075 1146 976 1328 
Q 877 1510 819 1613 
Q 755 1734 710 1833 
Q 666 1933 666 2016 
Q 666 2176 838 2361 
Q 1011 2547 1248 2669 
Q 1293 2470 1347 2217 
Q 1402 1965 1446 1702 
Q 1485 1504 1501 1376 
Q 1517 1248 1517 1184 
Q 1517 1037 1443 822 
Q 1370 608 1267 410 
Q 685 58 0 58 
z
M 1332 3020 
Q 1197 3129 1088 3225 
Q 980 3321 890 3417 
Q 1127 3635 1319 3865 
Q 1376 3801 1478 3705 
Q 1581 3609 1722 3468 
Q 1549 3232 1332 3020 
z
M 474 2924 
Q 199 3148 32 3328 
Q 141 3436 250 3548 
Q 359 3660 468 3769 
Q 583 3635 864 3372 
Q 704 3142 474 2924 
z
" transform="scale(0.015625)"/>
      <path id="NotoNaskhArabic-Bold-111" d="M 2592 0 
Q 2163 0 1699 80 
Q 1235 160 851 339 
Q 813 282 742 243 
Q 608 154 406 106 
Q 205 58 0 58 
Q -51 58 -51 109 
L -51 762 
Q -51 813 0 813 
Q 256 813 397 848 
Q 538 883 634 985 
Q 730 1088 838 1286 
Q 864 1331 886 1376 
Q 909 1421 934 1466 
Q 1030 1638 1222 1638 
Q 1318 1638 1427 1574 
Q 1363 1414 1302 1260 
Q 1242 1107 1178 954 
Q 1248 928 1312 909 
Q 1376 890 1440 864 
Q 2099 1741 2605 2150 
Q 3091 2560 3469 2560 
Q 3629 2560 3824 2464 
Q 4019 2368 4211 2214 
Q 4403 2061 4544 1882 
Q 4762 1619 4762 1446 
Q 4762 1229 4691 1050 
Q 4922 915 5082 864 
Q 5242 813 5466 813 
Q 5523 813 5523 762 
L 5523 109 
Q 5523 58 5466 58 
Q 5171 58 4880 186 
Q 4589 314 4358 563 
Q 4205 416 3904 278 
Q 3603 141 3258 70 
Q 3085 38 2921 19 
Q 2758 0 2592 0 
z
M 2656 704 
Q 3117 704 3520 813 
Q 3923 922 4390 1146 
Q 3814 1805 3309 1805 
Q 3027 1805 2652 1536 
Q 2278 1267 1862 774 
Q 2067 742 2265 723 
Q 2464 704 2656 704 
z
" transform="scale(0.015625)"/>
      <path id="NotoNaskhArabic-Bold-240" d="M 0 58 
Q -51 58 -51 109 
L -51 762 
Q -51 813 0 813 
Q 307 813 566 829 
Q 826 845 992 928 
Q 1120 992 1187 1104 
Q 1254 1216 1357 1421 
Q 1459 1632 1536 1680 
Q 1613 1728 1715 1728 
Q 1869 1728 1971 1638 
Q 1888 1427 1814 1264 
Q 1741 1101 1690 979 
Q 2003 813 2362 813 
Q 2413 813 2413 762 
L 2413 109 
Q 2413 58 2362 58 
Q 1875 58 1434 499 
L 1382 416 
Q 1203 179 883 118 
Q 563 58 0 58 
z
M 1651 -1235 
Q 1376 -1011 1209 -832 
Q 1414 -653 1638 -384 
Q 1657 -403 1756 -502 
Q 1856 -602 2035 -787 
Q 1971 -883 1875 -995 
Q 1779 -1107 1651 -1235 
z
M 793 -1331 
Q 633 -1203 527 -1100 
Q 422 -998 352 -922 
Q 460 -813 569 -701 
Q 678 -589 787 -480 
Q 864 -576 1184 -877 
Q 1030 -1107 793 -1331 
z
" transform="scale(0.015625)"/>
      <path id="NotoNaskhArabic-Bold-8a" d="M 2368 -1862 
Q 1523 -1862 1097 -1465 
Q 672 -1069 672 -314 
Q 672 77 848 409 
Q 1024 742 1338 1005 
Q 1498 1133 1670 1238 
Q 1843 1344 2035 1421 
Q 1946 1453 1856 1485 
Q 1766 1517 1677 1549 
Q 1491 1613 1312 1613 
Q 1139 1613 992 1571 
Q 845 1530 582 1363 
Q 525 1421 480 1533 
Q 435 1645 435 1747 
Q 435 2035 662 2208 
Q 890 2381 1286 2381 
Q 1498 2381 1728 2326 
Q 1958 2272 2310 2144 
Q 2656 2016 2918 1961 
Q 3181 1907 3424 1907 
L 4006 1914 
L 3744 1197 
Q 3667 1190 3571 1184 
Q 3475 1178 3424 1178 
L 3232 1178 
Q 3341 998 3446 931 
Q 3552 864 3789 838 
Q 3891 826 4115 819 
Q 4339 813 4685 813 
Q 4742 813 4742 762 
L 4742 109 
Q 4742 58 4685 58 
Q 4070 58 3750 150 
Q 3430 243 3238 467 
Q 3046 698 2886 1197 
Q 2381 1101 1933 883 
Q 1485 666 1242 371 
Q 998 70 998 -250 
Q 998 -685 1360 -905 
Q 1722 -1126 2400 -1126 
Q 2861 -1126 3629 -954 
L 3718 -1229 
Q 3309 -1466 3053 -1603 
Q 2797 -1741 2640 -1801 
Q 2483 -1862 2368 -1862 
z
" transform="scale(0.015625)"/>
     </defs>
     <use xlink:href="#NotoNaskhArabic-Bold-554"/>
     <use xlink:href="#DejaVuSans-Bold-b"/>
     <use xlink:href="#DejaVuSans-Bold-39" transform="translate(45.703125 0)"/>
     <use xlink:href="#DejaVuSans-Bold-52" transform="translate(117.625 0)"/>
     <use xlink:href="#DejaVuSans-Bold-4f" transform="translate(186.328125 0)"/>
     <use xlink:href="#DejaVuSans-Bold-58" transform="translate(220.609375 0)"/>
     <use xlink:href="#DejaVuSans-Bold-50" transform="translate(291.796875 0)"/>
     <use xlink:href="#DejaVuSans-Bold-48" transform="translate(396 0)"/>
     <use xlink:href="#NotoNaskhArabic-Bold-554" transform="translate(463.828125 0)"/>
     <use xlink:href="#DejaVuSans-Bold-27" transform="translate(485.921875 0)"/>
     <use xlink:href="#DejaVuSans-Bold-55" transform="translate(568.9375 0)"/>
     <use xlink:href="#DejaVuSans-Bold-5c" transform="translate(618.25 0)"/>
     <use xlink:href="#DejaVuSans-Bold-10" transform="translate(683.4375 0)"/>
     <use xlink:href="#DejaVuSans-Bold-58" transform="translate(724.9375 0)"/>
     <use xlink:href="#DejaVuSans-Bold-53" transform="translate(796.125 0)"/>
     <use xlink:href="#DejaVuSans-Bold-c" transform="translate(867.703125 0)"/>
     <use xlink:href="#NotoNaskhArabic-Bold-554" transform="translate(913.40625 0)"/>
     <use xlink:href="#NotoNaskhArabic-Bold-74" transform="translate(935.5 0)"/>
     <use xlink:href="#NotoNaskhArabic-Bold-145" transform="translate(1000.40625 0)"/>
     <use xlink:href="#NotoNaskhArabic-Bold-4" transform="translate(1041.609375 0)"/>
     <use xlink:href="#NotoNaskhArabic-Bold-143" transform="translate(1070.40625 0)"/>
     <use xlink:href="#NotoNaskhArabic-Bold-554" transform="translate(1155.203125 0)"/>
     <use xlink:href="#NotoNaskhArabic-Bold-3" transform="translate(1177.296875 0)"/>
     <use xlink:href="#NotoNaskhArabic-Bold-1c1" transform="translate(1205.703125 0)"/>
     <use xlink:href="#NotoNaskhArabic-Bold-8b" transform="translate(1227.40625 0)"/>
     <use xlink:href="#NotoNaskhArabic-Bold-73" transform="translate(1293.109375 0)"/>
     <use xlink:href="#NotoNaskhArabic-Bold-1e3" transform="translate(1358.8125 0)"/>
     <use xlink:href="#NotoNaskhArabic-Bold-554" transform="translate(1414.3125 0)"/>
     <use xlink:href="#NotoNaskhArabic-Bold-7" transform="translate(1436.40625 0)"/>
     <use xlink:href="#NotoNaskhArabic-Bold-44" transform="translate(1464.8125 0)"/>
     <use xlink:href="#NotoNaskhArabic-Bold-1e9" transform="translate(1492.3125 0)"/>
     <use xlink:href="#NotoNaskhArabic-Bold-4" transform="translate(1521.515625 0)"/>
     <use xlink:href="#NotoNaskhArabic-Bold-1" transform="translate(1550.3125 0)"/>
     <use xlink:href="#NotoNaskhArabic-Bold-554" transform="translate(1595.515625 0)"/>
     <use xlink:href="#NotoNaskhArabic-Bold-38" transform="translate(1617.609375 0)"/>
     <use xlink:href="#NotoNaskhArabic-Bold-111" transform="translate(1645.109375 0)"/>
     <use xlink:href="#NotoNaskhArabic-Bold-8b" transform="translate(1729.703125 0)"/>
     <use xlink:href="#NotoNaskhArabic-Bold-240" transform="translate(1795.40625 0)"/>
     <use xlink:href="#NotoNaskhArabic-Bold-8a" transform="translate(1831.40625 0)"/>
    </g>
   </g>
   <g id="patch_53">
    <path d="M 325.761905 175.857108 
L 332.257143 175.857108 
L 332.257143 164.481903 
L 325.761905 164.481903 
z
" clip-path="url(#p31d8a316af)" style="fill: #1f8a56; stroke: #1f8a56; stroke-linejoin: miter"/>
   </g>
   <g id="patch_54">
    <path d="M 337.571429 166.85803 
L 344.066667 166.85803 
L 344.066667 162.357191 
L 337.571429 162.357191 
z
" clip-path="url(#p31d8a316af)" style="fill: #1f8a56; stroke: #1f8a56; stroke-linejoin: miter"/>
   </g>
   <g id="patch_55">
    <path d="M 349.380952 160.344448 
L 355.87619 160.344448 
L 355.87619 123.767985 
L 349.380952 123.767985 
z
" clip-path="url(#p31d8a316af)" style="fill: #1f8a56; stroke: #1f8a56; stroke-linejoin: miter"/>
   </g>
   <g id="patch_56">
    <path d="M 361.190476 127.498174 
L 367.685714 127.498174 
L 367.685714 100.029665 
L 361.190476 100.029665 
z
" clip-path="url(#p31d8a316af)" style="fill: #1f8a56; stroke: #1f8a56; stroke-linejoin: miter"/>
   </g>
   <g id="patch_57">
    <path d="M 373 89.028953 
L 379.495238 89.028953 
L 379.495238 80.918714 
L 373 80.918714 
z
" clip-path="url(#p31d8a316af)" style="fill: #1f8a56; stroke: #1f8a56; stroke-linejoin: miter"/>
   </g>
   <g id="patch_58">
    <path d="M 384.809524 73.648475 
L 391.304762 73.648475 
L 391.304762 54.861974 
L 384.809524 54.861974 
z
" clip-path="url(#p31d8a316af)" style="fill: #1f8a56; stroke: #1f8a56; stroke-linejoin: miter"/>
   </g>
   <g id="patch_59">
    <path d="M 396.619048 75.350687 
L 403.114286 75.350687 
L 403.114286 50.551853 
L 396.619048 50.551853 
z
" clip-path="url(#p31d8a316af)" style="fill: #b91c1c; stroke: #b91c1c; stroke-linejoin: miter"/>
   </g>
   <g id="patch_60">
    <path d="M 408.428571 83.827283 
L 414.92381 83.827283 
L 414.92381 50.717858 
L 408.428571 50.717858 
z
" clip-path="url(#p31d8a316af)" style="fill: #1f8a56; stroke: #1f8a56; stroke-linejoin: miter"/>
   </g>
   <g id="patch_61">
    <path d="M 420.238095 75.33076 
L 426.733333 75.33076 
L 426.733333 53.728544 
L 420.238095 53.728544 
z
" clip-path="url(#p31d8a316af)" style="fill: #b91c1c; stroke: #b91c1c; stroke-linejoin: miter"/>
   </g>
   <g id="patch_62">
    <path d="M 432.047619 74.577682 
L 438.542857 74.577682 
L 438.542857 49.002516 
L 432.047619 49.002516 
z
" clip-path="url(#p31d8a316af)" style="fill: #1f8a56; stroke: #1f8a56; stroke-linejoin: miter"/>
   </g>
   <g id="patch_63">
    <path d="M 443.857143 61.511986 
L 450.352381 61.511986 
L 450.352381 38.153882 
L 443.857143 38.153882 
z
" clip-path="url(#p31d8a316af)" style="fill: #b91c1c; stroke: #b91c1c; stroke-linejoin: miter"/>
   </g>
   <g id="patch_64">
    <path d="M 455.666667 71.295243 
L 462.161905 71.295243 
L 462.161905 57.341821 
L 455.666667 57.341821 
z
" clip-path="url(#p31d8a316af)" style="fill: #b91c1c; stroke: #b91c1c; stroke-linejoin: miter"/>
   </g>
   <g id="patch_65">
    <path d="M 467.47619 73.307184 
L 473.971429 73.307184 
L 473.971429 65.578588 
L 467.47619 65.578588 
z
" clip-path="url(#p31d8a316af)" style="fill: #b91c1c; stroke: #b91c1c; stroke-linejoin: miter"/>
   </g>
   <g id="patch_66">
    <path d="M 479.285714 97.748238 
L 485.780952 97.748238 
L 485.780952 63.484552 
L 479.285714 63.484552 
z
" clip-path="url(#p31d8a316af)" style="fill: #b91c1c; stroke: #b91c1c; stroke-linejoin: miter"/>
   </g>
   <g id="patch_67">
    <path d="M 491.095238 117.372277 
L 497.590476 117.372277 
L 497.590476 93.404954 
L 491.095238 93.404954 
z
" clip-path="url(#p31d8a316af)" style="fill: #b91c1c; stroke: #b91c1c; stroke-linejoin: miter"/>
   </g>
   <g id="patch_68">
    <path d="M 502.904762 120.881211 
L 509.4 120.881211 
L 509.4 107.664546 
L 502.904762 107.664546 
z
" clip-path="url(#p31d8a316af)" style="fill: #b91c1c; stroke: #b91c1c; stroke-linejoin: miter"/>
   </g>
   <g id="patch_69">
    <path d="M 514.714286 122.335181 
L 521.209524 122.335181 
L 521.209524 103.178998 
L 514.714286 103.178998 
z
" clip-path="url(#p31d8a316af)" style="fill: #1f8a56; stroke: #1f8a56; stroke-linejoin: miter"/>
   </g>
   <g id="patch_70">
    <path d="M 526.52381 92.240124 
L 533.019048 92.240124 
L 533.019048 76.853208 
L 526.52381 76.853208 
z
" clip-path="url(#p31d8a316af)" style="fill: #1f8a56; stroke: #1f8a56; stroke-linejoin: miter"/>
   </g>
   <g id="patch_71">
    <path d="M 538.333333 91.381779 
L 544.828571 91.381779 
L 544.828571 78.213549 
L 538.333333 78.213549 
z
" clip-path="url(#p31d8a316af)" style="fill: #b91c1c; stroke: #b91c1c; stroke-linejoin: miter"/>
   </g>
   <g id="patch_72">
    <path d="M 550.142857 105.495951 
L 556.638095 105.495951 
L 556.638095 93.098273 
L 550.142857 93.098273 
z
" clip-path="url(#p31d8a316af)" style="fill: #b91c1c; stroke: #b91c1c; stroke-linejoin: miter"/>
   </g>
  </g>
  <g id="axes_4">
   <g id="patch_73">
    <path d="M 317.2 311.6665 
L 565.2 311.6665 
L 565.2 208.522314 
L 317.2 208.522314 
z
" style="fill: #ffffff"/>
   </g>
   <g id="patch_74">
    <path d="M 328.472727 311.6665 
L 336.483802 311.6665 
L 336.483802 213.433942 
L 328.472727 213.433942 
z
" clip-path="url(#pd68be513ee)" style="fill: #b7791f"/>
   </g>
   <g id="patch_75">
    <path d="M 339.91712 311.6665 
L 347.928196 311.6665 
L 347.928196 231.474791 
L 339.91712 231.474791 
z
" clip-path="url(#pd68be513ee)" style="fill: #b7791f"/>
   </g>
   <g id="patch_76">
    <path d="M 351.361514 311.6665 
L 359.372589 311.6665 
L 359.372589 257.196175 
L 351.361514 257.196175 
z
" clip-path="url(#pd68be513ee)" style="fill: #b7791f"/>
   </g>
   <g id="patch_77">
    <path d="M 362.805907 311.6665 
L 370.816982 311.6665 
L 370.816982 239.389669 
L 362.805907 239.389669 
z
" clip-path="url(#pd68be513ee)" style="fill: #b7791f"/>
   </g>
   <g id="patch_78">
    <path d="M 374.2503 311.6665 
L 382.261375 311.6665 
L 382.261375 246.052341 
L 374.2503 246.052341 
z
" clip-path="url(#pd68be513ee)" style="fill: #b7791f"/>
   </g>
   <g id="patch_79">
    <path d="M 385.694693 311.6665 
L 393.705768 311.6665 
L 393.705768 273.718724 
L 385.694693 273.718724 
z
" clip-path="url(#pd68be513ee)" style="fill: #b7791f"/>
   </g>
   <g id="patch_80">
    <path d="M 397.139086 311.6665 
L 405.150162 311.6665 
L 405.150162 274.14589 
L 397.139086 274.14589 
z
" clip-path="url(#pd68be513ee)" style="fill: #b7791f"/>
   </g>
   <g id="patch_81">
    <path d="M 408.583479 311.6665 
L 416.594555 311.6665 
L 416.594555 230.146711 
L 408.583479 230.146711 
z
" clip-path="url(#pd68be513ee)" style="fill: #b7791f"/>
   </g>
   <g id="patch_82">
    <path d="M 420.027873 311.6665 
L 428.038948 311.6665 
L 428.038948 234.139295 
L 420.027873 234.139295 
z
" clip-path="url(#pd68be513ee)" style="fill: #b7791f"/>
   </g>
   <g id="patch_83">
    <path d="M 431.472266 311.6665 
L 439.483341 311.6665 
L 439.483341 262.435502 
L 431.472266 262.435502 
z
" clip-path="url(#pd68be513ee)" style="fill: #b7791f"/>
   </g>
   <g id="patch_84">
    <path d="M 442.916659 311.6665 
L 450.927734 311.6665 
L 450.927734 247.886158 
L 442.916659 247.886158 
z
" clip-path="url(#pd68be513ee)" style="fill: #b7791f"/>
   </g>
   <g id="patch_85">
    <path d="M 454.361052 311.6665 
L 462.372127 311.6665 
L 462.372127 271.547918 
L 454.361052 271.547918 
z
" clip-path="url(#pd68be513ee)" style="fill: #b7791f"/>
   </g>
   <g id="patch_86">
    <path d="M 465.805445 311.6665 
L 473.816521 311.6665 
L 473.816521 264.10096 
L 465.805445 264.10096 
z
" clip-path="url(#pd68be513ee)" style="fill: #b7791f"/>
   </g>
   <g id="patch_87">
    <path d="M 477.249838 311.6665 
L 485.260914 311.6665 
L 485.260914 286.363745 
L 477.249838 286.363745 
z
" clip-path="url(#pd68be513ee)" style="fill: #b7791f"/>
   </g>
   <g id="patch_88">
    <path d="M 488.694232 311.6665 
L 496.705307 311.6665 
L 496.705307 299.967131 
L 488.694232 299.967131 
z
" clip-path="url(#pd68be513ee)" style="fill: #b7791f"/>
   </g>
   <g id="patch_89">
    <path d="M 500.138625 311.6665 
L 508.1497 311.6665 
L 508.1497 264.343285 
L 500.138625 264.343285 
z
" clip-path="url(#pd68be513ee)" style="fill: #b7791f"/>
   </g>
   <g id="patch_90">
    <path d="M 511.583018 311.6665 
L 519.594093 311.6665 
L 519.594093 288.063697 
L 511.583018 288.063697 
z
" clip-path="url(#pd68be513ee)" style="fill: #b7791f"/>
   </g>
   <g id="patch_91">
    <path d="M 523.027411 311.6665 
L 531.038486 311.6665 
L 531.038486 287.461485 
L 523.027411 287.461485 
z
" clip-path="url(#pd68be513ee)" style="fill: #b7791f"/>
   </g>
   <g id="patch_92">
    <path d="M 534.471804 311.6665 
L 542.48288 311.6665 
L 542.48288 297.057824 
L 534.471804 297.057824 
z
" clip-path="url(#pd68be513ee)" style="fill: #b7791f"/>
   </g>
   <g id="patch_93">
    <path d="M 545.916198 311.6665 
L 553.927273 311.6665 
L 553.927273 287.793667 
L 545.916198 287.793667 
z
" clip-path="url(#pd68be513ee)" style="fill: #b7791f"/>
   </g>
   <g id="matplotlib.axis_7"/>
   <g id="matplotlib.axis_8"/>
  </g>
 </g>
 <defs>
  <clipPath id="pb4f79de0bf">
   <rect x="7.2" y="23.3785" width="248" height="165.030698"/>
  </clipPath>
  <clipPath id="pee3df2d2df">
   <rect x="7.2" y="208.522314" width="248" height="103.144186"/>
  </clipPath>
  <clipPath id="p31d8a316af">
   <rect x="317.2" y="23.3785" width="248" height="165.030698"/>
  </clipPath>
  <clipPath id="pd68be513ee">
   <rect x="317.2" y="208.522314" width="248" height="103.144186"/>
  </clipPath>
 </defs>
</svg>
