<?xml version="1.0" encoding="utf-8" standalone="no"?>
<!DOCTYPE svg PUBLIC "-//W3C//DTD SVG 1.1//EN"
  "http://www.w3.org/Graphics/SVG/1.1/DTD/svg11.dtd">
<svg xmlns:xlink="http://www.w3.org/1999/xlink" width="801.15pt" height="297.15pt" viewBox="0 0 801.15 297.15" xmlns="http://www.w3.org/2000/svg" version="1.1">
 <metadata>
  <rdf:RDF xmlns:dc="http://purl.org/dc/elements/1.1/" xmlns:cc="http://creativecommons.org/ns#" xmlns:rdf="http://www.w3.org/1999/02/22-rdf-syntax-ns#">
   <cc:Work>
    <dc:type rdf:resource="http://purl.org/dc/dcmitype/StillImage"/>
    <dc:date>2026-07-18T23:10:37.527355</dc:date>
    <dc:format>image/svg+xml</dc:format>
    <dc:creator>
     <cc:Agent>
      <dc:title>Matplotlib v3.11.1, https://matplotlib.org/</dc:title>
     </cc:Agent>
    </dc:creator>
   </cc:Work>
  </rdf:RDF>
 </metadata>
 <defs>
  <style type="text/css">*{stroke-linejoin: round; stroke-linecap: butt}</style>
 </defs>
 <g id="figure_1">
  <g id="patch_1">
   <path d="M 0 297.15 
L 801.15 297.15 
L 801.15 0 
L 0 0 
z
" style="fill: #ffffff"/>
  </g>
  <g id="axes_1">
   <g id="patch_2">
    <path d="M 32.218984 289.95 
L 267.7 289.95 
L 267.7 23.3785 
L 32.218984 23.3785 
z
" style="fill: #ffffff"/>
   </g>
   <g id="matplotlib.axis_1"/>
   <g id="matplotlib.axis_2">
    <g id="ytick_1">
     <g id="line2d_1">
      <defs>
       <path id="m782e25c2ab" d="M 0 0 
L -3.5 0 
" style="stroke: #555555; stroke-width: 0.8"/>
      </defs>
      <g>
       <use xlink:href="#m782e25c2ab" x="32.218984" y="261.376182" style="fill: #555555; stroke: #555555; stroke-width: 0.8"/>
      </g>
     </g>
     <g id="text_1">
      <!-- 100 -->
      <g style="fill: #555555" transform="translate(7.2 266.988432) scale(0.105 -0.105)">
       <defs>
        <path id="NotoNaskhArabic-Regular-4cd" d="M 1722 0 
L 1722 3194 
Q 1722 3405 1728 3603 
Q 1734 3802 1747 3981 
Q 1702 3936 1657 3891 
Q 1613 3846 1562 3808 
Q 1402 3674 1226 3530 
Q 1050 3386 864 3232 
L 570 3610 
L 1805 4570 
L 2272 4570 
L 2272 0 
L 1722 0 
z
" transform="scale(0.015625)"/>
        <path id="NotoNaskhArabic-Regular-4cc" d="M 1824 -64 
Q 1082 -64 698 534 
Q 314 1133 314 2291 
Q 314 3488 682 4064 
Q 1050 4640 1824 4640 
Q 2566 4640 2956 4038 
Q 3347 3437 3347 2291 
Q 3347 1101 2969 518 
Q 2592 -64 1824 -64 
z
M 1824 416 
Q 2208 416 2426 678 
Q 2778 1094 2778 2291 
Q 2778 3571 2368 3962 
Q 2163 4160 1824 4160 
Q 1427 4160 1203 3878 
Q 877 3469 877 2291 
Q 877 1075 1229 666 
Q 1440 416 1824 416 
z
" transform="scale(0.015625)"/>
       </defs>
       <use xlink:href="#NotoNaskhArabic-Regular-4cd"/>
       <use xlink:href="#NotoNaskhArabic-Regular-4cc" transform="translate(57.203125 0)"/>
       <use xlink:href="#NotoNaskhArabic-Regular-4cc" transform="translate(114.40625 0)"/>
      </g>
     </g>
    </g>
    <g id="ytick_2">
     <g id="line2d_2">
      <g>
       <use xlink:href="#m782e25c2ab" x="32.218984" y="218.468632" style="fill: #555555; stroke: #555555; stroke-width: 0.8"/>
      </g>
     </g>
     <g id="text_2">
      <!-- 102 -->
      <g style="fill: #555555" transform="translate(7.2 224.080882) scale(0.105 -0.105)">
       <defs>
        <path id="NotoNaskhArabic-Regular-4ce" d="M 307 0 
L 307 467 
L 1504 1677 
Q 1773 1952 1952 2147 
Q 2131 2342 2221 2458 
Q 2413 2720 2489 2925 
Q 2566 3130 2566 3386 
Q 2566 3744 2352 3949 
Q 2138 4154 1760 4154 
Q 1478 4154 1228 4058 
Q 979 3962 659 3718 
L 358 4096 
Q 1005 4634 1760 4634 
Q 2240 4634 2576 4448 
Q 2912 4262 3053 3923 
Q 3142 3686 3142 3418 
Q 3142 3123 3033 2841 
Q 2925 2560 2707 2272 
Q 2598 2131 2416 1929 
Q 2234 1728 1971 1478 
L 1018 538 
L 1018 512 
L 3328 512 
L 3328 0 
L 307 0 
z
" transform="scale(0.015625)"/>
       </defs>
       <use xlink:href="#NotoNaskhArabic-Regular-4cd"/>
       <use xlink:href="#NotoNaskhArabic-Regular-4cc" transform="translate(57.203125 0)"/>
       <use xlink:href="#NotoNaskhArabic-Regular-4ce" transform="translate(114.40625 0)"/>
      </g>
     </g>
    </g>
    <g id="ytick_3">
     <g id="line2d_3">
      <g>
       <use xlink:href="#m782e25c2ab" x="32.218984" y="175.561082" style="fill: #555555; stroke: #555555; stroke-width: 0.8"/>
      </g>
     </g>
     <g id="text_3">
      <!-- 104 -->
      <g style="fill: #555555" transform="translate(7.2 181.173332) scale(0.105 -0.105)">
       <defs>
        <path id="NotoNaskhArabic-Regular-4d0" d="M 2323 0 
L 2323 1037 
L 134 1037 
L 134 1517 
L 2285 4595 
L 2867 4595 
L 2867 1542 
L 3533 1542 
L 3533 1037 
L 2867 1037 
L 2867 0 
L 2323 0 
z
M 685 1542 
L 2323 1542 
L 2323 2982 
Q 2323 3194 2332 3446 
Q 2342 3699 2355 3994 
L 2330 3994 
Q 2298 3910 2211 3747 
Q 2125 3584 2054 3494 
L 685 1542 
z
" transform="scale(0.015625)"/>
       </defs>
       <use xlink:href="#NotoNaskhArabic-Regular-4cd"/>
       <use xlink:href="#NotoNaskhArabic-Regular-4cc" transform="translate(57.203125 0)"/>
       <use xlink:href="#NotoNaskhArabic-Regular-4d0" transform="translate(114.40625 0)"/>
      </g>
     </g>
    </g>
    <g id="ytick_4">
     <g id="line2d_4">
      <g>
       <use xlink:href="#m782e25c2ab" x="32.218984" y="132.653533" style="fill: #555555; stroke: #555555; stroke-width: 0.8"/>
      </g>
     </g>
     <g id="text_4">
      <!-- 106 -->
      <g style="fill: #555555" transform="translate(7.2 138.265783) scale(0.105 -0.105)">
       <defs>
        <path id="NotoNaskhArabic-Regular-4d2" d="M 1907 -64 
Q 1440 -64 1088 176 
Q 736 416 544 870 
Q 352 1331 352 1952 
Q 352 4634 2445 4634 
Q 2810 4634 3008 4576 
L 3008 4096 
Q 2771 4173 2458 4173 
Q 1984 4173 1654 3987 
Q 1325 3802 1139 3405 
Q 941 2976 915 2323 
L 954 2323 
Q 1299 2861 2035 2861 
Q 2656 2861 3008 2486 
Q 3360 2112 3360 1472 
Q 3360 762 2969 349 
Q 2579 -64 1907 -64 
z
M 1901 410 
Q 2336 410 2569 688 
Q 2803 966 2803 1472 
Q 2803 1926 2576 2172 
Q 2349 2419 1920 2419 
Q 1645 2419 1421 2307 
Q 1197 2195 1056 1997 
Q 922 1798 922 1581 
Q 922 1267 1050 995 
Q 1178 723 1395 563 
Q 1619 410 1901 410 
z
" transform="scale(0.015625)"/>
       </defs>
       <use xlink:href="#NotoNaskhArabic-Regular-4cd"/>
       <use xlink:href="#NotoNaskhArabic-Regular-4cc" transform="translate(57.203125 0)"/>
       <use xlink:href="#NotoNaskhArabic-Regular-4d2" transform="translate(114.40625 0)"/>
      </g>
     </g>
    </g>
    <g id="ytick_5">
     <g id="line2d_5">
      <g>
       <use xlink:href="#m782e25c2ab" x="32.218984" y="89.745983" style="fill: #555555; stroke: #555555; stroke-width: 0.8"/>
      </g>
     </g>
     <g id="text_5">
      <!-- 108 -->
      <g style="fill: #555555" transform="translate(7.2 95.358233) scale(0.105 -0.105)">
       <defs>
        <path id="NotoNaskhArabic-Regular-4d4" d="M 1843 -64 
Q 1114 -64 714 256 
Q 314 576 314 1165 
Q 314 1946 1261 2387 
Q 832 2630 646 2912 
Q 461 3194 461 3546 
Q 461 4045 832 4339 
Q 1203 4634 1824 4634 
Q 2451 4634 2822 4342 
Q 3194 4051 3194 3539 
Q 3194 3200 2986 2928 
Q 2778 2656 2323 2419 
Q 2874 2150 3107 1856 
Q 3341 1562 3341 1184 
Q 3341 621 2937 278 
Q 2534 -64 1843 -64 
z
M 1850 2637 
Q 2278 2816 2457 3030 
Q 2637 3245 2637 3520 
Q 2637 3834 2416 4006 
Q 2195 4179 1818 4179 
Q 1446 4179 1228 4003 
Q 1011 3827 1011 3520 
Q 1011 3322 1094 3171 
Q 1178 3021 1338 2906 
Q 1498 2784 1850 2637 
z
M 1830 384 
Q 2278 384 2534 595 
Q 2790 806 2790 1178 
Q 2790 1478 2547 1712 
Q 2304 1946 1728 2157 
Q 1280 1965 1072 1728 
Q 864 1491 864 1158 
Q 864 800 1123 592 
Q 1382 384 1830 384 
z
" transform="scale(0.015625)"/>
       </defs>
       <use xlink:href="#NotoNaskhArabic-Regular-4cd"/>
       <use xlink:href="#NotoNaskhArabic-Regular-4cc" transform="translate(57.203125 0)"/>
       <use xlink:href="#NotoNaskhArabic-Regular-4d4" transform="translate(114.40625 0)"/>
      </g>
     </g>
    </g>
    <g id="ytick_6">
     <g id="line2d_6">
      <g>
       <use xlink:href="#m782e25c2ab" x="32.218984" y="46.838433" style="fill: #555555; stroke: #555555; stroke-width: 0.8"/>
      </g>
     </g>
     <g id="text_6">
      <!-- 110 -->
      <g style="fill: #555555" transform="translate(7.2 52.450683) scale(0.105 -0.105)">
       <use xlink:href="#NotoNaskhArabic-Regular-4cd"/>
       <use xlink:href="#NotoNaskhArabic-Regular-4cd" transform="translate(57.203125 0)"/>
       <use xlink:href="#NotoNaskhArabic-Regular-4cc" transform="translate(114.40625 0)"/>
      </g>
     </g>
    </g>
   </g>
   <g id="patch_3">
    <path d="M 32.218984 289.95 
L 32.218984 23.3785 
" style="fill: none; stroke: #1f2937; stroke-width: 0.8; stroke-linejoin: miter; stroke-linecap: square"/>
   </g>
   <g id="patch_4">
    <path d="M 32.218984 289.95 
L 267.7 289.95 
" style="fill: none; stroke: #1f2937; stroke-width: 0.8; stroke-linejoin: miter; stroke-linecap: square"/>
   </g>
   <g id="line2d_7">
    <path d="M 41.638225 277.833114 
L 41.638225 268.85407 
" clip-path="url(#pc51b168960)" style="fill: none; stroke: #1f8a56; stroke-width: 1.1; stroke-linecap: round"/>
   </g>
   <g id="line2d_8">
    <path d="M 51.057466 270.728402 
L 51.057466 231.864307 
" clip-path="url(#pc51b168960)" style="fill: none; stroke: #1f8a56; stroke-width: 1.1; stroke-linecap: round"/>
   </g>
   <g id="line2d_9">
    <path d="M 60.476706 239.519525 
L 60.476706 220.282917 
" clip-path="url(#pc51b168960)" style="fill: none; stroke: #1f8a56; stroke-width: 1.1; stroke-linecap: round"/>
   </g>
   <g id="line2d_10">
    <path d="M 69.895947 221.745369 
L 69.895947 199.268148 
" clip-path="url(#pc51b168960)" style="fill: none; stroke: #1f8a56; stroke-width: 1.1; stroke-linecap: round"/>
   </g>
   <g id="line2d_11">
    <path d="M 79.315187 206.814804 
L 79.315187 191.655279 
" clip-path="url(#pc51b168960)" style="fill: none; stroke: #1f8a56; stroke-width: 1.1; stroke-linecap: round"/>
   </g>
   <g id="line2d_12">
    <path d="M 88.734428 198.443809 
L 88.734428 180.918792 
" clip-path="url(#pc51b168960)" style="fill: none; stroke: #1f8a56; stroke-width: 1.1; stroke-linecap: round"/>
   </g>
   <g id="line2d_13">
    <path d="M 98.153669 189.007303 
L 98.153669 168.224231 
" clip-path="url(#pc51b168960)" style="fill: none; stroke: #1f8a56; stroke-width: 1.1; stroke-linecap: round"/>
   </g>
   <g id="line2d_14">
    <path d="M 107.572909 171.372399 
L 107.572909 157.715921 
" clip-path="url(#pc51b168960)" style="fill: none; stroke: #1f8a56; stroke-width: 1.1; stroke-linecap: round"/>
   </g>
   <g id="line2d_15">
    <path d="M 116.99215 160.15022 
L 116.99215 155.408006 
" clip-path="url(#pc51b168960)" style="fill: none; stroke: #b91c1c; stroke-width: 1.1; stroke-linecap: round"/>
   </g>
   <g id="line2d_16">
    <path d="M 126.411391 162.705707 
L 126.411391 141.558604 
" clip-path="url(#pc51b168960)" style="fill: none; stroke: #1f8a56; stroke-width: 1.1; stroke-linecap: round"/>
   </g>
   <g id="line2d_17">
    <path d="M 135.830631 143.403157 
L 135.830631 133.381126 
" clip-path="url(#pc51b168960)" style="fill: none; stroke: #1f8a56; stroke-width: 1.1; stroke-linecap: round"/>
   </g>
   <g id="line2d_18">
    <path d="M 145.249872 137.232795 
L 145.249872 133.152476 
" clip-path="url(#pc51b168960)" style="fill: none; stroke: #b91c1c; stroke-width: 1.1; stroke-linecap: round"/>
   </g>
   <g id="line2d_19">
    <path d="M 154.669112 138.225116 
L 154.669112 128.937556 
" clip-path="url(#pc51b168960)" style="fill: none; stroke: #b91c1c; stroke-width: 1.1; stroke-linecap: round"/>
   </g>
   <g id="line2d_20">
    <path d="M 164.088353 133.672596 
L 164.088353 102.65609 
" clip-path="url(#pc51b168960)" style="fill: none; stroke: #1f8a56; stroke-width: 1.1; stroke-linecap: round"/>
   </g>
   <g id="line2d_21">
    <path d="M 173.507594 107.185273 
L 173.507594 95.094708 
" clip-path="url(#pc51b168960)" style="fill: none; stroke: #1f8a56; stroke-width: 1.1; stroke-linecap: round"/>
   </g>
   <g id="line2d_22">
    <path d="M 182.926834 106.894555 
L 182.926834 88.659752 
" clip-path="url(#pc51b168960)" style="fill: none; stroke: #1f8a56; stroke-width: 1.1; stroke-linecap: round"/>
   </g>
   <g id="line2d_23">
    <path d="M 192.346075 91.084654 
L 192.346075 72.84461 
" clip-path="url(#pc51b168960)" style="fill: none; stroke: #1f8a56; stroke-width: 1.1; stroke-linecap: round"/>
   </g>
   <g id="line2d_24">
    <path d="M 201.765316 80.008549 
L 201.765316 63.296375 
" clip-path="url(#pc51b168960)" style="fill: none; stroke: #1f8a56; stroke-width: 1.1; stroke-linecap: round"/>
   </g>
   <g id="line2d_25">
    <path d="M 211.184556 66.113266 
L 211.184556 61.313142 
" clip-path="url(#pc51b168960)" style="fill: none; stroke: #b91c1c; stroke-width: 1.1; stroke-linecap: round"/>
   </g>
   <g id="line2d_26">
    <path d="M 220.603797 70.895998 
L 220.603797 63.600513 
" clip-path="url(#pc51b168960)" style="fill: none; stroke: #1f8a56; stroke-width: 1.1; stroke-linecap: round"/>
   </g>
   <g id="line2d_27">
    <path d="M 230.023037 72.140752 
L 230.023037 58.081844 
" clip-path="url(#pc51b168960)" style="fill: none; stroke: #1f8a56; stroke-width: 1.1; stroke-linecap: round"/>
   </g>
   <g id="line2d_28">
    <path d="M 239.442278 62.769457 
L 239.442278 41.145741 
" clip-path="url(#pc51b168960)" style="fill: none; stroke: #1f8a56; stroke-width: 1.1; stroke-linecap: round"/>
   </g>
   <g id="line2d_29">
    <path d="M 248.861519 47.729191 
L 248.861519 35.495386 
" clip-path="url(#pc51b168960)" style="fill: none; stroke: #b91c1c; stroke-width: 1.1; stroke-linecap: round"/>
   </g>
   <g id="line2d_30">
    <path d="M 258.280759 49.1787 
L 258.280759 39.499582 
" clip-path="url(#pc51b168960)" style="fill: none; stroke: #1f8a56; stroke-width: 1.1; stroke-linecap: round"/>
   </g>
   <g id="text_7">
    <!-- ﻦﻴﻴﺤﺟﺭﺄﺗ ﻦﻴﻋﺎﻗ ﺪﻳﺪﺤﺗ .1 -->
    <g style="fill: #1f2937" transform="translate(104.924297 17.3555) scale(0.095 -0.095)">
     <defs>
      <path id="NotoNaskhArabic-Bold-4cd" d="M 1677 0 
L 1677 2643 
Q 1677 2822 1686 3020 
Q 1696 3219 1702 3552 
Q 1466 3315 1370 3238 
Q 1242 3136 1107 3030 
Q 973 2925 845 2816 
L 378 3398 
L 1850 4570 
L 2643 4570 
L 2643 0 
L 1677 0 
z
" transform="scale(0.015625)"/>
      <path id="NotoNaskhArabic-Bold-514" d="M 1037 -365 
Q 691 -96 378 77 
Q 429 166 473 246 
Q 518 326 557 410 
Q 602 486 650 566 
Q 698 646 755 730 
Q 870 659 1017 563 
Q 1165 467 1273 377 
Q 1382 288 1382 224 
Q 1382 134 1037 -365 
z
" transform="scale(0.015625)"/>
      <path id="NotoNaskhArabic-Bold-554" transform="scale(0.015625)"/>
      <path id="NotoNaskhArabic-Bold-38" d="M 0 58 
Q -51 58 -51 109 
L -51 762 
Q -51 813 0 813 
Q 320 813 640 867 
Q 960 922 1139 998 
Q 1075 1146 976 1328 
Q 877 1510 819 1613 
Q 755 1734 710 1833 
Q 666 1933 666 2016 
Q 666 2176 838 2361 
Q 1011 2547 1248 2669 
Q 1293 2470 1347 2217 
Q 1402 1965 1446 1702 
Q 1485 1504 1501 1376 
Q 1517 1248 1517 1184 
Q 1517 1037 1443 822 
Q 1370 608 1267 410 
Q 685 58 0 58 
z
M 1332 3020 
Q 1197 3129 1088 3225 
Q 980 3321 890 3417 
Q 1127 3635 1319 3865 
Q 1376 3801 1478 3705 
Q 1581 3609 1722 3468 
Q 1549 3232 1332 3020 
z
M 474 2924 
Q 199 3148 32 3328 
Q 141 3436 250 3548 
Q 359 3660 468 3769 
Q 583 3635 864 3372 
Q 704 3142 474 2924 
z
" transform="scale(0.015625)"/>
      <path id="NotoNaskhArabic-Bold-8b" d="M 0 58 
Q -51 58 -51 109 
L -51 762 
Q -51 813 0 813 
Q 467 813 793 829 
Q 1120 845 1427 934 
Q 1702 1018 1897 1069 
Q 2093 1120 2202 1146 
Q 2118 1197 2032 1251 
Q 1946 1306 1856 1363 
Q 1651 1498 1513 1555 
Q 1376 1613 1235 1613 
Q 1043 1613 870 1558 
Q 698 1504 480 1363 
Q 422 1421 377 1533 
Q 333 1645 333 1747 
Q 333 2029 582 2205 
Q 832 2381 1210 2381 
Q 1414 2381 1603 2310 
Q 1792 2240 2029 2080 
Q 2317 1882 2560 1763 
Q 2803 1645 3136 1555 
Q 3302 1517 3500 1494 
Q 3699 1472 3936 1472 
L 3654 934 
Q 3578 941 3501 941 
Q 3424 941 3347 947 
Q 3411 890 3488 867 
Q 3565 845 3661 832 
Q 3808 826 3965 822 
Q 4122 819 4262 813 
Q 4314 813 4314 762 
L 4314 109 
Q 4314 58 4262 58 
Q 4032 58 3782 80 
Q 3533 102 3325 150 
Q 3117 198 3021 262 
Q 2893 358 2838 537 
Q 2784 717 2746 877 
Q 2624 851 2525 803 
Q 2426 755 2304 675 
Q 2182 595 1990 467 
Q 1683 262 1395 176 
Q 1107 90 774 74 
Q 442 58 0 58 
z
" transform="scale(0.015625)"/>
      <path id="NotoNaskhArabic-Bold-b6" d="M 1075 0 
Q 218 0 218 499 
Q 218 634 272 784 
Q 326 934 410 1018 
Q 570 890 774 826 
Q 979 762 1280 762 
Q 1466 762 1658 784 
Q 1850 806 2048 851 
Q 1798 1286 1648 1673 
Q 1498 2061 1498 2246 
Q 1498 2477 1613 2646 
Q 1728 2816 1946 2880 
Q 2074 2362 2208 1955 
Q 2342 1549 2490 1248 
Q 2611 1005 2758 909 
Q 2906 813 3162 813 
Q 3213 813 3213 762 
L 3213 109 
Q 3213 58 3162 58 
Q 2707 58 2413 352 
Q 1709 0 1075 0 
z
" transform="scale(0.015625)"/>
      <path id="NotoNaskhArabic-Bold-241" d="M 0 58 
Q -51 58 -51 109 
L -51 762 
Q -51 813 0 813 
Q 339 813 652 835 
Q 966 858 1212 902 
Q 1459 947 1581 998 
Q 1517 1146 1414 1328 
Q 1312 1510 1261 1613 
Q 1197 1734 1152 1833 
Q 1107 1933 1107 2016 
Q 1107 2170 1280 2358 
Q 1453 2547 1690 2669 
Q 1786 2189 1843 1897 
Q 1901 1606 1926 1443 
Q 1952 1280 1952 1184 
Q 1952 1037 1881 825 
Q 1811 614 1702 410 
Q 1530 307 1251 227 
Q 973 147 646 102 
Q 320 58 0 58 
z
M 1479 -1235 
Q 1204 -1011 1037 -832 
Q 1242 -653 1466 -384 
Q 1485 -403 1584 -502 
Q 1684 -602 1863 -787 
Q 1799 -883 1703 -995 
Q 1607 -1107 1479 -1235 
z
M 621 -1331 
Q 461 -1203 355 -1100 
Q 250 -998 180 -922 
Q 288 -813 397 -701 
Q 506 -589 615 -480 
Q 692 -576 1012 -877 
Q 858 -1107 621 -1331 
z
" transform="scale(0.015625)"/>
      <path id="NotoNaskhArabic-Bold-16a" d="M 6 58 
Q -51 58 -51 115 
L -51 762 
Q -51 813 6 813 
Q 710 813 1196 857 
Q 1683 902 2061 1075 
Q 2048 1120 2029 1177 
Q 2010 1235 1978 1312 
Q 1824 1178 1638 1107 
Q 1453 1037 1229 1037 
Q 864 1037 685 1229 
Q 506 1421 506 1709 
Q 506 2029 624 2297 
Q 742 2566 941 2720 
Q 1043 2803 1158 2851 
Q 1274 2899 1395 2899 
Q 1658 2899 1904 2608 
Q 2150 2317 2285 1869 
Q 2349 1677 2377 1469 
Q 2406 1261 2406 1043 
Q 2406 832 2189 397 
Q 1875 275 1577 201 
Q 1280 128 912 93 
Q 544 58 6 58 
z
M 1318 1504 
Q 1568 1504 1856 1594 
Q 1734 1875 1593 2003 
Q 1453 2131 1254 2131 
Q 1056 2131 944 2032 
Q 832 1933 832 1811 
Q 832 1658 947 1581 
Q 1062 1504 1318 1504 
z
M 1818 3296 
Q 1683 3405 1574 3501 
Q 1466 3597 1376 3693 
Q 1613 3911 1805 4141 
Q 1862 4077 1964 3981 
Q 2067 3885 2208 3744 
Q 2035 3508 1818 3296 
z
M 960 3200 
Q 685 3424 518 3604 
Q 627 3712 736 3824 
Q 845 3936 954 4045 
Q 1069 3911 1350 3648 
Q 1190 3418 960 3200 
z
" transform="scale(0.015625)"/>
      <path id="NotoNaskhArabic-Bold-4" d="M 1901 58 
Q 1517 58 1283 186 
Q 1050 314 938 528 
Q 826 742 794 1018 
Q 781 1139 749 1424 
Q 717 1709 681 2073 
Q 646 2438 608 2809 
Q 570 3181 538 3481 
Q 506 3782 486 3930 
Q 845 4166 1248 4352 
Q 1274 3635 1296 2918 
Q 1318 2202 1338 1478 
L 1363 979 
Q 1478 883 1606 848 
Q 1734 813 1914 813 
Q 1952 813 1952 762 
L 1952 109 
Q 1952 58 1901 58 
z
" transform="scale(0.015625)"/>
      <path id="NotoNaskhArabic-Bold-136" d="M 0 58 
Q -51 58 -51 109 
L -51 762 
Q -51 813 0 813 
L 499 813 
Q 365 1005 365 1210 
Q 365 1408 441 1632 
Q 518 1856 652 2057 
Q 787 2259 947 2387 
Q 1190 2579 1440 2579 
Q 1875 2579 2406 1990 
L 2272 1728 
Q 2074 1805 1907 1840 
Q 1741 1875 1600 1875 
Q 1376 1875 1197 1827 
Q 1018 1779 819 1670 
Q 832 1434 921 1245 
Q 1011 1056 1190 928 
Q 1267 877 1338 838 
Q 1843 870 2240 953 
Q 2637 1037 3040 1197 
Q 3091 1152 3116 1056 
Q 3142 960 3142 883 
Q 3142 730 3072 602 
Q 3002 474 2874 410 
Q 2746 346 2259 250 
Q 1766 147 1235 102 
Q 704 58 0 58 
z
" transform="scale(0.015625)"/>
      <path id="NotoNaskhArabic-Bold-240" d="M 0 58 
Q -51 58 -51 109 
L -51 762 
Q -51 813 0 813 
Q 307 813 566 829 
Q 826 845 992 928 
Q 1120 992 1187 1104 
Q 1254 1216 1357 1421 
Q 1459 1632 1536 1680 
Q 1613 1728 1715 1728 
Q 1869 1728 1971 1638 
Q 1888 1427 1814 1264 
Q 1741 1101 1690 979 
Q 2003 813 2362 813 
Q 2413 813 2413 762 
L 2413 109 
Q 2413 58 2362 58 
Q 1875 58 1434 499 
L 1382 416 
Q 1203 179 883 118 
Q 563 58 0 58 
z
M 1651 -1235 
Q 1376 -1011 1209 -832 
Q 1414 -653 1638 -384 
Q 1657 -403 1756 -502 
Q 1856 -602 2035 -787 
Q 1971 -883 1875 -995 
Q 1779 -1107 1651 -1235 
z
M 793 -1331 
Q 633 -1203 527 -1100 
Q 422 -998 352 -922 
Q 460 -813 569 -701 
Q 678 -589 787 -480 
Q 864 -576 1184 -877 
Q 1030 -1107 793 -1331 
z
" transform="scale(0.015625)"/>
      <path id="NotoNaskhArabic-Bold-1e8" d="M 1606 -1613 
Q 1037 -1613 736 -1277 
Q 435 -941 435 -301 
Q 435 32 595 627 
L 877 557 
Q 787 256 787 45 
Q 787 -858 1626 -858 
Q 2131 -858 2486 -726 
Q 2842 -595 3181 -288 
Q 2963 115 2800 419 
Q 2637 723 2637 883 
Q 2637 1408 3283 1728 
Q 3296 1626 3328 1427 
Q 3360 1229 3411 928 
Q 3622 813 3885 813 
Q 3942 813 3942 762 
L 3942 109 
Q 3942 58 3885 58 
Q 3795 58 3705 74 
Q 3616 90 3526 128 
L 3533 -45 
Q 3533 -474 3277 -838 
Q 3021 -1203 2579 -1408 
Q 2362 -1510 2115 -1561 
Q 1869 -1613 1606 -1613 
z
M 1811 1580 
Q 1485 1849 1319 2041 
Q 1466 2188 1584 2313 
Q 1703 2438 1799 2553 
Q 1869 2476 1984 2361 
Q 2099 2246 2259 2092 
Q 2183 1984 2071 1856 
Q 1959 1728 1811 1580 
z
" transform="scale(0.015625)"/>
      <path id="NotoNaskhArabic-Bold-8" d="M 1901 58 
Q 1517 58 1283 186 
Q 1050 314 938 528 
Q 826 742 794 1018 
Q 781 1139 749 1424 
Q 717 1709 681 2073 
Q 646 2438 608 2809 
Q 570 3181 538 3481 
Q 506 3782 486 3930 
Q 845 4166 1248 4352 
Q 1274 3635 1296 2918 
Q 1318 2202 1338 1478 
L 1363 979 
Q 1478 883 1606 848 
Q 1734 813 1914 813 
Q 1952 813 1952 762 
L 1952 109 
Q 1952 58 1901 58 
z
M 448 4506 
L 429 4775 
L 659 4909 
Q 455 4986 455 5159 
Q 455 5274 525 5389 
Q 595 5504 701 5584 
Q 807 5664 903 5664 
Q 1139 5664 1139 5376 
Q 1139 5280 1114 5229 
L 986 5248 
L 986 5268 
Q 986 5325 909 5325 
Q 768 5325 685 5165 
Q 800 5050 1005 5050 
Q 1056 5050 1120 5056 
Q 1184 5063 1255 5076 
L 1229 4794 
Q 999 4743 842 4688 
Q 685 4634 448 4506 
z
" transform="scale(0.015625)"/>
      <path id="NotoNaskhArabic-Bold-d3" d="M 653 -1248 
Q 544 -1248 304 -1107 
Q 64 -966 -218 -730 
L -115 -461 
Q 243 -550 531 -550 
Q 1005 -550 1331 -313 
Q 1658 -77 1805 371 
Q 1760 467 1705 566 
Q 1651 666 1587 762 
Q 1402 1050 1254 1312 
Q 1107 1574 1107 1779 
Q 1107 1965 1254 2147 
Q 1402 2330 1638 2451 
Q 1677 2317 1731 2137 
Q 1786 1958 1846 1782 
Q 1907 1606 1952 1472 
Q 2035 1235 2089 1004 
Q 2144 774 2144 570 
Q 2144 70 1952 -349 
Q 1760 -768 1421 -1011 
Q 1082 -1248 653 -1248 
z
" transform="scale(0.015625)"/>
      <path id="NotoNaskhArabic-Bold-74" d="M 0 58 
Q -51 58 -51 109 
L -51 762 
Q -51 813 0 813 
Q 467 813 793 829 
Q 1120 845 1427 934 
Q 1702 1018 1897 1069 
Q 2093 1120 2202 1146 
Q 2112 1197 2025 1251 
Q 1939 1306 1856 1363 
Q 1651 1504 1513 1558 
Q 1376 1613 1235 1613 
Q 1043 1613 870 1558 
Q 698 1504 480 1363 
Q 422 1421 377 1533 
Q 333 1645 333 1747 
Q 333 2029 582 2205 
Q 832 2381 1210 2381 
Q 1414 2381 1603 2310 
Q 1792 2240 2029 2080 
Q 2317 1882 2560 1763 
Q 2803 1645 3136 1555 
Q 3302 1517 3500 1494 
Q 3699 1472 3936 1472 
L 3603 794 
Q 3405 813 3273 825 
Q 3142 838 2963 826 
Q 2739 806 2483 704 
Q 2227 602 1990 467 
Q 1741 320 1533 237 
Q 1325 154 1107 115 
Q 890 77 624 67 
Q 358 58 0 58 
z
M 2272 -1107 
Q 2099 -966 1977 -851 
Q 1856 -736 1772 -646 
Q 1900 -518 2022 -393 
Q 2144 -269 2259 -134 
Q 2425 -326 2720 -595 
Q 2649 -697 2534 -828 
Q 2419 -960 2272 -1107 
z
" transform="scale(0.015625)"/>
     </defs>
     <use xlink:href="#NotoNaskhArabic-Bold-4cd"/>
     <use xlink:href="#NotoNaskhArabic-Bold-514" transform="translate(57.203125 0)"/>
     <use xlink:href="#NotoNaskhArabic-Bold-554" transform="translate(81.703125 0)"/>
     <use xlink:href="#NotoNaskhArabic-Bold-38" transform="translate(103.796875 0)"/>
     <use xlink:href="#NotoNaskhArabic-Bold-8b" transform="translate(131.296875 0)"/>
     <use xlink:href="#NotoNaskhArabic-Bold-b6" transform="translate(197 0)"/>
     <use xlink:href="#NotoNaskhArabic-Bold-241" transform="translate(245.5 0)"/>
     <use xlink:href="#NotoNaskhArabic-Bold-b6" transform="translate(279.796875 0)"/>
     <use xlink:href="#NotoNaskhArabic-Bold-554" transform="translate(328.296875 0)"/>
     <use xlink:href="#NotoNaskhArabic-Bold-16a" transform="translate(350.390625 0)"/>
     <use xlink:href="#NotoNaskhArabic-Bold-4" transform="translate(393.09375 0)"/>
     <use xlink:href="#NotoNaskhArabic-Bold-136" transform="translate(421.890625 0)"/>
     <use xlink:href="#NotoNaskhArabic-Bold-240" transform="translate(473.59375 0)"/>
     <use xlink:href="#NotoNaskhArabic-Bold-1e8" transform="translate(509.59375 0)"/>
     <use xlink:href="#NotoNaskhArabic-Bold-554" transform="translate(569.5 0)"/>
     <use xlink:href="#NotoNaskhArabic-Bold-38" transform="translate(591.59375 0)"/>
     <use xlink:href="#NotoNaskhArabic-Bold-8" transform="translate(619.09375 0)"/>
     <use xlink:href="#NotoNaskhArabic-Bold-d3" transform="translate(647.890625 0)"/>
     <use xlink:href="#NotoNaskhArabic-Bold-74" transform="translate(685.59375 0)"/>
     <use xlink:href="#NotoNaskhArabic-Bold-8b" transform="translate(750.5 0)"/>
     <use xlink:href="#NotoNaskhArabic-Bold-240" transform="translate(816.203125 0)"/>
     <use xlink:href="#NotoNaskhArabic-Bold-240" transform="translate(852.203125 0)"/>
     <use xlink:href="#NotoNaskhArabic-Bold-1e8" transform="translate(888.203125 0)"/>
    </g>
   </g>
   <g id="patch_5">
    <path d="M 39.283415 276.289949 
L 43.993035 276.289949 
L 43.993035 269.019817 
L 39.283415 269.019817 
z
" clip-path="url(#pc51b168960)" style="fill: #1f8a56; stroke: #1f8a56; stroke-linejoin: miter"/>
   </g>
   <g id="patch_6">
    <path d="M 48.702655 269.759652 
L 53.412276 269.759652 
L 53.412276 237.377376 
L 48.702655 237.377376 
z
" clip-path="url(#pc51b168960)" style="fill: #1f8a56; stroke: #1f8a56; stroke-linejoin: miter"/>
   </g>
   <g id="patch_7">
    <path d="M 58.121896 237.653048 
L 62.831516 237.653048 
L 62.831516 220.850545 
L 58.121896 220.850545 
z
" clip-path="url(#pc51b168960)" style="fill: #1f8a56; stroke: #1f8a56; stroke-linejoin: miter"/>
   </g>
   <g id="patch_8">
    <path d="M 67.541137 220.530583 
L 72.250757 220.530583 
L 72.250757 204.477561 
L 67.541137 204.477561 
z
" clip-path="url(#pc51b168960)" style="fill: #1f8a56; stroke: #1f8a56; stroke-linejoin: miter"/>
   </g>
   <g id="patch_9">
    <path d="M 76.960377 204.614226 
L 81.669998 204.614226 
L 81.669998 192.593173 
L 76.960377 192.593173 
z
" clip-path="url(#pc51b168960)" style="fill: #1f8a56; stroke: #1f8a56; stroke-linejoin: miter"/>
   </g>
   <g id="patch_10">
    <path d="M 86.379618 196.252919 
L 91.089238 196.252919 
L 91.089238 181.220713 
L 86.379618 181.220713 
z
" clip-path="url(#pc51b168960)" style="fill: #1f8a56; stroke: #1f8a56; stroke-linejoin: miter"/>
   </g>
   <g id="patch_11">
    <path d="M 95.798859 184.56647 
L 100.508479 184.56647 
L 100.508479 170.608004 
L 95.798859 170.608004 
z
" clip-path="url(#pc51b168960)" style="fill: #1f8a56; stroke: #1f8a56; stroke-linejoin: miter"/>
   </g>
   <g id="patch_12">
    <path d="M 105.218099 169.822341 
L 109.92772 169.822341 
L 109.92772 158.706217 
L 105.218099 158.706217 
z
" clip-path="url(#pc51b168960)" style="fill: #1f8a56; stroke: #1f8a56; stroke-linejoin: miter"/>
   </g>
   <g id="patch_13">
    <path d="M 114.63734 157.293931 
L 119.34696 157.293931 
L 119.34696 150.023799 
L 114.63734 150.023799 
z
" clip-path="url(#pc51b168960)" style="fill: #b91c1c; stroke: #b91c1c; stroke-linejoin: miter"/>
   </g>
   <g id="patch_14">
    <path d="M 124.05658 161.294218 
L 128.766201 161.294218 
L 128.766201 145.150617 
L 124.05658 145.150617 
z
" clip-path="url(#pc51b168960)" style="fill: #1f8a56; stroke: #1f8a56; stroke-linejoin: miter"/>
   </g>
   <g id="patch_15">
    <path d="M 133.475821 141.489915 
L 138.185441 141.489915 
L 138.185441 134.219783 
L 133.475821 134.219783 
z
" clip-path="url(#pc51b168960)" style="fill: #1f8a56; stroke: #1f8a56; stroke-linejoin: miter"/>
   </g>
   <g id="patch_16">
    <path d="M 142.895062 135.002237 
L 147.604682 135.002237 
L 147.604682 127.732105 
L 142.895062 127.732105 
z
" clip-path="url(#pc51b168960)" style="fill: #b91c1c; stroke: #b91c1c; stroke-linejoin: miter"/>
   </g>
   <g id="patch_17">
    <path d="M 152.314302 136.197621 
L 157.023923 136.197621 
L 157.023923 128.927488 
L 152.314302 128.927488 
z
" clip-path="url(#pc51b168960)" style="fill: #b91c1c; stroke: #b91c1c; stroke-linejoin: miter"/>
   </g>
   <g id="patch_18">
    <path d="M 161.733543 133.671034 
L 166.443163 133.671034 
L 166.443163 106.664905 
L 161.733543 106.664905 
z
" clip-path="url(#pc51b168960)" style="fill: #1f8a56; stroke: #1f8a56; stroke-linejoin: miter"/>
   </g>
   <g id="patch_19">
    <path d="M 171.152784 106.648431 
L 175.862404 106.648431 
L 175.862404 99.378299 
L 171.152784 99.378299 
z
" clip-path="url(#pc51b168960)" style="fill: #1f8a56; stroke: #1f8a56; stroke-linejoin: miter"/>
   </g>
   <g id="patch_20">
    <path d="M 180.572024 99.482715 
L 185.281645 99.482715 
L 185.281645 89.782953 
L 180.572024 89.782953 
z
" clip-path="url(#pc51b168960)" style="fill: #1f8a56; stroke: #1f8a56; stroke-linejoin: miter"/>
   </g>
   <g id="patch_21">
    <path d="M 189.991265 90.642487 
L 194.700885 90.642487 
L 194.700885 77.124252 
L 189.991265 77.124252 
z
" clip-path="url(#pc51b168960)" style="fill: #1f8a56; stroke: #1f8a56; stroke-linejoin: miter"/>
   </g>
   <g id="patch_22">
    <path d="M 199.410505 76.006256 
L 204.120126 76.006256 
L 204.120126 65.048614 
L 199.410505 65.048614 
z
" clip-path="url(#pc51b168960)" style="fill: #1f8a56; stroke: #1f8a56; stroke-linejoin: miter"/>
   </g>
   <g id="patch_23">
    <path d="M 208.829746 65.363245 
L 213.539366 65.363245 
L 213.539366 58.093112 
L 208.829746 58.093112 
z
" clip-path="url(#pc51b168960)" style="fill: #b91c1c; stroke: #b91c1c; stroke-linejoin: miter"/>
   </g>
   <g id="patch_24">
    <path d="M 218.248987 68.809422 
L 222.958607 68.809422 
L 222.958607 61.53929 
L 218.248987 61.53929 
z
" clip-path="url(#pc51b168960)" style="fill: #1f8a56; stroke: #1f8a56; stroke-linejoin: miter"/>
   </g>
   <g id="patch_25">
    <path d="M 227.668227 67.301112 
L 232.377848 67.301112 
L 232.377848 58.22967 
L 227.668227 58.22967 
z
" clip-path="url(#pc51b168960)" style="fill: #1f8a56; stroke: #1f8a56; stroke-linejoin: miter"/>
   </g>
   <g id="patch_26">
    <path d="M 237.087468 60.656701 
L 241.797088 60.656701 
L 241.797088 43.948267 
L 237.087468 43.948267 
z
" clip-path="url(#pc51b168960)" style="fill: #1f8a56; stroke: #1f8a56; stroke-linejoin: miter"/>
   </g>
   <g id="patch_27">
    <path d="M 246.506709 45.470702 
L 251.216329 45.470702 
L 251.216329 38.200569 
L 246.506709 38.200569 
z
" clip-path="url(#pc51b168960)" style="fill: #b91c1c; stroke: #b91c1c; stroke-linejoin: miter"/>
   </g>
   <g id="patch_28">
    <path d="M 255.925949 45.836528 
L 260.63557 45.836528 
L 260.63557 38.566396 
L 255.925949 38.566396 
z
" clip-path="url(#pc51b168960)" style="fill: #1f8a56; stroke: #1f8a56; stroke-linejoin: miter"/>
   </g>
   <g id="line2d_31">
    <path d="M 60.476706 245.955658 
" clip-path="url(#pc51b168960)" style="fill: none; stroke: #b7791f; stroke-width: 1.5; stroke-linecap: square"/>
    <defs>
     <path id="m9b6bee8448" d="M 0 -4 
L -4 4 
L 4 4 
z
" style="stroke: #b7791f; stroke-linejoin: miter"/>
    </defs>
    <g clip-path="url(#pc51b168960)">
     <use xlink:href="#m9b6bee8448" x="60.476706" y="245.955658" style="fill: #b7791f; stroke: #b7791f; stroke-linejoin: miter"/>
    </g>
   </g>
   <g id="line2d_32">
    <path d="M 126.411391 169.141839 
" clip-path="url(#pc51b168960)" style="fill: none; stroke: #b7791f; stroke-width: 1.5; stroke-linecap: square"/>
    <g clip-path="url(#pc51b168960)">
     <use xlink:href="#m9b6bee8448" x="126.411391" y="169.141839" style="fill: #b7791f; stroke: #b7791f; stroke-linejoin: miter"/>
    </g>
   </g>
   <g id="line2d_33">
    <path d="M 192.346075 97.520786 
" clip-path="url(#pc51b168960)" style="fill: none; stroke: #b7791f; stroke-width: 1.5; stroke-linecap: square"/>
    <g clip-path="url(#pc51b168960)">
     <use xlink:href="#m9b6bee8448" x="192.346075" y="97.520786" style="fill: #b7791f; stroke: #b7791f; stroke-linejoin: miter"/>
    </g>
   </g>
  </g>
  <g id="axes_2">
   <g id="patch_29">
    <path d="M 295.343984 289.95 
L 530.825 289.95 
L 530.825 23.3785 
L 295.343984 23.3785 
z
" style="fill: #ffffff"/>
   </g>
   <g id="matplotlib.axis_3"/>
   <g id="matplotlib.axis_4">
    <g id="ytick_7">
     <g id="line2d_34">
      <g>
       <use xlink:href="#m782e25c2ab" x="295.343984" y="261.376182" style="fill: #555555; stroke: #555555; stroke-width: 0.8"/>
      </g>
     </g>
     <g id="text_8">
      <!-- 100 -->
      <g style="fill: #555555" transform="translate(270.325 266.988432) scale(0.105 -0.105)">
       <use xlink:href="#NotoNaskhArabic-Regular-4cd"/>
       <use xlink:href="#NotoNaskhArabic-Regular-4cc" transform="translate(57.203125 0)"/>
       <use xlink:href="#NotoNaskhArabic-Regular-4cc" transform="translate(114.40625 0)"/>
      </g>
     </g>
    </g>
    <g id="ytick_8">
     <g id="line2d_35">
      <g>
       <use xlink:href="#m782e25c2ab" x="295.343984" y="218.468632" style="fill: #555555; stroke: #555555; stroke-width: 0.8"/>
      </g>
     </g>
     <g id="text_9">
      <!-- 102 -->
      <g style="fill: #555555" transform="translate(270.325 224.080882) scale(0.105 -0.105)">
       <use xlink:href="#NotoNaskhArabic-Regular-4cd"/>
       <use xlink:href="#NotoNaskhArabic-Regular-4cc" transform="translate(57.203125 0)"/>
       <use xlink:href="#NotoNaskhArabic-Regular-4ce" transform="translate(114.40625 0)"/>
      </g>
     </g>
    </g>
    <g id="ytick_9">
     <g id="line2d_36">
      <g>
       <use xlink:href="#m782e25c2ab" x="295.343984" y="175.561082" style="fill: #555555; stroke: #555555; stroke-width: 0.8"/>
      </g>
     </g>
     <g id="text_10">
      <!-- 104 -->
      <g style="fill: #555555" transform="translate(270.325 181.173332) scale(0.105 -0.105)">
       <use xlink:href="#NotoNaskhArabic-Regular-4cd"/>
       <use xlink:href="#NotoNaskhArabic-Regular-4cc" transform="translate(57.203125 0)"/>
       <use xlink:href="#NotoNaskhArabic-Regular-4d0" transform="translate(114.40625 0)"/>
      </g>
     </g>
    </g>
    <g id="ytick_10">
     <g id="line2d_37">
      <g>
       <use xlink:href="#m782e25c2ab" x="295.343984" y="132.653533" style="fill: #555555; stroke: #555555; stroke-width: 0.8"/>
      </g>
     </g>
     <g id="text_11">
      <!-- 106 -->
      <g style="fill: #555555" transform="translate(270.325 138.265783) scale(0.105 -0.105)">
       <use xlink:href="#NotoNaskhArabic-Regular-4cd"/>
       <use xlink:href="#NotoNaskhArabic-Regular-4cc" transform="translate(57.203125 0)"/>
       <use xlink:href="#NotoNaskhArabic-Regular-4d2" transform="translate(114.40625 0)"/>
      </g>
     </g>
    </g>
    <g id="ytick_11">
     <g id="line2d_38">
      <g>
       <use xlink:href="#m782e25c2ab" x="295.343984" y="89.745983" style="fill: #555555; stroke: #555555; stroke-width: 0.8"/>
      </g>
     </g>
     <g id="text_12">
      <!-- 108 -->
      <g style="fill: #555555" transform="translate(270.325 95.358233) scale(0.105 -0.105)">
       <use xlink:href="#NotoNaskhArabic-Regular-4cd"/>
       <use xlink:href="#NotoNaskhArabic-Regular-4cc" transform="translate(57.203125 0)"/>
       <use xlink:href="#NotoNaskhArabic-Regular-4d4" transform="translate(114.40625 0)"/>
      </g>
     </g>
    </g>
    <g id="ytick_12">
     <g id="line2d_39">
      <g>
       <use xlink:href="#m782e25c2ab" x="295.343984" y="46.838433" style="fill: #555555; stroke: #555555; stroke-width: 0.8"/>
      </g>
     </g>
     <g id="text_13">
      <!-- 110 -->
      <g style="fill: #555555" transform="translate(270.325 52.450683) scale(0.105 -0.105)">
       <use xlink:href="#NotoNaskhArabic-Regular-4cd"/>
       <use xlink:href="#NotoNaskhArabic-Regular-4cd" transform="translate(57.203125 0)"/>
       <use xlink:href="#NotoNaskhArabic-Regular-4cc" transform="translate(114.40625 0)"/>
      </g>
     </g>
    </g>
   </g>
   <g id="line2d_40">
    <path d="M 323.601706 245.955658 
L 389.536391 169.141839 
" clip-path="url(#pa7d269d7d9)" style="fill: none; stroke: #1f2937; stroke-width: 2; stroke-linecap: square"/>
   </g>
   <g id="patch_30">
    <path d="M 295.343984 289.95 
L 295.343984 23.3785 
" style="fill: none; stroke: #1f2937; stroke-width: 0.8; stroke-linejoin: miter; stroke-linecap: square"/>
   </g>
   <g id="patch_31">
    <path d="M 295.343984 289.95 
L 530.825 289.95 
" style="fill: none; stroke: #1f2937; stroke-width: 0.8; stroke-linejoin: miter; stroke-linecap: square"/>
   </g>
   <g id="line2d_41">
    <path d="M 304.763225 277.833114 
L 304.763225 268.85407 
" clip-path="url(#pa7d269d7d9)" style="fill: none; stroke: #1f8a56; stroke-width: 1.1; stroke-linecap: round"/>
   </g>
   <g id="line2d_42">
    <path d="M 314.182466 270.728402 
L 314.182466 231.864307 
" clip-path="url(#pa7d269d7d9)" style="fill: none; stroke: #1f8a56; stroke-width: 1.1; stroke-linecap: round"/>
   </g>
   <g id="line2d_43">
    <path d="M 323.601706 239.519525 
L 323.601706 220.282917 
" clip-path="url(#pa7d269d7d9)" style="fill: none; stroke: #1f8a56; stroke-width: 1.1; stroke-linecap: round"/>
   </g>
   <g id="line2d_44">
    <path d="M 333.020947 221.745369 
L 333.020947 199.268148 
" clip-path="url(#pa7d269d7d9)" style="fill: none; stroke: #1f8a56; stroke-width: 1.1; stroke-linecap: round"/>
   </g>
   <g id="line2d_45">
    <path d="M 342.440187 206.814804 
L 342.440187 191.655279 
" clip-path="url(#pa7d269d7d9)" style="fill: none; stroke: #1f8a56; stroke-width: 1.1; stroke-linecap: round"/>
   </g>
   <g id="line2d_46">
    <path d="M 351.859428 198.443809 
L 351.859428 180.918792 
" clip-path="url(#pa7d269d7d9)" style="fill: none; stroke: #1f8a56; stroke-width: 1.1; stroke-linecap: round"/>
   </g>
   <g id="line2d_47">
    <path d="M 361.278669 189.007303 
L 361.278669 168.224231 
" clip-path="url(#pa7d269d7d9)" style="fill: none; stroke: #1f8a56; stroke-width: 1.1; stroke-linecap: round"/>
   </g>
   <g id="line2d_48">
    <path d="M 370.697909 171.372399 
L 370.697909 157.715921 
" clip-path="url(#pa7d269d7d9)" style="fill: none; stroke: #1f8a56; stroke-width: 1.1; stroke-linecap: round"/>
   </g>
   <g id="line2d_49">
    <path d="M 380.11715 160.15022 
L 380.11715 155.408006 
" clip-path="url(#pa7d269d7d9)" style="fill: none; stroke: #b91c1c; stroke-width: 1.1; stroke-linecap: round"/>
   </g>
   <g id="line2d_50">
    <path d="M 389.536391 162.705707 
L 389.536391 141.558604 
" clip-path="url(#pa7d269d7d9)" style="fill: none; stroke: #1f8a56; stroke-width: 1.1; stroke-linecap: round"/>
   </g>
   <g id="line2d_51">
    <path d="M 398.955631 143.403157 
L 398.955631 133.381126 
" clip-path="url(#pa7d269d7d9)" style="fill: none; stroke: #1f8a56; stroke-width: 1.1; stroke-linecap: round"/>
   </g>
   <g id="line2d_52">
    <path d="M 408.374872 137.232795 
L 408.374872 133.152476 
" clip-path="url(#pa7d269d7d9)" style="fill: none; stroke: #b91c1c; stroke-width: 1.1; stroke-linecap: round"/>
   </g>
   <g id="line2d_53">
    <path d="M 417.794112 138.225116 
L 417.794112 128.937556 
" clip-path="url(#pa7d269d7d9)" style="fill: none; stroke: #b91c1c; stroke-width: 1.1; stroke-linecap: round"/>
   </g>
   <g id="line2d_54">
    <path d="M 427.213353 133.672596 
L 427.213353 102.65609 
" clip-path="url(#pa7d269d7d9)" style="fill: none; stroke: #1f8a56; stroke-width: 1.1; stroke-linecap: round"/>
   </g>
   <g id="line2d_55">
    <path d="M 436.632594 107.185273 
L 436.632594 95.094708 
" clip-path="url(#pa7d269d7d9)" style="fill: none; stroke: #1f8a56; stroke-width: 1.1; stroke-linecap: round"/>
   </g>
   <g id="line2d_56">
    <path d="M 446.051834 106.894555 
L 446.051834 88.659752 
" clip-path="url(#pa7d269d7d9)" style="fill: none; stroke: #1f8a56; stroke-width: 1.1; stroke-linecap: round"/>
   </g>
   <g id="line2d_57">
    <path d="M 455.471075 91.084654 
L 455.471075 72.84461 
" clip-path="url(#pa7d269d7d9)" style="fill: none; stroke: #1f8a56; stroke-width: 1.1; stroke-linecap: round"/>
   </g>
   <g id="line2d_58">
    <path d="M 464.890316 80.008549 
L 464.890316 63.296375 
" clip-path="url(#pa7d269d7d9)" style="fill: none; stroke: #1f8a56; stroke-width: 1.1; stroke-linecap: round"/>
   </g>
   <g id="line2d_59">
    <path d="M 474.309556 66.113266 
L 474.309556 61.313142 
" clip-path="url(#pa7d269d7d9)" style="fill: none; stroke: #b91c1c; stroke-width: 1.1; stroke-linecap: round"/>
   </g>
   <g id="line2d_60">
    <path d="M 483.728797 70.895998 
L 483.728797 63.600513 
" clip-path="url(#pa7d269d7d9)" style="fill: none; stroke: #1f8a56; stroke-width: 1.1; stroke-linecap: round"/>
   </g>
   <g id="line2d_61">
    <path d="M 493.148037 72.140752 
L 493.148037 58.081844 
" clip-path="url(#pa7d269d7d9)" style="fill: none; stroke: #1f8a56; stroke-width: 1.1; stroke-linecap: round"/>
   </g>
   <g id="line2d_62">
    <path d="M 502.567278 62.769457 
L 502.567278 41.145741 
" clip-path="url(#pa7d269d7d9)" style="fill: none; stroke: #1f8a56; stroke-width: 1.1; stroke-linecap: round"/>
   </g>
   <g id="line2d_63">
    <path d="M 511.986519 47.729191 
L 511.986519 35.495386 
" clip-path="url(#pa7d269d7d9)" style="fill: none; stroke: #b91c1c; stroke-width: 1.1; stroke-linecap: round"/>
   </g>
   <g id="line2d_64">
    <path d="M 521.405759 49.1787 
L 521.405759 39.499582 
" clip-path="url(#pa7d269d7d9)" style="fill: none; stroke: #1f8a56; stroke-width: 1.1; stroke-linecap: round"/>
   </g>
   <g id="text_14">
    <!-- ﻂﺨﺑ ﺎﻤﻬﻠﺻﻭ .2 -->
    <g style="fill: #1f2937" transform="translate(386.166836 17.3555) scale(0.095 -0.095)">
     <defs>
      <path id="NotoNaskhArabic-Bold-4ce" d="M 256 0 
L 256 672 
L 1402 1830 
Q 1914 2355 2067 2554 
Q 2234 2765 2298 2925 
Q 2362 3085 2362 3283 
Q 2362 3558 2211 3692 
Q 2061 3827 1805 3827 
Q 1542 3827 1292 3705 
Q 1043 3584 768 3360 
L 243 3981 
Q 518 4218 761 4358 
Q 1005 4499 1267 4566 
Q 1530 4634 1875 4634 
Q 2304 4634 2633 4477 
Q 2963 4320 3142 4038 
Q 3322 3763 3322 3398 
Q 3322 3085 3213 2809 
Q 3104 2534 2867 2240 
Q 2752 2093 2547 1885 
Q 2342 1677 2048 1408 
L 1459 858 
L 1459 813 
L 3450 813 
L 3450 0 
L 256 0 
z
" transform="scale(0.015625)"/>
      <path id="NotoNaskhArabic-Bold-218" d="M 1248 -1248 
Q 1171 -1248 1011 -1174 
Q 851 -1101 668 -982 
Q 486 -864 326 -730 
L 429 -461 
Q 602 -506 778 -528 
Q 954 -550 1133 -550 
Q 1632 -550 2003 -304 
Q 2374 -58 2515 371 
L 2509 416 
Q 2323 224 2105 112 
Q 1888 0 1664 0 
Q 1267 0 1049 230 
Q 832 461 832 883 
Q 832 1242 966 1584 
Q 1101 1926 1318 2131 
Q 1530 2342 1766 2342 
Q 2042 2342 2288 2089 
Q 2534 1837 2694 1402 
Q 2848 973 2848 570 
Q 2848 83 2637 -339 
Q 2426 -762 2054 -1005 
Q 1690 -1248 1248 -1248 
z
M 1792 704 
Q 2074 704 2400 813 
Q 2342 992 2220 1181 
Q 2099 1370 1952 1472 
Q 1798 1574 1658 1574 
Q 1498 1574 1376 1488 
Q 1254 1402 1203 1267 
Q 1178 1190 1178 1094 
Q 1178 902 1338 803 
Q 1498 704 1792 704 
z
" transform="scale(0.015625)"/>
      <path id="NotoNaskhArabic-Bold-112" d="M 2592 0 
Q 2163 0 1699 80 
Q 1235 160 851 339 
Q 826 314 797 285 
Q 768 256 730 230 
Q 595 147 400 102 
Q 205 58 0 58 
Q -51 58 -51 109 
L -51 762 
Q -51 813 0 813 
Q 243 813 380 841 
Q 518 870 614 969 
Q 710 1069 826 1274 
Q 851 1318 880 1363 
Q 909 1408 934 1466 
Q 1030 1638 1222 1638 
Q 1318 1638 1427 1574 
Q 1363 1414 1302 1260 
Q 1242 1107 1178 954 
Q 1248 928 1312 909 
Q 1376 890 1440 864 
Q 2099 1741 2605 2150 
Q 3091 2560 3469 2560 
Q 3629 2560 3824 2464 
Q 4019 2368 4211 2214 
Q 4403 2061 4544 1882 
Q 4762 1619 4762 1446 
Q 4762 582 3699 192 
Q 3174 0 2592 0 
z
M 2656 704 
Q 3117 704 3520 813 
Q 3923 922 4390 1146 
Q 3814 1805 3309 1805 
Q 3027 1805 2652 1536 
Q 2278 1267 1862 774 
Q 2067 742 2265 723 
Q 2464 704 2656 704 
z
" transform="scale(0.015625)"/>
      <path id="NotoNaskhArabic-Bold-1bf" d="M 0 58 
Q -51 58 -51 109 
L -51 762 
Q -51 813 0 813 
Q 154 813 304 845 
Q 454 877 595 934 
Q 454 1830 307 3059 
Q 282 3264 259 3481 
Q 237 3699 211 3930 
Q 384 4058 576 4160 
Q 768 4262 973 4352 
Q 966 4115 956 3696 
Q 947 3277 937 2768 
Q 928 2259 922 1734 
L 922 992 
Q 1190 813 1619 813 
Q 1677 813 1677 762 
L 1677 109 
Q 1677 58 1619 58 
Q 1088 58 832 282 
Q 691 192 470 125 
Q 250 58 0 58 
z
" transform="scale(0.015625)"/>
      <path id="NotoNaskhArabic-Bold-1ff" d="M 1690 -1248 
Q 1184 -1248 851 -950 
Q 518 -653 429 -128 
L 237 -218 
L 166 70 
L 0 58 
Q -51 58 -51 109 
L -51 762 
Q -51 813 0 813 
Q 250 813 461 832 
Q 710 1958 1670 2874 
L 1952 2810 
Q 1971 2554 2067 1997 
Q 2112 1760 2131 1593 
Q 2150 1427 2150 1331 
Q 2150 1011 1850 730 
Q 2157 794 2304 803 
Q 2451 813 2586 813 
Q 2656 813 2656 755 
L 2656 128 
Q 2656 58 2586 58 
Q 2362 58 2131 19 
Q 2272 -45 2368 -176 
Q 2464 -307 2464 -442 
Q 2464 -499 2422 -630 
Q 2381 -762 2329 -886 
Q 2278 -1011 2246 -1050 
Q 2182 -1126 2038 -1187 
Q 1894 -1248 1690 -1248 
z
M 934 755 
Q 1453 832 1760 1075 
L 1677 1325 
Q 1600 1542 1549 1708 
Q 1498 1875 1478 1997 
Q 1203 1606 1081 1312 
Q 960 1018 934 755 
z
M 1741 -640 
Q 1850 -640 1930 -614 
Q 2010 -589 2112 -525 
Q 1920 -243 1651 -92 
Q 1382 58 1094 58 
Q 1075 58 1036 51 
Q 998 45 947 32 
Q 1075 -640 1741 -640 
z
" transform="scale(0.015625)"/>
      <path id="NotoNaskhArabic-Bold-1e4" d="M 2016 0 
Q 1606 0 1257 73 
Q 909 147 685 269 
Q 506 147 346 102 
Q 186 58 0 58 
Q -51 58 -51 109 
L -51 762 
Q -51 813 0 813 
Q 160 813 333 858 
Q 333 870 336 886 
Q 339 902 339 922 
Q 384 1261 573 1597 
Q 762 1933 1018 2131 
Q 1286 2342 1568 2342 
Q 1696 2342 1811 2176 
Q 1862 2093 1929 1942 
Q 1997 1792 2074 1581 
Q 2227 1133 2394 960 
Q 2528 813 2682 813 
Q 2752 813 2752 755 
L 2752 128 
Q 2752 58 2682 58 
Q 2362 58 2106 301 
L 2016 0 
z
M 1818 710 
Q 1606 1133 1549 1664 
Q 979 1440 698 1082 
Q 877 941 1155 851 
Q 1434 762 1818 710 
z
" transform="scale(0.015625)"/>
      <path id="NotoNaskhArabic-Bold-26" d="M 0 58 
Q -51 58 -51 109 
L -51 762 
Q -51 813 0 813 
Q 320 813 640 867 
Q 960 922 1139 998 
Q 1075 1146 976 1328 
Q 877 1510 819 1613 
Q 755 1734 710 1833 
Q 666 1933 666 2016 
Q 666 2176 838 2361 
Q 1011 2547 1248 2669 
Q 1293 2470 1347 2217 
Q 1402 1965 1446 1702 
Q 1485 1504 1501 1376 
Q 1517 1248 1517 1184 
Q 1517 1037 1443 822 
Q 1370 608 1267 410 
Q 685 58 0 58 
z
M 916 -1427 
Q 743 -1286 621 -1171 
Q 500 -1056 416 -966 
Q 544 -838 666 -713 
Q 788 -589 903 -454 
Q 1069 -646 1364 -915 
Q 1293 -1017 1178 -1148 
Q 1063 -1280 916 -1427 
z
" transform="scale(0.015625)"/>
      <path id="NotoNaskhArabic-Bold-a3" d="M 0 58 
Q -51 58 -51 109 
L -51 762 
Q -51 813 0 813 
Q 467 813 793 829 
Q 1120 845 1427 934 
Q 1702 1018 1897 1069 
Q 2093 1120 2202 1146 
Q 2118 1197 2032 1251 
Q 1946 1306 1856 1363 
Q 1651 1498 1513 1555 
Q 1376 1613 1235 1613 
Q 1043 1613 870 1558 
Q 698 1504 480 1363 
Q 422 1421 377 1533 
Q 333 1645 333 1747 
Q 333 2029 582 2205 
Q 832 2381 1210 2381 
Q 1414 2381 1603 2310 
Q 1792 2240 2029 2080 
Q 2317 1882 2560 1763 
Q 2803 1645 3136 1555 
Q 3302 1517 3500 1494 
Q 3699 1472 3936 1472 
L 3654 934 
Q 3578 941 3501 941 
Q 3424 941 3347 947 
Q 3411 890 3488 867 
Q 3565 845 3661 832 
Q 3808 826 3965 822 
Q 4122 819 4262 813 
Q 4314 813 4314 762 
L 4314 109 
Q 4314 58 4262 58 
Q 4032 58 3782 80 
Q 3533 102 3325 150 
Q 3117 198 3021 262 
Q 2893 358 2838 537 
Q 2784 717 2746 877 
Q 2624 851 2525 803 
Q 2426 755 2304 675 
Q 2182 595 1990 467 
Q 1683 262 1395 176 
Q 1107 90 774 74 
Q 442 58 0 58 
z
M 1894 2873 
Q 1568 3142 1402 3334 
Q 1549 3481 1667 3606 
Q 1786 3731 1882 3846 
Q 1952 3769 2067 3654 
Q 2182 3539 2342 3385 
Q 2266 3277 2154 3149 
Q 2042 3021 1894 2873 
z
" transform="scale(0.015625)"/>
      <path id="NotoNaskhArabic-Bold-124" d="M 2573 0 
Q 2336 0 2038 13 
Q 1741 26 1488 48 
Q 1235 70 1120 102 
Q 1037 128 883 221 
Q 730 314 554 448 
Q 378 582 218 723 
L 314 998 
Q 922 851 1357 787 
Q 1421 870 1485 950 
Q 1549 1030 1613 1114 
Q 1549 1395 1494 1664 
Q 1440 1933 1389 2189 
Q 1312 2566 1245 2915 
Q 1178 3264 1114 3578 
Q 1107 3616 1104 3654 
Q 1101 3693 1101 3725 
Q 1101 3987 1289 4169 
Q 1478 4352 1754 4352 
Q 1811 4134 1875 3939 
Q 1939 3744 2010 3565 
L 1805 3411 
Q 1830 3123 1852 2835 
Q 1875 2547 1894 2253 
Q 1907 2074 1923 1891 
Q 1939 1709 1946 1523 
Q 2867 2560 3450 2560 
Q 3610 2560 3798 2470 
Q 3987 2381 4176 2233 
Q 4365 2086 4518 1901 
Q 4742 1632 4742 1446 
Q 4742 1210 4678 1037 
Q 5018 813 5434 813 
Q 5491 813 5491 762 
L 5491 109 
Q 5491 58 5434 58 
Q 5139 58 4848 189 
Q 4557 320 4333 557 
Q 4134 384 3846 259 
Q 3558 134 3228 67 
Q 2899 0 2573 0 
z
M 2637 704 
Q 3091 704 3494 809 
Q 3898 915 4378 1146 
Q 3802 1805 3290 1805 
Q 2733 1805 1811 736 
Q 2022 723 2230 713 
Q 2438 704 2637 704 
z
" transform="scale(0.015625)"/>
     </defs>
     <use xlink:href="#NotoNaskhArabic-Bold-4ce"/>
     <use xlink:href="#NotoNaskhArabic-Bold-514" transform="translate(57.203125 0)"/>
     <use xlink:href="#NotoNaskhArabic-Bold-554" transform="translate(81.703125 0)"/>
     <use xlink:href="#NotoNaskhArabic-Bold-218" transform="translate(103.796875 0)"/>
     <use xlink:href="#NotoNaskhArabic-Bold-112" transform="translate(153.5 0)"/>
     <use xlink:href="#NotoNaskhArabic-Bold-1bf" transform="translate(233 0)"/>
     <use xlink:href="#NotoNaskhArabic-Bold-1ff" transform="translate(257.5 0)"/>
     <use xlink:href="#NotoNaskhArabic-Bold-1e4" transform="translate(297.203125 0)"/>
     <use xlink:href="#NotoNaskhArabic-Bold-4" transform="translate(338.5 0)"/>
     <use xlink:href="#NotoNaskhArabic-Bold-554" transform="translate(367.296875 0)"/>
     <use xlink:href="#NotoNaskhArabic-Bold-26" transform="translate(389.390625 0)"/>
     <use xlink:href="#NotoNaskhArabic-Bold-a3" transform="translate(416.890625 0)"/>
     <use xlink:href="#NotoNaskhArabic-Bold-124" transform="translate(482.59375 0)"/>
    </g>
   </g>
   <g id="patch_32">
    <path d="M 302.408415 276.289949 
L 307.118035 276.289949 
L 307.118035 269.019817 
L 302.408415 269.019817 
z
" clip-path="url(#pa7d269d7d9)" style="fill: #1f8a56; stroke: #1f8a56; stroke-linejoin: miter"/>
   </g>
   <g id="patch_33">
    <path d="M 311.827655 269.759652 
L 316.537276 269.759652 
L 316.537276 237.377376 
L 311.827655 237.377376 
z
" clip-path="url(#pa7d269d7d9)" style="fill: #1f8a56; stroke: #1f8a56; stroke-linejoin: miter"/>
   </g>
   <g id="patch_34">
    <path d="M 321.246896 237.653048 
L 325.956516 237.653048 
L 325.956516 220.850545 
L 321.246896 220.850545 
z
" clip-path="url(#pa7d269d7d9)" style="fill: #1f8a56; stroke: #1f8a56; stroke-linejoin: miter"/>
   </g>
   <g id="patch_35">
    <path d="M 330.666137 220.530583 
L 335.375757 220.530583 
L 335.375757 204.477561 
L 330.666137 204.477561 
z
" clip-path="url(#pa7d269d7d9)" style="fill: #1f8a56; stroke: #1f8a56; stroke-linejoin: miter"/>
   </g>
   <g id="patch_36">
    <path d="M 340.085377 204.614226 
L 344.794998 204.614226 
L 344.794998 192.593173 
L 340.085377 192.593173 
z
" clip-path="url(#pa7d269d7d9)" style="fill: #1f8a56; stroke: #1f8a56; stroke-linejoin: miter"/>
   </g>
   <g id="patch_37">
    <path d="M 349.504618 196.252919 
L 354.214238 196.252919 
L 354.214238 181.220713 
L 349.504618 181.220713 
z
" clip-path="url(#pa7d269d7d9)" style="fill: #1f8a56; stroke: #1f8a56; stroke-linejoin: miter"/>
   </g>
   <g id="patch_38">
    <path d="M 358.923859 184.56647 
L 363.633479 184.56647 
L 363.633479 170.608004 
L 358.923859 170.608004 
z
" clip-path="url(#pa7d269d7d9)" style="fill: #1f8a56; stroke: #1f8a56; stroke-linejoin: miter"/>
   </g>
   <g id="patch_39">
    <path d="M 368.343099 169.822341 
L 373.05272 169.822341 
L 373.05272 158.706217 
L 368.343099 158.706217 
z
" clip-path="url(#pa7d269d7d9)" style="fill: #1f8a56; stroke: #1f8a56; stroke-linejoin: miter"/>
   </g>
   <g id="patch_40">
    <path d="M 377.76234 157.293931 
L 382.47196 157.293931 
L 382.47196 150.023799 
L 377.76234 150.023799 
z
" clip-path="url(#pa7d269d7d9)" style="fill: #b91c1c; stroke: #b91c1c; stroke-linejoin: miter"/>
   </g>
   <g id="patch_41">
    <path d="M 387.18158 161.294218 
L 391.891201 161.294218 
L 391.891201 145.150617 
L 387.18158 145.150617 
z
" clip-path="url(#pa7d269d7d9)" style="fill: #1f8a56; stroke: #1f8a56; stroke-linejoin: miter"/>
   </g>
   <g id="patch_42">
    <path d="M 396.600821 141.489915 
L 401.310441 141.489915 
L 401.310441 134.219783 
L 396.600821 134.219783 
z
" clip-path="url(#pa7d269d7d9)" style="fill: #1f8a56; stroke: #1f8a56; stroke-linejoin: miter"/>
   </g>
   <g id="patch_43">
    <path d="M 406.020062 135.002237 
L 410.729682 135.002237 
L 410.729682 127.732105 
L 406.020062 127.732105 
z
" clip-path="url(#pa7d269d7d9)" style="fill: #b91c1c; stroke: #b91c1c; stroke-linejoin: miter"/>
   </g>
   <g id="patch_44">
    <path d="M 415.439302 136.197621 
L 420.148923 136.197621 
L 420.148923 128.927488 
L 415.439302 128.927488 
z
" clip-path="url(#pa7d269d7d9)" style="fill: #b91c1c; stroke: #b91c1c; stroke-linejoin: miter"/>
   </g>
   <g id="patch_45">
    <path d="M 424.858543 133.671034 
L 429.568163 133.671034 
L 429.568163 106.664905 
L 424.858543 106.664905 
z
" clip-path="url(#pa7d269d7d9)" style="fill: #1f8a56; stroke: #1f8a56; stroke-linejoin: miter"/>
   </g>
   <g id="patch_46">
    <path d="M 434.277784 106.648431 
L 438.987404 106.648431 
L 438.987404 99.378299 
L 434.277784 99.378299 
z
" clip-path="url(#pa7d269d7d9)" style="fill: #1f8a56; stroke: #1f8a56; stroke-linejoin: miter"/>
   </g>
   <g id="patch_47">
    <path d="M 443.697024 99.482715 
L 448.406645 99.482715 
L 448.406645 89.782953 
L 443.697024 89.782953 
z
" clip-path="url(#pa7d269d7d9)" style="fill: #1f8a56; stroke: #1f8a56; stroke-linejoin: miter"/>
   </g>
   <g id="patch_48">
    <path d="M 453.116265 90.642487 
L 457.825885 90.642487 
L 457.825885 77.124252 
L 453.116265 77.124252 
z
" clip-path="url(#pa7d269d7d9)" style="fill: #1f8a56; stroke: #1f8a56; stroke-linejoin: miter"/>
   </g>
   <g id="patch_49">
    <path d="M 462.535505 76.006256 
L 467.245126 76.006256 
L 467.245126 65.048614 
L 462.535505 65.048614 
z
" clip-path="url(#pa7d269d7d9)" style="fill: #1f8a56; stroke: #1f8a56; stroke-linejoin: miter"/>
   </g>
   <g id="patch_50">
    <path d="M 471.954746 65.363245 
L 476.664366 65.363245 
L 476.664366 58.093112 
L 471.954746 58.093112 
z
" clip-path="url(#pa7d269d7d9)" style="fill: #b91c1c; stroke: #b91c1c; stroke-linejoin: miter"/>
   </g>
   <g id="patch_51">
    <path d="M 481.373987 68.809422 
L 486.083607 68.809422 
L 486.083607 61.53929 
L 481.373987 61.53929 
z
" clip-path="url(#pa7d269d7d9)" style="fill: #1f8a56; stroke: #1f8a56; stroke-linejoin: miter"/>
   </g>
   <g id="patch_52">
    <path d="M 490.793227 67.301112 
L 495.502848 67.301112 
L 495.502848 58.22967 
L 490.793227 58.22967 
z
" clip-path="url(#pa7d269d7d9)" style="fill: #1f8a56; stroke: #1f8a56; stroke-linejoin: miter"/>
   </g>
   <g id="patch_53">
    <path d="M 500.212468 60.656701 
L 504.922088 60.656701 
L 504.922088 43.948267 
L 500.212468 43.948267 
z
" clip-path="url(#pa7d269d7d9)" style="fill: #1f8a56; stroke: #1f8a56; stroke-linejoin: miter"/>
   </g>
   <g id="patch_54">
    <path d="M 509.631709 45.470702 
L 514.341329 45.470702 
L 514.341329 38.200569 
L 509.631709 38.200569 
z
" clip-path="url(#pa7d269d7d9)" style="fill: #b91c1c; stroke: #b91c1c; stroke-linejoin: miter"/>
   </g>
   <g id="patch_55">
    <path d="M 519.050949 45.836528 
L 523.76057 45.836528 
L 523.76057 38.566396 
L 519.050949 38.566396 
z
" clip-path="url(#pa7d269d7d9)" style="fill: #1f8a56; stroke: #1f8a56; stroke-linejoin: miter"/>
   </g>
   <g id="line2d_65">
    <path d="M 323.601706 245.955658 
" clip-path="url(#pa7d269d7d9)" style="fill: none; stroke: #b7791f; stroke-width: 1.5; stroke-linecap: square"/>
    <g clip-path="url(#pa7d269d7d9)">
     <use xlink:href="#m9b6bee8448" x="323.601706" y="245.955658" style="fill: #b7791f; stroke: #b7791f; stroke-linejoin: miter"/>
    </g>
   </g>
   <g id="line2d_66">
    <path d="M 389.536391 169.141839 
" clip-path="url(#pa7d269d7d9)" style="fill: none; stroke: #b7791f; stroke-width: 1.5; stroke-linecap: square"/>
    <g clip-path="url(#pa7d269d7d9)">
     <use xlink:href="#m9b6bee8448" x="389.536391" y="169.141839" style="fill: #b7791f; stroke: #b7791f; stroke-linejoin: miter"/>
    </g>
   </g>
   <g id="line2d_67">
    <path d="M 455.471075 97.520786 
" clip-path="url(#pa7d269d7d9)" style="fill: none; stroke: #b7791f; stroke-width: 1.5; stroke-linecap: square"/>
    <g clip-path="url(#pa7d269d7d9)">
     <use xlink:href="#m9b6bee8448" x="455.471075" y="97.520786" style="fill: #b7791f; stroke: #b7791f; stroke-linejoin: miter"/>
    </g>
   </g>
  </g>
  <g id="axes_3">
   <g id="patch_56">
    <path d="M 558.468984 289.95 
L 793.95 289.95 
L 793.95 23.3785 
L 558.468984 23.3785 
z
" style="fill: #ffffff"/>
   </g>
   <g id="matplotlib.axis_5"/>
   <g id="matplotlib.axis_6">
    <g id="ytick_13">
     <g id="line2d_68">
      <g>
       <use xlink:href="#m782e25c2ab" x="558.468984" y="262.629728" style="fill: #555555; stroke: #555555; stroke-width: 0.8"/>
      </g>
     </g>
     <g id="text_15">
      <!-- 100 -->
      <g style="fill: #555555" transform="translate(533.45 268.241978) scale(0.105 -0.105)">
       <use xlink:href="#NotoNaskhArabic-Regular-4cd"/>
       <use xlink:href="#NotoNaskhArabic-Regular-4cc" transform="translate(57.203125 0)"/>
       <use xlink:href="#NotoNaskhArabic-Regular-4cc" transform="translate(114.40625 0)"/>
      </g>
     </g>
    </g>
    <g id="ytick_14">
     <g id="line2d_69">
      <g>
       <use xlink:href="#m782e25c2ab" x="558.468984" y="222.990505" style="fill: #555555; stroke: #555555; stroke-width: 0.8"/>
      </g>
     </g>
     <g id="text_16">
      <!-- 102 -->
      <g style="fill: #555555" transform="translate(533.45 228.602755) scale(0.105 -0.105)">
       <use xlink:href="#NotoNaskhArabic-Regular-4cd"/>
       <use xlink:href="#NotoNaskhArabic-Regular-4cc" transform="translate(57.203125 0)"/>
       <use xlink:href="#NotoNaskhArabic-Regular-4ce" transform="translate(114.40625 0)"/>
      </g>
     </g>
    </g>
    <g id="ytick_15">
     <g id="line2d_70">
      <g>
       <use xlink:href="#m782e25c2ab" x="558.468984" y="183.351281" style="fill: #555555; stroke: #555555; stroke-width: 0.8"/>
      </g>
     </g>
     <g id="text_17">
      <!-- 104 -->
      <g style="fill: #555555" transform="translate(533.45 188.963531) scale(0.105 -0.105)">
       <use xlink:href="#NotoNaskhArabic-Regular-4cd"/>
       <use xlink:href="#NotoNaskhArabic-Regular-4cc" transform="translate(57.203125 0)"/>
       <use xlink:href="#NotoNaskhArabic-Regular-4d0" transform="translate(114.40625 0)"/>
      </g>
     </g>
    </g>
    <g id="ytick_16">
     <g id="line2d_71">
      <g>
       <use xlink:href="#m782e25c2ab" x="558.468984" y="143.712057" style="fill: #555555; stroke: #555555; stroke-width: 0.8"/>
      </g>
     </g>
     <g id="text_18">
      <!-- 106 -->
      <g style="fill: #555555" transform="translate(533.45 149.324307) scale(0.105 -0.105)">
       <use xlink:href="#NotoNaskhArabic-Regular-4cd"/>
       <use xlink:href="#NotoNaskhArabic-Regular-4cc" transform="translate(57.203125 0)"/>
       <use xlink:href="#NotoNaskhArabic-Regular-4d2" transform="translate(114.40625 0)"/>
      </g>
     </g>
    </g>
    <g id="ytick_17">
     <g id="line2d_72">
      <g>
       <use xlink:href="#m782e25c2ab" x="558.468984" y="104.072833" style="fill: #555555; stroke: #555555; stroke-width: 0.8"/>
      </g>
     </g>
     <g id="text_19">
      <!-- 108 -->
      <g style="fill: #555555" transform="translate(533.45 109.685083) scale(0.105 -0.105)">
       <use xlink:href="#NotoNaskhArabic-Regular-4cd"/>
       <use xlink:href="#NotoNaskhArabic-Regular-4cc" transform="translate(57.203125 0)"/>
       <use xlink:href="#NotoNaskhArabic-Regular-4d4" transform="translate(114.40625 0)"/>
      </g>
     </g>
    </g>
    <g id="ytick_18">
     <g id="line2d_73">
      <g>
       <use xlink:href="#m782e25c2ab" x="558.468984" y="64.433609" style="fill: #555555; stroke: #555555; stroke-width: 0.8"/>
      </g>
     </g>
     <g id="text_20">
      <!-- 110 -->
      <g style="fill: #555555" transform="translate(533.45 70.045859) scale(0.105 -0.105)">
       <use xlink:href="#NotoNaskhArabic-Regular-4cd"/>
       <use xlink:href="#NotoNaskhArabic-Regular-4cd" transform="translate(57.203125 0)"/>
       <use xlink:href="#NotoNaskhArabic-Regular-4cc" transform="translate(114.40625 0)"/>
      </g>
     </g>
    </g>
    <g id="ytick_19">
     <g id="line2d_74">
      <g>
       <use xlink:href="#m782e25c2ab" x="558.468984" y="24.794385" style="fill: #555555; stroke: #555555; stroke-width: 0.8"/>
      </g>
     </g>
     <g id="text_21">
      <!-- 112 -->
      <g style="fill: #555555" transform="translate(533.45 30.406635) scale(0.105 -0.105)">
       <use xlink:href="#NotoNaskhArabic-Regular-4cd"/>
       <use xlink:href="#NotoNaskhArabic-Regular-4cd" transform="translate(57.203125 0)"/>
       <use xlink:href="#NotoNaskhArabic-Regular-4ce" transform="translate(114.40625 0)"/>
      </g>
     </g>
    </g>
   </g>
   <g id="line2d_75">
    <path d="M 586.726706 248.383806 
L 652.661391 177.421 
" clip-path="url(#pdef92bc103)" style="fill: none; stroke: #1f2937; stroke-width: 2; stroke-linecap: square"/>
   </g>
   <g id="line2d_76">
    <path d="M 652.661391 177.421 
L 784.530759 35.495386 
" clip-path="url(#pdef92bc103)" style="fill: none; stroke-dasharray: 7.4,3.2; stroke-dashoffset: 0; stroke: #1f2937; stroke-width: 2"/>
   </g>
   <g id="patch_57">
    <path d="M 558.468984 289.95 
L 558.468984 23.3785 
" style="fill: none; stroke: #1f2937; stroke-width: 0.8; stroke-linejoin: miter; stroke-linecap: square"/>
   </g>
   <g id="patch_58">
    <path d="M 558.468984 289.95 
L 793.95 289.95 
" style="fill: none; stroke: #1f2937; stroke-width: 0.8; stroke-linejoin: miter; stroke-linecap: square"/>
   </g>
   <g id="line2d_77">
    <path d="M 567.888225 277.833114 
L 567.888225 269.538016 
" clip-path="url(#pdef92bc103)" style="fill: none; stroke: #1f8a56; stroke-width: 1.1; stroke-linecap: round"/>
   </g>
   <g id="line2d_78">
    <path d="M 577.307466 271.269577 
L 577.307466 235.365812 
" clip-path="url(#pdef92bc103)" style="fill: none; stroke: #1f8a56; stroke-width: 1.1; stroke-linecap: round"/>
   </g>
   <g id="line2d_79">
    <path d="M 586.726706 242.437923 
L 586.726706 224.666593 
" clip-path="url(#pdef92bc103)" style="fill: none; stroke: #1f8a56; stroke-width: 1.1; stroke-linecap: round"/>
   </g>
   <g id="line2d_80">
    <path d="M 596.145947 226.017648 
L 596.145947 205.252548 
" clip-path="url(#pdef92bc103)" style="fill: none; stroke: #1f8a56; stroke-width: 1.1; stroke-linecap: round"/>
   </g>
   <g id="line2d_81">
    <path d="M 605.565188 212.224365 
L 605.565188 198.219561 
" clip-path="url(#pdef92bc103)" style="fill: none; stroke: #1f8a56; stroke-width: 1.1; stroke-linecap: round"/>
   </g>
   <g id="line2d_82">
    <path d="M 614.984428 204.490999 
L 614.984428 188.300886 
" clip-path="url(#pdef92bc103)" style="fill: none; stroke: #1f8a56; stroke-width: 1.1; stroke-linecap: round"/>
   </g>
   <g id="line2d_83">
    <path d="M 624.403669 195.773285 
L 624.403669 176.573287 
" clip-path="url(#pdef92bc103)" style="fill: none; stroke: #1f8a56; stroke-width: 1.1; stroke-linecap: round"/>
   </g>
   <g id="line2d_84">
    <path d="M 633.822909 179.481655 
L 633.822909 166.865409 
" clip-path="url(#pdef92bc103)" style="fill: none; stroke: #1f8a56; stroke-width: 1.1; stroke-linecap: round"/>
   </g>
   <g id="line2d_85">
    <path d="M 643.24215 169.114284 
L 643.24215 164.733291 
" clip-path="url(#pdef92bc103)" style="fill: none; stroke: #b91c1c; stroke-width: 1.1; stroke-linecap: round"/>
   </g>
   <g id="line2d_86">
    <path d="M 652.661391 171.475116 
L 652.661391 151.938817 
" clip-path="url(#pdef92bc103)" style="fill: none; stroke: #1f8a56; stroke-width: 1.1; stroke-linecap: round"/>
   </g>
   <g id="line2d_87">
    <path d="M 662.080631 153.642867 
L 662.080631 144.384229 
" clip-path="url(#pdef92bc103)" style="fill: none; stroke: #1f8a56; stroke-width: 1.1; stroke-linecap: round"/>
   </g>
   <g id="line2d_88">
    <path d="M 671.499872 147.94251 
L 671.499872 144.172995 
" clip-path="url(#pdef92bc103)" style="fill: none; stroke: #b91c1c; stroke-width: 1.1; stroke-linecap: round"/>
   </g>
   <g id="line2d_89">
    <path d="M 680.919113 148.859245 
L 680.919113 140.279131 
" clip-path="url(#pdef92bc103)" style="fill: none; stroke: #b91c1c; stroke-width: 1.1; stroke-linecap: round"/>
   </g>
   <g id="line2d_90">
    <path d="M 690.338353 144.653497 
L 690.338353 115.99956 
" clip-path="url(#pdef92bc103)" style="fill: none; stroke: #1f8a56; stroke-width: 1.1; stroke-linecap: round"/>
   </g>
   <g id="line2d_91">
    <path d="M 699.757594 120.183748 
L 699.757594 109.014138 
" clip-path="url(#pdef92bc103)" style="fill: none; stroke: #1f8a56; stroke-width: 1.1; stroke-linecap: round"/>
   </g>
   <g id="line2d_92">
    <path d="M 709.176834 119.915175 
L 709.176834 103.069341 
" clip-path="url(#pdef92bc103)" style="fill: none; stroke: #1f8a56; stroke-width: 1.1; stroke-linecap: round"/>
   </g>
   <g id="line2d_93">
    <path d="M 718.596075 105.309535 
L 718.596075 88.45886 
" clip-path="url(#pdef92bc103)" style="fill: none; stroke: #1f8a56; stroke-width: 1.1; stroke-linecap: round"/>
   </g>
   <g id="line2d_94">
    <path d="M 728.015316 95.077112 
L 728.015316 79.637927 
" clip-path="url(#pdef92bc103)" style="fill: none; stroke: #1f8a56; stroke-width: 1.1; stroke-linecap: round"/>
   </g>
   <g id="line2d_95">
    <path d="M 737.434556 82.240252 
L 737.434556 77.80576 
" clip-path="url(#pdef92bc103)" style="fill: none; stroke: #b91c1c; stroke-width: 1.1; stroke-linecap: round"/>
   </g>
   <g id="line2d_96">
    <path d="M 746.853797 86.658677 
L 746.853797 79.918899 
" clip-path="url(#pdef92bc103)" style="fill: none; stroke: #1f8a56; stroke-width: 1.1; stroke-linecap: round"/>
   </g>
   <g id="line2d_97">
    <path d="M 756.273038 87.808616 
L 756.273038 74.820594 
" clip-path="url(#pdef92bc103)" style="fill: none; stroke: #1f8a56; stroke-width: 1.1; stroke-linecap: round"/>
   </g>
   <g id="line2d_98">
    <path d="M 765.692278 79.151145 
L 765.692278 59.174536 
" clip-path="url(#pdef92bc103)" style="fill: none; stroke: #1f8a56; stroke-width: 1.1; stroke-linecap: round"/>
   </g>
   <g id="line2d_99">
    <path d="M 775.111519 65.256516 
L 775.111519 53.954577 
" clip-path="url(#pdef92bc103)" style="fill: none; stroke: #b91c1c; stroke-width: 1.1; stroke-linecap: round"/>
   </g>
   <g id="line2d_100">
    <path d="M 784.530759 66.595614 
L 784.530759 57.653768 
" clip-path="url(#pdef92bc103)" style="fill: none; stroke: #1f8a56; stroke-width: 1.1; stroke-linecap: round"/>
   </g>
   <g id="text_22">
    <!-- ﻡﺎﻣﻸﻟ ﻩﺪﻳﺪﻤﺗ .3 -->
    <g style="fill: #1f2937" transform="translate(648.679531 17.3555) scale(0.095 -0.095)">
     <defs>
      <path id="NotoNaskhArabic-Bold-4cf" d="M 1562 -64 
Q 819 -64 243 186 
L 243 1005 
Q 506 870 826 787 
Q 1146 704 1459 704 
Q 1939 704 2166 867 
Q 2394 1030 2394 1389 
Q 2394 1709 2131 1843 
Q 1869 1978 1293 1978 
L 947 1978 
L 947 2720 
L 1299 2720 
Q 1830 2720 2076 2861 
Q 2323 3002 2323 3334 
Q 2323 3853 1670 3853 
Q 1446 3853 1212 3779 
Q 979 3706 698 3520 
L 250 4186 
Q 870 4634 1741 4634 
Q 2451 4634 2860 4346 
Q 3270 4058 3270 3546 
Q 3270 3117 3014 2816 
Q 2758 2515 2285 2406 
L 2285 2387 
Q 3405 2253 3405 1331 
Q 3405 672 2928 304 
Q 2451 -64 1562 -64 
z
" transform="scale(0.015625)"/>
      <path id="NotoNaskhArabic-Bold-1fd" d="M 1274 0 
Q 909 0 672 246 
Q 435 493 435 864 
Q 435 1126 572 1401 
Q 710 1677 1018 1984 
Q 915 2048 880 2141 
Q 845 2234 845 2330 
Q 845 2464 899 2585 
Q 954 2707 1043 2752 
Q 1408 2637 1721 2381 
Q 2035 2125 2214 1798 
Q 2394 1466 2394 1184 
Q 2394 1094 2349 944 
Q 2304 794 2233 634 
Q 2163 474 2086 349 
Q 2010 224 1939 179 
Q 1818 96 1642 48 
Q 1466 0 1274 0 
z
M 1344 672 
Q 1690 672 1978 851 
Q 1882 1133 1715 1360 
Q 1549 1587 1286 1786 
Q 915 1421 915 1075 
Q 915 896 1040 784 
Q 1165 672 1344 672 
z
" transform="scale(0.015625)"/>
      <path id="NotoNaskhArabic-Bold-1c1" d="M 0 58 
Q -51 58 -51 109 
L -51 762 
Q -51 813 0 813 
Q 282 813 672 960 
Q 646 1146 624 1334 
Q 602 1523 570 1709 
Q 544 1894 441 2448 
Q 339 3002 173 3930 
Q 339 4045 534 4147 
Q 730 4250 934 4352 
Q 947 3827 960 3356 
Q 973 2886 986 2477 
Q 998 2067 1004 1718 
Q 1011 1370 1011 1069 
Q 1011 634 762 256 
Q 698 166 490 112 
Q 282 58 0 58 
z
" transform="scale(0.015625)"/>
      <path id="NotoNaskhArabic-Bold-2e9" d="M 410 19 
L 378 307 
Q 704 397 937 470 
Q 1171 544 1344 621 
Q 1510 691 1635 768 
Q 1760 845 1875 947 
Q 1658 1402 1379 1776 
Q 1101 2150 742 2490 
L 506 2490 
Q 339 2662 278 2793 
Q 218 2925 218 3072 
Q 218 3264 314 3376 
Q 410 3488 634 3558 
Q 1274 3149 1901 1786 
Q 1933 1715 1987 1574 
Q 2042 1434 2118 1222 
Q 2304 1498 2416 1821 
Q 2528 2144 2592 2573 
Q 2637 2854 2656 3190 
Q 2675 3526 2675 3923 
Q 2733 3955 2816 4009 
Q 2899 4064 3008 4134 
Q 3194 4256 3354 4352 
Q 3347 3501 3360 2665 
Q 3373 1830 3386 992 
Q 3546 896 3699 854 
Q 3853 813 4090 813 
Q 4147 813 4147 762 
L 4147 109 
Q 4147 58 4090 58 
Q 3219 58 3117 634 
Q 3059 992 3021 1651 
Q 3002 1901 2986 2109 
Q 2970 2317 2957 2477 
L 2938 2310 
Q 2906 1920 2864 1645 
Q 2822 1370 2784 1222 
Q 2624 678 2413 419 
Q 2202 160 1875 122 
Q 1498 77 1133 54 
Q 768 32 410 19 
z
M 121 3616 
L 102 3885 
L 332 4019 
Q 128 4096 128 4269 
Q 128 4384 198 4499 
Q 268 4614 374 4694 
Q 480 4774 576 4774 
Q 812 4774 812 4486 
Q 812 4390 787 4339 
L 659 4358 
L 659 4378 
Q 659 4435 582 4435 
Q 441 4435 358 4275 
Q 473 4160 678 4160 
Q 729 4160 793 4166 
Q 857 4173 928 4186 
L 902 3904 
Q 672 3853 515 3798 
Q 358 3744 121 3616 
z
" transform="scale(0.015625)"/>
      <path id="NotoNaskhArabic-Bold-1e5" d="M 2349 0 
Q 1920 0 1488 99 
Q 1056 198 755 358 
Q 602 198 429 128 
Q 256 58 0 58 
Q -51 58 -51 109 
L -51 762 
Q -51 813 0 813 
Q 525 813 774 1286 
Q 890 1517 982 1680 
Q 1075 1843 1146 1939 
Q 1306 2157 1446 2249 
Q 1587 2342 1773 2342 
Q 2003 2342 2224 2102 
Q 2445 1862 2586 1466 
Q 2726 1082 2726 723 
Q 2726 557 2611 339 
Q 2496 122 2349 0 
z
M 2138 704 
Q 2112 941 2035 1142 
Q 1958 1344 1862 1466 
Q 1760 1587 1677 1587 
Q 1536 1587 1427 1472 
Q 1325 1363 1120 960 
Q 1325 870 1577 803 
Q 1830 736 2138 704 
z
" transform="scale(0.015625)"/>
      <path id="NotoNaskhArabic-Bold-1e2" d="M 474 -2099 
Q 474 -1523 397 -883 
Q 365 -557 345 -336 
Q 326 -115 326 0 
Q 326 179 595 755 
Q 614 787 748 825 
Q 883 864 1081 899 
Q 1280 934 1497 960 
Q 1715 986 1904 1002 
Q 2093 1018 2195 1018 
L 2074 1152 
Q 1894 1350 1763 1526 
Q 1632 1702 1478 1702 
Q 1331 1702 1190 1593 
Q 1050 1485 896 1267 
L 634 1402 
Q 819 1875 1078 2163 
Q 1338 2451 1600 2451 
Q 1754 2451 1894 2336 
Q 2035 2221 2227 1946 
Q 2432 1645 2614 1437 
Q 2797 1229 2995 1088 
L 2701 326 
Q 2438 326 2140 307 
Q 1843 288 1564 253 
Q 1286 218 1068 176 
Q 851 134 736 96 
Q 774 -83 812 -262 
Q 851 -442 890 -621 
Q 947 -896 1004 -1177 
Q 1062 -1459 1120 -1741 
Q 954 -1862 794 -1952 
Q 634 -2042 474 -2099 
z
" transform="scale(0.015625)"/>
     </defs>
     <use xlink:href="#NotoNaskhArabic-Bold-4cf"/>
     <use xlink:href="#NotoNaskhArabic-Bold-514" transform="translate(57.203125 0)"/>
     <use xlink:href="#NotoNaskhArabic-Bold-554" transform="translate(81.703125 0)"/>
     <use xlink:href="#NotoNaskhArabic-Bold-38" transform="translate(103.796875 0)"/>
     <use xlink:href="#NotoNaskhArabic-Bold-1e4" transform="translate(131.296875 0)"/>
     <use xlink:href="#NotoNaskhArabic-Bold-b6" transform="translate(172.59375 0)"/>
     <use xlink:href="#NotoNaskhArabic-Bold-241" transform="translate(221.09375 0)"/>
     <use xlink:href="#NotoNaskhArabic-Bold-b6" transform="translate(255.390625 0)"/>
     <use xlink:href="#NotoNaskhArabic-Bold-1fd" transform="translate(303.890625 0)"/>
     <use xlink:href="#NotoNaskhArabic-Bold-554" transform="translate(346.390625 0)"/>
     <use xlink:href="#NotoNaskhArabic-Bold-1c1" transform="translate(368.484375 0)"/>
     <use xlink:href="#NotoNaskhArabic-Bold-2e9" transform="translate(390.1875 0)"/>
     <use xlink:href="#NotoNaskhArabic-Bold-1e5" transform="translate(453.28125 0)"/>
     <use xlink:href="#NotoNaskhArabic-Bold-4" transform="translate(500.578125 0)"/>
     <use xlink:href="#NotoNaskhArabic-Bold-1e2" transform="translate(529.375 0)"/>
    </g>
   </g>
   <g id="patch_59">
    <path d="M 565.533415 276.407494 
L 570.243035 276.407494 
L 570.243035 269.691137 
L 565.533415 269.691137 
z
" clip-path="url(#pdef92bc103)" style="fill: #1f8a56; stroke: #1f8a56; stroke-linejoin: miter"/>
   </g>
   <g id="patch_60">
    <path d="M 574.952655 270.374619 
L 579.662276 270.374619 
L 579.662276 240.458944 
L 574.952655 240.458944 
z
" clip-path="url(#pdef92bc103)" style="fill: #1f8a56; stroke: #1f8a56; stroke-linejoin: miter"/>
   </g>
   <g id="patch_61">
    <path d="M 584.371896 240.713618 
L 589.081516 240.713618 
L 589.081516 225.190984 
L 584.371896 225.190984 
z
" clip-path="url(#pdef92bc103)" style="fill: #1f8a56; stroke: #1f8a56; stroke-linejoin: miter"/>
   </g>
   <g id="patch_62">
    <path d="M 593.791137 224.895394 
L 598.500757 224.895394 
L 598.500757 210.065153 
L 593.791137 210.065153 
z
" clip-path="url(#pdef92bc103)" style="fill: #1f8a56; stroke: #1f8a56; stroke-linejoin: miter"/>
   </g>
   <g id="patch_63">
    <path d="M 603.210377 210.191407 
L 607.919998 210.191407 
L 607.919998 199.086014 
L 603.210377 199.086014 
z
" clip-path="url(#pdef92bc103)" style="fill: #1f8a56; stroke: #1f8a56; stroke-linejoin: miter"/>
   </g>
   <g id="patch_64">
    <path d="M 612.629618 202.466992 
L 617.339238 202.466992 
L 617.339238 188.57981 
L 612.629618 188.57981 
z
" clip-path="url(#pdef92bc103)" style="fill: #1f8a56; stroke: #1f8a56; stroke-linejoin: miter"/>
   </g>
   <g id="patch_65">
    <path d="M 622.048859 191.670716 
L 626.758479 191.670716 
L 626.758479 178.775485 
L 622.048859 178.775485 
z
" clip-path="url(#pdef92bc103)" style="fill: #1f8a56; stroke: #1f8a56; stroke-linejoin: miter"/>
   </g>
   <g id="patch_66">
    <path d="M 631.468099 178.049667 
L 636.17772 178.049667 
L 636.17772 167.780273 
L 631.468099 167.780273 
z
" clip-path="url(#pdef92bc103)" style="fill: #1f8a56; stroke: #1f8a56; stroke-linejoin: miter"/>
   </g>
   <g id="patch_67">
    <path d="M 640.88734 166.475563 
L 645.59696 166.475563 
L 645.59696 159.759206 
L 640.88734 159.759206 
z
" clip-path="url(#pdef92bc103)" style="fill: #b91c1c; stroke: #b91c1c; stroke-linejoin: miter"/>
   </g>
   <g id="patch_68">
    <path d="M 650.30658 170.171142 
L 655.016201 170.171142 
L 655.016201 155.257221 
L 650.30658 155.257221 
z
" clip-path="url(#pdef92bc103)" style="fill: #1f8a56; stroke: #1f8a56; stroke-linejoin: miter"/>
   </g>
   <g id="patch_69">
    <path d="M 659.725821 151.87536 
L 664.435441 151.87536 
L 664.435441 145.159004 
L 659.725821 145.159004 
z
" clip-path="url(#pdef92bc103)" style="fill: #1f8a56; stroke: #1f8a56; stroke-linejoin: miter"/>
   </g>
   <g id="patch_70">
    <path d="M 669.145062 145.881857 
L 673.854682 145.881857 
L 673.854682 139.1655 
L 669.145062 139.1655 
z
" clip-path="url(#pdef92bc103)" style="fill: #b91c1c; stroke: #b91c1c; stroke-linejoin: miter"/>
   </g>
   <g id="patch_71">
    <path d="M 678.564302 146.986187 
L 683.273923 146.986187 
L 683.273923 140.26983 
L 678.564302 140.26983 
z
" clip-path="url(#pdef92bc103)" style="fill: #b91c1c; stroke: #b91c1c; stroke-linejoin: miter"/>
   </g>
   <g id="patch_72">
    <path d="M 687.983543 144.652053 
L 692.693163 144.652053 
L 692.693163 119.703018 
L 687.983543 119.703018 
z
" clip-path="url(#pdef92bc103)" style="fill: #1f8a56; stroke: #1f8a56; stroke-linejoin: miter"/>
   </g>
   <g id="patch_73">
    <path d="M 697.402784 119.687799 
L 702.112404 119.687799 
L 702.112404 112.971442 
L 697.402784 112.971442 
z
" clip-path="url(#pdef92bc103)" style="fill: #1f8a56; stroke: #1f8a56; stroke-linejoin: miter"/>
   </g>
   <g id="patch_74">
    <path d="M 706.822024 113.067905 
L 711.531645 113.067905 
L 711.531645 104.106987 
L 706.822024 104.106987 
z
" clip-path="url(#pdef92bc103)" style="fill: #1f8a56; stroke: #1f8a56; stroke-linejoin: miter"/>
   </g>
   <g id="patch_75">
    <path d="M 716.241265 104.901049 
L 720.950885 104.901049 
L 720.950885 92.412516 
L 716.241265 92.412516 
z
" clip-path="url(#pdef92bc103)" style="fill: #1f8a56; stroke: #1f8a56; stroke-linejoin: miter"/>
   </g>
   <g id="patch_76">
    <path d="M 725.660505 91.379679 
L 730.370126 91.379679 
L 730.370126 81.256696 
L 725.660505 81.256696 
z
" clip-path="url(#pdef92bc103)" style="fill: #1f8a56; stroke: #1f8a56; stroke-linejoin: miter"/>
   </g>
   <g id="patch_77">
    <path d="M 735.079746 81.547361 
L 739.789366 81.547361 
L 739.789366 74.831004 
L 735.079746 74.831004 
z
" clip-path="url(#pdef92bc103)" style="fill: #b91c1c; stroke: #b91c1c; stroke-linejoin: miter"/>
   </g>
   <g id="patch_78">
    <path d="M 744.498987 84.731038 
L 749.208607 84.731038 
L 749.208607 78.014682 
L 744.498987 78.014682 
z
" clip-path="url(#pdef92bc103)" style="fill: #1f8a56; stroke: #1f8a56; stroke-linejoin: miter"/>
   </g>
   <g id="patch_79">
    <path d="M 753.918227 83.337618 
L 758.627848 83.337618 
L 758.627848 74.95716 
L 753.918227 74.95716 
z
" clip-path="url(#pdef92bc103)" style="fill: #1f8a56; stroke: #1f8a56; stroke-linejoin: miter"/>
   </g>
   <g id="patch_80">
    <path d="M 763.337468 77.19932 
L 768.047088 77.19932 
L 768.047088 61.76359 
L 763.337468 61.76359 
z
" clip-path="url(#pdef92bc103)" style="fill: #1f8a56; stroke: #1f8a56; stroke-linejoin: miter"/>
   </g>
   <g id="patch_81">
    <path d="M 772.756709 63.170059 
L 777.466329 63.170059 
L 777.466329 56.453703 
L 772.756709 56.453703 
z
" clip-path="url(#pdef92bc103)" style="fill: #b91c1c; stroke: #b91c1c; stroke-linejoin: miter"/>
   </g>
   <g id="patch_82">
    <path d="M 782.175949 63.50802 
L 786.88557 63.50802 
L 786.88557 56.791664 
L 782.175949 56.791664 
z
" clip-path="url(#pdef92bc103)" style="fill: #1f8a56; stroke: #1f8a56; stroke-linejoin: miter"/>
   </g>
   <g id="line2d_101">
    <path d="M 586.726706 248.383806 
" clip-path="url(#pdef92bc103)" style="fill: none; stroke: #b7791f; stroke-width: 1.5; stroke-linecap: square"/>
    <g clip-path="url(#pdef92bc103)">
     <use xlink:href="#m9b6bee8448" x="586.726706" y="248.383806" style="fill: #b7791f; stroke: #b7791f; stroke-linejoin: miter"/>
    </g>
   </g>
   <g id="line2d_102">
    <path d="M 652.661391 177.421 
" clip-path="url(#pdef92bc103)" style="fill: none; stroke: #b7791f; stroke-width: 1.5; stroke-linecap: square"/>
    <g clip-path="url(#pdef92bc103)">
     <use xlink:href="#m9b6bee8448" x="652.661391" y="177.421" style="fill: #b7791f; stroke: #b7791f; stroke-linejoin: miter"/>
    </g>
   </g>
   <g id="line2d_103">
    <path d="M 718.596075 111.255419 
" clip-path="url(#pdef92bc103)" style="fill: none; stroke: #b7791f; stroke-width: 1.5; stroke-linecap: square"/>
    <g clip-path="url(#pdef92bc103)">
     <use xlink:href="#m9b6bee8448" x="718.596075" y="111.255419" style="fill: #b7791f; stroke: #b7791f; stroke-linejoin: miter"/>
    </g>
   </g>
  </g>
 </g>
 <defs>
  <clipPath id="pc51b168960">
   <rect x="32.218984" y="23.3785" width="235.481016" height="266.5715"/>
  </clipPath>
  <clipPath id="pa7d269d7d9">
   <rect x="295.343984" y="23.3785" width="235.481016" height="266.5715"/>
  </clipPath>
  <clipPath id="pdef92bc103">
   <rect x="558.468984" y="23.3785" width="235.481016" height="266.5715"/>
  </clipPath>
 </defs>
</svg>
