<?xml version="1.0" encoding="utf-8" standalone="no"?>
<!DOCTYPE svg PUBLIC "-//W3C//DTD SVG 1.1//EN"
  "http://www.w3.org/Graphics/SVG/1.1/DTD/svg11.dtd">
<svg xmlns:xlink="http://www.w3.org/1999/xlink" width="628.35pt" height="412.195964pt" viewBox="0 0 628.35 412.195964" xmlns="http://www.w3.org/2000/svg" version="1.1">
 <metadata>
  <rdf:RDF xmlns:dc="http://purl.org/dc/elements/1.1/" xmlns:cc="http://creativecommons.org/ns#" xmlns:rdf="http://www.w3.org/1999/02/22-rdf-syntax-ns#">
   <cc:Work>
    <dc:type rdf:resource="http://purl.org/dc/dcmitype/StillImage"/>
    <dc:date>2026-07-18T23:02:11.713883</dc:date>
    <dc:format>image/svg+xml</dc:format>
    <dc:creator>
     <cc:Agent>
      <dc:title>Matplotlib v3.11.1, https://matplotlib.org/</dc:title>
     </cc:Agent>
    </dc:creator>
   </cc:Work>
  </rdf:RDF>
 </metadata>
 <defs>
  <style type="text/css">*{stroke-linejoin: round; stroke-linecap: butt}</style>
 </defs>
 <g id="figure_1">
  <g id="patch_1">
   <path d="M 0 412.195964 
L 628.35 412.195964 
L 628.35 0 
L 0 0 
z
" style="fill: #ffffff"/>
  </g>
  <g id="axes_1">
   <g id="patch_2">
    <path d="M 60.106813 220.768783 
L 621.15 220.768783 
L 621.15 8.453124 
L 60.106813 8.453124 
z
" style="fill: #ffffff"/>
   </g>
   <g id="matplotlib.axis_1"/>
   <g id="matplotlib.axis_2">
    <g id="ytick_1">
     <g id="line2d_1">
      <path d="M 60.106813 203.612324 
L 621.15 203.612324 
" clip-path="url(#p501571fb0e)" style="fill: none; stroke: #e6e1d6; stroke-width: 0.8; stroke-linecap: square"/>
     </g>
     <g id="line2d_2">
      <defs>
       <path id="mb1a19b1bf4" d="M 0 0 
L -3.5 0 
" style="stroke: #555555; stroke-width: 0.8"/>
      </defs>
      <g>
       <use xlink:href="#mb1a19b1bf4" x="60.106813" y="203.612324" style="fill: #555555; stroke: #555555; stroke-width: 0.8"/>
      </g>
     </g>
     <g id="text_1">
      <!-- 100 -->
      <g style="fill: #555555" transform="translate(35.087828 209.224574) scale(0.105 -0.105)">
       <defs>
        <path id="NotoNaskhArabic-Regular-4cd" d="M 1722 0 
L 1722 3194 
Q 1722 3405 1728 3603 
Q 1734 3802 1747 3981 
Q 1702 3936 1657 3891 
Q 1613 3846 1562 3808 
Q 1402 3674 1226 3530 
Q 1050 3386 864 3232 
L 570 3610 
L 1805 4570 
L 2272 4570 
L 2272 0 
L 1722 0 
z
" transform="scale(0.015625)"/>
        <path id="NotoNaskhArabic-Regular-4cc" d="M 1824 -64 
Q 1082 -64 698 534 
Q 314 1133 314 2291 
Q 314 3488 682 4064 
Q 1050 4640 1824 4640 
Q 2566 4640 2956 4038 
Q 3347 3437 3347 2291 
Q 3347 1101 2969 518 
Q 2592 -64 1824 -64 
z
M 1824 416 
Q 2208 416 2426 678 
Q 2778 1094 2778 2291 
Q 2778 3571 2368 3962 
Q 2163 4160 1824 4160 
Q 1427 4160 1203 3878 
Q 877 3469 877 2291 
Q 877 1075 1229 666 
Q 1440 416 1824 416 
z
" transform="scale(0.015625)"/>
       </defs>
       <use xlink:href="#NotoNaskhArabic-Regular-4cd"/>
       <use xlink:href="#NotoNaskhArabic-Regular-4cc" transform="translate(57.203125 0)"/>
       <use xlink:href="#NotoNaskhArabic-Regular-4cc" transform="translate(114.40625 0)"/>
      </g>
     </g>
    </g>
    <g id="ytick_2">
     <g id="line2d_3">
      <path d="M 60.106813 176.355171 
L 621.15 176.355171 
" clip-path="url(#p501571fb0e)" style="fill: none; stroke: #e6e1d6; stroke-width: 0.8; stroke-linecap: square"/>
     </g>
     <g id="line2d_4">
      <g>
       <use xlink:href="#mb1a19b1bf4" x="60.106813" y="176.355171" style="fill: #555555; stroke: #555555; stroke-width: 0.8"/>
      </g>
     </g>
     <g id="text_2">
      <!-- 102 -->
      <g style="fill: #555555" transform="translate(35.087828 181.967421) scale(0.105 -0.105)">
       <defs>
        <path id="NotoNaskhArabic-Regular-4ce" d="M 307 0 
L 307 467 
L 1504 1677 
Q 1773 1952 1952 2147 
Q 2131 2342 2221 2458 
Q 2413 2720 2489 2925 
Q 2566 3130 2566 3386 
Q 2566 3744 2352 3949 
Q 2138 4154 1760 4154 
Q 1478 4154 1228 4058 
Q 979 3962 659 3718 
L 358 4096 
Q 1005 4634 1760 4634 
Q 2240 4634 2576 4448 
Q 2912 4262 3053 3923 
Q 3142 3686 3142 3418 
Q 3142 3123 3033 2841 
Q 2925 2560 2707 2272 
Q 2598 2131 2416 1929 
Q 2234 1728 1971 1478 
L 1018 538 
L 1018 512 
L 3328 512 
L 3328 0 
L 307 0 
z
" transform="scale(0.015625)"/>
       </defs>
       <use xlink:href="#NotoNaskhArabic-Regular-4cd"/>
       <use xlink:href="#NotoNaskhArabic-Regular-4cc" transform="translate(57.203125 0)"/>
       <use xlink:href="#NotoNaskhArabic-Regular-4ce" transform="translate(114.40625 0)"/>
      </g>
     </g>
    </g>
    <g id="ytick_3">
     <g id="line2d_5">
      <path d="M 60.106813 149.098017 
L 621.15 149.098017 
" clip-path="url(#p501571fb0e)" style="fill: none; stroke: #e6e1d6; stroke-width: 0.8; stroke-linecap: square"/>
     </g>
     <g id="line2d_6">
      <g>
       <use xlink:href="#mb1a19b1bf4" x="60.106813" y="149.098017" style="fill: #555555; stroke: #555555; stroke-width: 0.8"/>
      </g>
     </g>
     <g id="text_3">
      <!-- 104 -->
      <g style="fill: #555555" transform="translate(35.087828 154.710267) scale(0.105 -0.105)">
       <defs>
        <path id="NotoNaskhArabic-Regular-4d0" d="M 2323 0 
L 2323 1037 
L 134 1037 
L 134 1517 
L 2285 4595 
L 2867 4595 
L 2867 1542 
L 3533 1542 
L 3533 1037 
L 2867 1037 
L 2867 0 
L 2323 0 
z
M 685 1542 
L 2323 1542 
L 2323 2982 
Q 2323 3194 2332 3446 
Q 2342 3699 2355 3994 
L 2330 3994 
Q 2298 3910 2211 3747 
Q 2125 3584 2054 3494 
L 685 1542 
z
" transform="scale(0.015625)"/>
       </defs>
       <use xlink:href="#NotoNaskhArabic-Regular-4cd"/>
       <use xlink:href="#NotoNaskhArabic-Regular-4cc" transform="translate(57.203125 0)"/>
       <use xlink:href="#NotoNaskhArabic-Regular-4d0" transform="translate(114.40625 0)"/>
      </g>
     </g>
    </g>
    <g id="ytick_4">
     <g id="line2d_7">
      <path d="M 60.106813 121.840864 
L 621.15 121.840864 
" clip-path="url(#p501571fb0e)" style="fill: none; stroke: #e6e1d6; stroke-width: 0.8; stroke-linecap: square"/>
     </g>
     <g id="line2d_8">
      <g>
       <use xlink:href="#mb1a19b1bf4" x="60.106813" y="121.840864" style="fill: #555555; stroke: #555555; stroke-width: 0.8"/>
      </g>
     </g>
     <g id="text_4">
      <!-- 106 -->
      <g style="fill: #555555" transform="translate(35.087828 127.453114) scale(0.105 -0.105)">
       <defs>
        <path id="NotoNaskhArabic-Regular-4d2" d="M 1907 -64 
Q 1440 -64 1088 176 
Q 736 416 544 870 
Q 352 1331 352 1952 
Q 352 4634 2445 4634 
Q 2810 4634 3008 4576 
L 3008 4096 
Q 2771 4173 2458 4173 
Q 1984 4173 1654 3987 
Q 1325 3802 1139 3405 
Q 941 2976 915 2323 
L 954 2323 
Q 1299 2861 2035 2861 
Q 2656 2861 3008 2486 
Q 3360 2112 3360 1472 
Q 3360 762 2969 349 
Q 2579 -64 1907 -64 
z
M 1901 410 
Q 2336 410 2569 688 
Q 2803 966 2803 1472 
Q 2803 1926 2576 2172 
Q 2349 2419 1920 2419 
Q 1645 2419 1421 2307 
Q 1197 2195 1056 1997 
Q 922 1798 922 1581 
Q 922 1267 1050 995 
Q 1178 723 1395 563 
Q 1619 410 1901 410 
z
" transform="scale(0.015625)"/>
       </defs>
       <use xlink:href="#NotoNaskhArabic-Regular-4cd"/>
       <use xlink:href="#NotoNaskhArabic-Regular-4cc" transform="translate(57.203125 0)"/>
       <use xlink:href="#NotoNaskhArabic-Regular-4d2" transform="translate(114.40625 0)"/>
      </g>
     </g>
    </g>
    <g id="ytick_5">
     <g id="line2d_9">
      <path d="M 60.106813 94.58371 
L 621.15 94.58371 
" clip-path="url(#p501571fb0e)" style="fill: none; stroke: #e6e1d6; stroke-width: 0.8; stroke-linecap: square"/>
     </g>
     <g id="line2d_10">
      <g>
       <use xlink:href="#mb1a19b1bf4" x="60.106813" y="94.58371" style="fill: #555555; stroke: #555555; stroke-width: 0.8"/>
      </g>
     </g>
     <g id="text_5">
      <!-- 108 -->
      <g style="fill: #555555" transform="translate(35.087828 100.19596) scale(0.105 -0.105)">
       <defs>
        <path id="NotoNaskhArabic-Regular-4d4" d="M 1843 -64 
Q 1114 -64 714 256 
Q 314 576 314 1165 
Q 314 1946 1261 2387 
Q 832 2630 646 2912 
Q 461 3194 461 3546 
Q 461 4045 832 4339 
Q 1203 4634 1824 4634 
Q 2451 4634 2822 4342 
Q 3194 4051 3194 3539 
Q 3194 3200 2986 2928 
Q 2778 2656 2323 2419 
Q 2874 2150 3107 1856 
Q 3341 1562 3341 1184 
Q 3341 621 2937 278 
Q 2534 -64 1843 -64 
z
M 1850 2637 
Q 2278 2816 2457 3030 
Q 2637 3245 2637 3520 
Q 2637 3834 2416 4006 
Q 2195 4179 1818 4179 
Q 1446 4179 1228 4003 
Q 1011 3827 1011 3520 
Q 1011 3322 1094 3171 
Q 1178 3021 1338 2906 
Q 1498 2784 1850 2637 
z
M 1830 384 
Q 2278 384 2534 595 
Q 2790 806 2790 1178 
Q 2790 1478 2547 1712 
Q 2304 1946 1728 2157 
Q 1280 1965 1072 1728 
Q 864 1491 864 1158 
Q 864 800 1123 592 
Q 1382 384 1830 384 
z
" transform="scale(0.015625)"/>
       </defs>
       <use xlink:href="#NotoNaskhArabic-Regular-4cd"/>
       <use xlink:href="#NotoNaskhArabic-Regular-4cc" transform="translate(57.203125 0)"/>
       <use xlink:href="#NotoNaskhArabic-Regular-4d4" transform="translate(114.40625 0)"/>
      </g>
     </g>
    </g>
    <g id="ytick_6">
     <g id="line2d_11">
      <path d="M 60.106813 67.326557 
L 621.15 67.326557 
" clip-path="url(#p501571fb0e)" style="fill: none; stroke: #e6e1d6; stroke-width: 0.8; stroke-linecap: square"/>
     </g>
     <g id="line2d_12">
      <g>
       <use xlink:href="#mb1a19b1bf4" x="60.106813" y="67.326557" style="fill: #555555; stroke: #555555; stroke-width: 0.8"/>
      </g>
     </g>
     <g id="text_6">
      <!-- 110 -->
      <g style="fill: #555555" transform="translate(35.087828 72.938807) scale(0.105 -0.105)">
       <use xlink:href="#NotoNaskhArabic-Regular-4cd"/>
       <use xlink:href="#NotoNaskhArabic-Regular-4cd" transform="translate(57.203125 0)"/>
       <use xlink:href="#NotoNaskhArabic-Regular-4cc" transform="translate(114.40625 0)"/>
      </g>
     </g>
    </g>
    <g id="ytick_7">
     <g id="line2d_13">
      <path d="M 60.106813 40.069403 
L 621.15 40.069403 
" clip-path="url(#p501571fb0e)" style="fill: none; stroke: #e6e1d6; stroke-width: 0.8; stroke-linecap: square"/>
     </g>
     <g id="line2d_14">
      <g>
       <use xlink:href="#mb1a19b1bf4" x="60.106813" y="40.069403" style="fill: #555555; stroke: #555555; stroke-width: 0.8"/>
      </g>
     </g>
     <g id="text_7">
      <!-- 112 -->
      <g style="fill: #555555" transform="translate(35.087828 45.681653) scale(0.105 -0.105)">
       <use xlink:href="#NotoNaskhArabic-Regular-4cd"/>
       <use xlink:href="#NotoNaskhArabic-Regular-4cd" transform="translate(57.203125 0)"/>
       <use xlink:href="#NotoNaskhArabic-Regular-4ce" transform="translate(114.40625 0)"/>
      </g>
     </g>
    </g>
    <g id="ytick_8">
     <g id="line2d_15">
      <path d="M 60.106813 12.81225 
L 621.15 12.81225 
" clip-path="url(#p501571fb0e)" style="fill: none; stroke: #e6e1d6; stroke-width: 0.8; stroke-linecap: square"/>
     </g>
     <g id="line2d_16">
      <g>
       <use xlink:href="#mb1a19b1bf4" x="60.106813" y="12.81225" style="fill: #555555; stroke: #555555; stroke-width: 0.8"/>
      </g>
     </g>
     <g id="text_8">
      <!-- 114 -->
      <g style="fill: #555555" transform="translate(35.087828 18.4245) scale(0.105 -0.105)">
       <use xlink:href="#NotoNaskhArabic-Regular-4cd"/>
       <use xlink:href="#NotoNaskhArabic-Regular-4cd" transform="translate(57.203125 0)"/>
       <use xlink:href="#NotoNaskhArabic-Regular-4d0" transform="translate(114.40625 0)"/>
      </g>
     </g>
    </g>
   </g>
   <g id="patch_3">
    <path d="M 60.106813 220.768783 
L 60.106813 8.453124 
" style="fill: none; stroke: #1f2937; stroke-width: 0.8; stroke-linejoin: miter; stroke-linecap: square"/>
   </g>
   <g id="patch_4">
    <path d="M 60.106813 220.768783 
L 621.15 220.768783 
" style="fill: none; stroke: #1f2937; stroke-width: 0.8; stroke-linejoin: miter; stroke-linecap: square"/>
   </g>
   <g id="line2d_17">
    <path d="M 78.20498 202.382847 
L 78.20498 196.511059 
" clip-path="url(#p501571fb0e)" style="fill: none; stroke: #1f8a56; stroke-width: 1.1; stroke-linecap: round"/>
   </g>
   <g id="line2d_18">
    <path d="M 96.303147 200.763583 
L 96.303147 195.849309 
" clip-path="url(#p501571fb0e)" style="fill: none; stroke: #1f8a56; stroke-width: 1.1; stroke-linecap: round"/>
   </g>
   <g id="line2d_19">
    <path d="M 114.401315 211.118071 
L 114.401315 197.488454 
" clip-path="url(#p501571fb0e)" style="fill: none; stroke: #b91c1c; stroke-width: 1.1; stroke-linecap: round"/>
   </g>
   <g id="line2d_20">
    <path d="M 132.499482 209.453097 
L 132.499482 200.764208 
" clip-path="url(#p501571fb0e)" style="fill: none; stroke: #1f8a56; stroke-width: 1.1; stroke-linecap: round"/>
   </g>
   <g id="line2d_21">
    <path d="M 150.597649 207.228618 
L 150.597649 199.489356 
" clip-path="url(#p501571fb0e)" style="fill: none; stroke: #1f8a56; stroke-width: 1.1; stroke-linecap: round"/>
   </g>
   <g id="line2d_22">
    <path d="M 168.695817 201.683057 
L 168.695817 179.895448 
" clip-path="url(#p501571fb0e)" style="fill: none; stroke: #1f8a56; stroke-width: 1.1; stroke-linecap: round"/>
   </g>
   <g id="line2d_23">
    <path d="M 186.793984 184.025408 
L 186.793984 166.871745 
" clip-path="url(#p501571fb0e)" style="fill: none; stroke: #1f8a56; stroke-width: 1.1; stroke-linecap: round"/>
   </g>
   <g id="line2d_24">
    <path d="M 204.892151 168.997703 
L 204.892151 158.209886 
" clip-path="url(#p501571fb0e)" style="fill: none; stroke: #1f8a56; stroke-width: 1.1; stroke-linecap: round"/>
   </g>
   <g id="line2d_25">
    <path d="M 222.990319 161.959488 
L 222.990319 137.724175 
" clip-path="url(#p501571fb0e)" style="fill: none; stroke: #1f8a56; stroke-width: 1.1; stroke-linecap: round"/>
   </g>
   <g id="line2d_26">
    <path d="M 241.088486 138.162676 
L 241.088486 120.50699 
" clip-path="url(#p501571fb0e)" style="fill: none; stroke: #1f8a56; stroke-width: 1.1; stroke-linecap: round"/>
   </g>
   <g id="line2d_27">
    <path d="M 259.186653 125.341417 
L 259.186653 112.81469 
" clip-path="url(#p501571fb0e)" style="fill: none; stroke: #1f8a56; stroke-width: 1.1; stroke-linecap: round"/>
   </g>
   <g id="line2d_28">
    <path d="M 277.284821 125.320219 
L 277.284821 108.816103 
" clip-path="url(#p501571fb0e)" style="fill: none; stroke: #b91c1c; stroke-width: 1.1; stroke-linecap: round"/>
   </g>
   <g id="line2d_29">
    <path d="M 295.382988 125.764349 
L 295.382988 119.371059 
" clip-path="url(#p501571fb0e)" style="fill: none; stroke: #b91c1c; stroke-width: 1.1; stroke-linecap: round"/>
   </g>
   <g id="line2d_30">
    <path d="M 313.481155 126.133416 
L 313.481155 116.525802 
" clip-path="url(#p501571fb0e)" style="fill: none; stroke: #1f8a56; stroke-width: 1.1; stroke-linecap: round"/>
   </g>
   <g id="line2d_31">
    <path d="M 331.579323 121.707634 
L 331.579323 119.370261 
" clip-path="url(#p501571fb0e)" style="fill: none; stroke: #b91c1c; stroke-width: 1.1; stroke-linecap: round"/>
   </g>
   <g id="line2d_32">
    <path d="M 349.67749 120.520047 
L 349.67749 106.450764 
" clip-path="url(#p501571fb0e)" style="fill: none; stroke: #1f8a56; stroke-width: 1.1; stroke-linecap: round"/>
   </g>
   <g id="line2d_33">
    <path d="M 367.775657 105.734404 
L 367.775657 102.80475 
" clip-path="url(#p501571fb0e)" style="fill: none; stroke: #b91c1c; stroke-width: 1.1; stroke-linecap: round"/>
   </g>
   <g id="line2d_34">
    <path d="M 385.873825 106.437117 
L 385.873825 96.072781 
" clip-path="url(#p501571fb0e)" style="fill: none; stroke: #1f8a56; stroke-width: 1.1; stroke-linecap: round"/>
   </g>
   <g id="line2d_35">
    <path d="M 403.971992 99.879534 
L 403.971992 95.259943 
" clip-path="url(#p501571fb0e)" style="fill: none; stroke: #1f8a56; stroke-width: 1.1; stroke-linecap: round"/>
   </g>
   <g id="line2d_36">
    <path d="M 422.070159 94.480401 
L 422.070159 80.23191 
" clip-path="url(#p501571fb0e)" style="fill: none; stroke: #1f8a56; stroke-width: 1.1; stroke-linecap: round"/>
   </g>
   <g id="line2d_37">
    <path d="M 440.168327 83.294497 
L 440.168327 80.011154 
" clip-path="url(#p501571fb0e)" style="fill: none; stroke: #1f8a56; stroke-width: 1.1; stroke-linecap: round"/>
   </g>
   <g id="line2d_38">
    <path d="M 458.266494 81.676249 
L 458.266494 70.472451 
" clip-path="url(#p501571fb0e)" style="fill: none; stroke: #1f8a56; stroke-width: 1.1; stroke-linecap: round"/>
   </g>
   <g id="line2d_39">
    <path d="M 476.364661 71.777031 
L 476.364661 54.576014 
" clip-path="url(#p501571fb0e)" style="fill: none; stroke: #1f8a56; stroke-width: 1.1; stroke-linecap: round"/>
   </g>
   <g id="line2d_40">
    <path d="M 494.462829 56.570322 
L 494.462829 40.862106 
" clip-path="url(#p501571fb0e)" style="fill: none; stroke: #1f8a56; stroke-width: 1.1; stroke-linecap: round"/>
   </g>
   <g id="line2d_41">
    <path d="M 512.560996 46.822416 
L 512.560996 38.099386 
" clip-path="url(#p501571fb0e)" style="fill: none; stroke: #b91c1c; stroke-width: 1.1; stroke-linecap: round"/>
   </g>
   <g id="line2d_42">
    <path d="M 530.659163 46.73556 
L 530.659163 34.661805 
" clip-path="url(#p501571fb0e)" style="fill: none; stroke: #1f8a56; stroke-width: 1.1; stroke-linecap: round"/>
   </g>
   <g id="line2d_43">
    <path d="M 548.757331 39.383564 
L 548.757331 33.313218 
" clip-path="url(#p501571fb0e)" style="fill: none; stroke: #b91c1c; stroke-width: 1.1; stroke-linecap: round"/>
   </g>
   <g id="line2d_44">
    <path d="M 566.855498 39.48358 
L 566.855498 22.08295 
" clip-path="url(#p501571fb0e)" style="fill: none; stroke: #1f8a56; stroke-width: 1.1; stroke-linecap: round"/>
   </g>
   <g id="line2d_45">
    <path d="M 584.953665 26.277988 
L 584.953665 21.413842 
" clip-path="url(#p501571fb0e)" style="fill: none; stroke: #1f8a56; stroke-width: 1.1; stroke-linecap: round"/>
   </g>
   <g id="line2d_46">
    <path d="M 603.051833 27.733151 
L 603.051833 21.612574 
" clip-path="url(#p501571fb0e)" style="fill: none; stroke: #1f8a56; stroke-width: 1.1; stroke-linecap: round"/>
   </g>
   <g id="patch_5">
    <path d="M 73.227984 200.401147 
L 83.181976 200.401147 
L 83.181976 194.710019 
L 73.227984 194.710019 
z
" clip-path="url(#p501571fb0e)" style="fill: #1f8a56; stroke: #1f8a56; stroke-linejoin: miter"/>
   </g>
   <g id="patch_6">
    <path d="M 91.326151 200.02601 
L 101.280143 200.02601 
L 101.280143 194.334882 
L 91.326151 194.334882 
z
" clip-path="url(#p501571fb0e)" style="fill: #1f8a56; stroke: #1f8a56; stroke-linejoin: miter"/>
   </g>
   <g id="patch_7">
    <path d="M 109.424318 208.206581 
L 119.378311 208.206581 
L 119.378311 199.398352 
L 109.424318 199.398352 
z
" clip-path="url(#p501571fb0e)" style="fill: #b91c1c; stroke: #b91c1c; stroke-linejoin: miter"/>
   </g>
   <g id="patch_8">
    <path d="M 127.522486 208.896129 
L 137.476478 208.896129 
L 137.476478 203.205002 
L 127.522486 203.205002 
z
" clip-path="url(#p501571fb0e)" style="fill: #1f8a56; stroke: #1f8a56; stroke-linejoin: miter"/>
   </g>
   <g id="patch_9">
    <path d="M 145.620653 205.808429 
L 155.574645 205.808429 
L 155.574645 200.117302 
L 145.620653 200.117302 
z
" clip-path="url(#p501571fb0e)" style="fill: #1f8a56; stroke: #1f8a56; stroke-linejoin: miter"/>
   </g>
   <g id="patch_10">
    <path d="M 163.718821 201.433117 
L 173.672813 201.433117 
L 173.672813 184.360205 
L 163.718821 184.360205 
z
" clip-path="url(#p501571fb0e)" style="fill: #1f8a56; stroke: #1f8a56; stroke-linejoin: miter"/>
   </g>
   <g id="patch_11">
    <path d="M 181.816988 183.220687 
L 191.77098 183.220687 
L 191.77098 169.305499 
L 181.816988 169.305499 
z
" clip-path="url(#p501571fb0e)" style="fill: #1f8a56; stroke: #1f8a56; stroke-linejoin: miter"/>
   </g>
   <g id="patch_12">
    <path d="M 199.915155 168.605439 
L 209.869147 168.605439 
L 209.869147 159.740488 
L 199.915155 159.740488 
z
" clip-path="url(#p501571fb0e)" style="fill: #1f8a56; stroke: #1f8a56; stroke-linejoin: miter"/>
   </g>
   <g id="patch_13">
    <path d="M 218.013323 161.431051 
L 227.967315 161.431051 
L 227.967315 138.097768 
L 218.013323 138.097768 
z
" clip-path="url(#p501571fb0e)" style="fill: #1f8a56; stroke: #1f8a56; stroke-linejoin: miter"/>
   </g>
   <g id="patch_14">
    <path d="M 236.11149 136.333118 
L 246.065482 136.333118 
L 246.065482 122.155106 
L 236.11149 122.155106 
z
" clip-path="url(#p501571fb0e)" style="fill: #1f8a56; stroke: #1f8a56; stroke-linejoin: miter"/>
   </g>
   <g id="patch_15">
    <path d="M 254.209657 123.540118 
L 264.163649 123.540118 
L 264.163649 113.478213 
L 254.209657 113.478213 
z
" clip-path="url(#p501571fb0e)" style="fill: #1f8a56; stroke: #1f8a56; stroke-linejoin: miter"/>
   </g>
   <g id="patch_16">
    <path d="M 272.307825 122.25416 
L 282.261817 122.25416 
L 282.261817 110.184841 
L 272.307825 110.184841 
z
" clip-path="url(#p501571fb0e)" style="fill: #b91c1c; stroke: #b91c1c; stroke-linejoin: miter"/>
   </g>
   <g id="patch_17">
    <path d="M 290.405992 123.258766 
L 300.359984 123.258766 
L 300.359984 117.567639 
L 290.405992 117.567639 
z
" clip-path="url(#p501571fb0e)" style="fill: #b91c1c; stroke: #b91c1c; stroke-linejoin: miter"/>
   </g>
   <g id="patch_18">
    <path d="M 308.504159 124.614727 
L 318.458151 124.614727 
L 318.458151 117.227302 
L 308.504159 117.227302 
z
" clip-path="url(#p501571fb0e)" style="fill: #1f8a56; stroke: #1f8a56; stroke-linejoin: miter"/>
   </g>
   <g id="patch_19">
    <path d="M 326.602327 120.06738 
L 336.556319 120.06738 
L 336.556319 114.376253 
L 326.602327 114.376253 
z
" clip-path="url(#p501571fb0e)" style="fill: #b91c1c; stroke: #b91c1c; stroke-linejoin: miter"/>
   </g>
   <g id="patch_20">
    <path d="M 344.700494 120.366589 
L 354.654486 120.366589 
L 354.654486 107.672393 
L 344.700494 107.672393 
z
" clip-path="url(#p501571fb0e)" style="fill: #1f8a56; stroke: #1f8a56; stroke-linejoin: miter"/>
   </g>
   <g id="patch_21">
    <path d="M 362.798661 104.332334 
L 372.752653 104.332334 
L 372.752653 98.641206 
L 362.798661 98.641206 
z
" clip-path="url(#p501571fb0e)" style="fill: #b91c1c; stroke: #b91c1c; stroke-linejoin: miter"/>
   </g>
   <g id="patch_22">
    <path d="M 380.896829 103.519659 
L 390.850821 103.519659 
L 390.850821 97.828532 
L 380.896829 97.828532 
z
" clip-path="url(#p501571fb0e)" style="fill: #1f8a56; stroke: #1f8a56; stroke-linejoin: miter"/>
   </g>
   <g id="patch_23">
    <path d="M 398.994996 99.69516 
L 408.948988 99.69516 
L 408.948988 94.004033 
L 398.994996 94.004033 
z
" clip-path="url(#p501571fb0e)" style="fill: #1f8a56; stroke: #1f8a56; stroke-linejoin: miter"/>
   </g>
   <g id="patch_24">
    <path d="M 417.093163 93.785578 
L 427.047155 93.785578 
L 427.047155 80.750346 
L 417.093163 80.750346 
z
" clip-path="url(#p501571fb0e)" style="fill: #1f8a56; stroke: #1f8a56; stroke-linejoin: miter"/>
   </g>
   <g id="patch_25">
    <path d="M 435.191331 82.479363 
L 445.145323 82.479363 
L 445.145323 76.788236 
L 435.191331 76.788236 
z
" clip-path="url(#p501571fb0e)" style="fill: #1f8a56; stroke: #1f8a56; stroke-linejoin: miter"/>
   </g>
   <g id="patch_26">
    <path d="M 453.289498 80.101763 
L 463.24349 80.101763 
L 463.24349 71.770252 
L 453.289498 71.770252 
z
" clip-path="url(#p501571fb0e)" style="fill: #1f8a56; stroke: #1f8a56; stroke-linejoin: miter"/>
   </g>
   <g id="patch_27">
    <path d="M 471.387665 70.160353 
L 481.341657 70.160353 
L 481.341657 55.533341 
L 471.387665 55.533341 
z
" clip-path="url(#p501571fb0e)" style="fill: #1f8a56; stroke: #1f8a56; stroke-linejoin: miter"/>
   </g>
   <g id="patch_28">
    <path d="M 489.485833 55.753359 
L 499.439825 55.753359 
L 499.439825 43.578038 
L 489.485833 43.578038 
z
" clip-path="url(#p501571fb0e)" style="fill: #1f8a56; stroke: #1f8a56; stroke-linejoin: miter"/>
   </g>
   <g id="patch_29">
    <path d="M 507.584 45.754942 
L 517.537992 45.754942 
L 517.537992 40.063815 
L 507.584 40.063815 
z
" clip-path="url(#p501571fb0e)" style="fill: #b91c1c; stroke: #b91c1c; stroke-linejoin: miter"/>
   </g>
   <g id="patch_30">
    <path d="M 525.682167 45.006417 
L 535.636159 45.006417 
L 535.636159 36.58396 
L 525.682167 36.58396 
z
" clip-path="url(#p501571fb0e)" style="fill: #1f8a56; stroke: #1f8a56; stroke-linejoin: miter"/>
   </g>
   <g id="patch_31">
    <path d="M 543.780335 38.40416 
L 553.734327 38.40416 
L 553.734327 32.713033 
L 543.780335 32.713033 
z
" clip-path="url(#p501571fb0e)" style="fill: #b91c1c; stroke: #b91c1c; stroke-linejoin: miter"/>
   </g>
   <g id="patch_32">
    <path d="M 561.878502 39.222622 
L 571.832494 39.222622 
L 571.832494 25.797107 
L 561.878502 25.797107 
z
" clip-path="url(#p501571fb0e)" style="fill: #1f8a56; stroke: #1f8a56; stroke-linejoin: miter"/>
   </g>
   <g id="patch_33">
    <path d="M 579.976669 26.129456 
L 589.930661 26.129456 
L 589.930661 20.438329 
L 579.976669 20.438329 
z
" clip-path="url(#p501571fb0e)" style="fill: #1f8a56; stroke: #1f8a56; stroke-linejoin: miter"/>
   </g>
   <g id="patch_34">
    <path d="M 598.074837 23.794963 
L 608.028829 23.794963 
L 608.028829 18.103836 
L 598.074837 18.103836 
z
" clip-path="url(#p501571fb0e)" style="fill: #1f8a56; stroke: #1f8a56; stroke-linejoin: miter"/>
   </g>
  </g>
  <g id="axes_2">
   <g id="patch_35">
    <path d="M 60.106813 358.232964 
L 621.15 358.232964 
L 621.15 225.535678 
L 60.106813 225.535678 
z
" style="fill: #ffffff"/>
   </g>
   <g id="FillBetweenPolyCollection_1">
    <defs>
     <path id="m1e384f8fa7" d="M 85.608776 -65.989121 
L 85.608776 -59.994695 
L 103.196336 -59.994695 
L 120.783897 -59.994695 
L 138.371458 -59.994695 
L 155.959019 -59.994695 
L 173.546579 -59.994695 
L 191.13414 -59.994695 
L 208.721701 -59.994695 
L 226.309261 -59.994695 
L 243.896822 -59.994695 
L 261.484383 -59.994695 
L 279.071944 -59.994695 
L 296.659504 -59.994695 
L 314.247065 -59.994695 
L 331.834626 -59.994695 
L 349.422187 -59.994695 
L 367.009747 -59.994695 
L 384.597308 -59.994695 
L 402.184869 -59.994695 
L 419.77243 -59.994695 
L 437.35999 -59.994695 
L 454.947551 -59.994695 
L 472.535112 -59.994695 
L 490.122673 -59.994695 
L 507.710233 -59.994695 
L 525.297794 -59.994695 
L 542.885355 -59.994695 
L 560.472915 -59.994695 
L 578.060476 -59.994695 
L 595.648037 -59.994695 
L 595.648037 -180.628591 
L 595.648037 -180.628591 
L 578.060476 -179.308798 
L 560.472915 -173.211283 
L 542.885355 -169.188006 
L 525.297794 -165.112446 
L 507.710233 -161.942462 
L 490.122673 -154.452147 
L 472.535112 -150.309153 
L 454.947551 -149.053859 
L 437.35999 -142.736199 
L 419.77243 -138.527628 
L 402.184869 -134.431665 
L 384.597308 -129.087293 
L 367.009747 -123.740274 
L 349.422187 -125.135311 
L 331.834626 -122.340781 
L 314.247065 -114.686687 
L 296.659504 -109.155709 
L 279.071944 -106.374543 
L 261.484383 -100.259666 
L 243.896822 -98.157666 
L 226.309261 -93.239152 
L 208.721701 -91.41201 
L 191.13414 -89.032128 
L 173.546579 -86.72158 
L 155.959019 -79.604527 
L 138.371458 -76.626184 
L 120.783897 -72.006065 
L 103.196336 -69.382526 
L 85.608776 -65.989121 
z
" style="stroke: #e0a94a; stroke-opacity: 0.2"/>
    </defs>
    <g clip-path="url(#p00333b33e0)">
     <use xlink:href="#m1e384f8fa7" x="0" y="412.195964" style="fill: #e0a94a; fill-opacity: 0.2; stroke: #e0a94a; stroke-opacity: 0.2"/>
    </g>
   </g>
   <g id="matplotlib.axis_3">
    <g id="xtick_1">
     <g id="line2d_47">
      <defs>
       <path id="m24362e9bdc" d="M 0 0 
L 0 3.5 
" style="stroke: #555555; stroke-width: 0.8"/>
      </defs>
      <g>
       <use xlink:href="#m24362e9bdc" x="85.608776" y="358.232964" style="fill: #555555; stroke: #555555; stroke-width: 0.8"/>
      </g>
     </g>
     <g id="text_9">
      <!-- 0 -->
      <g style="fill: #555555" transform="translate(82.605612 376.457464) scale(0.105 -0.105)">
       <use xlink:href="#NotoNaskhArabic-Regular-4cc"/>
      </g>
     </g>
    </g>
    <g id="xtick_2">
     <g id="line2d_48">
      <g>
       <use xlink:href="#m24362e9bdc" x="173.546579" y="358.232964" style="fill: #555555; stroke: #555555; stroke-width: 0.8"/>
      </g>
     </g>
     <g id="text_10">
      <!-- 5 -->
      <g style="fill: #555555" transform="translate(170.543415 376.457464) scale(0.105 -0.105)">
       <defs>
        <path id="NotoNaskhArabic-Regular-4d1" d="M 1587 -64 
Q 826 -64 403 186 
L 403 717 
Q 634 576 960 496 
Q 1286 416 1594 416 
Q 2131 416 2425 672 
Q 2720 928 2720 1402 
Q 2720 2330 1574 2330 
Q 1210 2330 794 2234 
L 512 2413 
L 685 4570 
L 2976 4570 
L 2976 4058 
L 1165 4058 
L 1056 2733 
Q 1235 2765 1411 2784 
Q 1587 2803 1760 2803 
Q 2477 2803 2886 2444 
Q 3296 2086 3296 1459 
Q 3296 749 2841 342 
Q 2387 -64 1587 -64 
z
" transform="scale(0.015625)"/>
       </defs>
       <use xlink:href="#NotoNaskhArabic-Regular-4d1"/>
      </g>
     </g>
    </g>
    <g id="xtick_3">
     <g id="line2d_49">
      <g>
       <use xlink:href="#m24362e9bdc" x="261.484383" y="358.232964" style="fill: #555555; stroke: #555555; stroke-width: 0.8"/>
      </g>
     </g>
     <g id="text_11">
      <!-- 10 -->
      <g style="fill: #555555" transform="translate(255.478055 376.457464) scale(0.105 -0.105)">
       <use xlink:href="#NotoNaskhArabic-Regular-4cd"/>
       <use xlink:href="#NotoNaskhArabic-Regular-4cc" transform="translate(57.203125 0)"/>
      </g>
     </g>
    </g>
    <g id="xtick_4">
     <g id="line2d_50">
      <g>
       <use xlink:href="#m24362e9bdc" x="349.422187" y="358.232964" style="fill: #555555; stroke: #555555; stroke-width: 0.8"/>
      </g>
     </g>
     <g id="text_12">
      <!-- 15 -->
      <g style="fill: #555555" transform="translate(343.415858 376.457464) scale(0.105 -0.105)">
       <use xlink:href="#NotoNaskhArabic-Regular-4cd"/>
       <use xlink:href="#NotoNaskhArabic-Regular-4d1" transform="translate(57.203125 0)"/>
      </g>
     </g>
    </g>
    <g id="xtick_5">
     <g id="line2d_51">
      <g>
       <use xlink:href="#m24362e9bdc" x="437.35999" y="358.232964" style="fill: #555555; stroke: #555555; stroke-width: 0.8"/>
      </g>
     </g>
     <g id="text_13">
      <!-- 20 -->
      <g style="fill: #555555" transform="translate(431.353662 376.457464) scale(0.105 -0.105)">
       <use xlink:href="#NotoNaskhArabic-Regular-4ce"/>
       <use xlink:href="#NotoNaskhArabic-Regular-4cc" transform="translate(57.203125 0)"/>
      </g>
     </g>
    </g>
    <g id="xtick_6">
     <g id="line2d_52">
      <g>
       <use xlink:href="#m24362e9bdc" x="525.297794" y="358.232964" style="fill: #555555; stroke: #555555; stroke-width: 0.8"/>
      </g>
     </g>
     <g id="text_14">
      <!-- 25 -->
      <g style="fill: #555555" transform="translate(519.291466 376.457464) scale(0.105 -0.105)">
       <use xlink:href="#NotoNaskhArabic-Regular-4ce"/>
       <use xlink:href="#NotoNaskhArabic-Regular-4d1" transform="translate(57.203125 0)"/>
      </g>
     </g>
    </g>
    <g id="xtick_7">
     <g id="line2d_53">
      <g>
       <use xlink:href="#m24362e9bdc" x="613.235598" y="358.232964" style="fill: #555555; stroke: #555555; stroke-width: 0.8"/>
      </g>
     </g>
     <g id="text_15">
      <!-- 30 -->
      <g style="fill: #555555" transform="translate(607.22927 376.457464) scale(0.105 -0.105)">
       <defs>
        <path id="NotoNaskhArabic-Regular-4cf" d="M 1542 -64 
Q 1184 -64 877 -9 
Q 570 45 288 186 
L 288 710 
Q 576 570 909 490 
Q 1242 410 1549 410 
Q 2707 410 2707 1312 
Q 2707 2118 1427 2118 
L 986 2118 
L 986 2598 
L 1434 2598 
Q 1971 2598 2275 2825 
Q 2579 3053 2579 3462 
Q 2579 3789 2358 3974 
Q 2138 4160 1747 4160 
Q 1446 4160 1187 4077 
Q 928 3994 595 3776 
L 314 4160 
Q 595 4384 963 4509 
Q 1331 4634 1741 4634 
Q 2406 4634 2780 4330 
Q 3155 4026 3155 3501 
Q 3155 3066 2908 2784 
Q 2662 2502 2208 2406 
L 2208 2381 
Q 2758 2317 3027 2035 
Q 3296 1754 3296 1299 
Q 3296 646 2845 291 
Q 2394 -64 1542 -64 
z
" transform="scale(0.015625)"/>
       </defs>
       <use xlink:href="#NotoNaskhArabic-Regular-4cf"/>
       <use xlink:href="#NotoNaskhArabic-Regular-4cc" transform="translate(57.203125 0)"/>
      </g>
     </g>
    </g>
    <g id="text_16">
     <!-- ﻦﻣﺰﻟﺍ -->
     <g style="fill: #1f2937" transform="translate(330.679656 398.338964) scale(0.105 -0.105)">
      <defs>
       <path id="NotoNaskhArabic-Regular-3" d="M 666 0 
Q 646 1126 604 2057 
Q 563 2989 493 3725 
Q 467 3987 566 4118 
Q 666 4250 915 4294 
Q 941 4173 1001 3965 
Q 1062 3757 1139 3533 
L 966 3386 
Q 992 2912 1001 2413 
Q 1011 1914 1001 1338 
Q 992 762 960 51 
L 666 0 
z
" transform="scale(0.015625)"/>
       <path id="NotoNaskhArabic-Regular-1c1" d="M -6 0 
Q -64 0 -64 51 
L -64 435 
Q -64 486 -6 486 
Q 378 486 704 659 
Q 685 902 665 1139 
Q 646 1376 627 1606 
Q 570 2208 512 2790 
Q 454 3373 384 3936 
Q 474 4032 579 4121 
Q 685 4211 806 4294 
Q 826 3949 851 3497 
Q 877 3046 915 2483 
Q 947 2016 960 1609 
Q 973 1203 979 864 
Q 979 755 915 572 
Q 851 390 755 224 
Q 640 0 -6 0 
z
" transform="scale(0.015625)"/>
       <path id="NotoNaskhArabic-Regular-d6" d="M 710 -1306 
Q 608 -1306 451 -1248 
Q 294 -1190 134 -1107 
Q -26 -1024 -128 -947 
L -45 -736 
Q 134 -768 284 -787 
Q 435 -806 563 -806 
Q 1043 -806 1385 -518 
Q 1728 -230 1907 314 
Q 1862 416 1814 515 
Q 1766 614 1709 717 
Q 1491 1107 1388 1340 
Q 1286 1574 1286 1734 
Q 1286 1901 1382 2000 
Q 1478 2099 1658 2182 
Q 1683 2099 1712 2000 
Q 1741 1901 1786 1792 
Q 1888 1530 1955 1334 
Q 2022 1139 2054 1018 
Q 2093 896 2115 797 
Q 2138 698 2144 614 
Q 2362 486 2643 486 
Q 2694 486 2694 435 
L 2694 51 
Q 2694 0 2643 0 
Q 2342 0 2118 154 
Q 2048 -288 1849 -617 
Q 1651 -947 1356 -1126 
Q 1062 -1306 710 -1306 
z
M 1299 2560 
Q 1018 2771 839 2976 
Q 1165 3303 1287 3443 
Q 1389 3335 1494 3229 
Q 1600 3123 1709 3027 
Q 1562 2816 1299 2560 
z
" transform="scale(0.015625)"/>
       <path id="NotoNaskhArabic-Regular-1e5" d="M 2291 0 
Q 2035 0 1753 48 
Q 1472 96 1209 182 
Q 947 269 749 384 
Q 602 179 422 89 
Q 243 0 0 0 
Q -51 0 -51 51 
L -51 435 
Q -51 486 0 486 
Q 243 486 409 604 
Q 576 723 698 960 
Q 813 1171 880 1308 
Q 947 1446 1004 1555 
Q 1062 1664 1152 1779 
Q 1312 1990 1478 2083 
Q 1645 2176 1830 2176 
Q 2016 2176 2201 1945 
Q 2387 1715 2502 1357 
Q 2618 1005 2618 666 
Q 2618 467 2547 307 
Q 2477 147 2291 0 
z
M 2150 486 
Q 2144 781 2061 1065 
Q 1978 1350 1875 1498 
Q 1805 1606 1728 1606 
Q 1491 1606 1286 1318 
Q 1235 1242 1161 1117 
Q 1088 992 998 806 
Q 1459 563 2150 486 
z
" transform="scale(0.015625)"/>
       <path id="NotoNaskhArabic-Regular-1e8" d="M 1594 -1677 
Q 1050 -1677 742 -1363 
Q 435 -1050 435 -474 
Q 435 -346 444 -237 
Q 454 -128 480 9 
Q 506 147 557 358 
L 794 301 
Q 723 6 723 -154 
Q 723 -621 956 -883 
Q 1190 -1146 1606 -1146 
Q 1926 -1146 2249 -1040 
Q 2573 -934 2829 -752 
Q 3085 -570 3187 -346 
Q 2976 109 2873 416 
Q 2771 723 2771 877 
Q 2771 1043 2864 1174 
Q 2957 1306 3187 1446 
Q 3200 1344 3235 1133 
Q 3270 922 3334 595 
Q 3565 486 3802 486 
Q 3859 486 3859 435 
L 3859 51 
Q 3859 0 3802 0 
Q 3590 0 3418 77 
L 3424 -109 
Q 3424 -499 3174 -860 
Q 2925 -1222 2490 -1446 
Q 2061 -1677 1594 -1677 
z
M 1766 1504 
Q 1485 1715 1306 1920 
Q 1632 2247 1754 2387 
Q 1856 2279 1961 2173 
Q 2067 2067 2176 1971 
Q 2029 1760 1766 1504 
z
" transform="scale(0.015625)"/>
      </defs>
      <use xlink:href="#NotoNaskhArabic-Regular-3"/>
      <use xlink:href="#NotoNaskhArabic-Regular-1c1" transform="translate(23.796875 0)"/>
      <use xlink:href="#NotoNaskhArabic-Regular-d6" transform="translate(45 0)"/>
      <use xlink:href="#NotoNaskhArabic-Regular-1e5" transform="translate(85.40625 0)"/>
      <use xlink:href="#NotoNaskhArabic-Regular-1e8" transform="translate(131 0)"/>
     </g>
    </g>
   </g>
   <g id="matplotlib.axis_4">
    <g id="ytick_9">
     <g id="line2d_54">
      <g>
       <use xlink:href="#mb1a19b1bf4" x="60.106813" y="349.021674" style="fill: #555555; stroke: #555555; stroke-width: 0.8"/>
      </g>
     </g>
     <g id="text_17">
      <!-- 1000 -->
      <g style="fill: #555555" transform="translate(29.0815 354.633924) scale(0.105 -0.105)">
       <use xlink:href="#NotoNaskhArabic-Regular-4cd"/>
       <use xlink:href="#NotoNaskhArabic-Regular-4cc" transform="translate(57.203125 0)"/>
       <use xlink:href="#NotoNaskhArabic-Regular-4cc" transform="translate(114.40625 0)"/>
       <use xlink:href="#NotoNaskhArabic-Regular-4cc" transform="translate(171.609375 0)"/>
      </g>
     </g>
    </g>
    <g id="ytick_10">
     <g id="line2d_55">
      <g>
       <use xlink:href="#mb1a19b1bf4" x="60.106813" y="325.04397" style="fill: #555555; stroke: #555555; stroke-width: 0.8"/>
      </g>
     </g>
     <g id="text_18">
      <!-- 1200 -->
      <g style="fill: #555555" transform="translate(29.0815 330.65622) scale(0.105 -0.105)">
       <use xlink:href="#NotoNaskhArabic-Regular-4cd"/>
       <use xlink:href="#NotoNaskhArabic-Regular-4ce" transform="translate(57.203125 0)"/>
       <use xlink:href="#NotoNaskhArabic-Regular-4cc" transform="translate(114.40625 0)"/>
       <use xlink:href="#NotoNaskhArabic-Regular-4cc" transform="translate(171.609375 0)"/>
      </g>
     </g>
    </g>
    <g id="ytick_11">
     <g id="line2d_56">
      <g>
       <use xlink:href="#mb1a19b1bf4" x="60.106813" y="301.066266" style="fill: #555555; stroke: #555555; stroke-width: 0.8"/>
      </g>
     </g>
     <g id="text_19">
      <!-- 1400 -->
      <g style="fill: #555555" transform="translate(29.0815 306.678516) scale(0.105 -0.105)">
       <use xlink:href="#NotoNaskhArabic-Regular-4cd"/>
       <use xlink:href="#NotoNaskhArabic-Regular-4d0" transform="translate(57.203125 0)"/>
       <use xlink:href="#NotoNaskhArabic-Regular-4cc" transform="translate(114.40625 0)"/>
       <use xlink:href="#NotoNaskhArabic-Regular-4cc" transform="translate(171.609375 0)"/>
      </g>
     </g>
    </g>
    <g id="ytick_12">
     <g id="line2d_57">
      <g>
       <use xlink:href="#mb1a19b1bf4" x="60.106813" y="277.088562" style="fill: #555555; stroke: #555555; stroke-width: 0.8"/>
      </g>
     </g>
     <g id="text_20">
      <!-- 1600 -->
      <g style="fill: #555555" transform="translate(29.0815 282.700812) scale(0.105 -0.105)">
       <use xlink:href="#NotoNaskhArabic-Regular-4cd"/>
       <use xlink:href="#NotoNaskhArabic-Regular-4d2" transform="translate(57.203125 0)"/>
       <use xlink:href="#NotoNaskhArabic-Regular-4cc" transform="translate(114.40625 0)"/>
       <use xlink:href="#NotoNaskhArabic-Regular-4cc" transform="translate(171.609375 0)"/>
      </g>
     </g>
    </g>
    <g id="ytick_13">
     <g id="line2d_58">
      <g>
       <use xlink:href="#mb1a19b1bf4" x="60.106813" y="253.110858" style="fill: #555555; stroke: #555555; stroke-width: 0.8"/>
      </g>
     </g>
     <g id="text_21">
      <!-- 1800 -->
      <g style="fill: #555555" transform="translate(29.0815 258.723108) scale(0.105 -0.105)">
       <use xlink:href="#NotoNaskhArabic-Regular-4cd"/>
       <use xlink:href="#NotoNaskhArabic-Regular-4d4" transform="translate(57.203125 0)"/>
       <use xlink:href="#NotoNaskhArabic-Regular-4cc" transform="translate(114.40625 0)"/>
       <use xlink:href="#NotoNaskhArabic-Regular-4cc" transform="translate(171.609375 0)"/>
      </g>
     </g>
    </g>
    <g id="ytick_14">
     <g id="line2d_59">
      <g>
       <use xlink:href="#mb1a19b1bf4" x="60.106813" y="229.133154" style="fill: #555555; stroke: #555555; stroke-width: 0.8"/>
      </g>
     </g>
     <g id="text_22">
      <!-- 2000 -->
      <g style="fill: #555555" transform="translate(29.0815 234.745404) scale(0.105 -0.105)">
       <use xlink:href="#NotoNaskhArabic-Regular-4ce"/>
       <use xlink:href="#NotoNaskhArabic-Regular-4cc" transform="translate(57.203125 0)"/>
       <use xlink:href="#NotoNaskhArabic-Regular-4cc" transform="translate(114.40625 0)"/>
       <use xlink:href="#NotoNaskhArabic-Regular-4cc" transform="translate(171.609375 0)"/>
      </g>
     </g>
    </g>
    <g id="text_23">
     <!-- (Open Interest) ﺔﺣﻮﺘﻔﻤﻟﺍ ﺓﺪﺋﺎﻔﻟﺍ -->
     <g style="fill: #1f2937" transform="translate(18.4245 362.211353) rotate(-90) scale(0.105 -0.105)">
      <defs>
       <path id="DejaVuSans-b" d="M 1984 4856 
Q 1566 4138 1362 3434 
Q 1159 2731 1159 2009 
Q 1159 1288 1364 580 
Q 1569 -128 1984 -844 
L 1484 -844 
Q 1016 -109 783 600 
Q 550 1309 550 2009 
Q 550 2706 781 3412 
Q 1013 4119 1484 4856 
L 1984 4856 
z
" transform="scale(0.015625)"/>
       <path id="DejaVuSans-32" d="M 2522 4238 
Q 1834 4238 1429 3725 
Q 1025 3213 1025 2328 
Q 1025 1447 1429 934 
Q 1834 422 2522 422 
Q 3209 422 3611 934 
Q 4013 1447 4013 2328 
Q 4013 3213 3611 3725 
Q 3209 4238 2522 4238 
z
M 2522 4750 
Q 3503 4750 4090 4092 
Q 4678 3434 4678 2328 
Q 4678 1225 4090 567 
Q 3503 -91 2522 -91 
Q 1538 -91 948 565 
Q 359 1222 359 2328 
Q 359 3434 948 4092 
Q 1538 4750 2522 4750 
z
" transform="scale(0.015625)"/>
       <path id="DejaVuSans-53" d="M 1159 525 
L 1159 -1331 
L 581 -1331 
L 581 3500 
L 1159 3500 
L 1159 2969 
Q 1341 3281 1617 3432 
Q 1894 3584 2278 3584 
Q 2916 3584 3314 3078 
Q 3713 2572 3713 1747 
Q 3713 922 3314 415 
Q 2916 -91 2278 -91 
Q 1894 -91 1617 61 
Q 1341 213 1159 525 
z
M 3116 1747 
Q 3116 2381 2855 2742 
Q 2594 3103 2138 3103 
Q 1681 3103 1420 2742 
Q 1159 2381 1159 1747 
Q 1159 1113 1420 752 
Q 1681 391 2138 391 
Q 2594 391 2855 752 
Q 3116 1113 3116 1747 
z
" transform="scale(0.015625)"/>
       <path id="DejaVuSans-48" d="M 3597 1894 
L 3597 1613 
L 953 1613 
Q 991 1019 1311 708 
Q 1631 397 2203 397 
Q 2534 397 2845 478 
Q 3156 559 3463 722 
L 3463 178 
Q 3153 47 2828 -22 
Q 2503 -91 2169 -91 
Q 1331 -91 842 396 
Q 353 884 353 1716 
Q 353 2575 817 3079 
Q 1281 3584 2069 3584 
Q 2775 3584 3186 3129 
Q 3597 2675 3597 1894 
z
M 3022 2063 
Q 3016 2534 2758 2815 
Q 2500 3097 2075 3097 
Q 1594 3097 1305 2825 
Q 1016 2553 972 2059 
L 3022 2063 
z
" transform="scale(0.015625)"/>
       <path id="DejaVuSans-51" d="M 3513 2113 
L 3513 0 
L 2938 0 
L 2938 2094 
Q 2938 2591 2744 2837 
Q 2550 3084 2163 3084 
Q 1697 3084 1428 2787 
Q 1159 2491 1159 1978 
L 1159 0 
L 581 0 
L 581 3500 
L 1159 3500 
L 1159 2956 
Q 1366 3272 1645 3428 
Q 1925 3584 2291 3584 
Q 2894 3584 3203 3211 
Q 3513 2838 3513 2113 
z
" transform="scale(0.015625)"/>
       <path id="NotoNaskhArabic-Regular-554" transform="scale(0.015625)"/>
       <path id="DejaVuSans-2c" d="M 628 4666 
L 1259 4666 
L 1259 0 
L 628 0 
L 628 4666 
z
" transform="scale(0.015625)"/>
       <path id="DejaVuSans-57" d="M 1172 4494 
L 1172 3500 
L 2356 3500 
L 2356 3053 
L 1172 3053 
L 1172 1153 
Q 1172 725 1289 603 
Q 1406 481 1766 481 
L 2356 481 
L 2356 0 
L 1766 0 
Q 1100 0 847 248 
Q 594 497 594 1153 
L 594 3053 
L 172 3053 
L 172 3500 
L 594 3500 
L 594 4494 
L 1172 4494 
z
" transform="scale(0.015625)"/>
       <path id="DejaVuSans-55" d="M 2631 2963 
Q 2534 3019 2420 3045 
Q 2306 3072 2169 3072 
Q 1681 3072 1420 2755 
Q 1159 2438 1159 1844 
L 1159 0 
L 581 0 
L 581 3500 
L 1159 3500 
L 1159 2956 
Q 1341 3275 1631 3429 
Q 1922 3584 2338 3584 
Q 2397 3584 2469 3576 
Q 2541 3569 2628 3553 
L 2631 2963 
z
" transform="scale(0.015625)"/>
       <path id="DejaVuSans-56" d="M 2834 3397 
L 2834 2853 
Q 2591 2978 2328 3040 
Q 2066 3103 1784 3103 
Q 1356 3103 1142 2972 
Q 928 2841 928 2578 
Q 928 2378 1081 2264 
Q 1234 2150 1697 2047 
L 1894 2003 
Q 2506 1872 2764 1633 
Q 3022 1394 3022 966 
Q 3022 478 2636 193 
Q 2250 -91 1575 -91 
Q 1294 -91 989 -36 
Q 684 19 347 128 
L 347 722 
Q 666 556 975 473 
Q 1284 391 1588 391 
Q 1994 391 2212 530 
Q 2431 669 2431 922 
Q 2431 1156 2273 1281 
Q 2116 1406 1581 1522 
L 1381 1569 
Q 847 1681 609 1914 
Q 372 2147 372 2553 
Q 372 3047 722 3315 
Q 1072 3584 1716 3584 
Q 2034 3584 2315 3537 
Q 2597 3491 2834 3397 
z
" transform="scale(0.015625)"/>
       <path id="DejaVuSans-c" d="M 513 4856 
L 1013 4856 
Q 1481 4119 1714 3412 
Q 1947 2706 1947 2009 
Q 1947 1309 1714 600 
Q 1481 -109 1013 -844 
L 513 -844 
Q 928 -128 1133 580 
Q 1338 1288 1338 2009 
Q 1338 2731 1133 3434 
Q 928 4138 513 4856 
z
" transform="scale(0.015625)"/>
       <path id="NotoNaskhArabic-Regular-145" d="M 6 0 
Q -51 0 -51 58 
L -51 429 
Q -51 486 6 486 
Q 186 486 320 492 
Q 454 499 557 512 
Q 320 774 320 1062 
Q 320 1171 339 1308 
Q 358 1446 384 1564 
Q 410 1683 435 1728 
Q 602 2029 870 2211 
Q 1139 2394 1446 2394 
Q 1613 2394 1766 2234 
Q 1920 2074 2016 1798 
Q 2118 1530 2118 1248 
Q 2118 845 1843 518 
Q 1946 506 2118 496 
Q 2291 486 2528 486 
Q 2586 486 2586 435 
L 2586 51 
Q 2586 0 2528 0 
Q 1734 0 1216 205 
Q 998 96 707 48 
Q 416 0 6 0 
z
M 1216 659 
Q 1581 794 1869 1050 
Q 1850 1210 1763 1402 
Q 1677 1594 1568 1722 
Q 1453 1850 1389 1850 
Q 1267 1850 1113 1750 
Q 960 1651 809 1484 
Q 659 1318 557 1120 
Q 826 813 1216 659 
z
M 1292 2771 
Q 1011 2982 832 3187 
Q 1158 3514 1280 3654 
Q 1382 3546 1487 3440 
Q 1593 3334 1702 3238 
Q 1555 3027 1292 2771 
z
" transform="scale(0.015625)"/>
       <path id="NotoNaskhArabic-Regular-4" d="M 1677 0 
Q 1299 0 1049 150 
Q 800 301 768 557 
Q 742 787 713 1072 
Q 685 1357 653 1747 
Q 621 2138 579 2672 
Q 538 3206 486 3936 
Q 576 4026 685 4118 
Q 794 4211 922 4294 
Q 941 3795 953 3308 
Q 966 2822 976 2281 
Q 986 1741 992 1082 
L 1011 653 
Q 1312 486 1677 486 
Q 1728 486 1728 435 
L 1728 51 
Q 1728 0 1677 0 
z
" transform="scale(0.015625)"/>
       <path id="NotoNaskhArabic-Regular-245" d="M 0 0 
Q -51 0 -51 51 
L -51 435 
Q -51 486 0 486 
Q 294 486 598 553 
Q 902 621 1133 723 
Q 1088 870 1030 1046 
Q 973 1222 902 1427 
Q 781 1747 781 1856 
Q 781 1997 893 2144 
Q 1005 2291 1197 2394 
Q 1210 2304 1248 2121 
Q 1286 1939 1344 1658 
Q 1440 1235 1440 1005 
Q 1440 909 1379 733 
Q 1318 557 1210 352 
Q 627 0 0 0 
z
M 393 2593 
L 373 2867 
L 654 3022 
Q 393 3065 393 3304 
Q 393 3438 470 3564 
Q 548 3691 671 3775 
Q 795 3860 915 3860 
Q 1190 3860 1190 3600 
Q 1190 3501 1140 3409 
L 1006 3445 
L 1014 3473 
Q 1014 3508 985 3536 
Q 957 3565 921 3565 
Q 809 3565 721 3484 
Q 633 3403 591 3297 
Q 710 3156 929 3156 
Q 1056 3156 1273 3198 
L 1260 2931 
Q 971 2861 784 2783 
Q 598 2705 393 2593 
z
" transform="scale(0.015625)"/>
       <path id="NotoNaskhArabic-Regular-b6" d="M 998 0 
Q 218 0 218 403 
Q 218 621 333 742 
Q 493 614 697 550 
Q 902 486 1203 486 
Q 1606 486 2086 621 
Q 1926 909 1795 1209 
Q 1664 1510 1587 1760 
Q 1510 2010 1510 2125 
Q 1510 2445 1850 2547 
Q 1997 2003 2144 1564 
Q 2291 1126 2509 819 
Q 2637 634 2771 560 
Q 2906 486 3085 486 
Q 3142 486 3142 435 
L 3142 51 
Q 3142 0 3085 0 
Q 2829 0 2633 86 
Q 2438 173 2291 333 
Q 1709 0 998 0 
z
" transform="scale(0.015625)"/>
       <path id="NotoNaskhArabic-Regular-214" d="M 1216 0 
Q 864 0 649 211 
Q 435 422 435 806 
Q 435 1107 585 1408 
Q 736 1709 1069 2022 
Q 966 2080 937 2157 
Q 909 2234 909 2304 
Q 909 2406 957 2496 
Q 1005 2586 1075 2611 
Q 1363 2509 1638 2272 
Q 1914 2035 2099 1709 
Q 2285 1389 2285 1126 
Q 2285 1030 2243 889 
Q 2202 749 2134 601 
Q 2067 454 1993 339 
Q 1920 224 1850 179 
Q 1587 0 1216 0 
z
M 1286 512 
Q 1459 512 1664 605 
Q 1869 698 1971 794 
Q 1837 1427 1248 1882 
Q 1011 1664 870 1421 
Q 730 1178 730 992 
Q 730 768 877 640 
Q 1024 512 1286 512 
z
M 1683 2995 
Q 1542 3104 1436 3203 
Q 1331 3302 1261 3392 
Q 1293 3424 1395 3533 
Q 1497 3642 1670 3821 
Q 1709 3782 1808 3686 
Q 1907 3590 2067 3437 
Q 1945 3245 1683 2995 
z
M 723 2906 
Q 582 3021 473 3120 
Q 365 3219 294 3296 
Q 461 3456 710 3731 
Q 749 3686 845 3590 
Q 941 3494 1101 3347 
Q 1043 3251 947 3142 
Q 851 3034 723 2906 
z
" transform="scale(0.015625)"/>
       <path id="NotoNaskhArabic-Regular-1e4" d="M 2016 0 
Q 1414 0 902 192 
Q 595 77 400 38 
Q 205 0 0 0 
Q -51 0 -51 51 
L -51 435 
Q -51 486 0 486 
Q 109 486 211 505 
Q 314 525 416 550 
Q 371 640 371 749 
Q 371 928 460 1152 
Q 550 1376 700 1590 
Q 851 1805 1037 1952 
Q 1318 2176 1568 2176 
Q 1677 2176 1760 2051 
Q 1843 1926 1926 1734 
Q 1971 1645 2009 1542 
Q 2048 1440 2086 1331 
Q 2163 1114 2252 928 
Q 2342 742 2445 614 
Q 2554 486 2682 486 
Q 2752 486 2752 422 
L 2752 70 
Q 2752 0 2682 0 
Q 2362 0 2099 282 
L 2016 0 
z
M 1978 442 
Q 1837 646 1728 979 
Q 1619 1312 1581 1683 
Q 1421 1613 1241 1475 
Q 1062 1338 918 1178 
Q 774 1018 704 877 
Q 1133 525 1978 442 
z
" transform="scale(0.015625)"/>
       <path id="NotoNaskhArabic-Regular-37" d="M 0 0 
Q -51 0 -51 51 
L -51 435 
Q -51 486 0 486 
Q 397 486 672 521 
Q 947 557 1062 640 
Q 1133 685 1229 841 
Q 1325 998 1510 1350 
Q 1568 1459 1709 1459 
Q 1786 1459 1869 1408 
Q 1830 1312 1763 1161 
Q 1696 1011 1638 883 
Q 1581 755 1555 730 
Q 1773 595 1958 540 
Q 2144 486 2362 486 
Q 2413 486 2413 435 
L 2413 51 
Q 2413 0 2362 0 
Q 1766 0 1350 371 
L 1248 237 
Q 1203 192 1001 134 
Q 800 77 528 38 
Q 256 0 0 0 
z
M 1728 2035 
Q 1587 2144 1481 2243 
Q 1376 2342 1306 2432 
Q 1338 2464 1440 2573 
Q 1542 2682 1715 2861 
Q 1754 2822 1853 2726 
Q 1952 2630 2112 2477 
Q 1990 2285 1728 2035 
z
M 768 1946 
Q 627 2061 518 2160 
Q 410 2259 339 2336 
Q 506 2496 755 2771 
Q 794 2726 890 2630 
Q 986 2534 1146 2387 
Q 1088 2291 992 2182 
Q 896 2074 768 1946 
z
" transform="scale(0.015625)"/>
       <path id="NotoNaskhArabic-Regular-219" d="M 1235 -1299 
Q 1101 -1299 905 -1238 
Q 710 -1178 521 -1082 
Q 333 -986 218 -890 
L 307 -678 
Q 646 -800 1088 -800 
Q 1485 -800 1792 -605 
Q 2099 -410 2310 6 
Q 1997 19 1763 44 
Q 1530 70 1376 115 
Q 1037 205 902 374 
Q 768 544 768 877 
Q 768 1203 899 1523 
Q 1030 1843 1242 2035 
Q 1453 2227 1670 2227 
Q 1933 2227 2163 1990 
Q 2394 1754 2534 1338 
Q 2605 1126 2637 918 
Q 2669 710 2669 486 
L 3053 486 
Q 3104 486 3104 435 
L 3104 51 
Q 3104 0 3053 0 
L 2605 0 
Q 2509 -365 2304 -669 
Q 2099 -973 1818 -1139 
Q 1542 -1299 1235 -1299 
z
M 2413 493 
Q 2362 826 2234 1094 
Q 2106 1363 1933 1523 
Q 1760 1683 1574 1683 
Q 1440 1683 1309 1580 
Q 1178 1478 1094 1331 
Q 1011 1184 1011 1062 
Q 1011 838 1177 720 
Q 1344 602 1632 550 
Q 1779 525 1968 515 
Q 2157 506 2413 493 
z
" transform="scale(0.015625)"/>
       <path id="NotoNaskhArabic-Regular-8c" d="M 0 0 
Q -51 0 -51 51 
L -51 435 
Q -51 486 0 486 
Q 474 486 842 528 
Q 1210 570 1478 653 
Q 1907 800 2115 867 
Q 2323 934 2477 960 
Q 2227 1082 1984 1280 
Q 1728 1485 1565 1561 
Q 1402 1638 1235 1638 
Q 1037 1638 902 1587 
Q 768 1536 531 1389 
Q 442 1491 442 1638 
Q 442 1882 653 2029 
Q 864 2176 1210 2176 
Q 1414 2176 1622 2089 
Q 1830 2003 2106 1798 
Q 2445 1555 2678 1430 
Q 2912 1306 3149 1254 
Q 3392 1197 3853 1197 
L 3603 730 
Q 3501 742 3369 752 
Q 3238 762 3091 762 
Q 2944 762 2813 736 
Q 2682 710 2506 633 
Q 2330 557 2042 410 
Q 1805 288 1603 208 
Q 1402 128 1181 83 
Q 960 38 678 19 
Q 397 0 0 0 
z
" transform="scale(0.015625)"/>
       <path id="NotoNaskhArabic-Regular-215" d="M 3040 0 
Q 2656 0 2416 147 
Q 2176 294 2138 557 
L 2112 691 
L 1882 250 
Q 1651 275 1520 291 
Q 1389 307 1305 332 
Q 1222 358 1126 397 
Q 1011 442 873 515 
Q 736 589 633 675 
Q 531 762 531 838 
Q 531 896 572 1014 
Q 614 1133 668 1251 
Q 723 1370 762 1434 
Q 813 1523 922 1632 
Q 1088 1792 1344 1955 
Q 1600 2118 1875 2227 
L 1850 2400 
Q 2074 2598 2317 2733 
Q 2330 2214 2349 1696 
Q 2368 1178 2374 659 
Q 2675 486 3040 486 
Q 3098 486 3098 435 
L 3098 51 
Q 3098 0 3040 0 
z
M 2099 768 
Q 2061 1018 2019 1283 
Q 1978 1549 1933 1811 
Q 1171 1555 845 1139 
Q 1018 986 1219 909 
Q 1421 832 1645 800 
Q 1754 787 1869 780 
Q 1984 774 2099 768 
z
M 2067 2995 
Q 1926 3104 1820 3203 
Q 1715 3302 1645 3392 
Q 1677 3424 1779 3533 
Q 1881 3642 2054 3821 
Q 2093 3782 2192 3686 
Q 2291 3590 2451 3437 
Q 2329 3245 2067 2995 
z
M 1107 2906 
Q 966 3021 857 3120 
Q 749 3219 678 3296 
Q 845 3456 1094 3731 
Q 1133 3686 1229 3590 
Q 1325 3494 1485 3347 
Q 1427 3251 1331 3142 
Q 1235 3034 1107 2906 
z
" transform="scale(0.015625)"/>
      </defs>
      <use xlink:href="#DejaVuSans-b"/>
      <use xlink:href="#DejaVuSans-32" transform="translate(39.015625 0)"/>
      <use xlink:href="#DejaVuSans-53" transform="translate(117.734375 0)"/>
      <use xlink:href="#DejaVuSans-48" transform="translate(181.21875 0)"/>
      <use xlink:href="#DejaVuSans-51" transform="translate(242.75 0)"/>
      <use xlink:href="#NotoNaskhArabic-Regular-554" transform="translate(306.125 0)"/>
      <use xlink:href="#DejaVuSans-2c" transform="translate(328.21875 0)"/>
      <use xlink:href="#DejaVuSans-51" transform="translate(357.71875 0)"/>
      <use xlink:href="#DejaVuSans-57" transform="translate(421.09375 0)"/>
      <use xlink:href="#DejaVuSans-48" transform="translate(460.296875 0)"/>
      <use xlink:href="#DejaVuSans-55" transform="translate(521.828125 0)"/>
      <use xlink:href="#DejaVuSans-48" transform="translate(560.734375 0)"/>
      <use xlink:href="#DejaVuSans-56" transform="translate(622.265625 0)"/>
      <use xlink:href="#DejaVuSans-57" transform="translate(674.359375 0)"/>
      <use xlink:href="#DejaVuSans-c" transform="translate(713.5625 0)"/>
      <use xlink:href="#NotoNaskhArabic-Regular-554" transform="translate(752.578125 0)"/>
      <use xlink:href="#NotoNaskhArabic-Regular-3" transform="translate(774.671875 0)"/>
      <use xlink:href="#NotoNaskhArabic-Regular-1c1" transform="translate(798.46875 0)"/>
      <use xlink:href="#NotoNaskhArabic-Regular-145" transform="translate(819.671875 0)"/>
      <use xlink:href="#NotoNaskhArabic-Regular-4" transform="translate(858.375 0)"/>
      <use xlink:href="#NotoNaskhArabic-Regular-245" transform="translate(883.671875 0)"/>
      <use xlink:href="#NotoNaskhArabic-Regular-b6" transform="translate(911.171875 0)"/>
      <use xlink:href="#NotoNaskhArabic-Regular-214" transform="translate(958.578125 0)"/>
      <use xlink:href="#NotoNaskhArabic-Regular-554" transform="translate(999.375 0)"/>
      <use xlink:href="#NotoNaskhArabic-Regular-3" transform="translate(1021.46875 0)"/>
      <use xlink:href="#NotoNaskhArabic-Regular-1c1" transform="translate(1045.265625 0)"/>
      <use xlink:href="#NotoNaskhArabic-Regular-1e4" transform="translate(1066.46875 0)"/>
      <use xlink:href="#NotoNaskhArabic-Regular-145" transform="translate(1107.765625 0)"/>
      <use xlink:href="#NotoNaskhArabic-Regular-37" transform="translate(1146.46875 0)"/>
      <use xlink:href="#NotoNaskhArabic-Regular-219" transform="translate(1182.46875 0)"/>
      <use xlink:href="#NotoNaskhArabic-Regular-8c" transform="translate(1229.265625 0)"/>
      <use xlink:href="#NotoNaskhArabic-Regular-215" transform="translate(1292.859375 0)"/>
     </g>
    </g>
   </g>
   <g id="line2d_60">
    <path d="M 85.608776 346.206844 
L 103.196336 342.813439 
L 120.783897 340.189899 
L 138.371458 335.56978 
L 155.959019 332.591438 
L 173.546579 325.474384 
L 191.13414 323.163836 
L 208.721701 320.783954 
L 226.309261 318.956812 
L 243.896822 314.038298 
L 261.484383 311.936298 
L 279.071944 305.821422 
L 296.659504 303.040255 
L 314.247065 297.509277 
L 331.834626 289.855183 
L 349.422187 287.060654 
L 367.009747 288.45569 
L 384.597308 283.108671 
L 402.184869 277.7643 
L 419.77243 273.668337 
L 437.35999 269.459765 
L 454.947551 263.142106 
L 472.535112 261.886812 
L 490.122673 257.743817 
L 507.710233 250.253503 
L 525.297794 247.083518 
L 542.885355 243.007958 
L 560.472915 238.984681 
L 578.060476 232.887166 
L 595.648037 231.567373 
" clip-path="url(#p00333b33e0)" style="fill: none; stroke: #b7791f; stroke-width: 2; stroke-linecap: square"/>
   </g>
   <g id="patch_36">
    <path d="M 60.106813 358.232964 
L 60.106813 225.535678 
" style="fill: none; stroke: #1f2937; stroke-width: 0.8; stroke-linejoin: miter; stroke-linecap: square"/>
   </g>
   <g id="patch_37">
    <path d="M 60.106812 358.232964 
L 621.15 358.232964 
" style="fill: none; stroke: #1f2937; stroke-width: 0.8; stroke-linejoin: miter; stroke-linecap: square"/>
   </g>
  </g>
 </g>
 <defs>
  <clipPath id="p501571fb0e">
   <rect x="60.106813" y="8.453124" width="561.043187" height="212.315658"/>
  </clipPath>
  <clipPath id="p00333b33e0">
   <rect x="60.106813" y="225.535678" width="561.043187" height="132.697286"/>
  </clipPath>
 </defs>
</svg>
