<?xml version="1.0" encoding="utf-8" standalone="no"?>
<!DOCTYPE svg PUBLIC "-//W3C//DTD SVG 1.1//EN"
  "http://www.w3.org/Graphics/SVG/1.1/DTD/svg11.dtd">
<svg xmlns:xlink="http://www.w3.org/1999/xlink" width="628.35pt" height="340.35pt" viewBox="0 0 628.35 340.35" xmlns="http://www.w3.org/2000/svg" version="1.1">
 <metadata>
  <rdf:RDF xmlns:dc="http://purl.org/dc/elements/1.1/" xmlns:cc="http://creativecommons.org/ns#" xmlns:rdf="http://www.w3.org/1999/02/22-rdf-syntax-ns#">
   <cc:Work>
    <dc:type rdf:resource="http://purl.org/dc/dcmitype/StillImage"/>
    <dc:date>2026-07-18T23:22:44.942954</dc:date>
    <dc:format>image/svg+xml</dc:format>
    <dc:creator>
     <cc:Agent>
      <dc:title>Matplotlib v3.11.1, https://matplotlib.org/</dc:title>
     </cc:Agent>
    </dc:creator>
   </cc:Work>
  </rdf:RDF>
 </metadata>
 <defs>
  <style type="text/css">*{stroke-linejoin: round; stroke-linecap: butt}</style>
 </defs>
 <g id="figure_1">
  <g id="patch_1">
   <path d="M 0 340.35 
L 628.35 340.35 
L 628.35 0 
L 0 0 
z
" style="fill: #ffffff"/>
  </g>
  <g id="axes_1">
   <g id="patch_2">
    <path d="M 57.248984 308.12 
L 621.15 308.12 
L 621.15 7.2 
L 57.248984 7.2 
z
" style="fill: #ffffff"/>
   </g>
   <g id="matplotlib.axis_1">
    <g id="text_1">
     <!-- ﻦﻣﺰﻟﺍ -->
     <g style="fill: #1f2937" transform="translate(329.724492 326.81) scale(0.1 -0.1)">
      <defs>
       <path id="NotoNaskhArabic-Regular-3" d="M 666 0 
Q 646 1126 604 2057 
Q 563 2989 493 3725 
Q 467 3987 566 4118 
Q 666 4250 915 4294 
Q 941 4173 1001 3965 
Q 1062 3757 1139 3533 
L 966 3386 
Q 992 2912 1001 2413 
Q 1011 1914 1001 1338 
Q 992 762 960 51 
L 666 0 
z
" transform="scale(0.015625)"/>
       <path id="NotoNaskhArabic-Regular-1c1" d="M -6 0 
Q -64 0 -64 51 
L -64 435 
Q -64 486 -6 486 
Q 378 486 704 659 
Q 685 902 665 1139 
Q 646 1376 627 1606 
Q 570 2208 512 2790 
Q 454 3373 384 3936 
Q 474 4032 579 4121 
Q 685 4211 806 4294 
Q 826 3949 851 3497 
Q 877 3046 915 2483 
Q 947 2016 960 1609 
Q 973 1203 979 864 
Q 979 755 915 572 
Q 851 390 755 224 
Q 640 0 -6 0 
z
" transform="scale(0.015625)"/>
       <path id="NotoNaskhArabic-Regular-d6" d="M 710 -1306 
Q 608 -1306 451 -1248 
Q 294 -1190 134 -1107 
Q -26 -1024 -128 -947 
L -45 -736 
Q 134 -768 284 -787 
Q 435 -806 563 -806 
Q 1043 -806 1385 -518 
Q 1728 -230 1907 314 
Q 1862 416 1814 515 
Q 1766 614 1709 717 
Q 1491 1107 1388 1340 
Q 1286 1574 1286 1734 
Q 1286 1901 1382 2000 
Q 1478 2099 1658 2182 
Q 1683 2099 1712 2000 
Q 1741 1901 1786 1792 
Q 1888 1530 1955 1334 
Q 2022 1139 2054 1018 
Q 2093 896 2115 797 
Q 2138 698 2144 614 
Q 2362 486 2643 486 
Q 2694 486 2694 435 
L 2694 51 
Q 2694 0 2643 0 
Q 2342 0 2118 154 
Q 2048 -288 1849 -617 
Q 1651 -947 1356 -1126 
Q 1062 -1306 710 -1306 
z
M 1299 2560 
Q 1018 2771 839 2976 
Q 1165 3303 1287 3443 
Q 1389 3335 1494 3229 
Q 1600 3123 1709 3027 
Q 1562 2816 1299 2560 
z
" transform="scale(0.015625)"/>
       <path id="NotoNaskhArabic-Regular-1e5" d="M 2291 0 
Q 2035 0 1753 48 
Q 1472 96 1209 182 
Q 947 269 749 384 
Q 602 179 422 89 
Q 243 0 0 0 
Q -51 0 -51 51 
L -51 435 
Q -51 486 0 486 
Q 243 486 409 604 
Q 576 723 698 960 
Q 813 1171 880 1308 
Q 947 1446 1004 1555 
Q 1062 1664 1152 1779 
Q 1312 1990 1478 2083 
Q 1645 2176 1830 2176 
Q 2016 2176 2201 1945 
Q 2387 1715 2502 1357 
Q 2618 1005 2618 666 
Q 2618 467 2547 307 
Q 2477 147 2291 0 
z
M 2150 486 
Q 2144 781 2061 1065 
Q 1978 1350 1875 1498 
Q 1805 1606 1728 1606 
Q 1491 1606 1286 1318 
Q 1235 1242 1161 1117 
Q 1088 992 998 806 
Q 1459 563 2150 486 
z
" transform="scale(0.015625)"/>
       <path id="NotoNaskhArabic-Regular-1e8" d="M 1594 -1677 
Q 1050 -1677 742 -1363 
Q 435 -1050 435 -474 
Q 435 -346 444 -237 
Q 454 -128 480 9 
Q 506 147 557 358 
L 794 301 
Q 723 6 723 -154 
Q 723 -621 956 -883 
Q 1190 -1146 1606 -1146 
Q 1926 -1146 2249 -1040 
Q 2573 -934 2829 -752 
Q 3085 -570 3187 -346 
Q 2976 109 2873 416 
Q 2771 723 2771 877 
Q 2771 1043 2864 1174 
Q 2957 1306 3187 1446 
Q 3200 1344 3235 1133 
Q 3270 922 3334 595 
Q 3565 486 3802 486 
Q 3859 486 3859 435 
L 3859 51 
Q 3859 0 3802 0 
Q 3590 0 3418 77 
L 3424 -109 
Q 3424 -499 3174 -860 
Q 2925 -1222 2490 -1446 
Q 2061 -1677 1594 -1677 
z
M 1766 1504 
Q 1485 1715 1306 1920 
Q 1632 2247 1754 2387 
Q 1856 2279 1961 2173 
Q 2067 2067 2176 1971 
Q 2029 1760 1766 1504 
z
" transform="scale(0.015625)"/>
      </defs>
      <use xlink:href="#NotoNaskhArabic-Regular-3"/>
      <use xlink:href="#NotoNaskhArabic-Regular-1c1" transform="translate(23.796875 0)"/>
      <use xlink:href="#NotoNaskhArabic-Regular-d6" transform="translate(45 0)"/>
      <use xlink:href="#NotoNaskhArabic-Regular-1e5" transform="translate(85.40625 0)"/>
      <use xlink:href="#NotoNaskhArabic-Regular-1e8" transform="translate(131 0)"/>
     </g>
    </g>
   </g>
   <g id="matplotlib.axis_2">
    <g id="ytick_1">
     <g id="line2d_1">
      <path d="M 57.248984 271.89575 
L 621.15 271.89575 
" clip-path="url(#pa39114dc9f)" style="fill: none; stroke: #e6e1d6; stroke-width: 0.8; stroke-linecap: square"/>
     </g>
     <g id="line2d_2">
      <defs>
       <path id="m56db7bbe16" d="M 0 0 
L -3.5 0 
" style="stroke: #555555; stroke-width: 0.8"/>
      </defs>
      <g>
       <use xlink:href="#m56db7bbe16" x="57.248984" y="271.89575" style="fill: #555555; stroke: #555555; stroke-width: 0.8"/>
      </g>
     </g>
     <g id="text_2">
      <!-- 100 -->
      <g style="fill: #555555" transform="translate(32.23 277.508) scale(0.105 -0.105)">
       <defs>
        <path id="NotoNaskhArabic-Regular-4cd" d="M 1722 0 
L 1722 3194 
Q 1722 3405 1728 3603 
Q 1734 3802 1747 3981 
Q 1702 3936 1657 3891 
Q 1613 3846 1562 3808 
Q 1402 3674 1226 3530 
Q 1050 3386 864 3232 
L 570 3610 
L 1805 4570 
L 2272 4570 
L 2272 0 
L 1722 0 
z
" transform="scale(0.015625)"/>
        <path id="NotoNaskhArabic-Regular-4cc" d="M 1824 -64 
Q 1082 -64 698 534 
Q 314 1133 314 2291 
Q 314 3488 682 4064 
Q 1050 4640 1824 4640 
Q 2566 4640 2956 4038 
Q 3347 3437 3347 2291 
Q 3347 1101 2969 518 
Q 2592 -64 1824 -64 
z
M 1824 416 
Q 2208 416 2426 678 
Q 2778 1094 2778 2291 
Q 2778 3571 2368 3962 
Q 2163 4160 1824 4160 
Q 1427 4160 1203 3878 
Q 877 3469 877 2291 
Q 877 1075 1229 666 
Q 1440 416 1824 416 
z
" transform="scale(0.015625)"/>
       </defs>
       <use xlink:href="#NotoNaskhArabic-Regular-4cd"/>
       <use xlink:href="#NotoNaskhArabic-Regular-4cc" transform="translate(57.203125 0)"/>
       <use xlink:href="#NotoNaskhArabic-Regular-4cc" transform="translate(114.40625 0)"/>
      </g>
     </g>
    </g>
    <g id="ytick_2">
     <g id="line2d_3">
      <path d="M 57.248984 232.089893 
L 621.15 232.089893 
" clip-path="url(#pa39114dc9f)" style="fill: none; stroke: #e6e1d6; stroke-width: 0.8; stroke-linecap: square"/>
     </g>
     <g id="line2d_4">
      <g>
       <use xlink:href="#m56db7bbe16" x="57.248984" y="232.089893" style="fill: #555555; stroke: #555555; stroke-width: 0.8"/>
      </g>
     </g>
     <g id="text_3">
      <!-- 102 -->
      <g style="fill: #555555" transform="translate(32.23 237.702143) scale(0.105 -0.105)">
       <defs>
        <path id="NotoNaskhArabic-Regular-4ce" d="M 307 0 
L 307 467 
L 1504 1677 
Q 1773 1952 1952 2147 
Q 2131 2342 2221 2458 
Q 2413 2720 2489 2925 
Q 2566 3130 2566 3386 
Q 2566 3744 2352 3949 
Q 2138 4154 1760 4154 
Q 1478 4154 1228 4058 
Q 979 3962 659 3718 
L 358 4096 
Q 1005 4634 1760 4634 
Q 2240 4634 2576 4448 
Q 2912 4262 3053 3923 
Q 3142 3686 3142 3418 
Q 3142 3123 3033 2841 
Q 2925 2560 2707 2272 
Q 2598 2131 2416 1929 
Q 2234 1728 1971 1478 
L 1018 538 
L 1018 512 
L 3328 512 
L 3328 0 
L 307 0 
z
" transform="scale(0.015625)"/>
       </defs>
       <use xlink:href="#NotoNaskhArabic-Regular-4cd"/>
       <use xlink:href="#NotoNaskhArabic-Regular-4cc" transform="translate(57.203125 0)"/>
       <use xlink:href="#NotoNaskhArabic-Regular-4ce" transform="translate(114.40625 0)"/>
      </g>
     </g>
    </g>
    <g id="ytick_3">
     <g id="line2d_5">
      <path d="M 57.248984 192.284037 
L 621.15 192.284037 
" clip-path="url(#pa39114dc9f)" style="fill: none; stroke: #e6e1d6; stroke-width: 0.8; stroke-linecap: square"/>
     </g>
     <g id="line2d_6">
      <g>
       <use xlink:href="#m56db7bbe16" x="57.248984" y="192.284037" style="fill: #555555; stroke: #555555; stroke-width: 0.8"/>
      </g>
     </g>
     <g id="text_4">
      <!-- 104 -->
      <g style="fill: #555555" transform="translate(32.23 197.896287) scale(0.105 -0.105)">
       <defs>
        <path id="NotoNaskhArabic-Regular-4d0" d="M 2323 0 
L 2323 1037 
L 134 1037 
L 134 1517 
L 2285 4595 
L 2867 4595 
L 2867 1542 
L 3533 1542 
L 3533 1037 
L 2867 1037 
L 2867 0 
L 2323 0 
z
M 685 1542 
L 2323 1542 
L 2323 2982 
Q 2323 3194 2332 3446 
Q 2342 3699 2355 3994 
L 2330 3994 
Q 2298 3910 2211 3747 
Q 2125 3584 2054 3494 
L 685 1542 
z
" transform="scale(0.015625)"/>
       </defs>
       <use xlink:href="#NotoNaskhArabic-Regular-4cd"/>
       <use xlink:href="#NotoNaskhArabic-Regular-4cc" transform="translate(57.203125 0)"/>
       <use xlink:href="#NotoNaskhArabic-Regular-4d0" transform="translate(114.40625 0)"/>
      </g>
     </g>
    </g>
    <g id="ytick_4">
     <g id="line2d_7">
      <path d="M 57.248984 152.47818 
L 621.15 152.47818 
" clip-path="url(#pa39114dc9f)" style="fill: none; stroke: #e6e1d6; stroke-width: 0.8; stroke-linecap: square"/>
     </g>
     <g id="line2d_8">
      <g>
       <use xlink:href="#m56db7bbe16" x="57.248984" y="152.47818" style="fill: #555555; stroke: #555555; stroke-width: 0.8"/>
      </g>
     </g>
     <g id="text_5">
      <!-- 106 -->
      <g style="fill: #555555" transform="translate(32.23 158.09043) scale(0.105 -0.105)">
       <defs>
        <path id="NotoNaskhArabic-Regular-4d2" d="M 1907 -64 
Q 1440 -64 1088 176 
Q 736 416 544 870 
Q 352 1331 352 1952 
Q 352 4634 2445 4634 
Q 2810 4634 3008 4576 
L 3008 4096 
Q 2771 4173 2458 4173 
Q 1984 4173 1654 3987 
Q 1325 3802 1139 3405 
Q 941 2976 915 2323 
L 954 2323 
Q 1299 2861 2035 2861 
Q 2656 2861 3008 2486 
Q 3360 2112 3360 1472 
Q 3360 762 2969 349 
Q 2579 -64 1907 -64 
z
M 1901 410 
Q 2336 410 2569 688 
Q 2803 966 2803 1472 
Q 2803 1926 2576 2172 
Q 2349 2419 1920 2419 
Q 1645 2419 1421 2307 
Q 1197 2195 1056 1997 
Q 922 1798 922 1581 
Q 922 1267 1050 995 
Q 1178 723 1395 563 
Q 1619 410 1901 410 
z
" transform="scale(0.015625)"/>
       </defs>
       <use xlink:href="#NotoNaskhArabic-Regular-4cd"/>
       <use xlink:href="#NotoNaskhArabic-Regular-4cc" transform="translate(57.203125 0)"/>
       <use xlink:href="#NotoNaskhArabic-Regular-4d2" transform="translate(114.40625 0)"/>
      </g>
     </g>
    </g>
    <g id="ytick_5">
     <g id="line2d_9">
      <path d="M 57.248984 112.672323 
L 621.15 112.672323 
" clip-path="url(#pa39114dc9f)" style="fill: none; stroke: #e6e1d6; stroke-width: 0.8; stroke-linecap: square"/>
     </g>
     <g id="line2d_10">
      <g>
       <use xlink:href="#m56db7bbe16" x="57.248984" y="112.672323" style="fill: #555555; stroke: #555555; stroke-width: 0.8"/>
      </g>
     </g>
     <g id="text_6">
      <!-- 108 -->
      <g style="fill: #555555" transform="translate(32.23 118.284573) scale(0.105 -0.105)">
       <defs>
        <path id="NotoNaskhArabic-Regular-4d4" d="M 1843 -64 
Q 1114 -64 714 256 
Q 314 576 314 1165 
Q 314 1946 1261 2387 
Q 832 2630 646 2912 
Q 461 3194 461 3546 
Q 461 4045 832 4339 
Q 1203 4634 1824 4634 
Q 2451 4634 2822 4342 
Q 3194 4051 3194 3539 
Q 3194 3200 2986 2928 
Q 2778 2656 2323 2419 
Q 2874 2150 3107 1856 
Q 3341 1562 3341 1184 
Q 3341 621 2937 278 
Q 2534 -64 1843 -64 
z
M 1850 2637 
Q 2278 2816 2457 3030 
Q 2637 3245 2637 3520 
Q 2637 3834 2416 4006 
Q 2195 4179 1818 4179 
Q 1446 4179 1228 4003 
Q 1011 3827 1011 3520 
Q 1011 3322 1094 3171 
Q 1178 3021 1338 2906 
Q 1498 2784 1850 2637 
z
M 1830 384 
Q 2278 384 2534 595 
Q 2790 806 2790 1178 
Q 2790 1478 2547 1712 
Q 2304 1946 1728 2157 
Q 1280 1965 1072 1728 
Q 864 1491 864 1158 
Q 864 800 1123 592 
Q 1382 384 1830 384 
z
" transform="scale(0.015625)"/>
       </defs>
       <use xlink:href="#NotoNaskhArabic-Regular-4cd"/>
       <use xlink:href="#NotoNaskhArabic-Regular-4cc" transform="translate(57.203125 0)"/>
       <use xlink:href="#NotoNaskhArabic-Regular-4d4" transform="translate(114.40625 0)"/>
      </g>
     </g>
    </g>
    <g id="ytick_6">
     <g id="line2d_11">
      <path d="M 57.248984 72.866466 
L 621.15 72.866466 
" clip-path="url(#pa39114dc9f)" style="fill: none; stroke: #e6e1d6; stroke-width: 0.8; stroke-linecap: square"/>
     </g>
     <g id="line2d_12">
      <g>
       <use xlink:href="#m56db7bbe16" x="57.248984" y="72.866466" style="fill: #555555; stroke: #555555; stroke-width: 0.8"/>
      </g>
     </g>
     <g id="text_7">
      <!-- 110 -->
      <g style="fill: #555555" transform="translate(32.23 78.478716) scale(0.105 -0.105)">
       <use xlink:href="#NotoNaskhArabic-Regular-4cd"/>
       <use xlink:href="#NotoNaskhArabic-Regular-4cd" transform="translate(57.203125 0)"/>
       <use xlink:href="#NotoNaskhArabic-Regular-4cc" transform="translate(114.40625 0)"/>
      </g>
     </g>
    </g>
    <g id="ytick_7">
     <g id="line2d_13">
      <path d="M 57.248984 33.060609 
L 621.15 33.060609 
" clip-path="url(#pa39114dc9f)" style="fill: none; stroke: #e6e1d6; stroke-width: 0.8; stroke-linecap: square"/>
     </g>
     <g id="line2d_14">
      <g>
       <use xlink:href="#m56db7bbe16" x="57.248984" y="33.060609" style="fill: #555555; stroke: #555555; stroke-width: 0.8"/>
      </g>
     </g>
     <g id="text_8">
      <!-- 112 -->
      <g style="fill: #555555" transform="translate(32.23 38.672859) scale(0.105 -0.105)">
       <use xlink:href="#NotoNaskhArabic-Regular-4cd"/>
       <use xlink:href="#NotoNaskhArabic-Regular-4cd" transform="translate(57.203125 0)"/>
       <use xlink:href="#NotoNaskhArabic-Regular-4ce" transform="translate(114.40625 0)"/>
      </g>
     </g>
    </g>
    <g id="text_9">
     <!-- ﺮﻌﺴﻟﺍ -->
     <g style="fill: #1f2937" transform="translate(17.89 167.315469) rotate(-90) scale(0.1 -0.1)">
      <defs>
       <path id="NotoNaskhArabic-Regular-f9" d="M 1446 0 
Q 1267 0 1030 57 
Q 794 115 666 198 
Q 576 109 397 54 
Q 218 0 0 0 
Q -51 0 -51 51 
L -51 435 
Q -51 486 0 486 
Q 326 486 518 634 
Q 627 723 681 809 
Q 736 896 858 1094 
Q 915 1197 1056 1197 
Q 1146 1197 1210 1152 
Q 1114 909 1046 765 
Q 979 621 947 570 
Q 998 544 1155 515 
Q 1312 486 1517 486 
Q 1664 486 1789 505 
Q 1914 525 2016 550 
Q 2061 621 2115 793 
Q 2170 966 2227 1145 
Q 2285 1325 2323 1408 
Q 2381 1536 2432 1574 
Q 2483 1613 2579 1613 
Q 2669 1613 2733 1568 
Q 2688 1466 2608 1235 
Q 2528 1005 2400 582 
Q 2496 538 2566 522 
Q 2637 506 2739 506 
Q 2906 506 3091 570 
Q 3123 608 3168 723 
Q 3213 838 3277 1030 
Q 3328 1190 3385 1331 
Q 3443 1472 3501 1568 
Q 3552 1664 3699 1664 
Q 3789 1664 3853 1619 
Q 3808 1517 3728 1289 
Q 3648 1062 3533 710 
Q 3757 589 3917 537 
Q 4077 486 4294 486 
Q 4352 486 4352 435 
L 4352 51 
Q 4352 0 4294 0 
Q 4045 0 3798 96 
Q 3552 192 3386 346 
Q 3366 301 3347 259 
Q 3328 218 3296 173 
Q 3251 96 3078 48 
Q 2906 0 2733 0 
Q 2438 0 2221 160 
Q 2176 102 2041 67 
Q 1907 32 1744 19 
Q 1581 6 1446 0 
z
" transform="scale(0.015625)"/>
       <path id="NotoNaskhArabic-Regular-135" d="M 6 0 
Q -51 0 -51 58 
L -51 429 
Q -51 486 6 486 
Q 672 486 1101 640 
L 986 787 
Q 864 973 771 1094 
Q 678 1216 621 1280 
Q 506 1427 410 1491 
L 307 1427 
Q 192 1555 192 1709 
Q 192 1862 297 1974 
Q 403 2086 566 2172 
Q 730 2259 902 2310 
Q 1158 2394 1446 2394 
Q 1722 2394 1936 2288 
Q 2150 2182 2272 2003 
Q 2400 1824 2400 1594 
Q 2400 1293 2243 1049 
Q 2086 806 1830 602 
Q 2099 486 2694 486 
Q 2758 486 2758 429 
L 2758 58 
Q 2758 0 2694 0 
Q 2259 0 1955 83 
Q 1651 166 1402 346 
Q 1050 166 723 83 
Q 397 0 6 0 
z
M 1478 845 
Q 1696 992 1821 1152 
Q 1946 1312 1946 1459 
Q 1946 1638 1811 1753 
Q 1677 1869 1466 1869 
Q 1075 1869 710 1677 
Q 947 1491 1325 1018 
Q 1395 934 1478 845 
z
" transform="scale(0.015625)"/>
       <path id="NotoNaskhArabic-Regular-d4" d="M 710 -1306 
Q 608 -1306 451 -1248 
Q 294 -1190 134 -1107 
Q -26 -1024 -128 -947 
L -45 -736 
Q 134 -768 284 -787 
Q 435 -806 563 -806 
Q 1043 -806 1385 -518 
Q 1728 -230 1907 314 
Q 1862 416 1814 515 
Q 1766 614 1709 717 
Q 1491 1107 1388 1340 
Q 1286 1574 1286 1734 
Q 1286 1901 1382 2000 
Q 1478 2099 1658 2182 
Q 1683 2099 1712 2000 
Q 1741 1901 1786 1792 
Q 1888 1530 1955 1334 
Q 2022 1139 2054 1018 
Q 2093 896 2115 797 
Q 2138 698 2144 614 
Q 2362 486 2643 486 
Q 2694 486 2694 435 
L 2694 51 
Q 2694 0 2643 0 
Q 2342 0 2118 154 
Q 2048 -288 1849 -617 
Q 1651 -947 1356 -1126 
Q 1062 -1306 710 -1306 
z
" transform="scale(0.015625)"/>
      </defs>
      <use xlink:href="#NotoNaskhArabic-Regular-3"/>
      <use xlink:href="#NotoNaskhArabic-Regular-1c1" transform="translate(23.796875 0)"/>
      <use xlink:href="#NotoNaskhArabic-Regular-f9" transform="translate(45 0)"/>
      <use xlink:href="#NotoNaskhArabic-Regular-135" transform="translate(111.296875 0)"/>
      <use xlink:href="#NotoNaskhArabic-Regular-d4" transform="translate(152.703125 0)"/>
     </g>
    </g>
   </g>
   <g id="patch_3">
    <path d="M 57.248984 308.12 
L 57.248984 7.2 
" style="fill: none; stroke: #1f2937; stroke-width: 0.8; stroke-linejoin: miter; stroke-linecap: square"/>
   </g>
   <g id="patch_4">
    <path d="M 57.248984 308.12 
L 621.15 308.12 
" style="fill: none; stroke: #1f2937; stroke-width: 0.8; stroke-linejoin: miter; stroke-linecap: square"/>
   </g>
   <g id="line2d_15">
    <path d="M 72.489552 263.434488 
L 72.489552 246.652031 
" clip-path="url(#pa39114dc9f)" style="fill: none; stroke: #b91c1c; stroke-width: 1.1; stroke-linecap: round"/>
   </g>
   <g id="line2d_16">
    <path d="M 87.73012 268.292353 
L 87.73012 238.877519 
" clip-path="url(#pa39114dc9f)" style="fill: none; stroke: #1f8a56; stroke-width: 1.1; stroke-linecap: round"/>
   </g>
   <g id="line2d_17">
    <path d="M 102.970688 242.370889 
L 102.970688 229.828172 
" clip-path="url(#pa39114dc9f)" style="fill: none; stroke: #1f8a56; stroke-width: 1.1; stroke-linecap: round"/>
   </g>
   <g id="line2d_18">
    <path d="M 118.211256 236.953886 
L 118.211256 222.312781 
" clip-path="url(#pa39114dc9f)" style="fill: none; stroke: #1f8a56; stroke-width: 1.1; stroke-linecap: round"/>
   </g>
   <g id="line2d_19">
    <path d="M 133.451824 224.22865 
L 133.451824 206.893578 
" clip-path="url(#pa39114dc9f)" style="fill: none; stroke: #1f8a56; stroke-width: 1.1; stroke-linecap: round"/>
   </g>
   <g id="line2d_20">
    <path d="M 148.692392 208.711177 
L 148.692392 188.461718 
" clip-path="url(#pa39114dc9f)" style="fill: none; stroke: #1f8a56; stroke-width: 1.1; stroke-linecap: round"/>
   </g>
   <g id="line2d_21">
    <path d="M 163.93296 194.341881 
L 163.93296 172.335522 
" clip-path="url(#pa39114dc9f)" style="fill: none; stroke: #1f8a56; stroke-width: 1.1; stroke-linecap: round"/>
   </g>
   <g id="line2d_22">
    <path d="M 179.173528 182.107266 
L 179.173528 173.343547 
" clip-path="url(#pa39114dc9f)" style="fill: none; stroke: #b91c1c; stroke-width: 1.1; stroke-linecap: round"/>
   </g>
   <g id="line2d_23">
    <path d="M 194.414096 180.021629 
L 194.414096 173.102747 
" clip-path="url(#pa39114dc9f)" style="fill: none; stroke: #b91c1c; stroke-width: 1.1; stroke-linecap: round"/>
   </g>
   <g id="line2d_24">
    <path d="M 209.654664 174.984252 
L 209.654664 162.227908 
" clip-path="url(#pa39114dc9f)" style="fill: none; stroke: #1f8a56; stroke-width: 1.1; stroke-linecap: round"/>
   </g>
   <g id="line2d_25">
    <path d="M 224.895232 170.286739 
L 224.895232 146.77209 
" clip-path="url(#pa39114dc9f)" style="fill: none; stroke: #1f8a56; stroke-width: 1.1; stroke-linecap: round"/>
   </g>
   <g id="line2d_26">
    <path d="M 240.1358 152.224317 
L 240.1358 134.017588 
" clip-path="url(#pa39114dc9f)" style="fill: none; stroke: #1f8a56; stroke-width: 1.1; stroke-linecap: round"/>
   </g>
   <g id="line2d_27">
    <path d="M 255.376368 145.097605 
L 255.376368 131.178904 
" clip-path="url(#pa39114dc9f)" style="fill: none; stroke: #1f8a56; stroke-width: 1.1; stroke-linecap: round"/>
   </g>
   <g id="line2d_28">
    <path d="M 270.616936 126.414174 
L 270.616936 115.245529 
" clip-path="url(#pa39114dc9f)" style="fill: none; stroke: #1f8a56; stroke-width: 1.1; stroke-linecap: round"/>
   </g>
   <g id="line2d_29">
    <path d="M 285.857504 139.404201 
L 285.857504 117.526047 
" clip-path="url(#pa39114dc9f)" style="fill: none; stroke: #b91c1c; stroke-width: 1.1; stroke-linecap: round"/>
   </g>
   <g id="line2d_30">
    <path d="M 301.098072 148.190964 
L 301.098072 134.304778 
" clip-path="url(#pa39114dc9f)" style="fill: none; stroke: #b91c1c; stroke-width: 1.1; stroke-linecap: round"/>
   </g>
   <g id="line2d_31">
    <path d="M 316.33864 155.868323 
L 316.33864 147.268022 
" clip-path="url(#pa39114dc9f)" style="fill: none; stroke: #b91c1c; stroke-width: 1.1; stroke-linecap: round"/>
   </g>
   <g id="line2d_32">
    <path d="M 331.579208 181.766405 
L 331.579208 159.137891 
" clip-path="url(#pa39114dc9f)" style="fill: none; stroke: #b91c1c; stroke-width: 1.1; stroke-linecap: round"/>
   </g>
   <g id="line2d_33">
    <path d="M 346.819776 204.012758 
L 346.819776 176.480923 
" clip-path="url(#pa39114dc9f)" style="fill: none; stroke: #b91c1c; stroke-width: 1.1; stroke-linecap: round"/>
   </g>
   <g id="line2d_34">
    <path d="M 362.060344 222.587463 
L 362.060344 199.339777 
" clip-path="url(#pa39114dc9f)" style="fill: none; stroke: #b91c1c; stroke-width: 1.1; stroke-linecap: round"/>
   </g>
   <g id="line2d_35">
    <path d="M 377.300912 221.328457 
L 377.300912 217.899355 
" clip-path="url(#pa39114dc9f)" style="fill: none; stroke: #1f8a56; stroke-width: 1.1; stroke-linecap: round"/>
   </g>
   <g id="line2d_36">
    <path d="M 392.54148 226.787168 
L 392.54148 192.187867 
" clip-path="url(#pa39114dc9f)" style="fill: none; stroke: #1f8a56; stroke-width: 1.1; stroke-linecap: round"/>
   </g>
   <g id="line2d_37">
    <path d="M 407.782048 202.115171 
L 407.782048 184.249084 
" clip-path="url(#pa39114dc9f)" style="fill: none; stroke: #1f8a56; stroke-width: 1.1; stroke-linecap: round"/>
   </g>
   <g id="line2d_38">
    <path d="M 423.022616 189.735416 
L 423.022616 168.081216 
" clip-path="url(#pa39114dc9f)" style="fill: none; stroke: #1f8a56; stroke-width: 1.1; stroke-linecap: round"/>
   </g>
   <g id="line2d_39">
    <path d="M 438.263184 172.600999 
L 438.263184 148.206345 
" clip-path="url(#pa39114dc9f)" style="fill: none; stroke: #1f8a56; stroke-width: 1.1; stroke-linecap: round"/>
   </g>
   <g id="line2d_40">
    <path d="M 453.503752 164.258643 
L 453.503752 150.021275 
" clip-path="url(#pa39114dc9f)" style="fill: none; stroke: #b91c1c; stroke-width: 1.1; stroke-linecap: round"/>
   </g>
   <g id="line2d_41">
    <path d="M 468.74432 165.819197 
L 468.74432 137.618083 
" clip-path="url(#pa39114dc9f)" style="fill: none; stroke: #1f8a56; stroke-width: 1.1; stroke-linecap: round"/>
   </g>
   <g id="line2d_42">
    <path d="M 483.984888 144.142164 
L 483.984888 135.889254 
" clip-path="url(#pa39114dc9f)" style="fill: none; stroke: #1f8a56; stroke-width: 1.1; stroke-linecap: round"/>
   </g>
   <g id="line2d_43">
    <path d="M 499.225456 139.315171 
L 499.225456 134.590339 
" clip-path="url(#pa39114dc9f)" style="fill: none; stroke: #b91c1c; stroke-width: 1.1; stroke-linecap: round"/>
   </g>
   <g id="line2d_44">
    <path d="M 514.466024 132.497924 
L 514.466024 107.93342 
" clip-path="url(#pa39114dc9f)" style="fill: none; stroke: #1f8a56; stroke-width: 1.1; stroke-linecap: round"/>
   </g>
   <g id="line2d_45">
    <path d="M 529.706592 118.335991 
L 529.706592 106.741619 
" clip-path="url(#pa39114dc9f)" style="fill: none; stroke: #b91c1c; stroke-width: 1.1; stroke-linecap: round"/>
   </g>
   <g id="line2d_46">
    <path d="M 544.94716 124.453284 
L 544.94716 114.09319 
" clip-path="url(#pa39114dc9f)" style="fill: none; stroke: #b91c1c; stroke-width: 1.1; stroke-linecap: round"/>
   </g>
   <g id="line2d_47">
    <path d="M 560.187728 122.634474 
L 560.187728 113.371405 
" clip-path="url(#pa39114dc9f)" style="fill: none; stroke: #1f8a56; stroke-width: 1.1; stroke-linecap: round"/>
   </g>
   <g id="line2d_48">
    <path d="M 575.428296 118.155155 
L 575.428296 86.368983 
" clip-path="url(#pa39114dc9f)" style="fill: none; stroke: #1f8a56; stroke-width: 1.1; stroke-linecap: round"/>
   </g>
   <g id="line2d_49">
    <path d="M 590.668864 89.352576 
L 590.668864 61.810024 
" clip-path="url(#pa39114dc9f)" style="fill: none; stroke: #1f8a56; stroke-width: 1.1; stroke-linecap: round"/>
   </g>
   <g id="line2d_50">
    <path d="M 605.909432 66.049444 
L 605.909432 47.027647 
" clip-path="url(#pa39114dc9f)" style="fill: none; stroke: #1f8a56; stroke-width: 1.1; stroke-linecap: round"/>
   </g>
   <g id="text_10">
    <!-- (ﺮﻴﻐﺻ ﺡﺎﺴﺘﻛﺍ) ﺝﺍﺭﺪﺘﺳﺍ -->
    <g style="fill: #b91c1c" transform="translate(290.061786 212.28548) scale(0.09 -0.09)">
     <defs>
      <path id="NotoNaskhArabic-Bold-3" d="M 774 58 
Q 742 717 710 1216 
Q 678 1715 646 2134 
Q 614 2554 576 2950 
Q 538 3347 493 3808 
Q 474 3968 566 4089 
Q 659 4211 822 4281 
Q 986 4352 1178 4352 
Q 1229 4154 1296 3955 
Q 1363 3757 1440 3565 
L 1216 3398 
Q 1229 2867 1222 2035 
Q 1216 1203 1184 109 
L 774 58 
z
" transform="scale(0.015625)"/>
      <path id="NotoNaskhArabic-Bold-fa" d="M 1472 0 
Q 1165 0 736 205 
Q 608 141 406 99 
Q 205 58 0 58 
Q -51 58 -51 109 
L -51 762 
Q -51 813 0 813 
Q 294 813 441 851 
Q 589 890 678 979 
Q 749 1050 806 1142 
Q 864 1235 998 1466 
Q 1037 1536 1110 1581 
Q 1184 1626 1267 1626 
Q 1357 1626 1466 1555 
Q 1363 1286 1286 1091 
Q 1210 896 1158 781 
Q 1331 762 1504 762 
Q 1632 762 1734 778 
Q 1837 794 1965 832 
Q 2010 902 2093 1104 
Q 2176 1306 2317 1696 
Q 2349 1779 2432 1833 
Q 2515 1888 2630 1888 
Q 2765 1888 2854 1818 
Q 2778 1626 2710 1414 
Q 2643 1203 2586 992 
Q 2829 870 3133 806 
Q 3437 742 3782 704 
Q 3584 1094 3443 1376 
Q 3302 1658 3302 1798 
Q 3302 1952 3475 2141 
Q 3648 2330 3885 2451 
Q 3994 1907 4051 1603 
Q 4109 1299 4131 1145 
Q 4154 992 4154 909 
Q 4154 806 4112 633 
Q 4070 461 4006 288 
Q 3942 115 3885 0 
Q 3501 0 3097 89 
Q 2694 179 2355 326 
Q 2317 243 2278 173 
Q 2234 102 1994 51 
Q 1754 0 1472 0 
z
" transform="scale(0.015625)"/>
      <path id="NotoNaskhArabic-Bold-37" d="M 0 58 
Q -51 58 -51 109 
L -51 762 
Q -51 813 0 813 
Q 307 813 566 829 
Q 826 845 992 928 
Q 1120 992 1187 1104 
Q 1254 1216 1357 1421 
Q 1459 1632 1536 1680 
Q 1613 1728 1715 1728 
Q 1869 1728 1971 1638 
Q 1888 1427 1814 1264 
Q 1741 1101 1690 979 
Q 2003 813 2362 813 
Q 2413 813 2413 762 
L 2413 109 
Q 2413 58 2362 58 
Q 1875 58 1434 499 
L 1382 416 
Q 1203 179 883 118 
Q 563 58 0 58 
z
M 1664 2252 
Q 1529 2361 1420 2457 
Q 1312 2553 1222 2649 
Q 1459 2867 1651 3097 
Q 1708 3033 1810 2937 
Q 1913 2841 2054 2700 
Q 1881 2464 1664 2252 
z
M 806 2156 
Q 531 2380 364 2560 
Q 473 2668 582 2780 
Q 691 2892 800 3001 
Q 915 2867 1196 2604 
Q 1036 2374 806 2156 
z
" transform="scale(0.015625)"/>
      <path id="NotoNaskhArabic-Bold-b6" d="M 1075 0 
Q 218 0 218 499 
Q 218 634 272 784 
Q 326 934 410 1018 
Q 570 890 774 826 
Q 979 762 1280 762 
Q 1466 762 1658 784 
Q 1850 806 2048 851 
Q 1798 1286 1648 1673 
Q 1498 2061 1498 2246 
Q 1498 2477 1613 2646 
Q 1728 2816 1946 2880 
Q 2074 2362 2208 1955 
Q 2342 1549 2490 1248 
Q 2611 1005 2758 909 
Q 2906 813 3162 813 
Q 3213 813 3213 762 
L 3213 109 
Q 3213 58 3162 58 
Q 2707 58 2413 352 
Q 1709 0 1075 0 
z
" transform="scale(0.015625)"/>
      <path id="NotoNaskhArabic-Bold-d3" d="M 653 -1248 
Q 544 -1248 304 -1107 
Q 64 -966 -218 -730 
L -115 -461 
Q 243 -550 531 -550 
Q 1005 -550 1331 -313 
Q 1658 -77 1805 371 
Q 1760 467 1705 566 
Q 1651 666 1587 762 
Q 1402 1050 1254 1312 
Q 1107 1574 1107 1779 
Q 1107 1965 1254 2147 
Q 1402 2330 1638 2451 
Q 1677 2317 1731 2137 
Q 1786 1958 1846 1782 
Q 1907 1606 1952 1472 
Q 2035 1235 2089 1004 
Q 2144 774 2144 570 
Q 2144 70 1952 -349 
Q 1760 -768 1421 -1011 
Q 1082 -1248 653 -1248 
z
" transform="scale(0.015625)"/>
      <path id="NotoNaskhArabic-Bold-71" d="M 2387 -1843 
Q 1574 -1843 1123 -1430 
Q 672 -1018 672 -282 
Q 672 134 848 515 
Q 1024 896 1357 1197 
Q 1504 1331 1670 1449 
Q 1837 1568 2035 1664 
Q 1818 1747 1635 1804 
Q 1453 1862 1274 1862 
Q 1088 1862 947 1808 
Q 806 1754 582 1613 
Q 525 1670 480 1782 
Q 435 1894 435 1997 
Q 435 2285 665 2454 
Q 896 2624 1286 2624 
Q 1498 2624 1728 2573 
Q 1958 2522 2310 2394 
Q 2656 2266 2918 2208 
Q 3181 2150 3424 2150 
L 4006 2163 
L 3744 1446 
Q 3661 1434 3517 1427 
Q 3373 1421 3225 1424 
Q 3078 1427 2970 1434 
Q 2758 1402 2508 1312 
Q 2259 1222 2022 1097 
Q 1786 973 1594 819 
Q 1312 595 1155 339 
Q 998 83 998 -186 
Q 998 -474 1177 -678 
Q 1357 -883 1673 -995 
Q 1990 -1107 2400 -1107 
Q 3066 -1107 3942 -909 
L 4032 -1178 
Q 3680 -1376 3353 -1526 
Q 3027 -1677 2774 -1760 
Q 2522 -1843 2387 -1843 
z
M 2471 -454 
Q 2298 -313 2176 -198 
Q 2055 -83 1971 7 
Q 2099 135 2221 259 
Q 2343 384 2458 519 
Q 2624 327 2919 58 
Q 2848 -44 2733 -175 
Q 2618 -307 2471 -454 
z
" transform="scale(0.015625)"/>
      <path id="NotoNaskhArabic-Bold-554" transform="scale(0.015625)"/>
      <path id="DejaVuSans-Bold-b" d="M 2413 -844 
L 1484 -844 
Q 1006 -72 778 623 
Q 550 1319 550 2003 
Q 550 2688 779 3389 
Q 1009 4091 1484 4856 
L 2413 4856 
Q 2013 4116 1813 3408 
Q 1613 2700 1613 2009 
Q 1613 1319 1811 609 
Q 2009 -100 2413 -844 
z
" transform="scale(0.015625)"/>
      <path id="NotoNaskhArabic-Bold-176" d="M 0 58 
Q -51 58 -51 109 
L -51 762 
Q -51 813 0 813 
Q 845 813 1293 870 
Q 1517 896 1680 937 
Q 1843 979 1952 1030 
Q 1882 1178 1731 1347 
Q 1581 1517 1363 1677 
Q 1254 1766 1094 1872 
Q 934 1978 723 2099 
Q 653 2074 557 2074 
Q 378 2074 246 2195 
Q 115 2317 115 2490 
Q 115 2560 134 2688 
Q 154 2816 182 2950 
Q 211 3085 236 3184 
Q 262 3283 282 3290 
Q 685 3494 982 3638 
Q 1280 3782 1526 3894 
Q 1773 4006 2025 4115 
Q 2278 4224 2592 4352 
Q 2720 4224 2720 4026 
Q 2720 3802 2637 3693 
Q 2554 3584 2374 3494 
Q 2074 3347 1795 3228 
Q 1517 3110 1203 3004 
Q 890 2899 474 2784 
Q 947 2662 1363 2390 
Q 1779 2118 2029 1773 
Q 2278 1427 2278 1107 
Q 2278 595 1702 326 
Q 1120 58 0 58 
z
" transform="scale(0.015625)"/>
      <path id="NotoNaskhArabic-Bold-f9" d="M 1472 0 
Q 1165 0 736 205 
Q 608 141 406 99 
Q 205 58 0 58 
Q -51 58 -51 109 
L -51 762 
Q -51 813 0 813 
Q 294 813 441 851 
Q 589 890 678 979 
Q 749 1050 813 1149 
Q 877 1248 998 1466 
Q 1037 1536 1110 1581 
Q 1184 1626 1267 1626 
Q 1357 1626 1466 1555 
Q 1382 1363 1308 1171 
Q 1235 979 1158 781 
Q 1331 762 1504 762 
Q 1632 762 1709 771 
Q 1786 781 1965 832 
Q 2016 909 2096 1107 
Q 2176 1306 2317 1696 
Q 2349 1779 2432 1833 
Q 2515 1888 2630 1888 
Q 2765 1888 2854 1818 
Q 2816 1722 2736 1472 
Q 2656 1222 2509 742 
Q 2554 742 2595 742 
Q 2637 742 2682 736 
Q 2912 736 3142 806 
Q 3162 838 3194 915 
Q 3226 992 3283 1146 
Q 3322 1254 3379 1401 
Q 3437 1549 3507 1747 
Q 3546 1837 3632 1891 
Q 3718 1946 3827 1946 
Q 3942 1946 4045 1875 
Q 4006 1773 3942 1581 
Q 3878 1389 3750 986 
Q 4038 813 4518 813 
Q 4570 813 4570 762 
L 4570 109 
Q 4570 58 4518 58 
Q 4262 58 3993 170 
Q 3725 282 3578 442 
Q 3526 301 3468 201 
Q 3411 102 3226 51 
Q 3034 0 2758 0 
Q 2566 0 2240 141 
Q 2150 77 1923 38 
Q 1696 0 1472 0 
z
" transform="scale(0.015625)"/>
      <path id="NotoNaskhArabic-Bold-4" d="M 1901 58 
Q 1517 58 1283 186 
Q 1050 314 938 528 
Q 826 742 794 1018 
Q 781 1139 749 1424 
Q 717 1709 681 2073 
Q 646 2438 608 2809 
Q 570 3181 538 3481 
Q 506 3782 486 3930 
Q 845 4166 1248 4352 
Q 1274 3635 1296 2918 
Q 1318 2202 1338 1478 
L 1363 979 
Q 1478 883 1606 848 
Q 1734 813 1914 813 
Q 1952 813 1952 762 
L 1952 109 
Q 1952 58 1901 58 
z
" transform="scale(0.015625)"/>
      <path id="NotoNaskhArabic-Bold-89" d="M 2387 -1843 
Q 1574 -1843 1123 -1430 
Q 672 -1018 672 -282 
Q 672 134 848 515 
Q 1024 896 1357 1197 
Q 1504 1331 1670 1449 
Q 1837 1568 2035 1664 
Q 1818 1747 1635 1804 
Q 1453 1862 1274 1862 
Q 1088 1862 947 1808 
Q 806 1754 582 1613 
Q 525 1670 480 1782 
Q 435 1894 435 1997 
Q 435 2285 665 2454 
Q 896 2624 1286 2624 
Q 1498 2624 1728 2573 
Q 1958 2522 2310 2394 
Q 2656 2266 2918 2208 
Q 3181 2150 3424 2150 
L 4006 2163 
L 3744 1446 
Q 3661 1434 3517 1427 
Q 3373 1421 3225 1424 
Q 3078 1427 2970 1434 
Q 2758 1402 2508 1312 
Q 2259 1222 2022 1097 
Q 1786 973 1594 819 
Q 1312 595 1155 339 
Q 998 83 998 -186 
Q 998 -474 1177 -678 
Q 1357 -883 1673 -995 
Q 1990 -1107 2400 -1107 
Q 3066 -1107 3942 -909 
L 4032 -1178 
Q 3680 -1376 3353 -1526 
Q 3027 -1677 2774 -1760 
Q 2522 -1843 2387 -1843 
z
" transform="scale(0.015625)"/>
      <path id="NotoNaskhArabic-Bold-112" d="M 2592 0 
Q 2163 0 1699 80 
Q 1235 160 851 339 
Q 826 314 797 285 
Q 768 256 730 230 
Q 595 147 400 102 
Q 205 58 0 58 
Q -51 58 -51 109 
L -51 762 
Q -51 813 0 813 
Q 243 813 380 841 
Q 518 870 614 969 
Q 710 1069 826 1274 
Q 851 1318 880 1363 
Q 909 1408 934 1466 
Q 1030 1638 1222 1638 
Q 1318 1638 1427 1574 
Q 1363 1414 1302 1260 
Q 1242 1107 1178 954 
Q 1248 928 1312 909 
Q 1376 890 1440 864 
Q 2099 1741 2605 2150 
Q 3091 2560 3469 2560 
Q 3629 2560 3824 2464 
Q 4019 2368 4211 2214 
Q 4403 2061 4544 1882 
Q 4762 1619 4762 1446 
Q 4762 582 3699 192 
Q 3174 0 2592 0 
z
M 2656 704 
Q 3117 704 3520 813 
Q 3923 922 4390 1146 
Q 3814 1805 3309 1805 
Q 3027 1805 2652 1536 
Q 2278 1267 1862 774 
Q 2067 742 2265 723 
Q 2464 704 2656 704 
z
" transform="scale(0.015625)"/>
      <path id="NotoNaskhArabic-Bold-13d" d="M 6 58 
Q -51 58 -51 115 
L -51 755 
Q -51 813 6 813 
Q 346 813 627 822 
Q 909 832 1126 870 
L 998 1030 
Q 909 1152 835 1235 
Q 762 1318 691 1382 
Q 640 1434 589 1478 
Q 538 1523 486 1568 
L 371 1485 
Q 198 1670 198 1894 
Q 198 2112 390 2272 
Q 582 2432 915 2554 
Q 1242 2669 1549 2669 
Q 1830 2669 2080 2547 
Q 2330 2426 2470 2208 
Q 2618 1990 2618 1760 
Q 2618 1530 2490 1306 
Q 2362 1082 2118 858 
Q 2291 832 2486 822 
Q 2682 813 2912 813 
Q 2976 813 2976 755 
L 2976 115 
Q 2976 58 2912 58 
Q 2464 58 2105 160 
Q 1747 262 1530 448 
Q 845 58 6 58 
z
M 1626 1062 
Q 1978 1293 1978 1613 
Q 1978 1773 1862 1865 
Q 1747 1958 1574 1958 
Q 1408 1958 1257 1926 
Q 1107 1894 902 1805 
Q 973 1741 1117 1603 
Q 1261 1466 1459 1248 
Q 1498 1203 1539 1158 
Q 1581 1114 1626 1062 
z
M 1465 3065 
Q 1139 3334 973 3526 
Q 1120 3673 1238 3798 
Q 1357 3923 1453 4038 
Q 1523 3961 1638 3846 
Q 1753 3731 1913 3577 
Q 1837 3469 1725 3341 
Q 1613 3213 1465 3065 
z
" transform="scale(0.015625)"/>
      <path id="NotoNaskhArabic-Bold-240" d="M 0 58 
Q -51 58 -51 109 
L -51 762 
Q -51 813 0 813 
Q 307 813 566 829 
Q 826 845 992 928 
Q 1120 992 1187 1104 
Q 1254 1216 1357 1421 
Q 1459 1632 1536 1680 
Q 1613 1728 1715 1728 
Q 1869 1728 1971 1638 
Q 1888 1427 1814 1264 
Q 1741 1101 1690 979 
Q 2003 813 2362 813 
Q 2413 813 2413 762 
L 2413 109 
Q 2413 58 2362 58 
Q 1875 58 1434 499 
L 1382 416 
Q 1203 179 883 118 
Q 563 58 0 58 
z
M 1651 -1235 
Q 1376 -1011 1209 -832 
Q 1414 -653 1638 -384 
Q 1657 -403 1756 -502 
Q 1856 -602 2035 -787 
Q 1971 -883 1875 -995 
Q 1779 -1107 1651 -1235 
z
M 793 -1331 
Q 633 -1203 527 -1100 
Q 422 -998 352 -922 
Q 460 -813 569 -701 
Q 678 -589 787 -480 
Q 864 -576 1184 -877 
Q 1030 -1107 793 -1331 
z
" transform="scale(0.015625)"/>
      <path id="NotoNaskhArabic-Bold-d4" d="M 653 -1248 
Q 544 -1248 304 -1107 
Q 64 -966 -218 -730 
L -115 -461 
Q 243 -550 531 -550 
Q 1005 -550 1331 -313 
Q 1658 -77 1805 371 
Q 1760 467 1705 566 
Q 1651 666 1587 762 
Q 1299 1203 1203 1414 
Q 1107 1626 1107 1779 
Q 1107 1965 1254 2147 
Q 1402 2330 1638 2451 
Q 1670 2330 1705 2208 
Q 1741 2086 1786 1958 
Q 1926 1555 2006 1299 
Q 2086 1043 2106 934 
Q 2323 813 2586 813 
Q 2637 813 2637 762 
L 2637 109 
Q 2637 58 2586 58 
Q 2349 58 2112 179 
Q 2042 -243 1837 -566 
Q 1632 -890 1328 -1069 
Q 1024 -1248 653 -1248 
z
" transform="scale(0.015625)"/>
      <path id="DejaVuSans-Bold-c" d="M 513 -844 
Q 913 -100 1113 609 
Q 1313 1319 1313 2009 
Q 1313 2700 1113 3408 
Q 913 4116 513 4856 
L 1441 4856 
Q 1916 4091 2145 3389 
Q 2375 2688 2375 2003 
Q 2375 1319 2147 623 
Q 1919 -72 1441 -844 
L 513 -844 
z
" transform="scale(0.015625)"/>
     </defs>
     <use xlink:href="#NotoNaskhArabic-Bold-3"/>
     <use xlink:href="#NotoNaskhArabic-Bold-fa" transform="translate(28.40625 0)"/>
     <use xlink:href="#NotoNaskhArabic-Bold-37" transform="translate(98.40625 0)"/>
     <use xlink:href="#NotoNaskhArabic-Bold-b6" transform="translate(134.40625 0)"/>
     <use xlink:href="#NotoNaskhArabic-Bold-d3" transform="translate(182.90625 0)"/>
     <use xlink:href="#NotoNaskhArabic-Bold-3" transform="translate(220.609375 0)"/>
     <use xlink:href="#NotoNaskhArabic-Bold-71" transform="translate(249.015625 0)"/>
     <use xlink:href="#NotoNaskhArabic-Bold-554" transform="translate(314.515625 0)"/>
     <use xlink:href="#DejaVuSans-Bold-b" transform="translate(336.609375 0)"/>
     <use xlink:href="#NotoNaskhArabic-Bold-3" transform="translate(382.3125 0)"/>
     <use xlink:href="#NotoNaskhArabic-Bold-176" transform="translate(410.71875 0)"/>
     <use xlink:href="#NotoNaskhArabic-Bold-37" transform="translate(455.015625 0)"/>
     <use xlink:href="#NotoNaskhArabic-Bold-f9" transform="translate(491.015625 0)"/>
     <use xlink:href="#NotoNaskhArabic-Bold-4" transform="translate(560.71875 0)"/>
     <use xlink:href="#NotoNaskhArabic-Bold-89" transform="translate(589.515625 0)"/>
     <use xlink:href="#NotoNaskhArabic-Bold-554" transform="translate(655.015625 0)"/>
     <use xlink:href="#NotoNaskhArabic-Bold-112" transform="translate(677.109375 0)"/>
     <use xlink:href="#NotoNaskhArabic-Bold-13d" transform="translate(756.609375 0)"/>
     <use xlink:href="#NotoNaskhArabic-Bold-240" transform="translate(801.40625 0)"/>
     <use xlink:href="#NotoNaskhArabic-Bold-d4" transform="translate(837.40625 0)"/>
     <use xlink:href="#DejaVuSans-Bold-c" transform="translate(876.90625 0)"/>
    </g>
   </g>
   <g id="text_11">
    <!-- ﺔﻴﺴﻴﺋﺮﻟﺍ OB / ﻑﺪﻬﻟﺍ ﻮﺤﻧ ﺭﺍﺮﻤﺘﺳﺍ -->
    <g style="fill: #1f2937" transform="translate(431.495406 93.005667) scale(0.095 -0.095)">
     <defs>
      <path id="NotoNaskhArabic-Bold-1e4" d="M 2016 0 
Q 1606 0 1257 73 
Q 909 147 685 269 
Q 506 147 346 102 
Q 186 58 0 58 
Q -51 58 -51 109 
L -51 762 
Q -51 813 0 813 
Q 160 813 333 858 
Q 333 870 336 886 
Q 339 902 339 922 
Q 384 1261 573 1597 
Q 762 1933 1018 2131 
Q 1286 2342 1568 2342 
Q 1696 2342 1811 2176 
Q 1862 2093 1929 1942 
Q 1997 1792 2074 1581 
Q 2227 1133 2394 960 
Q 2528 813 2682 813 
Q 2752 813 2752 755 
L 2752 128 
Q 2752 58 2682 58 
Q 2362 58 2106 301 
L 2016 0 
z
M 1818 710 
Q 1606 1133 1549 1664 
Q 979 1440 698 1082 
Q 877 941 1155 851 
Q 1434 762 1818 710 
z
" transform="scale(0.015625)"/>
      <path id="NotoNaskhArabic-Bold-1ea" d="M 0 58 
Q -51 58 -51 109 
L -51 762 
Q -51 813 0 813 
Q 320 813 640 867 
Q 960 922 1139 998 
Q 1075 1146 976 1328 
Q 877 1510 819 1613 
Q 755 1734 710 1833 
Q 666 1933 666 2016 
Q 666 2176 838 2361 
Q 1011 2547 1248 2669 
Q 1293 2470 1347 2217 
Q 1402 1965 1446 1702 
Q 1485 1504 1501 1376 
Q 1517 1248 1517 1184 
Q 1517 1037 1443 822 
Q 1370 608 1267 410 
Q 685 58 0 58 
z
M 902 3052 
Q 576 3321 410 3513 
Q 557 3660 675 3785 
Q 794 3910 890 4025 
Q 960 3948 1075 3833 
Q 1190 3718 1350 3564 
Q 1274 3456 1162 3328 
Q 1050 3200 902 3052 
z
" transform="scale(0.015625)"/>
      <path id="NotoNaskhArabic-Bold-8b" d="M 0 58 
Q -51 58 -51 109 
L -51 762 
Q -51 813 0 813 
Q 467 813 793 829 
Q 1120 845 1427 934 
Q 1702 1018 1897 1069 
Q 2093 1120 2202 1146 
Q 2118 1197 2032 1251 
Q 1946 1306 1856 1363 
Q 1651 1498 1513 1555 
Q 1376 1613 1235 1613 
Q 1043 1613 870 1558 
Q 698 1504 480 1363 
Q 422 1421 377 1533 
Q 333 1645 333 1747 
Q 333 2029 582 2205 
Q 832 2381 1210 2381 
Q 1414 2381 1603 2310 
Q 1792 2240 2029 2080 
Q 2317 1882 2560 1763 
Q 2803 1645 3136 1555 
Q 3302 1517 3500 1494 
Q 3699 1472 3936 1472 
L 3654 934 
Q 3578 941 3501 941 
Q 3424 941 3347 947 
Q 3411 890 3488 867 
Q 3565 845 3661 832 
Q 3808 826 3965 822 
Q 4122 819 4262 813 
Q 4314 813 4314 762 
L 4314 109 
Q 4314 58 4262 58 
Q 4032 58 3782 80 
Q 3533 102 3325 150 
Q 3117 198 3021 262 
Q 2893 358 2838 537 
Q 2784 717 2746 877 
Q 2624 851 2525 803 
Q 2426 755 2304 675 
Q 2182 595 1990 467 
Q 1683 262 1395 176 
Q 1107 90 774 74 
Q 442 58 0 58 
z
" transform="scale(0.015625)"/>
      <path id="NotoNaskhArabic-Bold-219" d="M 1248 -1248 
Q 1171 -1248 1011 -1174 
Q 851 -1101 668 -982 
Q 486 -864 326 -730 
L 429 -461 
Q 602 -506 778 -528 
Q 954 -550 1133 -550 
Q 1536 -550 1862 -380 
Q 2189 -211 2368 64 
Q 2093 83 1894 102 
Q 1696 122 1574 147 
Q 838 307 838 1018 
Q 838 1370 972 1712 
Q 1107 2054 1325 2266 
Q 1549 2477 1766 2477 
Q 2029 2477 2262 2240 
Q 2496 2003 2650 1626 
Q 2720 1446 2768 1241 
Q 2816 1037 2835 813 
L 3181 813 
Q 3232 813 3232 762 
L 3232 109 
Q 3232 58 3181 58 
L 2784 58 
Q 2669 -365 2419 -669 
Q 2170 -973 1843 -1120 
Q 1555 -1248 1248 -1248 
z
M 2419 819 
Q 2285 1254 2077 1484 
Q 1869 1715 1626 1715 
Q 1504 1715 1401 1651 
Q 1299 1587 1235 1498 
Q 1178 1402 1178 1293 
Q 1178 941 1805 858 
Q 1952 838 2419 819 
z
" transform="scale(0.015625)"/>
      <path id="NotoNaskhArabic-Bold-1c1" d="M 0 58 
Q -51 58 -51 109 
L -51 762 
Q -51 813 0 813 
Q 282 813 672 960 
Q 646 1146 624 1334 
Q 602 1523 570 1709 
Q 544 1894 441 2448 
Q 339 3002 173 3930 
Q 339 4045 534 4147 
Q 730 4250 934 4352 
Q 947 3827 960 3356 
Q 973 2886 986 2477 
Q 998 2067 1004 1718 
Q 1011 1370 1011 1069 
Q 1011 634 762 256 
Q 698 166 490 112 
Q 282 58 0 58 
z
" transform="scale(0.015625)"/>
      <path id="NotoNaskhArabic-Bold-1ff" d="M 1690 -1248 
Q 1184 -1248 851 -950 
Q 518 -653 429 -128 
L 237 -218 
L 166 70 
L 0 58 
Q -51 58 -51 109 
L -51 762 
Q -51 813 0 813 
Q 250 813 461 832 
Q 710 1958 1670 2874 
L 1952 2810 
Q 1971 2554 2067 1997 
Q 2112 1760 2131 1593 
Q 2150 1427 2150 1331 
Q 2150 1011 1850 730 
Q 2157 794 2304 803 
Q 2451 813 2586 813 
Q 2656 813 2656 755 
L 2656 128 
Q 2656 58 2586 58 
Q 2362 58 2131 19 
Q 2272 -45 2368 -176 
Q 2464 -307 2464 -442 
Q 2464 -499 2422 -630 
Q 2381 -762 2329 -886 
Q 2278 -1011 2246 -1050 
Q 2182 -1126 2038 -1187 
Q 1894 -1248 1690 -1248 
z
M 934 755 
Q 1453 832 1760 1075 
L 1677 1325 
Q 1600 1542 1549 1708 
Q 1498 1875 1478 1997 
Q 1203 1606 1081 1312 
Q 960 1018 934 755 
z
M 1741 -640 
Q 1850 -640 1930 -614 
Q 2010 -589 2112 -525 
Q 1920 -243 1651 -92 
Q 1382 58 1094 58 
Q 1075 58 1036 51 
Q 998 45 947 32 
Q 1075 -640 1741 -640 
z
" transform="scale(0.015625)"/>
      <path id="NotoNaskhArabic-Bold-143" d="M 1965 0 
Q 1190 0 796 352 
Q 403 704 403 1363 
Q 403 1498 435 1674 
Q 467 1850 531 2067 
L 813 2067 
Q 794 1894 794 1747 
Q 794 1376 941 1171 
Q 1088 966 1389 864 
Q 1702 755 2195 755 
Q 3034 755 3725 857 
Q 4416 960 4826 1139 
Q 4806 1235 4777 1337 
Q 4749 1440 4710 1555 
Q 4531 1421 4297 1334 
Q 4064 1248 3834 1248 
Q 3501 1248 3296 1449 
Q 3091 1651 3091 1997 
Q 3091 2336 3219 2649 
Q 3347 2963 3546 3149 
Q 3757 3341 3974 3341 
Q 4275 3341 4556 3059 
Q 4838 2778 4998 2285 
Q 5158 1798 5158 1171 
Q 5158 1056 5084 861 
Q 5011 666 4934 518 
Q 4301 269 3542 134 
Q 2784 0 1965 0 
z
M 3955 1792 
Q 4218 1792 4563 1907 
Q 4403 2246 4217 2412 
Q 4032 2579 3840 2579 
Q 3680 2579 3552 2460 
Q 3424 2342 3424 2157 
Q 3424 2003 3581 1897 
Q 3738 1792 3955 1792 
z
M 3968 3769 
Q 3642 4038 3476 4230 
Q 3623 4377 3741 4502 
Q 3860 4627 3956 4742 
Q 4026 4665 4141 4550 
Q 4256 4435 4416 4281 
Q 4340 4173 4228 4045 
Q 4116 3917 3968 3769 
z
" transform="scale(0.015625)"/>
      <path id="DejaVuSans-Bold-12" d="M 1644 4666 
L 2338 4666 
L 691 -594 
L 0 -594 
L 1644 4666 
z
" transform="scale(0.015625)"/>
      <path id="DejaVuSans-Bold-32" d="M 2719 3878 
Q 2169 3878 1866 3472 
Q 1563 3066 1563 2328 
Q 1563 1594 1866 1187 
Q 2169 781 2719 781 
Q 3272 781 3575 1187 
Q 3878 1594 3878 2328 
Q 3878 3066 3575 3472 
Q 3272 3878 2719 3878 
z
M 2719 4750 
Q 3844 4750 4481 4106 
Q 5119 3463 5119 2328 
Q 5119 1197 4481 553 
Q 3844 -91 2719 -91 
Q 1597 -91 958 553 
Q 319 1197 319 2328 
Q 319 3463 958 4106 
Q 1597 4750 2719 4750 
z
" transform="scale(0.015625)"/>
      <path id="DejaVuSans-Bold-25" d="M 2456 2859 
Q 2741 2859 2887 2984 
Q 3034 3109 3034 3353 
Q 3034 3594 2887 3720 
Q 2741 3847 2456 3847 
L 1791 3847 
L 1791 2859 
L 2456 2859 
z
M 2497 819 
Q 2859 819 3042 972 
Q 3225 1125 3225 1434 
Q 3225 1738 3044 1889 
Q 2863 2041 2497 2041 
L 1791 2041 
L 1791 819 
L 2497 819 
z
M 3616 2497 
Q 4003 2384 4215 2081 
Q 4428 1778 4428 1338 
Q 4428 663 3972 331 
Q 3516 0 2584 0 
L 588 0 
L 588 4666 
L 2394 4666 
Q 3366 4666 3802 4372 
Q 4238 4078 4238 3431 
Q 4238 3091 4078 2852 
Q 3919 2613 3616 2497 
z
" transform="scale(0.015625)"/>
      <path id="NotoNaskhArabic-Bold-245" d="M 0 58 
Q -51 58 -51 109 
L -51 762 
Q -51 813 0 813 
Q 320 813 640 867 
Q 960 922 1139 998 
Q 1075 1146 976 1328 
Q 877 1510 819 1613 
Q 755 1734 710 1833 
Q 666 1933 666 2016 
Q 666 2176 838 2361 
Q 1011 2547 1248 2669 
Q 1293 2470 1347 2217 
Q 1402 1965 1446 1702 
Q 1485 1504 1501 1376 
Q 1517 1248 1517 1184 
Q 1517 1037 1443 822 
Q 1370 608 1267 410 
Q 685 58 0 58 
z
M 401 2912 
L 378 3235 
L 654 3396 
Q 409 3488 409 3696 
Q 409 3834 493 3972 
Q 577 4110 704 4206 
Q 831 4302 947 4302 
Q 1230 4302 1230 3956 
Q 1230 3841 1200 3780 
L 1046 3802 
L 1046 3826 
Q 1046 3895 954 3895 
Q 785 3895 685 3703 
Q 823 3565 1069 3565 
Q 1130 3565 1207 3572 
Q 1284 3580 1369 3596 
L 1338 3258 
Q 1062 3196 873 3131 
Q 685 3066 401 2912 
z
" transform="scale(0.015625)"/>
      <path id="NotoNaskhArabic-Bold-215" d="M 3302 58 
Q 2912 58 2675 182 
Q 2438 307 2393 531 
L 2336 768 
L 2080 243 
Q 1881 262 1711 288 
Q 1542 314 1395 365 
Q 1235 422 1075 518 
Q 915 614 806 716 
Q 697 819 697 890 
Q 697 941 738 1078 
Q 780 1216 838 1369 
Q 896 1523 940 1600 
Q 998 1728 1184 1882 
Q 1363 2042 1593 2192 
Q 1824 2342 1984 2413 
L 1952 2669 
Q 2118 2797 2223 2873 
Q 2329 2950 2418 3011 
Q 2508 3072 2617 3136 
L 2617 986 
Q 2924 813 3302 813 
Q 3353 813 3353 762 
L 3353 109 
Q 3353 58 3302 58 
z
M 2272 1005 
Q 2233 1158 2188 1366 
Q 2144 1574 2086 1837 
Q 1491 1638 1152 1318 
Q 1356 1178 1542 1123 
Q 1728 1069 1894 1043 
Q 2067 1011 2272 1005 
z
M 2138 3257 
Q 2003 3366 1894 3462 
Q 1786 3558 1696 3654 
Q 1933 3872 2125 4102 
Q 2182 4038 2284 3942 
Q 2387 3846 2528 3705 
Q 2355 3469 2138 3257 
z
M 1280 3161 
Q 1005 3385 838 3565 
Q 947 3673 1056 3785 
Q 1165 3897 1274 4006 
Q 1389 3872 1670 3609 
Q 1510 3379 1280 3161 
z
" transform="scale(0.015625)"/>
     </defs>
     <use xlink:href="#NotoNaskhArabic-Bold-3"/>
     <use xlink:href="#NotoNaskhArabic-Bold-fa" transform="translate(28.40625 0)"/>
     <use xlink:href="#NotoNaskhArabic-Bold-37" transform="translate(98.40625 0)"/>
     <use xlink:href="#NotoNaskhArabic-Bold-1e4" transform="translate(134.40625 0)"/>
     <use xlink:href="#NotoNaskhArabic-Bold-d4" transform="translate(175.703125 0)"/>
     <use xlink:href="#NotoNaskhArabic-Bold-3" transform="translate(215.203125 0)"/>
     <use xlink:href="#NotoNaskhArabic-Bold-d3" transform="translate(243.609375 0)"/>
     <use xlink:href="#NotoNaskhArabic-Bold-554" transform="translate(281.3125 0)"/>
     <use xlink:href="#NotoNaskhArabic-Bold-1ea" transform="translate(303.40625 0)"/>
     <use xlink:href="#NotoNaskhArabic-Bold-8b" transform="translate(330.90625 0)"/>
     <use xlink:href="#NotoNaskhArabic-Bold-219" transform="translate(396.609375 0)"/>
     <use xlink:href="#NotoNaskhArabic-Bold-554" transform="translate(445.40625 0)"/>
     <use xlink:href="#NotoNaskhArabic-Bold-3" transform="translate(467.5 0)"/>
     <use xlink:href="#NotoNaskhArabic-Bold-1c1" transform="translate(495.90625 0)"/>
     <use xlink:href="#NotoNaskhArabic-Bold-1ff" transform="translate(517.609375 0)"/>
     <use xlink:href="#NotoNaskhArabic-Bold-b6" transform="translate(557.3125 0)"/>
     <use xlink:href="#NotoNaskhArabic-Bold-143" transform="translate(605.8125 0)"/>
     <use xlink:href="#NotoNaskhArabic-Bold-554" transform="translate(690.609375 0)"/>
     <use xlink:href="#DejaVuSans-Bold-12" transform="translate(712.703125 0)"/>
     <use xlink:href="#NotoNaskhArabic-Bold-554" transform="translate(749.234375 0)"/>
     <use xlink:href="#DejaVuSans-Bold-32" transform="translate(771.328125 0)"/>
     <use xlink:href="#DejaVuSans-Bold-25" transform="translate(856.34375 0)"/>
     <use xlink:href="#NotoNaskhArabic-Bold-554" transform="translate(932.5625 0)"/>
     <use xlink:href="#NotoNaskhArabic-Bold-3" transform="translate(954.65625 0)"/>
     <use xlink:href="#NotoNaskhArabic-Bold-1c1" transform="translate(983.0625 0)"/>
     <use xlink:href="#NotoNaskhArabic-Bold-d4" transform="translate(1004.765625 0)"/>
     <use xlink:href="#NotoNaskhArabic-Bold-245" transform="translate(1044.265625 0)"/>
     <use xlink:href="#NotoNaskhArabic-Bold-240" transform="translate(1073.0625 0)"/>
     <use xlink:href="#NotoNaskhArabic-Bold-f9" transform="translate(1109.0625 0)"/>
     <use xlink:href="#NotoNaskhArabic-Bold-240" transform="translate(1178.765625 0)"/>
     <use xlink:href="#NotoNaskhArabic-Bold-215" transform="translate(1214.765625 0)"/>
    </g>
   </g>
   <g id="patch_5">
    <path d="M 67.917382 260.415811 
L 77.061723 260.415811 
L 77.061723 249.256321 
L 67.917382 249.256321 
z
" clip-path="url(#pa39114dc9f)" style="fill: #b91c1c; stroke: #b91c1c; stroke-linejoin: miter"/>
   </g>
   <g id="patch_6">
    <path d="M 83.15795 263.606785 
L 92.302291 263.606785 
L 92.302291 243.797066 
L 83.15795 243.797066 
z
" clip-path="url(#pa39114dc9f)" style="fill: #1f8a56; stroke: #1f8a56; stroke-linejoin: miter"/>
   </g>
   <g id="patch_7">
    <path d="M 98.398518 241.078639 
L 107.542859 241.078639 
L 107.542859 234.05567 
L 98.398518 234.05567 
z
" clip-path="url(#pa39114dc9f)" style="fill: #1f8a56; stroke: #1f8a56; stroke-linejoin: miter"/>
   </g>
   <g id="patch_8">
    <path d="M 113.639086 234.333136 
L 122.783427 234.333136 
L 122.783427 224.083678 
L 113.639086 224.083678 
z
" clip-path="url(#pa39114dc9f)" style="fill: #1f8a56; stroke: #1f8a56; stroke-linejoin: miter"/>
   </g>
   <g id="patch_9">
    <path d="M 128.879654 221.655293 
L 138.023995 221.655293 
L 138.023995 207.636355 
L 128.879654 207.636355 
z
" clip-path="url(#pa39114dc9f)" style="fill: #1f8a56; stroke: #1f8a56; stroke-linejoin: miter"/>
   </g>
   <g id="patch_10">
    <path d="M 144.120222 205.03295 
L 153.264563 205.03295 
L 153.264563 191.100691 
L 144.120222 191.100691 
z
" clip-path="url(#pa39114dc9f)" style="fill: #1f8a56; stroke: #1f8a56; stroke-linejoin: miter"/>
   </g>
   <g id="patch_11">
    <path d="M 159.36079 191.427415 
L 168.505131 191.427415 
L 168.505131 176.376672 
L 159.36079 176.376672 
z
" clip-path="url(#pa39114dc9f)" style="fill: #1f8a56; stroke: #1f8a56; stroke-linejoin: miter"/>
   </g>
   <g id="patch_12">
    <path d="M 174.601358 180.983413 
L 183.745699 180.983413 
L 183.745699 174.345471 
L 174.601358 174.345471 
z
" clip-path="url(#pa39114dc9f)" style="fill: #b91c1c; stroke: #b91c1c; stroke-linejoin: miter"/>
   </g>
   <g id="patch_13">
    <path d="M 189.841926 176.273882 
L 198.986267 176.273882 
L 198.986267 169.635941 
L 189.841926 169.635941 
z
" clip-path="url(#pa39114dc9f)" style="fill: #b91c1c; stroke: #b91c1c; stroke-linejoin: miter"/>
   </g>
   <g id="patch_14">
    <path d="M 205.082494 173.928758 
L 214.226835 173.928758 
L 214.226835 167.290816 
L 205.082494 167.290816 
z
" clip-path="url(#pa39114dc9f)" style="fill: #1f8a56; stroke: #1f8a56; stroke-linejoin: miter"/>
   </g>
   <g id="patch_15">
    <path d="M 220.323062 169.70669 
L 229.467403 169.70669 
L 229.467403 149.641014 
L 220.323062 149.641014 
z
" clip-path="url(#pa39114dc9f)" style="fill: #1f8a56; stroke: #1f8a56; stroke-linejoin: miter"/>
   </g>
   <g id="patch_16">
    <path d="M 235.56363 151.675723 
L 244.707971 151.675723 
L 244.707971 138.196823 
L 235.56363 138.196823 
z
" clip-path="url(#pa39114dc9f)" style="fill: #1f8a56; stroke: #1f8a56; stroke-linejoin: miter"/>
   </g>
   <g id="patch_17">
    <path d="M 250.804198 140.956378 
L 259.948539 140.956378 
L 259.948539 131.561754 
L 250.804198 131.561754 
z
" clip-path="url(#pa39114dc9f)" style="fill: #1f8a56; stroke: #1f8a56; stroke-linejoin: miter"/>
   </g>
   <g id="patch_18">
    <path d="M 266.044766 123.904623 
L 275.189107 123.904623 
L 275.189107 116.481761 
L 266.044766 116.481761 
z
" clip-path="url(#pa39114dc9f)" style="fill: #1f8a56; stroke: #1f8a56; stroke-linejoin: miter"/>
   </g>
   <g id="patch_19">
    <path d="M 281.285334 135.412713 
L 290.429675 135.412713 
L 290.429675 119.810094 
L 281.285334 119.810094 
z
" clip-path="url(#pa39114dc9f)" style="fill: #b91c1c; stroke: #b91c1c; stroke-linejoin: miter"/>
   </g>
   <g id="patch_20">
    <path d="M 296.525902 147.551593 
L 305.670243 147.551593 
L 305.670243 138.482195 
L 296.525902 138.482195 
z
" clip-path="url(#pa39114dc9f)" style="fill: #b91c1c; stroke: #b91c1c; stroke-linejoin: miter"/>
   </g>
   <g id="patch_21">
    <path d="M 311.76647 155.413394 
L 320.910811 155.413394 
L 320.910811 148.775452 
L 311.76647 148.775452 
z
" clip-path="url(#pa39114dc9f)" style="fill: #b91c1c; stroke: #b91c1c; stroke-linejoin: miter"/>
   </g>
   <g id="patch_22">
    <path d="M 327.007038 179.107416 
L 336.151379 179.107416 
L 336.151379 160.487486 
L 327.007038 160.487486 
z
" clip-path="url(#pa39114dc9f)" style="fill: #b91c1c; stroke: #b91c1c; stroke-linejoin: miter"/>
   </g>
   <g id="patch_23">
    <path d="M 342.247606 200.781865 
L 351.391947 200.781865 
L 351.391947 179.951543 
L 342.247606 179.951543 
z
" clip-path="url(#pa39114dc9f)" style="fill: #b91c1c; stroke: #b91c1c; stroke-linejoin: miter"/>
   </g>
   <g id="patch_24">
    <path d="M 357.488174 219.394871 
L 366.632515 219.394871 
L 366.632515 201.386063 
L 357.488174 201.386063 
z
" clip-path="url(#pa39114dc9f)" style="fill: #b91c1c; stroke: #b91c1c; stroke-linejoin: miter"/>
   </g>
   <g id="patch_25">
    <path d="M 372.728742 219.013477 
L 381.873083 219.013477 
L 381.873083 212.375535 
L 372.728742 212.375535 
z
" clip-path="url(#pa39114dc9f)" style="fill: #1f8a56; stroke: #1f8a56; stroke-linejoin: miter"/>
   </g>
   <g id="patch_26">
    <path d="M 387.96931 226.483055 
L 397.113651 226.483055 
L 397.113651 195.295029 
L 387.96931 195.295029 
z
" clip-path="url(#pa39114dc9f)" style="fill: #1f8a56; stroke: #1f8a56; stroke-linejoin: miter"/>
   </g>
   <g id="patch_27">
    <path d="M 403.209878 201.646056 
L 412.354219 201.646056 
L 412.354219 185.920076 
L 403.209878 185.920076 
z
" clip-path="url(#pa39114dc9f)" style="fill: #1f8a56; stroke: #1f8a56; stroke-linejoin: miter"/>
   </g>
   <g id="patch_28">
    <path d="M 418.450446 185.085459 
L 427.594787 185.085459 
L 427.594787 168.454806 
L 418.450446 168.454806 
z
" clip-path="url(#pa39114dc9f)" style="fill: #1f8a56; stroke: #1f8a56; stroke-linejoin: miter"/>
   </g>
   <g id="patch_29">
    <path d="M 433.691014 171.871124 
L 442.835355 171.871124 
L 442.835355 150.505044 
L 433.691014 150.505044 
z
" clip-path="url(#pa39114dc9f)" style="fill: #1f8a56; stroke: #1f8a56; stroke-linejoin: miter"/>
   </g>
   <g id="patch_30">
    <path d="M 448.931582 159.821048 
L 458.075923 159.821048 
L 458.075923 152.733771 
L 448.931582 152.733771 
z
" clip-path="url(#pa39114dc9f)" style="fill: #b91c1c; stroke: #b91c1c; stroke-linejoin: miter"/>
   </g>
   <g id="patch_31">
    <path d="M 464.17215 162.894251 
L 473.31649 162.894251 
L 473.31649 139.901692 
L 464.17215 139.901692 
z
" clip-path="url(#pa39114dc9f)" style="fill: #1f8a56; stroke: #1f8a56; stroke-linejoin: miter"/>
   </g>
   <g id="patch_32">
    <path d="M 479.412718 142.040731 
L 488.557058 142.040731 
L 488.557058 135.402789 
L 479.412718 135.402789 
z
" clip-path="url(#pa39114dc9f)" style="fill: #1f8a56; stroke: #1f8a56; stroke-linejoin: miter"/>
   </g>
   <g id="patch_33">
    <path d="M 494.653286 138.433107 
L 503.797626 138.433107 
L 503.797626 131.795165 
L 494.653286 131.795165 
z
" clip-path="url(#pa39114dc9f)" style="fill: #b91c1c; stroke: #b91c1c; stroke-linejoin: miter"/>
   </g>
   <g id="patch_34">
    <path d="M 509.893854 129.755494 
L 519.038194 129.755494 
L 519.038194 111.172514 
L 509.893854 111.172514 
z
" clip-path="url(#pa39114dc9f)" style="fill: #1f8a56; stroke: #1f8a56; stroke-linejoin: miter"/>
   </g>
   <g id="patch_35">
    <path d="M 525.134422 116.500427 
L 534.278762 116.500427 
L 534.278762 108.029706 
L 525.134422 108.029706 
z
" clip-path="url(#pa39114dc9f)" style="fill: #b91c1c; stroke: #b91c1c; stroke-linejoin: miter"/>
   </g>
   <g id="patch_36">
    <path d="M 540.37499 121.542038 
L 549.51933 121.542038 
L 549.51933 114.904097 
L 540.37499 114.904097 
z
" clip-path="url(#pa39114dc9f)" style="fill: #b91c1c; stroke: #b91c1c; stroke-linejoin: miter"/>
   </g>
   <g id="patch_37">
    <path d="M 555.615558 121.740315 
L 564.759898 121.740315 
L 564.759898 115.102373 
L 555.615558 115.102373 
z
" clip-path="url(#pa39114dc9f)" style="fill: #1f8a56; stroke: #1f8a56; stroke-linejoin: miter"/>
   </g>
   <g id="patch_38">
    <path d="M 570.856126 117.19363 
L 580.000466 117.19363 
L 580.000466 86.935344 
L 570.856126 86.935344 
z
" clip-path="url(#pa39114dc9f)" style="fill: #1f8a56; stroke: #1f8a56; stroke-linejoin: miter"/>
   </g>
   <g id="patch_39">
    <path d="M 586.096694 88.191836 
L 595.241034 88.191836 
L 595.241034 61.963972 
L 586.096694 61.963972 
z
" clip-path="url(#pa39114dc9f)" style="fill: #1f8a56; stroke: #1f8a56; stroke-linejoin: miter"/>
   </g>
   <g id="patch_40">
    <path d="M 601.337262 64.755623 
L 610.481602 64.755623 
L 610.481602 50.021664 
L 601.337262 50.021664 
z
" clip-path="url(#pa39114dc9f)" style="fill: #1f8a56; stroke: #1f8a56; stroke-linejoin: miter"/>
   </g>
   <g id="patch_41">
    <path d="M 333.256378 180.671282 
Q 354.44125 166.838432 373.566613 154.350356 
" clip-path="url(#pa39114dc9f)" style="fill: none; stroke-dasharray: 8.14,3.52; stroke-dashoffset: 0; stroke: #b91c1c; stroke-width: 2.2; stroke-linecap: round"/>
    <path d="M 366.458299 155.170029 
L 373.566613 154.350356 
L 369.957363 160.528811 
z
" clip-path="url(#pa39114dc9f)" style="fill: #b91c1c; stroke-dasharray: 8.14,3.52; stroke-dashoffset: 0; stroke: #b91c1c; stroke-width: 2.2; stroke-linecap: round"/>
   </g>
   <g id="patch_42">
    <path d="M 379.125287 151.098892 
Q 491.605531 100.966678 601.839141 51.835785 
" clip-path="url(#pa39114dc9f)" style="fill: none; stroke: #1f2937; stroke-width: 2.2; stroke-linecap: round"/>
    <path d="M 594.690768 51.518353 
L 601.839141 51.835785 
L 597.296172 57.364024 
z
" clip-path="url(#pa39114dc9f)" style="fill: #1f2937; stroke: #1f2937; stroke-width: 2.2; stroke-linecap: round"/>
   </g>
   <g id="line2d_51">
    <path d="M 331.579208 184.751844 
" clip-path="url(#pa39114dc9f)" style="fill: none; stroke: #b91c1c; stroke-width: 1.5; stroke-linecap: square"/>
    <defs>
     <path id="m76bba69c0d" d="M 0 -3.5 
L -3.5 3.5 
L 3.5 3.5 
z
" style="stroke: #b91c1c; stroke-linejoin: miter"/>
    </defs>
    <g clip-path="url(#pa39114dc9f)">
     <use xlink:href="#m76bba69c0d" x="331.579208" y="184.751844" style="fill: #b91c1c; stroke: #b91c1c; stroke-linejoin: miter"/>
    </g>
   </g>
  </g>
 </g>
 <defs>
  <clipPath id="pa39114dc9f">
   <rect x="57.248984" y="7.2" width="563.901016" height="300.92"/>
  </clipPath>
 </defs>
</svg>
