<?xml version="1.0" encoding="utf-8" standalone="no"?>
<!DOCTYPE svg PUBLIC "-//W3C//DTD SVG 1.1//EN"
  "http://www.w3.org/Graphics/SVG/1.1/DTD/svg11.dtd">
<svg xmlns:xlink="http://www.w3.org/1999/xlink" width="628.35pt" height="311.55pt" viewBox="0 0 628.35 311.55" xmlns="http://www.w3.org/2000/svg" version="1.1">
 <metadata>
  <rdf:RDF xmlns:dc="http://purl.org/dc/elements/1.1/" xmlns:cc="http://creativecommons.org/ns#" xmlns:rdf="http://www.w3.org/1999/02/22-rdf-syntax-ns#">
   <cc:Work>
    <dc:type rdf:resource="http://purl.org/dc/dcmitype/StillImage"/>
    <dc:date>2026-07-18T21:36:14.854695</dc:date>
    <dc:format>image/svg+xml</dc:format>
    <dc:creator>
     <cc:Agent>
      <dc:title>Matplotlib v3.11.1, https://matplotlib.org/</dc:title>
     </cc:Agent>
    </dc:creator>
   </cc:Work>
  </rdf:RDF>
 </metadata>
 <defs>
  <style type="text/css">*{stroke-linejoin: round; stroke-linecap: butt}</style>
 </defs>
 <g id="figure_1">
  <g id="patch_1">
   <path d="M 0 311.55 
L 628.35 311.55 
L 628.35 -0 
L 0 -0 
z
" style="fill: #ffffff"/>
  </g>
  <g id="axes_1">
   <g id="patch_2">
    <path d="M 44.712344 257.587 
L 614.0625 257.587 
L 614.0625 7.2 
L 44.712344 7.2 
z
" style="fill: #ffffff"/>
   </g>
   <g id="matplotlib.axis_1">
    <g id="xtick_1">
     <g id="line2d_1">
      <path d="M 44.712344 257.587 
L 44.712344 7.2 
" clip-path="url(#p432ed949c8)" style="fill: none; stroke: #e6e1d6; stroke-width: 0.8; stroke-linecap: square"/>
     </g>
     <g id="line2d_2">
      <defs>
       <path id="mee8c8bd1ab" d="M 0 0 
L 0 3.5 
" style="stroke: #555555; stroke-width: 0.8"/>
      </defs>
      <g>
       <use xlink:href="#mee8c8bd1ab" x="44.712344" y="257.587" style="fill: #555555; stroke: #555555; stroke-width: 0.8"/>
      </g>
     </g>
     <g id="text_1">
      <!-- 0.0 -->
      <g style="fill: #555555" transform="translate(37.624844 275.8115) scale(0.105 -0.105)">
       <defs>
        <path id="NotoNaskhArabic-Regular-4cc" d="M 1824 -64 
Q 1082 -64 698 534 
Q 314 1133 314 2291 
Q 314 3488 682 4064 
Q 1050 4640 1824 4640 
Q 2566 4640 2956 4038 
Q 3347 3437 3347 2291 
Q 3347 1101 2969 518 
Q 2592 -64 1824 -64 
z
M 1824 416 
Q 2208 416 2426 678 
Q 2778 1094 2778 2291 
Q 2778 3571 2368 3962 
Q 2163 4160 1824 4160 
Q 1427 4160 1203 3878 
Q 877 3469 877 2291 
Q 877 1075 1229 666 
Q 1440 416 1824 416 
z
" transform="scale(0.015625)"/>
        <path id="NotoNaskhArabic-Regular-514" d="M 800 -422 
Q 646 -314 518 -230 
Q 390 -147 294 -90 
Q 326 -19 364 41 
Q 403 102 429 166 
Q 493 282 576 410 
Q 1069 122 1069 32 
Q 1069 -38 800 -422 
z
" transform="scale(0.015625)"/>
       </defs>
       <use xlink:href="#NotoNaskhArabic-Regular-4cc"/>
       <use xlink:href="#NotoNaskhArabic-Regular-514" transform="translate(57.203125 0)"/>
       <use xlink:href="#NotoNaskhArabic-Regular-4cc" transform="translate(77.796875 0)"/>
      </g>
     </g>
    </g>
    <g id="xtick_2">
     <g id="line2d_3">
      <path d="M 126.04808 257.587 
L 126.04808 7.2 
" clip-path="url(#p432ed949c8)" style="fill: none; stroke: #e6e1d6; stroke-width: 0.8; stroke-linecap: square"/>
     </g>
     <g id="line2d_4">
      <g>
       <use xlink:href="#mee8c8bd1ab" x="126.04808" y="257.587" style="fill: #555555; stroke: #555555; stroke-width: 0.8"/>
      </g>
     </g>
     <g id="text_2">
      <!-- 0.5 -->
      <g style="fill: #555555" transform="translate(118.96058 275.8115) scale(0.105 -0.105)">
       <defs>
        <path id="NotoNaskhArabic-Regular-4d1" d="M 1587 -64 
Q 826 -64 403 186 
L 403 717 
Q 634 576 960 496 
Q 1286 416 1594 416 
Q 2131 416 2425 672 
Q 2720 928 2720 1402 
Q 2720 2330 1574 2330 
Q 1210 2330 794 2234 
L 512 2413 
L 685 4570 
L 2976 4570 
L 2976 4058 
L 1165 4058 
L 1056 2733 
Q 1235 2765 1411 2784 
Q 1587 2803 1760 2803 
Q 2477 2803 2886 2444 
Q 3296 2086 3296 1459 
Q 3296 749 2841 342 
Q 2387 -64 1587 -64 
z
" transform="scale(0.015625)"/>
       </defs>
       <use xlink:href="#NotoNaskhArabic-Regular-4cc"/>
       <use xlink:href="#NotoNaskhArabic-Regular-514" transform="translate(57.203125 0)"/>
       <use xlink:href="#NotoNaskhArabic-Regular-4d1" transform="translate(77.796875 0)"/>
      </g>
     </g>
    </g>
    <g id="xtick_3">
     <g id="line2d_5">
      <path d="M 207.383817 257.587 
L 207.383817 7.2 
" clip-path="url(#p432ed949c8)" style="fill: none; stroke: #e6e1d6; stroke-width: 0.8; stroke-linecap: square"/>
     </g>
     <g id="line2d_6">
      <g>
       <use xlink:href="#mee8c8bd1ab" x="207.383817" y="257.587" style="fill: #555555; stroke: #555555; stroke-width: 0.8"/>
      </g>
     </g>
     <g id="text_3">
      <!-- 1.0 -->
      <g style="fill: #555555" transform="translate(200.296317 275.8115) scale(0.105 -0.105)">
       <defs>
        <path id="NotoNaskhArabic-Regular-4cd" d="M 1722 0 
L 1722 3194 
Q 1722 3405 1728 3603 
Q 1734 3802 1747 3981 
Q 1702 3936 1657 3891 
Q 1613 3846 1562 3808 
Q 1402 3674 1226 3530 
Q 1050 3386 864 3232 
L 570 3610 
L 1805 4570 
L 2272 4570 
L 2272 0 
L 1722 0 
z
" transform="scale(0.015625)"/>
       </defs>
       <use xlink:href="#NotoNaskhArabic-Regular-4cd"/>
       <use xlink:href="#NotoNaskhArabic-Regular-514" transform="translate(57.203125 0)"/>
       <use xlink:href="#NotoNaskhArabic-Regular-4cc" transform="translate(77.796875 0)"/>
      </g>
     </g>
    </g>
    <g id="xtick_4">
     <g id="line2d_7">
      <path d="M 288.719554 257.587 
L 288.719554 7.2 
" clip-path="url(#p432ed949c8)" style="fill: none; stroke: #e6e1d6; stroke-width: 0.8; stroke-linecap: square"/>
     </g>
     <g id="line2d_8">
      <g>
       <use xlink:href="#mee8c8bd1ab" x="288.719554" y="257.587" style="fill: #555555; stroke: #555555; stroke-width: 0.8"/>
      </g>
     </g>
     <g id="text_4">
      <!-- 1.5 -->
      <g style="fill: #555555" transform="translate(281.632054 275.8115) scale(0.105 -0.105)">
       <use xlink:href="#NotoNaskhArabic-Regular-4cd"/>
       <use xlink:href="#NotoNaskhArabic-Regular-514" transform="translate(57.203125 0)"/>
       <use xlink:href="#NotoNaskhArabic-Regular-4d1" transform="translate(77.796875 0)"/>
      </g>
     </g>
    </g>
    <g id="xtick_5">
     <g id="line2d_9">
      <path d="M 370.05529 257.587 
L 370.05529 7.2 
" clip-path="url(#p432ed949c8)" style="fill: none; stroke: #e6e1d6; stroke-width: 0.8; stroke-linecap: square"/>
     </g>
     <g id="line2d_10">
      <g>
       <use xlink:href="#mee8c8bd1ab" x="370.05529" y="257.587" style="fill: #555555; stroke: #555555; stroke-width: 0.8"/>
      </g>
     </g>
     <g id="text_5">
      <!-- 2.0 -->
      <g style="fill: #555555" transform="translate(362.96779 275.8115) scale(0.105 -0.105)">
       <defs>
        <path id="NotoNaskhArabic-Regular-4ce" d="M 307 0 
L 307 467 
L 1504 1677 
Q 1773 1952 1952 2147 
Q 2131 2342 2221 2458 
Q 2413 2720 2489 2925 
Q 2566 3130 2566 3386 
Q 2566 3744 2352 3949 
Q 2138 4154 1760 4154 
Q 1478 4154 1228 4058 
Q 979 3962 659 3718 
L 358 4096 
Q 1005 4634 1760 4634 
Q 2240 4634 2576 4448 
Q 2912 4262 3053 3923 
Q 3142 3686 3142 3418 
Q 3142 3123 3033 2841 
Q 2925 2560 2707 2272 
Q 2598 2131 2416 1929 
Q 2234 1728 1971 1478 
L 1018 538 
L 1018 512 
L 3328 512 
L 3328 0 
L 307 0 
z
" transform="scale(0.015625)"/>
       </defs>
       <use xlink:href="#NotoNaskhArabic-Regular-4ce"/>
       <use xlink:href="#NotoNaskhArabic-Regular-514" transform="translate(57.203125 0)"/>
       <use xlink:href="#NotoNaskhArabic-Regular-4cc" transform="translate(77.796875 0)"/>
      </g>
     </g>
    </g>
    <g id="xtick_6">
     <g id="line2d_11">
      <path d="M 451.391027 257.587 
L 451.391027 7.2 
" clip-path="url(#p432ed949c8)" style="fill: none; stroke: #e6e1d6; stroke-width: 0.8; stroke-linecap: square"/>
     </g>
     <g id="line2d_12">
      <g>
       <use xlink:href="#mee8c8bd1ab" x="451.391027" y="257.587" style="fill: #555555; stroke: #555555; stroke-width: 0.8"/>
      </g>
     </g>
     <g id="text_6">
      <!-- 2.5 -->
      <g style="fill: #555555" transform="translate(444.303527 275.8115) scale(0.105 -0.105)">
       <use xlink:href="#NotoNaskhArabic-Regular-4ce"/>
       <use xlink:href="#NotoNaskhArabic-Regular-514" transform="translate(57.203125 0)"/>
       <use xlink:href="#NotoNaskhArabic-Regular-4d1" transform="translate(77.796875 0)"/>
      </g>
     </g>
    </g>
    <g id="xtick_7">
     <g id="line2d_13">
      <path d="M 532.726763 257.587 
L 532.726763 7.2 
" clip-path="url(#p432ed949c8)" style="fill: none; stroke: #e6e1d6; stroke-width: 0.8; stroke-linecap: square"/>
     </g>
     <g id="line2d_14">
      <g>
       <use xlink:href="#mee8c8bd1ab" x="532.726763" y="257.587" style="fill: #555555; stroke: #555555; stroke-width: 0.8"/>
      </g>
     </g>
     <g id="text_7">
      <!-- 3.0 -->
      <g style="fill: #555555" transform="translate(525.639263 275.8115) scale(0.105 -0.105)">
       <defs>
        <path id="NotoNaskhArabic-Regular-4cf" d="M 1542 -64 
Q 1184 -64 877 -9 
Q 570 45 288 186 
L 288 710 
Q 576 570 909 490 
Q 1242 410 1549 410 
Q 2707 410 2707 1312 
Q 2707 2118 1427 2118 
L 986 2118 
L 986 2598 
L 1434 2598 
Q 1971 2598 2275 2825 
Q 2579 3053 2579 3462 
Q 2579 3789 2358 3974 
Q 2138 4160 1747 4160 
Q 1446 4160 1187 4077 
Q 928 3994 595 3776 
L 314 4160 
Q 595 4384 963 4509 
Q 1331 4634 1741 4634 
Q 2406 4634 2780 4330 
Q 3155 4026 3155 3501 
Q 3155 3066 2908 2784 
Q 2662 2502 2208 2406 
L 2208 2381 
Q 2758 2317 3027 2035 
Q 3296 1754 3296 1299 
Q 3296 646 2845 291 
Q 2394 -64 1542 -64 
z
" transform="scale(0.015625)"/>
       </defs>
       <use xlink:href="#NotoNaskhArabic-Regular-4cf"/>
       <use xlink:href="#NotoNaskhArabic-Regular-514" transform="translate(57.203125 0)"/>
       <use xlink:href="#NotoNaskhArabic-Regular-4cc" transform="translate(77.796875 0)"/>
      </g>
     </g>
    </g>
    <g id="xtick_8">
     <g id="line2d_15">
      <path d="M 614.0625 257.587 
L 614.0625 7.2 
" clip-path="url(#p432ed949c8)" style="fill: none; stroke: #e6e1d6; stroke-width: 0.8; stroke-linecap: square"/>
     </g>
     <g id="line2d_16">
      <g>
       <use xlink:href="#mee8c8bd1ab" x="614.0625" y="257.587" style="fill: #555555; stroke: #555555; stroke-width: 0.8"/>
      </g>
     </g>
     <g id="text_8">
      <!-- 3.5 -->
      <g style="fill: #555555" transform="translate(606.975 275.8115) scale(0.105 -0.105)">
       <use xlink:href="#NotoNaskhArabic-Regular-4cf"/>
       <use xlink:href="#NotoNaskhArabic-Regular-514" transform="translate(57.203125 0)"/>
       <use xlink:href="#NotoNaskhArabic-Regular-4d1" transform="translate(77.796875 0)"/>
      </g>
     </g>
    </g>
    <g id="text_9">
     <!-- (ﻊﻔﺗﺮﻣ=3 ،ﺾﻔﺨﻨﻣ=1) ﻊﻗﻮﺘﻤﻟﺍ ﺮﺛﻷﺍ -->
     <g style="fill: #1f2937" transform="translate(259.052188 297.693) scale(0.105 -0.105)">
      <defs>
       <path id="NotoNaskhArabic-Regular-3" d="M 666 0 
Q 646 1126 604 2057 
Q 563 2989 493 3725 
Q 467 3987 566 4118 
Q 666 4250 915 4294 
Q 941 4173 1001 3965 
Q 1062 3757 1139 3533 
L 966 3386 
Q 992 2912 1001 2413 
Q 1011 1914 1001 1338 
Q 992 762 960 51 
L 666 0 
z
" transform="scale(0.015625)"/>
       <path id="NotoNaskhArabic-Regular-2e8" d="M 877 0 
Q 858 0 858 70 
Q 858 128 874 227 
Q 890 326 915 406 
Q 941 486 954 486 
L 1088 486 
Q 1376 710 1555 864 
Q 1734 1018 1862 1155 
Q 1990 1293 2118 1459 
Q 1830 1792 1472 2089 
Q 1114 2387 768 2586 
L 531 2573 
Q 224 2861 224 3123 
Q 224 3219 262 3312 
Q 301 3405 442 3475 
Q 621 3354 835 3181 
Q 1050 3008 1274 2813 
Q 1498 2618 1690 2426 
Q 1837 2285 1990 2118 
Q 2144 1952 2304 1766 
Q 2426 2048 2426 2317 
Q 2426 2451 2390 2745 
Q 2355 3040 2285 3501 
Q 2253 3718 2233 3846 
Q 2214 3974 2214 4000 
Q 2214 4326 2643 4403 
Q 2688 4205 2749 4016 
Q 2810 3827 2874 3642 
L 2701 3494 
L 2707 3360 
L 2746 2445 
Q 2746 1958 2502 1491 
Q 2566 1389 2646 1248 
Q 2726 1107 2803 963 
Q 2880 819 2931 704 
Q 2982 589 2982 538 
Q 2982 474 2947 374 
Q 2912 275 2867 195 
Q 2822 115 2790 109 
Q 2490 58 2013 29 
Q 1536 0 877 0 
z
M 1594 499 
Q 2157 518 2733 614 
Q 2662 742 2560 892 
Q 2458 1043 2323 1210 
Q 2189 1024 2003 845 
Q 1818 666 1594 499 
z
M -39 3699 
L -58 3948 
L 198 4089 
Q -39 4128 -39 4345 
Q -39 4467 31 4582 
Q 102 4697 214 4774 
Q 326 4851 435 4851 
Q 685 4851 685 4614 
Q 685 4524 640 4441 
L 518 4473 
L 525 4499 
Q 525 4531 499 4556 
Q 473 4582 441 4582 
Q 339 4582 259 4508 
Q 179 4435 141 4339 
Q 249 4211 448 4211 
Q 563 4211 761 4249 
L 749 4006 
Q 486 3942 316 3871 
Q 147 3801 -39 3699 
z
" transform="scale(0.015625)"/>
       <path id="NotoNaskhArabic-Regular-44" d="M 0 0 
Q -51 0 -51 51 
L -51 435 
Q -51 486 0 486 
Q 294 486 598 553 
Q 902 621 1133 723 
Q 1088 870 1030 1046 
Q 973 1222 902 1427 
Q 781 1747 781 1856 
Q 781 1997 893 2144 
Q 1005 2291 1197 2394 
Q 1210 2304 1248 2121 
Q 1286 1939 1344 1658 
Q 1440 1235 1440 1005 
Q 1440 909 1379 733 
Q 1318 557 1210 352 
Q 627 0 0 0 
z
M 909 3322 
Q 742 3424 550 3635 
Q 646 3731 732 3820 
Q 819 3910 890 3994 
Q 1005 3840 1242 3635 
Q 1056 3418 909 3322 
z
M 1363 2797 
Q 1152 2963 986 3149 
Q 1043 3200 1139 3299 
Q 1235 3398 1357 3539 
Q 1446 3450 1532 3360 
Q 1619 3270 1709 3187 
Q 1645 3098 1561 2998 
Q 1478 2899 1363 2797 
z
M 454 2714 
Q 333 2810 237 2899 
Q 141 2989 70 3066 
Q 224 3206 442 3456 
Q 506 3379 794 3104 
Q 736 3021 653 2921 
Q 570 2822 454 2714 
z
" transform="scale(0.015625)"/>
       <path id="NotoNaskhArabic-Regular-d4" d="M 710 -1306 
Q 608 -1306 451 -1248 
Q 294 -1190 134 -1107 
Q -26 -1024 -128 -947 
L -45 -736 
Q 134 -768 284 -787 
Q 435 -806 563 -806 
Q 1043 -806 1385 -518 
Q 1728 -230 1907 314 
Q 1862 416 1814 515 
Q 1766 614 1709 717 
Q 1491 1107 1388 1340 
Q 1286 1574 1286 1734 
Q 1286 1901 1382 2000 
Q 1478 2099 1658 2182 
Q 1683 2099 1712 2000 
Q 1741 1901 1786 1792 
Q 1888 1530 1955 1334 
Q 2022 1139 2054 1018 
Q 2093 896 2115 797 
Q 2138 698 2144 614 
Q 2362 486 2643 486 
Q 2694 486 2694 435 
L 2694 51 
Q 2694 0 2643 0 
Q 2342 0 2118 154 
Q 2048 -288 1849 -617 
Q 1651 -947 1356 -1126 
Q 1062 -1306 710 -1306 
z
" transform="scale(0.015625)"/>
       <path id="NotoNaskhArabic-Regular-554" transform="scale(0.015625)"/>
       <path id="NotoNaskhArabic-Regular-1c1" d="M -6 0 
Q -64 0 -64 51 
L -64 435 
Q -64 486 -6 486 
Q 378 486 704 659 
Q 685 902 665 1139 
Q 646 1376 627 1606 
Q 570 2208 512 2790 
Q 454 3373 384 3936 
Q 474 4032 579 4121 
Q 685 4211 806 4294 
Q 826 3949 851 3497 
Q 877 3046 915 2483 
Q 947 2016 960 1609 
Q 973 1203 979 864 
Q 979 755 915 572 
Q 851 390 755 224 
Q 640 0 -6 0 
z
" transform="scale(0.015625)"/>
       <path id="NotoNaskhArabic-Regular-1e4" d="M 2016 0 
Q 1414 0 902 192 
Q 595 77 400 38 
Q 205 0 0 0 
Q -51 0 -51 51 
L -51 435 
Q -51 486 0 486 
Q 109 486 211 505 
Q 314 525 416 550 
Q 371 640 371 749 
Q 371 928 460 1152 
Q 550 1376 700 1590 
Q 851 1805 1037 1952 
Q 1318 2176 1568 2176 
Q 1677 2176 1760 2051 
Q 1843 1926 1926 1734 
Q 1971 1645 2009 1542 
Q 2048 1440 2086 1331 
Q 2163 1114 2252 928 
Q 2342 742 2445 614 
Q 2554 486 2682 486 
Q 2752 486 2752 422 
L 2752 70 
Q 2752 0 2682 0 
Q 2362 0 2099 282 
L 2016 0 
z
M 1978 442 
Q 1837 646 1728 979 
Q 1619 1312 1581 1683 
Q 1421 1613 1241 1475 
Q 1062 1338 918 1178 
Q 774 1018 704 877 
Q 1133 525 1978 442 
z
" transform="scale(0.015625)"/>
       <path id="NotoNaskhArabic-Regular-37" d="M 0 0 
Q -51 0 -51 51 
L -51 435 
Q -51 486 0 486 
Q 397 486 672 521 
Q 947 557 1062 640 
Q 1133 685 1229 841 
Q 1325 998 1510 1350 
Q 1568 1459 1709 1459 
Q 1786 1459 1869 1408 
Q 1830 1312 1763 1161 
Q 1696 1011 1638 883 
Q 1581 755 1555 730 
Q 1773 595 1958 540 
Q 2144 486 2362 486 
Q 2413 486 2413 435 
L 2413 51 
Q 2413 0 2362 0 
Q 1766 0 1350 371 
L 1248 237 
Q 1203 192 1001 134 
Q 800 77 528 38 
Q 256 0 0 0 
z
M 1728 2035 
Q 1587 2144 1481 2243 
Q 1376 2342 1306 2432 
Q 1338 2464 1440 2573 
Q 1542 2682 1715 2861 
Q 1754 2822 1853 2726 
Q 1952 2630 2112 2477 
Q 1990 2285 1728 2035 
z
M 768 1946 
Q 627 2061 518 2160 
Q 410 2259 339 2336 
Q 506 2496 755 2771 
Q 794 2726 890 2630 
Q 986 2534 1146 2387 
Q 1088 2291 992 2182 
Q 896 2074 768 1946 
z
" transform="scale(0.015625)"/>
       <path id="NotoNaskhArabic-Regular-219" d="M 1235 -1299 
Q 1101 -1299 905 -1238 
Q 710 -1178 521 -1082 
Q 333 -986 218 -890 
L 307 -678 
Q 646 -800 1088 -800 
Q 1485 -800 1792 -605 
Q 2099 -410 2310 6 
Q 1997 19 1763 44 
Q 1530 70 1376 115 
Q 1037 205 902 374 
Q 768 544 768 877 
Q 768 1203 899 1523 
Q 1030 1843 1242 2035 
Q 1453 2227 1670 2227 
Q 1933 2227 2163 1990 
Q 2394 1754 2534 1338 
Q 2605 1126 2637 918 
Q 2669 710 2669 486 
L 3053 486 
Q 3104 486 3104 435 
L 3104 51 
Q 3104 0 3053 0 
L 2605 0 
Q 2509 -365 2304 -669 
Q 2099 -973 1818 -1139 
Q 1542 -1299 1235 -1299 
z
M 2413 493 
Q 2362 826 2234 1094 
Q 2106 1363 1933 1523 
Q 1760 1683 1574 1683 
Q 1440 1683 1309 1580 
Q 1178 1478 1094 1331 
Q 1011 1184 1011 1062 
Q 1011 838 1177 720 
Q 1344 602 1632 550 
Q 1779 525 1968 515 
Q 2157 506 2413 493 
z
" transform="scale(0.015625)"/>
       <path id="NotoNaskhArabic-Regular-16a" d="M 6 0 
Q -51 0 -51 58 
L -51 429 
Q -51 486 6 486 
Q 698 486 1174 569 
Q 1651 653 2054 832 
Q 2042 960 2019 1085 
Q 1997 1210 1971 1331 
Q 1773 1171 1536 1075 
Q 1299 979 1062 979 
Q 781 979 601 1193 
Q 422 1408 422 1728 
Q 422 2054 534 2342 
Q 646 2630 819 2797 
Q 1011 2970 1216 2970 
Q 1549 2970 1805 2730 
Q 2061 2490 2214 2054 
Q 2362 1613 2362 1114 
Q 2362 896 2138 461 
Q 1882 301 1587 198 
Q 1293 96 912 48 
Q 531 0 6 0 
z
M 1210 1466 
Q 1530 1466 1888 1626 
Q 1766 2016 1568 2221 
Q 1370 2426 1120 2426 
Q 928 2426 797 2250 
Q 666 2074 666 1856 
Q 666 1658 797 1562 
Q 928 1466 1210 1466 
z
M 1664 3321 
Q 1523 3430 1417 3529 
Q 1312 3628 1242 3718 
Q 1274 3750 1376 3859 
Q 1478 3968 1651 4147 
Q 1690 4108 1789 4012 
Q 1888 3916 2048 3763 
Q 1926 3571 1664 3321 
z
M 704 3232 
Q 563 3347 454 3446 
Q 346 3545 275 3622 
Q 442 3782 691 4057 
Q 730 4012 826 3916 
Q 922 3820 1082 3673 
Q 1024 3577 928 3468 
Q 832 3360 704 3232 
z
" transform="scale(0.015625)"/>
       <path id="NotoNaskhArabic-Regular-134" d="M 2125 -1830 
Q 1677 -1830 1344 -1657 
Q 1011 -1485 845 -1184 
Q 698 -928 698 -602 
Q 698 -352 762 -169 
Q 826 13 979 192 
Q 1133 371 1395 589 
Q 1350 640 1308 688 
Q 1267 736 1235 787 
Q 1114 966 1021 1088 
Q 928 1210 870 1274 
Q 768 1402 659 1491 
L 557 1427 
Q 435 1562 435 1715 
Q 435 1869 547 1984 
Q 659 2099 828 2182 
Q 998 2266 1171 2317 
Q 1434 2394 1690 2394 
Q 1965 2394 2182 2288 
Q 2400 2182 2525 2003 
Q 2650 1824 2650 1594 
Q 2650 1318 2502 1084 
Q 2355 851 2022 621 
Q 2208 544 2448 515 
Q 2688 486 3091 486 
Q 3155 486 3155 429 
L 3155 58 
Q 3155 0 3091 0 
Q 2726 0 2473 32 
Q 2221 64 2025 144 
Q 1830 224 1626 365 
Q 1254 115 1091 -102 
Q 928 -320 928 -595 
Q 928 -960 1225 -1139 
Q 1523 -1318 2182 -1318 
Q 2387 -1318 2540 -1305 
Q 2694 -1293 2883 -1245 
Q 3072 -1197 3373 -1107 
L 3469 -1325 
Q 3155 -1517 2924 -1629 
Q 2694 -1741 2508 -1785 
Q 2323 -1830 2125 -1830 
z
M 1728 838 
Q 1862 947 1955 1036 
Q 2048 1126 2093 1190 
Q 2189 1325 2189 1459 
Q 2189 1638 2057 1753 
Q 1926 1869 1709 1869 
Q 1312 1869 954 1677 
Q 1005 1632 1065 1581 
Q 1126 1530 1190 1459 
Q 1261 1389 1353 1280 
Q 1446 1171 1568 1018 
L 1728 838 
z
" transform="scale(0.015625)"/>
       <path id="DejaVuSans-b" d="M 1984 4856 
Q 1566 4138 1362 3434 
Q 1159 2731 1159 2009 
Q 1159 1288 1364 580 
Q 1569 -128 1984 -844 
L 1484 -844 
Q 1016 -109 783 600 
Q 550 1309 550 2009 
Q 550 2706 781 3412 
Q 1013 4119 1484 4856 
L 1984 4856 
z
" transform="scale(0.015625)"/>
       <path id="DejaVuSans-20" d="M 678 2906 
L 4684 2906 
L 4684 2381 
L 678 2381 
L 678 2906 
z
M 678 1631 
L 4684 1631 
L 4684 1100 
L 678 1100 
L 678 1631 
z
" transform="scale(0.015625)"/>
       <path id="NotoNaskhArabic-Regular-1e5" d="M 2291 0 
Q 2035 0 1753 48 
Q 1472 96 1209 182 
Q 947 269 749 384 
Q 602 179 422 89 
Q 243 0 0 0 
Q -51 0 -51 51 
L -51 435 
Q -51 486 0 486 
Q 243 486 409 604 
Q 576 723 698 960 
Q 813 1171 880 1308 
Q 947 1446 1004 1555 
Q 1062 1664 1152 1779 
Q 1312 1990 1478 2083 
Q 1645 2176 1830 2176 
Q 2016 2176 2201 1945 
Q 2387 1715 2502 1357 
Q 2618 1005 2618 666 
Q 2618 467 2547 307 
Q 2477 147 2291 0 
z
M 2150 486 
Q 2144 781 2061 1065 
Q 1978 1350 1875 1498 
Q 1805 1606 1728 1606 
Q 1491 1606 1286 1318 
Q 1235 1242 1161 1117 
Q 1088 992 998 806 
Q 1459 563 2150 486 
z
" transform="scale(0.015625)"/>
       <path id="NotoNaskhArabic-Regular-1e9" d="M 0 0 
Q -51 0 -51 51 
L -51 435 
Q -51 486 0 486 
Q 467 486 666 666 
Q 723 717 812 870 
Q 902 1024 1075 1350 
Q 1133 1459 1274 1459 
Q 1350 1459 1434 1408 
Q 1363 1242 1286 1069 
Q 1210 896 1120 730 
Q 1344 595 1526 540 
Q 1709 486 1926 486 
Q 1978 486 1978 435 
L 1978 51 
Q 1978 0 1926 0 
Q 1331 0 915 378 
Q 890 339 864 304 
Q 838 269 806 237 
Q 742 154 502 77 
Q 262 0 0 0 
z
M 1004 2061 
Q 723 2272 544 2477 
Q 870 2804 992 2944 
Q 1094 2836 1199 2730 
Q 1305 2624 1414 2528 
Q 1267 2317 1004 2061 
z
" transform="scale(0.015625)"/>
       <path id="NotoNaskhArabic-Regular-a3" d="M 0 0 
Q -51 0 -51 51 
L -51 435 
Q -51 486 0 486 
Q 602 486 1043 553 
Q 1485 621 1837 781 
Q 2253 966 2477 1011 
Q 2355 1069 2230 1142 
Q 2106 1216 1984 1306 
Q 1734 1491 1568 1564 
Q 1402 1638 1235 1638 
Q 1037 1638 902 1587 
Q 768 1536 531 1389 
Q 442 1491 442 1638 
Q 442 1882 653 2029 
Q 864 2176 1210 2176 
Q 1414 2176 1622 2096 
Q 1830 2016 2106 1824 
Q 2438 1600 2672 1481 
Q 2906 1363 3142 1312 
Q 3386 1254 3853 1254 
L 3603 781 
Q 3552 787 3440 793 
Q 3328 800 3213 813 
Q 3098 826 3021 832 
Q 3091 717 3171 646 
Q 3251 576 3379 544 
Q 3610 486 4314 486 
Q 4371 486 4371 435 
L 4371 51 
Q 4371 0 4314 0 
Q 3840 6 3549 73 
Q 3258 141 3072 288 
Q 2982 365 2896 483 
Q 2810 602 2733 762 
Q 2560 698 2387 598 
Q 2214 499 2042 410 
Q 1805 288 1603 208 
Q 1402 128 1181 83 
Q 960 38 678 19 
Q 397 0 0 0 
z
M 1894 2688 
Q 1613 2899 1434 3104 
Q 1760 3431 1882 3571 
Q 1984 3463 2089 3357 
Q 2195 3251 2304 3155 
Q 2157 2944 1894 2688 
z
" transform="scale(0.015625)"/>
       <path id="NotoNaskhArabic-Regular-145" d="M 6 0 
Q -51 0 -51 58 
L -51 429 
Q -51 486 6 486 
Q 186 486 320 492 
Q 454 499 557 512 
Q 320 774 320 1062 
Q 320 1171 339 1308 
Q 358 1446 384 1564 
Q 410 1683 435 1728 
Q 602 2029 870 2211 
Q 1139 2394 1446 2394 
Q 1613 2394 1766 2234 
Q 1920 2074 2016 1798 
Q 2118 1530 2118 1248 
Q 2118 845 1843 518 
Q 1946 506 2118 496 
Q 2291 486 2528 486 
Q 2586 486 2586 435 
L 2586 51 
Q 2586 0 2528 0 
Q 1734 0 1216 205 
Q 998 96 707 48 
Q 416 0 6 0 
z
M 1216 659 
Q 1581 794 1869 1050 
Q 1850 1210 1763 1402 
Q 1677 1594 1568 1722 
Q 1453 1850 1389 1850 
Q 1267 1850 1113 1750 
Q 960 1651 809 1484 
Q 659 1318 557 1120 
Q 826 813 1216 659 
z
M 1292 2771 
Q 1011 2982 832 3187 
Q 1158 3514 1280 3654 
Q 1382 3546 1487 3440 
Q 1593 3334 1702 3238 
Q 1555 3027 1292 2771 
z
" transform="scale(0.015625)"/>
       <path id="NotoNaskhArabic-Regular-11c" d="M 1594 -1677 
Q 1050 -1677 742 -1363 
Q 435 -1050 435 -474 
Q 435 -346 444 -237 
Q 454 -128 480 9 
Q 506 147 557 358 
L 794 301 
Q 723 6 723 -154 
Q 723 -621 956 -883 
Q 1190 -1146 1606 -1146 
Q 1926 -1146 2249 -1040 
Q 2573 -934 2829 -752 
Q 3085 -570 3187 -346 
Q 2976 109 2873 416 
Q 2771 723 2771 877 
Q 2771 1043 2864 1174 
Q 2957 1306 3187 1446 
Q 3206 1286 3241 1107 
Q 3277 928 3315 710 
L 3462 659 
Q 4109 1498 4621 1891 
Q 5133 2285 5555 2285 
Q 5690 2285 5856 2211 
Q 6022 2138 6192 2016 
Q 6362 1894 6490 1741 
Q 6682 1523 6682 1350 
Q 6682 934 6426 653 
Q 6720 486 7091 486 
Q 7142 486 7142 435 
L 7142 51 
Q 7142 0 7091 0 
Q 6816 0 6547 112 
Q 6278 224 6125 384 
Q 5850 211 5446 105 
Q 5043 0 4627 0 
Q 3981 0 3411 154 
Q 3418 90 3421 26 
Q 3424 -38 3424 -109 
Q 3424 -499 3174 -860 
Q 2925 -1222 2490 -1446 
Q 2061 -1677 1594 -1677 
z
M 4685 486 
Q 5510 486 6400 1037 
Q 6202 1376 5930 1561 
Q 5658 1747 5395 1747 
Q 5184 1747 4918 1603 
Q 4653 1459 4352 1197 
Q 4211 1069 4060 912 
Q 3910 755 3763 576 
Q 4026 531 4256 508 
Q 4486 486 4685 486 
z
M 4652 2880 
Q 4371 3091 4192 3296 
Q 4518 3623 4640 3763 
Q 4742 3655 4847 3549 
Q 4953 3443 5062 3347 
Q 4915 3136 4652 2880 
z
" transform="scale(0.015625)"/>
       <path id="NotoNaskhArabic-Regular-53a" d="M 653 -384 
Q 474 -384 365 -253 
Q 256 -122 256 38 
Q 256 198 342 422 
Q 429 646 579 883 
Q 730 1120 909 1312 
L 1082 1165 
Q 979 1056 899 893 
Q 819 730 771 570 
Q 723 410 723 294 
Q 723 211 819 153 
Q 915 96 1082 45 
Q 1056 -141 934 -262 
Q 813 -384 653 -384 
z
" transform="scale(0.015625)"/>
       <path id="NotoNaskhArabic-Regular-38" d="M 0 0 
Q -51 0 -51 51 
L -51 435 
Q -51 486 0 486 
Q 294 486 598 553 
Q 902 621 1133 723 
Q 1088 870 1030 1046 
Q 973 1222 902 1427 
Q 781 1747 781 1856 
Q 781 1997 893 2144 
Q 1005 2291 1197 2394 
Q 1210 2304 1248 2121 
Q 1286 1939 1344 1658 
Q 1440 1235 1440 1005 
Q 1440 909 1379 733 
Q 1318 557 1210 352 
Q 627 0 0 0 
z
M 1344 2803 
Q 1203 2912 1097 3011 
Q 992 3110 922 3200 
Q 954 3232 1056 3341 
Q 1158 3450 1331 3629 
Q 1370 3590 1469 3494 
Q 1568 3398 1728 3245 
Q 1606 3053 1344 2803 
z
M 384 2714 
Q 243 2829 134 2928 
Q 26 3027 -45 3104 
Q 122 3264 371 3539 
Q 410 3494 506 3398 
Q 602 3302 762 3155 
Q 704 3059 608 2950 
Q 512 2842 384 2714 
z
" transform="scale(0.015625)"/>
       <path id="DejaVuSans-c" d="M 513 4856 
L 1013 4856 
Q 1481 4119 1714 3412 
Q 1947 2706 1947 2009 
Q 1947 1309 1714 600 
Q 1481 -109 1013 -844 
L 513 -844 
Q 928 -128 1133 580 
Q 1338 1288 1338 2009 
Q 1338 2731 1133 3434 
Q 928 4138 513 4856 
z
" transform="scale(0.015625)"/>
      </defs>
      <use xlink:href="#NotoNaskhArabic-Regular-3"/>
      <use xlink:href="#NotoNaskhArabic-Regular-2e8" transform="translate(23.796875 0)"/>
      <use xlink:href="#NotoNaskhArabic-Regular-44" transform="translate(75.59375 0)"/>
      <use xlink:href="#NotoNaskhArabic-Regular-d4" transform="translate(103.09375 0)"/>
      <use xlink:href="#NotoNaskhArabic-Regular-554" transform="translate(143.5 0)"/>
      <use xlink:href="#NotoNaskhArabic-Regular-3" transform="translate(165.59375 0)"/>
      <use xlink:href="#NotoNaskhArabic-Regular-1c1" transform="translate(189.390625 0)"/>
      <use xlink:href="#NotoNaskhArabic-Regular-1e4" transform="translate(210.59375 0)"/>
      <use xlink:href="#NotoNaskhArabic-Regular-37" transform="translate(251.890625 0)"/>
      <use xlink:href="#NotoNaskhArabic-Regular-219" transform="translate(287.890625 0)"/>
      <use xlink:href="#NotoNaskhArabic-Regular-16a" transform="translate(334.6875 0)"/>
      <use xlink:href="#NotoNaskhArabic-Regular-134" transform="translate(376.6875 0)"/>
      <use xlink:href="#NotoNaskhArabic-Regular-554" transform="translate(424.390625 0)"/>
      <use xlink:href="#DejaVuSans-b" transform="translate(446.484375 0)"/>
      <use xlink:href="#NotoNaskhArabic-Regular-4cd" transform="translate(485.5 0)"/>
      <use xlink:href="#DejaVuSans-20" transform="translate(542.703125 0)"/>
      <use xlink:href="#NotoNaskhArabic-Regular-1e5" transform="translate(626.5 0)"/>
      <use xlink:href="#NotoNaskhArabic-Regular-1e9" transform="translate(672.09375 0)"/>
      <use xlink:href="#NotoNaskhArabic-Regular-a3" transform="translate(701.296875 0)"/>
      <use xlink:href="#NotoNaskhArabic-Regular-145" transform="translate(767.890625 0)"/>
      <use xlink:href="#NotoNaskhArabic-Regular-11c" transform="translate(806.59375 0)"/>
      <use xlink:href="#NotoNaskhArabic-Regular-53a" transform="translate(916.5 0)"/>
      <use xlink:href="#NotoNaskhArabic-Regular-554" transform="translate(937.703125 0)"/>
      <use xlink:href="#NotoNaskhArabic-Regular-4cf" transform="translate(959.796875 0)"/>
      <use xlink:href="#DejaVuSans-20" transform="translate(1017 0)"/>
      <use xlink:href="#NotoNaskhArabic-Regular-1e5" transform="translate(1100.796875 0)"/>
      <use xlink:href="#NotoNaskhArabic-Regular-d4" transform="translate(1146.390625 0)"/>
      <use xlink:href="#NotoNaskhArabic-Regular-38" transform="translate(1186.796875 0)"/>
      <use xlink:href="#NotoNaskhArabic-Regular-145" transform="translate(1214.296875 0)"/>
      <use xlink:href="#NotoNaskhArabic-Regular-134" transform="translate(1253 0)"/>
      <use xlink:href="#DejaVuSans-c" transform="translate(1300.703125 0)"/>
     </g>
    </g>
   </g>
   <g id="matplotlib.axis_2">
    <g id="ytick_1">
     <g id="line2d_17">
      <defs>
       <path id="m09cb7ef4c9" d="M 0 0 
L -3.5 0 
" style="stroke: #555555; stroke-width: 0.8"/>
      </defs>
      <g>
       <use xlink:href="#m09cb7ef4c9" x="44.712344" y="37.549939" style="fill: #555555; stroke: #555555; stroke-width: 0.8"/>
      </g>
     </g>
     <g id="text_10">
      <!-- ﻦﻴﻨﺛﻹﺍ -->
      <g style="fill: #555555" transform="translate(13.898672 43.162189) scale(0.105 -0.105)">
       <defs>
        <path id="NotoNaskhArabic-Regular-2ea" d="M 877 0 
Q 858 0 858 70 
Q 858 128 874 227 
Q 890 326 915 406 
Q 941 486 954 486 
L 1088 486 
Q 1376 710 1555 864 
Q 1734 1018 1862 1155 
Q 1990 1293 2118 1459 
Q 1830 1792 1472 2089 
Q 1114 2387 768 2586 
L 531 2573 
Q 224 2861 224 3123 
Q 224 3219 262 3312 
Q 301 3405 442 3475 
Q 621 3354 835 3181 
Q 1050 3008 1274 2813 
Q 1498 2618 1690 2426 
Q 1837 2285 1990 2118 
Q 2144 1952 2304 1766 
Q 2426 2048 2426 2317 
Q 2426 2451 2390 2745 
Q 2355 3040 2285 3501 
Q 2253 3718 2233 3846 
Q 2214 3974 2214 4000 
Q 2214 4326 2643 4403 
Q 2688 4205 2749 4016 
Q 2810 3827 2874 3642 
L 2701 3494 
L 2707 3360 
L 2746 2445 
Q 2746 1958 2502 1491 
Q 2566 1389 2646 1248 
Q 2726 1107 2803 963 
Q 2880 819 2931 704 
Q 2982 589 2982 538 
Q 2982 474 2947 374 
Q 2912 275 2867 195 
Q 2822 115 2790 109 
Q 2490 58 2013 29 
Q 1536 0 877 0 
z
M 1594 499 
Q 2157 518 2733 614 
Q 2662 742 2560 892 
Q 2458 1043 2323 1210 
Q 2189 1024 2003 845 
Q 1818 666 1594 499 
z
M 723 -1575 
L 710 -1325 
L 960 -1184 
Q 729 -1133 729 -928 
Q 729 -800 803 -688 
Q 877 -576 985 -502 
Q 1094 -429 1203 -429 
Q 1453 -429 1453 -659 
Q 1453 -749 1408 -839 
L 1286 -800 
L 1293 -775 
Q 1293 -698 1216 -698 
Q 1113 -698 1030 -768 
Q 947 -839 915 -935 
Q 1011 -1063 1203 -1063 
Q 1357 -1063 1529 -1018 
L 1517 -1267 
Q 1331 -1312 1209 -1353 
Q 1088 -1395 979 -1446 
Q 870 -1498 723 -1575 
z
" transform="scale(0.015625)"/>
        <path id="NotoNaskhArabic-Regular-240" d="M 0 0 
Q -51 0 -51 51 
L -51 435 
Q -51 486 0 486 
Q 397 486 672 521 
Q 947 557 1062 640 
Q 1133 685 1229 841 
Q 1325 998 1510 1350 
Q 1568 1459 1709 1459 
Q 1786 1459 1869 1408 
Q 1830 1312 1763 1161 
Q 1696 1011 1638 883 
Q 1581 755 1555 730 
Q 1773 595 1958 540 
Q 2144 486 2362 486 
Q 2413 486 2413 435 
L 2413 51 
Q 2413 0 2362 0 
Q 1766 0 1350 371 
L 1248 237 
Q 1203 192 1001 134 
Q 800 77 528 38 
Q 256 0 0 0 
z
M 1728 -1165 
Q 1459 -953 1312 -774 
Q 1453 -640 1721 -345 
Q 1753 -371 1849 -467 
Q 1945 -563 2118 -729 
Q 2054 -819 1958 -928 
Q 1862 -1037 1728 -1165 
z
M 774 -1261 
Q 486 -1030 345 -870 
Q 435 -793 537 -684 
Q 640 -576 761 -435 
Q 787 -467 886 -563 
Q 985 -659 1152 -819 
Q 1094 -915 998 -1024 
Q 902 -1133 774 -1261 
z
" transform="scale(0.015625)"/>
        <path id="NotoNaskhArabic-Regular-1e8" d="M 1594 -1677 
Q 1050 -1677 742 -1363 
Q 435 -1050 435 -474 
Q 435 -346 444 -237 
Q 454 -128 480 9 
Q 506 147 557 358 
L 794 301 
Q 723 6 723 -154 
Q 723 -621 956 -883 
Q 1190 -1146 1606 -1146 
Q 1926 -1146 2249 -1040 
Q 2573 -934 2829 -752 
Q 3085 -570 3187 -346 
Q 2976 109 2873 416 
Q 2771 723 2771 877 
Q 2771 1043 2864 1174 
Q 2957 1306 3187 1446 
Q 3200 1344 3235 1133 
Q 3270 922 3334 595 
Q 3565 486 3802 486 
Q 3859 486 3859 435 
L 3859 51 
Q 3859 0 3802 0 
Q 3590 0 3418 77 
L 3424 -109 
Q 3424 -499 3174 -860 
Q 2925 -1222 2490 -1446 
Q 2061 -1677 1594 -1677 
z
M 1766 1504 
Q 1485 1715 1306 1920 
Q 1632 2247 1754 2387 
Q 1856 2279 1961 2173 
Q 2067 2067 2176 1971 
Q 2029 1760 1766 1504 
z
" transform="scale(0.015625)"/>
       </defs>
       <use xlink:href="#NotoNaskhArabic-Regular-3"/>
       <use xlink:href="#NotoNaskhArabic-Regular-2ea" transform="translate(23.796875 0)"/>
       <use xlink:href="#NotoNaskhArabic-Regular-44" transform="translate(75.59375 0)"/>
       <use xlink:href="#NotoNaskhArabic-Regular-1e9" transform="translate(103.09375 0)"/>
       <use xlink:href="#NotoNaskhArabic-Regular-240" transform="translate(132.296875 0)"/>
       <use xlink:href="#NotoNaskhArabic-Regular-1e8" transform="translate(168.296875 0)"/>
      </g>
     </g>
    </g>
    <g id="ytick_2">
     <g id="line2d_18">
      <g>
       <use xlink:href="#m09cb7ef4c9" x="44.712344" y="84.97172" style="fill: #555555; stroke: #555555; stroke-width: 0.8"/>
      </g>
     </g>
     <g id="text_11">
      <!-- ﺀﺎﺛﻼﺜﻟﺍ -->
      <g style="fill: #555555" transform="translate(12.669844 90.58397) scale(0.105 -0.105)">
       <defs>
        <path id="NotoNaskhArabic-Regular-43" d="M 0 0 
Q -51 0 -51 51 
L -51 435 
Q -51 486 0 486 
Q 397 486 672 521 
Q 947 557 1062 640 
Q 1133 685 1229 841 
Q 1325 998 1510 1350 
Q 1568 1459 1709 1459 
Q 1786 1459 1869 1408 
Q 1830 1312 1763 1161 
Q 1696 1011 1638 883 
Q 1581 755 1555 730 
Q 1773 595 1958 540 
Q 2144 486 2362 486 
Q 2413 486 2413 435 
L 2413 51 
Q 2413 0 2362 0 
Q 1766 0 1350 371 
L 1248 237 
Q 1203 192 1001 134 
Q 800 77 528 38 
Q 256 0 0 0 
z
M 1293 2554 
Q 1126 2656 934 2867 
Q 1030 2963 1116 3052 
Q 1203 3142 1274 3226 
Q 1389 3072 1626 2867 
Q 1440 2650 1293 2554 
z
M 1747 2029 
Q 1536 2195 1370 2381 
Q 1427 2432 1523 2531 
Q 1619 2630 1741 2771 
Q 1830 2682 1916 2592 
Q 2003 2502 2093 2419 
Q 2029 2330 1945 2230 
Q 1862 2131 1747 2029 
z
M 838 1946 
Q 717 2042 621 2131 
Q 525 2221 454 2298 
Q 608 2438 826 2688 
Q 890 2611 1178 2336 
Q 1120 2253 1037 2153 
Q 954 2054 838 1946 
z
" transform="scale(0.015625)"/>
        <path id="NotoNaskhArabic-Regular-2df" d="M 358 0 
L 339 224 
Q 1075 403 1382 525 
Q 1683 646 1894 800 
Q 1658 1331 1366 1760 
Q 1075 2189 736 2515 
L 499 2515 
Q 371 2650 294 2778 
Q 218 2906 218 3066 
Q 218 3302 461 3418 
Q 717 3258 973 2966 
Q 1229 2675 1453 2323 
Q 1677 1971 1818 1613 
Q 1856 1510 1917 1344 
Q 1978 1178 2061 947 
Q 2304 1197 2438 1574 
Q 2573 1952 2656 2483 
Q 2739 3008 2771 3936 
Q 2803 3974 2841 4009 
Q 2880 4045 2925 4083 
Q 2989 4134 3056 4188 
Q 3123 4243 3200 4294 
Q 3232 3462 3254 2563 
Q 3277 1664 3296 659 
Q 3584 486 3962 486 
Q 4013 486 4013 435 
L 4013 51 
Q 4013 0 3962 0 
Q 3584 0 3334 150 
Q 3085 301 3053 557 
Q 3027 742 3008 928 
Q 2989 1114 2970 1299 
Q 2957 1485 2934 1808 
Q 2912 2131 2880 2592 
L 2861 2419 
Q 2816 1997 2761 1689 
Q 2707 1382 2656 1197 
Q 2362 166 1658 77 
Q 1062 6 358 0 
z
" transform="scale(0.015625)"/>
        <path id="NotoNaskhArabic-Regular-4" d="M 1677 0 
Q 1299 0 1049 150 
Q 800 301 768 557 
Q 742 787 713 1072 
Q 685 1357 653 1747 
Q 621 2138 579 2672 
Q 538 3206 486 3936 
Q 576 4026 685 4118 
Q 794 4211 922 4294 
Q 941 3795 953 3308 
Q 966 2822 976 2281 
Q 986 1741 992 1082 
L 1011 653 
Q 1312 486 1677 486 
Q 1728 486 1728 435 
L 1728 51 
Q 1728 0 1677 0 
z
" transform="scale(0.015625)"/>
        <path id="NotoNaskhArabic-Regular-1" d="M 435 -237 
L 346 32 
Q 467 83 604 134 
Q 742 186 934 250 
Q 851 301 813 339 
Q 730 429 675 531 
Q 621 634 621 742 
Q 621 922 707 1114 
Q 794 1306 941 1469 
Q 1088 1632 1274 1709 
Q 1344 1741 1414 1757 
Q 1485 1773 1562 1773 
Q 1786 1773 1926 1654 
Q 2067 1536 2067 1299 
Q 2067 1146 1990 1011 
Q 1926 1030 1888 1046 
Q 1850 1062 1798 1088 
Q 1843 1152 1850 1248 
Q 1811 1286 1728 1305 
Q 1645 1325 1587 1325 
Q 1402 1325 1200 1209 
Q 998 1094 864 915 
Q 973 672 1178 557 
Q 1248 518 1353 480 
Q 1459 442 1549 416 
Q 1587 429 1632 441 
Q 1677 454 1722 461 
Q 1875 506 2038 534 
Q 2202 563 2342 589 
Q 2419 602 2480 608 
Q 2541 614 2586 621 
Q 2682 518 2682 397 
Q 2682 256 2592 179 
Q 2502 102 2381 90 
Q 2150 64 1900 38 
Q 1651 13 1478 -19 
Q 1363 -38 1232 -64 
Q 1101 -90 915 -128 
Q 730 -166 435 -237 
z
" transform="scale(0.015625)"/>
       </defs>
       <use xlink:href="#NotoNaskhArabic-Regular-3"/>
       <use xlink:href="#NotoNaskhArabic-Regular-1c1" transform="translate(23.796875 0)"/>
       <use xlink:href="#NotoNaskhArabic-Regular-43" transform="translate(45 0)"/>
       <use xlink:href="#NotoNaskhArabic-Regular-2df" transform="translate(81 0)"/>
       <use xlink:href="#NotoNaskhArabic-Regular-44" transform="translate(142 0)"/>
       <use xlink:href="#NotoNaskhArabic-Regular-4" transform="translate(169.5 0)"/>
       <use xlink:href="#NotoNaskhArabic-Regular-1" transform="translate(194.796875 0)"/>
      </g>
     </g>
    </g>
    <g id="ytick_3">
     <g id="line2d_19">
      <g>
       <use xlink:href="#m09cb7ef4c9" x="44.712344" y="132.3935" style="fill: #555555; stroke: #555555; stroke-width: 0.8"/>
      </g>
     </g>
     <g id="text_12">
      <!-- ﺀﺎﻌﺑﺭﻷﺍ -->
      <g style="fill: #555555" transform="translate(11.2425 138.00575) scale(0.105 -0.105)">
       <defs>
        <path id="NotoNaskhArabic-Regular-d3" d="M 710 -1306 
Q 608 -1306 451 -1248 
Q 294 -1190 134 -1107 
Q -26 -1024 -128 -947 
L -45 -736 
Q 134 -768 284 -787 
Q 435 -806 563 -806 
Q 1043 -806 1385 -518 
Q 1728 -230 1907 314 
Q 1862 416 1814 515 
Q 1766 614 1709 717 
Q 1491 1107 1388 1340 
Q 1286 1574 1286 1734 
Q 1286 1901 1382 2000 
Q 1478 2099 1658 2182 
Q 1696 2029 1789 1785 
Q 1882 1542 1946 1357 
Q 2029 1133 2086 915 
Q 2144 698 2144 518 
Q 2144 19 1955 -406 
Q 1766 -832 1440 -1069 
Q 1107 -1306 710 -1306 
z
" transform="scale(0.015625)"/>
        <path id="NotoNaskhArabic-Regular-26" d="M 0 0 
Q -51 0 -51 51 
L -51 435 
Q -51 486 0 486 
Q 294 486 598 553 
Q 902 621 1133 723 
Q 1088 870 1030 1046 
Q 973 1222 902 1427 
Q 781 1747 781 1856 
Q 781 1997 893 2144 
Q 1005 2291 1197 2394 
Q 1210 2304 1248 2121 
Q 1286 1939 1344 1658 
Q 1440 1235 1440 1005 
Q 1440 909 1379 733 
Q 1318 557 1210 352 
Q 627 0 0 0 
z
M 909 -1325 
Q 768 -1216 652 -1110 
Q 537 -1005 448 -902 
Q 736 -627 896 -435 
Q 1120 -672 1318 -857 
Q 1165 -1069 909 -1325 
z
" transform="scale(0.015625)"/>
        <path id="NotoNaskhArabic-Regular-135" d="M 6 0 
Q -51 0 -51 58 
L -51 429 
Q -51 486 6 486 
Q 672 486 1101 640 
L 986 787 
Q 864 973 771 1094 
Q 678 1216 621 1280 
Q 506 1427 410 1491 
L 307 1427 
Q 192 1555 192 1709 
Q 192 1862 297 1974 
Q 403 2086 566 2172 
Q 730 2259 902 2310 
Q 1158 2394 1446 2394 
Q 1722 2394 1936 2288 
Q 2150 2182 2272 2003 
Q 2400 1824 2400 1594 
Q 2400 1293 2243 1049 
Q 2086 806 1830 602 
Q 2099 486 2694 486 
Q 2758 486 2758 429 
L 2758 58 
Q 2758 0 2694 0 
Q 2259 0 1955 83 
Q 1651 166 1402 346 
Q 1050 166 723 83 
Q 397 0 6 0 
z
M 1478 845 
Q 1696 992 1821 1152 
Q 1946 1312 1946 1459 
Q 1946 1638 1811 1753 
Q 1677 1869 1466 1869 
Q 1075 1869 710 1677 
Q 947 1491 1325 1018 
Q 1395 934 1478 845 
z
" transform="scale(0.015625)"/>
       </defs>
       <use xlink:href="#NotoNaskhArabic-Regular-3"/>
       <use xlink:href="#NotoNaskhArabic-Regular-2e8" transform="translate(23.796875 0)"/>
       <use xlink:href="#NotoNaskhArabic-Regular-d3" transform="translate(75.59375 0)"/>
       <use xlink:href="#NotoNaskhArabic-Regular-26" transform="translate(114.1875 0)"/>
       <use xlink:href="#NotoNaskhArabic-Regular-135" transform="translate(141.6875 0)"/>
       <use xlink:href="#NotoNaskhArabic-Regular-4" transform="translate(183.09375 0)"/>
       <use xlink:href="#NotoNaskhArabic-Regular-1" transform="translate(208.390625 0)"/>
      </g>
     </g>
    </g>
    <g id="ytick_4">
     <g id="line2d_20">
      <g>
       <use xlink:href="#m09cb7ef4c9" x="44.712344" y="179.81528" style="fill: #555555; stroke: #555555; stroke-width: 0.8"/>
      </g>
     </g>
     <g id="text_13">
      <!-- ﺲﻴﻤﺨﻟﺍ -->
      <g style="fill: #555555" transform="translate(7.2 185.42753) scale(0.105 -0.105)">
       <defs>
        <path id="NotoNaskhArabic-Regular-f8" d="M 1594 -1677 
Q 1050 -1677 742 -1363 
Q 435 -1050 435 -474 
Q 435 -346 444 -237 
Q 454 -128 480 9 
Q 506 147 557 358 
L 794 301 
Q 723 6 723 -154 
Q 723 -621 956 -883 
Q 1190 -1146 1606 -1146 
Q 1926 -1146 2249 -1040 
Q 2573 -934 2829 -752 
Q 3085 -570 3187 -346 
Q 2976 109 2873 416 
Q 2771 723 2771 877 
Q 2771 1043 2864 1174 
Q 2957 1306 3187 1446 
Q 3200 1325 3245 1094 
Q 3290 864 3354 525 
Q 3526 486 3782 486 
Q 3930 486 4054 505 
Q 4179 525 4282 550 
Q 4333 627 4435 992 
Q 4480 1146 4531 1280 
Q 4582 1414 4640 1517 
Q 4710 1613 4845 1613 
Q 4941 1613 4992 1568 
Q 4909 1376 4736 819 
L 4666 582 
Q 4819 506 5005 506 
Q 5165 506 5357 570 
Q 5382 608 5430 723 
Q 5478 838 5542 1030 
Q 5626 1267 5699 1436 
Q 5773 1606 5837 1638 
Q 5888 1664 5965 1664 
Q 6054 1664 6118 1619 
Q 6022 1363 5945 1155 
Q 5869 947 5792 710 
L 5894 653 
Q 6189 486 6560 486 
Q 6611 486 6611 435 
L 6611 51 
Q 6611 0 6560 0 
Q 6310 0 6064 96 
Q 5818 192 5651 346 
L 5562 173 
Q 5510 96 5340 48 
Q 5171 0 4992 0 
Q 4704 0 4480 160 
Q 4435 109 4307 70 
Q 4179 32 4032 16 
Q 3885 0 3770 0 
Q 3693 0 3613 6 
Q 3533 13 3424 26 
L 3424 -109 
Q 3424 -499 3174 -860 
Q 2925 -1222 2490 -1446 
Q 2061 -1677 1594 -1677 
z
" transform="scale(0.015625)"/>
       </defs>
       <use xlink:href="#NotoNaskhArabic-Regular-3"/>
       <use xlink:href="#NotoNaskhArabic-Regular-1c1" transform="translate(23.796875 0)"/>
       <use xlink:href="#NotoNaskhArabic-Regular-a3" transform="translate(45 0)"/>
       <use xlink:href="#NotoNaskhArabic-Regular-1e4" transform="translate(111.59375 0)"/>
       <use xlink:href="#NotoNaskhArabic-Regular-240" transform="translate(152.890625 0)"/>
       <use xlink:href="#NotoNaskhArabic-Regular-f8" transform="translate(188.890625 0)"/>
      </g>
     </g>
    </g>
    <g id="ytick_5">
     <g id="line2d_21">
      <g>
       <use xlink:href="#m09cb7ef4c9" x="44.712344" y="227.237061" style="fill: #555555; stroke: #555555; stroke-width: 0.8"/>
      </g>
     </g>
     <g id="text_14">
      <!-- ﺔﻌﻤﺠﻟﺍ -->
      <g style="fill: #555555" transform="translate(12.407344 232.849311) scale(0.105 -0.105)">
       <defs>
        <path id="NotoNaskhArabic-Regular-73" d="M 0 0 
Q -51 0 -51 51 
L -51 435 
Q -51 486 0 486 
Q 602 486 1043 553 
Q 1485 621 1837 781 
Q 2253 966 2477 1011 
Q 2355 1069 2230 1142 
Q 2106 1216 1984 1306 
Q 1734 1491 1568 1564 
Q 1402 1638 1235 1638 
Q 1037 1638 902 1587 
Q 768 1536 531 1389 
Q 442 1491 442 1638 
Q 442 1882 653 2029 
Q 864 2176 1210 2176 
Q 1414 2176 1622 2096 
Q 1830 2016 2106 1824 
Q 2438 1600 2672 1481 
Q 2906 1363 3142 1312 
Q 3386 1254 3853 1254 
L 3603 781 
Q 3552 787 3440 793 
Q 3328 800 3213 813 
Q 3098 826 3021 832 
Q 3091 717 3171 646 
Q 3251 576 3379 544 
Q 3610 486 4314 486 
Q 4371 486 4371 435 
L 4371 51 
Q 4371 0 4314 0 
Q 3840 6 3549 73 
Q 3258 141 3072 288 
Q 2982 365 2896 483 
Q 2810 602 2733 762 
Q 2560 698 2387 598 
Q 2214 499 2042 410 
Q 1805 288 1603 208 
Q 1402 128 1181 83 
Q 960 38 678 19 
Q 397 0 0 0 
z
M 2272 -1178 
Q 2131 -1069 2015 -963 
Q 1900 -858 1811 -755 
Q 2099 -480 2259 -288 
Q 2483 -525 2681 -710 
Q 2528 -922 2272 -1178 
z
" transform="scale(0.015625)"/>
        <path id="NotoNaskhArabic-Regular-215" d="M 3040 0 
Q 2656 0 2416 147 
Q 2176 294 2138 557 
L 2112 691 
L 1882 250 
Q 1651 275 1520 291 
Q 1389 307 1305 332 
Q 1222 358 1126 397 
Q 1011 442 873 515 
Q 736 589 633 675 
Q 531 762 531 838 
Q 531 896 572 1014 
Q 614 1133 668 1251 
Q 723 1370 762 1434 
Q 813 1523 922 1632 
Q 1088 1792 1344 1955 
Q 1600 2118 1875 2227 
L 1850 2400 
Q 2074 2598 2317 2733 
Q 2330 2214 2349 1696 
Q 2368 1178 2374 659 
Q 2675 486 3040 486 
Q 3098 486 3098 435 
L 3098 51 
Q 3098 0 3040 0 
z
M 2099 768 
Q 2061 1018 2019 1283 
Q 1978 1549 1933 1811 
Q 1171 1555 845 1139 
Q 1018 986 1219 909 
Q 1421 832 1645 800 
Q 1754 787 1869 780 
Q 1984 774 2099 768 
z
M 2067 2995 
Q 1926 3104 1820 3203 
Q 1715 3302 1645 3392 
Q 1677 3424 1779 3533 
Q 1881 3642 2054 3821 
Q 2093 3782 2192 3686 
Q 2291 3590 2451 3437 
Q 2329 3245 2067 2995 
z
M 1107 2906 
Q 966 3021 857 3120 
Q 749 3219 678 3296 
Q 845 3456 1094 3731 
Q 1133 3686 1229 3590 
Q 1325 3494 1485 3347 
Q 1427 3251 1331 3142 
Q 1235 3034 1107 2906 
z
" transform="scale(0.015625)"/>
       </defs>
       <use xlink:href="#NotoNaskhArabic-Regular-3"/>
       <use xlink:href="#NotoNaskhArabic-Regular-1c1" transform="translate(23.796875 0)"/>
       <use xlink:href="#NotoNaskhArabic-Regular-73" transform="translate(45 0)"/>
       <use xlink:href="#NotoNaskhArabic-Regular-1e4" transform="translate(111.59375 0)"/>
       <use xlink:href="#NotoNaskhArabic-Regular-135" transform="translate(152.890625 0)"/>
       <use xlink:href="#NotoNaskhArabic-Regular-215" transform="translate(194.296875 0)"/>
      </g>
     </g>
    </g>
   </g>
   <g id="patch_3">
    <path d="M 44.712344 257.587 
L 44.712344 7.2 
" style="fill: none; stroke: #1f2937; stroke-width: 0.8; stroke-linejoin: miter; stroke-linecap: square"/>
   </g>
   <g id="patch_4">
    <path d="M 44.712344 257.587 
L 614.0625 257.587 
" style="fill: none; stroke: #1f2937; stroke-width: 0.8; stroke-linejoin: miter; stroke-linecap: square"/>
   </g>
   <g id="patch_5">
    <path d="M 44.712344 18.581227 
L 207.383817 18.581227 
L 207.383817 56.518652 
L 44.712344 56.518652 
z
" clip-path="url(#p432ed949c8)" style="fill: #e0a94a"/>
   </g>
   <g id="patch_6">
    <path d="M 44.712344 66.003008 
L 370.05529 66.003008 
L 370.05529 103.940432 
L 44.712344 103.940432 
z
" clip-path="url(#p432ed949c8)" style="fill: #e0a94a"/>
   </g>
   <g id="patch_7">
    <path d="M 44.712344 113.424788 
L 532.726763 113.424788 
L 532.726763 151.362212 
L 44.712344 151.362212 
z
" clip-path="url(#p432ed949c8)" style="fill: #b91c1c"/>
   </g>
   <g id="patch_8">
    <path d="M 44.712344 160.846568 
L 370.05529 160.846568 
L 370.05529 198.783992 
L 44.712344 198.783992 
z
" clip-path="url(#p432ed949c8)" style="fill: #e0a94a"/>
   </g>
   <g id="patch_9">
    <path d="M 44.712344 208.268348 
L 207.383817 208.268348 
L 207.383817 246.205773 
L 44.712344 246.205773 
z
" clip-path="url(#p432ed949c8)" style="fill: #e0a94a"/>
   </g>
   <g id="text_15">
    <!-- ﺔﺋﺰﺠﺘﻟﺍ ﺕﺎﻌﻴﺒﻣ -->
    <g style="fill: #1f2937" transform="translate(223.650964 39.507439) scale(0.09 -0.09)">
     <defs>
      <path id="NotoNaskhArabic-Regular-25" d="M 0 0 
Q -51 0 -51 51 
L -51 435 
Q -51 486 0 486 
Q 467 486 666 666 
Q 723 717 812 870 
Q 902 1024 1075 1350 
Q 1133 1459 1274 1459 
Q 1350 1459 1434 1408 
Q 1363 1242 1286 1069 
Q 1210 896 1120 730 
Q 1344 595 1526 540 
Q 1709 486 1926 486 
Q 1978 486 1978 435 
L 1978 51 
Q 1978 0 1926 0 
Q 1331 0 915 378 
Q 890 339 864 304 
Q 838 269 806 237 
Q 742 154 502 77 
Q 262 0 0 0 
z
M 1037 -1325 
Q 896 -1216 780 -1110 
Q 665 -1005 576 -902 
Q 864 -627 1024 -435 
Q 1248 -672 1446 -857 
Q 1293 -1069 1037 -1325 
z
" transform="scale(0.015625)"/>
      <path id="NotoNaskhArabic-Regular-35" d="M 2010 0 
Q 1254 0 851 272 
Q 448 544 448 1088 
Q 448 1498 531 1792 
L 762 1792 
Q 755 1766 748 1660 
Q 742 1555 742 1478 
Q 742 1107 883 905 
Q 1024 704 1331 595 
Q 1645 486 2144 486 
Q 2739 486 3308 608 
Q 3878 730 4320 941 
Q 4288 1075 4230 1251 
Q 4173 1427 4090 1645 
Q 3968 1965 3968 2074 
Q 3968 2208 4077 2352 
Q 4186 2496 4390 2611 
Q 4493 2138 4560 1795 
Q 4627 1453 4627 1222 
Q 4627 1005 4403 570 
Q 3981 301 3376 150 
Q 2771 0 2010 0 
z
M 2790 2099 
Q 2649 2208 2543 2307 
Q 2438 2406 2368 2496 
Q 2400 2528 2502 2637 
Q 2604 2746 2777 2925 
Q 2816 2886 2915 2790 
Q 3014 2694 3174 2541 
Q 3052 2349 2790 2099 
z
M 1830 2010 
Q 1689 2125 1580 2224 
Q 1472 2323 1401 2400 
Q 1568 2560 1817 2835 
Q 1856 2790 1952 2694 
Q 2048 2598 2208 2451 
Q 2150 2355 2054 2246 
Q 1958 2138 1830 2010 
z
" transform="scale(0.015625)"/>
      <path id="NotoNaskhArabic-Regular-d6" d="M 710 -1306 
Q 608 -1306 451 -1248 
Q 294 -1190 134 -1107 
Q -26 -1024 -128 -947 
L -45 -736 
Q 134 -768 284 -787 
Q 435 -806 563 -806 
Q 1043 -806 1385 -518 
Q 1728 -230 1907 314 
Q 1862 416 1814 515 
Q 1766 614 1709 717 
Q 1491 1107 1388 1340 
Q 1286 1574 1286 1734 
Q 1286 1901 1382 2000 
Q 1478 2099 1658 2182 
Q 1683 2099 1712 2000 
Q 1741 1901 1786 1792 
Q 1888 1530 1955 1334 
Q 2022 1139 2054 1018 
Q 2093 896 2115 797 
Q 2138 698 2144 614 
Q 2362 486 2643 486 
Q 2694 486 2694 435 
L 2694 51 
Q 2694 0 2643 0 
Q 2342 0 2118 154 
Q 2048 -288 1849 -617 
Q 1651 -947 1356 -1126 
Q 1062 -1306 710 -1306 
z
M 1299 2560 
Q 1018 2771 839 2976 
Q 1165 3303 1287 3443 
Q 1389 3335 1494 3229 
Q 1600 3123 1709 3027 
Q 1562 2816 1299 2560 
z
" transform="scale(0.015625)"/>
      <path id="NotoNaskhArabic-Regular-245" d="M 0 0 
Q -51 0 -51 51 
L -51 435 
Q -51 486 0 486 
Q 294 486 598 553 
Q 902 621 1133 723 
Q 1088 870 1030 1046 
Q 973 1222 902 1427 
Q 781 1747 781 1856 
Q 781 1997 893 2144 
Q 1005 2291 1197 2394 
Q 1210 2304 1248 2121 
Q 1286 1939 1344 1658 
Q 1440 1235 1440 1005 
Q 1440 909 1379 733 
Q 1318 557 1210 352 
Q 627 0 0 0 
z
M 393 2593 
L 373 2867 
L 654 3022 
Q 393 3065 393 3304 
Q 393 3438 470 3564 
Q 548 3691 671 3775 
Q 795 3860 915 3860 
Q 1190 3860 1190 3600 
Q 1190 3501 1140 3409 
L 1006 3445 
L 1014 3473 
Q 1014 3508 985 3536 
Q 957 3565 921 3565 
Q 809 3565 721 3484 
Q 633 3403 591 3297 
Q 710 3156 929 3156 
Q 1056 3156 1273 3198 
L 1260 2931 
Q 971 2861 784 2783 
Q 598 2705 393 2593 
z
" transform="scale(0.015625)"/>
     </defs>
     <use xlink:href="#NotoNaskhArabic-Regular-1e5"/>
     <use xlink:href="#NotoNaskhArabic-Regular-25" transform="translate(45.59375 0)"/>
     <use xlink:href="#NotoNaskhArabic-Regular-240" transform="translate(74.796875 0)"/>
     <use xlink:href="#NotoNaskhArabic-Regular-135" transform="translate(110.796875 0)"/>
     <use xlink:href="#NotoNaskhArabic-Regular-4" transform="translate(152.203125 0)"/>
     <use xlink:href="#NotoNaskhArabic-Regular-35" transform="translate(177.5 0)"/>
     <use xlink:href="#NotoNaskhArabic-Regular-554" transform="translate(254.703125 0)"/>
     <use xlink:href="#NotoNaskhArabic-Regular-3" transform="translate(276.796875 0)"/>
     <use xlink:href="#NotoNaskhArabic-Regular-1c1" transform="translate(300.59375 0)"/>
     <use xlink:href="#NotoNaskhArabic-Regular-37" transform="translate(321.796875 0)"/>
     <use xlink:href="#NotoNaskhArabic-Regular-73" transform="translate(357.796875 0)"/>
     <use xlink:href="#NotoNaskhArabic-Regular-d6" transform="translate(424.390625 0)"/>
     <use xlink:href="#NotoNaskhArabic-Regular-245" transform="translate(464.796875 0)"/>
     <use xlink:href="#NotoNaskhArabic-Regular-215" transform="translate(492.296875 0)"/>
    </g>
   </g>
   <g id="text_16">
    <!-- PMI -->
    <g style="fill: #1f2937" transform="translate(386.322438 86.92922) scale(0.09 -0.09)">
     <defs>
      <path id="DejaVuSans-33" d="M 1259 4147 
L 1259 2394 
L 2053 2394 
Q 2494 2394 2734 2622 
Q 2975 2850 2975 3272 
Q 2975 3691 2734 3919 
Q 2494 4147 2053 4147 
L 1259 4147 
z
M 628 4666 
L 2053 4666 
Q 2838 4666 3239 4311 
Q 3641 3956 3641 3272 
Q 3641 2581 3239 2228 
Q 2838 1875 2053 1875 
L 1259 1875 
L 1259 0 
L 628 0 
L 628 4666 
z
" transform="scale(0.015625)"/>
      <path id="DejaVuSans-30" d="M 628 4666 
L 1569 4666 
L 2759 1491 
L 3956 4666 
L 4897 4666 
L 4897 0 
L 4281 0 
L 4281 4097 
L 3078 897 
L 2444 897 
L 1241 4097 
L 1241 0 
L 628 0 
L 628 4666 
z
" transform="scale(0.015625)"/>
      <path id="DejaVuSans-2c" d="M 628 4666 
L 1259 4666 
L 1259 0 
L 628 0 
L 628 4666 
z
" transform="scale(0.015625)"/>
     </defs>
     <use xlink:href="#DejaVuSans-33"/>
     <use xlink:href="#DejaVuSans-30" transform="translate(60.296875 0)"/>
     <use xlink:href="#DejaVuSans-2c" transform="translate(146.578125 0)"/>
    </g>
   </g>
   <g id="text_17">
    <!-- ﺓﺪﺋﺎﻔﻟﺍ ﺭﺍﺮﻗ -->
    <g style="fill: #1f2937" transform="translate(548.993911 134.351) scale(0.09 -0.09)">
     <defs>
      <path id="NotoNaskhArabic-Regular-b6" d="M 998 0 
Q 218 0 218 403 
Q 218 621 333 742 
Q 493 614 697 550 
Q 902 486 1203 486 
Q 1606 486 2086 621 
Q 1926 909 1795 1209 
Q 1664 1510 1587 1760 
Q 1510 2010 1510 2125 
Q 1510 2445 1850 2547 
Q 1997 2003 2144 1564 
Q 2291 1126 2509 819 
Q 2637 634 2771 560 
Q 2906 486 3085 486 
Q 3142 486 3142 435 
L 3142 51 
Q 3142 0 3085 0 
Q 2829 0 2633 86 
Q 2438 173 2291 333 
Q 1709 0 998 0 
z
" transform="scale(0.015625)"/>
      <path id="NotoNaskhArabic-Regular-214" d="M 1216 0 
Q 864 0 649 211 
Q 435 422 435 806 
Q 435 1107 585 1408 
Q 736 1709 1069 2022 
Q 966 2080 937 2157 
Q 909 2234 909 2304 
Q 909 2406 957 2496 
Q 1005 2586 1075 2611 
Q 1363 2509 1638 2272 
Q 1914 2035 2099 1709 
Q 2285 1389 2285 1126 
Q 2285 1030 2243 889 
Q 2202 749 2134 601 
Q 2067 454 1993 339 
Q 1920 224 1850 179 
Q 1587 0 1216 0 
z
M 1286 512 
Q 1459 512 1664 605 
Q 1869 698 1971 794 
Q 1837 1427 1248 1882 
Q 1011 1664 870 1421 
Q 730 1178 730 992 
Q 730 768 877 640 
Q 1024 512 1286 512 
z
M 1683 2995 
Q 1542 3104 1436 3203 
Q 1331 3302 1261 3392 
Q 1293 3424 1395 3533 
Q 1497 3642 1670 3821 
Q 1709 3782 1808 3686 
Q 1907 3590 2067 3437 
Q 1945 3245 1683 2995 
z
M 723 2906 
Q 582 3021 473 3120 
Q 365 3219 294 3296 
Q 461 3456 710 3731 
Q 749 3686 845 3590 
Q 941 3494 1101 3347 
Q 1043 3251 947 3142 
Q 851 3034 723 2906 
z
" transform="scale(0.015625)"/>
     </defs>
     <use xlink:href="#NotoNaskhArabic-Regular-16a"/>
     <use xlink:href="#NotoNaskhArabic-Regular-d4" transform="translate(42 0)"/>
     <use xlink:href="#NotoNaskhArabic-Regular-3" transform="translate(82.40625 0)"/>
     <use xlink:href="#NotoNaskhArabic-Regular-d3" transform="translate(106.203125 0)"/>
     <use xlink:href="#NotoNaskhArabic-Regular-554" transform="translate(144.796875 0)"/>
     <use xlink:href="#NotoNaskhArabic-Regular-3" transform="translate(166.890625 0)"/>
     <use xlink:href="#NotoNaskhArabic-Regular-1c1" transform="translate(190.6875 0)"/>
     <use xlink:href="#NotoNaskhArabic-Regular-145" transform="translate(211.890625 0)"/>
     <use xlink:href="#NotoNaskhArabic-Regular-4" transform="translate(250.59375 0)"/>
     <use xlink:href="#NotoNaskhArabic-Regular-245" transform="translate(275.890625 0)"/>
     <use xlink:href="#NotoNaskhArabic-Regular-b6" transform="translate(303.390625 0)"/>
     <use xlink:href="#NotoNaskhArabic-Regular-214" transform="translate(350.796875 0)"/>
    </g>
   </g>
   <g id="text_18">
    <!-- ﺔﻟﺎﻄﺒﻟﺍ ﺔﻧﺎﻋﺇ ﺕﺎﺒﻠﻃ -->
    <g style="fill: #1f2937" transform="translate(386.322438 181.77278) scale(0.09 -0.09)">
     <defs>
      <path id="NotoNaskhArabic-Regular-126" d="M 0 0 
Q -51 0 -51 51 
L -51 435 
Q -51 486 0 486 
L 531 493 
L 550 493 
Q 653 634 755 768 
Q 858 902 960 1030 
Q 755 2176 652 2851 
Q 550 3526 544 3789 
Q 544 4000 643 4121 
Q 742 4243 966 4294 
Q 1005 4147 1037 4038 
Q 1069 3930 1107 3814 
Q 1146 3699 1197 3533 
L 1030 3392 
Q 1037 3322 1053 3146 
Q 1069 2970 1091 2762 
Q 1114 2554 1133 2378 
Q 1152 2202 1158 2131 
Q 1190 1882 1203 1642 
Q 1216 1402 1222 1331 
Q 1677 1830 2077 2096 
Q 2477 2362 2771 2362 
Q 2950 2362 3216 2214 
Q 3482 2067 3693 1837 
Q 3898 1600 3898 1427 
Q 3898 493 2189 166 
Q 1760 83 1213 41 
Q 666 0 0 0 
z
M 909 499 
Q 1542 525 2003 585 
Q 2464 646 2758 755 
Q 2906 806 3117 905 
Q 3328 1005 3603 1146 
Q 3418 1466 3155 1648 
Q 2893 1830 2611 1830 
Q 2323 1830 1875 1478 
Q 1427 1126 909 499 
z
" transform="scale(0.015625)"/>
      <path id="NotoNaskhArabic-Regular-1bf" d="M 0 0 
Q -51 0 -51 51 
L -51 435 
Q -51 486 0 486 
Q 352 486 698 653 
Q 659 992 608 1600 
Q 557 2208 499 3085 
Q 480 3296 464 3510 
Q 448 3725 435 3936 
Q 531 4038 636 4124 
Q 742 4211 864 4294 
Q 883 3853 902 3165 
Q 922 2477 934 1536 
Q 934 1318 940 1097 
Q 947 877 954 659 
Q 1242 486 1619 486 
Q 1677 486 1677 435 
L 1677 51 
Q 1677 0 1619 0 
Q 1152 0 883 230 
Q 646 96 460 48 
Q 275 0 0 0 
z
" transform="scale(0.015625)"/>
      <path id="NotoNaskhArabic-Regular-a" d="M 666 0 
Q 646 1126 604 2057 
Q 563 2989 493 3725 
Q 467 3987 566 4118 
Q 666 4250 915 4294 
Q 941 4173 1001 3965 
Q 1062 3757 1139 3533 
L 966 3386 
Q 992 2912 1001 2413 
Q 1011 1914 1001 1338 
Q 992 762 960 51 
L 666 0 
z
M 461 -1511 
L 448 -1261 
L 698 -1120 
Q 467 -1069 467 -864 
Q 467 -736 541 -624 
Q 615 -512 723 -438 
Q 832 -365 941 -365 
Q 1191 -365 1191 -595 
Q 1191 -685 1146 -775 
L 1024 -736 
L 1031 -711 
Q 1031 -634 954 -634 
Q 851 -634 768 -704 
Q 685 -775 653 -871 
Q 749 -999 941 -999 
Q 1095 -999 1267 -954 
L 1255 -1203 
Q 1069 -1248 947 -1289 
Q 826 -1331 717 -1382 
Q 608 -1434 461 -1511 
z
" transform="scale(0.015625)"/>
      <path id="NotoNaskhArabic-Regular-136" d="M 0 0 
Q -51 0 -51 51 
L -51 435 
Q -51 486 0 486 
Q 410 486 800 506 
Q 646 608 531 781 
Q 416 954 416 1152 
Q 416 1427 563 1728 
Q 710 2029 947 2208 
Q 1184 2394 1440 2394 
Q 1664 2394 1865 2285 
Q 2067 2176 2336 1939 
L 2221 1734 
Q 1965 1830 1853 1856 
Q 1741 1882 1600 1882 
Q 1197 1882 781 1645 
Q 781 1370 912 1146 
Q 1043 922 1299 781 
Q 1549 646 1894 627 
Q 2061 659 2205 697 
Q 2349 736 2531 803 
Q 2714 870 2982 973 
Q 3066 896 3066 742 
Q 3066 531 2925 448 
Q 2899 435 2764 400 
Q 2630 365 2470 326 
Q 1811 160 1235 80 
Q 659 0 0 0 
z
" transform="scale(0.015625)"/>
      <path id="NotoNaskhArabic-Regular-1ea" d="M 0 0 
Q -51 0 -51 51 
L -51 435 
Q -51 486 0 486 
Q 294 486 598 553 
Q 902 621 1133 723 
Q 1088 870 1030 1046 
Q 973 1222 902 1427 
Q 781 1747 781 1856 
Q 781 1997 893 2144 
Q 1005 2291 1197 2394 
Q 1210 2304 1248 2121 
Q 1286 1939 1344 1658 
Q 1440 1235 1440 1005 
Q 1440 909 1379 733 
Q 1318 557 1210 352 
Q 627 0 0 0 
z
M 876 2829 
Q 595 3040 416 3245 
Q 742 3572 864 3712 
Q 966 3604 1071 3498 
Q 1177 3392 1286 3296 
Q 1139 3085 876 2829 
z
" transform="scale(0.015625)"/>
      <path id="NotoNaskhArabic-Regular-125" d="M 0 0 
Q -51 0 -51 51 
L -51 435 
Q -51 486 0 486 
Q 141 493 275 493 
Q 410 493 550 493 
Q 653 634 755 768 
Q 858 902 960 1030 
Q 755 2176 652 2851 
Q 550 3526 544 3789 
Q 544 4000 643 4121 
Q 742 4243 966 4294 
Q 998 4173 1046 4013 
Q 1094 3853 1197 3533 
L 1030 3392 
Q 1037 3283 1056 3097 
Q 1075 2912 1097 2710 
Q 1120 2509 1136 2349 
Q 1152 2189 1158 2131 
Q 1190 1811 1203 1606 
Q 1216 1402 1222 1331 
Q 1677 1830 2077 2096 
Q 2477 2362 2771 2362 
Q 2950 2362 3216 2214 
Q 3482 2067 3693 1837 
Q 3898 1600 3898 1427 
Q 3898 947 3450 634 
Q 3731 486 4083 486 
Q 4134 486 4134 435 
L 4134 51 
Q 4134 0 4083 0 
Q 3795 0 3510 121 
Q 3226 243 3078 422 
Q 2643 224 1868 112 
Q 1094 0 0 0 
z
M 909 499 
Q 1542 525 2003 585 
Q 2464 646 2758 755 
Q 2906 806 3117 905 
Q 3328 1005 3603 1146 
Q 3418 1466 3155 1648 
Q 2893 1830 2611 1830 
Q 2323 1830 1875 1478 
Q 1427 1126 909 499 
z
" transform="scale(0.015625)"/>
      <path id="NotoNaskhArabic-Regular-6" d="M 877 0 
Q 858 19 858 70 
Q 858 134 874 230 
Q 890 326 915 406 
Q 941 486 954 486 
Q 1139 486 1350 492 
Q 1562 499 1792 512 
Q 2022 525 2262 550 
Q 2502 576 2733 614 
Q 2605 858 2397 1130 
Q 2189 1402 1926 1664 
Q 1670 1933 1369 2173 
Q 1069 2413 768 2586 
L 531 2573 
Q 416 2682 317 2822 
Q 218 2963 218 3104 
Q 218 3213 259 3309 
Q 301 3405 442 3475 
Q 723 3283 1133 2931 
Q 1421 2688 1718 2403 
Q 2016 2118 2234 1856 
Q 2323 1754 2448 1565 
Q 2573 1376 2694 1165 
Q 2816 954 2899 781 
Q 2982 608 2982 538 
Q 2982 493 2950 390 
Q 2918 288 2873 201 
Q 2829 115 2790 109 
Q 2694 96 2496 73 
Q 2298 51 2086 35 
Q 1875 19 1728 13 
Q 1670 13 1552 9 
Q 1434 6 1293 3 
Q 1152 0 1040 0 
Q 928 0 877 0 
z
" transform="scale(0.015625)"/>
      <path id="NotoNaskhArabic-Regular-1c2" d="M 1478 422 
L 1050 454 
Q 1331 672 1580 886 
Q 1830 1101 2016 1325 
Q 2202 1549 2314 1795 
Q 2426 2042 2426 2317 
Q 2426 2413 2406 2592 
Q 2387 2771 2355 2988 
Q 2323 3206 2291 3411 
Q 2259 3616 2240 3776 
Q 2221 3936 2221 4000 
Q 2221 4173 2333 4269 
Q 2445 4365 2643 4403 
Q 2694 4205 2742 4035 
Q 2790 3866 2874 3642 
L 2701 3494 
Q 2701 3462 2710 3308 
Q 2720 3155 2726 2966 
Q 2733 2778 2739 2627 
Q 2746 2477 2746 2445 
Q 2746 2106 2637 1805 
Q 2528 1504 2349 1248 
Q 2170 992 1942 784 
Q 1715 576 1478 422 
z
" transform="scale(0.015625)"/>
     </defs>
     <use xlink:href="#NotoNaskhArabic-Regular-126"/>
     <use xlink:href="#NotoNaskhArabic-Regular-1bf" transform="translate(66 0)"/>
     <use xlink:href="#NotoNaskhArabic-Regular-25" transform="translate(90.5 0)"/>
     <use xlink:href="#NotoNaskhArabic-Regular-4" transform="translate(119.703125 0)"/>
     <use xlink:href="#NotoNaskhArabic-Regular-35" transform="translate(145 0)"/>
     <use xlink:href="#NotoNaskhArabic-Regular-554" transform="translate(222.203125 0)"/>
     <use xlink:href="#NotoNaskhArabic-Regular-a" transform="translate(244.296875 0)"/>
     <use xlink:href="#NotoNaskhArabic-Regular-136" transform="translate(269.890625 0)"/>
     <use xlink:href="#NotoNaskhArabic-Regular-4" transform="translate(320.390625 0)"/>
     <use xlink:href="#NotoNaskhArabic-Regular-1ea" transform="translate(345.6875 0)"/>
     <use xlink:href="#NotoNaskhArabic-Regular-215" transform="translate(373.1875 0)"/>
     <use xlink:href="#NotoNaskhArabic-Regular-554" transform="translate(419.890625 0)"/>
     <use xlink:href="#NotoNaskhArabic-Regular-3" transform="translate(441.984375 0)"/>
     <use xlink:href="#NotoNaskhArabic-Regular-1c1" transform="translate(465.78125 0)"/>
     <use xlink:href="#NotoNaskhArabic-Regular-25" transform="translate(486.984375 0)"/>
     <use xlink:href="#NotoNaskhArabic-Regular-125" transform="translate(516.1875 0)"/>
     <use xlink:href="#NotoNaskhArabic-Regular-6" transform="translate(579.09375 0)"/>
     <use xlink:href="#NotoNaskhArabic-Regular-1c2" transform="translate(579.09375 0)"/>
     <use xlink:href="#NotoNaskhArabic-Regular-215" transform="translate(630.890625 0)"/>
    </g>
   </g>
   <g id="text_19">
    <!-- ﻚﻠﻬﺘﺴﻤﻟﺍ ﺔﻘﺛ -->
    <g style="fill: #1f2937" transform="translate(223.650964 229.194561) scale(0.09 -0.09)">
     <defs>
      <path id="NotoNaskhArabic-Regular-169" d="M 6 0 
Q -51 0 -51 58 
L -51 429 
Q -51 486 6 486 
Q 186 486 320 492 
Q 454 499 557 512 
Q 320 774 320 1062 
Q 320 1171 339 1308 
Q 358 1446 384 1564 
Q 410 1683 435 1728 
Q 602 2029 870 2211 
Q 1139 2394 1446 2394 
Q 1613 2394 1766 2234 
Q 1920 2074 2016 1798 
Q 2118 1530 2118 1248 
Q 2118 845 1843 518 
Q 1946 506 2118 496 
Q 2291 486 2528 486 
Q 2586 486 2586 435 
L 2586 51 
Q 2586 0 2528 0 
Q 1734 0 1216 205 
Q 998 96 707 48 
Q 416 0 6 0 
z
M 1216 659 
Q 1581 794 1869 1050 
Q 1850 1210 1763 1402 
Q 1677 1594 1568 1722 
Q 1453 1850 1389 1850 
Q 1267 1850 1113 1750 
Q 960 1651 809 1484 
Q 659 1318 557 1120 
Q 826 813 1216 659 
z
M 1760 2745 
Q 1619 2854 1513 2953 
Q 1408 3052 1338 3142 
Q 1370 3174 1472 3283 
Q 1574 3392 1747 3571 
Q 1786 3532 1885 3436 
Q 1984 3340 2144 3187 
Q 2022 2995 1760 2745 
z
M 800 2656 
Q 659 2771 550 2870 
Q 442 2969 371 3046 
Q 538 3206 787 3481 
Q 826 3436 922 3340 
Q 1018 3244 1178 3097 
Q 1120 3001 1024 2892 
Q 928 2784 800 2656 
z
" transform="scale(0.015625)"/>
      <path id="NotoNaskhArabic-Regular-f9" d="M 1446 0 
Q 1267 0 1030 57 
Q 794 115 666 198 
Q 576 109 397 54 
Q 218 0 0 0 
Q -51 0 -51 51 
L -51 435 
Q -51 486 0 486 
Q 326 486 518 634 
Q 627 723 681 809 
Q 736 896 858 1094 
Q 915 1197 1056 1197 
Q 1146 1197 1210 1152 
Q 1114 909 1046 765 
Q 979 621 947 570 
Q 998 544 1155 515 
Q 1312 486 1517 486 
Q 1664 486 1789 505 
Q 1914 525 2016 550 
Q 2061 621 2115 793 
Q 2170 966 2227 1145 
Q 2285 1325 2323 1408 
Q 2381 1536 2432 1574 
Q 2483 1613 2579 1613 
Q 2669 1613 2733 1568 
Q 2688 1466 2608 1235 
Q 2528 1005 2400 582 
Q 2496 538 2566 522 
Q 2637 506 2739 506 
Q 2906 506 3091 570 
Q 3123 608 3168 723 
Q 3213 838 3277 1030 
Q 3328 1190 3385 1331 
Q 3443 1472 3501 1568 
Q 3552 1664 3699 1664 
Q 3789 1664 3853 1619 
Q 3808 1517 3728 1289 
Q 3648 1062 3533 710 
Q 3757 589 3917 537 
Q 4077 486 4294 486 
Q 4352 486 4352 435 
L 4352 51 
Q 4352 0 4294 0 
Q 4045 0 3798 96 
Q 3552 192 3386 346 
Q 3366 301 3347 259 
Q 3328 218 3296 173 
Q 3251 96 3078 48 
Q 2906 0 2733 0 
Q 2438 0 2221 160 
Q 2176 102 2041 67 
Q 1907 32 1744 19 
Q 1581 6 1446 0 
z
" transform="scale(0.015625)"/>
      <path id="NotoNaskhArabic-Regular-1ff" d="M 1632 -1306 
Q 1139 -1306 825 -1011 
Q 512 -717 422 -173 
L 179 -275 
L 115 6 
L 0 0 
Q -51 0 -51 51 
L -51 435 
Q -51 486 0 486 
Q 109 493 211 496 
Q 314 499 416 506 
Q 550 1696 1619 2707 
L 1850 2643 
Q 1862 2502 1888 2313 
Q 1914 2125 1958 1888 
Q 2003 1670 2022 1520 
Q 2042 1370 2042 1280 
Q 2042 998 1882 780 
Q 1722 563 1517 442 
Q 1779 467 2000 476 
Q 2221 486 2477 486 
Q 2547 486 2547 422 
L 2547 70 
Q 2547 0 2477 0 
Q 2214 0 2029 -45 
Q 2182 -109 2288 -240 
Q 2394 -371 2394 -499 
Q 2394 -557 2349 -688 
Q 2304 -819 2253 -944 
Q 2202 -1069 2170 -1107 
Q 2086 -1190 1939 -1248 
Q 1792 -1306 1632 -1306 
z
M 806 480 
Q 1037 506 1264 605 
Q 1491 704 1670 858 
L 1619 1184 
Q 1555 1485 1520 1705 
Q 1485 1926 1472 2067 
Q 1120 1568 976 1203 
Q 832 838 806 480 
z
M 1690 -858 
Q 1798 -858 1920 -813 
Q 2042 -768 2112 -685 
Q 2061 -499 1904 -342 
Q 1747 -186 1536 -93 
Q 1325 0 1094 0 
Q 1037 0 845 -38 
Q 947 -448 1164 -653 
Q 1382 -858 1690 -858 
z
" transform="scale(0.015625)"/>
      <path id="NotoNaskhArabic-Regular-174" d="M 1971 0 
Q 1382 0 1062 99 
Q 742 198 589 410 
Q 435 621 435 934 
Q 435 1056 457 1177 
Q 480 1299 525 1421 
L 749 1421 
Q 730 1318 730 1178 
Q 730 864 902 717 
Q 1075 570 1385 528 
Q 1696 486 2106 486 
Q 2605 486 3021 534 
Q 3437 582 3840 685 
Q 3808 1005 3779 1321 
Q 3750 1638 3721 2006 
Q 3693 2374 3661 2844 
Q 3629 3315 3584 3936 
Q 3674 4032 3779 4121 
Q 3885 4211 4006 4294 
Q 4038 3066 4060 2195 
Q 4083 1325 4096 659 
Q 4384 486 4768 486 
Q 4819 486 4819 435 
L 4819 51 
Q 4819 0 4768 0 
Q 4474 0 4272 86 
Q 4070 173 3936 333 
Q 3437 160 2973 80 
Q 2509 0 1971 0 
z
M 1965 1242 
Q 1882 1242 1850 1280 
Q 1818 1318 1818 1370 
Q 1984 1382 2141 1440 
Q 2298 1498 2406 1574 
Q 2458 1606 2493 1641 
Q 2528 1677 2547 1715 
Q 2246 1722 2080 1776 
Q 1914 1830 1914 2022 
Q 1914 2125 1990 2240 
Q 2067 2355 2182 2438 
Q 2298 2522 2413 2522 
Q 2579 2522 2630 2342 
L 2528 2298 
Q 2496 2330 2451 2330 
Q 2400 2330 2329 2278 
Q 2259 2227 2198 2156 
Q 2138 2086 2125 2016 
Q 2234 1965 2400 1949 
Q 2566 1933 2650 1875 
Q 2707 1837 2707 1754 
Q 2707 1670 2585 1548 
Q 2464 1427 2291 1334 
Q 2118 1242 1965 1242 
z
" transform="scale(0.015625)"/>
     </defs>
     <use xlink:href="#NotoNaskhArabic-Regular-44"/>
     <use xlink:href="#NotoNaskhArabic-Regular-169" transform="translate(27.5 0)"/>
     <use xlink:href="#NotoNaskhArabic-Regular-215" transform="translate(66.203125 0)"/>
     <use xlink:href="#NotoNaskhArabic-Regular-554" transform="translate(112.90625 0)"/>
     <use xlink:href="#NotoNaskhArabic-Regular-3" transform="translate(135 0)"/>
     <use xlink:href="#NotoNaskhArabic-Regular-1c1" transform="translate(158.796875 0)"/>
     <use xlink:href="#NotoNaskhArabic-Regular-1e4" transform="translate(180 0)"/>
     <use xlink:href="#NotoNaskhArabic-Regular-f9" transform="translate(221.296875 0)"/>
     <use xlink:href="#NotoNaskhArabic-Regular-37" transform="translate(287.59375 0)"/>
     <use xlink:href="#NotoNaskhArabic-Regular-1ff" transform="translate(323.59375 0)"/>
     <use xlink:href="#NotoNaskhArabic-Regular-1bf" transform="translate(361.6875 0)"/>
     <use xlink:href="#NotoNaskhArabic-Regular-174" transform="translate(386.1875 0)"/>
    </g>
   </g>
  </g>
 </g>
 <defs>
  <clipPath id="p432ed949c8">
   <rect x="44.712344" y="7.2" width="569.350156" height="250.387"/>
  </clipPath>
 </defs>
</svg>
