<?xml version="1.0" encoding="utf-8" standalone="no"?>
<!DOCTYPE svg PUBLIC "-//W3C//DTD SVG 1.1//EN"
  "http://www.w3.org/Graphics/SVG/1.1/DTD/svg11.dtd">
<svg xmlns:xlink="http://www.w3.org/1999/xlink" width="628.35pt" height="354.624598pt" viewBox="0 0 628.35 354.624598" xmlns="http://www.w3.org/2000/svg" version="1.1">
 <metadata>
  <rdf:RDF xmlns:dc="http://purl.org/dc/elements/1.1/" xmlns:cc="http://creativecommons.org/ns#" xmlns:rdf="http://www.w3.org/1999/02/22-rdf-syntax-ns#">
   <cc:Work>
    <dc:type rdf:resource="http://purl.org/dc/dcmitype/StillImage"/>
    <dc:date>2026-07-19T00:39:13.951018</dc:date>
    <dc:format>image/svg+xml</dc:format>
    <dc:creator>
     <cc:Agent>
      <dc:title>Matplotlib v3.11.1, https://matplotlib.org/</dc:title>
     </cc:Agent>
    </dc:creator>
   </cc:Work>
  </rdf:RDF>
 </metadata>
 <defs>
  <style type="text/css">*{stroke-linejoin: round; stroke-linecap: butt}</style>
 </defs>
 <g id="figure_1">
  <g id="patch_1">
   <path d="M 0 354.624598 
L 628.35 354.624598 
L 628.35 0 
L 0 0 
z
" style="fill: #ffffff"/>
  </g>
  <g id="axes_1">
   <g id="patch_2">
    <path d="M 7.2 322.394598 
L 569.101016 322.394598 
L 569.101016 11.934371 
L 7.2 11.934371 
z
" style="fill: #ffffff"/>
   </g>
   <g id="matplotlib.axis_1">
    <g id="text_1">
     <!-- ​ﻦﻣﺰﻟﺍ -->
     <g style="fill: #1f2937" transform="translate(278.675508 341.084598) scale(0.1 -0.1)">
      <defs>
       <path id="NotoNaskhArabic-Regular-3" d="M 666 0 
Q 646 1126 604 2057 
Q 563 2989 493 3725 
Q 467 3987 566 4118 
Q 666 4250 915 4294 
Q 941 4173 1001 3965 
Q 1062 3757 1139 3533 
L 966 3386 
Q 992 2912 1001 2413 
Q 1011 1914 1001 1338 
Q 992 762 960 51 
L 666 0 
z
" transform="scale(0.015625)"/>
       <path id="NotoNaskhArabic-Regular-1c1" d="M -6 0 
Q -64 0 -64 51 
L -64 435 
Q -64 486 -6 486 
Q 378 486 704 659 
Q 685 902 665 1139 
Q 646 1376 627 1606 
Q 570 2208 512 2790 
Q 454 3373 384 3936 
Q 474 4032 579 4121 
Q 685 4211 806 4294 
Q 826 3949 851 3497 
Q 877 3046 915 2483 
Q 947 2016 960 1609 
Q 973 1203 979 864 
Q 979 755 915 572 
Q 851 390 755 224 
Q 640 0 -6 0 
z
" transform="scale(0.015625)"/>
       <path id="NotoNaskhArabic-Regular-d6" d="M 710 -1306 
Q 608 -1306 451 -1248 
Q 294 -1190 134 -1107 
Q -26 -1024 -128 -947 
L -45 -736 
Q 134 -768 284 -787 
Q 435 -806 563 -806 
Q 1043 -806 1385 -518 
Q 1728 -230 1907 314 
Q 1862 416 1814 515 
Q 1766 614 1709 717 
Q 1491 1107 1388 1340 
Q 1286 1574 1286 1734 
Q 1286 1901 1382 2000 
Q 1478 2099 1658 2182 
Q 1683 2099 1712 2000 
Q 1741 1901 1786 1792 
Q 1888 1530 1955 1334 
Q 2022 1139 2054 1018 
Q 2093 896 2115 797 
Q 2138 698 2144 614 
Q 2362 486 2643 486 
Q 2694 486 2694 435 
L 2694 51 
Q 2694 0 2643 0 
Q 2342 0 2118 154 
Q 2048 -288 1849 -617 
Q 1651 -947 1356 -1126 
Q 1062 -1306 710 -1306 
z
M 1299 2560 
Q 1018 2771 839 2976 
Q 1165 3303 1287 3443 
Q 1389 3335 1494 3229 
Q 1600 3123 1709 3027 
Q 1562 2816 1299 2560 
z
" transform="scale(0.015625)"/>
       <path id="NotoNaskhArabic-Regular-1e5" d="M 2291 0 
Q 2035 0 1753 48 
Q 1472 96 1209 182 
Q 947 269 749 384 
Q 602 179 422 89 
Q 243 0 0 0 
Q -51 0 -51 51 
L -51 435 
Q -51 486 0 486 
Q 243 486 409 604 
Q 576 723 698 960 
Q 813 1171 880 1308 
Q 947 1446 1004 1555 
Q 1062 1664 1152 1779 
Q 1312 1990 1478 2083 
Q 1645 2176 1830 2176 
Q 2016 2176 2201 1945 
Q 2387 1715 2502 1357 
Q 2618 1005 2618 666 
Q 2618 467 2547 307 
Q 2477 147 2291 0 
z
M 2150 486 
Q 2144 781 2061 1065 
Q 1978 1350 1875 1498 
Q 1805 1606 1728 1606 
Q 1491 1606 1286 1318 
Q 1235 1242 1161 1117 
Q 1088 992 998 806 
Q 1459 563 2150 486 
z
" transform="scale(0.015625)"/>
       <path id="NotoNaskhArabic-Regular-1e8" d="M 1594 -1677 
Q 1050 -1677 742 -1363 
Q 435 -1050 435 -474 
Q 435 -346 444 -237 
Q 454 -128 480 9 
Q 506 147 557 358 
L 794 301 
Q 723 6 723 -154 
Q 723 -621 956 -883 
Q 1190 -1146 1606 -1146 
Q 1926 -1146 2249 -1040 
Q 2573 -934 2829 -752 
Q 3085 -570 3187 -346 
Q 2976 109 2873 416 
Q 2771 723 2771 877 
Q 2771 1043 2864 1174 
Q 2957 1306 3187 1446 
Q 3200 1344 3235 1133 
Q 3270 922 3334 595 
Q 3565 486 3802 486 
Q 3859 486 3859 435 
L 3859 51 
Q 3859 0 3802 0 
Q 3590 0 3418 77 
L 3424 -109 
Q 3424 -499 3174 -860 
Q 2925 -1222 2490 -1446 
Q 2061 -1677 1594 -1677 
z
M 1766 1504 
Q 1485 1715 1306 1920 
Q 1632 2247 1754 2387 
Q 1856 2279 1961 2173 
Q 2067 2067 2176 1971 
Q 2029 1760 1766 1504 
z
" transform="scale(0.015625)"/>
       <path id="NotoNaskhArabic-Regular-554" transform="scale(0.015625)"/>
      </defs>
      <use xlink:href="#NotoNaskhArabic-Regular-3"/>
      <use xlink:href="#NotoNaskhArabic-Regular-1c1" transform="translate(23.796875 0)"/>
      <use xlink:href="#NotoNaskhArabic-Regular-d6" transform="translate(45 0)"/>
      <use xlink:href="#NotoNaskhArabic-Regular-1e5" transform="translate(85.40625 0)"/>
      <use xlink:href="#NotoNaskhArabic-Regular-1e8" transform="translate(131 0)"/>
      <use xlink:href="#NotoNaskhArabic-Regular-554" transform="translate(189.5 0)"/>
     </g>
    </g>
   </g>
   <g id="matplotlib.axis_2">
    <g id="ytick_1">
     <g id="line2d_1">
      <path d="M 7.2 318.939037 
L 569.101016 318.939037 
" clip-path="url(#pba7ebb6bcb)" style="fill: none; stroke: #e6e1d6; stroke-width: 0.8; stroke-linecap: square"/>
     </g>
     <g id="line2d_2">
      <defs>
       <path id="m4ad87940d2" d="M 0 0 
L 3.5 0 
" style="stroke: #555555; stroke-width: 0.8"/>
      </defs>
      <g>
       <use xlink:href="#m4ad87940d2" x="569.101016" y="318.939037" style="fill: #555555; stroke: #555555; stroke-width: 0.8"/>
      </g>
     </g>
     <g id="text_2">
      <!-- 98 -->
      <g style="fill: #555555" transform="translate(576.101016 324.551287) scale(0.105 -0.105)">
       <defs>
        <path id="NotoNaskhArabic-Regular-4d5" d="M 1229 -64 
Q 851 -64 653 0 
L 653 480 
Q 883 397 1216 397 
Q 1728 397 2057 601 
Q 2387 806 2560 1197 
Q 2650 1395 2701 1654 
Q 2752 1914 2758 2240 
L 2720 2240 
Q 2362 1709 1632 1709 
Q 1030 1709 675 2077 
Q 320 2445 320 3091 
Q 320 3565 499 3910 
Q 678 4256 1008 4445 
Q 1338 4634 1779 4634 
Q 2246 4634 2598 4394 
Q 2950 4154 3136 3699 
Q 3328 3238 3328 2618 
Q 3328 -64 1229 -64 
z
M 1754 2157 
Q 2035 2157 2265 2269 
Q 2496 2381 2630 2579 
Q 2758 2778 2758 2989 
Q 2758 3302 2636 3571 
Q 2515 3840 2291 4000 
Q 2074 4160 1779 4160 
Q 1350 4160 1113 3881 
Q 877 3603 877 3098 
Q 877 2643 1101 2400 
Q 1325 2157 1754 2157 
z
" transform="scale(0.015625)"/>
        <path id="NotoNaskhArabic-Regular-4d4" d="M 1843 -64 
Q 1114 -64 714 256 
Q 314 576 314 1165 
Q 314 1946 1261 2387 
Q 832 2630 646 2912 
Q 461 3194 461 3546 
Q 461 4045 832 4339 
Q 1203 4634 1824 4634 
Q 2451 4634 2822 4342 
Q 3194 4051 3194 3539 
Q 3194 3200 2986 2928 
Q 2778 2656 2323 2419 
Q 2874 2150 3107 1856 
Q 3341 1562 3341 1184 
Q 3341 621 2937 278 
Q 2534 -64 1843 -64 
z
M 1850 2637 
Q 2278 2816 2457 3030 
Q 2637 3245 2637 3520 
Q 2637 3834 2416 4006 
Q 2195 4179 1818 4179 
Q 1446 4179 1228 4003 
Q 1011 3827 1011 3520 
Q 1011 3322 1094 3171 
Q 1178 3021 1338 2906 
Q 1498 2784 1850 2637 
z
M 1830 384 
Q 2278 384 2534 595 
Q 2790 806 2790 1178 
Q 2790 1478 2547 1712 
Q 2304 1946 1728 2157 
Q 1280 1965 1072 1728 
Q 864 1491 864 1158 
Q 864 800 1123 592 
Q 1382 384 1830 384 
z
" transform="scale(0.015625)"/>
       </defs>
       <use xlink:href="#NotoNaskhArabic-Regular-4d5"/>
       <use xlink:href="#NotoNaskhArabic-Regular-4d4" transform="translate(57.203125 0)"/>
      </g>
     </g>
    </g>
    <g id="ytick_2">
     <g id="line2d_3">
      <path d="M 7.2 280.673188 
L 569.101016 280.673188 
" clip-path="url(#pba7ebb6bcb)" style="fill: none; stroke: #e6e1d6; stroke-width: 0.8; stroke-linecap: square"/>
     </g>
     <g id="line2d_4">
      <g>
       <use xlink:href="#m4ad87940d2" x="569.101016" y="280.673188" style="fill: #555555; stroke: #555555; stroke-width: 0.8"/>
      </g>
     </g>
     <g id="text_3">
      <!-- 100 -->
      <g style="fill: #555555" transform="translate(576.101016 286.285438) scale(0.105 -0.105)">
       <defs>
        <path id="NotoNaskhArabic-Regular-4cd" d="M 1722 0 
L 1722 3194 
Q 1722 3405 1728 3603 
Q 1734 3802 1747 3981 
Q 1702 3936 1657 3891 
Q 1613 3846 1562 3808 
Q 1402 3674 1226 3530 
Q 1050 3386 864 3232 
L 570 3610 
L 1805 4570 
L 2272 4570 
L 2272 0 
L 1722 0 
z
" transform="scale(0.015625)"/>
        <path id="NotoNaskhArabic-Regular-4cc" d="M 1824 -64 
Q 1082 -64 698 534 
Q 314 1133 314 2291 
Q 314 3488 682 4064 
Q 1050 4640 1824 4640 
Q 2566 4640 2956 4038 
Q 3347 3437 3347 2291 
Q 3347 1101 2969 518 
Q 2592 -64 1824 -64 
z
M 1824 416 
Q 2208 416 2426 678 
Q 2778 1094 2778 2291 
Q 2778 3571 2368 3962 
Q 2163 4160 1824 4160 
Q 1427 4160 1203 3878 
Q 877 3469 877 2291 
Q 877 1075 1229 666 
Q 1440 416 1824 416 
z
" transform="scale(0.015625)"/>
       </defs>
       <use xlink:href="#NotoNaskhArabic-Regular-4cd"/>
       <use xlink:href="#NotoNaskhArabic-Regular-4cc" transform="translate(57.203125 0)"/>
       <use xlink:href="#NotoNaskhArabic-Regular-4cc" transform="translate(114.40625 0)"/>
      </g>
     </g>
    </g>
    <g id="ytick_3">
     <g id="line2d_5">
      <path d="M 7.2 242.40734 
L 569.101016 242.40734 
" clip-path="url(#pba7ebb6bcb)" style="fill: none; stroke: #e6e1d6; stroke-width: 0.8; stroke-linecap: square"/>
     </g>
     <g id="line2d_6">
      <g>
       <use xlink:href="#m4ad87940d2" x="569.101016" y="242.40734" style="fill: #555555; stroke: #555555; stroke-width: 0.8"/>
      </g>
     </g>
     <g id="text_4">
      <!-- 102 -->
      <g style="fill: #555555" transform="translate(576.101016 248.01959) scale(0.105 -0.105)">
       <defs>
        <path id="NotoNaskhArabic-Regular-4ce" d="M 307 0 
L 307 467 
L 1504 1677 
Q 1773 1952 1952 2147 
Q 2131 2342 2221 2458 
Q 2413 2720 2489 2925 
Q 2566 3130 2566 3386 
Q 2566 3744 2352 3949 
Q 2138 4154 1760 4154 
Q 1478 4154 1228 4058 
Q 979 3962 659 3718 
L 358 4096 
Q 1005 4634 1760 4634 
Q 2240 4634 2576 4448 
Q 2912 4262 3053 3923 
Q 3142 3686 3142 3418 
Q 3142 3123 3033 2841 
Q 2925 2560 2707 2272 
Q 2598 2131 2416 1929 
Q 2234 1728 1971 1478 
L 1018 538 
L 1018 512 
L 3328 512 
L 3328 0 
L 307 0 
z
" transform="scale(0.015625)"/>
       </defs>
       <use xlink:href="#NotoNaskhArabic-Regular-4cd"/>
       <use xlink:href="#NotoNaskhArabic-Regular-4cc" transform="translate(57.203125 0)"/>
       <use xlink:href="#NotoNaskhArabic-Regular-4ce" transform="translate(114.40625 0)"/>
      </g>
     </g>
    </g>
    <g id="ytick_4">
     <g id="line2d_7">
      <path d="M 7.2 204.141492 
L 569.101016 204.141492 
" clip-path="url(#pba7ebb6bcb)" style="fill: none; stroke: #e6e1d6; stroke-width: 0.8; stroke-linecap: square"/>
     </g>
     <g id="line2d_8">
      <g>
       <use xlink:href="#m4ad87940d2" x="569.101016" y="204.141492" style="fill: #555555; stroke: #555555; stroke-width: 0.8"/>
      </g>
     </g>
     <g id="text_5">
      <!-- 104 -->
      <g style="fill: #555555" transform="translate(576.101016 209.753742) scale(0.105 -0.105)">
       <defs>
        <path id="NotoNaskhArabic-Regular-4d0" d="M 2323 0 
L 2323 1037 
L 134 1037 
L 134 1517 
L 2285 4595 
L 2867 4595 
L 2867 1542 
L 3533 1542 
L 3533 1037 
L 2867 1037 
L 2867 0 
L 2323 0 
z
M 685 1542 
L 2323 1542 
L 2323 2982 
Q 2323 3194 2332 3446 
Q 2342 3699 2355 3994 
L 2330 3994 
Q 2298 3910 2211 3747 
Q 2125 3584 2054 3494 
L 685 1542 
z
" transform="scale(0.015625)"/>
       </defs>
       <use xlink:href="#NotoNaskhArabic-Regular-4cd"/>
       <use xlink:href="#NotoNaskhArabic-Regular-4cc" transform="translate(57.203125 0)"/>
       <use xlink:href="#NotoNaskhArabic-Regular-4d0" transform="translate(114.40625 0)"/>
      </g>
     </g>
    </g>
    <g id="ytick_5">
     <g id="line2d_9">
      <path d="M 7.2 165.875643 
L 569.101016 165.875643 
" clip-path="url(#pba7ebb6bcb)" style="fill: none; stroke: #e6e1d6; stroke-width: 0.8; stroke-linecap: square"/>
     </g>
     <g id="line2d_10">
      <g>
       <use xlink:href="#m4ad87940d2" x="569.101016" y="165.875643" style="fill: #555555; stroke: #555555; stroke-width: 0.8"/>
      </g>
     </g>
     <g id="text_6">
      <!-- 106 -->
      <g style="fill: #555555" transform="translate(576.101016 171.487893) scale(0.105 -0.105)">
       <defs>
        <path id="NotoNaskhArabic-Regular-4d2" d="M 1907 -64 
Q 1440 -64 1088 176 
Q 736 416 544 870 
Q 352 1331 352 1952 
Q 352 4634 2445 4634 
Q 2810 4634 3008 4576 
L 3008 4096 
Q 2771 4173 2458 4173 
Q 1984 4173 1654 3987 
Q 1325 3802 1139 3405 
Q 941 2976 915 2323 
L 954 2323 
Q 1299 2861 2035 2861 
Q 2656 2861 3008 2486 
Q 3360 2112 3360 1472 
Q 3360 762 2969 349 
Q 2579 -64 1907 -64 
z
M 1901 410 
Q 2336 410 2569 688 
Q 2803 966 2803 1472 
Q 2803 1926 2576 2172 
Q 2349 2419 1920 2419 
Q 1645 2419 1421 2307 
Q 1197 2195 1056 1997 
Q 922 1798 922 1581 
Q 922 1267 1050 995 
Q 1178 723 1395 563 
Q 1619 410 1901 410 
z
" transform="scale(0.015625)"/>
       </defs>
       <use xlink:href="#NotoNaskhArabic-Regular-4cd"/>
       <use xlink:href="#NotoNaskhArabic-Regular-4cc" transform="translate(57.203125 0)"/>
       <use xlink:href="#NotoNaskhArabic-Regular-4d2" transform="translate(114.40625 0)"/>
      </g>
     </g>
    </g>
    <g id="ytick_6">
     <g id="line2d_11">
      <path d="M 7.2 127.609795 
L 569.101016 127.609795 
" clip-path="url(#pba7ebb6bcb)" style="fill: none; stroke: #e6e1d6; stroke-width: 0.8; stroke-linecap: square"/>
     </g>
     <g id="line2d_12">
      <g>
       <use xlink:href="#m4ad87940d2" x="569.101016" y="127.609795" style="fill: #555555; stroke: #555555; stroke-width: 0.8"/>
      </g>
     </g>
     <g id="text_7">
      <!-- 108 -->
      <g style="fill: #555555" transform="translate(576.101016 133.222045) scale(0.105 -0.105)">
       <use xlink:href="#NotoNaskhArabic-Regular-4cd"/>
       <use xlink:href="#NotoNaskhArabic-Regular-4cc" transform="translate(57.203125 0)"/>
       <use xlink:href="#NotoNaskhArabic-Regular-4d4" transform="translate(114.40625 0)"/>
      </g>
     </g>
    </g>
    <g id="ytick_7">
     <g id="line2d_13">
      <path d="M 7.2 89.343947 
L 569.101016 89.343947 
" clip-path="url(#pba7ebb6bcb)" style="fill: none; stroke: #e6e1d6; stroke-width: 0.8; stroke-linecap: square"/>
     </g>
     <g id="line2d_14">
      <g>
       <use xlink:href="#m4ad87940d2" x="569.101016" y="89.343947" style="fill: #555555; stroke: #555555; stroke-width: 0.8"/>
      </g>
     </g>
     <g id="text_8">
      <!-- 110 -->
      <g style="fill: #555555" transform="translate(576.101016 94.956197) scale(0.105 -0.105)">
       <use xlink:href="#NotoNaskhArabic-Regular-4cd"/>
       <use xlink:href="#NotoNaskhArabic-Regular-4cd" transform="translate(57.203125 0)"/>
       <use xlink:href="#NotoNaskhArabic-Regular-4cc" transform="translate(114.40625 0)"/>
      </g>
     </g>
    </g>
    <g id="ytick_8">
     <g id="line2d_15">
      <path d="M 7.2 51.078098 
L 569.101016 51.078098 
" clip-path="url(#pba7ebb6bcb)" style="fill: none; stroke: #e6e1d6; stroke-width: 0.8; stroke-linecap: square"/>
     </g>
     <g id="line2d_16">
      <g>
       <use xlink:href="#m4ad87940d2" x="569.101016" y="51.078098" style="fill: #555555; stroke: #555555; stroke-width: 0.8"/>
      </g>
     </g>
     <g id="text_9">
      <!-- 112 -->
      <g style="fill: #555555" transform="translate(576.101016 56.690348) scale(0.105 -0.105)">
       <use xlink:href="#NotoNaskhArabic-Regular-4cd"/>
       <use xlink:href="#NotoNaskhArabic-Regular-4cd" transform="translate(57.203125 0)"/>
       <use xlink:href="#NotoNaskhArabic-Regular-4ce" transform="translate(114.40625 0)"/>
      </g>
     </g>
    </g>
    <g id="ytick_9">
     <g id="line2d_17">
      <path d="M 7.2 12.81225 
L 569.101016 12.81225 
" clip-path="url(#pba7ebb6bcb)" style="fill: none; stroke: #e6e1d6; stroke-width: 0.8; stroke-linecap: square"/>
     </g>
     <g id="line2d_18">
      <g>
       <use xlink:href="#m4ad87940d2" x="569.101016" y="12.81225" style="fill: #555555; stroke: #555555; stroke-width: 0.8"/>
      </g>
     </g>
     <g id="text_10">
      <!-- 114 -->
      <g style="fill: #555555" transform="translate(576.101016 18.4245) scale(0.105 -0.105)">
       <use xlink:href="#NotoNaskhArabic-Regular-4cd"/>
       <use xlink:href="#NotoNaskhArabic-Regular-4cd" transform="translate(57.203125 0)"/>
       <use xlink:href="#NotoNaskhArabic-Regular-4d0" transform="translate(114.40625 0)"/>
      </g>
     </g>
    </g>
    <g id="text_11">
     <!-- ​ﺮﻌﺴﻟﺍ -->
     <g style="fill: #1f2937" transform="translate(610.46 157.509016) rotate(-270) scale(0.1 -0.1)">
      <defs>
       <path id="NotoNaskhArabic-Regular-f9" d="M 1446 0 
Q 1267 0 1030 57 
Q 794 115 666 198 
Q 576 109 397 54 
Q 218 0 0 0 
Q -51 0 -51 51 
L -51 435 
Q -51 486 0 486 
Q 326 486 518 634 
Q 627 723 681 809 
Q 736 896 858 1094 
Q 915 1197 1056 1197 
Q 1146 1197 1210 1152 
Q 1114 909 1046 765 
Q 979 621 947 570 
Q 998 544 1155 515 
Q 1312 486 1517 486 
Q 1664 486 1789 505 
Q 1914 525 2016 550 
Q 2061 621 2115 793 
Q 2170 966 2227 1145 
Q 2285 1325 2323 1408 
Q 2381 1536 2432 1574 
Q 2483 1613 2579 1613 
Q 2669 1613 2733 1568 
Q 2688 1466 2608 1235 
Q 2528 1005 2400 582 
Q 2496 538 2566 522 
Q 2637 506 2739 506 
Q 2906 506 3091 570 
Q 3123 608 3168 723 
Q 3213 838 3277 1030 
Q 3328 1190 3385 1331 
Q 3443 1472 3501 1568 
Q 3552 1664 3699 1664 
Q 3789 1664 3853 1619 
Q 3808 1517 3728 1289 
Q 3648 1062 3533 710 
Q 3757 589 3917 537 
Q 4077 486 4294 486 
Q 4352 486 4352 435 
L 4352 51 
Q 4352 0 4294 0 
Q 4045 0 3798 96 
Q 3552 192 3386 346 
Q 3366 301 3347 259 
Q 3328 218 3296 173 
Q 3251 96 3078 48 
Q 2906 0 2733 0 
Q 2438 0 2221 160 
Q 2176 102 2041 67 
Q 1907 32 1744 19 
Q 1581 6 1446 0 
z
" transform="scale(0.015625)"/>
       <path id="NotoNaskhArabic-Regular-135" d="M 6 0 
Q -51 0 -51 58 
L -51 429 
Q -51 486 6 486 
Q 672 486 1101 640 
L 986 787 
Q 864 973 771 1094 
Q 678 1216 621 1280 
Q 506 1427 410 1491 
L 307 1427 
Q 192 1555 192 1709 
Q 192 1862 297 1974 
Q 403 2086 566 2172 
Q 730 2259 902 2310 
Q 1158 2394 1446 2394 
Q 1722 2394 1936 2288 
Q 2150 2182 2272 2003 
Q 2400 1824 2400 1594 
Q 2400 1293 2243 1049 
Q 2086 806 1830 602 
Q 2099 486 2694 486 
Q 2758 486 2758 429 
L 2758 58 
Q 2758 0 2694 0 
Q 2259 0 1955 83 
Q 1651 166 1402 346 
Q 1050 166 723 83 
Q 397 0 6 0 
z
M 1478 845 
Q 1696 992 1821 1152 
Q 1946 1312 1946 1459 
Q 1946 1638 1811 1753 
Q 1677 1869 1466 1869 
Q 1075 1869 710 1677 
Q 947 1491 1325 1018 
Q 1395 934 1478 845 
z
" transform="scale(0.015625)"/>
       <path id="NotoNaskhArabic-Regular-d4" d="M 710 -1306 
Q 608 -1306 451 -1248 
Q 294 -1190 134 -1107 
Q -26 -1024 -128 -947 
L -45 -736 
Q 134 -768 284 -787 
Q 435 -806 563 -806 
Q 1043 -806 1385 -518 
Q 1728 -230 1907 314 
Q 1862 416 1814 515 
Q 1766 614 1709 717 
Q 1491 1107 1388 1340 
Q 1286 1574 1286 1734 
Q 1286 1901 1382 2000 
Q 1478 2099 1658 2182 
Q 1683 2099 1712 2000 
Q 1741 1901 1786 1792 
Q 1888 1530 1955 1334 
Q 2022 1139 2054 1018 
Q 2093 896 2115 797 
Q 2138 698 2144 614 
Q 2362 486 2643 486 
Q 2694 486 2694 435 
L 2694 51 
Q 2694 0 2643 0 
Q 2342 0 2118 154 
Q 2048 -288 1849 -617 
Q 1651 -947 1356 -1126 
Q 1062 -1306 710 -1306 
z
" transform="scale(0.015625)"/>
      </defs>
      <use xlink:href="#NotoNaskhArabic-Regular-3"/>
      <use xlink:href="#NotoNaskhArabic-Regular-1c1" transform="translate(23.796875 0)"/>
      <use xlink:href="#NotoNaskhArabic-Regular-f9" transform="translate(45 0)"/>
      <use xlink:href="#NotoNaskhArabic-Regular-135" transform="translate(111.296875 0)"/>
      <use xlink:href="#NotoNaskhArabic-Regular-d4" transform="translate(152.703125 0)"/>
      <use xlink:href="#NotoNaskhArabic-Regular-554" transform="translate(193.109375 0)"/>
     </g>
    </g>
   </g>
   <g id="FillBetweenPolyCollection_1">
    <path d="M 18.217667 231.777915 
L 18.217667 231.777915 
L 29.235334 231.654477 
L 40.253001 228.83828 
L 51.270668 225.886554 
L 62.288335 221.810633 
L 73.306002 218.405331 
L 84.323669 213.909602 
L 95.341336 209.400606 
L 106.359003 205.96696 
L 117.37667 204.391847 
L 128.394337 200.13495 
L 139.412004 195.914966 
L 150.429671 193.035021 
L 161.447338 190.488974 
L 172.465005 187.696855 
L 183.482672 184.702875 
L 194.500339 181.330109 
L 205.518006 175.5361 
L 216.535672 168.108004 
L 227.553339 160.311211 
L 238.571006 155.899343 
L 249.588673 151.27941 
L 260.60634 146.426327 
L 271.624007 142.384484 
L 282.641674 138.680013 
L 293.659341 133.683261 
L 304.677008 129.66691 
L 315.694675 129.004631 
L 326.712342 128.72856 
L 337.730009 126.206157 
L 348.747676 123.287442 
L 359.765343 120.447684 
L 370.78301 118.553778 
L 381.800677 117.206357 
L 392.818344 117.012824 
L 403.836011 119.116152 
L 414.853678 122.321175 
L 425.871345 123.841747 
L 436.889012 123.713347 
L 440.859502 124.438472 
L 436.889012 124.404195 
L 425.871345 125.252661 
L 414.853678 126.073282 
L 403.836011 127.352326 
L 392.818344 129.566887 
L 381.800677 133.093372 
L 370.78301 136.332651 
L 359.765343 139.357585 
L 348.747676 142.706616 
L 337.730009 146.37066 
L 326.712342 150.616308 
L 315.694675 153.839989 
L 304.677008 156.823759 
L 293.659341 160.693909 
L 282.641674 165.001677 
L 271.624007 169.206098 
L 260.60634 174.058667 
L 249.588673 178.977467 
L 238.571006 183.69253 
L 227.553339 187.999505 
L 216.535672 190.928433 
L 205.518006 193.843598 
L 194.500339 196.397824 
L 183.482672 198.766361 
L 172.465005 200.705764 
L 161.447338 201.824853 
L 150.429671 202.969093 
L 139.412004 204.542308 
L 128.394337 207.442227 
L 117.37667 210.198109 
L 106.359003 211.658273 
L 95.341336 213.886223 
L 84.323669 216.867081 
L 73.306002 219.621021 
L 62.288335 221.810633 
L 51.270668 225.886554 
L 40.253001 228.83828 
L 29.235334 231.654477 
L 18.217667 231.777915 
z
" clip-path="url(#pba7ebb6bcb)" style="fill: #e0a94a; fill-opacity: 0.3; stroke: #e0a94a; stroke-opacity: 0.3"/>
    <path d="M 505.118793 122.276194 
L 514.012681 117.918965 
L 525.030348 111.654576 
L 536.048015 103.513282 
L 547.065682 97.237971 
L 558.083349 91.290544 
L 558.083349 91.290544 
L 558.083349 111.026926 
L 547.065682 113.292842 
L 536.048015 116.284032 
L 525.030348 119.439919 
L 514.012681 121.098806 
z
" clip-path="url(#pba7ebb6bcb)" style="fill: #e0a94a; fill-opacity: 0.3; stroke: #e0a94a; stroke-opacity: 0.3"/>
   </g>
   <g id="FillBetweenPolyCollection_2">
    <defs>
     <path id="m75d3528e6b" d="M 440.859502 -230.186126 
L 447.906679 -228.899111 
L 458.924346 -227.657714 
L 469.942013 -225.492173 
L 480.95968 -225.108339 
L 491.977347 -226.659794 
L 502.995014 -231.307937 
L 505.118793 -232.348404 
L 502.995014 -232.067254 
L 491.977347 -230.911645 
L 480.95968 -230.20668 
L 469.942013 -230.398081 
L 458.924346 -230.641381 
L 447.906679 -230.125289 
z
" style="stroke: #b0c4de; stroke-opacity: 0.3"/>
    </defs>
    <g clip-path="url(#pba7ebb6bcb)">
     <use xlink:href="#m75d3528e6b" x="0" y="354.624598" style="fill: #b0c4de; fill-opacity: 0.3; stroke: #b0c4de; stroke-opacity: 0.3"/>
    </g>
   </g>
   <g id="line2d_19">
    <path d="M 18.217667 279.610225 
L 29.235334 279.486787 
L 40.253001 276.67059 
L 51.270668 273.718865 
L 62.288335 269.642943 
L 73.306002 265.021952 
L 84.323669 258.784434 
L 95.341336 252.7473 
L 106.359003 248.107957 
L 117.37667 246.417896 
L 128.394337 240.659985 
L 139.412004 235.119935 
L 150.429671 233.333995 
L 161.447338 231.957009 
L 172.465005 229.553385 
L 183.482672 227.511765 
L 194.500339 224.683375 
L 205.518006 217.949623 
L 216.535672 208.250765 
L 227.553339 197.713038 
L 238.571006 192.905659 
L 249.588673 188.651364 
L 260.60634 183.532992 
L 271.624007 179.837903 
L 282.641674 177.651629 
L 293.659341 173.027469 
L 304.677008 170.169606 
L 315.694675 171.872589 
L 326.712342 173.748797 
L 337.730009 171.893831 
L 348.747676 168.710812 
L 359.765343 165.255237 
L 370.78301 163.304641 
L 381.800677 161.865266 
L 392.818344 162.33829 
L 403.836011 166.094606 
L 414.853678 171.546163 
L 425.871345 173.629664 
L 436.889012 173.494057 
L 447.906679 177.442726 
L 458.924346 179.429224 
L 469.942013 181.264301 
L 480.95968 180.194018 
L 491.977347 177.072932 
L 502.995014 169.883769 
L 514.012681 161.489822 
L 525.030348 151.023217 
L 536.048015 139.337048 
L 547.065682 132.068354 
L 558.083349 125.772161 
" clip-path="url(#pba7ebb6bcb)" style="fill: none; stroke: #b91c1c; stroke-width: 1.4; stroke-linecap: square"/>
   </g>
   <g id="line2d_20">
    <path d="M 18.217667 279.610225 
L 29.235334 279.486787 
L 40.253001 276.67059 
L 51.270668 273.718865 
L 62.288335 269.642943 
L 73.306002 267.453331 
L 84.323669 264.699392 
L 95.341336 261.718534 
L 106.359003 259.490583 
L 117.37667 258.030419 
L 128.394337 255.274537 
L 139.412004 252.374618 
L 150.429671 248.400668 
L 161.447338 244.68556 
L 172.465005 241.504946 
L 183.482672 237.558606 
L 194.500339 233.641465 
L 205.518006 228.787198 
L 216.535672 223.629864 
L 227.553339 218.574004 
L 238.571006 214.557648 
L 249.588673 209.572077 
L 260.60634 204.984284 
L 271.624007 200.595685 
L 282.641674 195.373018 
L 293.659341 190.003673 
L 304.677008 184.828835 
L 315.694675 181.801294 
L 326.712342 179.372944 
L 337.730009 176.183104 
L 348.747676 173.528693 
L 359.765343 171.304751 
L 370.78301 169.467537 
L 381.800677 168.21207 
L 392.818344 167.351979 
L 403.836011 167.802319 
L 414.853678 168.760807 
L 425.871345 169.718451 
L 436.889012 169.597258 
L 447.906679 169.672869 
L 458.924346 170.169164 
L 469.942013 172.66517 
L 480.95968 174.50312 
L 491.977347 174.521297 
L 502.995014 172.414173 
L 514.012681 170.012729 
L 525.030348 167.950556 
L 536.048015 163.354138 
L 547.065682 158.072209 
L 558.083349 152.473547 
" clip-path="url(#pba7ebb6bcb)" style="fill: none; stroke: #1f2937; stroke-width: 1.6; stroke-linecap: square"/>
   </g>
   <g id="patch_3">
    <path d="M 569.101016 322.394598 
L 569.101016 11.934371 
" style="fill: none; stroke: #1f2937; stroke-width: 0.8; stroke-linejoin: miter; stroke-linecap: square"/>
   </g>
   <g id="patch_4">
    <path d="M 7.2 322.394598 
L 569.101016 322.394598 
" style="fill: none; stroke: #1f2937; stroke-width: 0.8; stroke-linejoin: miter; stroke-linecap: square"/>
   </g>
   <g id="line2d_21">
    <path d="M 18.217667 281.038166 
L 18.217667 274.90298 
" clip-path="url(#pba7ebb6bcb)" style="fill: none; stroke: #b91c1c; stroke-width: 1.1; stroke-linecap: round"/>
   </g>
   <g id="line2d_22">
    <path d="M 29.235334 281.304274 
L 29.235334 275.423933 
" clip-path="url(#pba7ebb6bcb)" style="fill: none; stroke: #b91c1c; stroke-width: 1.1; stroke-linecap: round"/>
   </g>
   <g id="line2d_23">
    <path d="M 40.253001 280.759326 
L 40.253001 268.517622 
" clip-path="url(#pba7ebb6bcb)" style="fill: none; stroke: #1f8a56; stroke-width: 1.1; stroke-linecap: round"/>
   </g>
   <g id="line2d_24">
    <path d="M 51.270668 272.230456 
L 51.270668 264.287941 
" clip-path="url(#pba7ebb6bcb)" style="fill: none; stroke: #1f8a56; stroke-width: 1.1; stroke-linecap: round"/>
   </g>
   <g id="line2d_25">
    <path d="M 62.288335 270.855861 
L 62.288335 250.462659 
" clip-path="url(#pba7ebb6bcb)" style="fill: none; stroke: #1f8a56; stroke-width: 1.1; stroke-linecap: round"/>
   </g>
   <g id="line2d_26">
    <path d="M 73.306002 258.334607 
L 73.306002 253.943816 
" clip-path="url(#pba7ebb6bcb)" style="fill: none; stroke: #b91c1c; stroke-width: 1.1; stroke-linecap: round"/>
   </g>
   <g id="line2d_27">
    <path d="M 84.323669 256.597489 
L 84.323669 244.682016 
" clip-path="url(#pba7ebb6bcb)" style="fill: none; stroke: #1f8a56; stroke-width: 1.1; stroke-linecap: round"/>
   </g>
   <g id="line2d_28">
    <path d="M 95.341336 246.952852 
L 95.341336 240.083292 
" clip-path="url(#pba7ebb6bcb)" style="fill: none; stroke: #1f8a56; stroke-width: 1.1; stroke-linecap: round"/>
   </g>
   <g id="line2d_29">
    <path d="M 106.359003 247.918724 
L 106.359003 238.743511 
" clip-path="url(#pba7ebb6bcb)" style="fill: none; stroke: #1f8a56; stroke-width: 1.1; stroke-linecap: round"/>
   </g>
   <g id="line2d_30">
    <path d="M 117.37667 249.807846 
L 117.37667 240.475622 
" clip-path="url(#pba7ebb6bcb)" style="fill: none; stroke: #b91c1c; stroke-width: 1.1; stroke-linecap: round"/>
   </g>
   <g id="line2d_31">
    <path d="M 128.394337 246.219435 
L 128.394337 227.308718 
" clip-path="url(#pba7ebb6bcb)" style="fill: none; stroke: #1f8a56; stroke-width: 1.1; stroke-linecap: round"/>
   </g>
   <g id="line2d_32">
    <path d="M 139.412004 229.092539 
L 139.412004 218.705044 
" clip-path="url(#pba7ebb6bcb)" style="fill: none; stroke: #1f8a56; stroke-width: 1.1; stroke-linecap: round"/>
   </g>
   <g id="line2d_33">
    <path d="M 150.429671 232.959971 
L 150.429671 217.633918 
" clip-path="url(#pba7ebb6bcb)" style="fill: none; stroke: #b91c1c; stroke-width: 1.1; stroke-linecap: round"/>
   </g>
   <g id="line2d_34">
    <path d="M 161.447338 235.409962 
L 161.447338 227.566519 
" clip-path="url(#pba7ebb6bcb)" style="fill: none; stroke: #b91c1c; stroke-width: 1.1; stroke-linecap: round"/>
   </g>
   <g id="line2d_35">
    <path d="M 172.465005 240.395914 
L 172.465005 232.095757 
" clip-path="url(#pba7ebb6bcb)" style="fill: none; stroke: #1f8a56; stroke-width: 1.1; stroke-linecap: round"/>
   </g>
   <g id="line2d_36">
    <path d="M 183.482672 234.612171 
L 183.482672 215.611475 
" clip-path="url(#pba7ebb6bcb)" style="fill: none; stroke: #1f8a56; stroke-width: 1.1; stroke-linecap: round"/>
   </g>
   <g id="line2d_37">
    <path d="M 194.500339 220.592085 
L 194.500339 205.275388 
" clip-path="url(#pba7ebb6bcb)" style="fill: none; stroke: #1f8a56; stroke-width: 1.1; stroke-linecap: round"/>
   </g>
   <g id="line2d_38">
    <path d="M 205.518006 211.011736 
L 205.518006 197.494947 
" clip-path="url(#pba7ebb6bcb)" style="fill: none; stroke: #1f8a56; stroke-width: 1.1; stroke-linecap: round"/>
   </g>
   <g id="line2d_39">
    <path d="M 216.535672 196.233873 
L 216.535672 186.175248 
" clip-path="url(#pba7ebb6bcb)" style="fill: none; stroke: #1f8a56; stroke-width: 1.1; stroke-linecap: round"/>
   </g>
   <g id="line2d_40">
    <path d="M 227.553339 187.450679 
L 227.553339 177.019177 
" clip-path="url(#pba7ebb6bcb)" style="fill: none; stroke: #1f8a56; stroke-width: 1.1; stroke-linecap: round"/>
   </g>
   <g id="line2d_41">
    <path d="M 238.571006 194.701753 
L 238.571006 174.994596 
" clip-path="url(#pba7ebb6bcb)" style="fill: none; stroke: #b91c1c; stroke-width: 1.1; stroke-linecap: round"/>
   </g>
   <g id="line2d_42">
    <path d="M 249.588673 200.264868 
L 249.588673 183.420006 
" clip-path="url(#pba7ebb6bcb)" style="fill: none; stroke: #1f8a56; stroke-width: 1.1; stroke-linecap: round"/>
   </g>
   <g id="line2d_43">
    <path d="M 260.60634 188.138962 
L 260.60634 169.870021 
" clip-path="url(#pba7ebb6bcb)" style="fill: none; stroke: #1f8a56; stroke-width: 1.1; stroke-linecap: round"/>
   </g>
   <g id="line2d_44">
    <path d="M 271.624007 176.117315 
L 271.624007 167.045538 
" clip-path="url(#pba7ebb6bcb)" style="fill: none; stroke: #1f8a56; stroke-width: 1.1; stroke-linecap: round"/>
   </g>
   <g id="line2d_45">
    <path d="M 282.641674 173.043437 
L 282.641674 162.992703 
" clip-path="url(#pba7ebb6bcb)" style="fill: none; stroke: #b91c1c; stroke-width: 1.1; stroke-linecap: round"/>
   </g>
   <g id="line2d_46">
    <path d="M 293.659341 179.409521 
L 293.659341 170.150467 
" clip-path="url(#pba7ebb6bcb)" style="fill: none; stroke: #1f8a56; stroke-width: 1.1; stroke-linecap: round"/>
   </g>
   <g id="line2d_47">
    <path d="M 304.677008 170.850193 
L 304.677008 166.538851 
" clip-path="url(#pba7ebb6bcb)" style="fill: none; stroke: #b91c1c; stroke-width: 1.1; stroke-linecap: round"/>
   </g>
   <g id="line2d_48">
    <path d="M 315.694675 181.851437 
L 315.694675 166.954531 
" clip-path="url(#pba7ebb6bcb)" style="fill: none; stroke: #b91c1c; stroke-width: 1.1; stroke-linecap: round"/>
   </g>
   <g id="line2d_49">
    <path d="M 326.712342 180.365766 
L 326.712342 175.468445 
" clip-path="url(#pba7ebb6bcb)" style="fill: none; stroke: #1f8a56; stroke-width: 1.1; stroke-linecap: round"/>
   </g>
   <g id="line2d_50">
    <path d="M 337.730009 178.179175 
L 337.730009 159.198491 
" clip-path="url(#pba7ebb6bcb)" style="fill: none; stroke: #1f8a56; stroke-width: 1.1; stroke-linecap: round"/>
   </g>
   <g id="line2d_51">
    <path d="M 348.747676 165.712437 
L 348.747676 153.719521 
" clip-path="url(#pba7ebb6bcb)" style="fill: none; stroke: #1f8a56; stroke-width: 1.1; stroke-linecap: round"/>
   </g>
   <g id="line2d_52">
    <path d="M 359.765343 154.811299 
L 359.765343 151.770657 
" clip-path="url(#pba7ebb6bcb)" style="fill: none; stroke: #1f8a56; stroke-width: 1.1; stroke-linecap: round"/>
   </g>
   <g id="line2d_53">
    <path d="M 370.78301 174.129071 
L 370.78301 151.501424 
" clip-path="url(#pba7ebb6bcb)" style="fill: none; stroke: #b91c1c; stroke-width: 1.1; stroke-linecap: round"/>
   </g>
   <g id="line2d_54">
    <path d="M 381.800677 174.658347 
L 381.800677 162.191977 
" clip-path="url(#pba7ebb6bcb)" style="fill: none; stroke: #b91c1c; stroke-width: 1.1; stroke-linecap: round"/>
   </g>
   <g id="line2d_55">
    <path d="M 392.818344 173.683881 
L 392.818344 160.178917 
" clip-path="url(#pba7ebb6bcb)" style="fill: none; stroke: #1f8a56; stroke-width: 1.1; stroke-linecap: round"/>
   </g>
   <g id="line2d_56">
    <path d="M 403.836011 176.595005 
L 403.836011 160.82912 
" clip-path="url(#pba7ebb6bcb)" style="fill: none; stroke: #b91c1c; stroke-width: 1.1; stroke-linecap: round"/>
   </g>
   <g id="line2d_57">
    <path d="M 414.853678 186.255024 
L 414.853678 175.994414 
" clip-path="url(#pba7ebb6bcb)" style="fill: none; stroke: #b91c1c; stroke-width: 1.1; stroke-linecap: round"/>
   </g>
   <g id="line2d_58">
    <path d="M 425.871345 183.372255 
L 425.871345 172.372078 
" clip-path="url(#pba7ebb6bcb)" style="fill: none; stroke: #b91c1c; stroke-width: 1.1; stroke-linecap: round"/>
   </g>
   <g id="line2d_59">
    <path d="M 436.889012 177.990109 
L 436.889012 165.868463 
" clip-path="url(#pba7ebb6bcb)" style="fill: none; stroke: #1f8a56; stroke-width: 1.1; stroke-linecap: round"/>
   </g>
   <g id="line2d_60">
    <path d="M 447.906679 182.943616 
L 447.906679 172.468244 
" clip-path="url(#pba7ebb6bcb)" style="fill: none; stroke: #b91c1c; stroke-width: 1.1; stroke-linecap: round"/>
   </g>
   <g id="line2d_61">
    <path d="M 458.924346 185.9613 
L 458.924346 181.339254 
" clip-path="url(#pba7ebb6bcb)" style="fill: none; stroke: #1f8a56; stroke-width: 1.1; stroke-linecap: round"/>
   </g>
   <g id="line2d_62">
    <path d="M 469.942013 191.164171 
L 469.942013 180.256539 
" clip-path="url(#pba7ebb6bcb)" style="fill: none; stroke: #b91c1c; stroke-width: 1.1; stroke-linecap: round"/>
   </g>
   <g id="line2d_63">
    <path d="M 480.95968 191.629384 
L 480.95968 172.268613 
" clip-path="url(#pba7ebb6bcb)" style="fill: none; stroke: #1f8a56; stroke-width: 1.1; stroke-linecap: round"/>
   </g>
   <g id="line2d_64">
    <path d="M 491.977347 180.486539 
L 491.977347 151.748503 
" clip-path="url(#pba7ebb6bcb)" style="fill: none; stroke: #1f8a56; stroke-width: 1.1; stroke-linecap: round"/>
   </g>
   <g id="line2d_65">
    <path d="M 502.995014 151.032842 
L 502.995014 144.693134 
" clip-path="url(#pba7ebb6bcb)" style="fill: none; stroke: #1f8a56; stroke-width: 1.1; stroke-linecap: round"/>
   </g>
   <g id="line2d_66">
    <path d="M 514.012681 151.280068 
L 514.012681 140.979808 
" clip-path="url(#pba7ebb6bcb)" style="fill: none; stroke: #1f8a56; stroke-width: 1.1; stroke-linecap: round"/>
   </g>
   <g id="line2d_67">
    <path d="M 525.030348 148.156913 
L 525.030348 137.05551 
" clip-path="url(#pba7ebb6bcb)" style="fill: none; stroke: #1f8a56; stroke-width: 1.1; stroke-linecap: round"/>
   </g>
   <g id="line2d_68">
    <path d="M 536.048015 139.681107 
L 536.048015 117.208602 
" clip-path="url(#pba7ebb6bcb)" style="fill: none; stroke: #1f8a56; stroke-width: 1.1; stroke-linecap: round"/>
   </g>
   <g id="line2d_69">
    <path d="M 547.065682 120.246057 
L 547.065682 114.435262 
" clip-path="url(#pba7ebb6bcb)" style="fill: none; stroke: #1f8a56; stroke-width: 1.1; stroke-linecap: round"/>
   </g>
   <g id="line2d_70">
    <path d="M 558.083349 121.661235 
L 558.083349 111.873851 
" clip-path="url(#pba7ebb6bcb)" style="fill: none; stroke: #1f8a56; stroke-width: 1.1; stroke-linecap: round"/>
   </g>
   <g id="text_12">
    <!-- ​(Kumo) ﺔﻴﻠﺒﻘﺘﺴﻤﻟﺍ ﺔﺑﺎﺤﺴﻟﺍ -->
    <g style="fill: #b7791f" transform="translate(242.95981 62.591157) scale(0.09 -0.09)">
     <defs>
      <path id="NotoNaskhArabic-Bold-554" transform="scale(0.015625)"/>
      <path id="DejaVuSans-Bold-b" d="M 2413 -844 
L 1484 -844 
Q 1006 -72 778 623 
Q 550 1319 550 2003 
Q 550 2688 779 3389 
Q 1009 4091 1484 4856 
L 2413 4856 
Q 2013 4116 1813 3408 
Q 1613 2700 1613 2009 
Q 1613 1319 1811 609 
Q 2009 -100 2413 -844 
z
" transform="scale(0.015625)"/>
      <path id="DejaVuSans-Bold-2e" d="M 588 4666 
L 1791 4666 
L 1791 2963 
L 3525 4666 
L 4922 4666 
L 2675 2456 
L 5153 0 
L 3647 0 
L 1791 1838 
L 1791 0 
L 588 0 
L 588 4666 
z
" transform="scale(0.015625)"/>
      <path id="DejaVuSans-Bold-58" d="M 500 1363 
L 500 3500 
L 1625 3500 
L 1625 3150 
Q 1625 2866 1622 2436 
Q 1619 2006 1619 1863 
Q 1619 1441 1641 1255 
Q 1663 1069 1716 984 
Q 1784 875 1895 815 
Q 2006 756 2150 756 
Q 2500 756 2700 1025 
Q 2900 1294 2900 1772 
L 2900 3500 
L 4019 3500 
L 4019 0 
L 2900 0 
L 2900 506 
Q 2647 200 2364 54 
Q 2081 -91 1741 -91 
Q 1134 -91 817 281 
Q 500 653 500 1363 
z
" transform="scale(0.015625)"/>
      <path id="DejaVuSans-Bold-50" d="M 3781 2919 
Q 3994 3244 4286 3414 
Q 4578 3584 4928 3584 
Q 5531 3584 5847 3212 
Q 6163 2841 6163 2131 
L 6163 0 
L 5038 0 
L 5038 1825 
Q 5041 1866 5042 1909 
Q 5044 1953 5044 2034 
Q 5044 2406 4934 2573 
Q 4825 2741 4581 2741 
Q 4263 2741 4089 2478 
Q 3916 2216 3909 1719 
L 3909 0 
L 2784 0 
L 2784 1825 
Q 2784 2406 2684 2573 
Q 2584 2741 2328 2741 
Q 2006 2741 1831 2477 
Q 1656 2213 1656 1722 
L 1656 0 
L 531 0 
L 531 3500 
L 1656 3500 
L 1656 2988 
Q 1863 3284 2130 3434 
Q 2397 3584 2719 3584 
Q 3081 3584 3359 3409 
Q 3638 3234 3781 2919 
z
" transform="scale(0.015625)"/>
      <path id="DejaVuSans-Bold-52" d="M 2203 2784 
Q 1831 2784 1636 2517 
Q 1441 2250 1441 1747 
Q 1441 1244 1636 976 
Q 1831 709 2203 709 
Q 2569 709 2762 976 
Q 2956 1244 2956 1747 
Q 2956 2250 2762 2517 
Q 2569 2784 2203 2784 
z
M 2203 3584 
Q 3106 3584 3614 3096 
Q 4122 2609 4122 1747 
Q 4122 884 3614 396 
Q 3106 -91 2203 -91 
Q 1297 -91 786 396 
Q 275 884 275 1747 
Q 275 2609 786 3096 
Q 1297 3584 2203 3584 
z
" transform="scale(0.015625)"/>
      <path id="DejaVuSans-Bold-c" d="M 513 -844 
Q 913 -100 1113 609 
Q 1313 1319 1313 2009 
Q 1313 2700 1113 3408 
Q 913 4116 513 4856 
L 1441 4856 
Q 1916 4091 2145 3389 
Q 2375 2688 2375 2003 
Q 2375 1319 2147 623 
Q 1919 -72 1441 -844 
L 513 -844 
z
" transform="scale(0.015625)"/>
      <path id="NotoNaskhArabic-Bold-3" d="M 774 58 
Q 742 717 710 1216 
Q 678 1715 646 2134 
Q 614 2554 576 2950 
Q 538 3347 493 3808 
Q 474 3968 566 4089 
Q 659 4211 822 4281 
Q 986 4352 1178 4352 
Q 1229 4154 1296 3955 
Q 1363 3757 1440 3565 
L 1216 3398 
Q 1229 2867 1222 2035 
Q 1216 1203 1184 109 
L 774 58 
z
" transform="scale(0.015625)"/>
      <path id="NotoNaskhArabic-Bold-1c1" d="M 0 58 
Q -51 58 -51 109 
L -51 762 
Q -51 813 0 813 
Q 282 813 672 960 
Q 646 1146 624 1334 
Q 602 1523 570 1709 
Q 544 1894 441 2448 
Q 339 3002 173 3930 
Q 339 4045 534 4147 
Q 730 4250 934 4352 
Q 947 3827 960 3356 
Q 973 2886 986 2477 
Q 998 2067 1004 1718 
Q 1011 1370 1011 1069 
Q 1011 634 762 256 
Q 698 166 490 112 
Q 282 58 0 58 
z
" transform="scale(0.015625)"/>
      <path id="NotoNaskhArabic-Bold-f9" d="M 1472 0 
Q 1165 0 736 205 
Q 608 141 406 99 
Q 205 58 0 58 
Q -51 58 -51 109 
L -51 762 
Q -51 813 0 813 
Q 294 813 441 851 
Q 589 890 678 979 
Q 749 1050 813 1149 
Q 877 1248 998 1466 
Q 1037 1536 1110 1581 
Q 1184 1626 1267 1626 
Q 1357 1626 1466 1555 
Q 1382 1363 1308 1171 
Q 1235 979 1158 781 
Q 1331 762 1504 762 
Q 1632 762 1709 771 
Q 1786 781 1965 832 
Q 2016 909 2096 1107 
Q 2176 1306 2317 1696 
Q 2349 1779 2432 1833 
Q 2515 1888 2630 1888 
Q 2765 1888 2854 1818 
Q 2816 1722 2736 1472 
Q 2656 1222 2509 742 
Q 2554 742 2595 742 
Q 2637 742 2682 736 
Q 2912 736 3142 806 
Q 3162 838 3194 915 
Q 3226 992 3283 1146 
Q 3322 1254 3379 1401 
Q 3437 1549 3507 1747 
Q 3546 1837 3632 1891 
Q 3718 1946 3827 1946 
Q 3942 1946 4045 1875 
Q 4006 1773 3942 1581 
Q 3878 1389 3750 986 
Q 4038 813 4518 813 
Q 4570 813 4570 762 
L 4570 109 
Q 4570 58 4518 58 
Q 4262 58 3993 170 
Q 3725 282 3578 442 
Q 3526 301 3468 201 
Q 3411 102 3226 51 
Q 3034 0 2758 0 
Q 2566 0 2240 141 
Q 2150 77 1923 38 
Q 1696 0 1472 0 
z
" transform="scale(0.015625)"/>
      <path id="NotoNaskhArabic-Bold-8b" d="M 0 58 
Q -51 58 -51 109 
L -51 762 
Q -51 813 0 813 
Q 467 813 793 829 
Q 1120 845 1427 934 
Q 1702 1018 1897 1069 
Q 2093 1120 2202 1146 
Q 2118 1197 2032 1251 
Q 1946 1306 1856 1363 
Q 1651 1498 1513 1555 
Q 1376 1613 1235 1613 
Q 1043 1613 870 1558 
Q 698 1504 480 1363 
Q 422 1421 377 1533 
Q 333 1645 333 1747 
Q 333 2029 582 2205 
Q 832 2381 1210 2381 
Q 1414 2381 1603 2310 
Q 1792 2240 2029 2080 
Q 2317 1882 2560 1763 
Q 2803 1645 3136 1555 
Q 3302 1517 3500 1494 
Q 3699 1472 3936 1472 
L 3654 934 
Q 3578 941 3501 941 
Q 3424 941 3347 947 
Q 3411 890 3488 867 
Q 3565 845 3661 832 
Q 3808 826 3965 822 
Q 4122 819 4262 813 
Q 4314 813 4314 762 
L 4314 109 
Q 4314 58 4262 58 
Q 4032 58 3782 80 
Q 3533 102 3325 150 
Q 3117 198 3021 262 
Q 2893 358 2838 537 
Q 2784 717 2746 877 
Q 2624 851 2525 803 
Q 2426 755 2304 675 
Q 2182 595 1990 467 
Q 1683 262 1395 176 
Q 1107 90 774 74 
Q 442 58 0 58 
z
" transform="scale(0.015625)"/>
      <path id="NotoNaskhArabic-Bold-4" d="M 1901 58 
Q 1517 58 1283 186 
Q 1050 314 938 528 
Q 826 742 794 1018 
Q 781 1139 749 1424 
Q 717 1709 681 2073 
Q 646 2438 608 2809 
Q 570 3181 538 3481 
Q 506 3782 486 3930 
Q 845 4166 1248 4352 
Q 1274 3635 1296 2918 
Q 1318 2202 1338 1478 
L 1363 979 
Q 1478 883 1606 848 
Q 1734 813 1914 813 
Q 1952 813 1952 762 
L 1952 109 
Q 1952 58 1901 58 
z
" transform="scale(0.015625)"/>
      <path id="NotoNaskhArabic-Bold-26" d="M 0 58 
Q -51 58 -51 109 
L -51 762 
Q -51 813 0 813 
Q 320 813 640 867 
Q 960 922 1139 998 
Q 1075 1146 976 1328 
Q 877 1510 819 1613 
Q 755 1734 710 1833 
Q 666 1933 666 2016 
Q 666 2176 838 2361 
Q 1011 2547 1248 2669 
Q 1293 2470 1347 2217 
Q 1402 1965 1446 1702 
Q 1485 1504 1501 1376 
Q 1517 1248 1517 1184 
Q 1517 1037 1443 822 
Q 1370 608 1267 410 
Q 685 58 0 58 
z
M 916 -1427 
Q 743 -1286 621 -1171 
Q 500 -1056 416 -966 
Q 544 -838 666 -713 
Q 788 -589 903 -454 
Q 1069 -646 1364 -915 
Q 1293 -1017 1178 -1148 
Q 1063 -1280 916 -1427 
z
" transform="scale(0.015625)"/>
      <path id="NotoNaskhArabic-Bold-215" d="M 3302 58 
Q 2912 58 2675 182 
Q 2438 307 2393 531 
L 2336 768 
L 2080 243 
Q 1881 262 1711 288 
Q 1542 314 1395 365 
Q 1235 422 1075 518 
Q 915 614 806 716 
Q 697 819 697 890 
Q 697 941 738 1078 
Q 780 1216 838 1369 
Q 896 1523 940 1600 
Q 998 1728 1184 1882 
Q 1363 2042 1593 2192 
Q 1824 2342 1984 2413 
L 1952 2669 
Q 2118 2797 2223 2873 
Q 2329 2950 2418 3011 
Q 2508 3072 2617 3136 
L 2617 986 
Q 2924 813 3302 813 
Q 3353 813 3353 762 
L 3353 109 
Q 3353 58 3302 58 
z
M 2272 1005 
Q 2233 1158 2188 1366 
Q 2144 1574 2086 1837 
Q 1491 1638 1152 1318 
Q 1356 1178 1542 1123 
Q 1728 1069 1894 1043 
Q 2067 1011 2272 1005 
z
M 2138 3257 
Q 2003 3366 1894 3462 
Q 1786 3558 1696 3654 
Q 1933 3872 2125 4102 
Q 2182 4038 2284 3942 
Q 2387 3846 2528 3705 
Q 2355 3469 2138 3257 
z
M 1280 3161 
Q 1005 3385 838 3565 
Q 947 3673 1056 3785 
Q 1165 3897 1274 4006 
Q 1389 3872 1670 3609 
Q 1510 3379 1280 3161 
z
" transform="scale(0.015625)"/>
      <path id="NotoNaskhArabic-Bold-1e4" d="M 2016 0 
Q 1606 0 1257 73 
Q 909 147 685 269 
Q 506 147 346 102 
Q 186 58 0 58 
Q -51 58 -51 109 
L -51 762 
Q -51 813 0 813 
Q 160 813 333 858 
Q 333 870 336 886 
Q 339 902 339 922 
Q 384 1261 573 1597 
Q 762 1933 1018 2131 
Q 1286 2342 1568 2342 
Q 1696 2342 1811 2176 
Q 1862 2093 1929 1942 
Q 1997 1792 2074 1581 
Q 2227 1133 2394 960 
Q 2528 813 2682 813 
Q 2752 813 2752 755 
L 2752 128 
Q 2752 58 2682 58 
Q 2362 58 2106 301 
L 2016 0 
z
M 1818 710 
Q 1606 1133 1549 1664 
Q 979 1440 698 1082 
Q 877 941 1155 851 
Q 1434 762 1818 710 
z
" transform="scale(0.015625)"/>
      <path id="NotoNaskhArabic-Bold-37" d="M 0 58 
Q -51 58 -51 109 
L -51 762 
Q -51 813 0 813 
Q 307 813 566 829 
Q 826 845 992 928 
Q 1120 992 1187 1104 
Q 1254 1216 1357 1421 
Q 1459 1632 1536 1680 
Q 1613 1728 1715 1728 
Q 1869 1728 1971 1638 
Q 1888 1427 1814 1264 
Q 1741 1101 1690 979 
Q 2003 813 2362 813 
Q 2413 813 2413 762 
L 2413 109 
Q 2413 58 2362 58 
Q 1875 58 1434 499 
L 1382 416 
Q 1203 179 883 118 
Q 563 58 0 58 
z
M 1664 2252 
Q 1529 2361 1420 2457 
Q 1312 2553 1222 2649 
Q 1459 2867 1651 3097 
Q 1708 3033 1810 2937 
Q 1913 2841 2054 2700 
Q 1881 2464 1664 2252 
z
M 806 2156 
Q 531 2380 364 2560 
Q 473 2668 582 2780 
Q 691 2892 800 3001 
Q 915 2867 1196 2604 
Q 1036 2374 806 2156 
z
" transform="scale(0.015625)"/>
      <path id="NotoNaskhArabic-Bold-169" d="M 6 58 
Q -51 58 -51 115 
L -51 755 
Q -51 813 6 813 
Q 115 813 227 816 
Q 339 819 454 819 
Q 358 973 358 1114 
Q 358 1197 374 1337 
Q 390 1478 419 1606 
Q 448 1734 474 1786 
Q 595 2003 771 2179 
Q 947 2355 1152 2457 
Q 1357 2560 1549 2560 
Q 1722 2560 1898 2368 
Q 2074 2176 2182 1875 
Q 2291 1568 2291 1306 
Q 2291 1056 2150 819 
Q 2285 819 2422 816 
Q 2560 813 2694 813 
Q 2746 813 2746 762 
L 2746 109 
Q 2746 58 2694 58 
Q 1882 58 1325 269 
Q 1030 147 716 102 
Q 403 58 6 58 
z
M 1299 794 
Q 1690 902 1933 1107 
Q 1888 1280 1795 1446 
Q 1702 1613 1613 1696 
Q 1549 1773 1478 1773 
Q 1146 1773 704 1178 
Q 819 1043 979 944 
Q 1139 845 1299 794 
z
M 1888 3052 
Q 1753 3161 1644 3257 
Q 1536 3353 1446 3449 
Q 1683 3667 1875 3897 
Q 1932 3833 2034 3737 
Q 2137 3641 2278 3500 
Q 2105 3264 1888 3052 
z
M 1030 2956 
Q 755 3180 588 3360 
Q 697 3468 806 3580 
Q 915 3692 1024 3801 
Q 1139 3667 1420 3404 
Q 1260 3174 1030 2956 
z
" transform="scale(0.015625)"/>
      <path id="NotoNaskhArabic-Bold-25" d="M 0 58 
Q -51 58 -51 109 
L -51 762 
Q -51 813 0 813 
Q 416 813 627 966 
Q 710 1024 774 1145 
Q 838 1267 922 1427 
Q 1024 1632 1101 1680 
Q 1178 1728 1280 1728 
Q 1427 1728 1536 1638 
Q 1466 1478 1392 1312 
Q 1318 1146 1248 979 
Q 1562 813 1926 813 
Q 1978 813 1978 762 
L 1978 109 
Q 1978 58 1926 58 
Q 1440 58 998 499 
Q 960 435 925 384 
Q 890 333 858 288 
Q 774 192 550 125 
Q 326 58 0 58 
z
M 1088 -1427 
Q 915 -1286 793 -1171 
Q 672 -1056 588 -966 
Q 716 -838 838 -713 
Q 960 -589 1075 -454 
Q 1241 -646 1536 -915 
Q 1465 -1017 1350 -1148 
Q 1235 -1280 1088 -1427 
z
" transform="scale(0.015625)"/>
      <path id="NotoNaskhArabic-Bold-1bf" d="M 0 58 
Q -51 58 -51 109 
L -51 762 
Q -51 813 0 813 
Q 154 813 304 845 
Q 454 877 595 934 
Q 454 1830 307 3059 
Q 282 3264 259 3481 
Q 237 3699 211 3930 
Q 384 4058 576 4160 
Q 768 4262 973 4352 
Q 966 4115 956 3696 
Q 947 3277 937 2768 
Q 928 2259 922 1734 
L 922 992 
Q 1190 813 1619 813 
Q 1677 813 1677 762 
L 1677 109 
Q 1677 58 1619 58 
Q 1088 58 832 282 
Q 691 192 470 125 
Q 250 58 0 58 
z
" transform="scale(0.015625)"/>
      <path id="NotoNaskhArabic-Bold-240" d="M 0 58 
Q -51 58 -51 109 
L -51 762 
Q -51 813 0 813 
Q 307 813 566 829 
Q 826 845 992 928 
Q 1120 992 1187 1104 
Q 1254 1216 1357 1421 
Q 1459 1632 1536 1680 
Q 1613 1728 1715 1728 
Q 1869 1728 1971 1638 
Q 1888 1427 1814 1264 
Q 1741 1101 1690 979 
Q 2003 813 2362 813 
Q 2413 813 2413 762 
L 2413 109 
Q 2413 58 2362 58 
Q 1875 58 1434 499 
L 1382 416 
Q 1203 179 883 118 
Q 563 58 0 58 
z
M 1651 -1235 
Q 1376 -1011 1209 -832 
Q 1414 -653 1638 -384 
Q 1657 -403 1756 -502 
Q 1856 -602 2035 -787 
Q 1971 -883 1875 -995 
Q 1779 -1107 1651 -1235 
z
M 793 -1331 
Q 633 -1203 527 -1100 
Q 422 -998 352 -922 
Q 460 -813 569 -701 
Q 678 -589 787 -480 
Q 864 -576 1184 -877 
Q 1030 -1107 793 -1331 
z
" transform="scale(0.015625)"/>
     </defs>
     <use xlink:href="#NotoNaskhArabic-Bold-554"/>
     <use xlink:href="#DejaVuSans-Bold-b"/>
     <use xlink:href="#DejaVuSans-Bold-2e" transform="translate(45.703125 0)"/>
     <use xlink:href="#DejaVuSans-Bold-58" transform="translate(121.4375 0)"/>
     <use xlink:href="#DejaVuSans-Bold-50" transform="translate(192.625 0)"/>
     <use xlink:href="#DejaVuSans-Bold-52" transform="translate(296.828125 0)"/>
     <use xlink:href="#DejaVuSans-Bold-c" transform="translate(365.53125 0)"/>
     <use xlink:href="#NotoNaskhArabic-Bold-554" transform="translate(411.234375 0)"/>
     <use xlink:href="#NotoNaskhArabic-Bold-3" transform="translate(433.328125 0)"/>
     <use xlink:href="#NotoNaskhArabic-Bold-1c1" transform="translate(461.734375 0)"/>
     <use xlink:href="#NotoNaskhArabic-Bold-f9" transform="translate(483.4375 0)"/>
     <use xlink:href="#NotoNaskhArabic-Bold-8b" transform="translate(553.140625 0)"/>
     <use xlink:href="#NotoNaskhArabic-Bold-4" transform="translate(618.84375 0)"/>
     <use xlink:href="#NotoNaskhArabic-Bold-26" transform="translate(647.640625 0)"/>
     <use xlink:href="#NotoNaskhArabic-Bold-215" transform="translate(675.140625 0)"/>
     <use xlink:href="#NotoNaskhArabic-Bold-554" transform="translate(725.84375 0)"/>
     <use xlink:href="#NotoNaskhArabic-Bold-3" transform="translate(747.9375 0)"/>
     <use xlink:href="#NotoNaskhArabic-Bold-1c1" transform="translate(776.34375 0)"/>
     <use xlink:href="#NotoNaskhArabic-Bold-1e4" transform="translate(798.046875 0)"/>
     <use xlink:href="#NotoNaskhArabic-Bold-f9" transform="translate(839.34375 0)"/>
     <use xlink:href="#NotoNaskhArabic-Bold-37" transform="translate(909.046875 0)"/>
     <use xlink:href="#NotoNaskhArabic-Bold-169" transform="translate(945.046875 0)"/>
     <use xlink:href="#NotoNaskhArabic-Bold-25" transform="translate(986.25 0)"/>
     <use xlink:href="#NotoNaskhArabic-Bold-1bf" transform="translate(1015.453125 0)"/>
     <use xlink:href="#NotoNaskhArabic-Bold-240" transform="translate(1039.953125 0)"/>
     <use xlink:href="#NotoNaskhArabic-Bold-215" transform="translate(1075.953125 0)"/>
    </g>
   </g>
   <g id="patch_5">
    <path d="M 15.46325 279.610225 
L 20.972084 279.610225 
L 20.972084 274.527312 
L 15.46325 274.527312 
z
" clip-path="url(#pba7ebb6bcb)" style="fill: #b91c1c; stroke: #b91c1c; stroke-linejoin: miter"/>
   </g>
   <g id="patch_6">
    <path d="M 26.480917 279.363349 
L 31.989751 279.363349 
L 31.989751 274.280436 
L 26.480917 274.280436 
z
" clip-path="url(#pba7ebb6bcb)" style="fill: #b91c1c; stroke: #b91c1c; stroke-linejoin: miter"/>
   </g>
   <g id="patch_7">
    <path d="M 37.498584 280.444848 
L 43.007418 280.444848 
L 43.007418 271.038197 
L 37.498584 271.038197 
z
" clip-path="url(#pba7ebb6bcb)" style="fill: #1f8a56; stroke: #1f8a56; stroke-linejoin: miter"/>
   </g>
   <g id="patch_8">
    <path d="M 48.516251 270.266221 
L 54.025085 270.266221 
L 54.025085 264.863688 
L 48.516251 264.863688 
z
" clip-path="url(#pba7ebb6bcb)" style="fill: #1f8a56; stroke: #1f8a56; stroke-linejoin: miter"/>
   </g>
   <g id="patch_9">
    <path d="M 59.533918 270.593984 
L 65.042752 270.593984 
L 65.042752 253.339256 
L 59.533918 253.339256 
z
" clip-path="url(#pba7ebb6bcb)" style="fill: #1f8a56; stroke: #1f8a56; stroke-linejoin: miter"/>
   </g>
   <g id="patch_10">
    <path d="M 70.551585 256.505272 
L 76.060419 256.505272 
L 76.060419 251.422358 
L 70.551585 251.422358 
z
" clip-path="url(#pba7ebb6bcb)" style="fill: #b91c1c; stroke: #b91c1c; stroke-linejoin: miter"/>
   </g>
   <g id="patch_11">
    <path d="M 81.569252 254.024037 
L 87.078086 254.024037 
L 87.078086 248.175755 
L 81.569252 248.175755 
z
" clip-path="url(#pba7ebb6bcb)" style="fill: #1f8a56; stroke: #1f8a56; stroke-linejoin: miter"/>
   </g>
   <g id="patch_12">
    <path d="M 92.586919 244.751448 
L 98.095753 244.751448 
L 98.095753 239.668535 
L 92.586919 239.668535 
z
" clip-path="url(#pba7ebb6bcb)" style="fill: #1f8a56; stroke: #1f8a56; stroke-linejoin: miter"/>
   </g>
   <g id="patch_13">
    <path d="M 103.604586 244.246943 
L 109.11342 244.246943 
L 109.11342 239.164029 
L 103.604586 239.164029 
z
" clip-path="url(#pba7ebb6bcb)" style="fill: #1f8a56; stroke: #1f8a56; stroke-linejoin: miter"/>
   </g>
   <g id="patch_14">
    <path d="M 114.622253 244.888947 
L 120.131086 244.888947 
L 120.131086 239.806034 
L 114.622253 239.806034 
z
" clip-path="url(#pba7ebb6bcb)" style="fill: #b91c1c; stroke: #b91c1c; stroke-linejoin: miter"/>
   </g>
   <g id="patch_15">
    <path d="M 125.63992 243.846133 
L 131.148753 243.846133 
L 131.148753 227.715717 
L 125.63992 227.715717 
z
" clip-path="url(#pba7ebb6bcb)" style="fill: #1f8a56; stroke: #1f8a56; stroke-linejoin: miter"/>
   </g>
   <g id="patch_16">
    <path d="M 136.657587 226.986522 
L 142.16642 226.986522 
L 142.16642 220.475506 
L 136.657587 220.475506 
z
" clip-path="url(#pba7ebb6bcb)" style="fill: #1f8a56; stroke: #1f8a56; stroke-linejoin: miter"/>
   </g>
   <g id="patch_17">
    <path d="M 147.675254 231.922828 
L 153.184087 231.922828 
L 153.184087 218.153776 
L 147.675254 218.153776 
z
" clip-path="url(#pba7ebb6bcb)" style="fill: #b91c1c; stroke: #b91c1c; stroke-linejoin: miter"/>
   </g>
   <g id="patch_18">
    <path d="M 158.692921 234.78205 
L 164.201754 234.78205 
L 164.201754 228.463965 
L 158.692921 228.463965 
z
" clip-path="url(#pba7ebb6bcb)" style="fill: #b91c1c; stroke: #b91c1c; stroke-linejoin: miter"/>
   </g>
   <g id="patch_19">
    <path d="M 169.710588 238.156204 
L 175.219421 238.156204 
L 175.219421 232.870827 
L 169.710588 232.870827 
z
" clip-path="url(#pba7ebb6bcb)" style="fill: #1f8a56; stroke: #1f8a56; stroke-linejoin: miter"/>
   </g>
   <g id="patch_20">
    <path d="M 180.728255 232.333509 
L 186.237088 232.333509 
L 186.237088 217.507615 
L 180.728255 217.507615 
z
" clip-path="url(#pba7ebb6bcb)" style="fill: #1f8a56; stroke: #1f8a56; stroke-linejoin: miter"/>
   </g>
   <g id="patch_21">
    <path d="M 191.745922 220.380343 
L 197.254755 220.380343 
L 197.254755 206.333556 
L 191.745922 206.333556 
z
" clip-path="url(#pba7ebb6bcb)" style="fill: #1f8a56; stroke: #1f8a56; stroke-linejoin: miter"/>
   </g>
   <g id="patch_22">
    <path d="M 202.763589 207.952877 
L 208.272422 207.952877 
L 208.272422 198.254068 
L 202.763589 198.254068 
z
" clip-path="url(#pba7ebb6bcb)" style="fill: #1f8a56; stroke: #1f8a56; stroke-linejoin: miter"/>
   </g>
   <g id="patch_23">
    <path d="M 213.781256 194.347911 
L 219.290089 194.347911 
L 219.290089 186.287758 
L 213.781256 186.287758 
z
" clip-path="url(#pba7ebb6bcb)" style="fill: #1f8a56; stroke: #1f8a56; stroke-linejoin: miter"/>
   </g>
   <g id="patch_24">
    <path d="M 224.798923 184.737415 
L 230.307756 184.737415 
L 230.307756 179.654502 
L 224.798923 179.654502 
z
" clip-path="url(#pba7ebb6bcb)" style="fill: #1f8a56; stroke: #1f8a56; stroke-linejoin: miter"/>
   </g>
   <g id="patch_25">
    <path d="M 235.81659 193.470715 
L 241.325423 193.470715 
L 241.325423 178.925612 
L 235.81659 178.925612 
z
" clip-path="url(#pba7ebb6bcb)" style="fill: #b91c1c; stroke: #b91c1c; stroke-linejoin: miter"/>
   </g>
   <g id="patch_26">
    <path d="M 246.834257 196.428428 
L 252.34309 196.428428 
L 252.34309 185.062085 
L 246.834257 185.062085 
z
" clip-path="url(#pba7ebb6bcb)" style="fill: #1f8a56; stroke: #1f8a56; stroke-linejoin: miter"/>
   </g>
   <g id="patch_27">
    <path d="M 257.851924 188.07941 
L 263.360757 188.07941 
L 263.360757 172.662205 
L 257.851924 172.662205 
z
" clip-path="url(#pba7ebb6bcb)" style="fill: #1f8a56; stroke: #1f8a56; stroke-linejoin: miter"/>
   </g>
   <g id="patch_28">
    <path d="M 268.869591 173.297823 
L 274.378424 173.297823 
L 274.378424 167.812316 
L 268.869591 167.812316 
z
" clip-path="url(#pba7ebb6bcb)" style="fill: #1f8a56; stroke: #1f8a56; stroke-linejoin: miter"/>
   </g>
   <g id="patch_29">
    <path d="M 279.887258 169.250823 
L 285.396091 169.250823 
L 285.396091 164.167909 
L 279.887258 164.167909 
z
" clip-path="url(#pba7ebb6bcb)" style="fill: #b91c1c; stroke: #b91c1c; stroke-linejoin: miter"/>
   </g>
   <g id="patch_30">
    <path d="M 290.904925 174.927008 
L 296.413758 174.927008 
L 296.413758 169.844094 
L 290.904925 169.844094 
z
" clip-path="url(#pba7ebb6bcb)" style="fill: #1f8a56; stroke: #1f8a56; stroke-linejoin: miter"/>
   </g>
   <g id="patch_31">
    <path d="M 301.922592 170.772769 
L 307.431425 170.772769 
L 307.431425 165.689856 
L 301.922592 165.689856 
z
" clip-path="url(#pba7ebb6bcb)" style="fill: #b91c1c; stroke: #b91c1c; stroke-linejoin: miter"/>
   </g>
   <g id="patch_32">
    <path d="M 312.940259 181.177122 
L 318.449092 181.177122 
L 318.449092 170.51609 
L 312.940259 170.51609 
z
" clip-path="url(#pba7ebb6bcb)" style="fill: #b91c1c; stroke: #b91c1c; stroke-linejoin: miter"/>
   </g>
   <g id="patch_33">
    <path d="M 323.957925 177.917672 
L 329.466759 177.917672 
L 329.466759 172.834759 
L 323.957925 172.834759 
z
" clip-path="url(#pba7ebb6bcb)" style="fill: #1f8a56; stroke: #1f8a56; stroke-linejoin: miter"/>
   </g>
   <g id="patch_34">
    <path d="M 334.975592 176.269525 
L 340.484426 176.269525 
L 340.484426 159.975995 
L 334.975592 159.975995 
z
" clip-path="url(#pba7ebb6bcb)" style="fill: #1f8a56; stroke: #1f8a56; stroke-linejoin: miter"/>
   </g>
   <g id="patch_35">
    <path d="M 345.993259 162.870315 
L 351.502093 162.870315 
L 351.502093 154.43482 
L 345.993259 154.43482 
z
" clip-path="url(#pba7ebb6bcb)" style="fill: #1f8a56; stroke: #1f8a56; stroke-linejoin: miter"/>
   </g>
   <g id="patch_36">
    <path d="M 357.010926 154.183125 
L 362.51976 154.183125 
L 362.51976 149.100212 
L 357.010926 149.100212 
z
" clip-path="url(#pba7ebb6bcb)" style="fill: #1f8a56; stroke: #1f8a56; stroke-linejoin: miter"/>
   </g>
   <g id="patch_37">
    <path d="M 368.028593 171.42414 
L 373.537427 171.42414 
L 373.537427 156.2489 
L 368.028593 156.2489 
z
" clip-path="url(#pba7ebb6bcb)" style="fill: #b91c1c; stroke: #b91c1c; stroke-linejoin: miter"/>
   </g>
   <g id="patch_38">
    <path d="M 379.04626 169.996479 
L 384.555094 169.996479 
L 384.555094 164.913566 
L 379.04626 164.913566 
z
" clip-path="url(#pba7ebb6bcb)" style="fill: #b91c1c; stroke: #b91c1c; stroke-linejoin: miter"/>
   </g>
   <g id="patch_39">
    <path d="M 390.063927 172.23903 
L 395.572761 172.23903 
L 395.572761 162.341114 
L 390.063927 162.341114 
z
" clip-path="url(#pba7ebb6bcb)" style="fill: #1f8a56; stroke: #1f8a56; stroke-linejoin: miter"/>
   </g>
   <g id="patch_40">
    <path d="M 401.081594 173.216401 
L 406.590428 173.216401 
L 406.590428 163.339745 
L 401.081594 163.339745 
z
" clip-path="url(#pba7ebb6bcb)" style="fill: #b91c1c; stroke: #b91c1c; stroke-linejoin: miter"/>
   </g>
   <g id="patch_41">
    <path d="M 412.099261 180.752683 
L 417.608095 180.752683 
L 417.608095 175.669769 
L 412.099261 175.669769 
z
" clip-path="url(#pba7ebb6bcb)" style="fill: #b91c1c; stroke: #b91c1c; stroke-linejoin: miter"/>
   </g>
   <g id="patch_42">
    <path d="M 423.116928 181.841642 
L 428.625762 181.841642 
L 428.625762 174.937789 
L 423.116928 174.937789 
z
" clip-path="url(#pba7ebb6bcb)" style="fill: #b91c1c; stroke: #b91c1c; stroke-linejoin: miter"/>
   </g>
   <g id="patch_43">
    <path d="M 434.134595 177.694462 
L 439.643429 177.694462 
L 439.643429 169.318446 
L 434.134595 169.318446 
z
" clip-path="url(#pba7ebb6bcb)" style="fill: #1f8a56; stroke: #1f8a56; stroke-linejoin: miter"/>
   </g>
   <g id="patch_44">
    <path d="M 445.152262 182.084461 
L 450.661096 182.084461 
L 450.661096 174.73701 
L 445.152262 174.73701 
z
" clip-path="url(#pba7ebb6bcb)" style="fill: #b91c1c; stroke: #b91c1c; stroke-linejoin: miter"/>
   </g>
   <g id="patch_45">
    <path d="M 456.169929 185.52638 
L 461.678763 185.52638 
L 461.678763 180.443466 
L 456.169929 180.443466 
z
" clip-path="url(#pba7ebb6bcb)" style="fill: #1f8a56; stroke: #1f8a56; stroke-linejoin: miter"/>
   </g>
   <g id="patch_46">
    <path d="M 467.187596 189.928068 
L 472.69643 189.928068 
L 472.69643 180.668995 
L 467.187596 180.668995 
z
" clip-path="url(#pba7ebb6bcb)" style="fill: #b91c1c; stroke: #b91c1c; stroke-linejoin: miter"/>
   </g>
   <g id="patch_47">
    <path d="M 478.205263 190.880623 
L 483.714097 190.880623 
L 483.714097 176.490226 
L 478.205263 176.490226 
z
" clip-path="url(#pba7ebb6bcb)" style="fill: #1f8a56; stroke: #1f8a56; stroke-linejoin: miter"/>
   </g>
   <g id="patch_48">
    <path d="M 489.22293 180.134448 
L 494.731764 180.134448 
L 494.731764 153.713015 
L 489.22293 153.713015 
z
" clip-path="url(#pba7ebb6bcb)" style="fill: #1f8a56; stroke: #1f8a56; stroke-linejoin: miter"/>
   </g>
   <g id="patch_49">
    <path d="M 500.240597 150.441558 
L 505.749431 150.441558 
L 505.749431 145.358645 
L 500.240597 145.358645 
z
" clip-path="url(#pba7ebb6bcb)" style="fill: #1f8a56; stroke: #1f8a56; stroke-linejoin: miter"/>
   </g>
   <g id="patch_50">
    <path d="M 511.258264 147.186211 
L 516.767098 147.186211 
L 516.767098 141.179151 
L 511.258264 141.179151 
z
" clip-path="url(#pba7ebb6bcb)" style="fill: #1f8a56; stroke: #1f8a56; stroke-linejoin: miter"/>
   </g>
   <g id="patch_51">
    <path d="M 522.275931 144.558477 
L 527.784764 144.558477 
L 527.784764 137.595044 
L 522.275931 137.595044 
z
" clip-path="url(#pba7ebb6bcb)" style="fill: #1f8a56; stroke: #1f8a56; stroke-linejoin: miter"/>
   </g>
   <g id="patch_52">
    <path d="M 533.293598 138.55438 
L 538.802431 138.55438 
L 538.802431 118.059378 
L 533.293598 118.059378 
z
" clip-path="url(#pba7ebb6bcb)" style="fill: #1f8a56; stroke: #1f8a56; stroke-linejoin: miter"/>
   </g>
   <g id="patch_53">
    <path d="M 544.311265 117.436145 
L 549.820098 117.436145 
L 549.820098 112.353232 
L 544.311265 112.353232 
z
" clip-path="url(#pba7ebb6bcb)" style="fill: #1f8a56; stroke: #1f8a56; stroke-linejoin: miter"/>
   </g>
   <g id="patch_54">
    <path d="M 555.328932 120.694672 
L 560.837765 120.694672 
L 560.837765 114.657688 
L 555.328932 114.657688 
z
" clip-path="url(#pba7ebb6bcb)" style="fill: #1f8a56; stroke: #1f8a56; stroke-linejoin: miter"/>
   </g>
   <g id="legend_1">
    <g id="line2d_71">
     <path d="M 14.85 25.695871 
L 23.35 25.695871 
L 31.85 25.695871 
" style="fill: none; stroke: #b91c1c; stroke-width: 1.4; stroke-linecap: square"/>
    </g>
    <g id="text_13">
     <!-- ​(Tenkan) ﻞﻳﻮﺤﺘﻟﺍ ﻂﺧ -->
     <g style="fill: #1f2937" transform="translate(38.65 28.670871) scale(0.085 -0.085)">
      <defs>
       <path id="DejaVuSans-b" d="M 1984 4856 
Q 1566 4138 1362 3434 
Q 1159 2731 1159 2009 
Q 1159 1288 1364 580 
Q 1569 -128 1984 -844 
L 1484 -844 
Q 1016 -109 783 600 
Q 550 1309 550 2009 
Q 550 2706 781 3412 
Q 1013 4119 1484 4856 
L 1984 4856 
z
" transform="scale(0.015625)"/>
       <path id="DejaVuSans-37" d="M -19 4666 
L 3928 4666 
L 3928 4134 
L 2272 4134 
L 2272 0 
L 1638 0 
L 1638 4134 
L -19 4134 
L -19 4666 
z
" transform="scale(0.015625)"/>
       <path id="DejaVuSans-48" d="M 3597 1894 
L 3597 1613 
L 953 1613 
Q 991 1019 1311 708 
Q 1631 397 2203 397 
Q 2534 397 2845 478 
Q 3156 559 3463 722 
L 3463 178 
Q 3153 47 2828 -22 
Q 2503 -91 2169 -91 
Q 1331 -91 842 396 
Q 353 884 353 1716 
Q 353 2575 817 3079 
Q 1281 3584 2069 3584 
Q 2775 3584 3186 3129 
Q 3597 2675 3597 1894 
z
M 3022 2063 
Q 3016 2534 2758 2815 
Q 2500 3097 2075 3097 
Q 1594 3097 1305 2825 
Q 1016 2553 972 2059 
L 3022 2063 
z
" transform="scale(0.015625)"/>
       <path id="DejaVuSans-51" d="M 3513 2113 
L 3513 0 
L 2938 0 
L 2938 2094 
Q 2938 2591 2744 2837 
Q 2550 3084 2163 3084 
Q 1697 3084 1428 2787 
Q 1159 2491 1159 1978 
L 1159 0 
L 581 0 
L 581 3500 
L 1159 3500 
L 1159 2956 
Q 1366 3272 1645 3428 
Q 1925 3584 2291 3584 
Q 2894 3584 3203 3211 
Q 3513 2838 3513 2113 
z
" transform="scale(0.015625)"/>
       <path id="DejaVuSans-4e" d="M 581 4863 
L 1159 4863 
L 1159 1991 
L 2875 3500 
L 3609 3500 
L 1753 1863 
L 3688 0 
L 2938 0 
L 1159 1709 
L 1159 0 
L 581 0 
L 581 4863 
z
" transform="scale(0.015625)"/>
       <path id="DejaVuSans-44" d="M 2194 1759 
Q 1497 1759 1228 1600 
Q 959 1441 959 1056 
Q 959 750 1161 570 
Q 1363 391 1709 391 
Q 2188 391 2477 730 
Q 2766 1069 2766 1631 
L 2766 1759 
L 2194 1759 
z
M 3341 1997 
L 3341 0 
L 2766 0 
L 2766 531 
Q 2569 213 2275 61 
Q 1981 -91 1556 -91 
Q 1019 -91 701 211 
Q 384 513 384 1019 
Q 384 1609 779 1909 
Q 1175 2209 1959 2209 
L 2766 2209 
L 2766 2266 
Q 2766 2663 2505 2880 
Q 2244 3097 1772 3097 
Q 1472 3097 1187 3025 
Q 903 2953 641 2809 
L 641 3341 
Q 956 3463 1253 3523 
Q 1550 3584 1831 3584 
Q 2591 3584 2966 3190 
Q 3341 2797 3341 1997 
z
" transform="scale(0.015625)"/>
       <path id="DejaVuSans-c" d="M 513 4856 
L 1013 4856 
Q 1481 4119 1714 3412 
Q 1947 2706 1947 2009 
Q 1947 1309 1714 600 
Q 1481 -109 1013 -844 
L 513 -844 
Q 928 -128 1133 580 
Q 1338 1288 1338 2009 
Q 1338 2731 1133 3434 
Q 928 4138 513 4856 
z
" transform="scale(0.015625)"/>
       <path id="NotoNaskhArabic-Regular-a4" d="M 0 0 
Q -51 0 -51 51 
L -51 435 
Q -51 486 0 486 
Q 474 486 842 528 
Q 1210 570 1478 653 
Q 1907 800 2115 867 
Q 2323 934 2477 960 
Q 2227 1082 1984 1280 
Q 1728 1485 1565 1561 
Q 1402 1638 1235 1638 
Q 1037 1638 902 1587 
Q 768 1536 531 1389 
Q 442 1491 442 1638 
Q 442 1882 653 2029 
Q 864 2176 1210 2176 
Q 1414 2176 1622 2089 
Q 1830 2003 2106 1798 
Q 2445 1555 2678 1430 
Q 2912 1306 3149 1254 
Q 3392 1197 3853 1197 
L 3603 730 
Q 3501 742 3369 752 
Q 3238 762 3091 762 
Q 2944 762 2813 736 
Q 2682 710 2506 633 
Q 2330 557 2042 410 
Q 1805 288 1603 208 
Q 1402 128 1181 83 
Q 960 38 678 19 
Q 397 0 0 0 
z
M 1894 2688 
Q 1613 2899 1434 3104 
Q 1760 3431 1882 3571 
Q 1984 3463 2089 3357 
Q 2195 3251 2304 3155 
Q 2157 2944 1894 2688 
z
" transform="scale(0.015625)"/>
       <path id="NotoNaskhArabic-Regular-124" d="M 2534 0 
Q 2278 0 2016 13 
Q 1754 26 1546 42 
Q 1338 58 1229 77 
Q 1120 102 941 179 
Q 762 256 579 358 
Q 397 461 269 550 
L 339 774 
Q 678 704 774 681 
Q 870 659 883 653 
Q 890 653 886 653 
Q 883 653 963 640 
Q 1043 627 1306 576 
Q 1402 698 1494 813 
Q 1587 928 1677 1037 
Q 1632 1312 1587 1584 
Q 1542 1856 1491 2131 
Q 1446 2362 1401 2637 
Q 1357 2912 1325 3171 
Q 1293 3430 1274 3610 
Q 1267 3661 1267 3702 
Q 1267 3744 1267 3776 
Q 1267 3994 1360 4118 
Q 1453 4243 1690 4294 
Q 1728 4141 1779 3968 
Q 1830 3795 1914 3533 
L 1741 3386 
Q 1805 2816 1837 2505 
Q 1869 2195 1875 2131 
Q 1907 1933 1920 1734 
Q 1933 1536 1939 1331 
Q 2835 2285 3469 2285 
Q 3648 2285 3913 2137 
Q 4179 1990 4390 1760 
Q 4595 1523 4595 1350 
Q 4595 1152 4531 976 
Q 4467 800 4352 653 
Q 4646 486 5018 486 
Q 5069 486 5069 435 
L 5069 51 
Q 5069 0 5018 0 
Q 4742 0 4473 112 
Q 4205 224 4038 390 
Q 3757 211 3353 105 
Q 2950 0 2534 0 
z
M 2598 486 
Q 3430 486 4307 1037 
Q 4115 1376 3843 1561 
Q 3571 1747 3309 1747 
Q 2995 1747 2550 1427 
Q 2106 1107 1632 531 
Q 1875 506 2118 496 
Q 2362 486 2598 486 
z
" transform="scale(0.015625)"/>
       <path id="NotoNaskhArabic-Regular-37" d="M 0 0 
Q -51 0 -51 51 
L -51 435 
Q -51 486 0 486 
Q 397 486 672 521 
Q 947 557 1062 640 
Q 1133 685 1229 841 
Q 1325 998 1510 1350 
Q 1568 1459 1709 1459 
Q 1786 1459 1869 1408 
Q 1830 1312 1763 1161 
Q 1696 1011 1638 883 
Q 1581 755 1555 730 
Q 1773 595 1958 540 
Q 2144 486 2362 486 
Q 2413 486 2413 435 
L 2413 51 
Q 2413 0 2362 0 
Q 1766 0 1350 371 
L 1248 237 
Q 1203 192 1001 134 
Q 800 77 528 38 
Q 256 0 0 0 
z
M 1728 2035 
Q 1587 2144 1481 2243 
Q 1376 2342 1306 2432 
Q 1338 2464 1440 2573 
Q 1542 2682 1715 2861 
Q 1754 2822 1853 2726 
Q 1952 2630 2112 2477 
Q 1990 2285 1728 2035 
z
M 768 1946 
Q 627 2061 518 2160 
Q 410 2259 339 2336 
Q 506 2496 755 2771 
Q 794 2726 890 2630 
Q 986 2534 1146 2387 
Q 1088 2291 992 2182 
Q 896 2074 768 1946 
z
" transform="scale(0.015625)"/>
       <path id="NotoNaskhArabic-Regular-8b" d="M 0 0 
Q -51 0 -51 51 
L -51 435 
Q -51 486 0 486 
Q 602 486 1043 553 
Q 1485 621 1837 781 
Q 2253 966 2477 1011 
Q 2355 1069 2230 1142 
Q 2106 1216 1984 1306 
Q 1734 1491 1568 1564 
Q 1402 1638 1235 1638 
Q 1037 1638 902 1587 
Q 768 1536 531 1389 
Q 442 1491 442 1638 
Q 442 1882 653 2029 
Q 864 2176 1210 2176 
Q 1414 2176 1622 2096 
Q 1830 2016 2106 1824 
Q 2438 1600 2672 1481 
Q 2906 1363 3142 1312 
Q 3386 1254 3853 1254 
L 3603 781 
Q 3552 787 3440 793 
Q 3328 800 3213 813 
Q 3098 826 3021 832 
Q 3091 717 3171 646 
Q 3251 576 3379 544 
Q 3610 486 4314 486 
Q 4371 486 4371 435 
L 4371 51 
Q 4371 0 4314 0 
Q 3840 6 3549 73 
Q 3258 141 3072 288 
Q 2982 365 2896 483 
Q 2810 602 2733 762 
Q 2560 698 2387 598 
Q 2214 499 2042 410 
Q 1805 288 1603 208 
Q 1402 128 1181 83 
Q 960 38 678 19 
Q 397 0 0 0 
z
" transform="scale(0.015625)"/>
       <path id="NotoNaskhArabic-Regular-219" d="M 1235 -1299 
Q 1101 -1299 905 -1238 
Q 710 -1178 521 -1082 
Q 333 -986 218 -890 
L 307 -678 
Q 646 -800 1088 -800 
Q 1485 -800 1792 -605 
Q 2099 -410 2310 6 
Q 1997 19 1763 44 
Q 1530 70 1376 115 
Q 1037 205 902 374 
Q 768 544 768 877 
Q 768 1203 899 1523 
Q 1030 1843 1242 2035 
Q 1453 2227 1670 2227 
Q 1933 2227 2163 1990 
Q 2394 1754 2534 1338 
Q 2605 1126 2637 918 
Q 2669 710 2669 486 
L 3053 486 
Q 3104 486 3104 435 
L 3104 51 
Q 3104 0 3053 0 
L 2605 0 
Q 2509 -365 2304 -669 
Q 2099 -973 1818 -1139 
Q 1542 -1299 1235 -1299 
z
M 2413 493 
Q 2362 826 2234 1094 
Q 2106 1363 1933 1523 
Q 1760 1683 1574 1683 
Q 1440 1683 1309 1580 
Q 1178 1478 1094 1331 
Q 1011 1184 1011 1062 
Q 1011 838 1177 720 
Q 1344 602 1632 550 
Q 1779 525 1968 515 
Q 2157 506 2413 493 
z
" transform="scale(0.015625)"/>
       <path id="NotoNaskhArabic-Regular-241" d="M 0 0 
Q -51 0 -51 51 
L -51 435 
Q -51 486 0 486 
Q 314 486 618 515 
Q 922 544 1171 598 
Q 1421 653 1568 723 
Q 1536 851 1478 1027 
Q 1421 1203 1331 1427 
Q 1274 1594 1242 1699 
Q 1210 1805 1210 1856 
Q 1210 1997 1325 2144 
Q 1440 2291 1632 2394 
Q 1715 2022 1766 1782 
Q 1818 1542 1843 1369 
Q 1869 1197 1869 1005 
Q 1869 781 1651 352 
Q 1478 250 1206 170 
Q 934 90 620 45 
Q 307 0 0 0 
z
M 1581 -1165 
Q 1312 -953 1165 -774 
Q 1306 -640 1574 -345 
Q 1606 -371 1702 -467 
Q 1798 -563 1971 -729 
Q 1907 -819 1811 -928 
Q 1715 -1037 1581 -1165 
z
M 627 -1261 
Q 339 -1030 198 -870 
Q 288 -793 390 -684 
Q 493 -576 614 -435 
Q 640 -467 739 -563 
Q 838 -659 1005 -819 
Q 947 -915 851 -1024 
Q 755 -1133 627 -1261 
z
" transform="scale(0.015625)"/>
       <path id="NotoNaskhArabic-Regular-1be" d="M 1594 -1677 
Q 1050 -1677 742 -1363 
Q 435 -1050 435 -474 
Q 435 -346 444 -237 
Q 454 -128 480 9 
Q 506 147 557 358 
L 794 301 
Q 723 6 723 -154 
Q 723 -621 956 -883 
Q 1190 -1146 1606 -1146 
Q 1914 -1146 2240 -1040 
Q 2566 -934 2816 -749 
Q 3072 -563 3174 -346 
L 3008 685 
Q 2874 1504 2784 2070 
Q 2694 2637 2650 2950 
Q 2605 3270 2585 3481 
Q 2566 3693 2566 3795 
Q 2566 4013 2665 4131 
Q 2765 4250 2982 4294 
Q 3014 4154 3078 3942 
Q 3142 3731 3213 3533 
L 3066 3405 
Q 3206 2144 3283 1446 
Q 3360 749 3373 595 
Q 3578 486 3840 486 
Q 3891 486 3891 435 
L 3891 51 
Q 3891 0 3840 0 
Q 3603 0 3405 102 
L 3411 -109 
Q 3411 -499 3164 -860 
Q 2918 -1222 2483 -1446 
Q 2054 -1677 1594 -1677 
z
" transform="scale(0.015625)"/>
      </defs>
      <use xlink:href="#NotoNaskhArabic-Regular-554"/>
      <use xlink:href="#DejaVuSans-b"/>
      <use xlink:href="#DejaVuSans-37" transform="translate(39.015625 0)"/>
      <use xlink:href="#DejaVuSans-48" transform="translate(83.109375 0)"/>
      <use xlink:href="#DejaVuSans-51" transform="translate(144.640625 0)"/>
      <use xlink:href="#DejaVuSans-4e" transform="translate(208.015625 0)"/>
      <use xlink:href="#DejaVuSans-44" transform="translate(264.171875 0)"/>
      <use xlink:href="#DejaVuSans-51" transform="translate(325.453125 0)"/>
      <use xlink:href="#DejaVuSans-c" transform="translate(388.828125 0)"/>
      <use xlink:href="#NotoNaskhArabic-Regular-554" transform="translate(427.84375 0)"/>
      <use xlink:href="#NotoNaskhArabic-Regular-a4" transform="translate(449.9375 0)"/>
      <use xlink:href="#NotoNaskhArabic-Regular-124" transform="translate(513.53125 0)"/>
      <use xlink:href="#NotoNaskhArabic-Regular-554" transform="translate(591.03125 0)"/>
      <use xlink:href="#NotoNaskhArabic-Regular-3" transform="translate(613.125 0)"/>
      <use xlink:href="#NotoNaskhArabic-Regular-1c1" transform="translate(636.921875 0)"/>
      <use xlink:href="#NotoNaskhArabic-Regular-37" transform="translate(658.125 0)"/>
      <use xlink:href="#NotoNaskhArabic-Regular-8b" transform="translate(694.125 0)"/>
      <use xlink:href="#NotoNaskhArabic-Regular-219" transform="translate(760.71875 0)"/>
      <use xlink:href="#NotoNaskhArabic-Regular-241" transform="translate(807.515625 0)"/>
      <use xlink:href="#NotoNaskhArabic-Regular-1be" transform="translate(841.8125 0)"/>
     </g>
    </g>
    <g id="line2d_72">
     <path d="M 14.85 44.421371 
L 23.35 44.421371 
L 31.85 44.421371 
" style="fill: none; stroke: #1f2937; stroke-width: 1.6; stroke-linecap: square"/>
    </g>
    <g id="text_14">
     <!-- ​(Kijun) ﺱﺎﺳﻷﺍ ﻂﺧ -->
     <g style="fill: #1f2937" transform="translate(38.65 47.396371) scale(0.085 -0.085)">
      <defs>
       <path id="DejaVuSans-2e" d="M 628 4666 
L 1259 4666 
L 1259 2694 
L 3353 4666 
L 4166 4666 
L 1850 2491 
L 4331 0 
L 3500 0 
L 1259 2247 
L 1259 0 
L 628 0 
L 628 4666 
z
" transform="scale(0.015625)"/>
       <path id="DejaVuSans-4c" d="M 603 3500 
L 1178 3500 
L 1178 0 
L 603 0 
L 603 3500 
z
M 603 4863 
L 1178 4863 
L 1178 4134 
L 603 4134 
L 603 4863 
z
" transform="scale(0.015625)"/>
       <path id="DejaVuSans-4d" d="M 603 3500 
L 1178 3500 
L 1178 -63 
Q 1178 -731 923 -1031 
Q 669 -1331 103 -1331 
L -116 -1331 
L -116 -844 
L 38 -844 
Q 366 -844 484 -692 
Q 603 -541 603 -63 
L 603 3500 
z
M 603 4863 
L 1178 4863 
L 1178 4134 
L 603 4134 
L 603 4863 
z
" transform="scale(0.015625)"/>
       <path id="DejaVuSans-58" d="M 544 1381 
L 544 3500 
L 1119 3500 
L 1119 1403 
Q 1119 906 1312 657 
Q 1506 409 1894 409 
Q 2359 409 2629 706 
Q 2900 1003 2900 1516 
L 2900 3500 
L 3475 3500 
L 3475 0 
L 2900 0 
L 2900 538 
Q 2691 219 2414 64 
Q 2138 -91 1772 -91 
Q 1169 -91 856 284 
Q 544 659 544 1381 
z
M 1991 3584 
L 1991 3584 
z
" transform="scale(0.015625)"/>
       <path id="NotoNaskhArabic-Regular-2e8" d="M 877 0 
Q 858 0 858 70 
Q 858 128 874 227 
Q 890 326 915 406 
Q 941 486 954 486 
L 1088 486 
Q 1376 710 1555 864 
Q 1734 1018 1862 1155 
Q 1990 1293 2118 1459 
Q 1830 1792 1472 2089 
Q 1114 2387 768 2586 
L 531 2573 
Q 224 2861 224 3123 
Q 224 3219 262 3312 
Q 301 3405 442 3475 
Q 621 3354 835 3181 
Q 1050 3008 1274 2813 
Q 1498 2618 1690 2426 
Q 1837 2285 1990 2118 
Q 2144 1952 2304 1766 
Q 2426 2048 2426 2317 
Q 2426 2451 2390 2745 
Q 2355 3040 2285 3501 
Q 2253 3718 2233 3846 
Q 2214 3974 2214 4000 
Q 2214 4326 2643 4403 
Q 2688 4205 2749 4016 
Q 2810 3827 2874 3642 
L 2701 3494 
L 2707 3360 
L 2746 2445 
Q 2746 1958 2502 1491 
Q 2566 1389 2646 1248 
Q 2726 1107 2803 963 
Q 2880 819 2931 704 
Q 2982 589 2982 538 
Q 2982 474 2947 374 
Q 2912 275 2867 195 
Q 2822 115 2790 109 
Q 2490 58 2013 29 
Q 1536 0 877 0 
z
M 1594 499 
Q 2157 518 2733 614 
Q 2662 742 2560 892 
Q 2458 1043 2323 1210 
Q 2189 1024 2003 845 
Q 1818 666 1594 499 
z
M -39 3699 
L -58 3948 
L 198 4089 
Q -39 4128 -39 4345 
Q -39 4467 31 4582 
Q 102 4697 214 4774 
Q 326 4851 435 4851 
Q 685 4851 685 4614 
Q 685 4524 640 4441 
L 518 4473 
L 525 4499 
Q 525 4531 499 4556 
Q 473 4582 441 4582 
Q 339 4582 259 4508 
Q 179 4435 141 4339 
Q 249 4211 448 4211 
Q 563 4211 761 4249 
L 749 4006 
Q 486 3942 316 3871 
Q 147 3801 -39 3699 
z
" transform="scale(0.015625)"/>
       <path id="NotoNaskhArabic-Regular-fa" d="M 1446 0 
Q 1261 0 1027 61 
Q 794 122 666 198 
Q 576 109 397 54 
Q 218 0 0 0 
Q -51 0 -51 51 
L -51 435 
Q -51 486 0 486 
Q 326 486 518 634 
Q 595 691 636 745 
Q 678 800 726 880 
Q 774 960 858 1094 
Q 915 1197 1056 1197 
Q 1146 1197 1210 1152 
Q 1114 909 1046 765 
Q 979 621 947 570 
Q 998 544 1155 515 
Q 1312 486 1517 486 
Q 1664 486 1789 505 
Q 1914 525 2016 550 
Q 2061 614 2115 784 
Q 2170 954 2224 1136 
Q 2278 1318 2323 1408 
Q 2381 1536 2429 1574 
Q 2477 1613 2579 1613 
Q 2669 1613 2733 1568 
Q 2688 1466 2617 1261 
Q 2547 1056 2451 755 
Q 2675 659 2848 604 
Q 3021 550 3193 528 
Q 3366 506 3584 506 
Q 3558 602 3497 768 
Q 3437 934 3373 1116 
Q 3309 1299 3261 1443 
Q 3213 1587 3213 1638 
Q 3213 1779 3325 1920 
Q 3437 2061 3635 2176 
Q 3661 1997 3721 1741 
Q 3782 1485 3833 1229 
Q 3885 973 3885 787 
Q 3885 717 3846 573 
Q 3808 429 3753 272 
Q 3699 115 3635 0 
Q 3226 0 2925 57 
Q 2624 115 2278 275 
Q 2259 224 2227 173 
Q 2189 109 2057 73 
Q 1926 38 1760 22 
Q 1594 6 1446 0 
z
" transform="scale(0.015625)"/>
       <path id="NotoNaskhArabic-Regular-4" d="M 1677 0 
Q 1299 0 1049 150 
Q 800 301 768 557 
Q 742 787 713 1072 
Q 685 1357 653 1747 
Q 621 2138 579 2672 
Q 538 3206 486 3936 
Q 576 4026 685 4118 
Q 794 4211 922 4294 
Q 941 3795 953 3308 
Q 966 2822 976 2281 
Q 986 1741 992 1082 
L 1011 653 
Q 1312 486 1677 486 
Q 1728 486 1728 435 
L 1728 51 
Q 1728 0 1677 0 
z
" transform="scale(0.015625)"/>
       <path id="NotoNaskhArabic-Regular-f7" d="M 1594 -1677 
Q 1050 -1677 742 -1363 
Q 435 -1050 435 -474 
Q 435 -346 444 -237 
Q 454 -128 480 9 
Q 506 147 557 358 
L 794 301 
Q 723 6 723 -154 
Q 723 -621 956 -883 
Q 1190 -1146 1606 -1146 
Q 1926 -1146 2249 -1040 
Q 2573 -934 2829 -752 
Q 3085 -570 3187 -346 
Q 2976 109 2873 416 
Q 2771 723 2771 877 
Q 2771 1043 2864 1174 
Q 2957 1306 3187 1446 
Q 3200 1357 3216 1251 
Q 3232 1146 3264 982 
Q 3296 819 3347 544 
Q 3539 486 3731 486 
Q 3910 486 4051 505 
Q 4192 525 4294 550 
Q 4339 627 4371 736 
Q 4525 1254 4595 1402 
Q 4646 1530 4697 1571 
Q 4749 1613 4851 1613 
Q 4941 1613 5005 1568 
Q 4960 1472 4889 1270 
Q 4819 1069 4730 755 
Q 5050 614 5306 560 
Q 5562 506 5856 506 
Q 5818 634 5760 810 
Q 5702 986 5613 1203 
Q 5485 1549 5485 1638 
Q 5485 1779 5597 1923 
Q 5709 2067 5907 2176 
Q 5933 2022 5981 1804 
Q 6029 1587 6061 1440 
Q 6099 1267 6128 1100 
Q 6157 934 6157 787 
Q 6157 723 6121 579 
Q 6086 435 6032 278 
Q 5978 122 5914 0 
Q 5504 0 5203 57 
Q 4902 115 4557 275 
L 4499 173 
Q 4454 96 4211 45 
Q 4096 19 3958 9 
Q 3821 0 3654 0 
Q 3597 0 3539 3 
Q 3482 6 3424 13 
L 3424 -109 
Q 3424 -499 3174 -860 
Q 2925 -1222 2490 -1446 
Q 2061 -1677 1594 -1677 
z
" transform="scale(0.015625)"/>
      </defs>
      <use xlink:href="#NotoNaskhArabic-Regular-554"/>
      <use xlink:href="#DejaVuSans-b"/>
      <use xlink:href="#DejaVuSans-2e" transform="translate(39.015625 0)"/>
      <use xlink:href="#DejaVuSans-4c" transform="translate(104.59375 0)"/>
      <use xlink:href="#DejaVuSans-4d" transform="translate(132.375 0)"/>
      <use xlink:href="#DejaVuSans-58" transform="translate(160.15625 0)"/>
      <use xlink:href="#DejaVuSans-51" transform="translate(223.53125 0)"/>
      <use xlink:href="#DejaVuSans-c" transform="translate(286.90625 0)"/>
      <use xlink:href="#NotoNaskhArabic-Regular-554" transform="translate(325.921875 0)"/>
      <use xlink:href="#NotoNaskhArabic-Regular-a4" transform="translate(348.015625 0)"/>
      <use xlink:href="#NotoNaskhArabic-Regular-124" transform="translate(411.609375 0)"/>
      <use xlink:href="#NotoNaskhArabic-Regular-554" transform="translate(489.109375 0)"/>
      <use xlink:href="#NotoNaskhArabic-Regular-3" transform="translate(511.203125 0)"/>
      <use xlink:href="#NotoNaskhArabic-Regular-2e8" transform="translate(535 0)"/>
      <use xlink:href="#NotoNaskhArabic-Regular-fa" transform="translate(586.796875 0)"/>
      <use xlink:href="#NotoNaskhArabic-Regular-4" transform="translate(652.59375 0)"/>
      <use xlink:href="#NotoNaskhArabic-Regular-f7" transform="translate(677.890625 0)"/>
     </g>
    </g>
   </g>
  </g>
 </g>
 <defs>
  <clipPath id="pba7ebb6bcb">
   <rect x="7.2" y="11.934371" width="561.901016" height="310.460227"/>
  </clipPath>
 </defs>
</svg>
