<?xml version="1.0" encoding="utf-8" standalone="no"?>
<!DOCTYPE svg PUBLIC "-//W3C//DTD SVG 1.1//EN"
  "http://www.w3.org/Graphics/SVG/1.1/DTD/svg11.dtd">
<svg xmlns:xlink="http://www.w3.org/1999/xlink" width="627.07342pt" height="340.35pt" viewBox="0 0 627.07342 340.35" xmlns="http://www.w3.org/2000/svg" version="1.1">
 <metadata>
  <rdf:RDF xmlns:dc="http://purl.org/dc/elements/1.1/" xmlns:cc="http://creativecommons.org/ns#" xmlns:rdf="http://www.w3.org/1999/02/22-rdf-syntax-ns#">
   <cc:Work>
    <dc:type rdf:resource="http://purl.org/dc/dcmitype/StillImage"/>
    <dc:date>2026-07-19T01:15:39.073993</dc:date>
    <dc:format>image/svg+xml</dc:format>
    <dc:creator>
     <cc:Agent>
      <dc:title>Matplotlib v3.11.1, https://matplotlib.org/</dc:title>
     </cc:Agent>
    </dc:creator>
   </cc:Work>
  </rdf:RDF>
 </metadata>
 <defs>
  <style type="text/css">*{stroke-linejoin: round; stroke-linecap: butt}</style>
 </defs>
 <g id="figure_1">
  <g id="patch_1">
   <path d="M 0 340.35 
L 627.07342 340.35 
L 627.07342 0 
L 0 0 
z
" style="fill: #ffffff"/>
  </g>
  <g id="axes_1">
   <g id="patch_2">
    <path d="M 19.594148 308.12 
L 559.655764 308.12 
L 559.655764 7.2 
L 19.594148 7.2 
z
" style="fill: #ffffff"/>
   </g>
   <g id="matplotlib.axis_1">
    <g id="text_1">
     <!-- ​ﻦﻣﺰﻟﺍ -->
     <g style="fill: #1f2937" transform="translate(280.149956 326.81) scale(0.1 -0.1)">
      <defs>
       <path id="NotoNaskhArabic-Regular-3" d="M 666 0 
Q 646 1126 604 2057 
Q 563 2989 493 3725 
Q 467 3987 566 4118 
Q 666 4250 915 4294 
Q 941 4173 1001 3965 
Q 1062 3757 1139 3533 
L 966 3386 
Q 992 2912 1001 2413 
Q 1011 1914 1001 1338 
Q 992 762 960 51 
L 666 0 
z
" transform="scale(0.015625)"/>
       <path id="NotoNaskhArabic-Regular-1c1" d="M -6 0 
Q -64 0 -64 51 
L -64 435 
Q -64 486 -6 486 
Q 378 486 704 659 
Q 685 902 665 1139 
Q 646 1376 627 1606 
Q 570 2208 512 2790 
Q 454 3373 384 3936 
Q 474 4032 579 4121 
Q 685 4211 806 4294 
Q 826 3949 851 3497 
Q 877 3046 915 2483 
Q 947 2016 960 1609 
Q 973 1203 979 864 
Q 979 755 915 572 
Q 851 390 755 224 
Q 640 0 -6 0 
z
" transform="scale(0.015625)"/>
       <path id="NotoNaskhArabic-Regular-d6" d="M 710 -1306 
Q 608 -1306 451 -1248 
Q 294 -1190 134 -1107 
Q -26 -1024 -128 -947 
L -45 -736 
Q 134 -768 284 -787 
Q 435 -806 563 -806 
Q 1043 -806 1385 -518 
Q 1728 -230 1907 314 
Q 1862 416 1814 515 
Q 1766 614 1709 717 
Q 1491 1107 1388 1340 
Q 1286 1574 1286 1734 
Q 1286 1901 1382 2000 
Q 1478 2099 1658 2182 
Q 1683 2099 1712 2000 
Q 1741 1901 1786 1792 
Q 1888 1530 1955 1334 
Q 2022 1139 2054 1018 
Q 2093 896 2115 797 
Q 2138 698 2144 614 
Q 2362 486 2643 486 
Q 2694 486 2694 435 
L 2694 51 
Q 2694 0 2643 0 
Q 2342 0 2118 154 
Q 2048 -288 1849 -617 
Q 1651 -947 1356 -1126 
Q 1062 -1306 710 -1306 
z
M 1299 2560 
Q 1018 2771 839 2976 
Q 1165 3303 1287 3443 
Q 1389 3335 1494 3229 
Q 1600 3123 1709 3027 
Q 1562 2816 1299 2560 
z
" transform="scale(0.015625)"/>
       <path id="NotoNaskhArabic-Regular-1e5" d="M 2291 0 
Q 2035 0 1753 48 
Q 1472 96 1209 182 
Q 947 269 749 384 
Q 602 179 422 89 
Q 243 0 0 0 
Q -51 0 -51 51 
L -51 435 
Q -51 486 0 486 
Q 243 486 409 604 
Q 576 723 698 960 
Q 813 1171 880 1308 
Q 947 1446 1004 1555 
Q 1062 1664 1152 1779 
Q 1312 1990 1478 2083 
Q 1645 2176 1830 2176 
Q 2016 2176 2201 1945 
Q 2387 1715 2502 1357 
Q 2618 1005 2618 666 
Q 2618 467 2547 307 
Q 2477 147 2291 0 
z
M 2150 486 
Q 2144 781 2061 1065 
Q 1978 1350 1875 1498 
Q 1805 1606 1728 1606 
Q 1491 1606 1286 1318 
Q 1235 1242 1161 1117 
Q 1088 992 998 806 
Q 1459 563 2150 486 
z
" transform="scale(0.015625)"/>
       <path id="NotoNaskhArabic-Regular-1e8" d="M 1594 -1677 
Q 1050 -1677 742 -1363 
Q 435 -1050 435 -474 
Q 435 -346 444 -237 
Q 454 -128 480 9 
Q 506 147 557 358 
L 794 301 
Q 723 6 723 -154 
Q 723 -621 956 -883 
Q 1190 -1146 1606 -1146 
Q 1926 -1146 2249 -1040 
Q 2573 -934 2829 -752 
Q 3085 -570 3187 -346 
Q 2976 109 2873 416 
Q 2771 723 2771 877 
Q 2771 1043 2864 1174 
Q 2957 1306 3187 1446 
Q 3200 1344 3235 1133 
Q 3270 922 3334 595 
Q 3565 486 3802 486 
Q 3859 486 3859 435 
L 3859 51 
Q 3859 0 3802 0 
Q 3590 0 3418 77 
L 3424 -109 
Q 3424 -499 3174 -860 
Q 2925 -1222 2490 -1446 
Q 2061 -1677 1594 -1677 
z
M 1766 1504 
Q 1485 1715 1306 1920 
Q 1632 2247 1754 2387 
Q 1856 2279 1961 2173 
Q 2067 2067 2176 1971 
Q 2029 1760 1766 1504 
z
" transform="scale(0.015625)"/>
       <path id="NotoNaskhArabic-Regular-554" transform="scale(0.015625)"/>
      </defs>
      <use xlink:href="#NotoNaskhArabic-Regular-3"/>
      <use xlink:href="#NotoNaskhArabic-Regular-1c1" transform="translate(23.796875 0)"/>
      <use xlink:href="#NotoNaskhArabic-Regular-d6" transform="translate(45 0)"/>
      <use xlink:href="#NotoNaskhArabic-Regular-1e5" transform="translate(85.40625 0)"/>
      <use xlink:href="#NotoNaskhArabic-Regular-1e8" transform="translate(131 0)"/>
      <use xlink:href="#NotoNaskhArabic-Regular-554" transform="translate(189.5 0)"/>
     </g>
    </g>
   </g>
   <g id="matplotlib.axis_2">
    <g id="ytick_1">
     <g id="line2d_1">
      <path d="M 19.594148 302.921972 
L 559.655764 302.921972 
" clip-path="url(#p35569db9de)" style="fill: none; stroke: #e6e1d6; stroke-width: 0.8; stroke-linecap: square"/>
     </g>
     <g id="line2d_2">
      <defs>
       <path id="m6a49bb1513" d="M 0 0 
L 3.5 0 
" style="stroke: #555555; stroke-width: 0.8"/>
      </defs>
      <g>
       <use xlink:href="#m6a49bb1513" x="559.655764" y="302.921972" style="fill: #555555; stroke: #555555; stroke-width: 0.8"/>
      </g>
     </g>
     <g id="text_2">
      <!-- 97.5 -->
      <g style="fill: #555555" transform="translate(566.655764 308.534222) scale(0.105 -0.105)">
       <defs>
        <path id="NotoNaskhArabic-Regular-4d5" d="M 1229 -64 
Q 851 -64 653 0 
L 653 480 
Q 883 397 1216 397 
Q 1728 397 2057 601 
Q 2387 806 2560 1197 
Q 2650 1395 2701 1654 
Q 2752 1914 2758 2240 
L 2720 2240 
Q 2362 1709 1632 1709 
Q 1030 1709 675 2077 
Q 320 2445 320 3091 
Q 320 3565 499 3910 
Q 678 4256 1008 4445 
Q 1338 4634 1779 4634 
Q 2246 4634 2598 4394 
Q 2950 4154 3136 3699 
Q 3328 3238 3328 2618 
Q 3328 -64 1229 -64 
z
M 1754 2157 
Q 2035 2157 2265 2269 
Q 2496 2381 2630 2579 
Q 2758 2778 2758 2989 
Q 2758 3302 2636 3571 
Q 2515 3840 2291 4000 
Q 2074 4160 1779 4160 
Q 1350 4160 1113 3881 
Q 877 3603 877 3098 
Q 877 2643 1101 2400 
Q 1325 2157 1754 2157 
z
" transform="scale(0.015625)"/>
        <path id="NotoNaskhArabic-Regular-4d3" d="M 870 0 
L 2746 4058 
L 282 4058 
L 282 4570 
L 3347 4570 
L 3347 4134 
L 1491 0 
L 870 0 
z
" transform="scale(0.015625)"/>
        <path id="NotoNaskhArabic-Regular-514" d="M 800 -422 
Q 646 -314 518 -230 
Q 390 -147 294 -90 
Q 326 -19 364 41 
Q 403 102 429 166 
Q 493 282 576 410 
Q 1069 122 1069 32 
Q 1069 -38 800 -422 
z
" transform="scale(0.015625)"/>
        <path id="NotoNaskhArabic-Regular-4d1" d="M 1587 -64 
Q 826 -64 403 186 
L 403 717 
Q 634 576 960 496 
Q 1286 416 1594 416 
Q 2131 416 2425 672 
Q 2720 928 2720 1402 
Q 2720 2330 1574 2330 
Q 1210 2330 794 2234 
L 512 2413 
L 685 4570 
L 2976 4570 
L 2976 4058 
L 1165 4058 
L 1056 2733 
Q 1235 2765 1411 2784 
Q 1587 2803 1760 2803 
Q 2477 2803 2886 2444 
Q 3296 2086 3296 1459 
Q 3296 749 2841 342 
Q 2387 -64 1587 -64 
z
" transform="scale(0.015625)"/>
       </defs>
       <use xlink:href="#NotoNaskhArabic-Regular-4d5"/>
       <use xlink:href="#NotoNaskhArabic-Regular-4d3" transform="translate(57.203125 0)"/>
       <use xlink:href="#NotoNaskhArabic-Regular-514" transform="translate(114.40625 0)"/>
       <use xlink:href="#NotoNaskhArabic-Regular-4d1" transform="translate(135 0)"/>
      </g>
     </g>
    </g>
    <g id="ytick_2">
     <g id="line2d_3">
      <path d="M 19.594148 262.292527 
L 559.655764 262.292527 
" clip-path="url(#p35569db9de)" style="fill: none; stroke: #e6e1d6; stroke-width: 0.8; stroke-linecap: square"/>
     </g>
     <g id="line2d_4">
      <g>
       <use xlink:href="#m6a49bb1513" x="559.655764" y="262.292527" style="fill: #555555; stroke: #555555; stroke-width: 0.8"/>
      </g>
     </g>
     <g id="text_3">
      <!-- 100.0 -->
      <g style="fill: #555555" transform="translate(566.655764 267.904777) scale(0.105 -0.105)">
       <defs>
        <path id="NotoNaskhArabic-Regular-4cd" d="M 1722 0 
L 1722 3194 
Q 1722 3405 1728 3603 
Q 1734 3802 1747 3981 
Q 1702 3936 1657 3891 
Q 1613 3846 1562 3808 
Q 1402 3674 1226 3530 
Q 1050 3386 864 3232 
L 570 3610 
L 1805 4570 
L 2272 4570 
L 2272 0 
L 1722 0 
z
" transform="scale(0.015625)"/>
        <path id="NotoNaskhArabic-Regular-4cc" d="M 1824 -64 
Q 1082 -64 698 534 
Q 314 1133 314 2291 
Q 314 3488 682 4064 
Q 1050 4640 1824 4640 
Q 2566 4640 2956 4038 
Q 3347 3437 3347 2291 
Q 3347 1101 2969 518 
Q 2592 -64 1824 -64 
z
M 1824 416 
Q 2208 416 2426 678 
Q 2778 1094 2778 2291 
Q 2778 3571 2368 3962 
Q 2163 4160 1824 4160 
Q 1427 4160 1203 3878 
Q 877 3469 877 2291 
Q 877 1075 1229 666 
Q 1440 416 1824 416 
z
" transform="scale(0.015625)"/>
       </defs>
       <use xlink:href="#NotoNaskhArabic-Regular-4cd"/>
       <use xlink:href="#NotoNaskhArabic-Regular-4cc" transform="translate(57.203125 0)"/>
       <use xlink:href="#NotoNaskhArabic-Regular-4cc" transform="translate(114.40625 0)"/>
       <use xlink:href="#NotoNaskhArabic-Regular-514" transform="translate(171.609375 0)"/>
       <use xlink:href="#NotoNaskhArabic-Regular-4cc" transform="translate(192.203125 0)"/>
      </g>
     </g>
    </g>
    <g id="ytick_3">
     <g id="line2d_5">
      <path d="M 19.594148 221.663081 
L 559.655764 221.663081 
" clip-path="url(#p35569db9de)" style="fill: none; stroke: #e6e1d6; stroke-width: 0.8; stroke-linecap: square"/>
     </g>
     <g id="line2d_6">
      <g>
       <use xlink:href="#m6a49bb1513" x="559.655764" y="221.663081" style="fill: #555555; stroke: #555555; stroke-width: 0.8"/>
      </g>
     </g>
     <g id="text_4">
      <!-- 102.5 -->
      <g style="fill: #555555" transform="translate(566.655764 227.275331) scale(0.105 -0.105)">
       <defs>
        <path id="NotoNaskhArabic-Regular-4ce" d="M 307 0 
L 307 467 
L 1504 1677 
Q 1773 1952 1952 2147 
Q 2131 2342 2221 2458 
Q 2413 2720 2489 2925 
Q 2566 3130 2566 3386 
Q 2566 3744 2352 3949 
Q 2138 4154 1760 4154 
Q 1478 4154 1228 4058 
Q 979 3962 659 3718 
L 358 4096 
Q 1005 4634 1760 4634 
Q 2240 4634 2576 4448 
Q 2912 4262 3053 3923 
Q 3142 3686 3142 3418 
Q 3142 3123 3033 2841 
Q 2925 2560 2707 2272 
Q 2598 2131 2416 1929 
Q 2234 1728 1971 1478 
L 1018 538 
L 1018 512 
L 3328 512 
L 3328 0 
L 307 0 
z
" transform="scale(0.015625)"/>
       </defs>
       <use xlink:href="#NotoNaskhArabic-Regular-4cd"/>
       <use xlink:href="#NotoNaskhArabic-Regular-4cc" transform="translate(57.203125 0)"/>
       <use xlink:href="#NotoNaskhArabic-Regular-4ce" transform="translate(114.40625 0)"/>
       <use xlink:href="#NotoNaskhArabic-Regular-514" transform="translate(171.609375 0)"/>
       <use xlink:href="#NotoNaskhArabic-Regular-4d1" transform="translate(192.203125 0)"/>
      </g>
     </g>
    </g>
    <g id="ytick_4">
     <g id="line2d_7">
      <path d="M 19.594148 181.033636 
L 559.655764 181.033636 
" clip-path="url(#p35569db9de)" style="fill: none; stroke: #e6e1d6; stroke-width: 0.8; stroke-linecap: square"/>
     </g>
     <g id="line2d_8">
      <g>
       <use xlink:href="#m6a49bb1513" x="559.655764" y="181.033636" style="fill: #555555; stroke: #555555; stroke-width: 0.8"/>
      </g>
     </g>
     <g id="text_5">
      <!-- 105.0 -->
      <g style="fill: #555555" transform="translate(566.655764 186.645886) scale(0.105 -0.105)">
       <use xlink:href="#NotoNaskhArabic-Regular-4cd"/>
       <use xlink:href="#NotoNaskhArabic-Regular-4cc" transform="translate(57.203125 0)"/>
       <use xlink:href="#NotoNaskhArabic-Regular-4d1" transform="translate(114.40625 0)"/>
       <use xlink:href="#NotoNaskhArabic-Regular-514" transform="translate(171.609375 0)"/>
       <use xlink:href="#NotoNaskhArabic-Regular-4cc" transform="translate(192.203125 0)"/>
      </g>
     </g>
    </g>
    <g id="ytick_5">
     <g id="line2d_9">
      <path d="M 19.594148 140.40419 
L 559.655764 140.40419 
" clip-path="url(#p35569db9de)" style="fill: none; stroke: #e6e1d6; stroke-width: 0.8; stroke-linecap: square"/>
     </g>
     <g id="line2d_10">
      <g>
       <use xlink:href="#m6a49bb1513" x="559.655764" y="140.40419" style="fill: #555555; stroke: #555555; stroke-width: 0.8"/>
      </g>
     </g>
     <g id="text_6">
      <!-- 107.5 -->
      <g style="fill: #555555" transform="translate(566.655764 146.01644) scale(0.105 -0.105)">
       <use xlink:href="#NotoNaskhArabic-Regular-4cd"/>
       <use xlink:href="#NotoNaskhArabic-Regular-4cc" transform="translate(57.203125 0)"/>
       <use xlink:href="#NotoNaskhArabic-Regular-4d3" transform="translate(114.40625 0)"/>
       <use xlink:href="#NotoNaskhArabic-Regular-514" transform="translate(171.609375 0)"/>
       <use xlink:href="#NotoNaskhArabic-Regular-4d1" transform="translate(192.203125 0)"/>
      </g>
     </g>
    </g>
    <g id="ytick_6">
     <g id="line2d_11">
      <path d="M 19.594148 99.774744 
L 559.655764 99.774744 
" clip-path="url(#p35569db9de)" style="fill: none; stroke: #e6e1d6; stroke-width: 0.8; stroke-linecap: square"/>
     </g>
     <g id="line2d_12">
      <g>
       <use xlink:href="#m6a49bb1513" x="559.655764" y="99.774744" style="fill: #555555; stroke: #555555; stroke-width: 0.8"/>
      </g>
     </g>
     <g id="text_7">
      <!-- 110.0 -->
      <g style="fill: #555555" transform="translate(566.655764 105.386994) scale(0.105 -0.105)">
       <use xlink:href="#NotoNaskhArabic-Regular-4cd"/>
       <use xlink:href="#NotoNaskhArabic-Regular-4cd" transform="translate(57.203125 0)"/>
       <use xlink:href="#NotoNaskhArabic-Regular-4cc" transform="translate(114.40625 0)"/>
       <use xlink:href="#NotoNaskhArabic-Regular-514" transform="translate(171.609375 0)"/>
       <use xlink:href="#NotoNaskhArabic-Regular-4cc" transform="translate(192.203125 0)"/>
      </g>
     </g>
    </g>
    <g id="ytick_7">
     <g id="line2d_13">
      <path d="M 19.594148 59.145299 
L 559.655764 59.145299 
" clip-path="url(#p35569db9de)" style="fill: none; stroke: #e6e1d6; stroke-width: 0.8; stroke-linecap: square"/>
     </g>
     <g id="line2d_14">
      <g>
       <use xlink:href="#m6a49bb1513" x="559.655764" y="59.145299" style="fill: #555555; stroke: #555555; stroke-width: 0.8"/>
      </g>
     </g>
     <g id="text_8">
      <!-- 112.5 -->
      <g style="fill: #555555" transform="translate(566.655764 64.757549) scale(0.105 -0.105)">
       <use xlink:href="#NotoNaskhArabic-Regular-4cd"/>
       <use xlink:href="#NotoNaskhArabic-Regular-4cd" transform="translate(57.203125 0)"/>
       <use xlink:href="#NotoNaskhArabic-Regular-4ce" transform="translate(114.40625 0)"/>
       <use xlink:href="#NotoNaskhArabic-Regular-514" transform="translate(171.609375 0)"/>
       <use xlink:href="#NotoNaskhArabic-Regular-4d1" transform="translate(192.203125 0)"/>
      </g>
     </g>
    </g>
    <g id="ytick_8">
     <g id="line2d_15">
      <path d="M 19.594148 18.515853 
L 559.655764 18.515853 
" clip-path="url(#p35569db9de)" style="fill: none; stroke: #e6e1d6; stroke-width: 0.8; stroke-linecap: square"/>
     </g>
     <g id="line2d_16">
      <g>
       <use xlink:href="#m6a49bb1513" x="559.655764" y="18.515853" style="fill: #555555; stroke: #555555; stroke-width: 0.8"/>
      </g>
     </g>
     <g id="text_9">
      <!-- 115.0 -->
      <g style="fill: #555555" transform="translate(566.655764 24.128103) scale(0.105 -0.105)">
       <use xlink:href="#NotoNaskhArabic-Regular-4cd"/>
       <use xlink:href="#NotoNaskhArabic-Regular-4cd" transform="translate(57.203125 0)"/>
       <use xlink:href="#NotoNaskhArabic-Regular-4d1" transform="translate(114.40625 0)"/>
       <use xlink:href="#NotoNaskhArabic-Regular-514" transform="translate(171.609375 0)"/>
       <use xlink:href="#NotoNaskhArabic-Regular-4cc" transform="translate(192.203125 0)"/>
      </g>
     </g>
    </g>
    <g id="text_10">
     <!-- ​ﺮﻌﺴﻟﺍ -->
     <g style="fill: #1f2937" transform="translate(609.18342 148.004531) rotate(-270) scale(0.1 -0.1)">
      <defs>
       <path id="NotoNaskhArabic-Regular-f9" d="M 1446 0 
Q 1267 0 1030 57 
Q 794 115 666 198 
Q 576 109 397 54 
Q 218 0 0 0 
Q -51 0 -51 51 
L -51 435 
Q -51 486 0 486 
Q 326 486 518 634 
Q 627 723 681 809 
Q 736 896 858 1094 
Q 915 1197 1056 1197 
Q 1146 1197 1210 1152 
Q 1114 909 1046 765 
Q 979 621 947 570 
Q 998 544 1155 515 
Q 1312 486 1517 486 
Q 1664 486 1789 505 
Q 1914 525 2016 550 
Q 2061 621 2115 793 
Q 2170 966 2227 1145 
Q 2285 1325 2323 1408 
Q 2381 1536 2432 1574 
Q 2483 1613 2579 1613 
Q 2669 1613 2733 1568 
Q 2688 1466 2608 1235 
Q 2528 1005 2400 582 
Q 2496 538 2566 522 
Q 2637 506 2739 506 
Q 2906 506 3091 570 
Q 3123 608 3168 723 
Q 3213 838 3277 1030 
Q 3328 1190 3385 1331 
Q 3443 1472 3501 1568 
Q 3552 1664 3699 1664 
Q 3789 1664 3853 1619 
Q 3808 1517 3728 1289 
Q 3648 1062 3533 710 
Q 3757 589 3917 537 
Q 4077 486 4294 486 
Q 4352 486 4352 435 
L 4352 51 
Q 4352 0 4294 0 
Q 4045 0 3798 96 
Q 3552 192 3386 346 
Q 3366 301 3347 259 
Q 3328 218 3296 173 
Q 3251 96 3078 48 
Q 2906 0 2733 0 
Q 2438 0 2221 160 
Q 2176 102 2041 67 
Q 1907 32 1744 19 
Q 1581 6 1446 0 
z
" transform="scale(0.015625)"/>
       <path id="NotoNaskhArabic-Regular-135" d="M 6 0 
Q -51 0 -51 58 
L -51 429 
Q -51 486 6 486 
Q 672 486 1101 640 
L 986 787 
Q 864 973 771 1094 
Q 678 1216 621 1280 
Q 506 1427 410 1491 
L 307 1427 
Q 192 1555 192 1709 
Q 192 1862 297 1974 
Q 403 2086 566 2172 
Q 730 2259 902 2310 
Q 1158 2394 1446 2394 
Q 1722 2394 1936 2288 
Q 2150 2182 2272 2003 
Q 2400 1824 2400 1594 
Q 2400 1293 2243 1049 
Q 2086 806 1830 602 
Q 2099 486 2694 486 
Q 2758 486 2758 429 
L 2758 58 
Q 2758 0 2694 0 
Q 2259 0 1955 83 
Q 1651 166 1402 346 
Q 1050 166 723 83 
Q 397 0 6 0 
z
M 1478 845 
Q 1696 992 1821 1152 
Q 1946 1312 1946 1459 
Q 1946 1638 1811 1753 
Q 1677 1869 1466 1869 
Q 1075 1869 710 1677 
Q 947 1491 1325 1018 
Q 1395 934 1478 845 
z
" transform="scale(0.015625)"/>
       <path id="NotoNaskhArabic-Regular-d4" d="M 710 -1306 
Q 608 -1306 451 -1248 
Q 294 -1190 134 -1107 
Q -26 -1024 -128 -947 
L -45 -736 
Q 134 -768 284 -787 
Q 435 -806 563 -806 
Q 1043 -806 1385 -518 
Q 1728 -230 1907 314 
Q 1862 416 1814 515 
Q 1766 614 1709 717 
Q 1491 1107 1388 1340 
Q 1286 1574 1286 1734 
Q 1286 1901 1382 2000 
Q 1478 2099 1658 2182 
Q 1683 2099 1712 2000 
Q 1741 1901 1786 1792 
Q 1888 1530 1955 1334 
Q 2022 1139 2054 1018 
Q 2093 896 2115 797 
Q 2138 698 2144 614 
Q 2362 486 2643 486 
Q 2694 486 2694 435 
L 2694 51 
Q 2694 0 2643 0 
Q 2342 0 2118 154 
Q 2048 -288 1849 -617 
Q 1651 -947 1356 -1126 
Q 1062 -1306 710 -1306 
z
" transform="scale(0.015625)"/>
      </defs>
      <use xlink:href="#NotoNaskhArabic-Regular-3"/>
      <use xlink:href="#NotoNaskhArabic-Regular-1c1" transform="translate(23.796875 0)"/>
      <use xlink:href="#NotoNaskhArabic-Regular-f9" transform="translate(45 0)"/>
      <use xlink:href="#NotoNaskhArabic-Regular-135" transform="translate(111.296875 0)"/>
      <use xlink:href="#NotoNaskhArabic-Regular-d4" transform="translate(152.703125 0)"/>
      <use xlink:href="#NotoNaskhArabic-Regular-554" transform="translate(193.109375 0)"/>
     </g>
    </g>
   </g>
   <g id="line2d_17">
    <path d="M 35.959651 231.682393 
L 543.29026 231.682393 
" clip-path="url(#p35569db9de)" style="fill: none; stroke-dasharray: 7.4,3.2; stroke-dashoffset: 0; stroke: #b7791f; stroke-width: 2"/>
   </g>
   <g id="patch_3">
    <path d="M 559.655764 308.12 
L 559.655764 7.2 
" style="fill: none; stroke: #1f2937; stroke-width: 0.8; stroke-linejoin: miter; stroke-linecap: square"/>
   </g>
   <g id="patch_4">
    <path d="M 19.594148 308.12 
L 559.655764 308.12 
" style="fill: none; stroke: #1f2937; stroke-width: 0.8; stroke-linejoin: miter; stroke-linecap: square"/>
   </g>
   <g id="line2d_18">
    <path d="M 35.959651 261.884577 
L 35.959651 253.325287 
" clip-path="url(#p35569db9de)" style="fill: none; stroke: #b91c1c; stroke-width: 1.1; stroke-linecap: round"/>
   </g>
   <g id="line2d_19">
    <path d="M 52.325155 268.292353 
L 52.325155 257.862556 
" clip-path="url(#p35569db9de)" style="fill: none; stroke: #1f8a56; stroke-width: 1.1; stroke-linecap: round"/>
   </g>
   <g id="line2d_20">
    <path d="M 68.690658 258.981557 
L 68.690658 247.769845 
" clip-path="url(#p35569db9de)" style="fill: none; stroke: #1f8a56; stroke-width: 1.1; stroke-linecap: round"/>
   </g>
   <g id="line2d_21">
    <path d="M 85.056162 252.971834 
L 85.056162 249.655079 
" clip-path="url(#p35569db9de)" style="fill: none; stroke: #1f8a56; stroke-width: 1.1; stroke-linecap: round"/>
   </g>
   <g id="line2d_22">
    <path d="M 101.421665 252.130961 
L 101.421665 250.474073 
" clip-path="url(#p35569db9de)" style="fill: none; stroke: #b91c1c; stroke-width: 1.1; stroke-linecap: round"/>
   </g>
   <g id="line2d_23">
    <path d="M 117.787169 258.148037 
L 117.787169 245.542789 
" clip-path="url(#p35569db9de)" style="fill: none; stroke: #1f8a56; stroke-width: 1.1; stroke-linecap: round"/>
   </g>
   <g id="line2d_24">
    <path d="M 134.152672 248.718958 
L 134.152672 240.144566 
" clip-path="url(#p35569db9de)" style="fill: none; stroke: #1f8a56; stroke-width: 1.1; stroke-linecap: round"/>
   </g>
   <g id="line2d_25">
    <path d="M 150.518176 247.245069 
L 150.518176 236.802188 
" clip-path="url(#p35569db9de)" style="fill: none; stroke: #b91c1c; stroke-width: 1.1; stroke-linecap: round"/>
   </g>
   <g id="line2d_26">
    <path d="M 166.883679 250.994181 
L 166.883679 245.497571 
" clip-path="url(#p35569db9de)" style="fill: none; stroke: #b91c1c; stroke-width: 1.1; stroke-linecap: round"/>
   </g>
   <g id="line2d_27">
    <path d="M 183.249183 251.198829 
L 183.249183 240.022398 
" clip-path="url(#p35569db9de)" style="fill: none; stroke: #1f8a56; stroke-width: 1.1; stroke-linecap: round"/>
   </g>
   <g id="line2d_28">
    <path d="M 199.614686 245.424005 
L 199.614686 238.538374 
" clip-path="url(#p35569db9de)" style="fill: none; stroke: #1f8a56; stroke-width: 1.1; stroke-linecap: round"/>
   </g>
   <g id="line2d_29">
    <path d="M 215.98019 244.234486 
L 215.98019 235.086846 
" clip-path="url(#p35569db9de)" style="fill: none; stroke: #1f8a56; stroke-width: 1.1; stroke-linecap: round"/>
   </g>
   <g id="line2d_30">
    <path d="M 232.345693 238.769184 
L 232.345693 234.24904 
" clip-path="url(#p35569db9de)" style="fill: none; stroke: #1f8a56; stroke-width: 1.1; stroke-linecap: round"/>
   </g>
   <g id="line2d_31">
    <path d="M 248.711197 245.912269 
L 248.711197 233.307571 
" clip-path="url(#p35569db9de)" style="fill: none; stroke: #b91c1c; stroke-width: 1.1; stroke-linecap: round"/>
   </g>
   <g id="line2d_32">
    <path d="M 265.0767 246.298081 
L 265.0767 243.829973 
" clip-path="url(#p35569db9de)" style="fill: none; stroke: #b91c1c; stroke-width: 1.1; stroke-linecap: round"/>
   </g>
   <g id="line2d_33">
    <path d="M 281.442204 245.895542 
L 281.442204 240.855044 
" clip-path="url(#p35569db9de)" style="fill: none; stroke: #1f8a56; stroke-width: 1.1; stroke-linecap: round"/>
   </g>
   <g id="line2d_34">
    <path d="M 297.807708 243.058135 
L 297.807708 218.21055 
" clip-path="url(#p35569db9de)" style="fill: none; stroke: #1f8a56; stroke-width: 1.1; stroke-linecap: round"/>
   </g>
   <g id="line2d_35">
    <path d="M 314.173211 220.537223 
L 314.173211 197.64024 
" clip-path="url(#p35569db9de)" style="fill: none; stroke: #1f8a56; stroke-width: 1.1; stroke-linecap: round"/>
   </g>
   <g id="line2d_36">
    <path d="M 330.538715 205.186628 
L 330.538715 197.633102 
" clip-path="url(#p35569db9de)" style="fill: none; stroke: #1f8a56; stroke-width: 1.1; stroke-linecap: round"/>
   </g>
   <g id="line2d_37">
    <path d="M 346.904218 202.827849 
L 346.904218 173.260711 
" clip-path="url(#p35569db9de)" style="fill: none; stroke: #1f8a56; stroke-width: 1.1; stroke-linecap: round"/>
   </g>
   <g id="line2d_38">
    <path d="M 363.269722 178.486056 
L 363.269722 159.797019 
" clip-path="url(#p35569db9de)" style="fill: none; stroke: #1f8a56; stroke-width: 1.1; stroke-linecap: round"/>
   </g>
   <g id="line2d_39">
    <path d="M 379.635225 158.269999 
L 379.635225 149.008843 
" clip-path="url(#p35569db9de)" style="fill: none; stroke: #1f8a56; stroke-width: 1.1; stroke-linecap: round"/>
   </g>
   <g id="line2d_40">
    <path d="M 396.000729 153.069404 
L 396.000729 149.884726 
" clip-path="url(#p35569db9de)" style="fill: none; stroke: #1f8a56; stroke-width: 1.1; stroke-linecap: round"/>
   </g>
   <g id="line2d_41">
    <path d="M 412.366232 151.83002 
L 412.366232 132.567799 
" clip-path="url(#p35569db9de)" style="fill: none; stroke: #1f8a56; stroke-width: 1.1; stroke-linecap: round"/>
   </g>
   <g id="line2d_42">
    <path d="M 428.731736 140.073974 
L 428.731736 130.184676 
" clip-path="url(#p35569db9de)" style="fill: none; stroke: #b91c1c; stroke-width: 1.1; stroke-linecap: round"/>
   </g>
   <g id="line2d_43">
    <path d="M 445.097239 138.088443 
L 445.097239 115.296909 
" clip-path="url(#p35569db9de)" style="fill: none; stroke: #1f8a56; stroke-width: 1.1; stroke-linecap: round"/>
   </g>
   <g id="line2d_44">
    <path d="M 461.462743 118.325621 
L 461.462743 93.34119 
" clip-path="url(#p35569db9de)" style="fill: none; stroke: #1f8a56; stroke-width: 1.1; stroke-linecap: round"/>
   </g>
   <g id="line2d_45">
    <path d="M 477.828246 94.399874 
L 477.828246 80.6312 
" clip-path="url(#p35569db9de)" style="fill: none; stroke: #1f8a56; stroke-width: 1.1; stroke-linecap: round"/>
   </g>
   <g id="line2d_46">
    <path d="M 494.19375 86.896822 
L 494.19375 77.908946 
" clip-path="url(#p35569db9de)" style="fill: none; stroke: #1f8a56; stroke-width: 1.1; stroke-linecap: round"/>
   </g>
   <g id="line2d_47">
    <path d="M 510.559253 84.706173 
L 510.559253 60.527019 
" clip-path="url(#p35569db9de)" style="fill: none; stroke: #1f8a56; stroke-width: 1.1; stroke-linecap: round"/>
   </g>
   <g id="line2d_48">
    <path d="M 526.924757 72.243852 
L 526.924757 56.829448 
" clip-path="url(#p35569db9de)" style="fill: none; stroke: #b91c1c; stroke-width: 1.1; stroke-linecap: round"/>
   </g>
   <g id="line2d_49">
    <path d="M 543.29026 67.742748 
L 543.29026 47.027647 
" clip-path="url(#p35569db9de)" style="fill: none; stroke: #1f8a56; stroke-width: 1.1; stroke-linecap: round"/>
   </g>
   <g id="text_11">
    <!-- ​ﺔﻣﻭﺎﻘﻣ -->
    <g style="fill: #b7791f" transform="translate(7.2 233.639893) scale(0.09 -0.09)">
     <defs>
      <path id="NotoNaskhArabic-Bold-1e5" d="M 2349 0 
Q 1920 0 1488 99 
Q 1056 198 755 358 
Q 602 198 429 128 
Q 256 58 0 58 
Q -51 58 -51 109 
L -51 762 
Q -51 813 0 813 
Q 525 813 774 1286 
Q 890 1517 982 1680 
Q 1075 1843 1146 1939 
Q 1306 2157 1446 2249 
Q 1587 2342 1773 2342 
Q 2003 2342 2224 2102 
Q 2445 1862 2586 1466 
Q 2726 1082 2726 723 
Q 2726 557 2611 339 
Q 2496 122 2349 0 
z
M 2138 704 
Q 2112 941 2035 1142 
Q 1958 1344 1862 1466 
Q 1760 1587 1677 1587 
Q 1536 1587 1427 1472 
Q 1325 1363 1120 960 
Q 1325 870 1577 803 
Q 1830 736 2138 704 
z
" transform="scale(0.015625)"/>
      <path id="NotoNaskhArabic-Bold-169" d="M 6 58 
Q -51 58 -51 115 
L -51 755 
Q -51 813 6 813 
Q 115 813 227 816 
Q 339 819 454 819 
Q 358 973 358 1114 
Q 358 1197 374 1337 
Q 390 1478 419 1606 
Q 448 1734 474 1786 
Q 595 2003 771 2179 
Q 947 2355 1152 2457 
Q 1357 2560 1549 2560 
Q 1722 2560 1898 2368 
Q 2074 2176 2182 1875 
Q 2291 1568 2291 1306 
Q 2291 1056 2150 819 
Q 2285 819 2422 816 
Q 2560 813 2694 813 
Q 2746 813 2746 762 
L 2746 109 
Q 2746 58 2694 58 
Q 1882 58 1325 269 
Q 1030 147 716 102 
Q 403 58 6 58 
z
M 1299 794 
Q 1690 902 1933 1107 
Q 1888 1280 1795 1446 
Q 1702 1613 1613 1696 
Q 1549 1773 1478 1773 
Q 1146 1773 704 1178 
Q 819 1043 979 944 
Q 1139 845 1299 794 
z
M 1888 3052 
Q 1753 3161 1644 3257 
Q 1536 3353 1446 3449 
Q 1683 3667 1875 3897 
Q 1932 3833 2034 3737 
Q 2137 3641 2278 3500 
Q 2105 3264 1888 3052 
z
M 1030 2956 
Q 755 3180 588 3360 
Q 697 3468 806 3580 
Q 915 3692 1024 3801 
Q 1139 3667 1420 3404 
Q 1260 3174 1030 2956 
z
" transform="scale(0.015625)"/>
      <path id="NotoNaskhArabic-Bold-4" d="M 1901 58 
Q 1517 58 1283 186 
Q 1050 314 938 528 
Q 826 742 794 1018 
Q 781 1139 749 1424 
Q 717 1709 681 2073 
Q 646 2438 608 2809 
Q 570 3181 538 3481 
Q 506 3782 486 3930 
Q 845 4166 1248 4352 
Q 1274 3635 1296 2918 
Q 1318 2202 1338 1478 
L 1363 979 
Q 1478 883 1606 848 
Q 1734 813 1914 813 
Q 1952 813 1952 762 
L 1952 109 
Q 1952 58 1901 58 
z
" transform="scale(0.015625)"/>
      <path id="NotoNaskhArabic-Bold-218" d="M 1248 -1248 
Q 1171 -1248 1011 -1174 
Q 851 -1101 668 -982 
Q 486 -864 326 -730 
L 429 -461 
Q 602 -506 778 -528 
Q 954 -550 1133 -550 
Q 1632 -550 2003 -304 
Q 2374 -58 2515 371 
L 2509 416 
Q 2323 224 2105 112 
Q 1888 0 1664 0 
Q 1267 0 1049 230 
Q 832 461 832 883 
Q 832 1242 966 1584 
Q 1101 1926 1318 2131 
Q 1530 2342 1766 2342 
Q 2042 2342 2288 2089 
Q 2534 1837 2694 1402 
Q 2848 973 2848 570 
Q 2848 83 2637 -339 
Q 2426 -762 2054 -1005 
Q 1690 -1248 1248 -1248 
z
M 1792 704 
Q 2074 704 2400 813 
Q 2342 992 2220 1181 
Q 2099 1370 1952 1472 
Q 1798 1574 1658 1574 
Q 1498 1574 1376 1488 
Q 1254 1402 1203 1267 
Q 1178 1190 1178 1094 
Q 1178 902 1338 803 
Q 1498 704 1792 704 
z
" transform="scale(0.015625)"/>
      <path id="NotoNaskhArabic-Bold-215" d="M 3302 58 
Q 2912 58 2675 182 
Q 2438 307 2393 531 
L 2336 768 
L 2080 243 
Q 1881 262 1711 288 
Q 1542 314 1395 365 
Q 1235 422 1075 518 
Q 915 614 806 716 
Q 697 819 697 890 
Q 697 941 738 1078 
Q 780 1216 838 1369 
Q 896 1523 940 1600 
Q 998 1728 1184 1882 
Q 1363 2042 1593 2192 
Q 1824 2342 1984 2413 
L 1952 2669 
Q 2118 2797 2223 2873 
Q 2329 2950 2418 3011 
Q 2508 3072 2617 3136 
L 2617 986 
Q 2924 813 3302 813 
Q 3353 813 3353 762 
L 3353 109 
Q 3353 58 3302 58 
z
M 2272 1005 
Q 2233 1158 2188 1366 
Q 2144 1574 2086 1837 
Q 1491 1638 1152 1318 
Q 1356 1178 1542 1123 
Q 1728 1069 1894 1043 
Q 2067 1011 2272 1005 
z
M 2138 3257 
Q 2003 3366 1894 3462 
Q 1786 3558 1696 3654 
Q 1933 3872 2125 4102 
Q 2182 4038 2284 3942 
Q 2387 3846 2528 3705 
Q 2355 3469 2138 3257 
z
M 1280 3161 
Q 1005 3385 838 3565 
Q 947 3673 1056 3785 
Q 1165 3897 1274 4006 
Q 1389 3872 1670 3609 
Q 1510 3379 1280 3161 
z
" transform="scale(0.015625)"/>
      <path id="NotoNaskhArabic-Bold-554" transform="scale(0.015625)"/>
     </defs>
     <use xlink:href="#NotoNaskhArabic-Bold-1e5"/>
     <use xlink:href="#NotoNaskhArabic-Bold-169" transform="translate(47.296875 0)"/>
     <use xlink:href="#NotoNaskhArabic-Bold-4" transform="translate(88.5 0)"/>
     <use xlink:href="#NotoNaskhArabic-Bold-218" transform="translate(117.296875 0)"/>
     <use xlink:href="#NotoNaskhArabic-Bold-1e5" transform="translate(167 0)"/>
     <use xlink:href="#NotoNaskhArabic-Bold-215" transform="translate(214.296875 0)"/>
     <use xlink:href="#NotoNaskhArabic-Bold-554" transform="translate(265 0)"/>
    </g>
   </g>
   <g id="text_12">
    <!-- ​(ﻕﺍﺮﺘﺧﺍ) ﺀﺍﺮﺷ ﻝﻮﺧﺩ -->
    <g style="fill: #1f2937" transform="translate(278.194305 174.057284) scale(0.09 -0.09)">
     <defs>
      <path id="NotoNaskhArabic-Bold-b5" d="M 1075 0 
Q 218 0 218 499 
Q 218 634 272 784 
Q 326 934 410 1018 
Q 570 890 774 826 
Q 979 762 1280 762 
Q 1696 762 2118 896 
Q 2016 1082 1929 1222 
Q 1843 1363 1773 1466 
Q 1594 1728 1478 1923 
Q 1363 2118 1363 2240 
Q 1363 2445 1526 2630 
Q 1690 2816 1901 2880 
Q 1952 2714 2022 2515 
Q 2093 2317 2166 2125 
Q 2240 1933 2291 1792 
Q 2381 1549 2445 1337 
Q 2509 1126 2509 954 
Q 2509 896 2473 765 
Q 2438 634 2387 493 
Q 2336 352 2285 250 
Q 2054 134 1734 67 
Q 1414 0 1075 0 
z
" transform="scale(0.015625)"/>
      <path id="NotoNaskhArabic-Bold-a4" d="M 0 58 
Q -51 58 -51 109 
L -51 762 
Q -51 813 0 813 
Q 467 813 793 829 
Q 1120 845 1427 934 
Q 1702 1018 1897 1069 
Q 2093 1120 2202 1146 
Q 2112 1197 2025 1251 
Q 1939 1306 1856 1363 
Q 1651 1504 1513 1558 
Q 1376 1613 1235 1613 
Q 1043 1613 870 1558 
Q 698 1504 480 1363 
Q 422 1421 377 1533 
Q 333 1645 333 1747 
Q 333 2029 582 2205 
Q 832 2381 1210 2381 
Q 1414 2381 1603 2310 
Q 1792 2240 2029 2080 
Q 2317 1882 2560 1763 
Q 2803 1645 3136 1555 
Q 3302 1517 3500 1494 
Q 3699 1472 3936 1472 
L 3603 794 
Q 3405 813 3273 825 
Q 3142 838 2963 826 
Q 2739 806 2483 704 
Q 2227 602 1990 467 
Q 1741 320 1533 237 
Q 1325 154 1107 115 
Q 890 77 624 67 
Q 358 58 0 58 
z
M 1894 2873 
Q 1568 3142 1402 3334 
Q 1549 3481 1667 3606 
Q 1786 3731 1882 3846 
Q 1952 3769 2067 3654 
Q 2182 3539 2342 3385 
Q 2266 3277 2154 3149 
Q 2042 3021 1894 2873 
z
" transform="scale(0.015625)"/>
      <path id="NotoNaskhArabic-Bold-219" d="M 1248 -1248 
Q 1171 -1248 1011 -1174 
Q 851 -1101 668 -982 
Q 486 -864 326 -730 
L 429 -461 
Q 602 -506 778 -528 
Q 954 -550 1133 -550 
Q 1536 -550 1862 -380 
Q 2189 -211 2368 64 
Q 2093 83 1894 102 
Q 1696 122 1574 147 
Q 838 307 838 1018 
Q 838 1370 972 1712 
Q 1107 2054 1325 2266 
Q 1549 2477 1766 2477 
Q 2029 2477 2262 2240 
Q 2496 2003 2650 1626 
Q 2720 1446 2768 1241 
Q 2816 1037 2835 813 
L 3181 813 
Q 3232 813 3232 762 
L 3232 109 
Q 3232 58 3181 58 
L 2784 58 
Q 2669 -365 2419 -669 
Q 2170 -973 1843 -1120 
Q 1555 -1248 1248 -1248 
z
M 2419 819 
Q 2285 1254 2077 1484 
Q 1869 1715 1626 1715 
Q 1504 1715 1401 1651 
Q 1299 1587 1235 1498 
Q 1178 1402 1178 1293 
Q 1178 941 1805 858 
Q 1952 838 2419 819 
z
" transform="scale(0.015625)"/>
      <path id="NotoNaskhArabic-Bold-1bd" d="M 1606 -1613 
Q 1030 -1613 729 -1277 
Q 429 -941 429 -301 
Q 429 -134 470 96 
Q 512 326 589 627 
L 870 557 
Q 787 282 787 45 
Q 787 -858 1619 -858 
Q 1971 -858 2243 -797 
Q 2515 -736 2752 -595 
Q 2854 -538 2953 -458 
Q 3053 -378 3155 -288 
L 3014 461 
Q 2957 742 2886 1136 
Q 2816 1530 2742 1955 
Q 2669 2381 2608 2758 
Q 2547 3136 2508 3392 
Q 2470 3648 2470 3699 
Q 2470 3968 2675 4160 
Q 2880 4352 3162 4352 
Q 3219 4134 3283 3939 
Q 3347 3744 3418 3565 
L 3213 3411 
L 3405 1414 
Q 3437 1101 3462 861 
Q 3488 621 3501 406 
Q 3514 192 3514 -45 
Q 3514 -474 3258 -838 
Q 3002 -1203 2566 -1408 
Q 2349 -1510 2109 -1561 
Q 1869 -1613 1606 -1613 
z
" transform="scale(0.015625)"/>
      <path id="NotoNaskhArabic-Bold-106" d="M 1472 0 
Q 1165 0 736 205 
Q 608 141 406 99 
Q 205 58 0 58 
Q -51 58 -51 109 
L -51 762 
Q -51 813 0 813 
Q 294 813 441 851 
Q 589 890 678 979 
Q 749 1050 806 1142 
Q 864 1235 998 1466 
Q 1037 1536 1110 1581 
Q 1184 1626 1267 1626 
Q 1357 1626 1466 1555 
Q 1363 1286 1286 1091 
Q 1210 896 1158 781 
Q 1331 762 1504 762 
Q 1632 762 1734 778 
Q 1837 794 1965 832 
Q 2010 902 2093 1104 
Q 2176 1306 2317 1696 
Q 2349 1779 2432 1833 
Q 2515 1888 2630 1888 
Q 2765 1888 2854 1818 
Q 2778 1626 2710 1414 
Q 2643 1203 2586 992 
Q 2829 870 3133 806 
Q 3437 742 3782 704 
Q 3584 1094 3443 1376 
Q 3302 1658 3302 1798 
Q 3302 1952 3475 2141 
Q 3648 2330 3885 2451 
Q 3994 1907 4051 1603 
Q 4109 1299 4131 1145 
Q 4154 992 4154 909 
Q 4154 806 4112 633 
Q 4070 461 4006 288 
Q 3942 115 3885 0 
Q 3501 0 3097 89 
Q 2694 179 2355 326 
Q 2317 243 2278 173 
Q 2234 102 1994 51 
Q 1754 0 1472 0 
z
M 2324 2995 
Q 2189 3104 2093 3196 
Q 1997 3289 1933 3360 
Q 2068 3481 2160 3567 
Q 2253 3654 2304 3718 
Q 2375 3635 2467 3545 
Q 2560 3456 2676 3360 
Q 2541 3212 2451 3119 
Q 2362 3027 2324 2995 
z
M 2784 2444 
Q 2650 2553 2541 2652 
Q 2432 2752 2343 2848 
Q 2439 2937 2547 3046 
Q 2656 3155 2772 3289 
Q 2810 3244 2912 3148 
Q 3015 3052 3175 2899 
Q 3092 2777 2992 2665 
Q 2893 2553 2784 2444 
z
M 1895 2355 
Q 1607 2572 1460 2758 
Q 1568 2867 1677 2979 
Q 1786 3091 1895 3200 
Q 1946 3136 2045 3033 
Q 2144 2931 2285 2803 
Q 2189 2675 2093 2559 
Q 1997 2444 1895 2355 
z
" transform="scale(0.015625)"/>
      <path id="NotoNaskhArabic-Bold-d4" d="M 653 -1248 
Q 544 -1248 304 -1107 
Q 64 -966 -218 -730 
L -115 -461 
Q 243 -550 531 -550 
Q 1005 -550 1331 -313 
Q 1658 -77 1805 371 
Q 1760 467 1705 566 
Q 1651 666 1587 762 
Q 1299 1203 1203 1414 
Q 1107 1626 1107 1779 
Q 1107 1965 1254 2147 
Q 1402 2330 1638 2451 
Q 1670 2330 1705 2208 
Q 1741 2086 1786 1958 
Q 1926 1555 2006 1299 
Q 2086 1043 2106 934 
Q 2323 813 2586 813 
Q 2637 813 2637 762 
L 2637 109 
Q 2637 58 2586 58 
Q 2349 58 2112 179 
Q 2042 -243 1837 -566 
Q 1632 -890 1328 -1069 
Q 1024 -1248 653 -1248 
z
" transform="scale(0.015625)"/>
      <path id="NotoNaskhArabic-Bold-3" d="M 774 58 
Q 742 717 710 1216 
Q 678 1715 646 2134 
Q 614 2554 576 2950 
Q 538 3347 493 3808 
Q 474 3968 566 4089 
Q 659 4211 822 4281 
Q 986 4352 1178 4352 
Q 1229 4154 1296 3955 
Q 1363 3757 1440 3565 
L 1216 3398 
Q 1229 2867 1222 2035 
Q 1216 1203 1184 109 
L 774 58 
z
" transform="scale(0.015625)"/>
      <path id="NotoNaskhArabic-Bold-1" d="M 544 -205 
L 435 109 
Q 493 134 589 179 
Q 685 224 777 262 
Q 870 301 902 314 
Q 877 339 851 368 
Q 826 397 800 422 
Q 691 582 691 755 
Q 691 973 784 1209 
Q 877 1446 1040 1644 
Q 1203 1843 1408 1939 
Q 1536 1997 1664 1997 
Q 1914 1997 2090 1837 
Q 2266 1677 2266 1414 
Q 2266 1318 2230 1203 
Q 2195 1088 2112 998 
Q 1933 1050 1824 1114 
Q 1837 1152 1843 1187 
Q 1850 1222 1856 1267 
Q 1741 1312 1632 1312 
Q 1485 1312 1331 1232 
Q 1178 1152 1018 928 
Q 1107 813 1200 755 
Q 1293 698 1414 666 
Q 1472 646 1577 627 
Q 1683 608 1747 608 
Q 1792 621 1837 633 
Q 1882 646 1926 653 
Q 2042 678 2160 700 
Q 2278 723 2394 742 
Q 2451 755 2508 761 
Q 2566 768 2611 774 
Q 2662 717 2710 617 
Q 2758 518 2758 410 
Q 2758 262 2668 140 
Q 2579 19 2426 6 
Q 2285 -6 2080 -19 
Q 1875 -32 1632 -64 
Q 1402 -83 1142 -118 
Q 883 -154 544 -205 
z
" transform="scale(0.015625)"/>
      <path id="DejaVuSans-Bold-b" d="M 2413 -844 
L 1484 -844 
Q 1006 -72 778 623 
Q 550 1319 550 2003 
Q 550 2688 779 3389 
Q 1009 4091 1484 4856 
L 2413 4856 
Q 2013 4116 1813 3408 
Q 1613 2700 1613 2009 
Q 1613 1319 1811 609 
Q 2009 -100 2413 -844 
z
" transform="scale(0.015625)"/>
      <path id="NotoNaskhArabic-Bold-37" d="M 0 58 
Q -51 58 -51 109 
L -51 762 
Q -51 813 0 813 
Q 307 813 566 829 
Q 826 845 992 928 
Q 1120 992 1187 1104 
Q 1254 1216 1357 1421 
Q 1459 1632 1536 1680 
Q 1613 1728 1715 1728 
Q 1869 1728 1971 1638 
Q 1888 1427 1814 1264 
Q 1741 1101 1690 979 
Q 2003 813 2362 813 
Q 2413 813 2413 762 
L 2413 109 
Q 2413 58 2362 58 
Q 1875 58 1434 499 
L 1382 416 
Q 1203 179 883 118 
Q 563 58 0 58 
z
M 1664 2252 
Q 1529 2361 1420 2457 
Q 1312 2553 1222 2649 
Q 1459 2867 1651 3097 
Q 1708 3033 1810 2937 
Q 1913 2841 2054 2700 
Q 1881 2464 1664 2252 
z
M 806 2156 
Q 531 2380 364 2560 
Q 473 2668 582 2780 
Q 691 2892 800 3001 
Q 915 2867 1196 2604 
Q 1036 2374 806 2156 
z
" transform="scale(0.015625)"/>
      <path id="NotoNaskhArabic-Bold-167" d="M 1606 -1613 
Q 1037 -1613 736 -1277 
Q 435 -941 435 -301 
Q 435 32 595 627 
L 877 557 
Q 787 256 787 45 
Q 787 -858 1683 -858 
Q 2317 -858 2976 -493 
Q 3085 -429 3200 -355 
Q 3315 -282 3424 -198 
Q 3411 -51 3388 99 
Q 3366 250 3334 390 
Q 2938 0 2522 0 
Q 2125 0 1907 230 
Q 1690 461 1690 883 
Q 1690 1242 1824 1584 
Q 1958 1926 2176 2131 
Q 2400 2342 2630 2342 
Q 2950 2342 3238 2080 
Q 3526 1818 3686 1350 
Q 3846 890 3846 320 
Q 3846 -90 3676 -432 
Q 3507 -774 3194 -1037 
Q 2989 -1210 2717 -1338 
Q 2445 -1466 2160 -1539 
Q 1875 -1613 1606 -1613 
z
M 2650 704 
Q 2925 704 3219 800 
Q 3027 1331 2765 1498 
Q 2643 1574 2515 1574 
Q 2374 1574 2259 1500 
Q 2144 1427 2086 1318 
Q 2035 1203 2035 1094 
Q 2035 902 2195 803 
Q 2355 704 2650 704 
z
M 3060 2860 
Q 2925 2969 2816 3065 
Q 2708 3161 2618 3257 
Q 2855 3475 3047 3705 
Q 3104 3641 3206 3545 
Q 3309 3449 3450 3308 
Q 3277 3072 3060 2860 
z
M 2202 2764 
Q 1927 2988 1760 3168 
Q 1869 3276 1978 3388 
Q 2087 3500 2196 3609 
Q 2311 3475 2592 3212 
Q 2432 2982 2202 2764 
z
" transform="scale(0.015625)"/>
      <path id="DejaVuSans-Bold-c" d="M 513 -844 
Q 913 -100 1113 609 
Q 1313 1319 1313 2009 
Q 1313 2700 1113 3408 
Q 913 4116 513 4856 
L 1441 4856 
Q 1916 4091 2145 3389 
Q 2375 2688 2375 2003 
Q 2375 1319 2147 623 
Q 1919 -72 1441 -844 
L 513 -844 
z
" transform="scale(0.015625)"/>
     </defs>
     <use xlink:href="#NotoNaskhArabic-Bold-b5"/>
     <use xlink:href="#NotoNaskhArabic-Bold-a4" transform="translate(43.5 0)"/>
     <use xlink:href="#NotoNaskhArabic-Bold-219" transform="translate(108.40625 0)"/>
     <use xlink:href="#NotoNaskhArabic-Bold-1bd" transform="translate(157.203125 0)"/>
     <use xlink:href="#NotoNaskhArabic-Bold-554" transform="translate(218.40625 0)"/>
     <use xlink:href="#NotoNaskhArabic-Bold-106" transform="translate(240.5 0)"/>
     <use xlink:href="#NotoNaskhArabic-Bold-d4" transform="translate(310.5 0)"/>
     <use xlink:href="#NotoNaskhArabic-Bold-3" transform="translate(350 0)"/>
     <use xlink:href="#NotoNaskhArabic-Bold-1" transform="translate(378.40625 0)"/>
     <use xlink:href="#NotoNaskhArabic-Bold-554" transform="translate(423.609375 0)"/>
     <use xlink:href="#DejaVuSans-Bold-b" transform="translate(445.703125 0)"/>
     <use xlink:href="#NotoNaskhArabic-Bold-3" transform="translate(491.40625 0)"/>
     <use xlink:href="#NotoNaskhArabic-Bold-a4" transform="translate(519.8125 0)"/>
     <use xlink:href="#NotoNaskhArabic-Bold-37" transform="translate(584.71875 0)"/>
     <use xlink:href="#NotoNaskhArabic-Bold-d4" transform="translate(620.71875 0)"/>
     <use xlink:href="#NotoNaskhArabic-Bold-3" transform="translate(660.21875 0)"/>
     <use xlink:href="#NotoNaskhArabic-Bold-167" transform="translate(688.625 0)"/>
     <use xlink:href="#DejaVuSans-Bold-c" transform="translate(753.828125 0)"/>
     <use xlink:href="#NotoNaskhArabic-Bold-554" transform="translate(799.53125 0)"/>
    </g>
   </g>
   <g id="text_13">
    <!-- ​ﻑﺪﻫ -->
    <g style="fill: #1f8a56" transform="translate(428.132183 118.025331) scale(0.095 -0.095)">
     <defs>
      <path id="NotoNaskhArabic-Bold-200" d="M 2650 -58 
Q 2221 -45 1821 51 
Q 1421 147 1120 307 
Q 659 58 0 58 
Q -51 58 -51 109 
L -51 774 
Q -51 813 0 813 
Q 122 819 240 819 
Q 358 819 480 826 
Q 282 1088 282 1382 
Q 282 1555 352 1753 
Q 422 1952 544 2128 
Q 666 2304 806 2400 
L 992 3066 
Q 1517 2938 1974 2589 
Q 2432 2240 2701 1754 
Q 2976 1280 2976 800 
Q 2976 653 2886 419 
Q 2797 186 2650 -58 
z
M 1171 979 
Q 1299 1043 1382 1196 
Q 1466 1350 1466 1536 
Q 1466 1690 1363 1808 
Q 1261 1926 1146 1926 
Q 915 1926 742 1658 
Q 710 1606 675 1536 
Q 640 1466 608 1389 
Q 730 1261 870 1158 
Q 1011 1056 1171 979 
z
M 2618 640 
Q 2509 928 2393 1152 
Q 2278 1376 2144 1549 
Q 2074 1651 1990 1734 
Q 1907 1818 1818 1888 
Q 1882 1722 1882 1517 
Q 1882 1101 1683 800 
Q 1850 755 2086 716 
Q 2323 678 2618 640 
z
" transform="scale(0.015625)"/>
      <path id="NotoNaskhArabic-Bold-b6" d="M 1075 0 
Q 218 0 218 499 
Q 218 634 272 784 
Q 326 934 410 1018 
Q 570 890 774 826 
Q 979 762 1280 762 
Q 1466 762 1658 784 
Q 1850 806 2048 851 
Q 1798 1286 1648 1673 
Q 1498 2061 1498 2246 
Q 1498 2477 1613 2646 
Q 1728 2816 1946 2880 
Q 2074 2362 2208 1955 
Q 2342 1549 2490 1248 
Q 2611 1005 2758 909 
Q 2906 813 3162 813 
Q 3213 813 3213 762 
L 3213 109 
Q 3213 58 3162 58 
Q 2707 58 2413 352 
Q 1709 0 1075 0 
z
" transform="scale(0.015625)"/>
      <path id="NotoNaskhArabic-Bold-143" d="M 1965 0 
Q 1190 0 796 352 
Q 403 704 403 1363 
Q 403 1498 435 1674 
Q 467 1850 531 2067 
L 813 2067 
Q 794 1894 794 1747 
Q 794 1376 941 1171 
Q 1088 966 1389 864 
Q 1702 755 2195 755 
Q 3034 755 3725 857 
Q 4416 960 4826 1139 
Q 4806 1235 4777 1337 
Q 4749 1440 4710 1555 
Q 4531 1421 4297 1334 
Q 4064 1248 3834 1248 
Q 3501 1248 3296 1449 
Q 3091 1651 3091 1997 
Q 3091 2336 3219 2649 
Q 3347 2963 3546 3149 
Q 3757 3341 3974 3341 
Q 4275 3341 4556 3059 
Q 4838 2778 4998 2285 
Q 5158 1798 5158 1171 
Q 5158 1056 5084 861 
Q 5011 666 4934 518 
Q 4301 269 3542 134 
Q 2784 0 1965 0 
z
M 3955 1792 
Q 4218 1792 4563 1907 
Q 4403 2246 4217 2412 
Q 4032 2579 3840 2579 
Q 3680 2579 3552 2460 
Q 3424 2342 3424 2157 
Q 3424 2003 3581 1897 
Q 3738 1792 3955 1792 
z
M 3968 3769 
Q 3642 4038 3476 4230 
Q 3623 4377 3741 4502 
Q 3860 4627 3956 4742 
Q 4026 4665 4141 4550 
Q 4256 4435 4416 4281 
Q 4340 4173 4228 4045 
Q 4116 3917 3968 3769 
z
" transform="scale(0.015625)"/>
     </defs>
     <use xlink:href="#NotoNaskhArabic-Bold-200"/>
     <use xlink:href="#NotoNaskhArabic-Bold-b6" transform="translate(51.59375 0)"/>
     <use xlink:href="#NotoNaskhArabic-Bold-143" transform="translate(100.09375 0)"/>
     <use xlink:href="#NotoNaskhArabic-Bold-554" transform="translate(184.890625 0)"/>
    </g>
   </g>
   <g id="text_14">
    <!-- ​ﻢﺧﺯ + ﻯﻮﺘﺴﻤﻟﺍ ﺝﺭﺎﺧ ﺢﺿﺍﻭ ﻕﻼﻏﺇ -->
    <g style="fill: #b7791f" transform="translate(101.421665 205.679548) scale(0.085 -0.085)">
     <defs>
      <path id="NotoNaskhArabic-Bold-a" d="M 774 58 
Q 742 717 710 1216 
Q 678 1715 646 2134 
Q 614 2554 576 2950 
Q 538 3347 493 3808 
Q 474 3968 566 4089 
Q 659 4211 822 4281 
Q 986 4352 1178 4352 
Q 1229 4154 1296 3955 
Q 1363 3757 1440 3565 
L 1216 3398 
Q 1229 2867 1222 2035 
Q 1216 1203 1184 109 
L 774 58 
z
M 608 -1530 
L 595 -1267 
L 826 -1127 
Q 621 -1056 621 -883 
Q 621 -768 691 -649 
Q 762 -531 867 -454 
Q 973 -378 1069 -378 
Q 1306 -378 1306 -659 
Q 1306 -736 1274 -813 
L 1152 -787 
L 1152 -775 
Q 1152 -717 1075 -717 
Q 935 -717 851 -877 
Q 967 -992 1165 -992 
Q 1223 -992 1287 -982 
Q 1351 -973 1415 -960 
L 1389 -1248 
Q 1159 -1299 1002 -1353 
Q 845 -1408 608 -1530 
z
" transform="scale(0.015625)"/>
      <path id="NotoNaskhArabic-Bold-13e" d="M 0 58 
Q -51 58 -51 109 
L -51 762 
Q -51 813 0 813 
L 499 813 
Q 365 1005 365 1210 
Q 365 1408 441 1632 
Q 518 1856 652 2057 
Q 787 2259 947 2387 
Q 1190 2579 1440 2579 
Q 1875 2579 2406 1990 
L 2272 1728 
Q 2074 1805 1907 1840 
Q 1741 1875 1600 1875 
Q 1376 1875 1197 1827 
Q 1018 1779 819 1670 
Q 832 1434 921 1245 
Q 1011 1056 1190 928 
Q 1267 877 1338 838 
Q 1843 870 2240 953 
Q 2637 1037 3040 1197 
Q 3091 1152 3116 1056 
Q 3142 960 3142 883 
Q 3142 730 3072 602 
Q 3002 474 2874 410 
Q 2746 346 2259 250 
Q 1766 147 1235 102 
Q 704 58 0 58 
z
M 1401 3065 
Q 1075 3334 909 3526 
Q 1056 3673 1174 3798 
Q 1293 3923 1389 4038 
Q 1459 3961 1574 3846 
Q 1689 3731 1849 3577 
Q 1773 3469 1661 3341 
Q 1549 3213 1401 3065 
z
" transform="scale(0.015625)"/>
      <path id="NotoNaskhArabic-Bold-2df" d="M 410 19 
L 378 307 
Q 704 397 937 470 
Q 1171 544 1344 621 
Q 1510 691 1635 768 
Q 1760 845 1875 947 
Q 1658 1402 1379 1776 
Q 1101 2150 742 2490 
L 506 2490 
Q 339 2662 278 2793 
Q 218 2925 218 3072 
Q 218 3264 314 3376 
Q 410 3488 634 3558 
Q 1274 3149 1901 1786 
Q 1933 1715 1987 1574 
Q 2042 1434 2118 1222 
Q 2304 1498 2416 1821 
Q 2528 2144 2592 2573 
Q 2637 2854 2656 3190 
Q 2675 3526 2675 3923 
Q 2733 3955 2816 4009 
Q 2899 4064 3008 4134 
Q 3194 4256 3354 4352 
Q 3347 3501 3360 2665 
Q 3373 1830 3386 992 
Q 3546 896 3699 854 
Q 3853 813 4090 813 
Q 4147 813 4147 762 
L 4147 109 
Q 4147 58 4090 58 
Q 3219 58 3117 634 
Q 3059 992 3021 1651 
Q 3002 1901 2986 2109 
Q 2970 2317 2957 2477 
L 2938 2310 
Q 2906 1920 2864 1645 
Q 2822 1370 2784 1222 
Q 2624 678 2413 419 
Q 2202 160 1875 122 
Q 1498 77 1133 54 
Q 768 32 410 19 
z
" transform="scale(0.015625)"/>
      <path id="NotoNaskhArabic-Bold-11e" d="M 2592 0 
Q 2163 0 1699 80 
Q 1235 160 851 339 
Q 826 314 797 285 
Q 768 256 730 230 
Q 595 147 400 102 
Q 205 58 0 58 
Q -51 58 -51 109 
L -51 762 
Q -51 813 0 813 
Q 243 813 380 841 
Q 518 870 614 969 
Q 710 1069 826 1274 
Q 851 1318 880 1363 
Q 909 1408 934 1466 
Q 1030 1638 1222 1638 
Q 1318 1638 1427 1574 
Q 1363 1414 1302 1260 
Q 1242 1107 1178 954 
Q 1248 928 1312 909 
Q 1376 890 1440 864 
Q 2099 1741 2605 2150 
Q 3091 2560 3469 2560 
Q 3629 2560 3824 2464 
Q 4019 2368 4211 2214 
Q 4403 2061 4544 1882 
Q 4762 1619 4762 1446 
Q 4762 582 3699 192 
Q 3174 0 2592 0 
z
M 2656 704 
Q 3117 704 3520 813 
Q 3923 922 4390 1146 
Q 3814 1805 3309 1805 
Q 3027 1805 2652 1536 
Q 2278 1267 1862 774 
Q 2067 742 2265 723 
Q 2464 704 2656 704 
z
M 2604 3001 
Q 2278 3270 2112 3462 
Q 2259 3609 2377 3734 
Q 2496 3859 2592 3974 
Q 2662 3897 2777 3782 
Q 2892 3667 3052 3513 
Q 2976 3405 2864 3277 
Q 2752 3149 2604 3001 
z
" transform="scale(0.015625)"/>
      <path id="NotoNaskhArabic-Bold-8a" d="M 2368 -1862 
Q 1523 -1862 1097 -1465 
Q 672 -1069 672 -314 
Q 672 77 848 409 
Q 1024 742 1338 1005 
Q 1498 1133 1670 1238 
Q 1843 1344 2035 1421 
Q 1946 1453 1856 1485 
Q 1766 1517 1677 1549 
Q 1491 1613 1312 1613 
Q 1139 1613 992 1571 
Q 845 1530 582 1363 
Q 525 1421 480 1533 
Q 435 1645 435 1747 
Q 435 2035 662 2208 
Q 890 2381 1286 2381 
Q 1498 2381 1728 2326 
Q 1958 2272 2310 2144 
Q 2656 2016 2918 1961 
Q 3181 1907 3424 1907 
L 4006 1914 
L 3744 1197 
Q 3667 1190 3571 1184 
Q 3475 1178 3424 1178 
L 3232 1178 
Q 3341 998 3446 931 
Q 3552 864 3789 838 
Q 3891 826 4115 819 
Q 4339 813 4685 813 
Q 4742 813 4742 762 
L 4742 109 
Q 4742 58 4685 58 
Q 4070 58 3750 150 
Q 3430 243 3238 467 
Q 3046 698 2886 1197 
Q 2381 1101 1933 883 
Q 1485 666 1242 371 
Q 998 70 998 -250 
Q 998 -685 1360 -905 
Q 1722 -1126 2400 -1126 
Q 2861 -1126 3629 -954 
L 3718 -1229 
Q 3309 -1466 3053 -1603 
Q 2797 -1741 2640 -1801 
Q 2483 -1862 2368 -1862 
z
" transform="scale(0.015625)"/>
      <path id="NotoNaskhArabic-Bold-d3" d="M 653 -1248 
Q 544 -1248 304 -1107 
Q 64 -966 -218 -730 
L -115 -461 
Q 243 -550 531 -550 
Q 1005 -550 1331 -313 
Q 1658 -77 1805 371 
Q 1760 467 1705 566 
Q 1651 666 1587 762 
Q 1402 1050 1254 1312 
Q 1107 1574 1107 1779 
Q 1107 1965 1254 2147 
Q 1402 2330 1638 2451 
Q 1677 2317 1731 2137 
Q 1786 1958 1846 1782 
Q 1907 1606 1952 1472 
Q 2035 1235 2089 1004 
Q 2144 774 2144 570 
Q 2144 70 1952 -349 
Q 1760 -768 1421 -1011 
Q 1082 -1248 653 -1248 
z
" transform="scale(0.015625)"/>
      <path id="NotoNaskhArabic-Bold-71" d="M 2387 -1843 
Q 1574 -1843 1123 -1430 
Q 672 -1018 672 -282 
Q 672 134 848 515 
Q 1024 896 1357 1197 
Q 1504 1331 1670 1449 
Q 1837 1568 2035 1664 
Q 1818 1747 1635 1804 
Q 1453 1862 1274 1862 
Q 1088 1862 947 1808 
Q 806 1754 582 1613 
Q 525 1670 480 1782 
Q 435 1894 435 1997 
Q 435 2285 665 2454 
Q 896 2624 1286 2624 
Q 1498 2624 1728 2573 
Q 1958 2522 2310 2394 
Q 2656 2266 2918 2208 
Q 3181 2150 3424 2150 
L 4006 2163 
L 3744 1446 
Q 3661 1434 3517 1427 
Q 3373 1421 3225 1424 
Q 3078 1427 2970 1434 
Q 2758 1402 2508 1312 
Q 2259 1222 2022 1097 
Q 1786 973 1594 819 
Q 1312 595 1155 339 
Q 998 83 998 -186 
Q 998 -474 1177 -678 
Q 1357 -883 1673 -995 
Q 1990 -1107 2400 -1107 
Q 3066 -1107 3942 -909 
L 4032 -1178 
Q 3680 -1376 3353 -1526 
Q 3027 -1677 2774 -1760 
Q 2522 -1843 2387 -1843 
z
M 2471 -454 
Q 2298 -313 2176 -198 
Q 2055 -83 1971 7 
Q 2099 135 2221 259 
Q 2343 384 2458 519 
Q 2624 327 2919 58 
Q 2848 -44 2733 -175 
Q 2618 -307 2471 -454 
z
" transform="scale(0.015625)"/>
      <path id="NotoNaskhArabic-Bold-1c1" d="M 0 58 
Q -51 58 -51 109 
L -51 762 
Q -51 813 0 813 
Q 282 813 672 960 
Q 646 1146 624 1334 
Q 602 1523 570 1709 
Q 544 1894 441 2448 
Q 339 3002 173 3930 
Q 339 4045 534 4147 
Q 730 4250 934 4352 
Q 947 3827 960 3356 
Q 973 2886 986 2477 
Q 998 2067 1004 1718 
Q 1011 1370 1011 1069 
Q 1011 634 762 256 
Q 698 166 490 112 
Q 282 58 0 58 
z
" transform="scale(0.015625)"/>
      <path id="NotoNaskhArabic-Bold-1e4" d="M 2016 0 
Q 1606 0 1257 73 
Q 909 147 685 269 
Q 506 147 346 102 
Q 186 58 0 58 
Q -51 58 -51 109 
L -51 762 
Q -51 813 0 813 
Q 160 813 333 858 
Q 333 870 336 886 
Q 339 902 339 922 
Q 384 1261 573 1597 
Q 762 1933 1018 2131 
Q 1286 2342 1568 2342 
Q 1696 2342 1811 2176 
Q 1862 2093 1929 1942 
Q 1997 1792 2074 1581 
Q 2227 1133 2394 960 
Q 2528 813 2682 813 
Q 2752 813 2752 755 
L 2752 128 
Q 2752 58 2682 58 
Q 2362 58 2106 301 
L 2016 0 
z
M 1818 710 
Q 1606 1133 1549 1664 
Q 979 1440 698 1082 
Q 877 941 1155 851 
Q 1434 762 1818 710 
z
" transform="scale(0.015625)"/>
      <path id="NotoNaskhArabic-Bold-f9" d="M 1472 0 
Q 1165 0 736 205 
Q 608 141 406 99 
Q 205 58 0 58 
Q -51 58 -51 109 
L -51 762 
Q -51 813 0 813 
Q 294 813 441 851 
Q 589 890 678 979 
Q 749 1050 813 1149 
Q 877 1248 998 1466 
Q 1037 1536 1110 1581 
Q 1184 1626 1267 1626 
Q 1357 1626 1466 1555 
Q 1382 1363 1308 1171 
Q 1235 979 1158 781 
Q 1331 762 1504 762 
Q 1632 762 1709 771 
Q 1786 781 1965 832 
Q 2016 909 2096 1107 
Q 2176 1306 2317 1696 
Q 2349 1779 2432 1833 
Q 2515 1888 2630 1888 
Q 2765 1888 2854 1818 
Q 2816 1722 2736 1472 
Q 2656 1222 2509 742 
Q 2554 742 2595 742 
Q 2637 742 2682 736 
Q 2912 736 3142 806 
Q 3162 838 3194 915 
Q 3226 992 3283 1146 
Q 3322 1254 3379 1401 
Q 3437 1549 3507 1747 
Q 3546 1837 3632 1891 
Q 3718 1946 3827 1946 
Q 3942 1946 4045 1875 
Q 4006 1773 3942 1581 
Q 3878 1389 3750 986 
Q 4038 813 4518 813 
Q 4570 813 4570 762 
L 4570 109 
Q 4570 58 4518 58 
Q 4262 58 3993 170 
Q 3725 282 3578 442 
Q 3526 301 3468 201 
Q 3411 102 3226 51 
Q 3034 0 2758 0 
Q 2566 0 2240 141 
Q 2150 77 1923 38 
Q 1696 0 1472 0 
z
" transform="scale(0.015625)"/>
      <path id="NotoNaskhArabic-Bold-234" d="M 1606 -1613 
Q 1037 -1613 736 -1277 
Q 435 -941 435 -301 
Q 435 32 595 627 
L 877 557 
Q 787 256 787 45 
Q 787 -858 1683 -858 
Q 1965 -858 2291 -771 
Q 2618 -685 2931 -531 
Q 3078 -454 3222 -368 
Q 3366 -282 3494 -179 
Q 3418 -179 3344 -179 
Q 3270 -179 3200 -173 
Q 2362 -128 2093 230 
Q 1939 442 1939 762 
Q 1939 1005 2038 1267 
Q 2138 1530 2307 1776 
Q 2477 2022 2688 2202 
Q 3008 2464 3290 2464 
Q 3725 2464 3853 1638 
L 3571 1581 
Q 3475 1702 3366 1702 
Q 3194 1702 2976 1577 
Q 2758 1453 2560 1229 
Q 2374 1024 2266 755 
Q 2394 704 2582 665 
Q 2771 627 3021 595 
Q 3245 570 3376 525 
Q 3507 480 3603 403 
Q 3699 333 3760 179 
Q 3821 26 3821 -122 
Q 3821 -314 3667 -547 
Q 3514 -781 3242 -998 
Q 2970 -1216 2624 -1376 
Q 2125 -1613 1606 -1613 
z
" transform="scale(0.015625)"/>
      <path id="DejaVuSans-Bold-e" d="M 3053 4013 
L 3053 2375 
L 4684 2375 
L 4684 1638 
L 3053 1638 
L 3053 0 
L 2309 0 
L 2309 1638 
L 678 1638 
L 678 2375 
L 2309 2375 
L 2309 4013 
L 3053 4013 
z
" transform="scale(0.015625)"/>
      <path id="NotoNaskhArabic-Bold-d5" d="M 653 -1248 
Q 544 -1248 304 -1107 
Q 64 -966 -218 -730 
L -115 -461 
Q 243 -550 531 -550 
Q 1005 -550 1331 -313 
Q 1658 -77 1805 371 
Q 1760 467 1705 566 
Q 1651 666 1587 762 
Q 1402 1050 1254 1312 
Q 1107 1574 1107 1779 
Q 1107 1965 1254 2147 
Q 1402 2330 1638 2451 
Q 1677 2317 1731 2137 
Q 1786 1958 1846 1782 
Q 1907 1606 1952 1472 
Q 2035 1235 2089 1004 
Q 2144 774 2144 570 
Q 2144 70 1952 -349 
Q 1760 -768 1421 -1011 
Q 1082 -1248 653 -1248 
z
M 1286 2835 
Q 960 3104 794 3296 
Q 941 3443 1059 3568 
Q 1178 3693 1274 3808 
Q 1344 3731 1459 3616 
Q 1574 3501 1734 3347 
Q 1658 3239 1546 3111 
Q 1434 2983 1286 2835 
z
" transform="scale(0.015625)"/>
      <path id="NotoNaskhArabic-Bold-1e3" d="M 570 -1965 
Q 570 -1664 554 -1296 
Q 538 -928 506 -486 
Q 467 -45 451 240 
Q 435 525 435 653 
Q 435 723 493 896 
Q 525 979 576 1107 
Q 627 1235 704 1402 
Q 723 1434 857 1539 
Q 992 1645 1181 1776 
Q 1370 1907 1542 2010 
Q 1811 2157 2054 2249 
Q 2298 2342 2477 2342 
Q 2592 2342 2678 2227 
Q 2765 2112 2842 1946 
Q 2874 1862 2912 1769 
Q 2950 1677 2982 1581 
Q 3053 1382 3139 1209 
Q 3226 1037 3328 928 
Q 3437 813 3590 813 
Q 3661 813 3661 755 
L 3661 128 
Q 3661 58 3590 58 
Q 3277 58 3014 301 
L 2931 0 
Q 2445 0 2064 93 
Q 1683 186 1462 362 
Q 1242 538 1242 774 
Q 1242 998 1318 1216 
Q 1242 1171 1117 1081 
Q 992 992 819 864 
Q 870 531 928 182 
Q 986 -166 1069 -672 
Q 1120 -979 1158 -1212 
Q 1197 -1446 1216 -1600 
Q 877 -1856 570 -1965 
z
M 2726 710 
Q 2515 1133 2458 1664 
Q 1920 1453 1606 1082 
Q 1939 806 2726 710 
z
" transform="scale(0.015625)"/>
     </defs>
     <use xlink:href="#NotoNaskhArabic-Bold-a"/>
     <use xlink:href="#NotoNaskhArabic-Bold-13e" transform="translate(28.40625 0)"/>
     <use xlink:href="#NotoNaskhArabic-Bold-2df" transform="translate(80.109375 0)"/>
     <use xlink:href="#NotoNaskhArabic-Bold-167" transform="translate(143.203125 0)"/>
     <use xlink:href="#NotoNaskhArabic-Bold-554" transform="translate(208.40625 0)"/>
     <use xlink:href="#NotoNaskhArabic-Bold-218" transform="translate(230.5 0)"/>
     <use xlink:href="#NotoNaskhArabic-Bold-3" transform="translate(280.203125 0)"/>
     <use xlink:href="#NotoNaskhArabic-Bold-11e" transform="translate(308.609375 0)"/>
     <use xlink:href="#NotoNaskhArabic-Bold-8a" transform="translate(388.109375 0)"/>
     <use xlink:href="#NotoNaskhArabic-Bold-554" transform="translate(460.515625 0)"/>
     <use xlink:href="#NotoNaskhArabic-Bold-a4" transform="translate(482.609375 0)"/>
     <use xlink:href="#NotoNaskhArabic-Bold-4" transform="translate(547.515625 0)"/>
     <use xlink:href="#NotoNaskhArabic-Bold-d3" transform="translate(576.3125 0)"/>
     <use xlink:href="#NotoNaskhArabic-Bold-71" transform="translate(614.015625 0)"/>
     <use xlink:href="#NotoNaskhArabic-Bold-554" transform="translate(679.515625 0)"/>
     <use xlink:href="#NotoNaskhArabic-Bold-3" transform="translate(701.609375 0)"/>
     <use xlink:href="#NotoNaskhArabic-Bold-1c1" transform="translate(730.015625 0)"/>
     <use xlink:href="#NotoNaskhArabic-Bold-1e4" transform="translate(751.71875 0)"/>
     <use xlink:href="#NotoNaskhArabic-Bold-f9" transform="translate(793.015625 0)"/>
     <use xlink:href="#NotoNaskhArabic-Bold-37" transform="translate(862.71875 0)"/>
     <use xlink:href="#NotoNaskhArabic-Bold-219" transform="translate(898.71875 0)"/>
     <use xlink:href="#NotoNaskhArabic-Bold-234" transform="translate(947.515625 0)"/>
     <use xlink:href="#NotoNaskhArabic-Bold-554" transform="translate(1011.109375 0)"/>
     <use xlink:href="#DejaVuSans-Bold-e" transform="translate(1033.203125 0)"/>
     <use xlink:href="#NotoNaskhArabic-Bold-554" transform="translate(1117 0)"/>
     <use xlink:href="#NotoNaskhArabic-Bold-d5" transform="translate(1139.09375 0)"/>
     <use xlink:href="#NotoNaskhArabic-Bold-a4" transform="translate(1176.796875 0)"/>
     <use xlink:href="#NotoNaskhArabic-Bold-1e3" transform="translate(1241.703125 0)"/>
     <use xlink:href="#NotoNaskhArabic-Bold-554" transform="translate(1297.203125 0)"/>
    </g>
   </g>
   <g id="patch_5">
    <path d="M 31.459138 261.801663 
L 40.460165 261.801663 
L 40.460165 254.39891 
L 31.459138 254.39891 
z
" clip-path="url(#p35569db9de)" style="fill: #b91c1c; stroke: #b91c1c; stroke-linejoin: miter"/>
   </g>
   <g id="patch_6">
    <path d="M 47.824641 264.083526 
L 56.825668 264.083526 
L 56.825668 257.445585 
L 47.824641 257.445585 
z
" clip-path="url(#p35569db9de)" style="fill: #1f8a56; stroke: #1f8a56; stroke-linejoin: miter"/>
   </g>
   <g id="patch_7">
    <path d="M 64.190145 257.955692 
L 73.191172 257.955692 
L 73.191172 251.31775 
L 64.190145 251.31775 
z
" clip-path="url(#p35569db9de)" style="fill: #1f8a56; stroke: #1f8a56; stroke-linejoin: miter"/>
   </g>
   <g id="patch_8">
    <path d="M 80.555648 252.068289 
L 89.556675 252.068289 
L 89.556675 245.430347 
L 80.555648 245.430347 
z
" clip-path="url(#p35569db9de)" style="fill: #1f8a56; stroke: #1f8a56; stroke-linejoin: miter"/>
   </g>
   <g id="patch_9">
    <path d="M 96.921152 251.578423 
L 105.922179 251.578423 
L 105.922179 244.940482 
L 96.921152 244.940482 
z
" clip-path="url(#p35569db9de)" style="fill: #b91c1c; stroke: #b91c1c; stroke-linejoin: miter"/>
   </g>
   <g id="patch_10">
    <path d="M 113.286655 255.7937 
L 122.287682 255.7937 
L 122.287682 247.642893 
L 113.286655 247.642893 
z
" clip-path="url(#p35569db9de)" style="fill: #1f8a56; stroke: #1f8a56; stroke-linejoin: miter"/>
   </g>
   <g id="patch_11">
    <path d="M 129.652159 246.222295 
L 138.653186 246.222295 
L 138.653186 239.584353 
L 129.652159 239.584353 
z
" clip-path="url(#p35569db9de)" style="fill: #1f8a56; stroke: #1f8a56; stroke-linejoin: miter"/>
   </g>
   <g id="patch_12">
    <path d="M 146.017662 245.383268 
L 155.018689 245.383268 
L 155.018689 238.745327 
L 146.017662 238.745327 
z
" clip-path="url(#p35569db9de)" style="fill: #b91c1c; stroke: #b91c1c; stroke-linejoin: miter"/>
   </g>
   <g id="patch_13">
    <path d="M 162.383166 249.389798 
L 171.384193 249.389798 
L 171.384193 242.751857 
L 162.383166 242.751857 
z
" clip-path="url(#p35569db9de)" style="fill: #b91c1c; stroke: #b91c1c; stroke-linejoin: miter"/>
   </g>
   <g id="patch_14">
    <path d="M 178.748669 249.162186 
L 187.749696 249.162186 
L 187.749696 242.524244 
L 178.748669 242.524244 
z
" clip-path="url(#p35569db9de)" style="fill: #1f8a56; stroke: #1f8a56; stroke-linejoin: miter"/>
   </g>
   <g id="patch_15">
    <path d="M 195.114173 244.604227 
L 204.1152 244.604227 
L 204.1152 237.966285 
L 195.114173 237.966285 
z
" clip-path="url(#p35569db9de)" style="fill: #1f8a56; stroke: #1f8a56; stroke-linejoin: miter"/>
   </g>
   <g id="patch_16">
    <path d="M 211.479676 242.232388 
L 220.480703 242.232388 
L 220.480703 235.594447 
L 211.479676 235.594447 
z
" clip-path="url(#p35569db9de)" style="fill: #1f8a56; stroke: #1f8a56; stroke-linejoin: miter"/>
   </g>
   <g id="patch_17">
    <path d="M 227.84518 238.023211 
L 236.846207 238.023211 
L 236.846207 231.38527 
L 227.84518 231.38527 
z
" clip-path="url(#p35569db9de)" style="fill: #1f8a56; stroke: #1f8a56; stroke-linejoin: miter"/>
   </g>
   <g id="patch_18">
    <path d="M 244.210683 242.452772 
L 253.21171 242.452772 
L 253.21171 233.482815 
L 244.210683 233.482815 
z
" clip-path="url(#p35569db9de)" style="fill: #b91c1c; stroke: #b91c1c; stroke-linejoin: miter"/>
   </g>
   <g id="patch_19">
    <path d="M 260.576187 244.710507 
L 269.577214 244.710507 
L 269.577214 238.072566 
L 260.576187 238.072566 
z
" clip-path="url(#p35569db9de)" style="fill: #b91c1c; stroke: #b91c1c; stroke-linejoin: miter"/>
   </g>
   <g id="patch_20">
    <path d="M 276.941691 243.1103 
L 285.942717 243.1103 
L 285.942717 236.472358 
L 276.941691 236.472358 
z
" clip-path="url(#p35569db9de)" style="fill: #1f8a56; stroke: #1f8a56; stroke-linejoin: miter"/>
   </g>
   <g id="patch_21">
    <path d="M 293.307194 242.796104 
L 302.308221 242.796104 
L 302.308221 219.618781 
L 293.307194 219.618781 
z
" clip-path="url(#p35569db9de)" style="fill: #1f8a56; stroke: #1f8a56; stroke-linejoin: miter"/>
   </g>
   <g id="patch_22">
    <path d="M 309.672698 218.972142 
L 318.673725 218.972142 
L 318.673725 200.052641 
L 309.672698 200.052641 
z
" clip-path="url(#p35569db9de)" style="fill: #1f8a56; stroke: #1f8a56; stroke-linejoin: miter"/>
   </g>
   <g id="patch_23">
    <path d="M 326.038201 204.914758 
L 335.039228 204.914758 
L 335.039228 198.276816 
L 326.038201 198.276816 
z
" clip-path="url(#p35569db9de)" style="fill: #1f8a56; stroke: #1f8a56; stroke-linejoin: miter"/>
   </g>
   <g id="patch_24">
    <path d="M 342.403705 202.093334 
L 351.404732 202.093334 
L 351.404732 178.131352 
L 342.403705 178.131352 
z
" clip-path="url(#p35569db9de)" style="fill: #1f8a56; stroke: #1f8a56; stroke-linejoin: miter"/>
   </g>
   <g id="patch_25">
    <path d="M 358.769208 176.939622 
L 367.770235 176.939622 
L 367.770235 161.608553 
L 358.769208 161.608553 
z
" clip-path="url(#p35569db9de)" style="fill: #1f8a56; stroke: #1f8a56; stroke-linejoin: miter"/>
   </g>
   <g id="patch_26">
    <path d="M 375.134712 155.862653 
L 384.135739 155.862653 
L 384.135739 149.224712 
L 375.134712 149.224712 
z
" clip-path="url(#p35569db9de)" style="fill: #1f8a56; stroke: #1f8a56; stroke-linejoin: miter"/>
   </g>
   <g id="patch_27">
    <path d="M 391.500215 151.139358 
L 400.501242 151.139358 
L 400.501242 144.501416 
L 391.500215 144.501416 
z
" clip-path="url(#p35569db9de)" style="fill: #1f8a56; stroke: #1f8a56; stroke-linejoin: miter"/>
   </g>
   <g id="patch_28">
    <path d="M 407.865719 150.852857 
L 416.866746 150.852857 
L 416.866746 133.350009 
L 407.865719 133.350009 
z
" clip-path="url(#p35569db9de)" style="fill: #1f8a56; stroke: #1f8a56; stroke-linejoin: miter"/>
   </g>
   <g id="patch_29">
    <path d="M 424.231222 138.485273 
L 433.232249 138.485273 
L 433.232249 131.783182 
L 424.231222 131.783182 
z
" clip-path="url(#p35569db9de)" style="fill: #b91c1c; stroke: #b91c1c; stroke-linejoin: miter"/>
   </g>
   <g id="patch_30">
    <path d="M 440.596726 135.257681 
L 449.597753 135.257681 
L 449.597753 119.073722 
L 440.596726 119.073722 
z
" clip-path="url(#p35569db9de)" style="fill: #1f8a56; stroke: #1f8a56; stroke-linejoin: miter"/>
   </g>
   <g id="patch_31">
    <path d="M 456.962229 117.058687 
L 465.963256 117.058687 
L 465.963256 94.470883 
L 456.962229 94.470883 
z
" clip-path="url(#p35569db9de)" style="fill: #1f8a56; stroke: #1f8a56; stroke-linejoin: miter"/>
   </g>
   <g id="patch_32">
    <path d="M 473.327733 92.425814 
L 482.32876 92.425814 
L 482.32876 84.73994 
L 473.327733 84.73994 
z
" clip-path="url(#p35569db9de)" style="fill: #1f8a56; stroke: #1f8a56; stroke-linejoin: miter"/>
   </g>
   <g id="patch_33">
    <path d="M 489.693236 86.145148 
L 498.694263 86.145148 
L 498.694263 79.276733 
L 489.693236 79.276733 
z
" clip-path="url(#p35569db9de)" style="fill: #1f8a56; stroke: #1f8a56; stroke-linejoin: miter"/>
   </g>
   <g id="patch_34">
    <path d="M 506.05874 79.524199 
L 515.059767 79.524199 
L 515.059767 60.801382 
L 506.05874 60.801382 
z
" clip-path="url(#p35569db9de)" style="fill: #1f8a56; stroke: #1f8a56; stroke-linejoin: miter"/>
   </g>
   <g id="patch_35">
    <path d="M 522.424243 72.119565 
L 531.42527 72.119565 
L 531.42527 57.301055 
L 522.424243 57.301055 
z
" clip-path="url(#p35569db9de)" style="fill: #b91c1c; stroke: #b91c1c; stroke-linejoin: miter"/>
   </g>
   <g id="patch_36">
    <path d="M 538.789747 67.638061 
L 547.790774 67.638061 
L 547.790774 50.438598 
L 538.789747 50.438598 
z
" clip-path="url(#p35569db9de)" style="fill: #1f8a56; stroke: #1f8a56; stroke-linejoin: miter"/>
   </g>
   <g id="patch_37">
    <path d="M 332.178112 197.471697 
Q 436.914361 124.52613 539.632224 52.986307 
" clip-path="url(#p35569db9de)" style="fill: none; stroke: #1f8a56; stroke-width: 2.2; stroke-linecap: round"/>
    <path d="M 532.551591 54.01812 
L 539.632224 52.986307 
L 536.209295 59.269901 
z
" clip-path="url(#p35569db9de)" style="fill: #1f8a56; stroke: #1f8a56; stroke-width: 2.2; stroke-linecap: round"/>
   </g>
   <g id="line2d_50">
    <path d="M 314.173211 194.389884 
" clip-path="url(#p35569db9de)" style="fill: none; stroke: #1f2937; stroke-width: 1.5; stroke-linecap: square"/>
    <defs>
     <path id="m8949fda528" d="M -0 3.5 
L 3.5 -3.5 
L -3.5 -3.5 
z
" style="stroke: #1f2937; stroke-linejoin: miter"/>
    </defs>
    <g clip-path="url(#p35569db9de)">
     <use xlink:href="#m8949fda528" x="314.173211" y="194.389884" style="fill: #1f2937; stroke: #1f2937; stroke-linejoin: miter"/>
    </g>
   </g>
  </g>
 </g>
 <defs>
  <clipPath id="p35569db9de">
   <rect x="19.594148" y="7.2" width="540.061616" height="300.92"/>
  </clipPath>
 </defs>
</svg>
