<?xml version="1.0" encoding="utf-8" standalone="no"?>
<!DOCTYPE svg PUBLIC "-//W3C//DTD SVG 1.1//EN"
  "http://www.w3.org/Graphics/SVG/1.1/DTD/svg11.dtd">
<svg xmlns:xlink="http://www.w3.org/1999/xlink" width="626.810251pt" height="340.35pt" viewBox="0 0 626.810251 340.35" xmlns="http://www.w3.org/2000/svg" version="1.1">
 <metadata>
  <rdf:RDF xmlns:dc="http://purl.org/dc/elements/1.1/" xmlns:cc="http://creativecommons.org/ns#" xmlns:rdf="http://www.w3.org/1999/02/22-rdf-syntax-ns#">
   <cc:Work>
    <dc:type rdf:resource="http://purl.org/dc/dcmitype/StillImage"/>
    <dc:date>2026-07-18T23:13:41.105261</dc:date>
    <dc:format>image/svg+xml</dc:format>
    <dc:creator>
     <cc:Agent>
      <dc:title>Matplotlib v3.11.1, https://matplotlib.org/</dc:title>
     </cc:Agent>
    </dc:creator>
   </cc:Work>
  </rdf:RDF>
 </metadata>
 <defs>
  <style type="text/css">*{stroke-linejoin: round; stroke-linecap: butt}</style>
 </defs>
 <g id="figure_1">
  <g id="patch_1">
   <path d="M 0 340.35 
L 626.810251 340.35 
L 626.810251 0 
L 0 0 
z
" style="fill: #ffffff"/>
  </g>
  <g id="axes_1">
   <g id="patch_2">
    <path d="M 57.248984 308.12 
L 605.317875 308.12 
L 605.317875 7.2 
L 57.248984 7.2 
z
" style="fill: #ffffff"/>
   </g>
   <g id="matplotlib.axis_1">
    <g id="text_1">
     <!-- ﻦﻣﺰﻟﺍ -->
     <g style="fill: #1f2937" transform="translate(321.80843 326.81) scale(0.1 -0.1)">
      <defs>
       <path id="NotoNaskhArabic-Regular-3" d="M 666 0 
Q 646 1126 604 2057 
Q 563 2989 493 3725 
Q 467 3987 566 4118 
Q 666 4250 915 4294 
Q 941 4173 1001 3965 
Q 1062 3757 1139 3533 
L 966 3386 
Q 992 2912 1001 2413 
Q 1011 1914 1001 1338 
Q 992 762 960 51 
L 666 0 
z
" transform="scale(0.015625)"/>
       <path id="NotoNaskhArabic-Regular-1c1" d="M -6 0 
Q -64 0 -64 51 
L -64 435 
Q -64 486 -6 486 
Q 378 486 704 659 
Q 685 902 665 1139 
Q 646 1376 627 1606 
Q 570 2208 512 2790 
Q 454 3373 384 3936 
Q 474 4032 579 4121 
Q 685 4211 806 4294 
Q 826 3949 851 3497 
Q 877 3046 915 2483 
Q 947 2016 960 1609 
Q 973 1203 979 864 
Q 979 755 915 572 
Q 851 390 755 224 
Q 640 0 -6 0 
z
" transform="scale(0.015625)"/>
       <path id="NotoNaskhArabic-Regular-d6" d="M 710 -1306 
Q 608 -1306 451 -1248 
Q 294 -1190 134 -1107 
Q -26 -1024 -128 -947 
L -45 -736 
Q 134 -768 284 -787 
Q 435 -806 563 -806 
Q 1043 -806 1385 -518 
Q 1728 -230 1907 314 
Q 1862 416 1814 515 
Q 1766 614 1709 717 
Q 1491 1107 1388 1340 
Q 1286 1574 1286 1734 
Q 1286 1901 1382 2000 
Q 1478 2099 1658 2182 
Q 1683 2099 1712 2000 
Q 1741 1901 1786 1792 
Q 1888 1530 1955 1334 
Q 2022 1139 2054 1018 
Q 2093 896 2115 797 
Q 2138 698 2144 614 
Q 2362 486 2643 486 
Q 2694 486 2694 435 
L 2694 51 
Q 2694 0 2643 0 
Q 2342 0 2118 154 
Q 2048 -288 1849 -617 
Q 1651 -947 1356 -1126 
Q 1062 -1306 710 -1306 
z
M 1299 2560 
Q 1018 2771 839 2976 
Q 1165 3303 1287 3443 
Q 1389 3335 1494 3229 
Q 1600 3123 1709 3027 
Q 1562 2816 1299 2560 
z
" transform="scale(0.015625)"/>
       <path id="NotoNaskhArabic-Regular-1e5" d="M 2291 0 
Q 2035 0 1753 48 
Q 1472 96 1209 182 
Q 947 269 749 384 
Q 602 179 422 89 
Q 243 0 0 0 
Q -51 0 -51 51 
L -51 435 
Q -51 486 0 486 
Q 243 486 409 604 
Q 576 723 698 960 
Q 813 1171 880 1308 
Q 947 1446 1004 1555 
Q 1062 1664 1152 1779 
Q 1312 1990 1478 2083 
Q 1645 2176 1830 2176 
Q 2016 2176 2201 1945 
Q 2387 1715 2502 1357 
Q 2618 1005 2618 666 
Q 2618 467 2547 307 
Q 2477 147 2291 0 
z
M 2150 486 
Q 2144 781 2061 1065 
Q 1978 1350 1875 1498 
Q 1805 1606 1728 1606 
Q 1491 1606 1286 1318 
Q 1235 1242 1161 1117 
Q 1088 992 998 806 
Q 1459 563 2150 486 
z
" transform="scale(0.015625)"/>
       <path id="NotoNaskhArabic-Regular-1e8" d="M 1594 -1677 
Q 1050 -1677 742 -1363 
Q 435 -1050 435 -474 
Q 435 -346 444 -237 
Q 454 -128 480 9 
Q 506 147 557 358 
L 794 301 
Q 723 6 723 -154 
Q 723 -621 956 -883 
Q 1190 -1146 1606 -1146 
Q 1926 -1146 2249 -1040 
Q 2573 -934 2829 -752 
Q 3085 -570 3187 -346 
Q 2976 109 2873 416 
Q 2771 723 2771 877 
Q 2771 1043 2864 1174 
Q 2957 1306 3187 1446 
Q 3200 1344 3235 1133 
Q 3270 922 3334 595 
Q 3565 486 3802 486 
Q 3859 486 3859 435 
L 3859 51 
Q 3859 0 3802 0 
Q 3590 0 3418 77 
L 3424 -109 
Q 3424 -499 3174 -860 
Q 2925 -1222 2490 -1446 
Q 2061 -1677 1594 -1677 
z
M 1766 1504 
Q 1485 1715 1306 1920 
Q 1632 2247 1754 2387 
Q 1856 2279 1961 2173 
Q 2067 2067 2176 1971 
Q 2029 1760 1766 1504 
z
" transform="scale(0.015625)"/>
      </defs>
      <use xlink:href="#NotoNaskhArabic-Regular-3"/>
      <use xlink:href="#NotoNaskhArabic-Regular-1c1" transform="translate(23.796875 0)"/>
      <use xlink:href="#NotoNaskhArabic-Regular-d6" transform="translate(45 0)"/>
      <use xlink:href="#NotoNaskhArabic-Regular-1e5" transform="translate(85.40625 0)"/>
      <use xlink:href="#NotoNaskhArabic-Regular-1e8" transform="translate(131 0)"/>
     </g>
    </g>
   </g>
   <g id="matplotlib.axis_2">
    <g id="ytick_1">
     <g id="line2d_1">
      <path d="M 57.248984 307.255909 
L 605.317875 307.255909 
" clip-path="url(#p0a010e7db2)" style="fill: none; stroke: #e6e1d6; stroke-width: 0.8; stroke-linecap: square"/>
     </g>
     <g id="line2d_2">
      <defs>
       <path id="ma3ce03bf38" d="M 0 0 
L -3.5 0 
" style="stroke: #555555; stroke-width: 0.8"/>
      </defs>
      <g>
       <use xlink:href="#ma3ce03bf38" x="57.248984" y="307.255909" style="fill: #555555; stroke: #555555; stroke-width: 0.8"/>
      </g>
     </g>
     <g id="text_2">
      <!-- 98 -->
      <g style="fill: #555555" transform="translate(38.236328 312.868159) scale(0.105 -0.105)">
       <defs>
        <path id="NotoNaskhArabic-Regular-4d5" d="M 1229 -64 
Q 851 -64 653 0 
L 653 480 
Q 883 397 1216 397 
Q 1728 397 2057 601 
Q 2387 806 2560 1197 
Q 2650 1395 2701 1654 
Q 2752 1914 2758 2240 
L 2720 2240 
Q 2362 1709 1632 1709 
Q 1030 1709 675 2077 
Q 320 2445 320 3091 
Q 320 3565 499 3910 
Q 678 4256 1008 4445 
Q 1338 4634 1779 4634 
Q 2246 4634 2598 4394 
Q 2950 4154 3136 3699 
Q 3328 3238 3328 2618 
Q 3328 -64 1229 -64 
z
M 1754 2157 
Q 2035 2157 2265 2269 
Q 2496 2381 2630 2579 
Q 2758 2778 2758 2989 
Q 2758 3302 2636 3571 
Q 2515 3840 2291 4000 
Q 2074 4160 1779 4160 
Q 1350 4160 1113 3881 
Q 877 3603 877 3098 
Q 877 2643 1101 2400 
Q 1325 2157 1754 2157 
z
" transform="scale(0.015625)"/>
        <path id="NotoNaskhArabic-Regular-4d4" d="M 1843 -64 
Q 1114 -64 714 256 
Q 314 576 314 1165 
Q 314 1946 1261 2387 
Q 832 2630 646 2912 
Q 461 3194 461 3546 
Q 461 4045 832 4339 
Q 1203 4634 1824 4634 
Q 2451 4634 2822 4342 
Q 3194 4051 3194 3539 
Q 3194 3200 2986 2928 
Q 2778 2656 2323 2419 
Q 2874 2150 3107 1856 
Q 3341 1562 3341 1184 
Q 3341 621 2937 278 
Q 2534 -64 1843 -64 
z
M 1850 2637 
Q 2278 2816 2457 3030 
Q 2637 3245 2637 3520 
Q 2637 3834 2416 4006 
Q 2195 4179 1818 4179 
Q 1446 4179 1228 4003 
Q 1011 3827 1011 3520 
Q 1011 3322 1094 3171 
Q 1178 3021 1338 2906 
Q 1498 2784 1850 2637 
z
M 1830 384 
Q 2278 384 2534 595 
Q 2790 806 2790 1178 
Q 2790 1478 2547 1712 
Q 2304 1946 1728 2157 
Q 1280 1965 1072 1728 
Q 864 1491 864 1158 
Q 864 800 1123 592 
Q 1382 384 1830 384 
z
" transform="scale(0.015625)"/>
       </defs>
       <use xlink:href="#NotoNaskhArabic-Regular-4d5"/>
       <use xlink:href="#NotoNaskhArabic-Regular-4d4" transform="translate(57.203125 0)"/>
      </g>
     </g>
    </g>
    <g id="ytick_2">
     <g id="line2d_3">
      <path d="M 57.248984 253.059112 
L 605.317875 253.059112 
" clip-path="url(#p0a010e7db2)" style="fill: none; stroke: #e6e1d6; stroke-width: 0.8; stroke-linecap: square"/>
     </g>
     <g id="line2d_4">
      <g>
       <use xlink:href="#ma3ce03bf38" x="57.248984" y="253.059112" style="fill: #555555; stroke: #555555; stroke-width: 0.8"/>
      </g>
     </g>
     <g id="text_3">
      <!-- 100 -->
      <g style="fill: #555555" transform="translate(32.23 258.671362) scale(0.105 -0.105)">
       <defs>
        <path id="NotoNaskhArabic-Regular-4cd" d="M 1722 0 
L 1722 3194 
Q 1722 3405 1728 3603 
Q 1734 3802 1747 3981 
Q 1702 3936 1657 3891 
Q 1613 3846 1562 3808 
Q 1402 3674 1226 3530 
Q 1050 3386 864 3232 
L 570 3610 
L 1805 4570 
L 2272 4570 
L 2272 0 
L 1722 0 
z
" transform="scale(0.015625)"/>
        <path id="NotoNaskhArabic-Regular-4cc" d="M 1824 -64 
Q 1082 -64 698 534 
Q 314 1133 314 2291 
Q 314 3488 682 4064 
Q 1050 4640 1824 4640 
Q 2566 4640 2956 4038 
Q 3347 3437 3347 2291 
Q 3347 1101 2969 518 
Q 2592 -64 1824 -64 
z
M 1824 416 
Q 2208 416 2426 678 
Q 2778 1094 2778 2291 
Q 2778 3571 2368 3962 
Q 2163 4160 1824 4160 
Q 1427 4160 1203 3878 
Q 877 3469 877 2291 
Q 877 1075 1229 666 
Q 1440 416 1824 416 
z
" transform="scale(0.015625)"/>
       </defs>
       <use xlink:href="#NotoNaskhArabic-Regular-4cd"/>
       <use xlink:href="#NotoNaskhArabic-Regular-4cc" transform="translate(57.203125 0)"/>
       <use xlink:href="#NotoNaskhArabic-Regular-4cc" transform="translate(114.40625 0)"/>
      </g>
     </g>
    </g>
    <g id="ytick_3">
     <g id="line2d_5">
      <path d="M 57.248984 198.862315 
L 605.317875 198.862315 
" clip-path="url(#p0a010e7db2)" style="fill: none; stroke: #e6e1d6; stroke-width: 0.8; stroke-linecap: square"/>
     </g>
     <g id="line2d_6">
      <g>
       <use xlink:href="#ma3ce03bf38" x="57.248984" y="198.862315" style="fill: #555555; stroke: #555555; stroke-width: 0.8"/>
      </g>
     </g>
     <g id="text_4">
      <!-- 102 -->
      <g style="fill: #555555" transform="translate(32.23 204.474565) scale(0.105 -0.105)">
       <defs>
        <path id="NotoNaskhArabic-Regular-4ce" d="M 307 0 
L 307 467 
L 1504 1677 
Q 1773 1952 1952 2147 
Q 2131 2342 2221 2458 
Q 2413 2720 2489 2925 
Q 2566 3130 2566 3386 
Q 2566 3744 2352 3949 
Q 2138 4154 1760 4154 
Q 1478 4154 1228 4058 
Q 979 3962 659 3718 
L 358 4096 
Q 1005 4634 1760 4634 
Q 2240 4634 2576 4448 
Q 2912 4262 3053 3923 
Q 3142 3686 3142 3418 
Q 3142 3123 3033 2841 
Q 2925 2560 2707 2272 
Q 2598 2131 2416 1929 
Q 2234 1728 1971 1478 
L 1018 538 
L 1018 512 
L 3328 512 
L 3328 0 
L 307 0 
z
" transform="scale(0.015625)"/>
       </defs>
       <use xlink:href="#NotoNaskhArabic-Regular-4cd"/>
       <use xlink:href="#NotoNaskhArabic-Regular-4cc" transform="translate(57.203125 0)"/>
       <use xlink:href="#NotoNaskhArabic-Regular-4ce" transform="translate(114.40625 0)"/>
      </g>
     </g>
    </g>
    <g id="ytick_4">
     <g id="line2d_7">
      <path d="M 57.248984 144.665518 
L 605.317875 144.665518 
" clip-path="url(#p0a010e7db2)" style="fill: none; stroke: #e6e1d6; stroke-width: 0.8; stroke-linecap: square"/>
     </g>
     <g id="line2d_8">
      <g>
       <use xlink:href="#ma3ce03bf38" x="57.248984" y="144.665518" style="fill: #555555; stroke: #555555; stroke-width: 0.8"/>
      </g>
     </g>
     <g id="text_5">
      <!-- 104 -->
      <g style="fill: #555555" transform="translate(32.23 150.277768) scale(0.105 -0.105)">
       <defs>
        <path id="NotoNaskhArabic-Regular-4d0" d="M 2323 0 
L 2323 1037 
L 134 1037 
L 134 1517 
L 2285 4595 
L 2867 4595 
L 2867 1542 
L 3533 1542 
L 3533 1037 
L 2867 1037 
L 2867 0 
L 2323 0 
z
M 685 1542 
L 2323 1542 
L 2323 2982 
Q 2323 3194 2332 3446 
Q 2342 3699 2355 3994 
L 2330 3994 
Q 2298 3910 2211 3747 
Q 2125 3584 2054 3494 
L 685 1542 
z
" transform="scale(0.015625)"/>
       </defs>
       <use xlink:href="#NotoNaskhArabic-Regular-4cd"/>
       <use xlink:href="#NotoNaskhArabic-Regular-4cc" transform="translate(57.203125 0)"/>
       <use xlink:href="#NotoNaskhArabic-Regular-4d0" transform="translate(114.40625 0)"/>
      </g>
     </g>
    </g>
    <g id="ytick_5">
     <g id="line2d_9">
      <path d="M 57.248984 90.46872 
L 605.317875 90.46872 
" clip-path="url(#p0a010e7db2)" style="fill: none; stroke: #e6e1d6; stroke-width: 0.8; stroke-linecap: square"/>
     </g>
     <g id="line2d_10">
      <g>
       <use xlink:href="#ma3ce03bf38" x="57.248984" y="90.46872" style="fill: #555555; stroke: #555555; stroke-width: 0.8"/>
      </g>
     </g>
     <g id="text_6">
      <!-- 106 -->
      <g style="fill: #555555" transform="translate(32.23 96.08097) scale(0.105 -0.105)">
       <defs>
        <path id="NotoNaskhArabic-Regular-4d2" d="M 1907 -64 
Q 1440 -64 1088 176 
Q 736 416 544 870 
Q 352 1331 352 1952 
Q 352 4634 2445 4634 
Q 2810 4634 3008 4576 
L 3008 4096 
Q 2771 4173 2458 4173 
Q 1984 4173 1654 3987 
Q 1325 3802 1139 3405 
Q 941 2976 915 2323 
L 954 2323 
Q 1299 2861 2035 2861 
Q 2656 2861 3008 2486 
Q 3360 2112 3360 1472 
Q 3360 762 2969 349 
Q 2579 -64 1907 -64 
z
M 1901 410 
Q 2336 410 2569 688 
Q 2803 966 2803 1472 
Q 2803 1926 2576 2172 
Q 2349 2419 1920 2419 
Q 1645 2419 1421 2307 
Q 1197 2195 1056 1997 
Q 922 1798 922 1581 
Q 922 1267 1050 995 
Q 1178 723 1395 563 
Q 1619 410 1901 410 
z
" transform="scale(0.015625)"/>
       </defs>
       <use xlink:href="#NotoNaskhArabic-Regular-4cd"/>
       <use xlink:href="#NotoNaskhArabic-Regular-4cc" transform="translate(57.203125 0)"/>
       <use xlink:href="#NotoNaskhArabic-Regular-4d2" transform="translate(114.40625 0)"/>
      </g>
     </g>
    </g>
    <g id="ytick_6">
     <g id="line2d_11">
      <path d="M 57.248984 36.271923 
L 605.317875 36.271923 
" clip-path="url(#p0a010e7db2)" style="fill: none; stroke: #e6e1d6; stroke-width: 0.8; stroke-linecap: square"/>
     </g>
     <g id="line2d_12">
      <g>
       <use xlink:href="#ma3ce03bf38" x="57.248984" y="36.271923" style="fill: #555555; stroke: #555555; stroke-width: 0.8"/>
      </g>
     </g>
     <g id="text_7">
      <!-- 108 -->
      <g style="fill: #555555" transform="translate(32.23 41.884173) scale(0.105 -0.105)">
       <use xlink:href="#NotoNaskhArabic-Regular-4cd"/>
       <use xlink:href="#NotoNaskhArabic-Regular-4cc" transform="translate(57.203125 0)"/>
       <use xlink:href="#NotoNaskhArabic-Regular-4d4" transform="translate(114.40625 0)"/>
      </g>
     </g>
    </g>
    <g id="text_8">
     <!-- ﺮﻌﺴﻟﺍ -->
     <g style="fill: #1f2937" transform="translate(17.89 167.315469) rotate(-90) scale(0.1 -0.1)">
      <defs>
       <path id="NotoNaskhArabic-Regular-f9" d="M 1446 0 
Q 1267 0 1030 57 
Q 794 115 666 198 
Q 576 109 397 54 
Q 218 0 0 0 
Q -51 0 -51 51 
L -51 435 
Q -51 486 0 486 
Q 326 486 518 634 
Q 627 723 681 809 
Q 736 896 858 1094 
Q 915 1197 1056 1197 
Q 1146 1197 1210 1152 
Q 1114 909 1046 765 
Q 979 621 947 570 
Q 998 544 1155 515 
Q 1312 486 1517 486 
Q 1664 486 1789 505 
Q 1914 525 2016 550 
Q 2061 621 2115 793 
Q 2170 966 2227 1145 
Q 2285 1325 2323 1408 
Q 2381 1536 2432 1574 
Q 2483 1613 2579 1613 
Q 2669 1613 2733 1568 
Q 2688 1466 2608 1235 
Q 2528 1005 2400 582 
Q 2496 538 2566 522 
Q 2637 506 2739 506 
Q 2906 506 3091 570 
Q 3123 608 3168 723 
Q 3213 838 3277 1030 
Q 3328 1190 3385 1331 
Q 3443 1472 3501 1568 
Q 3552 1664 3699 1664 
Q 3789 1664 3853 1619 
Q 3808 1517 3728 1289 
Q 3648 1062 3533 710 
Q 3757 589 3917 537 
Q 4077 486 4294 486 
Q 4352 486 4352 435 
L 4352 51 
Q 4352 0 4294 0 
Q 4045 0 3798 96 
Q 3552 192 3386 346 
Q 3366 301 3347 259 
Q 3328 218 3296 173 
Q 3251 96 3078 48 
Q 2906 0 2733 0 
Q 2438 0 2221 160 
Q 2176 102 2041 67 
Q 1907 32 1744 19 
Q 1581 6 1446 0 
z
" transform="scale(0.015625)"/>
       <path id="NotoNaskhArabic-Regular-135" d="M 6 0 
Q -51 0 -51 58 
L -51 429 
Q -51 486 6 486 
Q 672 486 1101 640 
L 986 787 
Q 864 973 771 1094 
Q 678 1216 621 1280 
Q 506 1427 410 1491 
L 307 1427 
Q 192 1555 192 1709 
Q 192 1862 297 1974 
Q 403 2086 566 2172 
Q 730 2259 902 2310 
Q 1158 2394 1446 2394 
Q 1722 2394 1936 2288 
Q 2150 2182 2272 2003 
Q 2400 1824 2400 1594 
Q 2400 1293 2243 1049 
Q 2086 806 1830 602 
Q 2099 486 2694 486 
Q 2758 486 2758 429 
L 2758 58 
Q 2758 0 2694 0 
Q 2259 0 1955 83 
Q 1651 166 1402 346 
Q 1050 166 723 83 
Q 397 0 6 0 
z
M 1478 845 
Q 1696 992 1821 1152 
Q 1946 1312 1946 1459 
Q 1946 1638 1811 1753 
Q 1677 1869 1466 1869 
Q 1075 1869 710 1677 
Q 947 1491 1325 1018 
Q 1395 934 1478 845 
z
" transform="scale(0.015625)"/>
       <path id="NotoNaskhArabic-Regular-d4" d="M 710 -1306 
Q 608 -1306 451 -1248 
Q 294 -1190 134 -1107 
Q -26 -1024 -128 -947 
L -45 -736 
Q 134 -768 284 -787 
Q 435 -806 563 -806 
Q 1043 -806 1385 -518 
Q 1728 -230 1907 314 
Q 1862 416 1814 515 
Q 1766 614 1709 717 
Q 1491 1107 1388 1340 
Q 1286 1574 1286 1734 
Q 1286 1901 1382 2000 
Q 1478 2099 1658 2182 
Q 1683 2099 1712 2000 
Q 1741 1901 1786 1792 
Q 1888 1530 1955 1334 
Q 2022 1139 2054 1018 
Q 2093 896 2115 797 
Q 2138 698 2144 614 
Q 2362 486 2643 486 
Q 2694 486 2694 435 
L 2694 51 
Q 2694 0 2643 0 
Q 2342 0 2118 154 
Q 2048 -288 1849 -617 
Q 1651 -947 1356 -1126 
Q 1062 -1306 710 -1306 
z
" transform="scale(0.015625)"/>
      </defs>
      <use xlink:href="#NotoNaskhArabic-Regular-3"/>
      <use xlink:href="#NotoNaskhArabic-Regular-1c1" transform="translate(23.796875 0)"/>
      <use xlink:href="#NotoNaskhArabic-Regular-f9" transform="translate(45 0)"/>
      <use xlink:href="#NotoNaskhArabic-Regular-135" transform="translate(111.296875 0)"/>
      <use xlink:href="#NotoNaskhArabic-Regular-d4" transform="translate(152.703125 0)"/>
     </g>
    </g>
   </g>
   <g id="line2d_13">
    <path d="M 74.928626 41.921538 
L 587.638233 41.921538 
" clip-path="url(#p0a010e7db2)" style="fill: none; stroke-dasharray: 1.1,1.815; stroke-dashoffset: 0; stroke: #8a8f98; stroke-width: 1.1"/>
   </g>
   <g id="line2d_14">
    <path d="M 74.928626 157.66 
L 587.638233 157.66 
" clip-path="url(#p0a010e7db2)" style="fill: none; stroke-dasharray: 1.1,1.815; stroke-dashoffset: 0; stroke: #8a8f98; stroke-width: 1.1"/>
   </g>
   <g id="line2d_15">
    <path d="M 74.928626 184.974277 
L 587.638233 184.974277 
" clip-path="url(#p0a010e7db2)" style="fill: none; stroke-dasharray: 1.1,1.815; stroke-dashoffset: 0; stroke: #8a8f98; stroke-width: 1.1"/>
   </g>
   <g id="line2d_16">
    <path d="M 74.928626 205.112769 
L 587.638233 205.112769 
" clip-path="url(#p0a010e7db2)" style="fill: none; stroke-dasharray: 1.1,1.815; stroke-dashoffset: 0; stroke: #8a8f98; stroke-width: 1.1"/>
   </g>
   <g id="line2d_17">
    <path d="M 74.928626 273.398462 
L 587.638233 273.398462 
" clip-path="url(#p0a010e7db2)" style="fill: none; stroke-dasharray: 1.1,1.815; stroke-dashoffset: 0; stroke: #8a8f98; stroke-width: 1.1"/>
   </g>
   <g id="patch_3">
    <path d="M 74.928626 273.398462 
L 587.638233 273.398462 
L 587.638233 205.112769 
L 74.928626 205.112769 
z
" clip-path="url(#p0a010e7db2)" style="fill: #ddebdd; opacity: 0.3; stroke: #1f8a56; stroke-width: 1.4; stroke-linejoin: miter"/>
   </g>
   <g id="patch_4">
    <path d="M 57.248984 308.12 
L 57.248984 7.2 
" style="fill: none; stroke: #1f2937; stroke-width: 0.8; stroke-linejoin: miter; stroke-linecap: square"/>
   </g>
   <g id="patch_5">
    <path d="M 57.248984 308.12 
L 605.317875 308.12 
" style="fill: none; stroke: #1f2937; stroke-width: 0.8; stroke-linejoin: miter; stroke-linecap: square"/>
   </g>
   <g id="line2d_18">
    <path d="M 74.928626 247.349024 
L 74.928626 240.113207 
" clip-path="url(#p0a010e7db2)" style="fill: none; stroke: #1f8a56; stroke-width: 1.1; stroke-linecap: round"/>
   </g>
   <g id="line2d_19">
    <path d="M 92.608268 248.876218 
L 92.608268 220.48274 
" clip-path="url(#p0a010e7db2)" style="fill: none; stroke: #1f8a56; stroke-width: 1.1; stroke-linecap: round"/>
   </g>
   <g id="line2d_20">
    <path d="M 110.287909 224.50377 
L 110.287909 209.689111 
" clip-path="url(#p0a010e7db2)" style="fill: none; stroke: #1f8a56; stroke-width: 1.1; stroke-linecap: round"/>
   </g>
   <g id="line2d_21">
    <path d="M 127.967551 220.931906 
L 127.967551 205.30263 
" clip-path="url(#p0a010e7db2)" style="fill: none; stroke: #1f8a56; stroke-width: 1.1; stroke-linecap: round"/>
   </g>
   <g id="line2d_22">
    <path d="M 145.647193 217.045134 
L 145.647193 182.552804 
" clip-path="url(#p0a010e7db2)" style="fill: none; stroke: #1f8a56; stroke-width: 1.1; stroke-linecap: round"/>
   </g>
   <g id="line2d_23">
    <path d="M 163.326834 192.428981 
L 163.326834 176.044361 
" clip-path="url(#p0a010e7db2)" style="fill: none; stroke: #1f8a56; stroke-width: 1.1; stroke-linecap: round"/>
   </g>
   <g id="line2d_24">
    <path d="M 181.006476 181.532801 
L 181.006476 165.179322 
" clip-path="url(#p0a010e7db2)" style="fill: none; stroke: #1f8a56; stroke-width: 1.1; stroke-linecap: round"/>
   </g>
   <g id="line2d_25">
    <path d="M 198.686117 164.284405 
L 198.686117 149.993249 
" clip-path="url(#p0a010e7db2)" style="fill: none; stroke: #1f8a56; stroke-width: 1.1; stroke-linecap: round"/>
   </g>
   <g id="line2d_26">
    <path d="M 216.365759 154.612696 
L 216.365759 115.022495 
" clip-path="url(#p0a010e7db2)" style="fill: none; stroke: #1f8a56; stroke-width: 1.1; stroke-linecap: round"/>
   </g>
   <g id="line2d_27">
    <path d="M 234.045401 123.484049 
L 234.045401 118.976888 
" clip-path="url(#p0a010e7db2)" style="fill: none; stroke: #b91c1c; stroke-width: 1.1; stroke-linecap: round"/>
   </g>
   <g id="line2d_28">
    <path d="M 251.725042 132.525025 
L 251.725042 118.717453 
" clip-path="url(#p0a010e7db2)" style="fill: none; stroke: #1f8a56; stroke-width: 1.1; stroke-linecap: round"/>
   </g>
   <g id="line2d_29">
    <path d="M 269.404684 119.187375 
L 269.404684 106.224764 
" clip-path="url(#p0a010e7db2)" style="fill: none; stroke: #1f8a56; stroke-width: 1.1; stroke-linecap: round"/>
   </g>
   <g id="line2d_30">
    <path d="M 287.084326 107.374072 
L 287.084326 101.314954 
" clip-path="url(#p0a010e7db2)" style="fill: none; stroke: #b91c1c; stroke-width: 1.1; stroke-linecap: round"/>
   </g>
   <g id="line2d_31">
    <path d="M 304.763967 100.36193 
L 304.763967 81.174373 
" clip-path="url(#p0a010e7db2)" style="fill: none; stroke: #1f8a56; stroke-width: 1.1; stroke-linecap: round"/>
   </g>
   <g id="line2d_32">
    <path d="M 322.443609 96.256554 
L 322.443609 55.902967 
" clip-path="url(#p0a010e7db2)" style="fill: none; stroke: #1f8a56; stroke-width: 1.1; stroke-linecap: round"/>
   </g>
   <g id="line2d_33">
    <path d="M 340.123251 61.91675 
L 340.123251 44.089742 
" clip-path="url(#p0a010e7db2)" style="fill: none; stroke: #1f8a56; stroke-width: 1.1; stroke-linecap: round"/>
   </g>
   <g id="line2d_34">
    <path d="M 357.802892 62.250373 
L 357.802892 41.921538 
" clip-path="url(#p0a010e7db2)" style="fill: none; stroke: #b91c1c; stroke-width: 1.1; stroke-linecap: round"/>
   </g>
   <g id="line2d_35">
    <path d="M 375.482534 80.039506 
L 375.482534 59.324624 
" clip-path="url(#p0a010e7db2)" style="fill: none; stroke: #b91c1c; stroke-width: 1.1; stroke-linecap: round"/>
   </g>
   <g id="line2d_36">
    <path d="M 393.162175 87.553524 
L 393.162175 79.921731 
" clip-path="url(#p0a010e7db2)" style="fill: none; stroke: #1f8a56; stroke-width: 1.1; stroke-linecap: round"/>
   </g>
   <g id="line2d_37">
    <path d="M 410.841817 106.415709 
L 410.841817 77.194749 
" clip-path="url(#p0a010e7db2)" style="fill: none; stroke: #b91c1c; stroke-width: 1.1; stroke-linecap: round"/>
   </g>
   <g id="line2d_38">
    <path d="M 428.521459 123.221799 
L 428.521459 102.015441 
" clip-path="url(#p0a010e7db2)" style="fill: none; stroke: #b91c1c; stroke-width: 1.1; stroke-linecap: round"/>
   </g>
   <g id="line2d_39">
    <path d="M 446.2011 153.685543 
L 446.2011 113.58587 
" clip-path="url(#p0a010e7db2)" style="fill: none; stroke: #b91c1c; stroke-width: 1.1; stroke-linecap: round"/>
   </g>
   <g id="line2d_40">
    <path d="M 463.880742 167.450016 
L 463.880742 146.784912 
" clip-path="url(#p0a010e7db2)" style="fill: none; stroke: #b91c1c; stroke-width: 1.1; stroke-linecap: round"/>
   </g>
   <g id="line2d_41">
    <path d="M 481.560384 178.142609 
L 481.560384 164.814993 
" clip-path="url(#p0a010e7db2)" style="fill: none; stroke: #b91c1c; stroke-width: 1.1; stroke-linecap: round"/>
   </g>
   <g id="line2d_42">
    <path d="M 499.240025 189.877068 
L 499.240025 175.650076 
" clip-path="url(#p0a010e7db2)" style="fill: none; stroke: #b91c1c; stroke-width: 1.1; stroke-linecap: round"/>
   </g>
   <g id="line2d_43">
    <path d="M 516.919667 197.700377 
L 516.919667 183.421875 
" clip-path="url(#p0a010e7db2)" style="fill: none; stroke: #b91c1c; stroke-width: 1.1; stroke-linecap: round"/>
   </g>
   <g id="line2d_44">
    <path d="M 534.599308 201.665078 
L 534.599308 188.864422 
" clip-path="url(#p0a010e7db2)" style="fill: none; stroke: #b91c1c; stroke-width: 1.1; stroke-linecap: round"/>
   </g>
   <g id="line2d_45">
    <path d="M 552.27895 230.525098 
L 552.27895 203.184757 
" clip-path="url(#p0a010e7db2)" style="fill: none; stroke: #b91c1c; stroke-width: 1.1; stroke-linecap: round"/>
   </g>
   <g id="line2d_46">
    <path d="M 569.958592 263.70415 
L 569.958592 229.145332 
" clip-path="url(#p0a010e7db2)" style="fill: none; stroke: #b91c1c; stroke-width: 1.1; stroke-linecap: round"/>
   </g>
   <g id="line2d_47">
    <path d="M 587.638233 273.398462 
L 587.638233 256.02102 
" clip-path="url(#p0a010e7db2)" style="fill: none; stroke: #b91c1c; stroke-width: 1.1; stroke-linecap: round"/>
   </g>
   <g id="text_9">
    <!-- 0% -->
    <g style="fill: #8a8f98" transform="translate(592.942126 43.879038) scale(0.09 -0.09)">
     <defs>
      <path id="NotoNaskhArabic-Bold-4cc" d="M 1824 -64 
Q 1030 -64 630 531 
Q 230 1126 230 2285 
Q 230 3494 620 4067 
Q 1011 4640 1824 4640 
Q 2618 4640 3021 4041 
Q 3424 3443 3424 2285 
Q 3424 1088 3033 512 
Q 2643 -64 1824 -64 
z
M 1824 717 
Q 2170 717 2310 1082 
Q 2464 1459 2464 2285 
Q 2464 3123 2310 3494 
Q 2157 3859 1824 3859 
Q 1485 3859 1338 3494 
Q 1190 3110 1190 2285 
Q 1190 1453 1338 1082 
Q 1485 717 1824 717 
z
" transform="scale(0.015625)"/>
      <path id="DejaVuSans-Bold-8" d="M 4959 1925 
Q 4738 1925 4616 1733 
Q 4494 1541 4494 1184 
Q 4494 825 4614 633 
Q 4734 441 4959 441 
Q 5184 441 5303 633 
Q 5422 825 5422 1184 
Q 5422 1541 5301 1733 
Q 5181 1925 4959 1925 
z
M 4959 2450 
Q 5541 2450 5875 2112 
Q 6209 1775 6209 1184 
Q 6209 594 5875 251 
Q 5541 -91 4959 -91 
Q 4378 -91 4042 251 
Q 3706 594 3706 1184 
Q 3706 1772 4042 2111 
Q 4378 2450 4959 2450 
z
M 2094 -91 
L 1403 -91 
L 4319 4750 
L 5013 4750 
L 2094 -91 
z
M 1453 4750 
Q 2034 4750 2367 4411 
Q 2700 4072 2700 3481 
Q 2700 2891 2367 2550 
Q 2034 2209 1453 2209 
Q 872 2209 539 2550 
Q 206 2891 206 3481 
Q 206 4072 539 4411 
Q 872 4750 1453 4750 
z
M 1453 4225 
Q 1228 4225 1106 4031 
Q 984 3838 984 3481 
Q 984 3122 1106 2926 
Q 1228 2731 1453 2731 
Q 1678 2731 1798 2926 
Q 1919 3122 1919 3481 
Q 1919 3838 1797 4031 
Q 1675 4225 1453 4225 
z
" transform="scale(0.015625)"/>
     </defs>
     <use xlink:href="#NotoNaskhArabic-Bold-4cc"/>
     <use xlink:href="#DejaVuSans-Bold-8" transform="translate(57.203125 0)"/>
    </g>
   </g>
   <g id="text_10">
    <!-- 50% -->
    <g style="fill: #8a8f98" transform="translate(592.942126 159.6175) scale(0.09 -0.09)">
     <defs>
      <path id="NotoNaskhArabic-Bold-4d1" d="M 1542 -64 
Q 787 -64 314 186 
L 314 1018 
Q 557 890 886 806 
Q 1216 723 1510 723 
Q 2394 723 2394 1446 
Q 2394 2138 1478 2138 
Q 1312 2138 1113 2106 
Q 915 2074 787 2035 
L 403 2240 
L 576 4570 
L 3053 4570 
L 3053 3750 
L 1421 3750 
L 1338 2854 
Q 1504 2886 1635 2902 
Q 1766 2918 1920 2918 
Q 2586 2918 2976 2547 
Q 3366 2176 3366 1530 
Q 3366 762 2892 349 
Q 2419 -64 1542 -64 
z
" transform="scale(0.015625)"/>
     </defs>
     <use xlink:href="#NotoNaskhArabic-Bold-4d1"/>
     <use xlink:href="#NotoNaskhArabic-Bold-4cc" transform="translate(57.203125 0)"/>
     <use xlink:href="#DejaVuSans-Bold-8" transform="translate(114.40625 0)"/>
    </g>
   </g>
   <g id="text_11">
    <!-- 61.8% -->
    <g style="fill: #8a8f98" transform="translate(592.942126 186.931777) scale(0.09 -0.09)">
     <defs>
      <path id="NotoNaskhArabic-Bold-4d2" d="M 1894 -64 
Q 1389 -64 1011 173 
Q 634 410 429 858 
Q 224 1318 224 1939 
Q 224 3296 800 3958 
Q 1376 4621 2515 4621 
Q 2714 4621 2867 4611 
Q 3021 4602 3130 4576 
L 3130 3802 
Q 2989 3834 2851 3850 
Q 2714 3866 2579 3866 
Q 2080 3866 1766 3715 
Q 1453 3565 1299 3270 
Q 1216 3130 1171 2918 
Q 1126 2707 1114 2438 
L 1152 2438 
Q 1459 2970 2144 2970 
Q 2758 2970 3104 2586 
Q 3450 2202 3450 1523 
Q 3450 787 3037 361 
Q 2624 -64 1894 -64 
z
M 1875 710 
Q 2182 710 2348 918 
Q 2515 1126 2515 1510 
Q 2515 1850 2361 2038 
Q 2208 2227 1894 2227 
Q 1715 2227 1564 2153 
Q 1414 2080 1318 1958 
Q 1184 1792 1184 1594 
Q 1184 1357 1264 1165 
Q 1344 973 1485 851 
Q 1658 710 1875 710 
z
" transform="scale(0.015625)"/>
      <path id="NotoNaskhArabic-Bold-4cd" d="M 1677 0 
L 1677 2643 
Q 1677 2822 1686 3020 
Q 1696 3219 1702 3552 
Q 1466 3315 1370 3238 
Q 1242 3136 1107 3030 
Q 973 2925 845 2816 
L 378 3398 
L 1850 4570 
L 2643 4570 
L 2643 0 
L 1677 0 
z
" transform="scale(0.015625)"/>
      <path id="NotoNaskhArabic-Bold-514" d="M 1037 -365 
Q 691 -96 378 77 
Q 429 166 473 246 
Q 518 326 557 410 
Q 602 486 650 566 
Q 698 646 755 730 
Q 870 659 1017 563 
Q 1165 467 1273 377 
Q 1382 288 1382 224 
Q 1382 134 1037 -365 
z
" transform="scale(0.015625)"/>
      <path id="NotoNaskhArabic-Bold-4d4" d="M 1830 -64 
Q 1082 -64 653 256 
Q 224 576 224 1158 
Q 224 1555 432 1856 
Q 640 2157 1101 2387 
Q 710 2630 537 2915 
Q 365 3200 365 3533 
Q 365 3859 550 4105 
Q 736 4352 1065 4489 
Q 1395 4627 1830 4627 
Q 2490 4627 2890 4329 
Q 3290 4032 3290 3526 
Q 3290 3174 3098 2902 
Q 2906 2630 2470 2413 
Q 2982 2138 3206 1840 
Q 3430 1542 3430 1184 
Q 3430 813 3228 531 
Q 3027 250 2668 93 
Q 2310 -64 1830 -64 
z
M 1830 2816 
Q 2138 2963 2259 3110 
Q 2381 3258 2381 3456 
Q 2381 3674 2224 3798 
Q 2067 3923 1824 3923 
Q 1581 3923 1427 3795 
Q 1274 3667 1274 3456 
Q 1274 3245 1434 3078 
Q 1555 2950 1830 2816 
z
M 1818 646 
Q 2176 646 2355 800 
Q 2534 954 2534 1210 
Q 2534 1421 2358 1603 
Q 2182 1786 1786 1990 
Q 1120 1683 1120 1216 
Q 1120 947 1305 796 
Q 1491 646 1818 646 
z
" transform="scale(0.015625)"/>
     </defs>
     <use xlink:href="#NotoNaskhArabic-Bold-4d2"/>
     <use xlink:href="#NotoNaskhArabic-Bold-4cd" transform="translate(57.203125 0)"/>
     <use xlink:href="#NotoNaskhArabic-Bold-514" transform="translate(114.40625 0)"/>
     <use xlink:href="#NotoNaskhArabic-Bold-4d4" transform="translate(138.90625 0)"/>
     <use xlink:href="#DejaVuSans-Bold-8" transform="translate(196.109375 0)"/>
    </g>
   </g>
   <g id="text_12">
    <!-- 70.5% -->
    <g style="fill: #8a8f98" transform="translate(592.942126 207.070269) scale(0.09 -0.09)">
     <defs>
      <path id="NotoNaskhArabic-Bold-4d3" d="M 710 0 
L 2426 3757 
L 173 3757 
L 173 4570 
L 3450 4570 
L 3450 3962 
L 1722 0 
L 710 0 
z
" transform="scale(0.015625)"/>
     </defs>
     <use xlink:href="#NotoNaskhArabic-Bold-4d3"/>
     <use xlink:href="#NotoNaskhArabic-Bold-4cc" transform="translate(57.203125 0)"/>
     <use xlink:href="#NotoNaskhArabic-Bold-514" transform="translate(114.40625 0)"/>
     <use xlink:href="#NotoNaskhArabic-Bold-4d1" transform="translate(138.90625 0)"/>
     <use xlink:href="#DejaVuSans-Bold-8" transform="translate(196.109375 0)"/>
    </g>
   </g>
   <g id="text_13">
    <!-- 100% -->
    <g style="fill: #8a8f98" transform="translate(592.942126 275.355962) scale(0.09 -0.09)">
     <use xlink:href="#NotoNaskhArabic-Bold-4cd"/>
     <use xlink:href="#NotoNaskhArabic-Bold-4cc" transform="translate(57.203125 0)"/>
     <use xlink:href="#NotoNaskhArabic-Bold-4cc" transform="translate(114.40625 0)"/>
     <use xlink:href="#DejaVuSans-Bold-8" transform="translate(171.609375 0)"/>
    </g>
   </g>
   <g id="text_14">
    <!-- (%70.5–%61.8) ﻖﻴﻤﻌﻟﺍ ﻢﺼﺨﻟﺍ -->
    <g style="fill: #1f8a56" transform="translate(282.994344 241.213115) scale(0.09 -0.09)">
     <defs>
      <path id="NotoNaskhArabic-Bold-3" d="M 774 58 
Q 742 717 710 1216 
Q 678 1715 646 2134 
Q 614 2554 576 2950 
Q 538 3347 493 3808 
Q 474 3968 566 4089 
Q 659 4211 822 4281 
Q 986 4352 1178 4352 
Q 1229 4154 1296 3955 
Q 1363 3757 1440 3565 
L 1216 3398 
Q 1229 2867 1222 2035 
Q 1216 1203 1184 109 
L 774 58 
z
" transform="scale(0.015625)"/>
      <path id="NotoNaskhArabic-Bold-1c1" d="M 0 58 
Q -51 58 -51 109 
L -51 762 
Q -51 813 0 813 
Q 282 813 672 960 
Q 646 1146 624 1334 
Q 602 1523 570 1709 
Q 544 1894 441 2448 
Q 339 3002 173 3930 
Q 339 4045 534 4147 
Q 730 4250 934 4352 
Q 947 3827 960 3356 
Q 973 2886 986 2477 
Q 998 2067 1004 1718 
Q 1011 1370 1011 1069 
Q 1011 634 762 256 
Q 698 166 490 112 
Q 282 58 0 58 
z
" transform="scale(0.015625)"/>
      <path id="NotoNaskhArabic-Bold-a3" d="M 0 58 
Q -51 58 -51 109 
L -51 762 
Q -51 813 0 813 
Q 467 813 793 829 
Q 1120 845 1427 934 
Q 1702 1018 1897 1069 
Q 2093 1120 2202 1146 
Q 2118 1197 2032 1251 
Q 1946 1306 1856 1363 
Q 1651 1498 1513 1555 
Q 1376 1613 1235 1613 
Q 1043 1613 870 1558 
Q 698 1504 480 1363 
Q 422 1421 377 1533 
Q 333 1645 333 1747 
Q 333 2029 582 2205 
Q 832 2381 1210 2381 
Q 1414 2381 1603 2310 
Q 1792 2240 2029 2080 
Q 2317 1882 2560 1763 
Q 2803 1645 3136 1555 
Q 3302 1517 3500 1494 
Q 3699 1472 3936 1472 
L 3654 934 
Q 3578 941 3501 941 
Q 3424 941 3347 947 
Q 3411 890 3488 867 
Q 3565 845 3661 832 
Q 3808 826 3965 822 
Q 4122 819 4262 813 
Q 4314 813 4314 762 
L 4314 109 
Q 4314 58 4262 58 
Q 4032 58 3782 80 
Q 3533 102 3325 150 
Q 3117 198 3021 262 
Q 2893 358 2838 537 
Q 2784 717 2746 877 
Q 2624 851 2525 803 
Q 2426 755 2304 675 
Q 2182 595 1990 467 
Q 1683 262 1395 176 
Q 1107 90 774 74 
Q 442 58 0 58 
z
M 1894 2873 
Q 1568 3142 1402 3334 
Q 1549 3481 1667 3606 
Q 1786 3731 1882 3846 
Q 1952 3769 2067 3654 
Q 2182 3539 2342 3385 
Q 2266 3277 2154 3149 
Q 2042 3021 1894 2873 
z
" transform="scale(0.015625)"/>
      <path id="NotoNaskhArabic-Bold-111" d="M 2592 0 
Q 2163 0 1699 80 
Q 1235 160 851 339 
Q 813 282 742 243 
Q 608 154 406 106 
Q 205 58 0 58 
Q -51 58 -51 109 
L -51 762 
Q -51 813 0 813 
Q 256 813 397 848 
Q 538 883 634 985 
Q 730 1088 838 1286 
Q 864 1331 886 1376 
Q 909 1421 934 1466 
Q 1030 1638 1222 1638 
Q 1318 1638 1427 1574 
Q 1363 1414 1302 1260 
Q 1242 1107 1178 954 
Q 1248 928 1312 909 
Q 1376 890 1440 864 
Q 2099 1741 2605 2150 
Q 3091 2560 3469 2560 
Q 3629 2560 3824 2464 
Q 4019 2368 4211 2214 
Q 4403 2061 4544 1882 
Q 4762 1619 4762 1446 
Q 4762 1229 4691 1050 
Q 4922 915 5082 864 
Q 5242 813 5466 813 
Q 5523 813 5523 762 
L 5523 109 
Q 5523 58 5466 58 
Q 5171 58 4880 186 
Q 4589 314 4358 563 
Q 4205 416 3904 278 
Q 3603 141 3258 70 
Q 3085 38 2921 19 
Q 2758 0 2592 0 
z
M 2656 704 
Q 3117 704 3520 813 
Q 3923 922 4390 1146 
Q 3814 1805 3309 1805 
Q 3027 1805 2652 1536 
Q 2278 1267 1862 774 
Q 2067 742 2265 723 
Q 2464 704 2656 704 
z
" transform="scale(0.015625)"/>
      <path id="NotoNaskhArabic-Bold-1e3" d="M 570 -1965 
Q 570 -1664 554 -1296 
Q 538 -928 506 -486 
Q 467 -45 451 240 
Q 435 525 435 653 
Q 435 723 493 896 
Q 525 979 576 1107 
Q 627 1235 704 1402 
Q 723 1434 857 1539 
Q 992 1645 1181 1776 
Q 1370 1907 1542 2010 
Q 1811 2157 2054 2249 
Q 2298 2342 2477 2342 
Q 2592 2342 2678 2227 
Q 2765 2112 2842 1946 
Q 2874 1862 2912 1769 
Q 2950 1677 2982 1581 
Q 3053 1382 3139 1209 
Q 3226 1037 3328 928 
Q 3437 813 3590 813 
Q 3661 813 3661 755 
L 3661 128 
Q 3661 58 3590 58 
Q 3277 58 3014 301 
L 2931 0 
Q 2445 0 2064 93 
Q 1683 186 1462 362 
Q 1242 538 1242 774 
Q 1242 998 1318 1216 
Q 1242 1171 1117 1081 
Q 992 992 819 864 
Q 870 531 928 182 
Q 986 -166 1069 -672 
Q 1120 -979 1158 -1212 
Q 1197 -1446 1216 -1600 
Q 877 -1856 570 -1965 
z
M 2726 710 
Q 2515 1133 2458 1664 
Q 1920 1453 1606 1082 
Q 1939 806 2726 710 
z
" transform="scale(0.015625)"/>
      <path id="NotoNaskhArabic-Bold-554" transform="scale(0.015625)"/>
      <path id="NotoNaskhArabic-Bold-135" d="M 6 58 
Q -51 58 -51 115 
L -51 755 
Q -51 813 6 813 
Q 346 813 627 822 
Q 909 832 1126 870 
L 998 1030 
Q 909 1152 835 1235 
Q 762 1318 691 1382 
Q 640 1434 589 1478 
Q 538 1523 486 1568 
L 371 1485 
Q 198 1670 198 1894 
Q 198 2112 390 2272 
Q 582 2432 915 2554 
Q 1242 2669 1549 2669 
Q 1830 2669 2080 2547 
Q 2330 2426 2470 2208 
Q 2618 1990 2618 1760 
Q 2618 1530 2490 1306 
Q 2362 1082 2118 858 
Q 2291 832 2486 822 
Q 2682 813 2912 813 
Q 2976 813 2976 755 
L 2976 115 
Q 2976 58 2912 58 
Q 2464 58 2105 160 
Q 1747 262 1530 448 
Q 845 58 6 58 
z
M 1626 1062 
Q 1978 1293 1978 1613 
Q 1978 1773 1862 1865 
Q 1747 1958 1574 1958 
Q 1408 1958 1257 1926 
Q 1107 1894 902 1805 
Q 973 1741 1117 1603 
Q 1261 1466 1459 1248 
Q 1498 1203 1539 1158 
Q 1581 1114 1626 1062 
z
" transform="scale(0.015625)"/>
      <path id="NotoNaskhArabic-Bold-1e4" d="M 2016 0 
Q 1606 0 1257 73 
Q 909 147 685 269 
Q 506 147 346 102 
Q 186 58 0 58 
Q -51 58 -51 109 
L -51 762 
Q -51 813 0 813 
Q 160 813 333 858 
Q 333 870 336 886 
Q 339 902 339 922 
Q 384 1261 573 1597 
Q 762 1933 1018 2131 
Q 1286 2342 1568 2342 
Q 1696 2342 1811 2176 
Q 1862 2093 1929 1942 
Q 1997 1792 2074 1581 
Q 2227 1133 2394 960 
Q 2528 813 2682 813 
Q 2752 813 2752 755 
L 2752 128 
Q 2752 58 2682 58 
Q 2362 58 2106 301 
L 2016 0 
z
M 1818 710 
Q 1606 1133 1549 1664 
Q 979 1440 698 1082 
Q 877 941 1155 851 
Q 1434 762 1818 710 
z
" transform="scale(0.015625)"/>
      <path id="NotoNaskhArabic-Bold-240" d="M 0 58 
Q -51 58 -51 109 
L -51 762 
Q -51 813 0 813 
Q 307 813 566 829 
Q 826 845 992 928 
Q 1120 992 1187 1104 
Q 1254 1216 1357 1421 
Q 1459 1632 1536 1680 
Q 1613 1728 1715 1728 
Q 1869 1728 1971 1638 
Q 1888 1427 1814 1264 
Q 1741 1101 1690 979 
Q 2003 813 2362 813 
Q 2413 813 2413 762 
L 2413 109 
Q 2413 58 2362 58 
Q 1875 58 1434 499 
L 1382 416 
Q 1203 179 883 118 
Q 563 58 0 58 
z
M 1651 -1235 
Q 1376 -1011 1209 -832 
Q 1414 -653 1638 -384 
Q 1657 -403 1756 -502 
Q 1856 -602 2035 -787 
Q 1971 -883 1875 -995 
Q 1779 -1107 1651 -1235 
z
M 793 -1331 
Q 633 -1203 527 -1100 
Q 422 -998 352 -922 
Q 460 -813 569 -701 
Q 678 -589 787 -480 
Q 864 -576 1184 -877 
Q 1030 -1107 793 -1331 
z
" transform="scale(0.015625)"/>
      <path id="NotoNaskhArabic-Bold-168" d="M 1606 -1613 
Q 1037 -1613 736 -1277 
Q 435 -941 435 -301 
Q 435 32 595 627 
L 877 557 
Q 787 256 787 45 
Q 787 -858 1683 -858 
Q 2515 -858 3366 -198 
L 3334 64 
Q 2566 90 2285 186 
Q 1946 294 1818 483 
Q 1690 672 1690 1018 
Q 1690 1370 1824 1712 
Q 1958 2054 2176 2266 
Q 2387 2477 2618 2477 
Q 2886 2477 3139 2221 
Q 3392 1965 3558 1530 
Q 3622 1370 3673 1190 
Q 3725 1011 3750 813 
L 4102 813 
Q 4154 813 4154 762 
L 4154 109 
Q 4154 58 4102 58 
L 3770 58 
Q 3712 -390 3417 -764 
Q 3123 -1139 2611 -1376 
Q 2112 -1613 1606 -1613 
z
M 3174 819 
Q 2906 1715 2477 1715 
Q 2349 1715 2243 1648 
Q 2138 1581 2080 1485 
Q 2022 1402 2022 1293 
Q 2022 1107 2208 992 
Q 2362 896 2656 858 
Q 2733 851 2857 841 
Q 2982 832 3174 819 
z
M 3060 2982 
Q 2925 3091 2816 3187 
Q 2708 3283 2618 3379 
Q 2855 3597 3047 3827 
Q 3104 3763 3206 3667 
Q 3309 3571 3450 3430 
Q 3277 3194 3060 2982 
z
M 2202 2886 
Q 1927 3110 1760 3290 
Q 1869 3398 1978 3510 
Q 2087 3622 2196 3731 
Q 2311 3597 2592 3334 
Q 2432 3104 2202 2886 
z
" transform="scale(0.015625)"/>
      <path id="DejaVuSans-Bold-b" d="M 2413 -844 
L 1484 -844 
Q 1006 -72 778 623 
Q 550 1319 550 2003 
Q 550 2688 779 3389 
Q 1009 4091 1484 4856 
L 2413 4856 
Q 2013 4116 1813 3408 
Q 1613 2700 1613 2009 
Q 1613 1319 1811 609 
Q 2009 -100 2413 -844 
z
" transform="scale(0.015625)"/>
      <path id="DejaVuSans-Bold-af5" d="M 344 2156 
L 2856 2156 
L 2856 1350 
L 344 1350 
L 344 2156 
z
" transform="scale(0.015625)"/>
      <path id="DejaVuSans-Bold-c" d="M 513 -844 
Q 913 -100 1113 609 
Q 1313 1319 1313 2009 
Q 1313 2700 1113 3408 
Q 913 4116 513 4856 
L 1441 4856 
Q 1916 4091 2145 3389 
Q 2375 2688 2375 2003 
Q 2375 1319 2147 623 
Q 1919 -72 1441 -844 
L 513 -844 
z
" transform="scale(0.015625)"/>
     </defs>
     <use xlink:href="#NotoNaskhArabic-Bold-3"/>
     <use xlink:href="#NotoNaskhArabic-Bold-1c1" transform="translate(28.40625 0)"/>
     <use xlink:href="#NotoNaskhArabic-Bold-a3" transform="translate(50.109375 0)"/>
     <use xlink:href="#NotoNaskhArabic-Bold-111" transform="translate(115.8125 0)"/>
     <use xlink:href="#NotoNaskhArabic-Bold-1e3" transform="translate(200.40625 0)"/>
     <use xlink:href="#NotoNaskhArabic-Bold-554" transform="translate(255.90625 0)"/>
     <use xlink:href="#NotoNaskhArabic-Bold-3" transform="translate(278 0)"/>
     <use xlink:href="#NotoNaskhArabic-Bold-1c1" transform="translate(306.40625 0)"/>
     <use xlink:href="#NotoNaskhArabic-Bold-135" transform="translate(328.109375 0)"/>
     <use xlink:href="#NotoNaskhArabic-Bold-1e4" transform="translate(372.90625 0)"/>
     <use xlink:href="#NotoNaskhArabic-Bold-240" transform="translate(414.203125 0)"/>
     <use xlink:href="#NotoNaskhArabic-Bold-168" transform="translate(450.203125 0)"/>
     <use xlink:href="#NotoNaskhArabic-Bold-554" transform="translate(513.40625 0)"/>
     <use xlink:href="#DejaVuSans-Bold-b" transform="translate(535.5 0)"/>
     <use xlink:href="#DejaVuSans-Bold-8" transform="translate(581.203125 0)"/>
     <use xlink:href="#NotoNaskhArabic-Bold-4d2" transform="translate(681.40625 0)"/>
     <use xlink:href="#NotoNaskhArabic-Bold-4cd" transform="translate(738.609375 0)"/>
     <use xlink:href="#NotoNaskhArabic-Bold-514" transform="translate(795.8125 0)"/>
     <use xlink:href="#NotoNaskhArabic-Bold-4d4" transform="translate(820.3125 0)"/>
     <use xlink:href="#DejaVuSans-Bold-af5" transform="translate(877.515625 0)"/>
     <use xlink:href="#DejaVuSans-Bold-8" transform="translate(927.515625 0)"/>
     <use xlink:href="#NotoNaskhArabic-Bold-4d3" transform="translate(1027.71875 0)"/>
     <use xlink:href="#NotoNaskhArabic-Bold-4cc" transform="translate(1084.921875 0)"/>
     <use xlink:href="#NotoNaskhArabic-Bold-514" transform="translate(1142.125 0)"/>
     <use xlink:href="#NotoNaskhArabic-Bold-4d1" transform="translate(1166.625 0)"/>
     <use xlink:href="#DejaVuSans-Bold-c" transform="translate(1223.828125 0)"/>
    </g>
   </g>
   <g id="patch_6">
    <path d="M 70.066725 245.30723 
L 79.790527 245.30723 
L 79.790527 238.362921 
L 70.066725 238.362921 
z
" clip-path="url(#p0a010e7db2)" style="fill: #1f8a56; stroke: #1f8a56; stroke-linejoin: miter"/>
   </g>
   <g id="patch_7">
    <path d="M 87.746366 245.349477 
L 97.470169 245.349477 
L 97.470169 226.240479 
L 87.746366 226.240479 
z
" clip-path="url(#p0a010e7db2)" style="fill: #1f8a56; stroke: #1f8a56; stroke-linejoin: miter"/>
   </g>
   <g id="patch_8">
    <path d="M 105.426008 223.946258 
L 115.149811 223.946258 
L 115.149811 213.414443 
L 105.426008 213.414443 
z
" clip-path="url(#p0a010e7db2)" style="fill: #1f8a56; stroke: #1f8a56; stroke-linejoin: miter"/>
   </g>
   <g id="patch_9">
    <path d="M 123.105649 218.794209 
L 132.829452 218.794209 
L 132.829452 206.933264 
L 123.105649 206.933264 
z
" clip-path="url(#p0a010e7db2)" style="fill: #1f8a56; stroke: #1f8a56; stroke-linejoin: miter"/>
   </g>
   <g id="patch_10">
    <path d="M 140.785291 211.397258 
L 150.509094 211.397258 
L 150.509094 187.262059 
L 140.785291 187.262059 
z
" clip-path="url(#p0a010e7db2)" style="fill: #1f8a56; stroke: #1f8a56; stroke-linejoin: miter"/>
   </g>
   <g id="patch_11">
    <path d="M 158.464933 191.438186 
L 168.188736 191.438186 
L 168.188736 179.699897 
L 158.464933 179.699897 
z
" clip-path="url(#p0a010e7db2)" style="fill: #1f8a56; stroke: #1f8a56; stroke-linejoin: miter"/>
   </g>
   <g id="patch_12">
    <path d="M 176.144574 175.404093 
L 185.868377 175.404093 
L 185.868377 166.581939 
L 176.144574 166.581939 
z
" clip-path="url(#p0a010e7db2)" style="fill: #1f8a56; stroke: #1f8a56; stroke-linejoin: miter"/>
   </g>
   <g id="patch_13">
    <path d="M 193.824216 163.193205 
L 203.548019 163.193205 
L 203.548019 153.235673 
L 193.824216 153.235673 
z
" clip-path="url(#p0a010e7db2)" style="fill: #1f8a56; stroke: #1f8a56; stroke-linejoin: miter"/>
   </g>
   <g id="patch_14">
    <path d="M 211.503858 152.885766 
L 221.227661 152.885766 
L 221.227661 121.695024 
L 211.503858 121.695024 
z
" clip-path="url(#p0a010e7db2)" style="fill: #1f8a56; stroke: #1f8a56; stroke-linejoin: miter"/>
   </g>
   <g id="patch_15">
    <path d="M 229.183499 121.368959 
L 238.907302 121.368959 
L 238.907302 114.42465 
L 229.183499 114.42465 
z
" clip-path="url(#p0a010e7db2)" style="fill: #b91c1c; stroke: #b91c1c; stroke-linejoin: miter"/>
   </g>
   <g id="patch_16">
    <path d="M 246.863141 127.273699 
L 256.586944 127.273699 
L 256.586944 120.259987 
L 246.863141 120.259987 
z
" clip-path="url(#p0a010e7db2)" style="fill: #1f8a56; stroke: #1f8a56; stroke-linejoin: miter"/>
   </g>
   <g id="patch_17">
    <path d="M 264.542783 117.031098 
L 274.266585 117.031098 
L 274.266585 106.279715 
L 264.542783 106.279715 
z
" clip-path="url(#p0a010e7db2)" style="fill: #1f8a56; stroke: #1f8a56; stroke-linejoin: miter"/>
   </g>
   <g id="patch_18">
    <path d="M 282.222424 105.200641 
L 291.946227 105.200641 
L 291.946227 98.256332 
L 282.222424 98.256332 
z
" clip-path="url(#p0a010e7db2)" style="fill: #b91c1c; stroke: #b91c1c; stroke-linejoin: miter"/>
   </g>
   <g id="patch_19">
    <path d="M 299.902066 95.874602 
L 309.625869 95.874602 
L 309.625869 84.267376 
L 299.902066 84.267376 
z
" clip-path="url(#p0a010e7db2)" style="fill: #1f8a56; stroke: #1f8a56; stroke-linejoin: miter"/>
   </g>
   <g id="patch_20">
    <path d="M 317.581707 88.597206 
L 327.30551 88.597206 
L 327.30551 61.424341 
L 317.581707 61.424341 
z
" clip-path="url(#p0a010e7db2)" style="fill: #1f8a56; stroke: #1f8a56; stroke-linejoin: miter"/>
   </g>
   <g id="patch_21">
    <path d="M 335.261349 61.083406 
L 344.985152 61.083406 
L 344.985152 48.714987 
L 335.261349 48.714987 
z
" clip-path="url(#p0a010e7db2)" style="fill: #1f8a56; stroke: #1f8a56; stroke-linejoin: miter"/>
   </g>
   <g id="patch_22">
    <path d="M 352.940991 57.171216 
L 362.664794 57.171216 
L 362.664794 44.346117 
L 352.940991 44.346117 
z
" clip-path="url(#p0a010e7db2)" style="fill: #b91c1c; stroke: #b91c1c; stroke-linejoin: miter"/>
   </g>
   <g id="patch_23">
    <path d="M 370.620632 76.80633 
L 380.344435 76.80633 
L 380.344435 60.454772 
L 370.620632 60.454772 
z
" clip-path="url(#p0a010e7db2)" style="fill: #b91c1c; stroke: #b91c1c; stroke-linejoin: miter"/>
   </g>
   <g id="patch_24">
    <path d="M 388.300274 82.254692 
L 398.024077 82.254692 
L 398.024077 75.310383 
L 388.300274 75.310383 
z
" clip-path="url(#p0a010e7db2)" style="fill: #1f8a56; stroke: #1f8a56; stroke-linejoin: miter"/>
   </g>
   <g id="patch_25">
    <path d="M 405.979916 100.891424 
L 415.703718 100.891424 
L 415.703718 79.390188 
L 405.979916 79.390188 
z
" clip-path="url(#p0a010e7db2)" style="fill: #b91c1c; stroke: #b91c1c; stroke-linejoin: miter"/>
   </g>
   <g id="patch_26">
    <path d="M 423.659557 120.069373 
L 433.38336 120.069373 
L 433.38336 102.281719 
L 423.659557 102.281719 
z
" clip-path="url(#p0a010e7db2)" style="fill: #b91c1c; stroke: #b91c1c; stroke-linejoin: miter"/>
   </g>
   <g id="patch_27">
    <path d="M 441.339199 150.343453 
L 451.063002 150.343453 
L 451.063002 113.89629 
L 441.339199 113.89629 
z
" clip-path="url(#p0a010e7db2)" style="fill: #b91c1c; stroke: #b91c1c; stroke-linejoin: miter"/>
   </g>
   <g id="patch_28">
    <path d="M 459.01884 167.084622 
L 468.742643 167.084622 
L 468.742643 147.027023 
L 459.01884 147.027023 
z
" clip-path="url(#p0a010e7db2)" style="fill: #b91c1c; stroke: #b91c1c; stroke-linejoin: miter"/>
   </g>
   <g id="patch_29">
    <path d="M 476.698482 177.019263 
L 486.422285 177.019263 
L 486.422285 167.692182 
L 476.698482 167.692182 
z
" clip-path="url(#p0a010e7db2)" style="fill: #b91c1c; stroke: #b91c1c; stroke-linejoin: miter"/>
   </g>
   <g id="patch_30">
    <path d="M 494.378124 187.145278 
L 504.101927 187.145278 
L 504.101927 175.871145 
L 494.378124 175.871145 
z
" clip-path="url(#p0a010e7db2)" style="fill: #b91c1c; stroke: #b91c1c; stroke-linejoin: miter"/>
   </g>
   <g id="patch_31">
    <path d="M 512.057765 192.547564 
L 521.781568 192.547564 
L 521.781568 185.603256 
L 512.057765 185.603256 
z
" clip-path="url(#p0a010e7db2)" style="fill: #b91c1c; stroke: #b91c1c; stroke-linejoin: miter"/>
   </g>
   <g id="patch_32">
    <path d="M 529.737407 200.208216 
L 539.46121 200.208216 
L 539.46121 192.513938 
L 529.737407 192.513938 
z
" clip-path="url(#p0a010e7db2)" style="fill: #b91c1c; stroke: #b91c1c; stroke-linejoin: miter"/>
   </g>
   <g id="patch_33">
    <path d="M 547.417049 225.821275 
L 557.140852 225.821275 
L 557.140852 205.086182 
L 547.417049 205.086182 
z
" clip-path="url(#p0a010e7db2)" style="fill: #b91c1c; stroke: #b91c1c; stroke-linejoin: miter"/>
   </g>
   <g id="patch_34">
    <path d="M 565.09669 257.363737 
L 574.820493 257.363737 
L 574.820493 230.051999 
L 565.09669 230.051999 
z
" clip-path="url(#p0a010e7db2)" style="fill: #b91c1c; stroke: #b91c1c; stroke-linejoin: miter"/>
   </g>
   <g id="patch_35">
    <path d="M 582.776332 272.809706 
L 592.500135 272.809706 
L 592.500135 256.29522 
L 582.776332 256.29522 
z
" clip-path="url(#p0a010e7db2)" style="fill: #b91c1c; stroke: #b91c1c; stroke-linejoin: miter"/>
   </g>
  </g>
 </g>
 <defs>
  <clipPath id="p0a010e7db2">
   <rect x="57.248984" y="7.2" width="548.068891" height="300.92"/>
  </clipPath>
 </defs>
</svg>
