<?xml version="1.0" encoding="utf-8" standalone="no"?>
<!DOCTYPE svg PUBLIC "-//W3C//DTD SVG 1.1//EN"
  "http://www.w3.org/Graphics/SVG/1.1/DTD/svg11.dtd">
<svg xmlns:xlink="http://www.w3.org/1999/xlink" width="837.15pt" height="311.55pt" viewBox="0 0 837.15 311.55" xmlns="http://www.w3.org/2000/svg" version="1.1">
 <metadata>
  <rdf:RDF xmlns:dc="http://purl.org/dc/elements/1.1/" xmlns:cc="http://creativecommons.org/ns#" xmlns:rdf="http://www.w3.org/1999/02/22-rdf-syntax-ns#">
   <cc:Work>
    <dc:type rdf:resource="http://purl.org/dc/dcmitype/StillImage"/>
    <dc:date>2026-07-18T19:30:38.492718</dc:date>
    <dc:format>image/svg+xml</dc:format>
    <dc:creator>
     <cc:Agent>
      <dc:title>Matplotlib v3.11.1, https://matplotlib.org/</dc:title>
     </cc:Agent>
    </dc:creator>
   </cc:Work>
  </rdf:RDF>
 </metadata>
 <defs>
  <style type="text/css">*{stroke-linejoin: round; stroke-linecap: butt}</style>
 </defs>
 <g id="figure_1">
  <g id="patch_1">
   <path d="M 0 311.55 
L 837.15 311.55 
L 837.15 -0 
L 0 -0 
z
" style="fill: #ffffff"/>
  </g>
  <g id="axes_1">
   <g id="patch_2">
    <path d="M 7.2 304.35 
L 279.7 304.35 
L 279.7 20.798437 
L 7.2 20.798437 
z
" style="fill: #ffffff"/>
   </g>
   <g id="matplotlib.axis_1"/>
   <g id="matplotlib.axis_2"/>
   <g id="patch_3">
    <path d="M 7.2 304.35 
L 7.2 20.798438 
" style="fill: none; stroke: #1f2937; stroke-width: 0.8; stroke-linejoin: miter; stroke-linecap: square"/>
   </g>
   <g id="patch_4">
    <path d="M 7.2 304.35 
L 279.7 304.35 
" style="fill: none; stroke: #1f2937; stroke-width: 0.8; stroke-linejoin: miter; stroke-linecap: square"/>
   </g>
   <g id="line2d_1">
    <path d="M 18.1 254.986661 
L 18.1 248.666959 
" clip-path="url(#pb1212d32bc)" style="fill: none; stroke: #b91c1c; stroke-width: 1.1; stroke-linecap: round"/>
   </g>
   <g id="line2d_2">
    <path d="M 29 266.821117 
L 29 251.090381 
" clip-path="url(#pb1212d32bc)" style="fill: none; stroke: #b91c1c; stroke-width: 1.1; stroke-linecap: round"/>
   </g>
   <g id="line2d_3">
    <path d="M 39.9 265.966257 
L 39.9 249.094837 
" clip-path="url(#pb1212d32bc)" style="fill: none; stroke: #1f8a56; stroke-width: 1.1; stroke-linecap: round"/>
   </g>
   <g id="line2d_4">
    <path d="M 50.8 251.991738 
L 50.8 234.959924 
" clip-path="url(#pb1212d32bc)" style="fill: none; stroke: #1f8a56; stroke-width: 1.1; stroke-linecap: round"/>
   </g>
   <g id="line2d_5">
    <path d="M 61.7 241.442854 
L 61.7 228.305399 
" clip-path="url(#pb1212d32bc)" style="fill: none; stroke: #1f8a56; stroke-width: 1.1; stroke-linecap: round"/>
   </g>
   <g id="line2d_6">
    <path d="M 72.6 229.814277 
L 72.6 217.664713 
" clip-path="url(#pb1212d32bc)" style="fill: none; stroke: #1f8a56; stroke-width: 1.1; stroke-linecap: round"/>
   </g>
   <g id="line2d_7">
    <path d="M 83.5 221.510828 
L 83.5 190.800368 
" clip-path="url(#pb1212d32bc)" style="fill: none; stroke: #1f8a56; stroke-width: 1.1; stroke-linecap: round"/>
   </g>
   <g id="line2d_8">
    <path d="M 94.4 196.338277 
L 94.4 171.389346 
" clip-path="url(#pb1212d32bc)" style="fill: none; stroke: #1f8a56; stroke-width: 1.1; stroke-linecap: round"/>
   </g>
   <g id="line2d_9">
    <path d="M 105.3 177.978699 
L 105.3 158.984041 
" clip-path="url(#pb1212d32bc)" style="fill: none; stroke: #1f8a56; stroke-width: 1.1; stroke-linecap: round"/>
   </g>
   <g id="line2d_10">
    <path d="M 116.2 162.152873 
L 116.2 142.631719 
" clip-path="url(#pb1212d32bc)" style="fill: none; stroke: #1f8a56; stroke-width: 1.1; stroke-linecap: round"/>
   </g>
   <g id="line2d_11">
    <path d="M 127.1 145.436209 
L 127.1 140.257371 
" clip-path="url(#pb1212d32bc)" style="fill: none; stroke: #b91c1c; stroke-width: 1.1; stroke-linecap: round"/>
   </g>
   <g id="line2d_12">
    <path d="M 138 144.867932 
L 138 125.569837 
" clip-path="url(#pb1212d32bc)" style="fill: none; stroke: #1f8a56; stroke-width: 1.1; stroke-linecap: round"/>
   </g>
   <g id="line2d_13">
    <path d="M 148.9 136.042034 
L 148.9 120.86887 
" clip-path="url(#pb1212d32bc)" style="fill: none; stroke: #b91c1c; stroke-width: 1.1; stroke-linecap: round"/>
   </g>
   <g id="line2d_14">
    <path d="M 159.8 135.988021 
L 159.8 127.188615 
" clip-path="url(#pb1212d32bc)" style="fill: none; stroke: #1f8a56; stroke-width: 1.1; stroke-linecap: round"/>
   </g>
   <g id="line2d_15">
    <path d="M 170.7 133.588185 
L 170.7 125.652794 
" clip-path="url(#pb1212d32bc)" style="fill: none; stroke: #1f8a56; stroke-width: 1.1; stroke-linecap: round"/>
   </g>
   <g id="line2d_16">
    <path d="M 181.6 135.09199 
L 181.6 122.525867 
" clip-path="url(#pb1212d32bc)" style="fill: none; stroke: #b91c1c; stroke-width: 1.1; stroke-linecap: round"/>
   </g>
   <g id="line2d_17">
    <path d="M 192.5 139.161971 
L 192.5 124.810171 
" clip-path="url(#pb1212d32bc)" style="fill: none; stroke: #1f8a56; stroke-width: 1.1; stroke-linecap: round"/>
   </g>
   <g id="line2d_18">
    <path d="M 203.4 128.849519 
L 203.4 101.823385 
" clip-path="url(#pb1212d32bc)" style="fill: none; stroke: #1f8a56; stroke-width: 1.1; stroke-linecap: round"/>
   </g>
   <g id="line2d_19">
    <path d="M 214.3 104.007007 
L 214.3 97.537192 
" clip-path="url(#pb1212d32bc)" style="fill: none; stroke: #1f8a56; stroke-width: 1.1; stroke-linecap: round"/>
   </g>
   <g id="line2d_20">
    <path d="M 225.2 104.391198 
L 225.2 92.518071 
" clip-path="url(#pb1212d32bc)" style="fill: none; stroke: #b91c1c; stroke-width: 1.1; stroke-linecap: round"/>
   </g>
   <g id="line2d_21">
    <path d="M 236.1 102.555476 
L 236.1 91.824886 
" clip-path="url(#pb1212d32bc)" style="fill: none; stroke: #1f8a56; stroke-width: 1.1; stroke-linecap: round"/>
   </g>
   <g id="line2d_22">
    <path d="M 247 93.551513 
L 247 74.843853 
" clip-path="url(#pb1212d32bc)" style="fill: none; stroke: #1f8a56; stroke-width: 1.1; stroke-linecap: round"/>
   </g>
   <g id="line2d_23">
    <path d="M 257.9 78.272109 
L 257.9 66.810182 
" clip-path="url(#pb1212d32bc)" style="fill: none; stroke: #1f8a56; stroke-width: 1.1; stroke-linecap: round"/>
   </g>
   <g id="line2d_24">
    <path d="M 268.8 67.370025 
L 268.8 58.327321 
" clip-path="url(#pb1212d32bc)" style="fill: none; stroke: #1f8a56; stroke-width: 1.1; stroke-linecap: round"/>
   </g>
   <g id="text_1">
    <!-- Daily — bias -->
    <g style="fill: #1f2937" transform="translate(109.113281 14.798437) scale(0.1 -0.1)">
     <defs>
      <path id="DejaVuSans-Bold-27" d="M 1791 3756 
L 1791 909 
L 2222 909 
Q 2959 909 3348 1275 
Q 3738 1641 3738 2338 
Q 3738 3031 3350 3393 
Q 2963 3756 2222 3756 
L 1791 3756 
z
M 588 4666 
L 1856 4666 
Q 2919 4666 3439 4514 
Q 3959 4363 4331 4000 
Q 4659 3684 4818 3271 
Q 4978 2859 4978 2338 
Q 4978 1809 4818 1395 
Q 4659 981 4331 666 
Q 3956 303 3431 151 
Q 2906 0 1856 0 
L 588 0 
L 588 4666 
z
" transform="scale(0.015625)"/>
      <path id="DejaVuSans-Bold-44" d="M 2106 1575 
Q 1756 1575 1579 1456 
Q 1403 1338 1403 1106 
Q 1403 894 1545 773 
Q 1688 653 1941 653 
Q 2256 653 2472 879 
Q 2688 1106 2688 1447 
L 2688 1575 
L 2106 1575 
z
M 3816 1997 
L 3816 0 
L 2688 0 
L 2688 519 
Q 2463 200 2181 54 
Q 1900 -91 1497 -91 
Q 953 -91 614 226 
Q 275 544 275 1050 
Q 275 1666 698 1953 
Q 1122 2241 2028 2241 
L 2688 2241 
L 2688 2328 
Q 2688 2594 2478 2717 
Q 2269 2841 1825 2841 
Q 1466 2841 1156 2769 
Q 847 2697 581 2553 
L 581 3406 
Q 941 3494 1303 3539 
Q 1666 3584 2028 3584 
Q 2975 3584 3395 3211 
Q 3816 2838 3816 1997 
z
" transform="scale(0.015625)"/>
      <path id="DejaVuSans-Bold-4c" d="M 538 3500 
L 1656 3500 
L 1656 0 
L 538 0 
L 538 3500 
z
M 538 4863 
L 1656 4863 
L 1656 3950 
L 538 3950 
L 538 4863 
z
" transform="scale(0.015625)"/>
      <path id="DejaVuSans-Bold-4f" d="M 538 4863 
L 1656 4863 
L 1656 0 
L 538 0 
L 538 4863 
z
" transform="scale(0.015625)"/>
      <path id="DejaVuSans-Bold-5c" d="M 78 3500 
L 1197 3500 
L 2138 1125 
L 2938 3500 
L 4056 3500 
L 2584 -331 
Q 2363 -916 2067 -1148 
Q 1772 -1381 1288 -1381 
L 641 -1381 
L 641 -647 
L 991 -647 
Q 1275 -647 1404 -556 
Q 1534 -466 1606 -231 
L 1638 -134 
L 78 3500 
z
" transform="scale(0.015625)"/>
      <path id="DejaVuSans-Bold-3" transform="scale(0.015625)"/>
      <path id="DejaVuSans-Bold-af6" d="M 344 2156 
L 6056 2156 
L 6056 1350 
L 344 1350 
L 344 2156 
z
" transform="scale(0.015625)"/>
      <path id="DejaVuSans-Bold-45" d="M 2400 722 
Q 2759 722 2948 984 
Q 3138 1247 3138 1747 
Q 3138 2247 2948 2509 
Q 2759 2772 2400 2772 
Q 2041 2772 1848 2508 
Q 1656 2244 1656 1747 
Q 1656 1250 1848 986 
Q 2041 722 2400 722 
z
M 1656 2988 
Q 1888 3294 2169 3439 
Q 2450 3584 2816 3584 
Q 3463 3584 3878 3070 
Q 4294 2556 4294 1747 
Q 4294 938 3878 423 
Q 3463 -91 2816 -91 
Q 2450 -91 2169 54 
Q 1888 200 1656 506 
L 1656 0 
L 538 0 
L 538 4863 
L 1656 4863 
L 1656 2988 
z
" transform="scale(0.015625)"/>
      <path id="DejaVuSans-Bold-56" d="M 3272 3391 
L 3272 2541 
Q 2913 2691 2578 2766 
Q 2244 2841 1947 2841 
Q 1628 2841 1473 2761 
Q 1319 2681 1319 2516 
Q 1319 2381 1436 2309 
Q 1553 2238 1856 2203 
L 2053 2175 
Q 2913 2066 3209 1816 
Q 3506 1566 3506 1031 
Q 3506 472 3093 190 
Q 2681 -91 1863 -91 
Q 1516 -91 1145 -36 
Q 775 19 384 128 
L 384 978 
Q 719 816 1070 734 
Q 1422 653 1784 653 
Q 2113 653 2278 743 
Q 2444 834 2444 1013 
Q 2444 1163 2330 1236 
Q 2216 1309 1875 1350 
L 1678 1375 
Q 931 1469 631 1722 
Q 331 1975 331 2491 
Q 331 3047 712 3315 
Q 1094 3584 1881 3584 
Q 2191 3584 2531 3537 
Q 2872 3491 3272 3391 
z
" transform="scale(0.015625)"/>
     </defs>
     <use xlink:href="#DejaVuSans-Bold-27"/>
     <use xlink:href="#DejaVuSans-Bold-44" transform="translate(83.015625 0)"/>
     <use xlink:href="#DejaVuSans-Bold-4c" transform="translate(150.5 0)"/>
     <use xlink:href="#DejaVuSans-Bold-4f" transform="translate(184.78125 0)"/>
     <use xlink:href="#DejaVuSans-Bold-5c" transform="translate(219.0625 0)"/>
     <use xlink:href="#DejaVuSans-Bold-3" transform="translate(284.25 0)"/>
     <use xlink:href="#DejaVuSans-Bold-af6" transform="translate(319.0625 0)"/>
     <use xlink:href="#DejaVuSans-Bold-3" transform="translate(419.0625 0)"/>
     <use xlink:href="#DejaVuSans-Bold-45" transform="translate(453.875 0)"/>
     <use xlink:href="#DejaVuSans-Bold-4c" transform="translate(525.453125 0)"/>
     <use xlink:href="#DejaVuSans-Bold-44" transform="translate(559.734375 0)"/>
     <use xlink:href="#DejaVuSans-Bold-56" transform="translate(627.21875 0)"/>
    </g>
   </g>
   <g id="patch_5">
    <path d="M 14.83 253.65115 
L 21.37 253.65115 
L 21.37 247.396335 
L 14.83 247.396335 
z
" clip-path="url(#pb1212d32bc)" style="fill: #b91c1c; stroke: #b91c1c; stroke-linejoin: miter"/>
   </g>
   <g id="patch_6">
    <path d="M 25.73 265.582715 
L 32.27 265.582715 
L 32.27 251.44232 
L 25.73 251.44232 
z
" clip-path="url(#pb1212d32bc)" style="fill: #b91c1c; stroke: #b91c1c; stroke-linejoin: miter"/>
   </g>
   <g id="patch_7">
    <path d="M 36.63 262.92809 
L 43.17 262.92809 
L 43.17 251.313659 
L 36.63 251.313659 
z
" clip-path="url(#pb1212d32bc)" style="fill: #1f8a56; stroke: #1f8a56; stroke-linejoin: miter"/>
   </g>
   <g id="patch_8">
    <path d="M 47.53 251.185826 
L 54.07 251.185826 
L 54.07 235.644223 
L 47.53 235.644223 
z
" clip-path="url(#pb1212d32bc)" style="fill: #1f8a56; stroke: #1f8a56; stroke-linejoin: miter"/>
   </g>
   <g id="patch_9">
    <path d="M 58.43 239.402612 
L 64.97 239.402612 
L 64.97 230.443221 
L 58.43 230.443221 
z
" clip-path="url(#pb1212d32bc)" style="fill: #1f8a56; stroke: #1f8a56; stroke-linejoin: miter"/>
   </g>
   <g id="patch_10">
    <path d="M 69.33 229.203403 
L 75.87 229.203403 
L 75.87 218.517987 
L 69.33 218.517987 
z
" clip-path="url(#pb1212d32bc)" style="fill: #1f8a56; stroke: #1f8a56; stroke-linejoin: miter"/>
   </g>
   <g id="patch_11">
    <path d="M 80.23 219.714467 
L 86.77 219.714467 
L 86.77 193.252982 
L 80.23 193.252982 
z
" clip-path="url(#pb1212d32bc)" style="fill: #1f8a56; stroke: #1f8a56; stroke-linejoin: miter"/>
   </g>
   <g id="patch_12">
    <path d="M 91.13 193.641677 
L 97.67 193.641677 
L 97.67 174.439948 
L 91.13 174.439948 
z
" clip-path="url(#pb1212d32bc)" style="fill: #1f8a56; stroke: #1f8a56; stroke-linejoin: miter"/>
   </g>
   <g id="patch_13">
    <path d="M 102.03 174.696631 
L 108.57 174.696631 
L 108.57 159.134585 
L 102.03 159.134585 
z
" clip-path="url(#pb1212d32bc)" style="fill: #1f8a56; stroke: #1f8a56; stroke-linejoin: miter"/>
   </g>
   <g id="patch_14">
    <path d="M 112.93 160.192793 
L 119.47 160.192793 
L 119.47 144.026771 
L 112.93 144.026771 
z
" clip-path="url(#pb1212d32bc)" style="fill: #1f8a56; stroke: #1f8a56; stroke-linejoin: miter"/>
   </g>
   <g id="patch_15">
    <path d="M 123.83 144.327065 
L 130.37 144.327065 
L 130.37 138.072251 
L 123.83 138.072251 
z
" clip-path="url(#pb1212d32bc)" style="fill: #b91c1c; stroke: #b91c1c; stroke-linejoin: miter"/>
   </g>
   <g id="patch_16">
    <path d="M 134.73 141.340083 
L 141.27 141.340083 
L 141.27 126.475288 
L 134.73 126.475288 
z
" clip-path="url(#pb1212d32bc)" style="fill: #1f8a56; stroke: #1f8a56; stroke-linejoin: miter"/>
   </g>
   <g id="patch_17">
    <path d="M 145.63 134.571379 
L 152.17 134.571379 
L 152.17 124.997233 
L 145.63 124.997233 
z
" clip-path="url(#pb1212d32bc)" style="fill: #b91c1c; stroke: #b91c1c; stroke-linejoin: miter"/>
   </g>
   <g id="patch_18">
    <path d="M 156.53 134.193502 
L 163.07 134.193502 
L 163.07 127.938687 
L 156.53 127.938687 
z
" clip-path="url(#pb1212d32bc)" style="fill: #1f8a56; stroke: #1f8a56; stroke-linejoin: miter"/>
   </g>
   <g id="patch_19">
    <path d="M 167.43 130.892304 
L 173.97 130.892304 
L 173.97 124.637489 
L 167.43 124.637489 
z
" clip-path="url(#pb1212d32bc)" style="fill: #1f8a56; stroke: #1f8a56; stroke-linejoin: miter"/>
   </g>
   <g id="patch_20">
    <path d="M 178.33 134.550565 
L 184.87 134.550565 
L 184.87 124.692861 
L 178.33 124.692861 
z
" clip-path="url(#pb1212d32bc)" style="fill: #b91c1c; stroke: #b91c1c; stroke-linejoin: miter"/>
   </g>
   <g id="patch_21">
    <path d="M 189.23 137.2745 
L 195.77 137.2745 
L 195.77 127.369584 
L 189.23 127.369584 
z
" clip-path="url(#pb1212d32bc)" style="fill: #1f8a56; stroke: #1f8a56; stroke-linejoin: miter"/>
   </g>
   <g id="patch_22">
    <path d="M 200.13 127.310186 
L 206.67 127.310186 
L 206.67 102.769438 
L 200.13 102.769438 
z
" clip-path="url(#pb1212d32bc)" style="fill: #1f8a56; stroke: #1f8a56; stroke-linejoin: miter"/>
   </g>
   <g id="patch_23">
    <path d="M 211.03 102.895519 
L 217.57 102.895519 
L 217.57 96.640705 
L 211.03 96.640705 
z
" clip-path="url(#pb1212d32bc)" style="fill: #1f8a56; stroke: #1f8a56; stroke-linejoin: miter"/>
   </g>
   <g id="patch_24">
    <path d="M 221.93 101.588133 
L 228.47 101.588133 
L 228.47 94.722896 
L 221.93 94.722896 
z
" clip-path="url(#pb1212d32bc)" style="fill: #b91c1c; stroke: #b91c1c; stroke-linejoin: miter"/>
   </g>
   <g id="patch_25">
    <path d="M 232.83 98.682628 
L 239.37 98.682628 
L 239.37 92.427814 
L 232.83 92.427814 
z
" clip-path="url(#pb1212d32bc)" style="fill: #1f8a56; stroke: #1f8a56; stroke-linejoin: miter"/>
   </g>
   <g id="patch_26">
    <path d="M 243.73 92.859724 
L 250.27 92.859724 
L 250.27 77.457297 
L 243.73 77.457297 
z
" clip-path="url(#pb1212d32bc)" style="fill: #1f8a56; stroke: #1f8a56; stroke-linejoin: miter"/>
   </g>
   <g id="patch_27">
    <path d="M 254.63 77.822787 
L 261.17 77.822787 
L 261.17 67.261305 
L 254.63 67.261305 
z
" clip-path="url(#pb1212d32bc)" style="fill: #1f8a56; stroke: #1f8a56; stroke-linejoin: miter"/>
   </g>
   <g id="patch_28">
    <path d="M 265.53 65.183404 
L 272.07 65.183404 
L 272.07 58.928589 
L 265.53 58.928589 
z
" clip-path="url(#pb1212d32bc)" style="fill: #1f8a56; stroke: #1f8a56; stroke-linejoin: miter"/>
   </g>
  </g>
  <g id="axes_2">
   <g id="patch_29">
    <path d="M 282.325 304.35 
L 554.825 304.35 
L 554.825 20.798437 
L 282.325 20.798437 
z
" style="fill: #ffffff"/>
   </g>
   <g id="matplotlib.axis_3"/>
   <g id="matplotlib.axis_4"/>
   <g id="patch_30">
    <path d="M 282.325 304.35 
L 282.325 20.798437 
" style="fill: none; stroke: #1f2937; stroke-width: 0.8; stroke-linejoin: miter; stroke-linecap: square"/>
   </g>
   <g id="patch_31">
    <path d="M 282.325 304.35 
L 554.825 304.35 
" style="fill: none; stroke: #1f2937; stroke-width: 0.8; stroke-linejoin: miter; stroke-linecap: square"/>
   </g>
   <g id="line2d_25">
    <path d="M 293.225 266.821117 
L 293.225 254.287512 
" clip-path="url(#p61ce36952d)" style="fill: none; stroke: #1f8a56; stroke-width: 1.1; stroke-linecap: round"/>
   </g>
   <g id="line2d_26">
    <path d="M 304.125 265.469746 
L 304.125 210.970427 
" clip-path="url(#p61ce36952d)" style="fill: none; stroke: #1f8a56; stroke-width: 1.1; stroke-linecap: round"/>
   </g>
   <g id="line2d_27">
    <path d="M 315.025 218.329875 
L 315.025 182.026186 
" clip-path="url(#p61ce36952d)" style="fill: none; stroke: #1f8a56; stroke-width: 1.1; stroke-linecap: round"/>
   </g>
   <g id="line2d_28">
    <path d="M 325.925 209.036695 
L 325.925 186.807574 
" clip-path="url(#p61ce36952d)" style="fill: none; stroke: #b91c1c; stroke-width: 1.1; stroke-linecap: round"/>
   </g>
   <g id="line2d_29">
    <path d="M 336.825 212.597719 
L 336.825 192.51418 
" clip-path="url(#p61ce36952d)" style="fill: none; stroke: #b91c1c; stroke-width: 1.1; stroke-linecap: round"/>
   </g>
   <g id="line2d_30">
    <path d="M 347.725 206.633297 
L 347.725 189.033026 
" clip-path="url(#p61ce36952d)" style="fill: none; stroke: #1f8a56; stroke-width: 1.1; stroke-linecap: round"/>
   </g>
   <g id="line2d_31">
    <path d="M 358.625 196.604385 
L 358.625 180.398879 
" clip-path="url(#p61ce36952d)" style="fill: none; stroke: #1f8a56; stroke-width: 1.1; stroke-linecap: round"/>
   </g>
   <g id="line2d_32">
    <path d="M 369.525 195.523384 
L 369.525 153.126958 
" clip-path="url(#p61ce36952d)" style="fill: none; stroke: #1f8a56; stroke-width: 1.1; stroke-linecap: round"/>
   </g>
   <g id="line2d_33">
    <path d="M 380.425 194.026666 
L 380.425 154.720531 
" clip-path="url(#p61ce36952d)" style="fill: none; stroke: #b91c1c; stroke-width: 1.1; stroke-linecap: round"/>
   </g>
   <g id="line2d_34">
    <path d="M 391.325 200.170477 
L 391.325 142.137493 
" clip-path="url(#p61ce36952d)" style="fill: none; stroke: #1f8a56; stroke-width: 1.1; stroke-linecap: round"/>
   </g>
   <g id="line2d_35">
    <path d="M 402.225 149.166262 
L 402.225 99.408519 
" clip-path="url(#p61ce36952d)" style="fill: none; stroke: #1f8a56; stroke-width: 1.1; stroke-linecap: round"/>
   </g>
   <g id="line2d_36">
    <path d="M 413.125 134.904819 
L 413.125 98.825904 
" clip-path="url(#p61ce36952d)" style="fill: none; stroke: #b91c1c; stroke-width: 1.1; stroke-linecap: round"/>
   </g>
   <g id="line2d_37">
    <path d="M 424.025 138.373034 
L 424.025 121.98446 
" clip-path="url(#p61ce36952d)" style="fill: none; stroke: #1f8a56; stroke-width: 1.1; stroke-linecap: round"/>
   </g>
   <g id="line2d_38">
    <path d="M 434.925 135.391296 
L 434.925 125.54088 
" clip-path="url(#p61ce36952d)" style="fill: none; stroke: #b91c1c; stroke-width: 1.1; stroke-linecap: round"/>
   </g>
   <g id="line2d_39">
    <path d="M 445.825 140.179492 
L 445.825 123.884956 
" clip-path="url(#p61ce36952d)" style="fill: none; stroke: #b91c1c; stroke-width: 1.1; stroke-linecap: round"/>
   </g>
   <g id="line2d_40">
    <path d="M 456.725 144.828069 
L 456.725 105.319078 
" clip-path="url(#p61ce36952d)" style="fill: none; stroke: #1f8a56; stroke-width: 1.1; stroke-linecap: round"/>
   </g>
   <g id="line2d_41">
    <path d="M 467.625 121.786927 
L 467.625 108.0125 
" clip-path="url(#p61ce36952d)" style="fill: none; stroke: #b91c1c; stroke-width: 1.1; stroke-linecap: round"/>
   </g>
   <g id="line2d_42">
    <path d="M 478.525 129.267088 
L 478.525 119.672811 
" clip-path="url(#p61ce36952d)" style="fill: none; stroke: #b91c1c; stroke-width: 1.1; stroke-linecap: round"/>
   </g>
   <g id="line2d_43">
    <path d="M 489.425 140.861493 
L 489.425 99.3787 
" clip-path="url(#p61ce36952d)" style="fill: none; stroke: #1f8a56; stroke-width: 1.1; stroke-linecap: round"/>
   </g>
   <g id="line2d_44">
    <path d="M 500.325 109.112285 
L 500.325 71.272889 
" clip-path="url(#p61ce36952d)" style="fill: none; stroke: #1f8a56; stroke-width: 1.1; stroke-linecap: round"/>
   </g>
   <g id="line2d_45">
    <path d="M 511.225 82.110213 
L 511.225 78.591106 
" clip-path="url(#p61ce36952d)" style="fill: none; stroke: #1f8a56; stroke-width: 1.1; stroke-linecap: round"/>
   </g>
   <g id="line2d_46">
    <path d="M 522.125 93.518188 
L 522.125 61.767836 
" clip-path="url(#p61ce36952d)" style="fill: none; stroke: #1f8a56; stroke-width: 1.1; stroke-linecap: round"/>
   </g>
   <g id="line2d_47">
    <path d="M 533.025 95.243537 
L 533.025 61.587789 
" clip-path="url(#p61ce36952d)" style="fill: none; stroke: #b91c1c; stroke-width: 1.1; stroke-linecap: round"/>
   </g>
   <g id="line2d_48">
    <path d="M 543.925 96.359846 
L 543.925 58.327321 
" clip-path="url(#p61ce36952d)" style="fill: none; stroke: #1f8a56; stroke-width: 1.1; stroke-linecap: round"/>
   </g>
   <g id="text_2">
    <!-- 1H — zone of interest -->
    <g style="fill: #1f2937" transform="translate(357.765625 14.798437) scale(0.1 -0.1)">
     <defs>
      <path id="DejaVuSans-Bold-14" d="M 750 831 
L 1813 831 
L 1813 3847 
L 722 3622 
L 722 4441 
L 1806 4666 
L 2950 4666 
L 2950 831 
L 4013 831 
L 4013 0 
L 750 0 
L 750 831 
z
" transform="scale(0.015625)"/>
      <path id="DejaVuSans-Bold-2b" d="M 588 4666 
L 1791 4666 
L 1791 2888 
L 3566 2888 
L 3566 4666 
L 4769 4666 
L 4769 0 
L 3566 0 
L 3566 1978 
L 1791 1978 
L 1791 0 
L 588 0 
L 588 4666 
z
" transform="scale(0.015625)"/>
      <path id="DejaVuSans-Bold-5d" d="M 366 3500 
L 3419 3500 
L 3419 2719 
L 1575 800 
L 3419 800 
L 3419 0 
L 288 0 
L 288 781 
L 2131 2700 
L 366 2700 
L 366 3500 
z
" transform="scale(0.015625)"/>
      <path id="DejaVuSans-Bold-52" d="M 2203 2784 
Q 1831 2784 1636 2517 
Q 1441 2250 1441 1747 
Q 1441 1244 1636 976 
Q 1831 709 2203 709 
Q 2569 709 2762 976 
Q 2956 1244 2956 1747 
Q 2956 2250 2762 2517 
Q 2569 2784 2203 2784 
z
M 2203 3584 
Q 3106 3584 3614 3096 
Q 4122 2609 4122 1747 
Q 4122 884 3614 396 
Q 3106 -91 2203 -91 
Q 1297 -91 786 396 
Q 275 884 275 1747 
Q 275 2609 786 3096 
Q 1297 3584 2203 3584 
z
" transform="scale(0.015625)"/>
      <path id="DejaVuSans-Bold-51" d="M 4056 2131 
L 4056 0 
L 2931 0 
L 2931 347 
L 2931 1631 
Q 2931 2084 2911 2256 
Q 2891 2428 2841 2509 
Q 2775 2619 2662 2680 
Q 2550 2741 2406 2741 
Q 2056 2741 1856 2470 
Q 1656 2200 1656 1722 
L 1656 0 
L 538 0 
L 538 3500 
L 1656 3500 
L 1656 2988 
Q 1909 3294 2193 3439 
Q 2478 3584 2822 3584 
Q 3428 3584 3742 3212 
Q 4056 2841 4056 2131 
z
" transform="scale(0.015625)"/>
      <path id="DejaVuSans-Bold-48" d="M 4031 1759 
L 4031 1441 
L 1416 1441 
Q 1456 1047 1700 850 
Q 1944 653 2381 653 
Q 2734 653 3104 758 
Q 3475 863 3866 1075 
L 3866 213 
Q 3469 63 3072 -14 
Q 2675 -91 2278 -91 
Q 1328 -91 801 392 
Q 275 875 275 1747 
Q 275 2603 792 3093 
Q 1309 3584 2216 3584 
Q 3041 3584 3536 3087 
Q 4031 2591 4031 1759 
z
M 2881 2131 
Q 2881 2450 2695 2645 
Q 2509 2841 2209 2841 
Q 1884 2841 1681 2658 
Q 1478 2475 1428 2131 
L 2881 2131 
z
" transform="scale(0.015625)"/>
      <path id="DejaVuSans-Bold-49" d="M 2841 4863 
L 2841 4128 
L 2222 4128 
Q 1984 4128 1890 4042 
Q 1797 3956 1797 3744 
L 1797 3500 
L 2753 3500 
L 2753 2700 
L 1797 2700 
L 1797 0 
L 678 0 
L 678 2700 
L 122 2700 
L 122 3500 
L 678 3500 
L 678 3744 
Q 678 4316 997 4589 
Q 1316 4863 1984 4863 
L 2841 4863 
z
" transform="scale(0.015625)"/>
      <path id="DejaVuSans-Bold-57" d="M 1759 4494 
L 1759 3500 
L 2913 3500 
L 2913 2700 
L 1759 2700 
L 1759 1216 
Q 1759 972 1856 886 
Q 1953 800 2241 800 
L 2816 800 
L 2816 0 
L 1856 0 
Q 1194 0 917 276 
Q 641 553 641 1216 
L 641 2700 
L 84 2700 
L 84 3500 
L 641 3500 
L 641 4494 
L 1759 4494 
z
" transform="scale(0.015625)"/>
      <path id="DejaVuSans-Bold-55" d="M 3138 2547 
Q 2991 2616 2845 2648 
Q 2700 2681 2553 2681 
Q 2122 2681 1889 2404 
Q 1656 2128 1656 1613 
L 1656 0 
L 538 0 
L 538 3500 
L 1656 3500 
L 1656 2925 
Q 1872 3269 2151 3426 
Q 2431 3584 2822 3584 
Q 2878 3584 2943 3579 
Q 3009 3575 3134 3559 
L 3138 2547 
z
" transform="scale(0.015625)"/>
     </defs>
     <use xlink:href="#DejaVuSans-Bold-14"/>
     <use xlink:href="#DejaVuSans-Bold-2b" transform="translate(69.578125 0)"/>
     <use xlink:href="#DejaVuSans-Bold-3" transform="translate(153.265625 0)"/>
     <use xlink:href="#DejaVuSans-Bold-af6" transform="translate(188.078125 0)"/>
     <use xlink:href="#DejaVuSans-Bold-3" transform="translate(288.078125 0)"/>
     <use xlink:href="#DejaVuSans-Bold-5d" transform="translate(322.890625 0)"/>
     <use xlink:href="#DejaVuSans-Bold-52" transform="translate(381.09375 0)"/>
     <use xlink:href="#DejaVuSans-Bold-51" transform="translate(449.796875 0)"/>
     <use xlink:href="#DejaVuSans-Bold-48" transform="translate(520.984375 0)"/>
     <use xlink:href="#DejaVuSans-Bold-3" transform="translate(588.8125 0)"/>
     <use xlink:href="#DejaVuSans-Bold-52" transform="translate(623.625 0)"/>
     <use xlink:href="#DejaVuSans-Bold-49" transform="translate(692.328125 0)"/>
     <use xlink:href="#DejaVuSans-Bold-3" transform="translate(735.828125 0)"/>
     <use xlink:href="#DejaVuSans-Bold-4c" transform="translate(770.640625 0)"/>
     <use xlink:href="#DejaVuSans-Bold-51" transform="translate(804.921875 0)"/>
     <use xlink:href="#DejaVuSans-Bold-57" transform="translate(876.109375 0)"/>
     <use xlink:href="#DejaVuSans-Bold-48" transform="translate(923.90625 0)"/>
     <use xlink:href="#DejaVuSans-Bold-55" transform="translate(991.734375 0)"/>
     <use xlink:href="#DejaVuSans-Bold-48" transform="translate(1041.046875 0)"/>
     <use xlink:href="#DejaVuSans-Bold-56" transform="translate(1108.875 0)"/>
     <use xlink:href="#DejaVuSans-Bold-57" transform="translate(1168.390625 0)"/>
    </g>
   </g>
   <g id="patch_32">
    <path d="M 289.955 260.656907 
L 296.495 260.656907 
L 296.495 254.402092 
L 289.955 254.402092 
z
" clip-path="url(#p61ce36952d)" style="fill: #1f8a56; stroke: #1f8a56; stroke-linejoin: miter"/>
   </g>
   <g id="patch_33">
    <path d="M 300.855 264.454873 
L 307.395 264.454873 
L 307.395 211.558413 
L 300.855 211.558413 
z
" clip-path="url(#p61ce36952d)" style="fill: #1f8a56; stroke: #1f8a56; stroke-linejoin: miter"/>
   </g>
   <g id="patch_34">
    <path d="M 311.755 216.507604 
L 318.295 216.507604 
L 318.295 188.052378 
L 311.755 188.052378 
z
" clip-path="url(#p61ce36952d)" style="fill: #1f8a56; stroke: #1f8a56; stroke-linejoin: miter"/>
   </g>
   <g id="patch_35">
    <path d="M 322.655 204.240529 
L 329.195 204.240529 
L 329.195 189.535014 
L 322.655 189.535014 
z
" clip-path="url(#p61ce36952d)" style="fill: #b91c1c; stroke: #b91c1c; stroke-linejoin: miter"/>
   </g>
   <g id="patch_36">
    <path d="M 333.555 210.941622 
L 340.095 210.941622 
L 340.095 196.671304 
L 333.555 196.671304 
z
" clip-path="url(#p61ce36952d)" style="fill: #b91c1c; stroke: #b91c1c; stroke-linejoin: miter"/>
   </g>
   <g id="patch_37">
    <path d="M 344.455 206.171395 
L 350.995 206.171395 
L 350.995 189.274699 
L 344.455 189.274699 
z
" clip-path="url(#p61ce36952d)" style="fill: #1f8a56; stroke: #1f8a56; stroke-linejoin: miter"/>
   </g>
   <g id="patch_38">
    <path d="M 355.355 193.68222 
L 361.895 193.68222 
L 361.895 185.256763 
L 355.355 185.256763 
z
" clip-path="url(#p61ce36952d)" style="fill: #1f8a56; stroke: #1f8a56; stroke-linejoin: miter"/>
   </g>
   <g id="patch_39">
    <path d="M 366.255 190.283198 
L 372.795 190.283198 
L 372.795 157.130677 
L 366.255 157.130677 
z
" clip-path="url(#p61ce36952d)" style="fill: #1f8a56; stroke: #1f8a56; stroke-linejoin: miter"/>
   </g>
   <g id="patch_40">
    <path d="M 377.155 190.126402 
L 383.695 190.126402 
L 383.695 156.174724 
L 377.155 156.174724 
z
" clip-path="url(#p61ce36952d)" style="fill: #b91c1c; stroke: #b91c1c; stroke-linejoin: miter"/>
   </g>
   <g id="patch_41">
    <path d="M 388.055 189.973144 
L 394.595 189.973144 
L 394.595 144.053391 
L 388.055 144.053391 
z
" clip-path="url(#p61ce36952d)" style="fill: #1f8a56; stroke: #1f8a56; stroke-linejoin: miter"/>
   </g>
   <g id="patch_42">
    <path d="M 398.955 140.785738 
L 405.495 140.785738 
L 405.495 102.424782 
L 398.955 102.424782 
z
" clip-path="url(#p61ce36952d)" style="fill: #1f8a56; stroke: #1f8a56; stroke-linejoin: miter"/>
   </g>
   <g id="patch_43">
    <path d="M 409.855 125.787675 
L 416.395 125.787675 
L 416.395 99.489303 
L 409.855 99.489303 
z
" clip-path="url(#p61ce36952d)" style="fill: #b91c1c; stroke: #b91c1c; stroke-linejoin: miter"/>
   </g>
   <g id="patch_44">
    <path d="M 420.755 129.357248 
L 427.295 129.357248 
L 427.295 123.102433 
L 420.755 123.102433 
z
" clip-path="url(#p61ce36952d)" style="fill: #1f8a56; stroke: #1f8a56; stroke-linejoin: miter"/>
   </g>
   <g id="patch_45">
    <path d="M 431.655 133.578914 
L 438.195 133.578914 
L 438.195 127.324099 
L 431.655 127.324099 
z
" clip-path="url(#p61ce36952d)" style="fill: #b91c1c; stroke: #b91c1c; stroke-linejoin: miter"/>
   </g>
   <g id="patch_46">
    <path d="M 442.555 135.899099 
L 449.095 135.899099 
L 449.095 129.644284 
L 442.555 129.644284 
z
" clip-path="url(#p61ce36952d)" style="fill: #b91c1c; stroke: #b91c1c; stroke-linejoin: miter"/>
   </g>
   <g id="patch_47">
    <path d="M 453.455 141.235358 
L 459.995 141.235358 
L 459.995 111.607334 
L 453.455 111.607334 
z
" clip-path="url(#p61ce36952d)" style="fill: #1f8a56; stroke: #1f8a56; stroke-linejoin: miter"/>
   </g>
   <g id="patch_48">
    <path d="M 464.355 116.215845 
L 470.895 116.215845 
L 470.895 109.96103 
L 464.355 109.96103 
z
" clip-path="url(#p61ce36952d)" style="fill: #b91c1c; stroke: #b91c1c; stroke-linejoin: miter"/>
   </g>
   <g id="patch_49">
    <path d="M 475.255 128.676127 
L 481.795 128.676127 
L 481.795 120.362284 
L 475.255 120.362284 
z
" clip-path="url(#p61ce36952d)" style="fill: #b91c1c; stroke: #b91c1c; stroke-linejoin: miter"/>
   </g>
   <g id="patch_50">
    <path d="M 486.155 136.741579 
L 492.695 136.741579 
L 492.695 109.040784 
L 486.155 109.040784 
z
" clip-path="url(#p61ce36952d)" style="fill: #1f8a56; stroke: #1f8a56; stroke-linejoin: miter"/>
   </g>
   <g id="patch_51">
    <path d="M 497.055 105.046574 
L 503.595 105.046574 
L 503.595 76.747173 
L 497.055 76.747173 
z
" clip-path="url(#p61ce36952d)" style="fill: #1f8a56; stroke: #1f8a56; stroke-linejoin: miter"/>
   </g>
   <g id="patch_52">
    <path d="M 507.955 79.770286 
L 514.495 79.770286 
L 514.495 73.515471 
L 507.955 73.515471 
z
" clip-path="url(#p61ce36952d)" style="fill: #1f8a56; stroke: #1f8a56; stroke-linejoin: miter"/>
   </g>
   <g id="patch_53">
    <path d="M 518.855 89.304101 
L 525.395 89.304101 
L 525.395 67.541213 
L 518.855 67.541213 
z
" clip-path="url(#p61ce36952d)" style="fill: #1f8a56; stroke: #1f8a56; stroke-linejoin: miter"/>
   </g>
   <g id="patch_54">
    <path d="M 529.755 89.756391 
L 536.295 89.756391 
L 536.295 68.145476 
L 529.755 68.145476 
z
" clip-path="url(#p61ce36952d)" style="fill: #b91c1c; stroke: #b91c1c; stroke-linejoin: miter"/>
   </g>
   <g id="patch_55">
    <path d="M 540.655 90.716844 
L 547.195 90.716844 
L 547.195 63.836737 
L 540.655 63.836737 
z
" clip-path="url(#p61ce36952d)" style="fill: #1f8a56; stroke: #1f8a56; stroke-linejoin: miter"/>
   </g>
  </g>
  <g id="axes_3">
   <g id="patch_56">
    <path d="M 557.45 304.35 
L 829.95 304.35 
L 829.95 20.798437 
L 557.45 20.798437 
z
" style="fill: #ffffff"/>
   </g>
   <g id="matplotlib.axis_5"/>
   <g id="matplotlib.axis_6"/>
   <g id="patch_57">
    <path d="M 557.45 304.35 
L 557.45 20.798438 
" style="fill: none; stroke: #1f2937; stroke-width: 0.8; stroke-linejoin: miter; stroke-linecap: square"/>
   </g>
   <g id="patch_58">
    <path d="M 557.45 304.35 
L 829.95 304.35 
" style="fill: none; stroke: #1f2937; stroke-width: 0.8; stroke-linejoin: miter; stroke-linecap: square"/>
   </g>
   <g id="line2d_49">
    <path d="M 568.35 82.840332 
L 568.35 58.327321 
" clip-path="url(#pc6cdec110e)" style="fill: none; stroke: #1f8a56; stroke-width: 1.1; stroke-linecap: round"/>
   </g>
   <g id="line2d_50">
    <path d="M 579.25 104.683171 
L 579.25 60.879652 
" clip-path="url(#pc6cdec110e)" style="fill: none; stroke: #b91c1c; stroke-width: 1.1; stroke-linecap: round"/>
   </g>
   <g id="line2d_51">
    <path d="M 590.15 119.318686 
L 590.15 79.20267 
" clip-path="url(#pc6cdec110e)" style="fill: none; stroke: #1f8a56; stroke-width: 1.1; stroke-linecap: round"/>
   </g>
   <g id="line2d_52">
    <path d="M 601.05 112.290429 
L 601.05 77.187475 
" clip-path="url(#pc6cdec110e)" style="fill: none; stroke: #b91c1c; stroke-width: 1.1; stroke-linecap: round"/>
   </g>
   <g id="line2d_53">
    <path d="M 611.95 121.646768 
L 611.95 81.091132 
" clip-path="url(#pc6cdec110e)" style="fill: none; stroke: #1f8a56; stroke-width: 1.1; stroke-linecap: round"/>
   </g>
   <g id="line2d_54">
    <path d="M 622.85 123.523028 
L 622.85 72.829671 
" clip-path="url(#pc6cdec110e)" style="fill: none; stroke: #b91c1c; stroke-width: 1.1; stroke-linecap: round"/>
   </g>
   <g id="line2d_55">
    <path d="M 633.75 141.521822 
L 633.75 110.143226 
" clip-path="url(#pc6cdec110e)" style="fill: none; stroke: #b91c1c; stroke-width: 1.1; stroke-linecap: round"/>
   </g>
   <g id="line2d_56">
    <path d="M 644.65 153.191995 
L 644.65 118.79445 
" clip-path="url(#pc6cdec110e)" style="fill: none; stroke: #b91c1c; stroke-width: 1.1; stroke-linecap: round"/>
   </g>
   <g id="line2d_57">
    <path d="M 655.55 208.093445 
L 655.55 138.602302 
" clip-path="url(#pc6cdec110e)" style="fill: none; stroke: #b91c1c; stroke-width: 1.1; stroke-linecap: round"/>
   </g>
   <g id="line2d_58">
    <path d="M 666.45 212.525973 
L 666.45 173.698516 
" clip-path="url(#pc6cdec110e)" style="fill: none; stroke: #1f8a56; stroke-width: 1.1; stroke-linecap: round"/>
   </g>
   <g id="line2d_59">
    <path d="M 677.35 223.647269 
L 677.35 172.754969 
" clip-path="url(#pc6cdec110e)" style="fill: none; stroke: #b91c1c; stroke-width: 1.1; stroke-linecap: round"/>
   </g>
   <g id="line2d_60">
    <path d="M 688.25 253.199828 
L 688.25 208.17172 
" clip-path="url(#pc6cdec110e)" style="fill: none; stroke: #b91c1c; stroke-width: 1.1; stroke-linecap: round"/>
   </g>
   <g id="line2d_61">
    <path d="M 699.15 266.821117 
L 699.15 237.451988 
" clip-path="url(#pc6cdec110e)" style="fill: none; stroke: #b91c1c; stroke-width: 1.1; stroke-linecap: round"/>
   </g>
   <g id="line2d_62">
    <path d="M 710.05 258.384552 
L 710.05 237.295497 
" clip-path="url(#pc6cdec110e)" style="fill: none; stroke: #1f8a56; stroke-width: 1.1; stroke-linecap: round"/>
   </g>
   <g id="line2d_63">
    <path d="M 720.95 259.225395 
L 720.95 236.939919 
" clip-path="url(#pc6cdec110e)" style="fill: none; stroke: #b91c1c; stroke-width: 1.1; stroke-linecap: round"/>
   </g>
   <g id="line2d_64">
    <path d="M 731.85 252.519059 
L 731.85 198.976761 
" clip-path="url(#pc6cdec110e)" style="fill: none; stroke: #1f8a56; stroke-width: 1.1; stroke-linecap: round"/>
   </g>
   <g id="line2d_65">
    <path d="M 742.75 205.606347 
L 742.75 194.762959 
" clip-path="url(#pc6cdec110e)" style="fill: none; stroke: #b91c1c; stroke-width: 1.1; stroke-linecap: round"/>
   </g>
   <g id="line2d_66">
    <path d="M 753.65 213.220593 
L 753.65 190.05735 
" clip-path="url(#pc6cdec110e)" style="fill: none; stroke: #b91c1c; stroke-width: 1.1; stroke-linecap: round"/>
   </g>
   <g id="line2d_67">
    <path d="M 764.55 220.224766 
L 764.55 189.033293 
" clip-path="url(#pc6cdec110e)" style="fill: none; stroke: #1f8a56; stroke-width: 1.1; stroke-linecap: round"/>
   </g>
   <g id="line2d_68">
    <path d="M 775.45 202.90551 
L 775.45 193.512015 
" clip-path="url(#pc6cdec110e)" style="fill: none; stroke: #b91c1c; stroke-width: 1.1; stroke-linecap: round"/>
   </g>
   <g id="line2d_69">
    <path d="M 786.35 225.402012 
L 786.35 184.825413 
" clip-path="url(#pc6cdec110e)" style="fill: none; stroke: #b91c1c; stroke-width: 1.1; stroke-linecap: round"/>
   </g>
   <g id="line2d_70">
    <path d="M 797.25 235.974032 
L 797.25 222.402489 
" clip-path="url(#pc6cdec110e)" style="fill: none; stroke: #b91c1c; stroke-width: 1.1; stroke-linecap: round"/>
   </g>
   <g id="line2d_71">
    <path d="M 808.15 241.543483 
L 808.15 215.754788 
" clip-path="url(#pc6cdec110e)" style="fill: none; stroke: #1f8a56; stroke-width: 1.1; stroke-linecap: round"/>
   </g>
   <g id="line2d_72">
    <path d="M 819.05 231.488591 
L 819.05 178.909769 
" clip-path="url(#pc6cdec110e)" style="fill: none; stroke: #1f8a56; stroke-width: 1.1; stroke-linecap: round"/>
   </g>
   <g id="text_3">
    <!-- 5M — entry timing -->
    <g style="fill: #1f2937" transform="translate(641.791406 14.798437) scale(0.1 -0.1)">
     <defs>
      <path id="DejaVuSans-Bold-18" d="M 678 4666 
L 3669 4666 
L 3669 3781 
L 1638 3781 
L 1638 3059 
Q 1775 3097 1914 3117 
Q 2053 3138 2203 3138 
Q 3056 3138 3531 2711 
Q 4006 2284 4006 1522 
Q 4006 766 3489 337 
Q 2972 -91 2053 -91 
Q 1656 -91 1267 -14 
Q 878 63 494 219 
L 494 1166 
Q 875 947 1217 837 
Q 1559 728 1863 728 
Q 2300 728 2551 942 
Q 2803 1156 2803 1522 
Q 2803 1891 2551 2103 
Q 2300 2316 1863 2316 
Q 1603 2316 1309 2248 
Q 1016 2181 678 2041 
L 678 4666 
z
" transform="scale(0.015625)"/>
      <path id="DejaVuSans-Bold-30" d="M 588 4666 
L 2119 4666 
L 3181 2169 
L 4250 4666 
L 5778 4666 
L 5778 0 
L 4641 0 
L 4641 3413 
L 3566 897 
L 2803 897 
L 1728 3413 
L 1728 0 
L 588 0 
L 588 4666 
z
" transform="scale(0.015625)"/>
      <path id="DejaVuSans-Bold-50" d="M 3781 2919 
Q 3994 3244 4286 3414 
Q 4578 3584 4928 3584 
Q 5531 3584 5847 3212 
Q 6163 2841 6163 2131 
L 6163 0 
L 5038 0 
L 5038 1825 
Q 5041 1866 5042 1909 
Q 5044 1953 5044 2034 
Q 5044 2406 4934 2573 
Q 4825 2741 4581 2741 
Q 4263 2741 4089 2478 
Q 3916 2216 3909 1719 
L 3909 0 
L 2784 0 
L 2784 1825 
Q 2784 2406 2684 2573 
Q 2584 2741 2328 2741 
Q 2006 2741 1831 2477 
Q 1656 2213 1656 1722 
L 1656 0 
L 531 0 
L 531 3500 
L 1656 3500 
L 1656 2988 
Q 1863 3284 2130 3434 
Q 2397 3584 2719 3584 
Q 3081 3584 3359 3409 
Q 3638 3234 3781 2919 
z
" transform="scale(0.015625)"/>
      <path id="DejaVuSans-Bold-4a" d="M 2919 594 
Q 2688 288 2409 144 
Q 2131 0 1766 0 
Q 1125 0 706 504 
Q 288 1009 288 1791 
Q 288 2575 706 3076 
Q 1125 3578 1766 3578 
Q 2131 3578 2409 3434 
Q 2688 3291 2919 2981 
L 2919 3500 
L 4044 3500 
L 4044 353 
Q 4044 -491 3511 -936 
Q 2978 -1381 1966 -1381 
Q 1638 -1381 1331 -1331 
Q 1025 -1281 716 -1178 
L 716 -306 
Q 1009 -475 1290 -558 
Q 1572 -641 1856 -641 
Q 2406 -641 2662 -400 
Q 2919 -159 2919 353 
L 2919 594 
z
M 2181 2772 
Q 1834 2772 1640 2515 
Q 1447 2259 1447 1791 
Q 1447 1309 1634 1061 
Q 1822 813 2181 813 
Q 2531 813 2725 1069 
Q 2919 1325 2919 1791 
Q 2919 2259 2725 2515 
Q 2531 2772 2181 2772 
z
" transform="scale(0.015625)"/>
     </defs>
     <use xlink:href="#DejaVuSans-Bold-18"/>
     <use xlink:href="#DejaVuSans-Bold-30" transform="translate(69.578125 0)"/>
     <use xlink:href="#DejaVuSans-Bold-3" transform="translate(169.09375 0)"/>
     <use xlink:href="#DejaVuSans-Bold-af6" transform="translate(203.90625 0)"/>
     <use xlink:href="#DejaVuSans-Bold-3" transform="translate(303.90625 0)"/>
     <use xlink:href="#DejaVuSans-Bold-48" transform="translate(338.71875 0)"/>
     <use xlink:href="#DejaVuSans-Bold-51" transform="translate(406.546875 0)"/>
     <use xlink:href="#DejaVuSans-Bold-57" transform="translate(477.734375 0)"/>
     <use xlink:href="#DejaVuSans-Bold-55" transform="translate(525.53125 0)"/>
     <use xlink:href="#DejaVuSans-Bold-5c" transform="translate(574.84375 0)"/>
     <use xlink:href="#DejaVuSans-Bold-3" transform="translate(640.03125 0)"/>
     <use xlink:href="#DejaVuSans-Bold-57" transform="translate(674.84375 0)"/>
     <use xlink:href="#DejaVuSans-Bold-4c" transform="translate(722.640625 0)"/>
     <use xlink:href="#DejaVuSans-Bold-50" transform="translate(756.921875 0)"/>
     <use xlink:href="#DejaVuSans-Bold-4c" transform="translate(861.125 0)"/>
     <use xlink:href="#DejaVuSans-Bold-51" transform="translate(895.40625 0)"/>
     <use xlink:href="#DejaVuSans-Bold-4a" transform="translate(966.59375 0)"/>
    </g>
   </g>
   <g id="patch_59">
    <path d="M 565.08 79.125631 
L 571.62 79.125631 
L 571.62 71.358257 
L 565.08 71.358257 
z
" clip-path="url(#pc6cdec110e)" style="fill: #1f8a56; stroke: #1f8a56; stroke-linejoin: miter"/>
   </g>
   <g id="patch_60">
    <path d="M 575.98 102.321645 
L 582.52 102.321645 
L 582.52 63.992051 
L 575.98 63.992051 
z
" clip-path="url(#pc6cdec110e)" style="fill: #b91c1c; stroke: #b91c1c; stroke-linejoin: miter"/>
   </g>
   <g id="patch_61">
    <path d="M 586.88 111.669268 
L 593.42 111.669268 
L 593.42 83.391257 
L 586.88 83.391257 
z
" clip-path="url(#pc6cdec110e)" style="fill: #1f8a56; stroke: #1f8a56; stroke-linejoin: miter"/>
   </g>
   <g id="patch_62">
    <path d="M 597.78 112.279025 
L 604.32 112.279025 
L 604.32 88.138136 
L 597.78 88.138136 
z
" clip-path="url(#pc6cdec110e)" style="fill: #b91c1c; stroke: #b91c1c; stroke-linejoin: miter"/>
   </g>
   <g id="patch_63">
    <path d="M 608.68 119.195187 
L 615.22 119.195187 
L 615.22 82.384888 
L 608.68 82.384888 
z
" clip-path="url(#pc6cdec110e)" style="fill: #1f8a56; stroke: #1f8a56; stroke-linejoin: miter"/>
   </g>
   <g id="patch_64">
    <path d="M 619.58 120.49842 
L 626.12 120.49842 
L 626.12 82.313181 
L 619.58 82.313181 
z
" clip-path="url(#pc6cdec110e)" style="fill: #b91c1c; stroke: #b91c1c; stroke-linejoin: miter"/>
   </g>
   <g id="patch_65">
    <path d="M 630.48 136.729897 
L 637.02 136.729897 
L 637.02 116.238069 
L 630.48 116.238069 
z
" clip-path="url(#pc6cdec110e)" style="fill: #b91c1c; stroke: #b91c1c; stroke-linejoin: miter"/>
   </g>
   <g id="patch_66">
    <path d="M 641.38 150.273282 
L 647.92 150.273282 
L 647.92 122.060208 
L 641.38 122.060208 
z
" clip-path="url(#pc6cdec110e)" style="fill: #b91c1c; stroke: #b91c1c; stroke-linejoin: miter"/>
   </g>
   <g id="patch_67">
    <path d="M 652.28 202.601083 
L 658.82 202.601083 
L 658.82 143.176217 
L 652.28 143.176217 
z
" clip-path="url(#pc6cdec110e)" style="fill: #b91c1c; stroke: #b91c1c; stroke-linejoin: miter"/>
   </g>
   <g id="patch_68">
    <path d="M 663.18 204.408012 
L 669.72 204.408012 
L 669.72 178.375225 
L 663.18 178.375225 
z
" clip-path="url(#pc6cdec110e)" style="fill: #1f8a56; stroke: #1f8a56; stroke-linejoin: miter"/>
   </g>
   <g id="patch_69">
    <path d="M 674.08 216.367514 
L 680.62 216.367514 
L 680.62 183.158642 
L 674.08 183.158642 
z
" clip-path="url(#pc6cdec110e)" style="fill: #b91c1c; stroke: #b91c1c; stroke-linejoin: miter"/>
   </g>
   <g id="patch_70">
    <path d="M 684.98 248.041992 
L 691.52 248.041992 
L 691.52 216.955811 
L 684.98 216.955811 
z
" clip-path="url(#pc6cdec110e)" style="fill: #b91c1c; stroke: #b91c1c; stroke-linejoin: miter"/>
   </g>
   <g id="patch_71">
    <path d="M 695.88 260.499363 
L 702.42 260.499363 
L 702.42 247.753239 
L 695.88 247.753239 
z
" clip-path="url(#pc6cdec110e)" style="fill: #b91c1c; stroke: #b91c1c; stroke-linejoin: miter"/>
   </g>
   <g id="patch_72">
    <path d="M 706.78 258.104708 
L 713.32 258.104708 
L 713.32 239.082355 
L 706.78 239.082355 
z
" clip-path="url(#pc6cdec110e)" style="fill: #1f8a56; stroke: #1f8a56; stroke-linejoin: miter"/>
   </g>
   <g id="patch_73">
    <path d="M 717.68 257.974652 
L 724.22 257.974652 
L 724.22 239.191009 
L 717.68 239.191009 
z
" clip-path="url(#pc6cdec110e)" style="fill: #b91c1c; stroke: #b91c1c; stroke-linejoin: miter"/>
   </g>
   <g id="patch_74">
    <path d="M 728.58 251.974056 
L 735.12 251.974056 
L 735.12 204.349587 
L 728.58 204.349587 
z
" clip-path="url(#pc6cdec110e)" style="fill: #1f8a56; stroke: #1f8a56; stroke-linejoin: miter"/>
   </g>
   <g id="patch_75">
    <path d="M 739.48 202.838197 
L 746.02 202.838197 
L 746.02 196.583382 
L 739.48 196.583382 
z
" clip-path="url(#pc6cdec110e)" style="fill: #b91c1c; stroke: #b91c1c; stroke-linejoin: miter"/>
   </g>
   <g id="patch_76">
    <path d="M 750.38 208.162077 
L 756.92 208.162077 
L 756.92 192.199677 
L 750.38 192.199677 
z
" clip-path="url(#pc6cdec110e)" style="fill: #b91c1c; stroke: #b91c1c; stroke-linejoin: miter"/>
   </g>
   <g id="patch_77">
    <path d="M 761.28 212.896323 
L 767.82 212.896323 
L 767.82 194.396167 
L 761.28 194.396167 
z
" clip-path="url(#pc6cdec110e)" style="fill: #1f8a56; stroke: #1f8a56; stroke-linejoin: miter"/>
   </g>
   <g id="patch_78">
    <path d="M 772.18 195.634123 
L 778.72 195.634123 
L 778.72 189.379308 
L 772.18 189.379308 
z
" clip-path="url(#pc6cdec110e)" style="fill: #b91c1c; stroke: #b91c1c; stroke-linejoin: miter"/>
   </g>
   <g id="patch_79">
    <path d="M 783.08 220.850208 
L 789.62 220.850208 
L 789.62 190.536547 
L 783.08 190.536547 
z
" clip-path="url(#pc6cdec110e)" style="fill: #b91c1c; stroke: #b91c1c; stroke-linejoin: miter"/>
   </g>
   <g id="patch_80">
    <path d="M 793.98 232.923866 
L 800.52 232.923866 
L 800.52 223.171839 
L 793.98 223.171839 
z
" clip-path="url(#pc6cdec110e)" style="fill: #b91c1c; stroke: #b91c1c; stroke-linejoin: miter"/>
   </g>
   <g id="patch_81">
    <path d="M 804.88 237.842359 
L 811.42 237.842359 
L 811.42 226.451923 
L 804.88 226.451923 
z
" clip-path="url(#pc6cdec110e)" style="fill: #1f8a56; stroke: #1f8a56; stroke-linejoin: miter"/>
   </g>
   <g id="patch_82">
    <path d="M 815.78 224.936901 
L 822.32 224.936901 
L 822.32 183.484679 
L 815.78 183.484679 
z
" clip-path="url(#pc6cdec110e)" style="fill: #1f8a56; stroke: #1f8a56; stroke-linejoin: miter"/>
   </g>
  </g>
 </g>
 <defs>
  <clipPath id="pb1212d32bc">
   <rect x="7.2" y="20.798437" width="272.5" height="283.551562"/>
  </clipPath>
  <clipPath id="p61ce36952d">
   <rect x="282.325" y="20.798437" width="272.5" height="283.551562"/>
  </clipPath>
  <clipPath id="pc6cdec110e">
   <rect x="557.45" y="20.798437" width="272.5" height="283.551562"/>
  </clipPath>
 </defs>
</svg>
