<?xml version="1.0" encoding="utf-8" standalone="no"?>
<!DOCTYPE svg PUBLIC "-//W3C//DTD SVG 1.1//EN"
  "http://www.w3.org/Graphics/SVG/1.1/DTD/svg11.dtd">
<svg xmlns:xlink="http://www.w3.org/1999/xlink" width="628.35pt" height="342.206266pt" viewBox="0 0 628.35 342.206266" xmlns="http://www.w3.org/2000/svg" version="1.1">
 <metadata>
  <rdf:RDF xmlns:dc="http://purl.org/dc/elements/1.1/" xmlns:cc="http://creativecommons.org/ns#" xmlns:rdf="http://www.w3.org/1999/02/22-rdf-syntax-ns#">
   <cc:Work>
    <dc:type rdf:resource="http://purl.org/dc/dcmitype/StillImage"/>
    <dc:date>2026-07-18T22:36:38.643222</dc:date>
    <dc:format>image/svg+xml</dc:format>
    <dc:creator>
     <cc:Agent>
      <dc:title>Matplotlib v3.11.1, https://matplotlib.org/</dc:title>
     </cc:Agent>
    </dc:creator>
   </cc:Work>
  </rdf:RDF>
 </metadata>
 <defs>
  <style type="text/css">*{stroke-linejoin: round; stroke-linecap: butt}</style>
 </defs>
 <g id="figure_1">
  <g id="patch_1">
   <path d="M 0 342.206266 
L 628.35 342.206266 
L 628.35 0 
L 0 0 
z
" style="fill: #ffffff"/>
  </g>
  <g id="axes_1">
   <g id="patch_2">
    <path d="M 7.2 297.017574 
L 621.15 297.017574 
L 621.15 25.933 
L 7.2 25.933 
z
" style="fill: #ffffff"/>
   </g>
   <g id="matplotlib.axis_1"/>
   <g id="matplotlib.axis_2"/>
   <g id="line2d_1">
    <path d="M 35.106818 38.255615 
L 46.32564 38.390881 
L 51.93505 38.616915 
L 57.544461 39.11466 
L 60.349166 39.540587 
L 63.153872 40.144553 
L 65.958577 40.987505 
L 68.763282 42.145364 
L 71.567988 43.710366 
L 74.372693 45.791574 
L 77.177398 48.514175 
L 79.982104 52.017149 
L 82.786809 56.448922 
L 85.591514 61.960727 
L 88.39622 68.697548 
L 91.200925 76.786772 
L 94.00563 86.324959 
L 96.810336 97.363489 
L 99.615041 109.894163 
L 102.419746 123.836118 
L 105.224452 139.025599 
L 108.029157 155.210149 
L 119.247979 221.939126 
L 122.052684 236.596853 
L 124.857389 249.355599 
L 127.662095 259.715901 
L 130.4668 267.255933 
L 133.271505 271.659969 
L 136.076211 272.740306 
L 138.880916 270.450537 
L 141.685621 264.888854 
L 144.490327 256.291066 
L 147.295032 245.014014 
L 150.099737 231.511015 
L 152.904443 216.301683 
L 158.513853 182.976015 
L 164.123264 149.288711 
L 166.927969 133.427642 
L 169.732675 118.662884 
L 172.53738 105.214633 
L 175.342085 93.215868 
L 178.146791 82.719933 
L 180.951496 73.711975 
L 183.756201 66.12267 
L 186.560907 59.842755 
L 189.365612 54.737084 
L 192.170317 50.65726 
L 194.975023 47.452194 
L 197.779728 44.976306 
L 200.584434 43.095344 
L 203.389139 41.689998 
L 206.193844 40.657667 
L 208.99855 39.912769 
L 211.803255 39.386025 
L 214.60796 39.023122 
L 220.217371 38.636731 
L 225.826782 38.558807 
L 231.436192 38.747632 
L 234.240898 38.968122 
L 237.045603 39.306018 
L 239.850308 39.800608 
L 242.655014 40.504576 
L 245.459719 41.485757 
L 248.264424 42.828705 
L 251.06913 44.635713 
L 253.873835 47.026891 
L 256.67854 50.138856 
L 259.483246 54.121594 
L 262.287951 59.133112 
L 265.092656 65.331625 
L 267.897362 72.865207 
L 270.702067 81.859148 
L 273.506772 92.401537 
L 276.311478 104.528001 
L 279.116183 118.206819 
L 281.920889 133.325932 
L 284.725594 149.683487 
L 290.335005 184.838204 
L 295.944415 220.265952 
L 298.749121 236.72832 
L 301.553826 251.578665 
L 304.358531 264.254975 
L 307.163237 274.254083 
L 309.967942 281.164718 
L 312.772647 284.695548 
L 315.577353 284.695548 
L 318.382058 281.164718 
L 321.186763 274.254083 
L 323.991469 264.254975 
L 326.796174 251.578665 
L 329.600879 236.72832 
L 332.405585 220.265952 
L 338.014995 184.838204 
L 343.624406 149.683487 
L 346.429111 133.325932 
L 349.233817 118.206819 
L 352.038522 104.528001 
L 354.843228 92.401537 
L 357.647933 81.859148 
L 360.452638 72.865207 
L 363.257344 65.331624 
L 366.062049 59.13311 
L 368.866754 54.121589 
L 371.67146 50.138847 
L 374.476165 47.026875 
L 377.28087 44.635683 
L 380.085576 42.828651 
L 382.890281 41.485662 
L 385.694986 40.504409 
L 388.499692 39.800321 
L 391.304397 39.305529 
L 394.109102 38.967304 
L 399.718513 38.614769 
L 405.327924 38.559598 
L 410.937334 38.76984 
L 413.74204 39.003066 
L 416.546745 39.356123 
L 419.35145 39.868825 
L 422.156156 40.594014 
L 424.960861 41.599114 
L 427.765566 42.96744 
L 430.570272 44.798883 
L 433.374977 47.209604 
L 436.179683 50.33032 
L 438.984388 54.302776 
L 441.789093 59.274085 
L 444.593799 65.388739 
L 447.398504 72.778325 
L 450.203209 81.549231 
L 453.007915 91.768956 
L 455.81262 103.451964 
L 458.617325 116.546315 
L 461.422031 130.922526 
L 464.226736 146.366198 
L 469.836147 179.166994 
L 475.445557 211.615671 
L 478.250263 226.424758 
L 481.054968 239.572414 
L 483.859673 250.552702 
L 486.664379 258.924232 
L 489.469084 264.339555 
L 492.273789 266.569068 
L 495.078495 265.51716 
L 497.8832 261.22902 
L 500.687905 253.887409 
L 503.492611 243.799747 
L 506.297316 231.376757 
L 509.102021 217.10476 
L 511.906727 201.514199 
L 523.125548 136.373169 
L 525.930254 121.58341 
L 528.734959 108.008349 
L 531.539664 95.80743 
L 534.34437 85.059387 
L 537.149075 75.772205 
L 539.95378 67.895856 
L 542.758486 61.336319 
L 545.563191 55.969561 
L 548.367896 51.654414 
L 551.172602 48.243623 
L 553.977307 45.59267 
L 556.782012 43.566231 
L 559.586718 42.042413 
L 562.391423 40.915024 
L 565.196128 40.094255 
L 568.000834 39.506183 
L 570.805539 39.091464 
L 576.41495 38.606818 
L 582.02436 38.386732 
L 593.243182 38.255026 
L 593.243182 38.255026 
" clip-path="url(#p3246ff6a3f)" style="fill: none; stroke: #1f2937; stroke-width: 2.2; stroke-linecap: square"/>
   </g>
   <g id="line2d_2">
    <path d="M 7.2 130.823455 
L 621.15 130.823455 
" clip-path="url(#p3246ff6a3f)" style="fill: none; stroke-dasharray: 5.92,2.56; stroke-dashoffset: 0; stroke: #b7791f; stroke-width: 1.6"/>
   </g>
   <g id="text_1">
    <!-- ﺔﻣﻭﺎﻘﻤﻟﺍ -->
    <g style="fill: #b7791f" transform="translate(547.1337 140.978955) scale(0.095 -0.095)">
     <defs>
      <path id="NotoNaskhArabic-Bold-3" d="M 774 58 
Q 742 717 710 1216 
Q 678 1715 646 2134 
Q 614 2554 576 2950 
Q 538 3347 493 3808 
Q 474 3968 566 4089 
Q 659 4211 822 4281 
Q 986 4352 1178 4352 
Q 1229 4154 1296 3955 
Q 1363 3757 1440 3565 
L 1216 3398 
Q 1229 2867 1222 2035 
Q 1216 1203 1184 109 
L 774 58 
z
" transform="scale(0.015625)"/>
      <path id="NotoNaskhArabic-Bold-1c1" d="M 0 58 
Q -51 58 -51 109 
L -51 762 
Q -51 813 0 813 
Q 282 813 672 960 
Q 646 1146 624 1334 
Q 602 1523 570 1709 
Q 544 1894 441 2448 
Q 339 3002 173 3930 
Q 339 4045 534 4147 
Q 730 4250 934 4352 
Q 947 3827 960 3356 
Q 973 2886 986 2477 
Q 998 2067 1004 1718 
Q 1011 1370 1011 1069 
Q 1011 634 762 256 
Q 698 166 490 112 
Q 282 58 0 58 
z
" transform="scale(0.015625)"/>
      <path id="NotoNaskhArabic-Bold-1e4" d="M 2016 0 
Q 1606 0 1257 73 
Q 909 147 685 269 
Q 506 147 346 102 
Q 186 58 0 58 
Q -51 58 -51 109 
L -51 762 
Q -51 813 0 813 
Q 160 813 333 858 
Q 333 870 336 886 
Q 339 902 339 922 
Q 384 1261 573 1597 
Q 762 1933 1018 2131 
Q 1286 2342 1568 2342 
Q 1696 2342 1811 2176 
Q 1862 2093 1929 1942 
Q 1997 1792 2074 1581 
Q 2227 1133 2394 960 
Q 2528 813 2682 813 
Q 2752 813 2752 755 
L 2752 128 
Q 2752 58 2682 58 
Q 2362 58 2106 301 
L 2016 0 
z
M 1818 710 
Q 1606 1133 1549 1664 
Q 979 1440 698 1082 
Q 877 941 1155 851 
Q 1434 762 1818 710 
z
" transform="scale(0.015625)"/>
      <path id="NotoNaskhArabic-Bold-169" d="M 6 58 
Q -51 58 -51 115 
L -51 755 
Q -51 813 6 813 
Q 115 813 227 816 
Q 339 819 454 819 
Q 358 973 358 1114 
Q 358 1197 374 1337 
Q 390 1478 419 1606 
Q 448 1734 474 1786 
Q 595 2003 771 2179 
Q 947 2355 1152 2457 
Q 1357 2560 1549 2560 
Q 1722 2560 1898 2368 
Q 2074 2176 2182 1875 
Q 2291 1568 2291 1306 
Q 2291 1056 2150 819 
Q 2285 819 2422 816 
Q 2560 813 2694 813 
Q 2746 813 2746 762 
L 2746 109 
Q 2746 58 2694 58 
Q 1882 58 1325 269 
Q 1030 147 716 102 
Q 403 58 6 58 
z
M 1299 794 
Q 1690 902 1933 1107 
Q 1888 1280 1795 1446 
Q 1702 1613 1613 1696 
Q 1549 1773 1478 1773 
Q 1146 1773 704 1178 
Q 819 1043 979 944 
Q 1139 845 1299 794 
z
M 1888 3052 
Q 1753 3161 1644 3257 
Q 1536 3353 1446 3449 
Q 1683 3667 1875 3897 
Q 1932 3833 2034 3737 
Q 2137 3641 2278 3500 
Q 2105 3264 1888 3052 
z
M 1030 2956 
Q 755 3180 588 3360 
Q 697 3468 806 3580 
Q 915 3692 1024 3801 
Q 1139 3667 1420 3404 
Q 1260 3174 1030 2956 
z
" transform="scale(0.015625)"/>
      <path id="NotoNaskhArabic-Bold-4" d="M 1901 58 
Q 1517 58 1283 186 
Q 1050 314 938 528 
Q 826 742 794 1018 
Q 781 1139 749 1424 
Q 717 1709 681 2073 
Q 646 2438 608 2809 
Q 570 3181 538 3481 
Q 506 3782 486 3930 
Q 845 4166 1248 4352 
Q 1274 3635 1296 2918 
Q 1318 2202 1338 1478 
L 1363 979 
Q 1478 883 1606 848 
Q 1734 813 1914 813 
Q 1952 813 1952 762 
L 1952 109 
Q 1952 58 1901 58 
z
" transform="scale(0.015625)"/>
      <path id="NotoNaskhArabic-Bold-218" d="M 1248 -1248 
Q 1171 -1248 1011 -1174 
Q 851 -1101 668 -982 
Q 486 -864 326 -730 
L 429 -461 
Q 602 -506 778 -528 
Q 954 -550 1133 -550 
Q 1632 -550 2003 -304 
Q 2374 -58 2515 371 
L 2509 416 
Q 2323 224 2105 112 
Q 1888 0 1664 0 
Q 1267 0 1049 230 
Q 832 461 832 883 
Q 832 1242 966 1584 
Q 1101 1926 1318 2131 
Q 1530 2342 1766 2342 
Q 2042 2342 2288 2089 
Q 2534 1837 2694 1402 
Q 2848 973 2848 570 
Q 2848 83 2637 -339 
Q 2426 -762 2054 -1005 
Q 1690 -1248 1248 -1248 
z
M 1792 704 
Q 2074 704 2400 813 
Q 2342 992 2220 1181 
Q 2099 1370 1952 1472 
Q 1798 1574 1658 1574 
Q 1498 1574 1376 1488 
Q 1254 1402 1203 1267 
Q 1178 1190 1178 1094 
Q 1178 902 1338 803 
Q 1498 704 1792 704 
z
" transform="scale(0.015625)"/>
      <path id="NotoNaskhArabic-Bold-1e5" d="M 2349 0 
Q 1920 0 1488 99 
Q 1056 198 755 358 
Q 602 198 429 128 
Q 256 58 0 58 
Q -51 58 -51 109 
L -51 762 
Q -51 813 0 813 
Q 525 813 774 1286 
Q 890 1517 982 1680 
Q 1075 1843 1146 1939 
Q 1306 2157 1446 2249 
Q 1587 2342 1773 2342 
Q 2003 2342 2224 2102 
Q 2445 1862 2586 1466 
Q 2726 1082 2726 723 
Q 2726 557 2611 339 
Q 2496 122 2349 0 
z
M 2138 704 
Q 2112 941 2035 1142 
Q 1958 1344 1862 1466 
Q 1760 1587 1677 1587 
Q 1536 1587 1427 1472 
Q 1325 1363 1120 960 
Q 1325 870 1577 803 
Q 1830 736 2138 704 
z
" transform="scale(0.015625)"/>
      <path id="NotoNaskhArabic-Bold-215" d="M 3302 58 
Q 2912 58 2675 182 
Q 2438 307 2393 531 
L 2336 768 
L 2080 243 
Q 1881 262 1711 288 
Q 1542 314 1395 365 
Q 1235 422 1075 518 
Q 915 614 806 716 
Q 697 819 697 890 
Q 697 941 738 1078 
Q 780 1216 838 1369 
Q 896 1523 940 1600 
Q 998 1728 1184 1882 
Q 1363 2042 1593 2192 
Q 1824 2342 1984 2413 
L 1952 2669 
Q 2118 2797 2223 2873 
Q 2329 2950 2418 3011 
Q 2508 3072 2617 3136 
L 2617 986 
Q 2924 813 3302 813 
Q 3353 813 3353 762 
L 3353 109 
Q 3353 58 3302 58 
z
M 2272 1005 
Q 2233 1158 2188 1366 
Q 2144 1574 2086 1837 
Q 1491 1638 1152 1318 
Q 1356 1178 1542 1123 
Q 1728 1069 1894 1043 
Q 2067 1011 2272 1005 
z
M 2138 3257 
Q 2003 3366 1894 3462 
Q 1786 3558 1696 3654 
Q 1933 3872 2125 4102 
Q 2182 4038 2284 3942 
Q 2387 3846 2528 3705 
Q 2355 3469 2138 3257 
z
M 1280 3161 
Q 1005 3385 838 3565 
Q 947 3673 1056 3785 
Q 1165 3897 1274 4006 
Q 1389 3872 1670 3609 
Q 1510 3379 1280 3161 
z
" transform="scale(0.015625)"/>
     </defs>
     <use xlink:href="#NotoNaskhArabic-Bold-3"/>
     <use xlink:href="#NotoNaskhArabic-Bold-1c1" transform="translate(28.40625 0)"/>
     <use xlink:href="#NotoNaskhArabic-Bold-1e4" transform="translate(50.109375 0)"/>
     <use xlink:href="#NotoNaskhArabic-Bold-169" transform="translate(91.40625 0)"/>
     <use xlink:href="#NotoNaskhArabic-Bold-4" transform="translate(132.609375 0)"/>
     <use xlink:href="#NotoNaskhArabic-Bold-218" transform="translate(161.40625 0)"/>
     <use xlink:href="#NotoNaskhArabic-Bold-1e5" transform="translate(211.109375 0)"/>
     <use xlink:href="#NotoNaskhArabic-Bold-215" transform="translate(258.40625 0)"/>
    </g>
   </g>
   <g id="text_2">
    <!-- 1 -->
    <g style="fill: #1f8a56" transform="translate(132.5682 328.349266) scale(0.105 -0.105)">
     <defs>
      <path id="NotoNaskhArabic-Bold-4cd" d="M 1677 0 
L 1677 2643 
Q 1677 2822 1686 3020 
Q 1696 3219 1702 3552 
Q 1466 3315 1370 3238 
Q 1242 3136 1107 3030 
Q 973 2925 845 2816 
L 378 3398 
L 1850 4570 
L 2643 4570 
L 2643 0 
L 1677 0 
z
" transform="scale(0.015625)"/>
     </defs>
     <use xlink:href="#NotoNaskhArabic-Bold-4cd"/>
    </g>
   </g>
   <g id="text_3">
    <!-- 2 -->
    <g style="fill: #1f8a56" transform="translate(311.171836 328.349266) scale(0.105 -0.105)">
     <defs>
      <path id="NotoNaskhArabic-Bold-4ce" d="M 256 0 
L 256 672 
L 1402 1830 
Q 1914 2355 2067 2554 
Q 2234 2765 2298 2925 
Q 2362 3085 2362 3283 
Q 2362 3558 2211 3692 
Q 2061 3827 1805 3827 
Q 1542 3827 1292 3705 
Q 1043 3584 768 3360 
L 243 3981 
Q 518 4218 761 4358 
Q 1005 4499 1267 4566 
Q 1530 4634 1875 4634 
Q 2304 4634 2633 4477 
Q 2963 4320 3142 4038 
Q 3322 3763 3322 3398 
Q 3322 3085 3213 2809 
Q 3104 2534 2867 2240 
Q 2752 2093 2547 1885 
Q 2342 1677 2048 1408 
L 1459 858 
L 1459 813 
L 3450 813 
L 3450 0 
L 256 0 
z
" transform="scale(0.015625)"/>
     </defs>
     <use xlink:href="#NotoNaskhArabic-Bold-4ce"/>
    </g>
   </g>
   <g id="text_4">
    <!-- 3 -->
    <g style="fill: #1f8a56" transform="translate(489.775472 328.349266) scale(0.105 -0.105)">
     <defs>
      <path id="NotoNaskhArabic-Bold-4cf" d="M 1562 -64 
Q 819 -64 243 186 
L 243 1005 
Q 506 870 826 787 
Q 1146 704 1459 704 
Q 1939 704 2166 867 
Q 2394 1030 2394 1389 
Q 2394 1709 2131 1843 
Q 1869 1978 1293 1978 
L 947 1978 
L 947 2720 
L 1299 2720 
Q 1830 2720 2076 2861 
Q 2323 3002 2323 3334 
Q 2323 3853 1670 3853 
Q 1446 3853 1212 3779 
Q 979 3706 698 3520 
L 250 4186 
Q 870 4634 1741 4634 
Q 2451 4634 2860 4346 
Q 3270 4058 3270 3546 
Q 3270 3117 3014 2816 
Q 2758 2515 2285 2406 
L 2285 2387 
Q 3405 2253 3405 1331 
Q 3405 672 2928 304 
Q 2451 -64 1562 -64 
z
" transform="scale(0.015625)"/>
     </defs>
     <use xlink:href="#NotoNaskhArabic-Bold-4cf"/>
    </g>
   </g>
   <g id="text_5">
    <!-- ﺪﻋﺎﺻ ﻲﺳﺎﻜﻌﻧﺍ ﻂﻤﻧ — (Triple Bottom) ﻲﺛﻼﺜﻟﺍ ﻉﺎﻘﻟﺍ -->
    <g style="fill: #1f2937" transform="translate(194.450312 18.959) scale(0.11 -0.11)">
     <defs>
      <path id="NotoNaskhArabic-Bold-133" d="M 2349 -1926 
Q 1594 -1926 1158 -1529 
Q 723 -1133 723 -454 
Q 723 237 1203 755 
Q 998 851 841 1008 
Q 685 1165 608 1338 
Q 531 1510 531 1670 
Q 531 1862 604 2083 
Q 678 2304 809 2505 
Q 941 2707 1101 2842 
Q 1338 3040 1600 3040 
Q 2048 3040 2573 2445 
L 2438 2189 
Q 2246 2266 2080 2301 
Q 1914 2336 1766 2336 
Q 1542 2336 1366 2288 
Q 1190 2240 986 2131 
Q 1005 1786 1219 1555 
Q 1434 1325 1798 1235 
Q 2080 1402 2387 1539 
Q 2694 1677 3040 1792 
Q 3110 1690 3110 1466 
Q 3110 1190 2880 1037 
Q 2829 998 2713 944 
Q 2598 890 2426 819 
Q 1869 602 1593 422 
Q 1318 243 1184 32 
Q 1050 -179 1050 -416 
Q 1050 -781 1386 -985 
Q 1722 -1190 2362 -1190 
Q 2624 -1190 2899 -1152 
Q 3168 -1114 3840 -960 
L 3923 -1229 
Q 3373 -1568 2960 -1747 
Q 2547 -1926 2349 -1926 
z
" transform="scale(0.015625)"/>
      <path id="NotoNaskhArabic-Bold-554" transform="scale(0.015625)"/>
      <path id="NotoNaskhArabic-Bold-43" d="M 0 58 
Q -51 58 -51 109 
L -51 762 
Q -51 813 0 813 
Q 307 813 566 829 
Q 826 845 992 928 
Q 1120 992 1187 1104 
Q 1254 1216 1357 1421 
Q 1459 1632 1536 1680 
Q 1613 1728 1715 1728 
Q 1869 1728 1971 1638 
Q 1888 1427 1814 1264 
Q 1741 1101 1690 979 
Q 2003 813 2362 813 
Q 2413 813 2413 762 
L 2413 109 
Q 2413 58 2362 58 
Q 1875 58 1434 499 
L 1382 416 
Q 1203 179 883 118 
Q 563 58 0 58 
z
M 1242 2778 
Q 1107 2887 1011 2979 
Q 915 3072 851 3143 
Q 986 3264 1078 3350 
Q 1171 3437 1222 3501 
Q 1293 3418 1385 3328 
Q 1478 3239 1594 3143 
Q 1459 2995 1369 2902 
Q 1280 2810 1242 2778 
z
M 1702 2227 
Q 1568 2336 1459 2435 
Q 1350 2535 1261 2631 
Q 1357 2720 1465 2829 
Q 1574 2938 1690 3072 
Q 1728 3027 1830 2931 
Q 1933 2835 2093 2682 
Q 2010 2560 1910 2448 
Q 1811 2336 1702 2227 
z
M 813 2138 
Q 525 2355 378 2541 
Q 486 2650 595 2762 
Q 704 2874 813 2983 
Q 864 2919 963 2816 
Q 1062 2714 1203 2586 
Q 1107 2458 1011 2342 
Q 915 2227 813 2138 
z
" transform="scale(0.015625)"/>
      <path id="NotoNaskhArabic-Bold-2df" d="M 410 19 
L 378 307 
Q 704 397 937 470 
Q 1171 544 1344 621 
Q 1510 691 1635 768 
Q 1760 845 1875 947 
Q 1658 1402 1379 1776 
Q 1101 2150 742 2490 
L 506 2490 
Q 339 2662 278 2793 
Q 218 2925 218 3072 
Q 218 3264 314 3376 
Q 410 3488 634 3558 
Q 1274 3149 1901 1786 
Q 1933 1715 1987 1574 
Q 2042 1434 2118 1222 
Q 2304 1498 2416 1821 
Q 2528 2144 2592 2573 
Q 2637 2854 2656 3190 
Q 2675 3526 2675 3923 
Q 2733 3955 2816 4009 
Q 2899 4064 3008 4134 
Q 3194 4256 3354 4352 
Q 3347 3501 3360 2665 
Q 3373 1830 3386 992 
Q 3546 896 3699 854 
Q 3853 813 4090 813 
Q 4147 813 4147 762 
L 4147 109 
Q 4147 58 4090 58 
Q 3219 58 3117 634 
Q 3059 992 3021 1651 
Q 3002 1901 2986 2109 
Q 2970 2317 2957 2477 
L 2938 2310 
Q 2906 1920 2864 1645 
Q 2822 1370 2784 1222 
Q 2624 678 2413 419 
Q 2202 160 1875 122 
Q 1498 77 1133 54 
Q 768 32 410 19 
z
" transform="scale(0.015625)"/>
      <path id="NotoNaskhArabic-Bold-44" d="M 0 58 
Q -51 58 -51 109 
L -51 762 
Q -51 813 0 813 
Q 320 813 640 867 
Q 960 922 1139 998 
Q 1075 1146 976 1328 
Q 877 1510 819 1613 
Q 755 1734 710 1833 
Q 666 1933 666 2016 
Q 666 2176 838 2361 
Q 1011 2547 1248 2669 
Q 1293 2470 1347 2217 
Q 1402 1965 1446 1702 
Q 1485 1504 1501 1376 
Q 1517 1248 1517 1184 
Q 1517 1037 1443 822 
Q 1370 608 1267 410 
Q 685 58 0 58 
z
M 909 3546 
Q 774 3655 678 3747 
Q 582 3840 518 3911 
Q 653 4032 745 4118 
Q 838 4205 889 4269 
Q 960 4186 1052 4096 
Q 1145 4007 1261 3911 
Q 1126 3763 1036 3670 
Q 947 3578 909 3546 
z
M 1369 2995 
Q 1235 3104 1126 3203 
Q 1017 3303 928 3399 
Q 1024 3488 1132 3597 
Q 1241 3706 1357 3840 
Q 1395 3795 1497 3699 
Q 1600 3603 1760 3450 
Q 1677 3328 1577 3216 
Q 1478 3104 1369 2995 
z
M 480 2906 
Q 192 3123 45 3309 
Q 153 3418 262 3530 
Q 371 3642 480 3751 
Q 531 3687 630 3584 
Q 729 3482 870 3354 
Q 774 3226 678 3110 
Q 582 2995 480 2906 
z
" transform="scale(0.015625)"/>
      <path id="NotoNaskhArabic-Bold-23f" d="M 1830 -1613 
Q 1152 -1613 793 -1277 
Q 435 -941 435 -301 
Q 435 32 595 627 
L 877 557 
Q 787 256 787 45 
Q 787 -397 1059 -627 
Q 1331 -858 1901 -858 
Q 2240 -858 2598 -816 
Q 2957 -774 3283 -710 
Q 3450 -672 3610 -627 
Q 3770 -582 3898 -531 
Q 3757 -474 3561 -374 
Q 3366 -275 3187 -163 
Q 3008 -51 2893 32 
Q 2726 160 2726 218 
Q 2726 282 2771 397 
Q 2816 512 2877 633 
Q 2938 755 2992 838 
Q 3046 922 3066 922 
Q 3354 870 3699 841 
Q 4045 813 4454 813 
Q 4525 813 4525 749 
L 4525 122 
Q 4525 58 4454 58 
Q 4320 58 4137 70 
Q 3955 83 3779 108 
Q 3603 134 3475 166 
Q 3738 45 3875 -25 
Q 4013 -96 4070 -131 
Q 4128 -166 4147 -198 
Q 4192 -243 4208 -336 
Q 4224 -429 4224 -518 
Q 4224 -678 4057 -848 
Q 3891 -1018 3600 -1171 
Q 3309 -1325 2925 -1440 
Q 2349 -1613 1830 -1613 
z
M 2355 -2630 
Q 2080 -2406 1913 -2227 
Q 2118 -2048 2342 -1779 
Q 2361 -1798 2460 -1897 
Q 2560 -1997 2739 -2182 
Q 2675 -2278 2579 -2390 
Q 2483 -2502 2355 -2630 
z
M 1497 -2726 
Q 1337 -2598 1231 -2495 
Q 1126 -2393 1056 -2317 
Q 1164 -2208 1273 -2096 
Q 1382 -1984 1491 -1875 
Q 1568 -1971 1888 -2272 
Q 1734 -2502 1497 -2726 
z
" transform="scale(0.015625)"/>
      <path id="DejaVuSans-Bold-b" d="M 2413 -844 
L 1484 -844 
Q 1006 -72 778 623 
Q 550 1319 550 2003 
Q 550 2688 779 3389 
Q 1009 4091 1484 4856 
L 2413 4856 
Q 2013 4116 1813 3408 
Q 1613 2700 1613 2009 
Q 1613 1319 1811 609 
Q 2009 -100 2413 -844 
z
" transform="scale(0.015625)"/>
      <path id="DejaVuSans-Bold-37" d="M 31 4666 
L 4331 4666 
L 4331 3756 
L 2784 3756 
L 2784 0 
L 1581 0 
L 1581 3756 
L 31 3756 
L 31 4666 
z
" transform="scale(0.015625)"/>
      <path id="DejaVuSans-Bold-55" d="M 3138 2547 
Q 2991 2616 2845 2648 
Q 2700 2681 2553 2681 
Q 2122 2681 1889 2404 
Q 1656 2128 1656 1613 
L 1656 0 
L 538 0 
L 538 3500 
L 1656 3500 
L 1656 2925 
Q 1872 3269 2151 3426 
Q 2431 3584 2822 3584 
Q 2878 3584 2943 3579 
Q 3009 3575 3134 3559 
L 3138 2547 
z
" transform="scale(0.015625)"/>
      <path id="DejaVuSans-Bold-4c" d="M 538 3500 
L 1656 3500 
L 1656 0 
L 538 0 
L 538 3500 
z
M 538 4863 
L 1656 4863 
L 1656 3950 
L 538 3950 
L 538 4863 
z
" transform="scale(0.015625)"/>
      <path id="DejaVuSans-Bold-53" d="M 1656 506 
L 1656 -1331 
L 538 -1331 
L 538 3500 
L 1656 3500 
L 1656 2988 
Q 1888 3294 2169 3439 
Q 2450 3584 2816 3584 
Q 3463 3584 3878 3070 
Q 4294 2556 4294 1747 
Q 4294 938 3878 423 
Q 3463 -91 2816 -91 
Q 2450 -91 2169 54 
Q 1888 200 1656 506 
z
M 2400 2772 
Q 2041 2772 1848 2508 
Q 1656 2244 1656 1747 
Q 1656 1250 1848 986 
Q 2041 722 2400 722 
Q 2759 722 2948 984 
Q 3138 1247 3138 1747 
Q 3138 2247 2948 2509 
Q 2759 2772 2400 2772 
z
" transform="scale(0.015625)"/>
      <path id="DejaVuSans-Bold-4f" d="M 538 4863 
L 1656 4863 
L 1656 0 
L 538 0 
L 538 4863 
z
" transform="scale(0.015625)"/>
      <path id="DejaVuSans-Bold-48" d="M 4031 1759 
L 4031 1441 
L 1416 1441 
Q 1456 1047 1700 850 
Q 1944 653 2381 653 
Q 2734 653 3104 758 
Q 3475 863 3866 1075 
L 3866 213 
Q 3469 63 3072 -14 
Q 2675 -91 2278 -91 
Q 1328 -91 801 392 
Q 275 875 275 1747 
Q 275 2603 792 3093 
Q 1309 3584 2216 3584 
Q 3041 3584 3536 3087 
Q 4031 2591 4031 1759 
z
M 2881 2131 
Q 2881 2450 2695 2645 
Q 2509 2841 2209 2841 
Q 1884 2841 1681 2658 
Q 1478 2475 1428 2131 
L 2881 2131 
z
" transform="scale(0.015625)"/>
      <path id="DejaVuSans-Bold-25" d="M 2456 2859 
Q 2741 2859 2887 2984 
Q 3034 3109 3034 3353 
Q 3034 3594 2887 3720 
Q 2741 3847 2456 3847 
L 1791 3847 
L 1791 2859 
L 2456 2859 
z
M 2497 819 
Q 2859 819 3042 972 
Q 3225 1125 3225 1434 
Q 3225 1738 3044 1889 
Q 2863 2041 2497 2041 
L 1791 2041 
L 1791 819 
L 2497 819 
z
M 3616 2497 
Q 4003 2384 4215 2081 
Q 4428 1778 4428 1338 
Q 4428 663 3972 331 
Q 3516 0 2584 0 
L 588 0 
L 588 4666 
L 2394 4666 
Q 3366 4666 3802 4372 
Q 4238 4078 4238 3431 
Q 4238 3091 4078 2852 
Q 3919 2613 3616 2497 
z
" transform="scale(0.015625)"/>
      <path id="DejaVuSans-Bold-52" d="M 2203 2784 
Q 1831 2784 1636 2517 
Q 1441 2250 1441 1747 
Q 1441 1244 1636 976 
Q 1831 709 2203 709 
Q 2569 709 2762 976 
Q 2956 1244 2956 1747 
Q 2956 2250 2762 2517 
Q 2569 2784 2203 2784 
z
M 2203 3584 
Q 3106 3584 3614 3096 
Q 4122 2609 4122 1747 
Q 4122 884 3614 396 
Q 3106 -91 2203 -91 
Q 1297 -91 786 396 
Q 275 884 275 1747 
Q 275 2609 786 3096 
Q 1297 3584 2203 3584 
z
" transform="scale(0.015625)"/>
      <path id="DejaVuSans-Bold-57" d="M 1759 4494 
L 1759 3500 
L 2913 3500 
L 2913 2700 
L 1759 2700 
L 1759 1216 
Q 1759 972 1856 886 
Q 1953 800 2241 800 
L 2816 800 
L 2816 0 
L 1856 0 
Q 1194 0 917 276 
Q 641 553 641 1216 
L 641 2700 
L 84 2700 
L 84 3500 
L 641 3500 
L 641 4494 
L 1759 4494 
z
" transform="scale(0.015625)"/>
      <path id="DejaVuSans-Bold-50" d="M 3781 2919 
Q 3994 3244 4286 3414 
Q 4578 3584 4928 3584 
Q 5531 3584 5847 3212 
Q 6163 2841 6163 2131 
L 6163 0 
L 5038 0 
L 5038 1825 
Q 5041 1866 5042 1909 
Q 5044 1953 5044 2034 
Q 5044 2406 4934 2573 
Q 4825 2741 4581 2741 
Q 4263 2741 4089 2478 
Q 3916 2216 3909 1719 
L 3909 0 
L 2784 0 
L 2784 1825 
Q 2784 2406 2684 2573 
Q 2584 2741 2328 2741 
Q 2006 2741 1831 2477 
Q 1656 2213 1656 1722 
L 1656 0 
L 531 0 
L 531 3500 
L 1656 3500 
L 1656 2988 
Q 1863 3284 2130 3434 
Q 2397 3584 2719 3584 
Q 3081 3584 3359 3409 
Q 3638 3234 3781 2919 
z
" transform="scale(0.015625)"/>
      <path id="DejaVuSans-Bold-c" d="M 513 -844 
Q 913 -100 1113 609 
Q 1313 1319 1313 2009 
Q 1313 2700 1113 3408 
Q 913 4116 513 4856 
L 1441 4856 
Q 1916 4091 2145 3389 
Q 2375 2688 2375 2003 
Q 2375 1319 2147 623 
Q 1919 -72 1441 -844 
L 513 -844 
z
" transform="scale(0.015625)"/>
      <path id="DejaVuSans-Bold-af6" d="M 344 2156 
L 6056 2156 
L 6056 1350 
L 344 1350 
L 344 2156 
z
" transform="scale(0.015625)"/>
      <path id="NotoNaskhArabic-Bold-1ea" d="M 0 58 
Q -51 58 -51 109 
L -51 762 
Q -51 813 0 813 
Q 320 813 640 867 
Q 960 922 1139 998 
Q 1075 1146 976 1328 
Q 877 1510 819 1613 
Q 755 1734 710 1833 
Q 666 1933 666 2016 
Q 666 2176 838 2361 
Q 1011 2547 1248 2669 
Q 1293 2470 1347 2217 
Q 1402 1965 1446 1702 
Q 1485 1504 1501 1376 
Q 1517 1248 1517 1184 
Q 1517 1037 1443 822 
Q 1370 608 1267 410 
Q 685 58 0 58 
z
M 902 3052 
Q 576 3321 410 3513 
Q 557 3660 675 3785 
Q 794 3910 890 4025 
Q 960 3948 1075 3833 
Q 1190 3718 1350 3564 
Q 1274 3456 1162 3328 
Q 1050 3200 902 3052 
z
" transform="scale(0.015625)"/>
      <path id="NotoNaskhArabic-Bold-124" d="M 2573 0 
Q 2336 0 2038 13 
Q 1741 26 1488 48 
Q 1235 70 1120 102 
Q 1037 128 883 221 
Q 730 314 554 448 
Q 378 582 218 723 
L 314 998 
Q 922 851 1357 787 
Q 1421 870 1485 950 
Q 1549 1030 1613 1114 
Q 1549 1395 1494 1664 
Q 1440 1933 1389 2189 
Q 1312 2566 1245 2915 
Q 1178 3264 1114 3578 
Q 1107 3616 1104 3654 
Q 1101 3693 1101 3725 
Q 1101 3987 1289 4169 
Q 1478 4352 1754 4352 
Q 1811 4134 1875 3939 
Q 1939 3744 2010 3565 
L 1805 3411 
Q 1830 3123 1852 2835 
Q 1875 2547 1894 2253 
Q 1907 2074 1923 1891 
Q 1939 1709 1946 1523 
Q 2867 2560 3450 2560 
Q 3610 2560 3798 2470 
Q 3987 2381 4176 2233 
Q 4365 2086 4518 1901 
Q 4742 1632 4742 1446 
Q 4742 1210 4678 1037 
Q 5018 813 5434 813 
Q 5491 813 5491 762 
L 5491 109 
Q 5491 58 5434 58 
Q 5139 58 4848 189 
Q 4557 320 4333 557 
Q 4134 384 3846 259 
Q 3558 134 3228 67 
Q 2899 0 2573 0 
z
M 2637 704 
Q 3091 704 3494 809 
Q 3898 915 4378 1146 
Q 3802 1805 3290 1805 
Q 2733 1805 1811 736 
Q 2022 723 2230 713 
Q 2438 704 2637 704 
z
" transform="scale(0.015625)"/>
      <path id="NotoNaskhArabic-Bold-135" d="M 6 58 
Q -51 58 -51 115 
L -51 755 
Q -51 813 6 813 
Q 346 813 627 822 
Q 909 832 1126 870 
L 998 1030 
Q 909 1152 835 1235 
Q 762 1318 691 1382 
Q 640 1434 589 1478 
Q 538 1523 486 1568 
L 371 1485 
Q 198 1670 198 1894 
Q 198 2112 390 2272 
Q 582 2432 915 2554 
Q 1242 2669 1549 2669 
Q 1830 2669 2080 2547 
Q 2330 2426 2470 2208 
Q 2618 1990 2618 1760 
Q 2618 1530 2490 1306 
Q 2362 1082 2118 858 
Q 2291 832 2486 822 
Q 2682 813 2912 813 
Q 2976 813 2976 755 
L 2976 115 
Q 2976 58 2912 58 
Q 2464 58 2105 160 
Q 1747 262 1530 448 
Q 845 58 6 58 
z
M 1626 1062 
Q 1978 1293 1978 1613 
Q 1978 1773 1862 1865 
Q 1747 1958 1574 1958 
Q 1408 1958 1257 1926 
Q 1107 1894 902 1805 
Q 973 1741 1117 1603 
Q 1261 1466 1459 1248 
Q 1498 1203 1539 1158 
Q 1581 1114 1626 1062 
z
" transform="scale(0.015625)"/>
      <path id="NotoNaskhArabic-Bold-175" d="M 0 58 
Q -51 58 -51 109 
L -51 762 
Q -51 813 0 813 
Q 832 813 1293 870 
Q 1741 922 1952 1030 
Q 1882 1178 1728 1347 
Q 1574 1517 1363 1683 
Q 1242 1773 1085 1875 
Q 928 1978 723 2099 
Q 64 2470 64 2778 
Q 64 2906 121 3030 
Q 179 3155 269 3238 
Q 314 3277 515 3376 
Q 717 3475 1008 3606 
Q 1299 3738 1622 3878 
Q 1946 4019 2243 4144 
Q 2541 4269 2746 4352 
Q 2880 4230 2880 4032 
Q 2880 3872 2781 3728 
Q 2682 3584 2534 3514 
Q 2291 3392 2038 3283 
Q 1786 3174 1440 3049 
Q 1094 2925 563 2739 
Q 1011 2630 1401 2371 
Q 1792 2112 2029 1773 
Q 2278 1421 2278 1107 
Q 2278 1050 2272 1037 
Q 2630 813 3046 813 
Q 3104 813 3104 762 
L 3104 109 
Q 3104 58 3046 58 
Q 2470 58 2016 531 
Q 1901 429 1702 326 
Q 1126 58 0 58 
z
" transform="scale(0.015625)"/>
      <path id="NotoNaskhArabic-Bold-fa" d="M 1472 0 
Q 1165 0 736 205 
Q 608 141 406 99 
Q 205 58 0 58 
Q -51 58 -51 109 
L -51 762 
Q -51 813 0 813 
Q 294 813 441 851 
Q 589 890 678 979 
Q 749 1050 806 1142 
Q 864 1235 998 1466 
Q 1037 1536 1110 1581 
Q 1184 1626 1267 1626 
Q 1357 1626 1466 1555 
Q 1363 1286 1286 1091 
Q 1210 896 1158 781 
Q 1331 762 1504 762 
Q 1632 762 1734 778 
Q 1837 794 1965 832 
Q 2010 902 2093 1104 
Q 2176 1306 2317 1696 
Q 2349 1779 2432 1833 
Q 2515 1888 2630 1888 
Q 2765 1888 2854 1818 
Q 2778 1626 2710 1414 
Q 2643 1203 2586 992 
Q 2829 870 3133 806 
Q 3437 742 3782 704 
Q 3584 1094 3443 1376 
Q 3302 1658 3302 1798 
Q 3302 1952 3475 2141 
Q 3648 2330 3885 2451 
Q 3994 1907 4051 1603 
Q 4109 1299 4131 1145 
Q 4154 992 4154 909 
Q 4154 806 4112 633 
Q 4070 461 4006 288 
Q 3942 115 3885 0 
Q 3501 0 3097 89 
Q 2694 179 2355 326 
Q 2317 243 2278 173 
Q 2234 102 1994 51 
Q 1754 0 1472 0 
z
" transform="scale(0.015625)"/>
      <path id="NotoNaskhArabic-Bold-112" d="M 2592 0 
Q 2163 0 1699 80 
Q 1235 160 851 339 
Q 826 314 797 285 
Q 768 256 730 230 
Q 595 147 400 102 
Q 205 58 0 58 
Q -51 58 -51 109 
L -51 762 
Q -51 813 0 813 
Q 243 813 380 841 
Q 518 870 614 969 
Q 710 1069 826 1274 
Q 851 1318 880 1363 
Q 909 1408 934 1466 
Q 1030 1638 1222 1638 
Q 1318 1638 1427 1574 
Q 1363 1414 1302 1260 
Q 1242 1107 1178 954 
Q 1248 928 1312 909 
Q 1376 890 1440 864 
Q 2099 1741 2605 2150 
Q 3091 2560 3469 2560 
Q 3629 2560 3824 2464 
Q 4019 2368 4211 2214 
Q 4403 2061 4544 1882 
Q 4762 1619 4762 1446 
Q 4762 582 3699 192 
Q 3174 0 2592 0 
z
M 2656 704 
Q 3117 704 3520 813 
Q 3923 922 4390 1146 
Q 3814 1805 3309 1805 
Q 3027 1805 2652 1536 
Q 2278 1267 1862 774 
Q 2067 742 2265 723 
Q 2464 704 2656 704 
z
" transform="scale(0.015625)"/>
      <path id="NotoNaskhArabic-Bold-136" d="M 0 58 
Q -51 58 -51 109 
L -51 762 
Q -51 813 0 813 
L 499 813 
Q 365 1005 365 1210 
Q 365 1408 441 1632 
Q 518 1856 652 2057 
Q 787 2259 947 2387 
Q 1190 2579 1440 2579 
Q 1875 2579 2406 1990 
L 2272 1728 
Q 2074 1805 1907 1840 
Q 1741 1875 1600 1875 
Q 1376 1875 1197 1827 
Q 1018 1779 819 1670 
Q 832 1434 921 1245 
Q 1011 1056 1190 928 
Q 1267 877 1338 838 
Q 1843 870 2240 953 
Q 2637 1037 3040 1197 
Q 3091 1152 3116 1056 
Q 3142 960 3142 883 
Q 3142 730 3072 602 
Q 3002 474 2874 410 
Q 2746 346 2259 250 
Q 1766 147 1235 102 
Q 704 58 0 58 
z
" transform="scale(0.015625)"/>
      <path id="NotoNaskhArabic-Bold-b6" d="M 1075 0 
Q 218 0 218 499 
Q 218 634 272 784 
Q 326 934 410 1018 
Q 570 890 774 826 
Q 979 762 1280 762 
Q 1466 762 1658 784 
Q 1850 806 2048 851 
Q 1798 1286 1648 1673 
Q 1498 2061 1498 2246 
Q 1498 2477 1613 2646 
Q 1728 2816 1946 2880 
Q 2074 2362 2208 1955 
Q 2342 1549 2490 1248 
Q 2611 1005 2758 909 
Q 2906 813 3162 813 
Q 3213 813 3213 762 
L 3213 109 
Q 3213 58 3162 58 
Q 2707 58 2413 352 
Q 1709 0 1075 0 
z
" transform="scale(0.015625)"/>
     </defs>
     <use xlink:href="#NotoNaskhArabic-Bold-3"/>
     <use xlink:href="#NotoNaskhArabic-Bold-1c1" transform="translate(28.40625 0)"/>
     <use xlink:href="#NotoNaskhArabic-Bold-169" transform="translate(50.109375 0)"/>
     <use xlink:href="#NotoNaskhArabic-Bold-4" transform="translate(91.3125 0)"/>
     <use xlink:href="#NotoNaskhArabic-Bold-133" transform="translate(120.109375 0)"/>
     <use xlink:href="#NotoNaskhArabic-Bold-554" transform="translate(180.515625 0)"/>
     <use xlink:href="#NotoNaskhArabic-Bold-3" transform="translate(202.609375 0)"/>
     <use xlink:href="#NotoNaskhArabic-Bold-1c1" transform="translate(231.015625 0)"/>
     <use xlink:href="#NotoNaskhArabic-Bold-43" transform="translate(252.71875 0)"/>
     <use xlink:href="#NotoNaskhArabic-Bold-2df" transform="translate(288.71875 0)"/>
     <use xlink:href="#NotoNaskhArabic-Bold-44" transform="translate(351.8125 0)"/>
     <use xlink:href="#NotoNaskhArabic-Bold-23f" transform="translate(379.3125 0)"/>
     <use xlink:href="#NotoNaskhArabic-Bold-554" transform="translate(448.3125 0)"/>
     <use xlink:href="#DejaVuSans-Bold-b" transform="translate(470.40625 0)"/>
     <use xlink:href="#DejaVuSans-Bold-37" transform="translate(516.109375 0)"/>
     <use xlink:href="#DejaVuSans-Bold-55" transform="translate(573.34375 0)"/>
     <use xlink:href="#DejaVuSans-Bold-4c" transform="translate(622.65625 0)"/>
     <use xlink:href="#DejaVuSans-Bold-53" transform="translate(656.9375 0)"/>
     <use xlink:href="#DejaVuSans-Bold-4f" transform="translate(728.515625 0)"/>
     <use xlink:href="#DejaVuSans-Bold-48" transform="translate(762.796875 0)"/>
     <use xlink:href="#NotoNaskhArabic-Bold-554" transform="translate(830.625 0)"/>
     <use xlink:href="#DejaVuSans-Bold-25" transform="translate(852.71875 0)"/>
     <use xlink:href="#DejaVuSans-Bold-52" transform="translate(928.9375 0)"/>
     <use xlink:href="#DejaVuSans-Bold-57" transform="translate(997.640625 0)"/>
     <use xlink:href="#DejaVuSans-Bold-57" transform="translate(1045.4375 0)"/>
     <use xlink:href="#DejaVuSans-Bold-52" transform="translate(1093.234375 0)"/>
     <use xlink:href="#DejaVuSans-Bold-50" transform="translate(1161.9375 0)"/>
     <use xlink:href="#DejaVuSans-Bold-c" transform="translate(1266.140625 0)"/>
     <use xlink:href="#NotoNaskhArabic-Bold-554" transform="translate(1311.84375 0)"/>
     <use xlink:href="#DejaVuSans-Bold-af6" transform="translate(1333.9375 0)"/>
     <use xlink:href="#NotoNaskhArabic-Bold-554" transform="translate(1433.9375 0)"/>
     <use xlink:href="#NotoNaskhArabic-Bold-1ea" transform="translate(1456.03125 0)"/>
     <use xlink:href="#NotoNaskhArabic-Bold-1e4" transform="translate(1483.53125 0)"/>
     <use xlink:href="#NotoNaskhArabic-Bold-124" transform="translate(1524.828125 0)"/>
     <use xlink:href="#NotoNaskhArabic-Bold-554" transform="translate(1608.921875 0)"/>
     <use xlink:href="#NotoNaskhArabic-Bold-3" transform="translate(1631.015625 0)"/>
     <use xlink:href="#NotoNaskhArabic-Bold-1ea" transform="translate(1659.421875 0)"/>
     <use xlink:href="#NotoNaskhArabic-Bold-135" transform="translate(1686.921875 0)"/>
     <use xlink:href="#NotoNaskhArabic-Bold-175" transform="translate(1731.71875 0)"/>
     <use xlink:href="#NotoNaskhArabic-Bold-4" transform="translate(1778.421875 0)"/>
     <use xlink:href="#NotoNaskhArabic-Bold-fa" transform="translate(1807.21875 0)"/>
     <use xlink:href="#NotoNaskhArabic-Bold-23f" transform="translate(1877.21875 0)"/>
     <use xlink:href="#NotoNaskhArabic-Bold-554" transform="translate(1946.21875 0)"/>
     <use xlink:href="#NotoNaskhArabic-Bold-112" transform="translate(1968.3125 0)"/>
     <use xlink:href="#NotoNaskhArabic-Bold-4" transform="translate(2047.8125 0)"/>
     <use xlink:href="#NotoNaskhArabic-Bold-136" transform="translate(2076.609375 0)"/>
     <use xlink:href="#NotoNaskhArabic-Bold-b6" transform="translate(2128.3125 0)"/>
    </g>
   </g>
  </g>
 </g>
 <defs>
  <clipPath id="p3246ff6a3f">
   <rect x="7.2" y="25.933" width="613.95" height="271.084574"/>
  </clipPath>
 </defs>
</svg>
