<?xml version="1.0" encoding="utf-8" standalone="no"?>
<!DOCTYPE svg PUBLIC "-//W3C//DTD SVG 1.1//EN"
  "http://www.w3.org/Graphics/SVG/1.1/DTD/svg11.dtd">
<svg xmlns:xlink="http://www.w3.org/1999/xlink" width="765.15pt" height="484.35pt" viewBox="0 0 765.15 484.35" xmlns="http://www.w3.org/2000/svg" version="1.1">
 <metadata>
  <rdf:RDF xmlns:dc="http://purl.org/dc/elements/1.1/" xmlns:cc="http://creativecommons.org/ns#" xmlns:rdf="http://www.w3.org/1999/02/22-rdf-syntax-ns#">
   <cc:Work>
    <dc:type rdf:resource="http://purl.org/dc/dcmitype/StillImage"/>
    <dc:date>2026-07-18T20:17:17.127147</dc:date>
    <dc:format>image/svg+xml</dc:format>
    <dc:creator>
     <cc:Agent>
      <dc:title>Matplotlib v3.11.1, https://matplotlib.org/</dc:title>
     </cc:Agent>
    </dc:creator>
   </cc:Work>
  </rdf:RDF>
 </metadata>
 <defs>
  <style type="text/css">*{stroke-linejoin: round; stroke-linecap: butt}</style>
 </defs>
 <g id="figure_1">
  <g id="patch_1">
   <path d="M 0 484.35 
L 765.15 484.35 
L 765.15 0 
L 0 0 
z
" style="fill: #ffffff"/>
  </g>
  <g id="axes_1">
   <g id="patch_2">
    <path d="M 7.2 240.8625 
L 255.7 240.8625 
L 255.7 20.798437 
L 7.2 20.798437 
z
" style="fill: #ffffff"/>
   </g>
   <g id="matplotlib.axis_1"/>
   <g id="matplotlib.axis_2"/>
   <g id="line2d_1">
    <path d="M 18.495455 205.183979 
L 20.777365 205.442877 
L 23.059275 205.700698 
L 25.341185 205.955232 
L 27.623095 206.200443 
L 29.905005 206.421153 
L 32.186915 206.582226 
L 34.468825 206.609115 
L 36.750735 206.357478 
L 39.032645 205.574008 
L 41.314555 203.85995 
L 43.596465 200.662027 
L 45.878375 195.326078 
L 48.160285 187.245035 
L 50.442195 176.103272 
L 52.724105 162.163852 
L 55.006015 146.485087 
L 57.287925 130.928243 
L 59.569835 117.865831 
L 61.851745 109.62067 
L 64.133655 107.808324 
L 66.415565 112.836681 
L 68.697475 123.775037 
L 70.979385 138.650235 
L 73.261295 155.040782 
L 75.543205 170.723986 
L 77.825115 184.142371 
L 80.107025 194.571127 
L 82.388935 202.011294 
L 84.670845 206.92797 
L 86.952755 209.968618 
L 89.234665 211.752158 
L 91.516575 212.756724 
L 93.798485 213.28703 
L 96.080395 213.483507 
L 98.362305 213.339164 
L 100.644215 212.704511 
L 102.926125 211.276935 
L 105.208035 208.584816 
L 107.489945 203.987604 
L 109.771855 196.719382 
L 112.053765 186.001387 
L 114.335675 171.233753 
L 116.617585 152.247001 
L 118.899495 129.555622 
L 121.181405 104.524681 
L 123.463315 79.355538 
L 125.745225 56.832614 
L 128.027135 39.847112 
L 130.309045 30.801349 
L 132.590955 31.060699 
L 134.872865 40.625161 
L 137.154775 58.129362 
L 139.436685 81.170985 
L 141.718595 106.858828 
L 144.000505 132.408467 
L 146.282415 155.618546 
L 148.564325 175.123996 
L 150.846235 190.41033 
L 153.128145 201.647024 
L 155.410055 209.433946 
L 157.691965 214.549857 
L 159.973875 217.760674 
L 162.255785 219.70695 
L 164.537695 220.860302 
L 166.819605 221.523344 
L 169.101515 221.845566 
L 171.383425 221.833959 
L 173.665335 221.348092 
L 175.947245 220.083252 
L 178.229155 217.561303 
L 180.511065 213.163326 
L 182.792975 206.241858 
L 185.074885 196.331801 
L 187.356795 183.432116 
L 189.638705 168.26761 
L 191.920615 152.395763 
L 194.202525 138.039264 
L 196.484435 127.619608 
L 198.766345 123.109949 
L 201.048255 125.440995 
L 203.330165 134.204855 
L 205.612075 147.785966 
L 207.893985 163.86151 
L 210.175895 180.058974 
L 212.457805 194.517092 
L 214.739715 206.177555 
L 217.021625 214.777297 
L 219.303535 220.631945 
L 221.585445 224.348568 
L 223.867355 226.581324 
L 226.149265 227.883494 
L 228.431175 228.65383 
L 230.713085 229.14564 
L 232.994995 229.503266 
L 235.276905 229.801255 
L 237.558815 230.074743 
L 239.840725 230.338909 
L 242.122635 230.599787 
L 244.404545 230.859588 
" clip-path="url(#p89b9b4b8d3)" style="fill: none; stroke: #1f2937; stroke-width: 2; stroke-linecap: square"/>
   </g>
   <g id="line2d_2">
    <path d="M 7.2 192.346341 
L 255.7 192.346341 
" clip-path="url(#p89b9b4b8d3)" style="fill: none; stroke-dasharray: 5.18,2.24; stroke-dashoffset: 0; stroke: #b7791f; stroke-width: 1.4"/>
   </g>
   <g id="text_1">
    <!-- Head &amp; Shoulders -->
    <g style="fill: #1f2937" transform="translate(80.799219 14.798437) scale(0.1 -0.1)">
     <defs>
      <path id="DejaVuSans-Bold-2b" d="M 588 4666 
L 1791 4666 
L 1791 2888 
L 3566 2888 
L 3566 4666 
L 4769 4666 
L 4769 0 
L 3566 0 
L 3566 1978 
L 1791 1978 
L 1791 0 
L 588 0 
L 588 4666 
z
" transform="scale(0.015625)"/>
      <path id="DejaVuSans-Bold-48" d="M 4031 1759 
L 4031 1441 
L 1416 1441 
Q 1456 1047 1700 850 
Q 1944 653 2381 653 
Q 2734 653 3104 758 
Q 3475 863 3866 1075 
L 3866 213 
Q 3469 63 3072 -14 
Q 2675 -91 2278 -91 
Q 1328 -91 801 392 
Q 275 875 275 1747 
Q 275 2603 792 3093 
Q 1309 3584 2216 3584 
Q 3041 3584 3536 3087 
Q 4031 2591 4031 1759 
z
M 2881 2131 
Q 2881 2450 2695 2645 
Q 2509 2841 2209 2841 
Q 1884 2841 1681 2658 
Q 1478 2475 1428 2131 
L 2881 2131 
z
" transform="scale(0.015625)"/>
      <path id="DejaVuSans-Bold-44" d="M 2106 1575 
Q 1756 1575 1579 1456 
Q 1403 1338 1403 1106 
Q 1403 894 1545 773 
Q 1688 653 1941 653 
Q 2256 653 2472 879 
Q 2688 1106 2688 1447 
L 2688 1575 
L 2106 1575 
z
M 3816 1997 
L 3816 0 
L 2688 0 
L 2688 519 
Q 2463 200 2181 54 
Q 1900 -91 1497 -91 
Q 953 -91 614 226 
Q 275 544 275 1050 
Q 275 1666 698 1953 
Q 1122 2241 2028 2241 
L 2688 2241 
L 2688 2328 
Q 2688 2594 2478 2717 
Q 2269 2841 1825 2841 
Q 1466 2841 1156 2769 
Q 847 2697 581 2553 
L 581 3406 
Q 941 3494 1303 3539 
Q 1666 3584 2028 3584 
Q 2975 3584 3395 3211 
Q 3816 2838 3816 1997 
z
" transform="scale(0.015625)"/>
      <path id="DejaVuSans-Bold-47" d="M 2919 2988 
L 2919 4863 
L 4044 4863 
L 4044 0 
L 2919 0 
L 2919 506 
Q 2688 197 2409 53 
Q 2131 -91 1766 -91 
Q 1119 -91 703 423 
Q 288 938 288 1747 
Q 288 2556 703 3070 
Q 1119 3584 1766 3584 
Q 2128 3584 2408 3439 
Q 2688 3294 2919 2988 
z
M 2181 722 
Q 2541 722 2730 984 
Q 2919 1247 2919 1747 
Q 2919 2247 2730 2509 
Q 2541 2772 2181 2772 
Q 1825 2772 1636 2509 
Q 1447 2247 1447 1747 
Q 1447 1247 1636 984 
Q 1825 722 2181 722 
z
" transform="scale(0.015625)"/>
      <path id="DejaVuSans-Bold-3" transform="scale(0.015625)"/>
      <path id="DejaVuSans-Bold-9" d="M 2497 3097 
L 3775 1691 
Q 3941 1909 4027 2181 
Q 4113 2453 4128 2797 
L 5100 2797 
Q 5053 2228 4879 1784 
Q 4706 1341 4397 1006 
L 5313 0 
L 3988 0 
L 3681 341 
Q 3353 122 2990 15 
Q 2628 -91 2222 -91 
Q 1400 -91 892 342 
Q 384 775 384 1459 
Q 384 1916 607 2267 
Q 831 2619 1338 2950 
Q 1206 3116 1143 3281 
Q 1081 3447 1081 3628 
Q 1081 4138 1478 4444 
Q 1875 4750 2534 4750 
Q 2819 4750 3126 4704 
Q 3434 4659 3769 4569 
L 3769 3700 
Q 3475 3850 3212 3922 
Q 2950 3994 2700 3994 
Q 2459 3994 2326 3901 
Q 2194 3809 2194 3641 
Q 2194 3534 2270 3398 
Q 2347 3263 2497 3097 
z
M 1875 2322 
Q 1672 2175 1569 1989 
Q 1466 1803 1466 1581 
Q 1466 1222 1731 969 
Q 1997 716 2369 716 
Q 2578 716 2759 780 
Q 2941 844 3097 972 
L 1875 2322 
z
" transform="scale(0.015625)"/>
      <path id="DejaVuSans-Bold-36" d="M 3834 4519 
L 3834 3531 
Q 3450 3703 3084 3790 
Q 2719 3878 2394 3878 
Q 1963 3878 1756 3759 
Q 1550 3641 1550 3391 
Q 1550 3203 1689 3098 
Q 1828 2994 2194 2919 
L 2706 2816 
Q 3484 2659 3812 2340 
Q 4141 2022 4141 1434 
Q 4141 663 3683 286 
Q 3225 -91 2284 -91 
Q 1841 -91 1394 -6 
Q 947 78 500 244 
L 500 1259 
Q 947 1022 1364 901 
Q 1781 781 2169 781 
Q 2563 781 2772 912 
Q 2981 1044 2981 1288 
Q 2981 1506 2839 1625 
Q 2697 1744 2272 1838 
L 1806 1941 
Q 1106 2091 782 2419 
Q 459 2747 459 3303 
Q 459 4000 909 4375 
Q 1359 4750 2203 4750 
Q 2588 4750 2994 4692 
Q 3400 4634 3834 4519 
z
" transform="scale(0.015625)"/>
      <path id="DejaVuSans-Bold-4b" d="M 4056 2131 
L 4056 0 
L 2931 0 
L 2931 347 
L 2931 1625 
Q 2931 2084 2911 2256 
Q 2891 2428 2841 2509 
Q 2775 2619 2662 2680 
Q 2550 2741 2406 2741 
Q 2056 2741 1856 2470 
Q 1656 2200 1656 1722 
L 1656 0 
L 538 0 
L 538 4863 
L 1656 4863 
L 1656 2988 
Q 1909 3294 2193 3439 
Q 2478 3584 2822 3584 
Q 3428 3584 3742 3212 
Q 4056 2841 4056 2131 
z
" transform="scale(0.015625)"/>
      <path id="DejaVuSans-Bold-52" d="M 2203 2784 
Q 1831 2784 1636 2517 
Q 1441 2250 1441 1747 
Q 1441 1244 1636 976 
Q 1831 709 2203 709 
Q 2569 709 2762 976 
Q 2956 1244 2956 1747 
Q 2956 2250 2762 2517 
Q 2569 2784 2203 2784 
z
M 2203 3584 
Q 3106 3584 3614 3096 
Q 4122 2609 4122 1747 
Q 4122 884 3614 396 
Q 3106 -91 2203 -91 
Q 1297 -91 786 396 
Q 275 884 275 1747 
Q 275 2609 786 3096 
Q 1297 3584 2203 3584 
z
" transform="scale(0.015625)"/>
      <path id="DejaVuSans-Bold-58" d="M 500 1363 
L 500 3500 
L 1625 3500 
L 1625 3150 
Q 1625 2866 1622 2436 
Q 1619 2006 1619 1863 
Q 1619 1441 1641 1255 
Q 1663 1069 1716 984 
Q 1784 875 1895 815 
Q 2006 756 2150 756 
Q 2500 756 2700 1025 
Q 2900 1294 2900 1772 
L 2900 3500 
L 4019 3500 
L 4019 0 
L 2900 0 
L 2900 506 
Q 2647 200 2364 54 
Q 2081 -91 1741 -91 
Q 1134 -91 817 281 
Q 500 653 500 1363 
z
" transform="scale(0.015625)"/>
      <path id="DejaVuSans-Bold-4f" d="M 538 4863 
L 1656 4863 
L 1656 0 
L 538 0 
L 538 4863 
z
" transform="scale(0.015625)"/>
      <path id="DejaVuSans-Bold-55" d="M 3138 2547 
Q 2991 2616 2845 2648 
Q 2700 2681 2553 2681 
Q 2122 2681 1889 2404 
Q 1656 2128 1656 1613 
L 1656 0 
L 538 0 
L 538 3500 
L 1656 3500 
L 1656 2925 
Q 1872 3269 2151 3426 
Q 2431 3584 2822 3584 
Q 2878 3584 2943 3579 
Q 3009 3575 3134 3559 
L 3138 2547 
z
" transform="scale(0.015625)"/>
      <path id="DejaVuSans-Bold-56" d="M 3272 3391 
L 3272 2541 
Q 2913 2691 2578 2766 
Q 2244 2841 1947 2841 
Q 1628 2841 1473 2761 
Q 1319 2681 1319 2516 
Q 1319 2381 1436 2309 
Q 1553 2238 1856 2203 
L 2053 2175 
Q 2913 2066 3209 1816 
Q 3506 1566 3506 1031 
Q 3506 472 3093 190 
Q 2681 -91 1863 -91 
Q 1516 -91 1145 -36 
Q 775 19 384 128 
L 384 978 
Q 719 816 1070 734 
Q 1422 653 1784 653 
Q 2113 653 2278 743 
Q 2444 834 2444 1013 
Q 2444 1163 2330 1236 
Q 2216 1309 1875 1350 
L 1678 1375 
Q 931 1469 631 1722 
Q 331 1975 331 2491 
Q 331 3047 712 3315 
Q 1094 3584 1881 3584 
Q 2191 3584 2531 3537 
Q 2872 3491 3272 3391 
z
" transform="scale(0.015625)"/>
     </defs>
     <use xlink:href="#DejaVuSans-Bold-2b"/>
     <use xlink:href="#DejaVuSans-Bold-48" transform="translate(83.6875 0)"/>
     <use xlink:href="#DejaVuSans-Bold-44" transform="translate(151.515625 0)"/>
     <use xlink:href="#DejaVuSans-Bold-47" transform="translate(219 0)"/>
     <use xlink:href="#DejaVuSans-Bold-3" transform="translate(290.578125 0)"/>
     <use xlink:href="#DejaVuSans-Bold-9" transform="translate(325.390625 0)"/>
     <use xlink:href="#DejaVuSans-Bold-3" transform="translate(412.59375 0)"/>
     <use xlink:href="#DejaVuSans-Bold-36" transform="translate(447.40625 0)"/>
     <use xlink:href="#DejaVuSans-Bold-4b" transform="translate(519.421875 0)"/>
     <use xlink:href="#DejaVuSans-Bold-52" transform="translate(590.609375 0)"/>
     <use xlink:href="#DejaVuSans-Bold-58" transform="translate(659.3125 0)"/>
     <use xlink:href="#DejaVuSans-Bold-4f" transform="translate(730.5 0)"/>
     <use xlink:href="#DejaVuSans-Bold-47" transform="translate(764.78125 0)"/>
     <use xlink:href="#DejaVuSans-Bold-48" transform="translate(836.359375 0)"/>
     <use xlink:href="#DejaVuSans-Bold-55" transform="translate(904.1875 0)"/>
     <use xlink:href="#DejaVuSans-Bold-56" transform="translate(953.5 0)"/>
    </g>
   </g>
  </g>
  <g id="axes_2">
   <g id="patch_3">
    <path d="M 258.325 240.8625 
L 506.825 240.8625 
L 506.825 20.798437 
L 258.325 20.798437 
z
" style="fill: #ffffff"/>
   </g>
   <g id="matplotlib.axis_3"/>
   <g id="matplotlib.axis_4"/>
   <g id="line2d_3">
    <path d="M 269.620455 230.858845 
L 271.902365 230.857583 
L 274.184275 230.854404 
L 276.466185 230.846729 
L 278.748095 230.828974 
L 281.030005 230.789626 
L 283.311915 230.706103 
L 285.593825 230.536334 
L 287.875735 230.206016 
L 290.157645 229.591008 
L 292.439555 228.495755 
L 294.721465 226.631041 
L 297.003375 223.597845 
L 299.285285 218.887606 
L 301.567195 211.911444 
L 303.849105 202.069512 
L 306.131015 188.864895 
L 308.412925 172.053604 
L 310.694835 151.805537 
L 312.976745 128.835614 
L 315.258655 104.457034 
L 317.540565 80.515983 
L 319.822475 59.191497 
L 322.104385 42.681221 
L 324.386295 32.832174 
L 326.668205 30.801349 
L 328.950115 36.832186 
L 331.232025 50.20658 
L 333.513935 69.385503 
L 335.795845 92.300197 
L 338.077755 116.717817 
L 340.359665 140.592643 
L 342.641575 162.32838 
L 344.923485 180.910964 
L 347.205395 195.910635 
L 349.487305 207.383793 
L 351.769215 215.72112 
L 354.051125 221.487873 
L 356.333035 225.28989 
L 358.614945 227.681837 
L 360.896855 229.119047 
L 363.178765 229.944361 
L 365.460675 230.397546 
L 367.742585 230.635556 
L 370.024495 230.755007 
L 372.306405 230.8119 
L 374.588315 230.836552 
L 376.870225 230.843536 
L 379.152135 230.837248 
L 381.434045 230.813726 
L 383.715955 230.759002 
L 385.997865 230.643743 
L 388.279775 230.413546 
L 390.561685 229.974256 
L 392.843595 229.172463 
L 395.125505 227.773069 
L 397.407415 225.438743 
L 399.689325 221.719705 
L 401.971235 216.065447 
L 404.253145 207.870891 
L 406.535055 196.565881 
L 408.816965 181.747317 
L 411.098875 163.33824 
L 413.380785 141.741126 
L 415.662695 117.939874 
L 417.944605 93.503676 
L 420.226515 70.461036 
L 422.508425 51.043297 
L 424.790335 37.336346 
L 427.072245 30.913584 
L 429.354155 32.538987 
L 431.636065 42.017657 
L 433.917975 58.234251 
L 436.199885 79.368826 
L 438.481795 103.232382 
L 440.763705 127.636731 
L 443.045615 150.713193 
L 445.327525 171.119259 
L 447.609435 188.110513 
L 449.891345 201.492469 
L 452.173255 211.492182 
L 454.455165 218.597708 
L 456.737075 223.406811 
L 459.018985 226.510936 
L 461.300895 228.423648 
L 463.582805 229.549641 
L 465.864715 230.183325 
L 468.146625 230.524428 
L 470.428535 230.700124 
L 472.710445 230.786753 
L 474.992355 230.827652 
L 477.274265 230.846146 
L 479.556175 230.854158 
L 481.838085 230.857483 
L 484.119995 230.858806 
L 486.401905 230.85931 
L 488.683815 230.859495 
L 490.965725 230.859559 
L 493.247635 230.859581 
L 495.529545 230.859588 
" clip-path="url(#pa7294c7b51)" style="fill: none; stroke: #1f2937; stroke-width: 2; stroke-linecap: square"/>
   </g>
   <g id="line2d_4">
    <path d="M 258.325 197.473999 
L 506.825 197.473999 
" clip-path="url(#pa7294c7b51)" style="fill: none; stroke-dasharray: 5.18,2.24; stroke-dashoffset: 0; stroke: #b7791f; stroke-width: 1.4"/>
   </g>
   <g id="text_2">
    <!-- Double Top -->
    <g style="fill: #1f2937" transform="translate(351.24375 14.798437) scale(0.1 -0.1)">
     <defs>
      <path id="DejaVuSans-Bold-27" d="M 1791 3756 
L 1791 909 
L 2222 909 
Q 2959 909 3348 1275 
Q 3738 1641 3738 2338 
Q 3738 3031 3350 3393 
Q 2963 3756 2222 3756 
L 1791 3756 
z
M 588 4666 
L 1856 4666 
Q 2919 4666 3439 4514 
Q 3959 4363 4331 4000 
Q 4659 3684 4818 3271 
Q 4978 2859 4978 2338 
Q 4978 1809 4818 1395 
Q 4659 981 4331 666 
Q 3956 303 3431 151 
Q 2906 0 1856 0 
L 588 0 
L 588 4666 
z
" transform="scale(0.015625)"/>
      <path id="DejaVuSans-Bold-45" d="M 2400 722 
Q 2759 722 2948 984 
Q 3138 1247 3138 1747 
Q 3138 2247 2948 2509 
Q 2759 2772 2400 2772 
Q 2041 2772 1848 2508 
Q 1656 2244 1656 1747 
Q 1656 1250 1848 986 
Q 2041 722 2400 722 
z
M 1656 2988 
Q 1888 3294 2169 3439 
Q 2450 3584 2816 3584 
Q 3463 3584 3878 3070 
Q 4294 2556 4294 1747 
Q 4294 938 3878 423 
Q 3463 -91 2816 -91 
Q 2450 -91 2169 54 
Q 1888 200 1656 506 
L 1656 0 
L 538 0 
L 538 4863 
L 1656 4863 
L 1656 2988 
z
" transform="scale(0.015625)"/>
      <path id="DejaVuSans-Bold-37" d="M 31 4666 
L 4331 4666 
L 4331 3756 
L 2784 3756 
L 2784 0 
L 1581 0 
L 1581 3756 
L 31 3756 
L 31 4666 
z
" transform="scale(0.015625)"/>
      <path id="DejaVuSans-Bold-53" d="M 1656 506 
L 1656 -1331 
L 538 -1331 
L 538 3500 
L 1656 3500 
L 1656 2988 
Q 1888 3294 2169 3439 
Q 2450 3584 2816 3584 
Q 3463 3584 3878 3070 
Q 4294 2556 4294 1747 
Q 4294 938 3878 423 
Q 3463 -91 2816 -91 
Q 2450 -91 2169 54 
Q 1888 200 1656 506 
z
M 2400 2772 
Q 2041 2772 1848 2508 
Q 1656 2244 1656 1747 
Q 1656 1250 1848 986 
Q 2041 722 2400 722 
Q 2759 722 2948 984 
Q 3138 1247 3138 1747 
Q 3138 2247 2948 2509 
Q 2759 2772 2400 2772 
z
" transform="scale(0.015625)"/>
     </defs>
     <use xlink:href="#DejaVuSans-Bold-27"/>
     <use xlink:href="#DejaVuSans-Bold-52" transform="translate(83.015625 0)"/>
     <use xlink:href="#DejaVuSans-Bold-58" transform="translate(151.71875 0)"/>
     <use xlink:href="#DejaVuSans-Bold-45" transform="translate(222.90625 0)"/>
     <use xlink:href="#DejaVuSans-Bold-4f" transform="translate(294.484375 0)"/>
     <use xlink:href="#DejaVuSans-Bold-48" transform="translate(328.765625 0)"/>
     <use xlink:href="#DejaVuSans-Bold-3" transform="translate(396.59375 0)"/>
     <use xlink:href="#DejaVuSans-Bold-37" transform="translate(431.40625 0)"/>
     <use xlink:href="#DejaVuSans-Bold-52" transform="translate(486.34375 0)"/>
     <use xlink:href="#DejaVuSans-Bold-53" transform="translate(555.046875 0)"/>
    </g>
   </g>
  </g>
  <g id="axes_3">
   <g id="patch_4">
    <path d="M 509.45 240.8625 
L 757.95 240.8625 
L 757.95 20.798437 
L 509.45 20.798437 
z
" style="fill: #ffffff"/>
   </g>
   <g id="matplotlib.axis_5"/>
   <g id="matplotlib.axis_6"/>
   <g id="line2d_5">
    <path d="M 520.745455 30.801349 
L 523.027365 31.941075 
L 525.309275 33.080801 
L 527.591185 34.220527 
L 529.873095 35.360252 
L 532.155005 36.499978 
L 534.436915 37.639704 
L 536.718825 38.779429 
L 539.000735 39.919155 
L 541.282645 41.058881 
L 543.564555 42.198607 
L 545.846465 43.338332 
L 548.128375 44.478058 
L 550.410285 45.617784 
L 552.692195 46.75751 
L 554.974105 47.897235 
L 557.256015 49.036961 
L 559.537925 50.176687 
L 561.819835 51.316412 
L 564.101745 52.456138 
L 566.383655 53.595864 
L 568.665565 54.73559 
L 570.947475 55.875315 
L 573.229385 57.015041 
L 575.511295 58.154767 
L 577.793205 59.294493 
L 580.075115 60.434218 
L 582.357025 61.573944 
L 584.638935 62.71367 
L 586.920845 63.853395 
L 589.202755 64.993121 
L 591.484665 66.132847 
L 593.766575 67.272573 
L 596.048485 68.412298 
L 598.330395 69.552024 
L 600.612305 70.69175 
L 602.894215 71.831475 
L 605.176125 72.971201 
L 607.458035 74.110927 
L 609.739945 75.250653 
L 612.021855 76.390378 
L 614.303765 77.530104 
L 616.585675 78.66983 
L 618.867585 79.809556 
L 621.149495 80.949281 
L 623.431405 82.089007 
L 625.713315 83.228733 
L 627.995225 84.368458 
L 630.277135 85.508184 
L 632.559045 86.64791 
L 634.840955 87.787636 
L 637.122865 88.927361 
L 639.404775 90.067087 
L 641.686685 91.206813 
L 643.968595 92.346538 
L 646.250505 93.486264 
L 648.532415 94.62599 
L 650.814325 95.765716 
L 653.096235 96.905441 
L 655.378145 98.045167 
L 657.660055 99.184893 
L 659.941965 100.324619 
L 662.223875 101.464344 
L 664.505785 102.60407 
L 666.787695 103.743796 
L 669.069605 104.883521 
L 671.351515 106.023247 
L 673.633425 107.162973 
L 675.915335 108.302699 
L 678.197245 109.442424 
L 680.479155 110.58215 
L 682.761065 111.721876 
L 685.042975 112.861601 
L 687.324885 114.001327 
L 689.606795 115.141053 
L 691.888705 116.280779 
L 694.170615 117.420504 
L 696.452525 118.56023 
L 698.734435 119.699956 
L 701.016345 120.839682 
L 703.298255 121.979407 
L 705.580165 123.119133 
L 707.862075 124.258859 
L 710.143985 125.398584 
L 712.425895 126.53831 
L 714.707805 127.678036 
L 716.989715 128.817762 
L 719.271625 129.957487 
L 721.553535 131.097213 
L 723.835445 132.236939 
L 726.117355 133.376665 
L 728.399265 134.51639 
L 730.681175 135.656116 
L 732.963085 136.795842 
L 735.244995 137.935567 
L 737.526905 139.075293 
L 739.808815 140.215019 
L 742.090725 141.354745 
L 744.372635 142.49447 
L 746.654545 143.634196 
" clip-path="url(#p1a1cafdc0b)" style="fill: none; stroke: #1f2937; stroke-width: 2; stroke-linecap: square"/>
   </g>
   <g id="line2d_6">
    <path d="M 520.745455 230.859588 
L 523.027365 230.099771 
L 525.309275 229.339954 
L 527.591185 228.580137 
L 529.873095 227.820319 
L 532.155005 227.060502 
L 534.436915 226.300685 
L 536.718825 225.540868 
L 539.000735 224.781051 
L 541.282645 224.021234 
L 543.564555 223.261417 
L 545.846465 222.501599 
L 548.128375 221.741782 
L 550.410285 220.981965 
L 552.692195 220.222148 
L 554.974105 219.462331 
L 557.256015 218.702514 
L 559.537925 217.942697 
L 561.819835 217.182879 
L 564.101745 216.423062 
L 566.383655 215.663245 
L 568.665565 214.903428 
L 570.947475 214.143611 
L 573.229385 213.383794 
L 575.511295 212.623976 
L 577.793205 211.864159 
L 580.075115 211.104342 
L 582.357025 210.344525 
L 584.638935 209.584708 
L 586.920845 208.824891 
L 589.202755 208.065074 
L 591.484665 207.305256 
L 593.766575 206.545439 
L 596.048485 205.785622 
L 598.330395 205.025805 
L 600.612305 204.265988 
L 602.894215 203.506171 
L 605.176125 202.746354 
L 607.458035 201.986536 
L 609.739945 201.226719 
L 612.021855 200.466902 
L 614.303765 199.707085 
L 616.585675 198.947268 
L 618.867585 198.187451 
L 621.149495 197.427634 
L 623.431405 196.667816 
L 625.713315 195.907999 
L 627.995225 195.148182 
L 630.277135 194.388365 
L 632.559045 193.628548 
L 634.840955 192.868731 
L 637.122865 192.108913 
L 639.404775 191.349096 
L 641.686685 190.589279 
L 643.968595 189.829462 
L 646.250505 189.069645 
L 648.532415 188.309828 
L 650.814325 187.550011 
L 653.096235 186.790193 
L 655.378145 186.030376 
L 657.660055 185.270559 
L 659.941965 184.510742 
L 662.223875 183.750925 
L 664.505785 182.991108 
L 666.787695 182.231291 
L 669.069605 181.471473 
L 671.351515 180.711656 
L 673.633425 179.951839 
L 675.915335 179.192022 
L 678.197245 178.432205 
L 680.479155 177.672388 
L 682.761065 176.912571 
L 685.042975 176.152753 
L 687.324885 175.392936 
L 689.606795 174.633119 
L 691.888705 173.873302 
L 694.170615 173.113485 
L 696.452525 172.353668 
L 698.734435 171.59385 
L 701.016345 170.834033 
L 703.298255 170.074216 
L 705.580165 169.314399 
L 707.862075 168.554582 
L 710.143985 167.794765 
L 712.425895 167.034948 
L 714.707805 166.27513 
L 716.989715 165.515313 
L 719.271625 164.755496 
L 721.553535 163.995679 
L 723.835445 163.235862 
L 726.117355 162.476045 
L 728.399265 161.716228 
L 730.681175 160.95641 
L 732.963085 160.196593 
L 735.244995 159.436776 
L 737.526905 158.676959 
L 739.808815 157.917142 
L 742.090725 157.157325 
L 744.372635 156.397507 
L 746.654545 155.63769 
" clip-path="url(#p1a1cafdc0b)" style="fill: none; stroke: #1f2937; stroke-width: 2; stroke-linecap: square"/>
   </g>
   <g id="line2d_7">
    <path d="M 534.882444 83.757942 
L 571.638616 166.134864 
L 594.2578 107.294205 
L 631.013972 148.482666 
L 653.633155 124.946403 
L 687.56193 142.5986 
" clip-path="url(#p1a1cafdc0b)" style="fill: none; stroke: #b7791f; stroke-width: 1.6; stroke-linecap: square"/>
   </g>
   <g id="text_3">
    <!-- Symmetrical Triangle -->
    <g style="fill: #1f2937" transform="translate(574.00625 14.798437) scale(0.1 -0.1)">
     <defs>
      <path id="DejaVuSans-Bold-5c" d="M 78 3500 
L 1197 3500 
L 2138 1125 
L 2938 3500 
L 4056 3500 
L 2584 -331 
Q 2363 -916 2067 -1148 
Q 1772 -1381 1288 -1381 
L 641 -1381 
L 641 -647 
L 991 -647 
Q 1275 -647 1404 -556 
Q 1534 -466 1606 -231 
L 1638 -134 
L 78 3500 
z
" transform="scale(0.015625)"/>
      <path id="DejaVuSans-Bold-50" d="M 3781 2919 
Q 3994 3244 4286 3414 
Q 4578 3584 4928 3584 
Q 5531 3584 5847 3212 
Q 6163 2841 6163 2131 
L 6163 0 
L 5038 0 
L 5038 1825 
Q 5041 1866 5042 1909 
Q 5044 1953 5044 2034 
Q 5044 2406 4934 2573 
Q 4825 2741 4581 2741 
Q 4263 2741 4089 2478 
Q 3916 2216 3909 1719 
L 3909 0 
L 2784 0 
L 2784 1825 
Q 2784 2406 2684 2573 
Q 2584 2741 2328 2741 
Q 2006 2741 1831 2477 
Q 1656 2213 1656 1722 
L 1656 0 
L 531 0 
L 531 3500 
L 1656 3500 
L 1656 2988 
Q 1863 3284 2130 3434 
Q 2397 3584 2719 3584 
Q 3081 3584 3359 3409 
Q 3638 3234 3781 2919 
z
" transform="scale(0.015625)"/>
      <path id="DejaVuSans-Bold-57" d="M 1759 4494 
L 1759 3500 
L 2913 3500 
L 2913 2700 
L 1759 2700 
L 1759 1216 
Q 1759 972 1856 886 
Q 1953 800 2241 800 
L 2816 800 
L 2816 0 
L 1856 0 
Q 1194 0 917 276 
Q 641 553 641 1216 
L 641 2700 
L 84 2700 
L 84 3500 
L 641 3500 
L 641 4494 
L 1759 4494 
z
" transform="scale(0.015625)"/>
      <path id="DejaVuSans-Bold-4c" d="M 538 3500 
L 1656 3500 
L 1656 0 
L 538 0 
L 538 3500 
z
M 538 4863 
L 1656 4863 
L 1656 3950 
L 538 3950 
L 538 4863 
z
" transform="scale(0.015625)"/>
      <path id="DejaVuSans-Bold-46" d="M 3366 3391 
L 3366 2478 
Q 3138 2634 2908 2709 
Q 2678 2784 2431 2784 
Q 1963 2784 1702 2511 
Q 1441 2238 1441 1747 
Q 1441 1256 1702 982 
Q 1963 709 2431 709 
Q 2694 709 2930 787 
Q 3166 866 3366 1019 
L 3366 103 
Q 3103 6 2833 -42 
Q 2563 -91 2291 -91 
Q 1344 -91 809 395 
Q 275 881 275 1747 
Q 275 2613 809 3098 
Q 1344 3584 2291 3584 
Q 2566 3584 2833 3536 
Q 3100 3488 3366 3391 
z
" transform="scale(0.015625)"/>
      <path id="DejaVuSans-Bold-51" d="M 4056 2131 
L 4056 0 
L 2931 0 
L 2931 347 
L 2931 1631 
Q 2931 2084 2911 2256 
Q 2891 2428 2841 2509 
Q 2775 2619 2662 2680 
Q 2550 2741 2406 2741 
Q 2056 2741 1856 2470 
Q 1656 2200 1656 1722 
L 1656 0 
L 538 0 
L 538 3500 
L 1656 3500 
L 1656 2988 
Q 1909 3294 2193 3439 
Q 2478 3584 2822 3584 
Q 3428 3584 3742 3212 
Q 4056 2841 4056 2131 
z
" transform="scale(0.015625)"/>
      <path id="DejaVuSans-Bold-4a" d="M 2919 594 
Q 2688 288 2409 144 
Q 2131 0 1766 0 
Q 1125 0 706 504 
Q 288 1009 288 1791 
Q 288 2575 706 3076 
Q 1125 3578 1766 3578 
Q 2131 3578 2409 3434 
Q 2688 3291 2919 2981 
L 2919 3500 
L 4044 3500 
L 4044 353 
Q 4044 -491 3511 -936 
Q 2978 -1381 1966 -1381 
Q 1638 -1381 1331 -1331 
Q 1025 -1281 716 -1178 
L 716 -306 
Q 1009 -475 1290 -558 
Q 1572 -641 1856 -641 
Q 2406 -641 2662 -400 
Q 2919 -159 2919 353 
L 2919 594 
z
M 2181 2772 
Q 1834 2772 1640 2515 
Q 1447 2259 1447 1791 
Q 1447 1309 1634 1061 
Q 1822 813 2181 813 
Q 2531 813 2725 1069 
Q 2919 1325 2919 1791 
Q 2919 2259 2725 2515 
Q 2531 2772 2181 2772 
z
" transform="scale(0.015625)"/>
     </defs>
     <use xlink:href="#DejaVuSans-Bold-36"/>
     <use xlink:href="#DejaVuSans-Bold-5c" transform="translate(72.015625 0)"/>
     <use xlink:href="#DejaVuSans-Bold-50" transform="translate(137.203125 0)"/>
     <use xlink:href="#DejaVuSans-Bold-50" transform="translate(241.40625 0)"/>
     <use xlink:href="#DejaVuSans-Bold-48" transform="translate(345.609375 0)"/>
     <use xlink:href="#DejaVuSans-Bold-57" transform="translate(413.4375 0)"/>
     <use xlink:href="#DejaVuSans-Bold-55" transform="translate(461.234375 0)"/>
     <use xlink:href="#DejaVuSans-Bold-4c" transform="translate(510.546875 0)"/>
     <use xlink:href="#DejaVuSans-Bold-46" transform="translate(544.828125 0)"/>
     <use xlink:href="#DejaVuSans-Bold-44" transform="translate(604.109375 0)"/>
     <use xlink:href="#DejaVuSans-Bold-4f" transform="translate(671.59375 0)"/>
     <use xlink:href="#DejaVuSans-Bold-3" transform="translate(705.875 0)"/>
     <use xlink:href="#DejaVuSans-Bold-37" transform="translate(740.6875 0)"/>
     <use xlink:href="#DejaVuSans-Bold-55" transform="translate(797.921875 0)"/>
     <use xlink:href="#DejaVuSans-Bold-4c" transform="translate(847.234375 0)"/>
     <use xlink:href="#DejaVuSans-Bold-44" transform="translate(881.515625 0)"/>
     <use xlink:href="#DejaVuSans-Bold-51" transform="translate(949 0)"/>
     <use xlink:href="#DejaVuSans-Bold-4a" transform="translate(1020.1875 0)"/>
     <use xlink:href="#DejaVuSans-Bold-4f" transform="translate(1091.765625 0)"/>
     <use xlink:href="#DejaVuSans-Bold-48" transform="translate(1126.046875 0)"/>
    </g>
   </g>
  </g>
  <g id="axes_4">
   <g id="patch_5">
    <path d="M 7.2 477.15 
L 255.7 477.15 
L 255.7 257.085937 
L 7.2 257.085937 
z
" style="fill: #ffffff"/>
   </g>
   <g id="matplotlib.axis_7"/>
   <g id="matplotlib.axis_8"/>
   <g id="line2d_8">
    <path d="M 18.495455 417.132528 
L 20.777365 415.616936 
L 23.059275 414.101343 
L 25.341185 412.58575 
L 27.623095 411.070158 
L 29.905005 409.554565 
L 32.186915 408.038972 
L 34.468825 406.523379 
L 36.750735 405.007787 
L 39.032645 403.492194 
L 41.314555 401.976601 
L 43.596465 400.461009 
L 45.878375 398.945416 
L 48.160285 397.429823 
L 50.442195 395.91423 
L 52.724105 394.398638 
L 55.006015 392.883045 
L 57.287925 391.367452 
L 59.569835 389.85186 
L 61.851745 388.336267 
L 64.133655 386.820674 
L 66.415565 385.305081 
L 68.697475 383.789489 
L 70.979385 382.273896 
L 73.261295 380.758303 
L 75.543205 379.24271 
L 77.825115 377.727118 
L 80.107025 376.211525 
L 82.388935 374.695932 
L 84.670845 373.18034 
L 86.952755 371.664747 
L 89.234665 370.149154 
L 91.516575 368.633561 
L 93.798485 367.117969 
L 96.080395 365.602376 
L 98.362305 364.086783 
L 100.644215 362.571191 
L 102.926125 361.055598 
L 105.208035 359.540005 
L 107.489945 358.024412 
L 109.771855 356.50882 
L 112.053765 354.993227 
L 114.335675 353.477634 
L 116.617585 351.962042 
L 118.899495 350.446449 
L 121.181405 348.930856 
L 123.463315 347.415263 
L 125.745225 345.899671 
L 128.027135 344.384078 
L 130.309045 342.868485 
L 132.590955 341.352893 
L 134.872865 339.8373 
L 137.154775 338.321707 
L 139.436685 336.806114 
L 141.718595 335.290522 
L 144.000505 333.774929 
L 146.282415 332.259336 
L 148.564325 330.743744 
L 150.846235 329.228151 
L 153.128145 327.712558 
L 155.410055 326.196965 
L 157.691965 324.681373 
L 159.973875 323.16578 
L 162.255785 321.650187 
L 164.537695 320.134595 
L 166.819605 318.619002 
L 169.101515 317.103409 
L 171.383425 315.587816 
L 173.665335 314.072224 
L 175.947245 312.556631 
L 178.229155 311.041038 
L 180.511065 309.525446 
L 182.792975 308.009853 
L 185.074885 306.49426 
L 187.356795 304.978667 
L 189.638705 303.463075 
L 191.920615 301.947482 
L 194.202525 300.431889 
L 196.484435 298.916296 
L 198.766345 297.400704 
L 201.048255 295.885111 
L 203.330165 294.369518 
L 205.612075 292.853926 
L 207.893985 291.338333 
L 210.175895 289.82274 
L 212.457805 288.307147 
L 214.739715 286.791555 
L 217.021625 285.275962 
L 219.303535 283.760369 
L 221.585445 282.244777 
L 223.867355 280.729184 
L 226.149265 279.213591 
L 228.431175 277.697998 
L 230.713085 276.182406 
L 232.994995 274.666813 
L 235.276905 273.15122 
L 237.558815 271.635628 
L 239.840725 270.120035 
L 242.122635 268.604442 
L 244.404545 267.088849 
" clip-path="url(#pb96c5f779b)" style="fill: none; stroke: #1f2937; stroke-width: 2; stroke-linecap: square"/>
   </g>
   <g id="line2d_9">
    <path d="M 18.495455 467.147088 
L 20.777365 465.294697 
L 23.059275 463.442306 
L 25.341185 461.589915 
L 27.623095 459.737524 
L 29.905005 457.885133 
L 32.186915 456.032741 
L 34.468825 454.18035 
L 36.750735 452.327959 
L 39.032645 450.475568 
L 41.314555 448.623177 
L 43.596465 446.770786 
L 45.878375 444.918395 
L 48.160285 443.066004 
L 50.442195 441.213613 
L 52.724105 439.361222 
L 55.006015 437.50883 
L 57.287925 435.656439 
L 59.569835 433.804048 
L 61.851745 431.951657 
L 64.133655 430.099266 
L 66.415565 428.246875 
L 68.697475 426.394484 
L 70.979385 424.542093 
L 73.261295 422.689702 
L 75.543205 420.837311 
L 77.825115 418.98492 
L 80.107025 417.132528 
L 82.388935 415.280137 
L 84.670845 413.427746 
L 86.952755 411.575355 
L 89.234665 409.722964 
L 91.516575 407.870573 
L 93.798485 406.018182 
L 96.080395 404.165791 
L 98.362305 402.3134 
L 100.644215 400.461009 
L 102.926125 398.608617 
L 105.208035 396.756226 
L 107.489945 394.903835 
L 109.771855 393.051444 
L 112.053765 391.199053 
L 114.335675 389.346662 
L 116.617585 387.494271 
L 118.899495 385.64188 
L 121.181405 383.789489 
L 123.463315 381.937098 
L 125.745225 380.084706 
L 128.027135 378.232315 
L 130.309045 376.379924 
L 132.590955 374.527533 
L 134.872865 372.675142 
L 137.154775 370.822751 
L 139.436685 368.97036 
L 141.718595 367.117969 
L 144.000505 365.265578 
L 146.282415 363.413187 
L 148.564325 361.560795 
L 150.846235 359.708404 
L 153.128145 357.856013 
L 155.410055 356.003622 
L 157.691965 354.151231 
L 159.973875 352.29884 
L 162.255785 350.446449 
L 164.537695 348.594058 
L 166.819605 346.741667 
L 169.101515 344.889276 
L 171.383425 343.036884 
L 173.665335 341.184493 
L 175.947245 339.332102 
L 178.229155 337.479711 
L 180.511065 335.62732 
L 182.792975 333.774929 
L 185.074885 331.922538 
L 187.356795 330.070147 
L 189.638705 328.217756 
L 191.920615 326.365365 
L 194.202525 324.512973 
L 196.484435 322.660582 
L 198.766345 320.808191 
L 201.048255 318.9558 
L 203.330165 317.103409 
L 205.612075 315.251018 
L 207.893985 313.398627 
L 210.175895 311.546236 
L 212.457805 309.693845 
L 214.739715 307.841454 
L 217.021625 305.989062 
L 219.303535 304.136671 
L 221.585445 302.28428 
L 223.867355 300.431889 
L 226.149265 298.579498 
L 228.431175 296.727107 
L 230.713085 294.874716 
L 232.994995 293.022325 
L 235.276905 291.169934 
L 237.558815 289.317543 
L 239.840725 287.465152 
L 242.122635 285.61276 
L 244.404545 283.760369 
" clip-path="url(#pb96c5f779b)" style="fill: none; stroke: #1f2937; stroke-width: 2; stroke-linecap: square"/>
   </g>
   <g id="text_4">
    <!-- Rising Wedge -->
    <g style="fill: #1f2937" transform="translate(93.039844 251.085937) scale(0.1 -0.1)">
     <defs>
      <path id="DejaVuSans-Bold-35" d="M 2297 2597 
Q 2675 2597 2839 2737 
Q 3003 2878 3003 3200 
Q 3003 3519 2839 3656 
Q 2675 3794 2297 3794 
L 1791 3794 
L 1791 2597 
L 2297 2597 
z
M 1791 1766 
L 1791 0 
L 588 0 
L 588 4666 
L 2425 4666 
Q 3347 4666 3776 4356 
Q 4206 4047 4206 3378 
Q 4206 2916 3982 2619 
Q 3759 2322 3309 2181 
Q 3556 2125 3751 1926 
Q 3947 1728 4147 1325 
L 4800 0 
L 3519 0 
L 2950 1159 
Q 2778 1509 2601 1637 
Q 2425 1766 2131 1766 
L 1791 1766 
z
" transform="scale(0.015625)"/>
      <path id="DejaVuSans-Bold-3a" d="M 191 4666 
L 1344 4666 
L 2150 1275 
L 2950 4666 
L 4109 4666 
L 4909 1275 
L 5716 4666 
L 6859 4666 
L 5759 0 
L 4372 0 
L 3525 3547 
L 2688 0 
L 1300 0 
L 191 4666 
z
" transform="scale(0.015625)"/>
     </defs>
     <use xlink:href="#DejaVuSans-Bold-35"/>
     <use xlink:href="#DejaVuSans-Bold-4c" transform="translate(77 0)"/>
     <use xlink:href="#DejaVuSans-Bold-56" transform="translate(111.28125 0)"/>
     <use xlink:href="#DejaVuSans-Bold-4c" transform="translate(170.796875 0)"/>
     <use xlink:href="#DejaVuSans-Bold-51" transform="translate(205.078125 0)"/>
     <use xlink:href="#DejaVuSans-Bold-4a" transform="translate(276.265625 0)"/>
     <use xlink:href="#DejaVuSans-Bold-3" transform="translate(347.84375 0)"/>
     <use xlink:href="#DejaVuSans-Bold-3a" transform="translate(382.65625 0)"/>
     <use xlink:href="#DejaVuSans-Bold-48" transform="translate(489.390625 0)"/>
     <use xlink:href="#DejaVuSans-Bold-47" transform="translate(557.21875 0)"/>
     <use xlink:href="#DejaVuSans-Bold-4a" transform="translate(628.796875 0)"/>
     <use xlink:href="#DejaVuSans-Bold-48" transform="translate(700.375 0)"/>
    </g>
   </g>
  </g>
  <g id="axes_5">
   <g id="patch_6">
    <path d="M 258.325 477.15 
L 506.825 477.15 
L 506.825 257.085937 
L 258.325 257.085937 
z
" style="fill: #ffffff"/>
   </g>
   <g id="matplotlib.axis_9"/>
   <g id="matplotlib.axis_10"/>
   <g id="line2d_10">
    <path d="M 269.620455 467.147088 
L 271.937471 463.864023 
L 274.254487 460.580959 
L 276.571503 457.297894 
L 278.88852 454.01483 
L 281.205536 450.731765 
L 283.522552 447.4487 
L 285.839569 444.165636 
L 288.156585 440.882571 
L 290.473601 437.599507 
L 292.790618 434.316442 
L 295.107634 431.033377 
L 297.42465 427.750313 
L 299.741667 424.467248 
L 302.058683 421.184183 
L 304.375699 417.901119 
L 306.692716 414.618054 
L 309.009732 411.33499 
L 311.326748 408.051925 
L 313.643765 404.76886 
L 315.960781 401.485796 
L 318.277797 398.202731 
L 320.594814 394.919667 
L 322.91183 391.636602 
L 325.228846 388.353537 
L 327.545862 385.070473 
L 329.862879 381.787408 
L 332.179895 378.504343 
L 334.496911 375.221279 
L 336.813928 371.938214 
L 339.130944 368.65515 
L 341.44796 365.372085 
L 343.764977 362.08902 
L 346.081993 358.805956 
L 348.399009 355.522891 
L 350.716026 352.239827 
L 353.033042 348.956762 
L 355.350058 345.673697 
L 357.667075 342.390633 
L 359.984091 339.107568 
" clip-path="url(#p383f525164)" style="fill: none; stroke: #1f2937; stroke-width: 2; stroke-linecap: square"/>
   </g>
   <g id="line2d_11">
    <path d="M 359.984091 339.107568 
L 362.321082 337.590926 
L 364.658072 336.845941 
L 366.995063 337.356407 
L 369.332053 339.137779 
L 371.669044 341.731407 
L 374.006034 344.375632 
L 376.343025 346.289921 
L 378.680016 346.96604 
L 381.017006 346.357647 
L 383.353997 344.897582 
L 385.690987 343.336396 
L 388.027978 342.462363 
L 390.364969 342.807418 
L 392.701959 344.448721 
L 395.03895 346.979874 
L 397.37594 349.662525 
L 399.712931 351.701806 
L 402.049922 352.542855 
L 404.386912 352.077804 
L 406.723903 350.68602 
L 409.060893 349.092582 
L 411.397884 348.097795 
L 413.734875 348.278642 
L 416.071865 349.773538 
L 418.408856 352.230703 
L 420.745846 354.939385 
L 423.082837 357.095006 
L 425.419828 358.099302 
L 427.756818 357.783509 
" clip-path="url(#p383f525164)" style="fill: none; stroke: #b7791f; stroke-width: 2; stroke-linecap: square"/>
   </g>
   <g id="line2d_12">
    <path d="M 427.756818 357.783509 
L 430.093809 354.656107 
L 432.430799 351.528705 
L 434.76779 348.401303 
L 437.104781 345.273901 
L 439.441771 342.146499 
L 441.778762 339.019097 
L 444.115752 335.891695 
L 446.452743 332.764293 
L 448.789734 329.636891 
L 451.126724 326.509489 
L 453.463715 323.382087 
L 455.800705 320.254685 
L 458.137696 317.127283 
L 460.474687 313.99988 
L 462.811677 310.872478 
L 465.148668 307.745076 
L 467.485658 304.617674 
L 469.822649 301.490272 
L 472.159639 298.36287 
L 474.49663 295.235468 
L 476.833621 292.108066 
L 479.170611 288.980664 
L 481.507602 285.853262 
L 483.844592 282.72586 
L 486.181583 279.598458 
L 488.518574 276.471056 
L 490.855564 273.343654 
L 493.192555 270.216251 
L 495.529545 267.088849 
" clip-path="url(#p383f525164)" style="fill: none; stroke: #1f2937; stroke-width: 2; stroke-linecap: square"/>
   </g>
   <g id="text_5">
    <!-- Bull Flag -->
    <g style="fill: #1f2937" transform="translate(357.953125 251.085937) scale(0.1 -0.1)">
     <defs>
      <path id="DejaVuSans-Bold-25" d="M 2456 2859 
Q 2741 2859 2887 2984 
Q 3034 3109 3034 3353 
Q 3034 3594 2887 3720 
Q 2741 3847 2456 3847 
L 1791 3847 
L 1791 2859 
L 2456 2859 
z
M 2497 819 
Q 2859 819 3042 972 
Q 3225 1125 3225 1434 
Q 3225 1738 3044 1889 
Q 2863 2041 2497 2041 
L 1791 2041 
L 1791 819 
L 2497 819 
z
M 3616 2497 
Q 4003 2384 4215 2081 
Q 4428 1778 4428 1338 
Q 4428 663 3972 331 
Q 3516 0 2584 0 
L 588 0 
L 588 4666 
L 2394 4666 
Q 3366 4666 3802 4372 
Q 4238 4078 4238 3431 
Q 4238 3091 4078 2852 
Q 3919 2613 3616 2497 
z
" transform="scale(0.015625)"/>
      <path id="DejaVuSans-Bold-29" d="M 588 4666 
L 3834 4666 
L 3834 3756 
L 1791 3756 
L 1791 2888 
L 3713 2888 
L 3713 1978 
L 1791 1978 
L 1791 0 
L 588 0 
L 588 4666 
z
" transform="scale(0.015625)"/>
     </defs>
     <use xlink:href="#DejaVuSans-Bold-25"/>
     <use xlink:href="#DejaVuSans-Bold-58" transform="translate(76.21875 0)"/>
     <use xlink:href="#DejaVuSans-Bold-4f" transform="translate(147.40625 0)"/>
     <use xlink:href="#DejaVuSans-Bold-4f" transform="translate(181.6875 0)"/>
     <use xlink:href="#DejaVuSans-Bold-3" transform="translate(215.96875 0)"/>
     <use xlink:href="#DejaVuSans-Bold-29" transform="translate(250.78125 0)"/>
     <use xlink:href="#DejaVuSans-Bold-4f" transform="translate(319.09375 0)"/>
     <use xlink:href="#DejaVuSans-Bold-44" transform="translate(353.375 0)"/>
     <use xlink:href="#DejaVuSans-Bold-4a" transform="translate(420.859375 0)"/>
    </g>
   </g>
  </g>
  <g id="axes_6">
   <g id="patch_7">
    <path d="M 509.45 477.15 
L 757.95 477.15 
L 757.95 257.085937 
L 509.45 257.085937 
z
" style="fill: #ffffff"/>
   </g>
   <g id="matplotlib.axis_11"/>
   <g id="matplotlib.axis_12"/>
   <g id="line2d_13">
    <path d="M 520.745455 367.164456 
L 523.027365 345.105457 
L 525.309275 324.131315 
L 527.591185 305.273535 
L 529.873095 289.459541 
L 532.155005 277.467061 
L 534.436915 269.885883 
L 536.718825 267.088849 
L 539.000735 269.213517 
L 541.282645 276.155395 
L 543.564555 287.573083 
L 545.846465 302.905061 
L 548.128375 321.397305 
L 550.410285 342.14037 
L 552.692195 364.114116 
L 554.974105 386.237876 
L 557.256015 407.423609 
L 559.537925 426.629404 
L 561.819835 442.910723 
L 564.101745 455.466853 
L 566.383655 463.680287 
L 568.665565 467.147088 
L 570.947475 465.696761 
L 573.229385 459.400632 
L 575.511295 448.568343 
L 577.793205 433.732625 
L 580.075115 415.623097 
L 582.357025 395.13038 
L 584.638935 373.262304 
L 586.920845 351.094337 
L 589.202755 329.716696 
L 591.484665 310.180729 
L 593.766575 293.447212 
L 596.048485 280.339097 
L 598.330395 271.501038 
L 600.612305 267.36769 
L 602.894215 268.142329 
L 605.176125 273.78686 
L 607.458035 284.023685 
L 609.739945 298.349359 
L 612.021855 316.059348 
L 614.303765 336.282677 
L 616.585675 358.024767 
L 618.867585 380.216346 
L 621.149495 401.766034 
L 623.431405 421.614023 
L 625.713315 438.784192 
L 627.995225 452.432114 
L 630.277135 461.886587 
L 632.559045 466.682642 
L 634.840955 466.58441 
L 637.122865 461.596722 
L 639.404775 451.96487 
L 641.686685 438.162549 
L 643.968595 420.868554 
L 646.250505 400.933401 
L 648.532415 379.337496 
L 650.814325 357.142924 
L 653.096235 335.441208 
L 655.378145 315.299637 
L 657.660055 297.708769 
L 659.941965 283.533719 
L 662.223875 273.471615 
L 664.505785 268.017309 
L 666.787695 267.439043 
L 669.069605 271.765255 
L 671.351515 280.783184 
L 673.633425 294.049329 
L 675.915335 310.911264 
L 678.197245 330.539721 
L 680.479155 351.969376 
L 682.761065 374.146323 
L 685.042975 395.979902 
L 687.324885 416.396343 
L 689.606795 434.391568 
L 691.888705 449.080576 
L 694.170615 459.740962 
L 696.452525 465.848452 
L 698.734435 467.10268 
L 701.016345 463.441963 
L 703.298255 455.046335 
L 705.580165 442.328691 
L 707.862075 425.914482 
L 710.143985 406.610958 
L 712.425895 385.367461 
L 714.707805 363.228744 
L 716.989715 341.283584 
L 719.271625 320.611241 
L 721.553535 302.228378 
L 723.835445 287.039059 
L 726.117355 275.790294 
L 728.399265 269.035295 
L 730.681175 267.106271 
L 732.963085 270.098092 
L 735.244995 277.863619 
L 737.526905 290.020947 
L 739.808815 305.97218 
L 742.090725 324.932838 
L 744.372635 345.97044 
L 746.654545 368.05036 
" clip-path="url(#pf7b46ac7b2)" style="fill: none; stroke: #1f2937; stroke-width: 2; stroke-linecap: square"/>
   </g>
   <g id="line2d_14">
    <path d="M 509.45 279.588129 
L 757.95 279.588129 
" clip-path="url(#pf7b46ac7b2)" style="fill: none; stroke-dasharray: 4.44,1.92; stroke-dashoffset: 0; stroke: #b7791f; stroke-width: 1.2"/>
   </g>
   <g id="line2d_15">
    <path d="M 509.45 454.740784 
L 757.95 454.740784 
" clip-path="url(#pf7b46ac7b2)" style="fill: none; stroke-dasharray: 4.44,1.92; stroke-dashoffset: 0; stroke: #b7791f; stroke-width: 1.2"/>
   </g>
   <g id="text_6">
    <!-- Rectangle -->
    <g style="fill: #1f2937" transform="translate(605.486719 251.085937) scale(0.1 -0.1)">
     <use xlink:href="#DejaVuSans-Bold-35"/>
     <use xlink:href="#DejaVuSans-Bold-48" transform="translate(77 0)"/>
     <use xlink:href="#DejaVuSans-Bold-46" transform="translate(144.828125 0)"/>
     <use xlink:href="#DejaVuSans-Bold-57" transform="translate(204.109375 0)"/>
     <use xlink:href="#DejaVuSans-Bold-44" transform="translate(251.90625 0)"/>
     <use xlink:href="#DejaVuSans-Bold-51" transform="translate(319.390625 0)"/>
     <use xlink:href="#DejaVuSans-Bold-4a" transform="translate(390.578125 0)"/>
     <use xlink:href="#DejaVuSans-Bold-4f" transform="translate(462.15625 0)"/>
     <use xlink:href="#DejaVuSans-Bold-48" transform="translate(496.4375 0)"/>
    </g>
   </g>
  </g>
 </g>
 <defs>
  <clipPath id="p89b9b4b8d3">
   <rect x="7.2" y="20.798437" width="248.5" height="220.064062"/>
  </clipPath>
  <clipPath id="pa7294c7b51">
   <rect x="258.325" y="20.798437" width="248.5" height="220.064062"/>
  </clipPath>
  <clipPath id="p1a1cafdc0b">
   <rect x="509.45" y="20.798437" width="248.5" height="220.064062"/>
  </clipPath>
  <clipPath id="pb96c5f779b">
   <rect x="7.2" y="257.085937" width="248.5" height="220.064063"/>
  </clipPath>
  <clipPath id="p383f525164">
   <rect x="258.325" y="257.085937" width="248.5" height="220.064063"/>
  </clipPath>
  <clipPath id="pf7b46ac7b2">
   <rect x="509.45" y="257.085937" width="248.5" height="220.064063"/>
  </clipPath>
 </defs>
</svg>
