<?xml version="1.0" encoding="utf-8" standalone="no"?>
<!DOCTYPE svg PUBLIC "-//W3C//DTD SVG 1.1//EN"
  "http://www.w3.org/Graphics/SVG/1.1/DTD/svg11.dtd">
<svg xmlns:xlink="http://www.w3.org/1999/xlink" width="626.964004pt" height="340.35pt" viewBox="0 0 626.964004 340.35" xmlns="http://www.w3.org/2000/svg" version="1.1">
 <metadata>
  <rdf:RDF xmlns:dc="http://purl.org/dc/elements/1.1/" xmlns:cc="http://creativecommons.org/ns#" xmlns:rdf="http://www.w3.org/1999/02/22-rdf-syntax-ns#">
   <cc:Work>
    <dc:type rdf:resource="http://purl.org/dc/dcmitype/StillImage"/>
    <dc:date>2026-07-19T04:34:13.128855</dc:date>
    <dc:format>image/svg+xml</dc:format>
    <dc:creator>
     <cc:Agent>
      <dc:title>Matplotlib v3.11.1, https://matplotlib.org/</dc:title>
     </cc:Agent>
    </dc:creator>
   </cc:Work>
  </rdf:RDF>
 </metadata>
 <defs>
  <style type="text/css">*{stroke-linejoin: round; stroke-linecap: butt}</style>
 </defs>
 <g id="figure_1">
  <g id="patch_1">
   <path d="M 0 340.35 
L 626.964004 340.35 
L 626.964004 0 
L 0 0 
z
" style="fill: #ffffff"/>
  </g>
  <g id="axes_1">
   <g id="patch_2">
    <path d="M 58.704212 333.15 
L 619.764004 333.15 
L 619.764004 25.933 
L 58.704212 25.933 
z
" style="fill: #ffffff"/>
   </g>
   <g id="matplotlib.axis_1"/>
   <g id="matplotlib.axis_2"/>
   <g id="line2d_1">
    <path d="M 72.388597 82.900562 
L 606.079618 82.900562 
" clip-path="url(#p42be58b0d9)" style="fill: none; stroke-dasharray: 7.4,3.2; stroke-dashoffset: 0; stroke: #b91c1c; stroke-width: 2"/>
   </g>
   <g id="line2d_2">
    <path d="M 72.388597 303.419323 
L 606.079618 84.712658 
" clip-path="url(#p42be58b0d9)" style="fill: none; stroke: #1f8a56; stroke-width: 2; stroke-linecap: square"/>
   </g>
   <g id="patch_3">
    <path d="M 58.704212 333.15 
L 58.704212 25.933 
" style="fill: none; stroke: #1f2937; stroke-width: 0.8; stroke-linejoin: miter; stroke-linecap: square"/>
   </g>
   <g id="patch_4">
    <path d="M 58.704212 333.15 
L 619.764004 333.15 
" style="fill: none; stroke: #1f2937; stroke-width: 0.8; stroke-linejoin: miter; stroke-linecap: square"/>
   </g>
   <g id="line2d_3">
    <path d="M 72.388597 301.472776 
L 72.388597 296.113616 
" clip-path="url(#p42be58b0d9)" style="fill: none; stroke: #1f8a56; stroke-width: 1.1; stroke-linecap: round"/>
   </g>
   <g id="line2d_4">
    <path d="M 86.072982 290.934382 
L 86.072982 271.722108 
" clip-path="url(#p42be58b0d9)" style="fill: none; stroke: #1f8a56; stroke-width: 1.1; stroke-linecap: round"/>
   </g>
   <g id="line2d_5">
    <path d="M 99.757367 292.318011 
L 99.757367 254.247346 
" clip-path="url(#p42be58b0d9)" style="fill: none; stroke: #1f8a56; stroke-width: 1.1; stroke-linecap: round"/>
   </g>
   <g id="line2d_6">
    <path d="M 113.441752 267.994731 
L 113.441752 214.032887 
" clip-path="url(#p42be58b0d9)" style="fill: none; stroke: #1f8a56; stroke-width: 1.1; stroke-linecap: round"/>
   </g>
   <g id="line2d_7">
    <path d="M 127.126137 223.328358 
L 127.126137 196.285494 
" clip-path="url(#p42be58b0d9)" style="fill: none; stroke: #1f8a56; stroke-width: 1.1; stroke-linecap: round"/>
   </g>
   <g id="line2d_8">
    <path d="M 140.810523 227.865751 
L 140.810523 162.348414 
" clip-path="url(#p42be58b0d9)" style="fill: none; stroke: #1f8a56; stroke-width: 1.1; stroke-linecap: round"/>
   </g>
   <g id="line2d_9">
    <path d="M 154.494908 174.090339 
L 154.494908 154.981759 
" clip-path="url(#p42be58b0d9)" style="fill: none; stroke: #1f8a56; stroke-width: 1.1; stroke-linecap: round"/>
   </g>
   <g id="line2d_10">
    <path d="M 168.179293 168.969737 
L 168.179293 154.365686 
" clip-path="url(#p42be58b0d9)" style="fill: none; stroke: #1f8a56; stroke-width: 1.1; stroke-linecap: round"/>
   </g>
   <g id="line2d_11">
    <path d="M 181.863678 296.307742 
L 181.863678 161.071393 
" clip-path="url(#p42be58b0d9)" style="fill: none; stroke: #b91c1c; stroke-width: 1.1; stroke-linecap: round"/>
   </g>
   <g id="line2d_12">
    <path d="M 195.548063 303.419323 
L 195.548063 252.03319 
" clip-path="url(#p42be58b0d9)" style="fill: none; stroke: #1f8a56; stroke-width: 1.1; stroke-linecap: round"/>
   </g>
   <g id="line2d_13">
    <path d="M 209.232448 274.932031 
L 209.232448 224.216891 
" clip-path="url(#p42be58b0d9)" style="fill: none; stroke: #1f8a56; stroke-width: 1.1; stroke-linecap: round"/>
   </g>
   <g id="line2d_14">
    <path d="M 222.916834 225.164297 
L 222.916834 198.688037 
" clip-path="url(#p42be58b0d9)" style="fill: none; stroke: #1f8a56; stroke-width: 1.1; stroke-linecap: round"/>
   </g>
   <g id="line2d_15">
    <path d="M 236.601219 208.272041 
L 236.601219 177.814243 
" clip-path="url(#p42be58b0d9)" style="fill: none; stroke: #1f8a56; stroke-width: 1.1; stroke-linecap: round"/>
   </g>
   <g id="line2d_16">
    <path d="M 250.285604 178.75785 
L 250.285604 143.113964 
" clip-path="url(#p42be58b0d9)" style="fill: none; stroke: #1f8a56; stroke-width: 1.1; stroke-linecap: round"/>
   </g>
   <g id="line2d_17">
    <path d="M 263.969989 142.607301 
L 263.969989 136.855546 
" clip-path="url(#p42be58b0d9)" style="fill: none; stroke: #b91c1c; stroke-width: 1.1; stroke-linecap: round"/>
   </g>
   <g id="line2d_18">
    <path d="M 277.654374 146.307408 
L 277.654374 137.087717 
" clip-path="url(#p42be58b0d9)" style="fill: none; stroke: #1f8a56; stroke-width: 1.1; stroke-linecap: round"/>
   </g>
   <g id="line2d_19">
    <path d="M 291.33876 273.506942 
L 291.33876 140.178045 
" clip-path="url(#p42be58b0d9)" style="fill: none; stroke: #b91c1c; stroke-width: 1.1; stroke-linecap: round"/>
   </g>
   <g id="line2d_20">
    <path d="M 305.023145 266.808627 
L 305.023145 233.003006 
" clip-path="url(#p42be58b0d9)" style="fill: none; stroke: #1f8a56; stroke-width: 1.1; stroke-linecap: round"/>
   </g>
   <g id="line2d_21">
    <path d="M 318.70753 240.489762 
L 318.70753 205.049961 
" clip-path="url(#p42be58b0d9)" style="fill: none; stroke: #1f8a56; stroke-width: 1.1; stroke-linecap: round"/>
   </g>
   <g id="line2d_22">
    <path d="M 332.391915 201.84511 
L 332.391915 177.086366 
" clip-path="url(#p42be58b0d9)" style="fill: none; stroke: #1f8a56; stroke-width: 1.1; stroke-linecap: round"/>
   </g>
   <g id="line2d_23">
    <path d="M 346.0763 178.163853 
L 346.0763 153.050112 
" clip-path="url(#p42be58b0d9)" style="fill: none; stroke: #1f8a56; stroke-width: 1.1; stroke-linecap: round"/>
   </g>
   <g id="line2d_24">
    <path d="M 359.760685 157.500654 
L 359.760685 125.77185 
" clip-path="url(#p42be58b0d9)" style="fill: none; stroke: #1f8a56; stroke-width: 1.1; stroke-linecap: round"/>
   </g>
   <g id="line2d_25">
    <path d="M 373.445071 127.083091 
L 373.445071 113.880669 
" clip-path="url(#p42be58b0d9)" style="fill: none; stroke: #b91c1c; stroke-width: 1.1; stroke-linecap: round"/>
   </g>
   <g id="line2d_26">
    <path d="M 387.129456 140.285382 
L 387.129456 120.125173 
" clip-path="url(#p42be58b0d9)" style="fill: none; stroke: #1f8a56; stroke-width: 1.1; stroke-linecap: round"/>
   </g>
   <g id="line2d_27">
    <path d="M 400.813841 257.594939 
L 400.813841 113.610305 
" clip-path="url(#p42be58b0d9)" style="fill: none; stroke: #b91c1c; stroke-width: 1.1; stroke-linecap: round"/>
   </g>
   <g id="line2d_28">
    <path d="M 414.498226 249.369769 
L 414.498226 218.665057 
" clip-path="url(#p42be58b0d9)" style="fill: none; stroke: #1f8a56; stroke-width: 1.1; stroke-linecap: round"/>
   </g>
   <g id="line2d_29">
    <path d="M 428.182611 226.145072 
L 428.182611 211.767455 
" clip-path="url(#p42be58b0d9)" style="fill: none; stroke: #1f8a56; stroke-width: 1.1; stroke-linecap: round"/>
   </g>
   <g id="line2d_30">
    <path d="M 441.866996 217.155484 
L 441.866996 165.041841 
" clip-path="url(#p42be58b0d9)" style="fill: none; stroke: #1f8a56; stroke-width: 1.1; stroke-linecap: round"/>
   </g>
   <g id="line2d_31">
    <path d="M 455.551382 178.223608 
L 455.551382 139.861798 
" clip-path="url(#p42be58b0d9)" style="fill: none; stroke: #1f8a56; stroke-width: 1.1; stroke-linecap: round"/>
   </g>
   <g id="line2d_32">
    <path d="M 469.235767 152.845131 
L 469.235767 116.501204 
" clip-path="url(#p42be58b0d9)" style="fill: none; stroke: #1f8a56; stroke-width: 1.1; stroke-linecap: round"/>
   </g>
   <g id="line2d_33">
    <path d="M 482.920152 114.630416 
L 482.920152 101.831843 
" clip-path="url(#p42be58b0d9)" style="fill: none; stroke: #1f8a56; stroke-width: 1.1; stroke-linecap: round"/>
   </g>
   <g id="line2d_34">
    <path d="M 496.604537 111.504532 
L 496.604537 100.826506 
" clip-path="url(#p42be58b0d9)" style="fill: none; stroke: #1f8a56; stroke-width: 1.1; stroke-linecap: round"/>
   </g>
   <g id="line2d_35">
    <path d="M 510.288922 243.307134 
L 510.288922 96.606794 
" clip-path="url(#p42be58b0d9)" style="fill: none; stroke: #b91c1c; stroke-width: 1.1; stroke-linecap: round"/>
   </g>
   <g id="line2d_36">
    <path d="M 523.973307 249.535959 
L 523.973307 211.18979 
" clip-path="url(#p42be58b0d9)" style="fill: none; stroke: #1f8a56; stroke-width: 1.1; stroke-linecap: round"/>
   </g>
   <g id="line2d_37">
    <path d="M 537.657693 215.207862 
L 537.657693 179.118433 
" clip-path="url(#p42be58b0d9)" style="fill: none; stroke: #1f8a56; stroke-width: 1.1; stroke-linecap: round"/>
   </g>
   <g id="line2d_38">
    <path d="M 551.342078 198.363577 
L 551.342078 156.195804 
" clip-path="url(#p42be58b0d9)" style="fill: none; stroke: #1f8a56; stroke-width: 1.1; stroke-linecap: round"/>
   </g>
   <g id="line2d_39">
    <path d="M 565.026463 149.598014 
L 565.026463 119.58588 
" clip-path="url(#p42be58b0d9)" style="fill: none; stroke: #1f8a56; stroke-width: 1.1; stroke-linecap: round"/>
   </g>
   <g id="line2d_40">
    <path d="M 578.710848 128.158216 
L 578.710848 95.733127 
" clip-path="url(#p42be58b0d9)" style="fill: none; stroke: #1f8a56; stroke-width: 1.1; stroke-linecap: round"/>
   </g>
   <g id="line2d_41">
    <path d="M 592.395233 93.912936 
L 592.395233 87.006366 
" clip-path="url(#p42be58b0d9)" style="fill: none; stroke: #1f8a56; stroke-width: 1.1; stroke-linecap: round"/>
   </g>
   <g id="line2d_42">
    <path d="M 606.079618 85.95399 
L 606.079618 71.094216 
" clip-path="url(#p42be58b0d9)" style="fill: none; stroke: #b91c1c; stroke-width: 1.1; stroke-linecap: round"/>
   </g>
   <g id="text_1">
    <text style="font-weight: 700; font-size: 9px; font-family: 'Noto Naskh Arabic', 'DejaVu Sans'; text-anchor: end; fill: #b91c1c" x="68.283281" y="84.858062" transform="rotate(-0 68.283281 84.858062)">​ﺔﺘﺑﺎﺛ ﺔﻴﻘﻓﺃ ﺔﻣﻭﺎﻘﻣ</text>
   </g>
   <g id="text_2">
    <text style="font-weight: 700; font-size: 9px; font-family: 'Noto Naskh Arabic', 'DejaVu Sans'; text-anchor: start; fill: #1f8a56" x="99.757367" y="289.80088" transform="rotate(-0 99.757367 289.80088)">​ﺎﻴﺠﻳﺭﺪﺗ ﺪﻋﺎﺻ ﻢﻋﺩ</text>
   </g>
   <g id="text_3">
    <text style="font-weight: 700; font-size: 11px; font-family: 'Noto Naskh Arabic', 'DejaVu Sans'; text-anchor: middle; fill: #1f2937" x="339.234108" y="18.959" transform="rotate(-0 339.234108 18.959)">​ﺍﺩﻮﻌﺻ ﻕﺍﺮﺘﺧﻼﻟ ﻞﻴﻤﻳ — (Ascending Triangle) ﺪﻋﺎﺼﻟﺍ ﺚﻠﺜﻤﻟﺍ</text>
   </g>
   <g id="patch_5">
    <path d="M 68.625391 300.46282 
L 76.151803 300.46282 
L 76.151803 293.493066 
L 68.625391 293.493066 
z
" clip-path="url(#p42be58b0d9)" style="fill: #1f8a56; stroke: #1f8a56; stroke-linejoin: miter"/>
   </g>
   <g id="patch_6">
    <path d="M 82.309776 290.715655 
L 89.836188 290.715655 
L 89.836188 273.95275 
L 82.309776 273.95275 
z
" clip-path="url(#p42be58b0d9)" style="fill: #1f8a56; stroke: #1f8a56; stroke-linejoin: miter"/>
   </g>
   <g id="patch_7">
    <path d="M 95.994161 286.632161 
L 103.520573 286.632161 
L 103.520573 257.405151 
L 95.994161 257.405151 
z
" clip-path="url(#p42be58b0d9)" style="fill: #1f8a56; stroke: #1f8a56; stroke-linejoin: miter"/>
   </g>
   <g id="patch_8">
    <path d="M 109.678546 262.870359 
L 117.204958 262.870359 
L 117.204958 217.880943 
L 109.678546 217.880943 
z
" clip-path="url(#p42be58b0d9)" style="fill: #1f8a56; stroke: #1f8a56; stroke-linejoin: miter"/>
   </g>
   <g id="patch_9">
    <path d="M 123.362932 219.68965 
L 130.889343 219.68965 
L 130.889343 197.363679 
L 123.362932 197.363679 
z
" clip-path="url(#p42be58b0d9)" style="fill: #1f8a56; stroke: #1f8a56; stroke-linejoin: miter"/>
   </g>
   <g id="patch_10">
    <path d="M 137.047317 217.985272 
L 144.573729 217.985272 
L 144.573729 165.477108 
L 137.047317 165.477108 
z
" clip-path="url(#p42be58b0d9)" style="fill: #1f8a56; stroke: #1f8a56; stroke-linejoin: miter"/>
   </g>
   <g id="patch_11">
    <path d="M 150.731702 173.406479 
L 158.258114 173.406479 
L 158.258114 160.071736 
L 150.731702 160.071736 
z
" clip-path="url(#p42be58b0d9)" style="fill: #1f8a56; stroke: #1f8a56; stroke-linejoin: miter"/>
   </g>
   <g id="patch_12">
    <path d="M 164.416087 167.239461 
L 171.942499 167.239461 
L 171.942499 157.801995 
L 164.416087 157.801995 
z
" clip-path="url(#p42be58b0d9)" style="fill: #1f8a56; stroke: #1f8a56; stroke-linejoin: miter"/>
   </g>
   <g id="patch_13">
    <path d="M 178.100472 294.002857 
L 185.626884 294.002857 
L 185.626884 163.157215 
L 178.100472 163.157215 
z
" clip-path="url(#p42be58b0d9)" style="fill: #b91c1c; stroke: #b91c1c; stroke-linejoin: miter"/>
   </g>
   <g id="patch_14">
    <path d="M 191.784857 299.66063 
L 199.311269 299.66063 
L 199.311269 255.513743 
L 191.784857 255.513743 
z
" clip-path="url(#p42be58b0d9)" style="fill: #1f8a56; stroke: #1f8a56; stroke-linejoin: miter"/>
   </g>
   <g id="patch_15">
    <path d="M 205.469243 270.453642 
L 212.995654 270.453642 
L 212.995654 225.368383 
L 205.469243 225.368383 
z
" clip-path="url(#p42be58b0d9)" style="fill: #1f8a56; stroke: #1f8a56; stroke-linejoin: miter"/>
   </g>
   <g id="patch_16">
    <path d="M 219.153628 225.00472 
L 226.68004 225.00472 
L 226.68004 198.779814 
L 219.153628 198.779814 
z
" clip-path="url(#p42be58b0d9)" style="fill: #1f8a56; stroke: #1f8a56; stroke-linejoin: miter"/>
   </g>
   <g id="patch_17">
    <path d="M 232.838013 204.152165 
L 240.364425 204.152165 
L 240.364425 180.123243 
L 232.838013 180.123243 
z
" clip-path="url(#p42be58b0d9)" style="fill: #1f8a56; stroke: #1f8a56; stroke-linejoin: miter"/>
   </g>
   <g id="patch_18">
    <path d="M 246.522398 177.920501 
L 254.04881 177.920501 
L 254.04881 144.183553 
L 246.522398 144.183553 
z
" clip-path="url(#p42be58b0d9)" style="fill: #1f8a56; stroke: #1f8a56; stroke-linejoin: miter"/>
   </g>
   <g id="patch_19">
    <path d="M 260.206783 141.913813 
L 267.733195 141.913813 
L 267.733195 134.944058 
L 260.206783 134.944058 
z
" clip-path="url(#p42be58b0d9)" style="fill: #b91c1c; stroke: #b91c1c; stroke-linejoin: miter"/>
   </g>
   <g id="patch_20">
    <path d="M 273.891168 145.160602 
L 281.41758 145.160602 
L 281.41758 138.190847 
L 273.891168 138.190847 
z
" clip-path="url(#p42be58b0d9)" style="fill: #1f8a56; stroke: #1f8a56; stroke-linejoin: miter"/>
   </g>
   <g id="patch_21">
    <path d="M 287.575554 270.553069 
L 295.101965 270.553069 
L 295.101965 140.443136 
L 287.575554 140.443136 
z
" clip-path="url(#p42be58b0d9)" style="fill: #b91c1c; stroke: #b91c1c; stroke-linejoin: miter"/>
   </g>
   <g id="patch_22">
    <path d="M 301.259939 263.015006 
L 308.786351 263.015006 
L 308.786351 236.45044 
L 301.259939 236.45044 
z
" clip-path="url(#p42be58b0d9)" style="fill: #1f8a56; stroke: #1f8a56; stroke-linejoin: miter"/>
   </g>
   <g id="patch_23">
    <path d="M 314.944324 239.569845 
L 322.470736 239.569845 
L 322.470736 205.051206 
L 314.944324 205.051206 
z
" clip-path="url(#p42be58b0d9)" style="fill: #1f8a56; stroke: #1f8a56; stroke-linejoin: miter"/>
   </g>
   <g id="patch_24">
    <path d="M 328.628709 199.228174 
L 336.155121 199.228174 
L 336.155121 179.708681 
L 328.628709 179.708681 
z
" clip-path="url(#p42be58b0d9)" style="fill: #1f8a56; stroke: #1f8a56; stroke-linejoin: miter"/>
   </g>
   <g id="patch_25">
    <path d="M 342.313094 175.473724 
L 349.839506 175.473724 
L 349.839506 157.501332 
L 342.313094 157.501332 
z
" clip-path="url(#p42be58b0d9)" style="fill: #1f8a56; stroke: #1f8a56; stroke-linejoin: miter"/>
   </g>
   <g id="patch_26">
    <path d="M 355.997479 152.640477 
L 363.523891 152.640477 
L 363.523891 126.02563 
L 355.997479 126.02563 
z
" clip-path="url(#p42be58b0d9)" style="fill: #1f8a56; stroke: #1f8a56; stroke-linejoin: miter"/>
   </g>
   <g id="patch_27">
    <path d="M 369.681865 123.755889 
L 377.208276 123.755889 
L 377.208276 116.786135 
L 369.681865 116.786135 
z
" clip-path="url(#p42be58b0d9)" style="fill: #b91c1c; stroke: #b91c1c; stroke-linejoin: miter"/>
   </g>
   <g id="patch_28">
    <path d="M 383.36625 136.13359 
L 390.892662 136.13359 
L 390.892662 121.486149 
L 383.36625 121.486149 
z
" clip-path="url(#p42be58b0d9)" style="fill: #1f8a56; stroke: #1f8a56; stroke-linejoin: miter"/>
   </g>
   <g id="patch_29">
    <path d="M 397.050635 255.617487 
L 404.577047 255.617487 
L 404.577047 116.271945 
L 397.050635 116.271945 
z
" clip-path="url(#p42be58b0d9)" style="fill: #b91c1c; stroke: #b91c1c; stroke-linejoin: miter"/>
   </g>
   <g id="patch_30">
    <path d="M 410.73502 248.922404 
L 418.261432 248.922404 
L 418.261432 222.160031 
L 410.73502 222.160031 
z
" clip-path="url(#p42be58b0d9)" style="fill: #1f8a56; stroke: #1f8a56; stroke-linejoin: miter"/>
   </g>
   <g id="patch_31">
    <path d="M 424.419405 225.832165 
L 431.945817 225.832165 
L 431.945817 213.556271 
L 424.419405 213.556271 
z
" clip-path="url(#p42be58b0d9)" style="fill: #1f8a56; stroke: #1f8a56; stroke-linejoin: miter"/>
   </g>
   <g id="patch_32">
    <path d="M 438.10379 216.52582 
L 445.630202 216.52582 
L 445.630202 168.20143 
L 438.10379 168.20143 
z
" clip-path="url(#p42be58b0d9)" style="fill: #1f8a56; stroke: #1f8a56; stroke-linejoin: miter"/>
   </g>
   <g id="patch_33">
    <path d="M 451.788176 175.957572 
L 459.314587 175.957572 
L 459.314587 144.042433 
L 451.788176 144.042433 
z
" clip-path="url(#p42be58b0d9)" style="fill: #1f8a56; stroke: #1f8a56; stroke-linejoin: miter"/>
   </g>
   <g id="patch_34">
    <path d="M 465.472561 152.184384 
L 472.998973 152.184384 
L 472.998973 120.150861 
L 465.472561 120.150861 
z
" clip-path="url(#p42be58b0d9)" style="fill: #1f8a56; stroke: #1f8a56; stroke-linejoin: miter"/>
   </g>
   <g id="patch_35">
    <path d="M 479.156946 110.85313 
L 486.683358 110.85313 
L 486.683358 103.883376 
L 479.156946 103.883376 
z
" clip-path="url(#p42be58b0d9)" style="fill: #1f8a56; stroke: #1f8a56; stroke-linejoin: miter"/>
   </g>
   <g id="patch_36">
    <path d="M 492.841331 105.805157 
L 500.367743 105.805157 
L 500.367743 98.835402 
L 492.841331 98.835402 
z
" clip-path="url(#p42be58b0d9)" style="fill: #1f8a56; stroke: #1f8a56; stroke-linejoin: miter"/>
   </g>
   <g id="patch_37">
    <path d="M 506.525716 243.253056 
L 514.052128 243.253056 
L 514.052128 100.726972 
L 506.525716 100.726972 
z
" clip-path="url(#p42be58b0d9)" style="fill: #b91c1c; stroke: #b91c1c; stroke-linejoin: miter"/>
   </g>
   <g id="patch_38">
    <path d="M 520.210101 246.528583 
L 527.736513 246.528583 
L 527.736513 211.27575 
L 520.210101 211.27575 
z
" clip-path="url(#p42be58b0d9)" style="fill: #1f8a56; stroke: #1f8a56; stroke-linejoin: miter"/>
   </g>
   <g id="patch_39">
    <path d="M 533.894487 213.562733 
L 541.420898 213.562733 
L 541.420898 183.824508 
L 533.894487 183.824508 
z
" clip-path="url(#p42be58b0d9)" style="fill: #1f8a56; stroke: #1f8a56; stroke-linejoin: miter"/>
   </g>
   <g id="patch_40">
    <path d="M 547.578872 195.997143 
L 555.105284 195.997143 
L 555.105284 156.539689 
L 547.578872 156.539689 
z
" clip-path="url(#p42be58b0d9)" style="fill: #1f8a56; stroke: #1f8a56; stroke-linejoin: miter"/>
   </g>
   <g id="patch_41">
    <path d="M 561.263257 146.212114 
L 568.789669 146.212114 
L 568.789669 123.664934 
L 561.263257 123.664934 
z
" clip-path="url(#p42be58b0d9)" style="fill: #1f8a56; stroke: #1f8a56; stroke-linejoin: miter"/>
   </g>
   <g id="patch_42">
    <path d="M 574.947642 123.320893 
L 582.474054 123.320893 
L 582.474054 96.41685 
L 574.947642 96.41685 
z
" clip-path="url(#p42be58b0d9)" style="fill: #1f8a56; stroke: #1f8a56; stroke-linejoin: miter"/>
   </g>
   <g id="patch_43">
    <path d="M 588.632027 92.775067 
L 596.158439 92.775067 
L 596.158439 85.805313 
L 588.632027 85.805313 
z
" clip-path="url(#p42be58b0d9)" style="fill: #1f8a56; stroke: #1f8a56; stroke-linejoin: miter"/>
   </g>
   <g id="patch_44">
    <path d="M 602.316412 85.170303 
L 609.842824 85.170303 
L 609.842824 76.308187 
L 602.316412 76.308187 
z
" clip-path="url(#p42be58b0d9)" style="fill: #b91c1c; stroke: #b91c1c; stroke-linejoin: miter"/>
   </g>
  </g>
 </g>
 <defs>
  <clipPath id="p42be58b0d9">
   <rect x="58.704212" y="25.933" width="561.059792" height="307.217"/>
  </clipPath>
 </defs>
</svg>
