<?xml version="1.0" encoding="utf-8" standalone="no"?>
<!DOCTYPE svg PUBLIC "-//W3C//DTD SVG 1.1//EN"
  "http://www.w3.org/Graphics/SVG/1.1/DTD/svg11.dtd">
<svg xmlns:xlink="http://www.w3.org/1999/xlink" width="628.35pt" height="556.321248pt" viewBox="0 0 628.35 556.321248" xmlns="http://www.w3.org/2000/svg" version="1.1">
 <metadata>
  <rdf:RDF xmlns:dc="http://purl.org/dc/elements/1.1/" xmlns:cc="http://creativecommons.org/ns#" xmlns:rdf="http://www.w3.org/1999/02/22-rdf-syntax-ns#">
   <cc:Work>
    <dc:type rdf:resource="http://purl.org/dc/dcmitype/StillImage"/>
    <dc:date>2026-07-19T04:29:52.799569</dc:date>
    <dc:format>image/svg+xml</dc:format>
    <dc:creator>
     <cc:Agent>
      <dc:title>Matplotlib v3.11.1, https://matplotlib.org/</dc:title>
     </cc:Agent>
    </dc:creator>
   </cc:Work>
  </rdf:RDF>
 </metadata>
 <defs>
  <style type="text/css">*{stroke-linejoin: round; stroke-linecap: butt}</style>
 </defs>
 <g id="figure_1">
  <g id="patch_1">
   <path d="M 0 556.321248 
L 628.35 556.321248 
L 628.35 0 
L 0 0 
z
" style="fill: #ffffff"/>
  </g>
  <g id="axes_1">
   <g id="patch_2">
    <path d="M 54.100484 246.042277 
L 621.15 246.042277 
L 621.15 8.808918 
L 54.100484 8.808918 
z
" style="fill: #ffffff"/>
   </g>
   <g id="matplotlib.axis_1"/>
   <g id="matplotlib.axis_2">
    <g id="ytick_1">
     <g id="line2d_1">
      <path d="M 54.100484 211.376086 
L 621.15 211.376086 
" clip-path="url(#p61e29b1683)" style="fill: none; stroke: #e6e1d6; stroke-width: 0.8; stroke-linecap: square"/>
     </g>
     <g id="line2d_2">
      <defs>
       <path id="mab4b77ba61" d="M 0 0 
L -3.5 0 
" style="stroke: #555555; stroke-width: 0.8"/>
      </defs>
      <g>
       <use xlink:href="#mab4b77ba61" x="54.100484" y="211.376086" style="fill: #555555; stroke: #555555; stroke-width: 0.8"/>
      </g>
     </g>
     <g id="text_1">
      <text style="font-size: 10.5px; font-family: 'Noto Naskh Arabic', 'DejaVu Sans'; text-anchor: end; fill: #555555" x="47.100484" y="216.988336" transform="rotate(-0 47.100484 216.988336)">100</text>
     </g>
    </g>
    <g id="ytick_2">
     <g id="line2d_3">
      <path d="M 54.100484 161.735127 
L 621.15 161.735127 
" clip-path="url(#p61e29b1683)" style="fill: none; stroke: #e6e1d6; stroke-width: 0.8; stroke-linecap: square"/>
     </g>
     <g id="line2d_4">
      <g>
       <use xlink:href="#mab4b77ba61" x="54.100484" y="161.735127" style="fill: #555555; stroke: #555555; stroke-width: 0.8"/>
      </g>
     </g>
     <g id="text_2">
      <text style="font-size: 10.5px; font-family: 'Noto Naskh Arabic', 'DejaVu Sans'; text-anchor: end; fill: #555555" x="47.100484" y="167.347377" transform="rotate(-0 47.100484 167.347377)">102</text>
     </g>
    </g>
    <g id="ytick_3">
     <g id="line2d_5">
      <path d="M 54.100484 112.094168 
L 621.15 112.094168 
" clip-path="url(#p61e29b1683)" style="fill: none; stroke: #e6e1d6; stroke-width: 0.8; stroke-linecap: square"/>
     </g>
     <g id="line2d_6">
      <g>
       <use xlink:href="#mab4b77ba61" x="54.100484" y="112.094168" style="fill: #555555; stroke: #555555; stroke-width: 0.8"/>
      </g>
     </g>
     <g id="text_3">
      <text style="font-size: 10.5px; font-family: 'Noto Naskh Arabic', 'DejaVu Sans'; text-anchor: end; fill: #555555" x="47.100484" y="117.706418" transform="rotate(-0 47.100484 117.706418)">104</text>
     </g>
    </g>
    <g id="ytick_4">
     <g id="line2d_7">
      <path d="M 54.100484 62.453209 
L 621.15 62.453209 
" clip-path="url(#p61e29b1683)" style="fill: none; stroke: #e6e1d6; stroke-width: 0.8; stroke-linecap: square"/>
     </g>
     <g id="line2d_8">
      <g>
       <use xlink:href="#mab4b77ba61" x="54.100484" y="62.453209" style="fill: #555555; stroke: #555555; stroke-width: 0.8"/>
      </g>
     </g>
     <g id="text_4">
      <text style="font-size: 10.5px; font-family: 'Noto Naskh Arabic', 'DejaVu Sans'; text-anchor: end; fill: #555555" x="47.100484" y="68.065459" transform="rotate(-0 47.100484 68.065459)">106</text>
     </g>
    </g>
    <g id="ytick_5">
     <g id="line2d_9">
      <path d="M 54.100484 12.81225 
L 621.15 12.81225 
" clip-path="url(#p61e29b1683)" style="fill: none; stroke: #e6e1d6; stroke-width: 0.8; stroke-linecap: square"/>
     </g>
     <g id="line2d_10">
      <g>
       <use xlink:href="#mab4b77ba61" x="54.100484" y="12.81225" style="fill: #555555; stroke: #555555; stroke-width: 0.8"/>
      </g>
     </g>
     <g id="text_5">
      <text style="font-size: 10.5px; font-family: 'Noto Naskh Arabic', 'DejaVu Sans'; text-anchor: end; fill: #555555" x="47.100484" y="18.4245" transform="rotate(-0 47.100484 18.4245)">108</text>
     </g>
    </g>
    <g id="text_6">
     <text style="font-size: 10.5px; font-family: 'Noto Naskh Arabic', 'DejaVu Sans'; text-anchor: middle; fill: #1f2937" x="18.4245" y="127.425597" transform="rotate(-90 18.4245 127.425597)">​ﺮﻌﺴﻟﺍ</text>
    </g>
   </g>
   <g id="patch_3">
    <path d="M 54.100484 246.042277 
L 54.100484 8.808918 
" style="fill: none; stroke: #1f2937; stroke-width: 0.8; stroke-linejoin: miter; stroke-linecap: square"/>
   </g>
   <g id="patch_4">
    <path d="M 54.100484 246.042277 
L 621.15 246.042277 
" style="fill: none; stroke: #1f2937; stroke-width: 0.8; stroke-linejoin: miter; stroke-linecap: square"/>
   </g>
   <g id="line2d_11">
    <path d="M 67.93096 219.091718 
L 67.93096 214.731967 
" clip-path="url(#p61e29b1683)" style="fill: none; stroke: #b91c1c; stroke-width: 1.1; stroke-linecap: round"/>
   </g>
   <g id="line2d_12">
    <path d="M 81.761436 232.158569 
L 81.761436 223.647234 
" clip-path="url(#p61e29b1683)" style="fill: none; stroke: #b91c1c; stroke-width: 1.1; stroke-linecap: round"/>
   </g>
   <g id="line2d_13">
    <path d="M 95.591912 235.258942 
L 95.591912 178.908108 
" clip-path="url(#p61e29b1683)" style="fill: none; stroke: #1f8a56; stroke-width: 1.1; stroke-linecap: round"/>
   </g>
   <g id="line2d_14">
    <path d="M 109.422388 213.814446 
L 109.422388 181.558268 
" clip-path="url(#p61e29b1683)" style="fill: none; stroke: #b91c1c; stroke-width: 1.1; stroke-linecap: round"/>
   </g>
   <g id="line2d_15">
    <path d="M 123.252864 224.226602 
L 123.252864 198.607694 
" clip-path="url(#p61e29b1683)" style="fill: none; stroke: #1f8a56; stroke-width: 1.1; stroke-linecap: round"/>
   </g>
   <g id="line2d_16">
    <path d="M 137.08334 197.330097 
L 137.08334 176.078771 
" clip-path="url(#p61e29b1683)" style="fill: none; stroke: #1f8a56; stroke-width: 1.1; stroke-linecap: round"/>
   </g>
   <g id="line2d_17">
    <path d="M 150.913816 188.102385 
L 150.913816 168.2899 
" clip-path="url(#p61e29b1683)" style="fill: none; stroke: #1f8a56; stroke-width: 1.1; stroke-linecap: round"/>
   </g>
   <g id="line2d_18">
    <path d="M 164.744292 177.807735 
L 164.744292 163.811357 
" clip-path="url(#p61e29b1683)" style="fill: none; stroke: #b91c1c; stroke-width: 1.1; stroke-linecap: round"/>
   </g>
   <g id="line2d_19">
    <path d="M 178.574768 187.602797 
L 178.574768 170.55656 
" clip-path="url(#p61e29b1683)" style="fill: none; stroke: #b91c1c; stroke-width: 1.1; stroke-linecap: round"/>
   </g>
   <g id="line2d_20">
    <path d="M 192.405244 186.502461 
L 192.405244 162.877879 
" clip-path="url(#p61e29b1683)" style="fill: none; stroke: #1f8a56; stroke-width: 1.1; stroke-linecap: round"/>
   </g>
   <g id="line2d_21">
    <path d="M 206.23572 187.490439 
L 206.23572 169.147961 
" clip-path="url(#p61e29b1683)" style="fill: none; stroke: #b91c1c; stroke-width: 1.1; stroke-linecap: round"/>
   </g>
   <g id="line2d_22">
    <path d="M 220.066196 188.230049 
L 220.066196 164.418118 
" clip-path="url(#p61e29b1683)" style="fill: none; stroke: #1f8a56; stroke-width: 1.1; stroke-linecap: round"/>
   </g>
   <g id="line2d_23">
    <path d="M 233.896672 173.664766 
L 233.896672 164.900835 
" clip-path="url(#p61e29b1683)" style="fill: none; stroke: #1f8a56; stroke-width: 1.1; stroke-linecap: round"/>
   </g>
   <g id="line2d_24">
    <path d="M 247.727148 168.836089 
L 247.727148 142.432779 
" clip-path="url(#p61e29b1683)" style="fill: none; stroke: #1f8a56; stroke-width: 1.1; stroke-linecap: round"/>
   </g>
   <g id="line2d_25">
    <path d="M 261.557624 158.51921 
L 261.557624 141.101572 
" clip-path="url(#p61e29b1683)" style="fill: none; stroke: #b91c1c; stroke-width: 1.1; stroke-linecap: round"/>
   </g>
   <g id="line2d_26">
    <path d="M 275.3881 163.161085 
L 275.3881 152.904137 
" clip-path="url(#p61e29b1683)" style="fill: none; stroke: #1f8a56; stroke-width: 1.1; stroke-linecap: round"/>
   </g>
   <g id="line2d_27">
    <path d="M 289.218576 166.536823 
L 289.218576 158.592688 
" clip-path="url(#p61e29b1683)" style="fill: none; stroke: #1f8a56; stroke-width: 1.1; stroke-linecap: round"/>
   </g>
   <g id="line2d_28">
    <path d="M 303.049052 169.98002 
L 303.049052 149.771028 
" clip-path="url(#p61e29b1683)" style="fill: none; stroke: #1f8a56; stroke-width: 1.1; stroke-linecap: round"/>
   </g>
   <g id="line2d_29">
    <path d="M 316.879528 153.823153 
L 316.879528 118.249781 
" clip-path="url(#p61e29b1683)" style="fill: none; stroke: #1f8a56; stroke-width: 1.1; stroke-linecap: round"/>
   </g>
   <g id="line2d_30">
    <path d="M 330.710004 141.358672 
L 330.710004 115.522709 
" clip-path="url(#p61e29b1683)" style="fill: none; stroke: #b91c1c; stroke-width: 1.1; stroke-linecap: round"/>
   </g>
   <g id="line2d_31">
    <path d="M 344.54048 137.904135 
L 344.54048 122.370639 
" clip-path="url(#p61e29b1683)" style="fill: none; stroke: #1f8a56; stroke-width: 1.1; stroke-linecap: round"/>
   </g>
   <g id="line2d_32">
    <path d="M 358.370956 118.534347 
L 358.370956 112.194257 
" clip-path="url(#p61e29b1683)" style="fill: none; stroke: #b91c1c; stroke-width: 1.1; stroke-linecap: round"/>
   </g>
   <g id="line2d_33">
    <path d="M 372.201432 127.888587 
L 372.201432 111.58017 
" clip-path="url(#p61e29b1683)" style="fill: none; stroke: #b91c1c; stroke-width: 1.1; stroke-linecap: round"/>
   </g>
   <g id="line2d_34">
    <path d="M 386.031908 130.255685 
L 386.031908 118.939077 
" clip-path="url(#p61e29b1683)" style="fill: none; stroke: #1f8a56; stroke-width: 1.1; stroke-linecap: round"/>
   </g>
   <g id="line2d_35">
    <path d="M 399.862384 128.710271 
L 399.862384 119.483172 
" clip-path="url(#p61e29b1683)" style="fill: none; stroke: #b91c1c; stroke-width: 1.1; stroke-linecap: round"/>
   </g>
   <g id="line2d_36">
    <path d="M 413.69286 138.713505 
L 413.69286 128.979361 
" clip-path="url(#p61e29b1683)" style="fill: none; stroke: #b91c1c; stroke-width: 1.1; stroke-linecap: round"/>
   </g>
   <g id="line2d_37">
    <path d="M 427.523336 137.906817 
L 427.523336 107.55328 
" clip-path="url(#p61e29b1683)" style="fill: none; stroke: #1f8a56; stroke-width: 1.1; stroke-linecap: round"/>
   </g>
   <g id="line2d_38">
    <path d="M 441.353812 121.707811 
L 441.353812 102.197968 
" clip-path="url(#p61e29b1683)" style="fill: none; stroke: #b91c1c; stroke-width: 1.1; stroke-linecap: round"/>
   </g>
   <g id="line2d_39">
    <path d="M 455.184288 112.645589 
L 455.184288 101.837631 
" clip-path="url(#p61e29b1683)" style="fill: none; stroke: #1f8a56; stroke-width: 1.1; stroke-linecap: round"/>
   </g>
   <g id="line2d_40">
    <path d="M 469.014764 111.295124 
L 469.014764 92.301958 
" clip-path="url(#p61e29b1683)" style="fill: none; stroke: #1f8a56; stroke-width: 1.1; stroke-linecap: round"/>
   </g>
   <g id="line2d_41">
    <path d="M 482.84524 99.262834 
L 482.84524 95.020267 
" clip-path="url(#p61e29b1683)" style="fill: none; stroke: #b91c1c; stroke-width: 1.1; stroke-linecap: round"/>
   </g>
   <g id="line2d_42">
    <path d="M 496.675716 106.839611 
L 496.675716 92.596502 
" clip-path="url(#p61e29b1683)" style="fill: none; stroke: #1f8a56; stroke-width: 1.1; stroke-linecap: round"/>
   </g>
   <g id="line2d_43">
    <path d="M 510.506192 95.947213 
L 510.506192 57.891206 
" clip-path="url(#p61e29b1683)" style="fill: none; stroke: #1f8a56; stroke-width: 1.1; stroke-linecap: round"/>
   </g>
   <g id="line2d_44">
    <path d="M 524.336668 107.80995 
L 524.336668 57.278932 
" clip-path="url(#p61e29b1683)" style="fill: none; stroke: #b91c1c; stroke-width: 1.1; stroke-linecap: round"/>
   </g>
   <g id="line2d_45">
    <path d="M 538.167144 105.737268 
L 538.167144 66.301801 
" clip-path="url(#p61e29b1683)" style="fill: none; stroke: #1f8a56; stroke-width: 1.1; stroke-linecap: round"/>
   </g>
   <g id="line2d_46">
    <path d="M 551.99762 77.667012 
L 551.99762 61.310777 
" clip-path="url(#p61e29b1683)" style="fill: none; stroke: #b91c1c; stroke-width: 1.1; stroke-linecap: round"/>
   </g>
   <g id="line2d_47">
    <path d="M 565.828096 75.711129 
L 565.828096 54.812199 
" clip-path="url(#p61e29b1683)" style="fill: none; stroke: #1f8a56; stroke-width: 1.1; stroke-linecap: round"/>
   </g>
   <g id="line2d_48">
    <path d="M 579.658572 54.936108 
L 579.658572 48.011954 
" clip-path="url(#p61e29b1683)" style="fill: none; stroke: #1f8a56; stroke-width: 1.1; stroke-linecap: round"/>
   </g>
   <g id="line2d_49">
    <path d="M 593.489048 52.853624 
L 593.489048 22.720658 
" clip-path="url(#p61e29b1683)" style="fill: none; stroke: #1f8a56; stroke-width: 1.1; stroke-linecap: round"/>
   </g>
   <g id="line2d_50">
    <path d="M 607.319524 31.275892 
L 607.319524 19.592252 
" clip-path="url(#p61e29b1683)" style="fill: none; stroke: #1f8a56; stroke-width: 1.1; stroke-linecap: round"/>
   </g>
   <g id="patch_5">
    <path d="M 63.781818 217.503167 
L 72.080103 217.503167 
L 72.080103 211.033165 
L 63.781818 211.033165 
z
" clip-path="url(#p61e29b1683)" style="fill: #b91c1c; stroke: #b91c1c; stroke-linejoin: miter"/>
   </g>
   <g id="patch_6">
    <path d="M 77.612294 226.81903 
L 85.910579 226.81903 
L 85.910579 220.349028 
L 77.612294 220.349028 
z
" clip-path="url(#p61e29b1683)" style="fill: #b91c1c; stroke: #b91c1c; stroke-linejoin: miter"/>
   </g>
   <g id="patch_7">
    <path d="M 91.44277 227.524481 
L 99.741055 227.524481 
L 99.741055 183.996723 
L 91.44277 183.996723 
z
" clip-path="url(#p61e29b1683)" style="fill: #1f8a56; stroke: #1f8a56; stroke-linejoin: miter"/>
   </g>
   <g id="patch_8">
    <path d="M 105.273246 212.118969 
L 113.571531 212.118969 
L 113.571531 184.917005 
L 105.273246 184.917005 
z
" clip-path="url(#p61e29b1683)" style="fill: #b91c1c; stroke: #b91c1c; stroke-linejoin: miter"/>
   </g>
   <g id="patch_9">
    <path d="M 119.103722 221.063394 
L 127.402007 221.063394 
L 127.402007 199.838835 
L 119.103722 199.838835 
z
" clip-path="url(#p61e29b1683)" style="fill: #1f8a56; stroke: #1f8a56; stroke-linejoin: miter"/>
   </g>
   <g id="patch_10">
    <path d="M 132.934198 195.129822 
L 141.232483 195.129822 
L 141.232483 183.54138 
L 132.934198 183.54138 
z
" clip-path="url(#p61e29b1683)" style="fill: #1f8a56; stroke: #1f8a56; stroke-linejoin: miter"/>
   </g>
   <g id="patch_11">
    <path d="M 146.764674 187.019838 
L 155.062959 187.019838 
L 155.062959 173.261304 
L 146.764674 173.261304 
z
" clip-path="url(#p61e29b1683)" style="fill: #1f8a56; stroke: #1f8a56; stroke-linejoin: miter"/>
   </g>
   <g id="patch_12">
    <path d="M 160.59515 176.917912 
L 168.893435 176.917912 
L 168.893435 169.528372 
L 160.59515 169.528372 
z
" clip-path="url(#p61e29b1683)" style="fill: #b91c1c; stroke: #b91c1c; stroke-linejoin: miter"/>
   </g>
   <g id="patch_13">
    <path d="M 174.425625 187.49676 
L 182.723911 187.49676 
L 182.723911 172.414733 
L 174.425625 172.414733 
z
" clip-path="url(#p61e29b1683)" style="fill: #b91c1c; stroke: #b91c1c; stroke-linejoin: miter"/>
   </g>
   <g id="patch_14">
    <path d="M 188.256101 184.153995 
L 196.554387 184.153995 
L 196.554387 167.204032 
L 188.256101 167.204032 
z
" clip-path="url(#p61e29b1683)" style="fill: #1f8a56; stroke: #1f8a56; stroke-linejoin: miter"/>
   </g>
   <g id="patch_15">
    <path d="M 202.086577 184.876961 
L 210.384863 184.876961 
L 210.384863 169.535328 
L 202.086577 169.535328 
z
" clip-path="url(#p61e29b1683)" style="fill: #b91c1c; stroke: #b91c1c; stroke-linejoin: miter"/>
   </g>
   <g id="patch_16">
    <path d="M 215.917053 185.942053 
L 224.215339 185.942053 
L 224.215339 169.839772 
L 215.917053 169.839772 
z
" clip-path="url(#p61e29b1683)" style="fill: #1f8a56; stroke: #1f8a56; stroke-linejoin: miter"/>
   </g>
   <g id="patch_17">
    <path d="M 229.747529 169.540117 
L 238.045815 169.540117 
L 238.045815 163.070116 
L 229.747529 163.070116 
z
" clip-path="url(#p61e29b1683)" style="fill: #1f8a56; stroke: #1f8a56; stroke-linejoin: miter"/>
   </g>
   <g id="patch_18">
    <path d="M 243.578005 167.419924 
L 251.876291 167.419924 
L 251.876291 145.812164 
L 243.578005 145.812164 
z
" clip-path="url(#p61e29b1683)" style="fill: #1f8a56; stroke: #1f8a56; stroke-linejoin: miter"/>
   </g>
   <g id="patch_19">
    <path d="M 257.408481 156.312515 
L 265.706767 156.312515 
L 265.706767 142.24075 
L 257.408481 142.24075 
z
" clip-path="url(#p61e29b1683)" style="fill: #b91c1c; stroke: #b91c1c; stroke-linejoin: miter"/>
   </g>
   <g id="patch_20">
    <path d="M 271.238957 162.267204 
L 279.537243 162.267204 
L 279.537243 155.797202 
L 271.238957 155.797202 
z
" clip-path="url(#p61e29b1683)" style="fill: #1f8a56; stroke: #1f8a56; stroke-linejoin: miter"/>
   </g>
   <g id="patch_21">
    <path d="M 285.069433 165.541872 
L 293.367719 165.541872 
L 293.367719 159.071871 
L 285.069433 159.071871 
z
" clip-path="url(#p61e29b1683)" style="fill: #1f8a56; stroke: #1f8a56; stroke-linejoin: miter"/>
   </g>
   <g id="patch_22">
    <path d="M 298.899909 161.011782 
L 307.198195 161.011782 
L 307.198195 153.42147 
L 298.899909 153.42147 
z
" clip-path="url(#p61e29b1683)" style="fill: #1f8a56; stroke: #1f8a56; stroke-linejoin: miter"/>
   </g>
   <g id="patch_23">
    <path d="M 312.730385 152.840654 
L 321.028671 152.840654 
L 321.028671 124.231567 
L 312.730385 124.231567 
z
" clip-path="url(#p61e29b1683)" style="fill: #1f8a56; stroke: #1f8a56; stroke-linejoin: miter"/>
   </g>
   <g id="patch_24">
    <path d="M 326.560861 138.179372 
L 334.859147 138.179372 
L 334.859147 116.291467 
L 326.560861 116.291467 
z
" clip-path="url(#p61e29b1683)" style="fill: #b91c1c; stroke: #b91c1c; stroke-linejoin: miter"/>
   </g>
   <g id="patch_25">
    <path d="M 340.391337 136.104498 
L 348.689623 136.104498 
L 348.689623 123.349703 
L 340.391337 123.349703 
z
" clip-path="url(#p61e29b1683)" style="fill: #1f8a56; stroke: #1f8a56; stroke-linejoin: miter"/>
   </g>
   <g id="patch_26">
    <path d="M 354.221813 118.489551 
L 362.520099 118.489551 
L 362.520099 112.01955 
L 354.221813 112.01955 
z
" clip-path="url(#p61e29b1683)" style="fill: #b91c1c; stroke: #b91c1c; stroke-linejoin: miter"/>
   </g>
   <g id="patch_27">
    <path d="M 368.052289 126.721045 
L 376.350575 126.721045 
L 376.350575 115.856253 
L 368.052289 115.856253 
z
" clip-path="url(#p61e29b1683)" style="fill: #b91c1c; stroke: #b91c1c; stroke-linejoin: miter"/>
   </g>
   <g id="patch_28">
    <path d="M 381.882765 127.587725 
L 390.181051 127.587725 
L 390.181051 120.389802 
L 381.882765 120.389802 
z
" clip-path="url(#p61e29b1683)" style="fill: #1f8a56; stroke: #1f8a56; stroke-linejoin: miter"/>
   </g>
   <g id="patch_29">
    <path d="M 395.713241 127.186914 
L 404.011527 127.186914 
L 404.011527 120.716912 
L 395.713241 120.716912 
z
" clip-path="url(#p61e29b1683)" style="fill: #b91c1c; stroke: #b91c1c; stroke-linejoin: miter"/>
   </g>
   <g id="patch_30">
    <path d="M 409.543717 134.409188 
L 417.842003 134.409188 
L 417.842003 127.939187 
L 409.543717 127.939187 
z
" clip-path="url(#p61e29b1683)" style="fill: #b91c1c; stroke: #b91c1c; stroke-linejoin: miter"/>
   </g>
   <g id="patch_31">
    <path d="M 423.374193 135.322109 
L 431.672479 135.322109 
L 431.672479 112.405274 
L 423.374193 112.405274 
z
" clip-path="url(#p61e29b1683)" style="fill: #1f8a56; stroke: #1f8a56; stroke-linejoin: miter"/>
   </g>
   <g id="patch_32">
    <path d="M 437.204669 117.116908 
L 445.502955 117.116908 
L 445.502955 107.68035 
L 437.204669 107.68035 
z
" clip-path="url(#p61e29b1683)" style="fill: #b91c1c; stroke: #b91c1c; stroke-linejoin: miter"/>
   </g>
   <g id="patch_33">
    <path d="M 451.035145 112.563576 
L 459.333431 112.563576 
L 459.333431 102.177922 
L 451.035145 102.177922 
z
" clip-path="url(#p61e29b1683)" style="fill: #1f8a56; stroke: #1f8a56; stroke-linejoin: miter"/>
   </g>
   <g id="patch_34">
    <path d="M 464.865621 109.080961 
L 473.163907 109.080961 
L 473.163907 95.479001 
L 464.865621 95.479001 
z
" clip-path="url(#p61e29b1683)" style="fill: #1f8a56; stroke: #1f8a56; stroke-linejoin: miter"/>
   </g>
   <g id="patch_35">
    <path d="M 478.696097 97.675273 
L 486.994383 97.675273 
L 486.994383 91.205272 
L 478.696097 91.205272 
z
" clip-path="url(#p61e29b1683)" style="fill: #b91c1c; stroke: #b91c1c; stroke-linejoin: miter"/>
   </g>
   <g id="patch_36">
    <path d="M 492.526573 103.400129 
L 500.824859 103.400129 
L 500.824859 95.087632 
L 492.526573 95.087632 
z
" clip-path="url(#p61e29b1683)" style="fill: #1f8a56; stroke: #1f8a56; stroke-linejoin: miter"/>
   </g>
   <g id="patch_37">
    <path d="M 506.357049 94.11624 
L 514.655335 94.11624 
L 514.655335 65.114904 
L 506.357049 65.114904 
z
" clip-path="url(#p61e29b1683)" style="fill: #1f8a56; stroke: #1f8a56; stroke-linejoin: miter"/>
   </g>
   <g id="patch_38">
    <path d="M 520.187525 104.254466 
L 528.485811 104.254466 
L 528.485811 61.673514 
L 520.187525 61.673514 
z
" clip-path="url(#p61e29b1683)" style="fill: #b91c1c; stroke: #b91c1c; stroke-linejoin: miter"/>
   </g>
   <g id="patch_39">
    <path d="M 534.018001 105.290161 
L 542.316287 105.290161 
L 542.316287 68.18542 
L 534.018001 68.18542 
z
" clip-path="url(#p61e29b1683)" style="fill: #1f8a56; stroke: #1f8a56; stroke-linejoin: miter"/>
   </g>
   <g id="patch_40">
    <path d="M 547.848477 75.715003 
L 556.146763 75.715003 
L 556.146763 69.245001 
L 547.848477 69.245001 
z
" clip-path="url(#p61e29b1683)" style="fill: #b91c1c; stroke: #b91c1c; stroke-linejoin: miter"/>
   </g>
   <g id="patch_41">
    <path d="M 561.678953 70.799312 
L 569.977239 70.799312 
L 569.977239 54.91671 
L 561.678953 54.91671 
z
" clip-path="url(#p61e29b1683)" style="fill: #1f8a56; stroke: #1f8a56; stroke-linejoin: miter"/>
   </g>
   <g id="patch_42">
    <path d="M 575.509429 53.933354 
L 583.807715 53.933354 
L 583.807715 47.463352 
L 575.509429 47.463352 
z
" clip-path="url(#p61e29b1683)" style="fill: #1f8a56; stroke: #1f8a56; stroke-linejoin: miter"/>
   </g>
   <g id="patch_43">
    <path d="M 589.339905 50.991206 
L 597.638191 50.991206 
L 597.638191 25.676069 
L 589.339905 25.676069 
z
" clip-path="url(#p61e29b1683)" style="fill: #1f8a56; stroke: #1f8a56; stroke-linejoin: miter"/>
   </g>
   <g id="patch_44">
    <path d="M 603.170381 28.032191 
L 611.468667 28.032191 
L 611.468667 21.562189 
L 603.170381 21.562189 
z
" clip-path="url(#p61e29b1683)" style="fill: #1f8a56; stroke: #1f8a56; stroke-linejoin: miter"/>
   </g>
  </g>
  <g id="axes_2">
   <g id="patch_45">
    <path d="M 54.100484 374.200262 
L 621.15 374.200262 
L 621.15 255.583583 
L 54.100484 255.583583 
z
" style="fill: #ffffff"/>
   </g>
   <g id="matplotlib.axis_3"/>
   <g id="matplotlib.axis_4">
    <g id="ytick_6">
     <g id="line2d_51">
      <g>
       <use xlink:href="#mab4b77ba61" x="54.100484" y="368.808595" style="fill: #555555; stroke: #555555; stroke-width: 0.8"/>
      </g>
     </g>
     <g id="text_7">
      <text style="font-size: 10.5px; font-family: 'Noto Naskh Arabic', 'DejaVu Sans'; text-anchor: end; fill: #555555" x="47.100484" y="374.420845" transform="rotate(-0 47.100484 374.420845)">30</text>
     </g>
    </g>
    <g id="ytick_7">
     <g id="line2d_52">
      <g>
       <use xlink:href="#mab4b77ba61" x="54.100484" y="343.487044" style="fill: #555555; stroke: #555555; stroke-width: 0.8"/>
      </g>
     </g>
     <g id="text_8">
      <text style="font-size: 10.5px; font-family: 'Noto Naskh Arabic', 'DejaVu Sans'; text-anchor: end; fill: #555555" x="47.100484" y="349.099294" transform="rotate(-0 47.100484 349.099294)">40</text>
     </g>
    </g>
    <g id="ytick_8">
     <g id="line2d_53">
      <g>
       <use xlink:href="#mab4b77ba61" x="54.100484" y="318.165493" style="fill: #555555; stroke: #555555; stroke-width: 0.8"/>
      </g>
     </g>
     <g id="text_9">
      <text style="font-size: 10.5px; font-family: 'Noto Naskh Arabic', 'DejaVu Sans'; text-anchor: end; fill: #555555" x="47.100484" y="323.777743" transform="rotate(-0 47.100484 323.777743)">50</text>
     </g>
    </g>
    <g id="ytick_9">
     <g id="line2d_54">
      <g>
       <use xlink:href="#mab4b77ba61" x="54.100484" y="292.843942" style="fill: #555555; stroke: #555555; stroke-width: 0.8"/>
      </g>
     </g>
     <g id="text_10">
      <text style="font-size: 10.5px; font-family: 'Noto Naskh Arabic', 'DejaVu Sans'; text-anchor: end; fill: #555555" x="47.100484" y="298.456192" transform="rotate(-0 47.100484 298.456192)">60</text>
     </g>
    </g>
    <g id="ytick_10">
     <g id="line2d_55">
      <g>
       <use xlink:href="#mab4b77ba61" x="54.100484" y="267.522391" style="fill: #555555; stroke: #555555; stroke-width: 0.8"/>
      </g>
     </g>
     <g id="text_11">
      <text style="font-size: 10.5px; font-family: 'Noto Naskh Arabic', 'DejaVu Sans'; text-anchor: end; fill: #555555" x="47.100484" y="273.134641" transform="rotate(-0 47.100484 273.134641)">70</text>
     </g>
    </g>
    <g id="text_12">
     <text style="font-size: 10.5px; font-family: 'Noto Naskh Arabic', 'DejaVu Sans'; text-anchor: middle; fill: #1f2937" x="24.430828" y="314.891922" transform="rotate(-90 24.430828 314.891922)">RSI</text>
    </g>
   </g>
   <g id="line2d_56">
    <path d="M 79.875462 283.091884 
L 93.0934 283.091884 
L 106.311337 283.091884 
L 119.529275 283.091884 
L 132.747212 283.091884 
L 145.965149 283.091884 
L 159.183087 283.091884 
L 172.401024 283.091884 
L 185.618962 283.091884 
L 198.836899 283.091884 
L 212.054837 283.091884 
L 225.272774 283.091884 
L 238.490711 283.091884 
L 251.708649 283.091884 
L 264.926586 290.965975 
L 278.144524 293.074412 
L 291.362461 294.057788 
L 304.580399 290.192577 
L 317.798336 275.737997 
L 331.016273 287.591206 
L 344.234211 280.453632 
L 357.452148 278.181324 
L 370.670086 285.602329 
L 383.888023 282.255746 
L 397.105961 288.67786 
L 410.323898 295.430836 
L 423.541835 282.519409 
L 436.759773 287.040562 
L 449.97771 278.745076 
L 463.195648 275.23441 
L 476.413585 277.610925 
L 489.631523 276.107144 
L 502.84946 260.97525 
L 516.067397 297.932776 
L 529.285335 287.832856 
L 542.503272 296.803193 
L 555.72121 290.678353 
L 568.939147 292.662018 
L 582.157085 285.163142 
L 595.375022 287.099124 
" clip-path="url(#p309e9bbb28)" style="fill: none; stroke: #b7791f; stroke-width: 1.8; stroke-linecap: square"/>
   </g>
   <g id="line2d_57">
    <path d="M 54.100484 267.522391 
L 621.15 267.522391 
" clip-path="url(#p309e9bbb28)" style="fill: none; stroke-dasharray: 1,1.65; stroke-dashoffset: 0; stroke: #8a8f98"/>
   </g>
   <g id="line2d_58">
    <path d="M 54.100484 368.808595 
L 621.15 368.808595 
" clip-path="url(#p309e9bbb28)" style="fill: none; stroke-dasharray: 1,1.65; stroke-dashoffset: 0; stroke: #8a8f98"/>
   </g>
   <g id="patch_46">
    <path d="M 54.100484 374.200262 
L 54.100484 255.583583 
" style="fill: none; stroke: #1f2937; stroke-width: 0.8; stroke-linejoin: miter; stroke-linecap: square"/>
   </g>
   <g id="patch_47">
    <path d="M 54.100484 374.200262 
L 621.15 374.200262 
" style="fill: none; stroke: #1f2937; stroke-width: 0.8; stroke-linejoin: miter; stroke-linecap: square"/>
   </g>
  </g>
  <g id="axes_3">
   <g id="patch_48">
    <path d="M 54.100484 502.358248 
L 621.15 502.358248 
L 621.15 383.741568 
L 54.100484 383.741568 
z
" style="fill: #ffffff"/>
   </g>
   <g id="patch_49">
    <path d="M 79.875462 470.387456 
L 88.964875 470.387456 
L 88.964875 470.387456 
L 79.875462 470.387456 
z
" clip-path="url(#p5e5d8be3be)" style="fill: #1f8a56"/>
   </g>
   <g id="patch_50">
    <path d="M 92.860338 470.387456 
L 101.949751 470.387456 
L 101.949751 470.387456 
L 92.860338 470.387456 
z
" clip-path="url(#p5e5d8be3be)" style="fill: #1f8a56"/>
   </g>
   <g id="patch_51">
    <path d="M 105.845213 470.387456 
L 114.934626 470.387456 
L 114.934626 470.387456 
L 105.845213 470.387456 
z
" clip-path="url(#p5e5d8be3be)" style="fill: #1f8a56"/>
   </g>
   <g id="patch_52">
    <path d="M 118.830089 470.387456 
L 127.919502 470.387456 
L 127.919502 464.387284 
L 118.830089 464.387284 
z
" clip-path="url(#p5e5d8be3be)" style="fill: #1f8a56"/>
   </g>
   <g id="patch_53">
    <path d="M 131.814965 470.387456 
L 140.904377 470.387456 
L 140.904377 449.493153 
L 131.814965 449.493153 
z
" clip-path="url(#p5e5d8be3be)" style="fill: #1f8a56"/>
   </g>
   <g id="patch_54">
    <path d="M 144.79984 470.387456 
L 153.889253 470.387456 
L 153.889253 466.701939 
L 144.79984 466.701939 
z
" clip-path="url(#p5e5d8be3be)" style="fill: #1f8a56"/>
   </g>
   <g id="patch_55">
    <path d="M 157.784716 470.387456 
L 166.874129 470.387456 
L 166.874129 450.287231 
L 157.784716 450.287231 
z
" clip-path="url(#p5e5d8be3be)" style="fill: #1f8a56"/>
   </g>
   <g id="patch_56">
    <path d="M 170.769591 470.387456 
L 179.859004 470.387456 
L 179.859004 447.973924 
L 170.769591 447.973924 
z
" clip-path="url(#p5e5d8be3be)" style="fill: #1f8a56"/>
   </g>
   <g id="patch_57">
    <path d="M 183.754467 470.387456 
L 192.84388 470.387456 
L 192.84388 467.97539 
L 183.754467 467.97539 
z
" clip-path="url(#p5e5d8be3be)" style="fill: #1f8a56"/>
   </g>
   <g id="patch_58">
    <path d="M 196.739342 470.387456 
L 205.828755 470.387456 
L 205.828755 487.94049 
L 196.739342 487.94049 
z
" clip-path="url(#p5e5d8be3be)" style="fill: #b91c1c"/>
   </g>
   <g id="patch_59">
    <path d="M 209.724218 470.387456 
L 218.813631 470.387456 
L 218.813631 489.510074 
L 209.724218 489.510074 
z
" clip-path="url(#p5e5d8be3be)" style="fill: #b91c1c"/>
   </g>
   <g id="patch_60">
    <path d="M 222.709093 470.387456 
L 231.798506 470.387456 
L 231.798506 477.461093 
L 222.709093 477.461093 
z
" clip-path="url(#p5e5d8be3be)" style="fill: #b91c1c"/>
   </g>
   <g id="patch_61">
    <path d="M 235.693969 470.387456 
L 244.783382 470.387456 
L 244.783382 480.356128 
L 235.693969 480.356128 
z
" clip-path="url(#p5e5d8be3be)" style="fill: #b91c1c"/>
   </g>
   <g id="patch_62">
    <path d="M 248.678845 470.387456 
L 257.768258 470.387456 
L 257.768258 455.599701 
L 248.678845 455.599701 
z
" clip-path="url(#p5e5d8be3be)" style="fill: #1f8a56"/>
   </g>
   <g id="patch_63">
    <path d="M 261.66372 470.387456 
L 270.753133 470.387456 
L 270.753133 454.04748 
L 261.66372 454.04748 
z
" clip-path="url(#p5e5d8be3be)" style="fill: #1f8a56"/>
   </g>
   <g id="patch_64">
    <path d="M 274.648596 470.387456 
L 283.738009 470.387456 
L 283.738009 460.293106 
L 274.648596 460.293106 
z
" clip-path="url(#p5e5d8be3be)" style="fill: #1f8a56"/>
   </g>
   <g id="patch_65">
    <path d="M 287.633471 470.387456 
L 296.722884 470.387456 
L 296.722884 488.84443 
L 287.633471 488.84443 
z
" clip-path="url(#p5e5d8be3be)" style="fill: #b91c1c"/>
   </g>
   <g id="patch_66">
    <path d="M 300.618347 470.387456 
L 309.70776 470.387456 
L 309.70776 485.775179 
L 300.618347 485.775179 
z
" clip-path="url(#p5e5d8be3be)" style="fill: #b91c1c"/>
   </g>
   <g id="patch_67">
    <path d="M 313.603222 470.387456 
L 322.692635 470.387456 
L 322.692635 468.464785 
L 313.603222 468.464785 
z
" clip-path="url(#p5e5d8be3be)" style="fill: #1f8a56"/>
   </g>
   <g id="patch_68">
    <path d="M 326.588098 470.387456 
L 335.677511 470.387456 
L 335.677511 456.108758 
L 326.588098 456.108758 
z
" clip-path="url(#p5e5d8be3be)" style="fill: #1f8a56"/>
   </g>
   <g id="patch_69">
    <path d="M 339.572974 470.387456 
L 348.662386 470.387456 
L 348.662386 449.861576 
L 339.572974 449.861576 
z
" clip-path="url(#p5e5d8be3be)" style="fill: #1f8a56"/>
   </g>
   <g id="patch_70">
    <path d="M 352.557849 470.387456 
L 361.647262 470.387456 
L 361.647262 463.470918 
L 352.557849 463.470918 
z
" clip-path="url(#p5e5d8be3be)" style="fill: #1f8a56"/>
   </g>
   <g id="patch_71">
    <path d="M 365.542725 470.387456 
L 374.632138 470.387456 
L 374.632138 468.634444 
L 365.542725 468.634444 
z
" clip-path="url(#p5e5d8be3be)" style="fill: #1f8a56"/>
   </g>
   <g id="patch_72">
    <path d="M 378.5276 470.387456 
L 387.617013 470.387456 
L 387.617013 480.787083 
L 378.5276 480.787083 
z
" clip-path="url(#p5e5d8be3be)" style="fill: #b91c1c"/>
   </g>
   <g id="patch_73">
    <path d="M 391.512476 470.387456 
L 400.601889 470.387456 
L 400.601889 493.683683 
L 391.512476 493.683683 
z
" clip-path="url(#p5e5d8be3be)" style="fill: #b91c1c"/>
   </g>
   <g id="patch_74">
    <path d="M 404.497351 470.387456 
L 413.586764 470.387456 
L 413.586764 496.966581 
L 404.497351 496.966581 
z
" clip-path="url(#p5e5d8be3be)" style="fill: #b91c1c"/>
   </g>
   <g id="patch_75">
    <path d="M 417.482227 470.387456 
L 426.57164 470.387456 
L 426.57164 481.237726 
L 417.482227 481.237726 
z
" clip-path="url(#p5e5d8be3be)" style="fill: #b91c1c"/>
   </g>
   <g id="patch_76">
    <path d="M 430.467102 470.387456 
L 439.556515 470.387456 
L 439.556515 470.713058 
L 430.467102 470.713058 
z
" clip-path="url(#p5e5d8be3be)" style="fill: #b91c1c"/>
   </g>
   <g id="patch_77">
    <path d="M 443.451978 470.387456 
L 452.541391 470.387456 
L 452.541391 448.538921 
L 443.451978 448.538921 
z
" clip-path="url(#p5e5d8be3be)" style="fill: #1f8a56"/>
   </g>
   <g id="patch_78">
    <path d="M 456.436854 470.387456 
L 465.526266 470.387456 
L 465.526266 449.924235 
L 456.436854 449.924235 
z
" clip-path="url(#p5e5d8be3be)" style="fill: #1f8a56"/>
   </g>
   <g id="patch_79">
    <path d="M 469.421729 470.387456 
L 478.511142 470.387456 
L 478.511142 452.3892 
L 469.421729 452.3892 
z
" clip-path="url(#p5e5d8be3be)" style="fill: #1f8a56"/>
   </g>
   <g id="patch_80">
    <path d="M 482.406605 470.387456 
L 491.496018 470.387456 
L 491.496018 465.463609 
L 482.406605 465.463609 
z
" clip-path="url(#p5e5d8be3be)" style="fill: #1f8a56"/>
   </g>
   <g id="patch_81">
    <path d="M 495.39148 470.387456 
L 504.480893 470.387456 
L 504.480893 463.620765 
L 495.39148 463.620765 
z
" clip-path="url(#p5e5d8be3be)" style="fill: #1f8a56"/>
   </g>
   <g id="patch_82">
    <path d="M 508.376356 470.387456 
L 517.465769 470.387456 
L 517.465769 481.717835 
L 508.376356 481.717835 
z
" clip-path="url(#p5e5d8be3be)" style="fill: #b91c1c"/>
   </g>
   <g id="patch_83">
    <path d="M 521.361231 470.387456 
L 530.450644 470.387456 
L 530.450644 469.77287 
L 521.361231 469.77287 
z
" clip-path="url(#p5e5d8be3be)" style="fill: #1f8a56"/>
   </g>
   <g id="patch_84">
    <path d="M 534.346107 470.387456 
L 543.43552 470.387456 
L 543.43552 490.844696 
L 534.346107 490.844696 
z
" clip-path="url(#p5e5d8be3be)" style="fill: #b91c1c"/>
   </g>
   <g id="patch_85">
    <path d="M 547.330982 470.387456 
L 556.420395 470.387456 
L 556.420395 456.074161 
L 547.330982 456.074161 
z
" clip-path="url(#p5e5d8be3be)" style="fill: #1f8a56"/>
   </g>
   <g id="patch_86">
    <path d="M 560.315858 470.387456 
L 569.405271 470.387456 
L 569.405271 460.662442 
L 560.315858 460.662442 
z
" clip-path="url(#p5e5d8be3be)" style="fill: #1f8a56"/>
   </g>
   <g id="patch_87">
    <path d="M 573.300734 470.387456 
L 582.390146 470.387456 
L 582.390146 443.346374 
L 573.300734 443.346374 
z
" clip-path="url(#p5e5d8be3be)" style="fill: #1f8a56"/>
   </g>
   <g id="patch_88">
    <path d="M 586.285609 470.387456 
L 595.375022 470.387456 
L 595.375022 453.891659 
L 586.285609 453.891659 
z
" clip-path="url(#p5e5d8be3be)" style="fill: #1f8a56"/>
   </g>
   <g id="matplotlib.axis_5">
    <g id="xtick_1">
     <g id="line2d_59">
      <defs>
       <path id="mf73da5dae9" d="M 0 0 
L 0 3.5 
" style="stroke: #555555; stroke-width: 0.8"/>
      </defs>
      <g>
       <use xlink:href="#mf73da5dae9" x="84.420169" y="502.358248" style="fill: #555555; stroke: #555555; stroke-width: 0.8"/>
      </g>
     </g>
     <g id="text_13">
      <text style="font-size: 10.5px; font-family: 'Noto Naskh Arabic', 'DejaVu Sans'; text-anchor: middle; fill: #555555" x="84.420169" y="520.582748" transform="rotate(-0 84.420169 520.582748)">0</text>
     </g>
    </g>
    <g id="xtick_2">
     <g id="line2d_60">
      <g>
       <use xlink:href="#mf73da5dae9" x="149.344547" y="502.358248" style="fill: #555555; stroke: #555555; stroke-width: 0.8"/>
      </g>
     </g>
     <g id="text_14">
      <text style="font-size: 10.5px; font-family: 'Noto Naskh Arabic', 'DejaVu Sans'; text-anchor: middle; fill: #555555" x="149.344547" y="520.582748" transform="rotate(-0 149.344547 520.582748)">5</text>
     </g>
    </g>
    <g id="xtick_3">
     <g id="line2d_61">
      <g>
       <use xlink:href="#mf73da5dae9" x="214.268924" y="502.358248" style="fill: #555555; stroke: #555555; stroke-width: 0.8"/>
      </g>
     </g>
     <g id="text_15">
      <text style="font-size: 10.5px; font-family: 'Noto Naskh Arabic', 'DejaVu Sans'; text-anchor: middle; fill: #555555" x="214.268924" y="520.582748" transform="rotate(-0 214.268924 520.582748)">10</text>
     </g>
    </g>
    <g id="xtick_4">
     <g id="line2d_62">
      <g>
       <use xlink:href="#mf73da5dae9" x="279.193302" y="502.358248" style="fill: #555555; stroke: #555555; stroke-width: 0.8"/>
      </g>
     </g>
     <g id="text_16">
      <text style="font-size: 10.5px; font-family: 'Noto Naskh Arabic', 'DejaVu Sans'; text-anchor: middle; fill: #555555" x="279.193302" y="520.582748" transform="rotate(-0 279.193302 520.582748)">15</text>
     </g>
    </g>
    <g id="xtick_5">
     <g id="line2d_63">
      <g>
       <use xlink:href="#mf73da5dae9" x="344.11768" y="502.358248" style="fill: #555555; stroke: #555555; stroke-width: 0.8"/>
      </g>
     </g>
     <g id="text_17">
      <text style="font-size: 10.5px; font-family: 'Noto Naskh Arabic', 'DejaVu Sans'; text-anchor: middle; fill: #555555" x="344.11768" y="520.582748" transform="rotate(-0 344.11768 520.582748)">20</text>
     </g>
    </g>
    <g id="xtick_6">
     <g id="line2d_64">
      <g>
       <use xlink:href="#mf73da5dae9" x="409.042058" y="502.358248" style="fill: #555555; stroke: #555555; stroke-width: 0.8"/>
      </g>
     </g>
     <g id="text_18">
      <text style="font-size: 10.5px; font-family: 'Noto Naskh Arabic', 'DejaVu Sans'; text-anchor: middle; fill: #555555" x="409.042058" y="520.582748" transform="rotate(-0 409.042058 520.582748)">25</text>
     </g>
    </g>
    <g id="xtick_7">
     <g id="line2d_65">
      <g>
       <use xlink:href="#mf73da5dae9" x="473.966436" y="502.358248" style="fill: #555555; stroke: #555555; stroke-width: 0.8"/>
      </g>
     </g>
     <g id="text_19">
      <text style="font-size: 10.5px; font-family: 'Noto Naskh Arabic', 'DejaVu Sans'; text-anchor: middle; fill: #555555" x="473.966436" y="520.582748" transform="rotate(-0 473.966436 520.582748)">30</text>
     </g>
    </g>
    <g id="xtick_8">
     <g id="line2d_66">
      <g>
       <use xlink:href="#mf73da5dae9" x="538.890813" y="502.358248" style="fill: #555555; stroke: #555555; stroke-width: 0.8"/>
      </g>
     </g>
     <g id="text_20">
      <text style="font-size: 10.5px; font-family: 'Noto Naskh Arabic', 'DejaVu Sans'; text-anchor: middle; fill: #555555" x="538.890813" y="520.582748" transform="rotate(-0 538.890813 520.582748)">35</text>
     </g>
    </g>
    <g id="xtick_9">
     <g id="line2d_67">
      <g>
       <use xlink:href="#mf73da5dae9" x="603.815191" y="502.358248" style="fill: #555555; stroke: #555555; stroke-width: 0.8"/>
      </g>
     </g>
     <g id="text_21">
      <text style="font-size: 10.5px; font-family: 'Noto Naskh Arabic', 'DejaVu Sans'; text-anchor: middle; fill: #555555" x="603.815191" y="520.582748" transform="rotate(-0 603.815191 520.582748)">40</text>
     </g>
    </g>
    <g id="text_22">
     <text style="font-size: 10.5px; font-family: 'Noto Naskh Arabic', 'DejaVu Sans'; text-anchor: middle; fill: #1f2937" x="337.625242" y="542.464248" transform="rotate(-0 337.625242 542.464248)">​ﻦﻣﺰﻟﺍ</text>
    </g>
   </g>
   <g id="matplotlib.axis_6">
    <g id="ytick_11">
     <g id="line2d_68">
      <g>
       <use xlink:href="#mab4b77ba61" x="54.100484" y="470.387456" style="fill: #555555; stroke: #555555; stroke-width: 0.8"/>
      </g>
     </g>
     <g id="text_23">
      <text style="font-size: 10.5px; font-family: 'Noto Naskh Arabic', 'DejaVu Sans'; text-anchor: end; fill: #555555" x="47.100484" y="475.999706" transform="rotate(-0 47.100484 475.999706)">0.0</text>
     </g>
    </g>
    <g id="ytick_12">
     <g id="line2d_69">
      <g>
       <use xlink:href="#mab4b77ba61" x="54.100484" y="430.102547" style="fill: #555555; stroke: #555555; stroke-width: 0.8"/>
      </g>
     </g>
     <g id="text_24">
      <text style="font-size: 10.5px; font-family: 'Noto Naskh Arabic', 'DejaVu Sans'; text-anchor: end; fill: #555555" x="47.100484" y="435.714797" transform="rotate(-0 47.100484 435.714797)">0.5</text>
     </g>
    </g>
    <g id="ytick_13">
     <g id="line2d_70">
      <g>
       <use xlink:href="#mab4b77ba61" x="54.100484" y="389.817638" style="fill: #555555; stroke: #555555; stroke-width: 0.8"/>
      </g>
     </g>
     <g id="text_25">
      <text style="font-size: 10.5px; font-family: 'Noto Naskh Arabic', 'DejaVu Sans'; text-anchor: end; fill: #555555" x="47.100484" y="395.429888" transform="rotate(-0 47.100484 395.429888)">1.0</text>
     </g>
    </g>
    <g id="text_26">
     <text style="font-size: 10.5px; font-family: 'Noto Naskh Arabic', 'DejaVu Sans'; text-anchor: middle; fill: #1f2937" x="22.268484" y="443.049908" transform="rotate(-90 22.268484 443.049908)">MACD</text>
    </g>
   </g>
   <g id="line2d_71">
    <path d="M 84.420169 470.387456 
L 97.405044 470.387456 
L 110.38992 470.387456 
L 123.374795 462.387226 
L 136.359671 439.861642 
L 149.344547 452.631419 
L 162.329422 424.826463 
L 175.314298 409.221799 
L 188.299173 425.677139 
L 201.284049 443.312512 
L 214.268924 451.567307 
L 227.2538 449.617169 
L 240.238676 461.457225 
L 253.223551 434.496894 
L 266.208427 426.737128 
L 279.193302 427.43795 
L 292.178178 454.166623 
L 305.163053 456.630865 
L 318.147929 443.514918 
L 331.132804 432.399205 
L 344.11768 416.813823 
L 357.102556 421.687265 
L 370.087431 421.296082 
L 383.072307 433.79856 
L 396.057182 456.655606 
L 409.042058 472.688916 
L 422.026933 468.848054 
L 435.011809 466.498328 
L 447.996684 440.21372 
L 460.98156 431.23574 
L 473.966436 421.984921 
L 486.951311 424.579664 
L 499.936187 416.911188 
L 512.921062 436.265763 
L 525.905938 425.099424 
L 538.890813 453.368446 
L 551.875689 419.160151 
L 564.860564 419.575989 
L 577.84544 394.646753 
L 590.830316 389.133236 
" clip-path="url(#p5e5d8be3be)" style="fill: none; stroke: #1f2937; stroke-width: 1.5; stroke-linecap: square"/>
   </g>
   <g id="line2d_72">
    <path d="M 84.420169 470.387456 
L 97.405044 470.387456 
L 110.38992 470.387456 
L 123.374795 468.387398 
L 136.359671 460.755945 
L 149.344547 456.316936 
L 162.329422 444.926687 
L 175.314298 431.635331 
L 188.299173 428.089205 
L 201.284049 425.759478 
L 214.268924 432.444689 
L 227.2538 442.543532 
L 240.238676 451.488553 
L 253.223551 449.284649 
L 266.208427 443.077104 
L 279.193302 437.532299 
L 292.178178 435.709649 
L 305.163053 441.243141 
L 318.147929 445.437589 
L 331.132804 446.677903 
L 344.11768 437.339703 
L 357.102556 428.603803 
L 370.087431 423.049094 
L 383.072307 423.398933 
L 396.057182 433.359378 
L 409.042058 446.109791 
L 422.026933 457.997784 
L 435.011809 466.172726 
L 447.996684 462.062254 
L 460.98156 451.69896 
L 473.966436 439.983177 
L 486.951311 429.503511 
L 499.936187 423.677878 
L 512.921062 424.935384 
L 525.905938 425.71401 
L 538.890813 432.911205 
L 551.875689 433.473446 
L 564.860564 429.301003 
L 577.84544 421.687835 
L 590.830316 405.629032 
" clip-path="url(#p5e5d8be3be)" style="fill: none; stroke-dasharray: 4.81,2.08; stroke-dashoffset: 0; stroke: #b91c1c; stroke-width: 1.3"/>
   </g>
   <g id="patch_89">
    <path d="M 54.100484 502.358248 
L 54.100484 383.741568 
" style="fill: none; stroke: #1f2937; stroke-width: 0.8; stroke-linejoin: miter; stroke-linecap: square"/>
   </g>
   <g id="patch_90">
    <path d="M 54.100484 502.358248 
L 621.15 502.358248 
" style="fill: none; stroke: #1f2937; stroke-width: 0.8; stroke-linejoin: miter; stroke-linecap: square"/>
   </g>
  </g>
 </g>
 <defs>
  <clipPath id="p61e29b1683">
   <rect x="54.100484" y="8.808918" width="567.049516" height="237.233359"/>
  </clipPath>
  <clipPath id="p309e9bbb28">
   <rect x="54.100484" y="255.583583" width="567.049516" height="118.616679"/>
  </clipPath>
  <clipPath id="p5e5d8be3be">
   <rect x="54.100484" y="383.741568" width="567.049516" height="118.616679"/>
  </clipPath>
 </defs>
</svg>
