<?xml version="1.0" encoding="utf-8" standalone="no"?>
<!DOCTYPE svg PUBLIC "-//W3C//DTD SVG 1.1//EN"
  "http://www.w3.org/Graphics/SVG/1.1/DTD/svg11.dtd">
<svg xmlns:xlink="http://www.w3.org/1999/xlink" width="628.35pt" height="354.624598pt" viewBox="0 0 628.35 354.624598" xmlns="http://www.w3.org/2000/svg" version="1.1">
 <metadata>
  <rdf:RDF xmlns:dc="http://purl.org/dc/elements/1.1/" xmlns:cc="http://creativecommons.org/ns#" xmlns:rdf="http://www.w3.org/1999/02/22-rdf-syntax-ns#">
   <cc:Work>
    <dc:type rdf:resource="http://purl.org/dc/dcmitype/StillImage"/>
    <dc:date>2026-07-19T04:29:53.586758</dc:date>
    <dc:format>image/svg+xml</dc:format>
    <dc:creator>
     <cc:Agent>
      <dc:title>Matplotlib v3.11.1, https://matplotlib.org/</dc:title>
     </cc:Agent>
    </dc:creator>
   </cc:Work>
  </rdf:RDF>
 </metadata>
 <defs>
  <style type="text/css">*{stroke-linejoin: round; stroke-linecap: butt}</style>
 </defs>
 <g id="figure_1">
  <g id="patch_1">
   <path d="M 0 354.624598 
L 628.35 354.624598 
L 628.35 0 
L 0 0 
z
" style="fill: #ffffff"/>
  </g>
  <g id="axes_1">
   <g id="patch_2">
    <path d="M 7.2 322.394598 
L 569.101016 322.394598 
L 569.101016 11.934371 
L 7.2 11.934371 
z
" style="fill: #ffffff"/>
   </g>
   <g id="matplotlib.axis_1">
    <g id="text_1">
     <text style="font-size: 10px; font-family: 'Noto Naskh Arabic', 'DejaVu Sans'; text-anchor: middle; fill: #1f2937" x="288.150508" y="341.084598" transform="rotate(-0 288.150508 341.084598)">​ﻦﻣﺰﻟﺍ</text>
    </g>
   </g>
   <g id="matplotlib.axis_2">
    <g id="ytick_1">
     <g id="line2d_1">
      <path d="M 7.2 318.939037 
L 569.101016 318.939037 
" clip-path="url(#p09087290e9)" style="fill: none; stroke: #e6e1d6; stroke-width: 0.8; stroke-linecap: square"/>
     </g>
     <g id="line2d_2">
      <defs>
       <path id="mae19e09df9" d="M 0 0 
L 3.5 0 
" style="stroke: #555555; stroke-width: 0.8"/>
      </defs>
      <g>
       <use xlink:href="#mae19e09df9" x="569.101016" y="318.939037" style="fill: #555555; stroke: #555555; stroke-width: 0.8"/>
      </g>
     </g>
     <g id="text_2">
      <text style="font-size: 10.5px; font-family: 'Noto Naskh Arabic', 'DejaVu Sans'; text-anchor: start; fill: #555555" x="576.101016" y="324.551287" transform="rotate(-0 576.101016 324.551287)">98</text>
     </g>
    </g>
    <g id="ytick_2">
     <g id="line2d_3">
      <path d="M 7.2 280.673188 
L 569.101016 280.673188 
" clip-path="url(#p09087290e9)" style="fill: none; stroke: #e6e1d6; stroke-width: 0.8; stroke-linecap: square"/>
     </g>
     <g id="line2d_4">
      <g>
       <use xlink:href="#mae19e09df9" x="569.101016" y="280.673188" style="fill: #555555; stroke: #555555; stroke-width: 0.8"/>
      </g>
     </g>
     <g id="text_3">
      <text style="font-size: 10.5px; font-family: 'Noto Naskh Arabic', 'DejaVu Sans'; text-anchor: start; fill: #555555" x="576.101016" y="286.285438" transform="rotate(-0 576.101016 286.285438)">100</text>
     </g>
    </g>
    <g id="ytick_3">
     <g id="line2d_5">
      <path d="M 7.2 242.40734 
L 569.101016 242.40734 
" clip-path="url(#p09087290e9)" style="fill: none; stroke: #e6e1d6; stroke-width: 0.8; stroke-linecap: square"/>
     </g>
     <g id="line2d_6">
      <g>
       <use xlink:href="#mae19e09df9" x="569.101016" y="242.40734" style="fill: #555555; stroke: #555555; stroke-width: 0.8"/>
      </g>
     </g>
     <g id="text_4">
      <text style="font-size: 10.5px; font-family: 'Noto Naskh Arabic', 'DejaVu Sans'; text-anchor: start; fill: #555555" x="576.101016" y="248.01959" transform="rotate(-0 576.101016 248.01959)">102</text>
     </g>
    </g>
    <g id="ytick_4">
     <g id="line2d_7">
      <path d="M 7.2 204.141492 
L 569.101016 204.141492 
" clip-path="url(#p09087290e9)" style="fill: none; stroke: #e6e1d6; stroke-width: 0.8; stroke-linecap: square"/>
     </g>
     <g id="line2d_8">
      <g>
       <use xlink:href="#mae19e09df9" x="569.101016" y="204.141492" style="fill: #555555; stroke: #555555; stroke-width: 0.8"/>
      </g>
     </g>
     <g id="text_5">
      <text style="font-size: 10.5px; font-family: 'Noto Naskh Arabic', 'DejaVu Sans'; text-anchor: start; fill: #555555" x="576.101016" y="209.753742" transform="rotate(-0 576.101016 209.753742)">104</text>
     </g>
    </g>
    <g id="ytick_5">
     <g id="line2d_9">
      <path d="M 7.2 165.875643 
L 569.101016 165.875643 
" clip-path="url(#p09087290e9)" style="fill: none; stroke: #e6e1d6; stroke-width: 0.8; stroke-linecap: square"/>
     </g>
     <g id="line2d_10">
      <g>
       <use xlink:href="#mae19e09df9" x="569.101016" y="165.875643" style="fill: #555555; stroke: #555555; stroke-width: 0.8"/>
      </g>
     </g>
     <g id="text_6">
      <text style="font-size: 10.5px; font-family: 'Noto Naskh Arabic', 'DejaVu Sans'; text-anchor: start; fill: #555555" x="576.101016" y="171.487893" transform="rotate(-0 576.101016 171.487893)">106</text>
     </g>
    </g>
    <g id="ytick_6">
     <g id="line2d_11">
      <path d="M 7.2 127.609795 
L 569.101016 127.609795 
" clip-path="url(#p09087290e9)" style="fill: none; stroke: #e6e1d6; stroke-width: 0.8; stroke-linecap: square"/>
     </g>
     <g id="line2d_12">
      <g>
       <use xlink:href="#mae19e09df9" x="569.101016" y="127.609795" style="fill: #555555; stroke: #555555; stroke-width: 0.8"/>
      </g>
     </g>
     <g id="text_7">
      <text style="font-size: 10.5px; font-family: 'Noto Naskh Arabic', 'DejaVu Sans'; text-anchor: start; fill: #555555" x="576.101016" y="133.222045" transform="rotate(-0 576.101016 133.222045)">108</text>
     </g>
    </g>
    <g id="ytick_7">
     <g id="line2d_13">
      <path d="M 7.2 89.343947 
L 569.101016 89.343947 
" clip-path="url(#p09087290e9)" style="fill: none; stroke: #e6e1d6; stroke-width: 0.8; stroke-linecap: square"/>
     </g>
     <g id="line2d_14">
      <g>
       <use xlink:href="#mae19e09df9" x="569.101016" y="89.343947" style="fill: #555555; stroke: #555555; stroke-width: 0.8"/>
      </g>
     </g>
     <g id="text_8">
      <text style="font-size: 10.5px; font-family: 'Noto Naskh Arabic', 'DejaVu Sans'; text-anchor: start; fill: #555555" x="576.101016" y="94.956197" transform="rotate(-0 576.101016 94.956197)">110</text>
     </g>
    </g>
    <g id="ytick_8">
     <g id="line2d_15">
      <path d="M 7.2 51.078098 
L 569.101016 51.078098 
" clip-path="url(#p09087290e9)" style="fill: none; stroke: #e6e1d6; stroke-width: 0.8; stroke-linecap: square"/>
     </g>
     <g id="line2d_16">
      <g>
       <use xlink:href="#mae19e09df9" x="569.101016" y="51.078098" style="fill: #555555; stroke: #555555; stroke-width: 0.8"/>
      </g>
     </g>
     <g id="text_9">
      <text style="font-size: 10.5px; font-family: 'Noto Naskh Arabic', 'DejaVu Sans'; text-anchor: start; fill: #555555" x="576.101016" y="56.690348" transform="rotate(-0 576.101016 56.690348)">112</text>
     </g>
    </g>
    <g id="ytick_9">
     <g id="line2d_17">
      <path d="M 7.2 12.81225 
L 569.101016 12.81225 
" clip-path="url(#p09087290e9)" style="fill: none; stroke: #e6e1d6; stroke-width: 0.8; stroke-linecap: square"/>
     </g>
     <g id="line2d_18">
      <g>
       <use xlink:href="#mae19e09df9" x="569.101016" y="12.81225" style="fill: #555555; stroke: #555555; stroke-width: 0.8"/>
      </g>
     </g>
     <g id="text_10">
      <text style="font-size: 10.5px; font-family: 'Noto Naskh Arabic', 'DejaVu Sans'; text-anchor: start; fill: #555555" x="576.101016" y="18.4245" transform="rotate(-0 576.101016 18.4245)">114</text>
     </g>
    </g>
    <g id="text_11">
     <text style="font-size: 10px; font-family: 'Noto Naskh Arabic', 'DejaVu Sans'; text-anchor: middle; fill: #1f2937" x="610.46" y="167.164485" transform="rotate(-270 610.46 167.164485)">​ﺮﻌﺴﻟﺍ</text>
    </g>
   </g>
   <g id="FillBetweenPolyCollection_1">
    <path d="M 18.217667 231.777915 
L 18.217667 231.777915 
L 29.235334 231.654477 
L 40.253001 228.83828 
L 51.270668 225.886554 
L 62.288335 221.810633 
L 73.306002 218.405331 
L 84.323669 213.909602 
L 95.341336 209.400606 
L 106.359003 205.96696 
L 117.37667 204.391847 
L 128.394337 200.13495 
L 139.412004 195.914966 
L 150.429671 193.035021 
L 161.447338 190.488974 
L 172.465005 187.696855 
L 183.482672 184.702875 
L 194.500339 181.330109 
L 205.518006 175.5361 
L 216.535672 168.108004 
L 227.553339 160.311211 
L 238.571006 155.899343 
L 249.588673 151.27941 
L 260.60634 146.426327 
L 271.624007 142.384484 
L 282.641674 138.680013 
L 293.659341 133.683261 
L 304.677008 129.66691 
L 315.694675 129.004631 
L 326.712342 128.72856 
L 337.730009 126.206157 
L 348.747676 123.287442 
L 359.765343 120.447684 
L 370.78301 118.553778 
L 381.800677 117.206357 
L 392.818344 117.012824 
L 403.836011 119.116152 
L 414.853678 122.321175 
L 425.871345 123.841747 
L 436.889012 123.713347 
L 440.859502 124.438472 
L 436.889012 124.404195 
L 425.871345 125.252661 
L 414.853678 126.073282 
L 403.836011 127.352326 
L 392.818344 129.566887 
L 381.800677 133.093372 
L 370.78301 136.332651 
L 359.765343 139.357585 
L 348.747676 142.706616 
L 337.730009 146.37066 
L 326.712342 150.616308 
L 315.694675 153.839989 
L 304.677008 156.823759 
L 293.659341 160.693909 
L 282.641674 165.001677 
L 271.624007 169.206098 
L 260.60634 174.058667 
L 249.588673 178.977467 
L 238.571006 183.69253 
L 227.553339 187.999505 
L 216.535672 190.928433 
L 205.518006 193.843598 
L 194.500339 196.397824 
L 183.482672 198.766361 
L 172.465005 200.705764 
L 161.447338 201.824853 
L 150.429671 202.969093 
L 139.412004 204.542308 
L 128.394337 207.442227 
L 117.37667 210.198109 
L 106.359003 211.658273 
L 95.341336 213.886223 
L 84.323669 216.867081 
L 73.306002 219.621021 
L 62.288335 221.810633 
L 51.270668 225.886554 
L 40.253001 228.83828 
L 29.235334 231.654477 
L 18.217667 231.777915 
z
" clip-path="url(#p09087290e9)" style="fill: #e0a94a; fill-opacity: 0.3; stroke: #e0a94a; stroke-opacity: 0.3"/>
    <path d="M 505.118793 122.276194 
L 514.012681 117.918965 
L 525.030348 111.654576 
L 536.048015 103.513282 
L 547.065682 97.237971 
L 558.083349 91.290544 
L 558.083349 91.290544 
L 558.083349 111.026926 
L 547.065682 113.292842 
L 536.048015 116.284032 
L 525.030348 119.439919 
L 514.012681 121.098806 
z
" clip-path="url(#p09087290e9)" style="fill: #e0a94a; fill-opacity: 0.3; stroke: #e0a94a; stroke-opacity: 0.3"/>
   </g>
   <g id="FillBetweenPolyCollection_2">
    <defs>
     <path id="m52c805b872" d="M 440.859502 -230.186126 
L 447.906679 -228.899111 
L 458.924346 -227.657714 
L 469.942013 -225.492173 
L 480.95968 -225.108339 
L 491.977347 -226.659794 
L 502.995014 -231.307937 
L 505.118793 -232.348404 
L 502.995014 -232.067254 
L 491.977347 -230.911645 
L 480.95968 -230.20668 
L 469.942013 -230.398081 
L 458.924346 -230.641381 
L 447.906679 -230.125289 
z
" style="stroke: #b0c4de; stroke-opacity: 0.3"/>
    </defs>
    <g clip-path="url(#p09087290e9)">
     <use xlink:href="#m52c805b872" x="0" y="354.624598" style="fill: #b0c4de; fill-opacity: 0.3; stroke: #b0c4de; stroke-opacity: 0.3"/>
    </g>
   </g>
   <g id="line2d_19">
    <path d="M 18.217667 279.610225 
L 29.235334 279.486787 
L 40.253001 276.67059 
L 51.270668 273.718865 
L 62.288335 269.642943 
L 73.306002 265.021952 
L 84.323669 258.784434 
L 95.341336 252.7473 
L 106.359003 248.107957 
L 117.37667 246.417896 
L 128.394337 240.659985 
L 139.412004 235.119935 
L 150.429671 233.333995 
L 161.447338 231.957009 
L 172.465005 229.553385 
L 183.482672 227.511765 
L 194.500339 224.683375 
L 205.518006 217.949623 
L 216.535672 208.250765 
L 227.553339 197.713038 
L 238.571006 192.905659 
L 249.588673 188.651364 
L 260.60634 183.532992 
L 271.624007 179.837903 
L 282.641674 177.651629 
L 293.659341 173.027469 
L 304.677008 170.169606 
L 315.694675 171.872589 
L 326.712342 173.748797 
L 337.730009 171.893831 
L 348.747676 168.710812 
L 359.765343 165.255237 
L 370.78301 163.304641 
L 381.800677 161.865266 
L 392.818344 162.33829 
L 403.836011 166.094606 
L 414.853678 171.546163 
L 425.871345 173.629664 
L 436.889012 173.494057 
L 447.906679 177.442726 
L 458.924346 179.429224 
L 469.942013 181.264301 
L 480.95968 180.194018 
L 491.977347 177.072932 
L 502.995014 169.883769 
L 514.012681 161.489822 
L 525.030348 151.023217 
L 536.048015 139.337048 
L 547.065682 132.068354 
L 558.083349 125.772161 
" clip-path="url(#p09087290e9)" style="fill: none; stroke: #b91c1c; stroke-width: 1.4; stroke-linecap: square"/>
   </g>
   <g id="line2d_20">
    <path d="M 18.217667 279.610225 
L 29.235334 279.486787 
L 40.253001 276.67059 
L 51.270668 273.718865 
L 62.288335 269.642943 
L 73.306002 267.453331 
L 84.323669 264.699392 
L 95.341336 261.718534 
L 106.359003 259.490583 
L 117.37667 258.030419 
L 128.394337 255.274537 
L 139.412004 252.374618 
L 150.429671 248.400668 
L 161.447338 244.68556 
L 172.465005 241.504946 
L 183.482672 237.558606 
L 194.500339 233.641465 
L 205.518006 228.787198 
L 216.535672 223.629864 
L 227.553339 218.574004 
L 238.571006 214.557648 
L 249.588673 209.572077 
L 260.60634 204.984284 
L 271.624007 200.595685 
L 282.641674 195.373018 
L 293.659341 190.003673 
L 304.677008 184.828835 
L 315.694675 181.801294 
L 326.712342 179.372944 
L 337.730009 176.183104 
L 348.747676 173.528693 
L 359.765343 171.304751 
L 370.78301 169.467537 
L 381.800677 168.21207 
L 392.818344 167.351979 
L 403.836011 167.802319 
L 414.853678 168.760807 
L 425.871345 169.718451 
L 436.889012 169.597258 
L 447.906679 169.672869 
L 458.924346 170.169164 
L 469.942013 172.66517 
L 480.95968 174.50312 
L 491.977347 174.521297 
L 502.995014 172.414173 
L 514.012681 170.012729 
L 525.030348 167.950556 
L 536.048015 163.354138 
L 547.065682 158.072209 
L 558.083349 152.473547 
" clip-path="url(#p09087290e9)" style="fill: none; stroke: #1f2937; stroke-width: 1.6; stroke-linecap: square"/>
   </g>
   <g id="patch_3">
    <path d="M 569.101016 322.394598 
L 569.101016 11.934371 
" style="fill: none; stroke: #1f2937; stroke-width: 0.8; stroke-linejoin: miter; stroke-linecap: square"/>
   </g>
   <g id="patch_4">
    <path d="M 7.2 322.394598 
L 569.101016 322.394598 
" style="fill: none; stroke: #1f2937; stroke-width: 0.8; stroke-linejoin: miter; stroke-linecap: square"/>
   </g>
   <g id="line2d_21">
    <path d="M 18.217667 281.038166 
L 18.217667 274.90298 
" clip-path="url(#p09087290e9)" style="fill: none; stroke: #b91c1c; stroke-width: 1.1; stroke-linecap: round"/>
   </g>
   <g id="line2d_22">
    <path d="M 29.235334 281.304274 
L 29.235334 275.423933 
" clip-path="url(#p09087290e9)" style="fill: none; stroke: #b91c1c; stroke-width: 1.1; stroke-linecap: round"/>
   </g>
   <g id="line2d_23">
    <path d="M 40.253001 280.759326 
L 40.253001 268.517622 
" clip-path="url(#p09087290e9)" style="fill: none; stroke: #1f8a56; stroke-width: 1.1; stroke-linecap: round"/>
   </g>
   <g id="line2d_24">
    <path d="M 51.270668 272.230456 
L 51.270668 264.287941 
" clip-path="url(#p09087290e9)" style="fill: none; stroke: #1f8a56; stroke-width: 1.1; stroke-linecap: round"/>
   </g>
   <g id="line2d_25">
    <path d="M 62.288335 270.855861 
L 62.288335 250.462659 
" clip-path="url(#p09087290e9)" style="fill: none; stroke: #1f8a56; stroke-width: 1.1; stroke-linecap: round"/>
   </g>
   <g id="line2d_26">
    <path d="M 73.306002 258.334607 
L 73.306002 253.943816 
" clip-path="url(#p09087290e9)" style="fill: none; stroke: #b91c1c; stroke-width: 1.1; stroke-linecap: round"/>
   </g>
   <g id="line2d_27">
    <path d="M 84.323669 256.597489 
L 84.323669 244.682016 
" clip-path="url(#p09087290e9)" style="fill: none; stroke: #1f8a56; stroke-width: 1.1; stroke-linecap: round"/>
   </g>
   <g id="line2d_28">
    <path d="M 95.341336 246.952852 
L 95.341336 240.083292 
" clip-path="url(#p09087290e9)" style="fill: none; stroke: #1f8a56; stroke-width: 1.1; stroke-linecap: round"/>
   </g>
   <g id="line2d_29">
    <path d="M 106.359003 247.918724 
L 106.359003 238.743511 
" clip-path="url(#p09087290e9)" style="fill: none; stroke: #1f8a56; stroke-width: 1.1; stroke-linecap: round"/>
   </g>
   <g id="line2d_30">
    <path d="M 117.37667 249.807846 
L 117.37667 240.475622 
" clip-path="url(#p09087290e9)" style="fill: none; stroke: #b91c1c; stroke-width: 1.1; stroke-linecap: round"/>
   </g>
   <g id="line2d_31">
    <path d="M 128.394337 246.219435 
L 128.394337 227.308718 
" clip-path="url(#p09087290e9)" style="fill: none; stroke: #1f8a56; stroke-width: 1.1; stroke-linecap: round"/>
   </g>
   <g id="line2d_32">
    <path d="M 139.412004 229.092539 
L 139.412004 218.705044 
" clip-path="url(#p09087290e9)" style="fill: none; stroke: #1f8a56; stroke-width: 1.1; stroke-linecap: round"/>
   </g>
   <g id="line2d_33">
    <path d="M 150.429671 232.959971 
L 150.429671 217.633918 
" clip-path="url(#p09087290e9)" style="fill: none; stroke: #b91c1c; stroke-width: 1.1; stroke-linecap: round"/>
   </g>
   <g id="line2d_34">
    <path d="M 161.447338 235.409962 
L 161.447338 227.566519 
" clip-path="url(#p09087290e9)" style="fill: none; stroke: #b91c1c; stroke-width: 1.1; stroke-linecap: round"/>
   </g>
   <g id="line2d_35">
    <path d="M 172.465005 240.395914 
L 172.465005 232.095757 
" clip-path="url(#p09087290e9)" style="fill: none; stroke: #1f8a56; stroke-width: 1.1; stroke-linecap: round"/>
   </g>
   <g id="line2d_36">
    <path d="M 183.482672 234.612171 
L 183.482672 215.611475 
" clip-path="url(#p09087290e9)" style="fill: none; stroke: #1f8a56; stroke-width: 1.1; stroke-linecap: round"/>
   </g>
   <g id="line2d_37">
    <path d="M 194.500339 220.592085 
L 194.500339 205.275388 
" clip-path="url(#p09087290e9)" style="fill: none; stroke: #1f8a56; stroke-width: 1.1; stroke-linecap: round"/>
   </g>
   <g id="line2d_38">
    <path d="M 205.518006 211.011736 
L 205.518006 197.494947 
" clip-path="url(#p09087290e9)" style="fill: none; stroke: #1f8a56; stroke-width: 1.1; stroke-linecap: round"/>
   </g>
   <g id="line2d_39">
    <path d="M 216.535672 196.233873 
L 216.535672 186.175248 
" clip-path="url(#p09087290e9)" style="fill: none; stroke: #1f8a56; stroke-width: 1.1; stroke-linecap: round"/>
   </g>
   <g id="line2d_40">
    <path d="M 227.553339 187.450679 
L 227.553339 177.019177 
" clip-path="url(#p09087290e9)" style="fill: none; stroke: #1f8a56; stroke-width: 1.1; stroke-linecap: round"/>
   </g>
   <g id="line2d_41">
    <path d="M 238.571006 194.701753 
L 238.571006 174.994596 
" clip-path="url(#p09087290e9)" style="fill: none; stroke: #b91c1c; stroke-width: 1.1; stroke-linecap: round"/>
   </g>
   <g id="line2d_42">
    <path d="M 249.588673 200.264868 
L 249.588673 183.420006 
" clip-path="url(#p09087290e9)" style="fill: none; stroke: #1f8a56; stroke-width: 1.1; stroke-linecap: round"/>
   </g>
   <g id="line2d_43">
    <path d="M 260.60634 188.138962 
L 260.60634 169.870021 
" clip-path="url(#p09087290e9)" style="fill: none; stroke: #1f8a56; stroke-width: 1.1; stroke-linecap: round"/>
   </g>
   <g id="line2d_44">
    <path d="M 271.624007 176.117315 
L 271.624007 167.045538 
" clip-path="url(#p09087290e9)" style="fill: none; stroke: #1f8a56; stroke-width: 1.1; stroke-linecap: round"/>
   </g>
   <g id="line2d_45">
    <path d="M 282.641674 173.043437 
L 282.641674 162.992703 
" clip-path="url(#p09087290e9)" style="fill: none; stroke: #b91c1c; stroke-width: 1.1; stroke-linecap: round"/>
   </g>
   <g id="line2d_46">
    <path d="M 293.659341 179.409521 
L 293.659341 170.150467 
" clip-path="url(#p09087290e9)" style="fill: none; stroke: #1f8a56; stroke-width: 1.1; stroke-linecap: round"/>
   </g>
   <g id="line2d_47">
    <path d="M 304.677008 170.850193 
L 304.677008 166.538851 
" clip-path="url(#p09087290e9)" style="fill: none; stroke: #b91c1c; stroke-width: 1.1; stroke-linecap: round"/>
   </g>
   <g id="line2d_48">
    <path d="M 315.694675 181.851437 
L 315.694675 166.954531 
" clip-path="url(#p09087290e9)" style="fill: none; stroke: #b91c1c; stroke-width: 1.1; stroke-linecap: round"/>
   </g>
   <g id="line2d_49">
    <path d="M 326.712342 180.365766 
L 326.712342 175.468445 
" clip-path="url(#p09087290e9)" style="fill: none; stroke: #1f8a56; stroke-width: 1.1; stroke-linecap: round"/>
   </g>
   <g id="line2d_50">
    <path d="M 337.730009 178.179175 
L 337.730009 159.198491 
" clip-path="url(#p09087290e9)" style="fill: none; stroke: #1f8a56; stroke-width: 1.1; stroke-linecap: round"/>
   </g>
   <g id="line2d_51">
    <path d="M 348.747676 165.712437 
L 348.747676 153.719521 
" clip-path="url(#p09087290e9)" style="fill: none; stroke: #1f8a56; stroke-width: 1.1; stroke-linecap: round"/>
   </g>
   <g id="line2d_52">
    <path d="M 359.765343 154.811299 
L 359.765343 151.770657 
" clip-path="url(#p09087290e9)" style="fill: none; stroke: #1f8a56; stroke-width: 1.1; stroke-linecap: round"/>
   </g>
   <g id="line2d_53">
    <path d="M 370.78301 174.129071 
L 370.78301 151.501424 
" clip-path="url(#p09087290e9)" style="fill: none; stroke: #b91c1c; stroke-width: 1.1; stroke-linecap: round"/>
   </g>
   <g id="line2d_54">
    <path d="M 381.800677 174.658347 
L 381.800677 162.191977 
" clip-path="url(#p09087290e9)" style="fill: none; stroke: #b91c1c; stroke-width: 1.1; stroke-linecap: round"/>
   </g>
   <g id="line2d_55">
    <path d="M 392.818344 173.683881 
L 392.818344 160.178917 
" clip-path="url(#p09087290e9)" style="fill: none; stroke: #1f8a56; stroke-width: 1.1; stroke-linecap: round"/>
   </g>
   <g id="line2d_56">
    <path d="M 403.836011 176.595005 
L 403.836011 160.82912 
" clip-path="url(#p09087290e9)" style="fill: none; stroke: #b91c1c; stroke-width: 1.1; stroke-linecap: round"/>
   </g>
   <g id="line2d_57">
    <path d="M 414.853678 186.255024 
L 414.853678 175.994414 
" clip-path="url(#p09087290e9)" style="fill: none; stroke: #b91c1c; stroke-width: 1.1; stroke-linecap: round"/>
   </g>
   <g id="line2d_58">
    <path d="M 425.871345 183.372255 
L 425.871345 172.372078 
" clip-path="url(#p09087290e9)" style="fill: none; stroke: #b91c1c; stroke-width: 1.1; stroke-linecap: round"/>
   </g>
   <g id="line2d_59">
    <path d="M 436.889012 177.990109 
L 436.889012 165.868463 
" clip-path="url(#p09087290e9)" style="fill: none; stroke: #1f8a56; stroke-width: 1.1; stroke-linecap: round"/>
   </g>
   <g id="line2d_60">
    <path d="M 447.906679 182.943616 
L 447.906679 172.468244 
" clip-path="url(#p09087290e9)" style="fill: none; stroke: #b91c1c; stroke-width: 1.1; stroke-linecap: round"/>
   </g>
   <g id="line2d_61">
    <path d="M 458.924346 185.9613 
L 458.924346 181.339254 
" clip-path="url(#p09087290e9)" style="fill: none; stroke: #1f8a56; stroke-width: 1.1; stroke-linecap: round"/>
   </g>
   <g id="line2d_62">
    <path d="M 469.942013 191.164171 
L 469.942013 180.256539 
" clip-path="url(#p09087290e9)" style="fill: none; stroke: #b91c1c; stroke-width: 1.1; stroke-linecap: round"/>
   </g>
   <g id="line2d_63">
    <path d="M 480.95968 191.629384 
L 480.95968 172.268613 
" clip-path="url(#p09087290e9)" style="fill: none; stroke: #1f8a56; stroke-width: 1.1; stroke-linecap: round"/>
   </g>
   <g id="line2d_64">
    <path d="M 491.977347 180.486539 
L 491.977347 151.748503 
" clip-path="url(#p09087290e9)" style="fill: none; stroke: #1f8a56; stroke-width: 1.1; stroke-linecap: round"/>
   </g>
   <g id="line2d_65">
    <path d="M 502.995014 151.032842 
L 502.995014 144.693134 
" clip-path="url(#p09087290e9)" style="fill: none; stroke: #1f8a56; stroke-width: 1.1; stroke-linecap: round"/>
   </g>
   <g id="line2d_66">
    <path d="M 514.012681 151.280068 
L 514.012681 140.979808 
" clip-path="url(#p09087290e9)" style="fill: none; stroke: #1f8a56; stroke-width: 1.1; stroke-linecap: round"/>
   </g>
   <g id="line2d_67">
    <path d="M 525.030348 148.156913 
L 525.030348 137.05551 
" clip-path="url(#p09087290e9)" style="fill: none; stroke: #1f8a56; stroke-width: 1.1; stroke-linecap: round"/>
   </g>
   <g id="line2d_68">
    <path d="M 536.048015 139.681107 
L 536.048015 117.208602 
" clip-path="url(#p09087290e9)" style="fill: none; stroke: #1f8a56; stroke-width: 1.1; stroke-linecap: round"/>
   </g>
   <g id="line2d_69">
    <path d="M 547.065682 120.246057 
L 547.065682 114.435262 
" clip-path="url(#p09087290e9)" style="fill: none; stroke: #1f8a56; stroke-width: 1.1; stroke-linecap: round"/>
   </g>
   <g id="line2d_70">
    <path d="M 558.083349 121.661235 
L 558.083349 111.873851 
" clip-path="url(#p09087290e9)" style="fill: none; stroke: #1f8a56; stroke-width: 1.1; stroke-linecap: round"/>
   </g>
   <g id="text_12">
    <text style="font-weight: 700; font-size: 9px; font-family: 'Noto Naskh Arabic', 'DejaVu Sans'; text-anchor: middle; fill: #b7791f" x="293.659341" y="62.591157" transform="rotate(-0 293.659341 62.591157)">​(Kumo) ﺔﻴﻠﺒﻘﺘﺴﻤﻟﺍ ﺔﺑﺎﺤﺴﻟﺍ</text>
   </g>
   <g id="patch_5">
    <path d="M 15.46325 279.610225 
L 20.972084 279.610225 
L 20.972084 274.527312 
L 15.46325 274.527312 
z
" clip-path="url(#p09087290e9)" style="fill: #b91c1c; stroke: #b91c1c; stroke-linejoin: miter"/>
   </g>
   <g id="patch_6">
    <path d="M 26.480917 279.363349 
L 31.989751 279.363349 
L 31.989751 274.280436 
L 26.480917 274.280436 
z
" clip-path="url(#p09087290e9)" style="fill: #b91c1c; stroke: #b91c1c; stroke-linejoin: miter"/>
   </g>
   <g id="patch_7">
    <path d="M 37.498584 280.444848 
L 43.007418 280.444848 
L 43.007418 271.038197 
L 37.498584 271.038197 
z
" clip-path="url(#p09087290e9)" style="fill: #1f8a56; stroke: #1f8a56; stroke-linejoin: miter"/>
   </g>
   <g id="patch_8">
    <path d="M 48.516251 270.266221 
L 54.025085 270.266221 
L 54.025085 264.863688 
L 48.516251 264.863688 
z
" clip-path="url(#p09087290e9)" style="fill: #1f8a56; stroke: #1f8a56; stroke-linejoin: miter"/>
   </g>
   <g id="patch_9">
    <path d="M 59.533918 270.593984 
L 65.042752 270.593984 
L 65.042752 253.339256 
L 59.533918 253.339256 
z
" clip-path="url(#p09087290e9)" style="fill: #1f8a56; stroke: #1f8a56; stroke-linejoin: miter"/>
   </g>
   <g id="patch_10">
    <path d="M 70.551585 256.505272 
L 76.060419 256.505272 
L 76.060419 251.422358 
L 70.551585 251.422358 
z
" clip-path="url(#p09087290e9)" style="fill: #b91c1c; stroke: #b91c1c; stroke-linejoin: miter"/>
   </g>
   <g id="patch_11">
    <path d="M 81.569252 254.024037 
L 87.078086 254.024037 
L 87.078086 248.175755 
L 81.569252 248.175755 
z
" clip-path="url(#p09087290e9)" style="fill: #1f8a56; stroke: #1f8a56; stroke-linejoin: miter"/>
   </g>
   <g id="patch_12">
    <path d="M 92.586919 244.751448 
L 98.095753 244.751448 
L 98.095753 239.668535 
L 92.586919 239.668535 
z
" clip-path="url(#p09087290e9)" style="fill: #1f8a56; stroke: #1f8a56; stroke-linejoin: miter"/>
   </g>
   <g id="patch_13">
    <path d="M 103.604586 244.246943 
L 109.11342 244.246943 
L 109.11342 239.164029 
L 103.604586 239.164029 
z
" clip-path="url(#p09087290e9)" style="fill: #1f8a56; stroke: #1f8a56; stroke-linejoin: miter"/>
   </g>
   <g id="patch_14">
    <path d="M 114.622253 244.888947 
L 120.131086 244.888947 
L 120.131086 239.806034 
L 114.622253 239.806034 
z
" clip-path="url(#p09087290e9)" style="fill: #b91c1c; stroke: #b91c1c; stroke-linejoin: miter"/>
   </g>
   <g id="patch_15">
    <path d="M 125.63992 243.846133 
L 131.148753 243.846133 
L 131.148753 227.715717 
L 125.63992 227.715717 
z
" clip-path="url(#p09087290e9)" style="fill: #1f8a56; stroke: #1f8a56; stroke-linejoin: miter"/>
   </g>
   <g id="patch_16">
    <path d="M 136.657587 226.986522 
L 142.16642 226.986522 
L 142.16642 220.475506 
L 136.657587 220.475506 
z
" clip-path="url(#p09087290e9)" style="fill: #1f8a56; stroke: #1f8a56; stroke-linejoin: miter"/>
   </g>
   <g id="patch_17">
    <path d="M 147.675254 231.922828 
L 153.184087 231.922828 
L 153.184087 218.153776 
L 147.675254 218.153776 
z
" clip-path="url(#p09087290e9)" style="fill: #b91c1c; stroke: #b91c1c; stroke-linejoin: miter"/>
   </g>
   <g id="patch_18">
    <path d="M 158.692921 234.78205 
L 164.201754 234.78205 
L 164.201754 228.463965 
L 158.692921 228.463965 
z
" clip-path="url(#p09087290e9)" style="fill: #b91c1c; stroke: #b91c1c; stroke-linejoin: miter"/>
   </g>
   <g id="patch_19">
    <path d="M 169.710588 238.156204 
L 175.219421 238.156204 
L 175.219421 232.870827 
L 169.710588 232.870827 
z
" clip-path="url(#p09087290e9)" style="fill: #1f8a56; stroke: #1f8a56; stroke-linejoin: miter"/>
   </g>
   <g id="patch_20">
    <path d="M 180.728255 232.333509 
L 186.237088 232.333509 
L 186.237088 217.507615 
L 180.728255 217.507615 
z
" clip-path="url(#p09087290e9)" style="fill: #1f8a56; stroke: #1f8a56; stroke-linejoin: miter"/>
   </g>
   <g id="patch_21">
    <path d="M 191.745922 220.380343 
L 197.254755 220.380343 
L 197.254755 206.333556 
L 191.745922 206.333556 
z
" clip-path="url(#p09087290e9)" style="fill: #1f8a56; stroke: #1f8a56; stroke-linejoin: miter"/>
   </g>
   <g id="patch_22">
    <path d="M 202.763589 207.952877 
L 208.272422 207.952877 
L 208.272422 198.254068 
L 202.763589 198.254068 
z
" clip-path="url(#p09087290e9)" style="fill: #1f8a56; stroke: #1f8a56; stroke-linejoin: miter"/>
   </g>
   <g id="patch_23">
    <path d="M 213.781256 194.347911 
L 219.290089 194.347911 
L 219.290089 186.287758 
L 213.781256 186.287758 
z
" clip-path="url(#p09087290e9)" style="fill: #1f8a56; stroke: #1f8a56; stroke-linejoin: miter"/>
   </g>
   <g id="patch_24">
    <path d="M 224.798923 184.737415 
L 230.307756 184.737415 
L 230.307756 179.654502 
L 224.798923 179.654502 
z
" clip-path="url(#p09087290e9)" style="fill: #1f8a56; stroke: #1f8a56; stroke-linejoin: miter"/>
   </g>
   <g id="patch_25">
    <path d="M 235.81659 193.470715 
L 241.325423 193.470715 
L 241.325423 178.925612 
L 235.81659 178.925612 
z
" clip-path="url(#p09087290e9)" style="fill: #b91c1c; stroke: #b91c1c; stroke-linejoin: miter"/>
   </g>
   <g id="patch_26">
    <path d="M 246.834257 196.428428 
L 252.34309 196.428428 
L 252.34309 185.062085 
L 246.834257 185.062085 
z
" clip-path="url(#p09087290e9)" style="fill: #1f8a56; stroke: #1f8a56; stroke-linejoin: miter"/>
   </g>
   <g id="patch_27">
    <path d="M 257.851924 188.07941 
L 263.360757 188.07941 
L 263.360757 172.662205 
L 257.851924 172.662205 
z
" clip-path="url(#p09087290e9)" style="fill: #1f8a56; stroke: #1f8a56; stroke-linejoin: miter"/>
   </g>
   <g id="patch_28">
    <path d="M 268.869591 173.297823 
L 274.378424 173.297823 
L 274.378424 167.812316 
L 268.869591 167.812316 
z
" clip-path="url(#p09087290e9)" style="fill: #1f8a56; stroke: #1f8a56; stroke-linejoin: miter"/>
   </g>
   <g id="patch_29">
    <path d="M 279.887258 169.250823 
L 285.396091 169.250823 
L 285.396091 164.167909 
L 279.887258 164.167909 
z
" clip-path="url(#p09087290e9)" style="fill: #b91c1c; stroke: #b91c1c; stroke-linejoin: miter"/>
   </g>
   <g id="patch_30">
    <path d="M 290.904925 174.927008 
L 296.413758 174.927008 
L 296.413758 169.844094 
L 290.904925 169.844094 
z
" clip-path="url(#p09087290e9)" style="fill: #1f8a56; stroke: #1f8a56; stroke-linejoin: miter"/>
   </g>
   <g id="patch_31">
    <path d="M 301.922592 170.772769 
L 307.431425 170.772769 
L 307.431425 165.689856 
L 301.922592 165.689856 
z
" clip-path="url(#p09087290e9)" style="fill: #b91c1c; stroke: #b91c1c; stroke-linejoin: miter"/>
   </g>
   <g id="patch_32">
    <path d="M 312.940259 181.177122 
L 318.449092 181.177122 
L 318.449092 170.51609 
L 312.940259 170.51609 
z
" clip-path="url(#p09087290e9)" style="fill: #b91c1c; stroke: #b91c1c; stroke-linejoin: miter"/>
   </g>
   <g id="patch_33">
    <path d="M 323.957925 177.917672 
L 329.466759 177.917672 
L 329.466759 172.834759 
L 323.957925 172.834759 
z
" clip-path="url(#p09087290e9)" style="fill: #1f8a56; stroke: #1f8a56; stroke-linejoin: miter"/>
   </g>
   <g id="patch_34">
    <path d="M 334.975592 176.269525 
L 340.484426 176.269525 
L 340.484426 159.975995 
L 334.975592 159.975995 
z
" clip-path="url(#p09087290e9)" style="fill: #1f8a56; stroke: #1f8a56; stroke-linejoin: miter"/>
   </g>
   <g id="patch_35">
    <path d="M 345.993259 162.870315 
L 351.502093 162.870315 
L 351.502093 154.43482 
L 345.993259 154.43482 
z
" clip-path="url(#p09087290e9)" style="fill: #1f8a56; stroke: #1f8a56; stroke-linejoin: miter"/>
   </g>
   <g id="patch_36">
    <path d="M 357.010926 154.183125 
L 362.51976 154.183125 
L 362.51976 149.100212 
L 357.010926 149.100212 
z
" clip-path="url(#p09087290e9)" style="fill: #1f8a56; stroke: #1f8a56; stroke-linejoin: miter"/>
   </g>
   <g id="patch_37">
    <path d="M 368.028593 171.42414 
L 373.537427 171.42414 
L 373.537427 156.2489 
L 368.028593 156.2489 
z
" clip-path="url(#p09087290e9)" style="fill: #b91c1c; stroke: #b91c1c; stroke-linejoin: miter"/>
   </g>
   <g id="patch_38">
    <path d="M 379.04626 169.996479 
L 384.555094 169.996479 
L 384.555094 164.913566 
L 379.04626 164.913566 
z
" clip-path="url(#p09087290e9)" style="fill: #b91c1c; stroke: #b91c1c; stroke-linejoin: miter"/>
   </g>
   <g id="patch_39">
    <path d="M 390.063927 172.23903 
L 395.572761 172.23903 
L 395.572761 162.341114 
L 390.063927 162.341114 
z
" clip-path="url(#p09087290e9)" style="fill: #1f8a56; stroke: #1f8a56; stroke-linejoin: miter"/>
   </g>
   <g id="patch_40">
    <path d="M 401.081594 173.216401 
L 406.590428 173.216401 
L 406.590428 163.339745 
L 401.081594 163.339745 
z
" clip-path="url(#p09087290e9)" style="fill: #b91c1c; stroke: #b91c1c; stroke-linejoin: miter"/>
   </g>
   <g id="patch_41">
    <path d="M 412.099261 180.752683 
L 417.608095 180.752683 
L 417.608095 175.669769 
L 412.099261 175.669769 
z
" clip-path="url(#p09087290e9)" style="fill: #b91c1c; stroke: #b91c1c; stroke-linejoin: miter"/>
   </g>
   <g id="patch_42">
    <path d="M 423.116928 181.841642 
L 428.625762 181.841642 
L 428.625762 174.937789 
L 423.116928 174.937789 
z
" clip-path="url(#p09087290e9)" style="fill: #b91c1c; stroke: #b91c1c; stroke-linejoin: miter"/>
   </g>
   <g id="patch_43">
    <path d="M 434.134595 177.694462 
L 439.643429 177.694462 
L 439.643429 169.318446 
L 434.134595 169.318446 
z
" clip-path="url(#p09087290e9)" style="fill: #1f8a56; stroke: #1f8a56; stroke-linejoin: miter"/>
   </g>
   <g id="patch_44">
    <path d="M 445.152262 182.084461 
L 450.661096 182.084461 
L 450.661096 174.73701 
L 445.152262 174.73701 
z
" clip-path="url(#p09087290e9)" style="fill: #b91c1c; stroke: #b91c1c; stroke-linejoin: miter"/>
   </g>
   <g id="patch_45">
    <path d="M 456.169929 185.52638 
L 461.678763 185.52638 
L 461.678763 180.443466 
L 456.169929 180.443466 
z
" clip-path="url(#p09087290e9)" style="fill: #1f8a56; stroke: #1f8a56; stroke-linejoin: miter"/>
   </g>
   <g id="patch_46">
    <path d="M 467.187596 189.928068 
L 472.69643 189.928068 
L 472.69643 180.668995 
L 467.187596 180.668995 
z
" clip-path="url(#p09087290e9)" style="fill: #b91c1c; stroke: #b91c1c; stroke-linejoin: miter"/>
   </g>
   <g id="patch_47">
    <path d="M 478.205263 190.880623 
L 483.714097 190.880623 
L 483.714097 176.490226 
L 478.205263 176.490226 
z
" clip-path="url(#p09087290e9)" style="fill: #1f8a56; stroke: #1f8a56; stroke-linejoin: miter"/>
   </g>
   <g id="patch_48">
    <path d="M 489.22293 180.134448 
L 494.731764 180.134448 
L 494.731764 153.713015 
L 489.22293 153.713015 
z
" clip-path="url(#p09087290e9)" style="fill: #1f8a56; stroke: #1f8a56; stroke-linejoin: miter"/>
   </g>
   <g id="patch_49">
    <path d="M 500.240597 150.441558 
L 505.749431 150.441558 
L 505.749431 145.358645 
L 500.240597 145.358645 
z
" clip-path="url(#p09087290e9)" style="fill: #1f8a56; stroke: #1f8a56; stroke-linejoin: miter"/>
   </g>
   <g id="patch_50">
    <path d="M 511.258264 147.186211 
L 516.767098 147.186211 
L 516.767098 141.179151 
L 511.258264 141.179151 
z
" clip-path="url(#p09087290e9)" style="fill: #1f8a56; stroke: #1f8a56; stroke-linejoin: miter"/>
   </g>
   <g id="patch_51">
    <path d="M 522.275931 144.558477 
L 527.784764 144.558477 
L 527.784764 137.595044 
L 522.275931 137.595044 
z
" clip-path="url(#p09087290e9)" style="fill: #1f8a56; stroke: #1f8a56; stroke-linejoin: miter"/>
   </g>
   <g id="patch_52">
    <path d="M 533.293598 138.55438 
L 538.802431 138.55438 
L 538.802431 118.059378 
L 533.293598 118.059378 
z
" clip-path="url(#p09087290e9)" style="fill: #1f8a56; stroke: #1f8a56; stroke-linejoin: miter"/>
   </g>
   <g id="patch_53">
    <path d="M 544.311265 117.436145 
L 549.820098 117.436145 
L 549.820098 112.353232 
L 544.311265 112.353232 
z
" clip-path="url(#p09087290e9)" style="fill: #1f8a56; stroke: #1f8a56; stroke-linejoin: miter"/>
   </g>
   <g id="patch_54">
    <path d="M 555.328932 120.694672 
L 560.837765 120.694672 
L 560.837765 114.657688 
L 555.328932 114.657688 
z
" clip-path="url(#p09087290e9)" style="fill: #1f8a56; stroke: #1f8a56; stroke-linejoin: miter"/>
   </g>
   <g id="legend_1">
    <g id="line2d_71">
     <path d="M 14.85 25.695871 
L 23.35 25.695871 
L 31.85 25.695871 
" style="fill: none; stroke: #b91c1c; stroke-width: 1.4; stroke-linecap: square"/>
    </g>
    <g id="text_13">
     <text style="font-size: 8.5px; font-family: 'Noto Naskh Arabic', 'DejaVu Sans'; text-anchor: start; fill: #1f2937" x="38.65" y="28.670871" transform="rotate(-0 38.65 28.670871)">​(Tenkan) ﻞﻳﻮﺤﺘﻟﺍ ﻂﺧ</text>
    </g>
    <g id="line2d_72">
     <path d="M 14.85 44.421371 
L 23.35 44.421371 
L 31.85 44.421371 
" style="fill: none; stroke: #1f2937; stroke-width: 1.6; stroke-linecap: square"/>
    </g>
    <g id="text_14">
     <text style="font-size: 8.5px; font-family: 'Noto Naskh Arabic', 'DejaVu Sans'; text-anchor: start; fill: #1f2937" x="38.65" y="47.396371" transform="rotate(-0 38.65 47.396371)">​(Kijun) ﺱﺎﺳﻷﺍ ﻂﺧ</text>
    </g>
   </g>
  </g>
 </g>
 <defs>
  <clipPath id="p09087290e9">
   <rect x="7.2" y="11.934371" width="561.901016" height="310.460227"/>
  </clipPath>
 </defs>
</svg>
