<?xml version="1.0" encoding="utf-8" standalone="no"?>
<!DOCTYPE svg PUBLIC "-//W3C//DTD SVG 1.1//EN"
  "http://www.w3.org/Graphics/SVG/1.1/DTD/svg11.dtd">
<svg xmlns:xlink="http://www.w3.org/1999/xlink" width="657.15pt" height="369.15pt" viewBox="0 0 657.15 369.15" xmlns="http://www.w3.org/2000/svg" version="1.1">
 <metadata>
  <rdf:RDF xmlns:dc="http://purl.org/dc/elements/1.1/" xmlns:cc="http://creativecommons.org/ns#" xmlns:rdf="http://www.w3.org/1999/02/22-rdf-syntax-ns#">
   <cc:Work>
    <dc:type rdf:resource="http://purl.org/dc/dcmitype/StillImage"/>
    <dc:date>2026-07-20T03:47:42.221089</dc:date>
    <dc:format>image/svg+xml</dc:format>
    <dc:creator>
     <cc:Agent>
      <dc:title>Matplotlib v3.11.1, https://matplotlib.org/</dc:title>
     </cc:Agent>
    </dc:creator>
   </cc:Work>
  </rdf:RDF>
 </metadata>
 <defs>
  <style type="text/css">*{stroke-linejoin: round; stroke-linecap: butt}</style>
 </defs>
 <g id="figure_1">
  <g id="patch_1">
   <path d="M 0 369.15 
L 657.15 369.15 
L 657.15 0 
L 0 0 
z
" style="fill: #ffffff"/>
  </g>
  <g id="axes_1">
   <g id="patch_2">
    <path d="M 205.38125 94.705 
L 451.76875 94.705 
Q 456.05375 94.705 456.05375 89.975 
L 456.05375 30.85 
Q 456.05375 26.12 451.76875 26.12 
L 205.38125 26.12 
Q 201.09625 26.12 201.09625 30.85 
L 201.09625 89.975 
Q 201.09625 94.705 205.38125 94.705 
z
" clip-path="url(#pfa159fcb71)" style="fill: #1f2937"/>
   </g>
   <g id="line2d_1">
    <path d="M 106.290625 146.14375 
L 328.575 92.93125 
" clip-path="url(#pfa159fcb71)" style="fill: none; stroke: #e6e1d6; stroke-width: 1.2; stroke-linecap: square"/>
   </g>
   <g id="line2d_2">
    <path d="M 258.94375 146.14375 
L 328.575 92.93125 
" clip-path="url(#pfa159fcb71)" style="fill: none; stroke: #e6e1d6; stroke-width: 1.2; stroke-linecap: square"/>
   </g>
   <g id="line2d_3">
    <path d="M 411.596875 146.14375 
L 328.575 92.93125 
" clip-path="url(#pfa159fcb71)" style="fill: none; stroke: #e6e1d6; stroke-width: 1.2; stroke-linecap: square"/>
   </g>
   <g id="line2d_4">
    <path d="M 564.25 146.14375 
L 328.575 92.93125 
" clip-path="url(#pfa159fcb71)" style="fill: none; stroke: #e6e1d6; stroke-width: 1.2; stroke-linecap: square"/>
   </g>
   <g id="text_1">
    <text style="font-weight: 700; font-size: 11px; font-family: 'Noto Naskh Arabic', 'DejaVu Sans'; text-anchor: middle; fill: #ffffff" x="328.575" y="62.805" transform="rotate(-0 328.575 62.805)">вҖӢп»Іп»ӢпәҺп»Ёп»„пә»п»»пәҚ пәҖпәҺп»ӣпә¬п»ҹпәҺпә‘ п»қп»ӯпәҶпәҙп»Ј п»қп»ӯпәҚпәӘпә—</text>
   </g>
   <g id="patch_3">
    <path d="M 42.015625 265.57625 
L 170.565625 265.57625 
Q 176.993125 265.57625 176.993125 258.48125 
L 176.993125 152.05625 
Q 176.993125 144.96125 170.565625 144.96125 
L 42.015625 144.96125 
Q 35.588125 144.96125 35.588125 152.05625 
L 35.588125 258.48125 
Q 35.588125 265.57625 42.015625 265.57625 
z
" clip-path="url(#pfa159fcb71)" style="fill: #b7791f"/>
   </g>
   <g id="patch_4">
    <path d="M 194.66875 265.57625 
L 323.21875 265.57625 
Q 329.64625 265.57625 329.64625 258.48125 
L 329.64625 152.05625 
Q 329.64625 144.96125 323.21875 144.96125 
L 194.66875 144.96125 
Q 188.24125 144.96125 188.24125 152.05625 
L 188.24125 258.48125 
Q 188.24125 265.57625 194.66875 265.57625 
z
" clip-path="url(#pfa159fcb71)" style="fill: #8a8f98"/>
   </g>
   <g id="patch_5">
    <path d="M 347.321875 265.57625 
L 475.871875 265.57625 
Q 482.299375 265.57625 482.299375 258.48125 
L 482.299375 152.05625 
Q 482.299375 144.96125 475.871875 144.96125 
L 347.321875 144.96125 
Q 340.894375 144.96125 340.894375 152.05625 
L 340.894375 258.48125 
Q 340.894375 265.57625 347.321875 265.57625 
z
" clip-path="url(#pfa159fcb71)" style="fill: #1f8a56"/>
   </g>
   <g id="patch_6">
    <path d="M 499.975 265.57625 
L 628.525 265.57625 
Q 634.9525 265.57625 634.9525 258.48125 
L 634.9525 152.05625 
Q 634.9525 144.96125 628.525 144.96125 
L 499.975 144.96125 
Q 493.5475 144.96125 493.5475 152.05625 
L 493.5475 258.48125 
Q 493.5475 265.57625 499.975 265.57625 
z
" clip-path="url(#pfa159fcb71)" style="fill: #b91c1c"/>
   </g>
   <g id="text_2">
    <text style="font-weight: 700; font-size: 9.5px; font-family: 'Noto Naskh Arabic', 'DejaVu Sans'; text-anchor: middle; fill: #1f2937" x="328.575" y="317.60625" transform="rotate(-0 328.575 317.60625)">вҖӢпәҺпә‘пәҺпәҙпәЈ п»ҡп»”п» п»ңп»і пәӯпәҺпә» пә”п»ҳп»”пә» п»ҡп»”п» п»ңп»і п»ҘпәҺп»ӣ п»ұпә¬п»ҹпәҚ пә„п»„пәЁп»ҹпәҚ :пә”п»ҙп»ҹп»ӯпәҶпәҙп»Өп»ҹпәҚп»ӯ вҖ” пә”п»Ӣпә®пәҙп»ҹпәҚ п»’п»ӢпәҺп»Җпә— пә”пәҳп»Өпә—п»·пәҚ</text>
   </g>
   <g id="text_3">
    <text style="font-weight: 700; font-size: 8.6px; font-family: 'Noto Naskh Arabic', 'DejaVu Sans'; fill: #ffffff" transform="translate(92.564219 192.49345)">вҖӢпә”п»ҙп»“пәҺп»”пәёп»ҹпәҚ</text>
    <text style="font-weight: 700; font-size: 8.6px; font-family: 'Noto Naskh Arabic', 'DejaVu Sans'; fill: #ffffff" transform="translate(73.253188 207.13925)">п»ҡпәҹпә«п»®п»Өп»§ пә•пәҚпәӯпәҚпә®п»— п»ўп»¬п»“пәҚ</text>
    <text style="font-weight: 700; font-size: 8.6px; font-family: 'Noto Naskh Arabic', 'DejaVu Sans'; fill: #ffffff" transform="translate(70.024828 221.78505)">пә©п»®пәіпәғ пәҺп»—п»ӯпәӘп»Ёпә» п»һп»җпәёпә— п»»п»ӯ</text>
   </g>
   <g id="text_4">
    <text style="font-weight: 700; font-size: 8.6px; font-family: 'Noto Naskh Arabic', 'DejaVu Sans'; fill: #ffffff" transform="translate(246.374984 192.49345)">вҖӢп»қпәҺпәңпәҳп»Јп»»пәҚ</text>
    <text style="font-weight: 700; font-size: 8.6px; font-family: 'Noto Naskh Arabic', 'DejaVu Sans'; fill: #ffffff" transform="translate(224.530984 207.13925)">п»ҡп»„п»ҙпәіп»ӯп»ӯ п»ҷпәӘп» пә‘ п»Ұп»ҙп»§пәҚп»®п»—</text>
    <text style="font-weight: 700; font-size: 8.6px; font-family: 'Noto Naskh Arabic', 'DejaVu Sans'; fill: #ffffff" transform="translate(236.337844 221.78505)">п»•п»®пәҙп»ҹпәҚ пәӘп»ӢпәҚп»®п»—п»ӯ</text>
   </g>
   <g id="text_5">
    <text style="font-weight: 700; font-size: 8.6px; font-family: 'Noto Naskh Arabic', 'DejaVu Sans'; fill: #ffffff" transform="translate(385.031609 192.49345)">вҖӢп»қпәҺп»Өп»ҹпәҚ пәұпәғпәӯ пә”п»іпәҺп»ӨпәЈ</text>
    <text style="font-weight: 700; font-size: 8.6px; font-family: 'Noto Naskh Arabic', 'DejaVu Sans'; fill: #ffffff" transform="translate(379.845406 207.13925)">пә”п»ЈпәӯпәҺпә» пә“пәӯпәҺпәҙпә§ пә©п»ӯпәӘпәЈ</text>
    <text style="font-weight: 700; font-size: 8.6px; font-family: 'Noto Naskh Arabic', 'DejaVu Sans'; fill: #ffffff" transform="translate(387.174219 221.78505)">пә©п»®п»ӣ пәҺп»«пәҜп»ӯпәҺпә пәҳп»і п»»</text>
   </g>
   <g id="text_6">
    <text style="font-weight: 700; font-size: 8.6px; font-family: 'Noto Naskh Arabic', 'DejaVu Sans'; fill: #ffffff" transform="translate(553.520828 192.49345)">вҖӢпә”п»«пәҚпә°п»Ёп»ҹпәҚ</text>
    <text style="font-weight: 700; font-size: 8.6px; font-family: 'Noto Naskh Arabic', 'DejaVu Sans'; fill: #ffffff" transform="translate(538.941141 207.13925)">п»•п»®пәҙп»ҹпәҺпә‘ пәҗп»Ӣп»јпә— п»»</text>
    <text style="font-weight: 700; font-size: 8.6px; font-family: 'Noto Naskh Arabic', 'DejaVu Sans'; fill: #ffffff" transform="translate(530.965313 221.78505)">пә•пәҺп»Јп»®п» п»Ңп»Ј п»қп»јп»җпәҳпәіпәҚ п»»п»ӯ</text>
   </g>
  </g>
 </g>
 <defs>
  <clipPath id="pfa159fcb71">
   <rect x="7.2" y="7.2" width="642.75" height="354.75"/>
  </clipPath>
 </defs>
</svg>
