<?xml version="1.0" encoding="utf-8" standalone="no"?>
<!DOCTYPE svg PUBLIC "-//W3C//DTD SVG 1.1//EN"
  "http://www.w3.org/Graphics/SVG/1.1/DTD/svg11.dtd">
<svg xmlns:xlink="http://www.w3.org/1999/xlink" width="671.55pt" height="354.75pt" viewBox="0 0 671.55 354.75" xmlns="http://www.w3.org/2000/svg" version="1.1">
 <metadata>
  <rdf:RDF xmlns:dc="http://purl.org/dc/elements/1.1/" xmlns:cc="http://creativecommons.org/ns#" xmlns:rdf="http://www.w3.org/1999/02/22-rdf-syntax-ns#">
   <cc:Work>
    <dc:type rdf:resource="http://purl.org/dc/dcmitype/StillImage"/>
    <dc:date>2026-07-19T20:13:56.084605</dc:date>
    <dc:format>image/svg+xml</dc:format>
    <dc:creator>
     <cc:Agent>
      <dc:title>Matplotlib v3.11.1, https://matplotlib.org/</dc:title>
     </cc:Agent>
    </dc:creator>
   </cc:Work>
  </rdf:RDF>
 </metadata>
 <defs>
  <style type="text/css">*{stroke-linejoin: round; stroke-linecap: butt}</style>
 </defs>
 <g id="figure_1">
  <g id="patch_1">
   <path d="M 0 354.75 
L 671.55 354.75 
L 671.55 0 
L 0 0 
z
" style="fill: #ffffff"/>
  </g>
  <g id="axes_1">
   <g id="patch_2">
    <path d="M 31.843125 120.852589 
L 190.654375 120.852589 
Q 197.225875 120.852589 197.225875 113.559375 
L 197.225875 46.704911 
Q 197.225875 39.411696 190.654375 39.411696 
L 31.843125 39.411696 
Q 25.271625 39.411696 25.271625 46.704911 
L 25.271625 113.559375 
Q 25.271625 120.852589 31.843125 120.852589 
z
" clip-path="url(#pd5ad3556f5)" style="fill: #8a8f98"/>
   </g>
   <g id="patch_3">
    <path d="M 245.416875 120.852589 
L 415.180625 120.852589 
Q 421.752125 120.852589 421.752125 113.559375 
L 421.752125 46.704911 
Q 421.752125 39.411696 415.180625 39.411696 
L 245.416875 39.411696 
Q 238.845375 39.411696 238.845375 46.704911 
L 238.845375 113.559375 
Q 238.845375 120.852589 245.416875 120.852589 
z
" clip-path="url(#pd5ad3556f5)" style="fill: #1f2937"/>
   </g>
   <g id="patch_4">
    <path d="M 469.943125 120.852589 
L 639.706875 120.852589 
Q 646.278375 120.852589 646.278375 113.559375 
L 646.278375 46.704911 
Q 646.278375 39.411696 639.706875 39.411696 
L 469.943125 39.411696 
Q 463.371625 39.411696 463.371625 46.704911 
L 463.371625 113.559375 
Q 463.371625 120.852589 469.943125 120.852589 
z
" clip-path="url(#pd5ad3556f5)" style="fill: #1f8a56"/>
   </g>
   <g id="patch_5">
    <path d="M 75.653125 254.561518 
L 311.131875 254.561518 
Q 317.703375 254.561518 317.703375 247.268304 
L 317.703375 186.491518 
Q 317.703375 179.198304 311.131875 179.198304 
L 75.653125 179.198304 
Q 69.081625 179.198304 69.081625 186.491518 
L 69.081625 247.268304 
Q 69.081625 254.561518 75.653125 254.561518 
z
" clip-path="url(#pd5ad3556f5)" style="fill: #b7791f"/>
   </g>
   <g id="patch_6">
    <path d="M 371.370625 254.561518 
L 606.849375 254.561518 
Q 613.420875 254.561518 613.420875 247.268304 
L 613.420875 186.491518 
Q 613.420875 179.198304 606.849375 179.198304 
L 371.370625 179.198304 
Q 364.799125 179.198304 364.799125 186.491518 
L 364.799125 247.268304 
Q 364.799125 254.561518 371.370625 254.561518 
z
" clip-path="url(#pd5ad3556f5)" style="fill: #b91c1c"/>
   </g>
   <g id="text_1">
    <text style="font-weight: 700; font-size: 9.5px; font-family: 'Noto Naskh Arabic', 'DejaVu Sans'; text-anchor: middle; fill: #1f2937" x="335.775" y="314.122768" transform="rotate(-0 335.775 314.122768)">​ﺓﺪﻤﺠﻤﻟﺍ ﺔﻜﺒﺸﻟﺍﻭ ﺓﺮﻛﺍﺬﻟﺎﺑ ﺐﻳﺭﺪﺘﻟﺍ ﺭﺍﺮﻘﺘﺳﺍ + ﺮﺗ ﻢﻟ ﺕﻻﺎﺣ ﺮﺒﻋ ﻢﻴﻤﻌﺗ :ﻝﻭﺪﺠﻟﺍ ﻦﻋ ﺔﻴﻗﺮﺘﻟﺍ</text>
   </g>
   <g id="text_2">
    <text style="font-weight: 700; font-size: 9px; font-family: 'Noto Naskh Arabic', 'DejaVu Sans'; fill: #ffffff" transform="translate(92.073828 74.426143)">​ﻕﻮﺴﻟﺍ ﺔﻟﺎﺣ</text>
    <text style="font-weight: 700; font-size: 9px; font-family: 'Noto Naskh Arabic', 'DejaVu Sans'; fill: #ffffff" transform="translate(82.912812 89.753143)">(ﺔﻠﺼﺘﻣ ﺕﺍﺰﻴﻤﻣ)</text>
   </g>
   <g id="text_3">
    <text style="font-weight: 700; font-size: 9px; font-family: 'Noto Naskh Arabic', 'DejaVu Sans'; fill: #ffffff" transform="translate(309.107969 74.426143)">​ﺔﻴﺒﺼﻋ ﺔﻜﺒﺷ</text>
    <text style="font-weight: 700; font-size: 9px; font-family: 'Noto Naskh Arabic', 'DejaVu Sans'; fill: #ffffff" transform="translate(308.559531 89.753143)">(Q(s, a; θ</text>
   </g>
   <g id="text_4">
    <text style="font-weight: 700; font-size: 9px; font-family: 'Noto Naskh Arabic', 'DejaVu Sans'; fill: #ffffff" transform="translate(527.765938 74.426143)">​ﻞﻌﻓ ﻞﻜﻟ Q ﺔﻤﻴﻗ</text>
    <text style="font-weight: 700; font-size: 9px; font-family: 'Noto Naskh Arabic', 'DejaVu Sans'; fill: #ffffff" transform="translate(533.070312 89.753143)">ﺀﺍﺮﺷ / ﺝﻭﺮﺧ</text>
   </g>
   <g id="text_5">
    <text style="font-weight: 700; font-size: 9px; font-family: 'Noto Naskh Arabic', 'DejaVu Sans'; fill: #ffffff" transform="translate(160.290078 211.173911)">​ﻞﻴﻐﺸﺘﻟﺍ ﺓﺩﺎﻋﺇ ﺓﺮﻛﺍﺫ</text>
    <text style="font-weight: 700; font-size: 9px; font-family: 'Noto Naskh Arabic', 'DejaVu Sans'; fill: #ffffff" transform="translate(155.622734 226.500911)">(Replay Buffer)</text>
   </g>
   <g id="text_6">
    <text style="font-weight: 700; font-size: 9px; font-family: 'Noto Naskh Arabic', 'DejaVu Sans'; fill: #ffffff" transform="translate(458.915703 211.173911)">​ﺓﺪﻤﺠﻣ ﻑﺪﻫ ﺔﻜﺒﺷ</text>
    <text style="font-weight: 700; font-size: 9px; font-family: 'Noto Naskh Arabic', 'DejaVu Sans'; fill: #ffffff" transform="translate(446.402891 226.500911)">(Target Network)</text>
   </g>
   <g id="patch_7">
    <path d="M 198.128066 80.132143 
Q 218.035223 80.132143 235.92992 80.132143 
" clip-path="url(#pd5ad3556f5)" style="fill: none; stroke: #8a8f98; stroke-width: 1.8; stroke-linecap: round"/>
    <path d="M 229.52992 76.932143 
L 235.92992 80.132143 
L 229.52992 83.332143 
z
" clip-path="url(#pd5ad3556f5)" style="fill: #8a8f98; stroke: #8a8f98; stroke-width: 1.8; stroke-linecap: round"/>
   </g>
   <g id="patch_8">
    <path d="M 422.654316 80.132143 
Q 442.561473 80.132143 460.45617 80.132143 
" clip-path="url(#pd5ad3556f5)" style="fill: none; stroke: #8a8f98; stroke-width: 1.8; stroke-linecap: round"/>
    <path d="M 454.05617 76.932143 
L 460.45617 80.132143 
L 454.05617 83.332143 
z
" clip-path="url(#pd5ad3556f5)" style="fill: #8a8f98; stroke: #8a8f98; stroke-width: 1.8; stroke-linecap: round"/>
   </g>
  </g>
 </g>
 <defs>
  <clipPath id="pd5ad3556f5">
   <rect x="7.2" y="7.2" width="657.15" height="340.35"/>
  </clipPath>
 </defs>
</svg>
