<?xml version="1.0" encoding="utf-8" standalone="no"?>
<!DOCTYPE svg PUBLIC "-//W3C//DTD SVG 1.1//EN"
  "http://www.w3.org/Graphics/SVG/1.1/DTD/svg11.dtd">
<svg xmlns:xlink="http://www.w3.org/1999/xlink" width="671.55pt" height="325.95pt" viewBox="0 0 671.55 325.95" xmlns="http://www.w3.org/2000/svg" version="1.1">
 <metadata>
  <rdf:RDF xmlns:dc="http://purl.org/dc/elements/1.1/" xmlns:cc="http://creativecommons.org/ns#" xmlns:rdf="http://www.w3.org/1999/02/22-rdf-syntax-ns#">
   <cc:Work>
    <dc:type rdf:resource="http://purl.org/dc/dcmitype/StillImage"/>
    <dc:date>2026-07-19T19:43:05.774347</dc:date>
    <dc:format>image/svg+xml</dc:format>
    <dc:creator>
     <cc:Agent>
      <dc:title>Matplotlib v3.11.1, https://matplotlib.org/</dc:title>
     </cc:Agent>
    </dc:creator>
   </cc:Work>
  </rdf:RDF>
 </metadata>
 <defs>
  <style type="text/css">*{stroke-linejoin: round; stroke-linecap: butt}</style>
 </defs>
 <g id="figure_1">
  <g id="patch_1">
   <path d="M 0 325.95 
L 671.55 325.95 
L 671.55 0 
L 0 0 
z
" style="fill: #ffffff"/>
  </g>
  <g id="axes_1">
   <g id="patch_2">
    <path d="M 54.100484 293.72 
L 664.35 293.72 
L 664.35 7.2 
L 54.100484 7.2 
z
" style="fill: #ffffff"/>
   </g>
   <g id="matplotlib.axis_1">
    <g id="text_1">
     <text style="font-size: 10px; font-family: 'Noto Naskh Arabic', 'DejaVu Sans'; text-anchor: middle; fill: #1f2937" x="359.225242" y="312.41" transform="rotate(-0 359.225242 312.41)">​(ﻲﺋﺍﻮﺸﻋ ﻂﻠﺧ ﻻ) ﺙﺍﺪﺣﻷﺍ ﺐﻴﺗﺮﺗ ﻡﺮﺘﺤﻳ ﻲﻨﻣﺰﻟﺍ ﻢﻴﺴﻘﺘﻟﺍ :2013 — 2004</text>
    </g>
   </g>
   <g id="matplotlib.axis_2">
    <g id="ytick_1">
     <g id="line2d_1">
      <path d="M 54.100484 280.700049 
L 664.35 280.700049 
" clip-path="url(#pb396f40936)" style="fill: none; stroke: #e6e1d6; stroke-width: 0.8; stroke-linecap: square"/>
     </g>
     <g id="line2d_2">
      <defs>
       <path id="mb6e6d1a5ea" d="M 0 0 
L -3.5 0 
" style="stroke: #555555; stroke-width: 0.8"/>
      </defs>
      <g>
       <use xlink:href="#mb6e6d1a5ea" x="54.100484" y="280.700049" style="fill: #555555; stroke: #555555; stroke-width: 0.8"/>
      </g>
     </g>
     <g id="text_2">
      <text style="font-size: 10.5px; font-family: 'Noto Naskh Arabic', 'DejaVu Sans'; text-anchor: end; fill: #555555" x="47.100484" y="286.312299" transform="rotate(-0 47.100484 286.312299)">100</text>
     </g>
    </g>
    <g id="ytick_2">
     <g id="line2d_3">
      <path d="M 54.100484 243.849739 
L 664.35 243.849739 
" clip-path="url(#pb396f40936)" style="fill: none; stroke: #e6e1d6; stroke-width: 0.8; stroke-linecap: square"/>
     </g>
     <g id="line2d_4">
      <g>
       <use xlink:href="#mb6e6d1a5ea" x="54.100484" y="243.849739" style="fill: #555555; stroke: #555555; stroke-width: 0.8"/>
      </g>
     </g>
     <g id="text_3">
      <text style="font-size: 10.5px; font-family: 'Noto Naskh Arabic', 'DejaVu Sans'; text-anchor: end; fill: #555555" x="47.100484" y="249.461989" transform="rotate(-0 47.100484 249.461989)">200</text>
     </g>
    </g>
    <g id="ytick_3">
     <g id="line2d_5">
      <path d="M 54.100484 206.99943 
L 664.35 206.99943 
" clip-path="url(#pb396f40936)" style="fill: none; stroke: #e6e1d6; stroke-width: 0.8; stroke-linecap: square"/>
     </g>
     <g id="line2d_6">
      <g>
       <use xlink:href="#mb6e6d1a5ea" x="54.100484" y="206.99943" style="fill: #555555; stroke: #555555; stroke-width: 0.8"/>
      </g>
     </g>
     <g id="text_4">
      <text style="font-size: 10.5px; font-family: 'Noto Naskh Arabic', 'DejaVu Sans'; text-anchor: end; fill: #555555" x="47.100484" y="212.61168" transform="rotate(-0 47.100484 212.61168)">300</text>
     </g>
    </g>
    <g id="ytick_4">
     <g id="line2d_7">
      <path d="M 54.100484 170.14912 
L 664.35 170.14912 
" clip-path="url(#pb396f40936)" style="fill: none; stroke: #e6e1d6; stroke-width: 0.8; stroke-linecap: square"/>
     </g>
     <g id="line2d_8">
      <g>
       <use xlink:href="#mb6e6d1a5ea" x="54.100484" y="170.14912" style="fill: #555555; stroke: #555555; stroke-width: 0.8"/>
      </g>
     </g>
     <g id="text_5">
      <text style="font-size: 10.5px; font-family: 'Noto Naskh Arabic', 'DejaVu Sans'; text-anchor: end; fill: #555555" x="47.100484" y="175.76137" transform="rotate(-0 47.100484 175.76137)">400</text>
     </g>
    </g>
    <g id="ytick_5">
     <g id="line2d_9">
      <path d="M 54.100484 133.298811 
L 664.35 133.298811 
" clip-path="url(#pb396f40936)" style="fill: none; stroke: #e6e1d6; stroke-width: 0.8; stroke-linecap: square"/>
     </g>
     <g id="line2d_10">
      <g>
       <use xlink:href="#mb6e6d1a5ea" x="54.100484" y="133.298811" style="fill: #555555; stroke: #555555; stroke-width: 0.8"/>
      </g>
     </g>
     <g id="text_6">
      <text style="font-size: 10.5px; font-family: 'Noto Naskh Arabic', 'DejaVu Sans'; text-anchor: end; fill: #555555" x="47.100484" y="138.911061" transform="rotate(-0 47.100484 138.911061)">500</text>
     </g>
    </g>
    <g id="ytick_6">
     <g id="line2d_11">
      <path d="M 54.100484 96.448501 
L 664.35 96.448501 
" clip-path="url(#pb396f40936)" style="fill: none; stroke: #e6e1d6; stroke-width: 0.8; stroke-linecap: square"/>
     </g>
     <g id="line2d_12">
      <g>
       <use xlink:href="#mb6e6d1a5ea" x="54.100484" y="96.448501" style="fill: #555555; stroke: #555555; stroke-width: 0.8"/>
      </g>
     </g>
     <g id="text_7">
      <text style="font-size: 10.5px; font-family: 'Noto Naskh Arabic', 'DejaVu Sans'; text-anchor: end; fill: #555555" x="47.100484" y="102.060751" transform="rotate(-0 47.100484 102.060751)">600</text>
     </g>
    </g>
    <g id="ytick_7">
     <g id="line2d_13">
      <path d="M 54.100484 59.598192 
L 664.35 59.598192 
" clip-path="url(#pb396f40936)" style="fill: none; stroke: #e6e1d6; stroke-width: 0.8; stroke-linecap: square"/>
     </g>
     <g id="line2d_14">
      <g>
       <use xlink:href="#mb6e6d1a5ea" x="54.100484" y="59.598192" style="fill: #555555; stroke: #555555; stroke-width: 0.8"/>
      </g>
     </g>
     <g id="text_8">
      <text style="font-size: 10.5px; font-family: 'Noto Naskh Arabic', 'DejaVu Sans'; text-anchor: end; fill: #555555" x="47.100484" y="65.210442" transform="rotate(-0 47.100484 65.210442)">700</text>
     </g>
    </g>
    <g id="ytick_8">
     <g id="line2d_15">
      <path d="M 54.100484 22.747883 
L 664.35 22.747883 
" clip-path="url(#pb396f40936)" style="fill: none; stroke: #e6e1d6; stroke-width: 0.8; stroke-linecap: square"/>
     </g>
     <g id="line2d_16">
      <g>
       <use xlink:href="#mb6e6d1a5ea" x="54.100484" y="22.747883" style="fill: #555555; stroke: #555555; stroke-width: 0.8"/>
      </g>
     </g>
     <g id="text_9">
      <text style="font-size: 10.5px; font-family: 'Noto Naskh Arabic', 'DejaVu Sans'; text-anchor: end; fill: #555555" x="47.100484" y="28.360133" transform="rotate(-0 47.100484 28.360133)">800</text>
     </g>
    </g>
    <g id="text_10">
     <text style="font-size: 10.5px; font-family: 'Noto Naskh Arabic', 'DejaVu Sans'; text-anchor: middle; fill: #1f2937" x="18.4245" y="150.46" transform="rotate(-90 18.4245 150.46)">​(ﺭﻻﻭﺩ) GOOG ﺮﻌﺳ</text>
    </g>
   </g>
   <g id="patch_3">
    <path d="M 81.839099 293.72 
L 470.024735 293.72 
L 470.024735 7.2 
L 81.839099 7.2 
z
" clip-path="url(#pb396f40936)" style="fill: #1f8a56; opacity: 0.1; stroke: #1f8a56; stroke-linejoin: miter"/>
   </g>
   <g id="patch_4">
    <path d="M 470.024735 293.72 
L 553.188924 293.72 
L 553.188924 7.2 
L 470.024735 7.2 
z
" clip-path="url(#pb396f40936)" style="fill: #b7791f; opacity: 0.14; stroke: #b7791f; stroke-linejoin: miter"/>
   </g>
   <g id="patch_5">
    <path d="M 553.188924 293.72 
L 636.611386 293.72 
L 636.611386 7.2 
L 553.188924 7.2 
z
" clip-path="url(#pb396f40936)" style="fill: #b91c1c; opacity: 0.1; stroke: #b91c1c; stroke-linejoin: miter"/>
   </g>
   <g id="line2d_17">
    <path d="M 81.839099 280.574758 
L 82.097373 277.637788 
L 82.355646 277.23612 
L 82.61392 278.905439 
L 82.872194 278.48903 
L 83.130468 277.785189 
L 83.388742 278.433755 
L 83.647016 279.959357 
L 83.90529 279.826696 
L 84.163564 280.607923 
L 84.421837 280.143609 
L 84.680111 280.696364 
L 84.938385 280.117814 
L 85.196659 279.852492 
L 85.454933 279.848807 
L 86.229755 276.465948 
L 86.488029 276.278012 
L 86.746302 275.55206 
L 87.004576 274.25493 
L 87.26285 273.565829 
L 87.521124 274.125953 
L 87.779398 273.926962 
L 88.037672 273.027814 
L 88.295946 273.392632 
L 88.55422 273.971182 
L 88.812493 270.802056 
L 89.070767 269.246972 
L 89.329041 269.792357 
L 90.103863 266.560585 
L 90.362137 267.035954 
L 90.620411 266.383703 
L 90.878684 266.796427 
L 91.136958 267.70663 
L 91.395232 266.918033 
L 91.653506 265.628272 
L 91.91178 265.222919 
L 92.170054 264.445377 
L 92.428328 262.584437 
L 92.686602 263.03401 
L 92.944875 265.779358 
L 93.203149 262.503366 
L 93.719697 248.492878 
L 93.977971 250.556496 
L 94.236245 249.019838 
L 94.494519 246.31871 
L 94.752793 247.298928 
L 95.011066 245.312697 
L 95.26934 245.74016 
L 95.527614 246.91937 
L 95.785888 249.487837 
L 96.044162 255.144359 
L 96.302436 253.965149 
L 96.56071 255.383886 
L 96.818984 255.693429 
L 97.077257 250.106922 
L 97.335531 250.482795 
L 97.593805 249.425191 
L 97.852079 253.968834 
L 98.110353 253.983574 
L 98.368627 255.81135 
L 98.626901 255.125934 
L 98.885175 256.710497 
L 99.143448 255.81872 
L 99.659996 251.444588 
L 100.176544 250.490165 
L 100.434818 251.234541 
L 100.693092 251.440903 
L 100.951366 251.0724 
L 101.467913 254.377873 
L 101.726187 254.912202 
L 101.984461 253.640866 
L 102.501009 254.739006 
L 102.759283 251.70254 
L 103.017557 251.300872 
L 103.27583 252.520617 
L 103.792378 249.369916 
L 104.050652 249.837915 
L 104.825474 246.830929 
L 105.083748 246.517702 
L 105.342021 246.466111 
L 105.600295 244.734147 
L 105.858569 246.506647 
L 106.116843 242.851096 
L 106.375117 245.876506 
L 106.633391 246.241324 
L 106.891665 248.0691 
L 107.149939 246.116033 
L 107.408213 245.670145 
L 107.666486 246.230269 
L 107.92476 245.552224 
L 108.183034 245.570649 
L 108.699582 242.412577 
L 108.957856 244.844698 
L 109.21613 246.090238 
L 109.990951 252.28109 
L 110.249225 247.814833 
L 110.507499 248.242296 
L 110.765773 247.409479 
L 111.024047 245.463783 
L 111.282321 246.834614 
L 111.540595 241.653461 
L 111.798868 239.847796 
L 112.315416 245.312697 
L 112.57369 244.350903 
L 112.831964 246.952535 
L 113.090238 248.279146 
L 113.348512 248.492878 
L 113.606786 246.432946 
L 114.123333 244.435659 
L 114.381607 244.623596 
L 114.639881 244.605171 
L 114.898155 247.029921 
L 115.156429 246.079183 
L 115.672977 249.056688 
L 115.93125 248.275461 
L 116.189524 248.986672 
L 116.447798 249.310955 
L 116.706072 248.636594 
L 116.964346 249.045633 
L 117.22262 247.973289 
L 117.739168 250.722322 
L 117.997441 251.227171 
L 118.513989 253.066002 
L 118.772263 251.73202 
L 119.030537 252.841215 
L 119.288811 251.481438 
L 119.805359 250.895518 
L 120.063632 251.735705 
L 120.58018 251.496178 
L 120.838454 250.696527 
L 121.096728 251.378257 
L 121.355002 251.053975 
L 121.613276 251.031865 
L 121.87155 251.205061 
L 122.388097 248.06173 
L 122.646371 247.822203 
L 122.904645 246.149199 
L 123.162919 246.779339 
L 123.679467 246.075498 
L 124.196014 247.000441 
L 124.454288 249.377286 
L 124.712562 248.651335 
L 124.970836 247.018866 
L 125.487384 242.294656 
L 126.003932 235.178861 
L 126.262205 236.940306 
L 126.520479 236.560748 
L 126.778753 236.682354 
L 127.037027 236.479677 
L 127.295301 235.635805 
L 127.811849 233.347401 
L 128.070123 233.907526 
L 128.328397 233.524283 
L 128.58667 234.261289 
L 128.844944 233.605353 
L 129.103218 232.319277 
L 129.361492 233.26633 
L 129.619766 233.074709 
L 130.136314 231.641232 
L 130.394588 229.419158 
L 130.652861 229.411788 
L 130.911135 228.516325 
L 131.169409 223.416243 
L 131.427683 223.213566 
L 131.685957 221.441066 
L 131.944231 222.034356 
L 132.202505 219.528535 
L 132.719052 211.421467 
L 132.977326 211.458317 
L 133.2356 214.273681 
L 133.493874 210.338068 
L 133.752148 209.534731 
L 134.010422 214.531633 
L 134.268696 212.044237 
L 134.52697 213.448234 
L 134.785243 213.356108 
L 135.301791 216.285708 
L 135.818339 214.258941 
L 136.076613 211.900521 
L 136.851434 210.791327 
L 137.367982 205.488567 
L 137.626256 206.262424 
L 137.88453 209.682132 
L 138.142804 209.155173 
L 138.401078 210.223832 
L 138.659352 208.580308 
L 138.917625 210.124336 
L 139.175899 208.642954 
L 139.434173 208.388686 
L 139.692447 209.449975 
L 139.950721 210.028525 
L 140.208995 207.419523 
L 140.467269 206.671462 
L 140.725543 206.560911 
L 140.983816 207.168941 
L 141.24209 203.351249 
L 141.758638 201.862497 
L 142.016912 206.115022 
L 142.275186 208.528718 
L 142.53346 208.440277 
L 142.791734 208.130734 
L 143.050007 209.3947 
L 143.308281 211.509908 
L 143.566555 210.091171 
L 143.824829 207.297917 
L 144.083103 207.994388 
L 144.341377 207.835932 
L 144.599651 209.818478 
L 144.857925 210.223832 
L 145.116198 210.105911 
L 145.374472 212.276394 
L 145.632746 212.877054 
L 145.89102 210.787642 
L 146.149294 212.895479 
L 146.407568 212.287449 
L 146.665842 212.490126 
L 146.924116 214.373177 
L 147.18239 214.369492 
L 147.440663 216.576825 
L 147.698937 214.524263 
L 147.957211 213.422439 
L 148.215485 213.415069 
L 148.473759 213.050251 
L 148.732033 211.255641 
L 149.248581 212.158473 
L 149.506854 212.066347 
L 149.765128 211.255641 
L 150.023402 211.749435 
L 150.281676 208.889851 
L 150.53995 208.698229 
L 150.798224 207.334768 
L 151.056498 203.41021 
L 151.314772 202.695314 
L 151.573045 205.89392 
L 151.831319 206.033952 
L 152.089593 206.925729 
L 152.864415 202.614243 
L 153.122689 202.80955 
L 153.380963 201.339222 
L 153.639236 201.737206 
L 153.89751 201.862497 
L 154.155784 204.788411 
L 154.414058 203.45443 
L 154.672332 200.933869 
L 154.930606 200.115792 
L 155.18888 202.945896 
L 155.447154 203.052762 
L 155.705427 202.301015 
L 155.963701 202.212575 
L 156.221975 203.074872 
L 156.996797 207.942798 
L 157.255071 208.421852 
L 157.513345 205.156914 
L 157.771618 205.79074 
L 158.029892 203.793453 
L 158.288166 205.82022 
L 158.54644 192.296156 
L 158.804714 189.071754 
L 159.062988 189.71295 
L 159.321262 186.569618 
L 159.579536 187.446656 
L 159.837809 185.563605 
L 160.096083 180.415617 
L 160.354357 177.747654 
L 160.612631 177.637103 
L 161.129179 173.675695 
L 161.387453 171.980581 
L 161.645727 173.871002 
L 161.904 177.83241 
L 162.162274 173.428798 
L 162.420548 173.68675 
L 162.678822 171.265685 
L 162.937096 172.802343 
L 163.453644 168.877785 
L 163.711918 170.071735 
L 164.228465 164.079874 
L 164.745013 159.602562 
L 165.003287 161.496668 
L 165.261561 168.844619 
L 165.519835 168.33977 
L 165.778109 164.956912 
L 166.036382 163.626616 
L 166.294656 167.993377 
L 166.55293 168.476116 
L 166.811204 168.594037 
L 167.069478 166.224562 
L 167.327752 166.758892 
L 168.360847 161.839376 
L 168.619121 159.038752 
L 168.877395 161.083944 
L 169.135669 159.189838 
L 169.393943 160.446434 
L 169.652217 158.342281 
L 169.910491 158.75132 
L 170.168765 161.069204 
L 170.427038 160.313773 
L 170.943586 164.673164 
L 171.20186 157.166756 
L 171.976682 145.953207 
L 172.234956 145.496263 
L 172.751503 143.753244 
L 173.009777 146.701268 
L 173.268051 145.73579 
L 173.526325 145.418878 
L 173.784599 153.599646 
L 174.042873 156.717183 
L 174.301147 170.348112 
L 174.55942 160.015285 
L 174.817694 154.292432 
L 175.075968 157.988518 
L 175.334242 157.520519 
L 175.592516 157.807952 
L 175.85079 160.265867 
L 176.109064 158.113809 
L 176.367338 169.493185 
L 176.625611 171.608393 
L 176.883885 176.948002 
L 177.142159 175.639816 
L 177.400433 181.9707 
L 177.658707 181.543236 
L 177.916981 185.342503 
L 178.175255 183.927451 
L 178.433529 190.158838 
L 178.691802 191.035876 
L 178.950076 191.382269 
L 179.20835 182.508714 
L 179.466624 181.664842 
L 179.724898 182.460809 
L 179.983172 182.866162 
L 180.241446 178.230393 
L 180.49972 178.47729 
L 180.757993 173.69412 
L 181.016267 183.923766 
L 181.274541 183.120429 
L 181.532815 178.827368 
L 181.791089 178.189858 
L 182.049363 181.904369 
L 182.307637 183.249405 
L 182.824184 191.153797 
L 183.082458 193.180564 
L 183.340732 193.342705 
L 183.599006 188.146811 
L 184.115554 192.712565 
L 184.373828 192.336692 
L 184.632102 189.241266 
L 184.890375 192.288786 
L 185.148649 192.178235 
L 185.406923 191.562835 
L 185.665197 182.751926 
L 185.923471 181.318449 
L 186.181745 178.550991 
L 186.440019 171.999006 
L 186.698293 174.409016 
L 186.956566 173.834151 
L 187.21484 173.944702 
L 187.473114 168.549817 
L 187.989662 166.029256 
L 188.247936 167.879141 
L 188.50621 164.11304 
L 188.764484 166.58938 
L 189.022758 166.851018 
L 189.281031 169.353154 
L 189.539305 167.635929 
L 189.797579 168.586667 
L 190.314127 164.621574 
L 190.572401 156.477656 
L 190.830675 155.224745 
L 191.088949 160.140576 
L 191.347222 160.579095 
L 191.605496 162.768003 
L 191.86377 163.538175 
L 192.122044 170.554474 
L 192.380318 172.065336 
L 192.638592 172.297493 
L 192.896866 172.083762 
L 193.15514 172.249588 
L 193.413413 172.072706 
L 193.671687 166.906293 
L 193.929961 169.050981 
L 194.446509 179.682295 
L 194.704783 178.919494 
L 194.963057 180.725159 
L 195.221331 179.545949 
L 195.479604 180.839395 
L 195.737878 181.196843 
L 195.996152 180.854135 
L 196.770974 176.417358 
L 197.029248 177.021703 
L 197.287522 180.489317 
L 197.545795 180.533538 
L 197.804069 176.553704 
L 198.062343 177.725544 
L 198.320617 179.568059 
L 198.578891 173.837836 
L 198.837165 175.120227 
L 199.095439 172.618091 
L 199.611986 176.951687 
L 199.87026 175.116542 
L 200.128534 175.901454 
L 200.386808 173.465648 
L 200.645082 173.576199 
L 200.903356 174.519567 
L 201.16163 174.877015 
L 201.419904 169.364209 
L 201.678177 170.167545 
L 201.936451 168.358195 
L 202.194725 168.594037 
L 202.452999 169.294193 
L 202.711273 167.897566 
L 202.969547 163.58608 
L 203.227821 163.025956 
L 203.486095 161.599849 
L 203.744368 162.241044 
L 204.002642 161.603534 
L 204.51919 163.442364 
L 204.777464 161.098684 
L 205.552286 168.85936 
L 205.810559 167.241631 
L 206.327107 170.517623 
L 206.585381 174.89544 
L 206.843655 173.793616 
L 207.101929 173.502498 
L 207.360203 174.069993 
L 207.876751 176.634775 
L 208.135024 174.526937 
L 208.393298 175.087062 
L 208.909846 182.224967 
L 209.16812 179.217981 
L 209.426394 179.785476 
L 209.942942 177.150679 
L 210.717763 181.756968 
L 210.976037 181.41426 
L 211.492585 174.674338 
L 212.009133 176.281012 
L 212.267406 178.514141 
L 212.52568 178.149323 
L 212.783954 179.940248 
L 213.042228 179.829697 
L 213.300502 180.002893 
L 213.558776 177.169104 
L 213.81705 177.90611 
L 214.075324 177.242805 
L 214.333597 178.060882 
L 214.591871 178.035087 
L 214.850145 175.912509 
L 215.108419 177.467592 
L 215.366693 178.075622 
L 215.624967 178.311464 
L 216.141515 173.133995 
L 216.399788 167.728055 
L 216.658062 168.682478 
L 217.17461 164.73581 
L 217.691158 171.25463 
L 217.949432 167.624874 
L 218.207706 168.756179 
L 218.465979 168.682478 
L 218.724253 167.617504 
L 218.982527 169.073091 
L 219.240801 168.829879 
L 219.499075 169.448964 
L 219.757349 169.618476 
L 220.015623 168.660368 
L 220.273897 164.363622 
L 220.53217 165.797099 
L 221.048718 159.462531 
L 221.306992 160.328513 
L 221.565266 160.383788 
L 221.82354 160.037395 
L 222.081814 160.088986 
L 222.340088 162.134178 
L 222.856635 163.033326 
L 223.114909 160.54593 
L 223.631457 140.38144 
L 223.889731 143.134158 
L 224.148005 138.236752 
L 224.406279 138.789507 
L 224.664552 142.437688 
L 224.922826 141.932838 
L 225.1811 141.999169 
L 225.439374 145.275161 
L 225.955922 143.690598 
L 226.214196 141.792807 
L 226.47247 143.406851 
L 226.730743 142.511388 
L 226.989017 143.384741 
L 227.247291 143.045718 
L 227.763839 137.241794 
L 228.022113 136.272631 
L 228.538661 133.7447 
L 228.796935 135.122901 
L 229.055208 129.742756 
L 229.313482 130.347101 
L 229.571756 131.456295 
L 229.83003 138.918483 
L 230.088304 137.168093 
L 230.346578 138.955333 
L 230.604852 138.896373 
L 230.863126 140.37407 
L 231.121399 138.881633 
L 231.637947 137.459211 
L 231.896221 139.696025 
L 232.154495 139.154325 
L 232.412769 139.220656 
L 232.929317 141.041061 
L 233.18759 139.887646 
L 233.445864 140.558322 
L 233.704138 147.007126 
L 233.962412 144.858753 
L 234.47896 149.439246 
L 234.737234 149.667718 
L 234.995508 148.949137 
L 235.253781 145.079855 
L 235.512055 147.095567 
L 235.770329 147.862053 
L 236.028603 145.241996 
L 236.286877 139.467553 
L 236.545151 138.019336 
L 236.803425 139.349632 
L 237.061699 138.642106 
L 237.319972 137.182834 
L 237.578246 133.401992 
L 237.83652 131.456295 
L 238.094794 131.721618 
L 238.611342 137.783494 
L 238.869616 137.075968 
L 239.12789 140.35933 
L 239.386163 141.018951 
L 239.644437 133.641519 
L 239.902711 137.687683 
L 240.160985 134.831784 
L 240.419259 136.073639 
L 240.677533 135.391908 
L 240.935807 132.746056 
L 241.194081 140.023992 
L 241.452354 140.116118 
L 241.710628 145.400453 
L 241.968902 143.808519 
L 242.227176 144.350219 
L 242.48545 143.974346 
L 242.743724 147.342464 
L 243.001998 148.669075 
L 243.260272 148.370587 
L 243.518545 145.853711 
L 243.776819 147.497235 
L 244.035093 144.376014 
L 244.293367 143.580047 
L 244.551641 142.194476 
L 244.809915 142.198161 
L 245.326463 146.222214 
L 245.584736 152.177224 
L 245.84301 151.926642 
L 246.101284 152.376216 
L 246.359558 155.895421 
L 246.617832 155.058919 
L 246.876106 148.941767 
L 247.13438 149.645608 
L 247.392654 149.984631 
L 247.650927 150.633196 
L 247.909201 149.973576 
L 248.167475 154.292432 
L 248.425749 152.460972 
L 248.684023 153.127962 
L 248.942297 155.095769 
L 249.200571 152.744719 
L 249.458845 153.4633 
L 249.717119 149.31027 
L 249.975392 147.287188 
L 250.233666 147.364574 
L 250.49194 146.196419 
L 251.266762 147.699912 
L 251.525036 148.71698 
L 251.78331 148.580634 
L 252.041583 143.395796 
L 252.299857 143.978031 
L 252.558131 143.797464 
L 252.816405 145.013524 
L 253.332953 146.369616 
L 253.591227 145.315697 
L 253.849501 145.72105 
L 254.107774 142.780396 
L 254.366048 143.322095 
L 254.624322 142.1392 
L 254.882596 143.745874 
L 255.14087 139.754985 
L 255.399144 141.007896 
L 255.657418 141.579075 
L 255.915692 141.409564 
L 256.173965 140.234039 
L 256.432239 141.033691 
L 256.690513 143.845369 
L 257.207061 145.908987 
L 257.465335 143.163639 
L 257.723609 143.94118 
L 257.981883 145.359917 
L 258.240156 145.529429 
L 258.49843 144.630281 
L 258.756704 147.497235 
L 259.014978 145.555224 
L 259.531526 148.775941 
L 259.7898 143.392111 
L 260.048074 144.000141 
L 260.306347 144.235983 
L 260.564621 144.132802 
L 260.822895 142.194476 
L 261.081169 142.890946 
L 261.339443 142.758285 
L 261.597717 139.371742 
L 261.855991 138.048816 
L 262.114265 133.814715 
L 262.372538 134.068982 
L 262.630812 133.15141 
L 262.889086 130.693494 
L 263.14736 126.356213 
L 263.405634 126.573629 
L 263.663908 127.749154 
L 263.922182 127.590698 
L 264.180456 129.119986 
L 264.438729 131.541051 
L 264.697003 131.367855 
L 264.955277 132.252262 
L 265.213551 131.128328 
L 265.471825 127.697564 
L 265.730099 128.025532 
L 265.988373 129.624835 
L 266.246647 128.099232 
L 266.50492 124.093604 
L 267.021468 122.147907 
L 267.279742 123.610865 
L 267.538016 124.082549 
L 267.79629 124.933791 
L 268.054564 122.103687 
L 268.312838 120.644415 
L 268.571112 117.958027 
L 268.829385 118.779789 
L 269.087659 117.615319 
L 269.862481 116.594566 
L 270.120755 114.077689 
L 270.379029 113.771832 
L 270.637303 113.031141 
L 270.895576 115.057908 
L 271.15385 115.393246 
L 271.412124 125.884529 
L 271.670398 128.688837 
L 271.928672 128.139768 
L 272.186946 129.702221 
L 272.44522 130.350786 
L 272.961767 127.362226 
L 273.220041 129.61378 
L 273.478315 128.530381 
L 273.736589 129.241592 
L 273.994863 132.193302 
L 274.769685 123.798801 
L 275.027958 127.87076 
L 275.286232 127.494887 
L 275.544506 127.587013 
L 275.80278 130.129684 
L 276.061054 134.201643 
L 276.319328 136.423717 
L 276.577602 133.284071 
L 276.835876 134.065297 
L 277.352423 128.600396 
L 277.610697 128.806758 
L 277.868971 127.771264 
L 278.127245 128.41246 
L 278.385519 130.940391 
L 278.643793 128.552491 
L 278.902067 129.097876 
L 279.16034 127.679139 
L 279.418614 124.030958 
L 279.676888 123.054425 
L 280.45171 127.962886 
L 280.709984 125.43864 
L 280.968258 124.952216 
L 281.226531 124.167304 
L 281.484805 122.704347 
L 281.743079 123.975683 
L 282.517901 113.830792 
L 283.034449 108.23323 
L 283.292722 107.872097 
L 283.80927 108.424852 
L 284.067544 108.509608 
L 284.325818 102.87888 
L 284.584092 102.200835 
L 284.842366 102.337181 
L 285.10064 104.176011 
L 285.617187 92.903502 
L 285.875461 90.854624 
L 286.133735 87.092208 
L 286.392009 88.341433 
L 286.650283 82.670171 
L 286.908557 89.037904 
L 287.166831 90.552452 
L 287.425104 84.111018 
L 288.199926 77.746969 
L 288.4582 68.527022 
L 288.716474 68.508597 
L 288.974748 71.202354 
L 289.491296 67.252001 
L 290.007843 57.01867 
L 290.266117 58.415297 
L 290.524391 55.452532 
L 291.040939 44.198448 
L 291.299213 47.4597 
L 292.074034 84.630607 
L 292.332308 74.135639 
L 292.848856 85.522385 
L 293.10713 84.055742 
L 293.365404 86.922696 
L 293.623678 78.561361 
L 294.140225 68.184314 
L 294.398499 72.127297 
L 294.656773 69.337729 
L 294.915047 62.450406 
L 295.173321 60.703701 
L 295.431595 62.177714 
L 295.689869 66.404444 
L 295.948142 65.435281 
L 296.46469 53.974835 
L 296.722964 54.118551 
L 296.981238 52.810365 
L 297.239512 59.892994 
L 297.497786 59.837719 
L 298.014333 63.297963 
L 298.272607 70.937032 
L 298.789155 67.937417 
L 299.047429 63.397459 
L 299.822251 55.603618 
L 300.080524 59.3255 
L 300.338798 58.665879 
L 300.855346 65.055723 
L 301.11362 65.004132 
L 301.371894 75.443825 
L 301.630168 78.299724 
L 301.888442 84.774323 
L 302.146715 76.844137 
L 302.663263 82.353258 
L 302.921537 76.615665 
L 303.696359 96.157384 
L 303.954633 96.356376 
L 304.212906 102.215575 
L 304.47118 115.38219 
L 304.729454 105.849015 
L 305.504276 114.682035 
L 305.76255 115.511167 
L 306.020824 109.604062 
L 306.279097 127.439612 
L 306.537371 134.98287 
L 306.795645 130.79299 
L 307.053919 132.668671 
L 307.312193 131.474721 
L 307.570467 127.148494 
L 307.828741 125.501285 
L 308.087015 126.63259 
L 308.345288 120.541234 
L 308.861836 122.376379 
L 309.12011 130.000708 
L 309.378384 129.982283 
L 309.636658 132.244892 
L 309.894932 130.424487 
L 310.41148 146.494907 
L 310.669753 143.299985 
L 310.928027 142.367672 
L 311.186301 143.91907 
L 311.702849 153.713882 
L 311.961123 152.571523 
L 312.219397 158.099069 
L 312.477671 157.859542 
L 312.735944 165.130108 
L 312.994218 155.467957 
L 313.252492 155.342666 
L 313.510766 154.299802 
L 313.76904 156.175483 
L 314.027314 162.826964 
L 314.285588 155.718539 
L 314.543862 158.357021 
L 314.802135 157.785842 
L 315.060409 147.832573 
L 315.318683 151.436533 
L 315.576957 148.705925 
L 315.835231 153.905504 
L 316.093505 156.116522 
L 316.351779 155.2358 
L 316.610053 145.934782 
L 316.868326 145.938467 
L 317.1266 149.83723 
L 317.384874 143.952235 
L 317.643148 141.840713 
L 317.901422 145.160926 
L 318.159696 146.494907 
L 318.41797 144.692927 
L 318.676244 148.978618 
L 319.192791 152.888435 
L 319.451065 149.870395 
L 319.709339 151.893477 
L 319.967613 118.776104 
L 320.225887 119.373079 
L 320.484161 113.031141 
L 320.742435 116.167102 
L 321.000708 117.438438 
L 321.258982 117.062565 
L 321.77553 111.752435 
L 322.292078 98.998543 
L 322.550352 103.343194 
L 322.808626 98.327867 
L 323.325173 104.187066 
L 323.583447 102.709369 
L 323.841721 106.324384 
L 324.099995 101.998158 
L 324.358269 102.713054 
L 324.616543 105.182025 
L 324.874817 103.45006 
L 325.13309 103.792768 
L 325.391364 104.732451 
L 325.649638 104.334468 
L 325.907912 114.877341 
L 326.166186 115.072648 
L 326.42446 116.856203 
L 326.682734 110.856972 
L 326.941008 108.15216 
L 327.199281 102.713054 
L 327.457555 101.681245 
L 327.974103 108.498553 
L 328.232377 106.685517 
L 328.490651 101.496994 
L 328.748925 108.609104 
L 329.007199 111.973537 
L 329.265473 113.336998 
L 329.523746 116.642471 
L 329.78202 113.786572 
L 330.040294 106.947155 
L 330.298568 106.468101 
L 330.556842 107.702586 
L 330.815116 110.311588 
L 331.07339 111.114925 
L 331.331664 116.189212 
L 331.589937 116.638786 
L 331.848211 117.71113 
L 332.106485 114.505153 
L 332.364759 122.678552 
L 332.623033 122.954929 
L 332.881307 123.562959 
L 333.139581 120.500698 
L 333.397855 123.334487 
L 334.172676 113.204337 
L 334.43095 117.987507 
L 334.689224 118.34864 
L 334.947498 120.843406 
L 335.205772 125.331774 
L 335.464046 127.369596 
L 335.722319 120.180101 
L 335.980593 120.976067 
L 336.238867 140.182449 
L 336.497141 144.796107 
L 336.755415 141.733847 
L 337.013689 137.271274 
L 337.271963 142.282916 
L 337.530237 136.254206 
L 337.78851 141.730162 
L 338.046784 139.522828 
L 338.305058 139.673914 
L 338.821606 145.1425 
L 339.07988 146.933425 
L 339.338154 140.724148 
L 339.596428 138.332563 
L 339.854701 140.993156 
L 340.112975 135.137641 
L 340.371249 132.989268 
L 340.629523 132.337018 
L 340.887797 133.287756 
L 341.404345 129.558504 
L 341.920892 136.79959 
L 342.179166 138.826357 
L 342.43744 138.262548 
L 342.695714 136.766425 
L 343.470536 144.877178 
L 343.72881 142.960962 
L 343.987083 146.826559 
L 344.245357 146.104293 
L 344.503631 146.413836 
L 344.761905 151.628155 
L 345.020179 153.842858 
L 345.278453 162.797484 
L 345.536727 163.272853 
L 345.795001 164.931117 
L 346.053274 157.712141 
L 346.311548 156.271294 
L 346.569822 157.671606 
L 346.828096 154.329282 
L 347.08637 164.80951 
L 347.344644 155.748019 
L 347.602918 152.037193 
L 347.861192 159.042437 
L 348.119465 159.363035 
L 348.636013 155.556398 
L 348.894287 158.710784 
L 349.152561 177.150679 
L 349.669109 165.830264 
L 349.927383 173.653585 
L 350.185657 174.972826 
L 350.44393 180.758324 
L 350.702204 190.044602 
L 351.218752 196.32021 
L 351.477026 195.207331 
L 351.7353 177.143309 
L 352.251848 192.565164 
L 353.026669 177.769764 
L 353.284943 183.875861 
L 353.543217 186.484863 
L 353.801491 187.719348 
L 354.318039 196.132274 
L 354.576312 181.664842 
L 354.834586 185.62625 
L 355.09286 185.00348 
L 355.351134 185.125086 
L 355.609408 189.867721 
L 355.867682 182.331833 
L 356.125956 191.433859 
L 356.38423 195.494763 
L 356.642503 195.524243 
L 357.417325 210.315958 
L 357.675599 202.547912 
L 357.933873 203.307029 
L 358.192147 206.955209 
L 358.450421 207.950168 
L 358.966968 221.901695 
L 359.225242 220.844091 
L 359.483516 222.682921 
L 359.74179 213.61406 
L 360.000064 209.914289 
L 360.258338 209.593692 
L 360.516612 219.53222 
L 360.774885 216.171472 
L 361.033159 214.579538 
L 361.291433 216.455219 
L 361.549707 212.899164 
L 361.807981 206.221888 
L 362.324529 203.749232 
L 362.582803 206.918359 
L 362.841076 201.191821 
L 363.09935 203.067502 
L 363.357624 197.683672 
L 363.615898 201.383443 
L 363.874172 203.211218 
L 364.132446 203.251753 
L 364.39072 208.064404 
L 364.648994 207.729066 
L 364.907267 205.912346 
L 365.423815 207.950168 
L 365.940363 204.180381 
L 366.198637 199.142944 
L 366.715185 194.448214 
L 366.973458 198.888677 
L 367.231732 197.716837 
L 367.490006 201.446088 
L 367.74828 202.323126 
L 368.006554 201.722465 
L 368.264828 206.641982 
L 368.523102 207.371618 
L 368.781376 207.121036 
L 369.039649 213.356108 
L 369.297923 205.86444 
L 369.556197 204.60416 
L 369.814471 197.897403 
L 370.072745 198.203261 
L 370.331019 195.398952 
L 370.589293 189.064384 
L 371.105841 192.801006 
L 371.364114 192.049259 
L 371.622388 192.09348 
L 371.880662 191.153797 
L 372.138936 187.203444 
L 372.39721 180.732529 
L 372.655484 177.972441 
L 372.913758 185.438314 
L 373.172032 185.61151 
L 373.430305 183.76531 
L 373.688579 185.744171 
L 373.946853 191.279088 
L 374.205127 187.42823 
L 374.463401 191.286458 
L 374.721675 189.882461 
L 374.979949 195.922227 
L 375.238223 190.250964 
L 375.75477 193.298485 
L 376.013044 192.999997 
L 376.271318 196.990886 
L 376.529592 197.609971 
L 376.787866 200.027351 
L 377.04614 204.921072 
L 377.304414 203.841358 
L 377.562687 210.356493 
L 377.820961 203.988759 
L 378.337509 198.328552 
L 378.595783 198.000584 
L 378.854057 199.743604 
L 379.112331 193.97653 
L 379.628878 195.966447 
L 379.887152 195.885376 
L 380.145426 189.090179 
L 380.4037 189.617139 
L 380.661974 190.759498 
L 380.920248 187.3619 
L 381.436796 191.268033 
L 381.953343 187.067097 
L 382.469891 181.285284 
L 382.728165 181.852779 
L 382.986439 185.386723 
L 383.244713 184.152238 
L 383.502987 180.282955 
L 383.76126 178.215653 
L 384.019534 181.605882 
L 384.536082 174.298465 
L 384.794356 173.008704 
L 385.05263 177.777134 
L 385.569178 176.09676 
L 385.827451 175.790903 
L 386.085725 174.022088 
L 386.602273 176.152036 
L 387.118821 171.634188 
L 387.377095 172.474375 
L 387.635369 169.419484 
L 387.893642 169.047296 
L 388.151916 168.870415 
L 388.41019 171.398346 
L 388.668464 167.447993 
L 388.926738 167.208466 
L 389.443286 174.003663 
L 389.70156 174.755409 
L 389.959834 173.834151 
L 390.218107 171.31359 
L 390.476381 170.561844 
L 390.734655 171.188299 
L 390.992929 171.438881 
L 391.251203 172.54439 
L 391.509477 168.542447 
L 391.767751 168.100243 
L 392.284298 163.799812 
L 392.542572 160.361678 
L 392.800846 159.683632 
L 393.05912 158.485997 
L 393.317394 155.305816 
L 393.575668 153.817063 
L 394.092216 157.02304 
L 394.608763 159.462531 
L 394.867037 160.995503 
L 395.125311 163.969323 
L 395.900133 164.967967 
L 396.158407 162.745893 
L 396.41668 167.440623 
L 396.674954 168.056023 
L 396.933228 166.725727 
L 397.191502 164.337827 
L 397.449776 160.818622 
L 397.70805 161.253456 
L 398.224598 163.151247 
L 398.482871 167.020529 
L 398.741145 166.607806 
L 398.999419 171.390976 
L 399.774241 164.842676 
L 400.032515 161.194495 
L 400.290789 161.050779 
L 400.549062 156.083357 
L 400.807336 154.450889 
L 401.06561 159.001902 
L 401.323884 159.031382 
L 401.582158 159.867884 
L 401.840432 159.94527 
L 402.35698 152.932656 
L 402.615253 153.640182 
L 403.131801 156.794568 
L 403.390075 153.330639 
L 403.648349 154.285062 
L 403.906623 150.909574 
L 404.164897 150.349449 
L 404.423171 151.303872 
L 404.681444 151.591304 
L 404.939718 149.107594 
L 405.197992 149.28816 
L 405.456266 150.272063 
L 405.972814 147.198748 
L 406.231088 148.038935 
L 406.489362 153.607016 
L 406.747635 153.4633 
L 407.005909 153.946039 
L 407.264183 147.887848 
L 407.780731 144.821903 
L 408.039005 143.849054 
L 408.555553 145.805806 
L 408.813826 146.288545 
L 409.0721 147.423535 
L 409.330374 149.601388 
L 409.588648 150.614771 
L 410.105196 147.559881 
L 410.36347 148.547469 
L 410.880018 144.007511 
L 411.138291 143.565307 
L 411.654839 141.57539 
L 411.913113 137.613982 
L 412.171387 136.350017 
L 412.429661 136.445827 
L 412.687935 134.40432 
L 412.946209 133.645204 
L 413.204482 133.866306 
L 413.462756 134.489076 
L 413.72103 136.069954 
L 413.979304 133.84051 
L 414.237578 133.84051 
L 414.495852 134.828099 
L 414.754126 138.015651 
L 415.0124 138.981129 
L 415.270673 137.529226 
L 415.528947 133.763125 
L 415.787221 126.835267 
L 416.045495 128.073437 
L 416.303769 127.310636 
L 416.562043 124.439997 
L 416.820317 123.677195 
L 417.078591 120.283282 
L 417.336864 122.276883 
L 417.595138 114.928932 
L 417.853412 114.103485 
L 418.36996 114.468303 
L 418.628234 113.366479 
L 418.886508 113.51388 
L 419.144782 113.322258 
L 419.661329 118.448136 
L 419.919603 114.486728 
L 420.177877 119.988479 
L 420.436151 120.773391 
L 420.952699 118.437081 
L 421.210973 115.371135 
L 421.469246 114.468303 
L 421.72752 110.263682 
L 422.244068 107.297233 
L 422.502342 108.295876 
L 423.01889 105.189395 
L 423.277164 104.743506 
L 423.535437 105.053049 
L 424.051985 107.518334 
L 424.310259 102.952581 
L 424.568533 102.679889 
L 424.826807 101.703356 
L 425.085081 103.907004 
L 425.343355 102.713054 
L 425.601628 100.181438 
L 426.118176 101.703356 
L 426.37645 101.972363 
L 427.151272 100.494665 
L 427.409546 99.580778 
L 427.667819 99.945596 
L 427.926093 98.02201 
L 428.184367 98.976433 
L 428.442641 97.273948 
L 428.700915 98.68163 
L 429.475737 96.035778 
L 429.992284 89.638564 
L 430.250558 88.020836 
L 430.508832 89.299541 
L 430.767106 88.072426 
L 431.02538 89.08581 
L 431.283654 86.591044 
L 431.541928 87.608112 
L 432.058475 98.62267 
L 432.316749 95.704125 
L 432.575023 96.039463 
L 432.833297 99.956651 
L 433.091571 101.205876 
L 433.349845 100.188808 
L 433.608119 103.818563 
L 433.866393 101.01057 
L 434.124666 103.667477 
L 434.38294 102.720424 
L 434.641214 114.869971 
L 434.899488 118.558687 
L 435.157762 117.66691 
L 435.416036 117.784831 
L 435.67431 120.66284 
L 435.932584 122.265828 
L 436.190857 121.130839 
L 436.449131 121.830995 
L 436.707405 118.256515 
L 436.965679 123.430298 
L 437.223953 121.768349 
L 437.740501 119.870558 
L 437.998775 120.603879 
L 438.257048 119.885298 
L 438.515322 121.093988 
L 438.773596 118.079633 
L 439.03187 119.218308 
L 439.290144 117.372107 
L 439.548418 118.278625 
L 439.806692 117.526878 
L 440.064966 120.375407 
L 440.581513 123.559274 
L 440.839787 123.422928 
L 441.614609 116.598251 
L 442.131157 109.637227 
L 442.647704 111.11861 
L 442.905978 105.126749 
L 443.164252 103.39847 
L 443.422526 103.988075 
L 443.6808 110.016785 
L 443.939074 109.272409 
L 444.197348 109.139748 
L 444.455621 108.830205 
L 444.713895 111.188625 
L 444.972169 112.109883 
L 445.230443 115.242159 
L 445.746991 110.127336 
L 446.263539 110.285793 
L 446.521812 108.715969 
L 446.780086 108.564883 
L 447.296634 107.131406 
L 447.554908 108.15953 
L 447.813182 109.884124 
L 448.071456 108.428537 
L 448.32973 108.896536 
L 448.588003 106.497581 
L 448.846277 101.323797 
L 449.104551 100.502035 
L 449.362825 98.180466 
L 449.621099 114.818381 
L 449.879373 114.836806 
L 450.137647 113.016401 
L 450.395921 113.289093 
L 450.654195 115.957055 
L 450.912468 116.719857 
L 451.170742 121.639373 
L 451.429016 122.590111 
L 451.68729 122.542206 
L 451.945564 121.506712 
L 452.203838 123.828281 
L 452.462112 122.022616 
L 452.720386 130.951446 
L 452.978659 129.702221 
L 453.236933 133.78892 
L 453.495207 135.826742 
L 453.753481 125.320719 
L 454.011755 129.963858 
L 454.270029 131.312579 
L 454.528303 129.289497 
L 454.786577 130.523983 
L 455.04485 130.361841 
L 455.303124 133.899471 
L 455.561398 135.351373 
L 455.819672 142.507703 
L 456.077946 143.598472 
L 456.33622 141.715422 
L 456.594494 141.748587 
L 456.852768 142.338192 
L 457.111041 136.81433 
L 457.627589 139.79552 
L 458.144137 131.235194 
L 458.402411 133.770495 
L 458.660685 138.634736 
L 458.918959 138.907428 
L 459.177232 142.872521 
L 459.435506 138.085666 
L 459.69378 137.536596 
L 459.952054 139.493348 
L 460.210328 134.039502 
L 460.468602 132.830812 
L 460.726876 133.269331 
L 460.98515 133.287756 
L 461.243423 137.514486 
L 461.501697 138.365728 
L 461.759971 139.913441 
L 462.018245 142.474538 
L 462.276519 143.366315 
L 462.534793 143.587417 
L 462.793067 150.154142 
L 463.309614 155.596933 
L 463.567888 156.680332 
L 463.826162 156.857214 
L 464.084436 151.650265 
L 464.34271 149.306585 
L 465.117532 137.278644 
L 465.634079 135.502459 
L 465.892353 148.182651 
L 466.150627 145.761586 
L 466.408901 140.082953 
L 466.667175 141.590131 
L 467.183723 136.961732 
L 467.441996 137.3634 
L 467.70027 136.014679 
L 467.958544 139.065884 
L 468.216818 138.830042 
L 468.475092 138.881633 
L 468.733366 136.832756 
L 468.99164 137.046487 
L 469.249914 130.969871 
L 469.508187 130.313936 
L 469.766461 133.21774 
L 470.024735 131.327319 
L 470.283009 131.931664 
L 470.541283 136.342646 
L 470.799557 136.243151 
L 471.057831 138.328878 
L 471.316105 138.60894 
L 471.574379 136.79222 
L 471.832652 139.876591 
L 472.090926 145.101965 
L 472.3492 147.294558 
L 472.607474 146.539127 
L 472.865748 151.211746 
L 473.124022 150.021481 
L 473.382296 151.362833 
L 473.64057 148.470083 
L 473.898843 150.732692 
L 474.157117 151.716596 
L 474.415391 147.917329 
L 474.673665 146.867095 
L 474.931939 144.243353 
L 475.190213 146.417521 
L 475.706761 142.076555 
L 475.965034 142.091295 
L 476.223308 139.832371 
L 476.481582 140.510416 
L 476.99813 140.27826 
L 477.256404 136.928566 
L 477.514678 130.247605 
L 477.772952 128.338759 
L 478.031225 127.402761 
L 478.289499 128.331389 
L 478.547773 123.242361 
L 478.806047 122.092632 
L 479.064321 123.286582 
L 479.322595 123.09496 
L 479.580869 123.795116 
L 479.839143 123.857762 
L 480.097416 125.062767 
L 480.35569 119.210938 
L 480.872238 122.240033 
L 481.130512 119.903723 
L 481.905334 117.342627 
L 482.163607 118.215979 
L 482.421881 95.914172 
L 482.680155 89.922312 
L 482.938429 93.563122 
L 483.196703 93.507847 
L 483.454977 92.030149 
L 483.713251 91.831158 
L 483.971525 90.3682 
L 484.229798 89.594344 
L 484.488072 90.379255 
L 484.746346 89.601714 
L 485.00462 91.400009 
L 485.262894 90.920955 
L 485.521168 90.699853 
L 486.037716 87.504931 
L 486.295989 87.206444 
L 486.554263 86.583674 
L 487.070811 88.017151 
L 487.329085 90.113933 
L 487.587359 95.236126 
L 487.845633 98.11782 
L 488.103907 102.447732 
L 488.36218 102.510377 
L 488.620454 97.716152 
L 488.878728 99.827675 
L 489.137002 99.683959 
L 489.395276 102.709369 
L 489.65355 98.302072 
L 489.911824 100.133532 
L 490.170098 103.041022 
L 490.428371 112.769504 
L 490.944919 106.832919 
L 491.203193 106.398085 
L 491.461467 104.422908 
L 491.719741 101.187451 
L 491.978015 99.934541 
L 492.494563 99.319141 
L 492.752836 98.431048 
L 493.01111 98.324182 
L 493.269384 100.022981 
L 493.527658 99.503392 
L 493.785932 99.83873 
L 494.044206 98.268907 
L 494.30248 95.317197 
L 494.560754 94.425419 
L 495.077301 95.571464 
L 495.335575 96.846485 
L 495.593849 96.079998 
L 495.852123 96.868595 
L 496.110397 98.670575 
L 496.368671 94.845513 
L 496.626945 95.667275 
L 497.143492 91.47371 
L 497.401766 90.390311 
L 497.66004 91.212072 
L 497.918314 90.548767 
L 498.176588 90.231854 
L 498.434862 90.298185 
L 498.693136 87.538097 
L 498.951409 81.844724 
L 499.467957 86.583674 
L 499.726231 92.08911 
L 499.984505 92.365487 
L 500.242779 89.111605 
L 500.501053 90.3682 
L 500.759327 90.261334 
L 501.0176 96.083683 
L 501.275874 96.31584 
L 501.534148 92.380227 
L 501.792422 92.026464 
L 502.050696 92.708195 
L 502.30897 92.402337 
L 502.825518 89.675415 
L 503.083791 90.3682 
L 503.342065 90.390311 
L 503.600339 87.420176 
L 503.858613 86.075139 
L 504.116887 87.549152 
L 504.375161 87.523357 
L 504.633435 87.140113 
L 504.891709 85.363928 
L 505.149982 92.686085 
L 505.408256 92.277046 
L 505.66653 93.198304 
L 505.924804 92.74873 
L 506.183078 91.51056 
L 506.441352 96.168439 
L 506.699626 96.157384 
L 506.9579 92.925612 
L 507.474447 99.521817 
L 507.732721 99.28229 
L 507.990995 99.481282 
L 508.249269 103.708012 
L 508.507543 105.030939 
L 508.765817 107.507279 
L 509.024091 107.665736 
L 509.282364 112.257284 
L 509.540638 110.687461 
L 509.798912 110.798012 
L 510.057186 105.108324 
L 510.31546 104.806152 
L 510.832008 101.279577 
L 511.348556 105.528418 
L 511.606829 103.181053 
L 511.865103 103.140518 
L 512.381651 99.470227 
L 512.639925 100.98846 
L 512.898199 107.838932 
L 513.414747 103.818563 
L 513.67302 104.496609 
L 513.931294 104.787726 
L 514.189568 107.278807 
L 514.447842 105.189395 
L 514.706116 104.367633 
L 514.96439 121.985766 
L 515.480938 125.364939 
L 515.739211 123.817226 
L 515.997485 124.049383 
L 516.255759 124.067808 
L 516.772307 119.384134 
L 517.030581 119.306748 
L 517.288855 117.047824 
L 517.805402 120.810241 
L 518.063676 120.110085 
L 518.32195 120.67021 
L 518.580224 120.290652 
L 518.838498 119.413614 
L 519.096772 117.578469 
L 519.355046 120.235376 
L 519.61332 120.382777 
L 519.871593 122.409544 
L 520.129867 126.510984 
L 520.388141 122.074207 
L 520.646415 122.313734 
L 520.904689 121.783089 
L 521.421237 126.522039 
L 521.679511 126.569944 
L 521.937784 126.050355 
L 522.196058 126.61785 
L 522.454332 125.597096 
L 522.712606 122.604851 
L 522.97088 123.865132 
L 523.229154 122.958614 
L 523.487428 124.793759 
L 524.003975 126.286197 
L 524.262249 126.234607 
L 524.520523 127.133754 
L 525.037071 131.555791 
L 525.295345 130.21444 
L 525.553619 132.211727 
L 525.811893 133.162465 
L 526.070166 138.818987 
L 526.32844 138.981129 
L 526.586714 135.878333 
L 527.361536 142.555609 
L 528.394631 130.947761 
L 528.911179 121.344571 
L 529.169453 120.268541 
L 529.427727 116.126567 
L 529.686001 121.510397 
L 529.944275 123.246046 
L 530.460822 119.199882 
L 530.719096 122.634331 
L 530.97737 97.325539 
L 531.235644 98.313127 
L 531.493918 95.508819 
L 531.752192 98.162041 
L 532.26874 89.73069 
L 532.527013 89.454313 
L 532.785287 88.149812 
L 533.043561 93.787909 
L 533.301835 92.417078 
L 533.560109 95.088725 
L 533.818383 93.953735 
L 534.076657 99.249125 
L 534.334931 96.017353 
L 534.593204 104.732451 
L 534.851478 104.172326 
L 535.109752 116.340298 
L 535.368026 106.246999 
L 535.6263 115.238474 
L 535.884574 110.403714 
L 536.142848 109.799369 
L 536.401122 112.209379 
L 536.659395 118.92719 
L 536.917669 121.082933 
L 537.175943 131.500516 
L 537.434217 136.644819 
L 537.692491 133.973172 
L 537.950765 126.363583 
L 538.209039 124.716374 
L 538.467313 125.914009 
L 538.725586 123.400818 
L 538.98386 118.89771 
L 539.242134 118.300735 
L 539.500408 118.204924 
L 540.016956 124.145194 
L 540.27523 125.125412 
L 540.533504 120.758651 
L 540.791777 120.415943 
L 541.050051 124.141509 
L 541.308325 122.199498 
L 541.566599 122.4206 
L 541.824873 121.480917 
L 542.083147 117.615319 
L 542.341421 116.097086 
L 542.857968 116.115512 
L 543.116242 118.85349 
L 543.374516 125.685537 
L 543.891064 121.547247 
L 544.149338 118.801899 
L 544.407612 122.671182 
L 544.665886 123.164976 
L 544.924159 127.756524 
L 545.182433 134.949705 
L 545.440707 132.598655 
L 545.698981 131.566846 
L 545.957255 127.87813 
L 546.215529 127.727044 
L 546.473803 119.601551 
L 546.99035 115.426411 
L 547.248624 111.560813 
L 547.506898 99.514447 
L 547.765172 102.930471 
L 548.023446 99.945596 
L 548.28172 103.560611 
L 548.539994 102.466157 
L 549.056541 97.767743 
L 549.314815 102.654094 
L 549.573089 101.493309 
L 549.831363 96.938611 
L 550.089637 96.396911 
L 550.347911 99.160684 
L 550.606185 104.316043 
L 550.864459 102.042378 
L 551.122732 97.369759 
L 551.381006 97.870923 
L 551.63928 93.378871 
L 551.897554 91.901173 
L 552.155828 96.098424 
L 552.414102 98.261537 
L 552.672376 93.371501 
L 553.188924 90.34609 
L 553.447197 92.221771 
L 553.705471 96.127904 
L 553.963745 98.335237 
L 554.222019 103.47217 
L 554.480293 103.818563 
L 554.996841 110.083116 
L 555.255115 100.800523 
L 555.513388 102.738849 
L 556.029936 91.374214 
L 556.546484 86.996397 
L 556.804758 87.689183 
L 557.063032 87.829214 
L 557.321306 90.534027 
L 557.579579 86.344147 
L 557.837853 87.092208 
L 558.096127 87.003767 
L 558.354401 89.789651 
L 558.612675 89.247951 
L 558.870949 86.882161 
L 559.129223 88.404079 
L 559.387497 85.257062 
L 559.64577 86.933752 
L 560.162318 84.236309 
L 560.420592 81.616252 
L 560.678866 81.818929 
L 561.195414 79.534209 
L 561.453688 72.344714 
L 561.711961 71.28711 
L 562.228509 78.015977 
L 562.486783 88.171922 
L 562.745057 87.92134 
L 563.261605 85.52607 
L 563.519879 87.239609 
L 564.036426 84.321065 
L 564.2947 81.866834 
L 564.552974 101.61123 
L 564.811248 101.784426 
L 565.069522 103.475855 
L 565.327796 107.691531 
L 565.58607 108.20375 
L 565.844343 103.825933 
L 566.102617 104.669805 
L 566.360891 103.778028 
L 566.619165 103.512706 
L 566.877439 101.935513 
L 567.393987 93.098808 
L 567.652261 93.953735 
L 567.910534 92.818746 
L 568.168808 92.225456 
L 568.427082 94.270648 
L 568.685356 91.952764 
L 568.94363 92.851911 
L 569.201904 94.399624 
L 569.460178 94.045861 
L 569.718452 94.738647 
L 569.976725 91.289458 
L 570.234999 93.522587 
L 570.493273 94.196948 
L 570.751547 92.800321 
L 571.009821 93.017738 
L 571.268095 89.67173 
L 571.526369 89.72332 
L 571.784643 88.194032 
L 572.042917 88.617811 
L 572.559464 94.620726 
L 572.817738 93.94268 
L 573.076012 93.817389 
L 573.334286 96.356376 
L 573.59256 94.550711 
L 573.850834 89.896516 
L 574.109108 90.556137 
L 574.625655 87.221184 
L 574.883929 83.926766 
L 575.142203 84.107333 
L 575.658751 79.478934 
L 575.917025 80.753955 
L 576.175299 78.270244 
L 576.433572 79.121486 
L 576.691846 75.900769 
L 577.208394 81.251434 
L 577.466668 79.158336 
L 577.724942 80.7429 
L 577.983216 83.495618 
L 578.24149 84.538481 
L 578.499763 85.083866 
L 578.758037 86.550508 
L 579.016311 83.19713 
L 579.274585 77.651159 
L 579.791133 94.211688 
L 580.049407 92.921927 
L 580.307681 93.703153 
L 580.565954 96.706454 
L 580.824228 97.900404 
L 581.082502 97.332909 
L 581.340776 95.980503 
L 581.857324 90.747759 
L 582.115598 90.928325 
L 582.373872 94.661261 
L 582.632145 94.816033 
L 583.148693 92.387597 
L 583.406967 97.565066 
L 583.665241 93.666303 
L 583.923515 91.735347 
L 584.181789 93.076698 
L 584.440063 91.414749 
L 584.698336 94.52123 
L 584.95661 94.974489 
L 585.214884 92.354432 
L 585.473158 85.787707 
L 585.731432 87.954505 
L 585.989706 96.3011 
L 586.24798 91.248923 
L 586.506254 96.153699 
L 586.764527 92.962462 
L 587.022801 95.09978 
L 587.281075 99.569723 
L 587.539349 98.534229 
L 588.055897 103.501651 
L 588.314171 107.142461 
L 588.572445 104.338153 
L 588.830718 107.352508 
L 589.088992 103.608517 
L 589.347266 104.470814 
L 589.60554 103.652737 
L 589.863814 108.056349 
L 590.638636 111.538703 
L 591.155183 107.190367 
L 591.413457 103.254754 
L 591.671731 104.736136 
L 591.930005 109.268724 
L 592.188279 106.95821 
L 592.446553 110.930673 
L 592.963101 107.761546 
L 593.221374 109.600377 
L 593.479648 103.792768 
L 593.737922 103.645367 
L 594.25447 97.951994 
L 594.512744 101.614915 
L 594.771018 101.60386 
L 595.029292 103.192108 
L 595.287565 107.065076 
L 595.545839 107.326713 
L 595.804113 105.100954 
L 596.062387 105.690559 
L 596.320661 105.023568 
L 596.578935 103.538501 
L 596.837209 99.005913 
L 597.095483 92.461298 
L 597.353756 90.733018 
L 597.61203 93.658933 
L 597.870304 93.504162 
L 598.128578 91.5253 
L 598.386852 83.565633 
L 598.645126 84.545851 
L 598.9034 84.298954 
L 599.161674 84.40582 
L 599.419947 85.854037 
L 599.678221 81.218269 
L 599.936495 80.669199 
L 600.194769 81.509386 
L 600.453043 80.886616 
L 600.711317 80.842395 
L 600.969591 80.971371 
L 601.227865 74.334631 
L 601.486138 71.147079 
L 601.744412 71.559802 
L 602.26096 68.022173 
L 602.519234 68.611778 
L 602.777508 70.833851 
L 603.035782 68.007433 
L 603.294056 68.147464 
L 603.552329 67.473103 
L 603.810603 70.940717 
L 604.327151 64.016544 
L 604.585425 66.349169 
L 604.843699 65.092573 
L 605.101973 66.585011 
L 605.360247 66.702932 
L 605.61852 59.819294 
L 605.876794 57.331898 
L 606.135068 59.314445 
L 606.393342 62.476201 
L 606.651616 62.95894 
L 606.90989 57.372433 
L 607.168164 56.031082 
L 607.426438 55.920531 
L 607.942985 49.464357 
L 608.201259 49.235885 
L 608.459533 47.072772 
L 608.717807 41.401509 
L 608.976081 41.48258 
L 609.492629 38.777767 
L 609.750902 39.514773 
L 610.009176 36.832071 
L 610.26745 38.597201 
L 610.783998 34.521556 
L 611.042272 34.668958 
L 611.55882 43.350891 
L 611.817094 43.177694 
L 612.075367 40.627653 
L 612.333641 43.107679 
L 612.591915 44.496935 
L 612.850189 43.126104 
L 613.108463 39.149955 
L 613.366737 61.440707 
L 613.625011 66.308633 
L 613.883285 67.458363 
L 614.141558 66.839278 
L 614.399832 67.963212 
L 614.658106 67.793701 
L 614.91638 68.755494 
L 615.432928 64.171315 
L 615.691202 64.049709 
L 615.949476 65.877485 
L 616.207749 66.334429 
L 616.724297 77.179475 
L 616.982571 73.221751 
L 617.240845 72.164148 
L 618.015667 79.033045 
L 618.27394 79.062525 
L 618.532214 71.312905 
L 618.790488 70.66434 
L 619.048762 72.175203 
L 619.307036 71.401346 
L 619.56531 73.914537 
L 620.598405 60.198852 
L 621.373227 64.08656 
L 621.631501 62.866814 
L 621.889775 65.416856 
L 622.148049 64.970967 
L 622.406322 60.747922 
L 622.664596 60.49734 
L 622.92287 58.603234 
L 623.181144 58.875926 
L 623.439418 51.940698 
L 623.697692 51.833832 
L 623.955966 52.187595 
L 624.21424 51.358463 
L 624.730787 56.097413 
L 624.989061 56.32957 
L 625.247335 57.280308 
L 625.505609 59.594507 
L 625.763883 56.878639 
L 626.022157 51.030495 
L 626.280431 50.875724 
L 626.538704 45.60613 
L 626.796978 46.792709 
L 627.055252 47.327039 
L 627.5718 44.312684 
L 627.830074 44.861753 
L 628.088348 51.030495 
L 628.346622 50.41141 
L 628.604895 54.00063 
L 628.863169 55.426737 
L 629.121443 57.936243 
L 629.379717 58.540588 
L 629.637991 44.305314 
L 629.896265 39.621639 
L 630.154539 39.820631 
L 630.412813 40.90403 
L 630.671086 39.816946 
L 630.92936 39.76167 
L 631.187634 39.076255 
L 631.445908 31.739358 
L 631.704182 37.849139 
L 632.22073 33.74033 
L 632.479004 32.347388 
L 632.737278 28.139083 
L 633.253825 29.859992 
L 633.512099 29.064026 
L 634.028647 25.36794 
L 634.286921 20.223636 
L 634.545195 25.526396 
L 635.061742 22.854748 
L 635.320016 26.149166 
L 635.57829 26.385008 
L 635.836564 22.828953 
L 636.094838 22.305679 
L 636.353112 20.466848 
L 636.353112 20.466848 
" clip-path="url(#pb396f40936)" style="fill: none; stroke: #1f2937; stroke-width: 1.4; stroke-linecap: square"/>
   </g>
   <g id="patch_6">
    <path d="M 54.100484 293.72 
L 54.100484 7.2 
" style="fill: none; stroke: #1f2937; stroke-width: 0.8; stroke-linejoin: miter; stroke-linecap: square"/>
   </g>
   <g id="patch_7">
    <path d="M 54.100484 293.72 
L 664.35 293.72 
" style="fill: none; stroke: #1f2937; stroke-width: 0.8; stroke-linejoin: miter; stroke-linecap: square"/>
   </g>
   <g id="text_11">
    <text style="font-weight: 700; font-size: 10.5px; font-family: 'Noto Naskh Arabic', 'DejaVu Sans'; text-anchor: middle; fill: #1f8a56" x="275.931917" y="26.170171" transform="rotate(-0 275.931917 26.170171)">​%70 ﺐﻳﺭﺪﺗ</text>
   </g>
   <g id="text_12">
    <text style="font-weight: 700; font-size: 10.5px; font-family: 'Noto Naskh Arabic', 'DejaVu Sans'; text-anchor: middle; fill: #b7791f" x="511.606829" y="26.170171" transform="rotate(-0 511.606829 26.170171)">​%15 ﻖﻘﺤﺗ</text>
   </g>
   <g id="text_13">
    <text style="font-weight: 700; font-size: 10.5px; font-family: 'Noto Naskh Arabic', 'DejaVu Sans'; text-anchor: middle; fill: #b91c1c" x="594.900155" y="26.170171" transform="rotate(-0 594.900155 26.170171)">​%15 ﺭﺎﺒﺘﺧﺍ</text>
   </g>
  </g>
 </g>
 <defs>
  <clipPath id="pb396f40936">
   <rect x="54.100484" y="7.2" width="610.249516" height="286.52"/>
  </clipPath>
 </defs>
</svg>
