<?xml version="1.0" encoding="utf-8" standalone="no"?>
<!DOCTYPE svg PUBLIC "-//W3C//DTD SVG 1.1//EN"
  "http://www.w3.org/Graphics/SVG/1.1/DTD/svg11.dtd">
<svg xmlns:xlink="http://www.w3.org/1999/xlink" width="700.35pt" height="383.55pt" viewBox="0 0 700.35 383.55" xmlns="http://www.w3.org/2000/svg" version="1.1">
 <metadata>
  <rdf:RDF xmlns:dc="http://purl.org/dc/elements/1.1/" xmlns:cc="http://creativecommons.org/ns#" xmlns:rdf="http://www.w3.org/1999/02/22-rdf-syntax-ns#">
   <cc:Work>
    <dc:type rdf:resource="http://purl.org/dc/dcmitype/StillImage"/>
    <dc:date>2026-07-20T03:47:41.341994</dc:date>
    <dc:format>image/svg+xml</dc:format>
    <dc:creator>
     <cc:Agent>
      <dc:title>Matplotlib v3.11.1, https://matplotlib.org/</dc:title>
     </cc:Agent>
    </dc:creator>
   </cc:Work>
  </rdf:RDF>
 </metadata>
 <defs>
  <style type="text/css">*{stroke-linejoin: round; stroke-linecap: butt}</style>
 </defs>
 <g id="figure_1">
  <g id="patch_1">
   <path d="M 0 383.55 
L 700.35 383.55 
L 700.35 0 
L 0 0 
z
" style="fill: #ffffff"/>
  </g>
  <g id="axes_1">
   <g id="line2d_1">
    <path d="M 98.66 141.165726 
L 218.70125 200.706048 
" clip-path="url(#p74b5f1a7e1)" style="fill: none; stroke-dasharray: 1,1.65; stroke-dashoffset: 0; stroke: #e6e1d6"/>
   </g>
   <g id="line2d_2">
    <path d="M 270.1475 141.165726 
L 218.70125 200.706048 
" clip-path="url(#p74b5f1a7e1)" style="fill: none; stroke-dasharray: 1,1.65; stroke-dashoffset: 0; stroke: #e6e1d6"/>
   </g>
   <g id="line2d_3">
    <path d="M 441.635 141.165726 
L 481.64875 200.706048 
" clip-path="url(#p74b5f1a7e1)" style="fill: none; stroke-dasharray: 1,1.65; stroke-dashoffset: 0; stroke: #e6e1d6"/>
   </g>
   <g id="line2d_4">
    <path d="M 613.1225 141.165726 
L 481.64875 200.706048 
" clip-path="url(#p74b5f1a7e1)" style="fill: none; stroke-dasharray: 1,1.65; stroke-dashoffset: 0; stroke: #e6e1d6"/>
   </g>
   <g id="patch_2">
    <path d="M 32.923125 142.356532 
L 164.396875 142.356532 
Q 171.256375 142.356532 171.256375 135.211694 
L 171.256375 63.763306 
Q 171.256375 56.618468 164.396875 56.618468 
L 32.923125 56.618468 
Q 26.063625 56.618468 26.063625 63.763306 
L 26.063625 135.211694 
Q 26.063625 142.356532 32.923125 142.356532 
z
" clip-path="url(#p74b5f1a7e1)" style="fill: #8a8f98"/>
   </g>
   <g id="patch_3">
    <path d="M 204.410625 142.356532 
L 335.884375 142.356532 
Q 342.743875 142.356532 342.743875 135.211694 
L 342.743875 63.763306 
Q 342.743875 56.618468 335.884375 56.618468 
L 204.410625 56.618468 
Q 197.551125 56.618468 197.551125 63.763306 
L 197.551125 135.211694 
Q 197.551125 142.356532 204.410625 142.356532 
z
" clip-path="url(#p74b5f1a7e1)" style="fill: #1f2937"/>
   </g>
   <g id="patch_4">
    <path d="M 375.898125 142.356532 
L 507.371875 142.356532 
Q 514.231375 142.356532 514.231375 135.211694 
L 514.231375 63.763306 
Q 514.231375 56.618468 507.371875 56.618468 
L 375.898125 56.618468 
Q 369.038625 56.618468 369.038625 63.763306 
L 369.038625 135.211694 
Q 369.038625 142.356532 375.898125 142.356532 
z
" clip-path="url(#p74b5f1a7e1)" style="fill: #b7791f"/>
   </g>
   <g id="patch_5">
    <path d="M 547.385625 142.356532 
L 678.859375 142.356532 
Q 685.718875 142.356532 685.718875 135.211694 
L 685.718875 63.763306 
Q 685.718875 56.618468 678.859375 56.618468 
L 547.385625 56.618468 
Q 540.526125 56.618468 540.526125 63.763306 
L 540.526125 135.211694 
Q 540.526125 142.356532 547.385625 142.356532 
z
" clip-path="url(#p74b5f1a7e1)" style="fill: #1f8a56"/>
   </g>
   <g id="patch_6">
    <path d="M 124.383125 273.345242 
L 313.019375 273.345242 
Q 319.878875 273.345242 319.878875 266.200403 
L 319.878875 206.660081 
Q 319.878875 199.515242 313.019375 199.515242 
L 124.383125 199.515242 
Q 117.523625 199.515242 117.523625 206.660081 
L 117.523625 266.200403 
Q 117.523625 273.345242 124.383125 273.345242 
z
" clip-path="url(#p74b5f1a7e1)" style="fill: #8a8f98"/>
   </g>
   <g id="patch_7">
    <path d="M 387.330625 273.345242 
L 575.966875 273.345242 
Q 582.826375 273.345242 582.826375 266.200403 
L 582.826375 206.660081 
Q 582.826375 199.515242 575.966875 199.515242 
L 387.330625 199.515242 
Q 380.471125 199.515242 380.471125 206.660081 
L 380.471125 266.200403 
Q 380.471125 273.345242 387.330625 273.345242 
z
" clip-path="url(#p74b5f1a7e1)" style="fill: #b91c1c"/>
   </g>
   <g id="text_1">
    <text style="font-weight: 700; font-size: 9.5px; font-family: 'Noto Naskh Arabic', 'DejaVu Sans'; text-anchor: middle; fill: #1f2937" x="350.175" y="328.717742" transform="rotate(-0 350.175 328.717742)">вҖӢВ«п»Әпәҳп»ҳпәӣВ» пә–п»җп» пә‘ пәҺп»Өп»¬п»Ј пәқпә«п»®п»Өп»§ п»ұпәғ пәҺп»«пәҜп»ӯпәҺпә пәҳп»і п»» пә”п» п»ҳпәҳпәҙп»Ј пә”п»ҳпә’п»ғ пә®п»ғпәҺпәЁп»Өп»ҹпәҚп»ӯ вҖ” п»©пәӘпәЈп»ӯ пәӯпәҺпә’пәҳпә§п»јп»ҹ п»һпә‘пәҺп»—п»ӯ п»қп»ӯпә°п»Ңп»Ј п»Ҙп»®п»ңп»Ј п»һп»ӣ</text>
   </g>
   <g id="text_2">
    <text style="font-weight: 700; font-size: 9px; font-family: 'Noto Naskh Arabic', 'DejaVu Sans'; fill: #ffffff" transform="translate(75.759922 93.7815)">вҖӢпә•пәҺп»§пәҺп»ҙпә’п»ҹпәҚ пә”п»іпә¬п»җпә—</text>
    <text style="font-weight: 700; font-size: 9px; font-family: 'Noto Naskh Arabic', 'DejaVu Sans'; fill: #ffffff" transform="translate(74.960469 109.1085)">(пәӯпәҺпә’пә§пәғ/пәӯпәҺп»Ңпәіпәғ)</text>
   </g>
   <g id="text_3">
    <text style="font-weight: 700; font-size: 9px; font-family: 'Noto Naskh Arabic', 'DejaVu Sans'; fill: #ffffff" transform="translate(247.719922 93.7815)">вҖӢпә“пәӯпәҺпә·п»№пәҚ п»ҷпә®пәӨп»Ј</text>
    <text style="font-weight: 700; font-size: 9px; font-family: 'Noto Naskh Arabic', 'DejaVu Sans'; fill: #ffffff" transform="translate(253.505937 109.1085)">(пәқпә«п»®п»Өп»Ёп»ҹпәҚ)</text>
   </g>
   <g id="text_4">
    <text style="font-weight: 700; font-size: 9px; font-family: 'Noto Naskh Arabic', 'DejaVu Sans'; fill: #ffffff" transform="translate(419.255938 93.7815)">вҖӢпә®п»ғпәҺпәЁп»Өп»ҹпәҚ пә“пәӯпәҚпә©пәҮ</text>
    <text style="font-weight: 700; font-size: 9px; font-family: 'Noto Naskh Arabic', 'DejaVu Sans'; fill: #ffffff" transform="translate(418.205469 109.1085)">(пә©п»ӯпәӘпәЈ/п»ўпә пәЈ)</text>
   </g>
   <g id="text_5">
    <text style="font-weight: 700; font-size: 9px; font-family: 'Noto Naskh Arabic', 'DejaVu Sans'; fill: #ffffff" transform="translate(602.276797 93.7815)">вҖӢпә¬п»ҙп»”п»Ёпәҳп»ҹпәҚ</text>
    <text style="font-weight: 700; font-size: 9px; font-family: 'Noto Naskh Arabic', 'DejaVu Sans'; fill: #ffffff" transform="translate(588.769062 109.1085)">(API п»Ӯп»ҙпәіп»ӯ)</text>
   </g>
   <g id="text_6">
    <text style="font-weight: 700; font-size: 9px; font-family: 'Noto Naskh Arabic', 'DejaVu Sans'; fill: #ffffff" transform="translate(187.969766 230.724242)">вҖӢпә”пә’п»—пәҚпә®п»Өп»ҹпәҚп»ӯ пә•п»јпә пәҙп»ҹпәҚ</text>
    <text style="font-weight: 700; font-size: 9px; font-family: 'Noto Naskh Arabic', 'DejaVu Sans'; fill: #ffffff" transform="translate(194.219844 246.051242)">(Logging)</text>
   </g>
   <g id="text_7">
    <text style="font-weight: 700; font-size: 9px; font-family: 'Noto Naskh Arabic', 'DejaVu Sans'; fill: #ffffff" transform="translate(458.564453 230.724242)">вҖӢп»‘пәҺп»ҳп»іп»№пәҚ пәЎпәҺпәҳп»”п»Ј</text>
    <text style="font-weight: 700; font-size: 9px; font-family: 'Noto Naskh Arabic', 'DejaVu Sans'; fill: #ffffff" transform="translate(451.463594 246.051242)">(Kill Switch)</text>
   </g>
   <g id="patch_8">
    <path d="M 172.112277 99.4875 
Q 184.402279 99.4875 194.67982 99.4875 
" clip-path="url(#p74b5f1a7e1)" style="fill: none; stroke: #8a8f98; stroke-width: 1.8; stroke-linecap: round"/>
    <path d="M 188.27982 96.2875 
L 194.67982 99.4875 
L 188.27982 102.6875 
z
" clip-path="url(#p74b5f1a7e1)" style="fill: #8a8f98; stroke: #8a8f98; stroke-width: 1.8; stroke-linecap: round"/>
   </g>
   <g id="patch_9">
    <path d="M 343.599777 99.4875 
Q 355.889779 99.4875 366.16732 99.4875 
" clip-path="url(#p74b5f1a7e1)" style="fill: none; stroke: #8a8f98; stroke-width: 1.8; stroke-linecap: round"/>
    <path d="M 359.76732 96.2875 
L 366.16732 99.4875 
L 359.76732 102.6875 
z
" clip-path="url(#p74b5f1a7e1)" style="fill: #8a8f98; stroke: #8a8f98; stroke-width: 1.8; stroke-linecap: round"/>
   </g>
   <g id="patch_10">
    <path d="M 515.087277 99.4875 
Q 527.377279 99.4875 537.65482 99.4875 
" clip-path="url(#p74b5f1a7e1)" style="fill: none; stroke: #8a8f98; stroke-width: 1.8; stroke-linecap: round"/>
    <path d="M 531.25482 96.2875 
L 537.65482 99.4875 
L 531.25482 102.6875 
z
" clip-path="url(#p74b5f1a7e1)" style="fill: #8a8f98; stroke: #8a8f98; stroke-width: 1.8; stroke-linecap: round"/>
   </g>
  </g>
 </g>
 <defs>
  <clipPath id="p74b5f1a7e1">
   <rect x="7.2" y="7.2" width="685.95" height="369.15"/>
  </clipPath>
 </defs>
</svg>
