<?xml version="1.0" encoding="utf-8" standalone="no"?>
<!DOCTYPE svg PUBLIC "-//W3C//DTD SVG 1.1//EN"
  "http://www.w3.org/Graphics/SVG/1.1/DTD/svg11.dtd">
<svg xmlns:xlink="http://www.w3.org/1999/xlink" width="757.95pt" height="311.55pt" viewBox="0 0 757.95 311.55" xmlns="http://www.w3.org/2000/svg" version="1.1">
 <metadata>
  <rdf:RDF xmlns:dc="http://purl.org/dc/elements/1.1/" xmlns:cc="http://creativecommons.org/ns#" xmlns:rdf="http://www.w3.org/1999/02/22-rdf-syntax-ns#">
   <cc:Work>
    <dc:type rdf:resource="http://purl.org/dc/dcmitype/StillImage"/>
    <dc:date>2026-07-19T20:01:36.902109</dc:date>
    <dc:format>image/svg+xml</dc:format>
    <dc:creator>
     <cc:Agent>
      <dc:title>Matplotlib v3.11.1, https://matplotlib.org/</dc:title>
     </cc:Agent>
    </dc:creator>
   </cc:Work>
  </rdf:RDF>
 </metadata>
 <defs>
  <style type="text/css">*{stroke-linejoin: round; stroke-linecap: butt}</style>
 </defs>
 <g id="figure_1">
  <g id="patch_1">
   <path d="M 0 311.55 
L 757.95 311.55 
L 757.95 -0 
L 0 -0 
z
" style="fill: #ffffff"/>
  </g>
  <g id="axes_1">
   <g id="patch_2">
    <path d="M 56.262828 257.587 
L 400.443914 257.587 
L 400.443914 25.0815 
L 56.262828 25.0815 
z
" style="fill: #ffffff"/>
   </g>
   <g id="matplotlib.axis_1">
    <g id="xtick_1">
     <g id="line2d_1">
      <defs>
       <path id="m839032370c" d="M 0 0 
L 0 3.5 
" style="stroke: #555555; stroke-width: 0.8"/>
      </defs>
      <g>
       <use xlink:href="#m839032370c" x="71.907423" y="257.587" style="fill: #555555; stroke: #555555; stroke-width: 0.8"/>
      </g>
     </g>
     <g id="text_1">
      <text style="font-size: 10.5px; font-family: 'Noto Naskh Arabic', 'DejaVu Sans'; text-anchor: middle; fill: #555555" x="71.907423" y="275.8115" transform="rotate(-0 71.907423 275.8115)">0</text>
     </g>
    </g>
    <g id="xtick_2">
     <g id="line2d_2">
      <g>
       <use xlink:href="#m839032370c" x="111.116934" y="257.587" style="fill: #555555; stroke: #555555; stroke-width: 0.8"/>
      </g>
     </g>
     <g id="text_2">
      <text style="font-size: 10.5px; font-family: 'Noto Naskh Arabic', 'DejaVu Sans'; text-anchor: middle; fill: #555555" x="111.116934" y="275.8115" transform="rotate(-0 111.116934 275.8115)">50</text>
     </g>
    </g>
    <g id="xtick_3">
     <g id="line2d_3">
      <g>
       <use xlink:href="#m839032370c" x="150.326445" y="257.587" style="fill: #555555; stroke: #555555; stroke-width: 0.8"/>
      </g>
     </g>
     <g id="text_3">
      <text style="font-size: 10.5px; font-family: 'Noto Naskh Arabic', 'DejaVu Sans'; text-anchor: middle; fill: #555555" x="150.326445" y="275.8115" transform="rotate(-0 150.326445 275.8115)">100</text>
     </g>
    </g>
    <g id="xtick_4">
     <g id="line2d_4">
      <g>
       <use xlink:href="#m839032370c" x="189.535955" y="257.587" style="fill: #555555; stroke: #555555; stroke-width: 0.8"/>
      </g>
     </g>
     <g id="text_4">
      <text style="font-size: 10.5px; font-family: 'Noto Naskh Arabic', 'DejaVu Sans'; text-anchor: middle; fill: #555555" x="189.535955" y="275.8115" transform="rotate(-0 189.535955 275.8115)">150</text>
     </g>
    </g>
    <g id="xtick_5">
     <g id="line2d_5">
      <g>
       <use xlink:href="#m839032370c" x="228.745466" y="257.587" style="fill: #555555; stroke: #555555; stroke-width: 0.8"/>
      </g>
     </g>
     <g id="text_5">
      <text style="font-size: 10.5px; font-family: 'Noto Naskh Arabic', 'DejaVu Sans'; text-anchor: middle; fill: #555555" x="228.745466" y="275.8115" transform="rotate(-0 228.745466 275.8115)">200</text>
     </g>
    </g>
    <g id="xtick_6">
     <g id="line2d_6">
      <g>
       <use xlink:href="#m839032370c" x="267.954977" y="257.587" style="fill: #555555; stroke: #555555; stroke-width: 0.8"/>
      </g>
     </g>
     <g id="text_6">
      <text style="font-size: 10.5px; font-family: 'Noto Naskh Arabic', 'DejaVu Sans'; text-anchor: middle; fill: #555555" x="267.954977" y="275.8115" transform="rotate(-0 267.954977 275.8115)">250</text>
     </g>
    </g>
    <g id="xtick_7">
     <g id="line2d_7">
      <g>
       <use xlink:href="#m839032370c" x="307.164488" y="257.587" style="fill: #555555; stroke: #555555; stroke-width: 0.8"/>
      </g>
     </g>
     <g id="text_7">
      <text style="font-size: 10.5px; font-family: 'Noto Naskh Arabic', 'DejaVu Sans'; text-anchor: middle; fill: #555555" x="307.164488" y="275.8115" transform="rotate(-0 307.164488 275.8115)">300</text>
     </g>
    </g>
    <g id="xtick_8">
     <g id="line2d_8">
      <g>
       <use xlink:href="#m839032370c" x="346.373999" y="257.587" style="fill: #555555; stroke: #555555; stroke-width: 0.8"/>
      </g>
     </g>
     <g id="text_8">
      <text style="font-size: 10.5px; font-family: 'Noto Naskh Arabic', 'DejaVu Sans'; text-anchor: middle; fill: #555555" x="346.373999" y="275.8115" transform="rotate(-0 346.373999 275.8115)">350</text>
     </g>
    </g>
    <g id="xtick_9">
     <g id="line2d_9">
      <g>
       <use xlink:href="#m839032370c" x="385.583509" y="257.587" style="fill: #555555; stroke: #555555; stroke-width: 0.8"/>
      </g>
     </g>
     <g id="text_9">
      <text style="font-size: 10.5px; font-family: 'Noto Naskh Arabic', 'DejaVu Sans'; text-anchor: middle; fill: #555555" x="385.583509" y="275.8115" transform="rotate(-0 385.583509 275.8115)">400</text>
     </g>
    </g>
    <g id="text_10">
     <text style="font-size: 10.5px; font-family: 'Noto Naskh Arabic', 'DejaVu Sans'; text-anchor: middle; fill: #1f2937" x="228.353371" y="297.693" transform="rotate(-0 228.353371 297.693)">​(Epochs) ﺕﺎﺒﻘﺤﻟﺍ</text>
    </g>
   </g>
   <g id="matplotlib.axis_2">
    <g id="ytick_1">
     <g id="line2d_10">
      <path d="M 56.262828 250.344526 
L 400.443914 250.344526 
" clip-path="url(#p0cc43c18d7)" style="fill: none; stroke: #e6e1d6; stroke-width: 0.8; stroke-linecap: square"/>
     </g>
     <g id="line2d_11">
      <defs>
       <path id="m793390c920" d="M 0 0 
L -3.5 0 
" style="stroke: #555555; stroke-width: 0.8"/>
      </defs>
      <g>
       <use xlink:href="#m793390c920" x="56.262828" y="250.344526" style="fill: #555555; stroke: #555555; stroke-width: 0.8"/>
      </g>
     </g>
     <g id="text_11">
      <text style="font-size: 10.5px; font-family: 'Noto Naskh Arabic', 'DejaVu Sans'; text-anchor: end; fill: #555555" x="49.262828" y="255.956776" transform="rotate(-0 49.262828 255.956776)">0.66</text>
     </g>
    </g>
    <g id="ytick_2">
     <g id="line2d_12">
      <path d="M 56.262828 214.061598 
L 400.443914 214.061598 
" clip-path="url(#p0cc43c18d7)" style="fill: none; stroke: #e6e1d6; stroke-width: 0.8; stroke-linecap: square"/>
     </g>
     <g id="line2d_13">
      <g>
       <use xlink:href="#m793390c920" x="56.262828" y="214.061598" style="fill: #555555; stroke: #555555; stroke-width: 0.8"/>
      </g>
     </g>
     <g id="text_12">
      <text style="font-size: 10.5px; font-family: 'Noto Naskh Arabic', 'DejaVu Sans'; text-anchor: end; fill: #555555" x="49.262828" y="219.673848" transform="rotate(-0 49.262828 219.673848)">0.68</text>
     </g>
    </g>
    <g id="ytick_3">
     <g id="line2d_14">
      <path d="M 56.262828 177.778669 
L 400.443914 177.778669 
" clip-path="url(#p0cc43c18d7)" style="fill: none; stroke: #e6e1d6; stroke-width: 0.8; stroke-linecap: square"/>
     </g>
     <g id="line2d_15">
      <g>
       <use xlink:href="#m793390c920" x="56.262828" y="177.778669" style="fill: #555555; stroke: #555555; stroke-width: 0.8"/>
      </g>
     </g>
     <g id="text_13">
      <text style="font-size: 10.5px; font-family: 'Noto Naskh Arabic', 'DejaVu Sans'; text-anchor: end; fill: #555555" x="49.262828" y="183.390919" transform="rotate(-0 49.262828 183.390919)">0.70</text>
     </g>
    </g>
    <g id="ytick_4">
     <g id="line2d_16">
      <path d="M 56.262828 141.49574 
L 400.443914 141.49574 
" clip-path="url(#p0cc43c18d7)" style="fill: none; stroke: #e6e1d6; stroke-width: 0.8; stroke-linecap: square"/>
     </g>
     <g id="line2d_17">
      <g>
       <use xlink:href="#m793390c920" x="56.262828" y="141.49574" style="fill: #555555; stroke: #555555; stroke-width: 0.8"/>
      </g>
     </g>
     <g id="text_14">
      <text style="font-size: 10.5px; font-family: 'Noto Naskh Arabic', 'DejaVu Sans'; text-anchor: end; fill: #555555" x="49.262828" y="147.10799" transform="rotate(-0 49.262828 147.10799)">0.72</text>
     </g>
    </g>
    <g id="ytick_5">
     <g id="line2d_18">
      <path d="M 56.262828 105.212812 
L 400.443914 105.212812 
" clip-path="url(#p0cc43c18d7)" style="fill: none; stroke: #e6e1d6; stroke-width: 0.8; stroke-linecap: square"/>
     </g>
     <g id="line2d_19">
      <g>
       <use xlink:href="#m793390c920" x="56.262828" y="105.212812" style="fill: #555555; stroke: #555555; stroke-width: 0.8"/>
      </g>
     </g>
     <g id="text_15">
      <text style="font-size: 10.5px; font-family: 'Noto Naskh Arabic', 'DejaVu Sans'; text-anchor: end; fill: #555555" x="49.262828" y="110.825062" transform="rotate(-0 49.262828 110.825062)">0.74</text>
     </g>
    </g>
    <g id="ytick_6">
     <g id="line2d_20">
      <path d="M 56.262828 68.929883 
L 400.443914 68.929883 
" clip-path="url(#p0cc43c18d7)" style="fill: none; stroke: #e6e1d6; stroke-width: 0.8; stroke-linecap: square"/>
     </g>
     <g id="line2d_21">
      <g>
       <use xlink:href="#m793390c920" x="56.262828" y="68.929883" style="fill: #555555; stroke: #555555; stroke-width: 0.8"/>
      </g>
     </g>
     <g id="text_16">
      <text style="font-size: 10.5px; font-family: 'Noto Naskh Arabic', 'DejaVu Sans'; text-anchor: end; fill: #555555" x="49.262828" y="74.542133" transform="rotate(-0 49.262828 74.542133)">0.76</text>
     </g>
    </g>
    <g id="ytick_7">
     <g id="line2d_22">
      <path d="M 56.262828 32.646955 
L 400.443914 32.646955 
" clip-path="url(#p0cc43c18d7)" style="fill: none; stroke: #e6e1d6; stroke-width: 0.8; stroke-linecap: square"/>
     </g>
     <g id="line2d_23">
      <g>
       <use xlink:href="#m793390c920" x="56.262828" y="32.646955" style="fill: #555555; stroke: #555555; stroke-width: 0.8"/>
      </g>
     </g>
     <g id="text_17">
      <text style="font-size: 10.5px; font-family: 'Noto Naskh Arabic', 'DejaVu Sans'; text-anchor: end; fill: #555555" x="49.262828" y="38.259205" transform="rotate(-0 49.262828 38.259205)">0.78</text>
     </g>
    </g>
    <g id="text_18">
     <text style="font-size: 10.5px; font-family: 'Noto Naskh Arabic', 'DejaVu Sans'; text-anchor: middle; fill: #1f2937" x="18.4245" y="141.33425" transform="rotate(-90 18.4245 141.33425)">​(Log Loss) ﺓﺭﺎﺴﺨﻟﺍ</text>
    </g>
   </g>
   <g id="line2d_24">
    <path d="M 71.907423 35.649932 
L 72.691613 89.162317 
L 73.475803 114.647068 
L 74.259994 128.832798 
L 75.044184 137.787609 
L 75.828374 144.179775 
L 76.612564 149.176266 
L 77.396754 153.318288 
L 78.965135 159.890995 
L 80.533515 165.066239 
L 82.101896 169.342491 
L 83.670276 172.934801 
L 85.238657 175.983862 
L 86.807037 178.632305 
L 89.159608 182.04184 
L 91.512178 184.857058 
L 93.864749 187.22837 
L 96.21732 189.236887 
L 98.56989 190.981062 
L 101.706651 192.97288 
L 105.627602 195.097412 
L 109.548553 196.930196 
L 114.253695 198.848403 
L 118.958836 200.517792 
L 125.232358 202.460488 
L 135.42683 205.286508 
L 145.621303 207.873168 
L 162.873488 211.959564 
L 174.636341 214.451684 
L 189.535955 217.285607 
L 209.924901 220.830213 
L 276.581069 231.756763 
L 324.416673 238.698517 
L 342.453048 241.172228 
L 360.489423 243.570459 
L 376.957417 245.8082 
L 384.799319 247.018568 
L 384.799319 247.018568 
" clip-path="url(#p0cc43c18d7)" style="fill: none; stroke: #1f2937; stroke-width: 1.6; stroke-linecap: square"/>
   </g>
   <g id="line2d_25">
    <path d="M 71.907423 115.163426 
L 72.691613 157.813417 
L 73.475803 174.526929 
L 74.259994 180.357884 
L 75.044184 184.203861 
L 75.828374 185.098869 
L 76.612564 186.338904 
L 77.396754 186.545547 
L 78.180945 187.058065 
L 78.965135 187.18316 
L 79.749325 187.49193 
L 85.238657 188.192967 
L 88.375417 188.283999 
L 94.648939 188.205674 
L 100.138271 188.021478 
L 111.116934 187.436753 
L 129.153309 186.28356 
L 136.995211 185.690311 
L 158.952537 183.351724 
L 174.636341 181.362166 
L 187.967575 179.649909 
L 202.867189 177.92396 
L 213.061662 176.922105 
L 227.177086 175.462718 
L 275.012689 171.436582 
L 288.343923 170.521032 
L 293.833254 170.20106 
L 306.380298 169.403059 
L 318.143151 168.743245 
L 320.495722 168.674462 
L 323.632482 168.487915 
L 336.963716 167.659634 
L 340.884667 167.347209 
L 353.431711 166.393763 
L 356.568471 166.100692 
L 358.921042 165.964358 
L 359.705232 165.823577 
L 360.489423 165.818506 
L 362.057803 165.664424 
L 364.410374 165.434439 
L 368.331325 165.142564 
L 371.468086 164.938039 
L 373.820656 164.808932 
L 381.662558 164.263818 
L 384.799319 163.874451 
L 384.799319 163.874451 
" clip-path="url(#p0cc43c18d7)" style="fill: none; stroke: #b91c1c; stroke-width: 1.6; stroke-linecap: square"/>
   </g>
   <g id="line2d_26">
    <path d="M 90.727988 257.587 
L 90.727988 25.0815 
" clip-path="url(#p0cc43c18d7)" style="fill: none; stroke-dasharray: 5.92,2.56; stroke-dashoffset: 0; stroke: #b7791f; stroke-width: 1.6"/>
   </g>
   <g id="patch_3">
    <path d="M 56.262828 257.587 
L 56.262828 25.0815 
" style="fill: none; stroke: #1f2937; stroke-width: 0.8; stroke-linejoin: miter; stroke-linecap: square"/>
   </g>
   <g id="patch_4">
    <path d="M 56.262828 257.587 
L 400.443914 257.587 
" style="fill: none; stroke: #1f2937; stroke-width: 0.8; stroke-linejoin: miter; stroke-linecap: square"/>
   </g>
   <g id="text_19">
    <text style="font-weight: 700; font-size: 8.5px; font-family: 'Noto Naskh Arabic', 'DejaVu Sans'; fill: #b7791f" transform="translate(95.433129 107.350515)">​ﺮﻜﺒﻤﻟﺍ ﻑﺎﻘﻳﻹﺍ ﺔﻄﻘﻧ</text>
    <text style="font-weight: 700; font-size: 8.5px; font-family: 'Noto Naskh Arabic', 'DejaVu Sans'; fill: #b7791f" transform="translate(95.433129 121.826015)">(24 ﺔﺒﻘﺣ)</text>
   </g>
   <g id="text_20">
    <text style="font-weight: 700; font-size: 10.5px; font-family: 'Noto Naskh Arabic', 'DejaVu Sans'; text-anchor: middle; fill: #1f2937" x="228.353371" y="18.4245" transform="rotate(-0 228.353371 18.4245)">​ﻢﻴﻈﻨﺗ ﻼﺑ</text>
   </g>
   <g id="legend_1">
    <g id="line2d_27">
     <path d="M 323.121805 38.843 
L 331.621805 38.843 
L 340.121805 38.843 
" style="fill: none; stroke: #1f2937; stroke-width: 1.6; stroke-linecap: square"/>
    </g>
    <g id="text_21">
     <text style="font-size: 8.5px; font-family: 'Noto Naskh Arabic', 'DejaVu Sans'; text-anchor: start; fill: #1f2937" x="346.921805" y="41.818" transform="rotate(-0 346.921805 41.818)">​ﺐﻳﺭﺪﺘﻟﺍ ﺓﺭﺎﺴﺧ</text>
    </g>
    <g id="line2d_28">
     <path d="M 323.121805 57.5685 
L 331.621805 57.5685 
L 340.121805 57.5685 
" style="fill: none; stroke: #b91c1c; stroke-width: 1.6; stroke-linecap: square"/>
    </g>
    <g id="text_22">
     <text style="font-size: 8.5px; font-family: 'Noto Naskh Arabic', 'DejaVu Sans'; text-anchor: start; fill: #1f2937" x="346.921805" y="60.5435" transform="rotate(-0 346.921805 60.5435)">​ﻖﻘﺤﺘﻟﺍ ﺓﺭﺎﺴﺧ</text>
    </g>
   </g>
  </g>
  <g id="axes_2">
   <g id="patch_5">
    <path d="M 406.568914 257.587 
L 750.75 257.587 
L 750.75 25.0815 
L 406.568914 25.0815 
z
" style="fill: #ffffff"/>
   </g>
   <g id="matplotlib.axis_3">
    <g id="xtick_10">
     <g id="line2d_29">
      <g>
       <use xlink:href="#m839032370c" x="422.213509" y="257.587" style="fill: #555555; stroke: #555555; stroke-width: 0.8"/>
      </g>
     </g>
     <g id="text_23">
      <text style="font-size: 10.5px; font-family: 'Noto Naskh Arabic', 'DejaVu Sans'; text-anchor: middle; fill: #555555" x="422.213509" y="275.8115" transform="rotate(-0 422.213509 275.8115)">0</text>
     </g>
    </g>
    <g id="xtick_11">
     <g id="line2d_30">
      <g>
       <use xlink:href="#m839032370c" x="461.42302" y="257.587" style="fill: #555555; stroke: #555555; stroke-width: 0.8"/>
      </g>
     </g>
     <g id="text_24">
      <text style="font-size: 10.5px; font-family: 'Noto Naskh Arabic', 'DejaVu Sans'; text-anchor: middle; fill: #555555" x="461.42302" y="275.8115" transform="rotate(-0 461.42302 275.8115)">50</text>
     </g>
    </g>
    <g id="xtick_12">
     <g id="line2d_31">
      <g>
       <use xlink:href="#m839032370c" x="500.632531" y="257.587" style="fill: #555555; stroke: #555555; stroke-width: 0.8"/>
      </g>
     </g>
     <g id="text_25">
      <text style="font-size: 10.5px; font-family: 'Noto Naskh Arabic', 'DejaVu Sans'; text-anchor: middle; fill: #555555" x="500.632531" y="275.8115" transform="rotate(-0 500.632531 275.8115)">100</text>
     </g>
    </g>
    <g id="xtick_13">
     <g id="line2d_32">
      <g>
       <use xlink:href="#m839032370c" x="539.842041" y="257.587" style="fill: #555555; stroke: #555555; stroke-width: 0.8"/>
      </g>
     </g>
     <g id="text_26">
      <text style="font-size: 10.5px; font-family: 'Noto Naskh Arabic', 'DejaVu Sans'; text-anchor: middle; fill: #555555" x="539.842041" y="275.8115" transform="rotate(-0 539.842041 275.8115)">150</text>
     </g>
    </g>
    <g id="xtick_14">
     <g id="line2d_33">
      <g>
       <use xlink:href="#m839032370c" x="579.051552" y="257.587" style="fill: #555555; stroke: #555555; stroke-width: 0.8"/>
      </g>
     </g>
     <g id="text_27">
      <text style="font-size: 10.5px; font-family: 'Noto Naskh Arabic', 'DejaVu Sans'; text-anchor: middle; fill: #555555" x="579.051552" y="275.8115" transform="rotate(-0 579.051552 275.8115)">200</text>
     </g>
    </g>
    <g id="xtick_15">
     <g id="line2d_34">
      <g>
       <use xlink:href="#m839032370c" x="618.261063" y="257.587" style="fill: #555555; stroke: #555555; stroke-width: 0.8"/>
      </g>
     </g>
     <g id="text_28">
      <text style="font-size: 10.5px; font-family: 'Noto Naskh Arabic', 'DejaVu Sans'; text-anchor: middle; fill: #555555" x="618.261063" y="275.8115" transform="rotate(-0 618.261063 275.8115)">250</text>
     </g>
    </g>
    <g id="xtick_16">
     <g id="line2d_35">
      <g>
       <use xlink:href="#m839032370c" x="657.470574" y="257.587" style="fill: #555555; stroke: #555555; stroke-width: 0.8"/>
      </g>
     </g>
     <g id="text_29">
      <text style="font-size: 10.5px; font-family: 'Noto Naskh Arabic', 'DejaVu Sans'; text-anchor: middle; fill: #555555" x="657.470574" y="275.8115" transform="rotate(-0 657.470574 275.8115)">300</text>
     </g>
    </g>
    <g id="xtick_17">
     <g id="line2d_36">
      <g>
       <use xlink:href="#m839032370c" x="696.680085" y="257.587" style="fill: #555555; stroke: #555555; stroke-width: 0.8"/>
      </g>
     </g>
     <g id="text_30">
      <text style="font-size: 10.5px; font-family: 'Noto Naskh Arabic', 'DejaVu Sans'; text-anchor: middle; fill: #555555" x="696.680085" y="275.8115" transform="rotate(-0 696.680085 275.8115)">350</text>
     </g>
    </g>
    <g id="xtick_18">
     <g id="line2d_37">
      <g>
       <use xlink:href="#m839032370c" x="735.889595" y="257.587" style="fill: #555555; stroke: #555555; stroke-width: 0.8"/>
      </g>
     </g>
     <g id="text_31">
      <text style="font-size: 10.5px; font-family: 'Noto Naskh Arabic', 'DejaVu Sans'; text-anchor: middle; fill: #555555" x="735.889595" y="275.8115" transform="rotate(-0 735.889595 275.8115)">400</text>
     </g>
    </g>
    <g id="text_32">
     <text style="font-size: 10.5px; font-family: 'Noto Naskh Arabic', 'DejaVu Sans'; text-anchor: middle; fill: #1f2937" x="578.659457" y="297.693" transform="rotate(-0 578.659457 297.693)">​(Epochs) ﺕﺎﺒﻘﺤﻟﺍ</text>
    </g>
   </g>
   <g id="matplotlib.axis_4">
    <g id="ytick_8">
     <g id="line2d_38">
      <path d="M 406.568914 250.344526 
L 750.75 250.344526 
" clip-path="url(#p2ab6231757)" style="fill: none; stroke: #e6e1d6; stroke-width: 0.8; stroke-linecap: square"/>
     </g>
     <g id="line2d_39">
      <g>
       <use xlink:href="#m793390c920" x="406.568914" y="250.344526" style="fill: #555555; stroke: #555555; stroke-width: 0.8"/>
      </g>
     </g>
    </g>
    <g id="ytick_9">
     <g id="line2d_40">
      <path d="M 406.568914 214.061598 
L 750.75 214.061598 
" clip-path="url(#p2ab6231757)" style="fill: none; stroke: #e6e1d6; stroke-width: 0.8; stroke-linecap: square"/>
     </g>
     <g id="line2d_41">
      <g>
       <use xlink:href="#m793390c920" x="406.568914" y="214.061598" style="fill: #555555; stroke: #555555; stroke-width: 0.8"/>
      </g>
     </g>
    </g>
    <g id="ytick_10">
     <g id="line2d_42">
      <path d="M 406.568914 177.778669 
L 750.75 177.778669 
" clip-path="url(#p2ab6231757)" style="fill: none; stroke: #e6e1d6; stroke-width: 0.8; stroke-linecap: square"/>
     </g>
     <g id="line2d_43">
      <g>
       <use xlink:href="#m793390c920" x="406.568914" y="177.778669" style="fill: #555555; stroke: #555555; stroke-width: 0.8"/>
      </g>
     </g>
    </g>
    <g id="ytick_11">
     <g id="line2d_44">
      <path d="M 406.568914 141.49574 
L 750.75 141.49574 
" clip-path="url(#p2ab6231757)" style="fill: none; stroke: #e6e1d6; stroke-width: 0.8; stroke-linecap: square"/>
     </g>
     <g id="line2d_45">
      <g>
       <use xlink:href="#m793390c920" x="406.568914" y="141.49574" style="fill: #555555; stroke: #555555; stroke-width: 0.8"/>
      </g>
     </g>
    </g>
    <g id="ytick_12">
     <g id="line2d_46">
      <path d="M 406.568914 105.212812 
L 750.75 105.212812 
" clip-path="url(#p2ab6231757)" style="fill: none; stroke: #e6e1d6; stroke-width: 0.8; stroke-linecap: square"/>
     </g>
     <g id="line2d_47">
      <g>
       <use xlink:href="#m793390c920" x="406.568914" y="105.212812" style="fill: #555555; stroke: #555555; stroke-width: 0.8"/>
      </g>
     </g>
    </g>
    <g id="ytick_13">
     <g id="line2d_48">
      <path d="M 406.568914 68.929883 
L 750.75 68.929883 
" clip-path="url(#p2ab6231757)" style="fill: none; stroke: #e6e1d6; stroke-width: 0.8; stroke-linecap: square"/>
     </g>
     <g id="line2d_49">
      <g>
       <use xlink:href="#m793390c920" x="406.568914" y="68.929883" style="fill: #555555; stroke: #555555; stroke-width: 0.8"/>
      </g>
     </g>
    </g>
    <g id="ytick_14">
     <g id="line2d_50">
      <path d="M 406.568914 32.646955 
L 750.75 32.646955 
" clip-path="url(#p2ab6231757)" style="fill: none; stroke: #e6e1d6; stroke-width: 0.8; stroke-linecap: square"/>
     </g>
     <g id="line2d_51">
      <g>
       <use xlink:href="#m793390c920" x="406.568914" y="32.646955" style="fill: #555555; stroke: #555555; stroke-width: 0.8"/>
      </g>
     </g>
    </g>
   </g>
   <g id="line2d_52">
    <path d="M 422.213509 36.220345 
L 422.997699 89.890324 
L 423.781889 115.440489 
L 424.56608 129.676287 
L 425.35027 138.683911 
L 426.13446 145.121797 
L 426.91865 150.15351 
L 427.70284 154.3217 
L 429.271221 160.923114 
L 430.839601 166.098086 
L 432.407982 170.356515 
L 433.976362 173.916278 
L 435.544743 176.929431 
L 437.113123 179.528122 
L 438.681503 181.820296 
L 440.249884 183.836537 
L 442.602455 186.412282 
L 444.955025 188.575709 
L 447.307596 190.417318 
L 449.660166 192.009642 
L 452.796927 193.829203 
L 456.717878 195.782199 
L 460.638829 197.444905 
L 465.343971 199.168099 
L 470.049112 200.662767 
L 475.538444 202.164765 
L 484.164536 204.296039 
L 492.790628 206.215006 
L 511.611194 210.096915 
L 522.589857 212.104919 
L 533.56852 213.858631 
L 559.446797 217.59536 
L 577.483172 220.140263 
L 599.440498 223.193683 
L 627.671346 226.932503 
L 644.92353 228.91525 
L 682.564661 232.941422 
L 717.06903 236.497018 
L 731.968644 237.955125 
L 735.105405 238.234584 
L 735.105405 238.234584 
" clip-path="url(#p2ab6231757)" style="fill: none; stroke: #1f2937; stroke-width: 1.6; stroke-linecap: square"/>
   </g>
   <g id="line2d_53">
    <path d="M 422.213509 115.541631 
L 422.997699 158.165076 
L 423.781889 174.86747 
L 424.56608 180.682175 
L 425.35027 184.520492 
L 426.13446 185.450973 
L 426.91865 186.682824 
L 427.70284 186.927896 
L 428.487031 187.432947 
L 429.271221 187.587053 
L 430.055411 187.886637 
L 434.760552 188.57557 
L 438.681503 188.734006 
L 444.170835 188.714682 
L 456.717878 188.283906 
L 484.164536 186.88767 
L 496.711579 185.899612 
L 539.057851 181.98393 
L 568.072889 180.007365 
L 585.325074 179.142937 
L 602.577259 178.505283 
L 613.555922 178.229261 
L 620.613634 177.996957 
L 629.239726 177.615465 
L 648.844481 176.560397 
L 659.823144 176.038736 
L 662.959905 175.883824 
L 667.665047 175.69743 
L 676.291139 175.342411 
L 686.485612 174.796634 
L 695.895894 174.492328 
L 706.090367 174.239436 
L 717.85322 174.097731 
L 735.105405 173.773279 
L 735.105405 173.773279 
" clip-path="url(#p2ab6231757)" style="fill: none; stroke: #b91c1c; stroke-width: 1.6; stroke-linecap: square"/>
   </g>
   <g id="patch_6">
    <path d="M 406.568914 257.587 
L 406.568914 25.0815 
" style="fill: none; stroke: #1f2937; stroke-width: 0.8; stroke-linejoin: miter; stroke-linecap: square"/>
   </g>
   <g id="patch_7">
    <path d="M 406.568914 257.587 
L 750.75 257.587 
" style="fill: none; stroke: #1f2937; stroke-width: 0.8; stroke-linejoin: miter; stroke-linecap: square"/>
   </g>
   <g id="text_33">
    <text style="font-weight: 700; font-size: 10.5px; font-family: 'Noto Naskh Arabic', 'DejaVu Sans'; text-anchor: middle; fill: #1f2937" x="578.659457" y="18.4245" transform="rotate(-0 578.659457 18.4245)">​L2 ﻢﻴﻈﻨﺗ ﻊﻣ</text>
   </g>
   <g id="legend_2">
    <g id="line2d_54">
     <path d="M 673.427891 38.843 
L 681.927891 38.843 
L 690.427891 38.843 
" style="fill: none; stroke: #1f2937; stroke-width: 1.6; stroke-linecap: square"/>
    </g>
    <g id="text_34">
     <text style="font-size: 8.5px; font-family: 'Noto Naskh Arabic', 'DejaVu Sans'; text-anchor: start; fill: #1f2937" x="697.227891" y="41.818" transform="rotate(-0 697.227891 41.818)">​ﺐﻳﺭﺪﺘﻟﺍ ﺓﺭﺎﺴﺧ</text>
    </g>
    <g id="line2d_55">
     <path d="M 673.427891 57.5685 
L 681.927891 57.5685 
L 690.427891 57.5685 
" style="fill: none; stroke: #b91c1c; stroke-width: 1.6; stroke-linecap: square"/>
    </g>
    <g id="text_35">
     <text style="font-size: 8.5px; font-family: 'Noto Naskh Arabic', 'DejaVu Sans'; text-anchor: start; fill: #1f2937" x="697.227891" y="60.5435" transform="rotate(-0 697.227891 60.5435)">​ﻖﻘﺤﺘﻟﺍ ﺓﺭﺎﺴﺧ</text>
    </g>
   </g>
  </g>
 </g>
 <defs>
  <clipPath id="p0cc43c18d7">
   <rect x="56.262828" y="25.0815" width="344.181086" height="232.5055"/>
  </clipPath>
  <clipPath id="p2ab6231757">
   <rect x="406.568914" y="25.0815" width="344.181086" height="232.5055"/>
  </clipPath>
 </defs>
</svg>
