<?xml version="1.0" encoding="utf-8" standalone="no"?>
<!DOCTYPE svg PUBLIC "-//W3C//DTD SVG 1.1//EN"
  "http://www.w3.org/Graphics/SVG/1.1/DTD/svg11.dtd">
<svg xmlns:xlink="http://www.w3.org/1999/xlink" width="642.75pt" height="412.35pt" viewBox="0 0 642.75 412.35" xmlns="http://www.w3.org/2000/svg" version="1.1">
 <metadata>
  <rdf:RDF xmlns:dc="http://purl.org/dc/elements/1.1/" xmlns:cc="http://creativecommons.org/ns#" xmlns:rdf="http://www.w3.org/1999/02/22-rdf-syntax-ns#">
   <cc:Work>
    <dc:type rdf:resource="http://purl.org/dc/dcmitype/StillImage"/>
    <dc:date>2026-07-19T20:01:37.779540</dc:date>
    <dc:format>image/svg+xml</dc:format>
    <dc:creator>
     <cc:Agent>
      <dc:title>Matplotlib v3.11.1, https://matplotlib.org/</dc:title>
     </cc:Agent>
    </dc:creator>
   </cc:Work>
  </rdf:RDF>
 </metadata>
 <defs>
  <style type="text/css">*{stroke-linejoin: round; stroke-linecap: butt}</style>
 </defs>
 <g id="figure_1">
  <g id="patch_1">
   <path d="M 0 412.35 
L 642.75 412.35 
L 642.75 0 
L 0 0 
z
" style="fill: #ffffff"/>
  </g>
  <g id="axes_1">
   <g id="patch_2">
    <path d="M 161.14575 63.783516 
L 481.60425 63.783516 
Q 487.88775 63.783516 487.88775 57.565547 
L 487.88775 19.014141 
Q 487.88775 12.796172 481.60425 12.796172 
L 161.14575 12.796172 
Q 154.86225 12.796172 154.86225 19.014141 
L 154.86225 57.565547 
Q 154.86225 63.783516 161.14575 63.783516 
z
" clip-path="url(#pf6ffa6dceb)" style="fill: #8a8f98"/>
   </g>
   <g id="patch_3">
    <path d="M 161.14575 125.963203 
L 481.60425 125.963203 
Q 487.88775 125.963203 487.88775 119.745234 
L 487.88775 81.193828 
Q 487.88775 74.975859 481.60425 74.975859 
L 161.14575 74.975859 
Q 154.86225 74.975859 154.86225 81.193828 
L 154.86225 119.745234 
Q 154.86225 125.963203 161.14575 125.963203 
z
" clip-path="url(#pf6ffa6dceb)" style="fill: #1f2937"/>
   </g>
   <g id="patch_4">
    <path d="M 161.14575 188.142891 
L 481.60425 188.142891 
Q 487.88775 188.142891 487.88775 181.924922 
L 487.88775 143.373516 
Q 487.88775 137.155547 481.60425 137.155547 
L 161.14575 137.155547 
Q 154.86225 137.155547 154.86225 143.373516 
L 154.86225 181.924922 
Q 154.86225 188.142891 161.14575 188.142891 
z
" clip-path="url(#pf6ffa6dceb)" style="fill: #b7791f"/>
   </g>
   <g id="patch_5">
    <path d="M 161.14575 250.322578 
L 481.60425 250.322578 
Q 487.88775 250.322578 487.88775 244.104609 
L 487.88775 205.553203 
Q 487.88775 199.335234 481.60425 199.335234 
L 161.14575 199.335234 
Q 154.86225 199.335234 154.86225 205.553203 
L 154.86225 244.104609 
Q 154.86225 250.322578 161.14575 250.322578 
z
" clip-path="url(#pf6ffa6dceb)" style="fill: #1f2937"/>
   </g>
   <g id="patch_6">
    <path d="M 161.14575 312.502266 
L 481.60425 312.502266 
Q 487.88775 312.502266 487.88775 306.284297 
L 487.88775 267.732891 
Q 487.88775 261.514922 481.60425 261.514922 
L 161.14575 261.514922 
Q 154.86225 261.514922 154.86225 267.732891 
L 154.86225 306.284297 
Q 154.86225 312.502266 161.14575 312.502266 
z
" clip-path="url(#pf6ffa6dceb)" style="fill: #b7791f"/>
   </g>
   <g id="patch_7">
    <path d="M 161.14575 374.681953 
L 481.60425 374.681953 
Q 487.88775 374.681953 487.88775 368.463984 
L 487.88775 329.912578 
Q 487.88775 323.694609 481.60425 323.694609 
L 161.14575 323.694609 
Q 154.86225 323.694609 154.86225 329.912578 
L 154.86225 368.463984 
Q 154.86225 374.681953 161.14575 374.681953 
z
" clip-path="url(#pf6ffa6dceb)" style="fill: #1f8a56"/>
   </g>
   <g id="text_1">
    <text style="font-weight: 700; font-size: 10px; font-family: 'Noto Naskh Arabic', 'DejaVu Sans'; text-anchor: start; fill: #1f2937" x="547.581" y="100.469531" transform="rotate(-0 547.581 100.469531)">​×N ﺔﻘﺒﻃ</text>
   </g>
   <g id="text_2">
    <text style="font-weight: 700; font-size: 9.5px; font-family: 'Noto Naskh Arabic', 'DejaVu Sans'; text-anchor: middle; fill: #ffffff" x="321.375" y="40.356094" transform="rotate(-0 321.375 40.356094)">​ﻲﻌﺿﻮﻣ ﺰﻴﻣﺮﺗ + (ﺓﻮﻄﺧ 60) ﻉﻮﻤﺷ ﺓﺬﻓﺎﻧ</text>
   </g>
   <g id="text_3">
    <text style="font-weight: 700; font-size: 9.5px; font-family: 'Noto Naskh Arabic', 'DejaVu Sans'; text-anchor: middle; fill: #ffffff" x="321.375" y="102.535781" transform="rotate(-0 321.375 102.535781)">​ﺱﻭﺅﺮﻟﺍ ﺩﺪﻌﺘﻣ ﻲﺗﺍﺫ ﻩﺎﺒﺘﻧﺍ</text>
   </g>
   <g id="text_4">
    <text style="font-weight: 700; font-size: 9.5px; font-family: 'Noto Naskh Arabic', 'DejaVu Sans'; text-anchor: middle; fill: #ffffff" x="321.375" y="164.715469" transform="rotate(-0 321.375 164.715469)">​(Residual) ﻊﻴﺒﻄﺗ + ﻊﻤﺟ</text>
   </g>
   <g id="text_5">
    <text style="font-weight: 700; font-size: 9.5px; font-family: 'Noto Naskh Arabic', 'DejaVu Sans'; text-anchor: middle; fill: #ffffff" x="321.375" y="226.895156" transform="rotate(-0 321.375 226.895156)">​ﺔﻴﻣﺎﻣﺃ ﺔﻳﺬﻐﺗ ﺔﻜﺒﺷ</text>
   </g>
   <g id="text_6">
    <text style="font-weight: 700; font-size: 9.5px; font-family: 'Noto Naskh Arabic', 'DejaVu Sans'; text-anchor: middle; fill: #ffffff" x="321.375" y="289.074844" transform="rotate(-0 321.375 289.074844)">​(Residual) ﻊﻴﺒﻄﺗ + ﻊﻤﺟ</text>
   </g>
   <g id="text_7">
    <text style="font-weight: 700; font-size: 9.5px; font-family: 'Noto Naskh Arabic', 'DejaVu Sans'; text-anchor: middle; fill: #ffffff" x="321.375" y="351.254531" transform="rotate(-0 321.375 351.254531)">​ﻲﻟﺎﺘﻟﺍ ﻩﺎﺠﺗﻻﺍ/ﺪﺋﺎﻌﻟﺍ :ﺆﺒﻨﺗ ﺱﺃﺭ</text>
   </g>
   <g id="patch_8">
    <path d="M 321.375 65.162217 
Q 321.375 70.002343 321.375 73.165419 
" clip-path="url(#pf6ffa6dceb)" style="fill: none; stroke: #8a8f98; stroke-width: 1.5; stroke-linecap: round"/>
    <path d="M 324.575 66.765419 
L 321.375 73.165419 
L 318.175 66.765419 
z
" clip-path="url(#pf6ffa6dceb)" style="fill: #8a8f98; stroke: #8a8f98; stroke-width: 1.5; stroke-linecap: round"/>
   </g>
   <g id="patch_9">
    <path d="M 321.375 127.341904 
Q 321.375 132.182031 321.375 135.345107 
" clip-path="url(#pf6ffa6dceb)" style="fill: none; stroke: #8a8f98; stroke-width: 1.5; stroke-linecap: round"/>
    <path d="M 324.575 128.945107 
L 321.375 135.345107 
L 318.175 128.945107 
z
" clip-path="url(#pf6ffa6dceb)" style="fill: #8a8f98; stroke: #8a8f98; stroke-width: 1.5; stroke-linecap: round"/>
   </g>
   <g id="patch_10">
    <path d="M 321.375 189.521592 
Q 321.375 194.361718 321.375 197.524794 
" clip-path="url(#pf6ffa6dceb)" style="fill: none; stroke: #8a8f98; stroke-width: 1.5; stroke-linecap: round"/>
    <path d="M 324.575 191.124794 
L 321.375 197.524794 
L 318.175 191.124794 
z
" clip-path="url(#pf6ffa6dceb)" style="fill: #8a8f98; stroke: #8a8f98; stroke-width: 1.5; stroke-linecap: round"/>
   </g>
   <g id="patch_11">
    <path d="M 321.375 251.701279 
Q 321.375 256.541406 321.375 259.704482 
" clip-path="url(#pf6ffa6dceb)" style="fill: none; stroke: #8a8f98; stroke-width: 1.5; stroke-linecap: round"/>
    <path d="M 324.575 253.304482 
L 321.375 259.704482 
L 318.175 253.304482 
z
" clip-path="url(#pf6ffa6dceb)" style="fill: #8a8f98; stroke: #8a8f98; stroke-width: 1.5; stroke-linecap: round"/>
   </g>
   <g id="patch_12">
    <path d="M 321.375 313.880967 
Q 321.375 318.721093 321.375 321.884169 
" clip-path="url(#pf6ffa6dceb)" style="fill: none; stroke: #8a8f98; stroke-width: 1.5; stroke-linecap: round"/>
    <path d="M 324.575 315.484169 
L 321.375 321.884169 
L 318.175 315.484169 
z
" clip-path="url(#pf6ffa6dceb)" style="fill: #8a8f98; stroke: #8a8f98; stroke-width: 1.5; stroke-linecap: round"/>
   </g>
  </g>
 </g>
 <defs>
  <clipPath id="pf6ffa6dceb">
   <rect x="7.2" y="7.2" width="628.35" height="397.95"/>
  </clipPath>
 </defs>
</svg>
