<?xml version="1.0" encoding="utf-8" standalone="no"?>
<!DOCTYPE svg PUBLIC "-//W3C//DTD SVG 1.1//EN"
  "http://www.w3.org/Graphics/SVG/1.1/DTD/svg11.dtd">
<svg xmlns:xlink="http://www.w3.org/1999/xlink" width="815.55pt" height="263.166pt" viewBox="0 0 815.55 263.166" xmlns="http://www.w3.org/2000/svg" version="1.1">
 <metadata>
  <rdf:RDF xmlns:dc="http://purl.org/dc/elements/1.1/" xmlns:cc="http://creativecommons.org/ns#" xmlns:rdf="http://www.w3.org/1999/02/22-rdf-syntax-ns#">
   <cc:Work>
    <dc:type rdf:resource="http://purl.org/dc/dcmitype/StillImage"/>
    <dc:date>2026-07-19T19:47:27.203493</dc:date>
    <dc:format>image/svg+xml</dc:format>
    <dc:creator>
     <cc:Agent>
      <dc:title>Matplotlib v3.11.1, https://matplotlib.org/</dc:title>
     </cc:Agent>
    </dc:creator>
   </cc:Work>
  </rdf:RDF>
 </metadata>
 <defs>
  <style type="text/css">*{stroke-linejoin: round; stroke-linecap: butt}</style>
 </defs>
 <g id="figure_1">
  <g id="patch_1">
   <path d="M 0 263.166 
L 815.55 263.166 
L 815.55 0 
L 0 0 
z
" style="fill: #ffffff"/>
  </g>
  <g id="axes_1">
   <g id="patch_2">
    <path d="M 32.218984 231.077866 
L 275.062656 231.077866 
L 275.062656 23.3785 
L 32.218984 23.3785 
z
" style="fill: #ffffff"/>
   </g>
   <g id="matplotlib.axis_1"/>
   <g id="matplotlib.axis_2">
    <g id="ytick_1">
     <g id="line2d_1">
      <path d="M 32.218984 221.642067 
L 275.062656 221.642067 
" clip-path="url(#pc993c7e550)" style="fill: none; stroke: #e6e1d6; stroke-width: 0.8; stroke-linecap: square"/>
     </g>
     <g id="line2d_2">
      <defs>
       <path id="m194247c623" d="M 0 0 
L -3.5 0 
" style="stroke: #555555; stroke-width: 0.8"/>
      </defs>
      <g>
       <use xlink:href="#m194247c623" x="32.218984" y="221.642067" style="fill: #555555; stroke: #555555; stroke-width: 0.8"/>
      </g>
     </g>
     <g id="text_1">
      <text style="font-size: 10.5px; font-family: 'Noto Naskh Arabic', 'DejaVu Sans'; text-anchor: end; fill: #555555" x="25.218984" y="227.254317" transform="rotate(-0 25.218984 227.254317)">100</text>
     </g>
    </g>
    <g id="ytick_2">
     <g id="line2d_3">
      <path d="M 32.218984 196.237405 
L 275.062656 196.237405 
" clip-path="url(#pc993c7e550)" style="fill: none; stroke: #e6e1d6; stroke-width: 0.8; stroke-linecap: square"/>
     </g>
     <g id="line2d_4">
      <g>
       <use xlink:href="#m194247c623" x="32.218984" y="196.237405" style="fill: #555555; stroke: #555555; stroke-width: 0.8"/>
      </g>
     </g>
     <g id="text_2">
      <text style="font-size: 10.5px; font-family: 'Noto Naskh Arabic', 'DejaVu Sans'; text-anchor: end; fill: #555555" x="25.218984" y="201.849655" transform="rotate(-0 25.218984 201.849655)">150</text>
     </g>
    </g>
    <g id="ytick_3">
     <g id="line2d_5">
      <path d="M 32.218984 170.832744 
L 275.062656 170.832744 
" clip-path="url(#pc993c7e550)" style="fill: none; stroke: #e6e1d6; stroke-width: 0.8; stroke-linecap: square"/>
     </g>
     <g id="line2d_6">
      <g>
       <use xlink:href="#m194247c623" x="32.218984" y="170.832744" style="fill: #555555; stroke: #555555; stroke-width: 0.8"/>
      </g>
     </g>
     <g id="text_3">
      <text style="font-size: 10.5px; font-family: 'Noto Naskh Arabic', 'DejaVu Sans'; text-anchor: end; fill: #555555" x="25.218984" y="176.444994" transform="rotate(-0 25.218984 176.444994)">200</text>
     </g>
    </g>
    <g id="ytick_4">
     <g id="line2d_7">
      <path d="M 32.218984 145.428082 
L 275.062656 145.428082 
" clip-path="url(#pc993c7e550)" style="fill: none; stroke: #e6e1d6; stroke-width: 0.8; stroke-linecap: square"/>
     </g>
     <g id="line2d_8">
      <g>
       <use xlink:href="#m194247c623" x="32.218984" y="145.428082" style="fill: #555555; stroke: #555555; stroke-width: 0.8"/>
      </g>
     </g>
     <g id="text_4">
      <text style="font-size: 10.5px; font-family: 'Noto Naskh Arabic', 'DejaVu Sans'; text-anchor: end; fill: #555555" x="25.218984" y="151.040332" transform="rotate(-0 25.218984 151.040332)">250</text>
     </g>
    </g>
    <g id="ytick_5">
     <g id="line2d_9">
      <path d="M 32.218984 120.023421 
L 275.062656 120.023421 
" clip-path="url(#pc993c7e550)" style="fill: none; stroke: #e6e1d6; stroke-width: 0.8; stroke-linecap: square"/>
     </g>
     <g id="line2d_10">
      <g>
       <use xlink:href="#m194247c623" x="32.218984" y="120.023421" style="fill: #555555; stroke: #555555; stroke-width: 0.8"/>
      </g>
     </g>
     <g id="text_5">
      <text style="font-size: 10.5px; font-family: 'Noto Naskh Arabic', 'DejaVu Sans'; text-anchor: end; fill: #555555" x="25.218984" y="125.635671" transform="rotate(-0 25.218984 125.635671)">300</text>
     </g>
    </g>
    <g id="ytick_6">
     <g id="line2d_11">
      <path d="M 32.218984 94.61876 
L 275.062656 94.61876 
" clip-path="url(#pc993c7e550)" style="fill: none; stroke: #e6e1d6; stroke-width: 0.8; stroke-linecap: square"/>
     </g>
     <g id="line2d_12">
      <g>
       <use xlink:href="#m194247c623" x="32.218984" y="94.61876" style="fill: #555555; stroke: #555555; stroke-width: 0.8"/>
      </g>
     </g>
     <g id="text_6">
      <text style="font-size: 10.5px; font-family: 'Noto Naskh Arabic', 'DejaVu Sans'; text-anchor: end; fill: #555555" x="25.218984" y="100.23101" transform="rotate(-0 25.218984 100.23101)">350</text>
     </g>
    </g>
    <g id="ytick_7">
     <g id="line2d_13">
      <path d="M 32.218984 69.214098 
L 275.062656 69.214098 
" clip-path="url(#pc993c7e550)" style="fill: none; stroke: #e6e1d6; stroke-width: 0.8; stroke-linecap: square"/>
     </g>
     <g id="line2d_14">
      <g>
       <use xlink:href="#m194247c623" x="32.218984" y="69.214098" style="fill: #555555; stroke: #555555; stroke-width: 0.8"/>
      </g>
     </g>
     <g id="text_7">
      <text style="font-size: 10.5px; font-family: 'Noto Naskh Arabic', 'DejaVu Sans'; text-anchor: end; fill: #555555" x="25.218984" y="74.826348" transform="rotate(-0 25.218984 74.826348)">400</text>
     </g>
    </g>
    <g id="ytick_8">
     <g id="line2d_15">
      <path d="M 32.218984 43.809437 
L 275.062656 43.809437 
" clip-path="url(#pc993c7e550)" style="fill: none; stroke: #e6e1d6; stroke-width: 0.8; stroke-linecap: square"/>
     </g>
     <g id="line2d_16">
      <g>
       <use xlink:href="#m194247c623" x="32.218984" y="43.809437" style="fill: #555555; stroke: #555555; stroke-width: 0.8"/>
      </g>
     </g>
     <g id="text_8">
      <text style="font-size: 10.5px; font-family: 'Noto Naskh Arabic', 'DejaVu Sans'; text-anchor: end; fill: #555555" x="25.218984" y="49.421687" transform="rotate(-0 25.218984 49.421687)">450</text>
     </g>
    </g>
   </g>
   <g id="line2d_17">
    <path d="M 43.257333 221.469315 
L 43.699752 217.419812 
L 44.142171 216.86599 
L 44.584589 219.167653 
L 45.027008 218.593507 
L 45.469427 217.623049 
L 45.911846 218.517293 
L 46.354265 220.620799 
L 46.796683 220.437886 
L 47.239102 221.515043 
L 47.681521 220.874846 
L 48.12394 221.636986 
L 48.566359 220.839279 
L 49.008777 220.473452 
L 49.451196 220.468371 
L 49.893615 218.93393 
L 50.336034 217.831367 
L 50.778452 215.804075 
L 51.220871 215.544948 
L 51.66329 214.544004 
L 52.105709 212.755516 
L 52.548128 211.805382 
L 52.990546 212.577683 
L 53.432965 212.303313 
L 53.875384 211.063566 
L 54.317803 211.566578 
L 54.760222 212.364284 
L 55.20264 207.994683 
L 55.645059 205.850529 
L 56.087478 206.602507 
L 57.414734 202.146529 
L 57.857153 202.80197 
L 58.299572 201.902645 
L 58.741991 202.471709 
L 59.184409 203.726699 
L 59.626828 202.63938 
L 60.069247 200.861054 
L 60.511666 200.302151 
L 60.954085 199.230074 
L 61.396503 196.664204 
L 61.838922 197.284077 
L 62.281341 201.069372 
L 62.72376 196.552423 
L 63.166178 184.840874 
L 63.608597 177.234718 
L 64.051016 180.080041 
L 64.493435 177.961292 
L 64.935854 174.236968 
L 65.378272 175.588496 
L 65.820691 172.849874 
L 66.26311 173.439262 
L 66.705529 175.06516 
L 67.147948 178.60657 
L 67.590366 186.405801 
L 68.032785 184.779903 
L 68.475204 186.736062 
L 68.917623 187.16286 
L 69.360041 179.460167 
L 69.80246 179.978422 
L 70.244879 178.520194 
L 70.687298 184.784984 
L 71.129717 184.805308 
L 71.572135 187.32545 
L 72.014554 186.380397 
L 72.456973 188.565197 
L 72.899392 187.335612 
L 73.341811 183.657017 
L 73.784229 181.304545 
L 74.226648 180.46111 
L 74.669067 179.988584 
L 75.111486 181.014932 
L 75.553905 181.299464 
L 75.996323 180.791371 
L 76.881161 185.348967 
L 77.32358 186.085703 
L 77.765998 184.332781 
L 78.208417 185.237187 
L 78.650836 185.846899 
L 79.093255 181.66021 
L 79.535674 181.106389 
L 79.978092 182.788177 
L 80.420511 180.953961 
L 80.86293 178.44398 
L 81.305349 179.089259 
L 81.747768 177.793621 
L 82.190186 176.980672 
L 82.632605 174.943218 
L 83.075024 174.511339 
L 83.517443 174.440206 
L 83.959861 172.052168 
L 84.40228 174.496096 
L 84.844699 169.455811 
L 85.287118 173.627257 
L 85.729537 174.130269 
L 86.171955 176.650411 
L 86.614374 173.957517 
L 87.056793 173.342724 
L 87.499212 174.115026 
L 87.941631 173.180135 
L 88.384049 173.205539 
L 89.268887 168.85118 
L 89.711306 172.204596 
L 90.153724 173.921951 
L 90.596143 176.787596 
L 91.038562 180.628781 
L 91.480981 182.457917 
L 91.9234 176.299827 
L 92.365818 176.889215 
L 92.808237 175.740924 
L 93.250656 173.058192 
L 93.693075 174.948299 
L 94.135494 167.804508 
L 94.577912 165.314851 
L 95.020331 168.617457 
L 95.46275 172.849874 
L 95.905169 171.523751 
L 96.347587 175.110889 
L 96.790006 176.940024 
L 97.232425 177.234718 
L 97.674844 174.394477 
L 98.117263 173.256349 
L 98.559681 171.640612 
L 99.0021 171.89974 
L 99.444519 171.874335 
L 99.886938 175.217588 
L 100.329357 173.906708 
L 100.771775 176.47766 
L 101.214194 178.012101 
L 101.656613 176.934943 
L 102.099032 177.915563 
L 102.54145 178.362685 
L 102.983869 177.432875 
L 103.426288 177.996858 
L 103.868707 176.518307 
L 104.753544 180.308683 
L 105.195963 181.00477 
L 105.638382 182.112413 
L 106.080801 183.540155 
L 106.52322 181.700858 
L 106.965638 183.230219 
L 107.408057 181.355355 
L 108.292895 180.547486 
L 108.735313 181.705939 
L 109.620151 181.375678 
L 110.06257 180.273116 
L 110.504989 181.213088 
L 110.947407 180.765966 
L 111.389826 180.735481 
L 111.832245 180.974285 
L 112.274664 178.306795 
L 112.717083 176.640249 
L 113.159501 176.309989 
L 113.60192 174.003246 
L 114.044339 174.872085 
L 114.486758 174.272535 
L 114.929176 173.901627 
L 115.371595 174.424963 
L 115.814014 175.176941 
L 116.256433 178.454142 
L 116.698852 177.453199 
L 117.14127 175.202346 
L 118.026108 168.68859 
L 118.468527 162.79979 
L 118.910946 158.87731 
L 119.353364 161.305996 
L 119.795783 160.78266 
L 120.238202 160.950331 
L 120.680621 160.670879 
L 121.12304 159.507346 
L 121.565458 157.525782 
L 122.007877 156.352087 
L 122.450296 157.124389 
L 122.892715 156.595972 
L 123.335133 157.612158 
L 123.777552 156.707752 
L 124.219971 154.934507 
L 124.66239 156.240306 
L 125.104809 155.976098 
L 125.989646 153.999615 
L 126.432065 150.935813 
L 126.874484 150.925651 
L 127.316903 149.690985 
L 127.759321 142.658974 
L 128.20174 142.379523 
L 128.644159 139.935595 
L 129.086578 140.753625 
L 129.528996 137.298591 
L 130.413834 126.12054 
L 130.856253 126.171349 
L 131.298672 130.053181 
L 131.74109 124.626746 
L 132.183509 123.519102 
L 132.625928 130.408847 
L 133.068347 126.979217 
L 133.510766 128.915052 
L 133.953184 128.788029 
L 134.838022 132.82737 
L 135.722859 130.032858 
L 136.165278 126.781061 
L 137.050116 125.460019 
L 137.492535 125.2517 
L 138.377372 117.940239 
L 138.819791 119.007235 
L 139.26221 123.72234 
L 139.704629 122.995766 
L 140.147047 124.469237 
L 140.589466 122.203141 
L 141.031885 124.332052 
L 141.474304 122.289517 
L 141.916722 121.938932 
L 142.359141 123.402241 
L 142.80156 124.199947 
L 143.243979 120.602647 
L 143.686398 119.571218 
L 144.128816 119.41879 
L 144.571235 120.257144 
L 145.013654 114.993298 
L 145.898492 112.940601 
L 146.34091 118.803997 
L 146.783329 122.132008 
L 147.225748 122.010066 
L 147.668167 121.583267 
L 148.110585 123.326027 
L 148.553004 126.242482 
L 148.995423 124.286323 
L 149.437842 120.434977 
L 149.880261 121.395273 
L 150.322679 121.176793 
L 150.765098 123.910334 
L 151.207517 124.469237 
L 151.649936 124.306647 
L 152.092355 127.299316 
L 152.534773 128.127508 
L 152.977192 125.246619 
L 153.419611 128.152913 
L 153.86203 127.314559 
L 154.304448 127.59401 
L 154.746867 130.190366 
L 155.189286 130.185286 
L 155.631705 133.228764 
L 156.074124 130.398685 
L 156.516542 128.879486 
L 156.958961 128.869324 
L 157.40138 128.366312 
L 157.843799 125.891898 
L 158.728636 127.136726 
L 159.171055 127.009703 
L 159.613474 125.891898 
L 160.055893 126.572743 
L 160.498312 122.629939 
L 160.94073 122.365731 
L 161.383149 120.485786 
L 161.825568 115.074593 
L 162.267987 114.088892 
L 162.710405 118.499141 
L 163.152824 118.692217 
L 163.595243 119.921802 
L 164.480081 116.004404 
L 164.922499 113.977112 
L 165.364918 114.246401 
L 165.807337 112.219109 
L 166.249756 112.76785 
L 166.692175 112.940601 
L 167.134593 116.974862 
L 167.577012 115.135564 
L 168.019431 111.660206 
L 168.46185 110.53224 
L 168.904268 114.434395 
L 169.346687 114.581743 
L 169.789106 113.545232 
L 170.231525 113.42329 
L 170.673944 114.612228 
L 172.0012 121.32414 
L 172.443619 121.984661 
L 172.886038 117.482955 
L 173.328456 118.356875 
L 173.770875 115.60301 
L 174.213294 118.397523 
L 174.655713 99.750501 
L 175.098131 95.304685 
L 175.54055 96.188768 
L 175.982969 91.854732 
L 176.425388 93.063994 
L 176.867807 90.467638 
L 177.310225 83.369576 
L 177.752644 79.690981 
L 178.195063 79.538553 
L 178.637482 76.352808 
L 179.522319 71.739322 
L 179.964738 74.34584 
L 180.407157 79.807842 
L 180.849576 73.736128 
L 181.291994 74.091793 
L 181.734413 70.753621 
L 182.176832 72.872369 
L 183.06167 67.461177 
L 183.504088 69.107399 
L 184.388926 60.845803 
L 185.273764 54.67247 
L 185.716182 57.284069 
L 186.158601 67.415448 
L 186.60102 66.71936 
L 187.043439 62.055065 
L 187.485857 60.220848 
L 187.928276 66.241753 
L 188.370695 66.907355 
L 188.813114 67.069945 
L 189.255533 63.802905 
L 189.697951 64.53964 
L 190.14037 62.807043 
L 190.582789 60.327548 
L 191.025208 59.580651 
L 191.467627 57.756596 
L 191.910045 53.895087 
L 192.352464 56.715005 
L 192.794883 54.103406 
L 193.237302 55.836004 
L 193.67972 52.934791 
L 194.122139 53.498775 
L 194.564558 56.694681 
L 195.006977 55.65309 
L 195.891814 61.663833 
L 196.334233 51.313974 
L 196.776652 46.227961 
L 197.219071 43.179401 
L 197.66149 35.852697 
L 198.103908 35.222661 
L 198.546327 33.769515 
L 198.988746 32.81938 
L 199.431165 36.884126 
L 199.873583 35.552922 
L 200.316002 35.115962 
L 200.758421 46.395631 
L 201.20084 50.6941 
L 201.643259 69.488469 
L 202.085677 55.241534 
L 202.528096 47.350847 
L 202.970515 52.447022 
L 203.412934 51.801743 
L 203.855353 52.198056 
L 204.297771 55.587038 
L 204.74019 52.619773 
L 205.182609 68.309692 
L 205.625028 71.226147 
L 206.067447 78.588418 
L 206.509865 76.784687 
L 206.952284 85.513729 
L 207.394703 84.924341 
L 207.837122 90.162782 
L 208.27954 88.211704 
L 208.721959 96.80356 
L 209.164378 98.012822 
L 209.606797 98.49043 
L 210.049216 86.255545 
L 210.491634 85.092012 
L 210.934053 86.189493 
L 211.376472 86.748395 
L 211.818891 80.356583 
L 212.26131 80.697005 
L 212.703728 74.101955 
L 213.146147 88.206623 
L 213.588566 87.09898 
L 214.030985 81.179694 
L 214.473403 80.300692 
L 214.915822 85.422272 
L 215.358241 87.276812 
L 216.243079 98.175412 
L 216.685497 100.969925 
L 217.127916 101.193486 
L 217.570335 94.029371 
L 218.455173 100.324647 
L 218.897591 99.806391 
L 219.34001 95.538408 
L 219.782429 99.740339 
L 220.224848 99.587911 
L 220.667266 98.739396 
L 221.109685 86.590887 
L 221.552104 84.614404 
L 221.994523 80.798624 
L 222.436942 71.764726 
L 222.87936 75.087656 
L 223.321779 74.29503 
L 223.764198 74.447458 
L 224.206617 67.008974 
L 225.091454 63.533616 
L 225.533873 66.084244 
L 225.976292 60.891531 
L 226.418711 64.305918 
L 226.861129 64.666664 
L 227.303548 68.116617 
L 227.745967 65.748902 
L 228.188386 67.059783 
L 228.630805 63.879119 
L 229.073223 61.5927 
L 229.515642 50.363839 
L 229.958061 48.636322 
L 230.40048 55.414286 
L 230.842899 56.018917 
L 231.285317 59.036991 
L 231.727736 60.098906 
L 232.170155 69.773001 
L 232.612574 71.856183 
L 233.054992 72.176282 
L 233.497411 71.881588 
L 233.93983 72.11023 
L 234.382249 71.866345 
L 234.824668 64.742878 
L 235.267086 67.69998 
L 236.151924 82.35847 
L 236.594343 81.306717 
L 237.036762 83.796374 
L 237.47918 82.170476 
L 237.921599 83.953883 
L 238.364018 84.446733 
L 238.806437 83.974206 
L 239.691274 78.740846 
L 240.133693 77.856764 
L 240.576112 78.690037 
L 241.018531 83.471194 
L 241.460949 83.532165 
L 241.903368 78.044759 
L 242.345787 79.660495 
L 242.788206 82.200961 
L 243.230625 74.300111 
L 243.673043 76.068276 
L 244.115462 72.618323 
L 245.0003 78.593499 
L 245.442718 76.063195 
L 245.885137 77.145433 
L 246.327556 73.786937 
L 246.769975 73.939365 
L 247.212394 75.240084 
L 247.654812 75.732934 
L 248.097231 68.13186 
L 248.53965 69.239503 
L 248.982069 66.744765 
L 249.424488 67.069945 
L 249.866906 68.035322 
L 250.309325 66.109649 
L 250.751744 60.164958 
L 251.194163 59.392656 
L 251.636582 57.426335 
L 252.079 58.310418 
L 252.521419 57.431416 
L 253.406257 59.966801 
L 253.848675 56.735329 
L 255.175932 67.435772 
L 255.618351 65.205243 
L 256.503188 69.722191 
L 256.945607 75.758339 
L 257.388026 74.23914 
L 257.830445 73.837747 
L 258.272863 74.62021 
L 259.157701 78.156539 
L 259.60012 75.250246 
L 260.042538 76.022547 
L 260.484957 81.657301 
L 260.927376 85.864313 
L 261.369795 81.718273 
L 261.812214 82.500736 
L 262.697051 78.86787 
L 263.13947 80.930728 
L 263.581889 82.322903 
L 264.024308 85.219035 
L 264.024308 85.219035 
" clip-path="url(#pc993c7e550)" style="fill: none; stroke: #1f2937; stroke-width: 1.3; stroke-linecap: square"/>
   </g>
   <g id="patch_3">
    <path d="M 32.218984 231.077866 
L 32.218984 23.3785 
" style="fill: none; stroke: #1f2937; stroke-width: 0.8; stroke-linejoin: miter; stroke-linecap: square"/>
   </g>
   <g id="patch_4">
    <path d="M 32.218984 231.077866 
L 275.062656 231.077866 
" style="fill: none; stroke: #1f2937; stroke-width: 0.8; stroke-linejoin: miter; stroke-linecap: square"/>
   </g>
   <g id="text_9">
    <text style="font-weight: 700; font-size: 9.5px; font-family: 'Noto Naskh Arabic', 'DejaVu Sans'; text-anchor: middle; fill: #1f2937" x="153.64082" y="17.3555" transform="rotate(-0 153.64082 17.3555)">​ﺭﻻﻭﺩ 350-100 :ﻡﺎﺨﻟﺍ</text>
   </g>
  </g>
  <g id="axes_2">
   <g id="patch_5">
    <path d="M 298.862656 231.077866 
L 541.706328 231.077866 
L 541.706328 23.3785 
L 298.862656 23.3785 
z
" style="fill: #ffffff"/>
   </g>
   <g id="matplotlib.axis_3"/>
   <g id="matplotlib.axis_4">
    <g id="ytick_9">
     <g id="line2d_18">
      <path d="M 298.862656 221.636986 
L 541.706328 221.636986 
" clip-path="url(#p5f25305b26)" style="fill: none; stroke: #e6e1d6; stroke-width: 0.8; stroke-linecap: square"/>
     </g>
     <g id="line2d_19">
      <g>
       <use xlink:href="#m194247c623" x="298.862656" y="221.636986" style="fill: #555555; stroke: #555555; stroke-width: 0.8"/>
      </g>
     </g>
     <g id="text_10">
      <text style="font-size: 10.5px; font-family: 'Noto Naskh Arabic', 'DejaVu Sans'; text-anchor: end; fill: #555555" x="291.862656" y="227.249236" transform="rotate(-0 291.862656 227.249236)">0.0</text>
     </g>
    </g>
    <g id="ytick_10">
     <g id="line2d_20">
      <path d="M 298.862656 183.873465 
L 541.706328 183.873465 
" clip-path="url(#p5f25305b26)" style="fill: none; stroke: #e6e1d6; stroke-width: 0.8; stroke-linecap: square"/>
     </g>
     <g id="line2d_21">
      <g>
       <use xlink:href="#m194247c623" x="298.862656" y="183.873465" style="fill: #555555; stroke: #555555; stroke-width: 0.8"/>
      </g>
     </g>
     <g id="text_11">
      <text style="font-size: 10.5px; font-family: 'Noto Naskh Arabic', 'DejaVu Sans'; text-anchor: end; fill: #555555" x="291.862656" y="189.485715" transform="rotate(-0 291.862656 189.485715)">0.2</text>
     </g>
    </g>
    <g id="ytick_11">
     <g id="line2d_22">
      <path d="M 298.862656 146.109944 
L 541.706328 146.109944 
" clip-path="url(#p5f25305b26)" style="fill: none; stroke: #e6e1d6; stroke-width: 0.8; stroke-linecap: square"/>
     </g>
     <g id="line2d_23">
      <g>
       <use xlink:href="#m194247c623" x="298.862656" y="146.109944" style="fill: #555555; stroke: #555555; stroke-width: 0.8"/>
      </g>
     </g>
     <g id="text_12">
      <text style="font-size: 10.5px; font-family: 'Noto Naskh Arabic', 'DejaVu Sans'; text-anchor: end; fill: #555555" x="291.862656" y="151.722194" transform="rotate(-0 291.862656 151.722194)">0.4</text>
     </g>
    </g>
    <g id="ytick_12">
     <g id="line2d_24">
      <path d="M 298.862656 108.346422 
L 541.706328 108.346422 
" clip-path="url(#p5f25305b26)" style="fill: none; stroke: #e6e1d6; stroke-width: 0.8; stroke-linecap: square"/>
     </g>
     <g id="line2d_25">
      <g>
       <use xlink:href="#m194247c623" x="298.862656" y="108.346422" style="fill: #555555; stroke: #555555; stroke-width: 0.8"/>
      </g>
     </g>
     <g id="text_13">
      <text style="font-size: 10.5px; font-family: 'Noto Naskh Arabic', 'DejaVu Sans'; text-anchor: end; fill: #555555" x="291.862656" y="113.958672" transform="rotate(-0 291.862656 113.958672)">0.6</text>
     </g>
    </g>
    <g id="ytick_13">
     <g id="line2d_26">
      <path d="M 298.862656 70.582901 
L 541.706328 70.582901 
" clip-path="url(#p5f25305b26)" style="fill: none; stroke: #e6e1d6; stroke-width: 0.8; stroke-linecap: square"/>
     </g>
     <g id="line2d_27">
      <g>
       <use xlink:href="#m194247c623" x="298.862656" y="70.582901" style="fill: #555555; stroke: #555555; stroke-width: 0.8"/>
      </g>
     </g>
     <g id="text_14">
      <text style="font-size: 10.5px; font-family: 'Noto Naskh Arabic', 'DejaVu Sans'; text-anchor: end; fill: #555555" x="291.862656" y="76.195151" transform="rotate(-0 291.862656 76.195151)">0.8</text>
     </g>
    </g>
    <g id="ytick_14">
     <g id="line2d_28">
      <path d="M 298.862656 32.81938 
L 541.706328 32.81938 
" clip-path="url(#p5f25305b26)" style="fill: none; stroke: #e6e1d6; stroke-width: 0.8; stroke-linecap: square"/>
     </g>
     <g id="line2d_29">
      <g>
       <use xlink:href="#m194247c623" x="298.862656" y="32.81938" style="fill: #555555; stroke: #555555; stroke-width: 0.8"/>
      </g>
     </g>
     <g id="text_15">
      <text style="font-size: 10.5px; font-family: 'Noto Naskh Arabic', 'DejaVu Sans'; text-anchor: end; fill: #555555" x="291.862656" y="38.43163" transform="rotate(-0 291.862656 38.43163)">1.0</text>
     </g>
    </g>
   </g>
   <g id="line2d_30">
    <path d="M 309.901005 221.469315 
L 310.343424 217.419812 
L 310.785843 216.86599 
L 311.228261 219.167653 
L 311.67068 218.593507 
L 312.113099 217.623049 
L 312.555518 218.517293 
L 312.997936 220.620799 
L 313.440355 220.437886 
L 313.882774 221.515043 
L 314.325193 220.874846 
L 314.767612 221.636986 
L 315.21003 220.839279 
L 315.652449 220.473452 
L 316.094868 220.468371 
L 316.537287 218.93393 
L 316.979706 217.831367 
L 317.422124 215.804075 
L 317.864543 215.544948 
L 318.306962 214.544004 
L 318.749381 212.755516 
L 319.191799 211.805382 
L 319.634218 212.577683 
L 320.076637 212.303313 
L 320.519056 211.063566 
L 320.961475 211.566578 
L 321.403893 212.364284 
L 321.846312 207.994683 
L 322.288731 205.850529 
L 322.73115 206.602507 
L 324.058406 202.146529 
L 324.500825 202.80197 
L 324.943244 201.902645 
L 325.385662 202.471709 
L 325.828081 203.726699 
L 326.2705 202.63938 
L 326.712919 200.861054 
L 327.155338 200.302151 
L 327.597756 199.230074 
L 328.040175 196.664204 
L 328.482594 197.284077 
L 328.925013 201.069372 
L 329.367432 196.552423 
L 329.80985 184.840874 
L 330.252269 177.234718 
L 330.694688 180.080041 
L 331.137107 177.961292 
L 331.579526 174.236968 
L 332.021944 175.588496 
L 332.464363 172.849874 
L 332.906782 173.439262 
L 333.349201 175.06516 
L 333.791619 178.60657 
L 334.234038 186.405801 
L 334.676457 184.779903 
L 335.118876 186.736062 
L 335.561295 187.16286 
L 336.003713 179.460167 
L 336.446132 179.978422 
L 336.888551 178.520194 
L 337.33097 184.784984 
L 337.773389 184.805308 
L 338.215807 187.32545 
L 338.658226 186.380397 
L 339.100645 188.565197 
L 339.543064 187.335612 
L 339.985482 183.657017 
L 340.427901 181.304545 
L 340.87032 180.46111 
L 341.312739 179.988584 
L 341.755158 181.014932 
L 342.197576 181.299464 
L 342.639995 180.791371 
L 343.524833 185.348967 
L 343.967252 186.085703 
L 344.40967 184.332781 
L 344.852089 185.237187 
L 345.294508 185.846899 
L 345.736927 181.66021 
L 346.179345 181.106389 
L 346.621764 182.788177 
L 347.064183 180.953961 
L 347.506602 178.44398 
L 347.949021 179.089259 
L 348.391439 177.793621 
L 348.833858 176.980672 
L 349.276277 174.943218 
L 349.718696 174.511339 
L 350.161115 174.440206 
L 350.603533 172.052168 
L 351.045952 174.496096 
L 351.488371 169.455811 
L 351.93079 173.627257 
L 352.373208 174.130269 
L 352.815627 176.650411 
L 353.258046 173.957517 
L 353.700465 173.342724 
L 354.142884 174.115026 
L 354.585302 173.180135 
L 355.027721 173.205539 
L 355.912559 168.85118 
L 356.354978 172.204596 
L 356.797396 173.921951 
L 357.239815 176.787596 
L 357.682234 180.628781 
L 358.124653 182.457917 
L 358.567071 176.299827 
L 359.00949 176.889215 
L 359.451909 175.740924 
L 359.894328 173.058192 
L 360.336747 174.948299 
L 360.779165 167.804508 
L 361.221584 165.314851 
L 361.664003 168.617457 
L 362.106422 172.849874 
L 362.548841 171.523751 
L 362.991259 175.110889 
L 363.433678 176.940024 
L 363.876097 177.234718 
L 364.318516 174.394477 
L 364.760934 173.256349 
L 365.203353 171.640612 
L 365.645772 171.89974 
L 366.088191 171.874335 
L 366.53061 175.217588 
L 366.973028 173.906708 
L 367.415447 176.47766 
L 367.857866 178.012101 
L 368.300285 176.934943 
L 368.742704 177.915563 
L 369.185122 178.362685 
L 369.627541 177.432875 
L 370.06996 177.996858 
L 370.512379 176.518307 
L 371.397216 180.308683 
L 371.839635 181.00477 
L 372.282054 182.112413 
L 372.724473 183.540155 
L 373.166891 181.700858 
L 373.60931 183.230219 
L 374.051729 181.355355 
L 374.936567 180.547486 
L 375.378985 181.705939 
L 376.263823 181.375678 
L 376.706242 180.273116 
L 377.148661 181.213088 
L 377.591079 180.765966 
L 378.033498 180.735481 
L 378.475917 180.974285 
L 378.918336 178.306795 
L 379.360754 176.640249 
L 379.803173 176.309989 
L 380.245592 174.003246 
L 380.688011 174.872085 
L 381.13043 174.272535 
L 381.572848 173.901627 
L 382.015267 174.424963 
L 382.457686 175.176941 
L 382.900105 178.454142 
L 383.342524 177.453199 
L 383.784942 175.202346 
L 384.66978 168.68859 
L 385.112199 162.79979 
L 385.554617 158.87731 
L 385.997036 161.305996 
L 386.439455 160.78266 
L 386.881874 160.950331 
L 387.324293 160.670879 
L 387.766711 159.507346 
L 388.20913 157.525782 
L 388.651549 156.352087 
L 389.093968 157.124389 
L 389.536387 156.595972 
L 389.978805 157.612158 
L 390.421224 156.707752 
L 390.863643 154.934507 
L 391.306062 156.240306 
L 391.74848 155.976098 
L 392.633318 153.999615 
L 393.075737 150.935813 
L 393.518156 150.925651 
L 393.960574 149.690985 
L 394.402993 142.658974 
L 394.845412 142.379523 
L 395.287831 139.935595 
L 395.73025 140.753625 
L 396.172668 137.298591 
L 397.057506 126.12054 
L 397.499925 126.171349 
L 397.942343 130.053181 
L 398.384762 124.626746 
L 398.827181 123.519102 
L 399.2696 130.408847 
L 399.712019 126.979217 
L 400.154437 128.915052 
L 400.596856 128.788029 
L 401.481694 132.82737 
L 402.366531 130.032858 
L 402.80895 126.781061 
L 403.693788 125.460019 
L 404.136206 125.2517 
L 405.021044 117.940239 
L 405.463463 119.007235 
L 405.905882 123.72234 
L 406.3483 122.995766 
L 406.790719 124.469237 
L 407.233138 122.203141 
L 407.675557 124.332052 
L 408.117976 122.289517 
L 408.560394 121.938932 
L 409.002813 123.402241 
L 409.445232 124.199947 
L 409.887651 120.602647 
L 410.330069 119.571218 
L 410.772488 119.41879 
L 411.214907 120.257144 
L 411.657326 114.993298 
L 412.542163 112.940601 
L 412.984582 118.803997 
L 413.427001 122.132008 
L 413.86942 122.010066 
L 414.311839 121.583267 
L 414.754257 123.326027 
L 415.196676 126.242482 
L 415.639095 124.286323 
L 416.081514 120.434977 
L 416.523933 121.395273 
L 416.966351 121.176793 
L 417.40877 123.910334 
L 417.851189 124.469237 
L 418.293608 124.306647 
L 418.736026 127.299316 
L 419.178445 128.127508 
L 419.620864 125.246619 
L 420.063283 128.152913 
L 420.505702 127.314559 
L 420.94812 127.59401 
L 421.390539 130.190366 
L 421.832958 130.185286 
L 422.275377 133.228764 
L 422.717796 130.398685 
L 423.160214 128.879486 
L 423.602633 128.869324 
L 424.045052 128.366312 
L 424.487471 125.891898 
L 425.372308 127.136726 
L 425.814727 127.009703 
L 426.257146 125.891898 
L 426.699565 126.572743 
L 427.141983 122.629939 
L 427.584402 122.365731 
L 428.026821 120.485786 
L 428.46924 115.074593 
L 428.911659 114.088892 
L 429.354077 118.499141 
L 429.796496 118.692217 
L 430.238915 119.921802 
L 431.123752 116.004404 
L 431.566171 113.977112 
L 432.00859 114.246401 
L 432.451009 112.219109 
L 432.893428 112.76785 
L 433.335846 112.940601 
L 433.778265 116.974862 
L 434.220684 115.135564 
L 434.663103 111.660206 
L 435.105522 110.53224 
L 435.54794 114.434395 
L 435.990359 114.581743 
L 436.432778 113.545232 
L 436.875197 113.42329 
L 437.317615 114.612228 
L 438.644872 121.32414 
L 439.087291 121.984661 
L 439.529709 117.482955 
L 439.972128 118.356875 
L 440.414547 115.60301 
L 440.856966 118.397523 
L 441.299385 99.750501 
L 441.741803 95.304685 
L 442.184222 96.188768 
L 442.626641 91.854732 
L 443.06906 93.063994 
L 443.511478 90.467638 
L 443.953897 83.369576 
L 444.396316 79.690981 
L 444.838735 79.538553 
L 445.281154 76.352808 
L 446.165991 71.739322 
L 446.60841 74.34584 
L 447.050829 79.807842 
L 447.493248 73.736128 
L 447.935666 74.091793 
L 448.378085 70.753621 
L 448.820504 72.872369 
L 449.705341 67.461177 
L 450.14776 69.107399 
L 451.032598 60.845803 
L 451.917435 54.67247 
L 452.359854 57.284069 
L 452.802273 67.415448 
L 453.244692 66.71936 
L 453.687111 62.055065 
L 454.129529 60.220848 
L 454.571948 66.241753 
L 455.014367 66.907355 
L 455.456786 67.069945 
L 455.899204 63.802905 
L 456.341623 64.53964 
L 456.784042 62.807043 
L 457.226461 60.327548 
L 457.66888 59.580651 
L 458.111298 57.756596 
L 458.553717 53.895087 
L 458.996136 56.715005 
L 459.438555 54.103406 
L 459.880974 55.836004 
L 460.323392 52.934791 
L 460.765811 53.498775 
L 461.20823 56.694681 
L 461.650649 55.65309 
L 462.535486 61.663833 
L 462.977905 51.313974 
L 463.420324 46.227961 
L 463.862743 43.179401 
L 464.305161 35.852697 
L 464.74758 35.222661 
L 465.189999 33.769515 
L 465.632418 32.81938 
L 466.074837 36.884126 
L 466.517255 35.552922 
L 466.959674 35.115962 
L 467.402093 46.395631 
L 467.844512 50.6941 
L 468.286931 69.488469 
L 468.729349 55.241534 
L 469.171768 47.350847 
L 469.614187 52.447022 
L 470.056606 51.801743 
L 470.499024 52.198056 
L 470.941443 55.587038 
L 471.383862 52.619773 
L 471.826281 68.309692 
L 472.2687 71.226147 
L 472.711118 78.588418 
L 473.153537 76.784687 
L 473.595956 85.513729 
L 474.038375 84.924341 
L 474.480794 90.162782 
L 474.923212 88.211704 
L 475.365631 96.80356 
L 475.80805 98.012822 
L 476.250469 98.49043 
L 476.692887 86.255545 
L 477.135306 85.092012 
L 477.577725 86.189493 
L 478.020144 86.748395 
L 478.462563 80.356583 
L 478.904981 80.697005 
L 479.3474 74.101955 
L 479.789819 88.206623 
L 480.232238 87.09898 
L 480.674657 81.179694 
L 481.117075 80.300692 
L 481.559494 85.422272 
L 482.001913 87.276812 
L 482.88675 98.175412 
L 483.329169 100.969925 
L 483.771588 101.193486 
L 484.214007 94.029371 
L 485.098844 100.324647 
L 485.541263 99.806391 
L 485.983682 95.538408 
L 486.426101 99.740339 
L 486.86852 99.587911 
L 487.310938 98.739396 
L 487.753357 86.590887 
L 488.195776 84.614404 
L 488.638195 80.798624 
L 489.080613 71.764726 
L 489.523032 75.087656 
L 489.965451 74.29503 
L 490.40787 74.447458 
L 490.850289 67.008974 
L 491.735126 63.533616 
L 492.177545 66.084244 
L 492.619964 60.891531 
L 493.062383 64.305918 
L 493.504801 64.666664 
L 493.94722 68.116617 
L 494.389639 65.748902 
L 494.832058 67.059783 
L 495.274476 63.879119 
L 495.716895 61.5927 
L 496.159314 50.363839 
L 496.601733 48.636322 
L 497.044152 55.414286 
L 497.48657 56.018917 
L 497.928989 59.036991 
L 498.371408 60.098906 
L 498.813827 69.773001 
L 499.256246 71.856183 
L 499.698664 72.176282 
L 500.141083 71.881588 
L 500.583502 72.11023 
L 501.025921 71.866345 
L 501.468339 64.742878 
L 501.910758 67.69998 
L 502.795596 82.35847 
L 503.238015 81.306717 
L 503.680433 83.796374 
L 504.122852 82.170476 
L 504.565271 83.953883 
L 505.00769 84.446733 
L 505.450109 83.974206 
L 506.334946 78.740846 
L 506.777365 77.856764 
L 507.219784 78.690037 
L 507.662203 83.471194 
L 508.104621 83.532165 
L 508.54704 78.044759 
L 508.989459 79.660495 
L 509.431878 82.200961 
L 509.874296 74.300111 
L 510.316715 76.068276 
L 510.759134 72.618323 
L 511.643972 78.593499 
L 512.08639 76.063195 
L 512.528809 77.145433 
L 512.971228 73.786937 
L 513.413647 73.939365 
L 513.856066 75.240084 
L 514.298484 75.732934 
L 514.740903 68.13186 
L 515.183322 69.239503 
L 515.625741 66.744765 
L 516.068159 67.069945 
L 516.510578 68.035322 
L 516.952997 66.109649 
L 517.395416 60.164958 
L 517.837835 59.392656 
L 518.280253 57.426335 
L 518.722672 58.310418 
L 519.165091 57.431416 
L 520.049929 59.966801 
L 520.492347 56.735329 
L 521.819604 67.435772 
L 522.262022 65.205243 
L 523.14686 69.722191 
L 523.589279 75.758339 
L 524.031698 74.23914 
L 524.474116 73.837747 
L 524.916535 74.62021 
L 525.801373 78.156539 
L 526.243792 75.250246 
L 526.68621 76.022547 
L 527.128629 81.657301 
L 527.571048 85.864313 
L 528.013467 81.718273 
L 528.455885 82.500736 
L 529.340723 78.86787 
L 529.783142 80.930728 
L 530.225561 82.322903 
L 530.667979 85.219035 
L 530.667979 85.219035 
" clip-path="url(#p5f25305b26)" style="fill: none; stroke: #b7791f; stroke-width: 1.3; stroke-linecap: square"/>
   </g>
   <g id="patch_6">
    <path d="M 298.862656 231.077866 
L 298.862656 23.3785 
" style="fill: none; stroke: #1f2937; stroke-width: 0.8; stroke-linejoin: miter; stroke-linecap: square"/>
   </g>
   <g id="patch_7">
    <path d="M 298.862656 231.077866 
L 541.706328 231.077866 
" style="fill: none; stroke: #1f2937; stroke-width: 0.8; stroke-linejoin: miter; stroke-linecap: square"/>
   </g>
   <g id="text_16">
    <text style="font-weight: 700; font-size: 9.5px; font-family: 'Noto Naskh Arabic', 'DejaVu Sans'; text-anchor: middle; fill: #b7791f" x="420.284492" y="17.3555" transform="rotate(-0 420.284492 17.3555)">​Min-Max: 0 1 ﻰﻟﺇ</text>
   </g>
  </g>
  <g id="axes_3">
   <g id="patch_8">
    <path d="M 565.506328 231.077866 
L 808.35 231.077866 
L 808.35 23.3785 
L 565.506328 23.3785 
z
" style="fill: #ffffff"/>
   </g>
   <g id="matplotlib.axis_5"/>
   <g id="matplotlib.axis_6">
    <g id="ytick_15">
     <g id="line2d_31">
      <path d="M 565.506328 228.799738 
L 808.35 228.799738 
" clip-path="url(#pbe5bbceed4)" style="fill: none; stroke: #e6e1d6; stroke-width: 0.8; stroke-linecap: square"/>
     </g>
     <g id="line2d_32">
      <g>
       <use xlink:href="#m194247c623" x="565.506328" y="228.799738" style="fill: #555555; stroke: #555555; stroke-width: 0.8"/>
      </g>
     </g>
     <g id="text_17">
      <text style="font-size: 10.5px; font-family: 'Noto Naskh Arabic', 'DejaVu Sans'; text-anchor: end; fill: #555555" x="558.506328" y="234.411988" transform="rotate(-0 558.506328 234.411988)">-2.0</text>
     </g>
    </g>
    <g id="ytick_16">
     <g id="line2d_33">
      <path d="M 565.506328 202.909316 
L 808.35 202.909316 
" clip-path="url(#pbe5bbceed4)" style="fill: none; stroke: #e6e1d6; stroke-width: 0.8; stroke-linecap: square"/>
     </g>
     <g id="line2d_34">
      <g>
       <use xlink:href="#m194247c623" x="565.506328" y="202.909316" style="fill: #555555; stroke: #555555; stroke-width: 0.8"/>
      </g>
     </g>
     <g id="text_18">
      <text style="font-size: 10.5px; font-family: 'Noto Naskh Arabic', 'DejaVu Sans'; text-anchor: end; fill: #555555" x="558.506328" y="208.521566" transform="rotate(-0 558.506328 208.521566)">-1.5</text>
     </g>
    </g>
    <g id="ytick_17">
     <g id="line2d_35">
      <path d="M 565.506328 177.018895 
L 808.35 177.018895 
" clip-path="url(#pbe5bbceed4)" style="fill: none; stroke: #e6e1d6; stroke-width: 0.8; stroke-linecap: square"/>
     </g>
     <g id="line2d_36">
      <g>
       <use xlink:href="#m194247c623" x="565.506328" y="177.018895" style="fill: #555555; stroke: #555555; stroke-width: 0.8"/>
      </g>
     </g>
     <g id="text_19">
      <text style="font-size: 10.5px; font-family: 'Noto Naskh Arabic', 'DejaVu Sans'; text-anchor: end; fill: #555555" x="558.506328" y="182.631145" transform="rotate(-0 558.506328 182.631145)">-1.0</text>
     </g>
    </g>
    <g id="ytick_18">
     <g id="line2d_37">
      <path d="M 565.506328 151.128474 
L 808.35 151.128474 
" clip-path="url(#pbe5bbceed4)" style="fill: none; stroke: #e6e1d6; stroke-width: 0.8; stroke-linecap: square"/>
     </g>
     <g id="line2d_38">
      <g>
       <use xlink:href="#m194247c623" x="565.506328" y="151.128474" style="fill: #555555; stroke: #555555; stroke-width: 0.8"/>
      </g>
     </g>
     <g id="text_20">
      <text style="font-size: 10.5px; font-family: 'Noto Naskh Arabic', 'DejaVu Sans'; text-anchor: end; fill: #555555" x="558.506328" y="156.740724" transform="rotate(-0 558.506328 156.740724)">-0.5</text>
     </g>
    </g>
    <g id="ytick_19">
     <g id="line2d_39">
      <path d="M 565.506328 125.238053 
L 808.35 125.238053 
" clip-path="url(#pbe5bbceed4)" style="fill: none; stroke: #e6e1d6; stroke-width: 0.8; stroke-linecap: square"/>
     </g>
     <g id="line2d_40">
      <g>
       <use xlink:href="#m194247c623" x="565.506328" y="125.238053" style="fill: #555555; stroke: #555555; stroke-width: 0.8"/>
      </g>
     </g>
     <g id="text_21">
      <text style="font-size: 10.5px; font-family: 'Noto Naskh Arabic', 'DejaVu Sans'; text-anchor: end; fill: #555555" x="558.506328" y="130.850303" transform="rotate(-0 558.506328 130.850303)">0.0</text>
     </g>
    </g>
    <g id="ytick_20">
     <g id="line2d_41">
      <path d="M 565.506328 99.347632 
L 808.35 99.347632 
" clip-path="url(#pbe5bbceed4)" style="fill: none; stroke: #e6e1d6; stroke-width: 0.8; stroke-linecap: square"/>
     </g>
     <g id="line2d_42">
      <g>
       <use xlink:href="#m194247c623" x="565.506328" y="99.347632" style="fill: #555555; stroke: #555555; stroke-width: 0.8"/>
      </g>
     </g>
     <g id="text_22">
      <text style="font-size: 10.5px; font-family: 'Noto Naskh Arabic', 'DejaVu Sans'; text-anchor: end; fill: #555555" x="558.506328" y="104.959882" transform="rotate(-0 558.506328 104.959882)">0.5</text>
     </g>
    </g>
    <g id="ytick_21">
     <g id="line2d_43">
      <path d="M 565.506328 73.457211 
L 808.35 73.457211 
" clip-path="url(#pbe5bbceed4)" style="fill: none; stroke: #e6e1d6; stroke-width: 0.8; stroke-linecap: square"/>
     </g>
     <g id="line2d_44">
      <g>
       <use xlink:href="#m194247c623" x="565.506328" y="73.457211" style="fill: #555555; stroke: #555555; stroke-width: 0.8"/>
      </g>
     </g>
     <g id="text_23">
      <text style="font-size: 10.5px; font-family: 'Noto Naskh Arabic', 'DejaVu Sans'; text-anchor: end; fill: #555555" x="558.506328" y="79.069461" transform="rotate(-0 558.506328 79.069461)">1.0</text>
     </g>
    </g>
    <g id="ytick_22">
     <g id="line2d_45">
      <path d="M 565.506328 47.566789 
L 808.35 47.566789 
" clip-path="url(#pbe5bbceed4)" style="fill: none; stroke: #e6e1d6; stroke-width: 0.8; stroke-linecap: square"/>
     </g>
     <g id="line2d_46">
      <g>
       <use xlink:href="#m194247c623" x="565.506328" y="47.566789" style="fill: #555555; stroke: #555555; stroke-width: 0.8"/>
      </g>
     </g>
     <g id="text_24">
      <text style="font-size: 10.5px; font-family: 'Noto Naskh Arabic', 'DejaVu Sans'; text-anchor: end; fill: #555555" x="558.506328" y="53.179039" transform="rotate(-0 558.506328 53.179039)">1.5</text>
     </g>
    </g>
   </g>
   <g id="line2d_47">
    <path d="M 576.544677 221.469315 
L 576.987096 217.419812 
L 577.429514 216.86599 
L 577.871933 219.167653 
L 578.314352 218.593507 
L 578.756771 217.623049 
L 579.19919 218.517293 
L 579.641608 220.620799 
L 580.084027 220.437886 
L 580.526446 221.515043 
L 580.968865 220.874846 
L 581.411283 221.636986 
L 581.853702 220.839279 
L 582.296121 220.473452 
L 582.73854 220.468371 
L 583.180959 218.93393 
L 583.623377 217.831367 
L 584.065796 215.804075 
L 584.508215 215.544948 
L 584.950634 214.544004 
L 585.393053 212.755516 
L 585.835471 211.805382 
L 586.27789 212.577683 
L 586.720309 212.303313 
L 587.162728 211.063566 
L 587.605147 211.566578 
L 588.047565 212.364284 
L 588.489984 207.994683 
L 588.932403 205.850529 
L 589.374822 206.602507 
L 590.702078 202.146529 
L 591.144497 202.80197 
L 591.586916 201.902645 
L 592.029334 202.471709 
L 592.471753 203.726699 
L 592.914172 202.63938 
L 593.356591 200.861054 
L 593.79901 200.302151 
L 594.241428 199.230074 
L 594.683847 196.664204 
L 595.126266 197.284077 
L 595.568685 201.069372 
L 596.011103 196.552423 
L 596.453522 184.840874 
L 596.895941 177.234718 
L 597.33836 180.080041 
L 597.780779 177.961292 
L 598.223197 174.236968 
L 598.665616 175.588496 
L 599.108035 172.849874 
L 599.550454 173.439262 
L 599.992873 175.06516 
L 600.435291 178.60657 
L 600.87771 186.405801 
L 601.320129 184.779903 
L 601.762548 186.736062 
L 602.204966 187.16286 
L 602.647385 179.460167 
L 603.089804 179.978422 
L 603.532223 178.520194 
L 603.974642 184.784984 
L 604.41706 184.805308 
L 604.859479 187.32545 
L 605.301898 186.380397 
L 605.744317 188.565197 
L 606.186736 187.335612 
L 606.629154 183.657017 
L 607.071573 181.304545 
L 607.513992 180.46111 
L 607.956411 179.988584 
L 608.398829 181.014932 
L 608.841248 181.299464 
L 609.283667 180.791371 
L 610.168505 185.348967 
L 610.610923 186.085703 
L 611.053342 184.332781 
L 611.495761 185.237187 
L 611.93818 185.846899 
L 612.380599 181.66021 
L 612.823017 181.106389 
L 613.265436 182.788177 
L 613.707855 180.953961 
L 614.150274 178.44398 
L 614.592692 179.089259 
L 615.035111 177.793621 
L 615.47753 176.980672 
L 615.919949 174.943218 
L 616.362368 174.511339 
L 616.804786 174.440206 
L 617.247205 172.052168 
L 617.689624 174.496096 
L 618.132043 169.455811 
L 618.574462 173.627257 
L 619.01688 174.130269 
L 619.459299 176.650411 
L 619.901718 173.957517 
L 620.344137 173.342724 
L 620.786555 174.115026 
L 621.228974 173.180135 
L 621.671393 173.205539 
L 622.556231 168.85118 
L 622.998649 172.204596 
L 623.441068 173.921951 
L 623.883487 176.787596 
L 624.325906 180.628781 
L 624.768325 182.457917 
L 625.210743 176.299827 
L 625.653162 176.889215 
L 626.095581 175.740924 
L 626.538 173.058192 
L 626.980419 174.948299 
L 627.422837 167.804508 
L 627.865256 165.314851 
L 628.307675 168.617457 
L 628.750094 172.849874 
L 629.192512 171.523751 
L 629.634931 175.110889 
L 630.07735 176.940024 
L 630.519769 177.234718 
L 630.962188 174.394477 
L 631.404606 173.256349 
L 631.847025 171.640612 
L 632.289444 171.89974 
L 632.731863 171.874335 
L 633.174282 175.217588 
L 633.6167 173.906708 
L 634.059119 176.47766 
L 634.501538 178.012101 
L 634.943957 176.934943 
L 635.386375 177.915563 
L 635.828794 178.362685 
L 636.271213 177.432875 
L 636.713632 177.996858 
L 637.156051 176.518307 
L 638.040888 180.308683 
L 638.483307 181.00477 
L 638.925726 182.112413 
L 639.368145 183.540155 
L 639.810563 181.700858 
L 640.252982 183.230219 
L 640.695401 181.355355 
L 641.580238 180.547486 
L 642.022657 181.705939 
L 642.907495 181.375678 
L 643.349914 180.273116 
L 643.792332 181.213088 
L 644.234751 180.765966 
L 644.67717 180.735481 
L 645.119589 180.974285 
L 645.562008 178.306795 
L 646.004426 176.640249 
L 646.446845 176.309989 
L 646.889264 174.003246 
L 647.331683 174.872085 
L 647.774101 174.272535 
L 648.21652 173.901627 
L 648.658939 174.424963 
L 649.101358 175.176941 
L 649.543777 178.454142 
L 649.986195 177.453199 
L 650.428614 175.202346 
L 651.313452 168.68859 
L 651.755871 162.79979 
L 652.198289 158.87731 
L 652.640708 161.305996 
L 653.083127 160.78266 
L 653.525546 160.950331 
L 653.967964 160.670879 
L 654.410383 159.507346 
L 654.852802 157.525782 
L 655.295221 156.352087 
L 655.73764 157.124389 
L 656.180058 156.595972 
L 656.622477 157.612158 
L 657.064896 156.707752 
L 657.507315 154.934507 
L 657.949734 156.240306 
L 658.392152 155.976098 
L 659.27699 153.999615 
L 659.719409 150.935813 
L 660.161827 150.925651 
L 660.604246 149.690985 
L 661.046665 142.658974 
L 661.489084 142.379523 
L 661.931503 139.935595 
L 662.373921 140.753625 
L 662.81634 137.298591 
L 663.701178 126.12054 
L 664.143597 126.171349 
L 664.586015 130.053181 
L 665.028434 124.626746 
L 665.470853 123.519102 
L 665.913272 130.408847 
L 666.35569 126.979217 
L 666.798109 128.915052 
L 667.240528 128.788029 
L 668.125366 132.82737 
L 669.010203 130.032858 
L 669.452622 126.781061 
L 670.33746 125.460019 
L 670.779878 125.2517 
L 671.664716 117.940239 
L 672.107135 119.007235 
L 672.549554 123.72234 
L 672.991972 122.995766 
L 673.434391 124.469237 
L 673.87681 122.203141 
L 674.319229 124.332052 
L 674.761647 122.289517 
L 675.204066 121.938932 
L 675.646485 123.402241 
L 676.088904 124.199947 
L 676.531323 120.602647 
L 676.973741 119.571218 
L 677.41616 119.41879 
L 677.858579 120.257144 
L 678.300998 114.993298 
L 679.185835 112.940601 
L 679.628254 118.803997 
L 680.070673 122.132008 
L 680.513092 122.010066 
L 680.95551 121.583267 
L 681.397929 123.326027 
L 681.840348 126.242482 
L 682.282767 124.286323 
L 682.725186 120.434977 
L 683.167604 121.395273 
L 683.610023 121.176793 
L 684.052442 123.910334 
L 684.494861 124.469237 
L 684.93728 124.306647 
L 685.379698 127.299316 
L 685.822117 128.127508 
L 686.264536 125.246619 
L 686.706955 128.152913 
L 687.149373 127.314559 
L 687.591792 127.59401 
L 688.034211 130.190366 
L 688.47663 130.185286 
L 688.919049 133.228764 
L 689.361467 130.398685 
L 689.803886 128.879486 
L 690.246305 128.869324 
L 690.688724 128.366312 
L 691.131143 125.891898 
L 692.01598 127.136726 
L 692.458399 127.009703 
L 692.900818 125.891898 
L 693.343236 126.572743 
L 693.785655 122.629939 
L 694.228074 122.365731 
L 694.670493 120.485786 
L 695.112912 115.074593 
L 695.55533 114.088892 
L 695.997749 118.499141 
L 696.440168 118.692217 
L 696.882587 119.921802 
L 697.767424 116.004404 
L 698.209843 113.977112 
L 698.652262 114.246401 
L 699.094681 112.219109 
L 699.537099 112.76785 
L 699.979518 112.940601 
L 700.421937 116.974862 
L 700.864356 115.135564 
L 701.306775 111.660206 
L 701.749193 110.53224 
L 702.191612 114.434395 
L 702.634031 114.581743 
L 703.07645 113.545232 
L 703.518869 113.42329 
L 703.961287 114.612228 
L 705.288544 121.32414 
L 705.730962 121.984661 
L 706.173381 117.482955 
L 706.6158 118.356875 
L 707.058219 115.60301 
L 707.500638 118.397523 
L 707.943056 99.750501 
L 708.385475 95.304685 
L 708.827894 96.188768 
L 709.270313 91.854732 
L 709.712732 93.063994 
L 710.15515 90.467638 
L 710.597569 83.369576 
L 711.039988 79.690981 
L 711.482407 79.538553 
L 711.924825 76.352808 
L 712.809663 71.739322 
L 713.252082 74.34584 
L 713.694501 79.807842 
L 714.136919 73.736128 
L 714.579338 74.091793 
L 715.021757 70.753621 
L 715.464176 72.872369 
L 716.349013 67.461177 
L 716.791432 69.107399 
L 717.67627 60.845803 
L 718.561107 54.67247 
L 719.003526 57.284069 
L 719.445945 67.415448 
L 719.888364 66.71936 
L 720.330782 62.055065 
L 720.773201 60.220848 
L 721.21562 66.241753 
L 721.658039 66.907355 
L 722.100458 67.069945 
L 722.542876 63.802905 
L 722.985295 64.53964 
L 723.427714 62.807043 
L 723.870133 60.327548 
L 724.312552 59.580651 
L 724.75497 57.756596 
L 725.197389 53.895087 
L 725.639808 56.715005 
L 726.082227 54.103406 
L 726.524645 55.836004 
L 726.967064 52.934791 
L 727.409483 53.498775 
L 727.851902 56.694681 
L 728.294321 55.65309 
L 729.179158 61.663833 
L 729.621577 51.313974 
L 730.063996 46.227961 
L 730.506415 43.179401 
L 730.948833 35.852697 
L 731.391252 35.222661 
L 731.833671 33.769515 
L 732.27609 32.81938 
L 732.718508 36.884126 
L 733.160927 35.552922 
L 733.603346 35.115962 
L 734.045765 46.395631 
L 734.488184 50.6941 
L 734.930602 69.488469 
L 735.373021 55.241534 
L 735.81544 47.350847 
L 736.257859 52.447022 
L 736.700278 51.801743 
L 737.142696 52.198056 
L 737.585115 55.587038 
L 738.027534 52.619773 
L 738.469953 68.309692 
L 738.912371 71.226147 
L 739.35479 78.588418 
L 739.797209 76.784687 
L 740.239628 85.513729 
L 740.682047 84.924341 
L 741.124465 90.162782 
L 741.566884 88.211704 
L 742.009303 96.80356 
L 742.451722 98.012822 
L 742.894141 98.49043 
L 743.336559 86.255545 
L 743.778978 85.092012 
L 744.221397 86.189493 
L 744.663816 86.748395 
L 745.106234 80.356583 
L 745.548653 80.697005 
L 745.991072 74.101955 
L 746.433491 88.206623 
L 746.87591 87.09898 
L 747.318328 81.179694 
L 747.760747 80.300692 
L 748.203166 85.422272 
L 748.645585 87.276812 
L 749.530422 98.175412 
L 749.972841 100.969925 
L 750.41526 101.193486 
L 750.857679 94.029371 
L 751.742516 100.324647 
L 752.184935 99.806391 
L 752.627354 95.538408 
L 753.069773 99.740339 
L 753.512191 99.587911 
L 753.95461 98.739396 
L 754.397029 86.590887 
L 754.839448 84.614404 
L 755.281867 80.798624 
L 755.724285 71.764726 
L 756.166704 75.087656 
L 756.609123 74.29503 
L 757.051542 74.447458 
L 757.49396 67.008974 
L 758.378798 63.533616 
L 758.821217 66.084244 
L 759.263636 60.891531 
L 759.706054 64.305918 
L 760.148473 64.666664 
L 760.590892 68.116617 
L 761.033311 65.748902 
L 761.47573 67.059783 
L 761.918148 63.879119 
L 762.360567 61.5927 
L 762.802986 50.363839 
L 763.245405 48.636322 
L 763.687824 55.414286 
L 764.130242 56.018917 
L 764.572661 59.036991 
L 765.01508 60.098906 
L 765.457499 69.773001 
L 765.899917 71.856183 
L 766.342336 72.176282 
L 766.784755 71.881588 
L 767.227174 72.11023 
L 767.669593 71.866345 
L 768.112011 64.742878 
L 768.55443 67.69998 
L 769.439268 82.35847 
L 769.881687 81.306717 
L 770.324105 83.796374 
L 770.766524 82.170476 
L 771.208943 83.953883 
L 771.651362 84.446733 
L 772.09378 83.974206 
L 772.978618 78.740846 
L 773.421037 77.856764 
L 773.863456 78.690037 
L 774.305874 83.471194 
L 774.748293 83.532165 
L 775.190712 78.044759 
L 775.633131 79.660495 
L 776.07555 82.200961 
L 776.517968 74.300111 
L 776.960387 76.068276 
L 777.402806 72.618323 
L 778.287643 78.593499 
L 778.730062 76.063195 
L 779.172481 77.145433 
L 779.6149 73.786937 
L 780.057319 73.939365 
L 780.499737 75.240084 
L 780.942156 75.732934 
L 781.384575 68.13186 
L 781.826994 69.239503 
L 782.269413 66.744765 
L 782.711831 67.069945 
L 783.15425 68.035322 
L 783.596669 66.109649 
L 784.039088 60.164958 
L 784.481506 59.392656 
L 784.923925 57.426335 
L 785.366344 58.310418 
L 785.808763 57.431416 
L 786.6936 59.966801 
L 787.136019 56.735329 
L 788.463276 67.435772 
L 788.905694 65.205243 
L 789.790532 69.722191 
L 790.232951 75.758339 
L 790.675369 74.23914 
L 791.117788 73.837747 
L 791.560207 74.62021 
L 792.445045 78.156539 
L 792.887463 75.250246 
L 793.329882 76.022547 
L 793.772301 81.657301 
L 794.21472 85.864313 
L 794.657139 81.718273 
L 795.099557 82.500736 
L 795.984395 78.86787 
L 796.426814 80.930728 
L 796.869232 82.322903 
L 797.311651 85.219035 
L 797.311651 85.219035 
" clip-path="url(#pbe5bbceed4)" style="fill: none; stroke: #1f8a56; stroke-width: 1.3; stroke-linecap: square"/>
   </g>
   <g id="patch_9">
    <path d="M 565.506328 231.077866 
L 565.506328 23.3785 
" style="fill: none; stroke: #1f2937; stroke-width: 0.8; stroke-linejoin: miter; stroke-linecap: square"/>
   </g>
   <g id="patch_10">
    <path d="M 565.506328 231.077866 
L 808.35 231.077866 
" style="fill: none; stroke: #1f2937; stroke-width: 0.8; stroke-linejoin: miter; stroke-linecap: square"/>
   </g>
   <g id="text_25">
    <text style="font-weight: 700; font-size: 9.5px; font-family: 'Noto Naskh Arabic', 'DejaVu Sans'; text-anchor: middle; fill: #1f8a56" x="686.928164" y="17.3555" transform="rotate(-0 686.928164 17.3555)">​Z-Score: 1 ﻑﺍﺮﺤﻧﺍ ،0 ﻂﺳﻮﺘﻣ</text>
   </g>
  </g>
  <g id="text_26">
   <text style="font-weight: 700; font-size: 10px; font-family: 'Noto Naskh Arabic', 'DejaVu Sans'; text-anchor: middle; fill: #1f2937" x="407.775" y="249.626" transform="rotate(-0 407.775 249.626)">​ﻒﻠﺘﺨﻣ ﻯﺪﻤﻟﺍﻭ ﺪﺣﺍﻭ ﻞﻜﺸﻟﺍ — ﺲﻴﻳﺎﻘﻣ ﺔﺛﻼﺜﺑ ﺔﻴﻘﻴﻘﺤﻟﺍ GOOG ﺕﺎﻧﺎﻴﺑ ﺲﻔﻧ</text>
  </g>
 </g>
 <defs>
  <clipPath id="pc993c7e550">
   <rect x="32.218984" y="23.3785" width="242.843672" height="207.699366"/>
  </clipPath>
  <clipPath id="p5f25305b26">
   <rect x="298.862656" y="23.3785" width="242.843672" height="207.699366"/>
  </clipPath>
  <clipPath id="pbe5bbceed4">
   <rect x="565.506328" y="23.3785" width="242.843672" height="207.699366"/>
  </clipPath>
 </defs>
</svg>
