<?xml version="1.0" encoding="utf-8" standalone="no"?>
<!DOCTYPE svg PUBLIC "-//W3C//DTD SVG 1.1//EN"
  "http://www.w3.org/Graphics/SVG/1.1/DTD/svg11.dtd">
<svg xmlns:xlink="http://www.w3.org/1999/xlink" width="671.55pt" height="356.54512pt" viewBox="0 0 671.55 356.54512" xmlns="http://www.w3.org/2000/svg" version="1.1">
 <metadata>
  <rdf:RDF xmlns:dc="http://purl.org/dc/elements/1.1/" xmlns:cc="http://creativecommons.org/ns#" xmlns:rdf="http://www.w3.org/1999/02/22-rdf-syntax-ns#">
   <cc:Work>
    <dc:type rdf:resource="http://purl.org/dc/dcmitype/StillImage"/>
    <dc:date>2026-07-19T20:07:39.930619</dc:date>
    <dc:format>image/svg+xml</dc:format>
    <dc:creator>
     <cc:Agent>
      <dc:title>Matplotlib v3.11.1, https://matplotlib.org/</dc:title>
     </cc:Agent>
    </dc:creator>
   </cc:Work>
  </rdf:RDF>
 </metadata>
 <defs>
  <style type="text/css">*{stroke-linejoin: round; stroke-linecap: butt}</style>
 </defs>
 <g id="figure_1">
  <g id="patch_1">
   <path d="M 0 356.54512 
L 671.55 356.54512 
L 671.55 -0 
L 0 -0 
z
" style="fill: #ffffff"/>
  </g>
  <g id="axes_1">
   <g id="patch_2">
    <path d="M 54.100484 324.31512 
L 664.35 324.31512 
L 664.35 22.30072 
L 54.100484 22.30072 
z
" style="fill: #ffffff"/>
   </g>
   <g id="matplotlib.axis_1">
    <g id="text_1">
     <text style="font-size: 10px; font-family: 'Noto Naskh Arabic', 'DejaVu Sans'; text-anchor: middle; fill: #1f2937" x="359.225242" y="343.00512" transform="rotate(-0 359.225242 343.00512)">​(2007 ﺔﻴﻘﻴﻘﺣ ﺕﺎﻧﺎﻴﺑ) ﻝﻭﺍﺪﺘﻟﺍ ﻡﺎﻳﺃ</text>
    </g>
   </g>
   <g id="matplotlib.axis_2">
    <g id="ytick_1">
     <g id="line2d_1">
      <path d="M 54.100484 307.950378 
L 664.35 307.950378 
" clip-path="url(#pddae8d32e9)" style="fill: none; stroke: #e6e1d6; stroke-width: 0.8; stroke-linecap: square"/>
     </g>
     <g id="line2d_2">
      <defs>
       <path id="m2e89a22db3" d="M 0 0 
L -3.5 0 
" style="stroke: #555555; stroke-width: 0.8"/>
      </defs>
      <g>
       <use xlink:href="#m2e89a22db3" x="54.100484" y="307.950378" style="fill: #555555; stroke: #555555; stroke-width: 0.8"/>
      </g>
     </g>
     <g id="text_2">
      <text style="font-size: 10.5px; font-family: 'Noto Naskh Arabic', 'DejaVu Sans'; text-anchor: end; fill: #555555" x="47.100484" y="313.562628" transform="rotate(-0 47.100484 313.562628)">460</text>
     </g>
    </g>
    <g id="ytick_2">
     <g id="line2d_3">
      <path d="M 54.100484 269.354289 
L 664.35 269.354289 
" clip-path="url(#pddae8d32e9)" style="fill: none; stroke: #e6e1d6; stroke-width: 0.8; stroke-linecap: square"/>
     </g>
     <g id="line2d_4">
      <g>
       <use xlink:href="#m2e89a22db3" x="54.100484" y="269.354289" style="fill: #555555; stroke: #555555; stroke-width: 0.8"/>
      </g>
     </g>
     <g id="text_3">
      <text style="font-size: 10.5px; font-family: 'Noto Naskh Arabic', 'DejaVu Sans'; text-anchor: end; fill: #555555" x="47.100484" y="274.966539" transform="rotate(-0 47.100484 274.966539)">480</text>
     </g>
    </g>
    <g id="ytick_3">
     <g id="line2d_5">
      <path d="M 54.100484 230.758199 
L 664.35 230.758199 
" clip-path="url(#pddae8d32e9)" style="fill: none; stroke: #e6e1d6; stroke-width: 0.8; stroke-linecap: square"/>
     </g>
     <g id="line2d_6">
      <g>
       <use xlink:href="#m2e89a22db3" x="54.100484" y="230.758199" style="fill: #555555; stroke: #555555; stroke-width: 0.8"/>
      </g>
     </g>
     <g id="text_4">
      <text style="font-size: 10.5px; font-family: 'Noto Naskh Arabic', 'DejaVu Sans'; text-anchor: end; fill: #555555" x="47.100484" y="236.370449" transform="rotate(-0 47.100484 236.370449)">500</text>
     </g>
    </g>
    <g id="ytick_4">
     <g id="line2d_7">
      <path d="M 54.100484 192.16211 
L 664.35 192.16211 
" clip-path="url(#pddae8d32e9)" style="fill: none; stroke: #e6e1d6; stroke-width: 0.8; stroke-linecap: square"/>
     </g>
     <g id="line2d_8">
      <g>
       <use xlink:href="#m2e89a22db3" x="54.100484" y="192.16211" style="fill: #555555; stroke: #555555; stroke-width: 0.8"/>
      </g>
     </g>
     <g id="text_5">
      <text style="font-size: 10.5px; font-family: 'Noto Naskh Arabic', 'DejaVu Sans'; text-anchor: end; fill: #555555" x="47.100484" y="197.77436" transform="rotate(-0 47.100484 197.77436)">520</text>
     </g>
    </g>
    <g id="ytick_5">
     <g id="line2d_9">
      <path d="M 54.100484 153.56602 
L 664.35 153.56602 
" clip-path="url(#pddae8d32e9)" style="fill: none; stroke: #e6e1d6; stroke-width: 0.8; stroke-linecap: square"/>
     </g>
     <g id="line2d_10">
      <g>
       <use xlink:href="#m2e89a22db3" x="54.100484" y="153.56602" style="fill: #555555; stroke: #555555; stroke-width: 0.8"/>
      </g>
     </g>
     <g id="text_6">
      <text style="font-size: 10.5px; font-family: 'Noto Naskh Arabic', 'DejaVu Sans'; text-anchor: end; fill: #555555" x="47.100484" y="159.17827" transform="rotate(-0 47.100484 159.17827)">540</text>
     </g>
    </g>
    <g id="ytick_6">
     <g id="line2d_11">
      <path d="M 54.100484 114.969931 
L 664.35 114.969931 
" clip-path="url(#pddae8d32e9)" style="fill: none; stroke: #e6e1d6; stroke-width: 0.8; stroke-linecap: square"/>
     </g>
     <g id="line2d_12">
      <g>
       <use xlink:href="#m2e89a22db3" x="54.100484" y="114.969931" style="fill: #555555; stroke: #555555; stroke-width: 0.8"/>
      </g>
     </g>
     <g id="text_7">
      <text style="font-size: 10.5px; font-family: 'Noto Naskh Arabic', 'DejaVu Sans'; text-anchor: end; fill: #555555" x="47.100484" y="120.582181" transform="rotate(-0 47.100484 120.582181)">560</text>
     </g>
    </g>
    <g id="ytick_7">
     <g id="line2d_13">
      <path d="M 54.100484 76.373841 
L 664.35 76.373841 
" clip-path="url(#pddae8d32e9)" style="fill: none; stroke: #e6e1d6; stroke-width: 0.8; stroke-linecap: square"/>
     </g>
     <g id="line2d_14">
      <g>
       <use xlink:href="#m2e89a22db3" x="54.100484" y="76.373841" style="fill: #555555; stroke: #555555; stroke-width: 0.8"/>
      </g>
     </g>
     <g id="text_8">
      <text style="font-size: 10.5px; font-family: 'Noto Naskh Arabic', 'DejaVu Sans'; text-anchor: end; fill: #555555" x="47.100484" y="81.986091" transform="rotate(-0 47.100484 81.986091)">580</text>
     </g>
    </g>
    <g id="ytick_8">
     <g id="line2d_15">
      <path d="M 54.100484 37.777752 
L 664.35 37.777752 
" clip-path="url(#pddae8d32e9)" style="fill: none; stroke: #e6e1d6; stroke-width: 0.8; stroke-linecap: square"/>
     </g>
     <g id="line2d_16">
      <g>
       <use xlink:href="#m2e89a22db3" x="54.100484" y="37.777752" style="fill: #555555; stroke: #555555; stroke-width: 0.8"/>
      </g>
     </g>
     <g id="text_9">
      <text style="font-size: 10.5px; font-family: 'Noto Naskh Arabic', 'DejaVu Sans'; text-anchor: end; fill: #555555" x="47.100484" y="43.390002" transform="rotate(-0 47.100484 43.390002)">600</text>
     </g>
    </g>
    <g id="text_10">
     <text style="font-size: 10.5px; font-family: 'Noto Naskh Arabic', 'DejaVu Sans'; text-anchor: middle; fill: #1f2937" x="18.4245" y="173.30792" transform="rotate(-90 18.4245 173.30792)">​(ﺭﻻﻭﺩ) ﻕﻼﻏﻹﺍ ﺮﻌﺳ</text>
    </g>
   </g>
   <g id="line2d_17">
    <defs>
     <path id="m30b09ccb87" d="M 0 1.5 
C 0.397805 1.5 0.77937 1.341951 1.06066 1.06066 
C 1.341951 0.77937 1.5 0.397805 1.5 0 
C 1.5 -0.397805 1.341951 -0.77937 1.06066 -1.06066 
C 0.77937 -1.341951 0.397805 -1.5 0 -1.5 
C -0.397805 -1.5 -0.77937 -1.341951 -1.06066 -1.06066 
C -1.341951 -0.77937 -1.5 -0.397805 -1.5 0 
C -1.5 0.397805 -1.341951 0.77937 -1.06066 1.06066 
C -0.77937 1.341951 -0.397805 1.5 0 1.5 
z
" style="stroke: #8a8f98"/>
    </defs>
    <g clip-path="url(#pddae8d32e9)">
     <use xlink:href="#m30b09ccb87" x="81.839099" y="229.986277" style="fill: #8a8f98; stroke: #8a8f98"/>
     <use xlink:href="#m30b09ccb87" x="88.861533" y="217.114482" style="fill: #8a8f98; stroke: #8a8f98"/>
     <use xlink:href="#m30b09ccb87" x="95.883967" y="194.400683" style="fill: #8a8f98; stroke: #8a8f98"/>
     <use xlink:href="#m30b09ccb87" x="102.906401" y="195.539268" style="fill: #8a8f98; stroke: #8a8f98"/>
     <use xlink:href="#m30b09ccb87" x="109.928835" y="201.695344" style="fill: #8a8f98; stroke: #8a8f98"/>
     <use xlink:href="#m30b09ccb87" x="116.951269" y="200.865528" style="fill: #8a8f98; stroke: #8a8f98"/>
     <use xlink:href="#m30b09ccb87" x="123.973703" y="208.874216" style="fill: #8a8f98; stroke: #8a8f98"/>
     <use xlink:href="#m30b09ccb87" x="130.996137" y="221.553032" style="fill: #8a8f98; stroke: #8a8f98"/>
     <use xlink:href="#m30b09ccb87" x="138.018571" y="220.646024" style="fill: #8a8f98; stroke: #8a8f98"/>
     <use xlink:href="#m30b09ccb87" x="145.041005" y="225.277554" style="fill: #8a8f98; stroke: #8a8f98"/>
     <use xlink:href="#m30b09ccb87" x="152.063439" y="219.391651" style="fill: #8a8f98; stroke: #8a8f98"/>
     <use xlink:href="#m30b09ccb87" x="159.085873" y="201.425171" style="fill: #8a8f98; stroke: #8a8f98"/>
     <use xlink:href="#m30b09ccb87" x="166.108307" y="203.142697" style="fill: #8a8f98; stroke: #8a8f98"/>
     <use xlink:href="#m30b09ccb87" x="173.130741" y="211.518049" style="fill: #8a8f98; stroke: #8a8f98"/>
     <use xlink:href="#m30b09ccb87" x="180.153175" y="203.528658" style="fill: #8a8f98; stroke: #8a8f98"/>
     <use xlink:href="#m30b09ccb87" x="187.175609" y="182.551683" style="fill: #8a8f98; stroke: #8a8f98"/>
     <use xlink:href="#m30b09ccb87" x="194.198043" y="177.842961" style="fill: #8a8f98; stroke: #8a8f98"/>
     <use xlink:href="#m30b09ccb87" x="201.220477" y="172.362316" style="fill: #8a8f98; stroke: #8a8f98"/>
     <use xlink:href="#m30b09ccb87" x="208.242911" y="180.02364" style="fill: #8a8f98; stroke: #8a8f98"/>
     <use xlink:href="#m30b09ccb87" x="215.265345" y="182.493789" style="fill: #8a8f98; stroke: #8a8f98"/>
     <use xlink:href="#m30b09ccb87" x="222.287779" y="186.951638" style="fill: #8a8f98; stroke: #8a8f98"/>
     <use xlink:href="#m30b09ccb87" x="229.310213" y="172.130739" style="fill: #8a8f98; stroke: #8a8f98"/>
     <use xlink:href="#m30b09ccb87" x="236.332647" y="164.488714" style="fill: #8a8f98; stroke: #8a8f98"/>
     <use xlink:href="#m30b09ccb87" x="243.355081" y="150.420439" style="fill: #8a8f98; stroke: #8a8f98"/>
     <use xlink:href="#m30b09ccb87" x="250.377515" y="154.723903" style="fill: #8a8f98; stroke: #8a8f98"/>
     <use xlink:href="#m30b09ccb87" x="257.399949" y="148.625721" style="fill: #8a8f98; stroke: #8a8f98"/>
     <use xlink:href="#m30b09ccb87" x="264.422383" y="147.120473" style="fill: #8a8f98; stroke: #8a8f98"/>
     <use xlink:href="#m30b09ccb87" x="271.444817" y="144.939794" style="fill: #8a8f98; stroke: #8a8f98"/>
     <use xlink:href="#m30b09ccb87" x="278.467251" y="143.280162" style="fill: #8a8f98; stroke: #8a8f98"/>
     <use xlink:href="#m30b09ccb87" x="285.489685" y="130.099598" style="fill: #8a8f98; stroke: #8a8f98"/>
     <use xlink:href="#m30b09ccb87" x="292.512119" y="128.49786" style="fill: #8a8f98; stroke: #8a8f98"/>
     <use xlink:href="#m30b09ccb87" x="299.534553" y="124.618953" style="fill: #8a8f98; stroke: #8a8f98"/>
     <use xlink:href="#m30b09ccb87" x="306.556987" y="135.232878" style="fill: #8a8f98; stroke: #8a8f98"/>
     <use xlink:href="#m30b09ccb87" x="313.579421" y="136.989" style="fill: #8a8f98; stroke: #8a8f98"/>
     <use xlink:href="#m30b09ccb87" x="320.601855" y="191.930533" style="fill: #8a8f98; stroke: #8a8f98"/>
     <use xlink:href="#m30b09ccb87" x="327.624289" y="206.616345" style="fill: #8a8f98; stroke: #8a8f98"/>
     <use xlink:href="#m30b09ccb87" x="334.646723" y="203.740937" style="fill: #8a8f98; stroke: #8a8f98"/>
     <use xlink:href="#m30b09ccb87" x="341.669157" y="211.923308" style="fill: #8a8f98; stroke: #8a8f98"/>
     <use xlink:href="#m30b09ccb87" x="348.691591" y="215.319763" style="fill: #8a8f98; stroke: #8a8f98"/>
     <use xlink:href="#m30b09ccb87" x="355.714025" y="207.812824" style="fill: #8a8f98; stroke: #8a8f98"/>
     <use xlink:href="#m30b09ccb87" x="362.736459" y="199.669049" style="fill: #8a8f98; stroke: #8a8f98"/>
     <use xlink:href="#m30b09ccb87" x="369.758893" y="211.460154" style="fill: #8a8f98; stroke: #8a8f98"/>
     <use xlink:href="#m30b09ccb87" x="376.781327" y="205.786529" style="fill: #8a8f98; stroke: #8a8f98"/>
     <use xlink:href="#m30b09ccb87" x="383.803761" y="209.511052" style="fill: #8a8f98; stroke: #8a8f98"/>
     <use xlink:href="#m30b09ccb87" x="390.826195" y="224.968786" style="fill: #8a8f98; stroke: #8a8f98"/>
     <use xlink:href="#m30b09ccb87" x="397.848629" y="211.460154" style="fill: #8a8f98; stroke: #8a8f98"/>
     <use xlink:href="#m30b09ccb87" x="404.871063" y="199.842732" style="fill: #8a8f98; stroke: #8a8f98"/>
     <use xlink:href="#m30b09ccb87" x="411.893497" y="181.00784" style="fill: #8a8f98; stroke: #8a8f98"/>
     <use xlink:href="#m30b09ccb87" x="418.915931" y="202.332179" style="fill: #8a8f98; stroke: #8a8f98"/>
     <use xlink:href="#m30b09ccb87" x="425.938365" y="200.363779" style="fill: #8a8f98; stroke: #8a8f98"/>
     <use xlink:href="#m30b09ccb87" x="432.960799" y="200.84623" style="fill: #8a8f98; stroke: #8a8f98"/>
     <use xlink:href="#m30b09ccb87" x="439.983233" y="214.161881" style="fill: #8a8f98; stroke: #8a8f98"/>
     <use xlink:href="#m30b09ccb87" x="447.005667" y="235.48622" style="fill: #8a8f98; stroke: #8a8f98"/>
     <use xlink:href="#m30b09ccb87" x="454.028101" y="247.122941" style="fill: #8a8f98; stroke: #8a8f98"/>
     <use xlink:href="#m30b09ccb87" x="461.050535" y="230.681007" style="fill: #8a8f98; stroke: #8a8f98"/>
     <use xlink:href="#m30b09ccb87" x="468.072969" y="234.772192" style="fill: #8a8f98; stroke: #8a8f98"/>
     <use xlink:href="#m30b09ccb87" x="475.095403" y="218.002192" style="fill: #8a8f98; stroke: #8a8f98"/>
     <use xlink:href="#m30b09ccb87" x="482.117837" y="206.153192" style="fill: #8a8f98; stroke: #8a8f98"/>
     <use xlink:href="#m30b09ccb87" x="489.140271" y="207.233883" style="fill: #8a8f98; stroke: #8a8f98"/>
     <use xlink:href="#m30b09ccb87" x="496.162705" y="201.811132" style="fill: #8a8f98; stroke: #8a8f98"/>
     <use xlink:href="#m30b09ccb87" x="503.185139" y="205.168992" style="fill: #8a8f98; stroke: #8a8f98"/>
     <use xlink:href="#m30b09ccb87" x="510.207573" y="218.407451" style="fill: #8a8f98; stroke: #8a8f98"/>
     <use xlink:href="#m30b09ccb87" x="517.230007" y="205.902318" style="fill: #8a8f98; stroke: #8a8f98"/>
     <use xlink:href="#m30b09ccb87" x="524.252441" y="208.758428" style="fill: #8a8f98; stroke: #8a8f98"/>
     <use xlink:href="#m30b09ccb87" x="531.274875" y="201.328681" style="fill: #8a8f98; stroke: #8a8f98"/>
     <use xlink:href="#m30b09ccb87" x="538.297309" y="182.223617" style="fill: #8a8f98; stroke: #8a8f98"/>
     <use xlink:href="#m30b09ccb87" x="545.319744" y="177.109635" style="fill: #8a8f98; stroke: #8a8f98"/>
     <use xlink:href="#m30b09ccb87" x="552.342178" y="185.369198" style="fill: #8a8f98; stroke: #8a8f98"/>
     <use xlink:href="#m30b09ccb87" x="559.364612" y="193.416483" style="fill: #8a8f98; stroke: #8a8f98"/>
     <use xlink:href="#m30b09ccb87" x="566.387046" y="202.81463" style="fill: #8a8f98; stroke: #8a8f98"/>
     <use xlink:href="#m30b09ccb87" x="573.40948" y="189.59547" style="fill: #8a8f98; stroke: #8a8f98"/>
     <use xlink:href="#m30b09ccb87" x="580.431914" y="187.048128" style="fill: #8a8f98; stroke: #8a8f98"/>
     <use xlink:href="#m30b09ccb87" x="587.454348" y="182.937644" style="fill: #8a8f98; stroke: #8a8f98"/>
     <use xlink:href="#m30b09ccb87" x="594.476782" y="175.276321" style="fill: #8a8f98; stroke: #8a8f98"/>
     <use xlink:href="#m30b09ccb87" x="601.499216" y="181.934146" style="fill: #8a8f98; stroke: #8a8f98"/>
     <use xlink:href="#m30b09ccb87" x="608.52165" y="162.693995" style="fill: #8a8f98; stroke: #8a8f98"/>
     <use xlink:href="#m30b09ccb87" x="615.544084" y="140.34686" style="fill: #8a8f98; stroke: #8a8f98"/>
     <use xlink:href="#m30b09ccb87" x="622.566518" y="128.806629" style="fill: #8a8f98; stroke: #8a8f98"/>
     <use xlink:href="#m30b09ccb87" x="629.588952" y="114.77695" style="fill: #8a8f98; stroke: #8a8f98"/>
     <use xlink:href="#m30b09ccb87" x="636.611386" y="99.492899" style="fill: #8a8f98; stroke: #8a8f98"/>
    </g>
   </g>
   <g id="line2d_18">
    <path d="M 81.839099 185.433999 
L 88.861533 185.700852 
L 95.883967 185.967705 
L 102.906401 186.234558 
L 109.928835 186.501411 
L 116.951269 186.768264 
L 123.973703 187.035117 
L 130.996137 187.30197 
L 138.018571 187.568823 
L 145.041005 187.835676 
L 152.063439 188.102529 
L 159.085873 188.369382 
L 166.108307 188.636235 
L 173.130741 188.903088 
L 180.153175 189.169941 
L 187.175609 189.436794 
L 194.198043 189.703647 
L 201.220477 189.9705 
L 208.242911 190.237353 
L 215.265345 190.504206 
L 222.287779 190.771059 
L 229.310213 191.037912 
L 236.332647 191.304765 
L 243.355081 191.571618 
L 250.377515 191.838471 
L 257.399949 192.105324 
L 264.422383 192.372177 
L 271.444817 192.63903 
L 278.467251 192.905883 
L 285.489685 193.172736 
L 292.512119 193.439589 
L 299.534553 193.706442 
L 306.556987 193.973295 
L 313.579421 194.240148 
L 320.601855 194.507001 
L 327.624289 194.773853 
L 334.646723 195.040706 
L 341.669157 195.307559 
L 348.691591 195.574412 
L 355.714025 195.841265 
L 362.736459 196.108118 
L 369.758893 196.374971 
L 376.781327 196.641824 
L 383.803761 196.908677 
L 390.826195 197.17553 
L 397.848629 197.442383 
L 404.871063 197.709236 
L 411.893497 197.976089 
L 418.915931 198.242942 
L 425.938365 198.509795 
L 432.960799 198.776648 
L 439.983233 199.043501 
L 447.005667 199.310354 
L 454.028101 199.577207 
L 461.050535 199.84406 
L 468.072969 200.110913 
L 475.095403 200.377766 
L 482.117837 200.644619 
L 489.140271 200.911472 
L 496.162705 201.178325 
L 503.185139 201.445178 
L 510.207573 201.712031 
L 517.230007 201.978884 
L 524.252441 202.245737 
L 531.274875 202.51259 
L 538.297309 202.779443 
L 545.319744 203.046296 
L 552.342178 203.313149 
L 559.364612 203.580002 
L 566.387046 203.846855 
L 573.40948 204.113708 
L 580.431914 204.380561 
L 587.454348 204.647414 
L 594.476782 204.914267 
L 601.499216 205.18112 
L 608.52165 205.447973 
L 615.544084 205.714826 
L 622.566518 205.981678 
L 629.588952 206.248531 
L 636.611386 206.515384 
" clip-path="url(#pddae8d32e9)" style="fill: none; stroke: #1f8a56; stroke-width: 2.2; stroke-linecap: square"/>
   </g>
   <g id="line2d_19">
    <path d="M 81.839099 230.342094 
L 88.861533 214.489696 
L 95.883967 199.902662 
L 102.906401 193.89643 
L 109.928835 196.214273 
L 116.951269 203.540745 
L 123.973703 212.097842 
L 130.996137 218.936931 
L 138.018571 222.390687 
L 145.041005 222.02739 
L 152.063439 218.351523 
L 159.085873 212.41644 
L 166.108307 205.454147 
L 173.130741 198.581237 
L 180.153175 192.606386 
L 187.175609 187.941374 
L 194.198043 184.602481 
L 201.220477 182.280532 
L 208.242911 180.454358 
L 215.265345 178.522729 
L 222.287779 175.932703 
L 229.310213 172.286885 
L 236.332647 167.417571 
L 243.355081 161.421361 
L 250.377515 154.653267 
L 257.399949 147.68397 
L 264.422383 141.227697 
L 271.444817 136.05078 
L 278.467251 132.872445 
L 285.489685 132.269627 
L 292.512119 134.596787 
L 299.534553 139.929909 
L 306.556987 148.041279 
L 313.579421 158.408507 
L 320.601855 170.257811 
L 327.624289 182.638101 
L 334.646723 194.519105 
L 341.669157 204.904007 
L 348.691591 212.944978 
L 355.714025 218.04881 
L 362.736459 219.959858 
L 369.758893 218.80858 
L 376.781327 215.11643 
L 383.803761 209.751503 
L 390.826195 203.83411 
L 397.848629 198.597189 
L 404.871063 195.212781 
L 411.893497 194.602324 
L 418.915931 197.254619 
L 425.938365 203.080405 
L 432.960799 211.335536 
L 439.983233 220.644902 
L 447.005667 229.155202 
L 454.028101 234.835075 
L 461.050535 235.924409 
L 468.072969 231.508974 
L 475.095403 222.160005 
L 482.117837 210.528595 
L 489.140271 201.719388 
L 496.162705 203.184286 
L 503.185139 223.771701 
L 510.207573 271.437063 
L 517.230007 324.31512 
L 524.252441 324.31512 
L 531.274875 324.31512 
L 538.297309 324.31512 
L 545.319744 313.555313 
L 552.342178 22.30072 
L 559.364612 22.30072 
L 566.387046 22.30072 
L 573.40948 22.30072 
L 580.431914 22.30072 
L 587.454348 22.30072 
L 594.476782 22.30072 
L 601.499216 22.30072 
L 608.52165 22.30072 
L 615.544084 22.30072 
L 622.566518 22.30072 
L 629.588952 22.30072 
L 636.611386 22.30072 
" clip-path="url(#pddae8d32e9)" style="fill: none; stroke: #b91c1c; stroke-width: 2.2; stroke-linecap: square"/>
   </g>
   <g id="line2d_20">
    <path d="M 503.185139 324.31512 
L 503.185139 22.30072 
" clip-path="url(#pddae8d32e9)" style="fill: none; stroke-dasharray: 5.18,2.24; stroke-dashoffset: 0; stroke: #1f2937; stroke-width: 1.4"/>
   </g>
   <g id="patch_3">
    <path d="M 54.100484 324.31512 
L 54.100484 22.30072 
" style="fill: none; stroke: #1f2937; stroke-width: 0.8; stroke-linejoin: miter; stroke-linecap: square"/>
   </g>
   <g id="patch_4">
    <path d="M 54.100484 324.31512 
L 664.35 324.31512 
" style="fill: none; stroke: #1f2937; stroke-width: 0.8; stroke-linejoin: miter; stroke-linecap: square"/>
   </g>
   <g id="text_11">
    <text style="font-weight: 700; font-size: 9px; font-family: 'Noto Naskh Arabic', 'DejaVu Sans'; text-anchor: end; fill: #1f2937" x="489.140271" y="16.821" transform="rotate(-0 489.140271 16.821)">​ﺐﻳﺭﺪﺘﻟﺍ ﺕﺎﻧﺎﻴﺑ</text>
   </g>
   <g id="text_12">
    <text style="font-weight: 700; font-size: 9px; font-family: 'Noto Naskh Arabic', 'DejaVu Sans'; text-anchor: start; fill: #b91c1c" x="517.230007" y="16.821" transform="rotate(-0 517.230007 16.821)">​ﻲﺋﺮﻤﻟﺍ ﺮﻴﻏ ﻞﺒﻘﺘﺴﻤﻟﺍ</text>
   </g>
   <g id="legend_1">
    <g id="line2d_21">
     <g>
      <use xlink:href="#m30b09ccb87" x="71.200484" y="267.70512" style="fill: #8a8f98; stroke: #8a8f98"/>
     </g>
    </g>
    <g id="text_13">
     <text style="font-size: 9px; font-family: 'Noto Naskh Arabic', 'DejaVu Sans'; text-anchor: start; fill: #1f2937" x="87.400484" y="270.85512" transform="rotate(-0 87.400484 270.85512)">​(ﻲﻣﻮﻳ) ﻲﻘﻴﻘﺤﻟﺍ GOOG ﺮﻌﺳ</text>
    </g>
    <g id="line2d_22">
     <path d="M 62.200484 287.53212 
L 71.200484 287.53212 
L 80.200484 287.53212 
" style="fill: none; stroke: #1f8a56; stroke-width: 2.2; stroke-linecap: square"/>
    </g>
    <g id="text_14">
     <text style="font-size: 9px; font-family: 'Noto Naskh Arabic', 'DejaVu Sans'; text-anchor: start; fill: #1f2937" x="87.400484" y="290.68212" transform="rotate(-0 87.400484 290.68212)">​(1 ﺔﺟﺭﺩ) ﻂﻴﺴﺑ ﺝﺫﻮﻤﻧ</text>
    </g>
    <g id="line2d_23">
     <path d="M 62.200484 307.35912 
L 71.200484 307.35912 
L 80.200484 307.35912 
" style="fill: none; stroke: #b91c1c; stroke-width: 2.2; stroke-linecap: square"/>
    </g>
    <g id="text_15">
     <text style="font-size: 9px; font-family: 'Noto Naskh Arabic', 'DejaVu Sans'; text-anchor: start; fill: #1f2937" x="87.400484" y="310.50912" transform="rotate(-0 87.400484 310.50912)">​(12 ﺔﺟﺭﺩ) ﺪﻴﻘﻌﺘﻟﺍ ﻁﺮﻔﻣ ﺝﺫﻮﻤﻧ</text>
    </g>
   </g>
  </g>
 </g>
 <defs>
  <clipPath id="pddae8d32e9">
   <rect x="54.100484" y="22.30072" width="610.249516" height="302.0144"/>
  </clipPath>
 </defs>
</svg>
