<?xml version="1.0" encoding="utf-8" standalone="no"?>
<!DOCTYPE svg PUBLIC "-//W3C//DTD SVG 1.1//EN"
  "http://www.w3.org/Graphics/SVG/1.1/DTD/svg11.dtd">
<svg xmlns:xlink="http://www.w3.org/1999/xlink" width="574.660484pt" height="563477.952409pt" viewBox="0 0 574.660484 563477.952409" xmlns="http://www.w3.org/2000/svg" version="1.1">
 <metadata>
  <rdf:RDF xmlns:dc="http://purl.org/dc/elements/1.1/" xmlns:cc="http://creativecommons.org/ns#" xmlns:rdf="http://www.w3.org/1999/02/22-rdf-syntax-ns#">
   <cc:Work>
    <dc:type rdf:resource="http://purl.org/dc/dcmitype/StillImage"/>
    <dc:date>2026-07-19T19:43:05.670856</dc:date>
    <dc:format>image/svg+xml</dc:format>
    <dc:creator>
     <cc:Agent>
      <dc:title>Matplotlib v3.11.1, https://matplotlib.org/</dc:title>
     </cc:Agent>
    </dc:creator>
   </cc:Work>
  </rdf:RDF>
 </metadata>
 <defs>
  <style type="text/css">*{stroke-linejoin: round; stroke-linecap: butt}</style>
 </defs>
 <g id="figure_1">
  <g id="patch_1">
   <path d="M 0 563477.952409 
L 574.660484 563477.952409 
L 574.660484 0 
L 0 0 
z
" style="fill: #ffffff"/>
  </g>
  <g id="axes_1">
   <g id="patch_2">
    <path d="M 54.100484 563445.722409 
L 567.460484 563445.722409 
L 567.460484 563179.610409 
L 54.100484 563179.610409 
z
" style="fill: #ffffff"/>
   </g>
   <g id="matplotlib.axis_1">
    <g id="text_1">
     <text style="font-size: 10px; font-family: 'Noto Naskh Arabic', 'DejaVu Sans'; text-anchor: middle; fill: #1f2937" x="310.780484" y="563464.412409" transform="rotate(-0 310.780484 563464.412409)">​(2007 ﺔﻴﻘﻴﻘﺣ ﺕﺎﻧﺎﻴﺑ) ﻝﻭﺍﺪﺘﻟﺍ ﻡﺎﻳﺃ</text>
    </g>
   </g>
   <g id="matplotlib.axis_2">
    <g id="ytick_1">
     <g id="line2d_1">
      <path d="M 54.100484 563431.30305 
L 567.460484 563431.30305 
" clip-path="url(#p9297a7b9c7)" style="fill: none; stroke: #e6e1d6; stroke-width: 0.8; stroke-linecap: square"/>
     </g>
     <g id="line2d_2">
      <defs>
       <path id="mbf47923603" d="M 0 0 
L -3.5 0 
" style="stroke: #555555; stroke-width: 0.8"/>
      </defs>
      <g>
       <use xlink:href="#mbf47923603" x="54.100484" y="563431.30305" style="fill: #555555; stroke: #555555; stroke-width: 0.8"/>
      </g>
     </g>
     <g id="text_2">
      <text style="font-size: 10.5px; font-family: 'Noto Naskh Arabic', 'DejaVu Sans'; text-anchor: end; fill: #555555" x="47.100484" y="563436.9153" transform="rotate(-0 47.100484 563436.9153)">460</text>
     </g>
    </g>
    <g id="ytick_2">
     <g id="line2d_3">
      <path d="M 54.100484 563397.295126 
L 567.460484 563397.295126 
" clip-path="url(#p9297a7b9c7)" style="fill: none; stroke: #e6e1d6; stroke-width: 0.8; stroke-linecap: square"/>
     </g>
     <g id="line2d_4">
      <g>
       <use xlink:href="#mbf47923603" x="54.100484" y="563397.295126" style="fill: #555555; stroke: #555555; stroke-width: 0.8"/>
      </g>
     </g>
     <g id="text_3">
      <text style="font-size: 10.5px; font-family: 'Noto Naskh Arabic', 'DejaVu Sans'; text-anchor: end; fill: #555555" x="47.100484" y="563402.907376" transform="rotate(-0 47.100484 563402.907376)">480</text>
     </g>
    </g>
    <g id="ytick_3">
     <g id="line2d_5">
      <path d="M 54.100484 563363.287203 
L 567.460484 563363.287203 
" clip-path="url(#p9297a7b9c7)" style="fill: none; stroke: #e6e1d6; stroke-width: 0.8; stroke-linecap: square"/>
     </g>
     <g id="line2d_6">
      <g>
       <use xlink:href="#mbf47923603" x="54.100484" y="563363.287203" style="fill: #555555; stroke: #555555; stroke-width: 0.8"/>
      </g>
     </g>
     <g id="text_4">
      <text style="font-size: 10.5px; font-family: 'Noto Naskh Arabic', 'DejaVu Sans'; text-anchor: end; fill: #555555" x="47.100484" y="563368.899453" transform="rotate(-0 47.100484 563368.899453)">500</text>
     </g>
    </g>
    <g id="ytick_4">
     <g id="line2d_7">
      <path d="M 54.100484 563329.27928 
L 567.460484 563329.27928 
" clip-path="url(#p9297a7b9c7)" style="fill: none; stroke: #e6e1d6; stroke-width: 0.8; stroke-linecap: square"/>
     </g>
     <g id="line2d_8">
      <g>
       <use xlink:href="#mbf47923603" x="54.100484" y="563329.27928" style="fill: #555555; stroke: #555555; stroke-width: 0.8"/>
      </g>
     </g>
     <g id="text_5">
      <text style="font-size: 10.5px; font-family: 'Noto Naskh Arabic', 'DejaVu Sans'; text-anchor: end; fill: #555555" x="47.100484" y="563334.89153" transform="rotate(-0 47.100484 563334.89153)">520</text>
     </g>
    </g>
    <g id="ytick_5">
     <g id="line2d_9">
      <path d="M 54.100484 563295.271356 
L 567.460484 563295.271356 
" clip-path="url(#p9297a7b9c7)" style="fill: none; stroke: #e6e1d6; stroke-width: 0.8; stroke-linecap: square"/>
     </g>
     <g id="line2d_10">
      <g>
       <use xlink:href="#mbf47923603" x="54.100484" y="563295.271356" style="fill: #555555; stroke: #555555; stroke-width: 0.8"/>
      </g>
     </g>
     <g id="text_6">
      <text style="font-size: 10.5px; font-family: 'Noto Naskh Arabic', 'DejaVu Sans'; text-anchor: end; fill: #555555" x="47.100484" y="563300.883606" transform="rotate(-0 47.100484 563300.883606)">540</text>
     </g>
    </g>
    <g id="ytick_6">
     <g id="line2d_11">
      <path d="M 54.100484 563261.263433 
L 567.460484 563261.263433 
" clip-path="url(#p9297a7b9c7)" style="fill: none; stroke: #e6e1d6; stroke-width: 0.8; stroke-linecap: square"/>
     </g>
     <g id="line2d_12">
      <g>
       <use xlink:href="#mbf47923603" x="54.100484" y="563261.263433" style="fill: #555555; stroke: #555555; stroke-width: 0.8"/>
      </g>
     </g>
     <g id="text_7">
      <text style="font-size: 10.5px; font-family: 'Noto Naskh Arabic', 'DejaVu Sans'; text-anchor: end; fill: #555555" x="47.100484" y="563266.875683" transform="rotate(-0 47.100484 563266.875683)">560</text>
     </g>
    </g>
    <g id="ytick_7">
     <g id="line2d_13">
      <path d="M 54.100484 563227.25551 
L 567.460484 563227.25551 
" clip-path="url(#p9297a7b9c7)" style="fill: none; stroke: #e6e1d6; stroke-width: 0.8; stroke-linecap: square"/>
     </g>
     <g id="line2d_14">
      <g>
       <use xlink:href="#mbf47923603" x="54.100484" y="563227.25551" style="fill: #555555; stroke: #555555; stroke-width: 0.8"/>
      </g>
     </g>
     <g id="text_8">
      <text style="font-size: 10.5px; font-family: 'Noto Naskh Arabic', 'DejaVu Sans'; text-anchor: end; fill: #555555" x="47.100484" y="563232.86776" transform="rotate(-0 47.100484 563232.86776)">580</text>
     </g>
    </g>
    <g id="ytick_8">
     <g id="line2d_15">
      <path d="M 54.100484 563193.247586 
L 567.460484 563193.247586 
" clip-path="url(#p9297a7b9c7)" style="fill: none; stroke: #e6e1d6; stroke-width: 0.8; stroke-linecap: square"/>
     </g>
     <g id="line2d_16">
      <g>
       <use xlink:href="#mbf47923603" x="54.100484" y="563193.247586" style="fill: #555555; stroke: #555555; stroke-width: 0.8"/>
      </g>
     </g>
     <g id="text_9">
      <text style="font-size: 10.5px; font-family: 'Noto Naskh Arabic', 'DejaVu Sans'; text-anchor: end; fill: #555555" x="47.100484" y="563198.859836" transform="rotate(-0 47.100484 563198.859836)">600</text>
     </g>
    </g>
    <g id="text_10">
     <text style="font-size: 10.5px; font-family: 'Noto Naskh Arabic', 'DejaVu Sans'; text-anchor: middle; fill: #1f2937" x="18.4245" y="563312.666409" transform="rotate(-90 18.4245 563312.666409)">​(ﺭﻻﻭﺩ) ﻕﻼﻏﻹﺍ ﺮﻌﺳ</text>
    </g>
   </g>
   <g id="line2d_17">
    <defs>
     <path id="md185efa839" d="M 0 1.5 
C 0.397805 1.5 0.77937 1.341951 1.06066 1.06066 
C 1.341951 0.77937 1.5 0.397805 1.5 0 
C 1.5 -0.397805 1.341951 -0.77937 1.06066 -1.06066 
C 0.77937 -1.341951 0.397805 -1.5 0 -1.5 
C -0.397805 -1.5 -0.77937 -1.341951 -1.06066 -1.06066 
C -1.341951 -0.77937 -1.5 -0.397805 -1.5 0 
C -1.5 0.397805 -1.341951 0.77937 -1.06066 1.06066 
C -0.77937 1.341951 -0.397805 1.5 0 1.5 
z
" style="stroke: #8a8f98"/>
    </defs>
    <g clip-path="url(#p9297a7b9c7)">
     <use xlink:href="#md185efa839" x="77.43503" y="563362.607045" style="fill: #8a8f98; stroke: #8a8f98"/>
     <use xlink:href="#md185efa839" x="83.34251" y="563351.265402" style="fill: #8a8f98; stroke: #8a8f98"/>
     <use xlink:href="#md185efa839" x="89.24999" y="563331.251739" style="fill: #8a8f98; stroke: #8a8f98"/>
     <use xlink:href="#md185efa839" x="95.157469" y="563332.254973" style="fill: #8a8f98; stroke: #8a8f98"/>
     <use xlink:href="#md185efa839" x="101.064949" y="563337.679237" style="fill: #8a8f98; stroke: #8a8f98"/>
     <use xlink:href="#md185efa839" x="106.972429" y="563336.948066" style="fill: #8a8f98; stroke: #8a8f98"/>
     <use xlink:href="#md185efa839" x="112.879909" y="563344.004711" style="fill: #8a8f98; stroke: #8a8f98"/>
     <use xlink:href="#md185efa839" x="118.787389" y="563355.176313" style="fill: #8a8f98; stroke: #8a8f98"/>
     <use xlink:href="#md185efa839" x="124.694869" y="563354.377127" style="fill: #8a8f98; stroke: #8a8f98"/>
     <use xlink:href="#md185efa839" x="130.602349" y="563358.458078" style="fill: #8a8f98; stroke: #8a8f98"/>
     <use xlink:href="#md185efa839" x="136.509828" y="563353.27187" style="fill: #8a8f98; stroke: #8a8f98"/>
     <use xlink:href="#md185efa839" x="142.417308" y="563337.441181" style="fill: #8a8f98; stroke: #8a8f98"/>
     <use xlink:href="#md185efa839" x="148.324788" y="563338.954534" style="fill: #8a8f98; stroke: #8a8f98"/>
     <use xlink:href="#md185efa839" x="154.232268" y="563346.334253" style="fill: #8a8f98; stroke: #8a8f98"/>
     <use xlink:href="#md185efa839" x="160.139748" y="563339.294613" style="fill: #8a8f98; stroke: #8a8f98"/>
     <use xlink:href="#md185efa839" x="166.047228" y="563320.811307" style="fill: #8a8f98; stroke: #8a8f98"/>
     <use xlink:href="#md185efa839" x="171.954708" y="563316.66234" style="fill: #8a8f98; stroke: #8a8f98"/>
     <use xlink:href="#md185efa839" x="177.862187" y="563311.833215" style="fill: #8a8f98; stroke: #8a8f98"/>
     <use xlink:href="#md185efa839" x="183.769667" y="563318.583788" style="fill: #8a8f98; stroke: #8a8f98"/>
     <use xlink:href="#md185efa839" x="189.677147" y="563320.760295" style="fill: #8a8f98; stroke: #8a8f98"/>
     <use xlink:href="#md185efa839" x="195.584627" y="563324.68821" style="fill: #8a8f98; stroke: #8a8f98"/>
     <use xlink:href="#md185efa839" x="201.492107" y="563311.629168" style="fill: #8a8f98; stroke: #8a8f98"/>
     <use xlink:href="#md185efa839" x="207.399587" y="563304.895599" style="fill: #8a8f98; stroke: #8a8f98"/>
     <use xlink:href="#md185efa839" x="213.307067" y="563292.499711" style="fill: #8a8f98; stroke: #8a8f98"/>
     <use xlink:href="#md185efa839" x="219.214547" y="563296.291594" style="fill: #8a8f98; stroke: #8a8f98"/>
     <use xlink:href="#md185efa839" x="225.122026" y="563290.918342" style="fill: #8a8f98; stroke: #8a8f98"/>
     <use xlink:href="#md185efa839" x="231.029506" y="563289.592033" style="fill: #8a8f98; stroke: #8a8f98"/>
     <use xlink:href="#md185efa839" x="236.936986" y="563287.670586" style="fill: #8a8f98; stroke: #8a8f98"/>
     <use xlink:href="#md185efa839" x="242.844466" y="563286.208245" style="fill: #8a8f98; stroke: #8a8f98"/>
     <use xlink:href="#md185efa839" x="248.751946" y="563274.594539" style="fill: #8a8f98; stroke: #8a8f98"/>
     <use xlink:href="#md185efa839" x="254.659426" y="563273.18321" style="fill: #8a8f98; stroke: #8a8f98"/>
     <use xlink:href="#md185efa839" x="260.566906" y="563269.765414" style="fill: #8a8f98; stroke: #8a8f98"/>
     <use xlink:href="#md185efa839" x="266.474385" y="563279.117593" style="fill: #8a8f98; stroke: #8a8f98"/>
     <use xlink:href="#md185efa839" x="272.381865" y="563280.664953" style="fill: #8a8f98; stroke: #8a8f98"/>
     <use xlink:href="#md185efa839" x="278.289345" y="563329.075232" style="fill: #8a8f98; stroke: #8a8f98"/>
     <use xlink:href="#md185efa839" x="284.196825" y="563342.015247" style="fill: #8a8f98; stroke: #8a8f98"/>
     <use xlink:href="#md185efa839" x="290.104305" y="563339.481657" style="fill: #8a8f98; stroke: #8a8f98"/>
     <use xlink:href="#md185efa839" x="296.011785" y="563346.691336" style="fill: #8a8f98; stroke: #8a8f98"/>
     <use xlink:href="#md185efa839" x="301.919265" y="563349.684034" style="fill: #8a8f98; stroke: #8a8f98"/>
     <use xlink:href="#md185efa839" x="307.826744" y="563343.069493" style="fill: #8a8f98; stroke: #8a8f98"/>
     <use xlink:href="#md185efa839" x="313.734224" y="563335.893821" style="fill: #8a8f98; stroke: #8a8f98"/>
     <use xlink:href="#md185efa839" x="319.641704" y="563346.283241" style="fill: #8a8f98; stroke: #8a8f98"/>
     <use xlink:href="#md185efa839" x="325.549184" y="563341.284077" style="fill: #8a8f98; stroke: #8a8f98"/>
     <use xlink:href="#md185efa839" x="331.456664" y="563344.565841" style="fill: #8a8f98; stroke: #8a8f98"/>
     <use xlink:href="#md185efa839" x="337.364144" y="563358.186015" style="fill: #8a8f98; stroke: #8a8f98"/>
     <use xlink:href="#md185efa839" x="343.271624" y="563346.283241" style="fill: #8a8f98; stroke: #8a8f98"/>
     <use xlink:href="#md185efa839" x="349.179103" y="563336.046856" style="fill: #8a8f98; stroke: #8a8f98"/>
     <use xlink:href="#md185efa839" x="355.086583" y="563319.45099" style="fill: #8a8f98; stroke: #8a8f98"/>
     <use xlink:href="#md185efa839" x="360.994063" y="563338.240368" style="fill: #8a8f98; stroke: #8a8f98"/>
     <use xlink:href="#md185efa839" x="366.901543" y="563336.505963" style="fill: #8a8f98; stroke: #8a8f98"/>
     <use xlink:href="#md185efa839" x="372.809023" y="563336.931062" style="fill: #8a8f98; stroke: #8a8f98"/>
     <use xlink:href="#md185efa839" x="378.716503" y="563348.663796" style="fill: #8a8f98; stroke: #8a8f98"/>
     <use xlink:href="#md185efa839" x="384.623983" y="563367.453174" style="fill: #8a8f98; stroke: #8a8f98"/>
     <use xlink:href="#md185efa839" x="390.531463" y="563377.706563" style="fill: #8a8f98; stroke: #8a8f98"/>
     <use xlink:href="#md185efa839" x="396.438942" y="563363.219187" style="fill: #8a8f98; stroke: #8a8f98"/>
     <use xlink:href="#md185efa839" x="402.346422" y="563366.824027" style="fill: #8a8f98; stroke: #8a8f98"/>
     <use xlink:href="#md185efa839" x="408.253902" y="563352.047584" style="fill: #8a8f98; stroke: #8a8f98"/>
     <use xlink:href="#md185efa839" x="414.161382" y="563341.607152" style="fill: #8a8f98; stroke: #8a8f98"/>
     <use xlink:href="#md185efa839" x="420.068862" y="563342.559374" style="fill: #8a8f98; stroke: #8a8f98"/>
     <use xlink:href="#md185efa839" x="425.976342" y="563337.781261" style="fill: #8a8f98; stroke: #8a8f98"/>
     <use xlink:href="#md185efa839" x="431.883822" y="563340.73995" style="fill: #8a8f98; stroke: #8a8f98"/>
     <use xlink:href="#md185efa839" x="437.791301" y="563352.404668" style="fill: #8a8f98; stroke: #8a8f98"/>
     <use xlink:href="#md185efa839" x="443.698781" y="563341.3861" style="fill: #8a8f98; stroke: #8a8f98"/>
     <use xlink:href="#md185efa839" x="449.606261" y="563343.902687" style="fill: #8a8f98; stroke: #8a8f98"/>
     <use xlink:href="#md185efa839" x="455.513741" y="563337.356162" style="fill: #8a8f98; stroke: #8a8f98"/>
     <use xlink:href="#md185efa839" x="461.421221" y="563320.522239" style="fill: #8a8f98; stroke: #8a8f98"/>
     <use xlink:href="#md185efa839" x="467.328701" y="563316.01619" style="fill: #8a8f98; stroke: #8a8f98"/>
     <use xlink:href="#md185efa839" x="473.236181" y="563323.293885" style="fill: #8a8f98; stroke: #8a8f98"/>
     <use xlink:href="#md185efa839" x="479.14366" y="563330.384537" style="fill: #8a8f98; stroke: #8a8f98"/>
     <use xlink:href="#md185efa839" x="485.05114" y="563338.665467" style="fill: #8a8f98; stroke: #8a8f98"/>
     <use xlink:href="#md185efa839" x="490.95862" y="563327.017753" style="fill: #8a8f98; stroke: #8a8f98"/>
     <use xlink:href="#md185efa839" x="496.8661" y="563324.77323" style="fill: #8a8f98; stroke: #8a8f98"/>
     <use xlink:href="#md185efa839" x="502.77358" y="563321.151386" style="fill: #8a8f98; stroke: #8a8f98"/>
     <use xlink:href="#md185efa839" x="508.68106" y="563314.400813" style="fill: #8a8f98; stroke: #8a8f98"/>
     <use xlink:href="#md185efa839" x="514.58854" y="563320.26718" style="fill: #8a8f98; stroke: #8a8f98"/>
     <use xlink:href="#md185efa839" x="520.496019" y="563303.31423" style="fill: #8a8f98; stroke: #8a8f98"/>
     <use xlink:href="#md185efa839" x="526.403499" y="563283.623643" style="fill: #8a8f98; stroke: #8a8f98"/>
     <use xlink:href="#md185efa839" x="532.310979" y="563273.455274" style="fill: #8a8f98; stroke: #8a8f98"/>
     <use xlink:href="#md185efa839" x="538.218459" y="563261.093393" style="fill: #8a8f98; stroke: #8a8f98"/>
     <use xlink:href="#md185efa839" x="544.125939" y="563247.626256" style="fill: #8a8f98; stroke: #8a8f98"/>
    </g>
   </g>
   <g id="line2d_18">
    <path d="M 77.43503 563323.350983 
L 83.34251 563323.586114 
L 89.24999 563323.821244 
L 95.157469 563324.056375 
L 101.064949 563324.291505 
L 106.972429 563324.526635 
L 112.879909 563324.761766 
L 118.787389 563324.996896 
L 124.694869 563325.232027 
L 130.602349 563325.467157 
L 136.509828 563325.702288 
L 142.417308 563325.937418 
L 148.324788 563326.172549 
L 154.232268 563326.407679 
L 160.139748 563326.642809 
L 166.047228 563326.87794 
L 171.954708 563327.11307 
L 177.862187 563327.348201 
L 183.769667 563327.583331 
L 189.677147 563327.818462 
L 195.584627 563328.053592 
L 201.492107 563328.288722 
L 207.399587 563328.523853 
L 213.307067 563328.758983 
L 219.214547 563328.994114 
L 225.122026 563329.229244 
L 231.029506 563329.464375 
L 236.936986 563329.699505 
L 242.844466 563329.934636 
L 248.751946 563330.169766 
L 254.659426 563330.404896 
L 260.566906 563330.640027 
L 266.474385 563330.875157 
L 272.381865 563331.110288 
L 278.289345 563331.345418 
L 284.196825 563331.580549 
L 290.104305 563331.815679 
L 296.011785 563332.05081 
L 301.919265 563332.28594 
L 307.826744 563332.52107 
L 313.734224 563332.756201 
L 319.641704 563332.991331 
L 325.549184 563333.226462 
L 331.456664 563333.461592 
L 337.364144 563333.696723 
L 343.271624 563333.931853 
L 349.179103 563334.166984 
L 355.086583 563334.402114 
L 360.994063 563334.637244 
L 366.901543 563334.872375 
L 372.809023 563335.107505 
L 378.716503 563335.342636 
L 384.623983 563335.577766 
L 390.531463 563335.812897 
L 396.438942 563336.048027 
L 402.346422 563336.283158 
L 408.253902 563336.518288 
L 414.161382 563336.753418 
L 420.068862 563336.988549 
L 425.976342 563337.223679 
L 431.883822 563337.45881 
L 437.791301 563337.69394 
L 443.698781 563337.929071 
L 449.606261 563338.164201 
L 455.513741 563338.399331 
L 461.421221 563338.634462 
L 467.328701 563338.869592 
L 473.236181 563339.104723 
L 479.14366 563339.339853 
L 485.05114 563339.574984 
L 490.95862 563339.810114 
L 496.8661 563340.045245 
L 502.77358 563340.280375 
L 508.68106 563340.515505 
L 514.58854 563340.750636 
L 520.496019 563340.985766 
L 526.403499 563341.220897 
L 532.310979 563341.456027 
L 538.218459 563341.691158 
L 544.125939 563341.926288 
" clip-path="url(#p9297a7b9c7)" style="fill: none; stroke: #1f8a56; stroke-width: 2.2; stroke-linecap: square"/>
   </g>
   <g id="line2d_19">
    <path d="M 77.43503 563362.920563 
L 83.34251 563348.952642 
L 89.24999 563336.099663 
L 95.157469 563330.807431 
L 101.064949 563332.849737 
L 106.972429 563339.305263 
L 112.879909 563346.845123 
L 118.787389 563352.871206 
L 124.694869 563355.914391 
L 130.602349 563355.594281 
L 136.509828 563352.355389 
L 142.417308 563347.125847 
L 148.324788 563340.991207 
L 154.232268 563334.935324 
L 160.139748 563329.670742 
L 166.047228 563325.56029 
L 171.954708 563322.618313 
L 177.862187 563320.572389 
L 183.769667 563318.963304 
L 189.677147 563317.2613 
L 195.584627 563314.979167 
L 201.492107 563311.766752 
L 207.399587 563307.476284 
L 213.307067 563302.192882 
L 219.214547 563296.229355 
L 225.122026 563290.088544 
L 231.029506 563284.399769 
L 236.936986 563279.838266 
L 242.844466 563277.03776 
L 248.751946 563276.506603 
L 254.659426 563278.557118 
L 260.566906 563283.256257 
L 266.474385 563290.403377 
L 272.381865 563299.538185 
L 278.289345 563309.978886 
L 284.196825 563320.887451 
L 290.104305 563331.356083 
L 296.011785 563340.506466 
L 301.919265 563347.591554 
L 307.826744 563352.088661 
L 313.734224 563353.772531 
L 319.641704 563352.758112 
L 325.549184 563349.504872 
L 331.456664 563344.777708 
L 337.364144 563339.563754 
L 343.271624 563334.949379 
L 349.179103 563331.967298 
L 355.086583 563331.42941 
L 360.994063 563333.766409 
L 366.901543 563338.899647 
L 372.809023 563346.173437 
L 378.716503 563354.376139 
L 384.623983 563361.874764 
L 390.531463 563366.879434 
L 396.438942 563367.839272 
L 402.346422 563363.948729 
L 408.253902 563355.711132 
L 414.161382 563345.462422 
L 420.068862 563337.700423 
L 425.976342 563338.991179 
L 431.883822 563357.131235 
L 437.791301 563399.130308 
L 443.698781 563467.439571 
L 444.487383 563478.952409 
M 466.022966 563478.952409 
L 467.328701 563436.24169 
L 473.236181 562846.749215 
L 479.14366 561536.798085 
L 485.05114 559009.715183 
L 490.95862 554529.978374 
L 496.8661 547037.631511 
L 502.77358 535039.263832 
L 508.68106 516470.624515 
L 514.58854 488525.155037 
L 520.496019 447441.840615 
L 526.403499 388244.799835 
L 532.310979 304425.94036 
L 538.218459 187560.79984 
L 544.125939 26846.355998 
" clip-path="url(#p9297a7b9c7)" style="fill: none; stroke: #b91c1c; stroke-width: 2.2; stroke-linecap: square"/>
   </g>
   <g id="line2d_20">
    <path d="M 431.883822 563445.722409 
L 431.883822 563179.610409 
" clip-path="url(#p9297a7b9c7)" style="fill: none; stroke-dasharray: 5.18,2.24; stroke-dashoffset: 0; stroke: #1f2937; stroke-width: 1.4"/>
   </g>
   <g id="patch_3">
    <path d="M 54.100484 563445.722409 
L 54.100484 563179.610409 
" style="fill: none; stroke: #1f2937; stroke-width: 0.8; stroke-linejoin: miter; stroke-linecap: square"/>
   </g>
   <g id="patch_4">
    <path d="M 54.100484 563445.722409 
L 567.460484 563445.722409 
" style="fill: none; stroke: #1f2937; stroke-width: 0.8; stroke-linejoin: miter; stroke-linecap: square"/>
   </g>
   <g id="text_11">
    <text style="font-weight: 700; font-size: 9px; font-family: 'Noto Naskh Arabic', 'DejaVu Sans'; text-anchor: end; fill: #1f2937" x="420.068862" y="16.821" transform="rotate(-0 420.068862 16.821)">​ﺐﻳﺭﺪﺘﻟﺍ ﺕﺎﻧﺎﻴﺑ</text>
   </g>
   <g id="text_12">
    <text style="font-weight: 700; font-size: 9px; font-family: 'Noto Naskh Arabic', 'DejaVu Sans'; text-anchor: start; fill: #b91c1c" x="443.698781" y="16.821" transform="rotate(-0 443.698781 16.821)">​ﻲﺋﺮﻤﻟﺍ ﺮﻴﻏ ﻞﺒﻘﺘﺴﻤﻟﺍ</text>
   </g>
   <g id="legend_1">
    <g id="line2d_21">
     <g>
      <use xlink:href="#md185efa839" x="71.200484" y="563389.112409" style="fill: #8a8f98; stroke: #8a8f98"/>
     </g>
    </g>
    <g id="text_13">
     <text style="font-size: 9px; font-family: 'Noto Naskh Arabic', 'DejaVu Sans'; text-anchor: start; fill: #1f2937" x="87.400484" y="563392.262409" transform="rotate(-0 87.400484 563392.262409)">​(ﻲﻣﻮﻳ) ﻲﻘﻴﻘﺤﻟﺍ GOOG ﺮﻌﺳ</text>
    </g>
    <g id="line2d_22">
     <path d="M 62.200484 563408.939409 
L 71.200484 563408.939409 
L 80.200484 563408.939409 
" style="fill: none; stroke: #1f8a56; stroke-width: 2.2; stroke-linecap: square"/>
    </g>
    <g id="text_14">
     <text style="font-size: 9px; font-family: 'Noto Naskh Arabic', 'DejaVu Sans'; text-anchor: start; fill: #1f2937" x="87.400484" y="563412.089409" transform="rotate(-0 87.400484 563412.089409)">​(1 ﺔﺟﺭﺩ) ﻂﻴﺴﺑ ﺝﺫﻮﻤﻧ</text>
    </g>
    <g id="line2d_23">
     <path d="M 62.200484 563428.766409 
L 71.200484 563428.766409 
L 80.200484 563428.766409 
" style="fill: none; stroke: #b91c1c; stroke-width: 2.2; stroke-linecap: square"/>
    </g>
    <g id="text_15">
     <text style="font-size: 9px; font-family: 'Noto Naskh Arabic', 'DejaVu Sans'; text-anchor: start; fill: #1f2937" x="87.400484" y="563431.916409" transform="rotate(-0 87.400484 563431.916409)">​(12 ﺔﺟﺭﺩ) ﺪﻴﻘﻌﺘﻟﺍ ﻁﺮﻔﻣ ﺝﺫﻮﻤﻧ</text>
    </g>
   </g>
  </g>
 </g>
 <defs>
  <clipPath id="p9297a7b9c7">
   <rect x="54.100484" y="563179.610409" width="513.36" height="266.112"/>
  </clipPath>
 </defs>
</svg>
