<?xml version="1.0" encoding="utf-8" standalone="no"?>
<!DOCTYPE svg PUBLIC "-//W3C//DTD SVG 1.1//EN"
  "http://www.w3.org/Graphics/SVG/1.1/DTD/svg11.dtd">
<svg xmlns:xlink="http://www.w3.org/1999/xlink" width="685.95pt" height="325.95pt" viewBox="0 0 685.95 325.95" xmlns="http://www.w3.org/2000/svg" version="1.1">
 <metadata>
  <rdf:RDF xmlns:dc="http://purl.org/dc/elements/1.1/" xmlns:cc="http://creativecommons.org/ns#" xmlns:rdf="http://www.w3.org/1999/02/22-rdf-syntax-ns#">
   <cc:Work>
    <dc:type rdf:resource="http://purl.org/dc/dcmitype/StillImage"/>
    <dc:date>2026-07-20T03:47:41.976792</dc:date>
    <dc:format>image/svg+xml</dc:format>
    <dc:creator>
     <cc:Agent>
      <dc:title>Matplotlib v3.11.1, https://matplotlib.org/</dc:title>
     </cc:Agent>
    </dc:creator>
   </cc:Work>
  </rdf:RDF>
 </metadata>
 <defs>
  <style type="text/css">*{stroke-linejoin: round; stroke-linecap: butt}</style>
 </defs>
 <g id="figure_1">
  <g id="patch_1">
   <path d="M 0 325.95 
L 685.95 325.95 
L 685.95 0 
L 0 0 
z
" style="fill: #ffffff"/>
  </g>
  <g id="axes_1">
   <g id="patch_2">
    <path d="M 48.094156 293.72 
L 678.75 293.72 
L 678.75 7.2 
L 48.094156 7.2 
z
" style="fill: #ffffff"/>
   </g>
   <g id="matplotlib.axis_1">
    <g id="text_1">
     <text style="font-size: 10px; font-family: 'Noto Naskh Arabic', 'DejaVu Sans'; text-anchor: middle; fill: #1f2937" x="363.422078" y="312.41" transform="rotate(-0 363.422078 312.41)">​ﺐﻳﺭﺪﺗ ﺓﺩﺎﻋﺇ ﻥﻭﺩ ﻙﺮﺗ ﻢﺛ ﺎﻣﻮﻳ 750 ﻝﻭﺃ ﻰﻠﻋ ﺏﺭﺩ ﺝﺫﻮﻤﻧ — GOOG ﻡﺎﻳﺃ</text>
    </g>
   </g>
   <g id="matplotlib.axis_2">
    <g id="ytick_1">
     <g id="line2d_1">
      <path d="M 48.094156 264.881948 
L 678.75 264.881948 
" clip-path="url(#p0786efaf7c)" style="fill: none; stroke: #e6e1d6; stroke-width: 0.8; stroke-linecap: square"/>
     </g>
     <g id="line2d_2">
      <defs>
       <path id="mdf15d0c164" d="M 0 0 
L -3.5 0 
" style="stroke: #555555; stroke-width: 0.8"/>
      </defs>
      <g>
       <use xlink:href="#mdf15d0c164" x="48.094156" y="264.881948" style="fill: #555555; stroke: #555555; stroke-width: 0.8"/>
      </g>
     </g>
     <g id="text_2">
      <text style="font-size: 10.5px; font-family: 'Noto Naskh Arabic', 'DejaVu Sans'; text-anchor: end; fill: #555555" x="41.094156" y="270.494198" transform="rotate(-0 41.094156 270.494198)">45</text>
     </g>
    </g>
    <g id="ytick_2">
     <g id="line2d_3">
      <path d="M 48.094156 206.275584 
L 678.75 206.275584 
" clip-path="url(#p0786efaf7c)" style="fill: none; stroke: #e6e1d6; stroke-width: 0.8; stroke-linecap: square"/>
     </g>
     <g id="line2d_4">
      <g>
       <use xlink:href="#mdf15d0c164" x="48.094156" y="206.275584" style="fill: #555555; stroke: #555555; stroke-width: 0.8"/>
      </g>
     </g>
     <g id="text_3">
      <text style="font-size: 10.5px; font-family: 'Noto Naskh Arabic', 'DejaVu Sans'; text-anchor: end; fill: #555555" x="41.094156" y="211.887834" transform="rotate(-0 41.094156 211.887834)">50</text>
     </g>
    </g>
    <g id="ytick_3">
     <g id="line2d_5">
      <path d="M 48.094156 147.669221 
L 678.75 147.669221 
" clip-path="url(#p0786efaf7c)" style="fill: none; stroke: #e6e1d6; stroke-width: 0.8; stroke-linecap: square"/>
     </g>
     <g id="line2d_6">
      <g>
       <use xlink:href="#mdf15d0c164" x="48.094156" y="147.669221" style="fill: #555555; stroke: #555555; stroke-width: 0.8"/>
      </g>
     </g>
     <g id="text_4">
      <text style="font-size: 10.5px; font-family: 'Noto Naskh Arabic', 'DejaVu Sans'; text-anchor: end; fill: #555555" x="41.094156" y="153.281471" transform="rotate(-0 41.094156 153.281471)">55</text>
     </g>
    </g>
    <g id="ytick_4">
     <g id="line2d_7">
      <path d="M 48.094156 89.062857 
L 678.75 89.062857 
" clip-path="url(#p0786efaf7c)" style="fill: none; stroke: #e6e1d6; stroke-width: 0.8; stroke-linecap: square"/>
     </g>
     <g id="line2d_8">
      <g>
       <use xlink:href="#mdf15d0c164" x="48.094156" y="89.062857" style="fill: #555555; stroke: #555555; stroke-width: 0.8"/>
      </g>
     </g>
     <g id="text_5">
      <text style="font-size: 10.5px; font-family: 'Noto Naskh Arabic', 'DejaVu Sans'; text-anchor: end; fill: #555555" x="41.094156" y="94.675107" transform="rotate(-0 41.094156 94.675107)">60</text>
     </g>
    </g>
    <g id="ytick_5">
     <g id="line2d_9">
      <path d="M 48.094156 30.456494 
L 678.75 30.456494 
" clip-path="url(#p0786efaf7c)" style="fill: none; stroke: #e6e1d6; stroke-width: 0.8; stroke-linecap: square"/>
     </g>
     <g id="line2d_10">
      <g>
       <use xlink:href="#mdf15d0c164" x="48.094156" y="30.456494" style="fill: #555555; stroke: #555555; stroke-width: 0.8"/>
      </g>
     </g>
     <g id="text_6">
      <text style="font-size: 10.5px; font-family: 'Noto Naskh Arabic', 'DejaVu Sans'; text-anchor: end; fill: #555555" x="41.094156" y="36.068744" transform="rotate(-0 41.094156 36.068744)">65</text>
     </g>
    </g>
    <g id="text_7">
     <text style="font-size: 10.5px; font-family: 'Noto Naskh Arabic', 'DejaVu Sans'; text-anchor: middle; fill: #1f2937" x="18.4245" y="150.46" transform="rotate(-90 18.4245 150.46)">​% (ﺎﻣﻮﻳ 126) ﺔﻛﺮﺤﺘﻤﻟﺍ ﺔﻗﺪﻟﺍ</text>
    </g>
   </g>
   <g id="line2d_11">
    <path d="M 76.760331 113.24961 
L 77.906405 113.24961 
L 78.192923 103.947013 
L 80.198553 103.947013 
L 80.485071 94.644416 
L 80.77159 103.947013 
L 81.344627 85.341818 
L 82.204182 113.24961 
L 82.490701 113.24961 
L 82.777219 122.552208 
L 83.350256 103.947013 
L 83.636775 103.947013 
L 83.923293 94.644416 
L 84.209812 103.947013 
L 84.49633 94.644416 
L 84.782849 103.947013 
L 85.069367 103.947013 
L 85.355886 94.644416 
L 86.50196 94.644416 
L 86.788478 103.947013 
L 87.074997 94.644416 
L 87.361515 94.644416 
L 87.648034 103.947013 
L 87.934552 94.644416 
L 88.794107 94.644416 
L 89.080626 85.341818 
L 92.232329 85.341818 
L 92.518848 76.039221 
L 93.091885 76.039221 
L 93.378403 66.736623 
L 93.664922 66.736623 
L 93.95144 57.434026 
L 94.524477 76.039221 
L 94.810996 66.736623 
L 95.384033 66.736623 
L 95.670551 57.434026 
L 96.530107 57.434026 
L 97.103144 76.039221 
L 97.389662 76.039221 
L 97.676181 66.736623 
L 98.249218 66.736623 
L 98.535736 57.434026 
L 98.822255 57.434026 
L 99.108773 66.736623 
L 99.395292 66.736623 
L 99.68181 57.434026 
L 99.968328 57.434026 
L 100.254847 48.131429 
L 100.541365 57.434026 
L 100.827884 57.434026 
L 101.400921 38.828831 
L 101.687439 48.131429 
L 101.973958 48.131429 
L 102.260476 57.434026 
L 102.546995 48.131429 
L 102.833513 48.131429 
L 103.120032 57.434026 
L 103.693069 38.828831 
L 103.979587 48.131429 
L 104.839143 48.131429 
L 105.41218 66.736623 
L 105.698698 66.736623 
L 105.985217 76.039221 
L 106.271735 76.039221 
L 106.558254 66.736623 
L 107.990846 66.736623 
L 108.277365 76.039221 
L 109.13692 48.131429 
L 109.423439 57.434026 
L 109.709957 57.434026 
L 109.996476 48.131429 
L 110.569513 48.131429 
L 110.856031 38.828831 
L 111.14255 38.828831 
L 111.429068 29.526234 
L 111.715586 29.526234 
L 112.002105 20.223636 
L 112.575142 38.828831 
L 113.148179 38.828831 
L 113.434697 29.526234 
L 113.721216 29.526234 
L 114.007734 38.828831 
L 114.580771 38.828831 
L 115.153808 57.434026 
L 115.440327 48.131429 
L 115.726845 57.434026 
L 116.013364 57.434026 
L 116.586401 76.039221 
L 116.872919 66.736623 
L 117.159438 66.736623 
L 117.445956 76.039221 
L 118.878549 76.039221 
L 119.165067 85.341818 
L 119.451586 85.341818 
L 119.738104 94.644416 
L 120.311141 94.644416 
L 120.59766 103.947013 
L 120.884178 94.644416 
L 121.170697 103.947013 
L 122.030252 103.947013 
L 122.316771 94.644416 
L 122.603289 94.644416 
L 122.889808 85.341818 
L 123.176326 85.341818 
L 123.462844 94.644416 
L 125.181955 94.644416 
L 125.754992 113.24961 
L 126.328029 113.24961 
L 126.614548 103.947013 
L 126.901066 103.947013 
L 127.474103 122.552208 
L 127.760622 113.24961 
L 128.333659 113.24961 
L 128.620177 122.552208 
L 129.479733 122.552208 
L 129.766251 131.854805 
L 130.05277 131.854805 
L 130.625807 113.24961 
L 131.198844 113.24961 
L 131.485362 122.552208 
L 131.771881 122.552208 
L 132.058399 131.854805 
L 132.344918 131.854805 
L 132.631436 141.157403 
L 132.917955 141.157403 
L 133.204473 131.854805 
L 133.77751 150.46 
L 134.923584 150.46 
L 135.496621 131.854805 
L 135.783139 131.854805 
L 136.069658 141.157403 
L 136.356176 141.157403 
L 136.642695 131.854805 
L 137.215732 150.46 
L 138.361806 150.46 
L 138.934843 169.065195 
L 140.653954 169.065195 
L 142.086546 122.552208 
L 143.23262 122.552208 
L 143.519139 131.854805 
L 144.665213 131.854805 
L 144.951731 141.157403 
L 145.524768 141.157403 
L 145.811287 131.854805 
L 146.097805 131.854805 
L 146.384324 141.157403 
L 146.670842 131.854805 
L 146.957361 141.157403 
L 147.530397 141.157403 
L 147.816916 150.46 
L 148.676471 150.46 
L 148.96299 141.157403 
L 149.249508 150.46 
L 149.536027 150.46 
L 149.822545 159.762597 
L 150.109064 150.46 
L 150.395582 159.762597 
L 150.968619 141.157403 
L 152.401212 141.157403 
L 152.68773 131.854805 
L 152.974249 141.157403 
L 154.120323 141.157403 
L 154.406841 131.854805 
L 154.69336 131.854805 
L 154.979878 122.552208 
L 155.552915 122.552208 
L 155.839434 113.24961 
L 156.125952 122.552208 
L 156.698989 122.552208 
L 156.985508 131.854805 
L 157.272026 122.552208 
L 157.558545 131.854805 
L 158.991137 131.854805 
L 159.277655 141.157403 
L 159.564174 141.157403 
L 159.850692 131.854805 
L 160.137211 141.157403 
L 160.423729 141.157403 
L 160.710248 150.46 
L 160.996766 150.46 
L 161.283285 159.762597 
L 161.569803 159.762597 
L 161.856322 150.46 
L 162.429359 150.46 
L 163.002396 169.065195 
L 163.575433 169.065195 
L 163.861951 178.367792 
L 164.721507 178.367792 
L 165.008025 169.065195 
L 165.581062 187.67039 
L 165.867581 187.67039 
L 166.154099 196.972987 
L 166.440618 196.972987 
L 167.300173 224.880779 
L 167.586692 215.578182 
L 167.87321 224.880779 
L 168.159729 215.578182 
L 168.446247 224.880779 
L 168.732766 224.880779 
L 169.019284 215.578182 
L 169.305803 215.578182 
L 169.87884 196.972987 
L 170.165358 206.275584 
L 170.451877 206.275584 
L 171.024913 224.880779 
L 171.311432 224.880779 
L 171.884469 243.485974 
L 174.176617 243.485974 
L 174.463135 234.183377 
L 174.749654 234.183377 
L 175.036172 224.880779 
L 175.322691 224.880779 
L 175.895728 243.485974 
L 176.468765 243.485974 
L 176.755283 234.183377 
L 177.041802 234.183377 
L 177.901357 262.091169 
L 178.760913 262.091169 
L 179.047431 271.393766 
L 179.620468 271.393766 
L 179.906987 262.091169 
L 180.193505 271.393766 
L 180.480024 262.091169 
L 180.766542 271.393766 
L 181.053061 262.091169 
L 181.339579 271.393766 
L 181.626098 262.091169 
L 181.912616 271.393766 
L 182.199135 271.393766 
L 182.485653 262.091169 
L 182.772171 271.393766 
L 183.05869 271.393766 
L 183.345208 280.696364 
L 183.631727 280.696364 
L 183.918245 271.393766 
L 184.491282 271.393766 
L 184.777801 262.091169 
L 185.350838 262.091169 
L 185.637356 271.393766 
L 185.923875 262.091169 
L 186.210393 271.393766 
L 186.496912 262.091169 
L 186.78343 262.091169 
L 187.069949 271.393766 
L 187.356467 262.091169 
L 187.642986 271.393766 
L 188.216023 271.393766 
L 188.502541 262.091169 
L 188.78906 271.393766 
L 189.075578 262.091169 
L 189.935134 262.091169 
L 190.221652 252.788571 
L 191.081208 280.696364 
L 191.940763 280.696364 
L 192.227282 271.393766 
L 192.5138 271.393766 
L 192.800319 262.091169 
L 193.086837 262.091169 
L 193.373356 271.393766 
L 193.659874 262.091169 
L 194.232911 280.696364 
L 195.378985 280.696364 
L 195.665503 271.393766 
L 195.952022 280.696364 
L 196.23854 271.393766 
L 196.525059 280.696364 
L 196.811577 271.393766 
L 197.098096 271.393766 
L 197.671133 252.788571 
L 197.957651 262.091169 
L 198.24417 262.091169 
L 198.530688 271.393766 
L 199.103725 271.393766 
L 200.249799 234.183377 
L 200.536318 234.183377 
L 200.822836 224.880779 
L 201.395873 224.880779 
L 201.682392 215.578182 
L 202.255429 215.578182 
L 202.541947 224.880779 
L 202.828466 215.578182 
L 203.688021 215.578182 
L 203.97454 206.275584 
L 204.261058 215.578182 
L 204.834095 196.972987 
L 205.120614 196.972987 
L 205.693651 215.578182 
L 205.980169 215.578182 
L 206.266688 206.275584 
L 206.839724 206.275584 
L 207.126243 196.972987 
L 207.412761 196.972987 
L 207.985798 178.367792 
L 208.272317 178.367792 
L 208.845354 196.972987 
L 209.131872 187.67039 
L 209.418391 187.67039 
L 209.704909 196.972987 
L 210.564465 196.972987 
L 210.850983 187.67039 
L 211.137502 187.67039 
L 211.42402 178.367792 
L 211.997057 178.367792 
L 212.283576 169.065195 
L 213.143131 169.065195 
L 213.42965 159.762597 
L 214.862242 159.762597 
L 215.435279 141.157403 
L 215.721798 141.157403 
L 216.008316 150.46 
L 216.294835 150.46 
L 216.581353 159.762597 
L 216.867872 150.46 
L 217.440909 150.46 
L 217.727427 159.762597 
L 218.013946 159.762597 
L 218.586982 178.367792 
L 218.873501 178.367792 
L 219.160019 169.065195 
L 220.019575 169.065195 
L 220.306093 178.367792 
L 220.592612 178.367792 
L 220.87913 187.67039 
L 221.165649 187.67039 
L 221.452167 178.367792 
L 222.311723 178.367792 
L 222.88476 196.972987 
L 223.457797 196.972987 
L 223.744315 187.67039 
L 224.317352 187.67039 
L 224.603871 196.972987 
L 224.890389 196.972987 
L 225.176908 206.275584 
L 225.749945 206.275584 
L 226.036463 196.972987 
L 226.322982 206.275584 
L 226.6095 196.972987 
L 226.896019 196.972987 
L 227.182537 187.67039 
L 227.469056 187.67039 
L 227.755574 196.972987 
L 228.61513 196.972987 
L 228.901648 206.275584 
L 230.33424 206.275584 
L 230.620759 215.578182 
L 230.907277 215.578182 
L 231.193796 224.880779 
L 231.480314 215.578182 
L 231.766833 224.880779 
L 232.053351 224.880779 
L 232.33987 234.183377 
L 232.626388 234.183377 
L 232.912907 243.485974 
L 233.485944 243.485974 
L 233.772462 252.788571 
L 234.058981 243.485974 
L 234.345499 243.485974 
L 234.918536 224.880779 
L 236.06461 224.880779 
L 236.637647 243.485974 
L 236.924166 243.485974 
L 237.210684 252.788571 
L 238.07024 252.788571 
L 238.643277 234.183377 
L 238.929795 243.485974 
L 239.216314 243.485974 
L 239.502832 234.183377 
L 240.075869 234.183377 
L 240.362388 224.880779 
L 241.221943 252.788571 
L 241.79498 234.183377 
L 242.081498 234.183377 
L 242.368017 243.485974 
L 242.654535 243.485974 
L 242.941054 234.183377 
L 244.087128 234.183377 
L 244.373646 224.880779 
L 244.946683 224.880779 
L 245.233202 234.183377 
L 245.806239 234.183377 
L 246.379276 215.578182 
L 246.665794 224.880779 
L 246.952313 224.880779 
L 247.238831 234.183377 
L 248.384905 234.183377 
L 248.671424 243.485974 
L 248.957942 243.485974 
L 249.244461 252.788571 
L 250.104016 252.788571 
L 250.390535 262.091169 
L 250.677053 262.091169 
L 250.963572 271.393766 
L 251.536609 271.393766 
L 251.823127 262.091169 
L 252.109646 262.091169 
L 252.396164 252.788571 
L 252.682683 252.788571 
L 252.969201 262.091169 
L 253.542238 262.091169 
L 254.401793 234.183377 
L 254.97483 234.183377 
L 255.261349 243.485974 
L 255.547867 234.183377 
L 256.120904 234.183377 
L 256.407423 224.880779 
L 256.693941 224.880779 
L 256.98046 215.578182 
L 257.553497 215.578182 
L 257.840015 206.275584 
L 258.126534 206.275584 
L 258.413052 196.972987 
L 260.132163 196.972987 
L 260.418682 206.275584 
L 261.278237 178.367792 
L 262.424311 178.367792 
L 262.71083 187.67039 
L 263.283867 187.67039 
L 263.856904 169.065195 
L 264.716459 169.065195 
L 265.576015 141.157403 
L 266.149051 141.157403 
L 266.722088 122.552208 
L 267.295125 122.552208 
L 267.581644 131.854805 
L 267.868162 131.854805 
L 268.154681 122.552208 
L 268.441199 122.552208 
L 268.727718 113.24961 
L 269.014236 113.24961 
L 269.587273 131.854805 
L 269.873792 131.854805 
L 270.16031 141.157403 
L 270.446829 141.157403 
L 270.733347 150.46 
L 271.592903 150.46 
L 272.16594 169.065195 
L 272.738977 150.46 
L 273.312014 150.46 
L 273.598532 141.157403 
L 273.885051 150.46 
L 274.171569 141.157403 
L 274.458088 141.157403 
L 274.744606 150.46 
L 275.031125 150.46 
L 275.317643 141.157403 
L 275.604162 150.46 
L 276.463717 150.46 
L 276.750236 141.157403 
L 277.036754 141.157403 
L 277.323273 131.854805 
L 278.182828 159.762597 
L 278.469346 159.762597 
L 278.755865 169.065195 
L 279.61542 169.065195 
L 280.474976 196.972987 
L 280.761494 196.972987 
L 281.907568 159.762597 
L 282.194087 169.065195 
L 283.340161 169.065195 
L 283.626679 178.367792 
L 284.199716 178.367792 
L 284.486235 187.67039 
L 284.772753 178.367792 
L 285.059272 187.67039 
L 285.918827 187.67039 
L 286.205346 178.367792 
L 287.924457 178.367792 
L 288.210975 169.065195 
L 288.497494 178.367792 
L 289.070531 178.367792 
L 289.357049 187.67039 
L 289.643567 178.367792 
L 290.216604 196.972987 
L 290.503123 196.972987 
L 291.362678 169.065195 
L 291.649197 178.367792 
L 292.222234 178.367792 
L 292.508752 187.67039 
L 293.368308 187.67039 
L 293.941345 206.275584 
L 294.227863 206.275584 
L 294.514382 215.578182 
L 295.087419 215.578182 
L 295.373937 206.275584 
L 295.660456 206.275584 
L 295.946974 215.578182 
L 296.520011 196.972987 
L 297.093048 215.578182 
L 297.379567 215.578182 
L 297.666085 224.880779 
L 298.525641 224.880779 
L 299.098678 206.275584 
L 299.958233 206.275584 
L 300.53127 224.880779 
L 300.817789 215.578182 
L 301.104307 224.880779 
L 301.390825 224.880779 
L 301.963862 243.485974 
L 302.250381 234.183377 
L 302.536899 234.183377 
L 303.109936 252.788571 
L 303.396455 243.485974 
L 303.682973 243.485974 
L 303.969492 234.183377 
L 304.25601 243.485974 
L 304.542529 243.485974 
L 304.829047 252.788571 
L 305.115566 252.788571 
L 305.402084 243.485974 
L 305.975121 243.485974 
L 306.26164 234.183377 
L 307.121195 234.183377 
L 307.407714 224.880779 
L 307.694232 234.183377 
L 307.980751 234.183377 
L 308.267269 224.880779 
L 308.553788 224.880779 
L 309.126825 243.485974 
L 309.413343 234.183377 
L 309.699862 243.485974 
L 309.98638 243.485974 
L 310.272899 252.788571 
L 311.132454 252.788571 
L 311.418973 262.091169 
L 311.705491 262.091169 
L 311.99201 271.393766 
L 313.424602 271.393766 
L 314.284157 243.485974 
L 314.570676 243.485974 
L 314.857194 234.183377 
L 315.430231 252.788571 
L 316.003268 252.788571 
L 316.289787 243.485974 
L 316.576305 243.485974 
L 316.862824 234.183377 
L 318.008898 271.393766 
L 318.295416 262.091169 
L 318.581935 262.091169 
L 318.868453 252.788571 
L 319.154972 252.788571 
L 319.44149 243.485974 
L 319.728009 243.485974 
L 320.014527 234.183377 
L 320.587564 234.183377 
L 320.874083 243.485974 
L 321.160601 243.485974 
L 321.44712 234.183377 
L 321.733638 234.183377 
L 322.020157 224.880779 
L 322.306675 234.183377 
L 322.879712 215.578182 
L 323.166231 215.578182 
L 323.739268 234.183377 
L 324.025786 234.183377 
L 324.312305 243.485974 
L 325.17186 243.485974 
L 325.458378 234.183377 
L 325.744897 234.183377 
L 326.317934 215.578182 
L 326.604452 224.880779 
L 327.464008 224.880779 
L 327.750526 215.578182 
L 328.037045 215.578182 
L 328.323563 224.880779 
L 328.610082 224.880779 
L 328.8966 215.578182 
L 329.183119 224.880779 
L 330.329193 224.880779 
L 330.90223 206.275584 
L 331.188748 206.275584 
L 331.761785 224.880779 
L 332.048304 224.880779 
L 332.334822 234.183377 
L 332.621341 234.183377 
L 333.194378 215.578182 
L 333.480896 215.578182 
L 333.767415 206.275584 
L 334.053933 206.275584 
L 334.340452 215.578182 
L 334.62697 206.275584 
L 335.200007 224.880779 
L 335.773044 224.880779 
L 336.059563 234.183377 
L 336.346081 234.183377 
L 336.6326 224.880779 
L 336.919118 224.880779 
L 337.205636 215.578182 
L 337.492155 224.880779 
L 338.065192 206.275584 
L 338.35171 206.275584 
L 338.638229 215.578182 
L 338.924747 215.578182 
L 339.211266 206.275584 
L 339.497784 215.578182 
L 339.784303 206.275584 
L 340.070821 206.275584 
L 340.643858 187.67039 
L 340.930377 187.67039 
L 341.216895 178.367792 
L 341.503414 187.67039 
L 341.789932 178.367792 
L 342.362969 178.367792 
L 342.649488 187.67039 
L 342.936006 178.367792 
L 343.509043 196.972987 
L 343.795562 187.67039 
L 344.368599 187.67039 
L 344.655117 196.972987 
L 345.228154 196.972987 
L 345.514673 206.275584 
L 346.08771 187.67039 
L 346.660747 187.67039 
L 347.520302 159.762597 
L 347.806821 159.762597 
L 348.093339 150.46 
L 348.952894 178.367792 
L 349.239413 178.367792 
L 349.525931 187.67039 
L 350.385487 187.67039 
L 350.672005 178.367792 
L 351.245042 178.367792 
L 351.531561 169.065195 
L 352.104598 169.065195 
L 352.391116 178.367792 
L 355.256301 178.367792 
L 355.54282 187.67039 
L 356.402375 187.67039 
L 357.261931 159.762597 
L 357.548449 159.762597 
L 358.121486 178.367792 
L 358.408005 178.367792 
L 358.694523 187.67039 
L 359.26756 187.67039 
L 359.840597 169.065195 
L 360.127116 169.065195 
L 360.700152 150.46 
L 361.273189 150.46 
L 361.559708 159.762597 
L 362.132745 159.762597 
L 362.419263 169.065195 
L 363.278819 169.065195 
L 363.565337 178.367792 
L 364.424893 178.367792 
L 364.711411 169.065195 
L 364.99793 178.367792 
L 365.284448 178.367792 
L 365.570967 187.67039 
L 366.144004 169.065195 
L 366.430522 178.367792 
L 366.717041 178.367792 
L 367.003559 187.67039 
L 367.290078 187.67039 
L 368.436152 150.46 
L 369.009189 169.065195 
L 370.155263 169.065195 
L 370.441781 159.762597 
L 370.7283 159.762597 
L 371.014818 150.46 
L 371.587855 150.46 
L 371.874374 159.762597 
L 372.44741 141.157403 
L 373.020447 159.762597 
L 373.306966 159.762597 
L 373.593484 150.46 
L 373.880003 159.762597 
L 374.45304 159.762597 
L 374.739558 150.46 
L 375.312595 150.46 
L 375.599114 141.157403 
L 376.745188 178.367792 
L 377.031706 169.065195 
L 377.604743 169.065195 
L 377.891262 178.367792 
L 378.464299 178.367792 
L 378.750817 169.065195 
L 379.037336 169.065195 
L 379.610373 150.46 
L 379.896891 150.46 
L 380.18341 141.157403 
L 380.469928 141.157403 
L 380.756447 131.854805 
L 381.616002 131.854805 
L 382.189039 150.46 
L 382.475558 150.46 
L 383.335113 178.367792 
L 383.90815 178.367792 
L 384.194668 187.67039 
L 384.481187 187.67039 
L 385.054224 169.065195 
L 385.627261 169.065195 
L 386.200298 187.67039 
L 387.919409 187.67039 
L 388.778964 159.762597 
L 389.065483 169.065195 
L 389.925038 169.065195 
L 390.211557 159.762597 
L 390.498075 159.762597 
L 391.357631 187.67039 
L 391.644149 178.367792 
L 392.217186 178.367792 
L 392.503705 169.065195 
L 393.076742 187.67039 
L 393.36326 187.67039 
L 393.649779 196.972987 
L 393.936297 196.972987 
L 394.509334 178.367792 
L 394.795853 178.367792 
L 395.082371 187.67039 
L 395.36889 178.367792 
L 397.661037 178.367792 
L 398.234074 196.972987 
L 398.520593 196.972987 
L 398.807111 187.67039 
L 399.09363 187.67039 
L 399.380148 196.972987 
L 399.666667 187.67039 
L 400.239704 187.67039 
L 400.526222 178.367792 
L 400.812741 178.367792 
L 401.385778 159.762597 
L 402.531852 159.762597 
L 402.81837 169.065195 
L 403.104889 169.065195 
L 403.391407 159.762597 
L 404.537481 196.972987 
L 405.110518 178.367792 
L 405.397037 178.367792 
L 405.683555 187.67039 
L 405.970074 187.67039 
L 406.256592 178.367792 
L 406.829629 178.367792 
L 407.116148 187.67039 
L 407.402666 178.367792 
L 407.975703 178.367792 
L 408.262221 187.67039 
L 408.835258 187.67039 
L 409.121777 178.367792 
L 409.694814 196.972987 
L 409.981332 187.67039 
L 410.840888 215.578182 
L 411.127406 206.275584 
L 411.700443 206.275584 
L 412.559999 178.367792 
L 413.419554 178.367792 
L 413.706073 169.065195 
L 414.27911 169.065195 
L 414.565628 178.367792 
L 415.425184 178.367792 
L 415.711702 187.67039 
L 416.284739 187.67039 
L 416.857776 206.275584 
L 417.144295 206.275584 
L 418.290369 169.065195 
L 418.576887 169.065195 
L 418.863406 159.762597 
L 419.149924 159.762597 
L 419.436443 150.46 
L 419.722961 159.762597 
L 420.582516 131.854805 
L 421.155553 131.854805 
L 421.442072 122.552208 
L 421.72859 122.552208 
L 422.015109 113.24961 
L 422.588146 113.24961 
L 423.161183 131.854805 
L 424.020738 131.854805 
L 424.593775 150.46 
L 425.166812 150.46 
L 426.026368 122.552208 
L 426.312886 122.552208 
L 426.599405 131.854805 
L 426.885923 131.854805 
L 427.45896 113.24961 
L 427.745479 122.552208 
L 428.031997 122.552208 
L 428.318516 131.854805 
L 428.891553 131.854805 
L 429.178071 122.552208 
L 429.46459 131.854805 
L 429.751108 122.552208 
L 430.324145 122.552208 
L 430.610664 131.854805 
L 430.897182 122.552208 
L 431.470219 122.552208 
L 431.756737 131.854805 
L 432.043256 131.854805 
L 432.902811 159.762597 
L 434.621922 103.947013 
L 435.194959 122.552208 
L 435.481478 113.24961 
L 435.767996 113.24961 
L 436.341033 131.854805 
L 437.200589 131.854805 
L 437.487107 141.157403 
L 437.773626 141.157403 
L 438.060144 150.46 
L 439.492737 150.46 
L 440.352292 122.552208 
L 440.638811 122.552208 
L 440.925329 131.854805 
L 441.211848 131.854805 
L 441.498366 141.157403 
L 441.784885 131.854805 
L 442.64444 131.854805 
L 442.930959 141.157403 
L 443.217477 141.157403 
L 443.790514 159.762597 
L 444.077032 150.46 
L 444.936588 150.46 
L 445.223106 159.762597 
L 445.509625 150.46 
L 446.082662 150.46 
L 446.942217 122.552208 
L 448.661328 178.367792 
L 448.947847 169.065195 
L 449.520884 187.67039 
L 450.666958 187.67039 
L 450.953476 196.972987 
L 451.239995 196.972987 
L 451.526513 206.275584 
L 453.245624 206.275584 
L 453.532143 215.578182 
L 453.818661 215.578182 
L 454.391698 234.183377 
L 454.678217 224.880779 
L 455.251254 224.880779 
L 455.537772 234.183377 
L 455.82429 234.183377 
L 456.110809 243.485974 
L 456.397327 243.485974 
L 456.683846 252.788571 
L 456.970364 252.788571 
L 457.543401 271.393766 
L 458.116438 271.393766 
L 458.402957 262.091169 
L 459.262512 262.091169 
L 459.549031 252.788571 
L 460.122068 252.788571 
L 460.695105 234.183377 
L 460.981623 243.485974 
L 461.268142 234.183377 
L 461.841179 252.788571 
L 462.700734 252.788571 
L 462.987253 243.485974 
L 463.273771 252.788571 
L 463.846808 252.788571 
L 464.133327 243.485974 
L 464.706364 243.485974 
L 464.992882 234.183377 
L 465.279401 243.485974 
L 465.565919 234.183377 
L 465.852438 243.485974 
L 466.425475 243.485974 
L 466.711993 234.183377 
L 466.998512 243.485974 
L 467.28503 243.485974 
L 467.571548 252.788571 
L 467.858067 252.788571 
L 468.144585 262.091169 
L 468.431104 262.091169 
L 469.004141 243.485974 
L 469.863696 243.485974 
L 470.436733 262.091169 
L 470.723252 262.091169 
L 471.00977 252.788571 
L 472.155844 252.788571 
L 472.442363 243.485974 
L 472.728881 252.788571 
L 473.301918 252.788571 
L 474.161474 224.880779 
L 474.734511 224.880779 
L 475.307548 206.275584 
L 475.594066 215.578182 
L 475.880585 215.578182 
L 476.453622 234.183377 
L 476.74014 234.183377 
L 477.026659 224.880779 
L 477.313177 234.183377 
L 479.032288 234.183377 
L 479.605325 215.578182 
L 480.178362 215.578182 
L 480.46488 206.275584 
L 480.751399 206.275584 
L 481.324436 187.67039 
L 481.610954 196.972987 
L 481.897473 187.67039 
L 482.183991 196.972987 
L 483.043547 196.972987 
L 483.903102 169.065195 
L 484.762658 169.065195 
L 485.049176 178.367792 
L 485.335695 178.367792 
L 485.622213 169.065195 
L 486.481769 169.065195 
L 486.768287 159.762597 
L 487.341324 159.762597 
L 487.627843 150.46 
L 487.914361 150.46 
L 488.20088 159.762597 
L 488.773917 159.762597 
L 489.633472 131.854805 
L 489.919991 131.854805 
L 490.493028 113.24961 
L 491.352583 113.24961 
L 491.639101 103.947013 
L 491.92562 103.947013 
L 492.212138 94.644416 
L 492.498657 94.644416 
L 492.785175 85.341818 
L 493.071694 94.644416 
L 493.644731 94.644416 
L 493.931249 85.341818 
L 494.504286 103.947013 
L 495.077323 103.947013 
L 495.363842 94.644416 
L 495.936879 94.644416 
L 496.223397 103.947013 
L 497.369471 103.947013 
L 497.65599 94.644416 
L 497.942508 94.644416 
L 498.515545 113.24961 
L 498.802064 113.24961 
L 499.088582 122.552208 
L 499.948138 122.552208 
L 500.234656 131.854805 
L 500.807693 131.854805 
L 501.094212 141.157403 
L 501.38073 131.854805 
L 501.667249 131.854805 
L 501.953767 122.552208 
L 502.240286 122.552208 
L 502.526804 131.854805 
L 502.813322 131.854805 
L 503.099841 122.552208 
L 503.386359 122.552208 
L 504.245915 94.644416 
L 505.678507 94.644416 
L 505.965026 103.947013 
L 506.538063 85.341818 
L 507.1111 103.947013 
L 507.397618 94.644416 
L 507.970655 113.24961 
L 510.549322 113.24961 
L 510.83584 103.947013 
L 511.408877 122.552208 
L 511.695396 113.24961 
L 511.981914 113.24961 
L 512.554951 94.644416 
L 512.84147 94.644416 
L 513.127988 103.947013 
L 513.414507 94.644416 
L 513.701025 94.644416 
L 514.560581 122.552208 
L 514.847099 122.552208 
L 515.133617 113.24961 
L 515.706654 131.854805 
L 515.993173 122.552208 
L 516.56621 122.552208 
L 517.139247 141.157403 
L 517.425765 141.157403 
L 517.712284 131.854805 
L 518.285321 131.854805 
L 518.571839 141.157403 
L 518.858358 141.157403 
L 519.144876 150.46 
L 521.150506 150.46 
L 521.437024 141.157403 
L 522.583098 141.157403 
L 522.869617 150.46 
L 523.156135 141.157403 
L 523.442654 150.46 
L 523.729172 150.46 
L 524.015691 141.157403 
L 524.875246 141.157403 
L 525.448283 159.762597 
L 525.734802 159.762597 
L 526.594357 187.67039 
L 526.880875 187.67039 
L 527.167394 196.972987 
L 527.453912 196.972987 
L 527.740431 206.275584 
L 528.026949 206.275584 
L 528.886505 234.183377 
L 529.173023 234.183377 
L 529.459542 224.880779 
L 530.032579 224.880779 
L 530.605616 206.275584 
L 530.892134 206.275584 
L 531.178653 196.972987 
L 531.465171 196.972987 
L 532.038208 215.578182 
L 532.324727 206.275584 
L 532.611245 206.275584 
L 532.897764 215.578182 
L 533.184282 206.275584 
L 534.043838 206.275584 
L 534.330356 196.972987 
L 534.616875 196.972987 
L 535.189912 178.367792 
L 535.762949 178.367792 
L 536.622504 150.46 
L 536.909023 150.46 
L 537.195541 141.157403 
L 538.055097 141.157403 
L 538.628133 122.552208 
L 539.20117 141.157403 
L 539.487689 131.854805 
L 539.774207 141.157403 
L 540.060726 141.157403 
L 540.347244 150.46 
L 540.633763 150.46 
L 541.493318 178.367792 
L 541.779837 178.367792 
L 542.066355 169.065195 
L 545.791096 169.065195 
L 546.93717 206.275584 
L 547.223688 196.972987 
L 547.796725 196.972987 
L 548.656281 224.880779 
L 549.229318 224.880779 
L 549.515836 234.183377 
L 549.802355 224.880779 
L 550.088873 224.880779 
L 550.66191 206.275584 
L 551.234947 206.275584 
L 551.521465 196.972987 
L 552.094502 196.972987 
L 552.381021 206.275584 
L 552.954058 206.275584 
L 553.240576 196.972987 
L 553.527095 206.275584 
L 554.100132 206.275584 
L 554.38665 196.972987 
L 554.673169 196.972987 
L 554.959687 206.275584 
L 555.246206 196.972987 
L 555.819243 215.578182 
L 556.105761 215.578182 
L 556.39228 206.275584 
L 556.965317 206.275584 
L 557.251835 196.972987 
L 557.824872 196.972987 
L 558.111391 206.275584 
L 558.970946 206.275584 
L 559.257465 215.578182 
L 559.543983 206.275584 
L 560.11702 224.880779 
L 560.403539 215.578182 
L 560.690057 215.578182 
L 561.549613 187.67039 
L 561.836131 196.972987 
L 562.409168 196.972987 
L 562.695686 187.67039 
L 562.982205 196.972987 
L 563.268723 187.67039 
L 563.555242 187.67039 
L 564.128279 169.065195 
L 564.414797 169.065195 
L 564.701316 159.762597 
L 564.987834 159.762597 
L 565.274353 150.46 
L 565.560871 150.46 
L 565.84739 141.157403 
L 566.133908 150.46 
L 567.279982 150.46 
L 567.566501 159.762597 
L 568.426056 159.762597 
L 568.712575 169.065195 
L 568.999093 159.762597 
L 569.285612 169.065195 
L 569.858649 169.065195 
L 570.145167 159.762597 
L 570.431686 169.065195 
L 571.004723 169.065195 
L 571.291241 178.367792 
L 571.57776 169.065195 
L 571.864278 178.367792 
L 573.583389 178.367792 
L 573.869907 187.67039 
L 574.442944 187.67039 
L 574.729463 196.972987 
L 575.015981 187.67039 
L 575.3025 187.67039 
L 575.589018 196.972987 
L 575.875537 187.67039 
L 576.162055 196.972987 
L 576.448574 187.67039 
L 577.021611 187.67039 
L 577.308129 178.367792 
L 577.881166 178.367792 
L 578.167685 187.67039 
L 578.454203 187.67039 
L 578.740722 196.972987 
L 579.600277 196.972987 
L 579.886796 187.67039 
L 580.173314 187.67039 
L 580.459833 178.367792 
L 582.178944 178.367792 
L 582.751981 159.762597 
L 584.471092 159.762597 
L 584.75761 150.46 
L 585.617166 150.46 
L 585.903684 159.762597 
L 586.763239 159.762597 
L 587.622795 187.67039 
L 587.909313 178.367792 
L 588.768869 178.367792 
L 589.055387 169.065195 
L 589.341906 169.065195 
L 589.628424 159.762597 
L 590.48798 187.67039 
L 591.061017 169.065195 
L 591.347535 178.367792 
L 591.634054 169.065195 
L 591.920572 169.065195 
L 592.207091 178.367792 
L 593.639683 178.367792 
L 593.926202 187.67039 
L 594.21272 187.67039 
L 595.358794 150.46 
L 595.645313 159.762597 
L 596.21835 159.762597 
L 596.504868 169.065195 
L 597.650942 169.065195 
L 598.223979 150.46 
L 598.510497 150.46 
L 598.797016 159.762597 
L 599.083534 150.46 
L 599.370053 159.762597 
L 600.516127 159.762597 
L 600.802645 169.065195 
L 601.089164 159.762597 
L 601.375682 169.065195 
L 601.662201 169.065195 
L 601.948719 178.367792 
L 603.66783 178.367792 
L 603.954349 169.065195 
L 604.240867 169.065195 
L 604.527386 178.367792 
L 606.246497 178.367792 
L 606.819534 159.762597 
L 607.106052 169.065195 
L 607.392571 159.762597 
L 607.679089 159.762597 
L 607.965608 150.46 
L 608.252126 159.762597 
L 608.538645 159.762597 
L 609.111682 178.367792 
L 611.117311 178.367792 
L 611.403829 169.065195 
L 611.976866 169.065195 
L 612.263385 159.762597 
L 612.549903 169.065195 
L 612.836422 169.065195 
L 613.12294 159.762597 
L 613.409459 169.065195 
L 613.695977 159.762597 
L 613.982496 169.065195 
L 614.269014 159.762597 
L 614.842051 159.762597 
L 615.12857 150.46 
L 615.415088 150.46 
L 615.701607 159.762597 
L 615.988125 159.762597 
L 616.274644 150.46 
L 616.847681 169.065195 
L 617.993755 169.065195 
L 618.280273 159.762597 
L 618.85331 159.762597 
L 619.139829 150.46 
L 619.999384 150.46 
L 620.285903 141.157403 
L 621.145458 141.157403 
L 621.718495 122.552208 
L 622.291532 122.552208 
L 622.57805 131.854805 
L 622.864569 131.854805 
L 623.151087 122.552208 
L 624.58368 122.552208 
L 624.870198 131.854805 
L 625.156717 131.854805 
L 625.443235 141.157403 
L 625.729754 141.157403 
L 626.589309 113.24961 
L 627.448865 113.24961 
L 627.735383 122.552208 
L 628.30842 122.552208 
L 628.594939 131.854805 
L 629.167976 131.854805 
L 629.741013 150.46 
L 630.600568 150.46 
L 630.887087 159.762597 
L 631.173605 159.762597 
L 631.460124 169.065195 
L 632.606198 131.854805 
L 633.465753 159.762597 
L 633.752271 159.762597 
L 634.03879 169.065195 
L 634.325308 169.065195 
L 634.898345 150.46 
L 635.471382 150.46 
L 635.757901 141.157403 
L 636.044419 141.157403 
L 636.330938 150.46 
L 636.617456 141.157403 
L 636.903975 141.157403 
L 637.190493 150.46 
L 637.477012 150.46 
L 637.76353 159.762597 
L 638.050049 159.762597 
L 638.336567 150.46 
L 639.196123 150.46 
L 639.482641 159.762597 
L 640.055678 159.762597 
L 640.342197 150.46 
L 641.488271 150.46 
L 642.347826 178.367792 
L 643.207382 178.367792 
L 643.4939 187.67039 
L 644.066937 187.67039 
L 644.353456 178.367792 
L 644.926493 178.367792 
L 645.213011 169.065195 
L 645.786048 169.065195 
L 646.072566 159.762597 
L 646.645603 178.367792 
L 646.932122 169.065195 
L 647.505159 169.065195 
L 647.791677 159.762597 
L 648.078196 169.065195 
L 648.364714 169.065195 
L 648.651233 159.762597 
L 648.937751 159.762597 
L 649.22427 169.065195 
L 649.510788 159.762597 
L 649.797307 159.762597 
L 650.083825 150.46 
L 650.083825 150.46 
" clip-path="url(#p0786efaf7c)" style="fill: none; stroke: #1f2937; stroke-width: 1.8; stroke-linecap: square"/>
   </g>
   <g id="line2d_12">
    <path d="M 48.094156 206.275584 
L 678.75 206.275584 
" clip-path="url(#p0786efaf7c)" style="fill: none; stroke-dasharray: 1.4,2.31; stroke-dashoffset: 0; stroke: #b91c1c; stroke-width: 1.4"/>
   </g>
   <g id="line2d_13">
    <path d="M 273.598532 293.72 
L 273.598532 7.2 
" clip-path="url(#p0786efaf7c)" style="fill: none; stroke-dasharray: 5.92,2.56; stroke-dashoffset: 0; stroke: #b7791f; stroke-width: 1.6"/>
   </g>
   <g id="patch_3">
    <path d="M 48.094156 293.72 
L 48.094156 7.2 
" style="fill: none; stroke: #1f2937; stroke-width: 0.8; stroke-linejoin: miter; stroke-linecap: square"/>
   </g>
   <g id="patch_4">
    <path d="M 48.094156 293.72 
L 678.75 293.72 
" style="fill: none; stroke: #1f2937; stroke-width: 0.8; stroke-linejoin: miter; stroke-linecap: square"/>
   </g>
   <g id="text_8">
    <text style="font-weight: 700; font-size: 9px; font-family: 'Noto Naskh Arabic', 'DejaVu Sans'; text-anchor: end; fill: #b7791f" x="265.002978" y="118.366039" transform="rotate(-0 265.002978 118.366039)">​ﺐﻳﺭﺪﺘﻟﺍ ﺕﺎﻧﺎﻴﺑ ﺔﻳﺎﻬﻧ</text>
   </g>
   <g id="text_9">
    <text style="font-size: 8.5px; font-family: 'Noto Naskh Arabic', 'DejaVu Sans'; text-anchor: start; fill: #b91c1c" x="515.778284" y="199.242821" transform="rotate(-0 515.778284 199.242821)">​%50 ﺔﻴﺋﺍﻮﺸﻌﻟﺍ ﻂﺧ</text>
   </g>
  </g>
 </g>
 <defs>
  <clipPath id="p0786efaf7c">
   <rect x="48.094156" y="7.2" width="630.655844" height="286.52"/>
  </clipPath>
 </defs>
</svg>
