<?xml version="1.0" encoding="utf-8" standalone="no"?>
<!DOCTYPE svg PUBLIC "-//W3C//DTD SVG 1.1//EN"
  "http://www.w3.org/Graphics/SVG/1.1/DTD/svg11.dtd">
<svg xmlns:xlink="http://www.w3.org/1999/xlink" width="757.95pt" height="282.75pt" viewBox="0 0 757.95 282.75" xmlns="http://www.w3.org/2000/svg" version="1.1">
 <metadata>
  <rdf:RDF xmlns:dc="http://purl.org/dc/elements/1.1/" xmlns:cc="http://creativecommons.org/ns#" xmlns:rdf="http://www.w3.org/1999/02/22-rdf-syntax-ns#">
   <cc:Work>
    <dc:type rdf:resource="http://purl.org/dc/dcmitype/StillImage"/>
    <dc:date>2026-07-19T19:47:27.560960</dc:date>
    <dc:format>image/svg+xml</dc:format>
    <dc:creator>
     <cc:Agent>
      <dc:title>Matplotlib v3.11.1, https://matplotlib.org/</dc:title>
     </cc:Agent>
    </dc:creator>
   </cc:Work>
  </rdf:RDF>
 </metadata>
 <defs>
  <style type="text/css">*{stroke-linejoin: round; stroke-linecap: butt}</style>
 </defs>
 <g id="figure_1">
  <g id="patch_1">
   <path d="M 0 282.75 
L 757.95 282.75 
L 757.95 0 
L 0 0 
z
" style="fill: #ffffff"/>
  </g>
  <g id="axes_1">
   <g id="patch_2">
    <path d="M 25.723125 175.022 
L 40.541625 175.022 
L 40.541625 108.003333 
L 25.723125 108.003333 
z
" clip-path="url(#p14b8d566df)" style="fill: #b91c1c; stroke: #ffffff; stroke-linejoin: miter"/>
   </g>
   <g id="patch_3">
    <path d="M 43.320094 175.022 
L 58.138594 175.022 
L 58.138594 108.003333 
L 43.320094 108.003333 
z
" clip-path="url(#p14b8d566df)" style="fill: #1f8a56; stroke: #ffffff; stroke-linejoin: miter"/>
   </g>
   <g id="patch_4">
    <path d="M 60.917063 175.022 
L 75.735563 175.022 
L 75.735563 108.003333 
L 60.917063 108.003333 
z
" clip-path="url(#p14b8d566df)" style="fill: #b91c1c; stroke: #ffffff; stroke-linejoin: miter"/>
   </g>
   <g id="patch_5">
    <path d="M 78.514031 175.022 
L 93.332531 175.022 
L 93.332531 108.003333 
L 78.514031 108.003333 
z
" clip-path="url(#p14b8d566df)" style="fill: #1f8a56; stroke: #ffffff; stroke-linejoin: miter"/>
   </g>
   <g id="patch_6">
    <path d="M 96.111 175.022 
L 110.9295 175.022 
L 110.9295 108.003333 
L 96.111 108.003333 
z
" clip-path="url(#p14b8d566df)" style="fill: #1f8a56; stroke: #ffffff; stroke-linejoin: miter"/>
   </g>
   <g id="patch_7">
    <path d="M 113.707969 175.022 
L 128.526469 175.022 
L 128.526469 108.003333 
L 113.707969 108.003333 
z
" clip-path="url(#p14b8d566df)" style="fill: #b91c1c; stroke: #ffffff; stroke-linejoin: miter"/>
   </g>
   <g id="patch_8">
    <path d="M 131.304937 175.022 
L 146.123437 175.022 
L 146.123437 108.003333 
L 131.304937 108.003333 
z
" clip-path="url(#p14b8d566df)" style="fill: #b91c1c; stroke: #ffffff; stroke-linejoin: miter"/>
   </g>
   <g id="patch_9">
    <path d="M 148.901906 175.022 
L 163.720406 175.022 
L 163.720406 108.003333 
L 148.901906 108.003333 
z
" clip-path="url(#p14b8d566df)" style="fill: #b91c1c; stroke: #ffffff; stroke-linejoin: miter"/>
   </g>
   <g id="patch_10">
    <path d="M 166.498875 175.022 
L 181.317375 175.022 
L 181.317375 108.003333 
L 166.498875 108.003333 
z
" clip-path="url(#p14b8d566df)" style="fill: #1f8a56; stroke: #ffffff; stroke-linejoin: miter"/>
   </g>
   <g id="patch_11">
    <path d="M 184.095844 175.022 
L 198.914344 175.022 
L 198.914344 108.003333 
L 184.095844 108.003333 
z
" clip-path="url(#p14b8d566df)" style="fill: #1f8a56; stroke: #ffffff; stroke-linejoin: miter"/>
   </g>
   <g id="patch_12">
    <path d="M 201.692813 175.022 
L 216.511313 175.022 
L 216.511313 108.003333 
L 201.692813 108.003333 
z
" clip-path="url(#p14b8d566df)" style="fill: #1f8a56; stroke: #ffffff; stroke-linejoin: miter"/>
   </g>
   <g id="patch_13">
    <path d="M 219.289781 175.022 
L 234.108281 175.022 
L 234.108281 108.003333 
L 219.289781 108.003333 
z
" clip-path="url(#p14b8d566df)" style="fill: #b91c1c; stroke: #ffffff; stroke-linejoin: miter"/>
   </g>
   <g id="patch_14">
    <path d="M 236.88675 175.022 
L 251.70525 175.022 
L 251.70525 108.003333 
L 236.88675 108.003333 
z
" clip-path="url(#p14b8d566df)" style="fill: #1f8a56; stroke: #ffffff; stroke-linejoin: miter"/>
   </g>
   <g id="patch_15">
    <path d="M 254.483719 175.022 
L 269.302219 175.022 
L 269.302219 108.003333 
L 254.483719 108.003333 
z
" clip-path="url(#p14b8d566df)" style="fill: #b91c1c; stroke: #ffffff; stroke-linejoin: miter"/>
   </g>
   <g id="patch_16">
    <path d="M 272.080688 175.022 
L 286.899188 175.022 
L 286.899188 108.003333 
L 272.080688 108.003333 
z
" clip-path="url(#p14b8d566df)" style="fill: #1f8a56; stroke: #ffffff; stroke-linejoin: miter"/>
   </g>
   <g id="patch_17">
    <path d="M 289.677656 175.022 
L 304.496156 175.022 
L 304.496156 108.003333 
L 289.677656 108.003333 
z
" clip-path="url(#p14b8d566df)" style="fill: #1f8a56; stroke: #ffffff; stroke-linejoin: miter"/>
   </g>
   <g id="patch_18">
    <path d="M 307.274625 175.022 
L 322.093125 175.022 
L 322.093125 108.003333 
L 307.274625 108.003333 
z
" clip-path="url(#p14b8d566df)" style="fill: #1f8a56; stroke: #ffffff; stroke-linejoin: miter"/>
   </g>
   <g id="patch_19">
    <path d="M 324.871594 175.022 
L 339.690094 175.022 
L 339.690094 108.003333 
L 324.871594 108.003333 
z
" clip-path="url(#p14b8d566df)" style="fill: #1f8a56; stroke: #ffffff; stroke-linejoin: miter"/>
   </g>
   <g id="patch_20">
    <path d="M 342.468563 175.022 
L 357.287063 175.022 
L 357.287063 108.003333 
L 342.468563 108.003333 
z
" clip-path="url(#p14b8d566df)" style="fill: #b91c1c; stroke: #ffffff; stroke-linejoin: miter"/>
   </g>
   <g id="patch_21">
    <path d="M 360.065531 175.022 
L 374.884031 175.022 
L 374.884031 108.003333 
L 360.065531 108.003333 
z
" clip-path="url(#p14b8d566df)" style="fill: #1f8a56; stroke: #ffffff; stroke-linejoin: miter"/>
   </g>
   <g id="text_1">
    <text style="font-size: 8.5px; font-family: 'Noto Naskh Arabic', 'DejaVu Sans'; text-anchor: middle; fill: #8a8f98" x="192.43125" y="229.474667" transform="rotate(-0 192.43125 229.474667)">​ﺭﺎﺒﺘﺧﺍ = ﺮﻤﺣﺃ   ﺐﻳﺭﺪﺗ = ﺮﻀﺧﺃ</text>
   </g>
   <g id="text_2">
    <text style="font-weight: 700; font-size: 10px; font-family: 'Noto Naskh Arabic', 'DejaVu Sans'; text-anchor: middle; fill: #b91c1c" x="192.43125" y="17.89" transform="rotate(-0 192.43125 17.89)">​ﻞﺒﻘﺘﺴﻤﻟﺍ ﺏﺮﺴﻳ ﻲﺋﺍﻮﺸﻋ ﻂﻠﺧ :ﺄﻄﺧ</text>
   </g>
  </g>
  <g id="axes_2">
   <g id="patch_22">
    <path d="M 398.810625 175.022 
L 413.629125 175.022 
L 413.629125 108.003333 
L 398.810625 108.003333 
z
" clip-path="url(#pd6f3408a38)" style="fill: #1f8a56; stroke: #ffffff; stroke-linejoin: miter"/>
   </g>
   <g id="patch_23">
    <path d="M 416.407594 175.022 
L 431.226094 175.022 
L 431.226094 108.003333 
L 416.407594 108.003333 
z
" clip-path="url(#pd6f3408a38)" style="fill: #1f8a56; stroke: #ffffff; stroke-linejoin: miter"/>
   </g>
   <g id="patch_24">
    <path d="M 434.004562 175.022 
L 448.823062 175.022 
L 448.823062 108.003333 
L 434.004562 108.003333 
z
" clip-path="url(#pd6f3408a38)" style="fill: #1f8a56; stroke: #ffffff; stroke-linejoin: miter"/>
   </g>
   <g id="patch_25">
    <path d="M 451.601531 175.022 
L 466.420031 175.022 
L 466.420031 108.003333 
L 451.601531 108.003333 
z
" clip-path="url(#pd6f3408a38)" style="fill: #1f8a56; stroke: #ffffff; stroke-linejoin: miter"/>
   </g>
   <g id="patch_26">
    <path d="M 469.1985 175.022 
L 484.017 175.022 
L 484.017 108.003333 
L 469.1985 108.003333 
z
" clip-path="url(#pd6f3408a38)" style="fill: #1f8a56; stroke: #ffffff; stroke-linejoin: miter"/>
   </g>
   <g id="patch_27">
    <path d="M 486.795469 175.022 
L 501.613969 175.022 
L 501.613969 108.003333 
L 486.795469 108.003333 
z
" clip-path="url(#pd6f3408a38)" style="fill: #1f8a56; stroke: #ffffff; stroke-linejoin: miter"/>
   </g>
   <g id="patch_28">
    <path d="M 504.392438 175.022 
L 519.210938 175.022 
L 519.210938 108.003333 
L 504.392438 108.003333 
z
" clip-path="url(#pd6f3408a38)" style="fill: #1f8a56; stroke: #ffffff; stroke-linejoin: miter"/>
   </g>
   <g id="patch_29">
    <path d="M 521.989406 175.022 
L 536.807906 175.022 
L 536.807906 108.003333 
L 521.989406 108.003333 
z
" clip-path="url(#pd6f3408a38)" style="fill: #1f8a56; stroke: #ffffff; stroke-linejoin: miter"/>
   </g>
   <g id="patch_30">
    <path d="M 539.586375 175.022 
L 554.404875 175.022 
L 554.404875 108.003333 
L 539.586375 108.003333 
z
" clip-path="url(#pd6f3408a38)" style="fill: #1f8a56; stroke: #ffffff; stroke-linejoin: miter"/>
   </g>
   <g id="patch_31">
    <path d="M 557.183344 175.022 
L 572.001844 175.022 
L 572.001844 108.003333 
L 557.183344 108.003333 
z
" clip-path="url(#pd6f3408a38)" style="fill: #1f8a56; stroke: #ffffff; stroke-linejoin: miter"/>
   </g>
   <g id="patch_32">
    <path d="M 574.780313 175.022 
L 589.598813 175.022 
L 589.598813 108.003333 
L 574.780313 108.003333 
z
" clip-path="url(#pd6f3408a38)" style="fill: #1f8a56; stroke: #ffffff; stroke-linejoin: miter"/>
   </g>
   <g id="patch_33">
    <path d="M 592.377281 175.022 
L 607.195781 175.022 
L 607.195781 108.003333 
L 592.377281 108.003333 
z
" clip-path="url(#pd6f3408a38)" style="fill: #1f8a56; stroke: #ffffff; stroke-linejoin: miter"/>
   </g>
   <g id="patch_34">
    <path d="M 609.97425 175.022 
L 624.79275 175.022 
L 624.79275 108.003333 
L 609.97425 108.003333 
z
" clip-path="url(#pd6f3408a38)" style="fill: #1f8a56; stroke: #ffffff; stroke-linejoin: miter"/>
   </g>
   <g id="patch_35">
    <path d="M 627.571219 175.022 
L 642.389719 175.022 
L 642.389719 108.003333 
L 627.571219 108.003333 
z
" clip-path="url(#pd6f3408a38)" style="fill: #1f8a56; stroke: #ffffff; stroke-linejoin: miter"/>
   </g>
   <g id="patch_36">
    <path d="M 645.168188 175.022 
L 659.986688 175.022 
L 659.986688 108.003333 
L 645.168188 108.003333 
z
" clip-path="url(#pd6f3408a38)" style="fill: #b91c1c; stroke: #ffffff; stroke-linejoin: miter"/>
   </g>
   <g id="patch_37">
    <path d="M 662.765156 175.022 
L 677.583656 175.022 
L 677.583656 108.003333 
L 662.765156 108.003333 
z
" clip-path="url(#pd6f3408a38)" style="fill: #b91c1c; stroke: #ffffff; stroke-linejoin: miter"/>
   </g>
   <g id="patch_38">
    <path d="M 680.362125 175.022 
L 695.180625 175.022 
L 695.180625 108.003333 
L 680.362125 108.003333 
z
" clip-path="url(#pd6f3408a38)" style="fill: #b91c1c; stroke: #ffffff; stroke-linejoin: miter"/>
   </g>
   <g id="patch_39">
    <path d="M 697.959094 175.022 
L 712.777594 175.022 
L 712.777594 108.003333 
L 697.959094 108.003333 
z
" clip-path="url(#pd6f3408a38)" style="fill: #b91c1c; stroke: #ffffff; stroke-linejoin: miter"/>
   </g>
   <g id="patch_40">
    <path d="M 715.556063 175.022 
L 730.374563 175.022 
L 730.374563 108.003333 
L 715.556063 108.003333 
z
" clip-path="url(#pd6f3408a38)" style="fill: #b91c1c; stroke: #ffffff; stroke-linejoin: miter"/>
   </g>
   <g id="patch_41">
    <path d="M 733.153031 175.022 
L 747.971531 175.022 
L 747.971531 108.003333 
L 733.153031 108.003333 
z
" clip-path="url(#pd6f3408a38)" style="fill: #b91c1c; stroke: #ffffff; stroke-linejoin: miter"/>
   </g>
   <g id="line2d_1">
    <path d="M 644.0568 275.55 
L 644.0568 24.23 
" clip-path="url(#pd6f3408a38)" style="fill: none; stroke-dasharray: 7.4,3.2; stroke-dashoffset: 0; stroke: #1f2937; stroke-width: 2"/>
   </g>
   <g id="text_3">
    <text style="font-weight: 700; font-size: 8.5px; font-family: 'Noto Naskh Arabic', 'DejaVu Sans'; text-anchor: middle; fill: #1f2937" x="645.168188" y="70.305333" transform="rotate(-0 645.168188 70.305333)">​ﻊﻄﻘﻟﺍ ﺔﻄﻘﻧ</text>
   </g>
   <g id="text_4">
    <text style="font-size: 8.5px; font-family: 'Noto Naskh Arabic', 'DejaVu Sans'; text-anchor: middle; fill: #8a8f98" x="565.51875" y="229.474667" transform="rotate(-0 565.51875 229.474667)">​ﺭﺎﺒﺘﺧﺍ = ﺮﻤﺣﺃ   ﺐﻳﺭﺪﺗ = ﺮﻀﺧﺃ</text>
   </g>
   <g id="text_5">
    <text style="font-weight: 700; font-size: 10px; font-family: 'Noto Naskh Arabic', 'DejaVu Sans'; text-anchor: middle; fill: #1f8a56" x="565.51875" y="17.89" transform="rotate(-0 565.51875 17.89)">​ﻡﺭﺎﺻ ﻲﻨﻣﺯ ﻊﻄﻗ :ﺢﻴﺤﺻ</text>
   </g>
  </g>
 </g>
 <defs>
  <clipPath id="p14b8d566df">
   <rect x="7.2" y="24.23" width="370.4625" height="251.32"/>
  </clipPath>
  <clipPath id="pd6f3408a38">
   <rect x="380.2875" y="24.23" width="370.4625" height="251.32"/>
  </clipPath>
 </defs>
</svg>
